%TF.GenerationSoftware,KiCad,Pcbnew,7.0.10*%
%TF.CreationDate,2024-07-22T09:22:49-04:00*%
%TF.ProjectId,12.X.1 - PLC Connector Combined.kicad_pcb_MERGED,31322e58-2e31-4202-9d20-504c4320436f,rev?*%
%TF.SameCoordinates,Original*%
%TF.FileFunction,Profile,NP*%
%FSLAX46Y46*%
G04 Gerber Fmt 4.6, Leading zero omitted, Abs format (unit mm)*
G04 Created by KiCad (PCBNEW 7.0.10) date 2024-07-22 09:22:49*
%MOMM*%
%LPD*%
G01*
G04 APERTURE LIST*
%TA.AperFunction,Profile*%
%ADD10C,0.250000*%
%TD*%
G04 APERTURE END LIST*
D10*
X116110000Y-111426993D02*
X127360000Y-111426993D01*
X174860000Y-76510000D02*
G75*
G03*
X174110000Y-75760000I-750000J0D01*
G01*
X115360007Y-87816993D02*
G75*
G03*
X116110000Y-88566993I749993J-7D01*
G01*
X115360000Y-97976993D02*
X115360000Y-96936993D01*
X116110000Y-116506993D02*
X127360000Y-116506993D01*
X115360007Y-123376993D02*
G75*
G03*
X116110000Y-124126993I749993J-7D01*
G01*
X128860000Y-73327000D02*
G75*
G03*
X128110000Y-74076993I0J-750000D01*
G01*
X128110000Y-75116993D02*
X128110000Y-74076993D01*
X127360000Y-98726993D02*
X116110000Y-98726993D01*
X128110007Y-89316993D02*
G75*
G03*
X127360000Y-88566993I-750007J-7D01*
G01*
X116110000Y-106347000D02*
G75*
G03*
X115360000Y-107096993I0J-750000D01*
G01*
X127360000Y-91107000D02*
G75*
G03*
X128110000Y-90356993I0J750000D01*
G01*
X174860000Y-122230000D02*
X174860000Y-123270000D01*
X162110000Y-84130000D02*
X162110000Y-90250000D01*
X128110007Y-114716993D02*
G75*
G03*
X127360000Y-113966993I-750007J-7D01*
G01*
X115360007Y-113216993D02*
G75*
G03*
X116110000Y-113966993I749993J-7D01*
G01*
X145110007Y-74076993D02*
G75*
G03*
X144360000Y-73326993I-750007J-7D01*
G01*
X116110000Y-101266993D02*
X127360000Y-101266993D01*
X127360000Y-116507000D02*
G75*
G03*
X128110000Y-115756993I0J750000D01*
G01*
X174110000Y-78300000D02*
G75*
G03*
X174860000Y-77550000I0J750000D01*
G01*
X128110007Y-99476993D02*
G75*
G03*
X127360000Y-98726993I-750007J-7D01*
G01*
X174110000Y-93540000D02*
G75*
G03*
X174860000Y-92790000I0J750000D01*
G01*
X162860000Y-106240000D02*
X174110000Y-106240000D01*
X174860000Y-112070000D02*
G75*
G03*
X174110000Y-111320000I-750000J0D01*
G01*
X174110000Y-129100000D02*
G75*
G03*
X174860000Y-128350000I0J750000D01*
G01*
X115360007Y-103056993D02*
G75*
G03*
X116110000Y-103806993I749993J-7D01*
G01*
X145860000Y-66760000D02*
X161360000Y-66760000D01*
X128110007Y-104556993D02*
G75*
G03*
X127360000Y-103806993I-750007J-7D01*
G01*
X174110000Y-124020000D02*
X162860000Y-124020000D01*
X115360007Y-77656993D02*
G75*
G03*
X116110000Y-78406993I749993J-7D01*
G01*
X162110000Y-109530000D02*
X162110000Y-110570000D01*
X127360000Y-83486993D02*
X116110000Y-83486993D01*
X174110000Y-78300000D02*
X162860000Y-78300000D01*
X127360000Y-121587000D02*
G75*
G03*
X128110000Y-120836993I0J750000D01*
G01*
X128110007Y-84236993D02*
G75*
G03*
X127360000Y-83486993I-750007J-7D01*
G01*
X116110000Y-75867000D02*
G75*
G03*
X115360000Y-76616993I0J-750000D01*
G01*
X161360000Y-139100000D02*
X145860000Y-139100000D01*
X161360000Y-139100000D02*
G75*
G03*
X162110000Y-138350000I0J750000D01*
G01*
X162860000Y-96080000D02*
X174110000Y-96080000D01*
X162860000Y-129100000D02*
G75*
G03*
X162110000Y-129850000I0J-750000D01*
G01*
X162860000Y-111320000D02*
X174110000Y-111320000D01*
X174860000Y-76510000D02*
X174860000Y-77550000D01*
X162110000Y-79050000D02*
X162110000Y-80090000D01*
X116110000Y-101267000D02*
G75*
G03*
X115360000Y-102016993I0J-750000D01*
G01*
X174860000Y-112070000D02*
X174860000Y-113110000D01*
X162860000Y-126560000D02*
X174110000Y-126560000D01*
X162110000Y-124770000D02*
X162110000Y-125810000D01*
X128110007Y-133916993D02*
G75*
G03*
X128860000Y-134666993I749993J-7D01*
G01*
X115360007Y-92896993D02*
G75*
G03*
X116110000Y-93646993I749993J-7D01*
G01*
X128110000Y-80196993D02*
X128110000Y-79156993D01*
X127360000Y-96187000D02*
G75*
G03*
X128110000Y-95436993I0J750000D01*
G01*
X128110000Y-100516993D02*
X128110000Y-99476993D01*
X162110000Y-129850000D02*
X162110000Y-138350000D01*
X128110007Y-119796993D02*
G75*
G03*
X127360000Y-119046993I-750007J-7D01*
G01*
X144360000Y-134666993D02*
X128860000Y-134666993D01*
X127360000Y-88566993D02*
X116110000Y-88566993D01*
X174860000Y-122230000D02*
G75*
G03*
X174110000Y-121480000I-750000J0D01*
G01*
X115360000Y-123376993D02*
X115360000Y-122336993D01*
X162860000Y-91000000D02*
X174110000Y-91000000D01*
X115360000Y-87816993D02*
X115360000Y-86776993D01*
X162860000Y-75760000D02*
X174110000Y-75760000D01*
X116110000Y-80946993D02*
X127360000Y-80946993D01*
X115360000Y-108136993D02*
X115360000Y-107096993D01*
X162860000Y-108780000D02*
G75*
G03*
X162110000Y-109530000I0J-750000D01*
G01*
X127360000Y-108886993D02*
X116110000Y-108886993D01*
X174110000Y-108780000D02*
X162860000Y-108780000D01*
X116110000Y-121587000D02*
G75*
G03*
X115360000Y-122336993I0J-750000D01*
G01*
X128110007Y-94396993D02*
G75*
G03*
X127360000Y-93646993I-750007J-7D01*
G01*
X145110000Y-74076993D02*
X145110000Y-67510000D01*
X162860000Y-78300000D02*
G75*
G03*
X162110000Y-79050000I0J-750000D01*
G01*
X116110000Y-75866993D02*
X127360000Y-75866993D01*
X174110000Y-98620000D02*
G75*
G03*
X174860000Y-97870000I0J750000D01*
G01*
X145860000Y-66760000D02*
G75*
G03*
X145110000Y-67510000I0J-750000D01*
G01*
X174860000Y-91750000D02*
X174860000Y-92790000D01*
X174860000Y-96830000D02*
G75*
G03*
X174110000Y-96080000I-750000J0D01*
G01*
X115360000Y-92896993D02*
X115360000Y-91856993D01*
X127360000Y-86027000D02*
G75*
G03*
X128110000Y-85276993I0J750000D01*
G01*
X174860000Y-127310000D02*
X174860000Y-128350000D01*
X162860000Y-121480000D02*
X174110000Y-121480000D01*
X162860000Y-98620000D02*
G75*
G03*
X162110000Y-99370000I0J-750000D01*
G01*
X128110007Y-124876993D02*
G75*
G03*
X127360000Y-124126993I-750007J-7D01*
G01*
X128110000Y-95436993D02*
X128110000Y-94396993D01*
X116110000Y-106346993D02*
X127360000Y-106346993D01*
X174860000Y-106990000D02*
G75*
G03*
X174110000Y-106240000I-750000J0D01*
G01*
X128110007Y-109636993D02*
G75*
G03*
X127360000Y-108886993I-750007J-7D01*
G01*
X115360000Y-77656993D02*
X115360000Y-76616993D01*
X128110000Y-110676993D02*
X128110000Y-109636993D01*
X115360007Y-118296993D02*
G75*
G03*
X116110000Y-119046993I749993J-7D01*
G01*
X174860000Y-91750000D02*
G75*
G03*
X174110000Y-91000000I-750000J0D01*
G01*
X162110000Y-105490000D02*
G75*
G03*
X162860000Y-106240000I750000J0D01*
G01*
X162110000Y-67510000D02*
G75*
G03*
X161360000Y-66760000I-750000J0D01*
G01*
X174110000Y-129100000D02*
X162860000Y-129100000D01*
X174110000Y-83380000D02*
G75*
G03*
X174860000Y-82630000I0J750000D01*
G01*
X174110000Y-113860000D02*
X162860000Y-113860000D01*
X127360000Y-113966993D02*
X116110000Y-113966993D01*
X162110000Y-95330000D02*
G75*
G03*
X162860000Y-96080000I750000J0D01*
G01*
X145110000Y-138350000D02*
G75*
G03*
X145860000Y-139100000I750000J0D01*
G01*
X174860000Y-127310000D02*
G75*
G03*
X174110000Y-126560000I-750000J0D01*
G01*
X145110000Y-138350000D02*
X145110000Y-133916993D01*
X162860000Y-83380000D02*
G75*
G03*
X162110000Y-84130000I0J-750000D01*
G01*
X162860000Y-113860000D02*
G75*
G03*
X162110000Y-114610000I0J-750000D01*
G01*
X115360000Y-113216993D02*
X115360000Y-112176993D01*
X127360000Y-93646993D02*
X116110000Y-93646993D01*
X128110000Y-120836993D02*
X128110000Y-119796993D01*
X128110007Y-79156993D02*
G75*
G03*
X127360000Y-78406993I-750007J-7D01*
G01*
X128860000Y-73326993D02*
X144360000Y-73326993D01*
X116110000Y-111427000D02*
G75*
G03*
X115360000Y-112176993I0J-750000D01*
G01*
X127360000Y-103806993D02*
X116110000Y-103806993D01*
X162110000Y-94290000D02*
X162110000Y-95330000D01*
X116110000Y-91106993D02*
X127360000Y-91106993D01*
X116110000Y-80947000D02*
G75*
G03*
X115360000Y-81696993I0J-750000D01*
G01*
X162860000Y-93540000D02*
G75*
G03*
X162110000Y-94290000I0J-750000D01*
G01*
X128110000Y-90356993D02*
X128110000Y-89316993D01*
X174110000Y-83380000D02*
X162860000Y-83380000D01*
X128110000Y-133916993D02*
X128110000Y-124876993D01*
X115360007Y-82736993D02*
G75*
G03*
X116110000Y-83486993I749993J-7D01*
G01*
X127360000Y-106347000D02*
G75*
G03*
X128110000Y-105596993I0J750000D01*
G01*
X128110000Y-115756993D02*
X128110000Y-114716993D01*
X162110000Y-114610000D02*
X162110000Y-120730000D01*
X116110000Y-96187000D02*
G75*
G03*
X115360000Y-96936993I0J-750000D01*
G01*
X115360007Y-97976993D02*
G75*
G03*
X116110000Y-98726993I749993J-7D01*
G01*
X127360000Y-75867000D02*
G75*
G03*
X128110000Y-75116993I0J750000D01*
G01*
X174110000Y-108780000D02*
G75*
G03*
X174860000Y-108030000I0J750000D01*
G01*
X162110000Y-110570000D02*
G75*
G03*
X162860000Y-111320000I750000J0D01*
G01*
X127360000Y-119046993D02*
X116110000Y-119046993D01*
X174110000Y-93540000D02*
X162860000Y-93540000D01*
X128110000Y-85276993D02*
X128110000Y-84236993D01*
X144360000Y-134667000D02*
G75*
G03*
X145110000Y-133916993I0J750000D01*
G01*
X174860000Y-81590000D02*
G75*
G03*
X174110000Y-80840000I-750000J0D01*
G01*
X116110000Y-116507000D02*
G75*
G03*
X115360000Y-117256993I0J-750000D01*
G01*
X162110000Y-90250000D02*
G75*
G03*
X162860000Y-91000000I750000J0D01*
G01*
X162110000Y-67510000D02*
X162110000Y-75010000D01*
X174110000Y-98620000D02*
X162860000Y-98620000D01*
X174860000Y-96830000D02*
X174860000Y-97870000D01*
X116110000Y-86026993D02*
X127360000Y-86026993D01*
X127360000Y-111427000D02*
G75*
G03*
X128110000Y-110676993I0J750000D01*
G01*
X128110000Y-105596993D02*
X128110000Y-104556993D01*
X127360000Y-124126993D02*
X116110000Y-124126993D01*
X115360000Y-118296993D02*
X115360000Y-117256993D01*
X115360000Y-103056993D02*
X115360000Y-102016993D01*
X116110000Y-86027000D02*
G75*
G03*
X115360000Y-86776993I0J-750000D01*
G01*
X162110000Y-99370000D02*
X162110000Y-105490000D01*
X162860000Y-80840000D02*
X174110000Y-80840000D01*
X116110000Y-91107000D02*
G75*
G03*
X115360000Y-91856993I0J-750000D01*
G01*
X174860000Y-81590000D02*
X174860000Y-82630000D01*
X174110000Y-113860000D02*
G75*
G03*
X174860000Y-113110000I0J750000D01*
G01*
X127360000Y-78406993D02*
X116110000Y-78406993D01*
X162860000Y-124020000D02*
G75*
G03*
X162110000Y-124770000I0J-750000D01*
G01*
X116110000Y-121586993D02*
X127360000Y-121586993D01*
X127360000Y-80947000D02*
G75*
G03*
X128110000Y-80196993I0J750000D01*
G01*
X115360007Y-108136993D02*
G75*
G03*
X116110000Y-108886993I749993J-7D01*
G01*
X115360000Y-82736993D02*
X115360000Y-81696993D01*
X162110000Y-120730000D02*
G75*
G03*
X162860000Y-121480000I750000J0D01*
G01*
X116110000Y-96186993D02*
X127360000Y-96186993D01*
X162110000Y-75010000D02*
G75*
G03*
X162860000Y-75760000I750000J0D01*
G01*
X162110000Y-80090000D02*
G75*
G03*
X162860000Y-80840000I750000J0D01*
G01*
X127360000Y-101267000D02*
G75*
G03*
X128110000Y-100516993I0J750000D01*
G01*
X162110000Y-125810000D02*
G75*
G03*
X162860000Y-126560000I750000J0D01*
G01*
X174860000Y-106990000D02*
X174860000Y-108030000D01*
X174110000Y-124020000D02*
G75*
G03*
X174860000Y-123270000I0J750000D01*
G01*
M02*
