%TF.GenerationSoftware,KiCad,Pcbnew,7.0.10*%
%TF.CreationDate,2024-07-22T21:05:33-04:00*%
%TF.ProjectId,12.X.1 - PLC Connector Combined,31322e58-2e31-4202-9d20-504c4320436f,rev?*%
%TF.SameCoordinates,Original*%
%TF.FileFunction,Profile,NP*%
%FSLAX46Y46*%
G04 Gerber Fmt 4.6, Leading zero omitted, Abs format (unit mm)*
G04 Created by KiCad (PCBNEW 7.0.10) date 2024-07-22 21:05:33*
%MOMM*%
%LPD*%
G01*
G04 APERTURE LIST*
%TA.AperFunction,Profile*%
%ADD10C,0.250000*%
%TD*%
G04 APERTURE END LIST*
D10*
X120050000Y-121843007D02*
X131300000Y-121843007D01*
X132050000Y-122593007D02*
G75*
G03*
X131300000Y-121843007I-750000J0D01*
G01*
X132050000Y-122593007D02*
X132050000Y-123633007D01*
X131300000Y-124383007D02*
G75*
G03*
X132050000Y-123633007I0J750000D01*
G01*
X131300000Y-124383007D02*
X120050000Y-124383007D01*
X120050000Y-124383007D02*
G75*
G03*
X119300000Y-125133007I0J-750000D01*
G01*
X119300000Y-125133007D02*
X119300000Y-133633007D01*
X118550000Y-134383007D02*
G75*
G03*
X119300000Y-133633007I0J750000D01*
G01*
X118550000Y-134383007D02*
X103050000Y-134383007D01*
X102300000Y-133633007D02*
G75*
G03*
X103050000Y-134383007I750000J0D01*
G01*
X102300000Y-133633007D02*
X102300000Y-129200000D01*
X102300000Y-129200000D02*
G75*
G03*
X100300000Y-129200000I-1000000J0D01*
G01*
X99550000Y-129950007D02*
G75*
G03*
X100300000Y-129200000I0J750000D01*
G01*
X99550000Y-129950000D02*
X84050000Y-129950000D01*
X83300007Y-129200000D02*
G75*
G03*
X84050000Y-129950000I749993J-7D01*
G01*
X83300000Y-129200000D02*
X83300000Y-119908820D01*
X83299987Y-119908820D02*
G75*
G03*
X82624181Y-119162498I-749987J13D01*
G01*
X82624181Y-119162497D02*
X71373357Y-119162497D01*
X70623411Y-118413687D02*
G75*
G03*
X71373357Y-119162497I749989J1180D01*
G01*
X70623358Y-118413687D02*
X70622069Y-117601225D01*
X71299986Y-116624933D02*
G75*
G03*
X70622070Y-117601225I36814J-749074D01*
G01*
X71299983Y-116624877D02*
X82549983Y-116624877D01*
X82549982Y-116624900D02*
G75*
G03*
X83300000Y-116085129I29918J749393D01*
G01*
X83300000Y-116085129D02*
X83300000Y-115045129D01*
X83299997Y-115045128D02*
G75*
G03*
X82549983Y-114082498I-719037J213271D01*
G01*
X82549983Y-114082497D02*
X71299983Y-114082497D01*
X70615643Y-113561235D02*
G75*
G03*
X71299983Y-114082496I714457J228128D01*
G01*
X70615659Y-113561230D02*
X70614009Y-112521232D01*
X71299981Y-111544823D02*
G75*
G03*
X70614010Y-112521232I28919J-749484D01*
G01*
X71299983Y-111544877D02*
X82549983Y-111544877D01*
X82549982Y-111544900D02*
G75*
G03*
X83300000Y-111005129I29918J749393D01*
G01*
X83300000Y-111005129D02*
X83300000Y-109965129D01*
X83299997Y-109965128D02*
G75*
G03*
X82549983Y-109002498I-719037J213271D01*
G01*
X82549983Y-109002497D02*
X71299983Y-109002497D01*
X70607618Y-108481231D02*
G75*
G03*
X71299983Y-109002497I714382J228424D01*
G01*
X70607600Y-108481237D02*
X70605950Y-107441238D01*
X71112773Y-106464931D02*
G75*
G03*
X70605950Y-107441238I199127J-723076D01*
G01*
X71112758Y-106464877D02*
X82363582Y-106464877D01*
X82363593Y-106464840D02*
G75*
G03*
X83300000Y-105925129I208507J720433D01*
G01*
X83300000Y-105925129D02*
X83300000Y-104885129D01*
X83299998Y-104885128D02*
G75*
G03*
X82359425Y-103922498I-707148J249881D01*
G01*
X82359425Y-103922497D02*
X71108601Y-103922497D01*
X70599537Y-103401244D02*
G75*
G03*
X71108601Y-103922496I723563J197437D01*
G01*
X70599540Y-103401243D02*
X70597890Y-102361245D01*
X71104720Y-101384955D02*
G75*
G03*
X70597891Y-102361245I199080J-723052D01*
G01*
X71104698Y-101384877D02*
X82355522Y-101384877D01*
X82355497Y-101384961D02*
G75*
G03*
X83300000Y-100845129I216003J718254D01*
G01*
X83300000Y-100845129D02*
X83300000Y-99805129D01*
X83299977Y-99805121D02*
G75*
G03*
X82351365Y-98842498I-706077J252914D01*
G01*
X82351365Y-98842497D02*
X71100541Y-98842497D01*
X70591453Y-98321258D02*
G75*
G03*
X71100541Y-98842497I723547J197451D01*
G01*
X70591481Y-98321250D02*
X70589831Y-97281251D01*
X71096649Y-96304914D02*
G75*
G03*
X70589831Y-97281251I199151J-723093D01*
G01*
X71096639Y-96304877D02*
X82347463Y-96304877D01*
X82347459Y-96304890D02*
G75*
G03*
X83300000Y-95765129I223541J715883D01*
G01*
X83300000Y-95765129D02*
X83300000Y-94725129D01*
X83299998Y-94725128D02*
G75*
G03*
X82343306Y-93762497I-704898J256161D01*
G01*
X82343306Y-93762497D02*
X71092482Y-93762497D01*
X70583434Y-93241253D02*
G75*
G03*
X71092482Y-93762497I723566J197446D01*
G01*
X70583422Y-93241256D02*
X70581772Y-92201257D01*
X71088597Y-91224940D02*
G75*
G03*
X70581773Y-92201257I199103J-723067D01*
G01*
X71088580Y-91224877D02*
X82339404Y-91224877D01*
X82339406Y-91224870D02*
G75*
G03*
X83300000Y-90685129I230994J713563D01*
G01*
X83300000Y-90685129D02*
X83300000Y-89645129D01*
X83300053Y-89645145D02*
G75*
G03*
X82575824Y-88682498I-719253J212638D01*
G01*
X82575824Y-88682497D02*
X71325000Y-88682497D01*
X70575011Y-87933687D02*
G75*
G03*
X71325000Y-88682497I749989J1180D01*
G01*
X70575001Y-87933687D02*
X70573355Y-86896067D01*
X71323354Y-86144862D02*
G75*
G03*
X70573356Y-86896067I46J-750045D01*
G01*
X71323354Y-86144877D02*
X82574178Y-86144877D01*
X82574178Y-86144850D02*
G75*
G03*
X83300000Y-85605129I5922J749943D01*
G01*
X83300000Y-85605129D02*
X83300000Y-84565129D01*
X83300016Y-84565135D02*
G75*
G03*
X82327201Y-83602497I-702316J263128D01*
G01*
X82327201Y-83602497D02*
X71076377Y-83602497D01*
X70567269Y-83081278D02*
G75*
G03*
X71076377Y-83602497I723531J197471D01*
G01*
X70567303Y-83081269D02*
X70565653Y-82041270D01*
X71299177Y-81064821D02*
G75*
G03*
X70565654Y-82041270I-18577J-749786D01*
G01*
X71299176Y-81064877D02*
X82550000Y-81064877D01*
X82550000Y-81064907D02*
G75*
G03*
X83300000Y-80314877I0J750000D01*
G01*
X83300000Y-80314877D02*
X83300000Y-79485129D01*
X83300047Y-79485143D02*
G75*
G03*
X82559706Y-78522498I-719147J212936D01*
G01*
X82559706Y-78522497D02*
X71308882Y-78522497D01*
X70558911Y-77773687D02*
G75*
G03*
X71308882Y-78522497I749989J1180D01*
G01*
X70558882Y-77773687D02*
X70557260Y-76751277D01*
X71299175Y-75984829D02*
G75*
G03*
X70557261Y-76751277I7925J-749978D01*
G01*
X71299176Y-75984877D02*
X82550000Y-75984877D01*
X82550000Y-75984907D02*
G75*
G03*
X83300000Y-75234877I0J750000D01*
G01*
X83300000Y-75234877D02*
X83300000Y-74242162D01*
X83299965Y-74242160D02*
G75*
G03*
X82551646Y-73442497I-748365J49653D01*
G01*
X82551646Y-73442497D02*
X71300822Y-73442497D01*
X70550811Y-72693687D02*
G75*
G03*
X71300822Y-73442497I749989J1180D01*
G01*
X70550823Y-72693687D02*
X70549177Y-71656067D01*
X71299176Y-70904884D02*
G75*
G03*
X70549178Y-71656067I24J-750023D01*
G01*
X71299176Y-70904877D02*
X82550000Y-70904877D01*
X82550000Y-70904907D02*
G75*
G03*
X83300000Y-70154877I0J750000D01*
G01*
X83300000Y-70154877D02*
X83300000Y-69115134D01*
X84050000Y-68365107D02*
G75*
G03*
X83300000Y-69115134I0J-750000D01*
G01*
X84050000Y-68365134D02*
X99550000Y-68365134D01*
X100299973Y-69115129D02*
G75*
G03*
X99550000Y-68365134I-749973J22D01*
G01*
X100300000Y-69115129D02*
G75*
G03*
X102300000Y-69115129I1000000J0D01*
G01*
X102300000Y-69115129D02*
X102300000Y-62757221D01*
X103049146Y-62043053D02*
G75*
G03*
X102300000Y-62757221I-46J-749954D01*
G01*
X103049146Y-62043007D02*
X118550000Y-62043007D01*
X119300000Y-62793007D02*
G75*
G03*
X118550000Y-62043007I-750000J0D01*
G01*
X119300000Y-62793007D02*
X119300000Y-70293007D01*
X119300000Y-70293007D02*
G75*
G03*
X120050000Y-71043007I750000J0D01*
G01*
X120050000Y-71043007D02*
X131300000Y-71043007D01*
X132050000Y-71793007D02*
G75*
G03*
X131300000Y-71043007I-750000J0D01*
G01*
X132050000Y-71793007D02*
X132050000Y-72833007D01*
X131300000Y-73583007D02*
G75*
G03*
X132050000Y-72833007I0J750000D01*
G01*
X131300000Y-73583007D02*
X120050000Y-73583007D01*
X120050000Y-73583007D02*
G75*
G03*
X119300000Y-74333007I0J-750000D01*
G01*
X119300000Y-74333007D02*
X119300000Y-75373007D01*
X119300000Y-75373007D02*
G75*
G03*
X120050000Y-76123007I750000J0D01*
G01*
X120050000Y-76123007D02*
X131300000Y-76123007D01*
X132050000Y-76873007D02*
G75*
G03*
X131300000Y-76123007I-750000J0D01*
G01*
X132050000Y-76873007D02*
X132050000Y-77913007D01*
X131300000Y-78663007D02*
G75*
G03*
X132050000Y-77913007I0J750000D01*
G01*
X131300000Y-78663007D02*
X120050000Y-78663007D01*
X120050000Y-78663007D02*
G75*
G03*
X119300000Y-79413007I0J-750000D01*
G01*
X119300000Y-79413007D02*
X119300000Y-85533007D01*
X119300000Y-85533007D02*
G75*
G03*
X120050000Y-86283007I750000J0D01*
G01*
X120050000Y-86283007D02*
X131300000Y-86283007D01*
X132050000Y-87033007D02*
G75*
G03*
X131300000Y-86283007I-750000J0D01*
G01*
X132050000Y-87033007D02*
X132050000Y-88073007D01*
X131300000Y-88823007D02*
G75*
G03*
X132050000Y-88073007I0J750000D01*
G01*
X131300000Y-88823007D02*
X120050000Y-88823007D01*
X120050000Y-88823007D02*
G75*
G03*
X119300000Y-89573007I0J-750000D01*
G01*
X119300000Y-89573007D02*
X119300000Y-90613007D01*
X119300000Y-90613007D02*
G75*
G03*
X120050000Y-91363007I750000J0D01*
G01*
X120050000Y-91363007D02*
X131300000Y-91363007D01*
X132050000Y-92113007D02*
G75*
G03*
X131300000Y-91363007I-750000J0D01*
G01*
X132050000Y-92113007D02*
X132050000Y-93153007D01*
X131300000Y-93903007D02*
G75*
G03*
X132050000Y-93153007I0J750000D01*
G01*
X131300000Y-93903007D02*
X120050000Y-93903007D01*
X120050000Y-93903007D02*
G75*
G03*
X119300000Y-94653007I0J-750000D01*
G01*
X119300000Y-94653007D02*
X119300000Y-100773007D01*
X119300000Y-100773007D02*
G75*
G03*
X120050000Y-101523007I750000J0D01*
G01*
X120050000Y-101523007D02*
X131300000Y-101523007D01*
X132050000Y-102273007D02*
G75*
G03*
X131300000Y-101523007I-750000J0D01*
G01*
X132050000Y-102273007D02*
X132050000Y-103313007D01*
X131300000Y-104063007D02*
G75*
G03*
X132050000Y-103313007I0J750000D01*
G01*
X131300000Y-104063007D02*
X120050000Y-104063007D01*
X120050000Y-104063007D02*
G75*
G03*
X119300000Y-104813007I0J-750000D01*
G01*
X119300000Y-104813007D02*
X119300000Y-105853007D01*
X119300000Y-105853007D02*
G75*
G03*
X120050000Y-106603007I750000J0D01*
G01*
X120050000Y-106603007D02*
X131300000Y-106603007D01*
X132050000Y-107353007D02*
G75*
G03*
X131300000Y-106603007I-750000J0D01*
G01*
X132050000Y-107353007D02*
X132050000Y-108393007D01*
X131300000Y-109143007D02*
G75*
G03*
X132050000Y-108393007I0J750000D01*
G01*
X131300000Y-109143007D02*
X120050000Y-109143007D01*
X120050000Y-109143007D02*
G75*
G03*
X119300000Y-109893007I0J-750000D01*
G01*
X119300000Y-109893007D02*
X119300000Y-116013007D01*
X119300000Y-116013007D02*
G75*
G03*
X120050000Y-116763007I750000J0D01*
G01*
X120050000Y-116763007D02*
X131300000Y-116763007D01*
X132050000Y-117513007D02*
G75*
G03*
X131300000Y-116763007I-750000J0D01*
G01*
X132050000Y-117513007D02*
X132050000Y-118553007D01*
X131300000Y-119303007D02*
G75*
G03*
X132050000Y-118553007I0J750000D01*
G01*
X131300000Y-119303007D02*
X120050000Y-119303007D01*
X120050000Y-119303007D02*
G75*
G03*
X119300000Y-120053007I0J-750000D01*
G01*
X119300000Y-120053007D02*
X119300000Y-121093007D01*
X119300000Y-121093007D02*
G75*
G03*
X120050000Y-121843007I750000J0D01*
G01*
X102300000Y-115180000D02*
G75*
G03*
X100300000Y-115180000I-1000000J0D01*
G01*
X100300000Y-115180000D02*
X100300000Y-125200000D01*
X100300000Y-125200000D02*
G75*
G03*
X102300000Y-125200000I1000000J0D01*
G01*
X102300000Y-125200000D02*
X102300000Y-115180000D01*
X102300000Y-101160000D02*
G75*
G03*
X100300000Y-101160000I-1000000J0D01*
G01*
X100300000Y-101160000D02*
X100300000Y-111180000D01*
X100300000Y-111180000D02*
G75*
G03*
X102300000Y-111180000I1000000J0D01*
G01*
X102300000Y-111180000D02*
X102300000Y-101160000D01*
X100300000Y-97155129D02*
G75*
G03*
X102300000Y-97155129I1000000J0D01*
G01*
X102300000Y-97155129D02*
X102300000Y-87135129D01*
X102300000Y-87135129D02*
G75*
G03*
X100300000Y-87135129I-1000000J0D01*
G01*
X100300000Y-87135129D02*
X100300000Y-97155129D01*
X100300000Y-83135129D02*
G75*
G03*
X102300000Y-83135129I1000000J0D01*
G01*
X102300000Y-83135129D02*
X102300000Y-73115129D01*
X102300000Y-73115129D02*
G75*
G03*
X100300000Y-73115129I-1000000J0D01*
G01*
X100300000Y-73115129D02*
X100300000Y-83135129D01*
M02*
