M48
; DRILL file {KiCad 7.0.10} date Mon Jul 22 08:22:25 2024
; FORMAT={-:-/ absolute / metric / decimal}
; #@! TF.CreationDate,2024-07-22T08:22:25-04:00
; #@! TF.GenerationSoftware,Kicad,Pcbnew,7.0.10
; #@! TF.FileFunction,Plated,1,2,PTH
FMAT,2
METRIC
; #@! TA.AperFunction,Plated,PTH,ViaDrill
T1C0.400
; #@! TA.AperFunction,Plated,PTH,ComponentDrill
T2C0.800
; #@! TA.AperFunction,Plated,PTH,ComponentDrill
T3C0.991
; #@! TA.AperFunction,Plated,PTH,ComponentDrill
T4C1.300
%
G90
G05
T1
X124.204Y-81.92
X124.331Y-112.654
X124.331Y-117.734
X124.331Y-122.814
X124.458Y-107.574
X124.585Y-87.254
X124.712Y-92.334
X124.712Y-97.414
X124.712Y-102.494
X125.728Y-117.734
X125.728Y-122.814
X125.855Y-81.92
X126.109Y-107.574
X126.109Y-112.654
X126.236Y-92.334
X126.363Y-87.254
X126.363Y-102.494
X126.49Y-97.414
X127.125Y-122.814
X127.252Y-117.734
X127.633Y-81.92
X127.633Y-107.574
X127.633Y-112.654
X127.887Y-92.334
X127.887Y-102.494
X128.141Y-87.254
X128.141Y-97.414
X134.618Y-119.766
X134.872Y-115.194
X135.888Y-115.194
X136.142Y-105.161
X137.285Y-105.161
X140.714Y-106.177
X143.762Y-107.574
X145.903Y-99.232
X147.681Y-85.516
X147.681Y-102.915
X147.681Y-104.312
X147.808Y-84.373
X148.189Y-131.49
X148.697Y-83.611
X149.647Y-116.951
X149.708Y-118.536
X150.983Y-73.197
X150.983Y-124.333
X151.358Y-128.817
X151.745Y-72.435
X156.319Y-116.375
X157.841Y-78.658
X158.222Y-124.251
X158.476Y-94.914
X159.964Y-108.091
X160.127Y-94.914
X160.174Y-78.691
X160.174Y-124.261
X160.381Y-109.15
X162.864Y-107.571
X162.864Y-112.591
X162.964Y-97.371
X162.978Y-127.825
X163.064Y-82.092
X163.064Y-92.271
X163.094Y-76.981
X163.264Y-122.741
X164.124Y-97.371
X164.164Y-112.571
X164.234Y-92.241
X164.284Y-77.011
X164.284Y-82.101
X164.304Y-107.571
X164.498Y-122.759
X164.7Y-127.825
X165.304Y-97.371
X165.474Y-92.261
X165.584Y-112.541
X165.594Y-82.081
X165.694Y-77.011
X165.734Y-107.551
X165.833Y-122.743
X166.13Y-127.825
T2
X129.738Y-115.252
X129.738Y-120.332
X129.778Y-89.942
X129.778Y-95.022
X129.778Y-105.237
X129.778Y-110.317
X129.868Y-79.722
X129.868Y-84.802
T3
X133.548Y-131.047
X136.048Y-131.047
X138.548Y-131.047
X141.048Y-131.047
X149.595Y-135.825
X152.095Y-135.825
X154.595Y-135.825
X157.095Y-135.825
T4
X137.608Y-76.867
X137.608Y-81.947
X137.628Y-87.077
X137.628Y-92.157
X137.628Y-107.757
X137.628Y-112.837
X137.658Y-97.402
X137.658Y-102.482
X137.658Y-117.777
X137.658Y-122.857
X153.418Y-123.6
X153.418Y-128.68
X153.448Y-107.655
X153.448Y-112.735
X153.468Y-71.405
X153.468Y-76.485
X153.468Y-81.565
X153.468Y-92.04
X153.468Y-97.12
M30
