%TF.GenerationSoftware,KiCad,Pcbnew,7.0.10*%
%TF.CreationDate,2024-07-22T08:22:22-04:00*%
%TF.ProjectId,12.X.1 - PLC Connector Combined,31322e58-2e31-4202-9d20-504c4320436f,rev?*%
%TF.SameCoordinates,Original*%
%TF.FileFunction,Copper,L2,Bot*%
%TF.FilePolarity,Positive*%
%FSLAX46Y46*%
G04 Gerber Fmt 4.6, Leading zero omitted, Abs format (unit mm)*
G04 Created by KiCad (PCBNEW 7.0.10) date 2024-07-22 08:22:22*
%MOMM*%
%LPD*%
G01*
G04 APERTURE LIST*
G04 Aperture macros list*
%AMRoundRect*
0 Rectangle with rounded corners*
0 $1 Rounding radius*
0 $2 $3 $4 $5 $6 $7 $8 $9 X,Y pos of 4 corners*
0 Add a 4 corners polygon primitive as box body*
4,1,4,$2,$3,$4,$5,$6,$7,$8,$9,$2,$3,0*
0 Add four circle primitives for the rounded corners*
1,1,$1+$1,$2,$3*
1,1,$1+$1,$4,$5*
1,1,$1+$1,$6,$7*
1,1,$1+$1,$8,$9*
0 Add four rect primitives between the rounded corners*
20,1,$1+$1,$2,$3,$4,$5,0*
20,1,$1+$1,$4,$5,$6,$7,0*
20,1,$1+$1,$6,$7,$8,$9,0*
20,1,$1+$1,$8,$9,$2,$3,0*%
G04 Aperture macros list end*
%TA.AperFunction,ComponentPad*%
%ADD10C,1.498600*%
%TD*%
%TA.AperFunction,ComponentPad*%
%ADD11C,1.600000*%
%TD*%
%TA.AperFunction,ComponentPad*%
%ADD12O,1.600000X1.600000*%
%TD*%
%TA.AperFunction,ComponentPad*%
%ADD13R,1.950000X1.950000*%
%TD*%
%TA.AperFunction,ComponentPad*%
%ADD14C,1.950000*%
%TD*%
%TA.AperFunction,SMDPad,CuDef*%
%ADD15RoundRect,0.572500X3.045750X0.572500X-3.045750X0.572500X-3.045750X-0.572500X3.045750X-0.572500X0*%
%TD*%
%TA.AperFunction,ViaPad*%
%ADD16C,0.800000*%
%TD*%
%TA.AperFunction,Conductor*%
%ADD17C,2.000000*%
%TD*%
%TA.AperFunction,Conductor*%
%ADD18C,1.016000*%
%TD*%
%TA.AperFunction,Conductor*%
%ADD19C,1.500000*%
%TD*%
%TA.AperFunction,Conductor*%
%ADD20C,1.999996*%
%TD*%
%TA.AperFunction,Conductor*%
%ADD21C,1.270000*%
%TD*%
G04 APERTURE END LIST*
D10*
%TO.P,J321,1,1*%
%TO.N,Net-(J304-Pin_1)*%
X157095050Y-135824601D03*
%TO.P,J321,2,2*%
%TO.N,Net-(J306-Pin_1)*%
X154595050Y-135824601D03*
%TO.P,J321,3,3*%
%TO.N,Net-(J314-Pin_1)*%
X152095050Y-135824601D03*
%TO.P,J321,4,4*%
%TO.N,Net-(J302-Pin_1)*%
X149595050Y-135824601D03*
%TD*%
D11*
%TO.P,R203,1*%
%TO.N,Net-(J207-Pin_1)*%
X129778250Y-89942224D03*
D12*
%TO.P,R203,2*%
%TO.N,M*%
X129778250Y-95022224D03*
%TD*%
D13*
%TO.P,J318,1,1*%
%TO.N,Net-(J305-Pin_1)*%
X153468250Y-92040000D03*
D14*
%TO.P,J318,2,2*%
%TO.N,Net-(J306-Pin_1)*%
X153468250Y-97120000D03*
%TD*%
D13*
%TO.P,J317,1,1*%
%TO.N,GNDPWR*%
X153468250Y-71405000D03*
D14*
%TO.P,J317,2,2*%
%TO.N,Net-(J303-Pin_1)*%
X153468250Y-76485000D03*
%TO.P,J317,3,3*%
%TO.N,Net-(J304-Pin_1)*%
X153468250Y-81565000D03*
%TD*%
D13*
%TO.P,J222,1,1*%
%TO.N,Net-(J205-Pin_1)*%
X137658250Y-102482224D03*
D14*
%TO.P,J222,2,2*%
%TO.N,Net-(J206-Pin_1)*%
X137658250Y-97402224D03*
%TD*%
D11*
%TO.P,R202,1*%
%TO.N,M*%
X129778250Y-105237224D03*
D12*
%TO.P,R202,2*%
%TO.N,Net-(J202-Pin_1)*%
X129778250Y-110317224D03*
%TD*%
D11*
%TO.P,R201,1*%
%TO.N,Net-(J201-Pin_1)*%
X129738250Y-120332224D03*
D12*
%TO.P,R201,2*%
%TO.N,M*%
X129738250Y-115252224D03*
%TD*%
D13*
%TO.P,J225,1,1*%
%TO.N,Net-(J207-Pin_1)*%
X137628250Y-92157224D03*
D14*
%TO.P,J225,2,2*%
%TO.N,Net-(J208-Pin_1)*%
X137628250Y-87077224D03*
%TD*%
%TO.P,J319,2,2*%
%TO.N,Net-(J302-Pin_1)*%
X153418250Y-128680000D03*
D13*
%TO.P,J319,1,1*%
%TO.N,Net-(J301-Pin_1)*%
X153418250Y-123600000D03*
%TD*%
%TO.P,J223,1,1*%
%TO.N,M*%
X137608250Y-81947224D03*
D14*
%TO.P,J223,2,2*%
%TO.N,Net-(J210-Pin_1)*%
X137608250Y-76867224D03*
%TD*%
D13*
%TO.P,J224,1,1*%
%TO.N,Net-(J201-Pin_1)*%
X137658250Y-122857224D03*
D14*
%TO.P,J224,2,2*%
%TO.N,Net-(J202-Pin_1)*%
X137658250Y-117777224D03*
%TD*%
D13*
%TO.P,J221,1,1*%
%TO.N,Net-(J203-Pin_1)*%
X137628250Y-112837224D03*
D14*
%TO.P,J221,2,2*%
%TO.N,Net-(J204-Pin_1)*%
X137628250Y-107757224D03*
%TD*%
D10*
%TO.P,J226,1,1*%
%TO.N,Net-(J206-Pin_1)*%
X141048250Y-131047224D03*
%TO.P,J226,2,2*%
%TO.N,Net-(J205-Pin_1)*%
X138548250Y-131047224D03*
%TO.P,J226,3,3*%
%TO.N,Net-(J204-Pin_1)*%
X136048250Y-131047224D03*
%TO.P,J226,4,4*%
%TO.N,Net-(J203-Pin_1)*%
X133548250Y-131047224D03*
%TD*%
D11*
%TO.P,R204,1*%
%TO.N,M*%
X129868250Y-79722224D03*
D12*
%TO.P,R204,2*%
%TO.N,Net-(J208-Pin_1)*%
X129868250Y-84802224D03*
%TD*%
D13*
%TO.P,J320,1,1*%
%TO.N,Net-(J313-Pin_1)*%
X153448250Y-107655000D03*
D14*
%TO.P,J320,2,2*%
%TO.N,Net-(J314-Pin_1)*%
X153448250Y-112735000D03*
%TD*%
D15*
%TO.P,J212,1,Pin_1*%
%TO.N,Net-(J202-Pin_1)*%
X119118250Y-117757224D03*
%TD*%
%TO.P,J215,1,Pin_1*%
%TO.N,Net-(J205-Pin_1)*%
X119048250Y-102547224D03*
%TD*%
%TO.P,J313,1,Pin_1*%
%TO.N,Net-(J313-Pin_1)*%
X171148250Y-107515000D03*
%TD*%
%TO.P,J216,1,Pin_1*%
%TO.N,Net-(J206-Pin_1)*%
X119128250Y-97437224D03*
%TD*%
%TO.P,J303,1,Pin_1*%
%TO.N,Net-(J303-Pin_1)*%
X171118250Y-77025000D03*
%TD*%
%TO.P,J314,1,Pin_1*%
%TO.N,Net-(J314-Pin_1)*%
X171158250Y-112585000D03*
%TD*%
%TO.P,J302,1,Pin_1*%
%TO.N,Net-(J302-Pin_1)*%
X171148250Y-127825000D03*
%TD*%
%TO.P,J305,1,Pin_1*%
%TO.N,Net-(J305-Pin_1)*%
X171138250Y-92265000D03*
%TD*%
%TO.P,J213,1,Pin_1*%
%TO.N,Net-(J203-Pin_1)*%
X119128250Y-112677224D03*
%TD*%
%TO.P,J304,1,Pin_1*%
%TO.N,Net-(J304-Pin_1)*%
X171141750Y-82105000D03*
%TD*%
%TO.P,J219,1,Pin_1*%
%TO.N,M*%
X119098250Y-82187224D03*
%TD*%
%TO.P,J214,1,Pin_1*%
%TO.N,Net-(J204-Pin_1)*%
X119118250Y-107607224D03*
%TD*%
%TO.P,J218,1,Pin_1*%
%TO.N,Net-(J208-Pin_1)*%
X119118250Y-87287224D03*
%TD*%
%TO.P,J301,1,Pin_1*%
%TO.N,Net-(J301-Pin_1)*%
X171138250Y-122735000D03*
%TD*%
%TO.P,J220,1,Pin_1*%
%TO.N,Net-(J210-Pin_1)*%
X119098250Y-77127224D03*
%TD*%
%TO.P,J217,1,Pin_1*%
%TO.N,Net-(J207-Pin_1)*%
X119128250Y-92347224D03*
%TD*%
%TO.P,J306,1,Pin_1*%
%TO.N,Net-(J306-Pin_1)*%
X171158250Y-97345000D03*
%TD*%
%TO.P,J211,1,Pin_1*%
%TO.N,Net-(J201-Pin_1)*%
X119098250Y-122847224D03*
%TD*%
D16*
%TO.N,Net-(J306-Pin_1)*%
X165304251Y-97370999D03*
X162964251Y-97370999D03*
X164124251Y-97370999D03*
X145903251Y-99231999D03*
%TO.N,GNDPWR*%
X148697251Y-83610999D03*
X147681251Y-102914999D03*
X158476251Y-94913999D03*
X160127251Y-94913999D03*
X149647257Y-116951005D03*
X160174251Y-78690999D03*
X159964251Y-108090999D03*
X147681251Y-104311999D03*
X160174251Y-124260999D03*
X147681251Y-85515999D03*
X157841251Y-78657999D03*
X151745251Y-72434999D03*
X150983251Y-73196999D03*
X160381241Y-109150499D03*
X158222251Y-124250999D03*
X149708251Y-118535999D03*
X147808251Y-84372999D03*
%TO.N,Net-(J314-Pin_1)*%
X165584251Y-112540999D03*
X162864251Y-112591092D03*
X164164251Y-112570999D03*
X148189251Y-131489999D03*
%TO.N,Net-(J302-Pin_1)*%
X166130474Y-127824776D03*
X164700473Y-127824777D03*
X162978026Y-127824774D03*
%TO.N,Net-(J304-Pin_1)*%
X163064251Y-82091838D03*
X164284251Y-82100999D03*
X151358053Y-128816801D03*
X156319251Y-116374999D03*
X165594251Y-82080999D03*
X150983251Y-124332999D03*
%TO.N,Net-(J203-Pin_1)*%
X124331250Y-112654224D03*
X127633250Y-112654224D03*
X134618150Y-119766224D03*
X126109250Y-112654224D03*
%TO.N,Net-(J204-Pin_1)*%
X127633250Y-107574224D03*
X126109250Y-107574224D03*
X124458250Y-107574224D03*
%TO.N,Net-(J205-Pin_1)*%
X127887250Y-102494224D03*
X124712250Y-102494224D03*
X140714254Y-106177224D03*
X126363250Y-102494224D03*
X143762250Y-107574224D03*
%TO.N,Net-(J206-Pin_1)*%
X126490248Y-97414224D03*
X128141250Y-97414224D03*
X124712250Y-97414224D03*
%TO.N,M*%
X136142250Y-105161224D03*
X137285250Y-105161224D03*
X124204250Y-81920224D03*
X135888250Y-115194224D03*
X125855250Y-81920224D03*
X134872252Y-115194224D03*
X127633250Y-81920224D03*
%TO.N,Net-(J201-Pin_1)*%
X127125250Y-122814224D03*
X124331250Y-122814224D03*
X125728250Y-122814224D03*
%TO.N,Net-(J202-Pin_1)*%
X127252250Y-117734224D03*
X124331250Y-117734224D03*
X125728250Y-117734224D03*
%TO.N,Net-(J207-Pin_1)*%
X127887250Y-92334224D03*
X126236250Y-92334224D03*
X124712250Y-92334224D03*
%TO.N,Net-(J208-Pin_1)*%
X128141250Y-87254224D03*
X124585250Y-87254224D03*
X126363250Y-87254224D03*
%TO.N,Net-(J301-Pin_1)*%
X164497834Y-122759051D03*
X163264251Y-122740935D03*
X165832549Y-122742573D03*
%TO.N,Net-(J303-Pin_1)*%
X165694251Y-77010999D03*
X164284251Y-77010999D03*
X163094251Y-76980999D03*
%TO.N,Net-(J305-Pin_1)*%
X165474251Y-92260999D03*
X164234251Y-92240999D03*
X163064251Y-92270999D03*
%TO.N,Net-(J313-Pin_1)*%
X162864251Y-107570999D03*
X164304251Y-107570999D03*
X165734251Y-107550999D03*
%TD*%
D17*
%TO.N,Net-(J301-Pin_1)*%
X155361585Y-121456999D02*
X153329585Y-123488999D01*
X160576999Y-121456999D02*
X155361585Y-121456999D01*
X161530000Y-122410000D02*
X160576999Y-121456999D01*
X163264251Y-122740935D02*
X161860935Y-122740935D01*
X161860935Y-122740935D02*
X161530000Y-122410000D01*
%TO.N,Net-(J305-Pin_1)*%
X161535000Y-92270999D02*
X170964251Y-92270999D01*
X161130000Y-91865999D02*
X161535000Y-92270999D01*
X153656583Y-91865999D02*
X161130000Y-91865999D01*
X153529583Y-91992999D02*
X153656583Y-91865999D01*
%TO.N,Net-(J303-Pin_1)*%
X161810999Y-77010999D02*
X160155999Y-75355999D01*
X164284251Y-77010999D02*
X161810999Y-77010999D01*
X160155999Y-75355999D02*
X154285251Y-75355999D01*
X154285251Y-75355999D02*
X153396251Y-76244999D01*
%TO.N,Net-(J306-Pin_1)*%
X171064251Y-97370999D02*
X162964251Y-97370999D01*
X162964251Y-97370999D02*
X153827583Y-97370999D01*
D18*
X154577351Y-135553999D02*
X145903251Y-126879899D01*
X145903251Y-126879899D02*
X145903251Y-99231999D01*
D17*
X153827583Y-97370999D02*
X153529583Y-97072999D01*
%TO.N,GNDPWR*%
X158476251Y-94913999D02*
X158095251Y-94532999D01*
X158095251Y-94532999D02*
X149713251Y-94532999D01*
X156252251Y-126090999D02*
X149772774Y-126090999D01*
D19*
X160284251Y-109600999D02*
X160284251Y-108410999D01*
D17*
X153015251Y-71164999D02*
X150983251Y-73196999D01*
X150618251Y-78660999D02*
X157838251Y-78660999D01*
X148819251Y-107481999D02*
X148514751Y-107177499D01*
D19*
X158222251Y-124250999D02*
X156317251Y-126155999D01*
D17*
X150856251Y-73196999D02*
X149078250Y-74975000D01*
X148819251Y-116122999D02*
X148819251Y-107481999D01*
X157237251Y-110407999D02*
X159554252Y-108090998D01*
X147681251Y-84499999D02*
X149094251Y-83086999D01*
X147681251Y-96564999D02*
X147681251Y-106343999D01*
X160127251Y-94913999D02*
X158476251Y-94913999D01*
D20*
X148819251Y-116122999D02*
X149647257Y-116951005D01*
D17*
X157838251Y-78660999D02*
X157841252Y-78657998D01*
D18*
X157841251Y-78657999D02*
X157841252Y-78657998D01*
D17*
X149078250Y-77120998D02*
X150618251Y-78660999D01*
X151745251Y-110407999D02*
X157237251Y-110407999D01*
X149772774Y-126090999D02*
X148819251Y-125137476D01*
D20*
X148819251Y-119424999D02*
X149708251Y-118535999D01*
D17*
X149078250Y-74975000D02*
X149078250Y-77120998D01*
D19*
X160284251Y-108410999D02*
X159964251Y-108090999D01*
D17*
X147681251Y-85515999D02*
X147681251Y-84499999D01*
X148819251Y-119424999D02*
X148819251Y-116122999D01*
X149713251Y-94532999D02*
X148514751Y-93334499D01*
D19*
X160254251Y-124250999D02*
X158222251Y-124250999D01*
D17*
X147681251Y-92500999D02*
X147681251Y-85515999D01*
X148514751Y-107177499D02*
X151745251Y-110407999D01*
X149094251Y-77136999D02*
X149078250Y-77120998D01*
X153396251Y-71164999D02*
X153015251Y-71164999D01*
X150983251Y-73196999D02*
X150856251Y-73196999D01*
X147681251Y-106343999D02*
X148514751Y-107177499D01*
X149713251Y-94532999D02*
X147681251Y-96564999D01*
X160000251Y-78657999D02*
X157841251Y-78657999D01*
D19*
X159964251Y-108090999D02*
X159554253Y-108090999D01*
D17*
X148819251Y-125137476D02*
X148819251Y-119424999D01*
X149094251Y-83086999D02*
X149094251Y-77136999D01*
D19*
X159554253Y-108090999D02*
X159554252Y-108090998D01*
D17*
X148514751Y-93334499D02*
X147681251Y-92500999D01*
%TO.N,Net-(J314-Pin_1)*%
X162864251Y-112591092D02*
X162134698Y-112591092D01*
D18*
X152037351Y-135553999D02*
X148189251Y-131705899D01*
D17*
X162134698Y-112591092D02*
X160242791Y-114482999D01*
X155124917Y-114482999D02*
X153462917Y-112820999D01*
X171133876Y-112591092D02*
X162864251Y-112591092D01*
X160242791Y-114482999D02*
X155124917Y-114482999D01*
D18*
X148189251Y-131705899D02*
X148189251Y-131489999D01*
D17*
%TO.N,Net-(J302-Pin_1)*%
X171138691Y-127824770D02*
X162402240Y-127824770D01*
X162402240Y-127824770D02*
X161531011Y-128695999D01*
X153456585Y-128695999D02*
X153329585Y-128568999D01*
X161531011Y-128695999D02*
X153456585Y-128695999D01*
%TO.N,Net-(J304-Pin_1)*%
X163064251Y-82091838D02*
X154163090Y-82091838D01*
D18*
X157117351Y-135553999D02*
X151358053Y-129794701D01*
X150983251Y-121710999D02*
X150983251Y-124332999D01*
X156319251Y-116374999D02*
X150983251Y-121710999D01*
D17*
X154163090Y-82091838D02*
X153396251Y-81324999D01*
D18*
X151358053Y-129794701D02*
X151358053Y-128816801D01*
D17*
X171118046Y-82091838D02*
X163064251Y-82091838D01*
D21*
%TO.N,Net-(J203-Pin_1)*%
X119149842Y-112654224D02*
X119140369Y-112663697D01*
X127633250Y-112654224D02*
X126109250Y-112654224D01*
D18*
X134618150Y-119766224D02*
X138174250Y-119766224D01*
D21*
X126109250Y-112654224D02*
X124331250Y-112654224D01*
D18*
X138174250Y-119766224D02*
X139341250Y-120933224D01*
X139341250Y-124540224D02*
X138335566Y-124540224D01*
X138335566Y-124540224D02*
X133548250Y-129327540D01*
X133548250Y-129327540D02*
X133548250Y-131047224D01*
D21*
X137285250Y-112527224D02*
X137158250Y-112654224D01*
D18*
X139341250Y-120933224D02*
X139341250Y-124540224D01*
D21*
X124331250Y-112654224D02*
X119149842Y-112654224D01*
X137158250Y-112654224D02*
X127633250Y-112654224D01*
D18*
%TO.N,Net-(J204-Pin_1)*%
X139844934Y-125756224D02*
X141222250Y-124378908D01*
X141222250Y-110005366D02*
X138664108Y-107447224D01*
X141222250Y-124378908D02*
X141222250Y-110005366D01*
D21*
X127633250Y-107574224D02*
X126109250Y-107574224D01*
X119143060Y-107574224D02*
X119131976Y-107585308D01*
X137285250Y-107447224D02*
X137158250Y-107574224D01*
D18*
X139239250Y-125756224D02*
X139844934Y-125756224D01*
X136048250Y-131047224D02*
X136048250Y-128947224D01*
D21*
X124458250Y-107574224D02*
X119143060Y-107574224D01*
X137158250Y-107574224D02*
X127633250Y-107574224D01*
D18*
X136048250Y-128947224D02*
X139239250Y-125756224D01*
D21*
X126109250Y-107574224D02*
X124458250Y-107574224D01*
D18*
X138664108Y-107447224D02*
X137285250Y-107447224D01*
D21*
%TO.N,Net-(J205-Pin_1)*%
X119059025Y-102494224D02*
X119028250Y-102524999D01*
X142111254Y-107574224D02*
X140714254Y-106177224D01*
X137158250Y-102494224D02*
X127887250Y-102494224D01*
X137285250Y-102367224D02*
X137158250Y-102494224D01*
X126363250Y-102494224D02*
X124712250Y-102494224D01*
X127887250Y-102494224D02*
X126363250Y-102494224D01*
X143762250Y-107574224D02*
X142111254Y-107574224D01*
X124712250Y-102494224D02*
X119059025Y-102494224D01*
%TO.N,Net-(J206-Pin_1)*%
X124705556Y-97420918D02*
X124712250Y-97414224D01*
X126490248Y-97414224D02*
X124712250Y-97414224D01*
X137158250Y-97414224D02*
X128141250Y-97414224D01*
X128141250Y-97414224D02*
X126490248Y-97414224D01*
X119132660Y-97420918D02*
X119133749Y-97422007D01*
X137285250Y-97287224D02*
X137158250Y-97414224D01*
X119132660Y-97420918D02*
X124705556Y-97420918D01*
X119133749Y-97422007D02*
X123696250Y-97422007D01*
%TO.N,M*%
X130173250Y-82047224D02*
X137285250Y-82047224D01*
X138936250Y-95001224D02*
X129665250Y-95001224D01*
X135888250Y-115194224D02*
X134872252Y-115194224D01*
X129665250Y-79684224D02*
X129665250Y-81539224D01*
X141476250Y-92461224D02*
X138936250Y-95001224D01*
X127633250Y-81920224D02*
X137158250Y-81920224D01*
X137285250Y-82047224D02*
X138682250Y-82047224D01*
X119424650Y-81920224D02*
X119153347Y-82191527D01*
X129665250Y-105161224D02*
X136142250Y-105161224D01*
X141476250Y-84841224D02*
X141476250Y-92461224D01*
X138682250Y-82047224D02*
X141476250Y-84841224D01*
X141349250Y-97414224D02*
X138936250Y-95001224D01*
X124204250Y-81920224D02*
X119424650Y-81920224D01*
X136142250Y-105161224D02*
X137285250Y-105161224D01*
X129665250Y-81539224D02*
X130173250Y-82047224D01*
X141349250Y-101923224D02*
X141349250Y-97414224D01*
X129665250Y-115194224D02*
X134872252Y-115194224D01*
X137158250Y-81920224D02*
X137285250Y-82047224D01*
X125855250Y-81920224D02*
X124204250Y-81920224D01*
X137285250Y-105161224D02*
X137655250Y-105161224D01*
X136142250Y-105161224D02*
X138111250Y-105161224D01*
X138111250Y-105161224D02*
X141349250Y-101923224D01*
X127633250Y-81920224D02*
X125855250Y-81920224D01*
%TO.N,Net-(J210-Pin_1)*%
X119149963Y-77094224D02*
X119128986Y-77115201D01*
X137285250Y-76967224D02*
X137158250Y-77094224D01*
X137158250Y-77094224D02*
X119149963Y-77094224D01*
%TO.N,Net-(J201-Pin_1)*%
X129665250Y-121264173D02*
X128115203Y-122814220D01*
X119138395Y-122814220D02*
X119138391Y-122814224D01*
X125728250Y-122814224D02*
X127125250Y-122814224D01*
X129665250Y-120274224D02*
X129665250Y-121264173D01*
X128115203Y-122814220D02*
X119138395Y-122814220D01*
X119138391Y-122814224D02*
X124331250Y-122814224D01*
X124331250Y-122814224D02*
X125728250Y-122814224D01*
X137158250Y-122814224D02*
X137285250Y-122687224D01*
X127125250Y-122814224D02*
X137158250Y-122814224D01*
%TO.N,Net-(J202-Pin_1)*%
X139438250Y-111027224D02*
X138608250Y-110197224D01*
X119139942Y-117734224D02*
X119131976Y-117742190D01*
X124331250Y-117734224D02*
X119139942Y-117734224D01*
X124331250Y-117734224D02*
X124374250Y-117777224D01*
X137658250Y-117777224D02*
X139438250Y-115997224D01*
X138608250Y-110197224D02*
X130138250Y-110197224D01*
X127252250Y-117734224D02*
X125728250Y-117734224D01*
X125728250Y-117734224D02*
X124331250Y-117734224D01*
X124374250Y-117777224D02*
X137658250Y-117777224D01*
X139438250Y-115997224D02*
X139438250Y-111027224D01*
%TO.N,Net-(J207-Pin_1)*%
X124721592Y-92343566D02*
X126226908Y-92343566D01*
X127887250Y-92334224D02*
X137158250Y-92334224D01*
X119147737Y-92334224D02*
X127887250Y-92334224D01*
X119131976Y-92349985D02*
X119147737Y-92334224D01*
X126226908Y-92343566D02*
X126236250Y-92334224D01*
X129665250Y-92334224D02*
X126236250Y-92334224D01*
X124712250Y-92334224D02*
X124721592Y-92343566D01*
X137158250Y-92334224D02*
X137285250Y-92207224D01*
X129665250Y-89921224D02*
X129665250Y-92334224D01*
%TO.N,Net-(J208-Pin_1)*%
X129665250Y-84764224D02*
X129665250Y-87254224D01*
X126363250Y-87254224D02*
X128141250Y-87254224D01*
X119138395Y-87265125D02*
X119149296Y-87254224D01*
X119149296Y-87254224D02*
X124585250Y-87254224D01*
X129654349Y-87265125D02*
X119138395Y-87265125D01*
X129665250Y-87254224D02*
X129654349Y-87265125D01*
X137158250Y-87254224D02*
X137285250Y-87127224D01*
X124585250Y-87254224D02*
X126363250Y-87254224D01*
X128141250Y-87254224D02*
X137158250Y-87254224D01*
D17*
%TO.N,Net-(J301-Pin_1)*%
X171148279Y-122740935D02*
X163264251Y-122740935D01*
%TO.N,Net-(J303-Pin_1)*%
X165694251Y-77010999D02*
X165686117Y-77019133D01*
X171152134Y-77019133D02*
X165702385Y-77019133D01*
X165686117Y-77019133D02*
X164292385Y-77019133D01*
X165702385Y-77019133D02*
X165694251Y-77010999D01*
X164292385Y-77019133D02*
X164284251Y-77010999D01*
%TO.N,Net-(J313-Pin_1)*%
X171153314Y-107528455D02*
X162263525Y-107528455D01*
X156950251Y-105581999D02*
X154791251Y-107740999D01*
X162263525Y-107528455D02*
X160317069Y-105581999D01*
X160317069Y-105581999D02*
X156950251Y-105581999D01*
X154791251Y-107740999D02*
X153462917Y-107740999D01*
%TD*%
M02*
