%TF.GenerationSoftware,KiCad,Pcbnew,7.0.10*%
%TF.CreationDate,2024-07-22T09:22:49-04:00*%
%TF.ProjectId,12.X.1 - PLC Connector Combined.kicad_pcb_MERGED,31322e58-2e31-4202-9d20-504c4320436f,rev?*%
%TF.SameCoordinates,Original*%
%TF.FileFunction,Legend,Top*%
%TF.FilePolarity,Positive*%
%FSLAX46Y46*%
G04 Gerber Fmt 4.6, Leading zero omitted, Abs format (unit mm)*
G04 Created by KiCad (PCBNEW 7.0.10) date 2024-07-22 09:22:49*
%MOMM*%
%LPD*%
G01*
G04 APERTURE LIST*
%ADD10C,0.000000*%
%ADD11C,0.006614*%
%ADD12C,0.457200*%
%ADD13C,0.381000*%
%ADD14C,0.508000*%
%ADD15C,0.300000*%
%ADD16C,0.177800*%
%ADD17C,0.150000*%
%ADD18C,0.254000*%
%ADD19C,0.100000*%
%ADD20C,0.120000*%
%ADD21C,0.200000*%
%ADD22C,0.152400*%
G04 APERTURE END LIST*
D10*
G36*
X145858058Y-69779050D02*
G01*
X145884412Y-69781368D01*
X145914843Y-69785701D01*
X145949576Y-69792096D01*
X146032847Y-69811258D01*
X146136024Y-69839225D01*
X146260906Y-69876370D01*
X146409289Y-69923065D01*
X146975498Y-70108273D01*
X146991373Y-70753856D01*
X147007247Y-71399440D01*
X147504664Y-71399440D01*
X147583510Y-71399297D01*
X147653720Y-71398799D01*
X147715837Y-71397835D01*
X147770405Y-71396298D01*
X147795027Y-71395280D01*
X147817966Y-71394078D01*
X147839288Y-71392679D01*
X147859061Y-71391068D01*
X147877354Y-71389233D01*
X147894235Y-71387159D01*
X147909770Y-71384833D01*
X147924029Y-71382242D01*
X147937078Y-71379371D01*
X147948986Y-71376208D01*
X147959820Y-71372739D01*
X147969649Y-71368950D01*
X147978539Y-71364828D01*
X147986560Y-71360359D01*
X147993778Y-71355530D01*
X148000262Y-71350326D01*
X148006079Y-71344735D01*
X148011297Y-71338743D01*
X148015985Y-71332336D01*
X148020209Y-71325501D01*
X148024038Y-71318224D01*
X148027539Y-71310491D01*
X148030781Y-71302290D01*
X148033831Y-71293606D01*
X148039313Y-71277332D01*
X148045816Y-71261263D01*
X148053305Y-71245422D01*
X148061746Y-71229827D01*
X148081351Y-71199461D01*
X148104359Y-71170327D01*
X148130498Y-71142588D01*
X148159498Y-71116408D01*
X148191086Y-71091948D01*
X148224992Y-71069372D01*
X148260945Y-71048842D01*
X148298673Y-71030521D01*
X148337904Y-71014573D01*
X148378368Y-71001159D01*
X148419793Y-70990443D01*
X148461908Y-70982586D01*
X148504442Y-70977753D01*
X148536539Y-70976515D01*
X148547123Y-70976106D01*
X148576047Y-70976551D01*
X148603398Y-70977925D01*
X148629338Y-70980292D01*
X148654031Y-70983713D01*
X148677638Y-70988250D01*
X148700323Y-70993966D01*
X148722248Y-71000921D01*
X148743576Y-71009179D01*
X148764470Y-71018801D01*
X148785093Y-71029850D01*
X148805607Y-71042386D01*
X148826175Y-71056473D01*
X148846961Y-71072173D01*
X148868126Y-71089546D01*
X148889834Y-71108656D01*
X148912248Y-71129565D01*
X148934028Y-71151922D01*
X148953785Y-71173490D01*
X148971604Y-71194468D01*
X148987571Y-71215058D01*
X149001771Y-71235462D01*
X149014288Y-71255882D01*
X149025208Y-71276519D01*
X149034617Y-71297575D01*
X149042600Y-71319251D01*
X149049242Y-71341748D01*
X149054628Y-71365268D01*
X149058843Y-71390014D01*
X149061974Y-71416185D01*
X149064104Y-71443985D01*
X149065320Y-71473613D01*
X149065706Y-71505273D01*
X149065059Y-71533328D01*
X149063138Y-71560922D01*
X149059968Y-71588025D01*
X149055577Y-71614610D01*
X149049993Y-71640648D01*
X149043242Y-71666112D01*
X149035352Y-71690973D01*
X149026349Y-71715203D01*
X149016261Y-71738775D01*
X149005115Y-71761659D01*
X148992938Y-71783828D01*
X148979758Y-71805255D01*
X148965600Y-71825909D01*
X148950493Y-71845765D01*
X148934464Y-71864793D01*
X148917539Y-71882966D01*
X148899746Y-71900254D01*
X148881112Y-71916631D01*
X148861665Y-71932069D01*
X148841430Y-71946538D01*
X148820436Y-71960011D01*
X148798709Y-71972460D01*
X148776277Y-71983857D01*
X148753167Y-71994173D01*
X148729405Y-72003381D01*
X148705020Y-72011453D01*
X148680038Y-72018359D01*
X148654486Y-72024073D01*
X148628391Y-72028566D01*
X148601781Y-72031810D01*
X148574682Y-72033778D01*
X148547123Y-72034439D01*
X148525781Y-72034024D01*
X148504442Y-72032792D01*
X148483140Y-72030764D01*
X148461908Y-72027959D01*
X148440781Y-72024399D01*
X148419793Y-72020103D01*
X148398977Y-72015092D01*
X148378368Y-72009387D01*
X148357999Y-72003007D01*
X148337904Y-71995973D01*
X148318117Y-71988305D01*
X148298673Y-71980024D01*
X148279604Y-71971150D01*
X148260945Y-71961704D01*
X148242730Y-71951705D01*
X148224992Y-71941174D01*
X148207767Y-71930131D01*
X148191086Y-71918598D01*
X148174985Y-71906593D01*
X148159498Y-71894138D01*
X148144657Y-71881253D01*
X148130498Y-71867957D01*
X148117054Y-71854273D01*
X148104359Y-71840219D01*
X148092447Y-71825816D01*
X148081351Y-71811085D01*
X148071107Y-71796046D01*
X148061746Y-71780718D01*
X148053305Y-71765124D01*
X148045816Y-71749282D01*
X148039313Y-71733214D01*
X148033831Y-71716939D01*
X148027538Y-71700054D01*
X148020199Y-71685045D01*
X148011263Y-71671803D01*
X148008882Y-71669315D01*
X148060289Y-71669315D01*
X148060961Y-71674940D01*
X148062935Y-71681820D01*
X148066149Y-71689848D01*
X148070542Y-71698915D01*
X148076051Y-71708912D01*
X148082613Y-71719730D01*
X148090169Y-71731262D01*
X148098654Y-71743398D01*
X148108007Y-71756030D01*
X148118167Y-71769050D01*
X148129071Y-71782349D01*
X148140656Y-71795818D01*
X148152862Y-71809350D01*
X148165626Y-71822835D01*
X148178887Y-71836165D01*
X148192581Y-71849231D01*
X148210396Y-71867286D01*
X148228196Y-71883782D01*
X148246089Y-71898775D01*
X148264184Y-71912318D01*
X148282588Y-71924466D01*
X148301411Y-71935272D01*
X148320762Y-71944793D01*
X148340748Y-71953080D01*
X148361478Y-71960190D01*
X148383060Y-71966175D01*
X148405604Y-71971091D01*
X148429218Y-71974991D01*
X148454009Y-71977930D01*
X148480088Y-71979962D01*
X148507562Y-71981142D01*
X148536539Y-71981523D01*
X148565517Y-71981142D01*
X148592991Y-71979962D01*
X148619069Y-71977930D01*
X148643861Y-71974991D01*
X148667474Y-71971091D01*
X148690018Y-71966175D01*
X148711601Y-71960190D01*
X148732331Y-71953080D01*
X148752317Y-71944793D01*
X148771667Y-71935272D01*
X148790490Y-71924466D01*
X148808895Y-71912318D01*
X148826989Y-71898775D01*
X148844882Y-71883782D01*
X148862682Y-71867286D01*
X148880498Y-71849231D01*
X148898552Y-71831416D01*
X148915048Y-71813616D01*
X148930041Y-71795723D01*
X148943584Y-71777628D01*
X148955732Y-71759224D01*
X148966539Y-71740401D01*
X148976059Y-71721050D01*
X148984347Y-71701065D01*
X148991456Y-71680335D01*
X148997441Y-71658752D01*
X149002357Y-71636208D01*
X149006257Y-71612594D01*
X149009196Y-71587803D01*
X149011229Y-71561724D01*
X149012408Y-71534250D01*
X149012789Y-71505273D01*
X149012264Y-71477835D01*
X149010696Y-71451090D01*
X149008098Y-71425051D01*
X149004480Y-71399729D01*
X148999854Y-71375135D01*
X148994232Y-71351282D01*
X148987626Y-71328181D01*
X148980047Y-71305843D01*
X148971507Y-71284281D01*
X148962017Y-71263505D01*
X148951589Y-71243527D01*
X148940236Y-71224360D01*
X148927967Y-71206014D01*
X148914795Y-71188502D01*
X148900732Y-71171834D01*
X148885789Y-71156023D01*
X148869978Y-71141080D01*
X148853311Y-71127017D01*
X148835798Y-71113845D01*
X148817452Y-71101577D01*
X148798285Y-71090223D01*
X148778307Y-71079795D01*
X148757532Y-71070305D01*
X148735969Y-71061765D01*
X148713631Y-71054186D01*
X148690530Y-71047580D01*
X148666677Y-71041958D01*
X148642083Y-71037333D01*
X148616761Y-71033715D01*
X148590722Y-71031116D01*
X148563977Y-71029548D01*
X148536539Y-71029023D01*
X148507562Y-71029404D01*
X148480088Y-71030584D01*
X148454009Y-71032616D01*
X148429218Y-71035555D01*
X148405604Y-71039455D01*
X148383060Y-71044371D01*
X148361478Y-71050356D01*
X148340748Y-71057466D01*
X148320762Y-71065753D01*
X148301411Y-71075273D01*
X148282588Y-71086080D01*
X148264184Y-71098228D01*
X148246089Y-71111771D01*
X148228196Y-71126764D01*
X148210396Y-71143260D01*
X148192581Y-71161314D01*
X148178887Y-71174381D01*
X148165626Y-71187711D01*
X148152862Y-71201196D01*
X148140656Y-71214727D01*
X148129071Y-71228197D01*
X148118167Y-71241496D01*
X148108007Y-71254516D01*
X148098654Y-71267148D01*
X148090169Y-71279284D01*
X148082613Y-71290816D01*
X148076051Y-71301634D01*
X148070542Y-71311631D01*
X148066149Y-71320698D01*
X148062935Y-71328726D01*
X148061789Y-71332316D01*
X148060961Y-71335606D01*
X148060458Y-71338582D01*
X148060289Y-71341231D01*
X148060658Y-71343726D01*
X148061753Y-71346248D01*
X148066046Y-71351349D01*
X148073021Y-71356498D01*
X148082531Y-71361654D01*
X148094428Y-71366779D01*
X148108565Y-71371834D01*
X148124796Y-71376781D01*
X148142972Y-71381580D01*
X148162946Y-71386194D01*
X148184571Y-71390582D01*
X148232186Y-71398530D01*
X148284637Y-71405114D01*
X148340748Y-71410023D01*
X148376975Y-71412197D01*
X148410304Y-71414767D01*
X148425906Y-71416207D01*
X148440811Y-71417755D01*
X148455031Y-71419413D01*
X148468574Y-71421185D01*
X148481451Y-71423073D01*
X148493671Y-71425080D01*
X148505244Y-71427209D01*
X148516179Y-71429464D01*
X148526486Y-71431846D01*
X148536175Y-71434359D01*
X148545255Y-71437005D01*
X148553737Y-71439788D01*
X148561630Y-71442711D01*
X148568943Y-71445776D01*
X148575686Y-71448987D01*
X148581870Y-71452346D01*
X148587503Y-71455856D01*
X148592595Y-71459520D01*
X148597157Y-71463341D01*
X148601197Y-71467322D01*
X148604725Y-71471465D01*
X148607752Y-71475775D01*
X148610286Y-71480253D01*
X148612338Y-71484902D01*
X148613917Y-71489726D01*
X148615033Y-71494727D01*
X148615696Y-71499908D01*
X148615914Y-71505273D01*
X148615033Y-71515819D01*
X148612338Y-71525644D01*
X148607752Y-71534771D01*
X148601197Y-71543224D01*
X148592595Y-71551026D01*
X148581870Y-71558200D01*
X148568943Y-71564769D01*
X148553737Y-71570757D01*
X148536175Y-71576187D01*
X148516179Y-71581082D01*
X148493671Y-71585466D01*
X148468574Y-71589361D01*
X148440811Y-71592791D01*
X148410304Y-71595779D01*
X148376975Y-71598349D01*
X148340748Y-71600523D01*
X148312309Y-71602749D01*
X148284637Y-71605432D01*
X148257881Y-71608534D01*
X148232186Y-71612016D01*
X148207700Y-71615838D01*
X148184571Y-71619964D01*
X148162946Y-71624352D01*
X148142972Y-71628966D01*
X148124796Y-71633765D01*
X148108565Y-71638712D01*
X148094428Y-71643767D01*
X148082531Y-71648892D01*
X148077468Y-71651469D01*
X148073021Y-71654048D01*
X148069207Y-71656626D01*
X148066046Y-71659196D01*
X148063555Y-71661755D01*
X148061753Y-71664298D01*
X148060658Y-71666819D01*
X148060289Y-71669315D01*
X148008882Y-71669315D01*
X148000179Y-71660219D01*
X147986398Y-71650186D01*
X147969370Y-71641595D01*
X147948543Y-71634337D01*
X147923367Y-71628304D01*
X147893293Y-71623387D01*
X147857769Y-71619478D01*
X147816246Y-71616468D01*
X147768173Y-71614248D01*
X147650175Y-71611747D01*
X147499373Y-71611106D01*
X147001956Y-71611106D01*
X147001956Y-72299023D01*
X147001764Y-72398437D01*
X147001160Y-72488603D01*
X147000107Y-72569948D01*
X146998566Y-72642898D01*
X146996498Y-72707880D01*
X146993863Y-72765320D01*
X146990625Y-72815644D01*
X146986742Y-72859278D01*
X146984548Y-72878720D01*
X146982178Y-72896649D01*
X146979628Y-72913119D01*
X146976893Y-72928183D01*
X146973968Y-72941895D01*
X146970848Y-72954307D01*
X146967529Y-72965473D01*
X146964005Y-72975447D01*
X146960272Y-72984281D01*
X146956324Y-72992028D01*
X146952158Y-72998743D01*
X146947768Y-73004478D01*
X146943149Y-73009287D01*
X146938297Y-73013223D01*
X146933206Y-73016340D01*
X146927873Y-73018689D01*
X146915266Y-73021531D01*
X146897527Y-73022198D01*
X146848074Y-73017491D01*
X146782358Y-73005527D01*
X146703225Y-72987270D01*
X146613518Y-72963680D01*
X146516084Y-72935718D01*
X146309409Y-72870523D01*
X146105959Y-72799375D01*
X145928492Y-72729963D01*
X145856614Y-72698311D01*
X145799766Y-72669977D01*
X145760793Y-72645921D01*
X145748898Y-72635799D01*
X145742539Y-72627106D01*
X145740804Y-72619923D01*
X145739573Y-72612306D01*
X145738854Y-72604317D01*
X145738653Y-72596018D01*
X145738980Y-72587470D01*
X145739842Y-72578737D01*
X145741246Y-72569880D01*
X145743201Y-72560960D01*
X145745714Y-72552041D01*
X145748792Y-72543184D01*
X145752444Y-72534450D01*
X145756678Y-72525903D01*
X145761501Y-72517604D01*
X145766920Y-72509615D01*
X145772945Y-72501997D01*
X145776186Y-72498348D01*
X145779581Y-72494814D01*
X145793229Y-72486553D01*
X145814101Y-72481554D01*
X145841856Y-72479734D01*
X145876154Y-72481006D01*
X145916653Y-72485287D01*
X145963012Y-72492489D01*
X146071946Y-72515320D01*
X146200227Y-72548816D01*
X146345128Y-72592297D01*
X146503919Y-72645079D01*
X146673873Y-72706481D01*
X146681562Y-72709518D01*
X146685221Y-72710337D01*
X146688756Y-72710688D01*
X146692166Y-72710569D01*
X146695453Y-72709981D01*
X146698615Y-72708922D01*
X146701654Y-72707391D01*
X146704568Y-72705387D01*
X146707359Y-72702909D01*
X146712568Y-72696528D01*
X146717281Y-72688241D01*
X146721498Y-72678038D01*
X146725218Y-72665914D01*
X146728443Y-72651859D01*
X146731171Y-72635867D01*
X146733404Y-72617928D01*
X146735140Y-72598037D01*
X146736380Y-72576184D01*
X146737125Y-72552363D01*
X146737373Y-72526564D01*
X146737373Y-72320190D01*
X146255831Y-72166731D01*
X146170720Y-72138680D01*
X146093856Y-72111985D01*
X146058459Y-72099105D01*
X146025054Y-72086515D01*
X145993618Y-72074198D01*
X145964128Y-72062138D01*
X145936560Y-72050318D01*
X145910891Y-72038722D01*
X145887098Y-72027334D01*
X145865157Y-72016136D01*
X145845046Y-72005112D01*
X145826741Y-71994247D01*
X145810219Y-71983523D01*
X145795456Y-71972924D01*
X145782430Y-71962433D01*
X145771116Y-71952035D01*
X145761493Y-71941712D01*
X145753536Y-71931448D01*
X145747223Y-71921227D01*
X145742529Y-71911032D01*
X145739432Y-71900847D01*
X145737909Y-71890655D01*
X145737936Y-71880440D01*
X145739491Y-71870185D01*
X145742548Y-71859874D01*
X145747087Y-71849490D01*
X145753083Y-71839017D01*
X145760512Y-71828438D01*
X145769353Y-71817737D01*
X145779581Y-71806898D01*
X145793229Y-71798636D01*
X145814101Y-71793638D01*
X145841856Y-71791817D01*
X145876154Y-71793090D01*
X145916653Y-71797370D01*
X145963012Y-71804572D01*
X146071946Y-71827403D01*
X146200227Y-71860900D01*
X146345128Y-71904380D01*
X146503919Y-71957163D01*
X146673873Y-72018565D01*
X146681562Y-72021602D01*
X146685221Y-72022420D01*
X146688756Y-72022771D01*
X146692166Y-72022653D01*
X146695453Y-72022064D01*
X146698615Y-72021005D01*
X146701654Y-72019474D01*
X146704568Y-72017470D01*
X146707359Y-72014992D01*
X146712568Y-72008612D01*
X146717281Y-72000324D01*
X146721498Y-71990122D01*
X146725218Y-71977997D01*
X146728443Y-71963943D01*
X146731171Y-71947950D01*
X146733404Y-71930012D01*
X146735140Y-71910120D01*
X146736380Y-71888268D01*
X146737125Y-71864446D01*
X146737373Y-71838648D01*
X146737373Y-71632273D01*
X146255831Y-71478815D01*
X146170720Y-71450763D01*
X146093856Y-71424069D01*
X146058459Y-71411189D01*
X146025054Y-71398598D01*
X145993618Y-71386282D01*
X145964128Y-71374221D01*
X145936560Y-71362402D01*
X145910891Y-71350806D01*
X145887098Y-71339417D01*
X145865157Y-71328219D01*
X145845046Y-71317196D01*
X145826741Y-71306330D01*
X145810219Y-71295606D01*
X145795456Y-71285007D01*
X145782430Y-71274517D01*
X145771116Y-71264118D01*
X145761493Y-71253795D01*
X145753536Y-71243532D01*
X145747223Y-71233311D01*
X145742529Y-71223116D01*
X145739432Y-71212930D01*
X145737909Y-71202738D01*
X145737936Y-71192523D01*
X145739491Y-71182268D01*
X145742548Y-71171957D01*
X145747087Y-71161573D01*
X145753083Y-71151100D01*
X145760512Y-71140521D01*
X145769353Y-71129821D01*
X145779581Y-71118981D01*
X145793228Y-71110719D01*
X145814091Y-71105721D01*
X145841821Y-71103901D01*
X145876071Y-71105173D01*
X145916491Y-71109453D01*
X145962733Y-71116656D01*
X146071284Y-71139486D01*
X146198935Y-71172983D01*
X146342896Y-71216464D01*
X146500374Y-71269246D01*
X146668581Y-71330648D01*
X146677202Y-71333748D01*
X146681282Y-71334648D01*
X146685210Y-71335113D01*
X146688988Y-71335144D01*
X146692614Y-71334741D01*
X146696092Y-71333903D01*
X146699421Y-71332632D01*
X146702604Y-71330927D01*
X146705639Y-71328788D01*
X146708530Y-71326214D01*
X146711276Y-71323206D01*
X146713879Y-71319765D01*
X146716339Y-71315889D01*
X146720836Y-71306835D01*
X146724775Y-71296045D01*
X146728164Y-71283519D01*
X146731010Y-71269256D01*
X146733321Y-71253257D01*
X146735105Y-71235522D01*
X146736370Y-71216050D01*
X146737123Y-71194842D01*
X146737373Y-71171898D01*
X146737373Y-70986690D01*
X146255831Y-70812065D01*
X146171591Y-70781161D01*
X146095365Y-70751862D01*
X146026985Y-70724035D01*
X145995683Y-70710633D01*
X145966278Y-70697550D01*
X145938749Y-70684769D01*
X145913074Y-70672273D01*
X145889233Y-70660048D01*
X145867204Y-70648075D01*
X145846965Y-70636338D01*
X145828495Y-70624822D01*
X145811774Y-70613508D01*
X145796779Y-70602382D01*
X145783489Y-70591427D01*
X145771884Y-70580625D01*
X145761941Y-70569961D01*
X145753639Y-70559419D01*
X145746958Y-70548980D01*
X145741875Y-70538630D01*
X145738370Y-70528352D01*
X145736421Y-70518129D01*
X145736007Y-70507945D01*
X145737106Y-70497783D01*
X145739697Y-70487627D01*
X145743759Y-70477460D01*
X145749271Y-70467266D01*
X145756210Y-70457028D01*
X145764557Y-70446731D01*
X145774289Y-70436356D01*
X145783426Y-70429290D01*
X145795043Y-70423975D01*
X145809264Y-70420427D01*
X145826214Y-70418662D01*
X145846016Y-70418696D01*
X145868795Y-70420543D01*
X145894675Y-70424220D01*
X145923779Y-70429742D01*
X145956232Y-70437124D01*
X145992157Y-70446382D01*
X146074922Y-70470587D01*
X146173066Y-70502481D01*
X146287581Y-70542190D01*
X146737373Y-70706231D01*
X146737373Y-70309356D01*
X146255831Y-70155898D01*
X146170720Y-70127847D01*
X146093856Y-70101152D01*
X146058459Y-70088272D01*
X146025054Y-70075682D01*
X145993618Y-70063365D01*
X145964128Y-70051305D01*
X145936560Y-70039485D01*
X145910891Y-70027889D01*
X145887098Y-70016500D01*
X145865157Y-70005303D01*
X145845046Y-69994279D01*
X145826741Y-69983414D01*
X145810219Y-69972690D01*
X145795456Y-69962091D01*
X145782430Y-69951600D01*
X145771116Y-69941202D01*
X145761493Y-69930879D01*
X145753536Y-69920615D01*
X145747223Y-69910394D01*
X145742529Y-69900199D01*
X145739432Y-69890014D01*
X145737909Y-69879822D01*
X145737936Y-69869607D01*
X145739491Y-69859351D01*
X145742548Y-69849040D01*
X145747087Y-69838656D01*
X145753083Y-69828183D01*
X145760512Y-69817605D01*
X145769353Y-69806904D01*
X145779581Y-69796065D01*
X145788920Y-69789003D01*
X145801213Y-69783724D01*
X145816684Y-69780275D01*
X145835557Y-69778701D01*
X145858058Y-69779050D01*
G37*
D11*
X159964251Y-109670999D02*
X159931442Y-109649303D01*
D12*
X128858864Y-118597823D02*
X128858864Y-117378623D01*
X128858864Y-117378623D02*
X130687664Y-118162395D01*
X128858864Y-107392795D02*
X128858864Y-108263652D01*
X128858864Y-108263652D02*
X129729721Y-108350738D01*
X129729721Y-108350738D02*
X129642636Y-108263652D01*
X129642636Y-108263652D02*
X129555550Y-108089481D01*
X129555550Y-108089481D02*
X129555550Y-107654052D01*
X129555550Y-107654052D02*
X129642636Y-107479881D01*
X129642636Y-107479881D02*
X129729721Y-107392795D01*
X129729721Y-107392795D02*
X129903893Y-107305709D01*
X129903893Y-107305709D02*
X130339321Y-107305709D01*
X130339321Y-107305709D02*
X130513493Y-107392795D01*
X130513493Y-107392795D02*
X130600579Y-107479881D01*
X130600579Y-107479881D02*
X130687664Y-107654052D01*
X130687664Y-107654052D02*
X130687664Y-108089481D01*
X130687664Y-108089481D02*
X130600579Y-108263652D01*
X130600579Y-108263652D02*
X130513493Y-108350738D01*
D13*
X160188428Y-91717513D02*
X160261000Y-91572370D01*
X160261000Y-91572370D02*
X160406143Y-91427227D01*
X160406143Y-91427227D02*
X160623857Y-91209513D01*
X160623857Y-91209513D02*
X160696428Y-91064370D01*
X160696428Y-91064370D02*
X160696428Y-90919227D01*
X160333571Y-90991798D02*
X160406143Y-90846656D01*
X160406143Y-90846656D02*
X160551285Y-90701513D01*
X160551285Y-90701513D02*
X160841571Y-90628941D01*
X160841571Y-90628941D02*
X161349571Y-90628941D01*
X161349571Y-90628941D02*
X161639857Y-90701513D01*
X161639857Y-90701513D02*
X161785000Y-90846656D01*
X161785000Y-90846656D02*
X161857571Y-90991798D01*
X161857571Y-90991798D02*
X161857571Y-91282084D01*
X161857571Y-91282084D02*
X161785000Y-91427227D01*
X161785000Y-91427227D02*
X161639857Y-91572370D01*
X161639857Y-91572370D02*
X161349571Y-91644941D01*
X161349571Y-91644941D02*
X160841571Y-91644941D01*
X160841571Y-91644941D02*
X160551285Y-91572370D01*
X160551285Y-91572370D02*
X160406143Y-91427227D01*
X160406143Y-91427227D02*
X160333571Y-91282084D01*
X160333571Y-91282084D02*
X160333571Y-90991798D01*
X161712428Y-92225512D02*
X161785000Y-92298084D01*
X161785000Y-92298084D02*
X161857571Y-92443227D01*
X161857571Y-92443227D02*
X161857571Y-92806084D01*
X161857571Y-92806084D02*
X161785000Y-92951227D01*
X161785000Y-92951227D02*
X161712428Y-93023798D01*
X161712428Y-93023798D02*
X161567285Y-93096369D01*
X161567285Y-93096369D02*
X161422143Y-93096369D01*
X161422143Y-93096369D02*
X161204428Y-93023798D01*
X161204428Y-93023798D02*
X160333571Y-92152941D01*
X160333571Y-92152941D02*
X160333571Y-93096369D01*
D12*
X130814664Y-82910823D02*
X128985864Y-82910823D01*
X128985864Y-82910823D02*
X130292150Y-82301223D01*
X130292150Y-82301223D02*
X128985864Y-81691623D01*
X128985864Y-81691623D02*
X130814664Y-81691623D01*
D13*
X159934428Y-75842513D02*
X160007000Y-75697370D01*
X160007000Y-75697370D02*
X160152143Y-75552227D01*
X160152143Y-75552227D02*
X160369857Y-75334513D01*
X160369857Y-75334513D02*
X160442428Y-75189370D01*
X160442428Y-75189370D02*
X160442428Y-75044227D01*
X160079571Y-75116798D02*
X160152143Y-74971656D01*
X160152143Y-74971656D02*
X160297285Y-74826513D01*
X160297285Y-74826513D02*
X160587571Y-74753941D01*
X160587571Y-74753941D02*
X161095571Y-74753941D01*
X161095571Y-74753941D02*
X161385857Y-74826513D01*
X161385857Y-74826513D02*
X161531000Y-74971656D01*
X161531000Y-74971656D02*
X161603571Y-75116798D01*
X161603571Y-75116798D02*
X161603571Y-75407084D01*
X161603571Y-75407084D02*
X161531000Y-75552227D01*
X161531000Y-75552227D02*
X161385857Y-75697370D01*
X161385857Y-75697370D02*
X161095571Y-75769941D01*
X161095571Y-75769941D02*
X160587571Y-75769941D01*
X160587571Y-75769941D02*
X160297285Y-75697370D01*
X160297285Y-75697370D02*
X160152143Y-75552227D01*
X160152143Y-75552227D02*
X160079571Y-75407084D01*
X160079571Y-75407084D02*
X160079571Y-75116798D01*
X160079571Y-77221369D02*
X160079571Y-76350512D01*
X160079571Y-76785941D02*
X161603571Y-76785941D01*
X161603571Y-76785941D02*
X161385857Y-76640798D01*
X161385857Y-76640798D02*
X161240714Y-76495655D01*
X161240714Y-76495655D02*
X161168143Y-76350512D01*
D12*
X130814664Y-86731709D02*
X130814664Y-87776738D01*
X130814664Y-87254223D02*
X128985864Y-87254223D01*
X128985864Y-87254223D02*
X129247121Y-87428395D01*
X129247121Y-87428395D02*
X129421293Y-87602566D01*
X129421293Y-87602566D02*
X129508379Y-87776738D01*
X142828864Y-98277823D02*
X142828864Y-97145709D01*
X142828864Y-97145709D02*
X143525550Y-97755309D01*
X143525550Y-97755309D02*
X143525550Y-97494052D01*
X143525550Y-97494052D02*
X143612636Y-97319881D01*
X143612636Y-97319881D02*
X143699721Y-97232795D01*
X143699721Y-97232795D02*
X143873893Y-97145709D01*
X143873893Y-97145709D02*
X144309321Y-97145709D01*
X144309321Y-97145709D02*
X144483493Y-97232795D01*
X144483493Y-97232795D02*
X144570579Y-97319881D01*
X144570579Y-97319881D02*
X144657664Y-97494052D01*
X144657664Y-97494052D02*
X144657664Y-98016566D01*
X144657664Y-98016566D02*
X144570579Y-98190738D01*
X144570579Y-98190738D02*
X144483493Y-98277823D01*
X142828864Y-112813881D02*
X142828864Y-113162223D01*
X142828864Y-113162223D02*
X142915950Y-113336395D01*
X142915950Y-113336395D02*
X143003036Y-113423481D01*
X143003036Y-113423481D02*
X143264293Y-113597652D01*
X143264293Y-113597652D02*
X143612636Y-113684738D01*
X143612636Y-113684738D02*
X144309321Y-113684738D01*
X144309321Y-113684738D02*
X144483493Y-113597652D01*
X144483493Y-113597652D02*
X144570579Y-113510566D01*
X144570579Y-113510566D02*
X144657664Y-113336395D01*
X144657664Y-113336395D02*
X144657664Y-112988052D01*
X144657664Y-112988052D02*
X144570579Y-112813881D01*
X144570579Y-112813881D02*
X144483493Y-112726795D01*
X144483493Y-112726795D02*
X144309321Y-112639709D01*
X144309321Y-112639709D02*
X143873893Y-112639709D01*
X143873893Y-112639709D02*
X143699721Y-112726795D01*
X143699721Y-112726795D02*
X143612636Y-112813881D01*
X143612636Y-112813881D02*
X143525550Y-112988052D01*
X143525550Y-112988052D02*
X143525550Y-113336395D01*
X143525550Y-113336395D02*
X143612636Y-113510566D01*
X143612636Y-113510566D02*
X143699721Y-113597652D01*
X143699721Y-113597652D02*
X143873893Y-113684738D01*
D14*
X145924345Y-77255332D02*
X145924345Y-75890989D01*
X145924345Y-76573161D02*
X147956345Y-76573161D01*
X147956345Y-76573161D02*
X147666059Y-76345770D01*
X147666059Y-76345770D02*
X147472535Y-76118380D01*
X147472535Y-76118380D02*
X147375773Y-75890989D01*
X147762821Y-81803142D02*
X147859583Y-81916838D01*
X147859583Y-81916838D02*
X147956345Y-82144228D01*
X147956345Y-82144228D02*
X147956345Y-82712704D01*
X147956345Y-82712704D02*
X147859583Y-82940095D01*
X147859583Y-82940095D02*
X147762821Y-83053790D01*
X147762821Y-83053790D02*
X147569297Y-83167485D01*
X147569297Y-83167485D02*
X147375773Y-83167485D01*
X147375773Y-83167485D02*
X147085487Y-83053790D01*
X147085487Y-83053790D02*
X145924345Y-81689447D01*
X145924345Y-81689447D02*
X145924345Y-83167485D01*
X145924345Y-92717886D02*
X145924345Y-91353543D01*
X145924345Y-92035715D02*
X147956345Y-92035715D01*
X147956345Y-92035715D02*
X147666059Y-91808324D01*
X147666059Y-91808324D02*
X147472535Y-91580934D01*
X147472535Y-91580934D02*
X147375773Y-91353543D01*
X147762821Y-97265696D02*
X147859583Y-97379392D01*
X147859583Y-97379392D02*
X147956345Y-97606782D01*
X147956345Y-97606782D02*
X147956345Y-98175258D01*
X147956345Y-98175258D02*
X147859583Y-98402649D01*
X147859583Y-98402649D02*
X147762821Y-98516344D01*
X147762821Y-98516344D02*
X147569297Y-98630039D01*
X147569297Y-98630039D02*
X147375773Y-98630039D01*
X147375773Y-98630039D02*
X147085487Y-98516344D01*
X147085487Y-98516344D02*
X145924345Y-97152001D01*
X145924345Y-97152001D02*
X145924345Y-98630039D01*
X145924345Y-108180440D02*
X145924345Y-106816097D01*
X145924345Y-107498269D02*
X147956345Y-107498269D01*
X147956345Y-107498269D02*
X147666059Y-107270878D01*
X147666059Y-107270878D02*
X147472535Y-107043488D01*
X147472535Y-107043488D02*
X147375773Y-106816097D01*
X147762821Y-112728250D02*
X147859583Y-112841946D01*
X147859583Y-112841946D02*
X147956345Y-113069336D01*
X147956345Y-113069336D02*
X147956345Y-113637812D01*
X147956345Y-113637812D02*
X147859583Y-113865203D01*
X147859583Y-113865203D02*
X147762821Y-113978898D01*
X147762821Y-113978898D02*
X147569297Y-114092593D01*
X147569297Y-114092593D02*
X147375773Y-114092593D01*
X147375773Y-114092593D02*
X147085487Y-113978898D01*
X147085487Y-113978898D02*
X145924345Y-112614555D01*
X145924345Y-112614555D02*
X145924345Y-114092593D01*
X145924345Y-123642994D02*
X145924345Y-122278651D01*
X145924345Y-122960823D02*
X147956345Y-122960823D01*
X147956345Y-122960823D02*
X147666059Y-122733432D01*
X147666059Y-122733432D02*
X147472535Y-122506042D01*
X147472535Y-122506042D02*
X147375773Y-122278651D01*
X147762821Y-128190804D02*
X147859583Y-128304500D01*
X147859583Y-128304500D02*
X147956345Y-128531890D01*
X147956345Y-128531890D02*
X147956345Y-129100366D01*
X147956345Y-129100366D02*
X147859583Y-129327757D01*
X147859583Y-129327757D02*
X147762821Y-129441452D01*
X147762821Y-129441452D02*
X147569297Y-129555147D01*
X147569297Y-129555147D02*
X147375773Y-129555147D01*
X147375773Y-129555147D02*
X147085487Y-129441452D01*
X147085487Y-129441452D02*
X145924345Y-128077109D01*
X145924345Y-128077109D02*
X145924345Y-129555147D01*
D12*
X143003036Y-92856738D02*
X142915950Y-92769652D01*
X142915950Y-92769652D02*
X142828864Y-92595481D01*
X142828864Y-92595481D02*
X142828864Y-92160052D01*
X142828864Y-92160052D02*
X142915950Y-91985881D01*
X142915950Y-91985881D02*
X143003036Y-91898795D01*
X143003036Y-91898795D02*
X143177207Y-91811709D01*
X143177207Y-91811709D02*
X143351379Y-91811709D01*
X143351379Y-91811709D02*
X143612636Y-91898795D01*
X143612636Y-91898795D02*
X144657664Y-92943823D01*
X144657664Y-92943823D02*
X144657664Y-91811709D01*
X142828864Y-107519795D02*
X142828864Y-108390652D01*
X142828864Y-108390652D02*
X143699721Y-108477738D01*
X143699721Y-108477738D02*
X143612636Y-108390652D01*
X143612636Y-108390652D02*
X143525550Y-108216481D01*
X143525550Y-108216481D02*
X143525550Y-107781052D01*
X143525550Y-107781052D02*
X143612636Y-107606881D01*
X143612636Y-107606881D02*
X143699721Y-107519795D01*
X143699721Y-107519795D02*
X143873893Y-107432709D01*
X143873893Y-107432709D02*
X144309321Y-107432709D01*
X144309321Y-107432709D02*
X144483493Y-107519795D01*
X144483493Y-107519795D02*
X144570579Y-107606881D01*
X144570579Y-107606881D02*
X144657664Y-107781052D01*
X144657664Y-107781052D02*
X144657664Y-108216481D01*
X144657664Y-108216481D02*
X144570579Y-108390652D01*
X144570579Y-108390652D02*
X144483493Y-108477738D01*
X143184464Y-102653881D02*
X144403664Y-102653881D01*
X142487779Y-103089309D02*
X143794064Y-103524738D01*
X143794064Y-103524738D02*
X143794064Y-102392623D01*
D15*
X160957930Y-120871527D02*
X161076978Y-120931051D01*
X161076978Y-120931051D02*
X161196025Y-121050099D01*
X161196025Y-121050099D02*
X161374597Y-121228670D01*
X161374597Y-121228670D02*
X161493644Y-121288194D01*
X161493644Y-121288194D02*
X161612692Y-121288194D01*
X161553168Y-120990575D02*
X161672216Y-121050099D01*
X161672216Y-121050099D02*
X161791263Y-121169146D01*
X161791263Y-121169146D02*
X161850787Y-121407241D01*
X161850787Y-121407241D02*
X161850787Y-121823908D01*
X161850787Y-121823908D02*
X161791263Y-122062003D01*
X161791263Y-122062003D02*
X161672216Y-122181051D01*
X161672216Y-122181051D02*
X161553168Y-122240575D01*
X161553168Y-122240575D02*
X161315073Y-122240575D01*
X161315073Y-122240575D02*
X161196025Y-122181051D01*
X161196025Y-122181051D02*
X161076978Y-122062003D01*
X161076978Y-122062003D02*
X161017454Y-121823908D01*
X161017454Y-121823908D02*
X161017454Y-121407241D01*
X161017454Y-121407241D02*
X161076978Y-121169146D01*
X161076978Y-121169146D02*
X161196025Y-121050099D01*
X161196025Y-121050099D02*
X161315073Y-120990575D01*
X161315073Y-120990575D02*
X161553168Y-120990575D01*
X159826978Y-120990575D02*
X160541263Y-120990575D01*
X160184120Y-120990575D02*
X160184120Y-122240575D01*
X160184120Y-122240575D02*
X160303168Y-122062003D01*
X160303168Y-122062003D02*
X160422216Y-121942956D01*
X160422216Y-121942956D02*
X160541263Y-121883432D01*
X159291263Y-121109622D02*
X159231740Y-121050099D01*
X159231740Y-121050099D02*
X159291263Y-120990575D01*
X159291263Y-120990575D02*
X159350787Y-121050099D01*
X159350787Y-121050099D02*
X159291263Y-121109622D01*
X159291263Y-121109622D02*
X159291263Y-120990575D01*
X159291263Y-121764384D02*
X159231740Y-121704860D01*
X159231740Y-121704860D02*
X159291263Y-121645337D01*
X159291263Y-121645337D02*
X159350787Y-121704860D01*
X159350787Y-121704860D02*
X159291263Y-121764384D01*
X159291263Y-121764384D02*
X159291263Y-121645337D01*
X158041264Y-120990575D02*
X158755549Y-120990575D01*
X158398406Y-120990575D02*
X158398406Y-122240575D01*
X158398406Y-122240575D02*
X158517454Y-122062003D01*
X158517454Y-122062003D02*
X158636502Y-121942956D01*
X158636502Y-121942956D02*
X158755549Y-121883432D01*
D13*
X159680428Y-129055513D02*
X159753000Y-128910370D01*
X159753000Y-128910370D02*
X159898143Y-128765227D01*
X159898143Y-128765227D02*
X160115857Y-128547513D01*
X160115857Y-128547513D02*
X160188428Y-128402370D01*
X160188428Y-128402370D02*
X160188428Y-128257227D01*
X159825571Y-128329798D02*
X159898143Y-128184656D01*
X159898143Y-128184656D02*
X160043285Y-128039513D01*
X160043285Y-128039513D02*
X160333571Y-127966941D01*
X160333571Y-127966941D02*
X160841571Y-127966941D01*
X160841571Y-127966941D02*
X161131857Y-128039513D01*
X161131857Y-128039513D02*
X161277000Y-128184656D01*
X161277000Y-128184656D02*
X161349571Y-128329798D01*
X161349571Y-128329798D02*
X161349571Y-128620084D01*
X161349571Y-128620084D02*
X161277000Y-128765227D01*
X161277000Y-128765227D02*
X161131857Y-128910370D01*
X161131857Y-128910370D02*
X160841571Y-128982941D01*
X160841571Y-128982941D02*
X160333571Y-128982941D01*
X160333571Y-128982941D02*
X160043285Y-128910370D01*
X160043285Y-128910370D02*
X159898143Y-128765227D01*
X159898143Y-128765227D02*
X159825571Y-128620084D01*
X159825571Y-128620084D02*
X159825571Y-128329798D01*
X160841571Y-130289227D02*
X159825571Y-130289227D01*
X161422143Y-129926369D02*
X160333571Y-129563512D01*
X160333571Y-129563512D02*
X160333571Y-130506941D01*
D12*
X129642636Y-122988395D02*
X129555550Y-123162566D01*
X129555550Y-123162566D02*
X129468464Y-123249652D01*
X129468464Y-123249652D02*
X129294293Y-123336738D01*
X129294293Y-123336738D02*
X129207207Y-123336738D01*
X129207207Y-123336738D02*
X129033036Y-123249652D01*
X129033036Y-123249652D02*
X128945950Y-123162566D01*
X128945950Y-123162566D02*
X128858864Y-122988395D01*
X128858864Y-122988395D02*
X128858864Y-122640052D01*
X128858864Y-122640052D02*
X128945950Y-122465881D01*
X128945950Y-122465881D02*
X129033036Y-122378795D01*
X129033036Y-122378795D02*
X129207207Y-122291709D01*
X129207207Y-122291709D02*
X129294293Y-122291709D01*
X129294293Y-122291709D02*
X129468464Y-122378795D01*
X129468464Y-122378795D02*
X129555550Y-122465881D01*
X129555550Y-122465881D02*
X129642636Y-122640052D01*
X129642636Y-122640052D02*
X129642636Y-122988395D01*
X129642636Y-122988395D02*
X129729721Y-123162566D01*
X129729721Y-123162566D02*
X129816807Y-123249652D01*
X129816807Y-123249652D02*
X129990979Y-123336738D01*
X129990979Y-123336738D02*
X130339321Y-123336738D01*
X130339321Y-123336738D02*
X130513493Y-123249652D01*
X130513493Y-123249652D02*
X130600579Y-123162566D01*
X130600579Y-123162566D02*
X130687664Y-122988395D01*
X130687664Y-122988395D02*
X130687664Y-122640052D01*
X130687664Y-122640052D02*
X130600579Y-122465881D01*
X130600579Y-122465881D02*
X130513493Y-122378795D01*
X130513493Y-122378795D02*
X130339321Y-122291709D01*
X130339321Y-122291709D02*
X129990979Y-122291709D01*
X129990979Y-122291709D02*
X129816807Y-122378795D01*
X129816807Y-122378795D02*
X129729721Y-122465881D01*
X129729721Y-122465881D02*
X129642636Y-122640052D01*
X128985864Y-98023823D02*
X128985864Y-96891709D01*
X128985864Y-96891709D02*
X129682550Y-97501309D01*
X129682550Y-97501309D02*
X129682550Y-97240052D01*
X129682550Y-97240052D02*
X129769636Y-97065881D01*
X129769636Y-97065881D02*
X129856721Y-96978795D01*
X129856721Y-96978795D02*
X130030893Y-96891709D01*
X130030893Y-96891709D02*
X130466321Y-96891709D01*
X130466321Y-96891709D02*
X130640493Y-96978795D01*
X130640493Y-96978795D02*
X130727579Y-97065881D01*
X130727579Y-97065881D02*
X130814664Y-97240052D01*
X130814664Y-97240052D02*
X130814664Y-97762566D01*
X130814664Y-97762566D02*
X130727579Y-97936738D01*
X130727579Y-97936738D02*
X130640493Y-98023823D01*
X128731864Y-112559881D02*
X128731864Y-112908223D01*
X128731864Y-112908223D02*
X128818950Y-113082395D01*
X128818950Y-113082395D02*
X128906036Y-113169481D01*
X128906036Y-113169481D02*
X129167293Y-113343652D01*
X129167293Y-113343652D02*
X129515636Y-113430738D01*
X129515636Y-113430738D02*
X130212321Y-113430738D01*
X130212321Y-113430738D02*
X130386493Y-113343652D01*
X130386493Y-113343652D02*
X130473579Y-113256566D01*
X130473579Y-113256566D02*
X130560664Y-113082395D01*
X130560664Y-113082395D02*
X130560664Y-112734052D01*
X130560664Y-112734052D02*
X130473579Y-112559881D01*
X130473579Y-112559881D02*
X130386493Y-112472795D01*
X130386493Y-112472795D02*
X130212321Y-112385709D01*
X130212321Y-112385709D02*
X129776893Y-112385709D01*
X129776893Y-112385709D02*
X129602721Y-112472795D01*
X129602721Y-112472795D02*
X129515636Y-112559881D01*
X129515636Y-112559881D02*
X129428550Y-112734052D01*
X129428550Y-112734052D02*
X129428550Y-113082395D01*
X129428550Y-113082395D02*
X129515636Y-113256566D01*
X129515636Y-113256566D02*
X129602721Y-113343652D01*
X129602721Y-113343652D02*
X129776893Y-113430738D01*
X142828864Y-118597823D02*
X142828864Y-117378623D01*
X142828864Y-117378623D02*
X144657664Y-118162395D01*
X130560664Y-76517281D02*
X130560664Y-77388138D01*
X130560664Y-77388138D02*
X128731864Y-77388138D01*
X129863979Y-75907681D02*
X129863979Y-74514310D01*
X130560664Y-75210995D02*
X129167293Y-75210995D01*
X143485636Y-122988395D02*
X143398550Y-123162566D01*
X143398550Y-123162566D02*
X143311464Y-123249652D01*
X143311464Y-123249652D02*
X143137293Y-123336738D01*
X143137293Y-123336738D02*
X143050207Y-123336738D01*
X143050207Y-123336738D02*
X142876036Y-123249652D01*
X142876036Y-123249652D02*
X142788950Y-123162566D01*
X142788950Y-123162566D02*
X142701864Y-122988395D01*
X142701864Y-122988395D02*
X142701864Y-122640052D01*
X142701864Y-122640052D02*
X142788950Y-122465881D01*
X142788950Y-122465881D02*
X142876036Y-122378795D01*
X142876036Y-122378795D02*
X143050207Y-122291709D01*
X143050207Y-122291709D02*
X143137293Y-122291709D01*
X143137293Y-122291709D02*
X143311464Y-122378795D01*
X143311464Y-122378795D02*
X143398550Y-122465881D01*
X143398550Y-122465881D02*
X143485636Y-122640052D01*
X143485636Y-122640052D02*
X143485636Y-122988395D01*
X143485636Y-122988395D02*
X143572721Y-123162566D01*
X143572721Y-123162566D02*
X143659807Y-123249652D01*
X143659807Y-123249652D02*
X143833979Y-123336738D01*
X143833979Y-123336738D02*
X144182321Y-123336738D01*
X144182321Y-123336738D02*
X144356493Y-123249652D01*
X144356493Y-123249652D02*
X144443579Y-123162566D01*
X144443579Y-123162566D02*
X144530664Y-122988395D01*
X144530664Y-122988395D02*
X144530664Y-122640052D01*
X144530664Y-122640052D02*
X144443579Y-122465881D01*
X144443579Y-122465881D02*
X144356493Y-122378795D01*
X144356493Y-122378795D02*
X144182321Y-122291709D01*
X144182321Y-122291709D02*
X143833979Y-122291709D01*
X143833979Y-122291709D02*
X143659807Y-122378795D01*
X143659807Y-122378795D02*
X143572721Y-122465881D01*
X143572721Y-122465881D02*
X143485636Y-122640052D01*
X144657664Y-82934611D02*
X142828864Y-82934611D01*
X142828864Y-82934611D02*
X144135150Y-82325011D01*
X144135150Y-82325011D02*
X142828864Y-81715411D01*
X142828864Y-81715411D02*
X144657664Y-81715411D01*
X144657664Y-87112709D02*
X144657664Y-88157738D01*
X144657664Y-87635223D02*
X142828864Y-87635223D01*
X142828864Y-87635223D02*
X143090121Y-87809395D01*
X143090121Y-87809395D02*
X143264293Y-87983566D01*
X143264293Y-87983566D02*
X143351379Y-88157738D01*
D13*
X159934428Y-113688513D02*
X160007000Y-113543370D01*
X160007000Y-113543370D02*
X160152143Y-113398227D01*
X160152143Y-113398227D02*
X160369857Y-113180513D01*
X160369857Y-113180513D02*
X160442428Y-113035370D01*
X160442428Y-113035370D02*
X160442428Y-112890227D01*
X160079571Y-112962798D02*
X160152143Y-112817656D01*
X160152143Y-112817656D02*
X160297285Y-112672513D01*
X160297285Y-112672513D02*
X160587571Y-112599941D01*
X160587571Y-112599941D02*
X161095571Y-112599941D01*
X161095571Y-112599941D02*
X161385857Y-112672513D01*
X161385857Y-112672513D02*
X161531000Y-112817656D01*
X161531000Y-112817656D02*
X161603571Y-112962798D01*
X161603571Y-112962798D02*
X161603571Y-113253084D01*
X161603571Y-113253084D02*
X161531000Y-113398227D01*
X161531000Y-113398227D02*
X161385857Y-113543370D01*
X161385857Y-113543370D02*
X161095571Y-113615941D01*
X161095571Y-113615941D02*
X160587571Y-113615941D01*
X160587571Y-113615941D02*
X160297285Y-113543370D01*
X160297285Y-113543370D02*
X160152143Y-113398227D01*
X160152143Y-113398227D02*
X160079571Y-113253084D01*
X160079571Y-113253084D02*
X160079571Y-112962798D01*
X161603571Y-114123941D02*
X161603571Y-115067369D01*
X161603571Y-115067369D02*
X161023000Y-114559369D01*
X161023000Y-114559369D02*
X161023000Y-114777084D01*
X161023000Y-114777084D02*
X160950428Y-114922227D01*
X160950428Y-114922227D02*
X160877857Y-114994798D01*
X160877857Y-114994798D02*
X160732714Y-115067369D01*
X160732714Y-115067369D02*
X160369857Y-115067369D01*
X160369857Y-115067369D02*
X160224714Y-114994798D01*
X160224714Y-114994798D02*
X160152143Y-114922227D01*
X160152143Y-114922227D02*
X160079571Y-114777084D01*
X160079571Y-114777084D02*
X160079571Y-114341655D01*
X160079571Y-114341655D02*
X160152143Y-114196512D01*
X160152143Y-114196512D02*
X160224714Y-114123941D01*
D12*
X129033036Y-92729738D02*
X128945950Y-92642652D01*
X128945950Y-92642652D02*
X128858864Y-92468481D01*
X128858864Y-92468481D02*
X128858864Y-92033052D01*
X128858864Y-92033052D02*
X128945950Y-91858881D01*
X128945950Y-91858881D02*
X129033036Y-91771795D01*
X129033036Y-91771795D02*
X129207207Y-91684709D01*
X129207207Y-91684709D02*
X129381379Y-91684709D01*
X129381379Y-91684709D02*
X129642636Y-91771795D01*
X129642636Y-91771795D02*
X130687664Y-92816823D01*
X130687664Y-92816823D02*
X130687664Y-91684709D01*
D15*
X160830930Y-82517527D02*
X160949978Y-82577051D01*
X160949978Y-82577051D02*
X161069025Y-82696099D01*
X161069025Y-82696099D02*
X161247597Y-82874670D01*
X161247597Y-82874670D02*
X161366644Y-82934194D01*
X161366644Y-82934194D02*
X161485692Y-82934194D01*
X161426168Y-82636575D02*
X161545216Y-82696099D01*
X161545216Y-82696099D02*
X161664263Y-82815146D01*
X161664263Y-82815146D02*
X161723787Y-83053241D01*
X161723787Y-83053241D02*
X161723787Y-83469908D01*
X161723787Y-83469908D02*
X161664263Y-83708003D01*
X161664263Y-83708003D02*
X161545216Y-83827051D01*
X161545216Y-83827051D02*
X161426168Y-83886575D01*
X161426168Y-83886575D02*
X161188073Y-83886575D01*
X161188073Y-83886575D02*
X161069025Y-83827051D01*
X161069025Y-83827051D02*
X160949978Y-83708003D01*
X160949978Y-83708003D02*
X160890454Y-83469908D01*
X160890454Y-83469908D02*
X160890454Y-83053241D01*
X160890454Y-83053241D02*
X160949978Y-82815146D01*
X160949978Y-82815146D02*
X161069025Y-82696099D01*
X161069025Y-82696099D02*
X161188073Y-82636575D01*
X161188073Y-82636575D02*
X161426168Y-82636575D01*
X159699978Y-82636575D02*
X160414263Y-82636575D01*
X160057120Y-82636575D02*
X160057120Y-83886575D01*
X160057120Y-83886575D02*
X160176168Y-83708003D01*
X160176168Y-83708003D02*
X160295216Y-83588956D01*
X160295216Y-83588956D02*
X160414263Y-83529432D01*
X159164263Y-82755622D02*
X159104740Y-82696099D01*
X159104740Y-82696099D02*
X159164263Y-82636575D01*
X159164263Y-82636575D02*
X159223787Y-82696099D01*
X159223787Y-82696099D02*
X159164263Y-82755622D01*
X159164263Y-82755622D02*
X159164263Y-82636575D01*
X159164263Y-83410384D02*
X159104740Y-83350860D01*
X159104740Y-83350860D02*
X159164263Y-83291337D01*
X159164263Y-83291337D02*
X159223787Y-83350860D01*
X159223787Y-83350860D02*
X159164263Y-83410384D01*
X159164263Y-83410384D02*
X159164263Y-83291337D01*
X157914264Y-82636575D02*
X158628549Y-82636575D01*
X158271406Y-82636575D02*
X158271406Y-83886575D01*
X158271406Y-83886575D02*
X158390454Y-83708003D01*
X158390454Y-83708003D02*
X158509502Y-83588956D01*
X158509502Y-83588956D02*
X158628549Y-83529432D01*
D12*
X129722464Y-102145881D02*
X130941664Y-102145881D01*
X129025779Y-102581309D02*
X130332064Y-103016738D01*
X130332064Y-103016738D02*
X130332064Y-101884623D01*
X144657664Y-76644281D02*
X144657664Y-77515138D01*
X144657664Y-77515138D02*
X142828864Y-77515138D01*
X143960979Y-76034681D02*
X143960979Y-74641310D01*
X144657664Y-75337995D02*
X143264293Y-75337995D01*
D15*
X161084930Y-105758527D02*
X161203978Y-105818051D01*
X161203978Y-105818051D02*
X161323025Y-105937099D01*
X161323025Y-105937099D02*
X161501597Y-106115670D01*
X161501597Y-106115670D02*
X161620644Y-106175194D01*
X161620644Y-106175194D02*
X161739692Y-106175194D01*
X161680168Y-105877575D02*
X161799216Y-105937099D01*
X161799216Y-105937099D02*
X161918263Y-106056146D01*
X161918263Y-106056146D02*
X161977787Y-106294241D01*
X161977787Y-106294241D02*
X161977787Y-106710908D01*
X161977787Y-106710908D02*
X161918263Y-106949003D01*
X161918263Y-106949003D02*
X161799216Y-107068051D01*
X161799216Y-107068051D02*
X161680168Y-107127575D01*
X161680168Y-107127575D02*
X161442073Y-107127575D01*
X161442073Y-107127575D02*
X161323025Y-107068051D01*
X161323025Y-107068051D02*
X161203978Y-106949003D01*
X161203978Y-106949003D02*
X161144454Y-106710908D01*
X161144454Y-106710908D02*
X161144454Y-106294241D01*
X161144454Y-106294241D02*
X161203978Y-106056146D01*
X161203978Y-106056146D02*
X161323025Y-105937099D01*
X161323025Y-105937099D02*
X161442073Y-105877575D01*
X161442073Y-105877575D02*
X161680168Y-105877575D01*
X159953978Y-105877575D02*
X160668263Y-105877575D01*
X160311120Y-105877575D02*
X160311120Y-107127575D01*
X160311120Y-107127575D02*
X160430168Y-106949003D01*
X160430168Y-106949003D02*
X160549216Y-106829956D01*
X160549216Y-106829956D02*
X160668263Y-106770432D01*
X159418263Y-105996622D02*
X159358740Y-105937099D01*
X159358740Y-105937099D02*
X159418263Y-105877575D01*
X159418263Y-105877575D02*
X159477787Y-105937099D01*
X159477787Y-105937099D02*
X159418263Y-105996622D01*
X159418263Y-105996622D02*
X159418263Y-105877575D01*
X159418263Y-106651384D02*
X159358740Y-106591860D01*
X159358740Y-106591860D02*
X159418263Y-106532337D01*
X159418263Y-106532337D02*
X159477787Y-106591860D01*
X159477787Y-106591860D02*
X159418263Y-106651384D01*
X159418263Y-106651384D02*
X159418263Y-106532337D01*
X158168264Y-105877575D02*
X158882549Y-105877575D01*
X158525406Y-105877575D02*
X158525406Y-107127575D01*
X158525406Y-107127575D02*
X158644454Y-106949003D01*
X158644454Y-106949003D02*
X158763502Y-106829956D01*
X158763502Y-106829956D02*
X158882549Y-106770432D01*
D16*
X151374682Y-107122932D02*
X150866682Y-107122932D01*
X150866682Y-107122932D02*
X150765082Y-107089065D01*
X150765082Y-107089065D02*
X150697349Y-107021332D01*
X150697349Y-107021332D02*
X150663482Y-106919732D01*
X150663482Y-106919732D02*
X150663482Y-106851999D01*
X150663482Y-107800266D02*
X150663482Y-107461599D01*
X150663482Y-107461599D02*
X151374682Y-107461599D01*
X150731215Y-108443732D02*
X150697349Y-108409865D01*
X150697349Y-108409865D02*
X150663482Y-108308265D01*
X150663482Y-108308265D02*
X150663482Y-108240532D01*
X150663482Y-108240532D02*
X150697349Y-108138932D01*
X150697349Y-108138932D02*
X150765082Y-108071199D01*
X150765082Y-108071199D02*
X150832815Y-108037332D01*
X150832815Y-108037332D02*
X150968282Y-108003465D01*
X150968282Y-108003465D02*
X151069882Y-108003465D01*
X151069882Y-108003465D02*
X151205349Y-108037332D01*
X151205349Y-108037332D02*
X151273082Y-108071199D01*
X151273082Y-108071199D02*
X151340815Y-108138932D01*
X151340815Y-108138932D02*
X151374682Y-108240532D01*
X151374682Y-108240532D02*
X151374682Y-108308265D01*
X151374682Y-108308265D02*
X151340815Y-108409865D01*
X151340815Y-108409865D02*
X151306949Y-108443732D01*
X151374682Y-108951732D02*
X150866682Y-108951732D01*
X150866682Y-108951732D02*
X150765082Y-108917865D01*
X150765082Y-108917865D02*
X150697349Y-108850132D01*
X150697349Y-108850132D02*
X150663482Y-108748532D01*
X150663482Y-108748532D02*
X150663482Y-108680799D01*
X150663482Y-109629066D02*
X150663482Y-109290399D01*
X150663482Y-109290399D02*
X151374682Y-109290399D01*
X150731215Y-110272532D02*
X150697349Y-110238665D01*
X150697349Y-110238665D02*
X150663482Y-110137065D01*
X150663482Y-110137065D02*
X150663482Y-110069332D01*
X150663482Y-110069332D02*
X150697349Y-109967732D01*
X150697349Y-109967732D02*
X150765082Y-109899999D01*
X150765082Y-109899999D02*
X150832815Y-109866132D01*
X150832815Y-109866132D02*
X150968282Y-109832265D01*
X150968282Y-109832265D02*
X151069882Y-109832265D01*
X151069882Y-109832265D02*
X151205349Y-109866132D01*
X151205349Y-109866132D02*
X151273082Y-109899999D01*
X151273082Y-109899999D02*
X151340815Y-109967732D01*
X151340815Y-109967732D02*
X151374682Y-110069332D01*
X151374682Y-110069332D02*
X151374682Y-110137065D01*
X151374682Y-110137065D02*
X151340815Y-110238665D01*
X151340815Y-110238665D02*
X151306949Y-110272532D01*
X151374682Y-110780532D02*
X150866682Y-110780532D01*
X150866682Y-110780532D02*
X150765082Y-110746665D01*
X150765082Y-110746665D02*
X150697349Y-110678932D01*
X150697349Y-110678932D02*
X150663482Y-110577332D01*
X150663482Y-110577332D02*
X150663482Y-110509599D01*
X150663482Y-111457866D02*
X150663482Y-111119199D01*
X150663482Y-111119199D02*
X151374682Y-111119199D01*
X150731215Y-112101332D02*
X150697349Y-112067465D01*
X150697349Y-112067465D02*
X150663482Y-111965865D01*
X150663482Y-111965865D02*
X150663482Y-111898132D01*
X150663482Y-111898132D02*
X150697349Y-111796532D01*
X150697349Y-111796532D02*
X150765082Y-111728799D01*
X150765082Y-111728799D02*
X150832815Y-111694932D01*
X150832815Y-111694932D02*
X150968282Y-111661065D01*
X150968282Y-111661065D02*
X151069882Y-111661065D01*
X151069882Y-111661065D02*
X151205349Y-111694932D01*
X151205349Y-111694932D02*
X151273082Y-111728799D01*
X151273082Y-111728799D02*
X151340815Y-111796532D01*
X151340815Y-111796532D02*
X151374682Y-111898132D01*
X151374682Y-111898132D02*
X151374682Y-111965865D01*
X151374682Y-111965865D02*
X151340815Y-112067465D01*
X151340815Y-112067465D02*
X151306949Y-112101332D01*
X151374682Y-112609332D02*
X150866682Y-112609332D01*
X150866682Y-112609332D02*
X150765082Y-112575465D01*
X150765082Y-112575465D02*
X150697349Y-112507732D01*
X150697349Y-112507732D02*
X150663482Y-112406132D01*
X150663482Y-112406132D02*
X150663482Y-112338399D01*
X150663482Y-113286666D02*
X150663482Y-112947999D01*
X150663482Y-112947999D02*
X151374682Y-112947999D01*
X150731215Y-113930132D02*
X150697349Y-113896265D01*
X150697349Y-113896265D02*
X150663482Y-113794665D01*
X150663482Y-113794665D02*
X150663482Y-113726932D01*
X150663482Y-113726932D02*
X150697349Y-113625332D01*
X150697349Y-113625332D02*
X150765082Y-113557599D01*
X150765082Y-113557599D02*
X150832815Y-113523732D01*
X150832815Y-113523732D02*
X150968282Y-113489865D01*
X150968282Y-113489865D02*
X151069882Y-113489865D01*
X151069882Y-113489865D02*
X151205349Y-113523732D01*
X151205349Y-113523732D02*
X151273082Y-113557599D01*
X151273082Y-113557599D02*
X151340815Y-113625332D01*
X151340815Y-113625332D02*
X151374682Y-113726932D01*
X151374682Y-113726932D02*
X151374682Y-113794665D01*
X151374682Y-113794665D02*
X151340815Y-113896265D01*
X151340815Y-113896265D02*
X151306949Y-113930132D01*
X139179818Y-82665290D02*
X139687818Y-82665290D01*
X139687818Y-82665290D02*
X139789418Y-82699157D01*
X139789418Y-82699157D02*
X139857152Y-82766890D01*
X139857152Y-82766890D02*
X139891018Y-82868490D01*
X139891018Y-82868490D02*
X139891018Y-82936224D01*
X139891018Y-81987957D02*
X139891018Y-82326623D01*
X139891018Y-82326623D02*
X139179818Y-82326623D01*
X139823285Y-81344490D02*
X139857152Y-81378357D01*
X139857152Y-81378357D02*
X139891018Y-81479957D01*
X139891018Y-81479957D02*
X139891018Y-81547690D01*
X139891018Y-81547690D02*
X139857152Y-81649290D01*
X139857152Y-81649290D02*
X139789418Y-81717024D01*
X139789418Y-81717024D02*
X139721685Y-81750890D01*
X139721685Y-81750890D02*
X139586218Y-81784757D01*
X139586218Y-81784757D02*
X139484618Y-81784757D01*
X139484618Y-81784757D02*
X139349152Y-81750890D01*
X139349152Y-81750890D02*
X139281418Y-81717024D01*
X139281418Y-81717024D02*
X139213685Y-81649290D01*
X139213685Y-81649290D02*
X139179818Y-81547690D01*
X139179818Y-81547690D02*
X139179818Y-81479957D01*
X139179818Y-81479957D02*
X139213685Y-81378357D01*
X139213685Y-81378357D02*
X139247552Y-81344490D01*
X139179818Y-80836490D02*
X139687818Y-80836490D01*
X139687818Y-80836490D02*
X139789418Y-80870357D01*
X139789418Y-80870357D02*
X139857152Y-80938090D01*
X139857152Y-80938090D02*
X139891018Y-81039690D01*
X139891018Y-81039690D02*
X139891018Y-81107424D01*
X139891018Y-80159157D02*
X139891018Y-80497823D01*
X139891018Y-80497823D02*
X139179818Y-80497823D01*
X139823285Y-79515690D02*
X139857152Y-79549557D01*
X139857152Y-79549557D02*
X139891018Y-79651157D01*
X139891018Y-79651157D02*
X139891018Y-79718890D01*
X139891018Y-79718890D02*
X139857152Y-79820490D01*
X139857152Y-79820490D02*
X139789418Y-79888224D01*
X139789418Y-79888224D02*
X139721685Y-79922090D01*
X139721685Y-79922090D02*
X139586218Y-79955957D01*
X139586218Y-79955957D02*
X139484618Y-79955957D01*
X139484618Y-79955957D02*
X139349152Y-79922090D01*
X139349152Y-79922090D02*
X139281418Y-79888224D01*
X139281418Y-79888224D02*
X139213685Y-79820490D01*
X139213685Y-79820490D02*
X139179818Y-79718890D01*
X139179818Y-79718890D02*
X139179818Y-79651157D01*
X139179818Y-79651157D02*
X139213685Y-79549557D01*
X139213685Y-79549557D02*
X139247552Y-79515690D01*
X139179818Y-79007690D02*
X139687818Y-79007690D01*
X139687818Y-79007690D02*
X139789418Y-79041557D01*
X139789418Y-79041557D02*
X139857152Y-79109290D01*
X139857152Y-79109290D02*
X139891018Y-79210890D01*
X139891018Y-79210890D02*
X139891018Y-79278624D01*
X139891018Y-78330357D02*
X139891018Y-78669023D01*
X139891018Y-78669023D02*
X139179818Y-78669023D01*
X139823285Y-77686890D02*
X139857152Y-77720757D01*
X139857152Y-77720757D02*
X139891018Y-77822357D01*
X139891018Y-77822357D02*
X139891018Y-77890090D01*
X139891018Y-77890090D02*
X139857152Y-77991690D01*
X139857152Y-77991690D02*
X139789418Y-78059424D01*
X139789418Y-78059424D02*
X139721685Y-78093290D01*
X139721685Y-78093290D02*
X139586218Y-78127157D01*
X139586218Y-78127157D02*
X139484618Y-78127157D01*
X139484618Y-78127157D02*
X139349152Y-78093290D01*
X139349152Y-78093290D02*
X139281418Y-78059424D01*
X139281418Y-78059424D02*
X139213685Y-77991690D01*
X139213685Y-77991690D02*
X139179818Y-77890090D01*
X139179818Y-77890090D02*
X139179818Y-77822357D01*
X139179818Y-77822357D02*
X139213685Y-77720757D01*
X139213685Y-77720757D02*
X139247552Y-77686890D01*
X139179818Y-77178890D02*
X139687818Y-77178890D01*
X139687818Y-77178890D02*
X139789418Y-77212757D01*
X139789418Y-77212757D02*
X139857152Y-77280490D01*
X139857152Y-77280490D02*
X139891018Y-77382090D01*
X139891018Y-77382090D02*
X139891018Y-77449824D01*
X139891018Y-76501557D02*
X139891018Y-76840223D01*
X139891018Y-76840223D02*
X139179818Y-76840223D01*
X139823285Y-75858090D02*
X139857152Y-75891957D01*
X139857152Y-75891957D02*
X139891018Y-75993557D01*
X139891018Y-75993557D02*
X139891018Y-76061290D01*
X139891018Y-76061290D02*
X139857152Y-76162890D01*
X139857152Y-76162890D02*
X139789418Y-76230624D01*
X139789418Y-76230624D02*
X139721685Y-76264490D01*
X139721685Y-76264490D02*
X139586218Y-76298357D01*
X139586218Y-76298357D02*
X139484618Y-76298357D01*
X139484618Y-76298357D02*
X139349152Y-76264490D01*
X139349152Y-76264490D02*
X139281418Y-76230624D01*
X139281418Y-76230624D02*
X139213685Y-76162890D01*
X139213685Y-76162890D02*
X139179818Y-76061290D01*
X139179818Y-76061290D02*
X139179818Y-75993557D01*
X139179818Y-75993557D02*
X139213685Y-75891957D01*
X139213685Y-75891957D02*
X139247552Y-75858090D01*
D17*
X135713069Y-88336271D02*
X135236878Y-88669604D01*
X135713069Y-88907699D02*
X134713069Y-88907699D01*
X134713069Y-88907699D02*
X134713069Y-88526747D01*
X134713069Y-88526747D02*
X134760688Y-88431509D01*
X134760688Y-88431509D02*
X134808307Y-88383890D01*
X134808307Y-88383890D02*
X134903545Y-88336271D01*
X134903545Y-88336271D02*
X135046402Y-88336271D01*
X135046402Y-88336271D02*
X135141640Y-88383890D01*
X135141640Y-88383890D02*
X135189259Y-88431509D01*
X135189259Y-88431509D02*
X135236878Y-88526747D01*
X135236878Y-88526747D02*
X135236878Y-88907699D01*
X134808307Y-87955318D02*
X134760688Y-87907699D01*
X134760688Y-87907699D02*
X134713069Y-87812461D01*
X134713069Y-87812461D02*
X134713069Y-87574366D01*
X134713069Y-87574366D02*
X134760688Y-87479128D01*
X134760688Y-87479128D02*
X134808307Y-87431509D01*
X134808307Y-87431509D02*
X134903545Y-87383890D01*
X134903545Y-87383890D02*
X134998783Y-87383890D01*
X134998783Y-87383890D02*
X135141640Y-87431509D01*
X135141640Y-87431509D02*
X135713069Y-88002937D01*
X135713069Y-88002937D02*
X135713069Y-87383890D01*
X134713069Y-86764842D02*
X134713069Y-86669604D01*
X134713069Y-86669604D02*
X134760688Y-86574366D01*
X134760688Y-86574366D02*
X134808307Y-86526747D01*
X134808307Y-86526747D02*
X134903545Y-86479128D01*
X134903545Y-86479128D02*
X135094021Y-86431509D01*
X135094021Y-86431509D02*
X135332116Y-86431509D01*
X135332116Y-86431509D02*
X135522592Y-86479128D01*
X135522592Y-86479128D02*
X135617830Y-86526747D01*
X135617830Y-86526747D02*
X135665450Y-86574366D01*
X135665450Y-86574366D02*
X135713069Y-86669604D01*
X135713069Y-86669604D02*
X135713069Y-86764842D01*
X135713069Y-86764842D02*
X135665450Y-86860080D01*
X135665450Y-86860080D02*
X135617830Y-86907699D01*
X135617830Y-86907699D02*
X135522592Y-86955318D01*
X135522592Y-86955318D02*
X135332116Y-87002937D01*
X135332116Y-87002937D02*
X135094021Y-87002937D01*
X135094021Y-87002937D02*
X134903545Y-86955318D01*
X134903545Y-86955318D02*
X134808307Y-86907699D01*
X134808307Y-86907699D02*
X134760688Y-86860080D01*
X134760688Y-86860080D02*
X134713069Y-86764842D01*
X134713069Y-86098175D02*
X134713069Y-85479128D01*
X134713069Y-85479128D02*
X135094021Y-85812461D01*
X135094021Y-85812461D02*
X135094021Y-85669604D01*
X135094021Y-85669604D02*
X135141640Y-85574366D01*
X135141640Y-85574366D02*
X135189259Y-85526747D01*
X135189259Y-85526747D02*
X135284497Y-85479128D01*
X135284497Y-85479128D02*
X135522592Y-85479128D01*
X135522592Y-85479128D02*
X135617830Y-85526747D01*
X135617830Y-85526747D02*
X135665450Y-85574366D01*
X135665450Y-85574366D02*
X135713069Y-85669604D01*
X135713069Y-85669604D02*
X135713069Y-85955318D01*
X135713069Y-85955318D02*
X135665450Y-86050556D01*
X135665450Y-86050556D02*
X135617830Y-86098175D01*
D18*
X155122568Y-96317856D02*
X156029711Y-96317856D01*
X156029711Y-96317856D02*
X156211139Y-96378333D01*
X156211139Y-96378333D02*
X156332092Y-96499285D01*
X156332092Y-96499285D02*
X156392568Y-96680714D01*
X156392568Y-96680714D02*
X156392568Y-96801666D01*
X155122568Y-95834047D02*
X155122568Y-95047856D01*
X155122568Y-95047856D02*
X155606377Y-95471190D01*
X155606377Y-95471190D02*
X155606377Y-95289761D01*
X155606377Y-95289761D02*
X155666853Y-95168809D01*
X155666853Y-95168809D02*
X155727330Y-95108333D01*
X155727330Y-95108333D02*
X155848282Y-95047856D01*
X155848282Y-95047856D02*
X156150663Y-95047856D01*
X156150663Y-95047856D02*
X156271615Y-95108333D01*
X156271615Y-95108333D02*
X156332092Y-95168809D01*
X156332092Y-95168809D02*
X156392568Y-95289761D01*
X156392568Y-95289761D02*
X156392568Y-95652618D01*
X156392568Y-95652618D02*
X156332092Y-95773571D01*
X156332092Y-95773571D02*
X156271615Y-95834047D01*
X156392568Y-93838332D02*
X156392568Y-94564047D01*
X156392568Y-94201190D02*
X155122568Y-94201190D01*
X155122568Y-94201190D02*
X155303996Y-94322142D01*
X155303996Y-94322142D02*
X155424949Y-94443094D01*
X155424949Y-94443094D02*
X155485425Y-94564047D01*
X155666853Y-93112618D02*
X155606377Y-93233570D01*
X155606377Y-93233570D02*
X155545901Y-93294047D01*
X155545901Y-93294047D02*
X155424949Y-93354523D01*
X155424949Y-93354523D02*
X155364472Y-93354523D01*
X155364472Y-93354523D02*
X155243520Y-93294047D01*
X155243520Y-93294047D02*
X155183044Y-93233570D01*
X155183044Y-93233570D02*
X155122568Y-93112618D01*
X155122568Y-93112618D02*
X155122568Y-92870713D01*
X155122568Y-92870713D02*
X155183044Y-92749761D01*
X155183044Y-92749761D02*
X155243520Y-92689285D01*
X155243520Y-92689285D02*
X155364472Y-92628808D01*
X155364472Y-92628808D02*
X155424949Y-92628808D01*
X155424949Y-92628808D02*
X155545901Y-92689285D01*
X155545901Y-92689285D02*
X155606377Y-92749761D01*
X155606377Y-92749761D02*
X155666853Y-92870713D01*
X155666853Y-92870713D02*
X155666853Y-93112618D01*
X155666853Y-93112618D02*
X155727330Y-93233570D01*
X155727330Y-93233570D02*
X155787806Y-93294047D01*
X155787806Y-93294047D02*
X155908758Y-93354523D01*
X155908758Y-93354523D02*
X156150663Y-93354523D01*
X156150663Y-93354523D02*
X156271615Y-93294047D01*
X156271615Y-93294047D02*
X156332092Y-93233570D01*
X156332092Y-93233570D02*
X156392568Y-93112618D01*
X156392568Y-93112618D02*
X156392568Y-92870713D01*
X156392568Y-92870713D02*
X156332092Y-92749761D01*
X156332092Y-92749761D02*
X156271615Y-92689285D01*
X156271615Y-92689285D02*
X156150663Y-92628808D01*
X156150663Y-92628808D02*
X155908758Y-92628808D01*
X155908758Y-92628808D02*
X155787806Y-92689285D01*
X155787806Y-92689285D02*
X155727330Y-92749761D01*
X155727330Y-92749761D02*
X155666853Y-92870713D01*
D19*
X116564285Y-111941865D02*
X116564285Y-112656150D01*
X116564285Y-112656150D02*
X116516666Y-112799007D01*
X116516666Y-112799007D02*
X116421428Y-112894246D01*
X116421428Y-112894246D02*
X116278571Y-112941865D01*
X116278571Y-112941865D02*
X116183333Y-112941865D01*
X116992857Y-112037103D02*
X117040476Y-111989484D01*
X117040476Y-111989484D02*
X117135714Y-111941865D01*
X117135714Y-111941865D02*
X117373809Y-111941865D01*
X117373809Y-111941865D02*
X117469047Y-111989484D01*
X117469047Y-111989484D02*
X117516666Y-112037103D01*
X117516666Y-112037103D02*
X117564285Y-112132341D01*
X117564285Y-112132341D02*
X117564285Y-112227579D01*
X117564285Y-112227579D02*
X117516666Y-112370436D01*
X117516666Y-112370436D02*
X116945238Y-112941865D01*
X116945238Y-112941865D02*
X117564285Y-112941865D01*
X118183333Y-111941865D02*
X118278571Y-111941865D01*
X118278571Y-111941865D02*
X118373809Y-111989484D01*
X118373809Y-111989484D02*
X118421428Y-112037103D01*
X118421428Y-112037103D02*
X118469047Y-112132341D01*
X118469047Y-112132341D02*
X118516666Y-112322817D01*
X118516666Y-112322817D02*
X118516666Y-112560912D01*
X118516666Y-112560912D02*
X118469047Y-112751388D01*
X118469047Y-112751388D02*
X118421428Y-112846626D01*
X118421428Y-112846626D02*
X118373809Y-112894246D01*
X118373809Y-112894246D02*
X118278571Y-112941865D01*
X118278571Y-112941865D02*
X118183333Y-112941865D01*
X118183333Y-112941865D02*
X118088095Y-112894246D01*
X118088095Y-112894246D02*
X118040476Y-112846626D01*
X118040476Y-112846626D02*
X117992857Y-112751388D01*
X117992857Y-112751388D02*
X117945238Y-112560912D01*
X117945238Y-112560912D02*
X117945238Y-112322817D01*
X117945238Y-112322817D02*
X117992857Y-112132341D01*
X117992857Y-112132341D02*
X118040476Y-112037103D01*
X118040476Y-112037103D02*
X118088095Y-111989484D01*
X118088095Y-111989484D02*
X118183333Y-111941865D01*
X118897619Y-112037103D02*
X118945238Y-111989484D01*
X118945238Y-111989484D02*
X119040476Y-111941865D01*
X119040476Y-111941865D02*
X119278571Y-111941865D01*
X119278571Y-111941865D02*
X119373809Y-111989484D01*
X119373809Y-111989484D02*
X119421428Y-112037103D01*
X119421428Y-112037103D02*
X119469047Y-112132341D01*
X119469047Y-112132341D02*
X119469047Y-112227579D01*
X119469047Y-112227579D02*
X119421428Y-112370436D01*
X119421428Y-112370436D02*
X118850000Y-112941865D01*
X118850000Y-112941865D02*
X119469047Y-112941865D01*
X116544285Y-117029643D02*
X116544285Y-117743928D01*
X116544285Y-117743928D02*
X116496666Y-117886785D01*
X116496666Y-117886785D02*
X116401428Y-117982024D01*
X116401428Y-117982024D02*
X116258571Y-118029643D01*
X116258571Y-118029643D02*
X116163333Y-118029643D01*
X116972857Y-117124881D02*
X117020476Y-117077262D01*
X117020476Y-117077262D02*
X117115714Y-117029643D01*
X117115714Y-117029643D02*
X117353809Y-117029643D01*
X117353809Y-117029643D02*
X117449047Y-117077262D01*
X117449047Y-117077262D02*
X117496666Y-117124881D01*
X117496666Y-117124881D02*
X117544285Y-117220119D01*
X117544285Y-117220119D02*
X117544285Y-117315357D01*
X117544285Y-117315357D02*
X117496666Y-117458214D01*
X117496666Y-117458214D02*
X116925238Y-118029643D01*
X116925238Y-118029643D02*
X117544285Y-118029643D01*
X118163333Y-117029643D02*
X118258571Y-117029643D01*
X118258571Y-117029643D02*
X118353809Y-117077262D01*
X118353809Y-117077262D02*
X118401428Y-117124881D01*
X118401428Y-117124881D02*
X118449047Y-117220119D01*
X118449047Y-117220119D02*
X118496666Y-117410595D01*
X118496666Y-117410595D02*
X118496666Y-117648690D01*
X118496666Y-117648690D02*
X118449047Y-117839166D01*
X118449047Y-117839166D02*
X118401428Y-117934404D01*
X118401428Y-117934404D02*
X118353809Y-117982024D01*
X118353809Y-117982024D02*
X118258571Y-118029643D01*
X118258571Y-118029643D02*
X118163333Y-118029643D01*
X118163333Y-118029643D02*
X118068095Y-117982024D01*
X118068095Y-117982024D02*
X118020476Y-117934404D01*
X118020476Y-117934404D02*
X117972857Y-117839166D01*
X117972857Y-117839166D02*
X117925238Y-117648690D01*
X117925238Y-117648690D02*
X117925238Y-117410595D01*
X117925238Y-117410595D02*
X117972857Y-117220119D01*
X117972857Y-117220119D02*
X118020476Y-117124881D01*
X118020476Y-117124881D02*
X118068095Y-117077262D01*
X118068095Y-117077262D02*
X118163333Y-117029643D01*
X119449047Y-118029643D02*
X118877619Y-118029643D01*
X119163333Y-118029643D02*
X119163333Y-117029643D01*
X119163333Y-117029643D02*
X119068095Y-117172500D01*
X119068095Y-117172500D02*
X118972857Y-117267738D01*
X118972857Y-117267738D02*
X118877619Y-117315357D01*
D18*
X154992568Y-78757856D02*
X155899711Y-78757856D01*
X155899711Y-78757856D02*
X156081139Y-78818333D01*
X156081139Y-78818333D02*
X156202092Y-78939285D01*
X156202092Y-78939285D02*
X156262568Y-79120714D01*
X156262568Y-79120714D02*
X156262568Y-79241666D01*
X154992568Y-78274047D02*
X154992568Y-77487856D01*
X154992568Y-77487856D02*
X155476377Y-77911190D01*
X155476377Y-77911190D02*
X155476377Y-77729761D01*
X155476377Y-77729761D02*
X155536853Y-77608809D01*
X155536853Y-77608809D02*
X155597330Y-77548333D01*
X155597330Y-77548333D02*
X155718282Y-77487856D01*
X155718282Y-77487856D02*
X156020663Y-77487856D01*
X156020663Y-77487856D02*
X156141615Y-77548333D01*
X156141615Y-77548333D02*
X156202092Y-77608809D01*
X156202092Y-77608809D02*
X156262568Y-77729761D01*
X156262568Y-77729761D02*
X156262568Y-78092618D01*
X156262568Y-78092618D02*
X156202092Y-78213571D01*
X156202092Y-78213571D02*
X156141615Y-78274047D01*
X156262568Y-76278332D02*
X156262568Y-77004047D01*
X156262568Y-76641190D02*
X154992568Y-76641190D01*
X154992568Y-76641190D02*
X155173996Y-76762142D01*
X155173996Y-76762142D02*
X155294949Y-76883094D01*
X155294949Y-76883094D02*
X155355425Y-77004047D01*
X154992568Y-75854999D02*
X154992568Y-75008332D01*
X154992568Y-75008332D02*
X156262568Y-75552618D01*
D19*
X116564285Y-101796309D02*
X116564285Y-102510594D01*
X116564285Y-102510594D02*
X116516666Y-102653451D01*
X116516666Y-102653451D02*
X116421428Y-102748690D01*
X116421428Y-102748690D02*
X116278571Y-102796309D01*
X116278571Y-102796309D02*
X116183333Y-102796309D01*
X116992857Y-101891547D02*
X117040476Y-101843928D01*
X117040476Y-101843928D02*
X117135714Y-101796309D01*
X117135714Y-101796309D02*
X117373809Y-101796309D01*
X117373809Y-101796309D02*
X117469047Y-101843928D01*
X117469047Y-101843928D02*
X117516666Y-101891547D01*
X117516666Y-101891547D02*
X117564285Y-101986785D01*
X117564285Y-101986785D02*
X117564285Y-102082023D01*
X117564285Y-102082023D02*
X117516666Y-102224880D01*
X117516666Y-102224880D02*
X116945238Y-102796309D01*
X116945238Y-102796309D02*
X117564285Y-102796309D01*
X118183333Y-101796309D02*
X118278571Y-101796309D01*
X118278571Y-101796309D02*
X118373809Y-101843928D01*
X118373809Y-101843928D02*
X118421428Y-101891547D01*
X118421428Y-101891547D02*
X118469047Y-101986785D01*
X118469047Y-101986785D02*
X118516666Y-102177261D01*
X118516666Y-102177261D02*
X118516666Y-102415356D01*
X118516666Y-102415356D02*
X118469047Y-102605832D01*
X118469047Y-102605832D02*
X118421428Y-102701070D01*
X118421428Y-102701070D02*
X118373809Y-102748690D01*
X118373809Y-102748690D02*
X118278571Y-102796309D01*
X118278571Y-102796309D02*
X118183333Y-102796309D01*
X118183333Y-102796309D02*
X118088095Y-102748690D01*
X118088095Y-102748690D02*
X118040476Y-102701070D01*
X118040476Y-102701070D02*
X117992857Y-102605832D01*
X117992857Y-102605832D02*
X117945238Y-102415356D01*
X117945238Y-102415356D02*
X117945238Y-102177261D01*
X117945238Y-102177261D02*
X117992857Y-101986785D01*
X117992857Y-101986785D02*
X118040476Y-101891547D01*
X118040476Y-101891547D02*
X118088095Y-101843928D01*
X118088095Y-101843928D02*
X118183333Y-101796309D01*
X119373809Y-102129642D02*
X119373809Y-102796309D01*
X119135714Y-101748690D02*
X118897619Y-102462975D01*
X118897619Y-102462975D02*
X119516666Y-102462975D01*
X116544285Y-71329643D02*
X116544285Y-72043928D01*
X116544285Y-72043928D02*
X116496666Y-72186785D01*
X116496666Y-72186785D02*
X116401428Y-72282024D01*
X116401428Y-72282024D02*
X116258571Y-72329643D01*
X116258571Y-72329643D02*
X116163333Y-72329643D01*
X116972857Y-71424881D02*
X117020476Y-71377262D01*
X117020476Y-71377262D02*
X117115714Y-71329643D01*
X117115714Y-71329643D02*
X117353809Y-71329643D01*
X117353809Y-71329643D02*
X117449047Y-71377262D01*
X117449047Y-71377262D02*
X117496666Y-71424881D01*
X117496666Y-71424881D02*
X117544285Y-71520119D01*
X117544285Y-71520119D02*
X117544285Y-71615357D01*
X117544285Y-71615357D02*
X117496666Y-71758214D01*
X117496666Y-71758214D02*
X116925238Y-72329643D01*
X116925238Y-72329643D02*
X117544285Y-72329643D01*
X118496666Y-72329643D02*
X117925238Y-72329643D01*
X118210952Y-72329643D02*
X118210952Y-71329643D01*
X118210952Y-71329643D02*
X118115714Y-71472500D01*
X118115714Y-71472500D02*
X118020476Y-71567738D01*
X118020476Y-71567738D02*
X117925238Y-71615357D01*
X119115714Y-71329643D02*
X119210952Y-71329643D01*
X119210952Y-71329643D02*
X119306190Y-71377262D01*
X119306190Y-71377262D02*
X119353809Y-71424881D01*
X119353809Y-71424881D02*
X119401428Y-71520119D01*
X119401428Y-71520119D02*
X119449047Y-71710595D01*
X119449047Y-71710595D02*
X119449047Y-71948690D01*
X119449047Y-71948690D02*
X119401428Y-72139166D01*
X119401428Y-72139166D02*
X119353809Y-72234404D01*
X119353809Y-72234404D02*
X119306190Y-72282024D01*
X119306190Y-72282024D02*
X119210952Y-72329643D01*
X119210952Y-72329643D02*
X119115714Y-72329643D01*
X119115714Y-72329643D02*
X119020476Y-72282024D01*
X119020476Y-72282024D02*
X118972857Y-72234404D01*
X118972857Y-72234404D02*
X118925238Y-72139166D01*
X118925238Y-72139166D02*
X118877619Y-71948690D01*
X118877619Y-71948690D02*
X118877619Y-71710595D01*
X118877619Y-71710595D02*
X118925238Y-71520119D01*
X118925238Y-71520119D02*
X118972857Y-71424881D01*
X118972857Y-71424881D02*
X119020476Y-71377262D01*
X119020476Y-71377262D02*
X119115714Y-71329643D01*
D18*
X139322568Y-101690080D02*
X140229711Y-101690080D01*
X140229711Y-101690080D02*
X140411139Y-101750557D01*
X140411139Y-101750557D02*
X140532092Y-101871509D01*
X140532092Y-101871509D02*
X140592568Y-102052938D01*
X140592568Y-102052938D02*
X140592568Y-102173890D01*
X139443520Y-101145795D02*
X139383044Y-101085319D01*
X139383044Y-101085319D02*
X139322568Y-100964366D01*
X139322568Y-100964366D02*
X139322568Y-100661985D01*
X139322568Y-100661985D02*
X139383044Y-100541033D01*
X139383044Y-100541033D02*
X139443520Y-100480557D01*
X139443520Y-100480557D02*
X139564472Y-100420080D01*
X139564472Y-100420080D02*
X139685425Y-100420080D01*
X139685425Y-100420080D02*
X139866853Y-100480557D01*
X139866853Y-100480557D02*
X140592568Y-101206271D01*
X140592568Y-101206271D02*
X140592568Y-100420080D01*
X139443520Y-99936271D02*
X139383044Y-99875795D01*
X139383044Y-99875795D02*
X139322568Y-99754842D01*
X139322568Y-99754842D02*
X139322568Y-99452461D01*
X139322568Y-99452461D02*
X139383044Y-99331509D01*
X139383044Y-99331509D02*
X139443520Y-99271033D01*
X139443520Y-99271033D02*
X139564472Y-99210556D01*
X139564472Y-99210556D02*
X139685425Y-99210556D01*
X139685425Y-99210556D02*
X139866853Y-99271033D01*
X139866853Y-99271033D02*
X140592568Y-99996747D01*
X140592568Y-99996747D02*
X140592568Y-99210556D01*
X139443520Y-98726747D02*
X139383044Y-98666271D01*
X139383044Y-98666271D02*
X139322568Y-98545318D01*
X139322568Y-98545318D02*
X139322568Y-98242937D01*
X139322568Y-98242937D02*
X139383044Y-98121985D01*
X139383044Y-98121985D02*
X139443520Y-98061509D01*
X139443520Y-98061509D02*
X139564472Y-98001032D01*
X139564472Y-98001032D02*
X139685425Y-98001032D01*
X139685425Y-98001032D02*
X139866853Y-98061509D01*
X139866853Y-98061509D02*
X140592568Y-98787223D01*
X140592568Y-98787223D02*
X140592568Y-98001032D01*
D19*
X116574285Y-91630753D02*
X116574285Y-92345038D01*
X116574285Y-92345038D02*
X116526666Y-92487895D01*
X116526666Y-92487895D02*
X116431428Y-92583134D01*
X116431428Y-92583134D02*
X116288571Y-92630753D01*
X116288571Y-92630753D02*
X116193333Y-92630753D01*
X117002857Y-91725991D02*
X117050476Y-91678372D01*
X117050476Y-91678372D02*
X117145714Y-91630753D01*
X117145714Y-91630753D02*
X117383809Y-91630753D01*
X117383809Y-91630753D02*
X117479047Y-91678372D01*
X117479047Y-91678372D02*
X117526666Y-91725991D01*
X117526666Y-91725991D02*
X117574285Y-91821229D01*
X117574285Y-91821229D02*
X117574285Y-91916467D01*
X117574285Y-91916467D02*
X117526666Y-92059324D01*
X117526666Y-92059324D02*
X116955238Y-92630753D01*
X116955238Y-92630753D02*
X117574285Y-92630753D01*
X118193333Y-91630753D02*
X118288571Y-91630753D01*
X118288571Y-91630753D02*
X118383809Y-91678372D01*
X118383809Y-91678372D02*
X118431428Y-91725991D01*
X118431428Y-91725991D02*
X118479047Y-91821229D01*
X118479047Y-91821229D02*
X118526666Y-92011705D01*
X118526666Y-92011705D02*
X118526666Y-92249800D01*
X118526666Y-92249800D02*
X118479047Y-92440276D01*
X118479047Y-92440276D02*
X118431428Y-92535514D01*
X118431428Y-92535514D02*
X118383809Y-92583134D01*
X118383809Y-92583134D02*
X118288571Y-92630753D01*
X118288571Y-92630753D02*
X118193333Y-92630753D01*
X118193333Y-92630753D02*
X118098095Y-92583134D01*
X118098095Y-92583134D02*
X118050476Y-92535514D01*
X118050476Y-92535514D02*
X118002857Y-92440276D01*
X118002857Y-92440276D02*
X117955238Y-92249800D01*
X117955238Y-92249800D02*
X117955238Y-92011705D01*
X117955238Y-92011705D02*
X118002857Y-91821229D01*
X118002857Y-91821229D02*
X118050476Y-91725991D01*
X118050476Y-91725991D02*
X118098095Y-91678372D01*
X118098095Y-91678372D02*
X118193333Y-91630753D01*
X119383809Y-91630753D02*
X119193333Y-91630753D01*
X119193333Y-91630753D02*
X119098095Y-91678372D01*
X119098095Y-91678372D02*
X119050476Y-91725991D01*
X119050476Y-91725991D02*
X118955238Y-91868848D01*
X118955238Y-91868848D02*
X118907619Y-92059324D01*
X118907619Y-92059324D02*
X118907619Y-92440276D01*
X118907619Y-92440276D02*
X118955238Y-92535514D01*
X118955238Y-92535514D02*
X119002857Y-92583134D01*
X119002857Y-92583134D02*
X119098095Y-92630753D01*
X119098095Y-92630753D02*
X119288571Y-92630753D01*
X119288571Y-92630753D02*
X119383809Y-92583134D01*
X119383809Y-92583134D02*
X119431428Y-92535514D01*
X119431428Y-92535514D02*
X119479047Y-92440276D01*
X119479047Y-92440276D02*
X119479047Y-92202181D01*
X119479047Y-92202181D02*
X119431428Y-92106943D01*
X119431428Y-92106943D02*
X119383809Y-92059324D01*
X119383809Y-92059324D02*
X119288571Y-92011705D01*
X119288571Y-92011705D02*
X119098095Y-92011705D01*
X119098095Y-92011705D02*
X119002857Y-92059324D01*
X119002857Y-92059324D02*
X118955238Y-92106943D01*
X118955238Y-92106943D02*
X118907619Y-92202181D01*
D17*
X135473069Y-108896271D02*
X134996878Y-109229604D01*
X135473069Y-109467699D02*
X134473069Y-109467699D01*
X134473069Y-109467699D02*
X134473069Y-109086747D01*
X134473069Y-109086747D02*
X134520688Y-108991509D01*
X134520688Y-108991509D02*
X134568307Y-108943890D01*
X134568307Y-108943890D02*
X134663545Y-108896271D01*
X134663545Y-108896271D02*
X134806402Y-108896271D01*
X134806402Y-108896271D02*
X134901640Y-108943890D01*
X134901640Y-108943890D02*
X134949259Y-108991509D01*
X134949259Y-108991509D02*
X134996878Y-109086747D01*
X134996878Y-109086747D02*
X134996878Y-109467699D01*
X134568307Y-108515318D02*
X134520688Y-108467699D01*
X134520688Y-108467699D02*
X134473069Y-108372461D01*
X134473069Y-108372461D02*
X134473069Y-108134366D01*
X134473069Y-108134366D02*
X134520688Y-108039128D01*
X134520688Y-108039128D02*
X134568307Y-107991509D01*
X134568307Y-107991509D02*
X134663545Y-107943890D01*
X134663545Y-107943890D02*
X134758783Y-107943890D01*
X134758783Y-107943890D02*
X134901640Y-107991509D01*
X134901640Y-107991509D02*
X135473069Y-108562937D01*
X135473069Y-108562937D02*
X135473069Y-107943890D01*
X134473069Y-107324842D02*
X134473069Y-107229604D01*
X134473069Y-107229604D02*
X134520688Y-107134366D01*
X134520688Y-107134366D02*
X134568307Y-107086747D01*
X134568307Y-107086747D02*
X134663545Y-107039128D01*
X134663545Y-107039128D02*
X134854021Y-106991509D01*
X134854021Y-106991509D02*
X135092116Y-106991509D01*
X135092116Y-106991509D02*
X135282592Y-107039128D01*
X135282592Y-107039128D02*
X135377830Y-107086747D01*
X135377830Y-107086747D02*
X135425450Y-107134366D01*
X135425450Y-107134366D02*
X135473069Y-107229604D01*
X135473069Y-107229604D02*
X135473069Y-107324842D01*
X135473069Y-107324842D02*
X135425450Y-107420080D01*
X135425450Y-107420080D02*
X135377830Y-107467699D01*
X135377830Y-107467699D02*
X135282592Y-107515318D01*
X135282592Y-107515318D02*
X135092116Y-107562937D01*
X135092116Y-107562937D02*
X134854021Y-107562937D01*
X134854021Y-107562937D02*
X134663545Y-107515318D01*
X134663545Y-107515318D02*
X134568307Y-107467699D01*
X134568307Y-107467699D02*
X134520688Y-107420080D01*
X134520688Y-107420080D02*
X134473069Y-107324842D01*
X134568307Y-106610556D02*
X134520688Y-106562937D01*
X134520688Y-106562937D02*
X134473069Y-106467699D01*
X134473069Y-106467699D02*
X134473069Y-106229604D01*
X134473069Y-106229604D02*
X134520688Y-106134366D01*
X134520688Y-106134366D02*
X134568307Y-106086747D01*
X134568307Y-106086747D02*
X134663545Y-106039128D01*
X134663545Y-106039128D02*
X134758783Y-106039128D01*
X134758783Y-106039128D02*
X134901640Y-106086747D01*
X134901640Y-106086747D02*
X135473069Y-106658175D01*
X135473069Y-106658175D02*
X135473069Y-106039128D01*
D19*
X116574285Y-86542975D02*
X116574285Y-87257260D01*
X116574285Y-87257260D02*
X116526666Y-87400117D01*
X116526666Y-87400117D02*
X116431428Y-87495356D01*
X116431428Y-87495356D02*
X116288571Y-87542975D01*
X116288571Y-87542975D02*
X116193333Y-87542975D01*
X117002857Y-86638213D02*
X117050476Y-86590594D01*
X117050476Y-86590594D02*
X117145714Y-86542975D01*
X117145714Y-86542975D02*
X117383809Y-86542975D01*
X117383809Y-86542975D02*
X117479047Y-86590594D01*
X117479047Y-86590594D02*
X117526666Y-86638213D01*
X117526666Y-86638213D02*
X117574285Y-86733451D01*
X117574285Y-86733451D02*
X117574285Y-86828689D01*
X117574285Y-86828689D02*
X117526666Y-86971546D01*
X117526666Y-86971546D02*
X116955238Y-87542975D01*
X116955238Y-87542975D02*
X117574285Y-87542975D01*
X118193333Y-86542975D02*
X118288571Y-86542975D01*
X118288571Y-86542975D02*
X118383809Y-86590594D01*
X118383809Y-86590594D02*
X118431428Y-86638213D01*
X118431428Y-86638213D02*
X118479047Y-86733451D01*
X118479047Y-86733451D02*
X118526666Y-86923927D01*
X118526666Y-86923927D02*
X118526666Y-87162022D01*
X118526666Y-87162022D02*
X118479047Y-87352498D01*
X118479047Y-87352498D02*
X118431428Y-87447736D01*
X118431428Y-87447736D02*
X118383809Y-87495356D01*
X118383809Y-87495356D02*
X118288571Y-87542975D01*
X118288571Y-87542975D02*
X118193333Y-87542975D01*
X118193333Y-87542975D02*
X118098095Y-87495356D01*
X118098095Y-87495356D02*
X118050476Y-87447736D01*
X118050476Y-87447736D02*
X118002857Y-87352498D01*
X118002857Y-87352498D02*
X117955238Y-87162022D01*
X117955238Y-87162022D02*
X117955238Y-86923927D01*
X117955238Y-86923927D02*
X118002857Y-86733451D01*
X118002857Y-86733451D02*
X118050476Y-86638213D01*
X118050476Y-86638213D02*
X118098095Y-86590594D01*
X118098095Y-86590594D02*
X118193333Y-86542975D01*
X118860000Y-86542975D02*
X119526666Y-86542975D01*
X119526666Y-86542975D02*
X119098095Y-87542975D01*
D17*
X135273069Y-123336271D02*
X134796878Y-123669604D01*
X135273069Y-123907699D02*
X134273069Y-123907699D01*
X134273069Y-123907699D02*
X134273069Y-123526747D01*
X134273069Y-123526747D02*
X134320688Y-123431509D01*
X134320688Y-123431509D02*
X134368307Y-123383890D01*
X134368307Y-123383890D02*
X134463545Y-123336271D01*
X134463545Y-123336271D02*
X134606402Y-123336271D01*
X134606402Y-123336271D02*
X134701640Y-123383890D01*
X134701640Y-123383890D02*
X134749259Y-123431509D01*
X134749259Y-123431509D02*
X134796878Y-123526747D01*
X134796878Y-123526747D02*
X134796878Y-123907699D01*
X134368307Y-122955318D02*
X134320688Y-122907699D01*
X134320688Y-122907699D02*
X134273069Y-122812461D01*
X134273069Y-122812461D02*
X134273069Y-122574366D01*
X134273069Y-122574366D02*
X134320688Y-122479128D01*
X134320688Y-122479128D02*
X134368307Y-122431509D01*
X134368307Y-122431509D02*
X134463545Y-122383890D01*
X134463545Y-122383890D02*
X134558783Y-122383890D01*
X134558783Y-122383890D02*
X134701640Y-122431509D01*
X134701640Y-122431509D02*
X135273069Y-123002937D01*
X135273069Y-123002937D02*
X135273069Y-122383890D01*
X134273069Y-121764842D02*
X134273069Y-121669604D01*
X134273069Y-121669604D02*
X134320688Y-121574366D01*
X134320688Y-121574366D02*
X134368307Y-121526747D01*
X134368307Y-121526747D02*
X134463545Y-121479128D01*
X134463545Y-121479128D02*
X134654021Y-121431509D01*
X134654021Y-121431509D02*
X134892116Y-121431509D01*
X134892116Y-121431509D02*
X135082592Y-121479128D01*
X135082592Y-121479128D02*
X135177830Y-121526747D01*
X135177830Y-121526747D02*
X135225450Y-121574366D01*
X135225450Y-121574366D02*
X135273069Y-121669604D01*
X135273069Y-121669604D02*
X135273069Y-121764842D01*
X135273069Y-121764842D02*
X135225450Y-121860080D01*
X135225450Y-121860080D02*
X135177830Y-121907699D01*
X135177830Y-121907699D02*
X135082592Y-121955318D01*
X135082592Y-121955318D02*
X134892116Y-122002937D01*
X134892116Y-122002937D02*
X134654021Y-122002937D01*
X134654021Y-122002937D02*
X134463545Y-121955318D01*
X134463545Y-121955318D02*
X134368307Y-121907699D01*
X134368307Y-121907699D02*
X134320688Y-121860080D01*
X134320688Y-121860080D02*
X134273069Y-121764842D01*
X135273069Y-120479128D02*
X135273069Y-121050556D01*
X135273069Y-120764842D02*
X134273069Y-120764842D01*
X134273069Y-120764842D02*
X134415926Y-120860080D01*
X134415926Y-120860080D02*
X134511164Y-120955318D01*
X134511164Y-120955318D02*
X134558783Y-121050556D01*
D18*
X139262568Y-91050080D02*
X140169711Y-91050080D01*
X140169711Y-91050080D02*
X140351139Y-91110557D01*
X140351139Y-91110557D02*
X140472092Y-91231509D01*
X140472092Y-91231509D02*
X140532568Y-91412938D01*
X140532568Y-91412938D02*
X140532568Y-91533890D01*
X139383520Y-90505795D02*
X139323044Y-90445319D01*
X139323044Y-90445319D02*
X139262568Y-90324366D01*
X139262568Y-90324366D02*
X139262568Y-90021985D01*
X139262568Y-90021985D02*
X139323044Y-89901033D01*
X139323044Y-89901033D02*
X139383520Y-89840557D01*
X139383520Y-89840557D02*
X139504472Y-89780080D01*
X139504472Y-89780080D02*
X139625425Y-89780080D01*
X139625425Y-89780080D02*
X139806853Y-89840557D01*
X139806853Y-89840557D02*
X140532568Y-90566271D01*
X140532568Y-90566271D02*
X140532568Y-89780080D01*
X139383520Y-89296271D02*
X139323044Y-89235795D01*
X139323044Y-89235795D02*
X139262568Y-89114842D01*
X139262568Y-89114842D02*
X139262568Y-88812461D01*
X139262568Y-88812461D02*
X139323044Y-88691509D01*
X139323044Y-88691509D02*
X139383520Y-88631033D01*
X139383520Y-88631033D02*
X139504472Y-88570556D01*
X139504472Y-88570556D02*
X139625425Y-88570556D01*
X139625425Y-88570556D02*
X139806853Y-88631033D01*
X139806853Y-88631033D02*
X140532568Y-89356747D01*
X140532568Y-89356747D02*
X140532568Y-88570556D01*
X139262568Y-87421509D02*
X139262568Y-88026271D01*
X139262568Y-88026271D02*
X139867330Y-88086747D01*
X139867330Y-88086747D02*
X139806853Y-88026271D01*
X139806853Y-88026271D02*
X139746377Y-87905318D01*
X139746377Y-87905318D02*
X139746377Y-87602937D01*
X139746377Y-87602937D02*
X139806853Y-87481985D01*
X139806853Y-87481985D02*
X139867330Y-87421509D01*
X139867330Y-87421509D02*
X139988282Y-87361032D01*
X139988282Y-87361032D02*
X140290663Y-87361032D01*
X140290663Y-87361032D02*
X140411615Y-87421509D01*
X140411615Y-87421509D02*
X140472092Y-87481985D01*
X140472092Y-87481985D02*
X140532568Y-87602937D01*
X140532568Y-87602937D02*
X140532568Y-87905318D01*
X140532568Y-87905318D02*
X140472092Y-88026271D01*
X140472092Y-88026271D02*
X140411615Y-88086747D01*
X154542568Y-127797856D02*
X155449711Y-127797856D01*
X155449711Y-127797856D02*
X155631139Y-127858333D01*
X155631139Y-127858333D02*
X155752092Y-127979285D01*
X155752092Y-127979285D02*
X155812568Y-128160714D01*
X155812568Y-128160714D02*
X155812568Y-128281666D01*
X154542568Y-127314047D02*
X154542568Y-126527856D01*
X154542568Y-126527856D02*
X155026377Y-126951190D01*
X155026377Y-126951190D02*
X155026377Y-126769761D01*
X155026377Y-126769761D02*
X155086853Y-126648809D01*
X155086853Y-126648809D02*
X155147330Y-126588333D01*
X155147330Y-126588333D02*
X155268282Y-126527856D01*
X155268282Y-126527856D02*
X155570663Y-126527856D01*
X155570663Y-126527856D02*
X155691615Y-126588333D01*
X155691615Y-126588333D02*
X155752092Y-126648809D01*
X155752092Y-126648809D02*
X155812568Y-126769761D01*
X155812568Y-126769761D02*
X155812568Y-127132618D01*
X155812568Y-127132618D02*
X155752092Y-127253571D01*
X155752092Y-127253571D02*
X155691615Y-127314047D01*
X155812568Y-125318332D02*
X155812568Y-126044047D01*
X155812568Y-125681190D02*
X154542568Y-125681190D01*
X154542568Y-125681190D02*
X154723996Y-125802142D01*
X154723996Y-125802142D02*
X154844949Y-125923094D01*
X154844949Y-125923094D02*
X154905425Y-126044047D01*
X155812568Y-124713570D02*
X155812568Y-124471666D01*
X155812568Y-124471666D02*
X155752092Y-124350713D01*
X155752092Y-124350713D02*
X155691615Y-124290237D01*
X155691615Y-124290237D02*
X155510187Y-124169285D01*
X155510187Y-124169285D02*
X155268282Y-124108808D01*
X155268282Y-124108808D02*
X154784472Y-124108808D01*
X154784472Y-124108808D02*
X154663520Y-124169285D01*
X154663520Y-124169285D02*
X154603044Y-124229761D01*
X154603044Y-124229761D02*
X154542568Y-124350713D01*
X154542568Y-124350713D02*
X154542568Y-124592618D01*
X154542568Y-124592618D02*
X154603044Y-124713570D01*
X154603044Y-124713570D02*
X154663520Y-124774047D01*
X154663520Y-124774047D02*
X154784472Y-124834523D01*
X154784472Y-124834523D02*
X155086853Y-124834523D01*
X155086853Y-124834523D02*
X155207806Y-124774047D01*
X155207806Y-124774047D02*
X155268282Y-124713570D01*
X155268282Y-124713570D02*
X155328758Y-124592618D01*
X155328758Y-124592618D02*
X155328758Y-124350713D01*
X155328758Y-124350713D02*
X155268282Y-124229761D01*
X155268282Y-124229761D02*
X155207806Y-124169285D01*
X155207806Y-124169285D02*
X155086853Y-124108808D01*
X134432568Y-83040080D02*
X135339711Y-83040080D01*
X135339711Y-83040080D02*
X135521139Y-83100557D01*
X135521139Y-83100557D02*
X135642092Y-83221509D01*
X135642092Y-83221509D02*
X135702568Y-83402938D01*
X135702568Y-83402938D02*
X135702568Y-83523890D01*
X134553520Y-82495795D02*
X134493044Y-82435319D01*
X134493044Y-82435319D02*
X134432568Y-82314366D01*
X134432568Y-82314366D02*
X134432568Y-82011985D01*
X134432568Y-82011985D02*
X134493044Y-81891033D01*
X134493044Y-81891033D02*
X134553520Y-81830557D01*
X134553520Y-81830557D02*
X134674472Y-81770080D01*
X134674472Y-81770080D02*
X134795425Y-81770080D01*
X134795425Y-81770080D02*
X134976853Y-81830557D01*
X134976853Y-81830557D02*
X135702568Y-82556271D01*
X135702568Y-82556271D02*
X135702568Y-81770080D01*
X134553520Y-81286271D02*
X134493044Y-81225795D01*
X134493044Y-81225795D02*
X134432568Y-81104842D01*
X134432568Y-81104842D02*
X134432568Y-80802461D01*
X134432568Y-80802461D02*
X134493044Y-80681509D01*
X134493044Y-80681509D02*
X134553520Y-80621033D01*
X134553520Y-80621033D02*
X134674472Y-80560556D01*
X134674472Y-80560556D02*
X134795425Y-80560556D01*
X134795425Y-80560556D02*
X134976853Y-80621033D01*
X134976853Y-80621033D02*
X135702568Y-81346747D01*
X135702568Y-81346747D02*
X135702568Y-80560556D01*
X134432568Y-80137223D02*
X134432568Y-79351032D01*
X134432568Y-79351032D02*
X134916377Y-79774366D01*
X134916377Y-79774366D02*
X134916377Y-79592937D01*
X134916377Y-79592937D02*
X134976853Y-79471985D01*
X134976853Y-79471985D02*
X135037330Y-79411509D01*
X135037330Y-79411509D02*
X135158282Y-79351032D01*
X135158282Y-79351032D02*
X135460663Y-79351032D01*
X135460663Y-79351032D02*
X135581615Y-79411509D01*
X135581615Y-79411509D02*
X135642092Y-79471985D01*
X135642092Y-79471985D02*
X135702568Y-79592937D01*
X135702568Y-79592937D02*
X135702568Y-79955794D01*
X135702568Y-79955794D02*
X135642092Y-80076747D01*
X135642092Y-80076747D02*
X135581615Y-80137223D01*
D19*
X116544285Y-76387419D02*
X116544285Y-77101704D01*
X116544285Y-77101704D02*
X116496666Y-77244561D01*
X116496666Y-77244561D02*
X116401428Y-77339800D01*
X116401428Y-77339800D02*
X116258571Y-77387419D01*
X116258571Y-77387419D02*
X116163333Y-77387419D01*
X116972857Y-76482657D02*
X117020476Y-76435038D01*
X117020476Y-76435038D02*
X117115714Y-76387419D01*
X117115714Y-76387419D02*
X117353809Y-76387419D01*
X117353809Y-76387419D02*
X117449047Y-76435038D01*
X117449047Y-76435038D02*
X117496666Y-76482657D01*
X117496666Y-76482657D02*
X117544285Y-76577895D01*
X117544285Y-76577895D02*
X117544285Y-76673133D01*
X117544285Y-76673133D02*
X117496666Y-76815990D01*
X117496666Y-76815990D02*
X116925238Y-77387419D01*
X116925238Y-77387419D02*
X117544285Y-77387419D01*
X118163333Y-76387419D02*
X118258571Y-76387419D01*
X118258571Y-76387419D02*
X118353809Y-76435038D01*
X118353809Y-76435038D02*
X118401428Y-76482657D01*
X118401428Y-76482657D02*
X118449047Y-76577895D01*
X118449047Y-76577895D02*
X118496666Y-76768371D01*
X118496666Y-76768371D02*
X118496666Y-77006466D01*
X118496666Y-77006466D02*
X118449047Y-77196942D01*
X118449047Y-77196942D02*
X118401428Y-77292180D01*
X118401428Y-77292180D02*
X118353809Y-77339800D01*
X118353809Y-77339800D02*
X118258571Y-77387419D01*
X118258571Y-77387419D02*
X118163333Y-77387419D01*
X118163333Y-77387419D02*
X118068095Y-77339800D01*
X118068095Y-77339800D02*
X118020476Y-77292180D01*
X118020476Y-77292180D02*
X117972857Y-77196942D01*
X117972857Y-77196942D02*
X117925238Y-77006466D01*
X117925238Y-77006466D02*
X117925238Y-76768371D01*
X117925238Y-76768371D02*
X117972857Y-76577895D01*
X117972857Y-76577895D02*
X118020476Y-76482657D01*
X118020476Y-76482657D02*
X118068095Y-76435038D01*
X118068095Y-76435038D02*
X118163333Y-76387419D01*
X118972857Y-77387419D02*
X119163333Y-77387419D01*
X119163333Y-77387419D02*
X119258571Y-77339800D01*
X119258571Y-77339800D02*
X119306190Y-77292180D01*
X119306190Y-77292180D02*
X119401428Y-77149323D01*
X119401428Y-77149323D02*
X119449047Y-76958847D01*
X119449047Y-76958847D02*
X119449047Y-76577895D01*
X119449047Y-76577895D02*
X119401428Y-76482657D01*
X119401428Y-76482657D02*
X119353809Y-76435038D01*
X119353809Y-76435038D02*
X119258571Y-76387419D01*
X119258571Y-76387419D02*
X119068095Y-76387419D01*
X119068095Y-76387419D02*
X118972857Y-76435038D01*
X118972857Y-76435038D02*
X118925238Y-76482657D01*
X118925238Y-76482657D02*
X118877619Y-76577895D01*
X118877619Y-76577895D02*
X118877619Y-76815990D01*
X118877619Y-76815990D02*
X118925238Y-76911228D01*
X118925238Y-76911228D02*
X118972857Y-76958847D01*
X118972857Y-76958847D02*
X119068095Y-77006466D01*
X119068095Y-77006466D02*
X119258571Y-77006466D01*
X119258571Y-77006466D02*
X119353809Y-76958847D01*
X119353809Y-76958847D02*
X119401428Y-76911228D01*
X119401428Y-76911228D02*
X119449047Y-76815990D01*
D18*
X139262568Y-121990080D02*
X140169711Y-121990080D01*
X140169711Y-121990080D02*
X140351139Y-122050557D01*
X140351139Y-122050557D02*
X140472092Y-122171509D01*
X140472092Y-122171509D02*
X140532568Y-122352938D01*
X140532568Y-122352938D02*
X140532568Y-122473890D01*
X139383520Y-121445795D02*
X139323044Y-121385319D01*
X139323044Y-121385319D02*
X139262568Y-121264366D01*
X139262568Y-121264366D02*
X139262568Y-120961985D01*
X139262568Y-120961985D02*
X139323044Y-120841033D01*
X139323044Y-120841033D02*
X139383520Y-120780557D01*
X139383520Y-120780557D02*
X139504472Y-120720080D01*
X139504472Y-120720080D02*
X139625425Y-120720080D01*
X139625425Y-120720080D02*
X139806853Y-120780557D01*
X139806853Y-120780557D02*
X140532568Y-121506271D01*
X140532568Y-121506271D02*
X140532568Y-120720080D01*
X139383520Y-120236271D02*
X139323044Y-120175795D01*
X139323044Y-120175795D02*
X139262568Y-120054842D01*
X139262568Y-120054842D02*
X139262568Y-119752461D01*
X139262568Y-119752461D02*
X139323044Y-119631509D01*
X139323044Y-119631509D02*
X139383520Y-119571033D01*
X139383520Y-119571033D02*
X139504472Y-119510556D01*
X139504472Y-119510556D02*
X139625425Y-119510556D01*
X139625425Y-119510556D02*
X139806853Y-119571033D01*
X139806853Y-119571033D02*
X140532568Y-120296747D01*
X140532568Y-120296747D02*
X140532568Y-119510556D01*
X139685901Y-118421985D02*
X140532568Y-118421985D01*
X139202092Y-118724366D02*
X140109234Y-119026747D01*
X140109234Y-119026747D02*
X140109234Y-118240556D01*
X139362568Y-112030080D02*
X140269711Y-112030080D01*
X140269711Y-112030080D02*
X140451139Y-112090557D01*
X140451139Y-112090557D02*
X140572092Y-112211509D01*
X140572092Y-112211509D02*
X140632568Y-112392938D01*
X140632568Y-112392938D02*
X140632568Y-112513890D01*
X139483520Y-111485795D02*
X139423044Y-111425319D01*
X139423044Y-111425319D02*
X139362568Y-111304366D01*
X139362568Y-111304366D02*
X139362568Y-111001985D01*
X139362568Y-111001985D02*
X139423044Y-110881033D01*
X139423044Y-110881033D02*
X139483520Y-110820557D01*
X139483520Y-110820557D02*
X139604472Y-110760080D01*
X139604472Y-110760080D02*
X139725425Y-110760080D01*
X139725425Y-110760080D02*
X139906853Y-110820557D01*
X139906853Y-110820557D02*
X140632568Y-111546271D01*
X140632568Y-111546271D02*
X140632568Y-110760080D01*
X139483520Y-110276271D02*
X139423044Y-110215795D01*
X139423044Y-110215795D02*
X139362568Y-110094842D01*
X139362568Y-110094842D02*
X139362568Y-109792461D01*
X139362568Y-109792461D02*
X139423044Y-109671509D01*
X139423044Y-109671509D02*
X139483520Y-109611033D01*
X139483520Y-109611033D02*
X139604472Y-109550556D01*
X139604472Y-109550556D02*
X139725425Y-109550556D01*
X139725425Y-109550556D02*
X139906853Y-109611033D01*
X139906853Y-109611033D02*
X140632568Y-110336747D01*
X140632568Y-110336747D02*
X140632568Y-109550556D01*
X140632568Y-108341032D02*
X140632568Y-109066747D01*
X140632568Y-108703890D02*
X139362568Y-108703890D01*
X139362568Y-108703890D02*
X139543996Y-108824842D01*
X139543996Y-108824842D02*
X139664949Y-108945794D01*
X139664949Y-108945794D02*
X139725425Y-109066747D01*
D17*
X136012535Y-128382043D02*
X136012535Y-129096328D01*
X136012535Y-129096328D02*
X135964916Y-129239185D01*
X135964916Y-129239185D02*
X135869678Y-129334424D01*
X135869678Y-129334424D02*
X135726821Y-129382043D01*
X135726821Y-129382043D02*
X135631583Y-129382043D01*
X136441107Y-128477281D02*
X136488726Y-128429662D01*
X136488726Y-128429662D02*
X136583964Y-128382043D01*
X136583964Y-128382043D02*
X136822059Y-128382043D01*
X136822059Y-128382043D02*
X136917297Y-128429662D01*
X136917297Y-128429662D02*
X136964916Y-128477281D01*
X136964916Y-128477281D02*
X137012535Y-128572519D01*
X137012535Y-128572519D02*
X137012535Y-128667757D01*
X137012535Y-128667757D02*
X136964916Y-128810614D01*
X136964916Y-128810614D02*
X136393488Y-129382043D01*
X136393488Y-129382043D02*
X137012535Y-129382043D01*
X137393488Y-128477281D02*
X137441107Y-128429662D01*
X137441107Y-128429662D02*
X137536345Y-128382043D01*
X137536345Y-128382043D02*
X137774440Y-128382043D01*
X137774440Y-128382043D02*
X137869678Y-128429662D01*
X137869678Y-128429662D02*
X137917297Y-128477281D01*
X137917297Y-128477281D02*
X137964916Y-128572519D01*
X137964916Y-128572519D02*
X137964916Y-128667757D01*
X137964916Y-128667757D02*
X137917297Y-128810614D01*
X137917297Y-128810614D02*
X137345869Y-129382043D01*
X137345869Y-129382043D02*
X137964916Y-129382043D01*
X138822059Y-128382043D02*
X138631583Y-128382043D01*
X138631583Y-128382043D02*
X138536345Y-128429662D01*
X138536345Y-128429662D02*
X138488726Y-128477281D01*
X138488726Y-128477281D02*
X138393488Y-128620138D01*
X138393488Y-128620138D02*
X138345869Y-128810614D01*
X138345869Y-128810614D02*
X138345869Y-129191566D01*
X138345869Y-129191566D02*
X138393488Y-129286804D01*
X138393488Y-129286804D02*
X138441107Y-129334424D01*
X138441107Y-129334424D02*
X138536345Y-129382043D01*
X138536345Y-129382043D02*
X138726821Y-129382043D01*
X138726821Y-129382043D02*
X138822059Y-129334424D01*
X138822059Y-129334424D02*
X138869678Y-129286804D01*
X138869678Y-129286804D02*
X138917297Y-129191566D01*
X138917297Y-129191566D02*
X138917297Y-128953471D01*
X138917297Y-128953471D02*
X138869678Y-128858233D01*
X138869678Y-128858233D02*
X138822059Y-128810614D01*
X138822059Y-128810614D02*
X138726821Y-128762995D01*
X138726821Y-128762995D02*
X138536345Y-128762995D01*
X138536345Y-128762995D02*
X138441107Y-128810614D01*
X138441107Y-128810614D02*
X138393488Y-128858233D01*
X138393488Y-128858233D02*
X138345869Y-128953471D01*
D19*
X116564285Y-81485197D02*
X116564285Y-82199482D01*
X116564285Y-82199482D02*
X116516666Y-82342339D01*
X116516666Y-82342339D02*
X116421428Y-82437578D01*
X116421428Y-82437578D02*
X116278571Y-82485197D01*
X116278571Y-82485197D02*
X116183333Y-82485197D01*
X116992857Y-81580435D02*
X117040476Y-81532816D01*
X117040476Y-81532816D02*
X117135714Y-81485197D01*
X117135714Y-81485197D02*
X117373809Y-81485197D01*
X117373809Y-81485197D02*
X117469047Y-81532816D01*
X117469047Y-81532816D02*
X117516666Y-81580435D01*
X117516666Y-81580435D02*
X117564285Y-81675673D01*
X117564285Y-81675673D02*
X117564285Y-81770911D01*
X117564285Y-81770911D02*
X117516666Y-81913768D01*
X117516666Y-81913768D02*
X116945238Y-82485197D01*
X116945238Y-82485197D02*
X117564285Y-82485197D01*
X118183333Y-81485197D02*
X118278571Y-81485197D01*
X118278571Y-81485197D02*
X118373809Y-81532816D01*
X118373809Y-81532816D02*
X118421428Y-81580435D01*
X118421428Y-81580435D02*
X118469047Y-81675673D01*
X118469047Y-81675673D02*
X118516666Y-81866149D01*
X118516666Y-81866149D02*
X118516666Y-82104244D01*
X118516666Y-82104244D02*
X118469047Y-82294720D01*
X118469047Y-82294720D02*
X118421428Y-82389958D01*
X118421428Y-82389958D02*
X118373809Y-82437578D01*
X118373809Y-82437578D02*
X118278571Y-82485197D01*
X118278571Y-82485197D02*
X118183333Y-82485197D01*
X118183333Y-82485197D02*
X118088095Y-82437578D01*
X118088095Y-82437578D02*
X118040476Y-82389958D01*
X118040476Y-82389958D02*
X117992857Y-82294720D01*
X117992857Y-82294720D02*
X117945238Y-82104244D01*
X117945238Y-82104244D02*
X117945238Y-81866149D01*
X117945238Y-81866149D02*
X117992857Y-81675673D01*
X117992857Y-81675673D02*
X118040476Y-81580435D01*
X118040476Y-81580435D02*
X118088095Y-81532816D01*
X118088095Y-81532816D02*
X118183333Y-81485197D01*
X119088095Y-81913768D02*
X118992857Y-81866149D01*
X118992857Y-81866149D02*
X118945238Y-81818530D01*
X118945238Y-81818530D02*
X118897619Y-81723292D01*
X118897619Y-81723292D02*
X118897619Y-81675673D01*
X118897619Y-81675673D02*
X118945238Y-81580435D01*
X118945238Y-81580435D02*
X118992857Y-81532816D01*
X118992857Y-81532816D02*
X119088095Y-81485197D01*
X119088095Y-81485197D02*
X119278571Y-81485197D01*
X119278571Y-81485197D02*
X119373809Y-81532816D01*
X119373809Y-81532816D02*
X119421428Y-81580435D01*
X119421428Y-81580435D02*
X119469047Y-81675673D01*
X119469047Y-81675673D02*
X119469047Y-81723292D01*
X119469047Y-81723292D02*
X119421428Y-81818530D01*
X119421428Y-81818530D02*
X119373809Y-81866149D01*
X119373809Y-81866149D02*
X119278571Y-81913768D01*
X119278571Y-81913768D02*
X119088095Y-81913768D01*
X119088095Y-81913768D02*
X118992857Y-81961387D01*
X118992857Y-81961387D02*
X118945238Y-82009006D01*
X118945238Y-82009006D02*
X118897619Y-82104244D01*
X118897619Y-82104244D02*
X118897619Y-82294720D01*
X118897619Y-82294720D02*
X118945238Y-82389958D01*
X118945238Y-82389958D02*
X118992857Y-82437578D01*
X118992857Y-82437578D02*
X119088095Y-82485197D01*
X119088095Y-82485197D02*
X119278571Y-82485197D01*
X119278571Y-82485197D02*
X119373809Y-82437578D01*
X119373809Y-82437578D02*
X119421428Y-82389958D01*
X119421428Y-82389958D02*
X119469047Y-82294720D01*
X119469047Y-82294720D02*
X119469047Y-82104244D01*
X119469047Y-82104244D02*
X119421428Y-82009006D01*
X119421428Y-82009006D02*
X119373809Y-81961387D01*
X119373809Y-81961387D02*
X119278571Y-81913768D01*
X116574285Y-106864087D02*
X116574285Y-107578372D01*
X116574285Y-107578372D02*
X116526666Y-107721229D01*
X116526666Y-107721229D02*
X116431428Y-107816468D01*
X116431428Y-107816468D02*
X116288571Y-107864087D01*
X116288571Y-107864087D02*
X116193333Y-107864087D01*
X117002857Y-106959325D02*
X117050476Y-106911706D01*
X117050476Y-106911706D02*
X117145714Y-106864087D01*
X117145714Y-106864087D02*
X117383809Y-106864087D01*
X117383809Y-106864087D02*
X117479047Y-106911706D01*
X117479047Y-106911706D02*
X117526666Y-106959325D01*
X117526666Y-106959325D02*
X117574285Y-107054563D01*
X117574285Y-107054563D02*
X117574285Y-107149801D01*
X117574285Y-107149801D02*
X117526666Y-107292658D01*
X117526666Y-107292658D02*
X116955238Y-107864087D01*
X116955238Y-107864087D02*
X117574285Y-107864087D01*
X118193333Y-106864087D02*
X118288571Y-106864087D01*
X118288571Y-106864087D02*
X118383809Y-106911706D01*
X118383809Y-106911706D02*
X118431428Y-106959325D01*
X118431428Y-106959325D02*
X118479047Y-107054563D01*
X118479047Y-107054563D02*
X118526666Y-107245039D01*
X118526666Y-107245039D02*
X118526666Y-107483134D01*
X118526666Y-107483134D02*
X118479047Y-107673610D01*
X118479047Y-107673610D02*
X118431428Y-107768848D01*
X118431428Y-107768848D02*
X118383809Y-107816468D01*
X118383809Y-107816468D02*
X118288571Y-107864087D01*
X118288571Y-107864087D02*
X118193333Y-107864087D01*
X118193333Y-107864087D02*
X118098095Y-107816468D01*
X118098095Y-107816468D02*
X118050476Y-107768848D01*
X118050476Y-107768848D02*
X118002857Y-107673610D01*
X118002857Y-107673610D02*
X117955238Y-107483134D01*
X117955238Y-107483134D02*
X117955238Y-107245039D01*
X117955238Y-107245039D02*
X118002857Y-107054563D01*
X118002857Y-107054563D02*
X118050476Y-106959325D01*
X118050476Y-106959325D02*
X118098095Y-106911706D01*
X118098095Y-106911706D02*
X118193333Y-106864087D01*
X118860000Y-106864087D02*
X119479047Y-106864087D01*
X119479047Y-106864087D02*
X119145714Y-107245039D01*
X119145714Y-107245039D02*
X119288571Y-107245039D01*
X119288571Y-107245039D02*
X119383809Y-107292658D01*
X119383809Y-107292658D02*
X119431428Y-107340277D01*
X119431428Y-107340277D02*
X119479047Y-107435515D01*
X119479047Y-107435515D02*
X119479047Y-107673610D01*
X119479047Y-107673610D02*
X119431428Y-107768848D01*
X119431428Y-107768848D02*
X119383809Y-107816468D01*
X119383809Y-107816468D02*
X119288571Y-107864087D01*
X119288571Y-107864087D02*
X119002857Y-107864087D01*
X119002857Y-107864087D02*
X118907619Y-107816468D01*
X118907619Y-107816468D02*
X118860000Y-107768848D01*
D17*
X135543069Y-77656271D02*
X135066878Y-77989604D01*
X135543069Y-78227699D02*
X134543069Y-78227699D01*
X134543069Y-78227699D02*
X134543069Y-77846747D01*
X134543069Y-77846747D02*
X134590688Y-77751509D01*
X134590688Y-77751509D02*
X134638307Y-77703890D01*
X134638307Y-77703890D02*
X134733545Y-77656271D01*
X134733545Y-77656271D02*
X134876402Y-77656271D01*
X134876402Y-77656271D02*
X134971640Y-77703890D01*
X134971640Y-77703890D02*
X135019259Y-77751509D01*
X135019259Y-77751509D02*
X135066878Y-77846747D01*
X135066878Y-77846747D02*
X135066878Y-78227699D01*
X134638307Y-77275318D02*
X134590688Y-77227699D01*
X134590688Y-77227699D02*
X134543069Y-77132461D01*
X134543069Y-77132461D02*
X134543069Y-76894366D01*
X134543069Y-76894366D02*
X134590688Y-76799128D01*
X134590688Y-76799128D02*
X134638307Y-76751509D01*
X134638307Y-76751509D02*
X134733545Y-76703890D01*
X134733545Y-76703890D02*
X134828783Y-76703890D01*
X134828783Y-76703890D02*
X134971640Y-76751509D01*
X134971640Y-76751509D02*
X135543069Y-77322937D01*
X135543069Y-77322937D02*
X135543069Y-76703890D01*
X134543069Y-76084842D02*
X134543069Y-75989604D01*
X134543069Y-75989604D02*
X134590688Y-75894366D01*
X134590688Y-75894366D02*
X134638307Y-75846747D01*
X134638307Y-75846747D02*
X134733545Y-75799128D01*
X134733545Y-75799128D02*
X134924021Y-75751509D01*
X134924021Y-75751509D02*
X135162116Y-75751509D01*
X135162116Y-75751509D02*
X135352592Y-75799128D01*
X135352592Y-75799128D02*
X135447830Y-75846747D01*
X135447830Y-75846747D02*
X135495450Y-75894366D01*
X135495450Y-75894366D02*
X135543069Y-75989604D01*
X135543069Y-75989604D02*
X135543069Y-76084842D01*
X135543069Y-76084842D02*
X135495450Y-76180080D01*
X135495450Y-76180080D02*
X135447830Y-76227699D01*
X135447830Y-76227699D02*
X135352592Y-76275318D01*
X135352592Y-76275318D02*
X135162116Y-76322937D01*
X135162116Y-76322937D02*
X134924021Y-76322937D01*
X134924021Y-76322937D02*
X134733545Y-76275318D01*
X134733545Y-76275318D02*
X134638307Y-76227699D01*
X134638307Y-76227699D02*
X134590688Y-76180080D01*
X134590688Y-76180080D02*
X134543069Y-76084842D01*
X134876402Y-74894366D02*
X135543069Y-74894366D01*
X134495450Y-75132461D02*
X135209735Y-75370556D01*
X135209735Y-75370556D02*
X135209735Y-74751509D01*
D19*
X116494285Y-96738531D02*
X116494285Y-97452816D01*
X116494285Y-97452816D02*
X116446666Y-97595673D01*
X116446666Y-97595673D02*
X116351428Y-97690912D01*
X116351428Y-97690912D02*
X116208571Y-97738531D01*
X116208571Y-97738531D02*
X116113333Y-97738531D01*
X116922857Y-96833769D02*
X116970476Y-96786150D01*
X116970476Y-96786150D02*
X117065714Y-96738531D01*
X117065714Y-96738531D02*
X117303809Y-96738531D01*
X117303809Y-96738531D02*
X117399047Y-96786150D01*
X117399047Y-96786150D02*
X117446666Y-96833769D01*
X117446666Y-96833769D02*
X117494285Y-96929007D01*
X117494285Y-96929007D02*
X117494285Y-97024245D01*
X117494285Y-97024245D02*
X117446666Y-97167102D01*
X117446666Y-97167102D02*
X116875238Y-97738531D01*
X116875238Y-97738531D02*
X117494285Y-97738531D01*
X118113333Y-96738531D02*
X118208571Y-96738531D01*
X118208571Y-96738531D02*
X118303809Y-96786150D01*
X118303809Y-96786150D02*
X118351428Y-96833769D01*
X118351428Y-96833769D02*
X118399047Y-96929007D01*
X118399047Y-96929007D02*
X118446666Y-97119483D01*
X118446666Y-97119483D02*
X118446666Y-97357578D01*
X118446666Y-97357578D02*
X118399047Y-97548054D01*
X118399047Y-97548054D02*
X118351428Y-97643292D01*
X118351428Y-97643292D02*
X118303809Y-97690912D01*
X118303809Y-97690912D02*
X118208571Y-97738531D01*
X118208571Y-97738531D02*
X118113333Y-97738531D01*
X118113333Y-97738531D02*
X118018095Y-97690912D01*
X118018095Y-97690912D02*
X117970476Y-97643292D01*
X117970476Y-97643292D02*
X117922857Y-97548054D01*
X117922857Y-97548054D02*
X117875238Y-97357578D01*
X117875238Y-97357578D02*
X117875238Y-97119483D01*
X117875238Y-97119483D02*
X117922857Y-96929007D01*
X117922857Y-96929007D02*
X117970476Y-96833769D01*
X117970476Y-96833769D02*
X118018095Y-96786150D01*
X118018095Y-96786150D02*
X118113333Y-96738531D01*
X119351428Y-96738531D02*
X118875238Y-96738531D01*
X118875238Y-96738531D02*
X118827619Y-97214721D01*
X118827619Y-97214721D02*
X118875238Y-97167102D01*
X118875238Y-97167102D02*
X118970476Y-97119483D01*
X118970476Y-97119483D02*
X119208571Y-97119483D01*
X119208571Y-97119483D02*
X119303809Y-97167102D01*
X119303809Y-97167102D02*
X119351428Y-97214721D01*
X119351428Y-97214721D02*
X119399047Y-97309959D01*
X119399047Y-97309959D02*
X119399047Y-97548054D01*
X119399047Y-97548054D02*
X119351428Y-97643292D01*
X119351428Y-97643292D02*
X119303809Y-97690912D01*
X119303809Y-97690912D02*
X119208571Y-97738531D01*
X119208571Y-97738531D02*
X118970476Y-97738531D01*
X118970476Y-97738531D02*
X118875238Y-97690912D01*
X118875238Y-97690912D02*
X118827619Y-97643292D01*
D18*
X154972568Y-111857856D02*
X155879711Y-111857856D01*
X155879711Y-111857856D02*
X156061139Y-111918333D01*
X156061139Y-111918333D02*
X156182092Y-112039285D01*
X156182092Y-112039285D02*
X156242568Y-112220714D01*
X156242568Y-112220714D02*
X156242568Y-112341666D01*
X154972568Y-111374047D02*
X154972568Y-110587856D01*
X154972568Y-110587856D02*
X155456377Y-111011190D01*
X155456377Y-111011190D02*
X155456377Y-110829761D01*
X155456377Y-110829761D02*
X155516853Y-110708809D01*
X155516853Y-110708809D02*
X155577330Y-110648333D01*
X155577330Y-110648333D02*
X155698282Y-110587856D01*
X155698282Y-110587856D02*
X156000663Y-110587856D01*
X156000663Y-110587856D02*
X156121615Y-110648333D01*
X156121615Y-110648333D02*
X156182092Y-110708809D01*
X156182092Y-110708809D02*
X156242568Y-110829761D01*
X156242568Y-110829761D02*
X156242568Y-111192618D01*
X156242568Y-111192618D02*
X156182092Y-111313571D01*
X156182092Y-111313571D02*
X156121615Y-111374047D01*
X155093520Y-110104047D02*
X155033044Y-110043571D01*
X155033044Y-110043571D02*
X154972568Y-109922618D01*
X154972568Y-109922618D02*
X154972568Y-109620237D01*
X154972568Y-109620237D02*
X155033044Y-109499285D01*
X155033044Y-109499285D02*
X155093520Y-109438809D01*
X155093520Y-109438809D02*
X155214472Y-109378332D01*
X155214472Y-109378332D02*
X155335425Y-109378332D01*
X155335425Y-109378332D02*
X155516853Y-109438809D01*
X155516853Y-109438809D02*
X156242568Y-110164523D01*
X156242568Y-110164523D02*
X156242568Y-109378332D01*
X154972568Y-108592142D02*
X154972568Y-108471189D01*
X154972568Y-108471189D02*
X155033044Y-108350237D01*
X155033044Y-108350237D02*
X155093520Y-108289761D01*
X155093520Y-108289761D02*
X155214472Y-108229285D01*
X155214472Y-108229285D02*
X155456377Y-108168808D01*
X155456377Y-108168808D02*
X155758758Y-108168808D01*
X155758758Y-108168808D02*
X156000663Y-108229285D01*
X156000663Y-108229285D02*
X156121615Y-108289761D01*
X156121615Y-108289761D02*
X156182092Y-108350237D01*
X156182092Y-108350237D02*
X156242568Y-108471189D01*
X156242568Y-108471189D02*
X156242568Y-108592142D01*
X156242568Y-108592142D02*
X156182092Y-108713094D01*
X156182092Y-108713094D02*
X156121615Y-108773570D01*
X156121615Y-108773570D02*
X156000663Y-108834047D01*
X156000663Y-108834047D02*
X155758758Y-108894523D01*
X155758758Y-108894523D02*
X155456377Y-108894523D01*
X155456377Y-108894523D02*
X155214472Y-108834047D01*
X155214472Y-108834047D02*
X155093520Y-108773570D01*
X155093520Y-108773570D02*
X155033044Y-108713094D01*
X155033044Y-108713094D02*
X154972568Y-108592142D01*
D20*
%TO.C,R203*%
X129778250Y-91312224D02*
X129778250Y-93922224D01*
X131148250Y-89942224D02*
G75*
G03*
X128408250Y-89942224I-1370000J0D01*
G01*
X128408250Y-89942224D02*
G75*
G03*
X131148250Y-89942224I1370000J0D01*
G01*
D19*
%TO.C,J318*%
X157543250Y-89500000D02*
X157543250Y-99660000D01*
X149393250Y-89500000D02*
X157543250Y-89500000D01*
X157543250Y-99660000D02*
X149393250Y-99660000D01*
X149393250Y-99660000D02*
X149393250Y-89500000D01*
D21*
X153518250Y-88690000D02*
G75*
G03*
X153418250Y-88690000I-50000J0D01*
G01*
X153418250Y-88690000D02*
G75*
G03*
X153518250Y-88690000I50000J0D01*
G01*
D20*
%TO.C,D305*%
X161948250Y-125265000D02*
X161948250Y-123590000D01*
X161948250Y-125265000D02*
X161948250Y-125915000D01*
X158828250Y-125265000D02*
X158828250Y-124615000D01*
X158828250Y-125265000D02*
X158828250Y-125915000D01*
D19*
%TO.C,J317*%
X157543250Y-68865000D02*
X157543250Y-84105000D01*
X149393250Y-68865000D02*
X157543250Y-68865000D01*
X157543250Y-84105000D02*
X149393250Y-84105000D01*
X149393250Y-84105000D02*
X149393250Y-68865000D01*
D21*
X153518250Y-68055000D02*
G75*
G03*
X153418250Y-68055000I-50000J0D01*
G01*
X153418250Y-68055000D02*
G75*
G03*
X153518250Y-68055000I50000J0D01*
G01*
D20*
%TO.C,D301*%
X149050750Y-85285000D02*
X149050750Y-87285000D01*
X149050750Y-85285000D02*
X152910750Y-85285000D01*
X149050750Y-87285000D02*
X152910750Y-87285000D01*
D19*
%TO.C,J222*%
X133583250Y-105022224D02*
X133583250Y-94862224D01*
X141733250Y-105022224D02*
X133583250Y-105022224D01*
X133583250Y-94862224D02*
X141733250Y-94862224D01*
X141733250Y-94862224D02*
X141733250Y-105022224D01*
D21*
X137708250Y-105832224D02*
G75*
G03*
X137608250Y-105832224I-50000J0D01*
G01*
X137608250Y-105832224D02*
G75*
G03*
X137708250Y-105832224I50000J0D01*
G01*
D20*
%TO.C,D302*%
X155098250Y-103025000D02*
X155098250Y-101025000D01*
X155098250Y-103025000D02*
X151238250Y-103025000D01*
X155098250Y-101025000D02*
X151238250Y-101025000D01*
%TO.C,R202*%
X129778250Y-106607224D02*
X129778250Y-109217224D01*
X131148250Y-105237224D02*
G75*
G03*
X128408250Y-105237224I-1370000J0D01*
G01*
X128408250Y-105237224D02*
G75*
G03*
X131148250Y-105237224I1370000J0D01*
G01*
%TO.C,R201*%
X129738250Y-118962224D02*
X129738250Y-116352224D01*
X131108250Y-120332224D02*
G75*
G03*
X128368250Y-120332224I-1370000J0D01*
G01*
X128368250Y-120332224D02*
G75*
G03*
X131108250Y-120332224I1370000J0D01*
G01*
D19*
%TO.C,J225*%
X133553250Y-94697224D02*
X133553250Y-84537224D01*
X141703250Y-94697224D02*
X133553250Y-94697224D01*
X133553250Y-84537224D02*
X141703250Y-84537224D01*
X141703250Y-84537224D02*
X141703250Y-94697224D01*
D21*
X137678250Y-95507224D02*
G75*
G03*
X137578250Y-95507224I-50000J0D01*
G01*
X137578250Y-95507224D02*
G75*
G03*
X137678250Y-95507224I50000J0D01*
G01*
D20*
%TO.C,D308*%
X161848250Y-95865000D02*
X161848250Y-94190000D01*
X161848250Y-95865000D02*
X161848250Y-96515000D01*
X158728250Y-95865000D02*
X158728250Y-95215000D01*
X158728250Y-95865000D02*
X158728250Y-96515000D01*
%TO.C,JP303*%
X160478250Y-115485000D02*
X161078250Y-115485000D01*
X161778250Y-116185000D02*
X161778250Y-118985000D01*
X159778250Y-118985000D02*
X159778250Y-116185000D01*
X161078250Y-119685000D02*
X160478250Y-119685000D01*
X161778250Y-116185000D02*
G75*
G03*
X161078250Y-115485000I-700001J-1D01*
G01*
X160478250Y-115485000D02*
G75*
G03*
X159778250Y-116185000I1J-700001D01*
G01*
X161078250Y-119685000D02*
G75*
G03*
X161778250Y-118985000I0J700000D01*
G01*
X159778250Y-118985000D02*
G75*
G03*
X160478250Y-119685000I700000J0D01*
G01*
%TO.C,D307*%
X161808250Y-79635000D02*
X161808250Y-77960000D01*
X161808250Y-79635000D02*
X161808250Y-80285000D01*
X158688250Y-79635000D02*
X158688250Y-78985000D01*
X158688250Y-79635000D02*
X158688250Y-80285000D01*
%TO.C,JP301*%
X160588250Y-85165000D02*
X161188250Y-85165000D01*
X161888250Y-85865000D02*
X161888250Y-88665000D01*
X159888250Y-88665000D02*
X159888250Y-85865000D01*
X161188250Y-89365000D02*
X160588250Y-89365000D01*
X161888250Y-85865000D02*
G75*
G03*
X161188250Y-85165000I-700001J-1D01*
G01*
X160588250Y-85165000D02*
G75*
G03*
X159888250Y-85865000I1J-700001D01*
G01*
X161188250Y-89365000D02*
G75*
G03*
X161888250Y-88665000I0J700000D01*
G01*
X159888250Y-88665000D02*
G75*
G03*
X160588250Y-89365000I700000J0D01*
G01*
%TO.C,D304*%
X158278250Y-87285000D02*
X158278250Y-85285000D01*
X158278250Y-87285000D02*
X154418250Y-87285000D01*
X158278250Y-85285000D02*
X154418250Y-85285000D01*
D19*
%TO.C,J319*%
X157493250Y-121060000D02*
X157493250Y-131220000D01*
X149343250Y-121060000D02*
X157493250Y-121060000D01*
X157493250Y-131220000D02*
X149343250Y-131220000D01*
X149343250Y-131220000D02*
X149343250Y-121060000D01*
D21*
X153468250Y-120250000D02*
G75*
G03*
X153368250Y-120250000I-50000J0D01*
G01*
X153368250Y-120250000D02*
G75*
G03*
X153468250Y-120250000I50000J0D01*
G01*
D20*
%TO.C,JP302*%
X160398250Y-100445000D02*
X160998250Y-100445000D01*
X161698250Y-101145000D02*
X161698250Y-103945000D01*
X159698250Y-103945000D02*
X159698250Y-101145000D01*
X160998250Y-104645000D02*
X160398250Y-104645000D01*
X161698250Y-101145000D02*
G75*
G03*
X160998250Y-100445000I-700001J-1D01*
G01*
X160398250Y-100445000D02*
G75*
G03*
X159698250Y-101145000I1J-700001D01*
G01*
X160998250Y-104645000D02*
G75*
G03*
X161698250Y-103945000I0J700000D01*
G01*
X159698250Y-103945000D02*
G75*
G03*
X160398250Y-104645000I700000J0D01*
G01*
D19*
%TO.C,J223*%
X133533250Y-84487224D02*
X133533250Y-74327224D01*
X141683250Y-84487224D02*
X133533250Y-84487224D01*
X133533250Y-74327224D02*
X141683250Y-74327224D01*
X141683250Y-74327224D02*
X141683250Y-84487224D01*
D21*
X137658250Y-85297224D02*
G75*
G03*
X137558250Y-85297224I-50000J0D01*
G01*
X137558250Y-85297224D02*
G75*
G03*
X137658250Y-85297224I50000J0D01*
G01*
D19*
%TO.C,J224*%
X133583250Y-125397224D02*
X133583250Y-115237224D01*
X141733250Y-125397224D02*
X133583250Y-125397224D01*
X133583250Y-115237224D02*
X141733250Y-115237224D01*
X141733250Y-115237224D02*
X141733250Y-125397224D01*
D21*
X137708250Y-126207224D02*
G75*
G03*
X137608250Y-126207224I-50000J0D01*
G01*
X137608250Y-126207224D02*
G75*
G03*
X137708250Y-126207224I50000J0D01*
G01*
D19*
%TO.C,J221*%
X133553250Y-115377224D02*
X133553250Y-105217224D01*
X141703250Y-115377224D02*
X133553250Y-115377224D01*
X133553250Y-105217224D02*
X141703250Y-105217224D01*
X141703250Y-105217224D02*
X141703250Y-115377224D01*
D21*
X137678250Y-116187224D02*
G75*
G03*
X137578250Y-116187224I-50000J0D01*
G01*
X137578250Y-116187224D02*
G75*
G03*
X137678250Y-116187224I50000J0D01*
G01*
D22*
%TO.C,J226*%
X130922850Y-127720223D02*
X130922850Y-134375023D01*
X130922850Y-134375023D02*
X143673650Y-134375023D01*
X143673650Y-127720223D02*
X130922850Y-127720223D01*
X143673650Y-134375023D02*
X143673650Y-127720223D01*
D14*
X145009250Y-131137224D02*
G75*
G03*
X144247250Y-131137224I-381000J0D01*
G01*
X144247250Y-131137224D02*
G75*
G03*
X145009250Y-131137224I381000J0D01*
G01*
D20*
%TO.C,D306*%
X161808250Y-110075000D02*
X161808250Y-108400000D01*
X161808250Y-110075000D02*
X161808250Y-110725000D01*
X158688250Y-110075000D02*
X158688250Y-109425000D01*
X158688250Y-110075000D02*
X158688250Y-110725000D01*
%TO.C,R204*%
X129868250Y-81092224D02*
X129868250Y-83702224D01*
X131238250Y-79722224D02*
G75*
G03*
X128498250Y-79722224I-1370000J0D01*
G01*
X128498250Y-79722224D02*
G75*
G03*
X131238250Y-79722224I1370000J0D01*
G01*
%TO.C,D303*%
X154365750Y-118795000D02*
X154365750Y-116795000D01*
X154365750Y-118795000D02*
X150505750Y-118795000D01*
X154365750Y-116795000D02*
X150505750Y-116795000D01*
D22*
%TO.C,J321*%
X146969650Y-132497600D02*
X146969650Y-139152400D01*
X146969650Y-139152400D02*
X159720450Y-139152400D01*
X159720450Y-132497600D02*
X146969650Y-132497600D01*
X159720450Y-139152400D02*
X159720450Y-132497600D01*
D14*
X161056050Y-135914601D02*
G75*
G03*
X160294050Y-135914601I-381000J0D01*
G01*
X160294050Y-135914601D02*
G75*
G03*
X161056050Y-135914601I381000J0D01*
G01*
D19*
%TO.C,J320*%
X157523250Y-105115000D02*
X157523250Y-115275000D01*
X149373250Y-105115000D02*
X157523250Y-105115000D01*
X157523250Y-115275000D02*
X149373250Y-115275000D01*
X149373250Y-115275000D02*
X149373250Y-105115000D01*
D21*
X153498250Y-104305000D02*
G75*
G03*
X153398250Y-104305000I-50000J0D01*
G01*
X153398250Y-104305000D02*
G75*
G03*
X153498250Y-104305000I50000J0D01*
G01*
%TD*%
M02*
