%TF.GenerationSoftware,KiCad,Pcbnew,7.0.10*%
%TF.CreationDate,2024-07-22T21:05:32-04:00*%
%TF.ProjectId,12.X.1 - PLC Connector Combined,31322e58-2e31-4202-9d20-504c4320436f,rev?*%
%TF.SameCoordinates,Original*%
%TF.FileFunction,Copper,L1,Top*%
%TF.FilePolarity,Positive*%
%FSLAX46Y46*%
G04 Gerber Fmt 4.6, Leading zero omitted, Abs format (unit mm)*
G04 Created by KiCad (PCBNEW 7.0.10) date 2024-07-22 21:05:32*
%MOMM*%
%LPD*%
G01*
G04 APERTURE LIST*
G04 Aperture macros list*
%AMRoundRect*
0 Rectangle with rounded corners*
0 $1 Rounding radius*
0 $2 $3 $4 $5 $6 $7 $8 $9 X,Y pos of 4 corners*
0 Add a 4 corners polygon primitive as box body*
4,1,4,$2,$3,$4,$5,$6,$7,$8,$9,$2,$3,0*
0 Add four circle primitives for the rounded corners*
1,1,$1+$1,$2,$3*
1,1,$1+$1,$4,$5*
1,1,$1+$1,$6,$7*
1,1,$1+$1,$8,$9*
0 Add four rect primitives between the rounded corners*
20,1,$1+$1,$2,$3,$4,$5,0*
20,1,$1+$1,$4,$5,$6,$7,0*
20,1,$1+$1,$6,$7,$8,$9,0*
20,1,$1+$1,$8,$9,$2,$3,0*%
%AMFreePoly0*
4,1,19,0.750000,-0.750000,-0.200000,-0.750000,-0.200000,-0.744911,-0.221157,-0.744911,-0.357708,-0.704816,-0.477430,-0.627875,-0.570627,-0.520320,-0.629746,-0.390866,-0.650000,-0.250000,-0.650000,0.250000,-0.629746,0.390866,-0.570627,0.520320,-0.477430,0.627875,-0.357708,0.704816,-0.221157,0.744911,-0.200000,0.744911,-0.200000,0.750000,0.750000,0.750000,0.750000,-0.750000,0.750000,-0.750000,
$1*%
%AMFreePoly1*
4,1,19,0.200000,0.744911,0.221157,0.744911,0.357708,0.704816,0.477430,0.627875,0.570627,0.520320,0.629746,0.390866,0.650000,0.250000,0.650000,-0.250000,0.629746,-0.390866,0.570627,-0.520320,0.477430,-0.627875,0.357708,-0.704816,0.221157,-0.744911,0.200000,-0.744911,0.200000,-0.750000,-0.750000,-0.750000,-0.750000,0.750000,0.200000,0.750000,0.200000,0.744911,0.200000,0.744911,
$1*%
G04 Aperture macros list end*
%TA.AperFunction,ComponentPad*%
%ADD10R,1.950000X1.950000*%
%TD*%
%TA.AperFunction,ComponentPad*%
%ADD11C,1.950000*%
%TD*%
%TA.AperFunction,SMDPad,CuDef*%
%ADD12RoundRect,0.572500X-3.045750X-0.572500X3.045750X-0.572500X3.045750X0.572500X-3.045750X0.572500X0*%
%TD*%
%TA.AperFunction,SMDPad,CuDef*%
%ADD13RoundRect,0.250000X0.300000X0.300000X-0.300000X0.300000X-0.300000X-0.300000X0.300000X-0.300000X0*%
%TD*%
%TA.AperFunction,SMDPad,CuDef*%
%ADD14RoundRect,0.150000X-0.150000X0.587500X-0.150000X-0.587500X0.150000X-0.587500X0.150000X0.587500X0*%
%TD*%
%TA.AperFunction,SMDPad,CuDef*%
%ADD15FreePoly0,270.000000*%
%TD*%
%TA.AperFunction,SMDPad,CuDef*%
%ADD16FreePoly1,270.000000*%
%TD*%
%TA.AperFunction,ComponentPad*%
%ADD17O,1.600000X1.600000*%
%TD*%
%TA.AperFunction,ComponentPad*%
%ADD18C,1.600000*%
%TD*%
%TA.AperFunction,SMDPad,CuDef*%
%ADD19RoundRect,0.250000X-0.300000X-0.300000X0.300000X-0.300000X0.300000X0.300000X-0.300000X0.300000X0*%
%TD*%
%TA.AperFunction,ComponentPad*%
%ADD20C,1.498600*%
%TD*%
%TA.AperFunction,ViaPad*%
%ADD21C,0.800000*%
%TD*%
%TA.AperFunction,Conductor*%
%ADD22C,1.016000*%
%TD*%
%TA.AperFunction,Conductor*%
%ADD23C,1.999996*%
%TD*%
%TA.AperFunction,Conductor*%
%ADD24C,2.000000*%
%TD*%
%TA.AperFunction,Conductor*%
%ADD25C,1.473200*%
%TD*%
%TA.AperFunction,Conductor*%
%ADD26C,1.500000*%
%TD*%
%TA.AperFunction,Conductor*%
%ADD27C,1.270000*%
%TD*%
%TA.AperFunction,Conductor*%
%ADD28C,0.250000*%
%TD*%
%TA.AperFunction,Conductor*%
%ADD29C,1.651000*%
%TD*%
%TA.AperFunction,Conductor*%
%ADD30C,1.524000*%
%TD*%
G04 APERTURE END LIST*
D10*
%TO.P,J317,1,1*%
%TO.N,GNDPWR*%
X110670000Y-67250000D03*
D11*
%TO.P,J317,2,2*%
%TO.N,Net-(J303-Pin_1)*%
X110670000Y-72330000D03*
%TO.P,J317,3,3*%
%TO.N,Net-(J304-Pin_1)*%
X110670000Y-77410000D03*
%TD*%
D12*
%TO.P,J316,1,Pin_1*%
%TO.N,Net-(J314-Pin_1)*%
X128326500Y-107870000D03*
%TD*%
%TO.P,J308,1,Pin_1*%
%TO.N,Net-(J302-Pin_1)*%
X128318250Y-123125000D03*
%TD*%
D13*
%TO.P,D304,1*%
%TO.N,Net-(J304-Pin_1)*%
X114650000Y-81820000D03*
%TO.P,D304,2*%
%TO.N,GNDPWR*%
X111850000Y-81820000D03*
%TD*%
D12*
%TO.P,J210,1,Pin_1*%
%TO.N,Net-(J210-Pin_1)*%
X74278250Y-72187224D03*
%TD*%
%TO.P,J209,1,Pin_1*%
%TO.N,M*%
X74278250Y-77245000D03*
%TD*%
D13*
%TO.P,D303,1*%
%TO.N,Net-(J302-Pin_1)*%
X110870000Y-113240000D03*
%TO.P,D303,2*%
%TO.N,GNDPWR*%
X108070000Y-113240000D03*
%TD*%
D14*
%TO.P,D306,1*%
%TO.N,GNDPWR*%
X118368250Y-104437500D03*
%TO.P,D306,2*%
X116468250Y-104437500D03*
%TO.P,D306,3*%
%TO.N,Net-(J314-Pin_1)*%
X117418250Y-106312500D03*
%TD*%
D12*
%TO.P,J307,1,Pin_1*%
%TO.N,Net-(J301-Pin_1)*%
X128318250Y-118035000D03*
%TD*%
%TO.P,J206,1,Pin_1*%
%TO.N,Net-(J206-Pin_1)*%
X74308250Y-92488334D03*
%TD*%
%TO.P,J311,1,Pin_1*%
%TO.N,Net-(J305-Pin_1)*%
X128308250Y-87555000D03*
%TD*%
D15*
%TO.P,JP303,1,A*%
%TO.N,Net-(J303-Pin_1)*%
X117948250Y-111635000D03*
D16*
%TO.P,JP303,2,B*%
%TO.N,Net-(J301-Pin_1)*%
X117948250Y-114135000D03*
%TD*%
D13*
%TO.P,D302,1*%
%TO.N,Net-(J314-Pin_1)*%
X110870000Y-97520000D03*
%TO.P,D302,2*%
%TO.N,GNDPWR*%
X108070000Y-97520000D03*
%TD*%
D12*
%TO.P,J202,1,Pin_1*%
%TO.N,Net-(J202-Pin_1)*%
X74298250Y-112799446D03*
%TD*%
D15*
%TO.P,JP302,1,A*%
%TO.N,Net-(J303-Pin_1)*%
X117868250Y-96595000D03*
D16*
%TO.P,JP302,2,B*%
%TO.N,Net-(J313-Pin_1)*%
X117868250Y-99095000D03*
%TD*%
D17*
%TO.P,R204,2*%
%TO.N,Net-(J208-Pin_1)*%
X85008250Y-79862224D03*
D18*
%TO.P,R204,1*%
%TO.N,M*%
X85008250Y-74782224D03*
%TD*%
D11*
%TO.P,J222,2,2*%
%TO.N,Net-(J206-Pin_1)*%
X92640000Y-92660000D03*
D10*
%TO.P,J222,1,1*%
%TO.N,Net-(J205-Pin_1)*%
X92640000Y-97740000D03*
%TD*%
D12*
%TO.P,J203,1,Pin_1*%
%TO.N,Net-(J203-Pin_1)*%
X74308250Y-107721668D03*
%TD*%
D17*
%TO.P,R202,2*%
%TO.N,Net-(J202-Pin_1)*%
X84918250Y-105377224D03*
D18*
%TO.P,R202,1*%
%TO.N,M*%
X84918250Y-100297224D03*
%TD*%
D12*
%TO.P,J208,1,Pin_1*%
%TO.N,Net-(J208-Pin_1)*%
X74298250Y-82342778D03*
%TD*%
D11*
%TO.P,J224,2,2*%
%TO.N,Net-(J202-Pin_1)*%
X92640000Y-112980000D03*
D10*
%TO.P,J224,1,1*%
%TO.N,Net-(J201-Pin_1)*%
X92640000Y-118060000D03*
%TD*%
%TO.P,J320,1,1*%
%TO.N,Net-(J313-Pin_1)*%
X110670000Y-102810000D03*
D11*
%TO.P,J320,2,2*%
%TO.N,Net-(J314-Pin_1)*%
X110670000Y-107890000D03*
%TD*%
D14*
%TO.P,D305,1*%
%TO.N,GNDPWR*%
X118508250Y-119627500D03*
%TO.P,D305,2*%
X116608250Y-119627500D03*
%TO.P,D305,3*%
%TO.N,Net-(J302-Pin_1)*%
X117558250Y-121502500D03*
%TD*%
D19*
%TO.P,D301,1*%
%TO.N,Net-(J306-Pin_1)*%
X107020000Y-81830000D03*
%TO.P,D301,2*%
%TO.N,GNDPWR*%
X109820000Y-81830000D03*
%TD*%
D17*
%TO.P,R201,2*%
%TO.N,M*%
X84878250Y-110312224D03*
D18*
%TO.P,R201,1*%
%TO.N,Net-(J201-Pin_1)*%
X84878250Y-115392224D03*
%TD*%
D20*
%TO.P,J226,4,4*%
%TO.N,Net-(J203-Pin_1)*%
X88160000Y-125970000D03*
%TO.P,J226,3,3*%
%TO.N,Net-(J204-Pin_1)*%
X90660000Y-125970000D03*
%TO.P,J226,2,2*%
%TO.N,Net-(J205-Pin_1)*%
X93160000Y-125970000D03*
%TO.P,J226,1,1*%
%TO.N,Net-(J206-Pin_1)*%
X95660000Y-125970000D03*
%TD*%
D12*
%TO.P,J201,1,Pin_1*%
%TO.N,Net-(J201-Pin_1)*%
X74370000Y-117920000D03*
%TD*%
%TO.P,J312,1,Pin_1*%
%TO.N,Net-(J306-Pin_1)*%
X128328250Y-92645000D03*
%TD*%
D14*
%TO.P,D308,1*%
%TO.N,GNDPWR*%
X118408250Y-90227500D03*
%TO.P,D308,2*%
X116508250Y-90227500D03*
%TO.P,D308,3*%
%TO.N,Net-(J306-Pin_1)*%
X117458250Y-92102500D03*
%TD*%
D10*
%TO.P,J318,1,1*%
%TO.N,Net-(J305-Pin_1)*%
X110670000Y-87570000D03*
D11*
%TO.P,J318,2,2*%
%TO.N,Net-(J306-Pin_1)*%
X110670000Y-92650000D03*
%TD*%
D12*
%TO.P,J315,1,Pin_1*%
%TO.N,Net-(J313-Pin_1)*%
X128328250Y-102815000D03*
%TD*%
D17*
%TO.P,R203,2*%
%TO.N,M*%
X84918250Y-90082224D03*
D18*
%TO.P,R203,1*%
%TO.N,Net-(J207-Pin_1)*%
X84918250Y-85002224D03*
%TD*%
D12*
%TO.P,J204,1,Pin_1*%
%TO.N,Net-(J204-Pin_1)*%
X74298250Y-102653890D03*
%TD*%
%TO.P,J207,1,Pin_1*%
%TO.N,Net-(J207-Pin_1)*%
X74308250Y-87400556D03*
%TD*%
%TO.P,J205,1,Pin_1*%
%TO.N,Net-(J205-Pin_1)*%
X74280000Y-97590000D03*
%TD*%
D11*
%TO.P,J221,2,2*%
%TO.N,Net-(J204-Pin_1)*%
X92640000Y-102820000D03*
D10*
%TO.P,J221,1,1*%
%TO.N,Net-(J203-Pin_1)*%
X92640000Y-107900000D03*
%TD*%
D15*
%TO.P,JP301,1,A*%
%TO.N,Net-(J303-Pin_1)*%
X118058250Y-81315000D03*
D16*
%TO.P,JP301,2,B*%
%TO.N,Net-(J305-Pin_1)*%
X118058250Y-83815000D03*
%TD*%
D11*
%TO.P,J223,2,2*%
%TO.N,Net-(J210-Pin_1)*%
X92640000Y-72340000D03*
D10*
%TO.P,J223,1,1*%
%TO.N,M*%
X92640000Y-77420000D03*
%TD*%
D12*
%TO.P,J310,1,Pin_1*%
%TO.N,Net-(J304-Pin_1)*%
X128298250Y-77405000D03*
%TD*%
D11*
%TO.P,J225,2,2*%
%TO.N,Net-(J208-Pin_1)*%
X92640000Y-82500000D03*
D10*
%TO.P,J225,1,1*%
%TO.N,Net-(J207-Pin_1)*%
X92640000Y-87580000D03*
%TD*%
D12*
%TO.P,J309,1,Pin_1*%
%TO.N,Net-(J303-Pin_1)*%
X128298250Y-72325000D03*
%TD*%
D10*
%TO.P,J319,1,1*%
%TO.N,Net-(J301-Pin_1)*%
X110670000Y-118050000D03*
D11*
%TO.P,J319,2,2*%
%TO.N,Net-(J302-Pin_1)*%
X110670000Y-123130000D03*
%TD*%
D14*
%TO.P,D307,1*%
%TO.N,GNDPWR*%
X118368250Y-73997500D03*
%TO.P,D307,2*%
X116468250Y-73997500D03*
%TO.P,D307,3*%
%TO.N,Net-(J304-Pin_1)*%
X117418250Y-75872500D03*
%TD*%
D20*
%TO.P,J321,1,1*%
%TO.N,Net-(J304-Pin_1)*%
X114260000Y-130690000D03*
%TO.P,J321,2,2*%
%TO.N,Net-(J306-Pin_1)*%
X111760000Y-130690000D03*
%TO.P,J321,3,3*%
%TO.N,Net-(J314-Pin_1)*%
X109260000Y-130690000D03*
%TO.P,J321,4,4*%
%TO.N,Net-(J302-Pin_1)*%
X106760000Y-130690000D03*
%TD*%
D21*
%TO.N,Net-(J306-Pin_1)*%
X120134251Y-92670999D03*
X121294251Y-92670999D03*
X122474251Y-92670999D03*
X104622385Y-90059133D03*
%TO.N,GNDPWR*%
X115011251Y-73957999D03*
X117551241Y-104450499D03*
X117344251Y-119560999D03*
X105782385Y-99929133D03*
X108106625Y-68416625D03*
X105867251Y-78910999D03*
X107241626Y-69281624D03*
X117344251Y-73990999D03*
X104978251Y-79672999D03*
X108382385Y-111422999D03*
X105992385Y-97452999D03*
X117134251Y-103390999D03*
X109632385Y-111179133D03*
X115646251Y-90213999D03*
X104851251Y-80815999D03*
X115392251Y-119550999D03*
X117297251Y-90213999D03*
%TO.N,Net-(J314-Pin_1)*%
X120034251Y-107891092D03*
X106202435Y-127849083D03*
X122754251Y-107840999D03*
X121334251Y-107870999D03*
%TO.N,Net-(J302-Pin_1)*%
X121870473Y-123124777D03*
X123300474Y-123124776D03*
X120148026Y-123124774D03*
%TO.N,Net-(J304-Pin_1)*%
X113250032Y-111914250D03*
X121454251Y-77400999D03*
X108153251Y-117010999D03*
X122764251Y-77380999D03*
X108528053Y-124116801D03*
X120234251Y-77391838D03*
%TO.N,Net-(J201-Pin_1)*%
X79471250Y-117874224D03*
X80868250Y-117874224D03*
X82265250Y-117874224D03*
%TO.N,Net-(J202-Pin_1)*%
X79471250Y-112794224D03*
X80868250Y-112794224D03*
X82392250Y-112794224D03*
%TO.N,Net-(J203-Pin_1)*%
X79471250Y-107714224D03*
X89758150Y-114826224D03*
X81249250Y-107714224D03*
X82773250Y-107714224D03*
%TO.N,Net-(J204-Pin_1)*%
X81249250Y-102634224D03*
X79598250Y-102634224D03*
X82773250Y-102634224D03*
%TO.N,Net-(J205-Pin_1)*%
X95679002Y-100444402D03*
X79852250Y-97554224D03*
X81503250Y-97554224D03*
X98902250Y-105440000D03*
X83027250Y-97554224D03*
%TO.N,Net-(J206-Pin_1)*%
X83281250Y-92474224D03*
X79852250Y-92474224D03*
X81630248Y-92474224D03*
%TO.N,Net-(J207-Pin_1)*%
X83027250Y-87394224D03*
X81376250Y-87394224D03*
X79852250Y-87394224D03*
%TO.N,Net-(J208-Pin_1)*%
X81503250Y-82314224D03*
X79725250Y-82314224D03*
X83281250Y-82314224D03*
%TO.N,M*%
X82773250Y-76980224D03*
X79344250Y-76980224D03*
X90012252Y-110254224D03*
X91282250Y-100221224D03*
X92425250Y-100221224D03*
X80995250Y-76980224D03*
X91028250Y-110254224D03*
%TO.N,Net-(J301-Pin_1)*%
X121667834Y-118059051D03*
X120434251Y-118040935D03*
X123002549Y-118042573D03*
%TO.N,Net-(J303-Pin_1)*%
X120264251Y-72280999D03*
X122864251Y-72310999D03*
X121454251Y-72310999D03*
%TO.N,Net-(J305-Pin_1)*%
X120234251Y-87570999D03*
X122644251Y-87560999D03*
X121404251Y-87540999D03*
%TO.N,Net-(J313-Pin_1)*%
X120034251Y-102870999D03*
X122904251Y-102850999D03*
X121474251Y-102870999D03*
%TD*%
D22*
%TO.N,Net-(J314-Pin_1)*%
X106192385Y-127839033D02*
X106202435Y-127849083D01*
X108534251Y-108120999D02*
X106192385Y-110462865D01*
X106192385Y-110462865D02*
X106192385Y-127839033D01*
%TO.N,Net-(J306-Pin_1)*%
X107847384Y-89779133D02*
X104902385Y-89779133D01*
X110638252Y-92570001D02*
X107847384Y-89779133D01*
X104902385Y-89779133D02*
X104622385Y-90059133D01*
D23*
%TO.N,GNDPWR*%
X108626251Y-111179133D02*
X109632385Y-111179133D01*
X108150251Y-111655133D02*
X108626251Y-111179133D01*
X108150251Y-113073999D02*
X108150251Y-111655133D01*
D24*
X105782385Y-97662999D02*
X105782385Y-99929133D01*
X105992385Y-97452999D02*
X105782385Y-97662999D01*
X108070000Y-97520000D02*
X106059386Y-97520000D01*
X106059386Y-97520000D02*
X105992385Y-97452999D01*
D22*
%TO.N,Net-(J304-Pin_1)*%
X113250032Y-95200032D02*
X113250032Y-111914250D01*
X112471251Y-94421251D02*
X113250032Y-95200032D01*
X112471251Y-83993999D02*
X112471251Y-94421251D01*
X114887251Y-81577999D02*
X112471251Y-83993999D01*
D24*
%TO.N,Net-(J303-Pin_1)*%
X110670000Y-72330000D02*
X117030000Y-78690000D01*
D25*
X118058250Y-81225243D02*
X117030000Y-80196993D01*
D24*
X117030000Y-78690000D02*
X117030000Y-80196993D01*
D25*
X118058250Y-81315000D02*
X118058250Y-81225243D01*
D26*
X117121993Y-81315000D02*
X118058250Y-81315000D01*
X116184251Y-82252742D02*
X117121993Y-81315000D01*
X116184251Y-83855749D02*
X116184251Y-82252742D01*
X114788000Y-85252000D02*
X116184251Y-83855749D01*
X114788000Y-87853923D02*
X114788000Y-85252000D01*
X114780000Y-87861923D02*
X114788000Y-87853923D01*
X114780000Y-88111923D02*
X114780000Y-87861923D01*
X113929251Y-88962672D02*
X114780000Y-88111923D01*
X114997251Y-92075075D02*
X113929251Y-91007075D01*
X114997251Y-108683999D02*
X114997251Y-92075075D01*
X117948250Y-111635000D02*
X114997251Y-108683999D01*
X113929251Y-91007075D02*
X113929251Y-88962672D01*
X117332251Y-96570999D02*
X115392251Y-94630999D01*
D25*
%TO.N,Net-(J313-Pin_1)*%
X118134251Y-99361001D02*
X117868250Y-99095000D01*
D24*
X118134251Y-101344293D02*
X118134251Y-99361001D01*
D22*
%TO.N,Net-(J304-Pin_1)*%
X108528053Y-124116801D02*
X108153251Y-123741999D01*
X108153251Y-123741999D02*
X108153251Y-117010999D01*
D24*
%TO.N,Net-(J306-Pin_1)*%
X107102616Y-89317364D02*
X110435252Y-92650000D01*
X110435252Y-92650000D02*
X110670000Y-92650000D01*
X128334251Y-92670999D02*
X120134251Y-92670999D01*
X118054751Y-92670999D02*
X117424251Y-92040499D01*
X120134251Y-92670999D02*
X118054751Y-92670999D01*
X110699583Y-92508670D02*
X110638252Y-92570001D01*
X107102616Y-81733634D02*
X107102616Y-89317364D01*
D22*
%TO.N,GNDPWR*%
X116455251Y-104069999D02*
X116455251Y-104755604D01*
D24*
X105740251Y-78910999D02*
X104978251Y-79672999D01*
D22*
X117551241Y-104450499D02*
X117134251Y-104033509D01*
X118313251Y-119550999D02*
X117424251Y-119550999D01*
X115392251Y-119550999D02*
X114884251Y-119550999D01*
X115011251Y-73957999D02*
X114993751Y-73975499D01*
D24*
X104851251Y-79799999D02*
X104851251Y-80815999D01*
D22*
X118440251Y-90165499D02*
X117345751Y-90165499D01*
X116413251Y-119550999D02*
X115392251Y-119550999D01*
X117134251Y-104033509D02*
X117134251Y-103390999D01*
D24*
X107850999Y-78910999D02*
X105867251Y-78910999D01*
D22*
X117248751Y-90165499D02*
X116474251Y-90165499D01*
X118325751Y-104450499D02*
X117551241Y-104450499D01*
X114774751Y-73975499D02*
X114757251Y-73957999D01*
D24*
X108915251Y-67607999D02*
X109273250Y-67250000D01*
D22*
X115646251Y-90213999D02*
X115597751Y-90165499D01*
D24*
X112087251Y-81577999D02*
X110517999Y-81577999D01*
D22*
X117152751Y-73975499D02*
X116171751Y-73975499D01*
X116474251Y-90165499D02*
X115694751Y-90165499D01*
X117187751Y-73975499D02*
X117170251Y-73957999D01*
X115028751Y-73975499D02*
X115011251Y-73957999D01*
D24*
X110517999Y-81577999D02*
X107850999Y-78910999D01*
X105867251Y-78910999D02*
X105740251Y-78910999D01*
D22*
X117297251Y-90213999D02*
X117248751Y-90165499D01*
X115597751Y-90165499D02*
X115440751Y-90165499D01*
X117170251Y-73957999D02*
X117152751Y-73975499D01*
X117134251Y-103390999D02*
X116455251Y-104069999D01*
D24*
X109273250Y-67250000D02*
X110670000Y-67250000D01*
D22*
X115694751Y-90165499D02*
X115646251Y-90213999D01*
D24*
X104978251Y-79672999D02*
X104851251Y-79799999D01*
D22*
X118071751Y-73975499D02*
X117187751Y-73975499D01*
X117424251Y-119550999D02*
X116413251Y-119550999D01*
D24*
X108788251Y-67734999D02*
X107241626Y-69281624D01*
D22*
X114993751Y-73975499D02*
X114774751Y-73975499D01*
X117345751Y-90165499D02*
X117297251Y-90213999D01*
X115440751Y-90165499D02*
X115392251Y-90213999D01*
X116171751Y-73975499D02*
X115028751Y-73975499D01*
D24*
%TO.N,Net-(J314-Pin_1)*%
X118941344Y-107891092D02*
X117375751Y-106325499D01*
X128334251Y-107870999D02*
X120054344Y-107870999D01*
X108534251Y-108120999D02*
X108391251Y-107977999D01*
X110670000Y-107890000D02*
X110439001Y-108120999D01*
X108391251Y-107977999D02*
X108391251Y-101318749D01*
X120034251Y-107891092D02*
X118941344Y-107891092D01*
X108391251Y-101318749D02*
X111331251Y-98378749D01*
X110439001Y-108120999D02*
X108534251Y-108120999D01*
X120054344Y-107870999D02*
X120034251Y-107891092D01*
X111331251Y-98378749D02*
X111331251Y-97452999D01*
%TO.N,Net-(J302-Pin_1)*%
X112868251Y-114991999D02*
X110950251Y-113073999D01*
X123300480Y-123124770D02*
X123300474Y-123124776D01*
D22*
X117363251Y-121530281D02*
X117363251Y-123285999D01*
D24*
X120148022Y-123124770D02*
X111243812Y-123124770D01*
X121870473Y-123124777D02*
X120148029Y-123124777D01*
X123300473Y-123124777D02*
X123300474Y-123124776D01*
D22*
X117462882Y-121430650D02*
X117363251Y-121530281D01*
D24*
X120148029Y-123124777D02*
X120148026Y-123124774D01*
X112868251Y-121532999D02*
X112868251Y-114991999D01*
X111271250Y-123130000D02*
X112868251Y-121532999D01*
X128308691Y-123124770D02*
X123300480Y-123124770D01*
D22*
X106667351Y-130853999D02*
X110566251Y-126955099D01*
D24*
X110670000Y-123130000D02*
X111271250Y-123130000D01*
D22*
X110566251Y-126955099D02*
X110566251Y-123868999D01*
D24*
X121870473Y-123124777D02*
X123300473Y-123124777D01*
%TO.N,Net-(J304-Pin_1)*%
X117490251Y-75832999D02*
X119049090Y-77391838D01*
X110670000Y-77410000D02*
X111384586Y-77410000D01*
X114528088Y-80553502D02*
X114528088Y-81218836D01*
X119049090Y-77391838D02*
X120234251Y-77391838D01*
X120255090Y-77370999D02*
X120234251Y-77391838D01*
X111384586Y-77410000D02*
X114528088Y-80553502D01*
X128234251Y-77370999D02*
X120255090Y-77370999D01*
D27*
%TO.N,Net-(J201-Pin_1)*%
X92298250Y-117874224D02*
X74292163Y-117874224D01*
X74292163Y-117874224D02*
X74290616Y-117875771D01*
X92425250Y-117747224D02*
X92298250Y-117874224D01*
%TO.N,Net-(J202-Pin_1)*%
X82900250Y-112794224D02*
X74282641Y-112794224D01*
X74282641Y-112794224D02*
X74273772Y-112803093D01*
D22*
%TO.N,Net-(J203-Pin_1)*%
X88107250Y-113175324D02*
X89758150Y-114826224D01*
D27*
X92425250Y-107587224D02*
X92298250Y-107714224D01*
X74287595Y-107731527D02*
X74295588Y-107739520D01*
X74304898Y-107714224D02*
X74287595Y-107731527D01*
X74295588Y-107739520D02*
X79090250Y-107739520D01*
D22*
X88107250Y-107714224D02*
X88107250Y-113175324D01*
D27*
X92298250Y-107714224D02*
X88107250Y-107714224D01*
X88107250Y-107714224D02*
X74304898Y-107714224D01*
%TO.N,Net-(J204-Pin_1)*%
X92425250Y-102507224D02*
X92298250Y-102634224D01*
X92298250Y-102634224D02*
X74288698Y-102634224D01*
X74288698Y-102634224D02*
X74270525Y-102652397D01*
%TO.N,Net-(J205-Pin_1)*%
X95679002Y-99869002D02*
X95679002Y-100444402D01*
X74208250Y-97576109D02*
X93386109Y-97576109D01*
X95280000Y-128090000D02*
X97390000Y-128090000D01*
X98902250Y-126577750D02*
X98902250Y-105440000D01*
X93160000Y-125970000D02*
X95280000Y-128090000D01*
X97390000Y-128090000D02*
X98902250Y-126577750D01*
X93386109Y-97576109D02*
X95679002Y-99869002D01*
%TO.N,Net-(J206-Pin_1)*%
X74259168Y-92494687D02*
X79090250Y-92494687D01*
D22*
X96188250Y-122371750D02*
X96188250Y-117667224D01*
D27*
X92425250Y-92347224D02*
X92298250Y-92474224D01*
D22*
X96188250Y-117667224D02*
X97324258Y-116531216D01*
D27*
X92298250Y-92474224D02*
X74279353Y-92474224D01*
X74259029Y-92494548D02*
X74259168Y-92494687D01*
D22*
X95620000Y-122940000D02*
X96188250Y-122371750D01*
X97324258Y-97246232D02*
X92425250Y-92347224D01*
X95620000Y-125930000D02*
X95620000Y-122940000D01*
X95660000Y-125970000D02*
X95620000Y-125930000D01*
X97324258Y-116531216D02*
X97324258Y-97246232D01*
D27*
X74279353Y-92474224D02*
X74259029Y-92494548D01*
%TO.N,Net-(J207-Pin_1)*%
X92425250Y-87267224D02*
X92298250Y-87394224D01*
X92298250Y-87394224D02*
X74277496Y-87394224D01*
X74277496Y-87394224D02*
X74272933Y-87398787D01*
%TO.N,Net-(J208-Pin_1)*%
X92298250Y-82314224D02*
X74322732Y-82314224D01*
X92425250Y-82187224D02*
X92298250Y-82314224D01*
X74322732Y-82314224D02*
X74290929Y-82346027D01*
%TO.N,M*%
X94031250Y-110254224D02*
X90012252Y-110254224D01*
X93144211Y-100221224D02*
X95110000Y-102187013D01*
X95110000Y-109175474D02*
X94031250Y-110254224D01*
X74595318Y-76970000D02*
X74313791Y-77251527D01*
D28*
X79088577Y-77251527D02*
X74313791Y-77251527D01*
X79105880Y-77234224D02*
X79088577Y-77251527D01*
D27*
X84805250Y-100221224D02*
X93144211Y-100221224D01*
X92288026Y-76970000D02*
X74595318Y-76970000D01*
X92425250Y-77107224D02*
X92288026Y-76970000D01*
X95110000Y-102187013D02*
X95110000Y-109175474D01*
%TO.N,Net-(J210-Pin_1)*%
X74268986Y-72175201D02*
X92500273Y-72175201D01*
D24*
%TO.N,Net-(J301-Pin_1)*%
X120437816Y-118044500D02*
X120434251Y-118040935D01*
D29*
X119314814Y-118030000D02*
X119149314Y-117864500D01*
X120434251Y-118040935D02*
X120423316Y-118030000D01*
X119149314Y-117864500D02*
X118424500Y-117864500D01*
X120423316Y-118030000D02*
X119314814Y-118030000D01*
X118134251Y-117574251D02*
X118134251Y-114320999D01*
D24*
X128300163Y-118044500D02*
X120437816Y-118044500D01*
D29*
X118424500Y-117864500D02*
X118134251Y-117574251D01*
D24*
%TO.N,Net-(J303-Pin_1)*%
X120277740Y-72294488D02*
X120264251Y-72280999D01*
X128342370Y-72294488D02*
X120277740Y-72294488D01*
X120264251Y-72280999D02*
X120250762Y-72294488D01*
D30*
%TO.N,Net-(J305-Pin_1)*%
X118134251Y-86944251D02*
X118134251Y-83920999D01*
D24*
X118760999Y-87570999D02*
X118134251Y-86944251D01*
X120234251Y-87570999D02*
X118760999Y-87570999D01*
X128134251Y-87570999D02*
X120234251Y-87570999D01*
D29*
%TO.N,Net-(J313-Pin_1)*%
X119660957Y-102870999D02*
X118134251Y-101344293D01*
D24*
X128334251Y-102870999D02*
X120034251Y-102870999D01*
%TD*%
M02*
