%TF.GenerationSoftware,KiCad,Pcbnew,7.0.10*%
%TF.CreationDate,2024-07-22T09:22:48-04:00*%
%TF.ProjectId,12.X.1 - PLC Connector Combined.kicad_pcb_MERGED,31322e58-2e31-4202-9d20-504c4320436f,rev?*%
%TF.SameCoordinates,Original*%
%TF.FileFunction,Copper,L1,Top*%
%TF.FilePolarity,Positive*%
%FSLAX46Y46*%
G04 Gerber Fmt 4.6, Leading zero omitted, Abs format (unit mm)*
G04 Created by KiCad (PCBNEW 7.0.10) date 2024-07-22 09:22:48*
%MOMM*%
%LPD*%
G01*
G04 APERTURE LIST*
G04 Aperture macros list*
%AMRoundRect*
0 Rectangle with rounded corners*
0 $1 Rounding radius*
0 $2 $3 $4 $5 $6 $7 $8 $9 X,Y pos of 4 corners*
0 Add a 4 corners polygon primitive as box body*
4,1,4,$2,$3,$4,$5,$6,$7,$8,$9,$2,$3,0*
0 Add four circle primitives for the rounded corners*
1,1,$1+$1,$2,$3*
1,1,$1+$1,$4,$5*
1,1,$1+$1,$6,$7*
1,1,$1+$1,$8,$9*
0 Add four rect primitives between the rounded corners*
20,1,$1+$1,$2,$3,$4,$5,0*
20,1,$1+$1,$4,$5,$6,$7,0*
20,1,$1+$1,$6,$7,$8,$9,0*
20,1,$1+$1,$8,$9,$2,$3,0*%
%AMFreePoly0*
4,1,19,0.750000,-0.750000,-0.200000,-0.750000,-0.200000,-0.744911,-0.221157,-0.744911,-0.357708,-0.704816,-0.477430,-0.627875,-0.570627,-0.520320,-0.629746,-0.390866,-0.650000,-0.250000,-0.650000,0.250000,-0.629746,0.390866,-0.570627,0.520320,-0.477430,0.627875,-0.357708,0.704816,-0.221157,0.744911,-0.200000,0.744911,-0.200000,0.750000,0.750000,0.750000,0.750000,-0.750000,0.750000,-0.750000,
$1*%
%AMFreePoly1*
4,1,19,0.200000,0.744911,0.221157,0.744911,0.357708,0.704816,0.477430,0.627875,0.570627,0.520320,0.629746,0.390866,0.650000,0.250000,0.650000,-0.250000,0.629746,-0.390866,0.570627,-0.520320,0.477430,-0.627875,0.357708,-0.704816,0.221157,-0.744911,0.200000,-0.744911,0.200000,-0.750000,-0.750000,-0.750000,-0.750000,0.750000,0.200000,0.750000,0.200000,0.744911,0.200000,0.744911,
$1*%
G04 Aperture macros list end*
%TA.AperFunction,ComponentPad*%
%ADD10C,1.600000*%
%TD*%
%TA.AperFunction,ComponentPad*%
%ADD11O,1.600000X1.600000*%
%TD*%
%TA.AperFunction,SMDPad,CuDef*%
%ADD12RoundRect,0.572500X-3.045750X-0.572500X3.045750X-0.572500X3.045750X0.572500X-3.045750X0.572500X0*%
%TD*%
%TA.AperFunction,ComponentPad*%
%ADD13R,1.950000X1.950000*%
%TD*%
%TA.AperFunction,ComponentPad*%
%ADD14C,1.950000*%
%TD*%
%TA.AperFunction,SMDPad,CuDef*%
%ADD15RoundRect,0.150000X-0.150000X0.587500X-0.150000X-0.587500X0.150000X-0.587500X0.150000X0.587500X0*%
%TD*%
%TA.AperFunction,SMDPad,CuDef*%
%ADD16RoundRect,0.250000X-0.300000X-0.300000X0.300000X-0.300000X0.300000X0.300000X-0.300000X0.300000X0*%
%TD*%
%TA.AperFunction,SMDPad,CuDef*%
%ADD17RoundRect,0.250000X0.300000X0.300000X-0.300000X0.300000X-0.300000X-0.300000X0.300000X-0.300000X0*%
%TD*%
%TA.AperFunction,SMDPad,CuDef*%
%ADD18FreePoly0,270.000000*%
%TD*%
%TA.AperFunction,SMDPad,CuDef*%
%ADD19FreePoly1,270.000000*%
%TD*%
%TA.AperFunction,ComponentPad*%
%ADD20C,1.498600*%
%TD*%
%TA.AperFunction,ViaPad*%
%ADD21C,0.800000*%
%TD*%
%TA.AperFunction,Conductor*%
%ADD22C,2.000000*%
%TD*%
%TA.AperFunction,Conductor*%
%ADD23C,1.016000*%
%TD*%
%TA.AperFunction,Conductor*%
%ADD24C,1.999996*%
%TD*%
%TA.AperFunction,Conductor*%
%ADD25C,1.270000*%
%TD*%
%TA.AperFunction,Conductor*%
%ADD26C,0.250000*%
%TD*%
%TA.AperFunction,Conductor*%
%ADD27C,1.651000*%
%TD*%
%TA.AperFunction,Conductor*%
%ADD28C,1.500000*%
%TD*%
G04 APERTURE END LIST*
D10*
%TO.P,R203,1*%
%TO.N,Net-(J207-Pin_1)*%
X129778250Y-89942224D03*
D11*
%TO.P,R203,2*%
%TO.N,M*%
X129778250Y-95022224D03*
%TD*%
D12*
%TO.P,J307,1,Pin_1*%
%TO.N,Net-(J301-Pin_1)*%
X171148250Y-122735000D03*
%TD*%
D13*
%TO.P,J318,1,1*%
%TO.N,Net-(J305-Pin_1)*%
X153468250Y-92040000D03*
D14*
%TO.P,J318,2,2*%
%TO.N,Net-(J306-Pin_1)*%
X153468250Y-97120000D03*
%TD*%
D15*
%TO.P,D305,1*%
%TO.N,GNDPWR*%
X161338250Y-124327500D03*
%TO.P,D305,2*%
X159438250Y-124327500D03*
%TO.P,D305,3*%
%TO.N,Net-(J302-Pin_1)*%
X160388250Y-126202500D03*
%TD*%
D12*
%TO.P,J202,1,Pin_1*%
%TO.N,Net-(J202-Pin_1)*%
X119158250Y-117739446D03*
%TD*%
%TO.P,J201,1,Pin_1*%
%TO.N,Net-(J201-Pin_1)*%
X119138250Y-122827224D03*
%TD*%
D13*
%TO.P,J317,1,1*%
%TO.N,GNDPWR*%
X153468250Y-71405000D03*
D14*
%TO.P,J317,2,2*%
%TO.N,Net-(J303-Pin_1)*%
X153468250Y-76485000D03*
%TO.P,J317,3,3*%
%TO.N,Net-(J304-Pin_1)*%
X153468250Y-81565000D03*
%TD*%
D16*
%TO.P,D301,1*%
%TO.N,Net-(J306-Pin_1)*%
X149860750Y-86285000D03*
%TO.P,D301,2*%
%TO.N,GNDPWR*%
X152660750Y-86285000D03*
%TD*%
D12*
%TO.P,J204,1,Pin_1*%
%TO.N,Net-(J204-Pin_1)*%
X119158250Y-107593890D03*
%TD*%
%TO.P,J210,1,Pin_1*%
%TO.N,Net-(J210-Pin_1)*%
X119138250Y-77127224D03*
%TD*%
%TO.P,J315,1,Pin_1*%
%TO.N,Net-(J313-Pin_1)*%
X171158250Y-107515000D03*
%TD*%
D13*
%TO.P,J222,1,1*%
%TO.N,Net-(J205-Pin_1)*%
X137658250Y-102482224D03*
D14*
%TO.P,J222,2,2*%
%TO.N,Net-(J206-Pin_1)*%
X137658250Y-97402224D03*
%TD*%
D12*
%TO.P,J206,1,Pin_1*%
%TO.N,Net-(J206-Pin_1)*%
X119168250Y-97428334D03*
%TD*%
D17*
%TO.P,D302,1*%
%TO.N,Net-(J314-Pin_1)*%
X154288250Y-102025000D03*
%TO.P,D302,2*%
%TO.N,GNDPWR*%
X151488250Y-102025000D03*
%TD*%
D10*
%TO.P,R202,1*%
%TO.N,M*%
X129778250Y-105237224D03*
D11*
%TO.P,R202,2*%
%TO.N,Net-(J202-Pin_1)*%
X129778250Y-110317224D03*
%TD*%
D12*
%TO.P,J207,1,Pin_1*%
%TO.N,Net-(J207-Pin_1)*%
X119168250Y-92340556D03*
%TD*%
D10*
%TO.P,R201,1*%
%TO.N,Net-(J201-Pin_1)*%
X129738250Y-120332224D03*
D11*
%TO.P,R201,2*%
%TO.N,M*%
X129738250Y-115252224D03*
%TD*%
D13*
%TO.P,J225,1,1*%
%TO.N,Net-(J207-Pin_1)*%
X137628250Y-92157224D03*
D14*
%TO.P,J225,2,2*%
%TO.N,Net-(J208-Pin_1)*%
X137628250Y-87077224D03*
%TD*%
D15*
%TO.P,D308,1*%
%TO.N,GNDPWR*%
X161238250Y-94927500D03*
%TO.P,D308,2*%
X159338250Y-94927500D03*
%TO.P,D308,3*%
%TO.N,Net-(J306-Pin_1)*%
X160288250Y-96802500D03*
%TD*%
D18*
%TO.P,JP303,1,A*%
%TO.N,Net-(J303-Pin_1)*%
X160778250Y-116335000D03*
D19*
%TO.P,JP303,2,B*%
%TO.N,Net-(J301-Pin_1)*%
X160778250Y-118835000D03*
%TD*%
D15*
%TO.P,D307,1*%
%TO.N,GNDPWR*%
X161198250Y-78697500D03*
%TO.P,D307,2*%
X159298250Y-78697500D03*
%TO.P,D307,3*%
%TO.N,Net-(J304-Pin_1)*%
X160248250Y-80572500D03*
%TD*%
D12*
%TO.P,J311,1,Pin_1*%
%TO.N,Net-(J305-Pin_1)*%
X171138250Y-92255000D03*
%TD*%
%TO.P,J310,1,Pin_1*%
%TO.N,Net-(J304-Pin_1)*%
X171128250Y-82105000D03*
%TD*%
D18*
%TO.P,JP301,1,A*%
%TO.N,Net-(J303-Pin_1)*%
X160888250Y-86015000D03*
D19*
%TO.P,JP301,2,B*%
%TO.N,Net-(J305-Pin_1)*%
X160888250Y-88515000D03*
%TD*%
D17*
%TO.P,D304,1*%
%TO.N,Net-(J304-Pin_1)*%
X157468250Y-86285000D03*
%TO.P,D304,2*%
%TO.N,GNDPWR*%
X154668250Y-86285000D03*
%TD*%
D13*
%TO.P,J319,1,1*%
%TO.N,Net-(J301-Pin_1)*%
X153418250Y-123600000D03*
D14*
%TO.P,J319,2,2*%
%TO.N,Net-(J302-Pin_1)*%
X153418250Y-128680000D03*
%TD*%
D18*
%TO.P,JP302,1,A*%
%TO.N,Net-(J303-Pin_1)*%
X160698250Y-101295000D03*
D19*
%TO.P,JP302,2,B*%
%TO.N,Net-(J313-Pin_1)*%
X160698250Y-103795000D03*
%TD*%
D13*
%TO.P,J223,1,1*%
%TO.N,M*%
X137608250Y-81947224D03*
D14*
%TO.P,J223,2,2*%
%TO.N,Net-(J210-Pin_1)*%
X137608250Y-76867224D03*
%TD*%
D12*
%TO.P,J316,1,Pin_1*%
%TO.N,Net-(J314-Pin_1)*%
X171156500Y-112570000D03*
%TD*%
%TO.P,J209,1,Pin_1*%
%TO.N,M*%
X119138250Y-82185000D03*
%TD*%
D13*
%TO.P,J224,1,1*%
%TO.N,Net-(J201-Pin_1)*%
X137658250Y-122857224D03*
D14*
%TO.P,J224,2,2*%
%TO.N,Net-(J202-Pin_1)*%
X137658250Y-117777224D03*
%TD*%
D12*
%TO.P,J309,1,Pin_1*%
%TO.N,Net-(J303-Pin_1)*%
X171128250Y-77025000D03*
%TD*%
%TO.P,J312,1,Pin_1*%
%TO.N,Net-(J306-Pin_1)*%
X171158250Y-97345000D03*
%TD*%
D13*
%TO.P,J221,1,1*%
%TO.N,Net-(J203-Pin_1)*%
X137628250Y-112837224D03*
D14*
%TO.P,J221,2,2*%
%TO.N,Net-(J204-Pin_1)*%
X137628250Y-107757224D03*
%TD*%
D20*
%TO.P,J226,1,1*%
%TO.N,Net-(J206-Pin_1)*%
X141048250Y-131047224D03*
%TO.P,J226,2,2*%
%TO.N,Net-(J205-Pin_1)*%
X138548250Y-131047224D03*
%TO.P,J226,3,3*%
%TO.N,Net-(J204-Pin_1)*%
X136048250Y-131047224D03*
%TO.P,J226,4,4*%
%TO.N,Net-(J203-Pin_1)*%
X133548250Y-131047224D03*
%TD*%
D12*
%TO.P,J208,1,Pin_1*%
%TO.N,Net-(J208-Pin_1)*%
X119158250Y-87282778D03*
%TD*%
%TO.P,J308,1,Pin_1*%
%TO.N,Net-(J302-Pin_1)*%
X171148250Y-127825000D03*
%TD*%
%TO.P,J203,1,Pin_1*%
%TO.N,Net-(J203-Pin_1)*%
X119168250Y-112661668D03*
%TD*%
D15*
%TO.P,D306,1*%
%TO.N,GNDPWR*%
X161198250Y-109137500D03*
%TO.P,D306,2*%
X159298250Y-109137500D03*
%TO.P,D306,3*%
%TO.N,Net-(J314-Pin_1)*%
X160248250Y-111012500D03*
%TD*%
D10*
%TO.P,R204,1*%
%TO.N,M*%
X129868250Y-79722224D03*
D11*
%TO.P,R204,2*%
%TO.N,Net-(J208-Pin_1)*%
X129868250Y-84802224D03*
%TD*%
D17*
%TO.P,D303,1*%
%TO.N,Net-(J302-Pin_1)*%
X153555750Y-117795000D03*
%TO.P,D303,2*%
%TO.N,GNDPWR*%
X150755750Y-117795000D03*
%TD*%
D20*
%TO.P,J321,1,1*%
%TO.N,Net-(J304-Pin_1)*%
X157095050Y-135824601D03*
%TO.P,J321,2,2*%
%TO.N,Net-(J306-Pin_1)*%
X154595050Y-135824601D03*
%TO.P,J321,3,3*%
%TO.N,Net-(J314-Pin_1)*%
X152095050Y-135824601D03*
%TO.P,J321,4,4*%
%TO.N,Net-(J302-Pin_1)*%
X149595050Y-135824601D03*
%TD*%
D12*
%TO.P,J205,1,Pin_1*%
%TO.N,Net-(J205-Pin_1)*%
X119088250Y-102536112D03*
%TD*%
D13*
%TO.P,J320,1,1*%
%TO.N,Net-(J313-Pin_1)*%
X153448250Y-107655000D03*
D14*
%TO.P,J320,2,2*%
%TO.N,Net-(J314-Pin_1)*%
X153448250Y-112735000D03*
%TD*%
D21*
%TO.N,Net-(J306-Pin_1)*%
X165304251Y-97370999D03*
X162964251Y-97370999D03*
X164124251Y-97370999D03*
X145903251Y-99231999D03*
%TO.N,GNDPWR*%
X148697251Y-83610999D03*
X147681251Y-102914999D03*
X158476251Y-94913999D03*
X160127251Y-94913999D03*
X149647257Y-116951005D03*
X160174251Y-78690999D03*
X159964251Y-108090999D03*
X147681251Y-104311999D03*
X160174251Y-124260999D03*
X147681251Y-85515999D03*
X157841251Y-78657999D03*
X151745251Y-72434999D03*
X150983251Y-73196999D03*
X160381241Y-109150499D03*
X158222251Y-124250999D03*
X149708251Y-118535999D03*
X147808251Y-84372999D03*
%TO.N,Net-(J314-Pin_1)*%
X165584251Y-112540999D03*
X162864251Y-112591092D03*
X164164251Y-112570999D03*
X148189251Y-131489999D03*
%TO.N,Net-(J302-Pin_1)*%
X166130474Y-127824776D03*
X164700473Y-127824777D03*
X162978026Y-127824774D03*
%TO.N,Net-(J304-Pin_1)*%
X163064251Y-82091838D03*
X164284251Y-82100999D03*
X151358053Y-128816801D03*
X156319251Y-116374999D03*
X165594251Y-82080999D03*
X150983251Y-124332999D03*
%TO.N,Net-(J203-Pin_1)*%
X124331250Y-112654224D03*
X127633250Y-112654224D03*
X134618150Y-119766224D03*
X126109250Y-112654224D03*
%TO.N,Net-(J204-Pin_1)*%
X127633250Y-107574224D03*
X126109250Y-107574224D03*
X124458250Y-107574224D03*
%TO.N,Net-(J205-Pin_1)*%
X127887250Y-102494224D03*
X124712250Y-102494224D03*
X140714254Y-106177224D03*
X126363250Y-102494224D03*
X143762250Y-107574224D03*
%TO.N,Net-(J206-Pin_1)*%
X126490248Y-97414224D03*
X128141250Y-97414224D03*
X124712250Y-97414224D03*
%TO.N,M*%
X136142250Y-105161224D03*
X137285250Y-105161224D03*
X124204250Y-81920224D03*
X135888250Y-115194224D03*
X125855250Y-81920224D03*
X134872252Y-115194224D03*
X127633250Y-81920224D03*
%TO.N,Net-(J201-Pin_1)*%
X127125250Y-122814224D03*
X124331250Y-122814224D03*
X125728250Y-122814224D03*
%TO.N,Net-(J202-Pin_1)*%
X127252250Y-117734224D03*
X124331250Y-117734224D03*
X125728250Y-117734224D03*
%TO.N,Net-(J207-Pin_1)*%
X127887250Y-92334224D03*
X126236250Y-92334224D03*
X124712250Y-92334224D03*
%TO.N,Net-(J208-Pin_1)*%
X128141250Y-87254224D03*
X124585250Y-87254224D03*
X126363250Y-87254224D03*
%TO.N,Net-(J301-Pin_1)*%
X164497834Y-122759051D03*
X163264251Y-122740935D03*
X165832549Y-122742573D03*
%TO.N,Net-(J303-Pin_1)*%
X165694251Y-77010999D03*
X164284251Y-77010999D03*
X163094251Y-76980999D03*
%TO.N,Net-(J305-Pin_1)*%
X165474251Y-92260999D03*
X164234251Y-92240999D03*
X163064251Y-92270999D03*
%TO.N,Net-(J313-Pin_1)*%
X162864251Y-107570999D03*
X164304251Y-107570999D03*
X165734251Y-107550999D03*
%TD*%
D22*
%TO.N,Net-(J306-Pin_1)*%
X171164251Y-97370999D02*
X162964251Y-97370999D01*
X160884751Y-97370999D02*
X160254251Y-96740499D01*
X152988251Y-97072999D02*
X153529583Y-97072999D01*
D23*
X148062251Y-97072999D02*
X152988251Y-97072999D01*
D22*
X149932616Y-88529364D02*
X150602251Y-89198999D01*
X150602251Y-94686999D02*
X152988251Y-97072999D01*
X149932616Y-86433634D02*
X149932616Y-88529364D01*
X162964251Y-97370999D02*
X160884751Y-97370999D01*
D23*
X145903251Y-99231999D02*
X148062251Y-97072999D01*
D22*
X150602251Y-89198999D02*
X150602251Y-94686999D01*
%TO.N,GNDPWR*%
X147808251Y-84372999D02*
X147681251Y-84499999D01*
D23*
X158222251Y-124250999D02*
X157714251Y-124250999D01*
X159304251Y-94865499D02*
X158524751Y-94865499D01*
X159001751Y-78675499D02*
X157858751Y-78675499D01*
X161155751Y-109150499D02*
X160381241Y-109150499D01*
D24*
X149708251Y-117011999D02*
X149647257Y-116951005D01*
D22*
X148697251Y-83610999D02*
X148570251Y-83610999D01*
D23*
X158427751Y-94865499D02*
X158270751Y-94865499D01*
D22*
X147681251Y-102406999D02*
X147935251Y-102152999D01*
D23*
X157604751Y-78675499D02*
X157587251Y-78657999D01*
X161143251Y-124250999D02*
X160254251Y-124250999D01*
X157858751Y-78675499D02*
X157841251Y-78657999D01*
X158270751Y-94865499D02*
X158222251Y-94913999D01*
X157841251Y-78657999D02*
X157823751Y-78675499D01*
D24*
X150157257Y-116951005D02*
X149647257Y-116951005D01*
D23*
X160017751Y-78675499D02*
X160000251Y-78657999D01*
X159982751Y-78675499D02*
X159001751Y-78675499D01*
X159243251Y-124250999D02*
X158222251Y-124250999D01*
X159964251Y-108090999D02*
X159285251Y-108769999D01*
D22*
X147681251Y-84499999D02*
X147681251Y-85515999D01*
D23*
X160381241Y-109150499D02*
X159964251Y-108733509D01*
X159285251Y-108769999D02*
X159285251Y-109455604D01*
D22*
X147681251Y-102914999D02*
X147681251Y-102406999D01*
D24*
X149708251Y-118535999D02*
X149708251Y-117011999D01*
D23*
X160127251Y-94913999D02*
X160078751Y-94865499D01*
D22*
X149967251Y-83356999D02*
X148824251Y-83356999D01*
D23*
X160254251Y-124250999D02*
X159243251Y-124250999D01*
D22*
X148824251Y-83356999D02*
X148697251Y-83483999D01*
D24*
X150980251Y-117773999D02*
X150157257Y-116951005D01*
D23*
X161270251Y-94865499D02*
X160175751Y-94865499D01*
D22*
X147935251Y-102152999D02*
X151361251Y-102152999D01*
D23*
X159964251Y-108733509D02*
X159964251Y-108090999D01*
X158476251Y-94913999D02*
X158427751Y-94865499D01*
D22*
X148697251Y-83483999D02*
X148697251Y-83610999D01*
X152888251Y-86277999D02*
X149967251Y-83356999D01*
X151745251Y-72307999D02*
X152888251Y-71164999D01*
D23*
X157823751Y-78675499D02*
X157604751Y-78675499D01*
X160901751Y-78675499D02*
X160017751Y-78675499D01*
X160078751Y-94865499D02*
X159304251Y-94865499D01*
X160000251Y-78657999D02*
X159982751Y-78675499D01*
X158524751Y-94865499D02*
X158476251Y-94913999D01*
D22*
X148570251Y-83610999D02*
X147808251Y-84372999D01*
X154917251Y-86277999D02*
X152888251Y-86277999D01*
D23*
X160175751Y-94865499D02*
X160127251Y-94913999D01*
D22*
X150983251Y-73196999D02*
X150983251Y-73069999D01*
X150983251Y-73069999D02*
X151618251Y-72434999D01*
X147681251Y-104311999D02*
X147681251Y-102914999D01*
X152888251Y-71164999D02*
X153396251Y-71164999D01*
D23*
%TO.N,Net-(J314-Pin_1)*%
X147621753Y-115926023D02*
X147621753Y-130922501D01*
D22*
X151221251Y-105438999D02*
X154161251Y-102498999D01*
X161771344Y-112591092D02*
X160205751Y-111025499D01*
X171164251Y-112570999D02*
X162884344Y-112570999D01*
D23*
X147621753Y-130922501D02*
X148189251Y-131489999D01*
D22*
X162884344Y-112570999D02*
X162864251Y-112591092D01*
X154161251Y-102498999D02*
X154161251Y-102152999D01*
X162864251Y-112591092D02*
X161771344Y-112591092D01*
X151364251Y-112820999D02*
X151221251Y-112677999D01*
D23*
X150726777Y-112820999D02*
X147621753Y-115926023D01*
D22*
X153462917Y-112820999D02*
X151364251Y-112820999D01*
D23*
X151364251Y-112820999D02*
X150726777Y-112820999D01*
D22*
X151221251Y-112677999D02*
X151221251Y-105438999D01*
%TO.N,Net-(J302-Pin_1)*%
X171138691Y-127824770D02*
X166130480Y-127824770D01*
X155698251Y-126232999D02*
X155698251Y-119691999D01*
D23*
X149497351Y-135553999D02*
X153396251Y-131655099D01*
D22*
X162978029Y-127824777D02*
X162978026Y-127824774D01*
X164700473Y-127824777D02*
X166130473Y-127824777D01*
X153523251Y-128407999D02*
X155698251Y-126232999D01*
D23*
X153396251Y-131655099D02*
X153396251Y-128568999D01*
D22*
X166130473Y-127824777D02*
X166130474Y-127824776D01*
X154073812Y-127824770D02*
X153329583Y-128568999D01*
X162978022Y-127824770D02*
X154073812Y-127824770D01*
X164700473Y-127824777D02*
X162978029Y-127824777D01*
X166130480Y-127824770D02*
X166130474Y-127824776D01*
X155698251Y-119691999D02*
X153780251Y-117773999D01*
D23*
X160292882Y-126130650D02*
X160193251Y-126230281D01*
X160193251Y-126230281D02*
X160193251Y-127985999D01*
%TO.N,Net-(J304-Pin_1)*%
X155301251Y-88693999D02*
X155301251Y-99938919D01*
X157717251Y-86277999D02*
X155301251Y-88693999D01*
D22*
X153396251Y-81324999D02*
X153429585Y-81324999D01*
X163085090Y-82070999D02*
X163064251Y-82091838D01*
D23*
X156319251Y-100956919D02*
X156319251Y-116374999D01*
X150983251Y-128441999D02*
X150983251Y-124332999D01*
D22*
X153429585Y-81324999D02*
X157358088Y-85253502D01*
X157358088Y-85253502D02*
X157358088Y-85918836D01*
X161879090Y-82091838D02*
X163064251Y-82091838D01*
X171064251Y-82070999D02*
X163085090Y-82070999D01*
D23*
X151358053Y-128816801D02*
X150983251Y-128441999D01*
D22*
X160320251Y-80532999D02*
X161879090Y-82091838D01*
D23*
X155301251Y-99938919D02*
X156319251Y-100956919D01*
%TO.N,Net-(J203-Pin_1)*%
X132967250Y-118115324D02*
X134618150Y-119766224D01*
D25*
X119164898Y-112654224D02*
X119147595Y-112671527D01*
D23*
X132967250Y-112654224D02*
X132967250Y-118115324D01*
D25*
X137285250Y-112527224D02*
X137158250Y-112654224D01*
X119155588Y-112679520D02*
X123950250Y-112679520D01*
X119147595Y-112671527D02*
X119155588Y-112679520D01*
X137158250Y-112654224D02*
X132967250Y-112654224D01*
X132967250Y-112654224D02*
X119164898Y-112654224D01*
%TO.N,Net-(J204-Pin_1)*%
X137158250Y-107574224D02*
X119148698Y-107574224D01*
X119148698Y-107574224D02*
X119130525Y-107592397D01*
X137285250Y-107447224D02*
X137158250Y-107574224D01*
%TO.N,Net-(J205-Pin_1)*%
X141704489Y-132631524D02*
X143762250Y-130573763D01*
X119068439Y-102516298D02*
X138076218Y-102516298D01*
X140558250Y-104998330D02*
X140558250Y-105640224D01*
X138548250Y-131047224D02*
X140132550Y-132631524D01*
X140132550Y-132631524D02*
X141704489Y-132631524D01*
X140714254Y-105796228D02*
X140714254Y-106177224D01*
X119068250Y-102516109D02*
X119068439Y-102516298D01*
X140558250Y-105640224D02*
X140714254Y-105796228D01*
X138076218Y-102516298D02*
X140558250Y-104998330D01*
X143762250Y-130573763D02*
X143762250Y-107574224D01*
D23*
%TO.N,Net-(J206-Pin_1)*%
X141048250Y-131047224D02*
X141048250Y-122607224D01*
X141048250Y-122607224D02*
X142184258Y-121471216D01*
X142184258Y-102186232D02*
X137285250Y-97287224D01*
D25*
X119119029Y-97434548D02*
X119119168Y-97434687D01*
X137285250Y-97287224D02*
X137158250Y-97414224D01*
X137158250Y-97414224D02*
X119139353Y-97414224D01*
D23*
X142184258Y-121471216D02*
X142184258Y-102186232D01*
D25*
X119119168Y-97434687D02*
X123950250Y-97434687D01*
X119139353Y-97414224D02*
X119119029Y-97434548D01*
%TO.N,M*%
X119461094Y-81904224D02*
X119173791Y-82191527D01*
X137285250Y-82047224D02*
X137142250Y-81904224D01*
X137142250Y-81904224D02*
X119461094Y-81904224D01*
X137591977Y-105161224D02*
X139438250Y-107007497D01*
X138891250Y-115194224D02*
X134872252Y-115194224D01*
X129665250Y-105161224D02*
X137591977Y-105161224D01*
X139438250Y-114647224D02*
X138891250Y-115194224D01*
X139438250Y-107007497D02*
X139438250Y-114647224D01*
D26*
X123948577Y-82191527D02*
X119173791Y-82191527D01*
X123965880Y-82174224D02*
X123948577Y-82191527D01*
D25*
%TO.N,Net-(J210-Pin_1)*%
X137285250Y-76464224D02*
X137285250Y-76967224D01*
X137278250Y-76457224D02*
X137285250Y-76464224D01*
X136620273Y-77115201D02*
X137278250Y-76457224D01*
X119128986Y-77115201D02*
X136620273Y-77115201D01*
%TO.N,Net-(J201-Pin_1)*%
X137285250Y-122687224D02*
X137158250Y-122814224D01*
X119152163Y-122814224D02*
X119150616Y-122815771D01*
X137158250Y-122814224D02*
X119152163Y-122814224D01*
%TO.N,Net-(J202-Pin_1)*%
X127760250Y-117734224D02*
X119142641Y-117734224D01*
X119142641Y-117734224D02*
X119133772Y-117743093D01*
%TO.N,Net-(J207-Pin_1)*%
X137158250Y-92334224D02*
X119137496Y-92334224D01*
X137285250Y-92207224D02*
X137158250Y-92334224D01*
X119137496Y-92334224D02*
X119132933Y-92338787D01*
%TO.N,Net-(J208-Pin_1)*%
X137285250Y-87127224D02*
X137158250Y-87254224D01*
X137158250Y-87254224D02*
X119182732Y-87254224D01*
X119182732Y-87254224D02*
X119150929Y-87286027D01*
D22*
%TO.N,Net-(J301-Pin_1)*%
X163267816Y-122744500D02*
X163264251Y-122740935D01*
D27*
X160964251Y-121038478D02*
X160964251Y-119020999D01*
X161763684Y-121837911D02*
X160964251Y-121038478D01*
X162362132Y-122213930D02*
X162041723Y-122059634D01*
X162041723Y-122059634D02*
X161763684Y-121837911D01*
X163264251Y-122740935D02*
X162889137Y-122740935D01*
D22*
X171130163Y-122744500D02*
X163267816Y-122744500D01*
D27*
X162889137Y-122740935D02*
X162362132Y-122213930D01*
D22*
%TO.N,Net-(J303-Pin_1)*%
X171172370Y-76994488D02*
X163107740Y-76994488D01*
D28*
X158222251Y-97170075D02*
X156759251Y-95707075D01*
D22*
X160964251Y-85018030D02*
X160964251Y-86120999D01*
X153396251Y-76002499D02*
X153396251Y-77401198D01*
D28*
X160964251Y-116520999D02*
X157827251Y-113383999D01*
X156759251Y-89628943D02*
X160267195Y-86120999D01*
X156759251Y-95707075D02*
X156759251Y-89628943D01*
X158222251Y-107771075D02*
X158222251Y-97170075D01*
D22*
X153396251Y-77401198D02*
X160770583Y-84775530D01*
X160267195Y-86120999D02*
X160964251Y-86120999D01*
D28*
X157827251Y-113383999D02*
X157827251Y-108166075D01*
X160964251Y-101270999D02*
X160162251Y-101270999D01*
X157827251Y-108166075D02*
X158222251Y-107771075D01*
D22*
X163107740Y-76994488D02*
X163094251Y-76980999D01*
X163094251Y-76980999D02*
X163080762Y-76994488D01*
D28*
X158222251Y-99330999D02*
X158222251Y-98596999D01*
X160162251Y-101270999D02*
X158222251Y-99330999D01*
D22*
%TO.N,Net-(J305-Pin_1)*%
X163064251Y-92270999D02*
X162430957Y-92270999D01*
X160964251Y-90804293D02*
X160964251Y-88620999D01*
X162430957Y-92270999D02*
X160964251Y-90804293D01*
X170964251Y-92270999D02*
X163064251Y-92270999D01*
D27*
%TO.N,Net-(J313-Pin_1)*%
X162490957Y-107570999D02*
X160964251Y-106044293D01*
D22*
X171164251Y-107570999D02*
X162864251Y-107570999D01*
X160964251Y-106044293D02*
X160964251Y-103770999D01*
%TD*%
M02*
