%TF.GenerationSoftware,KiCad,Pcbnew,7.0.10*%
%TF.CreationDate,2024-07-22T08:22:24-04:00*%
%TF.ProjectId,12.X.1 - PLC Connector Combined,31322e58-2e31-4202-9d20-504c4320436f,rev?*%
%TF.SameCoordinates,Original*%
%TF.FileFunction,Drillmap*%
%TF.FilePolarity,Positive*%
%FSLAX45Y45*%
G04 Gerber Fmt 4.5, Leading zero omitted, Abs format (unit mm)*
G04 Created by KiCad (PCBNEW 7.0.10) date 2024-07-22 08:22:24*
%MOMM*%
%LPD*%
G01*
G04 APERTURE LIST*
%ADD10C,0.250000*%
%ADD11C,0.200000*%
%ADD12C,0.100000*%
%ADD13C,0.130000*%
G04 APERTURE END LIST*
D10*
X11611000Y-11142699D02*
X12736000Y-11142699D01*
X17485999Y-7651000D02*
G75*
G03*
X17411000Y-7576000I-74999J1D01*
G01*
X11536000Y-8781699D02*
G75*
G03*
X11611000Y-8856699I75000J0D01*
G01*
X11536000Y-9797699D02*
X11536000Y-9693699D01*
X11611000Y-11650699D02*
X12736000Y-11650699D01*
X11536000Y-12337699D02*
G75*
G03*
X11611000Y-12412699I75000J0D01*
G01*
X12886000Y-7332699D02*
G75*
G03*
X12811000Y-7407699I0J-75000D01*
G01*
X12811000Y-7511699D02*
X12811000Y-7407699D01*
X12736000Y-9872699D02*
X11611000Y-9872699D01*
X12811000Y-8931699D02*
G75*
G03*
X12736000Y-8856699I-75000J0D01*
G01*
X11611000Y-10634699D02*
G75*
G03*
X11536000Y-10709699I0J-75000D01*
G01*
X12736000Y-9110699D02*
G75*
G03*
X12811000Y-9035699I0J75000D01*
G01*
X17486000Y-12223000D02*
X17486000Y-12327000D01*
X16211000Y-8413000D02*
X16211000Y-9025000D01*
X12811000Y-11471699D02*
G75*
G03*
X12736000Y-11396699I-75000J0D01*
G01*
X11536000Y-11321699D02*
G75*
G03*
X11611000Y-11396699I75000J0D01*
G01*
X14511000Y-7407699D02*
G75*
G03*
X14436000Y-7332699I-75000J0D01*
G01*
X11611000Y-10126699D02*
X12736000Y-10126699D01*
X12736000Y-11650699D02*
G75*
G03*
X12811000Y-11575699I0J75000D01*
G01*
X17411000Y-7829999D02*
G75*
G03*
X17486000Y-7755000I0J75000D01*
G01*
X12811000Y-9947699D02*
G75*
G03*
X12736000Y-9872699I-75000J0D01*
G01*
X17411000Y-9353999D02*
G75*
G03*
X17486000Y-9279000I0J75000D01*
G01*
X16286000Y-10624000D02*
X17411000Y-10624000D01*
X17485999Y-11207000D02*
G75*
G03*
X17411000Y-11132000I-74999J1D01*
G01*
X17411000Y-12909999D02*
G75*
G03*
X17486000Y-12835000I0J75000D01*
G01*
X11536000Y-10305699D02*
G75*
G03*
X11611000Y-10380699I75000J0D01*
G01*
X14586000Y-6676000D02*
X16136000Y-6676000D01*
X12811000Y-10455699D02*
G75*
G03*
X12736000Y-10380699I-75000J0D01*
G01*
X17411000Y-12402000D02*
X16286000Y-12402000D01*
X11536000Y-7765699D02*
G75*
G03*
X11611000Y-7840699I75000J0D01*
G01*
X16211000Y-10953000D02*
X16211000Y-11057000D01*
X12736000Y-8348699D02*
X11611000Y-8348699D01*
X17411000Y-7830000D02*
X16286000Y-7830000D01*
X12736000Y-12158699D02*
G75*
G03*
X12811000Y-12083699I0J75000D01*
G01*
X12811000Y-8423699D02*
G75*
G03*
X12736000Y-8348699I-75000J0D01*
G01*
X11611000Y-7586699D02*
G75*
G03*
X11536000Y-7661699I0J-75000D01*
G01*
X16136000Y-13910000D02*
X14586000Y-13910000D01*
X16136000Y-13909999D02*
G75*
G03*
X16211000Y-13835000I0J75000D01*
G01*
X16286000Y-9608000D02*
X17411000Y-9608000D01*
X16286000Y-12909999D02*
G75*
G03*
X16211000Y-12985000I0J-75000D01*
G01*
X16286000Y-11132000D02*
X17411000Y-11132000D01*
X17486000Y-7651000D02*
X17486000Y-7755000D01*
X16211000Y-7905000D02*
X16211000Y-8009000D01*
X11611000Y-10126699D02*
G75*
G03*
X11536000Y-10201699I0J-75000D01*
G01*
X17486000Y-11207000D02*
X17486000Y-11311000D01*
X16286000Y-12656000D02*
X17411000Y-12656000D01*
X16211000Y-12477000D02*
X16211000Y-12581000D01*
X12811000Y-13391699D02*
G75*
G03*
X12886000Y-13466699I75000J0D01*
G01*
X11536000Y-9289699D02*
G75*
G03*
X11611000Y-9364699I75000J0D01*
G01*
X12811000Y-8019699D02*
X12811000Y-7915699D01*
X12736000Y-9618699D02*
G75*
G03*
X12811000Y-9543699I0J75000D01*
G01*
X12811000Y-10051699D02*
X12811000Y-9947699D01*
X16211000Y-12985000D02*
X16211000Y-13835000D01*
X12811000Y-11979699D02*
G75*
G03*
X12736000Y-11904699I-75000J0D01*
G01*
X14436000Y-13466699D02*
X12886000Y-13466699D01*
X12736000Y-8856699D02*
X11611000Y-8856699D01*
X17485999Y-12223000D02*
G75*
G03*
X17411000Y-12148000I-74999J1D01*
G01*
X11536000Y-12337699D02*
X11536000Y-12233699D01*
X16286000Y-9100000D02*
X17411000Y-9100000D01*
X11536000Y-8781699D02*
X11536000Y-8677699D01*
X16286000Y-7576000D02*
X17411000Y-7576000D01*
X11611000Y-8094699D02*
X12736000Y-8094699D01*
X11536000Y-10813699D02*
X11536000Y-10709699D01*
X16286000Y-10877999D02*
G75*
G03*
X16211000Y-10953000I0J-75000D01*
G01*
X12736000Y-10888699D02*
X11611000Y-10888699D01*
X17411000Y-10878000D02*
X16286000Y-10878000D01*
X11611000Y-12158699D02*
G75*
G03*
X11536000Y-12233699I0J-75000D01*
G01*
X12811000Y-9439699D02*
G75*
G03*
X12736000Y-9364699I-75000J0D01*
G01*
X14511000Y-7407699D02*
X14511000Y-6751000D01*
X16286000Y-7829999D02*
G75*
G03*
X16211000Y-7905000I0J-75000D01*
G01*
X11611000Y-7586699D02*
X12736000Y-7586699D01*
X17411000Y-9861999D02*
G75*
G03*
X17486000Y-9787000I0J75000D01*
G01*
X14586000Y-6675999D02*
G75*
G03*
X14511000Y-6751000I0J-75000D01*
G01*
X17486000Y-9175000D02*
X17486000Y-9279000D01*
X17485999Y-9683000D02*
G75*
G03*
X17411000Y-9608000I-74999J1D01*
G01*
X11536000Y-9289699D02*
X11536000Y-9185699D01*
X12736000Y-8602699D02*
G75*
G03*
X12811000Y-8527699I0J75000D01*
G01*
X17486000Y-12731000D02*
X17486000Y-12835000D01*
X16286000Y-12148000D02*
X17411000Y-12148000D01*
X16286000Y-9861999D02*
G75*
G03*
X16211000Y-9937000I0J-75000D01*
G01*
X12811000Y-12487699D02*
G75*
G03*
X12736000Y-12412699I-75000J0D01*
G01*
X12811000Y-9543699D02*
X12811000Y-9439699D01*
X11611000Y-10634699D02*
X12736000Y-10634699D01*
X17485999Y-10699000D02*
G75*
G03*
X17411000Y-10624000I-74999J1D01*
G01*
X12811000Y-10963699D02*
G75*
G03*
X12736000Y-10888699I-75000J0D01*
G01*
X11536000Y-7765699D02*
X11536000Y-7661699D01*
X12811000Y-11067699D02*
X12811000Y-10963699D01*
X11536000Y-11829699D02*
G75*
G03*
X11611000Y-11904699I75000J0D01*
G01*
X17485999Y-9175000D02*
G75*
G03*
X17411000Y-9100000I-74999J1D01*
G01*
X16210999Y-10549000D02*
G75*
G03*
X16286000Y-10624000I75001J1D01*
G01*
X16210999Y-6751000D02*
G75*
G03*
X16136000Y-6676000I-74999J1D01*
G01*
X17411000Y-12910000D02*
X16286000Y-12910000D01*
X17411000Y-8337999D02*
G75*
G03*
X17486000Y-8263000I0J75000D01*
G01*
X17411000Y-11386000D02*
X16286000Y-11386000D01*
X12736000Y-11396699D02*
X11611000Y-11396699D01*
X16210999Y-9533000D02*
G75*
G03*
X16286000Y-9608000I75001J1D01*
G01*
X14510999Y-13835000D02*
G75*
G03*
X14586000Y-13910000I75001J1D01*
G01*
X17485999Y-12731000D02*
G75*
G03*
X17411000Y-12656000I-74999J1D01*
G01*
X14511000Y-13835000D02*
X14511000Y-13391699D01*
X16286000Y-8337999D02*
G75*
G03*
X16211000Y-8413000I0J-75000D01*
G01*
X16286000Y-11385999D02*
G75*
G03*
X16211000Y-11461000I0J-75000D01*
G01*
X11536000Y-11321699D02*
X11536000Y-11217699D01*
X12736000Y-9364699D02*
X11611000Y-9364699D01*
X12811000Y-12083699D02*
X12811000Y-11979699D01*
X12811000Y-7915699D02*
G75*
G03*
X12736000Y-7840699I-75000J0D01*
G01*
X12886000Y-7332699D02*
X14436000Y-7332699D01*
X11611000Y-11142699D02*
G75*
G03*
X11536000Y-11217699I0J-75000D01*
G01*
X12736000Y-10380699D02*
X11611000Y-10380699D01*
X16211000Y-9429000D02*
X16211000Y-9533000D01*
X11611000Y-9110699D02*
X12736000Y-9110699D01*
X11611000Y-8094699D02*
G75*
G03*
X11536000Y-8169699I0J-75000D01*
G01*
X16286000Y-9353999D02*
G75*
G03*
X16211000Y-9429000I0J-75000D01*
G01*
X12811000Y-9035699D02*
X12811000Y-8931699D01*
X17411000Y-8338000D02*
X16286000Y-8338000D01*
X12811000Y-13391699D02*
X12811000Y-12487699D01*
X11536000Y-8273699D02*
G75*
G03*
X11611000Y-8348699I75000J0D01*
G01*
X12736000Y-10634699D02*
G75*
G03*
X12811000Y-10559699I0J75000D01*
G01*
X12811000Y-11575699D02*
X12811000Y-11471699D01*
X16211000Y-11461000D02*
X16211000Y-12073000D01*
X11611000Y-9618699D02*
G75*
G03*
X11536000Y-9693699I0J-75000D01*
G01*
X11536000Y-9797699D02*
G75*
G03*
X11611000Y-9872699I75000J0D01*
G01*
X12736000Y-7586699D02*
G75*
G03*
X12811000Y-7511699I0J75000D01*
G01*
X17411000Y-10877999D02*
G75*
G03*
X17486000Y-10803000I0J75000D01*
G01*
X16210999Y-11057000D02*
G75*
G03*
X16286000Y-11132000I75001J1D01*
G01*
X12736000Y-11904699D02*
X11611000Y-11904699D01*
X17411000Y-9354000D02*
X16286000Y-9354000D01*
X12811000Y-8527699D02*
X12811000Y-8423699D01*
X14436000Y-13466699D02*
G75*
G03*
X14511000Y-13391699I0J75000D01*
G01*
X17485999Y-8159000D02*
G75*
G03*
X17411000Y-8084000I-74999J1D01*
G01*
X11611000Y-11650699D02*
G75*
G03*
X11536000Y-11725699I0J-75000D01*
G01*
X16210999Y-9025000D02*
G75*
G03*
X16286000Y-9100000I75001J1D01*
G01*
X16211000Y-6751000D02*
X16211000Y-7501000D01*
X17411000Y-9862000D02*
X16286000Y-9862000D01*
X17486000Y-9683000D02*
X17486000Y-9787000D01*
X11611000Y-8602699D02*
X12736000Y-8602699D01*
X12736000Y-11142699D02*
G75*
G03*
X12811000Y-11067699I0J75000D01*
G01*
X12811000Y-10559699D02*
X12811000Y-10455699D01*
X12736000Y-12412699D02*
X11611000Y-12412699D01*
X11536000Y-11829699D02*
X11536000Y-11725699D01*
X11536000Y-10305699D02*
X11536000Y-10201699D01*
X11611000Y-8602699D02*
G75*
G03*
X11536000Y-8677699I0J-75000D01*
G01*
X16211000Y-9937000D02*
X16211000Y-10549000D01*
X16286000Y-8084000D02*
X17411000Y-8084000D01*
X11611000Y-9110699D02*
G75*
G03*
X11536000Y-9185699I0J-75000D01*
G01*
X17486000Y-8159000D02*
X17486000Y-8263000D01*
X17411000Y-11385999D02*
G75*
G03*
X17486000Y-11311000I0J75000D01*
G01*
X12736000Y-7840699D02*
X11611000Y-7840699D01*
X16286000Y-12401999D02*
G75*
G03*
X16211000Y-12477000I0J-75000D01*
G01*
X11611000Y-12158699D02*
X12736000Y-12158699D01*
X12736000Y-8094699D02*
G75*
G03*
X12811000Y-8019699I0J75000D01*
G01*
X11536000Y-10813699D02*
G75*
G03*
X11611000Y-10888699I75000J0D01*
G01*
X11536000Y-8273699D02*
X11536000Y-8169699D01*
X16210999Y-12073000D02*
G75*
G03*
X16286000Y-12148000I75001J1D01*
G01*
X11611000Y-9618699D02*
X12736000Y-9618699D01*
X16210999Y-7501000D02*
G75*
G03*
X16286000Y-7576000I75001J1D01*
G01*
X16210999Y-8009000D02*
G75*
G03*
X16286000Y-8084000I75001J1D01*
G01*
X12736000Y-10126699D02*
G75*
G03*
X12811000Y-10051699I0J75000D01*
G01*
X16210999Y-12581000D02*
G75*
G03*
X16286000Y-12656000I75001J1D01*
G01*
X17486000Y-10699000D02*
X17486000Y-10803000D01*
X17411000Y-12401999D02*
G75*
G03*
X17486000Y-12327000I0J75000D01*
G01*
D11*
D12*
X12400425Y-8172022D02*
X12440425Y-8212022D01*
X12440425Y-8172022D02*
X12400425Y-8212022D01*
X12413125Y-11245422D02*
X12453125Y-11285422D01*
X12453125Y-11245422D02*
X12413125Y-11285422D01*
X12413125Y-11753422D02*
X12453125Y-11793422D01*
X12453125Y-11753422D02*
X12413125Y-11793422D01*
X12413125Y-12261422D02*
X12453125Y-12301422D01*
X12453125Y-12261422D02*
X12413125Y-12301422D01*
X12425825Y-10737422D02*
X12465825Y-10777422D01*
X12465825Y-10737422D02*
X12425825Y-10777422D01*
X12438525Y-8705422D02*
X12478525Y-8745422D01*
X12478525Y-8705422D02*
X12438525Y-8745422D01*
X12451225Y-9213422D02*
X12491225Y-9253422D01*
X12491225Y-9213422D02*
X12451225Y-9253422D01*
X12451225Y-9721422D02*
X12491225Y-9761422D01*
X12491225Y-9721422D02*
X12451225Y-9761422D01*
X12451225Y-10229422D02*
X12491225Y-10269422D01*
X12491225Y-10229422D02*
X12451225Y-10269422D01*
X12552825Y-11753422D02*
X12592825Y-11793422D01*
X12592825Y-11753422D02*
X12552825Y-11793422D01*
X12552825Y-12261422D02*
X12592825Y-12301422D01*
X12592825Y-12261422D02*
X12552825Y-12301422D01*
X12565525Y-8172022D02*
X12605525Y-8212022D01*
X12605525Y-8172022D02*
X12565525Y-8212022D01*
X12590925Y-10737422D02*
X12630925Y-10777422D01*
X12630925Y-10737422D02*
X12590925Y-10777422D01*
X12590925Y-11245422D02*
X12630925Y-11285422D01*
X12630925Y-11245422D02*
X12590925Y-11285422D01*
X12603625Y-9213422D02*
X12643625Y-9253422D01*
X12643625Y-9213422D02*
X12603625Y-9253422D01*
X12616325Y-8705422D02*
X12656325Y-8745422D01*
X12656325Y-8705422D02*
X12616325Y-8745422D01*
X12616325Y-10229422D02*
X12656325Y-10269422D01*
X12656325Y-10229422D02*
X12616325Y-10269422D01*
X12629025Y-9721422D02*
X12669025Y-9761422D01*
X12669025Y-9721422D02*
X12629025Y-9761422D01*
X12692525Y-12261422D02*
X12732525Y-12301422D01*
X12732525Y-12261422D02*
X12692525Y-12301422D01*
X12705225Y-11753422D02*
X12745225Y-11793422D01*
X12745225Y-11753422D02*
X12705225Y-11793422D01*
X12743325Y-8172022D02*
X12783325Y-8212022D01*
X12783325Y-8172022D02*
X12743325Y-8212022D01*
X12743325Y-10737422D02*
X12783325Y-10777422D01*
X12783325Y-10737422D02*
X12743325Y-10777422D01*
X12743325Y-11245422D02*
X12783325Y-11285422D01*
X12783325Y-11245422D02*
X12743325Y-11285422D01*
X12768725Y-9213422D02*
X12808725Y-9253422D01*
X12808725Y-9213422D02*
X12768725Y-9253422D01*
X12768725Y-10229422D02*
X12808725Y-10269422D01*
X12808725Y-10229422D02*
X12768725Y-10269422D01*
X12794125Y-8705422D02*
X12834125Y-8745422D01*
X12834125Y-8705422D02*
X12794125Y-8745422D01*
X12794125Y-9721422D02*
X12834125Y-9761422D01*
X12834125Y-9721422D02*
X12794125Y-9761422D01*
X13441815Y-11956622D02*
X13481815Y-11996622D01*
X13481815Y-11956622D02*
X13441815Y-11996622D01*
X13467225Y-11499422D02*
X13507225Y-11539422D01*
X13507225Y-11499422D02*
X13467225Y-11539422D01*
X13568825Y-11499422D02*
X13608825Y-11539422D01*
X13608825Y-11499422D02*
X13568825Y-11539422D01*
X13594225Y-10496122D02*
X13634225Y-10536122D01*
X13634225Y-10496122D02*
X13594225Y-10536122D01*
X13708525Y-10496122D02*
X13748525Y-10536122D01*
X13748525Y-10496122D02*
X13708525Y-10536122D01*
X14051425Y-10597722D02*
X14091425Y-10637722D01*
X14091425Y-10597722D02*
X14051425Y-10637722D01*
X14356225Y-10737422D02*
X14396225Y-10777422D01*
X14396225Y-10737422D02*
X14356225Y-10777422D01*
X14570325Y-9903200D02*
X14610325Y-9943200D01*
X14610325Y-9903200D02*
X14570325Y-9943200D01*
X14748125Y-8531600D02*
X14788125Y-8571600D01*
X14788125Y-8531600D02*
X14748125Y-8571600D01*
X14748125Y-10271500D02*
X14788125Y-10311500D01*
X14788125Y-10271500D02*
X14748125Y-10311500D01*
X14748125Y-10411200D02*
X14788125Y-10451200D01*
X14788125Y-10411200D02*
X14748125Y-10451200D01*
X14760825Y-8417300D02*
X14800825Y-8457300D01*
X14800825Y-8417300D02*
X14760825Y-8457300D01*
X14798925Y-13129000D02*
X14838925Y-13169000D01*
X14838925Y-13129000D02*
X14798925Y-13169000D01*
X14849725Y-8341100D02*
X14889725Y-8381100D01*
X14889725Y-8341100D02*
X14849725Y-8381100D01*
X14944726Y-11675100D02*
X14984726Y-11715100D01*
X14984726Y-11675100D02*
X14944726Y-11715100D01*
X14950825Y-11833600D02*
X14990825Y-11873600D01*
X14990825Y-11833600D02*
X14950825Y-11873600D01*
X15078325Y-7299700D02*
X15118325Y-7339700D01*
X15118325Y-7299700D02*
X15078325Y-7339700D01*
X15078325Y-12413300D02*
X15118325Y-12453300D01*
X15118325Y-12413300D02*
X15078325Y-12453300D01*
X15115805Y-12861680D02*
X15155805Y-12901680D01*
X15155805Y-12861680D02*
X15115805Y-12901680D01*
X15154525Y-7223500D02*
X15194525Y-7263500D01*
X15194525Y-7223500D02*
X15154525Y-7263500D01*
X15611925Y-11617500D02*
X15651925Y-11657500D01*
X15651925Y-11617500D02*
X15611925Y-11657500D01*
X15764125Y-7845800D02*
X15804125Y-7885800D01*
X15804125Y-7845800D02*
X15764125Y-7885800D01*
X15802225Y-12405100D02*
X15842225Y-12445100D01*
X15842225Y-12405100D02*
X15802225Y-12445100D01*
X15827625Y-9471400D02*
X15867625Y-9511400D01*
X15867625Y-9471400D02*
X15827625Y-9511400D01*
X15976425Y-10789100D02*
X16016425Y-10829100D01*
X16016425Y-10789100D02*
X15976425Y-10829100D01*
X15992725Y-9471400D02*
X16032725Y-9511400D01*
X16032725Y-9471400D02*
X15992725Y-9511400D01*
X15997425Y-7849100D02*
X16037425Y-7889100D01*
X16037425Y-7849100D02*
X15997425Y-7889100D01*
X15997425Y-12406100D02*
X16037425Y-12446100D01*
X16037425Y-12406100D02*
X15997425Y-12446100D01*
X16018124Y-10895050D02*
X16058124Y-10935050D01*
X16058124Y-10895050D02*
X16018124Y-10935050D01*
X16266425Y-10737100D02*
X16306425Y-10777100D01*
X16306425Y-10737100D02*
X16266425Y-10777100D01*
X16266425Y-11239109D02*
X16306425Y-11279109D01*
X16306425Y-11239109D02*
X16266425Y-11279109D01*
X16276425Y-9717100D02*
X16316425Y-9757100D01*
X16316425Y-9717100D02*
X16276425Y-9757100D01*
X16277803Y-12762477D02*
X16317803Y-12802477D01*
X16317803Y-12762477D02*
X16277803Y-12802477D01*
X16286425Y-8189184D02*
X16326425Y-8229184D01*
X16326425Y-8189184D02*
X16286425Y-8229184D01*
X16286425Y-9207100D02*
X16326425Y-9247100D01*
X16326425Y-9207100D02*
X16286425Y-9247100D01*
X16289425Y-7678100D02*
X16329425Y-7718100D01*
X16329425Y-7678100D02*
X16289425Y-7718100D01*
X16306425Y-12254093D02*
X16346425Y-12294093D01*
X16346425Y-12254093D02*
X16306425Y-12294093D01*
X16392425Y-9717100D02*
X16432425Y-9757100D01*
X16432425Y-9717100D02*
X16392425Y-9757100D01*
X16396425Y-11237100D02*
X16436425Y-11277100D01*
X16436425Y-11237100D02*
X16396425Y-11277100D01*
X16403425Y-9204100D02*
X16443425Y-9244100D01*
X16443425Y-9204100D02*
X16403425Y-9244100D01*
X16408425Y-7681100D02*
X16448425Y-7721100D01*
X16448425Y-7681100D02*
X16408425Y-7721100D01*
X16408425Y-8190100D02*
X16448425Y-8230100D01*
X16448425Y-8190100D02*
X16408425Y-8230100D01*
X16410425Y-10737100D02*
X16450425Y-10777100D01*
X16450425Y-10737100D02*
X16410425Y-10777100D01*
X16429783Y-12255905D02*
X16469783Y-12295905D01*
X16469783Y-12255905D02*
X16429783Y-12295905D01*
X16450047Y-12762478D02*
X16490047Y-12802478D01*
X16490047Y-12762478D02*
X16450047Y-12802478D01*
X16510425Y-9717100D02*
X16550425Y-9757100D01*
X16550425Y-9717100D02*
X16510425Y-9757100D01*
X16527425Y-9206100D02*
X16567425Y-9246100D01*
X16567425Y-9206100D02*
X16527425Y-9246100D01*
X16538425Y-11234100D02*
X16578425Y-11274100D01*
X16578425Y-11234100D02*
X16538425Y-11274100D01*
X16539425Y-8188100D02*
X16579425Y-8228100D01*
X16579425Y-8188100D02*
X16539425Y-8228100D01*
X16549425Y-7681100D02*
X16589425Y-7721100D01*
X16589425Y-7681100D02*
X16549425Y-7721100D01*
X16553425Y-10735100D02*
X16593425Y-10775100D01*
X16593425Y-10735100D02*
X16553425Y-10775100D01*
X16563255Y-12254257D02*
X16603255Y-12294257D01*
X16603255Y-12254257D02*
X16563255Y-12294257D01*
X16593047Y-12762478D02*
X16633047Y-12802478D01*
X16633047Y-12762478D02*
X16593047Y-12802478D01*
X13013825Y-11525222D02*
G75*
G03*
X12933825Y-11525222I-40000J0D01*
G01*
X12933825Y-11525222D02*
G75*
G03*
X13013825Y-11525222I40000J0D01*
G01*
X13013825Y-12033222D02*
G75*
G03*
X12933825Y-12033222I-40000J0D01*
G01*
X12933825Y-12033222D02*
G75*
G03*
X13013825Y-12033222I40000J0D01*
G01*
X13017825Y-8994222D02*
G75*
G03*
X12937825Y-8994222I-40000J0D01*
G01*
X12937825Y-8994222D02*
G75*
G03*
X13017825Y-8994222I40000J0D01*
G01*
X13017825Y-9502222D02*
G75*
G03*
X12937825Y-9502222I-40000J0D01*
G01*
X12937825Y-9502222D02*
G75*
G03*
X13017825Y-9502222I40000J0D01*
G01*
X13017825Y-10523722D02*
G75*
G03*
X12937825Y-10523722I-40000J0D01*
G01*
X12937825Y-10523722D02*
G75*
G03*
X13017825Y-10523722I40000J0D01*
G01*
X13017825Y-11031722D02*
G75*
G03*
X12937825Y-11031722I-40000J0D01*
G01*
X12937825Y-11031722D02*
G75*
G03*
X13017825Y-11031722I40000J0D01*
G01*
X13026825Y-7972222D02*
G75*
G03*
X12946825Y-7972222I-40000J0D01*
G01*
X12946825Y-7972222D02*
G75*
G03*
X13026825Y-7972222I40000J0D01*
G01*
X13026825Y-8480222D02*
G75*
G03*
X12946825Y-8480222I-40000J0D01*
G01*
X12946825Y-8480222D02*
G75*
G03*
X13026825Y-8480222I40000J0D01*
G01*
X13354825Y-13055192D02*
X13354825Y-13154252D01*
X13305295Y-13104722D02*
X13404355Y-13104722D01*
X13604825Y-13055192D02*
X13604825Y-13154252D01*
X13555295Y-13104722D02*
X13654355Y-13104722D01*
X13854825Y-13055192D02*
X13854825Y-13154252D01*
X13805295Y-13104722D02*
X13904355Y-13104722D01*
X14104825Y-13055192D02*
X14104825Y-13154252D01*
X14055295Y-13104722D02*
X14154355Y-13104722D01*
X14959505Y-13532930D02*
X14959505Y-13631990D01*
X14909975Y-13582460D02*
X15009035Y-13582460D01*
X15209505Y-13532930D02*
X15209505Y-13631990D01*
X15159975Y-13582460D02*
X15259035Y-13582460D01*
X15459505Y-13532930D02*
X15459505Y-13631990D01*
X15409975Y-13582460D02*
X15509035Y-13582460D01*
X15709505Y-13532930D02*
X15709505Y-13631990D01*
X15659975Y-13582460D02*
X15759035Y-13582460D01*
D13*
X13806787Y-7732685D02*
X13806787Y-7640760D01*
X13714863Y-7640760D01*
X13714863Y-7732685D01*
X13806787Y-7732685D01*
X13806787Y-8240685D02*
X13806787Y-8148760D01*
X13714863Y-8148760D01*
X13714863Y-8240685D01*
X13806787Y-8240685D01*
X13808787Y-8753685D02*
X13808787Y-8661760D01*
X13716863Y-8661760D01*
X13716863Y-8753685D01*
X13808787Y-8753685D01*
X13808787Y-9261685D02*
X13808787Y-9169760D01*
X13716863Y-9169760D01*
X13716863Y-9261685D01*
X13808787Y-9261685D01*
X13808787Y-10821685D02*
X13808787Y-10729760D01*
X13716863Y-10729760D01*
X13716863Y-10821685D01*
X13808787Y-10821685D01*
X13808787Y-11329685D02*
X13808787Y-11237760D01*
X13716863Y-11237760D01*
X13716863Y-11329685D01*
X13808787Y-11329685D01*
X13811787Y-9786185D02*
X13811787Y-9694260D01*
X13719863Y-9694260D01*
X13719863Y-9786185D01*
X13811787Y-9786185D01*
X13811787Y-10294185D02*
X13811787Y-10202260D01*
X13719863Y-10202260D01*
X13719863Y-10294185D01*
X13811787Y-10294185D01*
X13811787Y-11823685D02*
X13811787Y-11731760D01*
X13719863Y-11731760D01*
X13719863Y-11823685D01*
X13811787Y-11823685D01*
X13811787Y-12331685D02*
X13811787Y-12239760D01*
X13719863Y-12239760D01*
X13719863Y-12331685D01*
X13811787Y-12331685D01*
X15387787Y-12405962D02*
X15387787Y-12314038D01*
X15295863Y-12314038D01*
X15295863Y-12405962D01*
X15387787Y-12405962D01*
X15387787Y-12913962D02*
X15387787Y-12822038D01*
X15295863Y-12822038D01*
X15295863Y-12913962D01*
X15387787Y-12913962D01*
X15390787Y-10811462D02*
X15390787Y-10719538D01*
X15298863Y-10719538D01*
X15298863Y-10811462D01*
X15390787Y-10811462D01*
X15390787Y-11319462D02*
X15390787Y-11227538D01*
X15298863Y-11227538D01*
X15298863Y-11319462D01*
X15390787Y-11319462D01*
X15392787Y-7186462D02*
X15392787Y-7094538D01*
X15300863Y-7094538D01*
X15300863Y-7186462D01*
X15392787Y-7186462D01*
X15392787Y-7694462D02*
X15392787Y-7602538D01*
X15300863Y-7602538D01*
X15300863Y-7694462D01*
X15392787Y-7694462D01*
X15392787Y-8202462D02*
X15392787Y-8110538D01*
X15300863Y-8110538D01*
X15300863Y-8202462D01*
X15392787Y-8202462D01*
X15392787Y-9249962D02*
X15392787Y-9158038D01*
X15300863Y-9158038D01*
X15300863Y-9249962D01*
X15392787Y-9249962D01*
X15392787Y-9757962D02*
X15392787Y-9666038D01*
X15300863Y-9666038D01*
X15300863Y-9757962D01*
X15392787Y-9757962D01*
D11*
X11784277Y-14233984D02*
X11784277Y-14033984D01*
X11784277Y-14033984D02*
X11831896Y-14033984D01*
X11831896Y-14033984D02*
X11860467Y-14043508D01*
X11860467Y-14043508D02*
X11879515Y-14062555D01*
X11879515Y-14062555D02*
X11889039Y-14081603D01*
X11889039Y-14081603D02*
X11898562Y-14119698D01*
X11898562Y-14119698D02*
X11898562Y-14148269D01*
X11898562Y-14148269D02*
X11889039Y-14186365D01*
X11889039Y-14186365D02*
X11879515Y-14205412D01*
X11879515Y-14205412D02*
X11860467Y-14224460D01*
X11860467Y-14224460D02*
X11831896Y-14233984D01*
X11831896Y-14233984D02*
X11784277Y-14233984D01*
X11984277Y-14233984D02*
X11984277Y-14100650D01*
X11984277Y-14138746D02*
X11993801Y-14119698D01*
X11993801Y-14119698D02*
X12003324Y-14110174D01*
X12003324Y-14110174D02*
X12022372Y-14100650D01*
X12022372Y-14100650D02*
X12041420Y-14100650D01*
X12108086Y-14233984D02*
X12108086Y-14100650D01*
X12108086Y-14033984D02*
X12098562Y-14043508D01*
X12098562Y-14043508D02*
X12108086Y-14053031D01*
X12108086Y-14053031D02*
X12117610Y-14043508D01*
X12117610Y-14043508D02*
X12108086Y-14033984D01*
X12108086Y-14033984D02*
X12108086Y-14053031D01*
X12231896Y-14233984D02*
X12212848Y-14224460D01*
X12212848Y-14224460D02*
X12203324Y-14205412D01*
X12203324Y-14205412D02*
X12203324Y-14033984D01*
X12336658Y-14233984D02*
X12317610Y-14224460D01*
X12317610Y-14224460D02*
X12308086Y-14205412D01*
X12308086Y-14205412D02*
X12308086Y-14033984D01*
X12565229Y-14233984D02*
X12565229Y-14033984D01*
X12565229Y-14033984D02*
X12631896Y-14176841D01*
X12631896Y-14176841D02*
X12698562Y-14033984D01*
X12698562Y-14033984D02*
X12698562Y-14233984D01*
X12879515Y-14233984D02*
X12879515Y-14129222D01*
X12879515Y-14129222D02*
X12869991Y-14110174D01*
X12869991Y-14110174D02*
X12850943Y-14100650D01*
X12850943Y-14100650D02*
X12812848Y-14100650D01*
X12812848Y-14100650D02*
X12793801Y-14110174D01*
X12879515Y-14224460D02*
X12860467Y-14233984D01*
X12860467Y-14233984D02*
X12812848Y-14233984D01*
X12812848Y-14233984D02*
X12793801Y-14224460D01*
X12793801Y-14224460D02*
X12784277Y-14205412D01*
X12784277Y-14205412D02*
X12784277Y-14186365D01*
X12784277Y-14186365D02*
X12793801Y-14167317D01*
X12793801Y-14167317D02*
X12812848Y-14157793D01*
X12812848Y-14157793D02*
X12860467Y-14157793D01*
X12860467Y-14157793D02*
X12879515Y-14148269D01*
X12974753Y-14100650D02*
X12974753Y-14300650D01*
X12974753Y-14110174D02*
X12993801Y-14100650D01*
X12993801Y-14100650D02*
X13031896Y-14100650D01*
X13031896Y-14100650D02*
X13050943Y-14110174D01*
X13050943Y-14110174D02*
X13060467Y-14119698D01*
X13060467Y-14119698D02*
X13069991Y-14138746D01*
X13069991Y-14138746D02*
X13069991Y-14195888D01*
X13069991Y-14195888D02*
X13060467Y-14214936D01*
X13060467Y-14214936D02*
X13050943Y-14224460D01*
X13050943Y-14224460D02*
X13031896Y-14233984D01*
X13031896Y-14233984D02*
X12993801Y-14233984D01*
X12993801Y-14233984D02*
X12974753Y-14224460D01*
X13155705Y-14214936D02*
X13165229Y-14224460D01*
X13165229Y-14224460D02*
X13155705Y-14233984D01*
X13155705Y-14233984D02*
X13146182Y-14224460D01*
X13146182Y-14224460D02*
X13155705Y-14214936D01*
X13155705Y-14214936D02*
X13155705Y-14233984D01*
X13155705Y-14110174D02*
X13165229Y-14119698D01*
X13165229Y-14119698D02*
X13155705Y-14129222D01*
X13155705Y-14129222D02*
X13146182Y-14119698D01*
X13146182Y-14119698D02*
X13155705Y-14110174D01*
X13155705Y-14110174D02*
X13155705Y-14129222D01*
D12*
X11483500Y-14542500D02*
X11523500Y-14582500D01*
X11523500Y-14542500D02*
X11483500Y-14582500D01*
D11*
X11822372Y-14453984D02*
X11841420Y-14453984D01*
X11841420Y-14453984D02*
X11860467Y-14463508D01*
X11860467Y-14463508D02*
X11869991Y-14473031D01*
X11869991Y-14473031D02*
X11879515Y-14492079D01*
X11879515Y-14492079D02*
X11889039Y-14530174D01*
X11889039Y-14530174D02*
X11889039Y-14577793D01*
X11889039Y-14577793D02*
X11879515Y-14615888D01*
X11879515Y-14615888D02*
X11869991Y-14634936D01*
X11869991Y-14634936D02*
X11860467Y-14644460D01*
X11860467Y-14644460D02*
X11841420Y-14653984D01*
X11841420Y-14653984D02*
X11822372Y-14653984D01*
X11822372Y-14653984D02*
X11803324Y-14644460D01*
X11803324Y-14644460D02*
X11793801Y-14634936D01*
X11793801Y-14634936D02*
X11784277Y-14615888D01*
X11784277Y-14615888D02*
X11774753Y-14577793D01*
X11774753Y-14577793D02*
X11774753Y-14530174D01*
X11774753Y-14530174D02*
X11784277Y-14492079D01*
X11784277Y-14492079D02*
X11793801Y-14473031D01*
X11793801Y-14473031D02*
X11803324Y-14463508D01*
X11803324Y-14463508D02*
X11822372Y-14453984D01*
X11974753Y-14634936D02*
X11984277Y-14644460D01*
X11984277Y-14644460D02*
X11974753Y-14653984D01*
X11974753Y-14653984D02*
X11965229Y-14644460D01*
X11965229Y-14644460D02*
X11974753Y-14634936D01*
X11974753Y-14634936D02*
X11974753Y-14653984D01*
X12155705Y-14520650D02*
X12155705Y-14653984D01*
X12108086Y-14444460D02*
X12060467Y-14587317D01*
X12060467Y-14587317D02*
X12184277Y-14587317D01*
X12298562Y-14453984D02*
X12317610Y-14453984D01*
X12317610Y-14453984D02*
X12336658Y-14463508D01*
X12336658Y-14463508D02*
X12346182Y-14473031D01*
X12346182Y-14473031D02*
X12355705Y-14492079D01*
X12355705Y-14492079D02*
X12365229Y-14530174D01*
X12365229Y-14530174D02*
X12365229Y-14577793D01*
X12365229Y-14577793D02*
X12355705Y-14615888D01*
X12355705Y-14615888D02*
X12346182Y-14634936D01*
X12346182Y-14634936D02*
X12336658Y-14644460D01*
X12336658Y-14644460D02*
X12317610Y-14653984D01*
X12317610Y-14653984D02*
X12298562Y-14653984D01*
X12298562Y-14653984D02*
X12279515Y-14644460D01*
X12279515Y-14644460D02*
X12269991Y-14634936D01*
X12269991Y-14634936D02*
X12260467Y-14615888D01*
X12260467Y-14615888D02*
X12250943Y-14577793D01*
X12250943Y-14577793D02*
X12250943Y-14530174D01*
X12250943Y-14530174D02*
X12260467Y-14492079D01*
X12260467Y-14492079D02*
X12269991Y-14473031D01*
X12269991Y-14473031D02*
X12279515Y-14463508D01*
X12279515Y-14463508D02*
X12298562Y-14453984D01*
X12489039Y-14453984D02*
X12508086Y-14453984D01*
X12508086Y-14453984D02*
X12527134Y-14463508D01*
X12527134Y-14463508D02*
X12536658Y-14473031D01*
X12536658Y-14473031D02*
X12546182Y-14492079D01*
X12546182Y-14492079D02*
X12555705Y-14530174D01*
X12555705Y-14530174D02*
X12555705Y-14577793D01*
X12555705Y-14577793D02*
X12546182Y-14615888D01*
X12546182Y-14615888D02*
X12536658Y-14634936D01*
X12536658Y-14634936D02*
X12527134Y-14644460D01*
X12527134Y-14644460D02*
X12508086Y-14653984D01*
X12508086Y-14653984D02*
X12489039Y-14653984D01*
X12489039Y-14653984D02*
X12469991Y-14644460D01*
X12469991Y-14644460D02*
X12460467Y-14634936D01*
X12460467Y-14634936D02*
X12450943Y-14615888D01*
X12450943Y-14615888D02*
X12441420Y-14577793D01*
X12441420Y-14577793D02*
X12441420Y-14530174D01*
X12441420Y-14530174D02*
X12450943Y-14492079D01*
X12450943Y-14492079D02*
X12460467Y-14473031D01*
X12460467Y-14473031D02*
X12469991Y-14463508D01*
X12469991Y-14463508D02*
X12489039Y-14453984D01*
X12641420Y-14653984D02*
X12641420Y-14520650D01*
X12641420Y-14539698D02*
X12650943Y-14530174D01*
X12650943Y-14530174D02*
X12669991Y-14520650D01*
X12669991Y-14520650D02*
X12698563Y-14520650D01*
X12698563Y-14520650D02*
X12717610Y-14530174D01*
X12717610Y-14530174D02*
X12727134Y-14549222D01*
X12727134Y-14549222D02*
X12727134Y-14653984D01*
X12727134Y-14549222D02*
X12736658Y-14530174D01*
X12736658Y-14530174D02*
X12755705Y-14520650D01*
X12755705Y-14520650D02*
X12784277Y-14520650D01*
X12784277Y-14520650D02*
X12803324Y-14530174D01*
X12803324Y-14530174D02*
X12812848Y-14549222D01*
X12812848Y-14549222D02*
X12812848Y-14653984D01*
X12908086Y-14653984D02*
X12908086Y-14520650D01*
X12908086Y-14539698D02*
X12917610Y-14530174D01*
X12917610Y-14530174D02*
X12936658Y-14520650D01*
X12936658Y-14520650D02*
X12965229Y-14520650D01*
X12965229Y-14520650D02*
X12984277Y-14530174D01*
X12984277Y-14530174D02*
X12993801Y-14549222D01*
X12993801Y-14549222D02*
X12993801Y-14653984D01*
X12993801Y-14549222D02*
X13003324Y-14530174D01*
X13003324Y-14530174D02*
X13022372Y-14520650D01*
X13022372Y-14520650D02*
X13050943Y-14520650D01*
X13050943Y-14520650D02*
X13069991Y-14530174D01*
X13069991Y-14530174D02*
X13079515Y-14549222D01*
X13079515Y-14549222D02*
X13079515Y-14653984D01*
X13469991Y-14444460D02*
X13298563Y-14701603D01*
X13727134Y-14453984D02*
X13746182Y-14453984D01*
X13746182Y-14453984D02*
X13765229Y-14463508D01*
X13765229Y-14463508D02*
X13774753Y-14473031D01*
X13774753Y-14473031D02*
X13784277Y-14492079D01*
X13784277Y-14492079D02*
X13793801Y-14530174D01*
X13793801Y-14530174D02*
X13793801Y-14577793D01*
X13793801Y-14577793D02*
X13784277Y-14615888D01*
X13784277Y-14615888D02*
X13774753Y-14634936D01*
X13774753Y-14634936D02*
X13765229Y-14644460D01*
X13765229Y-14644460D02*
X13746182Y-14653984D01*
X13746182Y-14653984D02*
X13727134Y-14653984D01*
X13727134Y-14653984D02*
X13708086Y-14644460D01*
X13708086Y-14644460D02*
X13698563Y-14634936D01*
X13698563Y-14634936D02*
X13689039Y-14615888D01*
X13689039Y-14615888D02*
X13679515Y-14577793D01*
X13679515Y-14577793D02*
X13679515Y-14530174D01*
X13679515Y-14530174D02*
X13689039Y-14492079D01*
X13689039Y-14492079D02*
X13698563Y-14473031D01*
X13698563Y-14473031D02*
X13708086Y-14463508D01*
X13708086Y-14463508D02*
X13727134Y-14453984D01*
X13879515Y-14634936D02*
X13889039Y-14644460D01*
X13889039Y-14644460D02*
X13879515Y-14653984D01*
X13879515Y-14653984D02*
X13869991Y-14644460D01*
X13869991Y-14644460D02*
X13879515Y-14634936D01*
X13879515Y-14634936D02*
X13879515Y-14653984D01*
X14012848Y-14453984D02*
X14031896Y-14453984D01*
X14031896Y-14453984D02*
X14050944Y-14463508D01*
X14050944Y-14463508D02*
X14060467Y-14473031D01*
X14060467Y-14473031D02*
X14069991Y-14492079D01*
X14069991Y-14492079D02*
X14079515Y-14530174D01*
X14079515Y-14530174D02*
X14079515Y-14577793D01*
X14079515Y-14577793D02*
X14069991Y-14615888D01*
X14069991Y-14615888D02*
X14060467Y-14634936D01*
X14060467Y-14634936D02*
X14050944Y-14644460D01*
X14050944Y-14644460D02*
X14031896Y-14653984D01*
X14031896Y-14653984D02*
X14012848Y-14653984D01*
X14012848Y-14653984D02*
X13993801Y-14644460D01*
X13993801Y-14644460D02*
X13984277Y-14634936D01*
X13984277Y-14634936D02*
X13974753Y-14615888D01*
X13974753Y-14615888D02*
X13965229Y-14577793D01*
X13965229Y-14577793D02*
X13965229Y-14530174D01*
X13965229Y-14530174D02*
X13974753Y-14492079D01*
X13974753Y-14492079D02*
X13984277Y-14473031D01*
X13984277Y-14473031D02*
X13993801Y-14463508D01*
X13993801Y-14463508D02*
X14012848Y-14453984D01*
X14269991Y-14653984D02*
X14155706Y-14653984D01*
X14212848Y-14653984D02*
X14212848Y-14453984D01*
X14212848Y-14453984D02*
X14193801Y-14482555D01*
X14193801Y-14482555D02*
X14174753Y-14501603D01*
X14174753Y-14501603D02*
X14155706Y-14511127D01*
X14450944Y-14453984D02*
X14355706Y-14453984D01*
X14355706Y-14453984D02*
X14346182Y-14549222D01*
X14346182Y-14549222D02*
X14355706Y-14539698D01*
X14355706Y-14539698D02*
X14374753Y-14530174D01*
X14374753Y-14530174D02*
X14422372Y-14530174D01*
X14422372Y-14530174D02*
X14441420Y-14539698D01*
X14441420Y-14539698D02*
X14450944Y-14549222D01*
X14450944Y-14549222D02*
X14460467Y-14568269D01*
X14460467Y-14568269D02*
X14460467Y-14615888D01*
X14460467Y-14615888D02*
X14450944Y-14634936D01*
X14450944Y-14634936D02*
X14441420Y-14644460D01*
X14441420Y-14644460D02*
X14422372Y-14653984D01*
X14422372Y-14653984D02*
X14374753Y-14653984D01*
X14374753Y-14653984D02*
X14355706Y-14644460D01*
X14355706Y-14644460D02*
X14346182Y-14634936D01*
X14527134Y-14453984D02*
X14660467Y-14453984D01*
X14660467Y-14453984D02*
X14574753Y-14653984D01*
X14727134Y-14453984D02*
X14727134Y-14492079D01*
X14803325Y-14453984D02*
X14803325Y-14492079D01*
X15098563Y-14730174D02*
X15089039Y-14720650D01*
X15089039Y-14720650D02*
X15069991Y-14692079D01*
X15069991Y-14692079D02*
X15060468Y-14673031D01*
X15060468Y-14673031D02*
X15050944Y-14644460D01*
X15050944Y-14644460D02*
X15041420Y-14596841D01*
X15041420Y-14596841D02*
X15041420Y-14558746D01*
X15041420Y-14558746D02*
X15050944Y-14511127D01*
X15050944Y-14511127D02*
X15060468Y-14482555D01*
X15060468Y-14482555D02*
X15069991Y-14463508D01*
X15069991Y-14463508D02*
X15089039Y-14434936D01*
X15089039Y-14434936D02*
X15098563Y-14425412D01*
X15203325Y-14539698D02*
X15184277Y-14530174D01*
X15184277Y-14530174D02*
X15174753Y-14520650D01*
X15174753Y-14520650D02*
X15165229Y-14501603D01*
X15165229Y-14501603D02*
X15165229Y-14492079D01*
X15165229Y-14492079D02*
X15174753Y-14473031D01*
X15174753Y-14473031D02*
X15184277Y-14463508D01*
X15184277Y-14463508D02*
X15203325Y-14453984D01*
X15203325Y-14453984D02*
X15241420Y-14453984D01*
X15241420Y-14453984D02*
X15260468Y-14463508D01*
X15260468Y-14463508D02*
X15269991Y-14473031D01*
X15269991Y-14473031D02*
X15279515Y-14492079D01*
X15279515Y-14492079D02*
X15279515Y-14501603D01*
X15279515Y-14501603D02*
X15269991Y-14520650D01*
X15269991Y-14520650D02*
X15260468Y-14530174D01*
X15260468Y-14530174D02*
X15241420Y-14539698D01*
X15241420Y-14539698D02*
X15203325Y-14539698D01*
X15203325Y-14539698D02*
X15184277Y-14549222D01*
X15184277Y-14549222D02*
X15174753Y-14558746D01*
X15174753Y-14558746D02*
X15165229Y-14577793D01*
X15165229Y-14577793D02*
X15165229Y-14615888D01*
X15165229Y-14615888D02*
X15174753Y-14634936D01*
X15174753Y-14634936D02*
X15184277Y-14644460D01*
X15184277Y-14644460D02*
X15203325Y-14653984D01*
X15203325Y-14653984D02*
X15241420Y-14653984D01*
X15241420Y-14653984D02*
X15260468Y-14644460D01*
X15260468Y-14644460D02*
X15269991Y-14634936D01*
X15269991Y-14634936D02*
X15279515Y-14615888D01*
X15279515Y-14615888D02*
X15279515Y-14577793D01*
X15279515Y-14577793D02*
X15269991Y-14558746D01*
X15269991Y-14558746D02*
X15260468Y-14549222D01*
X15260468Y-14549222D02*
X15241420Y-14539698D01*
X15403325Y-14453984D02*
X15422372Y-14453984D01*
X15422372Y-14453984D02*
X15441420Y-14463508D01*
X15441420Y-14463508D02*
X15450944Y-14473031D01*
X15450944Y-14473031D02*
X15460468Y-14492079D01*
X15460468Y-14492079D02*
X15469991Y-14530174D01*
X15469991Y-14530174D02*
X15469991Y-14577793D01*
X15469991Y-14577793D02*
X15460468Y-14615888D01*
X15460468Y-14615888D02*
X15450944Y-14634936D01*
X15450944Y-14634936D02*
X15441420Y-14644460D01*
X15441420Y-14644460D02*
X15422372Y-14653984D01*
X15422372Y-14653984D02*
X15403325Y-14653984D01*
X15403325Y-14653984D02*
X15384277Y-14644460D01*
X15384277Y-14644460D02*
X15374753Y-14634936D01*
X15374753Y-14634936D02*
X15365229Y-14615888D01*
X15365229Y-14615888D02*
X15355706Y-14577793D01*
X15355706Y-14577793D02*
X15355706Y-14530174D01*
X15355706Y-14530174D02*
X15365229Y-14492079D01*
X15365229Y-14492079D02*
X15374753Y-14473031D01*
X15374753Y-14473031D02*
X15384277Y-14463508D01*
X15384277Y-14463508D02*
X15403325Y-14453984D01*
X15708087Y-14653984D02*
X15708087Y-14453984D01*
X15793801Y-14653984D02*
X15793801Y-14549222D01*
X15793801Y-14549222D02*
X15784277Y-14530174D01*
X15784277Y-14530174D02*
X15765230Y-14520650D01*
X15765230Y-14520650D02*
X15736658Y-14520650D01*
X15736658Y-14520650D02*
X15717610Y-14530174D01*
X15717610Y-14530174D02*
X15708087Y-14539698D01*
X15917610Y-14653984D02*
X15898563Y-14644460D01*
X15898563Y-14644460D02*
X15889039Y-14634936D01*
X15889039Y-14634936D02*
X15879515Y-14615888D01*
X15879515Y-14615888D02*
X15879515Y-14558746D01*
X15879515Y-14558746D02*
X15889039Y-14539698D01*
X15889039Y-14539698D02*
X15898563Y-14530174D01*
X15898563Y-14530174D02*
X15917610Y-14520650D01*
X15917610Y-14520650D02*
X15946182Y-14520650D01*
X15946182Y-14520650D02*
X15965230Y-14530174D01*
X15965230Y-14530174D02*
X15974753Y-14539698D01*
X15974753Y-14539698D02*
X15984277Y-14558746D01*
X15984277Y-14558746D02*
X15984277Y-14615888D01*
X15984277Y-14615888D02*
X15974753Y-14634936D01*
X15974753Y-14634936D02*
X15965230Y-14644460D01*
X15965230Y-14644460D02*
X15946182Y-14653984D01*
X15946182Y-14653984D02*
X15917610Y-14653984D01*
X16098563Y-14653984D02*
X16079515Y-14644460D01*
X16079515Y-14644460D02*
X16069991Y-14625412D01*
X16069991Y-14625412D02*
X16069991Y-14453984D01*
X16250944Y-14644460D02*
X16231896Y-14653984D01*
X16231896Y-14653984D02*
X16193801Y-14653984D01*
X16193801Y-14653984D02*
X16174753Y-14644460D01*
X16174753Y-14644460D02*
X16165230Y-14625412D01*
X16165230Y-14625412D02*
X16165230Y-14549222D01*
X16165230Y-14549222D02*
X16174753Y-14530174D01*
X16174753Y-14530174D02*
X16193801Y-14520650D01*
X16193801Y-14520650D02*
X16231896Y-14520650D01*
X16231896Y-14520650D02*
X16250944Y-14530174D01*
X16250944Y-14530174D02*
X16260468Y-14549222D01*
X16260468Y-14549222D02*
X16260468Y-14568269D01*
X16260468Y-14568269D02*
X16165230Y-14587317D01*
X16336658Y-14644460D02*
X16355706Y-14653984D01*
X16355706Y-14653984D02*
X16393801Y-14653984D01*
X16393801Y-14653984D02*
X16412849Y-14644460D01*
X16412849Y-14644460D02*
X16422372Y-14625412D01*
X16422372Y-14625412D02*
X16422372Y-14615888D01*
X16422372Y-14615888D02*
X16412849Y-14596841D01*
X16412849Y-14596841D02*
X16393801Y-14587317D01*
X16393801Y-14587317D02*
X16365230Y-14587317D01*
X16365230Y-14587317D02*
X16346182Y-14577793D01*
X16346182Y-14577793D02*
X16336658Y-14558746D01*
X16336658Y-14558746D02*
X16336658Y-14549222D01*
X16336658Y-14549222D02*
X16346182Y-14530174D01*
X16346182Y-14530174D02*
X16365230Y-14520650D01*
X16365230Y-14520650D02*
X16393801Y-14520650D01*
X16393801Y-14520650D02*
X16412849Y-14530174D01*
X16489039Y-14730174D02*
X16498563Y-14720650D01*
X16498563Y-14720650D02*
X16517611Y-14692079D01*
X16517611Y-14692079D02*
X16527134Y-14673031D01*
X16527134Y-14673031D02*
X16536658Y-14644460D01*
X16536658Y-14644460D02*
X16546182Y-14596841D01*
X16546182Y-14596841D02*
X16546182Y-14558746D01*
X16546182Y-14558746D02*
X16536658Y-14511127D01*
X16536658Y-14511127D02*
X16527134Y-14482555D01*
X16527134Y-14482555D02*
X16517611Y-14463508D01*
X16517611Y-14463508D02*
X16498563Y-14434936D01*
X16498563Y-14434936D02*
X16489039Y-14425412D01*
D12*
X11523500Y-14826500D02*
G75*
G03*
X11443500Y-14826500I-40000J0D01*
G01*
X11443500Y-14826500D02*
G75*
G03*
X11523500Y-14826500I40000J0D01*
G01*
D11*
X11822372Y-14717984D02*
X11841420Y-14717984D01*
X11841420Y-14717984D02*
X11860467Y-14727508D01*
X11860467Y-14727508D02*
X11869991Y-14737031D01*
X11869991Y-14737031D02*
X11879515Y-14756079D01*
X11879515Y-14756079D02*
X11889039Y-14794174D01*
X11889039Y-14794174D02*
X11889039Y-14841793D01*
X11889039Y-14841793D02*
X11879515Y-14879888D01*
X11879515Y-14879888D02*
X11869991Y-14898936D01*
X11869991Y-14898936D02*
X11860467Y-14908460D01*
X11860467Y-14908460D02*
X11841420Y-14917984D01*
X11841420Y-14917984D02*
X11822372Y-14917984D01*
X11822372Y-14917984D02*
X11803324Y-14908460D01*
X11803324Y-14908460D02*
X11793801Y-14898936D01*
X11793801Y-14898936D02*
X11784277Y-14879888D01*
X11784277Y-14879888D02*
X11774753Y-14841793D01*
X11774753Y-14841793D02*
X11774753Y-14794174D01*
X11774753Y-14794174D02*
X11784277Y-14756079D01*
X11784277Y-14756079D02*
X11793801Y-14737031D01*
X11793801Y-14737031D02*
X11803324Y-14727508D01*
X11803324Y-14727508D02*
X11822372Y-14717984D01*
X11974753Y-14898936D02*
X11984277Y-14908460D01*
X11984277Y-14908460D02*
X11974753Y-14917984D01*
X11974753Y-14917984D02*
X11965229Y-14908460D01*
X11965229Y-14908460D02*
X11974753Y-14898936D01*
X11974753Y-14898936D02*
X11974753Y-14917984D01*
X12098562Y-14803698D02*
X12079515Y-14794174D01*
X12079515Y-14794174D02*
X12069991Y-14784650D01*
X12069991Y-14784650D02*
X12060467Y-14765603D01*
X12060467Y-14765603D02*
X12060467Y-14756079D01*
X12060467Y-14756079D02*
X12069991Y-14737031D01*
X12069991Y-14737031D02*
X12079515Y-14727508D01*
X12079515Y-14727508D02*
X12098562Y-14717984D01*
X12098562Y-14717984D02*
X12136658Y-14717984D01*
X12136658Y-14717984D02*
X12155705Y-14727508D01*
X12155705Y-14727508D02*
X12165229Y-14737031D01*
X12165229Y-14737031D02*
X12174753Y-14756079D01*
X12174753Y-14756079D02*
X12174753Y-14765603D01*
X12174753Y-14765603D02*
X12165229Y-14784650D01*
X12165229Y-14784650D02*
X12155705Y-14794174D01*
X12155705Y-14794174D02*
X12136658Y-14803698D01*
X12136658Y-14803698D02*
X12098562Y-14803698D01*
X12098562Y-14803698D02*
X12079515Y-14813222D01*
X12079515Y-14813222D02*
X12069991Y-14822746D01*
X12069991Y-14822746D02*
X12060467Y-14841793D01*
X12060467Y-14841793D02*
X12060467Y-14879888D01*
X12060467Y-14879888D02*
X12069991Y-14898936D01*
X12069991Y-14898936D02*
X12079515Y-14908460D01*
X12079515Y-14908460D02*
X12098562Y-14917984D01*
X12098562Y-14917984D02*
X12136658Y-14917984D01*
X12136658Y-14917984D02*
X12155705Y-14908460D01*
X12155705Y-14908460D02*
X12165229Y-14898936D01*
X12165229Y-14898936D02*
X12174753Y-14879888D01*
X12174753Y-14879888D02*
X12174753Y-14841793D01*
X12174753Y-14841793D02*
X12165229Y-14822746D01*
X12165229Y-14822746D02*
X12155705Y-14813222D01*
X12155705Y-14813222D02*
X12136658Y-14803698D01*
X12298562Y-14717984D02*
X12317610Y-14717984D01*
X12317610Y-14717984D02*
X12336658Y-14727508D01*
X12336658Y-14727508D02*
X12346182Y-14737031D01*
X12346182Y-14737031D02*
X12355705Y-14756079D01*
X12355705Y-14756079D02*
X12365229Y-14794174D01*
X12365229Y-14794174D02*
X12365229Y-14841793D01*
X12365229Y-14841793D02*
X12355705Y-14879888D01*
X12355705Y-14879888D02*
X12346182Y-14898936D01*
X12346182Y-14898936D02*
X12336658Y-14908460D01*
X12336658Y-14908460D02*
X12317610Y-14917984D01*
X12317610Y-14917984D02*
X12298562Y-14917984D01*
X12298562Y-14917984D02*
X12279515Y-14908460D01*
X12279515Y-14908460D02*
X12269991Y-14898936D01*
X12269991Y-14898936D02*
X12260467Y-14879888D01*
X12260467Y-14879888D02*
X12250943Y-14841793D01*
X12250943Y-14841793D02*
X12250943Y-14794174D01*
X12250943Y-14794174D02*
X12260467Y-14756079D01*
X12260467Y-14756079D02*
X12269991Y-14737031D01*
X12269991Y-14737031D02*
X12279515Y-14727508D01*
X12279515Y-14727508D02*
X12298562Y-14717984D01*
X12489039Y-14717984D02*
X12508086Y-14717984D01*
X12508086Y-14717984D02*
X12527134Y-14727508D01*
X12527134Y-14727508D02*
X12536658Y-14737031D01*
X12536658Y-14737031D02*
X12546182Y-14756079D01*
X12546182Y-14756079D02*
X12555705Y-14794174D01*
X12555705Y-14794174D02*
X12555705Y-14841793D01*
X12555705Y-14841793D02*
X12546182Y-14879888D01*
X12546182Y-14879888D02*
X12536658Y-14898936D01*
X12536658Y-14898936D02*
X12527134Y-14908460D01*
X12527134Y-14908460D02*
X12508086Y-14917984D01*
X12508086Y-14917984D02*
X12489039Y-14917984D01*
X12489039Y-14917984D02*
X12469991Y-14908460D01*
X12469991Y-14908460D02*
X12460467Y-14898936D01*
X12460467Y-14898936D02*
X12450943Y-14879888D01*
X12450943Y-14879888D02*
X12441420Y-14841793D01*
X12441420Y-14841793D02*
X12441420Y-14794174D01*
X12441420Y-14794174D02*
X12450943Y-14756079D01*
X12450943Y-14756079D02*
X12460467Y-14737031D01*
X12460467Y-14737031D02*
X12469991Y-14727508D01*
X12469991Y-14727508D02*
X12489039Y-14717984D01*
X12641420Y-14917984D02*
X12641420Y-14784650D01*
X12641420Y-14803698D02*
X12650943Y-14794174D01*
X12650943Y-14794174D02*
X12669991Y-14784650D01*
X12669991Y-14784650D02*
X12698563Y-14784650D01*
X12698563Y-14784650D02*
X12717610Y-14794174D01*
X12717610Y-14794174D02*
X12727134Y-14813222D01*
X12727134Y-14813222D02*
X12727134Y-14917984D01*
X12727134Y-14813222D02*
X12736658Y-14794174D01*
X12736658Y-14794174D02*
X12755705Y-14784650D01*
X12755705Y-14784650D02*
X12784277Y-14784650D01*
X12784277Y-14784650D02*
X12803324Y-14794174D01*
X12803324Y-14794174D02*
X12812848Y-14813222D01*
X12812848Y-14813222D02*
X12812848Y-14917984D01*
X12908086Y-14917984D02*
X12908086Y-14784650D01*
X12908086Y-14803698D02*
X12917610Y-14794174D01*
X12917610Y-14794174D02*
X12936658Y-14784650D01*
X12936658Y-14784650D02*
X12965229Y-14784650D01*
X12965229Y-14784650D02*
X12984277Y-14794174D01*
X12984277Y-14794174D02*
X12993801Y-14813222D01*
X12993801Y-14813222D02*
X12993801Y-14917984D01*
X12993801Y-14813222D02*
X13003324Y-14794174D01*
X13003324Y-14794174D02*
X13022372Y-14784650D01*
X13022372Y-14784650D02*
X13050943Y-14784650D01*
X13050943Y-14784650D02*
X13069991Y-14794174D01*
X13069991Y-14794174D02*
X13079515Y-14813222D01*
X13079515Y-14813222D02*
X13079515Y-14917984D01*
X13469991Y-14708460D02*
X13298563Y-14965603D01*
X13727134Y-14717984D02*
X13746182Y-14717984D01*
X13746182Y-14717984D02*
X13765229Y-14727508D01*
X13765229Y-14727508D02*
X13774753Y-14737031D01*
X13774753Y-14737031D02*
X13784277Y-14756079D01*
X13784277Y-14756079D02*
X13793801Y-14794174D01*
X13793801Y-14794174D02*
X13793801Y-14841793D01*
X13793801Y-14841793D02*
X13784277Y-14879888D01*
X13784277Y-14879888D02*
X13774753Y-14898936D01*
X13774753Y-14898936D02*
X13765229Y-14908460D01*
X13765229Y-14908460D02*
X13746182Y-14917984D01*
X13746182Y-14917984D02*
X13727134Y-14917984D01*
X13727134Y-14917984D02*
X13708086Y-14908460D01*
X13708086Y-14908460D02*
X13698563Y-14898936D01*
X13698563Y-14898936D02*
X13689039Y-14879888D01*
X13689039Y-14879888D02*
X13679515Y-14841793D01*
X13679515Y-14841793D02*
X13679515Y-14794174D01*
X13679515Y-14794174D02*
X13689039Y-14756079D01*
X13689039Y-14756079D02*
X13698563Y-14737031D01*
X13698563Y-14737031D02*
X13708086Y-14727508D01*
X13708086Y-14727508D02*
X13727134Y-14717984D01*
X13879515Y-14898936D02*
X13889039Y-14908460D01*
X13889039Y-14908460D02*
X13879515Y-14917984D01*
X13879515Y-14917984D02*
X13869991Y-14908460D01*
X13869991Y-14908460D02*
X13879515Y-14898936D01*
X13879515Y-14898936D02*
X13879515Y-14917984D01*
X14012848Y-14717984D02*
X14031896Y-14717984D01*
X14031896Y-14717984D02*
X14050944Y-14727508D01*
X14050944Y-14727508D02*
X14060467Y-14737031D01*
X14060467Y-14737031D02*
X14069991Y-14756079D01*
X14069991Y-14756079D02*
X14079515Y-14794174D01*
X14079515Y-14794174D02*
X14079515Y-14841793D01*
X14079515Y-14841793D02*
X14069991Y-14879888D01*
X14069991Y-14879888D02*
X14060467Y-14898936D01*
X14060467Y-14898936D02*
X14050944Y-14908460D01*
X14050944Y-14908460D02*
X14031896Y-14917984D01*
X14031896Y-14917984D02*
X14012848Y-14917984D01*
X14012848Y-14917984D02*
X13993801Y-14908460D01*
X13993801Y-14908460D02*
X13984277Y-14898936D01*
X13984277Y-14898936D02*
X13974753Y-14879888D01*
X13974753Y-14879888D02*
X13965229Y-14841793D01*
X13965229Y-14841793D02*
X13965229Y-14794174D01*
X13965229Y-14794174D02*
X13974753Y-14756079D01*
X13974753Y-14756079D02*
X13984277Y-14737031D01*
X13984277Y-14737031D02*
X13993801Y-14727508D01*
X13993801Y-14727508D02*
X14012848Y-14717984D01*
X14146182Y-14717984D02*
X14269991Y-14717984D01*
X14269991Y-14717984D02*
X14203325Y-14794174D01*
X14203325Y-14794174D02*
X14231896Y-14794174D01*
X14231896Y-14794174D02*
X14250944Y-14803698D01*
X14250944Y-14803698D02*
X14260467Y-14813222D01*
X14260467Y-14813222D02*
X14269991Y-14832269D01*
X14269991Y-14832269D02*
X14269991Y-14879888D01*
X14269991Y-14879888D02*
X14260467Y-14898936D01*
X14260467Y-14898936D02*
X14250944Y-14908460D01*
X14250944Y-14908460D02*
X14231896Y-14917984D01*
X14231896Y-14917984D02*
X14174753Y-14917984D01*
X14174753Y-14917984D02*
X14155706Y-14908460D01*
X14155706Y-14908460D02*
X14146182Y-14898936D01*
X14460467Y-14917984D02*
X14346182Y-14917984D01*
X14403325Y-14917984D02*
X14403325Y-14717984D01*
X14403325Y-14717984D02*
X14384277Y-14746555D01*
X14384277Y-14746555D02*
X14365229Y-14765603D01*
X14365229Y-14765603D02*
X14346182Y-14775127D01*
X14641420Y-14717984D02*
X14546182Y-14717984D01*
X14546182Y-14717984D02*
X14536658Y-14813222D01*
X14536658Y-14813222D02*
X14546182Y-14803698D01*
X14546182Y-14803698D02*
X14565229Y-14794174D01*
X14565229Y-14794174D02*
X14612848Y-14794174D01*
X14612848Y-14794174D02*
X14631896Y-14803698D01*
X14631896Y-14803698D02*
X14641420Y-14813222D01*
X14641420Y-14813222D02*
X14650944Y-14832269D01*
X14650944Y-14832269D02*
X14650944Y-14879888D01*
X14650944Y-14879888D02*
X14641420Y-14898936D01*
X14641420Y-14898936D02*
X14631896Y-14908460D01*
X14631896Y-14908460D02*
X14612848Y-14917984D01*
X14612848Y-14917984D02*
X14565229Y-14917984D01*
X14565229Y-14917984D02*
X14546182Y-14908460D01*
X14546182Y-14908460D02*
X14536658Y-14898936D01*
X14727134Y-14717984D02*
X14727134Y-14756079D01*
X14803325Y-14717984D02*
X14803325Y-14756079D01*
X15098563Y-14994174D02*
X15089039Y-14984650D01*
X15089039Y-14984650D02*
X15069991Y-14956079D01*
X15069991Y-14956079D02*
X15060468Y-14937031D01*
X15060468Y-14937031D02*
X15050944Y-14908460D01*
X15050944Y-14908460D02*
X15041420Y-14860841D01*
X15041420Y-14860841D02*
X15041420Y-14822746D01*
X15041420Y-14822746D02*
X15050944Y-14775127D01*
X15050944Y-14775127D02*
X15060468Y-14746555D01*
X15060468Y-14746555D02*
X15069991Y-14727508D01*
X15069991Y-14727508D02*
X15089039Y-14698936D01*
X15089039Y-14698936D02*
X15098563Y-14689412D01*
X15203325Y-14803698D02*
X15184277Y-14794174D01*
X15184277Y-14794174D02*
X15174753Y-14784650D01*
X15174753Y-14784650D02*
X15165229Y-14765603D01*
X15165229Y-14765603D02*
X15165229Y-14756079D01*
X15165229Y-14756079D02*
X15174753Y-14737031D01*
X15174753Y-14737031D02*
X15184277Y-14727508D01*
X15184277Y-14727508D02*
X15203325Y-14717984D01*
X15203325Y-14717984D02*
X15241420Y-14717984D01*
X15241420Y-14717984D02*
X15260468Y-14727508D01*
X15260468Y-14727508D02*
X15269991Y-14737031D01*
X15269991Y-14737031D02*
X15279515Y-14756079D01*
X15279515Y-14756079D02*
X15279515Y-14765603D01*
X15279515Y-14765603D02*
X15269991Y-14784650D01*
X15269991Y-14784650D02*
X15260468Y-14794174D01*
X15260468Y-14794174D02*
X15241420Y-14803698D01*
X15241420Y-14803698D02*
X15203325Y-14803698D01*
X15203325Y-14803698D02*
X15184277Y-14813222D01*
X15184277Y-14813222D02*
X15174753Y-14822746D01*
X15174753Y-14822746D02*
X15165229Y-14841793D01*
X15165229Y-14841793D02*
X15165229Y-14879888D01*
X15165229Y-14879888D02*
X15174753Y-14898936D01*
X15174753Y-14898936D02*
X15184277Y-14908460D01*
X15184277Y-14908460D02*
X15203325Y-14917984D01*
X15203325Y-14917984D02*
X15241420Y-14917984D01*
X15241420Y-14917984D02*
X15260468Y-14908460D01*
X15260468Y-14908460D02*
X15269991Y-14898936D01*
X15269991Y-14898936D02*
X15279515Y-14879888D01*
X15279515Y-14879888D02*
X15279515Y-14841793D01*
X15279515Y-14841793D02*
X15269991Y-14822746D01*
X15269991Y-14822746D02*
X15260468Y-14813222D01*
X15260468Y-14813222D02*
X15241420Y-14803698D01*
X15517610Y-14917984D02*
X15517610Y-14717984D01*
X15603325Y-14917984D02*
X15603325Y-14813222D01*
X15603325Y-14813222D02*
X15593801Y-14794174D01*
X15593801Y-14794174D02*
X15574753Y-14784650D01*
X15574753Y-14784650D02*
X15546182Y-14784650D01*
X15546182Y-14784650D02*
X15527134Y-14794174D01*
X15527134Y-14794174D02*
X15517610Y-14803698D01*
X15727134Y-14917984D02*
X15708087Y-14908460D01*
X15708087Y-14908460D02*
X15698563Y-14898936D01*
X15698563Y-14898936D02*
X15689039Y-14879888D01*
X15689039Y-14879888D02*
X15689039Y-14822746D01*
X15689039Y-14822746D02*
X15698563Y-14803698D01*
X15698563Y-14803698D02*
X15708087Y-14794174D01*
X15708087Y-14794174D02*
X15727134Y-14784650D01*
X15727134Y-14784650D02*
X15755706Y-14784650D01*
X15755706Y-14784650D02*
X15774753Y-14794174D01*
X15774753Y-14794174D02*
X15784277Y-14803698D01*
X15784277Y-14803698D02*
X15793801Y-14822746D01*
X15793801Y-14822746D02*
X15793801Y-14879888D01*
X15793801Y-14879888D02*
X15784277Y-14898936D01*
X15784277Y-14898936D02*
X15774753Y-14908460D01*
X15774753Y-14908460D02*
X15755706Y-14917984D01*
X15755706Y-14917984D02*
X15727134Y-14917984D01*
X15908087Y-14917984D02*
X15889039Y-14908460D01*
X15889039Y-14908460D02*
X15879515Y-14889412D01*
X15879515Y-14889412D02*
X15879515Y-14717984D01*
X16060468Y-14908460D02*
X16041420Y-14917984D01*
X16041420Y-14917984D02*
X16003325Y-14917984D01*
X16003325Y-14917984D02*
X15984277Y-14908460D01*
X15984277Y-14908460D02*
X15974753Y-14889412D01*
X15974753Y-14889412D02*
X15974753Y-14813222D01*
X15974753Y-14813222D02*
X15984277Y-14794174D01*
X15984277Y-14794174D02*
X16003325Y-14784650D01*
X16003325Y-14784650D02*
X16041420Y-14784650D01*
X16041420Y-14784650D02*
X16060468Y-14794174D01*
X16060468Y-14794174D02*
X16069991Y-14813222D01*
X16069991Y-14813222D02*
X16069991Y-14832269D01*
X16069991Y-14832269D02*
X15974753Y-14851317D01*
X16146182Y-14908460D02*
X16165230Y-14917984D01*
X16165230Y-14917984D02*
X16203325Y-14917984D01*
X16203325Y-14917984D02*
X16222372Y-14908460D01*
X16222372Y-14908460D02*
X16231896Y-14889412D01*
X16231896Y-14889412D02*
X16231896Y-14879888D01*
X16231896Y-14879888D02*
X16222372Y-14860841D01*
X16222372Y-14860841D02*
X16203325Y-14851317D01*
X16203325Y-14851317D02*
X16174753Y-14851317D01*
X16174753Y-14851317D02*
X16155706Y-14841793D01*
X16155706Y-14841793D02*
X16146182Y-14822746D01*
X16146182Y-14822746D02*
X16146182Y-14813222D01*
X16146182Y-14813222D02*
X16155706Y-14794174D01*
X16155706Y-14794174D02*
X16174753Y-14784650D01*
X16174753Y-14784650D02*
X16203325Y-14784650D01*
X16203325Y-14784650D02*
X16222372Y-14794174D01*
X16298563Y-14994174D02*
X16308087Y-14984650D01*
X16308087Y-14984650D02*
X16327134Y-14956079D01*
X16327134Y-14956079D02*
X16336658Y-14937031D01*
X16336658Y-14937031D02*
X16346182Y-14908460D01*
X16346182Y-14908460D02*
X16355706Y-14860841D01*
X16355706Y-14860841D02*
X16355706Y-14822746D01*
X16355706Y-14822746D02*
X16346182Y-14775127D01*
X16346182Y-14775127D02*
X16336658Y-14746555D01*
X16336658Y-14746555D02*
X16327134Y-14727508D01*
X16327134Y-14727508D02*
X16308087Y-14698936D01*
X16308087Y-14698936D02*
X16298563Y-14689412D01*
D12*
X11473970Y-15040970D02*
X11473970Y-15140030D01*
X11424440Y-15090500D02*
X11523500Y-15090500D01*
D11*
X11822372Y-14981984D02*
X11841420Y-14981984D01*
X11841420Y-14981984D02*
X11860467Y-14991508D01*
X11860467Y-14991508D02*
X11869991Y-15001031D01*
X11869991Y-15001031D02*
X11879515Y-15020079D01*
X11879515Y-15020079D02*
X11889039Y-15058174D01*
X11889039Y-15058174D02*
X11889039Y-15105793D01*
X11889039Y-15105793D02*
X11879515Y-15143888D01*
X11879515Y-15143888D02*
X11869991Y-15162936D01*
X11869991Y-15162936D02*
X11860467Y-15172460D01*
X11860467Y-15172460D02*
X11841420Y-15181984D01*
X11841420Y-15181984D02*
X11822372Y-15181984D01*
X11822372Y-15181984D02*
X11803324Y-15172460D01*
X11803324Y-15172460D02*
X11793801Y-15162936D01*
X11793801Y-15162936D02*
X11784277Y-15143888D01*
X11784277Y-15143888D02*
X11774753Y-15105793D01*
X11774753Y-15105793D02*
X11774753Y-15058174D01*
X11774753Y-15058174D02*
X11784277Y-15020079D01*
X11784277Y-15020079D02*
X11793801Y-15001031D01*
X11793801Y-15001031D02*
X11803324Y-14991508D01*
X11803324Y-14991508D02*
X11822372Y-14981984D01*
X11974753Y-15162936D02*
X11984277Y-15172460D01*
X11984277Y-15172460D02*
X11974753Y-15181984D01*
X11974753Y-15181984D02*
X11965229Y-15172460D01*
X11965229Y-15172460D02*
X11974753Y-15162936D01*
X11974753Y-15162936D02*
X11974753Y-15181984D01*
X12079515Y-15181984D02*
X12117610Y-15181984D01*
X12117610Y-15181984D02*
X12136658Y-15172460D01*
X12136658Y-15172460D02*
X12146182Y-15162936D01*
X12146182Y-15162936D02*
X12165229Y-15134365D01*
X12165229Y-15134365D02*
X12174753Y-15096269D01*
X12174753Y-15096269D02*
X12174753Y-15020079D01*
X12174753Y-15020079D02*
X12165229Y-15001031D01*
X12165229Y-15001031D02*
X12155705Y-14991508D01*
X12155705Y-14991508D02*
X12136658Y-14981984D01*
X12136658Y-14981984D02*
X12098562Y-14981984D01*
X12098562Y-14981984D02*
X12079515Y-14991508D01*
X12079515Y-14991508D02*
X12069991Y-15001031D01*
X12069991Y-15001031D02*
X12060467Y-15020079D01*
X12060467Y-15020079D02*
X12060467Y-15067698D01*
X12060467Y-15067698D02*
X12069991Y-15086746D01*
X12069991Y-15086746D02*
X12079515Y-15096269D01*
X12079515Y-15096269D02*
X12098562Y-15105793D01*
X12098562Y-15105793D02*
X12136658Y-15105793D01*
X12136658Y-15105793D02*
X12155705Y-15096269D01*
X12155705Y-15096269D02*
X12165229Y-15086746D01*
X12165229Y-15086746D02*
X12174753Y-15067698D01*
X12269991Y-15181984D02*
X12308086Y-15181984D01*
X12308086Y-15181984D02*
X12327134Y-15172460D01*
X12327134Y-15172460D02*
X12336658Y-15162936D01*
X12336658Y-15162936D02*
X12355705Y-15134365D01*
X12355705Y-15134365D02*
X12365229Y-15096269D01*
X12365229Y-15096269D02*
X12365229Y-15020079D01*
X12365229Y-15020079D02*
X12355705Y-15001031D01*
X12355705Y-15001031D02*
X12346182Y-14991508D01*
X12346182Y-14991508D02*
X12327134Y-14981984D01*
X12327134Y-14981984D02*
X12289039Y-14981984D01*
X12289039Y-14981984D02*
X12269991Y-14991508D01*
X12269991Y-14991508D02*
X12260467Y-15001031D01*
X12260467Y-15001031D02*
X12250943Y-15020079D01*
X12250943Y-15020079D02*
X12250943Y-15067698D01*
X12250943Y-15067698D02*
X12260467Y-15086746D01*
X12260467Y-15086746D02*
X12269991Y-15096269D01*
X12269991Y-15096269D02*
X12289039Y-15105793D01*
X12289039Y-15105793D02*
X12327134Y-15105793D01*
X12327134Y-15105793D02*
X12346182Y-15096269D01*
X12346182Y-15096269D02*
X12355705Y-15086746D01*
X12355705Y-15086746D02*
X12365229Y-15067698D01*
X12555705Y-15181984D02*
X12441420Y-15181984D01*
X12498562Y-15181984D02*
X12498562Y-14981984D01*
X12498562Y-14981984D02*
X12479515Y-15010555D01*
X12479515Y-15010555D02*
X12460467Y-15029603D01*
X12460467Y-15029603D02*
X12441420Y-15039127D01*
X12641420Y-15181984D02*
X12641420Y-15048650D01*
X12641420Y-15067698D02*
X12650943Y-15058174D01*
X12650943Y-15058174D02*
X12669991Y-15048650D01*
X12669991Y-15048650D02*
X12698563Y-15048650D01*
X12698563Y-15048650D02*
X12717610Y-15058174D01*
X12717610Y-15058174D02*
X12727134Y-15077222D01*
X12727134Y-15077222D02*
X12727134Y-15181984D01*
X12727134Y-15077222D02*
X12736658Y-15058174D01*
X12736658Y-15058174D02*
X12755705Y-15048650D01*
X12755705Y-15048650D02*
X12784277Y-15048650D01*
X12784277Y-15048650D02*
X12803324Y-15058174D01*
X12803324Y-15058174D02*
X12812848Y-15077222D01*
X12812848Y-15077222D02*
X12812848Y-15181984D01*
X12908086Y-15181984D02*
X12908086Y-15048650D01*
X12908086Y-15067698D02*
X12917610Y-15058174D01*
X12917610Y-15058174D02*
X12936658Y-15048650D01*
X12936658Y-15048650D02*
X12965229Y-15048650D01*
X12965229Y-15048650D02*
X12984277Y-15058174D01*
X12984277Y-15058174D02*
X12993801Y-15077222D01*
X12993801Y-15077222D02*
X12993801Y-15181984D01*
X12993801Y-15077222D02*
X13003324Y-15058174D01*
X13003324Y-15058174D02*
X13022372Y-15048650D01*
X13022372Y-15048650D02*
X13050943Y-15048650D01*
X13050943Y-15048650D02*
X13069991Y-15058174D01*
X13069991Y-15058174D02*
X13079515Y-15077222D01*
X13079515Y-15077222D02*
X13079515Y-15181984D01*
X13469991Y-14972460D02*
X13298563Y-15229603D01*
X13727134Y-14981984D02*
X13746182Y-14981984D01*
X13746182Y-14981984D02*
X13765229Y-14991508D01*
X13765229Y-14991508D02*
X13774753Y-15001031D01*
X13774753Y-15001031D02*
X13784277Y-15020079D01*
X13784277Y-15020079D02*
X13793801Y-15058174D01*
X13793801Y-15058174D02*
X13793801Y-15105793D01*
X13793801Y-15105793D02*
X13784277Y-15143888D01*
X13784277Y-15143888D02*
X13774753Y-15162936D01*
X13774753Y-15162936D02*
X13765229Y-15172460D01*
X13765229Y-15172460D02*
X13746182Y-15181984D01*
X13746182Y-15181984D02*
X13727134Y-15181984D01*
X13727134Y-15181984D02*
X13708086Y-15172460D01*
X13708086Y-15172460D02*
X13698563Y-15162936D01*
X13698563Y-15162936D02*
X13689039Y-15143888D01*
X13689039Y-15143888D02*
X13679515Y-15105793D01*
X13679515Y-15105793D02*
X13679515Y-15058174D01*
X13679515Y-15058174D02*
X13689039Y-15020079D01*
X13689039Y-15020079D02*
X13698563Y-15001031D01*
X13698563Y-15001031D02*
X13708086Y-14991508D01*
X13708086Y-14991508D02*
X13727134Y-14981984D01*
X13879515Y-15162936D02*
X13889039Y-15172460D01*
X13889039Y-15172460D02*
X13879515Y-15181984D01*
X13879515Y-15181984D02*
X13869991Y-15172460D01*
X13869991Y-15172460D02*
X13879515Y-15162936D01*
X13879515Y-15162936D02*
X13879515Y-15181984D01*
X14012848Y-14981984D02*
X14031896Y-14981984D01*
X14031896Y-14981984D02*
X14050944Y-14991508D01*
X14050944Y-14991508D02*
X14060467Y-15001031D01*
X14060467Y-15001031D02*
X14069991Y-15020079D01*
X14069991Y-15020079D02*
X14079515Y-15058174D01*
X14079515Y-15058174D02*
X14079515Y-15105793D01*
X14079515Y-15105793D02*
X14069991Y-15143888D01*
X14069991Y-15143888D02*
X14060467Y-15162936D01*
X14060467Y-15162936D02*
X14050944Y-15172460D01*
X14050944Y-15172460D02*
X14031896Y-15181984D01*
X14031896Y-15181984D02*
X14012848Y-15181984D01*
X14012848Y-15181984D02*
X13993801Y-15172460D01*
X13993801Y-15172460D02*
X13984277Y-15162936D01*
X13984277Y-15162936D02*
X13974753Y-15143888D01*
X13974753Y-15143888D02*
X13965229Y-15105793D01*
X13965229Y-15105793D02*
X13965229Y-15058174D01*
X13965229Y-15058174D02*
X13974753Y-15020079D01*
X13974753Y-15020079D02*
X13984277Y-15001031D01*
X13984277Y-15001031D02*
X13993801Y-14991508D01*
X13993801Y-14991508D02*
X14012848Y-14981984D01*
X14146182Y-14981984D02*
X14269991Y-14981984D01*
X14269991Y-14981984D02*
X14203325Y-15058174D01*
X14203325Y-15058174D02*
X14231896Y-15058174D01*
X14231896Y-15058174D02*
X14250944Y-15067698D01*
X14250944Y-15067698D02*
X14260467Y-15077222D01*
X14260467Y-15077222D02*
X14269991Y-15096269D01*
X14269991Y-15096269D02*
X14269991Y-15143888D01*
X14269991Y-15143888D02*
X14260467Y-15162936D01*
X14260467Y-15162936D02*
X14250944Y-15172460D01*
X14250944Y-15172460D02*
X14231896Y-15181984D01*
X14231896Y-15181984D02*
X14174753Y-15181984D01*
X14174753Y-15181984D02*
X14155706Y-15172460D01*
X14155706Y-15172460D02*
X14146182Y-15162936D01*
X14365229Y-15181984D02*
X14403325Y-15181984D01*
X14403325Y-15181984D02*
X14422372Y-15172460D01*
X14422372Y-15172460D02*
X14431896Y-15162936D01*
X14431896Y-15162936D02*
X14450944Y-15134365D01*
X14450944Y-15134365D02*
X14460467Y-15096269D01*
X14460467Y-15096269D02*
X14460467Y-15020079D01*
X14460467Y-15020079D02*
X14450944Y-15001031D01*
X14450944Y-15001031D02*
X14441420Y-14991508D01*
X14441420Y-14991508D02*
X14422372Y-14981984D01*
X14422372Y-14981984D02*
X14384277Y-14981984D01*
X14384277Y-14981984D02*
X14365229Y-14991508D01*
X14365229Y-14991508D02*
X14355706Y-15001031D01*
X14355706Y-15001031D02*
X14346182Y-15020079D01*
X14346182Y-15020079D02*
X14346182Y-15067698D01*
X14346182Y-15067698D02*
X14355706Y-15086746D01*
X14355706Y-15086746D02*
X14365229Y-15096269D01*
X14365229Y-15096269D02*
X14384277Y-15105793D01*
X14384277Y-15105793D02*
X14422372Y-15105793D01*
X14422372Y-15105793D02*
X14441420Y-15096269D01*
X14441420Y-15096269D02*
X14450944Y-15086746D01*
X14450944Y-15086746D02*
X14460467Y-15067698D01*
X14584277Y-14981984D02*
X14603325Y-14981984D01*
X14603325Y-14981984D02*
X14622372Y-14991508D01*
X14622372Y-14991508D02*
X14631896Y-15001031D01*
X14631896Y-15001031D02*
X14641420Y-15020079D01*
X14641420Y-15020079D02*
X14650944Y-15058174D01*
X14650944Y-15058174D02*
X14650944Y-15105793D01*
X14650944Y-15105793D02*
X14641420Y-15143888D01*
X14641420Y-15143888D02*
X14631896Y-15162936D01*
X14631896Y-15162936D02*
X14622372Y-15172460D01*
X14622372Y-15172460D02*
X14603325Y-15181984D01*
X14603325Y-15181984D02*
X14584277Y-15181984D01*
X14584277Y-15181984D02*
X14565229Y-15172460D01*
X14565229Y-15172460D02*
X14555706Y-15162936D01*
X14555706Y-15162936D02*
X14546182Y-15143888D01*
X14546182Y-15143888D02*
X14536658Y-15105793D01*
X14536658Y-15105793D02*
X14536658Y-15058174D01*
X14536658Y-15058174D02*
X14546182Y-15020079D01*
X14546182Y-15020079D02*
X14555706Y-15001031D01*
X14555706Y-15001031D02*
X14565229Y-14991508D01*
X14565229Y-14991508D02*
X14584277Y-14981984D01*
X14727134Y-14981984D02*
X14727134Y-15020079D01*
X14803325Y-14981984D02*
X14803325Y-15020079D01*
X15098563Y-15258174D02*
X15089039Y-15248650D01*
X15089039Y-15248650D02*
X15069991Y-15220079D01*
X15069991Y-15220079D02*
X15060468Y-15201031D01*
X15060468Y-15201031D02*
X15050944Y-15172460D01*
X15050944Y-15172460D02*
X15041420Y-15124841D01*
X15041420Y-15124841D02*
X15041420Y-15086746D01*
X15041420Y-15086746D02*
X15050944Y-15039127D01*
X15050944Y-15039127D02*
X15060468Y-15010555D01*
X15060468Y-15010555D02*
X15069991Y-14991508D01*
X15069991Y-14991508D02*
X15089039Y-14962936D01*
X15089039Y-14962936D02*
X15098563Y-14953412D01*
X15203325Y-15067698D02*
X15184277Y-15058174D01*
X15184277Y-15058174D02*
X15174753Y-15048650D01*
X15174753Y-15048650D02*
X15165229Y-15029603D01*
X15165229Y-15029603D02*
X15165229Y-15020079D01*
X15165229Y-15020079D02*
X15174753Y-15001031D01*
X15174753Y-15001031D02*
X15184277Y-14991508D01*
X15184277Y-14991508D02*
X15203325Y-14981984D01*
X15203325Y-14981984D02*
X15241420Y-14981984D01*
X15241420Y-14981984D02*
X15260468Y-14991508D01*
X15260468Y-14991508D02*
X15269991Y-15001031D01*
X15269991Y-15001031D02*
X15279515Y-15020079D01*
X15279515Y-15020079D02*
X15279515Y-15029603D01*
X15279515Y-15029603D02*
X15269991Y-15048650D01*
X15269991Y-15048650D02*
X15260468Y-15058174D01*
X15260468Y-15058174D02*
X15241420Y-15067698D01*
X15241420Y-15067698D02*
X15203325Y-15067698D01*
X15203325Y-15067698D02*
X15184277Y-15077222D01*
X15184277Y-15077222D02*
X15174753Y-15086746D01*
X15174753Y-15086746D02*
X15165229Y-15105793D01*
X15165229Y-15105793D02*
X15165229Y-15143888D01*
X15165229Y-15143888D02*
X15174753Y-15162936D01*
X15174753Y-15162936D02*
X15184277Y-15172460D01*
X15184277Y-15172460D02*
X15203325Y-15181984D01*
X15203325Y-15181984D02*
X15241420Y-15181984D01*
X15241420Y-15181984D02*
X15260468Y-15172460D01*
X15260468Y-15172460D02*
X15269991Y-15162936D01*
X15269991Y-15162936D02*
X15279515Y-15143888D01*
X15279515Y-15143888D02*
X15279515Y-15105793D01*
X15279515Y-15105793D02*
X15269991Y-15086746D01*
X15269991Y-15086746D02*
X15260468Y-15077222D01*
X15260468Y-15077222D02*
X15241420Y-15067698D01*
X15517610Y-15181984D02*
X15517610Y-14981984D01*
X15603325Y-15181984D02*
X15603325Y-15077222D01*
X15603325Y-15077222D02*
X15593801Y-15058174D01*
X15593801Y-15058174D02*
X15574753Y-15048650D01*
X15574753Y-15048650D02*
X15546182Y-15048650D01*
X15546182Y-15048650D02*
X15527134Y-15058174D01*
X15527134Y-15058174D02*
X15517610Y-15067698D01*
X15727134Y-15181984D02*
X15708087Y-15172460D01*
X15708087Y-15172460D02*
X15698563Y-15162936D01*
X15698563Y-15162936D02*
X15689039Y-15143888D01*
X15689039Y-15143888D02*
X15689039Y-15086746D01*
X15689039Y-15086746D02*
X15698563Y-15067698D01*
X15698563Y-15067698D02*
X15708087Y-15058174D01*
X15708087Y-15058174D02*
X15727134Y-15048650D01*
X15727134Y-15048650D02*
X15755706Y-15048650D01*
X15755706Y-15048650D02*
X15774753Y-15058174D01*
X15774753Y-15058174D02*
X15784277Y-15067698D01*
X15784277Y-15067698D02*
X15793801Y-15086746D01*
X15793801Y-15086746D02*
X15793801Y-15143888D01*
X15793801Y-15143888D02*
X15784277Y-15162936D01*
X15784277Y-15162936D02*
X15774753Y-15172460D01*
X15774753Y-15172460D02*
X15755706Y-15181984D01*
X15755706Y-15181984D02*
X15727134Y-15181984D01*
X15908087Y-15181984D02*
X15889039Y-15172460D01*
X15889039Y-15172460D02*
X15879515Y-15153412D01*
X15879515Y-15153412D02*
X15879515Y-14981984D01*
X16060468Y-15172460D02*
X16041420Y-15181984D01*
X16041420Y-15181984D02*
X16003325Y-15181984D01*
X16003325Y-15181984D02*
X15984277Y-15172460D01*
X15984277Y-15172460D02*
X15974753Y-15153412D01*
X15974753Y-15153412D02*
X15974753Y-15077222D01*
X15974753Y-15077222D02*
X15984277Y-15058174D01*
X15984277Y-15058174D02*
X16003325Y-15048650D01*
X16003325Y-15048650D02*
X16041420Y-15048650D01*
X16041420Y-15048650D02*
X16060468Y-15058174D01*
X16060468Y-15058174D02*
X16069991Y-15077222D01*
X16069991Y-15077222D02*
X16069991Y-15096269D01*
X16069991Y-15096269D02*
X15974753Y-15115317D01*
X16146182Y-15172460D02*
X16165230Y-15181984D01*
X16165230Y-15181984D02*
X16203325Y-15181984D01*
X16203325Y-15181984D02*
X16222372Y-15172460D01*
X16222372Y-15172460D02*
X16231896Y-15153412D01*
X16231896Y-15153412D02*
X16231896Y-15143888D01*
X16231896Y-15143888D02*
X16222372Y-15124841D01*
X16222372Y-15124841D02*
X16203325Y-15115317D01*
X16203325Y-15115317D02*
X16174753Y-15115317D01*
X16174753Y-15115317D02*
X16155706Y-15105793D01*
X16155706Y-15105793D02*
X16146182Y-15086746D01*
X16146182Y-15086746D02*
X16146182Y-15077222D01*
X16146182Y-15077222D02*
X16155706Y-15058174D01*
X16155706Y-15058174D02*
X16174753Y-15048650D01*
X16174753Y-15048650D02*
X16203325Y-15048650D01*
X16203325Y-15048650D02*
X16222372Y-15058174D01*
X16298563Y-15258174D02*
X16308087Y-15248650D01*
X16308087Y-15248650D02*
X16327134Y-15220079D01*
X16327134Y-15220079D02*
X16336658Y-15201031D01*
X16336658Y-15201031D02*
X16346182Y-15172460D01*
X16346182Y-15172460D02*
X16355706Y-15124841D01*
X16355706Y-15124841D02*
X16355706Y-15086746D01*
X16355706Y-15086746D02*
X16346182Y-15039127D01*
X16346182Y-15039127D02*
X16336658Y-15010555D01*
X16336658Y-15010555D02*
X16327134Y-14991508D01*
X16327134Y-14991508D02*
X16308087Y-14962936D01*
X16308087Y-14962936D02*
X16298563Y-14953412D01*
D13*
X11504462Y-15400462D02*
X11504462Y-15308538D01*
X11412538Y-15308538D01*
X11412538Y-15400462D01*
X11504462Y-15400462D01*
D11*
X11889039Y-15445984D02*
X11774753Y-15445984D01*
X11831896Y-15445984D02*
X11831896Y-15245984D01*
X11831896Y-15245984D02*
X11812848Y-15274555D01*
X11812848Y-15274555D02*
X11793801Y-15293603D01*
X11793801Y-15293603D02*
X11774753Y-15303127D01*
X11974753Y-15426936D02*
X11984277Y-15436460D01*
X11984277Y-15436460D02*
X11974753Y-15445984D01*
X11974753Y-15445984D02*
X11965229Y-15436460D01*
X11965229Y-15436460D02*
X11974753Y-15426936D01*
X11974753Y-15426936D02*
X11974753Y-15445984D01*
X12050943Y-15245984D02*
X12174753Y-15245984D01*
X12174753Y-15245984D02*
X12108086Y-15322174D01*
X12108086Y-15322174D02*
X12136658Y-15322174D01*
X12136658Y-15322174D02*
X12155705Y-15331698D01*
X12155705Y-15331698D02*
X12165229Y-15341222D01*
X12165229Y-15341222D02*
X12174753Y-15360269D01*
X12174753Y-15360269D02*
X12174753Y-15407888D01*
X12174753Y-15407888D02*
X12165229Y-15426936D01*
X12165229Y-15426936D02*
X12155705Y-15436460D01*
X12155705Y-15436460D02*
X12136658Y-15445984D01*
X12136658Y-15445984D02*
X12079515Y-15445984D01*
X12079515Y-15445984D02*
X12060467Y-15436460D01*
X12060467Y-15436460D02*
X12050943Y-15426936D01*
X12298562Y-15245984D02*
X12317610Y-15245984D01*
X12317610Y-15245984D02*
X12336658Y-15255508D01*
X12336658Y-15255508D02*
X12346182Y-15265031D01*
X12346182Y-15265031D02*
X12355705Y-15284079D01*
X12355705Y-15284079D02*
X12365229Y-15322174D01*
X12365229Y-15322174D02*
X12365229Y-15369793D01*
X12365229Y-15369793D02*
X12355705Y-15407888D01*
X12355705Y-15407888D02*
X12346182Y-15426936D01*
X12346182Y-15426936D02*
X12336658Y-15436460D01*
X12336658Y-15436460D02*
X12317610Y-15445984D01*
X12317610Y-15445984D02*
X12298562Y-15445984D01*
X12298562Y-15445984D02*
X12279515Y-15436460D01*
X12279515Y-15436460D02*
X12269991Y-15426936D01*
X12269991Y-15426936D02*
X12260467Y-15407888D01*
X12260467Y-15407888D02*
X12250943Y-15369793D01*
X12250943Y-15369793D02*
X12250943Y-15322174D01*
X12250943Y-15322174D02*
X12260467Y-15284079D01*
X12260467Y-15284079D02*
X12269991Y-15265031D01*
X12269991Y-15265031D02*
X12279515Y-15255508D01*
X12279515Y-15255508D02*
X12298562Y-15245984D01*
X12489039Y-15245984D02*
X12508086Y-15245984D01*
X12508086Y-15245984D02*
X12527134Y-15255508D01*
X12527134Y-15255508D02*
X12536658Y-15265031D01*
X12536658Y-15265031D02*
X12546182Y-15284079D01*
X12546182Y-15284079D02*
X12555705Y-15322174D01*
X12555705Y-15322174D02*
X12555705Y-15369793D01*
X12555705Y-15369793D02*
X12546182Y-15407888D01*
X12546182Y-15407888D02*
X12536658Y-15426936D01*
X12536658Y-15426936D02*
X12527134Y-15436460D01*
X12527134Y-15436460D02*
X12508086Y-15445984D01*
X12508086Y-15445984D02*
X12489039Y-15445984D01*
X12489039Y-15445984D02*
X12469991Y-15436460D01*
X12469991Y-15436460D02*
X12460467Y-15426936D01*
X12460467Y-15426936D02*
X12450943Y-15407888D01*
X12450943Y-15407888D02*
X12441420Y-15369793D01*
X12441420Y-15369793D02*
X12441420Y-15322174D01*
X12441420Y-15322174D02*
X12450943Y-15284079D01*
X12450943Y-15284079D02*
X12460467Y-15265031D01*
X12460467Y-15265031D02*
X12469991Y-15255508D01*
X12469991Y-15255508D02*
X12489039Y-15245984D01*
X12641420Y-15445984D02*
X12641420Y-15312650D01*
X12641420Y-15331698D02*
X12650943Y-15322174D01*
X12650943Y-15322174D02*
X12669991Y-15312650D01*
X12669991Y-15312650D02*
X12698563Y-15312650D01*
X12698563Y-15312650D02*
X12717610Y-15322174D01*
X12717610Y-15322174D02*
X12727134Y-15341222D01*
X12727134Y-15341222D02*
X12727134Y-15445984D01*
X12727134Y-15341222D02*
X12736658Y-15322174D01*
X12736658Y-15322174D02*
X12755705Y-15312650D01*
X12755705Y-15312650D02*
X12784277Y-15312650D01*
X12784277Y-15312650D02*
X12803324Y-15322174D01*
X12803324Y-15322174D02*
X12812848Y-15341222D01*
X12812848Y-15341222D02*
X12812848Y-15445984D01*
X12908086Y-15445984D02*
X12908086Y-15312650D01*
X12908086Y-15331698D02*
X12917610Y-15322174D01*
X12917610Y-15322174D02*
X12936658Y-15312650D01*
X12936658Y-15312650D02*
X12965229Y-15312650D01*
X12965229Y-15312650D02*
X12984277Y-15322174D01*
X12984277Y-15322174D02*
X12993801Y-15341222D01*
X12993801Y-15341222D02*
X12993801Y-15445984D01*
X12993801Y-15341222D02*
X13003324Y-15322174D01*
X13003324Y-15322174D02*
X13022372Y-15312650D01*
X13022372Y-15312650D02*
X13050943Y-15312650D01*
X13050943Y-15312650D02*
X13069991Y-15322174D01*
X13069991Y-15322174D02*
X13079515Y-15341222D01*
X13079515Y-15341222D02*
X13079515Y-15445984D01*
X13469991Y-15236460D02*
X13298563Y-15493603D01*
X13727134Y-15245984D02*
X13746182Y-15245984D01*
X13746182Y-15245984D02*
X13765229Y-15255508D01*
X13765229Y-15255508D02*
X13774753Y-15265031D01*
X13774753Y-15265031D02*
X13784277Y-15284079D01*
X13784277Y-15284079D02*
X13793801Y-15322174D01*
X13793801Y-15322174D02*
X13793801Y-15369793D01*
X13793801Y-15369793D02*
X13784277Y-15407888D01*
X13784277Y-15407888D02*
X13774753Y-15426936D01*
X13774753Y-15426936D02*
X13765229Y-15436460D01*
X13765229Y-15436460D02*
X13746182Y-15445984D01*
X13746182Y-15445984D02*
X13727134Y-15445984D01*
X13727134Y-15445984D02*
X13708086Y-15436460D01*
X13708086Y-15436460D02*
X13698563Y-15426936D01*
X13698563Y-15426936D02*
X13689039Y-15407888D01*
X13689039Y-15407888D02*
X13679515Y-15369793D01*
X13679515Y-15369793D02*
X13679515Y-15322174D01*
X13679515Y-15322174D02*
X13689039Y-15284079D01*
X13689039Y-15284079D02*
X13698563Y-15265031D01*
X13698563Y-15265031D02*
X13708086Y-15255508D01*
X13708086Y-15255508D02*
X13727134Y-15245984D01*
X13879515Y-15426936D02*
X13889039Y-15436460D01*
X13889039Y-15436460D02*
X13879515Y-15445984D01*
X13879515Y-15445984D02*
X13869991Y-15436460D01*
X13869991Y-15436460D02*
X13879515Y-15426936D01*
X13879515Y-15426936D02*
X13879515Y-15445984D01*
X14012848Y-15245984D02*
X14031896Y-15245984D01*
X14031896Y-15245984D02*
X14050944Y-15255508D01*
X14050944Y-15255508D02*
X14060467Y-15265031D01*
X14060467Y-15265031D02*
X14069991Y-15284079D01*
X14069991Y-15284079D02*
X14079515Y-15322174D01*
X14079515Y-15322174D02*
X14079515Y-15369793D01*
X14079515Y-15369793D02*
X14069991Y-15407888D01*
X14069991Y-15407888D02*
X14060467Y-15426936D01*
X14060467Y-15426936D02*
X14050944Y-15436460D01*
X14050944Y-15436460D02*
X14031896Y-15445984D01*
X14031896Y-15445984D02*
X14012848Y-15445984D01*
X14012848Y-15445984D02*
X13993801Y-15436460D01*
X13993801Y-15436460D02*
X13984277Y-15426936D01*
X13984277Y-15426936D02*
X13974753Y-15407888D01*
X13974753Y-15407888D02*
X13965229Y-15369793D01*
X13965229Y-15369793D02*
X13965229Y-15322174D01*
X13965229Y-15322174D02*
X13974753Y-15284079D01*
X13974753Y-15284079D02*
X13984277Y-15265031D01*
X13984277Y-15265031D02*
X13993801Y-15255508D01*
X13993801Y-15255508D02*
X14012848Y-15245984D01*
X14260467Y-15245984D02*
X14165229Y-15245984D01*
X14165229Y-15245984D02*
X14155706Y-15341222D01*
X14155706Y-15341222D02*
X14165229Y-15331698D01*
X14165229Y-15331698D02*
X14184277Y-15322174D01*
X14184277Y-15322174D02*
X14231896Y-15322174D01*
X14231896Y-15322174D02*
X14250944Y-15331698D01*
X14250944Y-15331698D02*
X14260467Y-15341222D01*
X14260467Y-15341222D02*
X14269991Y-15360269D01*
X14269991Y-15360269D02*
X14269991Y-15407888D01*
X14269991Y-15407888D02*
X14260467Y-15426936D01*
X14260467Y-15426936D02*
X14250944Y-15436460D01*
X14250944Y-15436460D02*
X14231896Y-15445984D01*
X14231896Y-15445984D02*
X14184277Y-15445984D01*
X14184277Y-15445984D02*
X14165229Y-15436460D01*
X14165229Y-15436460D02*
X14155706Y-15426936D01*
X14460467Y-15445984D02*
X14346182Y-15445984D01*
X14403325Y-15445984D02*
X14403325Y-15245984D01*
X14403325Y-15245984D02*
X14384277Y-15274555D01*
X14384277Y-15274555D02*
X14365229Y-15293603D01*
X14365229Y-15293603D02*
X14346182Y-15303127D01*
X14536658Y-15265031D02*
X14546182Y-15255508D01*
X14546182Y-15255508D02*
X14565229Y-15245984D01*
X14565229Y-15245984D02*
X14612848Y-15245984D01*
X14612848Y-15245984D02*
X14631896Y-15255508D01*
X14631896Y-15255508D02*
X14641420Y-15265031D01*
X14641420Y-15265031D02*
X14650944Y-15284079D01*
X14650944Y-15284079D02*
X14650944Y-15303127D01*
X14650944Y-15303127D02*
X14641420Y-15331698D01*
X14641420Y-15331698D02*
X14527134Y-15445984D01*
X14527134Y-15445984D02*
X14650944Y-15445984D01*
X14727134Y-15245984D02*
X14727134Y-15284079D01*
X14803325Y-15245984D02*
X14803325Y-15284079D01*
X15098563Y-15522174D02*
X15089039Y-15512650D01*
X15089039Y-15512650D02*
X15069991Y-15484079D01*
X15069991Y-15484079D02*
X15060468Y-15465031D01*
X15060468Y-15465031D02*
X15050944Y-15436460D01*
X15050944Y-15436460D02*
X15041420Y-15388841D01*
X15041420Y-15388841D02*
X15041420Y-15350746D01*
X15041420Y-15350746D02*
X15050944Y-15303127D01*
X15050944Y-15303127D02*
X15060468Y-15274555D01*
X15060468Y-15274555D02*
X15069991Y-15255508D01*
X15069991Y-15255508D02*
X15089039Y-15226936D01*
X15089039Y-15226936D02*
X15098563Y-15217412D01*
X15279515Y-15445984D02*
X15165229Y-15445984D01*
X15222372Y-15445984D02*
X15222372Y-15245984D01*
X15222372Y-15245984D02*
X15203325Y-15274555D01*
X15203325Y-15274555D02*
X15184277Y-15293603D01*
X15184277Y-15293603D02*
X15165229Y-15303127D01*
X15374753Y-15445984D02*
X15412848Y-15445984D01*
X15412848Y-15445984D02*
X15431896Y-15436460D01*
X15431896Y-15436460D02*
X15441420Y-15426936D01*
X15441420Y-15426936D02*
X15460468Y-15398365D01*
X15460468Y-15398365D02*
X15469991Y-15360269D01*
X15469991Y-15360269D02*
X15469991Y-15284079D01*
X15469991Y-15284079D02*
X15460468Y-15265031D01*
X15460468Y-15265031D02*
X15450944Y-15255508D01*
X15450944Y-15255508D02*
X15431896Y-15245984D01*
X15431896Y-15245984D02*
X15393801Y-15245984D01*
X15393801Y-15245984D02*
X15374753Y-15255508D01*
X15374753Y-15255508D02*
X15365229Y-15265031D01*
X15365229Y-15265031D02*
X15355706Y-15284079D01*
X15355706Y-15284079D02*
X15355706Y-15331698D01*
X15355706Y-15331698D02*
X15365229Y-15350746D01*
X15365229Y-15350746D02*
X15374753Y-15360269D01*
X15374753Y-15360269D02*
X15393801Y-15369793D01*
X15393801Y-15369793D02*
X15431896Y-15369793D01*
X15431896Y-15369793D02*
X15450944Y-15360269D01*
X15450944Y-15360269D02*
X15460468Y-15350746D01*
X15460468Y-15350746D02*
X15469991Y-15331698D01*
X15708087Y-15445984D02*
X15708087Y-15245984D01*
X15793801Y-15445984D02*
X15793801Y-15341222D01*
X15793801Y-15341222D02*
X15784277Y-15322174D01*
X15784277Y-15322174D02*
X15765230Y-15312650D01*
X15765230Y-15312650D02*
X15736658Y-15312650D01*
X15736658Y-15312650D02*
X15717610Y-15322174D01*
X15717610Y-15322174D02*
X15708087Y-15331698D01*
X15917610Y-15445984D02*
X15898563Y-15436460D01*
X15898563Y-15436460D02*
X15889039Y-15426936D01*
X15889039Y-15426936D02*
X15879515Y-15407888D01*
X15879515Y-15407888D02*
X15879515Y-15350746D01*
X15879515Y-15350746D02*
X15889039Y-15331698D01*
X15889039Y-15331698D02*
X15898563Y-15322174D01*
X15898563Y-15322174D02*
X15917610Y-15312650D01*
X15917610Y-15312650D02*
X15946182Y-15312650D01*
X15946182Y-15312650D02*
X15965230Y-15322174D01*
X15965230Y-15322174D02*
X15974753Y-15331698D01*
X15974753Y-15331698D02*
X15984277Y-15350746D01*
X15984277Y-15350746D02*
X15984277Y-15407888D01*
X15984277Y-15407888D02*
X15974753Y-15426936D01*
X15974753Y-15426936D02*
X15965230Y-15436460D01*
X15965230Y-15436460D02*
X15946182Y-15445984D01*
X15946182Y-15445984D02*
X15917610Y-15445984D01*
X16098563Y-15445984D02*
X16079515Y-15436460D01*
X16079515Y-15436460D02*
X16069991Y-15417412D01*
X16069991Y-15417412D02*
X16069991Y-15245984D01*
X16250944Y-15436460D02*
X16231896Y-15445984D01*
X16231896Y-15445984D02*
X16193801Y-15445984D01*
X16193801Y-15445984D02*
X16174753Y-15436460D01*
X16174753Y-15436460D02*
X16165230Y-15417412D01*
X16165230Y-15417412D02*
X16165230Y-15341222D01*
X16165230Y-15341222D02*
X16174753Y-15322174D01*
X16174753Y-15322174D02*
X16193801Y-15312650D01*
X16193801Y-15312650D02*
X16231896Y-15312650D01*
X16231896Y-15312650D02*
X16250944Y-15322174D01*
X16250944Y-15322174D02*
X16260468Y-15341222D01*
X16260468Y-15341222D02*
X16260468Y-15360269D01*
X16260468Y-15360269D02*
X16165230Y-15379317D01*
X16336658Y-15436460D02*
X16355706Y-15445984D01*
X16355706Y-15445984D02*
X16393801Y-15445984D01*
X16393801Y-15445984D02*
X16412849Y-15436460D01*
X16412849Y-15436460D02*
X16422372Y-15417412D01*
X16422372Y-15417412D02*
X16422372Y-15407888D01*
X16422372Y-15407888D02*
X16412849Y-15388841D01*
X16412849Y-15388841D02*
X16393801Y-15379317D01*
X16393801Y-15379317D02*
X16365230Y-15379317D01*
X16365230Y-15379317D02*
X16346182Y-15369793D01*
X16346182Y-15369793D02*
X16336658Y-15350746D01*
X16336658Y-15350746D02*
X16336658Y-15341222D01*
X16336658Y-15341222D02*
X16346182Y-15322174D01*
X16346182Y-15322174D02*
X16365230Y-15312650D01*
X16365230Y-15312650D02*
X16393801Y-15312650D01*
X16393801Y-15312650D02*
X16412849Y-15322174D01*
X16489039Y-15522174D02*
X16498563Y-15512650D01*
X16498563Y-15512650D02*
X16517611Y-15484079D01*
X16517611Y-15484079D02*
X16527134Y-15465031D01*
X16527134Y-15465031D02*
X16536658Y-15436460D01*
X16536658Y-15436460D02*
X16546182Y-15388841D01*
X16546182Y-15388841D02*
X16546182Y-15350746D01*
X16546182Y-15350746D02*
X16536658Y-15303127D01*
X16536658Y-15303127D02*
X16527134Y-15274555D01*
X16527134Y-15274555D02*
X16517611Y-15255508D01*
X16517611Y-15255508D02*
X16498563Y-15226936D01*
X16498563Y-15226936D02*
X16489039Y-15217412D01*
M02*
