%TF.GenerationSoftware,KiCad,Pcbnew,7.0.10*%
%TF.CreationDate,2024-07-22T09:22:49-04:00*%
%TF.ProjectId,12.X.1 - PLC Connector Combined.kicad_pcb_MERGED,31322e58-2e31-4202-9d20-504c4320436f,rev?*%
%TF.SameCoordinates,Original*%
%TF.FileFunction,Soldermask,Top*%
%TF.FilePolarity,Negative*%
%FSLAX46Y46*%
G04 Gerber Fmt 4.6, Leading zero omitted, Abs format (unit mm)*
G04 Created by KiCad (PCBNEW 7.0.10) date 2024-07-22 09:22:49*
%MOMM*%
%LPD*%
G01*
G04 APERTURE LIST*
G04 Aperture macros list*
%AMRoundRect*
0 Rectangle with rounded corners*
0 $1 Rounding radius*
0 $2 $3 $4 $5 $6 $7 $8 $9 X,Y pos of 4 corners*
0 Add a 4 corners polygon primitive as box body*
4,1,4,$2,$3,$4,$5,$6,$7,$8,$9,$2,$3,0*
0 Add four circle primitives for the rounded corners*
1,1,$1+$1,$2,$3*
1,1,$1+$1,$4,$5*
1,1,$1+$1,$6,$7*
1,1,$1+$1,$8,$9*
0 Add four rect primitives between the rounded corners*
20,1,$1+$1,$2,$3,$4,$5,0*
20,1,$1+$1,$4,$5,$6,$7,0*
20,1,$1+$1,$6,$7,$8,$9,0*
20,1,$1+$1,$8,$9,$2,$3,0*%
%AMFreePoly0*
4,1,19,0.750000,-0.750000,-0.200000,-0.750000,-0.200000,-0.744911,-0.221157,-0.744911,-0.357708,-0.704816,-0.477430,-0.627875,-0.570627,-0.520320,-0.629746,-0.390866,-0.650000,-0.250000,-0.650000,0.250000,-0.629746,0.390866,-0.570627,0.520320,-0.477430,0.627875,-0.357708,0.704816,-0.221157,0.744911,-0.200000,0.744911,-0.200000,0.750000,0.750000,0.750000,0.750000,-0.750000,0.750000,-0.750000,
$1*%
%AMFreePoly1*
4,1,19,0.200000,0.744911,0.221157,0.744911,0.357708,0.704816,0.477430,0.627875,0.570627,0.520320,0.629746,0.390866,0.650000,0.250000,0.650000,-0.250000,0.629746,-0.390866,0.570627,-0.520320,0.477430,-0.627875,0.357708,-0.704816,0.221157,-0.744911,0.200000,-0.744911,0.200000,-0.750000,-0.750000,-0.750000,-0.750000,0.750000,0.200000,0.750000,0.200000,0.744911,0.200000,0.744911,
$1*%
G04 Aperture macros list end*
%ADD10C,1.600000*%
%ADD11O,1.600000X1.600000*%
%ADD12RoundRect,0.572500X-3.045750X-0.572500X3.045750X-0.572500X3.045750X0.572500X-3.045750X0.572500X0*%
%ADD13R,1.950000X1.950000*%
%ADD14C,1.950000*%
%ADD15RoundRect,0.150000X-0.150000X0.587500X-0.150000X-0.587500X0.150000X-0.587500X0.150000X0.587500X0*%
%ADD16RoundRect,0.250000X-0.300000X-0.300000X0.300000X-0.300000X0.300000X0.300000X-0.300000X0.300000X0*%
%ADD17RoundRect,0.250000X0.300000X0.300000X-0.300000X0.300000X-0.300000X-0.300000X0.300000X-0.300000X0*%
%ADD18FreePoly0,270.000000*%
%ADD19FreePoly1,270.000000*%
%ADD20C,1.498600*%
G04 APERTURE END LIST*
D10*
%TO.C,R203*%
X129778250Y-89942224D03*
D11*
X129778250Y-95022224D03*
%TD*%
D12*
%TO.C,J307*%
X171148250Y-122735000D03*
%TD*%
D13*
%TO.C,J318*%
X153468250Y-92040000D03*
D14*
X153468250Y-97120000D03*
%TD*%
D15*
%TO.C,D305*%
X161338250Y-124327500D03*
X159438250Y-124327500D03*
X160388250Y-126202500D03*
%TD*%
D12*
%TO.C,J202*%
X119158250Y-117739446D03*
%TD*%
%TO.C,J201*%
X119138250Y-122827224D03*
%TD*%
D13*
%TO.C,J317*%
X153468250Y-71405000D03*
D14*
X153468250Y-76485000D03*
X153468250Y-81565000D03*
%TD*%
D16*
%TO.C,D301*%
X149860750Y-86285000D03*
X152660750Y-86285000D03*
%TD*%
D12*
%TO.C,J204*%
X119158250Y-107593890D03*
%TD*%
%TO.C,J210*%
X119138250Y-77127224D03*
%TD*%
%TO.C,J315*%
X171158250Y-107515000D03*
%TD*%
D13*
%TO.C,J222*%
X137658250Y-102482224D03*
D14*
X137658250Y-97402224D03*
%TD*%
D12*
%TO.C,J206*%
X119168250Y-97428334D03*
%TD*%
D17*
%TO.C,D302*%
X154288250Y-102025000D03*
X151488250Y-102025000D03*
%TD*%
D10*
%TO.C,R202*%
X129778250Y-105237224D03*
D11*
X129778250Y-110317224D03*
%TD*%
D12*
%TO.C,J207*%
X119168250Y-92340556D03*
%TD*%
D10*
%TO.C,R201*%
X129738250Y-120332224D03*
D11*
X129738250Y-115252224D03*
%TD*%
D13*
%TO.C,J225*%
X137628250Y-92157224D03*
D14*
X137628250Y-87077224D03*
%TD*%
D15*
%TO.C,D308*%
X161238250Y-94927500D03*
X159338250Y-94927500D03*
X160288250Y-96802500D03*
%TD*%
D18*
%TO.C,JP303*%
X160778250Y-116335000D03*
D19*
X160778250Y-118835000D03*
%TD*%
D15*
%TO.C,D307*%
X161198250Y-78697500D03*
X159298250Y-78697500D03*
X160248250Y-80572500D03*
%TD*%
D12*
%TO.C,J311*%
X171138250Y-92255000D03*
%TD*%
%TO.C,J310*%
X171128250Y-82105000D03*
%TD*%
D18*
%TO.C,JP301*%
X160888250Y-86015000D03*
D19*
X160888250Y-88515000D03*
%TD*%
D17*
%TO.C,D304*%
X157468250Y-86285000D03*
X154668250Y-86285000D03*
%TD*%
D13*
%TO.C,J319*%
X153418250Y-123600000D03*
D14*
X153418250Y-128680000D03*
%TD*%
D18*
%TO.C,JP302*%
X160698250Y-101295000D03*
D19*
X160698250Y-103795000D03*
%TD*%
D13*
%TO.C,J223*%
X137608250Y-81947224D03*
D14*
X137608250Y-76867224D03*
%TD*%
D12*
%TO.C,J316*%
X171156500Y-112570000D03*
%TD*%
%TO.C,J209*%
X119138250Y-82185000D03*
%TD*%
D13*
%TO.C,J224*%
X137658250Y-122857224D03*
D14*
X137658250Y-117777224D03*
%TD*%
D12*
%TO.C,J309*%
X171128250Y-77025000D03*
%TD*%
%TO.C,J312*%
X171158250Y-97345000D03*
%TD*%
D13*
%TO.C,J221*%
X137628250Y-112837224D03*
D14*
X137628250Y-107757224D03*
%TD*%
D20*
%TO.C,J226*%
X141048250Y-131047224D03*
X138548250Y-131047224D03*
X136048250Y-131047224D03*
X133548250Y-131047224D03*
%TD*%
D12*
%TO.C,J208*%
X119158250Y-87282778D03*
%TD*%
%TO.C,J308*%
X171148250Y-127825000D03*
%TD*%
%TO.C,J203*%
X119168250Y-112661668D03*
%TD*%
D15*
%TO.C,D306*%
X161198250Y-109137500D03*
X159298250Y-109137500D03*
X160248250Y-111012500D03*
%TD*%
D10*
%TO.C,R204*%
X129868250Y-79722224D03*
D11*
X129868250Y-84802224D03*
%TD*%
D17*
%TO.C,D303*%
X153555750Y-117795000D03*
X150755750Y-117795000D03*
%TD*%
D20*
%TO.C,J321*%
X157095050Y-135824601D03*
X154595050Y-135824601D03*
X152095050Y-135824601D03*
X149595050Y-135824601D03*
%TD*%
D12*
%TO.C,J205*%
X119088250Y-102536112D03*
%TD*%
D13*
%TO.C,J320*%
X153448250Y-107655000D03*
D14*
X153448250Y-112735000D03*
%TD*%
M02*
