%TF.GenerationSoftware,KiCad,Pcbnew,7.0.10*%
%TF.CreationDate,2024-07-21T08:04:50-04:00*%
%TF.ProjectId,12.1.1 - PLC Connector,31322e31-2e31-4202-9d20-504c4320436f,rev?*%
%TF.SameCoordinates,Original*%
%TF.FileFunction,Drillmap*%
%TF.FilePolarity,Positive*%
%FSLAX45Y45*%
G04 Gerber Fmt 4.5, Leading zero omitted, Abs format (unit mm)*
G04 Created by KiCad (PCBNEW 7.0.10) date 2024-07-21 08:04:50*
%MOMM*%
%LPD*%
G01*
G04 APERTURE LIST*
%ADD10C,0.250000*%
%ADD11C,0.200000*%
%ADD12C,0.100000*%
%ADD13C,0.124460*%
%ADD14C,0.130000*%
G04 APERTURE END LIST*
D10*
X14413613Y-11506217D02*
G75*
G03*
X14338614Y-11431217I-75003J-3D01*
G01*
X13213614Y-8129224D02*
G75*
G03*
X13138614Y-8204217I-5J-74996D01*
G01*
X14413614Y-12626217D02*
X14413614Y-12522217D01*
X14413614Y-10086217D02*
X14413614Y-9982217D01*
X13213614Y-8637217D02*
X14338614Y-8637217D01*
X16038614Y-14009224D02*
G75*
G03*
X16113614Y-13934217I-5J75005D01*
G01*
X14413614Y-11610217D02*
X14413614Y-11506217D01*
X13138613Y-9324217D02*
G75*
G03*
X13213614Y-9399217I74997J-3D01*
G01*
X14413614Y-13934217D02*
X14413614Y-13030217D01*
X13213614Y-9653225D02*
G75*
G03*
X13138614Y-9728217I-5J-74996D01*
G01*
X13138613Y-10848217D02*
G75*
G03*
X13213614Y-10923217I74997J-3D01*
G01*
X13138614Y-8816217D02*
X13138614Y-8712217D01*
X14413613Y-9474217D02*
G75*
G03*
X14338614Y-9399217I-75003J-3D01*
G01*
X13213614Y-11177217D02*
X14338614Y-11177217D01*
X13138614Y-9832217D02*
X13138614Y-9728217D01*
X14338614Y-8891217D02*
X13213614Y-8891217D01*
X14338614Y-12193224D02*
G75*
G03*
X14413614Y-12118217I-5J75005D01*
G01*
X13213614Y-9145217D02*
X14338614Y-9145217D01*
X14488614Y-7875217D02*
X16038614Y-7875217D01*
X13213614Y-10669225D02*
G75*
G03*
X13138614Y-10744217I-5J-74996D01*
G01*
X14413614Y-11102217D02*
X14413614Y-10998217D01*
X14413613Y-13934217D02*
G75*
G03*
X14488614Y-14009217I74997J-3D01*
G01*
X13138613Y-8308217D02*
G75*
G03*
X13213614Y-8383217I74997J-3D01*
G01*
X14338614Y-11685224D02*
G75*
G03*
X14413614Y-11610217I-5J75005D01*
G01*
X13213614Y-12193217D02*
X14338614Y-12193217D01*
X16038614Y-14009217D02*
X14488614Y-14009217D01*
X13213614Y-10669217D02*
X14338614Y-10669217D01*
X14338614Y-10161225D02*
G75*
G03*
X14413614Y-10086217I-5J75005D01*
G01*
X14413613Y-8966217D02*
G75*
G03*
X14338614Y-8891217I-75003J-3D01*
G01*
X14338614Y-10923217D02*
X13213614Y-10923217D01*
X14413614Y-8562217D02*
X14413614Y-8458217D01*
X14338614Y-10669225D02*
G75*
G03*
X14413614Y-10594217I-5J75005D01*
G01*
X13138614Y-12880217D02*
X13138614Y-12776217D01*
X14413614Y-8054217D02*
X14413614Y-7950217D01*
X13138614Y-12372217D02*
X13138614Y-12268217D01*
X16113614Y-7950217D02*
X16113614Y-13934217D01*
X14413613Y-8458217D02*
G75*
G03*
X14338614Y-8383217I-75003J-3D01*
G01*
X13138614Y-10340217D02*
X13138614Y-10236217D01*
X13138614Y-10848217D02*
X13138614Y-10744217D01*
X13138613Y-12372217D02*
G75*
G03*
X13213614Y-12447217I74997J-3D01*
G01*
X13213614Y-12701217D02*
X14338614Y-12701217D01*
X14338614Y-12447217D02*
X13213614Y-12447217D01*
X13138613Y-8816217D02*
G75*
G03*
X13213614Y-8891217I74997J-3D01*
G01*
X14413614Y-9070217D02*
X14413614Y-8966217D01*
X14338614Y-9145225D02*
G75*
G03*
X14413614Y-9070217I-5J75005D01*
G01*
X13138613Y-10340217D02*
G75*
G03*
X13213614Y-10415217I74997J-3D01*
G01*
X13138614Y-11864217D02*
X13138614Y-11760217D01*
X14413613Y-12522217D02*
G75*
G03*
X14338614Y-12447217I-75003J-3D01*
G01*
X14413613Y-9982217D02*
G75*
G03*
X14338614Y-9907217I-75003J-3D01*
G01*
X14488614Y-7875224D02*
G75*
G03*
X14413614Y-7950217I-5J-74996D01*
G01*
X13213614Y-9145225D02*
G75*
G03*
X13138614Y-9220217I-5J-74996D01*
G01*
X16113613Y-7950217D02*
G75*
G03*
X16038614Y-7875217I-75003J-3D01*
G01*
X14413613Y-12014217D02*
G75*
G03*
X14338614Y-11939217I-75003J-3D01*
G01*
X13138613Y-12880217D02*
G75*
G03*
X13213614Y-12955217I74997J-3D01*
G01*
X13138613Y-11864217D02*
G75*
G03*
X13213614Y-11939217I74997J-3D01*
G01*
X13213614Y-10161225D02*
G75*
G03*
X13138614Y-10236217I-5J-74996D01*
G01*
X13213614Y-9653217D02*
X14338614Y-9653217D01*
X13138614Y-11356217D02*
X13138614Y-11252217D01*
X13213614Y-12701224D02*
G75*
G03*
X13138614Y-12776217I-5J-74996D01*
G01*
X14338614Y-8129224D02*
G75*
G03*
X14413614Y-8054217I-5J75005D01*
G01*
X13213614Y-8129217D02*
X14338614Y-8129217D01*
X13138614Y-9324217D02*
X13138614Y-9220217D01*
X13213614Y-11177225D02*
G75*
G03*
X13138614Y-11252217I-5J-74995D01*
G01*
X14338614Y-9399217D02*
X13213614Y-9399217D01*
X13213614Y-8637225D02*
G75*
G03*
X13138614Y-8712217I-5J-74996D01*
G01*
X14338614Y-12701224D02*
G75*
G03*
X14413614Y-12626217I-5J75005D01*
G01*
X14338614Y-11939217D02*
X13213614Y-11939217D01*
X14338614Y-9653225D02*
G75*
G03*
X14413614Y-9578217I-5J75005D01*
G01*
X13213614Y-10161217D02*
X14338614Y-10161217D01*
X14338614Y-8637225D02*
G75*
G03*
X14413614Y-8562217I-5J75005D01*
G01*
X13213614Y-11685224D02*
G75*
G03*
X13138614Y-11760217I-5J-74996D01*
G01*
X13138614Y-8308217D02*
X13138614Y-8204217D01*
X13213614Y-11685217D02*
X14338614Y-11685217D01*
X14413614Y-10594217D02*
X14413614Y-10490217D01*
X14413613Y-10490217D02*
G75*
G03*
X14338614Y-10415217I-75003J-3D01*
G01*
X13213614Y-12193224D02*
G75*
G03*
X13138614Y-12268217I-5J-74996D01*
G01*
X14338614Y-10415217D02*
X13213614Y-10415217D01*
X14413614Y-12118217D02*
X14413614Y-12014217D01*
X14413614Y-9578217D02*
X14413614Y-9474217D01*
X14338614Y-11177225D02*
G75*
G03*
X14413614Y-11102217I-5J75005D01*
G01*
X13138613Y-9832217D02*
G75*
G03*
X13213614Y-9907217I74997J-3D01*
G01*
X13138613Y-11356217D02*
G75*
G03*
X13213614Y-11431217I74997J-3D01*
G01*
X14413613Y-13030217D02*
G75*
G03*
X14338614Y-12955217I-75003J-3D01*
G01*
X14338614Y-8383217D02*
X13213614Y-8383217D01*
X14413613Y-10998217D02*
G75*
G03*
X14338614Y-10923217I-75003J-3D01*
G01*
X14338614Y-11431217D02*
X13213614Y-11431217D01*
X14338614Y-12955217D02*
X13213614Y-12955217D01*
X14338614Y-9907217D02*
X13213614Y-9907217D01*
D11*
D12*
X14000800Y-8717600D02*
X14040800Y-8757600D01*
X14040800Y-8717600D02*
X14000800Y-8757600D01*
X14013500Y-11791000D02*
X14053500Y-11831000D01*
X14053500Y-11791000D02*
X14013500Y-11831000D01*
X14013500Y-12299000D02*
X14053500Y-12339000D01*
X14053500Y-12299000D02*
X14013500Y-12339000D01*
X14013500Y-12807000D02*
X14053500Y-12847000D01*
X14053500Y-12807000D02*
X14013500Y-12847000D01*
X14026200Y-11283000D02*
X14066200Y-11323000D01*
X14066200Y-11283000D02*
X14026200Y-11323000D01*
X14038900Y-9251000D02*
X14078900Y-9291000D01*
X14078900Y-9251000D02*
X14038900Y-9291000D01*
X14051600Y-9759000D02*
X14091600Y-9799000D01*
X14091600Y-9759000D02*
X14051600Y-9799000D01*
X14051600Y-10267000D02*
X14091600Y-10307000D01*
X14091600Y-10267000D02*
X14051600Y-10307000D01*
X14051600Y-10775000D02*
X14091600Y-10815000D01*
X14091600Y-10775000D02*
X14051600Y-10815000D01*
X14153200Y-12299000D02*
X14193200Y-12339000D01*
X14193200Y-12299000D02*
X14153200Y-12339000D01*
X14153200Y-12807000D02*
X14193200Y-12847000D01*
X14193200Y-12807000D02*
X14153200Y-12847000D01*
X14165900Y-8717600D02*
X14205900Y-8757600D01*
X14205900Y-8717600D02*
X14165900Y-8757600D01*
X14191300Y-11283000D02*
X14231300Y-11323000D01*
X14231300Y-11283000D02*
X14191300Y-11323000D01*
X14191300Y-11791000D02*
X14231300Y-11831000D01*
X14231300Y-11791000D02*
X14191300Y-11831000D01*
X14204000Y-9759000D02*
X14244000Y-9799000D01*
X14244000Y-9759000D02*
X14204000Y-9799000D01*
X14216700Y-9251000D02*
X14256700Y-9291000D01*
X14256700Y-9251000D02*
X14216700Y-9291000D01*
X14216700Y-10775000D02*
X14256700Y-10815000D01*
X14256700Y-10775000D02*
X14216700Y-10815000D01*
X14229400Y-10267000D02*
X14269400Y-10307000D01*
X14269400Y-10267000D02*
X14229400Y-10307000D01*
X14292900Y-12807000D02*
X14332900Y-12847000D01*
X14332900Y-12807000D02*
X14292900Y-12847000D01*
X14305600Y-12299000D02*
X14345600Y-12339000D01*
X14345600Y-12299000D02*
X14305600Y-12339000D01*
X14343700Y-8717600D02*
X14383700Y-8757600D01*
X14383700Y-8717600D02*
X14343700Y-8757600D01*
X14343700Y-11283000D02*
X14383700Y-11323000D01*
X14383700Y-11283000D02*
X14343700Y-11323000D01*
X14343700Y-11791000D02*
X14383700Y-11831000D01*
X14383700Y-11791000D02*
X14343700Y-11831000D01*
X14369100Y-9759000D02*
X14409100Y-9799000D01*
X14409100Y-9759000D02*
X14369100Y-9799000D01*
X14369100Y-10775000D02*
X14409100Y-10815000D01*
X14409100Y-10775000D02*
X14369100Y-10815000D01*
X14394500Y-9251000D02*
X14434500Y-9291000D01*
X14434500Y-9251000D02*
X14394500Y-9291000D01*
X14394500Y-10267000D02*
X14434500Y-10307000D01*
X14434500Y-10267000D02*
X14394500Y-10307000D01*
X15042190Y-12502200D02*
X15082190Y-12542200D01*
X15082190Y-12502200D02*
X15042190Y-12542200D01*
X15067600Y-12045000D02*
X15107600Y-12085000D01*
X15107600Y-12045000D02*
X15067600Y-12085000D01*
X15169200Y-12045000D02*
X15209200Y-12085000D01*
X15209200Y-12045000D02*
X15169200Y-12085000D01*
X15194600Y-11041700D02*
X15234600Y-11081700D01*
X15234600Y-11041700D02*
X15194600Y-11081700D01*
X15308900Y-11041700D02*
X15348900Y-11081700D01*
X15348900Y-11041700D02*
X15308900Y-11081700D01*
X15651800Y-11143300D02*
X15691800Y-11183300D01*
X15691800Y-11143300D02*
X15651800Y-11183300D01*
X15956600Y-11283000D02*
X15996600Y-11323000D01*
X15996600Y-11283000D02*
X15956600Y-11323000D01*
X14606900Y-8514000D02*
G75*
G03*
X14526900Y-8514000I-40000J0D01*
G01*
X14526900Y-8514000D02*
G75*
G03*
X14606900Y-8514000I40000J0D01*
G01*
X14606900Y-9022000D02*
G75*
G03*
X14526900Y-9022000I-40000J0D01*
G01*
X14526900Y-9022000D02*
G75*
G03*
X14606900Y-9022000I40000J0D01*
G01*
X14606900Y-9537700D02*
G75*
G03*
X14526900Y-9537700I-40000J0D01*
G01*
X14526900Y-9537700D02*
G75*
G03*
X14606900Y-9537700I40000J0D01*
G01*
X14606900Y-10045700D02*
G75*
G03*
X14526900Y-10045700I-40000J0D01*
G01*
X14526900Y-10045700D02*
G75*
G03*
X14606900Y-10045700I40000J0D01*
G01*
X14606900Y-11061700D02*
G75*
G03*
X14526900Y-11061700I-40000J0D01*
G01*
X14526900Y-11061700D02*
G75*
G03*
X14606900Y-11061700I40000J0D01*
G01*
X14606900Y-11569700D02*
G75*
G03*
X14526900Y-11569700I-40000J0D01*
G01*
X14526900Y-11569700D02*
G75*
G03*
X14606900Y-11569700I40000J0D01*
G01*
X14606900Y-12065000D02*
G75*
G03*
X14526900Y-12065000I-40000J0D01*
G01*
X14526900Y-12065000D02*
G75*
G03*
X14606900Y-12065000I40000J0D01*
G01*
X14606900Y-12573000D02*
G75*
G03*
X14526900Y-12573000I-40000J0D01*
G01*
X14526900Y-12573000D02*
G75*
G03*
X14606900Y-12573000I40000J0D01*
G01*
D13*
X14935200Y-13514070D02*
X14935200Y-13638530D01*
X14872970Y-13576300D02*
X14997430Y-13576300D01*
X15189200Y-13514070D02*
X15189200Y-13638530D01*
X15126970Y-13576300D02*
X15251430Y-13576300D01*
X15443200Y-13514070D02*
X15443200Y-13638530D01*
X15380970Y-13576300D02*
X15505430Y-13576300D01*
X15697200Y-13514070D02*
X15697200Y-13638530D01*
X15634970Y-13576300D02*
X15759430Y-13576300D01*
D14*
X15374862Y-8288262D02*
X15374862Y-8196338D01*
X15282938Y-8196338D01*
X15282938Y-8288262D01*
X15374862Y-8288262D01*
X15374862Y-8796262D02*
X15374862Y-8704338D01*
X15282938Y-8704338D01*
X15282938Y-8796262D01*
X15374862Y-8796262D01*
X15374862Y-9304262D02*
X15374862Y-9212338D01*
X15282938Y-9212338D01*
X15282938Y-9304262D01*
X15374862Y-9304262D01*
X15374862Y-9812262D02*
X15374862Y-9720338D01*
X15282938Y-9720338D01*
X15282938Y-9812262D01*
X15374862Y-9812262D01*
X15374862Y-10320262D02*
X15374862Y-10228338D01*
X15282938Y-10228338D01*
X15282938Y-10320262D01*
X15374862Y-10320262D01*
X15374862Y-10828262D02*
X15374862Y-10736338D01*
X15282938Y-10736338D01*
X15282938Y-10828262D01*
X15374862Y-10828262D01*
X15374862Y-11336262D02*
X15374862Y-11244338D01*
X15282938Y-11244338D01*
X15282938Y-11336262D01*
X15374862Y-11336262D01*
X15374862Y-11844262D02*
X15374862Y-11752338D01*
X15282938Y-11752338D01*
X15282938Y-11844262D01*
X15374862Y-11844262D01*
X15374862Y-12352262D02*
X15374862Y-12260338D01*
X15282938Y-12260338D01*
X15282938Y-12352262D01*
X15374862Y-12352262D01*
X15374862Y-12860262D02*
X15374862Y-12768338D01*
X15282938Y-12768338D01*
X15282938Y-12860262D01*
X15374862Y-12860262D01*
D11*
X13386890Y-14333200D02*
X13386890Y-14133200D01*
X13386890Y-14133200D02*
X13434509Y-14133200D01*
X13434509Y-14133200D02*
X13463081Y-14142724D01*
X13463081Y-14142724D02*
X13482128Y-14161772D01*
X13482128Y-14161772D02*
X13491652Y-14180819D01*
X13491652Y-14180819D02*
X13501176Y-14218915D01*
X13501176Y-14218915D02*
X13501176Y-14247486D01*
X13501176Y-14247486D02*
X13491652Y-14285581D01*
X13491652Y-14285581D02*
X13482128Y-14304629D01*
X13482128Y-14304629D02*
X13463081Y-14323677D01*
X13463081Y-14323677D02*
X13434509Y-14333200D01*
X13434509Y-14333200D02*
X13386890Y-14333200D01*
X13586890Y-14333200D02*
X13586890Y-14199867D01*
X13586890Y-14237962D02*
X13596414Y-14218915D01*
X13596414Y-14218915D02*
X13605938Y-14209391D01*
X13605938Y-14209391D02*
X13624985Y-14199867D01*
X13624985Y-14199867D02*
X13644033Y-14199867D01*
X13710700Y-14333200D02*
X13710700Y-14199867D01*
X13710700Y-14133200D02*
X13701176Y-14142724D01*
X13701176Y-14142724D02*
X13710700Y-14152248D01*
X13710700Y-14152248D02*
X13720223Y-14142724D01*
X13720223Y-14142724D02*
X13710700Y-14133200D01*
X13710700Y-14133200D02*
X13710700Y-14152248D01*
X13834509Y-14333200D02*
X13815462Y-14323677D01*
X13815462Y-14323677D02*
X13805938Y-14304629D01*
X13805938Y-14304629D02*
X13805938Y-14133200D01*
X13939271Y-14333200D02*
X13920223Y-14323677D01*
X13920223Y-14323677D02*
X13910700Y-14304629D01*
X13910700Y-14304629D02*
X13910700Y-14133200D01*
X14167843Y-14333200D02*
X14167843Y-14133200D01*
X14167843Y-14133200D02*
X14234509Y-14276057D01*
X14234509Y-14276057D02*
X14301176Y-14133200D01*
X14301176Y-14133200D02*
X14301176Y-14333200D01*
X14482128Y-14333200D02*
X14482128Y-14228438D01*
X14482128Y-14228438D02*
X14472604Y-14209391D01*
X14472604Y-14209391D02*
X14453557Y-14199867D01*
X14453557Y-14199867D02*
X14415462Y-14199867D01*
X14415462Y-14199867D02*
X14396414Y-14209391D01*
X14482128Y-14323677D02*
X14463081Y-14333200D01*
X14463081Y-14333200D02*
X14415462Y-14333200D01*
X14415462Y-14333200D02*
X14396414Y-14323677D01*
X14396414Y-14323677D02*
X14386890Y-14304629D01*
X14386890Y-14304629D02*
X14386890Y-14285581D01*
X14386890Y-14285581D02*
X14396414Y-14266534D01*
X14396414Y-14266534D02*
X14415462Y-14257010D01*
X14415462Y-14257010D02*
X14463081Y-14257010D01*
X14463081Y-14257010D02*
X14482128Y-14247486D01*
X14577366Y-14199867D02*
X14577366Y-14399867D01*
X14577366Y-14209391D02*
X14596414Y-14199867D01*
X14596414Y-14199867D02*
X14634509Y-14199867D01*
X14634509Y-14199867D02*
X14653557Y-14209391D01*
X14653557Y-14209391D02*
X14663081Y-14218915D01*
X14663081Y-14218915D02*
X14672604Y-14237962D01*
X14672604Y-14237962D02*
X14672604Y-14295105D01*
X14672604Y-14295105D02*
X14663081Y-14314153D01*
X14663081Y-14314153D02*
X14653557Y-14323677D01*
X14653557Y-14323677D02*
X14634509Y-14333200D01*
X14634509Y-14333200D02*
X14596414Y-14333200D01*
X14596414Y-14333200D02*
X14577366Y-14323677D01*
X14758319Y-14314153D02*
X14767843Y-14323677D01*
X14767843Y-14323677D02*
X14758319Y-14333200D01*
X14758319Y-14333200D02*
X14748795Y-14323677D01*
X14748795Y-14323677D02*
X14758319Y-14314153D01*
X14758319Y-14314153D02*
X14758319Y-14333200D01*
X14758319Y-14209391D02*
X14767843Y-14218915D01*
X14767843Y-14218915D02*
X14758319Y-14228438D01*
X14758319Y-14228438D02*
X14748795Y-14218915D01*
X14748795Y-14218915D02*
X14758319Y-14209391D01*
X14758319Y-14209391D02*
X14758319Y-14228438D01*
D12*
X13086113Y-14641717D02*
X13126113Y-14681717D01*
X13126113Y-14641717D02*
X13086113Y-14681717D01*
D11*
X13424985Y-14553200D02*
X13444033Y-14553200D01*
X13444033Y-14553200D02*
X13463081Y-14562724D01*
X13463081Y-14562724D02*
X13472604Y-14572248D01*
X13472604Y-14572248D02*
X13482128Y-14591296D01*
X13482128Y-14591296D02*
X13491652Y-14629391D01*
X13491652Y-14629391D02*
X13491652Y-14677010D01*
X13491652Y-14677010D02*
X13482128Y-14715105D01*
X13482128Y-14715105D02*
X13472604Y-14734153D01*
X13472604Y-14734153D02*
X13463081Y-14743677D01*
X13463081Y-14743677D02*
X13444033Y-14753200D01*
X13444033Y-14753200D02*
X13424985Y-14753200D01*
X13424985Y-14753200D02*
X13405938Y-14743677D01*
X13405938Y-14743677D02*
X13396414Y-14734153D01*
X13396414Y-14734153D02*
X13386890Y-14715105D01*
X13386890Y-14715105D02*
X13377366Y-14677010D01*
X13377366Y-14677010D02*
X13377366Y-14629391D01*
X13377366Y-14629391D02*
X13386890Y-14591296D01*
X13386890Y-14591296D02*
X13396414Y-14572248D01*
X13396414Y-14572248D02*
X13405938Y-14562724D01*
X13405938Y-14562724D02*
X13424985Y-14553200D01*
X13577366Y-14734153D02*
X13586890Y-14743677D01*
X13586890Y-14743677D02*
X13577366Y-14753200D01*
X13577366Y-14753200D02*
X13567843Y-14743677D01*
X13567843Y-14743677D02*
X13577366Y-14734153D01*
X13577366Y-14734153D02*
X13577366Y-14753200D01*
X13758319Y-14619867D02*
X13758319Y-14753200D01*
X13710700Y-14543677D02*
X13663081Y-14686534D01*
X13663081Y-14686534D02*
X13786890Y-14686534D01*
X13901176Y-14553200D02*
X13920224Y-14553200D01*
X13920224Y-14553200D02*
X13939271Y-14562724D01*
X13939271Y-14562724D02*
X13948795Y-14572248D01*
X13948795Y-14572248D02*
X13958319Y-14591296D01*
X13958319Y-14591296D02*
X13967843Y-14629391D01*
X13967843Y-14629391D02*
X13967843Y-14677010D01*
X13967843Y-14677010D02*
X13958319Y-14715105D01*
X13958319Y-14715105D02*
X13948795Y-14734153D01*
X13948795Y-14734153D02*
X13939271Y-14743677D01*
X13939271Y-14743677D02*
X13920224Y-14753200D01*
X13920224Y-14753200D02*
X13901176Y-14753200D01*
X13901176Y-14753200D02*
X13882128Y-14743677D01*
X13882128Y-14743677D02*
X13872604Y-14734153D01*
X13872604Y-14734153D02*
X13863081Y-14715105D01*
X13863081Y-14715105D02*
X13853557Y-14677010D01*
X13853557Y-14677010D02*
X13853557Y-14629391D01*
X13853557Y-14629391D02*
X13863081Y-14591296D01*
X13863081Y-14591296D02*
X13872604Y-14572248D01*
X13872604Y-14572248D02*
X13882128Y-14562724D01*
X13882128Y-14562724D02*
X13901176Y-14553200D01*
X14091652Y-14553200D02*
X14110700Y-14553200D01*
X14110700Y-14553200D02*
X14129747Y-14562724D01*
X14129747Y-14562724D02*
X14139271Y-14572248D01*
X14139271Y-14572248D02*
X14148795Y-14591296D01*
X14148795Y-14591296D02*
X14158319Y-14629391D01*
X14158319Y-14629391D02*
X14158319Y-14677010D01*
X14158319Y-14677010D02*
X14148795Y-14715105D01*
X14148795Y-14715105D02*
X14139271Y-14734153D01*
X14139271Y-14734153D02*
X14129747Y-14743677D01*
X14129747Y-14743677D02*
X14110700Y-14753200D01*
X14110700Y-14753200D02*
X14091652Y-14753200D01*
X14091652Y-14753200D02*
X14072604Y-14743677D01*
X14072604Y-14743677D02*
X14063081Y-14734153D01*
X14063081Y-14734153D02*
X14053557Y-14715105D01*
X14053557Y-14715105D02*
X14044033Y-14677010D01*
X14044033Y-14677010D02*
X14044033Y-14629391D01*
X14044033Y-14629391D02*
X14053557Y-14591296D01*
X14053557Y-14591296D02*
X14063081Y-14572248D01*
X14063081Y-14572248D02*
X14072604Y-14562724D01*
X14072604Y-14562724D02*
X14091652Y-14553200D01*
X14244033Y-14753200D02*
X14244033Y-14619867D01*
X14244033Y-14638915D02*
X14253557Y-14629391D01*
X14253557Y-14629391D02*
X14272604Y-14619867D01*
X14272604Y-14619867D02*
X14301176Y-14619867D01*
X14301176Y-14619867D02*
X14320224Y-14629391D01*
X14320224Y-14629391D02*
X14329747Y-14648438D01*
X14329747Y-14648438D02*
X14329747Y-14753200D01*
X14329747Y-14648438D02*
X14339271Y-14629391D01*
X14339271Y-14629391D02*
X14358319Y-14619867D01*
X14358319Y-14619867D02*
X14386890Y-14619867D01*
X14386890Y-14619867D02*
X14405938Y-14629391D01*
X14405938Y-14629391D02*
X14415462Y-14648438D01*
X14415462Y-14648438D02*
X14415462Y-14753200D01*
X14510700Y-14753200D02*
X14510700Y-14619867D01*
X14510700Y-14638915D02*
X14520224Y-14629391D01*
X14520224Y-14629391D02*
X14539271Y-14619867D01*
X14539271Y-14619867D02*
X14567843Y-14619867D01*
X14567843Y-14619867D02*
X14586890Y-14629391D01*
X14586890Y-14629391D02*
X14596414Y-14648438D01*
X14596414Y-14648438D02*
X14596414Y-14753200D01*
X14596414Y-14648438D02*
X14605938Y-14629391D01*
X14605938Y-14629391D02*
X14624985Y-14619867D01*
X14624985Y-14619867D02*
X14653557Y-14619867D01*
X14653557Y-14619867D02*
X14672605Y-14629391D01*
X14672605Y-14629391D02*
X14682128Y-14648438D01*
X14682128Y-14648438D02*
X14682128Y-14753200D01*
X15072605Y-14543677D02*
X14901176Y-14800819D01*
X15329747Y-14553200D02*
X15348795Y-14553200D01*
X15348795Y-14553200D02*
X15367843Y-14562724D01*
X15367843Y-14562724D02*
X15377367Y-14572248D01*
X15377367Y-14572248D02*
X15386890Y-14591296D01*
X15386890Y-14591296D02*
X15396414Y-14629391D01*
X15396414Y-14629391D02*
X15396414Y-14677010D01*
X15396414Y-14677010D02*
X15386890Y-14715105D01*
X15386890Y-14715105D02*
X15377367Y-14734153D01*
X15377367Y-14734153D02*
X15367843Y-14743677D01*
X15367843Y-14743677D02*
X15348795Y-14753200D01*
X15348795Y-14753200D02*
X15329747Y-14753200D01*
X15329747Y-14753200D02*
X15310700Y-14743677D01*
X15310700Y-14743677D02*
X15301176Y-14734153D01*
X15301176Y-14734153D02*
X15291652Y-14715105D01*
X15291652Y-14715105D02*
X15282128Y-14677010D01*
X15282128Y-14677010D02*
X15282128Y-14629391D01*
X15282128Y-14629391D02*
X15291652Y-14591296D01*
X15291652Y-14591296D02*
X15301176Y-14572248D01*
X15301176Y-14572248D02*
X15310700Y-14562724D01*
X15310700Y-14562724D02*
X15329747Y-14553200D01*
X15482128Y-14734153D02*
X15491652Y-14743677D01*
X15491652Y-14743677D02*
X15482128Y-14753200D01*
X15482128Y-14753200D02*
X15472605Y-14743677D01*
X15472605Y-14743677D02*
X15482128Y-14734153D01*
X15482128Y-14734153D02*
X15482128Y-14753200D01*
X15615462Y-14553200D02*
X15634509Y-14553200D01*
X15634509Y-14553200D02*
X15653557Y-14562724D01*
X15653557Y-14562724D02*
X15663081Y-14572248D01*
X15663081Y-14572248D02*
X15672605Y-14591296D01*
X15672605Y-14591296D02*
X15682128Y-14629391D01*
X15682128Y-14629391D02*
X15682128Y-14677010D01*
X15682128Y-14677010D02*
X15672605Y-14715105D01*
X15672605Y-14715105D02*
X15663081Y-14734153D01*
X15663081Y-14734153D02*
X15653557Y-14743677D01*
X15653557Y-14743677D02*
X15634509Y-14753200D01*
X15634509Y-14753200D02*
X15615462Y-14753200D01*
X15615462Y-14753200D02*
X15596414Y-14743677D01*
X15596414Y-14743677D02*
X15586890Y-14734153D01*
X15586890Y-14734153D02*
X15577367Y-14715105D01*
X15577367Y-14715105D02*
X15567843Y-14677010D01*
X15567843Y-14677010D02*
X15567843Y-14629391D01*
X15567843Y-14629391D02*
X15577367Y-14591296D01*
X15577367Y-14591296D02*
X15586890Y-14572248D01*
X15586890Y-14572248D02*
X15596414Y-14562724D01*
X15596414Y-14562724D02*
X15615462Y-14553200D01*
X15872605Y-14753200D02*
X15758319Y-14753200D01*
X15815462Y-14753200D02*
X15815462Y-14553200D01*
X15815462Y-14553200D02*
X15796414Y-14581772D01*
X15796414Y-14581772D02*
X15777367Y-14600819D01*
X15777367Y-14600819D02*
X15758319Y-14610343D01*
X16053557Y-14553200D02*
X15958319Y-14553200D01*
X15958319Y-14553200D02*
X15948795Y-14648438D01*
X15948795Y-14648438D02*
X15958319Y-14638915D01*
X15958319Y-14638915D02*
X15977367Y-14629391D01*
X15977367Y-14629391D02*
X16024986Y-14629391D01*
X16024986Y-14629391D02*
X16044033Y-14638915D01*
X16044033Y-14638915D02*
X16053557Y-14648438D01*
X16053557Y-14648438D02*
X16063081Y-14667486D01*
X16063081Y-14667486D02*
X16063081Y-14715105D01*
X16063081Y-14715105D02*
X16053557Y-14734153D01*
X16053557Y-14734153D02*
X16044033Y-14743677D01*
X16044033Y-14743677D02*
X16024986Y-14753200D01*
X16024986Y-14753200D02*
X15977367Y-14753200D01*
X15977367Y-14753200D02*
X15958319Y-14743677D01*
X15958319Y-14743677D02*
X15948795Y-14734153D01*
X16129748Y-14553200D02*
X16263081Y-14553200D01*
X16263081Y-14553200D02*
X16177367Y-14753200D01*
X16329748Y-14553200D02*
X16329748Y-14591296D01*
X16405938Y-14553200D02*
X16405938Y-14591296D01*
X16701176Y-14829391D02*
X16691652Y-14819867D01*
X16691652Y-14819867D02*
X16672605Y-14791296D01*
X16672605Y-14791296D02*
X16663081Y-14772248D01*
X16663081Y-14772248D02*
X16653557Y-14743677D01*
X16653557Y-14743677D02*
X16644033Y-14696057D01*
X16644033Y-14696057D02*
X16644033Y-14657962D01*
X16644033Y-14657962D02*
X16653557Y-14610343D01*
X16653557Y-14610343D02*
X16663081Y-14581772D01*
X16663081Y-14581772D02*
X16672605Y-14562724D01*
X16672605Y-14562724D02*
X16691652Y-14534153D01*
X16691652Y-14534153D02*
X16701176Y-14524629D01*
X16758319Y-14553200D02*
X16882129Y-14553200D01*
X16882129Y-14553200D02*
X16815462Y-14629391D01*
X16815462Y-14629391D02*
X16844033Y-14629391D01*
X16844033Y-14629391D02*
X16863081Y-14638915D01*
X16863081Y-14638915D02*
X16872605Y-14648438D01*
X16872605Y-14648438D02*
X16882129Y-14667486D01*
X16882129Y-14667486D02*
X16882129Y-14715105D01*
X16882129Y-14715105D02*
X16872605Y-14734153D01*
X16872605Y-14734153D02*
X16863081Y-14743677D01*
X16863081Y-14743677D02*
X16844033Y-14753200D01*
X16844033Y-14753200D02*
X16786891Y-14753200D01*
X16786891Y-14753200D02*
X16767843Y-14743677D01*
X16767843Y-14743677D02*
X16758319Y-14734153D01*
X17053557Y-14619867D02*
X17053557Y-14753200D01*
X17005938Y-14543677D02*
X16958319Y-14686534D01*
X16958319Y-14686534D02*
X17082129Y-14686534D01*
X17310700Y-14753200D02*
X17310700Y-14553200D01*
X17396414Y-14753200D02*
X17396414Y-14648438D01*
X17396414Y-14648438D02*
X17386891Y-14629391D01*
X17386891Y-14629391D02*
X17367843Y-14619867D01*
X17367843Y-14619867D02*
X17339272Y-14619867D01*
X17339272Y-14619867D02*
X17320224Y-14629391D01*
X17320224Y-14629391D02*
X17310700Y-14638915D01*
X17520224Y-14753200D02*
X17501176Y-14743677D01*
X17501176Y-14743677D02*
X17491653Y-14734153D01*
X17491653Y-14734153D02*
X17482129Y-14715105D01*
X17482129Y-14715105D02*
X17482129Y-14657962D01*
X17482129Y-14657962D02*
X17491653Y-14638915D01*
X17491653Y-14638915D02*
X17501176Y-14629391D01*
X17501176Y-14629391D02*
X17520224Y-14619867D01*
X17520224Y-14619867D02*
X17548795Y-14619867D01*
X17548795Y-14619867D02*
X17567843Y-14629391D01*
X17567843Y-14629391D02*
X17577367Y-14638915D01*
X17577367Y-14638915D02*
X17586891Y-14657962D01*
X17586891Y-14657962D02*
X17586891Y-14715105D01*
X17586891Y-14715105D02*
X17577367Y-14734153D01*
X17577367Y-14734153D02*
X17567843Y-14743677D01*
X17567843Y-14743677D02*
X17548795Y-14753200D01*
X17548795Y-14753200D02*
X17520224Y-14753200D01*
X17701176Y-14753200D02*
X17682129Y-14743677D01*
X17682129Y-14743677D02*
X17672605Y-14724629D01*
X17672605Y-14724629D02*
X17672605Y-14553200D01*
X17853557Y-14743677D02*
X17834510Y-14753200D01*
X17834510Y-14753200D02*
X17796414Y-14753200D01*
X17796414Y-14753200D02*
X17777367Y-14743677D01*
X17777367Y-14743677D02*
X17767843Y-14724629D01*
X17767843Y-14724629D02*
X17767843Y-14648438D01*
X17767843Y-14648438D02*
X17777367Y-14629391D01*
X17777367Y-14629391D02*
X17796414Y-14619867D01*
X17796414Y-14619867D02*
X17834510Y-14619867D01*
X17834510Y-14619867D02*
X17853557Y-14629391D01*
X17853557Y-14629391D02*
X17863081Y-14648438D01*
X17863081Y-14648438D02*
X17863081Y-14667486D01*
X17863081Y-14667486D02*
X17767843Y-14686534D01*
X17939272Y-14743677D02*
X17958319Y-14753200D01*
X17958319Y-14753200D02*
X17996414Y-14753200D01*
X17996414Y-14753200D02*
X18015462Y-14743677D01*
X18015462Y-14743677D02*
X18024986Y-14724629D01*
X18024986Y-14724629D02*
X18024986Y-14715105D01*
X18024986Y-14715105D02*
X18015462Y-14696057D01*
X18015462Y-14696057D02*
X17996414Y-14686534D01*
X17996414Y-14686534D02*
X17967843Y-14686534D01*
X17967843Y-14686534D02*
X17948795Y-14677010D01*
X17948795Y-14677010D02*
X17939272Y-14657962D01*
X17939272Y-14657962D02*
X17939272Y-14648438D01*
X17939272Y-14648438D02*
X17948795Y-14629391D01*
X17948795Y-14629391D02*
X17967843Y-14619867D01*
X17967843Y-14619867D02*
X17996414Y-14619867D01*
X17996414Y-14619867D02*
X18015462Y-14629391D01*
X18091653Y-14829391D02*
X18101176Y-14819867D01*
X18101176Y-14819867D02*
X18120224Y-14791296D01*
X18120224Y-14791296D02*
X18129748Y-14772248D01*
X18129748Y-14772248D02*
X18139272Y-14743677D01*
X18139272Y-14743677D02*
X18148795Y-14696057D01*
X18148795Y-14696057D02*
X18148795Y-14657962D01*
X18148795Y-14657962D02*
X18139272Y-14610343D01*
X18139272Y-14610343D02*
X18129748Y-14581772D01*
X18129748Y-14581772D02*
X18120224Y-14562724D01*
X18120224Y-14562724D02*
X18101176Y-14534153D01*
X18101176Y-14534153D02*
X18091653Y-14524629D01*
D12*
X13126113Y-14925717D02*
G75*
G03*
X13046113Y-14925717I-40000J0D01*
G01*
X13046113Y-14925717D02*
G75*
G03*
X13126113Y-14925717I40000J0D01*
G01*
D11*
X13424985Y-14817200D02*
X13444033Y-14817200D01*
X13444033Y-14817200D02*
X13463081Y-14826724D01*
X13463081Y-14826724D02*
X13472604Y-14836248D01*
X13472604Y-14836248D02*
X13482128Y-14855296D01*
X13482128Y-14855296D02*
X13491652Y-14893391D01*
X13491652Y-14893391D02*
X13491652Y-14941010D01*
X13491652Y-14941010D02*
X13482128Y-14979105D01*
X13482128Y-14979105D02*
X13472604Y-14998153D01*
X13472604Y-14998153D02*
X13463081Y-15007677D01*
X13463081Y-15007677D02*
X13444033Y-15017200D01*
X13444033Y-15017200D02*
X13424985Y-15017200D01*
X13424985Y-15017200D02*
X13405938Y-15007677D01*
X13405938Y-15007677D02*
X13396414Y-14998153D01*
X13396414Y-14998153D02*
X13386890Y-14979105D01*
X13386890Y-14979105D02*
X13377366Y-14941010D01*
X13377366Y-14941010D02*
X13377366Y-14893391D01*
X13377366Y-14893391D02*
X13386890Y-14855296D01*
X13386890Y-14855296D02*
X13396414Y-14836248D01*
X13396414Y-14836248D02*
X13405938Y-14826724D01*
X13405938Y-14826724D02*
X13424985Y-14817200D01*
X13577366Y-14998153D02*
X13586890Y-15007677D01*
X13586890Y-15007677D02*
X13577366Y-15017200D01*
X13577366Y-15017200D02*
X13567843Y-15007677D01*
X13567843Y-15007677D02*
X13577366Y-14998153D01*
X13577366Y-14998153D02*
X13577366Y-15017200D01*
X13701176Y-14902915D02*
X13682128Y-14893391D01*
X13682128Y-14893391D02*
X13672604Y-14883867D01*
X13672604Y-14883867D02*
X13663081Y-14864819D01*
X13663081Y-14864819D02*
X13663081Y-14855296D01*
X13663081Y-14855296D02*
X13672604Y-14836248D01*
X13672604Y-14836248D02*
X13682128Y-14826724D01*
X13682128Y-14826724D02*
X13701176Y-14817200D01*
X13701176Y-14817200D02*
X13739271Y-14817200D01*
X13739271Y-14817200D02*
X13758319Y-14826724D01*
X13758319Y-14826724D02*
X13767843Y-14836248D01*
X13767843Y-14836248D02*
X13777366Y-14855296D01*
X13777366Y-14855296D02*
X13777366Y-14864819D01*
X13777366Y-14864819D02*
X13767843Y-14883867D01*
X13767843Y-14883867D02*
X13758319Y-14893391D01*
X13758319Y-14893391D02*
X13739271Y-14902915D01*
X13739271Y-14902915D02*
X13701176Y-14902915D01*
X13701176Y-14902915D02*
X13682128Y-14912438D01*
X13682128Y-14912438D02*
X13672604Y-14921962D01*
X13672604Y-14921962D02*
X13663081Y-14941010D01*
X13663081Y-14941010D02*
X13663081Y-14979105D01*
X13663081Y-14979105D02*
X13672604Y-14998153D01*
X13672604Y-14998153D02*
X13682128Y-15007677D01*
X13682128Y-15007677D02*
X13701176Y-15017200D01*
X13701176Y-15017200D02*
X13739271Y-15017200D01*
X13739271Y-15017200D02*
X13758319Y-15007677D01*
X13758319Y-15007677D02*
X13767843Y-14998153D01*
X13767843Y-14998153D02*
X13777366Y-14979105D01*
X13777366Y-14979105D02*
X13777366Y-14941010D01*
X13777366Y-14941010D02*
X13767843Y-14921962D01*
X13767843Y-14921962D02*
X13758319Y-14912438D01*
X13758319Y-14912438D02*
X13739271Y-14902915D01*
X13901176Y-14817200D02*
X13920224Y-14817200D01*
X13920224Y-14817200D02*
X13939271Y-14826724D01*
X13939271Y-14826724D02*
X13948795Y-14836248D01*
X13948795Y-14836248D02*
X13958319Y-14855296D01*
X13958319Y-14855296D02*
X13967843Y-14893391D01*
X13967843Y-14893391D02*
X13967843Y-14941010D01*
X13967843Y-14941010D02*
X13958319Y-14979105D01*
X13958319Y-14979105D02*
X13948795Y-14998153D01*
X13948795Y-14998153D02*
X13939271Y-15007677D01*
X13939271Y-15007677D02*
X13920224Y-15017200D01*
X13920224Y-15017200D02*
X13901176Y-15017200D01*
X13901176Y-15017200D02*
X13882128Y-15007677D01*
X13882128Y-15007677D02*
X13872604Y-14998153D01*
X13872604Y-14998153D02*
X13863081Y-14979105D01*
X13863081Y-14979105D02*
X13853557Y-14941010D01*
X13853557Y-14941010D02*
X13853557Y-14893391D01*
X13853557Y-14893391D02*
X13863081Y-14855296D01*
X13863081Y-14855296D02*
X13872604Y-14836248D01*
X13872604Y-14836248D02*
X13882128Y-14826724D01*
X13882128Y-14826724D02*
X13901176Y-14817200D01*
X14091652Y-14817200D02*
X14110700Y-14817200D01*
X14110700Y-14817200D02*
X14129747Y-14826724D01*
X14129747Y-14826724D02*
X14139271Y-14836248D01*
X14139271Y-14836248D02*
X14148795Y-14855296D01*
X14148795Y-14855296D02*
X14158319Y-14893391D01*
X14158319Y-14893391D02*
X14158319Y-14941010D01*
X14158319Y-14941010D02*
X14148795Y-14979105D01*
X14148795Y-14979105D02*
X14139271Y-14998153D01*
X14139271Y-14998153D02*
X14129747Y-15007677D01*
X14129747Y-15007677D02*
X14110700Y-15017200D01*
X14110700Y-15017200D02*
X14091652Y-15017200D01*
X14091652Y-15017200D02*
X14072604Y-15007677D01*
X14072604Y-15007677D02*
X14063081Y-14998153D01*
X14063081Y-14998153D02*
X14053557Y-14979105D01*
X14053557Y-14979105D02*
X14044033Y-14941010D01*
X14044033Y-14941010D02*
X14044033Y-14893391D01*
X14044033Y-14893391D02*
X14053557Y-14855296D01*
X14053557Y-14855296D02*
X14063081Y-14836248D01*
X14063081Y-14836248D02*
X14072604Y-14826724D01*
X14072604Y-14826724D02*
X14091652Y-14817200D01*
X14244033Y-15017200D02*
X14244033Y-14883867D01*
X14244033Y-14902915D02*
X14253557Y-14893391D01*
X14253557Y-14893391D02*
X14272604Y-14883867D01*
X14272604Y-14883867D02*
X14301176Y-14883867D01*
X14301176Y-14883867D02*
X14320224Y-14893391D01*
X14320224Y-14893391D02*
X14329747Y-14912438D01*
X14329747Y-14912438D02*
X14329747Y-15017200D01*
X14329747Y-14912438D02*
X14339271Y-14893391D01*
X14339271Y-14893391D02*
X14358319Y-14883867D01*
X14358319Y-14883867D02*
X14386890Y-14883867D01*
X14386890Y-14883867D02*
X14405938Y-14893391D01*
X14405938Y-14893391D02*
X14415462Y-14912438D01*
X14415462Y-14912438D02*
X14415462Y-15017200D01*
X14510700Y-15017200D02*
X14510700Y-14883867D01*
X14510700Y-14902915D02*
X14520224Y-14893391D01*
X14520224Y-14893391D02*
X14539271Y-14883867D01*
X14539271Y-14883867D02*
X14567843Y-14883867D01*
X14567843Y-14883867D02*
X14586890Y-14893391D01*
X14586890Y-14893391D02*
X14596414Y-14912438D01*
X14596414Y-14912438D02*
X14596414Y-15017200D01*
X14596414Y-14912438D02*
X14605938Y-14893391D01*
X14605938Y-14893391D02*
X14624985Y-14883867D01*
X14624985Y-14883867D02*
X14653557Y-14883867D01*
X14653557Y-14883867D02*
X14672605Y-14893391D01*
X14672605Y-14893391D02*
X14682128Y-14912438D01*
X14682128Y-14912438D02*
X14682128Y-15017200D01*
X15072605Y-14807677D02*
X14901176Y-15064819D01*
X15329747Y-14817200D02*
X15348795Y-14817200D01*
X15348795Y-14817200D02*
X15367843Y-14826724D01*
X15367843Y-14826724D02*
X15377367Y-14836248D01*
X15377367Y-14836248D02*
X15386890Y-14855296D01*
X15386890Y-14855296D02*
X15396414Y-14893391D01*
X15396414Y-14893391D02*
X15396414Y-14941010D01*
X15396414Y-14941010D02*
X15386890Y-14979105D01*
X15386890Y-14979105D02*
X15377367Y-14998153D01*
X15377367Y-14998153D02*
X15367843Y-15007677D01*
X15367843Y-15007677D02*
X15348795Y-15017200D01*
X15348795Y-15017200D02*
X15329747Y-15017200D01*
X15329747Y-15017200D02*
X15310700Y-15007677D01*
X15310700Y-15007677D02*
X15301176Y-14998153D01*
X15301176Y-14998153D02*
X15291652Y-14979105D01*
X15291652Y-14979105D02*
X15282128Y-14941010D01*
X15282128Y-14941010D02*
X15282128Y-14893391D01*
X15282128Y-14893391D02*
X15291652Y-14855296D01*
X15291652Y-14855296D02*
X15301176Y-14836248D01*
X15301176Y-14836248D02*
X15310700Y-14826724D01*
X15310700Y-14826724D02*
X15329747Y-14817200D01*
X15482128Y-14998153D02*
X15491652Y-15007677D01*
X15491652Y-15007677D02*
X15482128Y-15017200D01*
X15482128Y-15017200D02*
X15472605Y-15007677D01*
X15472605Y-15007677D02*
X15482128Y-14998153D01*
X15482128Y-14998153D02*
X15482128Y-15017200D01*
X15615462Y-14817200D02*
X15634509Y-14817200D01*
X15634509Y-14817200D02*
X15653557Y-14826724D01*
X15653557Y-14826724D02*
X15663081Y-14836248D01*
X15663081Y-14836248D02*
X15672605Y-14855296D01*
X15672605Y-14855296D02*
X15682128Y-14893391D01*
X15682128Y-14893391D02*
X15682128Y-14941010D01*
X15682128Y-14941010D02*
X15672605Y-14979105D01*
X15672605Y-14979105D02*
X15663081Y-14998153D01*
X15663081Y-14998153D02*
X15653557Y-15007677D01*
X15653557Y-15007677D02*
X15634509Y-15017200D01*
X15634509Y-15017200D02*
X15615462Y-15017200D01*
X15615462Y-15017200D02*
X15596414Y-15007677D01*
X15596414Y-15007677D02*
X15586890Y-14998153D01*
X15586890Y-14998153D02*
X15577367Y-14979105D01*
X15577367Y-14979105D02*
X15567843Y-14941010D01*
X15567843Y-14941010D02*
X15567843Y-14893391D01*
X15567843Y-14893391D02*
X15577367Y-14855296D01*
X15577367Y-14855296D02*
X15586890Y-14836248D01*
X15586890Y-14836248D02*
X15596414Y-14826724D01*
X15596414Y-14826724D02*
X15615462Y-14817200D01*
X15748795Y-14817200D02*
X15872605Y-14817200D01*
X15872605Y-14817200D02*
X15805938Y-14893391D01*
X15805938Y-14893391D02*
X15834509Y-14893391D01*
X15834509Y-14893391D02*
X15853557Y-14902915D01*
X15853557Y-14902915D02*
X15863081Y-14912438D01*
X15863081Y-14912438D02*
X15872605Y-14931486D01*
X15872605Y-14931486D02*
X15872605Y-14979105D01*
X15872605Y-14979105D02*
X15863081Y-14998153D01*
X15863081Y-14998153D02*
X15853557Y-15007677D01*
X15853557Y-15007677D02*
X15834509Y-15017200D01*
X15834509Y-15017200D02*
X15777367Y-15017200D01*
X15777367Y-15017200D02*
X15758319Y-15007677D01*
X15758319Y-15007677D02*
X15748795Y-14998153D01*
X16063081Y-15017200D02*
X15948795Y-15017200D01*
X16005938Y-15017200D02*
X16005938Y-14817200D01*
X16005938Y-14817200D02*
X15986890Y-14845772D01*
X15986890Y-14845772D02*
X15967843Y-14864819D01*
X15967843Y-14864819D02*
X15948795Y-14874343D01*
X16244033Y-14817200D02*
X16148795Y-14817200D01*
X16148795Y-14817200D02*
X16139271Y-14912438D01*
X16139271Y-14912438D02*
X16148795Y-14902915D01*
X16148795Y-14902915D02*
X16167843Y-14893391D01*
X16167843Y-14893391D02*
X16215462Y-14893391D01*
X16215462Y-14893391D02*
X16234509Y-14902915D01*
X16234509Y-14902915D02*
X16244033Y-14912438D01*
X16244033Y-14912438D02*
X16253557Y-14931486D01*
X16253557Y-14931486D02*
X16253557Y-14979105D01*
X16253557Y-14979105D02*
X16244033Y-14998153D01*
X16244033Y-14998153D02*
X16234509Y-15007677D01*
X16234509Y-15007677D02*
X16215462Y-15017200D01*
X16215462Y-15017200D02*
X16167843Y-15017200D01*
X16167843Y-15017200D02*
X16148795Y-15007677D01*
X16148795Y-15007677D02*
X16139271Y-14998153D01*
X16329748Y-14817200D02*
X16329748Y-14855296D01*
X16405938Y-14817200D02*
X16405938Y-14855296D01*
X16701176Y-15093391D02*
X16691652Y-15083867D01*
X16691652Y-15083867D02*
X16672605Y-15055296D01*
X16672605Y-15055296D02*
X16663081Y-15036248D01*
X16663081Y-15036248D02*
X16653557Y-15007677D01*
X16653557Y-15007677D02*
X16644033Y-14960057D01*
X16644033Y-14960057D02*
X16644033Y-14921962D01*
X16644033Y-14921962D02*
X16653557Y-14874343D01*
X16653557Y-14874343D02*
X16663081Y-14845772D01*
X16663081Y-14845772D02*
X16672605Y-14826724D01*
X16672605Y-14826724D02*
X16691652Y-14798153D01*
X16691652Y-14798153D02*
X16701176Y-14788629D01*
X16805938Y-14902915D02*
X16786891Y-14893391D01*
X16786891Y-14893391D02*
X16777367Y-14883867D01*
X16777367Y-14883867D02*
X16767843Y-14864819D01*
X16767843Y-14864819D02*
X16767843Y-14855296D01*
X16767843Y-14855296D02*
X16777367Y-14836248D01*
X16777367Y-14836248D02*
X16786891Y-14826724D01*
X16786891Y-14826724D02*
X16805938Y-14817200D01*
X16805938Y-14817200D02*
X16844033Y-14817200D01*
X16844033Y-14817200D02*
X16863081Y-14826724D01*
X16863081Y-14826724D02*
X16872605Y-14836248D01*
X16872605Y-14836248D02*
X16882129Y-14855296D01*
X16882129Y-14855296D02*
X16882129Y-14864819D01*
X16882129Y-14864819D02*
X16872605Y-14883867D01*
X16872605Y-14883867D02*
X16863081Y-14893391D01*
X16863081Y-14893391D02*
X16844033Y-14902915D01*
X16844033Y-14902915D02*
X16805938Y-14902915D01*
X16805938Y-14902915D02*
X16786891Y-14912438D01*
X16786891Y-14912438D02*
X16777367Y-14921962D01*
X16777367Y-14921962D02*
X16767843Y-14941010D01*
X16767843Y-14941010D02*
X16767843Y-14979105D01*
X16767843Y-14979105D02*
X16777367Y-14998153D01*
X16777367Y-14998153D02*
X16786891Y-15007677D01*
X16786891Y-15007677D02*
X16805938Y-15017200D01*
X16805938Y-15017200D02*
X16844033Y-15017200D01*
X16844033Y-15017200D02*
X16863081Y-15007677D01*
X16863081Y-15007677D02*
X16872605Y-14998153D01*
X16872605Y-14998153D02*
X16882129Y-14979105D01*
X16882129Y-14979105D02*
X16882129Y-14941010D01*
X16882129Y-14941010D02*
X16872605Y-14921962D01*
X16872605Y-14921962D02*
X16863081Y-14912438D01*
X16863081Y-14912438D02*
X16844033Y-14902915D01*
X17120224Y-15017200D02*
X17120224Y-14817200D01*
X17205938Y-15017200D02*
X17205938Y-14912438D01*
X17205938Y-14912438D02*
X17196414Y-14893391D01*
X17196414Y-14893391D02*
X17177367Y-14883867D01*
X17177367Y-14883867D02*
X17148795Y-14883867D01*
X17148795Y-14883867D02*
X17129748Y-14893391D01*
X17129748Y-14893391D02*
X17120224Y-14902915D01*
X17329748Y-15017200D02*
X17310700Y-15007677D01*
X17310700Y-15007677D02*
X17301176Y-14998153D01*
X17301176Y-14998153D02*
X17291653Y-14979105D01*
X17291653Y-14979105D02*
X17291653Y-14921962D01*
X17291653Y-14921962D02*
X17301176Y-14902915D01*
X17301176Y-14902915D02*
X17310700Y-14893391D01*
X17310700Y-14893391D02*
X17329748Y-14883867D01*
X17329748Y-14883867D02*
X17358319Y-14883867D01*
X17358319Y-14883867D02*
X17377367Y-14893391D01*
X17377367Y-14893391D02*
X17386891Y-14902915D01*
X17386891Y-14902915D02*
X17396414Y-14921962D01*
X17396414Y-14921962D02*
X17396414Y-14979105D01*
X17396414Y-14979105D02*
X17386891Y-14998153D01*
X17386891Y-14998153D02*
X17377367Y-15007677D01*
X17377367Y-15007677D02*
X17358319Y-15017200D01*
X17358319Y-15017200D02*
X17329748Y-15017200D01*
X17510700Y-15017200D02*
X17491653Y-15007677D01*
X17491653Y-15007677D02*
X17482129Y-14988629D01*
X17482129Y-14988629D02*
X17482129Y-14817200D01*
X17663081Y-15007677D02*
X17644034Y-15017200D01*
X17644034Y-15017200D02*
X17605938Y-15017200D01*
X17605938Y-15017200D02*
X17586891Y-15007677D01*
X17586891Y-15007677D02*
X17577367Y-14988629D01*
X17577367Y-14988629D02*
X17577367Y-14912438D01*
X17577367Y-14912438D02*
X17586891Y-14893391D01*
X17586891Y-14893391D02*
X17605938Y-14883867D01*
X17605938Y-14883867D02*
X17644034Y-14883867D01*
X17644034Y-14883867D02*
X17663081Y-14893391D01*
X17663081Y-14893391D02*
X17672605Y-14912438D01*
X17672605Y-14912438D02*
X17672605Y-14931486D01*
X17672605Y-14931486D02*
X17577367Y-14950534D01*
X17748795Y-15007677D02*
X17767843Y-15017200D01*
X17767843Y-15017200D02*
X17805938Y-15017200D01*
X17805938Y-15017200D02*
X17824986Y-15007677D01*
X17824986Y-15007677D02*
X17834510Y-14988629D01*
X17834510Y-14988629D02*
X17834510Y-14979105D01*
X17834510Y-14979105D02*
X17824986Y-14960057D01*
X17824986Y-14960057D02*
X17805938Y-14950534D01*
X17805938Y-14950534D02*
X17777367Y-14950534D01*
X17777367Y-14950534D02*
X17758319Y-14941010D01*
X17758319Y-14941010D02*
X17748795Y-14921962D01*
X17748795Y-14921962D02*
X17748795Y-14912438D01*
X17748795Y-14912438D02*
X17758319Y-14893391D01*
X17758319Y-14893391D02*
X17777367Y-14883867D01*
X17777367Y-14883867D02*
X17805938Y-14883867D01*
X17805938Y-14883867D02*
X17824986Y-14893391D01*
X17901176Y-15093391D02*
X17910700Y-15083867D01*
X17910700Y-15083867D02*
X17929748Y-15055296D01*
X17929748Y-15055296D02*
X17939272Y-15036248D01*
X17939272Y-15036248D02*
X17948795Y-15007677D01*
X17948795Y-15007677D02*
X17958319Y-14960057D01*
X17958319Y-14960057D02*
X17958319Y-14921962D01*
X17958319Y-14921962D02*
X17948795Y-14874343D01*
X17948795Y-14874343D02*
X17939272Y-14845772D01*
X17939272Y-14845772D02*
X17929748Y-14826724D01*
X17929748Y-14826724D02*
X17910700Y-14798153D01*
X17910700Y-14798153D02*
X17901176Y-14788629D01*
D13*
X13063883Y-15127487D02*
X13063883Y-15251947D01*
X13001653Y-15189717D02*
X13126113Y-15189717D01*
D11*
X13491652Y-15281200D02*
X13377366Y-15281200D01*
X13434509Y-15281200D02*
X13434509Y-15081200D01*
X13434509Y-15081200D02*
X13415462Y-15109772D01*
X13415462Y-15109772D02*
X13396414Y-15128819D01*
X13396414Y-15128819D02*
X13377366Y-15138343D01*
X13577366Y-15262153D02*
X13586890Y-15271677D01*
X13586890Y-15271677D02*
X13577366Y-15281200D01*
X13577366Y-15281200D02*
X13567843Y-15271677D01*
X13567843Y-15271677D02*
X13577366Y-15262153D01*
X13577366Y-15262153D02*
X13577366Y-15281200D01*
X13663081Y-15100248D02*
X13672604Y-15090724D01*
X13672604Y-15090724D02*
X13691652Y-15081200D01*
X13691652Y-15081200D02*
X13739271Y-15081200D01*
X13739271Y-15081200D02*
X13758319Y-15090724D01*
X13758319Y-15090724D02*
X13767843Y-15100248D01*
X13767843Y-15100248D02*
X13777366Y-15119296D01*
X13777366Y-15119296D02*
X13777366Y-15138343D01*
X13777366Y-15138343D02*
X13767843Y-15166915D01*
X13767843Y-15166915D02*
X13653557Y-15281200D01*
X13653557Y-15281200D02*
X13777366Y-15281200D01*
X13948795Y-15147867D02*
X13948795Y-15281200D01*
X13901176Y-15071677D02*
X13853557Y-15214534D01*
X13853557Y-15214534D02*
X13977366Y-15214534D01*
X14148795Y-15081200D02*
X14053557Y-15081200D01*
X14053557Y-15081200D02*
X14044033Y-15176438D01*
X14044033Y-15176438D02*
X14053557Y-15166915D01*
X14053557Y-15166915D02*
X14072604Y-15157391D01*
X14072604Y-15157391D02*
X14120224Y-15157391D01*
X14120224Y-15157391D02*
X14139271Y-15166915D01*
X14139271Y-15166915D02*
X14148795Y-15176438D01*
X14148795Y-15176438D02*
X14158319Y-15195486D01*
X14158319Y-15195486D02*
X14158319Y-15243105D01*
X14158319Y-15243105D02*
X14148795Y-15262153D01*
X14148795Y-15262153D02*
X14139271Y-15271677D01*
X14139271Y-15271677D02*
X14120224Y-15281200D01*
X14120224Y-15281200D02*
X14072604Y-15281200D01*
X14072604Y-15281200D02*
X14053557Y-15271677D01*
X14053557Y-15271677D02*
X14044033Y-15262153D01*
X14244033Y-15281200D02*
X14244033Y-15147867D01*
X14244033Y-15166915D02*
X14253557Y-15157391D01*
X14253557Y-15157391D02*
X14272604Y-15147867D01*
X14272604Y-15147867D02*
X14301176Y-15147867D01*
X14301176Y-15147867D02*
X14320224Y-15157391D01*
X14320224Y-15157391D02*
X14329747Y-15176438D01*
X14329747Y-15176438D02*
X14329747Y-15281200D01*
X14329747Y-15176438D02*
X14339271Y-15157391D01*
X14339271Y-15157391D02*
X14358319Y-15147867D01*
X14358319Y-15147867D02*
X14386890Y-15147867D01*
X14386890Y-15147867D02*
X14405938Y-15157391D01*
X14405938Y-15157391D02*
X14415462Y-15176438D01*
X14415462Y-15176438D02*
X14415462Y-15281200D01*
X14510700Y-15281200D02*
X14510700Y-15147867D01*
X14510700Y-15166915D02*
X14520224Y-15157391D01*
X14520224Y-15157391D02*
X14539271Y-15147867D01*
X14539271Y-15147867D02*
X14567843Y-15147867D01*
X14567843Y-15147867D02*
X14586890Y-15157391D01*
X14586890Y-15157391D02*
X14596414Y-15176438D01*
X14596414Y-15176438D02*
X14596414Y-15281200D01*
X14596414Y-15176438D02*
X14605938Y-15157391D01*
X14605938Y-15157391D02*
X14624985Y-15147867D01*
X14624985Y-15147867D02*
X14653557Y-15147867D01*
X14653557Y-15147867D02*
X14672605Y-15157391D01*
X14672605Y-15157391D02*
X14682128Y-15176438D01*
X14682128Y-15176438D02*
X14682128Y-15281200D01*
X15072605Y-15071677D02*
X14901176Y-15328819D01*
X15329747Y-15081200D02*
X15348795Y-15081200D01*
X15348795Y-15081200D02*
X15367843Y-15090724D01*
X15367843Y-15090724D02*
X15377367Y-15100248D01*
X15377367Y-15100248D02*
X15386890Y-15119296D01*
X15386890Y-15119296D02*
X15396414Y-15157391D01*
X15396414Y-15157391D02*
X15396414Y-15205010D01*
X15396414Y-15205010D02*
X15386890Y-15243105D01*
X15386890Y-15243105D02*
X15377367Y-15262153D01*
X15377367Y-15262153D02*
X15367843Y-15271677D01*
X15367843Y-15271677D02*
X15348795Y-15281200D01*
X15348795Y-15281200D02*
X15329747Y-15281200D01*
X15329747Y-15281200D02*
X15310700Y-15271677D01*
X15310700Y-15271677D02*
X15301176Y-15262153D01*
X15301176Y-15262153D02*
X15291652Y-15243105D01*
X15291652Y-15243105D02*
X15282128Y-15205010D01*
X15282128Y-15205010D02*
X15282128Y-15157391D01*
X15282128Y-15157391D02*
X15291652Y-15119296D01*
X15291652Y-15119296D02*
X15301176Y-15100248D01*
X15301176Y-15100248D02*
X15310700Y-15090724D01*
X15310700Y-15090724D02*
X15329747Y-15081200D01*
X15482128Y-15262153D02*
X15491652Y-15271677D01*
X15491652Y-15271677D02*
X15482128Y-15281200D01*
X15482128Y-15281200D02*
X15472605Y-15271677D01*
X15472605Y-15271677D02*
X15482128Y-15262153D01*
X15482128Y-15262153D02*
X15482128Y-15281200D01*
X15615462Y-15081200D02*
X15634509Y-15081200D01*
X15634509Y-15081200D02*
X15653557Y-15090724D01*
X15653557Y-15090724D02*
X15663081Y-15100248D01*
X15663081Y-15100248D02*
X15672605Y-15119296D01*
X15672605Y-15119296D02*
X15682128Y-15157391D01*
X15682128Y-15157391D02*
X15682128Y-15205010D01*
X15682128Y-15205010D02*
X15672605Y-15243105D01*
X15672605Y-15243105D02*
X15663081Y-15262153D01*
X15663081Y-15262153D02*
X15653557Y-15271677D01*
X15653557Y-15271677D02*
X15634509Y-15281200D01*
X15634509Y-15281200D02*
X15615462Y-15281200D01*
X15615462Y-15281200D02*
X15596414Y-15271677D01*
X15596414Y-15271677D02*
X15586890Y-15262153D01*
X15586890Y-15262153D02*
X15577367Y-15243105D01*
X15577367Y-15243105D02*
X15567843Y-15205010D01*
X15567843Y-15205010D02*
X15567843Y-15157391D01*
X15567843Y-15157391D02*
X15577367Y-15119296D01*
X15577367Y-15119296D02*
X15586890Y-15100248D01*
X15586890Y-15100248D02*
X15596414Y-15090724D01*
X15596414Y-15090724D02*
X15615462Y-15081200D01*
X15853557Y-15147867D02*
X15853557Y-15281200D01*
X15805938Y-15071677D02*
X15758319Y-15214534D01*
X15758319Y-15214534D02*
X15882128Y-15214534D01*
X15967843Y-15281200D02*
X16005938Y-15281200D01*
X16005938Y-15281200D02*
X16024986Y-15271677D01*
X16024986Y-15271677D02*
X16034509Y-15262153D01*
X16034509Y-15262153D02*
X16053557Y-15233581D01*
X16053557Y-15233581D02*
X16063081Y-15195486D01*
X16063081Y-15195486D02*
X16063081Y-15119296D01*
X16063081Y-15119296D02*
X16053557Y-15100248D01*
X16053557Y-15100248D02*
X16044033Y-15090724D01*
X16044033Y-15090724D02*
X16024986Y-15081200D01*
X16024986Y-15081200D02*
X15986890Y-15081200D01*
X15986890Y-15081200D02*
X15967843Y-15090724D01*
X15967843Y-15090724D02*
X15958319Y-15100248D01*
X15958319Y-15100248D02*
X15948795Y-15119296D01*
X15948795Y-15119296D02*
X15948795Y-15166915D01*
X15948795Y-15166915D02*
X15958319Y-15185962D01*
X15958319Y-15185962D02*
X15967843Y-15195486D01*
X15967843Y-15195486D02*
X15986890Y-15205010D01*
X15986890Y-15205010D02*
X16024986Y-15205010D01*
X16024986Y-15205010D02*
X16044033Y-15195486D01*
X16044033Y-15195486D02*
X16053557Y-15185962D01*
X16053557Y-15185962D02*
X16063081Y-15166915D01*
X16186890Y-15081200D02*
X16205938Y-15081200D01*
X16205938Y-15081200D02*
X16224986Y-15090724D01*
X16224986Y-15090724D02*
X16234509Y-15100248D01*
X16234509Y-15100248D02*
X16244033Y-15119296D01*
X16244033Y-15119296D02*
X16253557Y-15157391D01*
X16253557Y-15157391D02*
X16253557Y-15205010D01*
X16253557Y-15205010D02*
X16244033Y-15243105D01*
X16244033Y-15243105D02*
X16234509Y-15262153D01*
X16234509Y-15262153D02*
X16224986Y-15271677D01*
X16224986Y-15271677D02*
X16205938Y-15281200D01*
X16205938Y-15281200D02*
X16186890Y-15281200D01*
X16186890Y-15281200D02*
X16167843Y-15271677D01*
X16167843Y-15271677D02*
X16158319Y-15262153D01*
X16158319Y-15262153D02*
X16148795Y-15243105D01*
X16148795Y-15243105D02*
X16139271Y-15205010D01*
X16139271Y-15205010D02*
X16139271Y-15157391D01*
X16139271Y-15157391D02*
X16148795Y-15119296D01*
X16148795Y-15119296D02*
X16158319Y-15100248D01*
X16158319Y-15100248D02*
X16167843Y-15090724D01*
X16167843Y-15090724D02*
X16186890Y-15081200D01*
X16329748Y-15081200D02*
X16329748Y-15119296D01*
X16405938Y-15081200D02*
X16405938Y-15119296D01*
X16701176Y-15357391D02*
X16691652Y-15347867D01*
X16691652Y-15347867D02*
X16672605Y-15319296D01*
X16672605Y-15319296D02*
X16663081Y-15300248D01*
X16663081Y-15300248D02*
X16653557Y-15271677D01*
X16653557Y-15271677D02*
X16644033Y-15224057D01*
X16644033Y-15224057D02*
X16644033Y-15185962D01*
X16644033Y-15185962D02*
X16653557Y-15138343D01*
X16653557Y-15138343D02*
X16663081Y-15109772D01*
X16663081Y-15109772D02*
X16672605Y-15090724D01*
X16672605Y-15090724D02*
X16691652Y-15062153D01*
X16691652Y-15062153D02*
X16701176Y-15052629D01*
X16863081Y-15147867D02*
X16863081Y-15281200D01*
X16815462Y-15071677D02*
X16767843Y-15214534D01*
X16767843Y-15214534D02*
X16891652Y-15214534D01*
X17120224Y-15281200D02*
X17120224Y-15081200D01*
X17205938Y-15281200D02*
X17205938Y-15176438D01*
X17205938Y-15176438D02*
X17196414Y-15157391D01*
X17196414Y-15157391D02*
X17177367Y-15147867D01*
X17177367Y-15147867D02*
X17148795Y-15147867D01*
X17148795Y-15147867D02*
X17129748Y-15157391D01*
X17129748Y-15157391D02*
X17120224Y-15166915D01*
X17329748Y-15281200D02*
X17310700Y-15271677D01*
X17310700Y-15271677D02*
X17301176Y-15262153D01*
X17301176Y-15262153D02*
X17291653Y-15243105D01*
X17291653Y-15243105D02*
X17291653Y-15185962D01*
X17291653Y-15185962D02*
X17301176Y-15166915D01*
X17301176Y-15166915D02*
X17310700Y-15157391D01*
X17310700Y-15157391D02*
X17329748Y-15147867D01*
X17329748Y-15147867D02*
X17358319Y-15147867D01*
X17358319Y-15147867D02*
X17377367Y-15157391D01*
X17377367Y-15157391D02*
X17386891Y-15166915D01*
X17386891Y-15166915D02*
X17396414Y-15185962D01*
X17396414Y-15185962D02*
X17396414Y-15243105D01*
X17396414Y-15243105D02*
X17386891Y-15262153D01*
X17386891Y-15262153D02*
X17377367Y-15271677D01*
X17377367Y-15271677D02*
X17358319Y-15281200D01*
X17358319Y-15281200D02*
X17329748Y-15281200D01*
X17510700Y-15281200D02*
X17491653Y-15271677D01*
X17491653Y-15271677D02*
X17482129Y-15252629D01*
X17482129Y-15252629D02*
X17482129Y-15081200D01*
X17663081Y-15271677D02*
X17644034Y-15281200D01*
X17644034Y-15281200D02*
X17605938Y-15281200D01*
X17605938Y-15281200D02*
X17586891Y-15271677D01*
X17586891Y-15271677D02*
X17577367Y-15252629D01*
X17577367Y-15252629D02*
X17577367Y-15176438D01*
X17577367Y-15176438D02*
X17586891Y-15157391D01*
X17586891Y-15157391D02*
X17605938Y-15147867D01*
X17605938Y-15147867D02*
X17644034Y-15147867D01*
X17644034Y-15147867D02*
X17663081Y-15157391D01*
X17663081Y-15157391D02*
X17672605Y-15176438D01*
X17672605Y-15176438D02*
X17672605Y-15195486D01*
X17672605Y-15195486D02*
X17577367Y-15214534D01*
X17748795Y-15271677D02*
X17767843Y-15281200D01*
X17767843Y-15281200D02*
X17805938Y-15281200D01*
X17805938Y-15281200D02*
X17824986Y-15271677D01*
X17824986Y-15271677D02*
X17834510Y-15252629D01*
X17834510Y-15252629D02*
X17834510Y-15243105D01*
X17834510Y-15243105D02*
X17824986Y-15224057D01*
X17824986Y-15224057D02*
X17805938Y-15214534D01*
X17805938Y-15214534D02*
X17777367Y-15214534D01*
X17777367Y-15214534D02*
X17758319Y-15205010D01*
X17758319Y-15205010D02*
X17748795Y-15185962D01*
X17748795Y-15185962D02*
X17748795Y-15176438D01*
X17748795Y-15176438D02*
X17758319Y-15157391D01*
X17758319Y-15157391D02*
X17777367Y-15147867D01*
X17777367Y-15147867D02*
X17805938Y-15147867D01*
X17805938Y-15147867D02*
X17824986Y-15157391D01*
X17901176Y-15357391D02*
X17910700Y-15347867D01*
X17910700Y-15347867D02*
X17929748Y-15319296D01*
X17929748Y-15319296D02*
X17939272Y-15300248D01*
X17939272Y-15300248D02*
X17948795Y-15271677D01*
X17948795Y-15271677D02*
X17958319Y-15224057D01*
X17958319Y-15224057D02*
X17958319Y-15185962D01*
X17958319Y-15185962D02*
X17948795Y-15138343D01*
X17948795Y-15138343D02*
X17939272Y-15109772D01*
X17939272Y-15109772D02*
X17929748Y-15090724D01*
X17929748Y-15090724D02*
X17910700Y-15062153D01*
X17910700Y-15062153D02*
X17901176Y-15052629D01*
D14*
X13107076Y-15499679D02*
X13107076Y-15407754D01*
X13015151Y-15407754D01*
X13015151Y-15499679D01*
X13107076Y-15499679D01*
D11*
X13491652Y-15545200D02*
X13377366Y-15545200D01*
X13434509Y-15545200D02*
X13434509Y-15345200D01*
X13434509Y-15345200D02*
X13415462Y-15373772D01*
X13415462Y-15373772D02*
X13396414Y-15392819D01*
X13396414Y-15392819D02*
X13377366Y-15402343D01*
X13577366Y-15526153D02*
X13586890Y-15535677D01*
X13586890Y-15535677D02*
X13577366Y-15545200D01*
X13577366Y-15545200D02*
X13567843Y-15535677D01*
X13567843Y-15535677D02*
X13577366Y-15526153D01*
X13577366Y-15526153D02*
X13577366Y-15545200D01*
X13653557Y-15345200D02*
X13777366Y-15345200D01*
X13777366Y-15345200D02*
X13710700Y-15421391D01*
X13710700Y-15421391D02*
X13739271Y-15421391D01*
X13739271Y-15421391D02*
X13758319Y-15430915D01*
X13758319Y-15430915D02*
X13767843Y-15440438D01*
X13767843Y-15440438D02*
X13777366Y-15459486D01*
X13777366Y-15459486D02*
X13777366Y-15507105D01*
X13777366Y-15507105D02*
X13767843Y-15526153D01*
X13767843Y-15526153D02*
X13758319Y-15535677D01*
X13758319Y-15535677D02*
X13739271Y-15545200D01*
X13739271Y-15545200D02*
X13682128Y-15545200D01*
X13682128Y-15545200D02*
X13663081Y-15535677D01*
X13663081Y-15535677D02*
X13653557Y-15526153D01*
X13901176Y-15345200D02*
X13920224Y-15345200D01*
X13920224Y-15345200D02*
X13939271Y-15354724D01*
X13939271Y-15354724D02*
X13948795Y-15364248D01*
X13948795Y-15364248D02*
X13958319Y-15383296D01*
X13958319Y-15383296D02*
X13967843Y-15421391D01*
X13967843Y-15421391D02*
X13967843Y-15469010D01*
X13967843Y-15469010D02*
X13958319Y-15507105D01*
X13958319Y-15507105D02*
X13948795Y-15526153D01*
X13948795Y-15526153D02*
X13939271Y-15535677D01*
X13939271Y-15535677D02*
X13920224Y-15545200D01*
X13920224Y-15545200D02*
X13901176Y-15545200D01*
X13901176Y-15545200D02*
X13882128Y-15535677D01*
X13882128Y-15535677D02*
X13872604Y-15526153D01*
X13872604Y-15526153D02*
X13863081Y-15507105D01*
X13863081Y-15507105D02*
X13853557Y-15469010D01*
X13853557Y-15469010D02*
X13853557Y-15421391D01*
X13853557Y-15421391D02*
X13863081Y-15383296D01*
X13863081Y-15383296D02*
X13872604Y-15364248D01*
X13872604Y-15364248D02*
X13882128Y-15354724D01*
X13882128Y-15354724D02*
X13901176Y-15345200D01*
X14091652Y-15345200D02*
X14110700Y-15345200D01*
X14110700Y-15345200D02*
X14129747Y-15354724D01*
X14129747Y-15354724D02*
X14139271Y-15364248D01*
X14139271Y-15364248D02*
X14148795Y-15383296D01*
X14148795Y-15383296D02*
X14158319Y-15421391D01*
X14158319Y-15421391D02*
X14158319Y-15469010D01*
X14158319Y-15469010D02*
X14148795Y-15507105D01*
X14148795Y-15507105D02*
X14139271Y-15526153D01*
X14139271Y-15526153D02*
X14129747Y-15535677D01*
X14129747Y-15535677D02*
X14110700Y-15545200D01*
X14110700Y-15545200D02*
X14091652Y-15545200D01*
X14091652Y-15545200D02*
X14072604Y-15535677D01*
X14072604Y-15535677D02*
X14063081Y-15526153D01*
X14063081Y-15526153D02*
X14053557Y-15507105D01*
X14053557Y-15507105D02*
X14044033Y-15469010D01*
X14044033Y-15469010D02*
X14044033Y-15421391D01*
X14044033Y-15421391D02*
X14053557Y-15383296D01*
X14053557Y-15383296D02*
X14063081Y-15364248D01*
X14063081Y-15364248D02*
X14072604Y-15354724D01*
X14072604Y-15354724D02*
X14091652Y-15345200D01*
X14244033Y-15545200D02*
X14244033Y-15411867D01*
X14244033Y-15430915D02*
X14253557Y-15421391D01*
X14253557Y-15421391D02*
X14272604Y-15411867D01*
X14272604Y-15411867D02*
X14301176Y-15411867D01*
X14301176Y-15411867D02*
X14320224Y-15421391D01*
X14320224Y-15421391D02*
X14329747Y-15440438D01*
X14329747Y-15440438D02*
X14329747Y-15545200D01*
X14329747Y-15440438D02*
X14339271Y-15421391D01*
X14339271Y-15421391D02*
X14358319Y-15411867D01*
X14358319Y-15411867D02*
X14386890Y-15411867D01*
X14386890Y-15411867D02*
X14405938Y-15421391D01*
X14405938Y-15421391D02*
X14415462Y-15440438D01*
X14415462Y-15440438D02*
X14415462Y-15545200D01*
X14510700Y-15545200D02*
X14510700Y-15411867D01*
X14510700Y-15430915D02*
X14520224Y-15421391D01*
X14520224Y-15421391D02*
X14539271Y-15411867D01*
X14539271Y-15411867D02*
X14567843Y-15411867D01*
X14567843Y-15411867D02*
X14586890Y-15421391D01*
X14586890Y-15421391D02*
X14596414Y-15440438D01*
X14596414Y-15440438D02*
X14596414Y-15545200D01*
X14596414Y-15440438D02*
X14605938Y-15421391D01*
X14605938Y-15421391D02*
X14624985Y-15411867D01*
X14624985Y-15411867D02*
X14653557Y-15411867D01*
X14653557Y-15411867D02*
X14672605Y-15421391D01*
X14672605Y-15421391D02*
X14682128Y-15440438D01*
X14682128Y-15440438D02*
X14682128Y-15545200D01*
X15072605Y-15335677D02*
X14901176Y-15592819D01*
X15329747Y-15345200D02*
X15348795Y-15345200D01*
X15348795Y-15345200D02*
X15367843Y-15354724D01*
X15367843Y-15354724D02*
X15377367Y-15364248D01*
X15377367Y-15364248D02*
X15386890Y-15383296D01*
X15386890Y-15383296D02*
X15396414Y-15421391D01*
X15396414Y-15421391D02*
X15396414Y-15469010D01*
X15396414Y-15469010D02*
X15386890Y-15507105D01*
X15386890Y-15507105D02*
X15377367Y-15526153D01*
X15377367Y-15526153D02*
X15367843Y-15535677D01*
X15367843Y-15535677D02*
X15348795Y-15545200D01*
X15348795Y-15545200D02*
X15329747Y-15545200D01*
X15329747Y-15545200D02*
X15310700Y-15535677D01*
X15310700Y-15535677D02*
X15301176Y-15526153D01*
X15301176Y-15526153D02*
X15291652Y-15507105D01*
X15291652Y-15507105D02*
X15282128Y-15469010D01*
X15282128Y-15469010D02*
X15282128Y-15421391D01*
X15282128Y-15421391D02*
X15291652Y-15383296D01*
X15291652Y-15383296D02*
X15301176Y-15364248D01*
X15301176Y-15364248D02*
X15310700Y-15354724D01*
X15310700Y-15354724D02*
X15329747Y-15345200D01*
X15482128Y-15526153D02*
X15491652Y-15535677D01*
X15491652Y-15535677D02*
X15482128Y-15545200D01*
X15482128Y-15545200D02*
X15472605Y-15535677D01*
X15472605Y-15535677D02*
X15482128Y-15526153D01*
X15482128Y-15526153D02*
X15482128Y-15545200D01*
X15615462Y-15345200D02*
X15634509Y-15345200D01*
X15634509Y-15345200D02*
X15653557Y-15354724D01*
X15653557Y-15354724D02*
X15663081Y-15364248D01*
X15663081Y-15364248D02*
X15672605Y-15383296D01*
X15672605Y-15383296D02*
X15682128Y-15421391D01*
X15682128Y-15421391D02*
X15682128Y-15469010D01*
X15682128Y-15469010D02*
X15672605Y-15507105D01*
X15672605Y-15507105D02*
X15663081Y-15526153D01*
X15663081Y-15526153D02*
X15653557Y-15535677D01*
X15653557Y-15535677D02*
X15634509Y-15545200D01*
X15634509Y-15545200D02*
X15615462Y-15545200D01*
X15615462Y-15545200D02*
X15596414Y-15535677D01*
X15596414Y-15535677D02*
X15586890Y-15526153D01*
X15586890Y-15526153D02*
X15577367Y-15507105D01*
X15577367Y-15507105D02*
X15567843Y-15469010D01*
X15567843Y-15469010D02*
X15567843Y-15421391D01*
X15567843Y-15421391D02*
X15577367Y-15383296D01*
X15577367Y-15383296D02*
X15586890Y-15364248D01*
X15586890Y-15364248D02*
X15596414Y-15354724D01*
X15596414Y-15354724D02*
X15615462Y-15345200D01*
X15863081Y-15345200D02*
X15767843Y-15345200D01*
X15767843Y-15345200D02*
X15758319Y-15440438D01*
X15758319Y-15440438D02*
X15767843Y-15430915D01*
X15767843Y-15430915D02*
X15786890Y-15421391D01*
X15786890Y-15421391D02*
X15834509Y-15421391D01*
X15834509Y-15421391D02*
X15853557Y-15430915D01*
X15853557Y-15430915D02*
X15863081Y-15440438D01*
X15863081Y-15440438D02*
X15872605Y-15459486D01*
X15872605Y-15459486D02*
X15872605Y-15507105D01*
X15872605Y-15507105D02*
X15863081Y-15526153D01*
X15863081Y-15526153D02*
X15853557Y-15535677D01*
X15853557Y-15535677D02*
X15834509Y-15545200D01*
X15834509Y-15545200D02*
X15786890Y-15545200D01*
X15786890Y-15545200D02*
X15767843Y-15535677D01*
X15767843Y-15535677D02*
X15758319Y-15526153D01*
X16063081Y-15545200D02*
X15948795Y-15545200D01*
X16005938Y-15545200D02*
X16005938Y-15345200D01*
X16005938Y-15345200D02*
X15986890Y-15373772D01*
X15986890Y-15373772D02*
X15967843Y-15392819D01*
X15967843Y-15392819D02*
X15948795Y-15402343D01*
X16139271Y-15364248D02*
X16148795Y-15354724D01*
X16148795Y-15354724D02*
X16167843Y-15345200D01*
X16167843Y-15345200D02*
X16215462Y-15345200D01*
X16215462Y-15345200D02*
X16234509Y-15354724D01*
X16234509Y-15354724D02*
X16244033Y-15364248D01*
X16244033Y-15364248D02*
X16253557Y-15383296D01*
X16253557Y-15383296D02*
X16253557Y-15402343D01*
X16253557Y-15402343D02*
X16244033Y-15430915D01*
X16244033Y-15430915D02*
X16129748Y-15545200D01*
X16129748Y-15545200D02*
X16253557Y-15545200D01*
X16329748Y-15345200D02*
X16329748Y-15383296D01*
X16405938Y-15345200D02*
X16405938Y-15383296D01*
X16701176Y-15621391D02*
X16691652Y-15611867D01*
X16691652Y-15611867D02*
X16672605Y-15583296D01*
X16672605Y-15583296D02*
X16663081Y-15564248D01*
X16663081Y-15564248D02*
X16653557Y-15535677D01*
X16653557Y-15535677D02*
X16644033Y-15488057D01*
X16644033Y-15488057D02*
X16644033Y-15449962D01*
X16644033Y-15449962D02*
X16653557Y-15402343D01*
X16653557Y-15402343D02*
X16663081Y-15373772D01*
X16663081Y-15373772D02*
X16672605Y-15354724D01*
X16672605Y-15354724D02*
X16691652Y-15326153D01*
X16691652Y-15326153D02*
X16701176Y-15316629D01*
X16882129Y-15545200D02*
X16767843Y-15545200D01*
X16824986Y-15545200D02*
X16824986Y-15345200D01*
X16824986Y-15345200D02*
X16805938Y-15373772D01*
X16805938Y-15373772D02*
X16786891Y-15392819D01*
X16786891Y-15392819D02*
X16767843Y-15402343D01*
X17005938Y-15345200D02*
X17024986Y-15345200D01*
X17024986Y-15345200D02*
X17044033Y-15354724D01*
X17044033Y-15354724D02*
X17053557Y-15364248D01*
X17053557Y-15364248D02*
X17063081Y-15383296D01*
X17063081Y-15383296D02*
X17072605Y-15421391D01*
X17072605Y-15421391D02*
X17072605Y-15469010D01*
X17072605Y-15469010D02*
X17063081Y-15507105D01*
X17063081Y-15507105D02*
X17053557Y-15526153D01*
X17053557Y-15526153D02*
X17044033Y-15535677D01*
X17044033Y-15535677D02*
X17024986Y-15545200D01*
X17024986Y-15545200D02*
X17005938Y-15545200D01*
X17005938Y-15545200D02*
X16986891Y-15535677D01*
X16986891Y-15535677D02*
X16977367Y-15526153D01*
X16977367Y-15526153D02*
X16967843Y-15507105D01*
X16967843Y-15507105D02*
X16958319Y-15469010D01*
X16958319Y-15469010D02*
X16958319Y-15421391D01*
X16958319Y-15421391D02*
X16967843Y-15383296D01*
X16967843Y-15383296D02*
X16977367Y-15364248D01*
X16977367Y-15364248D02*
X16986891Y-15354724D01*
X16986891Y-15354724D02*
X17005938Y-15345200D01*
X17310700Y-15545200D02*
X17310700Y-15345200D01*
X17396414Y-15545200D02*
X17396414Y-15440438D01*
X17396414Y-15440438D02*
X17386891Y-15421391D01*
X17386891Y-15421391D02*
X17367843Y-15411867D01*
X17367843Y-15411867D02*
X17339272Y-15411867D01*
X17339272Y-15411867D02*
X17320224Y-15421391D01*
X17320224Y-15421391D02*
X17310700Y-15430915D01*
X17520224Y-15545200D02*
X17501176Y-15535677D01*
X17501176Y-15535677D02*
X17491653Y-15526153D01*
X17491653Y-15526153D02*
X17482129Y-15507105D01*
X17482129Y-15507105D02*
X17482129Y-15449962D01*
X17482129Y-15449962D02*
X17491653Y-15430915D01*
X17491653Y-15430915D02*
X17501176Y-15421391D01*
X17501176Y-15421391D02*
X17520224Y-15411867D01*
X17520224Y-15411867D02*
X17548795Y-15411867D01*
X17548795Y-15411867D02*
X17567843Y-15421391D01*
X17567843Y-15421391D02*
X17577367Y-15430915D01*
X17577367Y-15430915D02*
X17586891Y-15449962D01*
X17586891Y-15449962D02*
X17586891Y-15507105D01*
X17586891Y-15507105D02*
X17577367Y-15526153D01*
X17577367Y-15526153D02*
X17567843Y-15535677D01*
X17567843Y-15535677D02*
X17548795Y-15545200D01*
X17548795Y-15545200D02*
X17520224Y-15545200D01*
X17701176Y-15545200D02*
X17682129Y-15535677D01*
X17682129Y-15535677D02*
X17672605Y-15516629D01*
X17672605Y-15516629D02*
X17672605Y-15345200D01*
X17853557Y-15535677D02*
X17834510Y-15545200D01*
X17834510Y-15545200D02*
X17796414Y-15545200D01*
X17796414Y-15545200D02*
X17777367Y-15535677D01*
X17777367Y-15535677D02*
X17767843Y-15516629D01*
X17767843Y-15516629D02*
X17767843Y-15440438D01*
X17767843Y-15440438D02*
X17777367Y-15421391D01*
X17777367Y-15421391D02*
X17796414Y-15411867D01*
X17796414Y-15411867D02*
X17834510Y-15411867D01*
X17834510Y-15411867D02*
X17853557Y-15421391D01*
X17853557Y-15421391D02*
X17863081Y-15440438D01*
X17863081Y-15440438D02*
X17863081Y-15459486D01*
X17863081Y-15459486D02*
X17767843Y-15478534D01*
X17939272Y-15535677D02*
X17958319Y-15545200D01*
X17958319Y-15545200D02*
X17996414Y-15545200D01*
X17996414Y-15545200D02*
X18015462Y-15535677D01*
X18015462Y-15535677D02*
X18024986Y-15516629D01*
X18024986Y-15516629D02*
X18024986Y-15507105D01*
X18024986Y-15507105D02*
X18015462Y-15488057D01*
X18015462Y-15488057D02*
X17996414Y-15478534D01*
X17996414Y-15478534D02*
X17967843Y-15478534D01*
X17967843Y-15478534D02*
X17948795Y-15469010D01*
X17948795Y-15469010D02*
X17939272Y-15449962D01*
X17939272Y-15449962D02*
X17939272Y-15440438D01*
X17939272Y-15440438D02*
X17948795Y-15421391D01*
X17948795Y-15421391D02*
X17967843Y-15411867D01*
X17967843Y-15411867D02*
X17996414Y-15411867D01*
X17996414Y-15411867D02*
X18015462Y-15421391D01*
X18091653Y-15621391D02*
X18101176Y-15611867D01*
X18101176Y-15611867D02*
X18120224Y-15583296D01*
X18120224Y-15583296D02*
X18129748Y-15564248D01*
X18129748Y-15564248D02*
X18139272Y-15535677D01*
X18139272Y-15535677D02*
X18148795Y-15488057D01*
X18148795Y-15488057D02*
X18148795Y-15449962D01*
X18148795Y-15449962D02*
X18139272Y-15402343D01*
X18139272Y-15402343D02*
X18129748Y-15373772D01*
X18129748Y-15373772D02*
X18120224Y-15354724D01*
X18120224Y-15354724D02*
X18101176Y-15326153D01*
X18101176Y-15326153D02*
X18091653Y-15316629D01*
M02*
