%TF.GenerationSoftware,KiCad,Pcbnew,7.0.10*%
%TF.CreationDate,2024-07-21T08:04:53-04:00*%
%TF.ProjectId,12.1.1 - PLC Connector,31322e31-2e31-4202-9d20-504c4320436f,rev?*%
%TF.SameCoordinates,Original*%
%TF.FileFunction,Legend,Top*%
%TF.FilePolarity,Positive*%
%FSLAX46Y46*%
G04 Gerber Fmt 4.6, Leading zero omitted, Abs format (unit mm)*
G04 Created by KiCad (PCBNEW 7.0.10) date 2024-07-21 08:04:53*
%MOMM*%
%LPD*%
G01*
G04 APERTURE LIST*
%ADD10C,0.457200*%
%ADD11C,0.177800*%
%ADD12C,0.254000*%
%ADD13C,0.150000*%
%ADD14C,0.100000*%
%ADD15C,0.200000*%
%ADD16C,0.120000*%
%ADD17C,0.152400*%
%ADD18C,0.508000*%
G04 APERTURE END LIST*
D10*
X160661414Y-88390387D02*
X158832614Y-88390387D01*
X158832614Y-88390387D02*
X160138900Y-87780787D01*
X160138900Y-87780787D02*
X158832614Y-87171187D01*
X158832614Y-87171187D02*
X160661414Y-87171187D01*
D11*
X155183568Y-88121066D02*
X155691568Y-88121066D01*
X155691568Y-88121066D02*
X155793168Y-88154933D01*
X155793168Y-88154933D02*
X155860902Y-88222666D01*
X155860902Y-88222666D02*
X155894768Y-88324266D01*
X155894768Y-88324266D02*
X155894768Y-88392000D01*
X155894768Y-87443733D02*
X155894768Y-87782399D01*
X155894768Y-87782399D02*
X155183568Y-87782399D01*
X155827035Y-86800266D02*
X155860902Y-86834133D01*
X155860902Y-86834133D02*
X155894768Y-86935733D01*
X155894768Y-86935733D02*
X155894768Y-87003466D01*
X155894768Y-87003466D02*
X155860902Y-87105066D01*
X155860902Y-87105066D02*
X155793168Y-87172800D01*
X155793168Y-87172800D02*
X155725435Y-87206666D01*
X155725435Y-87206666D02*
X155589968Y-87240533D01*
X155589968Y-87240533D02*
X155488368Y-87240533D01*
X155488368Y-87240533D02*
X155352902Y-87206666D01*
X155352902Y-87206666D02*
X155285168Y-87172800D01*
X155285168Y-87172800D02*
X155217435Y-87105066D01*
X155217435Y-87105066D02*
X155183568Y-87003466D01*
X155183568Y-87003466D02*
X155183568Y-86935733D01*
X155183568Y-86935733D02*
X155217435Y-86834133D01*
X155217435Y-86834133D02*
X155251302Y-86800266D01*
X155183568Y-86292266D02*
X155691568Y-86292266D01*
X155691568Y-86292266D02*
X155793168Y-86326133D01*
X155793168Y-86326133D02*
X155860902Y-86393866D01*
X155860902Y-86393866D02*
X155894768Y-86495466D01*
X155894768Y-86495466D02*
X155894768Y-86563200D01*
X155894768Y-85614933D02*
X155894768Y-85953599D01*
X155894768Y-85953599D02*
X155183568Y-85953599D01*
X155827035Y-84971466D02*
X155860902Y-85005333D01*
X155860902Y-85005333D02*
X155894768Y-85106933D01*
X155894768Y-85106933D02*
X155894768Y-85174666D01*
X155894768Y-85174666D02*
X155860902Y-85276266D01*
X155860902Y-85276266D02*
X155793168Y-85344000D01*
X155793168Y-85344000D02*
X155725435Y-85377866D01*
X155725435Y-85377866D02*
X155589968Y-85411733D01*
X155589968Y-85411733D02*
X155488368Y-85411733D01*
X155488368Y-85411733D02*
X155352902Y-85377866D01*
X155352902Y-85377866D02*
X155285168Y-85344000D01*
X155285168Y-85344000D02*
X155217435Y-85276266D01*
X155217435Y-85276266D02*
X155183568Y-85174666D01*
X155183568Y-85174666D02*
X155183568Y-85106933D01*
X155183568Y-85106933D02*
X155217435Y-85005333D01*
X155217435Y-85005333D02*
X155251302Y-84971466D01*
X155183568Y-84463466D02*
X155691568Y-84463466D01*
X155691568Y-84463466D02*
X155793168Y-84497333D01*
X155793168Y-84497333D02*
X155860902Y-84565066D01*
X155860902Y-84565066D02*
X155894768Y-84666666D01*
X155894768Y-84666666D02*
X155894768Y-84734400D01*
X155894768Y-83786133D02*
X155894768Y-84124799D01*
X155894768Y-84124799D02*
X155183568Y-84124799D01*
X155827035Y-83142666D02*
X155860902Y-83176533D01*
X155860902Y-83176533D02*
X155894768Y-83278133D01*
X155894768Y-83278133D02*
X155894768Y-83345866D01*
X155894768Y-83345866D02*
X155860902Y-83447466D01*
X155860902Y-83447466D02*
X155793168Y-83515200D01*
X155793168Y-83515200D02*
X155725435Y-83549066D01*
X155725435Y-83549066D02*
X155589968Y-83582933D01*
X155589968Y-83582933D02*
X155488368Y-83582933D01*
X155488368Y-83582933D02*
X155352902Y-83549066D01*
X155352902Y-83549066D02*
X155285168Y-83515200D01*
X155285168Y-83515200D02*
X155217435Y-83447466D01*
X155217435Y-83447466D02*
X155183568Y-83345866D01*
X155183568Y-83345866D02*
X155183568Y-83278133D01*
X155183568Y-83278133D02*
X155217435Y-83176533D01*
X155217435Y-83176533D02*
X155251302Y-83142666D01*
X155183568Y-82634666D02*
X155691568Y-82634666D01*
X155691568Y-82634666D02*
X155793168Y-82668533D01*
X155793168Y-82668533D02*
X155860902Y-82736266D01*
X155860902Y-82736266D02*
X155894768Y-82837866D01*
X155894768Y-82837866D02*
X155894768Y-82905600D01*
X155894768Y-81957333D02*
X155894768Y-82295999D01*
X155894768Y-82295999D02*
X155183568Y-82295999D01*
X155827035Y-81313866D02*
X155860902Y-81347733D01*
X155860902Y-81347733D02*
X155894768Y-81449333D01*
X155894768Y-81449333D02*
X155894768Y-81517066D01*
X155894768Y-81517066D02*
X155860902Y-81618666D01*
X155860902Y-81618666D02*
X155793168Y-81686400D01*
X155793168Y-81686400D02*
X155725435Y-81720266D01*
X155725435Y-81720266D02*
X155589968Y-81754133D01*
X155589968Y-81754133D02*
X155488368Y-81754133D01*
X155488368Y-81754133D02*
X155352902Y-81720266D01*
X155352902Y-81720266D02*
X155285168Y-81686400D01*
X155285168Y-81686400D02*
X155217435Y-81618666D01*
X155217435Y-81618666D02*
X155183568Y-81517066D01*
X155183568Y-81517066D02*
X155183568Y-81449333D01*
X155183568Y-81449333D02*
X155217435Y-81347733D01*
X155217435Y-81347733D02*
X155251302Y-81313866D01*
D10*
X159006786Y-98312514D02*
X158919700Y-98225428D01*
X158919700Y-98225428D02*
X158832614Y-98051257D01*
X158832614Y-98051257D02*
X158832614Y-97615828D01*
X158832614Y-97615828D02*
X158919700Y-97441657D01*
X158919700Y-97441657D02*
X159006786Y-97354571D01*
X159006786Y-97354571D02*
X159180957Y-97267485D01*
X159180957Y-97267485D02*
X159355129Y-97267485D01*
X159355129Y-97267485D02*
X159616386Y-97354571D01*
X159616386Y-97354571D02*
X160661414Y-98399599D01*
X160661414Y-98399599D02*
X160661414Y-97267485D01*
X144862614Y-124053599D02*
X144862614Y-122834399D01*
X144862614Y-122834399D02*
X146691414Y-123618171D01*
X144735614Y-118015657D02*
X144735614Y-118363999D01*
X144735614Y-118363999D02*
X144822700Y-118538171D01*
X144822700Y-118538171D02*
X144909786Y-118625257D01*
X144909786Y-118625257D02*
X145171043Y-118799428D01*
X145171043Y-118799428D02*
X145519386Y-118886514D01*
X145519386Y-118886514D02*
X146216071Y-118886514D01*
X146216071Y-118886514D02*
X146390243Y-118799428D01*
X146390243Y-118799428D02*
X146477329Y-118712342D01*
X146477329Y-118712342D02*
X146564414Y-118538171D01*
X146564414Y-118538171D02*
X146564414Y-118189828D01*
X146564414Y-118189828D02*
X146477329Y-118015657D01*
X146477329Y-118015657D02*
X146390243Y-117928571D01*
X146390243Y-117928571D02*
X146216071Y-117841485D01*
X146216071Y-117841485D02*
X145780643Y-117841485D01*
X145780643Y-117841485D02*
X145606471Y-117928571D01*
X145606471Y-117928571D02*
X145519386Y-118015657D01*
X145519386Y-118015657D02*
X145432300Y-118189828D01*
X145432300Y-118189828D02*
X145432300Y-118538171D01*
X145432300Y-118538171D02*
X145519386Y-118712342D01*
X145519386Y-118712342D02*
X145606471Y-118799428D01*
X145606471Y-118799428D02*
X145780643Y-118886514D01*
X144989614Y-103479599D02*
X144989614Y-102347485D01*
X144989614Y-102347485D02*
X145686300Y-102957085D01*
X145686300Y-102957085D02*
X145686300Y-102695828D01*
X145686300Y-102695828D02*
X145773386Y-102521657D01*
X145773386Y-102521657D02*
X145860471Y-102434571D01*
X145860471Y-102434571D02*
X146034643Y-102347485D01*
X146034643Y-102347485D02*
X146470071Y-102347485D01*
X146470071Y-102347485D02*
X146644243Y-102434571D01*
X146644243Y-102434571D02*
X146731329Y-102521657D01*
X146731329Y-102521657D02*
X146818414Y-102695828D01*
X146818414Y-102695828D02*
X146818414Y-103218342D01*
X146818414Y-103218342D02*
X146731329Y-103392514D01*
X146731329Y-103392514D02*
X146644243Y-103479599D01*
X158832614Y-124053599D02*
X158832614Y-122834399D01*
X158832614Y-122834399D02*
X160661414Y-123618171D01*
X146818414Y-92187485D02*
X146818414Y-93232514D01*
X146818414Y-92709999D02*
X144989614Y-92709999D01*
X144989614Y-92709999D02*
X145250871Y-92884171D01*
X145250871Y-92884171D02*
X145425043Y-93058342D01*
X145425043Y-93058342D02*
X145512129Y-93232514D01*
X160661414Y-92568485D02*
X160661414Y-93613514D01*
X160661414Y-93090999D02*
X158832614Y-93090999D01*
X158832614Y-93090999D02*
X159093871Y-93265171D01*
X159093871Y-93265171D02*
X159268043Y-93439342D01*
X159268043Y-93439342D02*
X159355129Y-93613514D01*
X158832614Y-112975571D02*
X158832614Y-113846428D01*
X158832614Y-113846428D02*
X159703471Y-113933514D01*
X159703471Y-113933514D02*
X159616386Y-113846428D01*
X159616386Y-113846428D02*
X159529300Y-113672257D01*
X159529300Y-113672257D02*
X159529300Y-113236828D01*
X159529300Y-113236828D02*
X159616386Y-113062657D01*
X159616386Y-113062657D02*
X159703471Y-112975571D01*
X159703471Y-112975571D02*
X159877643Y-112888485D01*
X159877643Y-112888485D02*
X160313071Y-112888485D01*
X160313071Y-112888485D02*
X160487243Y-112975571D01*
X160487243Y-112975571D02*
X160574329Y-113062657D01*
X160574329Y-113062657D02*
X160661414Y-113236828D01*
X160661414Y-113236828D02*
X160661414Y-113672257D01*
X160661414Y-113672257D02*
X160574329Y-113846428D01*
X160574329Y-113846428D02*
X160487243Y-113933514D01*
X145726214Y-107601657D02*
X146945414Y-107601657D01*
X145029529Y-108037085D02*
X146335814Y-108472514D01*
X146335814Y-108472514D02*
X146335814Y-107340399D01*
X146818414Y-88366599D02*
X144989614Y-88366599D01*
X144989614Y-88366599D02*
X146295900Y-87756999D01*
X146295900Y-87756999D02*
X144989614Y-87147399D01*
X144989614Y-87147399D02*
X146818414Y-87147399D01*
X160661414Y-82100057D02*
X160661414Y-82970914D01*
X160661414Y-82970914D02*
X158832614Y-82970914D01*
X159964729Y-81490457D02*
X159964729Y-80097086D01*
X160661414Y-80793771D02*
X159268043Y-80793771D01*
X159188214Y-108109657D02*
X160407414Y-108109657D01*
X158491529Y-108545085D02*
X159797814Y-108980514D01*
X159797814Y-108980514D02*
X159797814Y-107848399D01*
X158832614Y-118269657D02*
X158832614Y-118617999D01*
X158832614Y-118617999D02*
X158919700Y-118792171D01*
X158919700Y-118792171D02*
X159006786Y-118879257D01*
X159006786Y-118879257D02*
X159268043Y-119053428D01*
X159268043Y-119053428D02*
X159616386Y-119140514D01*
X159616386Y-119140514D02*
X160313071Y-119140514D01*
X160313071Y-119140514D02*
X160487243Y-119053428D01*
X160487243Y-119053428D02*
X160574329Y-118966342D01*
X160574329Y-118966342D02*
X160661414Y-118792171D01*
X160661414Y-118792171D02*
X160661414Y-118443828D01*
X160661414Y-118443828D02*
X160574329Y-118269657D01*
X160574329Y-118269657D02*
X160487243Y-118182571D01*
X160487243Y-118182571D02*
X160313071Y-118095485D01*
X160313071Y-118095485D02*
X159877643Y-118095485D01*
X159877643Y-118095485D02*
X159703471Y-118182571D01*
X159703471Y-118182571D02*
X159616386Y-118269657D01*
X159616386Y-118269657D02*
X159529300Y-118443828D01*
X159529300Y-118443828D02*
X159529300Y-118792171D01*
X159529300Y-118792171D02*
X159616386Y-118966342D01*
X159616386Y-118966342D02*
X159703471Y-119053428D01*
X159703471Y-119053428D02*
X159877643Y-119140514D01*
X145646386Y-128444171D02*
X145559300Y-128618342D01*
X145559300Y-128618342D02*
X145472214Y-128705428D01*
X145472214Y-128705428D02*
X145298043Y-128792514D01*
X145298043Y-128792514D02*
X145210957Y-128792514D01*
X145210957Y-128792514D02*
X145036786Y-128705428D01*
X145036786Y-128705428D02*
X144949700Y-128618342D01*
X144949700Y-128618342D02*
X144862614Y-128444171D01*
X144862614Y-128444171D02*
X144862614Y-128095828D01*
X144862614Y-128095828D02*
X144949700Y-127921657D01*
X144949700Y-127921657D02*
X145036786Y-127834571D01*
X145036786Y-127834571D02*
X145210957Y-127747485D01*
X145210957Y-127747485D02*
X145298043Y-127747485D01*
X145298043Y-127747485D02*
X145472214Y-127834571D01*
X145472214Y-127834571D02*
X145559300Y-127921657D01*
X145559300Y-127921657D02*
X145646386Y-128095828D01*
X145646386Y-128095828D02*
X145646386Y-128444171D01*
X145646386Y-128444171D02*
X145733471Y-128618342D01*
X145733471Y-128618342D02*
X145820557Y-128705428D01*
X145820557Y-128705428D02*
X145994729Y-128792514D01*
X145994729Y-128792514D02*
X146343071Y-128792514D01*
X146343071Y-128792514D02*
X146517243Y-128705428D01*
X146517243Y-128705428D02*
X146604329Y-128618342D01*
X146604329Y-128618342D02*
X146691414Y-128444171D01*
X146691414Y-128444171D02*
X146691414Y-128095828D01*
X146691414Y-128095828D02*
X146604329Y-127921657D01*
X146604329Y-127921657D02*
X146517243Y-127834571D01*
X146517243Y-127834571D02*
X146343071Y-127747485D01*
X146343071Y-127747485D02*
X145994729Y-127747485D01*
X145994729Y-127747485D02*
X145820557Y-127834571D01*
X145820557Y-127834571D02*
X145733471Y-127921657D01*
X145733471Y-127921657D02*
X145646386Y-128095828D01*
X144862614Y-112848571D02*
X144862614Y-113719428D01*
X144862614Y-113719428D02*
X145733471Y-113806514D01*
X145733471Y-113806514D02*
X145646386Y-113719428D01*
X145646386Y-113719428D02*
X145559300Y-113545257D01*
X145559300Y-113545257D02*
X145559300Y-113109828D01*
X145559300Y-113109828D02*
X145646386Y-112935657D01*
X145646386Y-112935657D02*
X145733471Y-112848571D01*
X145733471Y-112848571D02*
X145907643Y-112761485D01*
X145907643Y-112761485D02*
X146343071Y-112761485D01*
X146343071Y-112761485D02*
X146517243Y-112848571D01*
X146517243Y-112848571D02*
X146604329Y-112935657D01*
X146604329Y-112935657D02*
X146691414Y-113109828D01*
X146691414Y-113109828D02*
X146691414Y-113545257D01*
X146691414Y-113545257D02*
X146604329Y-113719428D01*
X146604329Y-113719428D02*
X146517243Y-113806514D01*
X159489386Y-128444171D02*
X159402300Y-128618342D01*
X159402300Y-128618342D02*
X159315214Y-128705428D01*
X159315214Y-128705428D02*
X159141043Y-128792514D01*
X159141043Y-128792514D02*
X159053957Y-128792514D01*
X159053957Y-128792514D02*
X158879786Y-128705428D01*
X158879786Y-128705428D02*
X158792700Y-128618342D01*
X158792700Y-128618342D02*
X158705614Y-128444171D01*
X158705614Y-128444171D02*
X158705614Y-128095828D01*
X158705614Y-128095828D02*
X158792700Y-127921657D01*
X158792700Y-127921657D02*
X158879786Y-127834571D01*
X158879786Y-127834571D02*
X159053957Y-127747485D01*
X159053957Y-127747485D02*
X159141043Y-127747485D01*
X159141043Y-127747485D02*
X159315214Y-127834571D01*
X159315214Y-127834571D02*
X159402300Y-127921657D01*
X159402300Y-127921657D02*
X159489386Y-128095828D01*
X159489386Y-128095828D02*
X159489386Y-128444171D01*
X159489386Y-128444171D02*
X159576471Y-128618342D01*
X159576471Y-128618342D02*
X159663557Y-128705428D01*
X159663557Y-128705428D02*
X159837729Y-128792514D01*
X159837729Y-128792514D02*
X160186071Y-128792514D01*
X160186071Y-128792514D02*
X160360243Y-128705428D01*
X160360243Y-128705428D02*
X160447329Y-128618342D01*
X160447329Y-128618342D02*
X160534414Y-128444171D01*
X160534414Y-128444171D02*
X160534414Y-128095828D01*
X160534414Y-128095828D02*
X160447329Y-127921657D01*
X160447329Y-127921657D02*
X160360243Y-127834571D01*
X160360243Y-127834571D02*
X160186071Y-127747485D01*
X160186071Y-127747485D02*
X159837729Y-127747485D01*
X159837729Y-127747485D02*
X159663557Y-127834571D01*
X159663557Y-127834571D02*
X159576471Y-127921657D01*
X159576471Y-127921657D02*
X159489386Y-128095828D01*
X145036786Y-98185514D02*
X144949700Y-98098428D01*
X144949700Y-98098428D02*
X144862614Y-97924257D01*
X144862614Y-97924257D02*
X144862614Y-97488828D01*
X144862614Y-97488828D02*
X144949700Y-97314657D01*
X144949700Y-97314657D02*
X145036786Y-97227571D01*
X145036786Y-97227571D02*
X145210957Y-97140485D01*
X145210957Y-97140485D02*
X145385129Y-97140485D01*
X145385129Y-97140485D02*
X145646386Y-97227571D01*
X145646386Y-97227571D02*
X146691414Y-98272599D01*
X146691414Y-98272599D02*
X146691414Y-97140485D01*
X146564414Y-81973057D02*
X146564414Y-82843914D01*
X146564414Y-82843914D02*
X144735614Y-82843914D01*
X145867729Y-81363457D02*
X145867729Y-79970086D01*
X146564414Y-80666771D02*
X145171043Y-80666771D01*
X158832614Y-103733599D02*
X158832614Y-102601485D01*
X158832614Y-102601485D02*
X159529300Y-103211085D01*
X159529300Y-103211085D02*
X159529300Y-102949828D01*
X159529300Y-102949828D02*
X159616386Y-102775657D01*
X159616386Y-102775657D02*
X159703471Y-102688571D01*
X159703471Y-102688571D02*
X159877643Y-102601485D01*
X159877643Y-102601485D02*
X160313071Y-102601485D01*
X160313071Y-102601485D02*
X160487243Y-102688571D01*
X160487243Y-102688571D02*
X160574329Y-102775657D01*
X160574329Y-102775657D02*
X160661414Y-102949828D01*
X160661414Y-102949828D02*
X160661414Y-103472342D01*
X160661414Y-103472342D02*
X160574329Y-103646514D01*
X160574329Y-103646514D02*
X160487243Y-103733599D01*
D12*
X152593318Y-109455856D02*
X153500461Y-109455856D01*
X153500461Y-109455856D02*
X153681889Y-109516333D01*
X153681889Y-109516333D02*
X153802842Y-109637285D01*
X153802842Y-109637285D02*
X153863318Y-109818714D01*
X153863318Y-109818714D02*
X153863318Y-109939666D01*
X153863318Y-108185856D02*
X153863318Y-108911571D01*
X153863318Y-108548714D02*
X152593318Y-108548714D01*
X152593318Y-108548714D02*
X152774746Y-108669666D01*
X152774746Y-108669666D02*
X152895699Y-108790618D01*
X152895699Y-108790618D02*
X152956175Y-108911571D01*
X152714270Y-107702047D02*
X152653794Y-107641571D01*
X152653794Y-107641571D02*
X152593318Y-107520618D01*
X152593318Y-107520618D02*
X152593318Y-107218237D01*
X152593318Y-107218237D02*
X152653794Y-107097285D01*
X152653794Y-107097285D02*
X152714270Y-107036809D01*
X152714270Y-107036809D02*
X152835222Y-106976332D01*
X152835222Y-106976332D02*
X152956175Y-106976332D01*
X152956175Y-106976332D02*
X153137603Y-107036809D01*
X153137603Y-107036809D02*
X153863318Y-107762523D01*
X153863318Y-107762523D02*
X153863318Y-106976332D01*
X153016651Y-105887761D02*
X153863318Y-105887761D01*
X152532842Y-106190142D02*
X153439984Y-106492523D01*
X153439984Y-106492523D02*
X153439984Y-105706332D01*
D13*
X151076819Y-88749047D02*
X150600628Y-89082380D01*
X151076819Y-89320475D02*
X150076819Y-89320475D01*
X150076819Y-89320475D02*
X150076819Y-88939523D01*
X150076819Y-88939523D02*
X150124438Y-88844285D01*
X150124438Y-88844285D02*
X150172057Y-88796666D01*
X150172057Y-88796666D02*
X150267295Y-88749047D01*
X150267295Y-88749047D02*
X150410152Y-88749047D01*
X150410152Y-88749047D02*
X150505390Y-88796666D01*
X150505390Y-88796666D02*
X150553009Y-88844285D01*
X150553009Y-88844285D02*
X150600628Y-88939523D01*
X150600628Y-88939523D02*
X150600628Y-89320475D01*
X151076819Y-87796666D02*
X151076819Y-88368094D01*
X151076819Y-88082380D02*
X150076819Y-88082380D01*
X150076819Y-88082380D02*
X150219676Y-88177618D01*
X150219676Y-88177618D02*
X150314914Y-88272856D01*
X150314914Y-88272856D02*
X150362533Y-88368094D01*
X150076819Y-87177618D02*
X150076819Y-87082380D01*
X150076819Y-87082380D02*
X150124438Y-86987142D01*
X150124438Y-86987142D02*
X150172057Y-86939523D01*
X150172057Y-86939523D02*
X150267295Y-86891904D01*
X150267295Y-86891904D02*
X150457771Y-86844285D01*
X150457771Y-86844285D02*
X150695866Y-86844285D01*
X150695866Y-86844285D02*
X150886342Y-86891904D01*
X150886342Y-86891904D02*
X150981580Y-86939523D01*
X150981580Y-86939523D02*
X151029200Y-86987142D01*
X151029200Y-86987142D02*
X151076819Y-87082380D01*
X151076819Y-87082380D02*
X151076819Y-87177618D01*
X151076819Y-87177618D02*
X151029200Y-87272856D01*
X151029200Y-87272856D02*
X150981580Y-87320475D01*
X150981580Y-87320475D02*
X150886342Y-87368094D01*
X150886342Y-87368094D02*
X150695866Y-87415713D01*
X150695866Y-87415713D02*
X150457771Y-87415713D01*
X150457771Y-87415713D02*
X150267295Y-87368094D01*
X150267295Y-87368094D02*
X150172057Y-87320475D01*
X150172057Y-87320475D02*
X150124438Y-87272856D01*
X150124438Y-87272856D02*
X150076819Y-87177618D01*
X150410152Y-85987142D02*
X151076819Y-85987142D01*
X150029200Y-86225237D02*
X150743485Y-86463332D01*
X150743485Y-86463332D02*
X150743485Y-85844285D01*
D12*
X152593318Y-119615856D02*
X153500461Y-119615856D01*
X153500461Y-119615856D02*
X153681889Y-119676333D01*
X153681889Y-119676333D02*
X153802842Y-119797285D01*
X153802842Y-119797285D02*
X153863318Y-119978714D01*
X153863318Y-119978714D02*
X153863318Y-120099666D01*
X153863318Y-118345856D02*
X153863318Y-119071571D01*
X153863318Y-118708714D02*
X152593318Y-118708714D01*
X152593318Y-118708714D02*
X152774746Y-118829666D01*
X152774746Y-118829666D02*
X152895699Y-118950618D01*
X152895699Y-118950618D02*
X152956175Y-119071571D01*
X152714270Y-117862047D02*
X152653794Y-117801571D01*
X152653794Y-117801571D02*
X152593318Y-117680618D01*
X152593318Y-117680618D02*
X152593318Y-117378237D01*
X152593318Y-117378237D02*
X152653794Y-117257285D01*
X152653794Y-117257285D02*
X152714270Y-117196809D01*
X152714270Y-117196809D02*
X152835222Y-117136332D01*
X152835222Y-117136332D02*
X152956175Y-117136332D01*
X152956175Y-117136332D02*
X153137603Y-117196809D01*
X153137603Y-117196809D02*
X153863318Y-117922523D01*
X153863318Y-117922523D02*
X153863318Y-117136332D01*
X152714270Y-116652523D02*
X152653794Y-116592047D01*
X152653794Y-116592047D02*
X152593318Y-116471094D01*
X152593318Y-116471094D02*
X152593318Y-116168713D01*
X152593318Y-116168713D02*
X152653794Y-116047761D01*
X152653794Y-116047761D02*
X152714270Y-115987285D01*
X152714270Y-115987285D02*
X152835222Y-115926808D01*
X152835222Y-115926808D02*
X152956175Y-115926808D01*
X152956175Y-115926808D02*
X153137603Y-115987285D01*
X153137603Y-115987285D02*
X153863318Y-116712999D01*
X153863318Y-116712999D02*
X153863318Y-115926808D01*
D13*
X150822819Y-124817047D02*
X150346628Y-125150380D01*
X150822819Y-125388475D02*
X149822819Y-125388475D01*
X149822819Y-125388475D02*
X149822819Y-125007523D01*
X149822819Y-125007523D02*
X149870438Y-124912285D01*
X149870438Y-124912285D02*
X149918057Y-124864666D01*
X149918057Y-124864666D02*
X150013295Y-124817047D01*
X150013295Y-124817047D02*
X150156152Y-124817047D01*
X150156152Y-124817047D02*
X150251390Y-124864666D01*
X150251390Y-124864666D02*
X150299009Y-124912285D01*
X150299009Y-124912285D02*
X150346628Y-125007523D01*
X150346628Y-125007523D02*
X150346628Y-125388475D01*
X150822819Y-123864666D02*
X150822819Y-124436094D01*
X150822819Y-124150380D02*
X149822819Y-124150380D01*
X149822819Y-124150380D02*
X149965676Y-124245618D01*
X149965676Y-124245618D02*
X150060914Y-124340856D01*
X150060914Y-124340856D02*
X150108533Y-124436094D01*
X149822819Y-123245618D02*
X149822819Y-123150380D01*
X149822819Y-123150380D02*
X149870438Y-123055142D01*
X149870438Y-123055142D02*
X149918057Y-123007523D01*
X149918057Y-123007523D02*
X150013295Y-122959904D01*
X150013295Y-122959904D02*
X150203771Y-122912285D01*
X150203771Y-122912285D02*
X150441866Y-122912285D01*
X150441866Y-122912285D02*
X150632342Y-122959904D01*
X150632342Y-122959904D02*
X150727580Y-123007523D01*
X150727580Y-123007523D02*
X150775200Y-123055142D01*
X150775200Y-123055142D02*
X150822819Y-123150380D01*
X150822819Y-123150380D02*
X150822819Y-123245618D01*
X150822819Y-123245618D02*
X150775200Y-123340856D01*
X150775200Y-123340856D02*
X150727580Y-123388475D01*
X150727580Y-123388475D02*
X150632342Y-123436094D01*
X150632342Y-123436094D02*
X150441866Y-123483713D01*
X150441866Y-123483713D02*
X150203771Y-123483713D01*
X150203771Y-123483713D02*
X150013295Y-123436094D01*
X150013295Y-123436094D02*
X149918057Y-123388475D01*
X149918057Y-123388475D02*
X149870438Y-123340856D01*
X149870438Y-123340856D02*
X149822819Y-123245618D01*
X150822819Y-121959904D02*
X150822819Y-122531332D01*
X150822819Y-122245618D02*
X149822819Y-122245618D01*
X149822819Y-122245618D02*
X149965676Y-122340856D01*
X149965676Y-122340856D02*
X150060914Y-122436094D01*
X150060914Y-122436094D02*
X150108533Y-122531332D01*
X151876285Y-135217819D02*
X151876285Y-135932104D01*
X151876285Y-135932104D02*
X151828666Y-136074961D01*
X151828666Y-136074961D02*
X151733428Y-136170200D01*
X151733428Y-136170200D02*
X151590571Y-136217819D01*
X151590571Y-136217819D02*
X151495333Y-136217819D01*
X152876285Y-136217819D02*
X152304857Y-136217819D01*
X152590571Y-136217819D02*
X152590571Y-135217819D01*
X152590571Y-135217819D02*
X152495333Y-135360676D01*
X152495333Y-135360676D02*
X152400095Y-135455914D01*
X152400095Y-135455914D02*
X152304857Y-135503533D01*
X153257238Y-135313057D02*
X153304857Y-135265438D01*
X153304857Y-135265438D02*
X153400095Y-135217819D01*
X153400095Y-135217819D02*
X153638190Y-135217819D01*
X153638190Y-135217819D02*
X153733428Y-135265438D01*
X153733428Y-135265438D02*
X153781047Y-135313057D01*
X153781047Y-135313057D02*
X153828666Y-135408295D01*
X153828666Y-135408295D02*
X153828666Y-135503533D01*
X153828666Y-135503533D02*
X153781047Y-135646390D01*
X153781047Y-135646390D02*
X153209619Y-136217819D01*
X153209619Y-136217819D02*
X153828666Y-136217819D01*
X154685809Y-135217819D02*
X154495333Y-135217819D01*
X154495333Y-135217819D02*
X154400095Y-135265438D01*
X154400095Y-135265438D02*
X154352476Y-135313057D01*
X154352476Y-135313057D02*
X154257238Y-135455914D01*
X154257238Y-135455914D02*
X154209619Y-135646390D01*
X154209619Y-135646390D02*
X154209619Y-136027342D01*
X154209619Y-136027342D02*
X154257238Y-136122580D01*
X154257238Y-136122580D02*
X154304857Y-136170200D01*
X154304857Y-136170200D02*
X154400095Y-136217819D01*
X154400095Y-136217819D02*
X154590571Y-136217819D01*
X154590571Y-136217819D02*
X154685809Y-136170200D01*
X154685809Y-136170200D02*
X154733428Y-136122580D01*
X154733428Y-136122580D02*
X154781047Y-136027342D01*
X154781047Y-136027342D02*
X154781047Y-135789247D01*
X154781047Y-135789247D02*
X154733428Y-135694009D01*
X154733428Y-135694009D02*
X154685809Y-135646390D01*
X154685809Y-135646390D02*
X154590571Y-135598771D01*
X154590571Y-135598771D02*
X154400095Y-135598771D01*
X154400095Y-135598771D02*
X154304857Y-135646390D01*
X154304857Y-135646390D02*
X154257238Y-135694009D01*
X154257238Y-135694009D02*
X154209619Y-135789247D01*
X150949819Y-115038047D02*
X150473628Y-115371380D01*
X150949819Y-115609475D02*
X149949819Y-115609475D01*
X149949819Y-115609475D02*
X149949819Y-115228523D01*
X149949819Y-115228523D02*
X149997438Y-115133285D01*
X149997438Y-115133285D02*
X150045057Y-115085666D01*
X150045057Y-115085666D02*
X150140295Y-115038047D01*
X150140295Y-115038047D02*
X150283152Y-115038047D01*
X150283152Y-115038047D02*
X150378390Y-115085666D01*
X150378390Y-115085666D02*
X150426009Y-115133285D01*
X150426009Y-115133285D02*
X150473628Y-115228523D01*
X150473628Y-115228523D02*
X150473628Y-115609475D01*
X150949819Y-114085666D02*
X150949819Y-114657094D01*
X150949819Y-114371380D02*
X149949819Y-114371380D01*
X149949819Y-114371380D02*
X150092676Y-114466618D01*
X150092676Y-114466618D02*
X150187914Y-114561856D01*
X150187914Y-114561856D02*
X150235533Y-114657094D01*
X149949819Y-113466618D02*
X149949819Y-113371380D01*
X149949819Y-113371380D02*
X149997438Y-113276142D01*
X149997438Y-113276142D02*
X150045057Y-113228523D01*
X150045057Y-113228523D02*
X150140295Y-113180904D01*
X150140295Y-113180904D02*
X150330771Y-113133285D01*
X150330771Y-113133285D02*
X150568866Y-113133285D01*
X150568866Y-113133285D02*
X150759342Y-113180904D01*
X150759342Y-113180904D02*
X150854580Y-113228523D01*
X150854580Y-113228523D02*
X150902200Y-113276142D01*
X150902200Y-113276142D02*
X150949819Y-113371380D01*
X150949819Y-113371380D02*
X150949819Y-113466618D01*
X150949819Y-113466618D02*
X150902200Y-113561856D01*
X150902200Y-113561856D02*
X150854580Y-113609475D01*
X150854580Y-113609475D02*
X150759342Y-113657094D01*
X150759342Y-113657094D02*
X150568866Y-113704713D01*
X150568866Y-113704713D02*
X150330771Y-113704713D01*
X150330771Y-113704713D02*
X150140295Y-113657094D01*
X150140295Y-113657094D02*
X150045057Y-113609475D01*
X150045057Y-113609475D02*
X149997438Y-113561856D01*
X149997438Y-113561856D02*
X149949819Y-113466618D01*
X150045057Y-112752332D02*
X149997438Y-112704713D01*
X149997438Y-112704713D02*
X149949819Y-112609475D01*
X149949819Y-112609475D02*
X149949819Y-112371380D01*
X149949819Y-112371380D02*
X149997438Y-112276142D01*
X149997438Y-112276142D02*
X150045057Y-112228523D01*
X150045057Y-112228523D02*
X150140295Y-112180904D01*
X150140295Y-112180904D02*
X150235533Y-112180904D01*
X150235533Y-112180904D02*
X150378390Y-112228523D01*
X150378390Y-112228523D02*
X150949819Y-112799951D01*
X150949819Y-112799951D02*
X150949819Y-112180904D01*
X150949819Y-98401047D02*
X150473628Y-98734380D01*
X150949819Y-98972475D02*
X149949819Y-98972475D01*
X149949819Y-98972475D02*
X149949819Y-98591523D01*
X149949819Y-98591523D02*
X149997438Y-98496285D01*
X149997438Y-98496285D02*
X150045057Y-98448666D01*
X150045057Y-98448666D02*
X150140295Y-98401047D01*
X150140295Y-98401047D02*
X150283152Y-98401047D01*
X150283152Y-98401047D02*
X150378390Y-98448666D01*
X150378390Y-98448666D02*
X150426009Y-98496285D01*
X150426009Y-98496285D02*
X150473628Y-98591523D01*
X150473628Y-98591523D02*
X150473628Y-98972475D01*
X150949819Y-97448666D02*
X150949819Y-98020094D01*
X150949819Y-97734380D02*
X149949819Y-97734380D01*
X149949819Y-97734380D02*
X150092676Y-97829618D01*
X150092676Y-97829618D02*
X150187914Y-97924856D01*
X150187914Y-97924856D02*
X150235533Y-98020094D01*
X149949819Y-96829618D02*
X149949819Y-96734380D01*
X149949819Y-96734380D02*
X149997438Y-96639142D01*
X149997438Y-96639142D02*
X150045057Y-96591523D01*
X150045057Y-96591523D02*
X150140295Y-96543904D01*
X150140295Y-96543904D02*
X150330771Y-96496285D01*
X150330771Y-96496285D02*
X150568866Y-96496285D01*
X150568866Y-96496285D02*
X150759342Y-96543904D01*
X150759342Y-96543904D02*
X150854580Y-96591523D01*
X150854580Y-96591523D02*
X150902200Y-96639142D01*
X150902200Y-96639142D02*
X150949819Y-96734380D01*
X150949819Y-96734380D02*
X150949819Y-96829618D01*
X150949819Y-96829618D02*
X150902200Y-96924856D01*
X150902200Y-96924856D02*
X150854580Y-96972475D01*
X150854580Y-96972475D02*
X150759342Y-97020094D01*
X150759342Y-97020094D02*
X150568866Y-97067713D01*
X150568866Y-97067713D02*
X150330771Y-97067713D01*
X150330771Y-97067713D02*
X150140295Y-97020094D01*
X150140295Y-97020094D02*
X150045057Y-96972475D01*
X150045057Y-96972475D02*
X149997438Y-96924856D01*
X149997438Y-96924856D02*
X149949819Y-96829618D01*
X149949819Y-96162951D02*
X149949819Y-95543904D01*
X149949819Y-95543904D02*
X150330771Y-95877237D01*
X150330771Y-95877237D02*
X150330771Y-95734380D01*
X150330771Y-95734380D02*
X150378390Y-95639142D01*
X150378390Y-95639142D02*
X150426009Y-95591523D01*
X150426009Y-95591523D02*
X150521247Y-95543904D01*
X150521247Y-95543904D02*
X150759342Y-95543904D01*
X150759342Y-95543904D02*
X150854580Y-95591523D01*
X150854580Y-95591523D02*
X150902200Y-95639142D01*
X150902200Y-95639142D02*
X150949819Y-95734380D01*
X150949819Y-95734380D02*
X150949819Y-96020094D01*
X150949819Y-96020094D02*
X150902200Y-96115332D01*
X150902200Y-96115332D02*
X150854580Y-96162951D01*
D12*
X152593318Y-99295856D02*
X153500461Y-99295856D01*
X153500461Y-99295856D02*
X153681889Y-99356333D01*
X153681889Y-99356333D02*
X153802842Y-99477285D01*
X153802842Y-99477285D02*
X153863318Y-99658714D01*
X153863318Y-99658714D02*
X153863318Y-99779666D01*
X153863318Y-98025856D02*
X153863318Y-98751571D01*
X153863318Y-98388714D02*
X152593318Y-98388714D01*
X152593318Y-98388714D02*
X152774746Y-98509666D01*
X152774746Y-98509666D02*
X152895699Y-98630618D01*
X152895699Y-98630618D02*
X152956175Y-98751571D01*
X152714270Y-97542047D02*
X152653794Y-97481571D01*
X152653794Y-97481571D02*
X152593318Y-97360618D01*
X152593318Y-97360618D02*
X152593318Y-97058237D01*
X152593318Y-97058237D02*
X152653794Y-96937285D01*
X152653794Y-96937285D02*
X152714270Y-96876809D01*
X152714270Y-96876809D02*
X152835222Y-96816332D01*
X152835222Y-96816332D02*
X152956175Y-96816332D01*
X152956175Y-96816332D02*
X153137603Y-96876809D01*
X153137603Y-96876809D02*
X153863318Y-97602523D01*
X153863318Y-97602523D02*
X153863318Y-96816332D01*
X152593318Y-95667285D02*
X152593318Y-96272047D01*
X152593318Y-96272047D02*
X153198080Y-96332523D01*
X153198080Y-96332523D02*
X153137603Y-96272047D01*
X153137603Y-96272047D02*
X153077127Y-96151094D01*
X153077127Y-96151094D02*
X153077127Y-95848713D01*
X153077127Y-95848713D02*
X153137603Y-95727761D01*
X153137603Y-95727761D02*
X153198080Y-95667285D01*
X153198080Y-95667285D02*
X153319032Y-95606808D01*
X153319032Y-95606808D02*
X153621413Y-95606808D01*
X153621413Y-95606808D02*
X153742365Y-95667285D01*
X153742365Y-95667285D02*
X153802842Y-95727761D01*
X153802842Y-95727761D02*
X153863318Y-95848713D01*
X153863318Y-95848713D02*
X153863318Y-96151094D01*
X153863318Y-96151094D02*
X153802842Y-96272047D01*
X153802842Y-96272047D02*
X153742365Y-96332523D01*
X152593318Y-89135856D02*
X153500461Y-89135856D01*
X153500461Y-89135856D02*
X153681889Y-89196333D01*
X153681889Y-89196333D02*
X153802842Y-89317285D01*
X153802842Y-89317285D02*
X153863318Y-89498714D01*
X153863318Y-89498714D02*
X153863318Y-89619666D01*
X153863318Y-87865856D02*
X153863318Y-88591571D01*
X153863318Y-88228714D02*
X152593318Y-88228714D01*
X152593318Y-88228714D02*
X152774746Y-88349666D01*
X152774746Y-88349666D02*
X152895699Y-88470618D01*
X152895699Y-88470618D02*
X152956175Y-88591571D01*
X152714270Y-87382047D02*
X152653794Y-87321571D01*
X152653794Y-87321571D02*
X152593318Y-87200618D01*
X152593318Y-87200618D02*
X152593318Y-86898237D01*
X152593318Y-86898237D02*
X152653794Y-86777285D01*
X152653794Y-86777285D02*
X152714270Y-86716809D01*
X152714270Y-86716809D02*
X152835222Y-86656332D01*
X152835222Y-86656332D02*
X152956175Y-86656332D01*
X152956175Y-86656332D02*
X153137603Y-86716809D01*
X153137603Y-86716809D02*
X153863318Y-87442523D01*
X153863318Y-87442523D02*
X153863318Y-86656332D01*
X152593318Y-86232999D02*
X152593318Y-85446808D01*
X152593318Y-85446808D02*
X153077127Y-85870142D01*
X153077127Y-85870142D02*
X153077127Y-85688713D01*
X153077127Y-85688713D02*
X153137603Y-85567761D01*
X153137603Y-85567761D02*
X153198080Y-85507285D01*
X153198080Y-85507285D02*
X153319032Y-85446808D01*
X153319032Y-85446808D02*
X153621413Y-85446808D01*
X153621413Y-85446808D02*
X153742365Y-85507285D01*
X153742365Y-85507285D02*
X153802842Y-85567761D01*
X153802842Y-85567761D02*
X153863318Y-85688713D01*
X153863318Y-85688713D02*
X153863318Y-86051570D01*
X153863318Y-86051570D02*
X153802842Y-86172523D01*
X153802842Y-86172523D02*
X153742365Y-86232999D01*
X152593318Y-129775856D02*
X153500461Y-129775856D01*
X153500461Y-129775856D02*
X153681889Y-129836333D01*
X153681889Y-129836333D02*
X153802842Y-129957285D01*
X153802842Y-129957285D02*
X153863318Y-130138714D01*
X153863318Y-130138714D02*
X153863318Y-130259666D01*
X153863318Y-128505856D02*
X153863318Y-129231571D01*
X153863318Y-128868714D02*
X152593318Y-128868714D01*
X152593318Y-128868714D02*
X152774746Y-128989666D01*
X152774746Y-128989666D02*
X152895699Y-129110618D01*
X152895699Y-129110618D02*
X152956175Y-129231571D01*
X153863318Y-127296332D02*
X153863318Y-128022047D01*
X153863318Y-127659190D02*
X152593318Y-127659190D01*
X152593318Y-127659190D02*
X152774746Y-127780142D01*
X152774746Y-127780142D02*
X152895699Y-127901094D01*
X152895699Y-127901094D02*
X152956175Y-128022047D01*
X153137603Y-126570618D02*
X153077127Y-126691570D01*
X153077127Y-126691570D02*
X153016651Y-126752047D01*
X153016651Y-126752047D02*
X152895699Y-126812523D01*
X152895699Y-126812523D02*
X152835222Y-126812523D01*
X152835222Y-126812523D02*
X152714270Y-126752047D01*
X152714270Y-126752047D02*
X152653794Y-126691570D01*
X152653794Y-126691570D02*
X152593318Y-126570618D01*
X152593318Y-126570618D02*
X152593318Y-126328713D01*
X152593318Y-126328713D02*
X152653794Y-126207761D01*
X152653794Y-126207761D02*
X152714270Y-126147285D01*
X152714270Y-126147285D02*
X152835222Y-126086808D01*
X152835222Y-126086808D02*
X152895699Y-126086808D01*
X152895699Y-126086808D02*
X153016651Y-126147285D01*
X153016651Y-126147285D02*
X153077127Y-126207761D01*
X153077127Y-126207761D02*
X153137603Y-126328713D01*
X153137603Y-126328713D02*
X153137603Y-126570618D01*
X153137603Y-126570618D02*
X153198080Y-126691570D01*
X153198080Y-126691570D02*
X153258556Y-126752047D01*
X153258556Y-126752047D02*
X153379508Y-126812523D01*
X153379508Y-126812523D02*
X153621413Y-126812523D01*
X153621413Y-126812523D02*
X153742365Y-126752047D01*
X153742365Y-126752047D02*
X153802842Y-126691570D01*
X153802842Y-126691570D02*
X153863318Y-126570618D01*
X153863318Y-126570618D02*
X153863318Y-126328713D01*
X153863318Y-126328713D02*
X153802842Y-126207761D01*
X153802842Y-126207761D02*
X153742365Y-126147285D01*
X153742365Y-126147285D02*
X153621413Y-126086808D01*
X153621413Y-126086808D02*
X153379508Y-126086808D01*
X153379508Y-126086808D02*
X153258556Y-126147285D01*
X153258556Y-126147285D02*
X153198080Y-126207761D01*
X153198080Y-126207761D02*
X153137603Y-126328713D01*
D14*
%TO.C,J124*%
X149214000Y-110363000D02*
X149214000Y-100203000D01*
X157364000Y-110363000D02*
X149214000Y-110363000D01*
X149214000Y-100203000D02*
X157364000Y-100203000D01*
X157364000Y-100203000D02*
X157364000Y-110363000D01*
D15*
X153339000Y-111173000D02*
G75*
G03*
X153239000Y-111173000I-50000J0D01*
G01*
X153239000Y-111173000D02*
G75*
G03*
X153339000Y-111173000I50000J0D01*
G01*
D16*
%TO.C,R104*%
X145669000Y-86510000D02*
X145669000Y-89120000D01*
X147039000Y-85140000D02*
G75*
G03*
X144299000Y-85140000I-1370000J0D01*
G01*
X144299000Y-85140000D02*
G75*
G03*
X147039000Y-85140000I1370000J0D01*
G01*
D14*
%TO.C,J122*%
X149214000Y-120523000D02*
X149214000Y-110363000D01*
X157364000Y-120523000D02*
X149214000Y-120523000D01*
X149214000Y-110363000D02*
X157364000Y-110363000D01*
X157364000Y-110363000D02*
X157364000Y-120523000D01*
D15*
X153339000Y-121333000D02*
G75*
G03*
X153239000Y-121333000I-50000J0D01*
G01*
X153239000Y-121333000D02*
G75*
G03*
X153339000Y-121333000I50000J0D01*
G01*
D16*
%TO.C,R101*%
X145669000Y-124360000D02*
X145669000Y-121750000D01*
X147039000Y-125730000D02*
G75*
G03*
X144299000Y-125730000I-1370000J0D01*
G01*
X144299000Y-125730000D02*
G75*
G03*
X147039000Y-125730000I1370000J0D01*
G01*
D17*
%TO.C,J126*%
X147955000Y-132756001D02*
X147955000Y-138801201D01*
X147955000Y-138801201D02*
X158369000Y-138801201D01*
X158369000Y-132756001D02*
X147955000Y-132756001D01*
X158369000Y-138801201D02*
X158369000Y-132756001D01*
D18*
X146558000Y-135763000D02*
G75*
G03*
X145796000Y-135763000I-381000J0D01*
G01*
X145796000Y-135763000D02*
G75*
G03*
X146558000Y-135763000I381000J0D01*
G01*
D16*
%TO.C,R102*%
X145669000Y-111987000D02*
X145669000Y-114597000D01*
X147039000Y-110617000D02*
G75*
G03*
X144299000Y-110617000I-1370000J0D01*
G01*
X144299000Y-110617000D02*
G75*
G03*
X147039000Y-110617000I1370000J0D01*
G01*
%TO.C,R103*%
X145669000Y-96747000D02*
X145669000Y-99357000D01*
X147039000Y-95377000D02*
G75*
G03*
X144299000Y-95377000I-1370000J0D01*
G01*
X144299000Y-95377000D02*
G75*
G03*
X147039000Y-95377000I1370000J0D01*
G01*
D14*
%TO.C,J125*%
X149214000Y-100203000D02*
X149214000Y-90043000D01*
X157364000Y-100203000D02*
X149214000Y-100203000D01*
X149214000Y-90043000D02*
X157364000Y-90043000D01*
X157364000Y-90043000D02*
X157364000Y-100203000D01*
D15*
X153339000Y-101013000D02*
G75*
G03*
X153239000Y-101013000I-50000J0D01*
G01*
X153239000Y-101013000D02*
G75*
G03*
X153339000Y-101013000I50000J0D01*
G01*
D14*
%TO.C,J123*%
X149214000Y-90043000D02*
X149214000Y-79883000D01*
X157364000Y-90043000D02*
X149214000Y-90043000D01*
X149214000Y-79883000D02*
X157364000Y-79883000D01*
X157364000Y-79883000D02*
X157364000Y-90043000D01*
D15*
X153339000Y-90853000D02*
G75*
G03*
X153239000Y-90853000I-50000J0D01*
G01*
X153239000Y-90853000D02*
G75*
G03*
X153339000Y-90853000I50000J0D01*
G01*
D14*
%TO.C,J118*%
X149214000Y-130683000D02*
X149214000Y-120523000D01*
X157364000Y-130683000D02*
X149214000Y-130683000D01*
X149214000Y-120523000D02*
X157364000Y-120523000D01*
X157364000Y-120523000D02*
X157364000Y-130683000D01*
D15*
X153339000Y-131493000D02*
G75*
G03*
X153239000Y-131493000I-50000J0D01*
G01*
X153239000Y-131493000D02*
G75*
G03*
X153339000Y-131493000I50000J0D01*
G01*
%TD*%
M02*
