%TF.GenerationSoftware,KiCad,Pcbnew,7.0.10*%
%TF.CreationDate,2024-07-21T08:04:53-04:00*%
%TF.ProjectId,12.1.1 - PLC Connector,31322e31-2e31-4202-9d20-504c4320436f,rev?*%
%TF.SameCoordinates,Original*%
%TF.FileFunction,Legend,Bot*%
%TF.FilePolarity,Positive*%
%FSLAX46Y46*%
G04 Gerber Fmt 4.6, Leading zero omitted, Abs format (unit mm)*
G04 Created by KiCad (PCBNEW 7.0.10) date 2024-07-21 08:04:53*
%MOMM*%
%LPD*%
G01*
G04 APERTURE LIST*
%ADD10C,0.000000*%
%ADD11C,0.004960*%
%ADD12C,0.150000*%
%ADD13C,0.457200*%
%ADD14C,0.381000*%
%ADD15C,0.310000*%
%ADD16C,0.508000*%
G04 APERTURE END LIST*
D10*
G36*
X150964016Y-120203983D02*
G01*
X150968057Y-120204504D01*
X150972040Y-120205203D01*
X150975960Y-120206075D01*
X150979814Y-120207116D01*
X150983598Y-120208322D01*
X150987306Y-120209689D01*
X150990936Y-120211214D01*
X150994482Y-120212891D01*
X150997941Y-120214717D01*
X151001309Y-120216689D01*
X151004580Y-120218801D01*
X151007752Y-120221050D01*
X151010820Y-120223432D01*
X151013779Y-120225943D01*
X151016626Y-120228578D01*
X151019356Y-120231334D01*
X151021965Y-120234207D01*
X151024450Y-120237192D01*
X151026805Y-120240286D01*
X151029026Y-120243485D01*
X151031111Y-120246784D01*
X151033053Y-120250179D01*
X151034849Y-120253667D01*
X151036495Y-120257242D01*
X151037987Y-120260903D01*
X151039321Y-120264643D01*
X151040491Y-120268460D01*
X151041495Y-120272349D01*
X151042328Y-120276306D01*
X151042986Y-120280327D01*
X151043464Y-120284407D01*
X151043919Y-120286712D01*
X151044308Y-120289027D01*
X151044631Y-120291351D01*
X151044888Y-120293683D01*
X151045078Y-120296022D01*
X151045202Y-120298365D01*
X151045259Y-120300712D01*
X151045249Y-120303061D01*
X151045249Y-120305839D01*
X151045238Y-120307637D01*
X151045179Y-120309434D01*
X151045075Y-120311228D01*
X151044924Y-120313018D01*
X151044727Y-120314804D01*
X151044484Y-120316585D01*
X151044195Y-120318359D01*
X151043860Y-120320126D01*
X151043501Y-120321526D01*
X151043158Y-120322931D01*
X151042834Y-120324339D01*
X151042527Y-120325752D01*
X151042238Y-120327168D01*
X151041967Y-120328588D01*
X151041714Y-120330011D01*
X151041479Y-120331438D01*
X151041459Y-120331989D01*
X151041400Y-120332528D01*
X151041308Y-120333056D01*
X151041185Y-120333574D01*
X151041035Y-120334084D01*
X151040862Y-120334587D01*
X151040670Y-120335085D01*
X151040462Y-120335580D01*
X151040016Y-120336563D01*
X151039554Y-120337549D01*
X151039105Y-120338548D01*
X151038896Y-120339057D01*
X151038701Y-120339573D01*
X151038411Y-120340558D01*
X151038090Y-120341532D01*
X151037738Y-120342495D01*
X151037356Y-120343446D01*
X151036943Y-120344384D01*
X151036500Y-120345308D01*
X151036028Y-120346219D01*
X151035526Y-120347114D01*
X151034353Y-120349116D01*
X151033213Y-120351108D01*
X151032100Y-120353100D01*
X151031011Y-120355101D01*
X151029941Y-120357121D01*
X151028884Y-120359169D01*
X151027837Y-120361255D01*
X151026795Y-120363386D01*
X151026368Y-120364110D01*
X151025929Y-120364826D01*
X151025477Y-120365534D01*
X151025011Y-120366233D01*
X151024533Y-120366924D01*
X151024043Y-120367606D01*
X151023540Y-120368279D01*
X151023024Y-120368942D01*
X151021791Y-120370593D01*
X151020526Y-120372220D01*
X151019231Y-120373822D01*
X151017906Y-120375398D01*
X151016550Y-120376949D01*
X151015165Y-120378474D01*
X151013751Y-120379972D01*
X151012309Y-120381444D01*
X151013846Y-120380101D01*
X151015343Y-120378714D01*
X151016799Y-120377285D01*
X151018212Y-120375815D01*
X151019582Y-120374304D01*
X151020907Y-120372754D01*
X151022187Y-120371165D01*
X151023421Y-120369538D01*
X151008511Y-120400501D01*
X150994554Y-120431846D01*
X150981553Y-120463551D01*
X150969515Y-120495594D01*
X150958445Y-120527952D01*
X150948347Y-120560603D01*
X150939227Y-120593525D01*
X150931089Y-120626697D01*
X150923939Y-120660095D01*
X150917783Y-120693697D01*
X150912624Y-120727483D01*
X150908468Y-120761429D01*
X150905320Y-120795513D01*
X150903186Y-120829713D01*
X150902070Y-120864007D01*
X150901977Y-120898373D01*
X150902088Y-120933477D01*
X150903269Y-120968504D01*
X150905513Y-121003430D01*
X150908816Y-121038232D01*
X150913172Y-121072885D01*
X150918575Y-121107366D01*
X150925019Y-121141652D01*
X150932500Y-121175719D01*
X150941011Y-121209543D01*
X150950548Y-121243100D01*
X150961103Y-121276368D01*
X150972673Y-121309322D01*
X150985250Y-121341938D01*
X150998831Y-121374194D01*
X151013408Y-121406065D01*
X151028977Y-121437528D01*
X151029355Y-121438013D01*
X151029722Y-121438505D01*
X151030079Y-121439004D01*
X151030426Y-121439511D01*
X151030762Y-121440023D01*
X151031088Y-121440543D01*
X151031402Y-121441069D01*
X151031706Y-121441601D01*
X151032000Y-121442139D01*
X151032282Y-121442683D01*
X151032553Y-121443232D01*
X151032813Y-121443788D01*
X151033062Y-121444348D01*
X151033299Y-121444914D01*
X151033525Y-121445485D01*
X151033740Y-121446061D01*
X151035136Y-121448928D01*
X151036445Y-121451830D01*
X151037665Y-121454766D01*
X151038796Y-121457734D01*
X151039837Y-121460732D01*
X151040788Y-121463757D01*
X151041649Y-121466807D01*
X151042420Y-121469881D01*
X151043098Y-121472977D01*
X151043685Y-121476092D01*
X151044179Y-121479224D01*
X151044581Y-121482372D01*
X151044889Y-121485533D01*
X151045104Y-121488705D01*
X151045224Y-121491887D01*
X151045249Y-121495075D01*
X151045140Y-121500122D01*
X151044817Y-121505101D01*
X151044284Y-121510007D01*
X151043547Y-121514832D01*
X151042611Y-121519572D01*
X151041482Y-121524220D01*
X151040164Y-121528770D01*
X151038664Y-121533215D01*
X151036985Y-121537551D01*
X151035134Y-121541770D01*
X151033115Y-121545867D01*
X151030934Y-121549836D01*
X151028596Y-121553670D01*
X151026106Y-121557364D01*
X151023470Y-121560911D01*
X151020693Y-121564305D01*
X151017779Y-121567541D01*
X151014735Y-121570612D01*
X151011565Y-121573512D01*
X151008275Y-121576235D01*
X151004869Y-121578775D01*
X151001354Y-121581126D01*
X150997734Y-121583282D01*
X150994015Y-121585237D01*
X150990202Y-121586985D01*
X150986299Y-121588519D01*
X150982313Y-121589834D01*
X150978249Y-121590923D01*
X150974111Y-121591781D01*
X150969905Y-121592401D01*
X150965636Y-121592778D01*
X150961310Y-121592905D01*
X150958681Y-121592858D01*
X150956061Y-121592719D01*
X150953451Y-121592487D01*
X150950856Y-121592164D01*
X150948276Y-121591750D01*
X150945715Y-121591246D01*
X150943175Y-121590653D01*
X150940657Y-121589971D01*
X150938165Y-121589201D01*
X150935701Y-121588343D01*
X150933267Y-121587399D01*
X150930865Y-121586369D01*
X150928499Y-121585253D01*
X150926169Y-121584053D01*
X150923879Y-121582768D01*
X150921631Y-121581401D01*
X150921623Y-121581395D01*
X150917455Y-121578084D01*
X150913288Y-121574698D01*
X150909121Y-121571238D01*
X150904954Y-121567703D01*
X150869161Y-121535748D01*
X150835347Y-121502067D01*
X150803556Y-121466752D01*
X150773831Y-121429900D01*
X150746218Y-121391604D01*
X150720759Y-121351958D01*
X150697499Y-121311056D01*
X150676483Y-121268993D01*
X150657752Y-121225863D01*
X150641353Y-121181761D01*
X150627328Y-121136780D01*
X150615723Y-121091015D01*
X150606580Y-121044561D01*
X150599943Y-120997510D01*
X150595857Y-120949959D01*
X150594366Y-120902000D01*
X150595501Y-120854032D01*
X150599232Y-120806451D01*
X150605519Y-120759353D01*
X150614316Y-120712831D01*
X150625581Y-120666981D01*
X150639270Y-120621897D01*
X150655341Y-120577674D01*
X150673750Y-120534406D01*
X150694453Y-120492188D01*
X150717408Y-120451115D01*
X150742571Y-120411281D01*
X150769899Y-120372780D01*
X150799348Y-120335707D01*
X150830876Y-120300157D01*
X150864438Y-120266225D01*
X150899993Y-120234005D01*
X150906014Y-120229062D01*
X150912147Y-120224083D01*
X150918355Y-120219103D01*
X150924599Y-120214161D01*
X150924716Y-120214047D01*
X150924836Y-120213936D01*
X150924959Y-120213829D01*
X150925085Y-120213725D01*
X150925213Y-120213625D01*
X150925345Y-120213529D01*
X150925478Y-120213436D01*
X150925614Y-120213346D01*
X150925753Y-120213261D01*
X150925893Y-120213179D01*
X150926036Y-120213101D01*
X150926181Y-120213028D01*
X150926329Y-120212958D01*
X150926478Y-120212892D01*
X150926629Y-120212830D01*
X150926782Y-120212772D01*
X150928716Y-120211781D01*
X150930673Y-120210845D01*
X150932653Y-120209964D01*
X150934654Y-120209138D01*
X150936676Y-120208368D01*
X150938717Y-120207653D01*
X150940776Y-120206994D01*
X150942852Y-120206392D01*
X150944943Y-120205847D01*
X150947049Y-120205358D01*
X150949168Y-120204927D01*
X150951299Y-120204554D01*
X150953441Y-120204238D01*
X150955593Y-120203981D01*
X150957753Y-120203783D01*
X150959921Y-120203643D01*
X150964016Y-120203983D01*
G37*
G36*
X150315720Y-120074779D02*
G01*
X150319963Y-120075136D01*
X150324153Y-120075724D01*
X150328284Y-120076539D01*
X150332353Y-120077575D01*
X150336356Y-120078828D01*
X150340288Y-120080291D01*
X150344145Y-120081961D01*
X150347923Y-120083831D01*
X150351618Y-120085897D01*
X150355225Y-120088154D01*
X150358741Y-120090596D01*
X150362161Y-120093219D01*
X150365480Y-120096017D01*
X150368696Y-120098985D01*
X150371802Y-120102118D01*
X150374796Y-120105411D01*
X150377673Y-120108858D01*
X150380429Y-120112456D01*
X150383059Y-120116197D01*
X150385560Y-120120078D01*
X150387926Y-120124094D01*
X150390155Y-120128238D01*
X150392241Y-120132507D01*
X150394181Y-120136894D01*
X150395970Y-120141395D01*
X150397605Y-120146005D01*
X150399080Y-120150718D01*
X150400391Y-120155530D01*
X150401536Y-120160435D01*
X150402508Y-120165428D01*
X150403304Y-120170504D01*
X150403846Y-120173225D01*
X150404311Y-120175959D01*
X150404700Y-120178703D01*
X150405012Y-120181457D01*
X150405247Y-120184218D01*
X150405404Y-120186985D01*
X150405484Y-120189757D01*
X150405487Y-120192531D01*
X150405487Y-120195904D01*
X150405447Y-120198025D01*
X150405361Y-120200144D01*
X150405230Y-120202260D01*
X150405054Y-120204372D01*
X150404833Y-120206480D01*
X150404567Y-120208583D01*
X150404256Y-120210680D01*
X150403900Y-120212771D01*
X150403877Y-120213625D01*
X150403813Y-120214475D01*
X150403713Y-120215320D01*
X150403580Y-120216164D01*
X150403421Y-120217004D01*
X150403240Y-120217843D01*
X150402833Y-120219518D01*
X150401974Y-120222873D01*
X150401779Y-120223716D01*
X150401602Y-120224562D01*
X150401447Y-120225412D01*
X150401320Y-120226265D01*
X150398343Y-120235790D01*
X150397976Y-120236961D01*
X150397586Y-120238124D01*
X150397173Y-120239278D01*
X150396737Y-120240425D01*
X150396279Y-120241562D01*
X150395799Y-120242690D01*
X150395296Y-120243809D01*
X150394771Y-120244918D01*
X150393431Y-120247336D01*
X150392125Y-120249772D01*
X150390856Y-120252227D01*
X150389622Y-120254699D01*
X150388424Y-120257189D01*
X150387262Y-120259697D01*
X150386137Y-120262221D01*
X150385048Y-120264762D01*
X150384598Y-120265648D01*
X150384128Y-120266522D01*
X150383637Y-120267385D01*
X150383126Y-120268235D01*
X150382594Y-120269073D01*
X150382043Y-120269898D01*
X150381472Y-120270710D01*
X150380881Y-120271509D01*
X150379526Y-120273429D01*
X150378139Y-120275325D01*
X150376721Y-120277198D01*
X150375272Y-120279047D01*
X150373793Y-120280871D01*
X150372283Y-120282671D01*
X150370743Y-120284445D01*
X150369173Y-120286194D01*
X150370041Y-120285404D01*
X150370896Y-120284602D01*
X150371739Y-120283787D01*
X150372569Y-120282959D01*
X150373386Y-120282119D01*
X150374190Y-120281267D01*
X150374980Y-120280403D01*
X150375757Y-120279526D01*
X150376521Y-120278638D01*
X150377271Y-120277739D01*
X150378007Y-120276827D01*
X150378729Y-120275905D01*
X150379437Y-120274971D01*
X150380131Y-120274026D01*
X150380811Y-120273070D01*
X150381476Y-120272104D01*
X150366139Y-120304956D01*
X150351621Y-120338824D01*
X150337945Y-120373669D01*
X150325135Y-120409457D01*
X150313215Y-120446150D01*
X150302208Y-120483713D01*
X150292137Y-120522109D01*
X150283026Y-120561302D01*
X150274899Y-120601255D01*
X150267780Y-120641932D01*
X150261691Y-120683297D01*
X150256656Y-120725314D01*
X150252699Y-120767945D01*
X150249843Y-120811155D01*
X150248113Y-120854908D01*
X150247531Y-120899167D01*
X150248143Y-120944324D01*
X150249961Y-120988984D01*
X150252961Y-121033105D01*
X150257115Y-121076644D01*
X150262398Y-121119560D01*
X150268784Y-121161811D01*
X150276248Y-121203355D01*
X150284763Y-121244150D01*
X150294303Y-121284155D01*
X150304843Y-121323327D01*
X150316357Y-121361624D01*
X150328819Y-121399006D01*
X150342203Y-121435429D01*
X150356483Y-121470853D01*
X150371633Y-121505234D01*
X150387628Y-121538532D01*
X150388027Y-121539117D01*
X150388415Y-121539709D01*
X150388792Y-121540308D01*
X150389157Y-121540914D01*
X150389509Y-121541526D01*
X150389851Y-121542145D01*
X150390180Y-121542770D01*
X150390497Y-121543402D01*
X150390802Y-121544039D01*
X150391094Y-121544682D01*
X150391375Y-121545331D01*
X150391643Y-121545985D01*
X150391898Y-121546645D01*
X150392141Y-121547309D01*
X150392371Y-121547978D01*
X150392589Y-121548652D01*
X150394170Y-121552060D01*
X150395651Y-121555506D01*
X150397030Y-121558989D01*
X150398307Y-121562507D01*
X150399482Y-121566057D01*
X150400553Y-121569638D01*
X150401521Y-121573246D01*
X150402385Y-121576879D01*
X150403144Y-121580536D01*
X150403798Y-121584214D01*
X150404346Y-121587911D01*
X150404789Y-121591624D01*
X150405125Y-121595351D01*
X150405353Y-121599091D01*
X150405474Y-121602840D01*
X150405487Y-121606596D01*
X150405367Y-121612586D01*
X150405009Y-121618495D01*
X150404420Y-121624317D01*
X150403605Y-121630044D01*
X150401323Y-121641184D01*
X150398210Y-121651859D01*
X150394312Y-121662010D01*
X150389675Y-121671581D01*
X150384348Y-121680513D01*
X150378376Y-121688749D01*
X150375162Y-121692589D01*
X150371806Y-121696232D01*
X150368311Y-121699673D01*
X150364685Y-121702904D01*
X150360933Y-121705918D01*
X150357061Y-121708708D01*
X150353074Y-121711266D01*
X150348979Y-121713585D01*
X150344781Y-121715658D01*
X150340487Y-121717479D01*
X150336101Y-121719039D01*
X150331631Y-121720331D01*
X150327081Y-121721349D01*
X150322458Y-121722085D01*
X150317767Y-121722532D01*
X150313015Y-121722682D01*
X150310141Y-121722586D01*
X150307279Y-121722386D01*
X150304431Y-121722083D01*
X150301601Y-121721679D01*
X150298790Y-121721173D01*
X150296003Y-121720568D01*
X150293240Y-121719863D01*
X150290506Y-121719060D01*
X150287802Y-121718159D01*
X150285131Y-121717161D01*
X150282496Y-121716068D01*
X150279900Y-121714879D01*
X150277345Y-121713596D01*
X150274834Y-121712219D01*
X150272370Y-121710750D01*
X150269954Y-121709188D01*
X150267647Y-121707236D01*
X150265341Y-121705251D01*
X150260727Y-121701201D01*
X150256113Y-121697078D01*
X150251500Y-121692917D01*
X150213319Y-121656993D01*
X150176969Y-121618790D01*
X150142538Y-121578406D01*
X150110113Y-121535937D01*
X150079780Y-121491481D01*
X150051628Y-121445135D01*
X150025743Y-121396997D01*
X150002212Y-121347164D01*
X149981124Y-121295733D01*
X149962564Y-121242803D01*
X149946620Y-121188469D01*
X149933379Y-121132830D01*
X149922929Y-121075983D01*
X149915357Y-121018025D01*
X149910750Y-120959054D01*
X149909195Y-120899167D01*
X149910720Y-120839342D01*
X149915242Y-120780547D01*
X149922676Y-120722863D01*
X149932939Y-120666372D01*
X149945949Y-120611153D01*
X149961622Y-120557289D01*
X149979875Y-120504860D01*
X150000625Y-120453947D01*
X150023789Y-120404632D01*
X150049283Y-120356996D01*
X150077025Y-120311120D01*
X150106932Y-120267084D01*
X150138919Y-120224971D01*
X150172905Y-120184860D01*
X150208806Y-120146834D01*
X150246539Y-120110973D01*
X150246539Y-120109782D01*
X150253072Y-120103944D01*
X150259809Y-120098050D01*
X150273526Y-120086168D01*
X150273830Y-120085941D01*
X150274140Y-120085721D01*
X150274455Y-120085510D01*
X150274775Y-120085307D01*
X150275100Y-120085113D01*
X150275431Y-120084927D01*
X150275766Y-120084749D01*
X150276106Y-120084580D01*
X150278152Y-120083482D01*
X150280227Y-120082446D01*
X150282328Y-120081472D01*
X150284455Y-120080561D01*
X150286606Y-120079713D01*
X150288778Y-120078928D01*
X150290972Y-120078207D01*
X150293186Y-120077551D01*
X150295417Y-120076959D01*
X150297666Y-120076432D01*
X150299929Y-120075971D01*
X150302207Y-120075575D01*
X150304497Y-120075246D01*
X150306798Y-120074983D01*
X150309109Y-120074787D01*
X150311428Y-120074659D01*
X150315720Y-120074779D01*
G37*
G36*
X151638000Y-120396000D02*
G01*
X151641159Y-120396212D01*
X151644283Y-120396563D01*
X151647368Y-120397050D01*
X151650410Y-120397670D01*
X151653406Y-120398420D01*
X151656352Y-120399297D01*
X151659246Y-120400299D01*
X151662084Y-120401422D01*
X151664862Y-120402664D01*
X151667577Y-120404022D01*
X151670225Y-120405493D01*
X151672804Y-120407075D01*
X151675310Y-120408763D01*
X151677740Y-120410557D01*
X151680090Y-120412451D01*
X151682356Y-120414445D01*
X151684536Y-120416535D01*
X151686625Y-120418717D01*
X151688622Y-120420991D01*
X151690521Y-120423351D01*
X151692321Y-120425796D01*
X151694017Y-120428323D01*
X151695606Y-120430928D01*
X151697084Y-120433610D01*
X151698449Y-120436364D01*
X151699697Y-120439190D01*
X151700825Y-120442082D01*
X151701828Y-120445039D01*
X151702704Y-120448058D01*
X151703450Y-120451136D01*
X151704062Y-120454270D01*
X151704404Y-120455935D01*
X151704698Y-120457609D01*
X151704944Y-120459290D01*
X151705142Y-120460977D01*
X151705292Y-120462669D01*
X151705393Y-120464364D01*
X151705447Y-120466063D01*
X151705451Y-120467764D01*
X151705451Y-120468954D01*
X151705547Y-120470242D01*
X151705616Y-120471532D01*
X151705658Y-120472823D01*
X151705671Y-120474114D01*
X151705658Y-120475405D01*
X151705616Y-120476695D01*
X151705547Y-120477985D01*
X151705451Y-120479273D01*
X151705149Y-120480276D01*
X151704863Y-120481284D01*
X151704591Y-120482295D01*
X151704335Y-120483311D01*
X151704095Y-120484330D01*
X151703870Y-120485353D01*
X151703661Y-120486379D01*
X151703467Y-120487409D01*
X151701085Y-120493362D01*
X151700829Y-120494086D01*
X151700554Y-120494802D01*
X151700259Y-120495510D01*
X151699946Y-120496210D01*
X151699614Y-120496901D01*
X151699263Y-120497583D01*
X151698893Y-120498256D01*
X151698506Y-120498918D01*
X151697490Y-120500333D01*
X151696521Y-120501749D01*
X151695590Y-120503170D01*
X151694686Y-120504599D01*
X151692925Y-120507485D01*
X151691164Y-120510428D01*
X151690809Y-120510979D01*
X151690441Y-120511523D01*
X151690062Y-120512057D01*
X151689670Y-120512583D01*
X151689267Y-120513100D01*
X151688852Y-120513608D01*
X151688426Y-120514106D01*
X151687988Y-120514595D01*
X151686964Y-120515775D01*
X151685920Y-120516937D01*
X151684856Y-120518081D01*
X151683773Y-120519208D01*
X151682672Y-120520315D01*
X151681552Y-120521404D01*
X151680414Y-120522474D01*
X151679257Y-120523525D01*
X151679893Y-120523066D01*
X151680520Y-120522596D01*
X151681140Y-120522116D01*
X151681751Y-120521626D01*
X151682353Y-120521126D01*
X151682947Y-120520615D01*
X151683532Y-120520095D01*
X151684108Y-120519566D01*
X151684676Y-120519026D01*
X151685234Y-120518478D01*
X151685783Y-120517919D01*
X151686322Y-120517352D01*
X151686853Y-120516775D01*
X151687373Y-120516190D01*
X151687884Y-120515595D01*
X151688385Y-120514992D01*
X151664579Y-120560619D01*
X151643992Y-120607348D01*
X151626621Y-120655018D01*
X151612468Y-120703470D01*
X151601529Y-120752542D01*
X151593806Y-120802076D01*
X151589296Y-120851910D01*
X151587998Y-120901884D01*
X151589912Y-120951839D01*
X151595036Y-121001613D01*
X151603370Y-121051048D01*
X151614912Y-121099982D01*
X151629662Y-121148255D01*
X151647619Y-121195708D01*
X151668781Y-121242179D01*
X151693148Y-121287509D01*
X151693703Y-121288224D01*
X151694235Y-121288955D01*
X151694744Y-121289703D01*
X151695228Y-121290466D01*
X151695688Y-121291243D01*
X151696123Y-121292036D01*
X151696533Y-121292842D01*
X151696918Y-121293661D01*
X151698070Y-121295695D01*
X151699151Y-121297764D01*
X151700159Y-121299864D01*
X151701094Y-121301994D01*
X151701956Y-121304151D01*
X151702744Y-121306335D01*
X151703457Y-121308543D01*
X151704096Y-121310773D01*
X151704659Y-121313024D01*
X151705146Y-121315292D01*
X151705556Y-121317577D01*
X151705890Y-121319877D01*
X151706146Y-121322189D01*
X151706324Y-121324512D01*
X151706423Y-121326843D01*
X151706443Y-121329181D01*
X151706396Y-121332662D01*
X151706178Y-121336121D01*
X151705791Y-121339553D01*
X151705236Y-121342951D01*
X151704517Y-121346310D01*
X151703636Y-121349624D01*
X151702595Y-121352887D01*
X151701397Y-121356094D01*
X151700043Y-121359239D01*
X151698537Y-121362315D01*
X151696880Y-121365317D01*
X151695075Y-121368240D01*
X151693124Y-121371077D01*
X151691029Y-121373822D01*
X151688794Y-121376471D01*
X151686419Y-121379016D01*
X151683921Y-121381441D01*
X151681317Y-121383729D01*
X151678614Y-121385877D01*
X151675816Y-121387884D01*
X151672929Y-121389747D01*
X151669961Y-121391463D01*
X151666915Y-121393030D01*
X151663798Y-121394445D01*
X151660615Y-121395707D01*
X151657373Y-121396812D01*
X151654077Y-121397759D01*
X151650733Y-121398544D01*
X151647347Y-121399165D01*
X151643924Y-121399621D01*
X151640469Y-121399908D01*
X151636990Y-121400023D01*
X151634885Y-121399977D01*
X151632786Y-121399866D01*
X151630694Y-121399690D01*
X151628612Y-121399449D01*
X151626539Y-121399145D01*
X151624479Y-121398777D01*
X151622432Y-121398347D01*
X151620399Y-121397853D01*
X151618383Y-121397297D01*
X151616384Y-121396679D01*
X151614404Y-121395999D01*
X151612445Y-121395258D01*
X151610508Y-121394456D01*
X151608594Y-121393594D01*
X151606706Y-121392671D01*
X151604843Y-121391689D01*
X151603123Y-121390546D01*
X151601389Y-121389357D01*
X151599646Y-121388131D01*
X151597898Y-121386877D01*
X151594407Y-121384322D01*
X151590953Y-121381767D01*
X151562254Y-121359846D01*
X151534916Y-121336538D01*
X151509007Y-121311902D01*
X151484593Y-121285999D01*
X151461744Y-121258888D01*
X151440526Y-121230629D01*
X151421007Y-121201280D01*
X151403256Y-121170902D01*
X151387339Y-121139555D01*
X151373324Y-121107297D01*
X151361280Y-121074189D01*
X151351274Y-121040290D01*
X151343374Y-121005660D01*
X151337647Y-120970358D01*
X151335619Y-120952473D01*
X151334161Y-120934443D01*
X151333280Y-120916275D01*
X151332984Y-120897976D01*
X151334136Y-120861541D01*
X151337548Y-120825715D01*
X151343154Y-120790551D01*
X151350890Y-120756100D01*
X151360689Y-120722414D01*
X151372487Y-120689545D01*
X151386218Y-120657545D01*
X151401817Y-120626464D01*
X151419218Y-120596356D01*
X151438355Y-120567272D01*
X151459164Y-120539263D01*
X151481579Y-120512381D01*
X151505535Y-120486679D01*
X151530966Y-120462207D01*
X151557807Y-120439018D01*
X151585992Y-120417163D01*
X151605835Y-120402677D01*
X151607820Y-120402677D01*
X151609419Y-120401958D01*
X151611033Y-120401277D01*
X151612661Y-120400636D01*
X151614303Y-120400034D01*
X151615958Y-120399471D01*
X151617625Y-120398947D01*
X151619303Y-120398464D01*
X151620993Y-120398020D01*
X151622692Y-120397617D01*
X151624400Y-120397253D01*
X151626118Y-120396931D01*
X151627843Y-120396648D01*
X151629575Y-120396407D01*
X151631313Y-120396206D01*
X151633058Y-120396047D01*
X151634807Y-120395929D01*
X151638000Y-120396000D01*
G37*
G36*
X149940552Y-118448964D02*
G01*
X149949269Y-118449302D01*
X149957965Y-118449872D01*
X149966635Y-118450675D01*
X149975274Y-118451708D01*
X149983877Y-118452972D01*
X149992441Y-118454464D01*
X150000960Y-118456184D01*
X150009430Y-118458131D01*
X150017846Y-118460305D01*
X150026204Y-118462703D01*
X150034499Y-118465325D01*
X150042727Y-118468170D01*
X150050883Y-118471237D01*
X150058962Y-118474526D01*
X150066960Y-118478034D01*
X150133032Y-118517718D01*
X153388995Y-120471137D01*
X153572351Y-120581667D01*
X153608268Y-120603098D01*
X153610848Y-120604685D01*
X153628794Y-120618292D01*
X153645778Y-120632860D01*
X153661772Y-120648335D01*
X153676751Y-120664665D01*
X153690686Y-120681799D01*
X153703552Y-120699684D01*
X153715320Y-120718266D01*
X153725964Y-120737495D01*
X153735458Y-120757317D01*
X153743772Y-120777681D01*
X153750882Y-120798533D01*
X153756760Y-120819822D01*
X153761379Y-120841495D01*
X153764711Y-120863500D01*
X153766730Y-120885784D01*
X153767409Y-120908295D01*
X153766730Y-120930806D01*
X153764711Y-120953090D01*
X153761379Y-120975094D01*
X153756760Y-120996767D01*
X153750882Y-121018056D01*
X153743772Y-121038909D01*
X153735458Y-121059272D01*
X153725964Y-121079094D01*
X153715320Y-121098323D01*
X153703552Y-121116906D01*
X153690686Y-121134790D01*
X153676751Y-121151924D01*
X153661772Y-121168254D01*
X153645778Y-121183730D01*
X153628794Y-121198297D01*
X153610848Y-121211904D01*
X153610510Y-121212105D01*
X153610177Y-121212312D01*
X153609848Y-121212526D01*
X153609523Y-121212746D01*
X153609202Y-121212972D01*
X153608886Y-121213205D01*
X153608575Y-121213445D01*
X153608268Y-121213690D01*
X153572351Y-121235121D01*
X153388598Y-121345452D01*
X150164584Y-123280020D01*
X150109617Y-123313159D01*
X150101271Y-123317098D01*
X150092830Y-123320794D01*
X150084297Y-123324246D01*
X150075679Y-123327452D01*
X150066980Y-123330411D01*
X150058207Y-123333121D01*
X150049364Y-123335582D01*
X150040457Y-123337793D01*
X150031491Y-123339751D01*
X150022472Y-123341456D01*
X150013405Y-123342907D01*
X150004295Y-123344101D01*
X149995148Y-123345039D01*
X149985968Y-123345719D01*
X149976763Y-123346139D01*
X149967536Y-123346298D01*
X149949379Y-123345796D01*
X149931463Y-123344307D01*
X149913807Y-123341855D01*
X149896436Y-123338463D01*
X149879370Y-123334157D01*
X149862633Y-123328961D01*
X149846245Y-123322898D01*
X149830229Y-123315993D01*
X149814608Y-123308270D01*
X149799402Y-123299753D01*
X149784636Y-123290466D01*
X149770329Y-123280434D01*
X149756505Y-123269681D01*
X149743186Y-123258231D01*
X149730393Y-123246109D01*
X149718149Y-123233337D01*
X149706476Y-123219941D01*
X149695396Y-123205946D01*
X149684932Y-123191374D01*
X149675104Y-123176250D01*
X149665935Y-123160599D01*
X149657448Y-123144444D01*
X149649665Y-123127810D01*
X149642607Y-123110721D01*
X149636296Y-123093202D01*
X149630755Y-123075276D01*
X149626006Y-123056967D01*
X149622071Y-123038300D01*
X149618972Y-123019300D01*
X149616731Y-122999989D01*
X149615371Y-122980393D01*
X149614912Y-122960535D01*
X149615283Y-122938277D01*
X149616883Y-122916196D01*
X149619690Y-122894338D01*
X149623684Y-122872749D01*
X149628843Y-122851474D01*
X149635148Y-122830558D01*
X149642577Y-122810047D01*
X149651110Y-122789987D01*
X149660725Y-122770422D01*
X149671402Y-122751398D01*
X149683120Y-122732962D01*
X149695858Y-122715157D01*
X149709596Y-122698031D01*
X149724312Y-122681627D01*
X149739986Y-122665992D01*
X149756596Y-122651171D01*
X149757589Y-122651171D01*
X149841726Y-122599974D01*
X152278936Y-121137490D01*
X152285340Y-121134603D01*
X152291639Y-121131508D01*
X152297829Y-121128206D01*
X152303904Y-121124702D01*
X152309859Y-121120998D01*
X152315690Y-121117097D01*
X152321391Y-121113002D01*
X152326957Y-121108717D01*
X152337702Y-121099397D01*
X152347871Y-121089559D01*
X152357449Y-121079230D01*
X152366424Y-121068437D01*
X152374782Y-121057208D01*
X152382509Y-121045571D01*
X152389592Y-121033553D01*
X152396019Y-121021181D01*
X152401774Y-121008484D01*
X152406846Y-120995488D01*
X152411220Y-120982222D01*
X152414884Y-120968712D01*
X152417824Y-120954987D01*
X152420026Y-120941073D01*
X152421477Y-120926999D01*
X152422164Y-120912792D01*
X152422076Y-120898568D01*
X152421218Y-120884446D01*
X152419604Y-120870452D01*
X152417245Y-120856615D01*
X152414153Y-120842963D01*
X152410342Y-120829524D01*
X152405822Y-120816326D01*
X152400606Y-120803398D01*
X152394706Y-120790767D01*
X152388135Y-120778461D01*
X152380905Y-120766509D01*
X152373028Y-120754938D01*
X152364515Y-120743777D01*
X152355381Y-120733053D01*
X152345635Y-120722796D01*
X152335292Y-120713032D01*
X152307312Y-120694975D01*
X152284095Y-120679893D01*
X152280191Y-120678110D01*
X152276232Y-120676346D01*
X152272235Y-120674619D01*
X152268220Y-120672948D01*
X149784576Y-119182881D01*
X149772666Y-119176248D01*
X149761050Y-119169236D01*
X149749736Y-119161857D01*
X149738729Y-119154120D01*
X149728034Y-119146035D01*
X149717659Y-119137613D01*
X149707608Y-119128863D01*
X149697889Y-119119796D01*
X149688506Y-119110422D01*
X149679466Y-119100751D01*
X149670775Y-119090793D01*
X149662439Y-119080559D01*
X149654463Y-119070059D01*
X149646854Y-119059302D01*
X149639618Y-119048299D01*
X149632760Y-119037060D01*
X149626287Y-119025595D01*
X149620204Y-119013914D01*
X149614518Y-119002028D01*
X149609234Y-118989947D01*
X149604359Y-118977681D01*
X149599898Y-118965239D01*
X149595858Y-118952633D01*
X149592243Y-118939872D01*
X149589061Y-118926966D01*
X149586318Y-118913926D01*
X149584018Y-118900762D01*
X149582169Y-118887484D01*
X149580775Y-118874101D01*
X149579844Y-118860625D01*
X149579381Y-118847066D01*
X149579392Y-118833433D01*
X149579853Y-118813648D01*
X149581222Y-118794123D01*
X149583476Y-118774881D01*
X149586591Y-118755947D01*
X149590547Y-118737344D01*
X149595319Y-118719097D01*
X149600885Y-118701230D01*
X149607223Y-118683767D01*
X149614309Y-118666733D01*
X149622122Y-118650152D01*
X149630638Y-118634047D01*
X149639835Y-118618443D01*
X149649690Y-118603365D01*
X149660180Y-118588836D01*
X149671283Y-118574881D01*
X149682976Y-118561524D01*
X149695237Y-118548788D01*
X149708042Y-118536699D01*
X149721370Y-118525281D01*
X149735196Y-118514557D01*
X149749500Y-118504552D01*
X149764257Y-118495290D01*
X149779446Y-118486795D01*
X149795044Y-118479091D01*
X149811027Y-118472204D01*
X149827374Y-118466156D01*
X149844062Y-118460972D01*
X149861068Y-118456676D01*
X149878369Y-118453293D01*
X149895942Y-118450847D01*
X149913766Y-118449361D01*
X149931817Y-118448861D01*
X149940552Y-118448964D01*
G37*
D11*
X152466459Y-120722160D02*
X152441853Y-120705889D01*
D12*
X147812000Y-130683000D02*
G75*
G03*
X145812000Y-130683000I-1000000J0D01*
G01*
X145812000Y-130683000D02*
G75*
G03*
X147812000Y-130683000I1000000J0D01*
G01*
D13*
X157232414Y-93105514D02*
X157232414Y-92060485D01*
X157232414Y-92583000D02*
X155403614Y-92583000D01*
X155403614Y-92583000D02*
X155664871Y-92408828D01*
X155664871Y-92408828D02*
X155839043Y-92234657D01*
X155839043Y-92234657D02*
X155926129Y-92060485D01*
X155530614Y-113338428D02*
X155530614Y-112467571D01*
X155530614Y-112467571D02*
X156401471Y-112380485D01*
X156401471Y-112380485D02*
X156314386Y-112467571D01*
X156314386Y-112467571D02*
X156227300Y-112641743D01*
X156227300Y-112641743D02*
X156227300Y-113077171D01*
X156227300Y-113077171D02*
X156314386Y-113251343D01*
X156314386Y-113251343D02*
X156401471Y-113338428D01*
X156401471Y-113338428D02*
X156575643Y-113425514D01*
X156575643Y-113425514D02*
X157011071Y-113425514D01*
X157011071Y-113425514D02*
X157185243Y-113338428D01*
X157185243Y-113338428D02*
X157272329Y-113251343D01*
X157272329Y-113251343D02*
X157359414Y-113077171D01*
X157359414Y-113077171D02*
X157359414Y-112641743D01*
X157359414Y-112641743D02*
X157272329Y-112467571D01*
X157272329Y-112467571D02*
X157185243Y-112380485D01*
X160011900Y-121448285D02*
X160011900Y-122319143D01*
X160534414Y-121274114D02*
X158705614Y-121883714D01*
X158705614Y-121883714D02*
X160534414Y-122493314D01*
X160534414Y-123102914D02*
X158705614Y-123102914D01*
X160534414Y-124931714D02*
X160534414Y-123886685D01*
X160534414Y-124409200D02*
X158705614Y-124409200D01*
X158705614Y-124409200D02*
X158966871Y-124235028D01*
X158966871Y-124235028D02*
X159141043Y-124060857D01*
X159141043Y-124060857D02*
X159228129Y-123886685D01*
X160011900Y-96556285D02*
X160011900Y-97427143D01*
X160534414Y-96382114D02*
X158705614Y-96991714D01*
X158705614Y-96991714D02*
X160534414Y-97601314D01*
X160534414Y-98210914D02*
X158705614Y-98210914D01*
X159315214Y-99865543D02*
X160534414Y-99865543D01*
X158618529Y-99430114D02*
X159924814Y-98994685D01*
X159924814Y-98994685D02*
X159924814Y-100126800D01*
X155403614Y-118331343D02*
X155403614Y-117983000D01*
X155403614Y-117983000D02*
X155490700Y-117808828D01*
X155490700Y-117808828D02*
X155577786Y-117721743D01*
X155577786Y-117721743D02*
X155839043Y-117547571D01*
X155839043Y-117547571D02*
X156187386Y-117460485D01*
X156187386Y-117460485D02*
X156884071Y-117460485D01*
X156884071Y-117460485D02*
X157058243Y-117547571D01*
X157058243Y-117547571D02*
X157145329Y-117634657D01*
X157145329Y-117634657D02*
X157232414Y-117808828D01*
X157232414Y-117808828D02*
X157232414Y-118157171D01*
X157232414Y-118157171D02*
X157145329Y-118331343D01*
X157145329Y-118331343D02*
X157058243Y-118418428D01*
X157058243Y-118418428D02*
X156884071Y-118505514D01*
X156884071Y-118505514D02*
X156448643Y-118505514D01*
X156448643Y-118505514D02*
X156274471Y-118418428D01*
X156274471Y-118418428D02*
X156187386Y-118331343D01*
X156187386Y-118331343D02*
X156100300Y-118157171D01*
X156100300Y-118157171D02*
X156100300Y-117808828D01*
X156100300Y-117808828D02*
X156187386Y-117634657D01*
X156187386Y-117634657D02*
X156274471Y-117547571D01*
X156274471Y-117547571D02*
X156448643Y-117460485D01*
X157232414Y-87020400D02*
X155403614Y-87020400D01*
X155403614Y-87020400D02*
X156709900Y-87630000D01*
X156709900Y-87630000D02*
X155403614Y-88239600D01*
X155403614Y-88239600D02*
X157232414Y-88239600D01*
X160011900Y-90841285D02*
X160011900Y-91712143D01*
X160534414Y-90667114D02*
X158705614Y-91276714D01*
X158705614Y-91276714D02*
X160534414Y-91886314D01*
X160534414Y-92495914D02*
X158705614Y-92495914D01*
X158705614Y-93192600D02*
X158705614Y-94324714D01*
X158705614Y-94324714D02*
X159402300Y-93715114D01*
X159402300Y-93715114D02*
X159402300Y-93976371D01*
X159402300Y-93976371D02*
X159489386Y-94150543D01*
X159489386Y-94150543D02*
X159576471Y-94237628D01*
X159576471Y-94237628D02*
X159750643Y-94324714D01*
X159750643Y-94324714D02*
X160186071Y-94324714D01*
X160186071Y-94324714D02*
X160360243Y-94237628D01*
X160360243Y-94237628D02*
X160447329Y-94150543D01*
X160447329Y-94150543D02*
X160534414Y-93976371D01*
X160534414Y-93976371D02*
X160534414Y-93453857D01*
X160534414Y-93453857D02*
X160447329Y-93279685D01*
X160447329Y-93279685D02*
X160360243Y-93192600D01*
X155657614Y-102387400D02*
X155657614Y-103519514D01*
X155657614Y-103519514D02*
X156354300Y-102909914D01*
X156354300Y-102909914D02*
X156354300Y-103171171D01*
X156354300Y-103171171D02*
X156441386Y-103345343D01*
X156441386Y-103345343D02*
X156528471Y-103432428D01*
X156528471Y-103432428D02*
X156702643Y-103519514D01*
X156702643Y-103519514D02*
X157138071Y-103519514D01*
X157138071Y-103519514D02*
X157312243Y-103432428D01*
X157312243Y-103432428D02*
X157399329Y-103345343D01*
X157399329Y-103345343D02*
X157486414Y-103171171D01*
X157486414Y-103171171D02*
X157486414Y-102648657D01*
X157486414Y-102648657D02*
X157399329Y-102474485D01*
X157399329Y-102474485D02*
X157312243Y-102387400D01*
X156613613Y-128317171D02*
X156700699Y-128491342D01*
X156700699Y-128491342D02*
X156787785Y-128578428D01*
X156787785Y-128578428D02*
X156961956Y-128665514D01*
X156961956Y-128665514D02*
X157049042Y-128665514D01*
X157049042Y-128665514D02*
X157223213Y-128578428D01*
X157223213Y-128578428D02*
X157310299Y-128491342D01*
X157310299Y-128491342D02*
X157397385Y-128317171D01*
X157397385Y-128317171D02*
X157397385Y-127968828D01*
X157397385Y-127968828D02*
X157310299Y-127794657D01*
X157310299Y-127794657D02*
X157223213Y-127707571D01*
X157223213Y-127707571D02*
X157049042Y-127620485D01*
X157049042Y-127620485D02*
X156961956Y-127620485D01*
X156961956Y-127620485D02*
X156787785Y-127707571D01*
X156787785Y-127707571D02*
X156700699Y-127794657D01*
X156700699Y-127794657D02*
X156613613Y-127968828D01*
X156613613Y-127968828D02*
X156613613Y-128317171D01*
X156613613Y-128317171D02*
X156526528Y-128491342D01*
X156526528Y-128491342D02*
X156439442Y-128578428D01*
X156439442Y-128578428D02*
X156265271Y-128665514D01*
X156265271Y-128665514D02*
X155916928Y-128665514D01*
X155916928Y-128665514D02*
X155742756Y-128578428D01*
X155742756Y-128578428D02*
X155655671Y-128491342D01*
X155655671Y-128491342D02*
X155568585Y-128317171D01*
X155568585Y-128317171D02*
X155568585Y-127968828D01*
X155568585Y-127968828D02*
X155655671Y-127794657D01*
X155655671Y-127794657D02*
X155742756Y-127707571D01*
X155742756Y-127707571D02*
X155916928Y-127620485D01*
X155916928Y-127620485D02*
X156265271Y-127620485D01*
X156265271Y-127620485D02*
X156439442Y-127707571D01*
X156439442Y-127707571D02*
X156526528Y-127794657D01*
X156526528Y-127794657D02*
X156613613Y-127968828D01*
D14*
X147624219Y-111233857D02*
X148640219Y-111233857D01*
X147043648Y-110870999D02*
X148132219Y-110508142D01*
X148132219Y-110508142D02*
X148132219Y-111451571D01*
X147116219Y-111887000D02*
X147116219Y-112903000D01*
X147116219Y-112903000D02*
X148640219Y-112249857D01*
X147116219Y-114209286D02*
X147116219Y-113483572D01*
X147116219Y-113483572D02*
X147841933Y-113411000D01*
X147841933Y-113411000D02*
X147769362Y-113483572D01*
X147769362Y-113483572D02*
X147696790Y-113628715D01*
X147696790Y-113628715D02*
X147696790Y-113991572D01*
X147696790Y-113991572D02*
X147769362Y-114136715D01*
X147769362Y-114136715D02*
X147841933Y-114209286D01*
X147841933Y-114209286D02*
X147987076Y-114281857D01*
X147987076Y-114281857D02*
X148349933Y-114281857D01*
X148349933Y-114281857D02*
X148495076Y-114209286D01*
X148495076Y-114209286D02*
X148567648Y-114136715D01*
X148567648Y-114136715D02*
X148640219Y-113991572D01*
X148640219Y-113991572D02*
X148640219Y-113628715D01*
X148640219Y-113628715D02*
X148567648Y-113483572D01*
X148567648Y-113483572D02*
X148495076Y-113411000D01*
X148640219Y-115805858D02*
X147914505Y-115297858D01*
X148640219Y-114935001D02*
X147116219Y-114935001D01*
X147116219Y-114935001D02*
X147116219Y-115515572D01*
X147116219Y-115515572D02*
X147188790Y-115660715D01*
X147188790Y-115660715D02*
X147261362Y-115733286D01*
X147261362Y-115733286D02*
X147406505Y-115805858D01*
X147406505Y-115805858D02*
X147624219Y-115805858D01*
X147624219Y-115805858D02*
X147769362Y-115733286D01*
X147769362Y-115733286D02*
X147841933Y-115660715D01*
X147841933Y-115660715D02*
X147914505Y-115515572D01*
X147914505Y-115515572D02*
X147914505Y-114935001D01*
D13*
X157359414Y-82110942D02*
X157359414Y-81240085D01*
X157359414Y-81240085D02*
X155530614Y-81240085D01*
X156662729Y-82720542D02*
X156662729Y-84113914D01*
X157359414Y-83417228D02*
X155966043Y-83417228D01*
X160011900Y-126655285D02*
X160011900Y-127526143D01*
X160534414Y-126481114D02*
X158705614Y-127090714D01*
X158705614Y-127090714D02*
X160534414Y-127700314D01*
X160534414Y-128309914D02*
X158705614Y-128309914D01*
X158879786Y-129093685D02*
X158792700Y-129180771D01*
X158792700Y-129180771D02*
X158705614Y-129354943D01*
X158705614Y-129354943D02*
X158705614Y-129790371D01*
X158705614Y-129790371D02*
X158792700Y-129964543D01*
X158792700Y-129964543D02*
X158879786Y-130051628D01*
X158879786Y-130051628D02*
X159053957Y-130138714D01*
X159053957Y-130138714D02*
X159228129Y-130138714D01*
X159228129Y-130138714D02*
X159489386Y-130051628D01*
X159489386Y-130051628D02*
X160534414Y-129006600D01*
X160534414Y-129006600D02*
X160534414Y-130138714D01*
X155530614Y-122580400D02*
X155530614Y-123799600D01*
X155530614Y-123799600D02*
X157359414Y-123015828D01*
X160534414Y-107529086D02*
X160534414Y-106484057D01*
X160534414Y-107006572D02*
X158705614Y-107006572D01*
X158705614Y-107006572D02*
X158966871Y-106832400D01*
X158966871Y-106832400D02*
X159141043Y-106658229D01*
X159141043Y-106658229D02*
X159228129Y-106484057D01*
X158879786Y-108225771D02*
X158792700Y-108312857D01*
X158792700Y-108312857D02*
X158705614Y-108487029D01*
X158705614Y-108487029D02*
X158705614Y-108922457D01*
X158705614Y-108922457D02*
X158792700Y-109096629D01*
X158792700Y-109096629D02*
X158879786Y-109183714D01*
X158879786Y-109183714D02*
X159053957Y-109270800D01*
X159053957Y-109270800D02*
X159228129Y-109270800D01*
X159228129Y-109270800D02*
X159489386Y-109183714D01*
X159489386Y-109183714D02*
X160534414Y-108138686D01*
X160534414Y-108138686D02*
X160534414Y-109270800D01*
X160360243Y-110054571D02*
X160447329Y-110141657D01*
X160447329Y-110141657D02*
X160534414Y-110054571D01*
X160534414Y-110054571D02*
X160447329Y-109967485D01*
X160447329Y-109967485D02*
X160360243Y-110054571D01*
X160360243Y-110054571D02*
X160534414Y-110054571D01*
X160534414Y-111883371D02*
X160534414Y-110838342D01*
X160534414Y-111360857D02*
X158705614Y-111360857D01*
X158705614Y-111360857D02*
X158966871Y-111186685D01*
X158966871Y-111186685D02*
X159141043Y-111012514D01*
X159141043Y-111012514D02*
X159228129Y-110838342D01*
X160360243Y-112667142D02*
X160447329Y-112754228D01*
X160447329Y-112754228D02*
X160534414Y-112667142D01*
X160534414Y-112667142D02*
X160447329Y-112580056D01*
X160447329Y-112580056D02*
X160360243Y-112667142D01*
X160360243Y-112667142D02*
X160534414Y-112667142D01*
X158705614Y-113886342D02*
X158705614Y-114060513D01*
X158705614Y-114060513D02*
X158792700Y-114234685D01*
X158792700Y-114234685D02*
X158879786Y-114321771D01*
X158879786Y-114321771D02*
X159053957Y-114408856D01*
X159053957Y-114408856D02*
X159402300Y-114495942D01*
X159402300Y-114495942D02*
X159837729Y-114495942D01*
X159837729Y-114495942D02*
X160186071Y-114408856D01*
X160186071Y-114408856D02*
X160360243Y-114321771D01*
X160360243Y-114321771D02*
X160447329Y-114234685D01*
X160447329Y-114234685D02*
X160534414Y-114060513D01*
X160534414Y-114060513D02*
X160534414Y-113886342D01*
X160534414Y-113886342D02*
X160447329Y-113712171D01*
X160447329Y-113712171D02*
X160360243Y-113625085D01*
X160360243Y-113625085D02*
X160186071Y-113537999D01*
X160186071Y-113537999D02*
X159837729Y-113450913D01*
X159837729Y-113450913D02*
X159402300Y-113450913D01*
X159402300Y-113450913D02*
X159053957Y-113537999D01*
X159053957Y-113537999D02*
X158879786Y-113625085D01*
X158879786Y-113625085D02*
X158792700Y-113712171D01*
X158792700Y-113712171D02*
X158705614Y-113886342D01*
D14*
X147116219Y-84781571D02*
X147116219Y-85724999D01*
X147116219Y-85724999D02*
X147696790Y-85216999D01*
X147696790Y-85216999D02*
X147696790Y-85434714D01*
X147696790Y-85434714D02*
X147769362Y-85579857D01*
X147769362Y-85579857D02*
X147841933Y-85652428D01*
X147841933Y-85652428D02*
X147987076Y-85724999D01*
X147987076Y-85724999D02*
X148349933Y-85724999D01*
X148349933Y-85724999D02*
X148495076Y-85652428D01*
X148495076Y-85652428D02*
X148567648Y-85579857D01*
X148567648Y-85579857D02*
X148640219Y-85434714D01*
X148640219Y-85434714D02*
X148640219Y-84999285D01*
X148640219Y-84999285D02*
X148567648Y-84854142D01*
X148567648Y-84854142D02*
X148495076Y-84781571D01*
X147116219Y-87031286D02*
X147116219Y-86741000D01*
X147116219Y-86741000D02*
X147188790Y-86595857D01*
X147188790Y-86595857D02*
X147261362Y-86523286D01*
X147261362Y-86523286D02*
X147479076Y-86378143D01*
X147479076Y-86378143D02*
X147769362Y-86305571D01*
X147769362Y-86305571D02*
X148349933Y-86305571D01*
X148349933Y-86305571D02*
X148495076Y-86378143D01*
X148495076Y-86378143D02*
X148567648Y-86450714D01*
X148567648Y-86450714D02*
X148640219Y-86595857D01*
X148640219Y-86595857D02*
X148640219Y-86886143D01*
X148640219Y-86886143D02*
X148567648Y-87031286D01*
X148567648Y-87031286D02*
X148495076Y-87103857D01*
X148495076Y-87103857D02*
X148349933Y-87176428D01*
X148349933Y-87176428D02*
X147987076Y-87176428D01*
X147987076Y-87176428D02*
X147841933Y-87103857D01*
X147841933Y-87103857D02*
X147769362Y-87031286D01*
X147769362Y-87031286D02*
X147696790Y-86886143D01*
X147696790Y-86886143D02*
X147696790Y-86595857D01*
X147696790Y-86595857D02*
X147769362Y-86450714D01*
X147769362Y-86450714D02*
X147841933Y-86378143D01*
X147841933Y-86378143D02*
X147987076Y-86305571D01*
X147116219Y-88119857D02*
X147116219Y-88265000D01*
X147116219Y-88265000D02*
X147188790Y-88410143D01*
X147188790Y-88410143D02*
X147261362Y-88482715D01*
X147261362Y-88482715D02*
X147406505Y-88555286D01*
X147406505Y-88555286D02*
X147696790Y-88627857D01*
X147696790Y-88627857D02*
X148059648Y-88627857D01*
X148059648Y-88627857D02*
X148349933Y-88555286D01*
X148349933Y-88555286D02*
X148495076Y-88482715D01*
X148495076Y-88482715D02*
X148567648Y-88410143D01*
X148567648Y-88410143D02*
X148640219Y-88265000D01*
X148640219Y-88265000D02*
X148640219Y-88119857D01*
X148640219Y-88119857D02*
X148567648Y-87974715D01*
X148567648Y-87974715D02*
X148495076Y-87902143D01*
X148495076Y-87902143D02*
X148349933Y-87829572D01*
X148349933Y-87829572D02*
X148059648Y-87757000D01*
X148059648Y-87757000D02*
X147696790Y-87757000D01*
X147696790Y-87757000D02*
X147406505Y-87829572D01*
X147406505Y-87829572D02*
X147261362Y-87902143D01*
X147261362Y-87902143D02*
X147188790Y-87974715D01*
X147188790Y-87974715D02*
X147116219Y-88119857D01*
X148640219Y-90151858D02*
X147914505Y-89643858D01*
X148640219Y-89281001D02*
X147116219Y-89281001D01*
X147116219Y-89281001D02*
X147116219Y-89861572D01*
X147116219Y-89861572D02*
X147188790Y-90006715D01*
X147188790Y-90006715D02*
X147261362Y-90079286D01*
X147261362Y-90079286D02*
X147406505Y-90151858D01*
X147406505Y-90151858D02*
X147624219Y-90151858D01*
X147624219Y-90151858D02*
X147769362Y-90079286D01*
X147769362Y-90079286D02*
X147841933Y-90006715D01*
X147841933Y-90006715D02*
X147914505Y-89861572D01*
X147914505Y-89861572D02*
X147914505Y-89281001D01*
X147116219Y-95195571D02*
X147116219Y-96138999D01*
X147116219Y-96138999D02*
X147696790Y-95630999D01*
X147696790Y-95630999D02*
X147696790Y-95848714D01*
X147696790Y-95848714D02*
X147769362Y-95993857D01*
X147769362Y-95993857D02*
X147841933Y-96066428D01*
X147841933Y-96066428D02*
X147987076Y-96138999D01*
X147987076Y-96138999D02*
X148349933Y-96138999D01*
X148349933Y-96138999D02*
X148495076Y-96066428D01*
X148495076Y-96066428D02*
X148567648Y-95993857D01*
X148567648Y-95993857D02*
X148640219Y-95848714D01*
X148640219Y-95848714D02*
X148640219Y-95413285D01*
X148640219Y-95413285D02*
X148567648Y-95268142D01*
X148567648Y-95268142D02*
X148495076Y-95195571D01*
X147116219Y-97445286D02*
X147116219Y-97155000D01*
X147116219Y-97155000D02*
X147188790Y-97009857D01*
X147188790Y-97009857D02*
X147261362Y-96937286D01*
X147261362Y-96937286D02*
X147479076Y-96792143D01*
X147479076Y-96792143D02*
X147769362Y-96719571D01*
X147769362Y-96719571D02*
X148349933Y-96719571D01*
X148349933Y-96719571D02*
X148495076Y-96792143D01*
X148495076Y-96792143D02*
X148567648Y-96864714D01*
X148567648Y-96864714D02*
X148640219Y-97009857D01*
X148640219Y-97009857D02*
X148640219Y-97300143D01*
X148640219Y-97300143D02*
X148567648Y-97445286D01*
X148567648Y-97445286D02*
X148495076Y-97517857D01*
X148495076Y-97517857D02*
X148349933Y-97590428D01*
X148349933Y-97590428D02*
X147987076Y-97590428D01*
X147987076Y-97590428D02*
X147841933Y-97517857D01*
X147841933Y-97517857D02*
X147769362Y-97445286D01*
X147769362Y-97445286D02*
X147696790Y-97300143D01*
X147696790Y-97300143D02*
X147696790Y-97009857D01*
X147696790Y-97009857D02*
X147769362Y-96864714D01*
X147769362Y-96864714D02*
X147841933Y-96792143D01*
X147841933Y-96792143D02*
X147987076Y-96719571D01*
X147116219Y-98533857D02*
X147116219Y-98679000D01*
X147116219Y-98679000D02*
X147188790Y-98824143D01*
X147188790Y-98824143D02*
X147261362Y-98896715D01*
X147261362Y-98896715D02*
X147406505Y-98969286D01*
X147406505Y-98969286D02*
X147696790Y-99041857D01*
X147696790Y-99041857D02*
X148059648Y-99041857D01*
X148059648Y-99041857D02*
X148349933Y-98969286D01*
X148349933Y-98969286D02*
X148495076Y-98896715D01*
X148495076Y-98896715D02*
X148567648Y-98824143D01*
X148567648Y-98824143D02*
X148640219Y-98679000D01*
X148640219Y-98679000D02*
X148640219Y-98533857D01*
X148640219Y-98533857D02*
X148567648Y-98388715D01*
X148567648Y-98388715D02*
X148495076Y-98316143D01*
X148495076Y-98316143D02*
X148349933Y-98243572D01*
X148349933Y-98243572D02*
X148059648Y-98171000D01*
X148059648Y-98171000D02*
X147696790Y-98171000D01*
X147696790Y-98171000D02*
X147406505Y-98243572D01*
X147406505Y-98243572D02*
X147261362Y-98316143D01*
X147261362Y-98316143D02*
X147188790Y-98388715D01*
X147188790Y-98388715D02*
X147116219Y-98533857D01*
X148640219Y-100565858D02*
X147914505Y-100057858D01*
X148640219Y-99695001D02*
X147116219Y-99695001D01*
X147116219Y-99695001D02*
X147116219Y-100275572D01*
X147116219Y-100275572D02*
X147188790Y-100420715D01*
X147188790Y-100420715D02*
X147261362Y-100493286D01*
X147261362Y-100493286D02*
X147406505Y-100565858D01*
X147406505Y-100565858D02*
X147624219Y-100565858D01*
X147624219Y-100565858D02*
X147769362Y-100493286D01*
X147769362Y-100493286D02*
X147841933Y-100420715D01*
X147841933Y-100420715D02*
X147914505Y-100275572D01*
X147914505Y-100275572D02*
X147914505Y-99695001D01*
D13*
X155704786Y-97394485D02*
X155617700Y-97481571D01*
X155617700Y-97481571D02*
X155530614Y-97655743D01*
X155530614Y-97655743D02*
X155530614Y-98091171D01*
X155530614Y-98091171D02*
X155617700Y-98265343D01*
X155617700Y-98265343D02*
X155704786Y-98352428D01*
X155704786Y-98352428D02*
X155878957Y-98439514D01*
X155878957Y-98439514D02*
X156053129Y-98439514D01*
X156053129Y-98439514D02*
X156314386Y-98352428D01*
X156314386Y-98352428D02*
X157359414Y-97307400D01*
X157359414Y-97307400D02*
X157359414Y-98439514D01*
D14*
X147624219Y-121266857D02*
X148640219Y-121266857D01*
X147043648Y-120903999D02*
X148132219Y-120541142D01*
X148132219Y-120541142D02*
X148132219Y-121484571D01*
X147116219Y-121920000D02*
X147116219Y-122936000D01*
X147116219Y-122936000D02*
X148640219Y-122282857D01*
X147116219Y-124242286D02*
X147116219Y-123516572D01*
X147116219Y-123516572D02*
X147841933Y-123444000D01*
X147841933Y-123444000D02*
X147769362Y-123516572D01*
X147769362Y-123516572D02*
X147696790Y-123661715D01*
X147696790Y-123661715D02*
X147696790Y-124024572D01*
X147696790Y-124024572D02*
X147769362Y-124169715D01*
X147769362Y-124169715D02*
X147841933Y-124242286D01*
X147841933Y-124242286D02*
X147987076Y-124314857D01*
X147987076Y-124314857D02*
X148349933Y-124314857D01*
X148349933Y-124314857D02*
X148495076Y-124242286D01*
X148495076Y-124242286D02*
X148567648Y-124169715D01*
X148567648Y-124169715D02*
X148640219Y-124024572D01*
X148640219Y-124024572D02*
X148640219Y-123661715D01*
X148640219Y-123661715D02*
X148567648Y-123516572D01*
X148567648Y-123516572D02*
X148495076Y-123444000D01*
X148640219Y-125838858D02*
X147914505Y-125330858D01*
X148640219Y-124968001D02*
X147116219Y-124968001D01*
X147116219Y-124968001D02*
X147116219Y-125548572D01*
X147116219Y-125548572D02*
X147188790Y-125693715D01*
X147188790Y-125693715D02*
X147261362Y-125766286D01*
X147261362Y-125766286D02*
X147406505Y-125838858D01*
X147406505Y-125838858D02*
X147624219Y-125838858D01*
X147624219Y-125838858D02*
X147769362Y-125766286D01*
X147769362Y-125766286D02*
X147841933Y-125693715D01*
X147841933Y-125693715D02*
X147914505Y-125548572D01*
X147914505Y-125548572D02*
X147914505Y-124968001D01*
D13*
X156267214Y-108171343D02*
X157486414Y-108171343D01*
X155570529Y-107735914D02*
X156876814Y-107300485D01*
X156876814Y-107300485D02*
X156876814Y-108432600D01*
D15*
X147055672Y-130209443D02*
X146996148Y-130149920D01*
X146996148Y-130149920D02*
X146817577Y-130090396D01*
X146817577Y-130090396D02*
X146698529Y-130090396D01*
X146698529Y-130090396D02*
X146519958Y-130149920D01*
X146519958Y-130149920D02*
X146400910Y-130268967D01*
X146400910Y-130268967D02*
X146341387Y-130388015D01*
X146341387Y-130388015D02*
X146281863Y-130626110D01*
X146281863Y-130626110D02*
X146281863Y-130804681D01*
X146281863Y-130804681D02*
X146341387Y-131042777D01*
X146341387Y-131042777D02*
X146400910Y-131161824D01*
X146400910Y-131161824D02*
X146519958Y-131280872D01*
X146519958Y-131280872D02*
X146698529Y-131340396D01*
X146698529Y-131340396D02*
X146817577Y-131340396D01*
X146817577Y-131340396D02*
X146996148Y-131280872D01*
X146996148Y-131280872D02*
X147055672Y-131221348D01*
X148484244Y-131221348D02*
X148543768Y-131280872D01*
X148543768Y-131280872D02*
X148662815Y-131340396D01*
X148662815Y-131340396D02*
X148960434Y-131340396D01*
X148960434Y-131340396D02*
X149079482Y-131280872D01*
X149079482Y-131280872D02*
X149139006Y-131221348D01*
X149139006Y-131221348D02*
X149198529Y-131102300D01*
X149198529Y-131102300D02*
X149198529Y-130983253D01*
X149198529Y-130983253D02*
X149139006Y-130804681D01*
X149139006Y-130804681D02*
X148424720Y-130090396D01*
X148424720Y-130090396D02*
X149198529Y-130090396D01*
X149972339Y-131340396D02*
X150091386Y-131340396D01*
X150091386Y-131340396D02*
X150210434Y-131280872D01*
X150210434Y-131280872D02*
X150269958Y-131221348D01*
X150269958Y-131221348D02*
X150329482Y-131102300D01*
X150329482Y-131102300D02*
X150389005Y-130864205D01*
X150389005Y-130864205D02*
X150389005Y-130566586D01*
X150389005Y-130566586D02*
X150329482Y-130328491D01*
X150329482Y-130328491D02*
X150269958Y-130209443D01*
X150269958Y-130209443D02*
X150210434Y-130149920D01*
X150210434Y-130149920D02*
X150091386Y-130090396D01*
X150091386Y-130090396D02*
X149972339Y-130090396D01*
X149972339Y-130090396D02*
X149853291Y-130149920D01*
X149853291Y-130149920D02*
X149793767Y-130209443D01*
X149793767Y-130209443D02*
X149734244Y-130328491D01*
X149734244Y-130328491D02*
X149674720Y-130566586D01*
X149674720Y-130566586D02*
X149674720Y-130864205D01*
X149674720Y-130864205D02*
X149734244Y-131102300D01*
X149734244Y-131102300D02*
X149793767Y-131221348D01*
X149793767Y-131221348D02*
X149853291Y-131280872D01*
X149853291Y-131280872D02*
X149972339Y-131340396D01*
X150865196Y-131221348D02*
X150924720Y-131280872D01*
X150924720Y-131280872D02*
X151043767Y-131340396D01*
X151043767Y-131340396D02*
X151341386Y-131340396D01*
X151341386Y-131340396D02*
X151460434Y-131280872D01*
X151460434Y-131280872D02*
X151519958Y-131221348D01*
X151519958Y-131221348D02*
X151579481Y-131102300D01*
X151579481Y-131102300D02*
X151579481Y-130983253D01*
X151579481Y-130983253D02*
X151519958Y-130804681D01*
X151519958Y-130804681D02*
X150805672Y-130090396D01*
X150805672Y-130090396D02*
X151579481Y-130090396D01*
X152650910Y-130923729D02*
X152650910Y-130090396D01*
X152353291Y-131399920D02*
X152055672Y-130507062D01*
X152055672Y-130507062D02*
X152829481Y-130507062D01*
D16*
%TO.C,J126*%
X146558000Y-135763000D02*
G75*
G03*
X145796000Y-135763000I-381000J0D01*
G01*
X145796000Y-135763000D02*
G75*
G03*
X146558000Y-135763000I381000J0D01*
G01*
%TO.C,G\u002A\u002A\u002A*%
G36*
X149981420Y-103046942D02*
G01*
X150102496Y-103061748D01*
X150204366Y-103081989D01*
X150321210Y-103114286D01*
X150433823Y-103155282D01*
X150541846Y-103204591D01*
X150644923Y-103261826D01*
X150742695Y-103326600D01*
X150834804Y-103398527D01*
X150920891Y-103477219D01*
X151000599Y-103562291D01*
X151073571Y-103653354D01*
X151139447Y-103750023D01*
X151197870Y-103851912D01*
X151248481Y-103958632D01*
X151290923Y-104069798D01*
X151324838Y-104185022D01*
X151349868Y-104303919D01*
X151365655Y-104426101D01*
X151366164Y-104432706D01*
X151367232Y-104454828D01*
X151367944Y-104482686D01*
X151368315Y-104514527D01*
X151368365Y-104548592D01*
X151368111Y-104583128D01*
X151367570Y-104616377D01*
X151366760Y-104646585D01*
X151365699Y-104671994D01*
X151364403Y-104690850D01*
X151362892Y-104701396D01*
X151359745Y-104712722D01*
X151133606Y-104712722D01*
X150907467Y-104712722D01*
X150911452Y-104673711D01*
X150913016Y-104654759D01*
X150914681Y-104619007D01*
X150915389Y-104578445D01*
X150915185Y-104535547D01*
X150914114Y-104492790D01*
X150912224Y-104452650D01*
X150909561Y-104417602D01*
X150906169Y-104390123D01*
X150892688Y-104320659D01*
X150865322Y-104221198D01*
X150829198Y-104126647D01*
X150784214Y-104036814D01*
X150730271Y-103951508D01*
X150667267Y-103870536D01*
X150595104Y-103793706D01*
X150563925Y-103764403D01*
X150485997Y-103700077D01*
X150403896Y-103644593D01*
X150317146Y-103597713D01*
X150225272Y-103559197D01*
X150127801Y-103528807D01*
X150024258Y-103506305D01*
X150016066Y-103505002D01*
X149983402Y-103501411D01*
X149943872Y-103498893D01*
X149899886Y-103497447D01*
X149853855Y-103497074D01*
X149808190Y-103497773D01*
X149765301Y-103499544D01*
X149727601Y-103502388D01*
X149697501Y-103506305D01*
X149653829Y-103514687D01*
X149552859Y-103540429D01*
X149457765Y-103574157D01*
X149368072Y-103616109D01*
X149283306Y-103666526D01*
X149202991Y-103725645D01*
X149126654Y-103793706D01*
X149077300Y-103844720D01*
X149011283Y-103924303D01*
X148954360Y-104008157D01*
X148906429Y-104096474D01*
X148867390Y-104189446D01*
X148837144Y-104287265D01*
X148815589Y-104390123D01*
X148813369Y-104406435D01*
X148810431Y-104438975D01*
X148808250Y-104477522D01*
X148806871Y-104519600D01*
X148806341Y-104562734D01*
X148806707Y-104604448D01*
X148808013Y-104642266D01*
X148810306Y-104673711D01*
X148814292Y-104712722D01*
X148588153Y-104712722D01*
X148362014Y-104712722D01*
X148359027Y-104701396D01*
X148358201Y-104696050D01*
X148356872Y-104681329D01*
X148355443Y-104659874D01*
X148354040Y-104633619D01*
X148352787Y-104604498D01*
X148351927Y-104523266D01*
X148358847Y-104402925D01*
X148375351Y-104284242D01*
X148401168Y-104167756D01*
X148436024Y-104054005D01*
X148479649Y-103943529D01*
X148531770Y-103836868D01*
X148592114Y-103734559D01*
X148660411Y-103637143D01*
X148736386Y-103545158D01*
X148819769Y-103459144D01*
X148910288Y-103379639D01*
X149007669Y-103307183D01*
X149055870Y-103275581D01*
X149162293Y-103214396D01*
X149272454Y-103162283D01*
X149385809Y-103119363D01*
X149501812Y-103085759D01*
X149619920Y-103061593D01*
X149739587Y-103046987D01*
X149860268Y-103042062D01*
X149981420Y-103046942D01*
G37*
G36*
X149985211Y-105614690D02*
G01*
X150102496Y-105628930D01*
X150204366Y-105649171D01*
X150321210Y-105681468D01*
X150433823Y-105722464D01*
X150541846Y-105771773D01*
X150644923Y-105829008D01*
X150742695Y-105893782D01*
X150834804Y-105965709D01*
X150920891Y-106044401D01*
X151000599Y-106129472D01*
X151073571Y-106220536D01*
X151139447Y-106317205D01*
X151197870Y-106419094D01*
X151248481Y-106525814D01*
X151290923Y-106636980D01*
X151324838Y-106752204D01*
X151349868Y-106871101D01*
X151365655Y-106993283D01*
X151366743Y-107010213D01*
X151367604Y-107034426D01*
X151368161Y-107063277D01*
X151368426Y-107095132D01*
X151368415Y-107128358D01*
X151368140Y-107161320D01*
X151367616Y-107192385D01*
X151366858Y-107219919D01*
X151365879Y-107242289D01*
X151364693Y-107257861D01*
X151363314Y-107265000D01*
X151363032Y-107265213D01*
X151355647Y-107266367D01*
X151338866Y-107267377D01*
X151313262Y-107268230D01*
X151279408Y-107268915D01*
X151237875Y-107269419D01*
X151189235Y-107269730D01*
X151134062Y-107269837D01*
X150907799Y-107269837D01*
X150911618Y-107240893D01*
X150912908Y-107228502D01*
X150914517Y-107200201D01*
X150915330Y-107165548D01*
X150915394Y-107126886D01*
X150914754Y-107086558D01*
X150913455Y-107046908D01*
X150911543Y-107010277D01*
X150909064Y-106979009D01*
X150906063Y-106955447D01*
X150897091Y-106908311D01*
X150871593Y-106808412D01*
X150838123Y-106714331D01*
X150796388Y-106625490D01*
X150746096Y-106541308D01*
X150686955Y-106461205D01*
X150618674Y-106384601D01*
X150555099Y-106323473D01*
X150484698Y-106265738D01*
X150411242Y-106215905D01*
X150333059Y-106172846D01*
X150248473Y-106135435D01*
X150244772Y-106133985D01*
X150221458Y-106125367D01*
X150195134Y-106116312D01*
X150167880Y-106107461D01*
X150141776Y-106099457D01*
X150118903Y-106092939D01*
X150101341Y-106088551D01*
X150091171Y-106086932D01*
X150090681Y-106090649D01*
X150090140Y-106103721D01*
X150089630Y-106125513D01*
X150089156Y-106155307D01*
X150088726Y-106192380D01*
X150088345Y-106236014D01*
X150088020Y-106285487D01*
X150087756Y-106340080D01*
X150087560Y-106399071D01*
X150087437Y-106461740D01*
X150087395Y-106527367D01*
X150087395Y-106967815D01*
X149860879Y-106967815D01*
X149634363Y-106967815D01*
X149634363Y-106527367D01*
X149634331Y-106470212D01*
X149634219Y-106407113D01*
X149634033Y-106347597D01*
X149633777Y-106292385D01*
X149633459Y-106242198D01*
X149633085Y-106197756D01*
X149632661Y-106159779D01*
X149632193Y-106128988D01*
X149631688Y-106106103D01*
X149631151Y-106091844D01*
X149630588Y-106086932D01*
X149629402Y-106086990D01*
X149617753Y-106089152D01*
X149599086Y-106093969D01*
X149575481Y-106100801D01*
X149549018Y-106109004D01*
X149521777Y-106117939D01*
X149495840Y-106126963D01*
X149473285Y-106135435D01*
X149459248Y-106141098D01*
X149366947Y-106184206D01*
X149280464Y-106235312D01*
X149198949Y-106294909D01*
X149192633Y-106300099D01*
X149163922Y-106325434D01*
X149131983Y-106355869D01*
X149099034Y-106389125D01*
X149067288Y-106422920D01*
X149038962Y-106454974D01*
X149016270Y-106483004D01*
X149015545Y-106483962D01*
X148958276Y-106568010D01*
X148909669Y-106657152D01*
X148869712Y-106751419D01*
X148838391Y-106850841D01*
X148815695Y-106955447D01*
X148813930Y-106967747D01*
X148811218Y-106995985D01*
X148809055Y-107030600D01*
X148807486Y-107069248D01*
X148806557Y-107109584D01*
X148806313Y-107149266D01*
X148806799Y-107185949D01*
X148808062Y-107217290D01*
X148810147Y-107240944D01*
X148813972Y-107269939D01*
X148586147Y-107268630D01*
X148358323Y-107267320D01*
X148353689Y-107191815D01*
X148351575Y-107133732D01*
X148354127Y-107032505D01*
X148364053Y-106928628D01*
X148381028Y-106824362D01*
X148404730Y-106721967D01*
X148434836Y-106623705D01*
X148446255Y-106592027D01*
X148493445Y-106479713D01*
X148549200Y-106372226D01*
X148613093Y-106269996D01*
X148684693Y-106173450D01*
X148763574Y-106083018D01*
X148849307Y-105999126D01*
X148941464Y-105922205D01*
X149039615Y-105852681D01*
X149143334Y-105790984D01*
X149252191Y-105737542D01*
X149365758Y-105692783D01*
X149395035Y-105682958D01*
X149509383Y-105651071D01*
X149626831Y-105628192D01*
X149746122Y-105614430D01*
X149866001Y-105609893D01*
X149985211Y-105614690D01*
G37*
G36*
X146107979Y-79244500D02*
G01*
X146128855Y-79246334D01*
X146148345Y-79249665D01*
X146164675Y-79254292D01*
X146176069Y-79260016D01*
X146179526Y-79262934D01*
X146184536Y-79270942D01*
X146183305Y-79278726D01*
X146176218Y-79285979D01*
X146163662Y-79292396D01*
X146146022Y-79297672D01*
X146123684Y-79301502D01*
X146107822Y-79302881D01*
X146086410Y-79303038D01*
X146066586Y-79301353D01*
X146049378Y-79298042D01*
X146035814Y-79293320D01*
X146026922Y-79287405D01*
X146023730Y-79280511D01*
X146024658Y-79273520D01*
X146031236Y-79262451D01*
X146044142Y-79253710D01*
X146063397Y-79247278D01*
X146069170Y-79246128D01*
X146087492Y-79244364D01*
X146107979Y-79244500D01*
G37*
G36*
X150072151Y-79201581D02*
G01*
X150078095Y-79206683D01*
X150082226Y-79211400D01*
X150089103Y-79221705D01*
X150095274Y-79233426D01*
X150101752Y-79249086D01*
X150109942Y-79271551D01*
X150118930Y-79298394D01*
X150128375Y-79328444D01*
X150137938Y-79360531D01*
X150147279Y-79393485D01*
X150156060Y-79426134D01*
X150163941Y-79457308D01*
X150170581Y-79485837D01*
X150175643Y-79510550D01*
X150178423Y-79527704D01*
X150180220Y-79543872D01*
X150180786Y-79556834D01*
X150180072Y-79565447D01*
X150178033Y-79568572D01*
X150172654Y-79566066D01*
X150165434Y-79556938D01*
X150157135Y-79541131D01*
X150147756Y-79518646D01*
X150137300Y-79489488D01*
X150125767Y-79453656D01*
X150113159Y-79411155D01*
X150103175Y-79375793D01*
X150092483Y-79336370D01*
X150083508Y-79301396D01*
X150076326Y-79271198D01*
X150071010Y-79246104D01*
X150067632Y-79226443D01*
X150066266Y-79212544D01*
X150066986Y-79204733D01*
X150067081Y-79204485D01*
X150069104Y-79200958D01*
X150072151Y-79201581D01*
G37*
G36*
X150779379Y-79206668D02*
G01*
X150786884Y-79216636D01*
X150795713Y-79232629D01*
X150800780Y-79243505D01*
X150810292Y-79266889D01*
X150820453Y-79295014D01*
X150830918Y-79326661D01*
X150841343Y-79360610D01*
X150851384Y-79395643D01*
X150860696Y-79430539D01*
X150868935Y-79464080D01*
X150875756Y-79495046D01*
X150880815Y-79522218D01*
X150883767Y-79544377D01*
X150884294Y-79550214D01*
X150884983Y-79560611D01*
X150884591Y-79566159D01*
X150882886Y-79568199D01*
X150879633Y-79568074D01*
X150875169Y-79565404D01*
X150868240Y-79556373D01*
X150860210Y-79541439D01*
X150851244Y-79521011D01*
X150841504Y-79495497D01*
X150831155Y-79465307D01*
X150820361Y-79430850D01*
X150809286Y-79392536D01*
X150801311Y-79363458D01*
X150791943Y-79328017D01*
X150783933Y-79296157D01*
X150777389Y-79268359D01*
X150772418Y-79245104D01*
X150769128Y-79226873D01*
X150767625Y-79214148D01*
X150768018Y-79207409D01*
X150768985Y-79205397D01*
X150773359Y-79202872D01*
X150779379Y-79206668D01*
G37*
G36*
X146479477Y-79126911D02*
G01*
X146490687Y-79134516D01*
X146497843Y-79145559D01*
X146503274Y-79162527D01*
X146506661Y-79184497D01*
X146507829Y-79210686D01*
X146507879Y-79216376D01*
X146510048Y-79244300D01*
X146515858Y-79267586D01*
X146525898Y-79287470D01*
X146540760Y-79305187D01*
X146561033Y-79321972D01*
X146576212Y-79333681D01*
X146589349Y-79346198D01*
X146596188Y-79356514D01*
X146596770Y-79364678D01*
X146596554Y-79365155D01*
X146592114Y-79369775D01*
X146584539Y-79374794D01*
X146583628Y-79375268D01*
X146578537Y-79377222D01*
X146571537Y-79378716D01*
X146561656Y-79379835D01*
X146547921Y-79380665D01*
X146529360Y-79381291D01*
X146505001Y-79381798D01*
X146436159Y-79382990D01*
X146437608Y-79275201D01*
X146437754Y-79264702D01*
X146438289Y-79233498D01*
X146438956Y-79208122D01*
X146439841Y-79187850D01*
X146441031Y-79171954D01*
X146442612Y-79159709D01*
X146444671Y-79150388D01*
X146447294Y-79143266D01*
X146450568Y-79137616D01*
X146454579Y-79132713D01*
X146457402Y-79130069D01*
X146467960Y-79125407D01*
X146479477Y-79126911D01*
G37*
G36*
X145070688Y-79127261D02*
G01*
X145080128Y-79135636D01*
X145088793Y-79149423D01*
X145096173Y-79168272D01*
X145098035Y-79174683D01*
X145102892Y-79195053D01*
X145107454Y-79219178D01*
X145111643Y-79246111D01*
X145115382Y-79274904D01*
X145118594Y-79304609D01*
X145121202Y-79334277D01*
X145123127Y-79362960D01*
X145124294Y-79389711D01*
X145124624Y-79413581D01*
X145124041Y-79433623D01*
X145122467Y-79448887D01*
X145119824Y-79458427D01*
X145113857Y-79466731D01*
X145105779Y-79473501D01*
X145100158Y-79475780D01*
X145089844Y-79475108D01*
X145080257Y-79467958D01*
X145071533Y-79454510D01*
X145063807Y-79434941D01*
X145057216Y-79409431D01*
X145056580Y-79406340D01*
X145052635Y-79384243D01*
X145048870Y-79358470D01*
X145045380Y-79330173D01*
X145042259Y-79300503D01*
X145039603Y-79270614D01*
X145037506Y-79241656D01*
X145036062Y-79214782D01*
X145035366Y-79191144D01*
X145035512Y-79171894D01*
X145036595Y-79158183D01*
X145037338Y-79154263D01*
X145041019Y-79142640D01*
X145045792Y-79133798D01*
X145051522Y-79128143D01*
X145060982Y-79124647D01*
X145070688Y-79127261D01*
G37*
G36*
X146292067Y-79126683D02*
G01*
X146302937Y-79133170D01*
X146308346Y-79140080D01*
X146312542Y-79149429D01*
X146315693Y-79162221D01*
X146318070Y-79179564D01*
X146319945Y-79202566D01*
X146321426Y-79219991D01*
X146326742Y-79253298D01*
X146335271Y-79281917D01*
X146347368Y-79306887D01*
X146363391Y-79329249D01*
X146370333Y-79337648D01*
X146379709Y-79350412D01*
X146384342Y-79359868D01*
X146384370Y-79366866D01*
X146379933Y-79372259D01*
X146371168Y-79376898D01*
X146357977Y-79384260D01*
X146348601Y-79394270D01*
X146345334Y-79405553D01*
X146346244Y-79412231D01*
X146351508Y-79420164D01*
X146362045Y-79425653D01*
X146378520Y-79429170D01*
X146385309Y-79430306D01*
X146400448Y-79435067D01*
X146409826Y-79441993D01*
X146413041Y-79450834D01*
X146412050Y-79457775D01*
X146405889Y-79467408D01*
X146394639Y-79473814D01*
X146378938Y-79476819D01*
X146359424Y-79476244D01*
X146336736Y-79471915D01*
X146329317Y-79469867D01*
X146310567Y-79462959D01*
X146296444Y-79454124D01*
X146285339Y-79442145D01*
X146275643Y-79425809D01*
X146267680Y-79411840D01*
X146257746Y-79397170D01*
X146248264Y-79385486D01*
X146240467Y-79376119D01*
X146233807Y-79363080D01*
X146233065Y-79350239D01*
X146237972Y-79336319D01*
X146241100Y-79329467D01*
X146245362Y-79316100D01*
X146248411Y-79299727D01*
X146250357Y-79279418D01*
X146251311Y-79254242D01*
X146251383Y-79223270D01*
X146251289Y-79205055D01*
X146251578Y-79181846D01*
X146252500Y-79164036D01*
X146254177Y-79150801D01*
X146256729Y-79141317D01*
X146260275Y-79134757D01*
X146264937Y-79130298D01*
X146266743Y-79129141D01*
X146279128Y-79125274D01*
X146292067Y-79126683D01*
G37*
G36*
X151456148Y-79205809D02*
G01*
X151484723Y-79213230D01*
X151511107Y-79224849D01*
X151534282Y-79240260D01*
X151553228Y-79259053D01*
X151566929Y-79280821D01*
X151567186Y-79281378D01*
X151573033Y-79297235D01*
X151575444Y-79311074D01*
X151574347Y-79321668D01*
X151569670Y-79327788D01*
X151564124Y-79329204D01*
X151555650Y-79327330D01*
X151544707Y-79321198D01*
X151530706Y-79310465D01*
X151513061Y-79294789D01*
X151497883Y-79281329D01*
X151477095Y-79265571D01*
X151458090Y-79254914D01*
X151439944Y-79248873D01*
X151421734Y-79246968D01*
X151419045Y-79247005D01*
X151395708Y-79250812D01*
X151374989Y-79260618D01*
X151357202Y-79276080D01*
X151342661Y-79296855D01*
X151331681Y-79322602D01*
X151324575Y-79352976D01*
X151324432Y-79353917D01*
X151322689Y-79378282D01*
X151323760Y-79405784D01*
X151327412Y-79433638D01*
X151333415Y-79459061D01*
X151342512Y-79481251D01*
X151356421Y-79501190D01*
X151373904Y-79515842D01*
X151394504Y-79524836D01*
X151417765Y-79527800D01*
X151430185Y-79527216D01*
X151443899Y-79524921D01*
X151457569Y-79520364D01*
X151472478Y-79512993D01*
X151489907Y-79502256D01*
X151511140Y-79487601D01*
X151526668Y-79477813D01*
X151542117Y-79470914D01*
X151555079Y-79468220D01*
X151564750Y-79469889D01*
X151570326Y-79476075D01*
X151570586Y-79481347D01*
X151567360Y-79491484D01*
X151560811Y-79503801D01*
X151551767Y-79516802D01*
X151541056Y-79528987D01*
X151530676Y-79538309D01*
X151506381Y-79553853D01*
X151479355Y-79564107D01*
X151450548Y-79569120D01*
X151420909Y-79568940D01*
X151391386Y-79563617D01*
X151362930Y-79553198D01*
X151336489Y-79537734D01*
X151313013Y-79517272D01*
X151311871Y-79516053D01*
X151290132Y-79488092D01*
X151273829Y-79457345D01*
X151263098Y-79424708D01*
X151258078Y-79391076D01*
X151258904Y-79357342D01*
X151265715Y-79324401D01*
X151278648Y-79293149D01*
X151286820Y-79279422D01*
X151306639Y-79254563D01*
X151330262Y-79233703D01*
X151356553Y-79217762D01*
X151384372Y-79207661D01*
X151396503Y-79205197D01*
X151426402Y-79202995D01*
X151456148Y-79205809D01*
G37*
G36*
X149652603Y-79204526D02*
G01*
X149672822Y-79211283D01*
X149684537Y-79218340D01*
X149704206Y-79235791D01*
X149721600Y-79258721D01*
X149736213Y-79286403D01*
X149747537Y-79318114D01*
X149749079Y-79323967D01*
X149753513Y-79347486D01*
X149756227Y-79373496D01*
X149757122Y-79399766D01*
X149756102Y-79424065D01*
X149753067Y-79444162D01*
X149752522Y-79446411D01*
X149742632Y-79475846D01*
X149728772Y-79502037D01*
X149711600Y-79524559D01*
X149691773Y-79542988D01*
X149669949Y-79556896D01*
X149646784Y-79565859D01*
X149622938Y-79569452D01*
X149599066Y-79567249D01*
X149575828Y-79558825D01*
X149566594Y-79553343D01*
X149552453Y-79540887D01*
X149541330Y-79524642D01*
X149533035Y-79504079D01*
X149527379Y-79478664D01*
X149524173Y-79447867D01*
X149523226Y-79411155D01*
X149523306Y-79406679D01*
X149573499Y-79406679D01*
X149573587Y-79430077D01*
X149574783Y-79448827D01*
X149578116Y-79470550D01*
X149583842Y-79490392D01*
X149592030Y-79504764D01*
X149603202Y-79514275D01*
X149617880Y-79519539D01*
X149636587Y-79521165D01*
X149648232Y-79520927D01*
X149657104Y-79519637D01*
X149663854Y-79516563D01*
X149670936Y-79510979D01*
X149675664Y-79506189D01*
X149685941Y-79490096D01*
X149694250Y-79467842D01*
X149700628Y-79439311D01*
X149705112Y-79404385D01*
X149705954Y-79383899D01*
X149704032Y-79356278D01*
X149698978Y-79329457D01*
X149691183Y-79304610D01*
X149681032Y-79282909D01*
X149668916Y-79265528D01*
X149655221Y-79253639D01*
X149643591Y-79248936D01*
X149629536Y-79246980D01*
X149627864Y-79246991D01*
X149618443Y-79248060D01*
X149610821Y-79251833D01*
X149602065Y-79259662D01*
X149598744Y-79263142D01*
X149592297Y-79271811D01*
X149587727Y-79282226D01*
X149583807Y-79296888D01*
X149581840Y-79306795D01*
X149578689Y-79328690D01*
X149576169Y-79353976D01*
X149574399Y-79380642D01*
X149573499Y-79406679D01*
X149523306Y-79406679D01*
X149523546Y-79393179D01*
X149526269Y-79353908D01*
X149531635Y-79318433D01*
X149539489Y-79287295D01*
X149549676Y-79261038D01*
X149562040Y-79240205D01*
X149576426Y-79225337D01*
X149578714Y-79223658D01*
X149590671Y-79216048D01*
X149602830Y-79209648D01*
X149609480Y-79207048D01*
X149630676Y-79203095D01*
X149652603Y-79204526D01*
G37*
G36*
X145311494Y-79134252D02*
G01*
X145331207Y-79136178D01*
X145347323Y-79139395D01*
X145350003Y-79140289D01*
X145361311Y-79145754D01*
X145371867Y-79152904D01*
X145377538Y-79158292D01*
X145383297Y-79168067D01*
X145382625Y-79177001D01*
X145375472Y-79184631D01*
X145372594Y-79186382D01*
X145367955Y-79188110D01*
X145361946Y-79188385D01*
X145352821Y-79187203D01*
X145338833Y-79184561D01*
X145324541Y-79182183D01*
X145304978Y-79181259D01*
X145286847Y-79184042D01*
X145267404Y-79190770D01*
X145256055Y-79196887D01*
X145242935Y-79207238D01*
X145231882Y-79219327D01*
X145224255Y-79231624D01*
X145221411Y-79242600D01*
X145221533Y-79244163D01*
X145224570Y-79249722D01*
X145232030Y-79254330D01*
X145244379Y-79258100D01*
X145262086Y-79261147D01*
X145285618Y-79263584D01*
X145315443Y-79265525D01*
X145317909Y-79265659D01*
X145347020Y-79268146D01*
X145369920Y-79272100D01*
X145387020Y-79277701D01*
X145398727Y-79285130D01*
X145405452Y-79294566D01*
X145407603Y-79306191D01*
X145406759Y-79314811D01*
X145401489Y-79329609D01*
X145391005Y-79345797D01*
X145374868Y-79364156D01*
X145371478Y-79367556D01*
X145348379Y-79386129D01*
X145324147Y-79398122D01*
X145299142Y-79403543D01*
X145273724Y-79402401D01*
X145248254Y-79394707D01*
X145223092Y-79380468D01*
X145198600Y-79359694D01*
X145182374Y-79341246D01*
X145166145Y-79315692D01*
X145165379Y-79313736D01*
X145245022Y-79313736D01*
X145248282Y-79325592D01*
X145258047Y-79338964D01*
X145261413Y-79342490D01*
X145269034Y-79349121D01*
X145276157Y-79352128D01*
X145285397Y-79352835D01*
X145300259Y-79350358D01*
X145313496Y-79342289D01*
X145325651Y-79328038D01*
X145327040Y-79325916D01*
X145331861Y-79314646D01*
X145330527Y-79305458D01*
X145322970Y-79297571D01*
X145321666Y-79296712D01*
X145308198Y-79291503D01*
X145291106Y-79289611D01*
X145272562Y-79291304D01*
X145257539Y-79296150D01*
X145248148Y-79303791D01*
X145245022Y-79313736D01*
X145165379Y-79313736D01*
X145155743Y-79289133D01*
X145151441Y-79262325D01*
X145153517Y-79236022D01*
X145158840Y-79218052D01*
X145171560Y-79194184D01*
X145189638Y-79173467D01*
X145212471Y-79156424D01*
X145239452Y-79143576D01*
X145269979Y-79135445D01*
X145273586Y-79134903D01*
X145291261Y-79133774D01*
X145311494Y-79134252D01*
G37*
G36*
X149908376Y-79222034D02*
G01*
X149924473Y-79222474D01*
X149952995Y-79223536D01*
X149974754Y-79224792D01*
X149989752Y-79226244D01*
X149997992Y-79227893D01*
X149999477Y-79229739D01*
X149994209Y-79231782D01*
X149982192Y-79234024D01*
X149963428Y-79236466D01*
X149941577Y-79239280D01*
X149918086Y-79243389D01*
X149900585Y-79248059D01*
X149888632Y-79253452D01*
X149881785Y-79259730D01*
X149879601Y-79267053D01*
X149880092Y-79270567D01*
X149883731Y-79278784D01*
X149891208Y-79289588D01*
X149902870Y-79303408D01*
X149919065Y-79320674D01*
X149940140Y-79341815D01*
X149956209Y-79357993D01*
X149981777Y-79385909D01*
X150001554Y-79410813D01*
X150015488Y-79432632D01*
X150023522Y-79451297D01*
X150026248Y-79461429D01*
X150028207Y-79474971D01*
X150027204Y-79488098D01*
X150023222Y-79504053D01*
X150017275Y-79518363D01*
X150003864Y-79536499D01*
X149985409Y-79551219D01*
X149962732Y-79561738D01*
X149948265Y-79565528D01*
X149924156Y-79568441D01*
X149899461Y-79567995D01*
X149876384Y-79564279D01*
X149857129Y-79557384D01*
X149850990Y-79553954D01*
X149832078Y-79538742D01*
X149817617Y-79519412D01*
X149808375Y-79497206D01*
X149805124Y-79473369D01*
X149805127Y-79472654D01*
X149806282Y-79462251D01*
X149809676Y-79457693D01*
X149815524Y-79459025D01*
X149824040Y-79466289D01*
X149835440Y-79479531D01*
X149847870Y-79492419D01*
X149868600Y-79506129D01*
X149892281Y-79514633D01*
X149917709Y-79517542D01*
X149943678Y-79514466D01*
X149945052Y-79514121D01*
X149960321Y-79508103D01*
X149972886Y-79499329D01*
X149981407Y-79488987D01*
X149984545Y-79478263D01*
X149983460Y-79472021D01*
X149978499Y-79459767D01*
X149970195Y-79444767D01*
X149959291Y-79428323D01*
X149946533Y-79411738D01*
X149941412Y-79405865D01*
X149931705Y-79395225D01*
X149918771Y-79381352D01*
X149903425Y-79365113D01*
X149886481Y-79347374D01*
X149868753Y-79329001D01*
X149846250Y-79305727D01*
X149827048Y-79285661D01*
X149811880Y-79269502D01*
X149800364Y-79256799D01*
X149792117Y-79247102D01*
X149786756Y-79239959D01*
X149783898Y-79234919D01*
X149783159Y-79231530D01*
X149784158Y-79229341D01*
X149785839Y-79228417D01*
X149793428Y-79226435D01*
X149805188Y-79224553D01*
X149819386Y-79223080D01*
X149825848Y-79222665D01*
X149843007Y-79222032D01*
X149863856Y-79221700D01*
X149886333Y-79221692D01*
X149908376Y-79222034D01*
G37*
G36*
X145846381Y-79137357D02*
G01*
X145867379Y-79138772D01*
X145886936Y-79140883D01*
X145903160Y-79143606D01*
X145919259Y-79147584D01*
X145939106Y-79154903D01*
X145953367Y-79164244D01*
X145962728Y-79176310D01*
X145967874Y-79191803D01*
X145969493Y-79211422D01*
X145969494Y-79211606D01*
X145970131Y-79230111D01*
X145971866Y-79254760D01*
X145974651Y-79285028D01*
X145978439Y-79320392D01*
X145983181Y-79360329D01*
X145984255Y-79369312D01*
X145986474Y-79389945D01*
X145988257Y-79409420D01*
X145989445Y-79425888D01*
X145989877Y-79437499D01*
X145989707Y-79447653D01*
X145988652Y-79457020D01*
X145986128Y-79463373D01*
X145981567Y-79468859D01*
X145980346Y-79470005D01*
X145969287Y-79475795D01*
X145956623Y-79476535D01*
X145943968Y-79472926D01*
X145932933Y-79465670D01*
X145925130Y-79455467D01*
X145922170Y-79443019D01*
X145922073Y-79441289D01*
X145918431Y-79430663D01*
X145910854Y-79420177D01*
X145901160Y-79412474D01*
X145898876Y-79411597D01*
X145890000Y-79409585D01*
X145877222Y-79407625D01*
X145862481Y-79406039D01*
X145836823Y-79402305D01*
X145811017Y-79394094D01*
X145787658Y-79380925D01*
X145764923Y-79361976D01*
X145763266Y-79360366D01*
X145741263Y-79334326D01*
X145725297Y-79305593D01*
X145715568Y-79274627D01*
X145712281Y-79241890D01*
X145712357Y-79240313D01*
X145783880Y-79240313D01*
X145784338Y-79264236D01*
X145788608Y-79284320D01*
X145797366Y-79302266D01*
X145811276Y-79320005D01*
X145813197Y-79322061D01*
X145827112Y-79334731D01*
X145842001Y-79345106D01*
X145856714Y-79352683D01*
X145870102Y-79356961D01*
X145881017Y-79357439D01*
X145888308Y-79353616D01*
X145891069Y-79346957D01*
X145893131Y-79334990D01*
X145894316Y-79319444D01*
X145894559Y-79301921D01*
X145893790Y-79284022D01*
X145891944Y-79267351D01*
X145887623Y-79246841D01*
X145880659Y-79229160D01*
X145870953Y-79216255D01*
X145857978Y-79207190D01*
X145851526Y-79204296D01*
X145837664Y-79200649D01*
X145820418Y-79199573D01*
X145816440Y-79199606D01*
X145802880Y-79200744D01*
X145793812Y-79204304D01*
X145788269Y-79211365D01*
X145785281Y-79223008D01*
X145783880Y-79240313D01*
X145712357Y-79240313D01*
X145713074Y-79225382D01*
X145718484Y-79199065D01*
X145728981Y-79177182D01*
X145744524Y-79159785D01*
X145765074Y-79146927D01*
X145790589Y-79138661D01*
X145793655Y-79138117D01*
X145807627Y-79136946D01*
X145825833Y-79136721D01*
X145846381Y-79137357D01*
G37*
G36*
X149367586Y-79200525D02*
G01*
X149390749Y-79209895D01*
X149393668Y-79211412D01*
X149417243Y-79227012D01*
X149434880Y-79245505D01*
X149446413Y-79266719D01*
X149447928Y-79270810D01*
X149453976Y-79288606D01*
X149458409Y-79305150D01*
X149461465Y-79322044D01*
X149463379Y-79340890D01*
X149464388Y-79363289D01*
X149464728Y-79390843D01*
X149464738Y-79395511D01*
X149464663Y-79417292D01*
X149464279Y-79433987D01*
X149463464Y-79447017D01*
X149462094Y-79457803D01*
X149460048Y-79467767D01*
X149457204Y-79478331D01*
X149453639Y-79490201D01*
X149448198Y-79505701D01*
X149442573Y-79517433D01*
X149435838Y-79527194D01*
X149427066Y-79536782D01*
X149426315Y-79537522D01*
X149407626Y-79551379D01*
X149384924Y-79561331D01*
X149359914Y-79566984D01*
X149334303Y-79567945D01*
X149309797Y-79563821D01*
X149297747Y-79559316D01*
X149278894Y-79547248D01*
X149264464Y-79530849D01*
X149255387Y-79511022D01*
X149254557Y-79508041D01*
X149248287Y-79477376D01*
X149244533Y-79442437D01*
X149243901Y-79424013D01*
X149295719Y-79424013D01*
X149295822Y-79442991D01*
X149296133Y-79457179D01*
X149296745Y-79467598D01*
X149297754Y-79475274D01*
X149299253Y-79481229D01*
X149301336Y-79486488D01*
X149304097Y-79492074D01*
X149312912Y-79505321D01*
X149324357Y-79514854D01*
X149327157Y-79516193D01*
X149341383Y-79520067D01*
X149357750Y-79521218D01*
X149373487Y-79519629D01*
X149385821Y-79515280D01*
X149394540Y-79507250D01*
X149403317Y-79493329D01*
X149411065Y-79475000D01*
X149417170Y-79453472D01*
X149420138Y-79438459D01*
X149424068Y-79404698D01*
X149424264Y-79372006D01*
X149420906Y-79341242D01*
X149414174Y-79313267D01*
X149404248Y-79288941D01*
X149391308Y-79269123D01*
X149375535Y-79254675D01*
X149368972Y-79251065D01*
X149353975Y-79247161D01*
X149339048Y-79248149D01*
X149326464Y-79254058D01*
X149321846Y-79258079D01*
X149314077Y-79267429D01*
X149307898Y-79279303D01*
X149303163Y-79294400D01*
X149299725Y-79313424D01*
X149297438Y-79337076D01*
X149296154Y-79366057D01*
X149295727Y-79401070D01*
X149295719Y-79424013D01*
X149243901Y-79424013D01*
X149243249Y-79405003D01*
X149244387Y-79366850D01*
X149247900Y-79329757D01*
X149253742Y-79295499D01*
X149261865Y-79265856D01*
X149263124Y-79262391D01*
X149275632Y-79238658D01*
X149293324Y-79219238D01*
X149315944Y-79204421D01*
X149327087Y-79199976D01*
X149346597Y-79197236D01*
X149367586Y-79200525D01*
G37*
G36*
X145596086Y-79136324D02*
G01*
X145614895Y-79136622D01*
X145629809Y-79137121D01*
X145640273Y-79137952D01*
X145647493Y-79139263D01*
X145652674Y-79141207D01*
X145657022Y-79143934D01*
X145661831Y-79147872D01*
X145668389Y-79155615D01*
X145673377Y-79165739D01*
X145677155Y-79179342D01*
X145680086Y-79197519D01*
X145682530Y-79221369D01*
X145683516Y-79234742D01*
X145684481Y-79268167D01*
X145683196Y-79298678D01*
X145679776Y-79325545D01*
X145674338Y-79348040D01*
X145666996Y-79365432D01*
X145657866Y-79376993D01*
X145651410Y-79381700D01*
X145632327Y-79390879D01*
X145607180Y-79398023D01*
X145576270Y-79403037D01*
X145554274Y-79404724D01*
X145531428Y-79404633D01*
X145510654Y-79402716D01*
X145492881Y-79399164D01*
X145479036Y-79394167D01*
X145470048Y-79387914D01*
X145466846Y-79380598D01*
X145468072Y-79375667D01*
X145473436Y-79370987D01*
X145483634Y-79367847D01*
X145499285Y-79366075D01*
X145521011Y-79365498D01*
X145532998Y-79365345D01*
X145552416Y-79364113D01*
X145566331Y-79361388D01*
X145575535Y-79356857D01*
X145580821Y-79350209D01*
X145582984Y-79341131D01*
X145582975Y-79335806D01*
X145579966Y-79325537D01*
X145572524Y-79315462D01*
X145560121Y-79305095D01*
X145542231Y-79293951D01*
X145518326Y-79281544D01*
X145517370Y-79281077D01*
X145500207Y-79272271D01*
X145483695Y-79263106D01*
X145469672Y-79254638D01*
X145459973Y-79247925D01*
X145447850Y-79236844D01*
X145436888Y-79221532D01*
X145434863Y-79214822D01*
X145502613Y-79214822D01*
X145507413Y-79229933D01*
X145511885Y-79235857D01*
X145522869Y-79244355D01*
X145537244Y-79251633D01*
X145552993Y-79256737D01*
X145568104Y-79258709D01*
X145571328Y-79258707D01*
X145580524Y-79257996D01*
X145585788Y-79255504D01*
X145589359Y-79250353D01*
X145590339Y-79248147D01*
X145593083Y-79235662D01*
X145593536Y-79220369D01*
X145591772Y-79205129D01*
X145587865Y-79192803D01*
X145581771Y-79184077D01*
X145570098Y-79176913D01*
X145568744Y-79176466D01*
X145550588Y-79173107D01*
X145534174Y-79174588D01*
X145520337Y-79180205D01*
X145509908Y-79189253D01*
X145503723Y-79201027D01*
X145502613Y-79214822D01*
X145434863Y-79214822D01*
X145432329Y-79206423D01*
X145433965Y-79191850D01*
X145441590Y-79178146D01*
X145454994Y-79165646D01*
X145473973Y-79154682D01*
X145498318Y-79145588D01*
X145527822Y-79138698D01*
X145530537Y-79138303D01*
X145542032Y-79137351D01*
X145557942Y-79136664D01*
X145576537Y-79136302D01*
X145596086Y-79136324D01*
G37*
G36*
X149063444Y-79224072D02*
G01*
X149096144Y-79224299D01*
X149122259Y-79224832D01*
X149141766Y-79225667D01*
X149154642Y-79226798D01*
X149160865Y-79228222D01*
X149160412Y-79229935D01*
X149153262Y-79231931D01*
X149139391Y-79234206D01*
X149118778Y-79236755D01*
X149102310Y-79238808D01*
X149079437Y-79242468D01*
X149060354Y-79246545D01*
X149045804Y-79250843D01*
X149036529Y-79255166D01*
X149033272Y-79259319D01*
X149034452Y-79262346D01*
X149039621Y-79270362D01*
X149048419Y-79282253D01*
X149060320Y-79297355D01*
X149074799Y-79315005D01*
X149091328Y-79334541D01*
X149109382Y-79355298D01*
X149127959Y-79376541D01*
X149149079Y-79401459D01*
X149165800Y-79422576D01*
X149178313Y-79440489D01*
X149186810Y-79455796D01*
X149191482Y-79469094D01*
X149192521Y-79480982D01*
X149190119Y-79492058D01*
X149184466Y-79502919D01*
X149175755Y-79514164D01*
X149164176Y-79526390D01*
X149162342Y-79528207D01*
X149144662Y-79544048D01*
X149128024Y-79555025D01*
X149110535Y-79561906D01*
X149090302Y-79565460D01*
X149065433Y-79566455D01*
X149049969Y-79566131D01*
X149032629Y-79564356D01*
X149018800Y-79560516D01*
X149006625Y-79554037D01*
X148994250Y-79544341D01*
X148991666Y-79541926D01*
X148981796Y-79529934D01*
X148973387Y-79515610D01*
X148966995Y-79500476D01*
X148963174Y-79486054D01*
X148962480Y-79473867D01*
X148965468Y-79465439D01*
X148967496Y-79463534D01*
X148971431Y-79462540D01*
X148976890Y-79464512D01*
X148984659Y-79469934D01*
X148995525Y-79479291D01*
X149010273Y-79493068D01*
X149016544Y-79498898D01*
X149036821Y-79515364D01*
X149055084Y-79525958D01*
X149071972Y-79530895D01*
X149088124Y-79530390D01*
X149104179Y-79524658D01*
X149107135Y-79523073D01*
X149122153Y-79511467D01*
X149130992Y-79497113D01*
X149133597Y-79480149D01*
X149129911Y-79460716D01*
X149127340Y-79453909D01*
X149120163Y-79439683D01*
X149109753Y-79423665D01*
X149095713Y-79405351D01*
X149077644Y-79384237D01*
X149055150Y-79359822D01*
X149027831Y-79331600D01*
X149026466Y-79330214D01*
X148999747Y-79302861D01*
X148977798Y-79279891D01*
X148960657Y-79261346D01*
X148948365Y-79247272D01*
X148940961Y-79237710D01*
X148938484Y-79232706D01*
X148940166Y-79230762D01*
X148946101Y-79228545D01*
X148951381Y-79227420D01*
X148960488Y-79225487D01*
X148964625Y-79225147D01*
X148974860Y-79224795D01*
X148990025Y-79224495D01*
X149009138Y-79224264D01*
X149031216Y-79224115D01*
X149055277Y-79224064D01*
X149063444Y-79224072D01*
G37*
G36*
X146786493Y-79130393D02*
G01*
X146789320Y-79130612D01*
X146812829Y-79135039D01*
X146831603Y-79143658D01*
X146845297Y-79156253D01*
X146853566Y-79172607D01*
X146854070Y-79174328D01*
X146855967Y-79183721D01*
X146854630Y-79189369D01*
X146849261Y-79191674D01*
X146839062Y-79191036D01*
X146823238Y-79187856D01*
X146815531Y-79186134D01*
X146803836Y-79183992D01*
X146794472Y-79183497D01*
X146784632Y-79184621D01*
X146771512Y-79187336D01*
X146752146Y-79192821D01*
X146731271Y-79201798D01*
X146714236Y-79212699D01*
X146702017Y-79224877D01*
X146695592Y-79237683D01*
X146694851Y-79241317D01*
X146695501Y-79245854D01*
X146699773Y-79249529D01*
X146709018Y-79253982D01*
X146710954Y-79254803D01*
X146718850Y-79257438D01*
X146728672Y-79259499D01*
X146741631Y-79261150D01*
X146758937Y-79262556D01*
X146781803Y-79263882D01*
X146798236Y-79264795D01*
X146821170Y-79266454D01*
X146838747Y-79268419D01*
X146851857Y-79270875D01*
X146861386Y-79274008D01*
X146868225Y-79278005D01*
X146873262Y-79283051D01*
X146878228Y-79293262D01*
X146880259Y-79308159D01*
X146878568Y-79324667D01*
X146873160Y-79340649D01*
X146864048Y-79354833D01*
X146847877Y-79370999D01*
X146827576Y-79385001D01*
X146804582Y-79396036D01*
X146780331Y-79403301D01*
X146756258Y-79405994D01*
X146745345Y-79404787D01*
X146726973Y-79398562D01*
X146707350Y-79387822D01*
X146687636Y-79373447D01*
X146668991Y-79356320D01*
X146652573Y-79337319D01*
X146641695Y-79320629D01*
X146719500Y-79320629D01*
X146724508Y-79332147D01*
X146733857Y-79342568D01*
X146746881Y-79350510D01*
X146749127Y-79351367D01*
X146763383Y-79352819D01*
X146778000Y-79348186D01*
X146791694Y-79337831D01*
X146792800Y-79336674D01*
X146801753Y-79324106D01*
X146804692Y-79312421D01*
X146801603Y-79302337D01*
X146792474Y-79294570D01*
X146789129Y-79293068D01*
X146775790Y-79289996D01*
X146760393Y-79289556D01*
X146745089Y-79291523D01*
X146732029Y-79295673D01*
X146723364Y-79301780D01*
X146719502Y-79309397D01*
X146719500Y-79320629D01*
X146641695Y-79320629D01*
X146639542Y-79317326D01*
X146635577Y-79309813D01*
X146631463Y-79300509D01*
X146629187Y-79291636D01*
X146628214Y-79280795D01*
X146628008Y-79265587D01*
X146628091Y-79254523D01*
X146628764Y-79242608D01*
X146630585Y-79233365D01*
X146634100Y-79224373D01*
X146639857Y-79213209D01*
X146645699Y-79203244D01*
X146665545Y-79177800D01*
X146689569Y-79157072D01*
X146716971Y-79141665D01*
X146746948Y-79132186D01*
X146756451Y-79130880D01*
X146771529Y-79130082D01*
X146786493Y-79130393D01*
G37*
G36*
X147089021Y-79133857D02*
G01*
X147108243Y-79141549D01*
X147122884Y-79152696D01*
X147123588Y-79153469D01*
X147130615Y-79163556D01*
X147134855Y-79174060D01*
X147136088Y-79183454D01*
X147134095Y-79190211D01*
X147128655Y-79192803D01*
X147123510Y-79192116D01*
X147113727Y-79190129D01*
X147101737Y-79187297D01*
X147097054Y-79186160D01*
X147084016Y-79183829D01*
X147072480Y-79183742D01*
X147058724Y-79185766D01*
X147055482Y-79186420D01*
X147034893Y-79192395D01*
X147015014Y-79200938D01*
X146997860Y-79211058D01*
X146985448Y-79221765D01*
X146984760Y-79222555D01*
X146977102Y-79233240D01*
X146975388Y-79241430D01*
X146979763Y-79248080D01*
X146990372Y-79254147D01*
X146991584Y-79254668D01*
X146999396Y-79257330D01*
X147009237Y-79259423D01*
X147022291Y-79261107D01*
X147039745Y-79262540D01*
X147062784Y-79263882D01*
X147079217Y-79264795D01*
X147102151Y-79266454D01*
X147119728Y-79268419D01*
X147132838Y-79270875D01*
X147142367Y-79274008D01*
X147149206Y-79278005D01*
X147154243Y-79283051D01*
X147155285Y-79284502D01*
X147159971Y-79296549D01*
X147161339Y-79311952D01*
X147159395Y-79328513D01*
X147154140Y-79344035D01*
X147145548Y-79357975D01*
X147129153Y-79374587D01*
X147108702Y-79387472D01*
X147085291Y-79396355D01*
X147060020Y-79400965D01*
X147033984Y-79401026D01*
X147008282Y-79396267D01*
X146984010Y-79386414D01*
X146981493Y-79384988D01*
X146965409Y-79373116D01*
X146949319Y-79357209D01*
X146935088Y-79339305D01*
X146924580Y-79321444D01*
X146921195Y-79313701D01*
X146920250Y-79310773D01*
X146999456Y-79310773D01*
X147000564Y-79321723D01*
X147006069Y-79332954D01*
X147015329Y-79343034D01*
X147027704Y-79350534D01*
X147029632Y-79351262D01*
X147041795Y-79352803D01*
X147053955Y-79350043D01*
X147065214Y-79343955D01*
X147074674Y-79335511D01*
X147081437Y-79325684D01*
X147084604Y-79315446D01*
X147083279Y-79305770D01*
X147076562Y-79297628D01*
X147075280Y-79296758D01*
X147062770Y-79291760D01*
X147047144Y-79289645D01*
X147030744Y-79290341D01*
X147015914Y-79293773D01*
X147004996Y-79299869D01*
X147003387Y-79301534D01*
X146999456Y-79310773D01*
X146920250Y-79310773D01*
X146918412Y-79305076D01*
X146916790Y-79295467D01*
X146916025Y-79282946D01*
X146915817Y-79265587D01*
X146915939Y-79249168D01*
X146916593Y-79236575D01*
X146918091Y-79226966D01*
X146920743Y-79218399D01*
X146924860Y-79208931D01*
X146934363Y-79192591D01*
X146952331Y-79171867D01*
X146974700Y-79154263D01*
X147000187Y-79140738D01*
X147027509Y-79132249D01*
X147042494Y-79130049D01*
X147066634Y-79129922D01*
X147089021Y-79133857D01*
G37*
G36*
X150346002Y-79197619D02*
G01*
X150366359Y-79204283D01*
X150367076Y-79204650D01*
X150388414Y-79219312D01*
X150407512Y-79239642D01*
X150423989Y-79264819D01*
X150437465Y-79294025D01*
X150447560Y-79326439D01*
X150453894Y-79361242D01*
X150456085Y-79397614D01*
X150454530Y-79428040D01*
X150448145Y-79462734D01*
X150436888Y-79492985D01*
X150420825Y-79518662D01*
X150400025Y-79539635D01*
X150374553Y-79555774D01*
X150368327Y-79558774D01*
X150357893Y-79563113D01*
X150348291Y-79565554D01*
X150336989Y-79566625D01*
X150321455Y-79566855D01*
X150316308Y-79566803D01*
X150295575Y-79565120D01*
X150279225Y-79560578D01*
X150265554Y-79552516D01*
X150252858Y-79540274D01*
X150245996Y-79531013D01*
X150236196Y-79510566D01*
X150229777Y-79486472D01*
X150226971Y-79460276D01*
X150227300Y-79451779D01*
X150275831Y-79451779D01*
X150278200Y-79473844D01*
X150285553Y-79492713D01*
X150297616Y-79507004D01*
X150314112Y-79516393D01*
X150334764Y-79520555D01*
X150337857Y-79520709D01*
X150359244Y-79518857D01*
X150376548Y-79511616D01*
X150389831Y-79498945D01*
X150399157Y-79480807D01*
X150403242Y-79463709D01*
X150403285Y-79442955D01*
X150398271Y-79423658D01*
X150388697Y-79406965D01*
X150375064Y-79394021D01*
X150357869Y-79385969D01*
X150354241Y-79385044D01*
X150333154Y-79383105D01*
X150314355Y-79387127D01*
X150298535Y-79396558D01*
X150286381Y-79410846D01*
X150278583Y-79429437D01*
X150275831Y-79451779D01*
X150227300Y-79451779D01*
X150228006Y-79433527D01*
X150233115Y-79407770D01*
X150237928Y-79393360D01*
X150247514Y-79374196D01*
X150259966Y-79360067D01*
X150276285Y-79349965D01*
X150297471Y-79342881D01*
X150306337Y-79340850D01*
X150316393Y-79339292D01*
X150326718Y-79338925D01*
X150339452Y-79339704D01*
X150356734Y-79341581D01*
X150363500Y-79342352D01*
X150383186Y-79343942D01*
X150397007Y-79343582D01*
X150405524Y-79340984D01*
X150409295Y-79335861D01*
X150408881Y-79327926D01*
X150404840Y-79316892D01*
X150398841Y-79305676D01*
X150390052Y-79292106D01*
X150379799Y-79278018D01*
X150369303Y-79265004D01*
X150359783Y-79254653D01*
X150352459Y-79248557D01*
X150345272Y-79245450D01*
X150332921Y-79244658D01*
X150318184Y-79248840D01*
X150300153Y-79258164D01*
X150290535Y-79263588D01*
X150276776Y-79270537D01*
X150265171Y-79275564D01*
X150250092Y-79279782D01*
X150237922Y-79280016D01*
X150230622Y-79276191D01*
X150228593Y-79268824D01*
X150232235Y-79258434D01*
X150241948Y-79245538D01*
X150253600Y-79234302D01*
X150270841Y-79220737D01*
X150288884Y-79209180D01*
X150305292Y-79201331D01*
X150324162Y-79196944D01*
X150346002Y-79197619D01*
G37*
G36*
X151039480Y-79221353D02*
G01*
X151058813Y-79221800D01*
X151085483Y-79222529D01*
X151109822Y-79223321D01*
X151130942Y-79224142D01*
X151147955Y-79224955D01*
X151159973Y-79225726D01*
X151166110Y-79226419D01*
X151177868Y-79229023D01*
X151166019Y-79230911D01*
X151161101Y-79231565D01*
X151149680Y-79232852D01*
X151133946Y-79234486D01*
X151115286Y-79236323D01*
X151095086Y-79238222D01*
X151074192Y-79240253D01*
X151050482Y-79243220D01*
X151032293Y-79246886D01*
X151018902Y-79251838D01*
X151009588Y-79258661D01*
X151003627Y-79267940D01*
X151000297Y-79280260D01*
X150998876Y-79296207D01*
X150998641Y-79316366D01*
X150998748Y-79327640D01*
X150999470Y-79344129D01*
X151001536Y-79356686D01*
X151005720Y-79365901D01*
X151012798Y-79372365D01*
X151023545Y-79376667D01*
X151038734Y-79379397D01*
X151059141Y-79381143D01*
X151085542Y-79382497D01*
X151098949Y-79383147D01*
X151122664Y-79384600D01*
X151141021Y-79386306D01*
X151154978Y-79388432D01*
X151165493Y-79391145D01*
X151173523Y-79394613D01*
X151180026Y-79399003D01*
X151183405Y-79401958D01*
X151185723Y-79406199D01*
X151183277Y-79410756D01*
X151182667Y-79411445D01*
X151174659Y-79416794D01*
X151161409Y-79421206D01*
X151142543Y-79424753D01*
X151117686Y-79427508D01*
X151086465Y-79429544D01*
X151072746Y-79430258D01*
X151051945Y-79431613D01*
X151036376Y-79433174D01*
X151025040Y-79435141D01*
X151016937Y-79437713D01*
X151011068Y-79441089D01*
X151006432Y-79445466D01*
X151002817Y-79451276D01*
X150999069Y-79463972D01*
X150997949Y-79478749D01*
X150999827Y-79492938D01*
X151001157Y-79497358D01*
X151004378Y-79504350D01*
X151009223Y-79509703D01*
X151016551Y-79513696D01*
X151027218Y-79516609D01*
X151042083Y-79518724D01*
X151062004Y-79520319D01*
X151087837Y-79521674D01*
X151118602Y-79523338D01*
X151146279Y-79525520D01*
X151168084Y-79528167D01*
X151184483Y-79531372D01*
X151195943Y-79535229D01*
X151202930Y-79539831D01*
X151205912Y-79545272D01*
X151204507Y-79550333D01*
X151196660Y-79555399D01*
X151182139Y-79559535D01*
X151160963Y-79562739D01*
X151133151Y-79565007D01*
X151098720Y-79566338D01*
X151057689Y-79566729D01*
X151055301Y-79566724D01*
X151024928Y-79566495D01*
X151000555Y-79565894D01*
X150981468Y-79564807D01*
X150966952Y-79563122D01*
X150956293Y-79560723D01*
X150948775Y-79557499D01*
X150943683Y-79553336D01*
X150940304Y-79548121D01*
X150937914Y-79541284D01*
X150935476Y-79529341D01*
X150933357Y-79512715D01*
X150931531Y-79491059D01*
X150929976Y-79464026D01*
X150928668Y-79431267D01*
X150927584Y-79392435D01*
X150926700Y-79347183D01*
X150924610Y-79218889D01*
X151039480Y-79221353D01*
G37*
G36*
X150641849Y-79207652D02*
G01*
X150665711Y-79217015D01*
X150687563Y-79231073D01*
X150706576Y-79249212D01*
X150721921Y-79270819D01*
X150732767Y-79295278D01*
X150738286Y-79321976D01*
X150738474Y-79324209D01*
X150737365Y-79351381D01*
X150730157Y-79376548D01*
X150717331Y-79399175D01*
X150699369Y-79418730D01*
X150676751Y-79434680D01*
X150649958Y-79446493D01*
X150619470Y-79453635D01*
X150607657Y-79456104D01*
X150592212Y-79462680D01*
X150581930Y-79471954D01*
X150577317Y-79483390D01*
X150578879Y-79496455D01*
X150581107Y-79501332D01*
X150586619Y-79507723D01*
X150595337Y-79512744D01*
X150608150Y-79516728D01*
X150625951Y-79520008D01*
X150649632Y-79522917D01*
X150654464Y-79523441D01*
X150677949Y-79526593D01*
X150695293Y-79530195D01*
X150707024Y-79534429D01*
X150713674Y-79539476D01*
X150715773Y-79545518D01*
X150715360Y-79548007D01*
X150709870Y-79554398D01*
X150698443Y-79559715D01*
X150681645Y-79563842D01*
X150660047Y-79566664D01*
X150634216Y-79568067D01*
X150604722Y-79567936D01*
X150591408Y-79567421D01*
X150570620Y-79565848D01*
X150555262Y-79563293D01*
X150544470Y-79559509D01*
X150537381Y-79554245D01*
X150533132Y-79547251D01*
X150532107Y-79543488D01*
X150530276Y-79533508D01*
X150528302Y-79519827D01*
X150526465Y-79504251D01*
X150525587Y-79496632D01*
X150522786Y-79476750D01*
X150519406Y-79456949D01*
X150515996Y-79440562D01*
X150512133Y-79423733D01*
X150509474Y-79408222D01*
X150509573Y-79397286D01*
X150513075Y-79390389D01*
X150520625Y-79386996D01*
X150532870Y-79386574D01*
X150550456Y-79388587D01*
X150574027Y-79392501D01*
X150586578Y-79394525D01*
X150604878Y-79396965D01*
X150621490Y-79398640D01*
X150633939Y-79399272D01*
X150643469Y-79399117D01*
X150652435Y-79397971D01*
X150658813Y-79395064D01*
X150665013Y-79389651D01*
X150665313Y-79389347D01*
X150673947Y-79376734D01*
X150680442Y-79359912D01*
X150684123Y-79341216D01*
X150684314Y-79322977D01*
X150681040Y-79306684D01*
X150672528Y-79286712D01*
X150660134Y-79269273D01*
X150644848Y-79255426D01*
X150627655Y-79246231D01*
X150609543Y-79242746D01*
X150607742Y-79242737D01*
X150593608Y-79244501D01*
X150582128Y-79250220D01*
X150572050Y-79260803D01*
X150562122Y-79277158D01*
X150554499Y-79290539D01*
X150545494Y-79302541D01*
X150536787Y-79309220D01*
X150527659Y-79311288D01*
X150522824Y-79310394D01*
X150514827Y-79304471D01*
X150509027Y-79294445D01*
X150506243Y-79282020D01*
X150507293Y-79268897D01*
X150510217Y-79261631D01*
X150519307Y-79248956D01*
X150532581Y-79236063D01*
X150548639Y-79224081D01*
X150566081Y-79214141D01*
X150583506Y-79207372D01*
X150591412Y-79205468D01*
X150616806Y-79203598D01*
X150641849Y-79207652D01*
G37*
G36*
X149922223Y-79733709D02*
G01*
X149948941Y-79734567D01*
X149972984Y-79736038D01*
X149992315Y-79738076D01*
X149998456Y-79739047D01*
X150019185Y-79744266D01*
X150037911Y-79752660D01*
X150055800Y-79764991D01*
X150074016Y-79782022D01*
X150093724Y-79804518D01*
X150101720Y-79814794D01*
X150124422Y-79850872D01*
X150142030Y-79890332D01*
X150154537Y-79932335D01*
X150161931Y-79976046D01*
X150164205Y-80020628D01*
X150161348Y-80065242D01*
X150153352Y-80109054D01*
X150140207Y-80151225D01*
X150121903Y-80190919D01*
X150098432Y-80227299D01*
X150087634Y-80240600D01*
X150069699Y-80258512D01*
X150049522Y-80273446D01*
X150025972Y-80286074D01*
X149997920Y-80297069D01*
X149964233Y-80307104D01*
X149962085Y-80307662D01*
X149929094Y-80313601D01*
X149895417Y-80315162D01*
X149863027Y-80312373D01*
X149833899Y-80305262D01*
X149833732Y-80305204D01*
X149797621Y-80290173D01*
X149764505Y-80271334D01*
X149735591Y-80249477D01*
X149712087Y-80225396D01*
X149700745Y-80210464D01*
X149679479Y-80174726D01*
X149663603Y-80136065D01*
X149653054Y-80095202D01*
X149647766Y-80052858D01*
X149647675Y-80009753D01*
X149648303Y-80004374D01*
X149718140Y-80004374D01*
X149719666Y-80046111D01*
X149726586Y-80087769D01*
X149738664Y-80128115D01*
X149755660Y-80165914D01*
X149777337Y-80199933D01*
X149787083Y-80210902D01*
X149807761Y-80226102D01*
X149833594Y-80236958D01*
X149864546Y-80243456D01*
X149900581Y-80245585D01*
X149906371Y-80245524D01*
X149943879Y-80242261D01*
X149976929Y-80233936D01*
X150005693Y-80220422D01*
X150030344Y-80201590D01*
X150051055Y-80177313D01*
X150067998Y-80147464D01*
X150081347Y-80111915D01*
X150081928Y-80109983D01*
X150085279Y-80098102D01*
X150087646Y-80087492D01*
X150089204Y-80076543D01*
X150090129Y-80063648D01*
X150090597Y-80047200D01*
X150090783Y-80025589D01*
X150090684Y-80008269D01*
X150089392Y-79979455D01*
X150086368Y-79954701D01*
X150081275Y-79932301D01*
X150073777Y-79910551D01*
X150063537Y-79887745D01*
X150062914Y-79886488D01*
X150045692Y-79858831D01*
X150023670Y-79834105D01*
X149998022Y-79813269D01*
X149969919Y-79797284D01*
X149940536Y-79787108D01*
X149925185Y-79784129D01*
X149895216Y-79782389D01*
X149866900Y-79786688D01*
X149839692Y-79797202D01*
X149813050Y-79814111D01*
X149786430Y-79837593D01*
X149770068Y-79855466D01*
X149752157Y-79880636D01*
X149738295Y-79908497D01*
X149727392Y-79940957D01*
X149722248Y-79963793D01*
X149718140Y-80004374D01*
X149648303Y-80004374D01*
X149652715Y-79966610D01*
X149662821Y-79924150D01*
X149677929Y-79883093D01*
X149697973Y-79844161D01*
X149722889Y-79808074D01*
X149752611Y-79775555D01*
X149753340Y-79774864D01*
X149770561Y-79760032D01*
X149787075Y-79749387D01*
X149804726Y-79742163D01*
X149825361Y-79737599D01*
X149850825Y-79734931D01*
X149868914Y-79734012D01*
X149894868Y-79733509D01*
X149922223Y-79733709D01*
G37*
G36*
X150339563Y-79735695D02*
G01*
X150348014Y-79740723D01*
X150351093Y-79744720D01*
X150354123Y-79750489D01*
X150356687Y-79758076D01*
X150358832Y-79768031D01*
X150360606Y-79780906D01*
X150362057Y-79797250D01*
X150363231Y-79817614D01*
X150364177Y-79842547D01*
X150364942Y-79872600D01*
X150365573Y-79908323D01*
X150366119Y-79950266D01*
X150367913Y-80106837D01*
X150588932Y-80106837D01*
X150809950Y-80106837D01*
X150811408Y-79945188D01*
X150811516Y-79933585D01*
X150811909Y-79896284D01*
X150812334Y-79865006D01*
X150812812Y-79839169D01*
X150813365Y-79818189D01*
X150814014Y-79801482D01*
X150814781Y-79788465D01*
X150815686Y-79778555D01*
X150816752Y-79771169D01*
X150818000Y-79765722D01*
X150821378Y-79755533D01*
X150827927Y-79743088D01*
X150835884Y-79736479D01*
X150845770Y-79735135D01*
X150853453Y-79737602D01*
X150861068Y-79745372D01*
X150866940Y-79758827D01*
X150871361Y-79778462D01*
X150873030Y-79791442D01*
X150874777Y-79812225D01*
X150876333Y-79838793D01*
X150877687Y-79870621D01*
X150878827Y-79907183D01*
X150879742Y-79947953D01*
X150880419Y-79992408D01*
X150880848Y-80040020D01*
X150881017Y-80090264D01*
X150880915Y-80142615D01*
X150880529Y-80196548D01*
X150880443Y-80205212D01*
X150879870Y-80254923D01*
X150879209Y-80298402D01*
X150878435Y-80336110D01*
X150877524Y-80368511D01*
X150876451Y-80396067D01*
X150875192Y-80419241D01*
X150873722Y-80438496D01*
X150872017Y-80454295D01*
X150870053Y-80467099D01*
X150867804Y-80477372D01*
X150865247Y-80485577D01*
X150860674Y-80494983D01*
X150852482Y-80503520D01*
X150843292Y-80505992D01*
X150833991Y-80502535D01*
X150825466Y-80493287D01*
X150818604Y-80478385D01*
X150818070Y-80476652D01*
X150816698Y-80471059D01*
X150815554Y-80464055D01*
X150814608Y-80454972D01*
X150813830Y-80443138D01*
X150813189Y-80427885D01*
X150812654Y-80408540D01*
X150812196Y-80384436D01*
X150811784Y-80354901D01*
X150811387Y-80319265D01*
X150809936Y-80177928D01*
X150588923Y-80177928D01*
X150367910Y-80177928D01*
X150366039Y-80314187D01*
X150365975Y-80318737D01*
X150365437Y-80349999D01*
X150364772Y-80379236D01*
X150364007Y-80405658D01*
X150363172Y-80428474D01*
X150362295Y-80446892D01*
X150361403Y-80460122D01*
X150360527Y-80467373D01*
X150359426Y-80471910D01*
X150353628Y-80486937D01*
X150345890Y-80497984D01*
X150337034Y-80504388D01*
X150327885Y-80505486D01*
X150319267Y-80500613D01*
X150317632Y-80498777D01*
X150313878Y-80492672D01*
X150310543Y-80484099D01*
X150307610Y-80472726D01*
X150305062Y-80458224D01*
X150302881Y-80440260D01*
X150301051Y-80418506D01*
X150299555Y-80392629D01*
X150298375Y-80362299D01*
X150297496Y-80327186D01*
X150296898Y-80286959D01*
X150296567Y-80241287D01*
X150296483Y-80189839D01*
X150296632Y-80132285D01*
X150296994Y-80068293D01*
X150297176Y-80043037D01*
X150297598Y-79992497D01*
X150298077Y-79948106D01*
X150298643Y-79909435D01*
X150299322Y-79876059D01*
X150300142Y-79847550D01*
X150301133Y-79823480D01*
X150302320Y-79803423D01*
X150303734Y-79786951D01*
X150305400Y-79773638D01*
X150307348Y-79763057D01*
X150309606Y-79754779D01*
X150312200Y-79748378D01*
X150315160Y-79743428D01*
X150318513Y-79739500D01*
X150319949Y-79738259D01*
X150329139Y-79734829D01*
X150339563Y-79735695D01*
G37*
G36*
X151350655Y-79717006D02*
G01*
X151388282Y-79723187D01*
X151422737Y-79732567D01*
X151454114Y-79744913D01*
X151485568Y-79762077D01*
X151511891Y-79782755D01*
X151533746Y-79807590D01*
X151551797Y-79837227D01*
X151566708Y-79872311D01*
X151573283Y-79893465D01*
X151579646Y-79929063D01*
X151579516Y-79962872D01*
X151572929Y-79994842D01*
X151559922Y-80024926D01*
X151540530Y-80053075D01*
X151514791Y-80079239D01*
X151482741Y-80103371D01*
X151444415Y-80125422D01*
X151399851Y-80145344D01*
X151349085Y-80163087D01*
X151323264Y-80171177D01*
X151282340Y-80184632D01*
X151247286Y-80197176D01*
X151217617Y-80209097D01*
X151192844Y-80220685D01*
X151172482Y-80232231D01*
X151156043Y-80244022D01*
X151143041Y-80256349D01*
X151132988Y-80269502D01*
X151125398Y-80283769D01*
X151119784Y-80299440D01*
X151116132Y-80322911D01*
X151118526Y-80347395D01*
X151126729Y-80371504D01*
X151140282Y-80394603D01*
X151158726Y-80416054D01*
X151181600Y-80435223D01*
X151208446Y-80451474D01*
X151238804Y-80464170D01*
X151238969Y-80464225D01*
X151254060Y-80468891D01*
X151266234Y-80471374D01*
X151278698Y-80472093D01*
X151294661Y-80471466D01*
X151322178Y-80467770D01*
X151351448Y-80459861D01*
X151379943Y-80448440D01*
X151406664Y-80434122D01*
X151430612Y-80417519D01*
X151450788Y-80399247D01*
X151466194Y-80379919D01*
X151475830Y-80360148D01*
X151481412Y-80344881D01*
X151491109Y-80324950D01*
X151501793Y-80309614D01*
X151512930Y-80299587D01*
X151523985Y-80295587D01*
X151536173Y-80296416D01*
X151547669Y-80302114D01*
X151554993Y-80312596D01*
X151557995Y-80327445D01*
X151556523Y-80346247D01*
X151550426Y-80368586D01*
X151550211Y-80369193D01*
X151535795Y-80400383D01*
X151514857Y-80431673D01*
X151487624Y-80462720D01*
X151468439Y-80481189D01*
X151448291Y-80497526D01*
X151428349Y-80509675D01*
X151407254Y-80518169D01*
X151383644Y-80523542D01*
X151356158Y-80526326D01*
X151323436Y-80527055D01*
X151290288Y-80526474D01*
X151249820Y-80524053D01*
X151214651Y-80519558D01*
X151184057Y-80512771D01*
X151157311Y-80503477D01*
X151133688Y-80491459D01*
X151112461Y-80476502D01*
X151092906Y-80458388D01*
X151090040Y-80455378D01*
X151077389Y-80441042D01*
X151068161Y-80427887D01*
X151060773Y-80413354D01*
X151053645Y-80394884D01*
X151052772Y-80392269D01*
X151048389Y-80373078D01*
X151045692Y-80349984D01*
X151044780Y-80325294D01*
X151045752Y-80301313D01*
X151048709Y-80280348D01*
X151054247Y-80259588D01*
X151064066Y-80235855D01*
X151077495Y-80214401D01*
X151094984Y-80194868D01*
X151116983Y-80176899D01*
X151143945Y-80160135D01*
X151176320Y-80144218D01*
X151214560Y-80128792D01*
X151259115Y-80113498D01*
X151275379Y-80108264D01*
X151305097Y-80098551D01*
X151329805Y-80090206D01*
X151350509Y-80082853D01*
X151368212Y-80076116D01*
X151383918Y-80069622D01*
X151398631Y-80062995D01*
X151413355Y-80055859D01*
X151428540Y-80047950D01*
X151457570Y-80030283D01*
X151480276Y-80012267D01*
X151496964Y-79993586D01*
X151507942Y-79973925D01*
X151513517Y-79952968D01*
X151513829Y-79942071D01*
X151509963Y-79922392D01*
X151501311Y-79901118D01*
X151488586Y-79879269D01*
X151472503Y-79857869D01*
X151453776Y-79837940D01*
X151433119Y-79820503D01*
X151411245Y-79806580D01*
X151391338Y-79797137D01*
X151362737Y-79787831D01*
X151332326Y-79783129D01*
X151298209Y-79782631D01*
X151288296Y-79783186D01*
X151249957Y-79788734D01*
X151215652Y-79799648D01*
X151185122Y-79816093D01*
X151158106Y-79838235D01*
X151134345Y-79866240D01*
X151113579Y-79900272D01*
X151112694Y-79901961D01*
X151098924Y-79926048D01*
X151086127Y-79943911D01*
X151073921Y-79955931D01*
X151061922Y-79962490D01*
X151049750Y-79963970D01*
X151048351Y-79963845D01*
X151036325Y-79960380D01*
X151028207Y-79952517D01*
X151023612Y-79939659D01*
X151022157Y-79921212D01*
X151022214Y-79916011D01*
X151023379Y-79902696D01*
X151026691Y-79890706D01*
X151032989Y-79876586D01*
X151043153Y-79858684D01*
X151063961Y-79830911D01*
X151089672Y-79804311D01*
X151119149Y-79779712D01*
X151151252Y-79757938D01*
X151184840Y-79739816D01*
X151218776Y-79726172D01*
X151251920Y-79717833D01*
X151275283Y-79715054D01*
X151312205Y-79714227D01*
X151350655Y-79717006D01*
G37*
G36*
X149754441Y-80527463D02*
G01*
X149761402Y-80529981D01*
X149772370Y-80535313D01*
X149779808Y-80539335D01*
X149797225Y-80550096D01*
X149818287Y-80564403D01*
X149842122Y-80581574D01*
X149867861Y-80600926D01*
X149894632Y-80621775D01*
X149921564Y-80643437D01*
X149947787Y-80665229D01*
X149972430Y-80686469D01*
X149994623Y-80706471D01*
X150013493Y-80724554D01*
X150020250Y-80731346D01*
X150035844Y-80747494D01*
X150050087Y-80763133D01*
X150063418Y-80778920D01*
X150076272Y-80795513D01*
X150089086Y-80813567D01*
X150102298Y-80833740D01*
X150116345Y-80856689D01*
X150131663Y-80883071D01*
X150148688Y-80913542D01*
X150167859Y-80948760D01*
X150189611Y-80989381D01*
X150196603Y-81002462D01*
X150247470Y-81094818D01*
X150299737Y-81184692D01*
X150353932Y-81272862D01*
X150410587Y-81360106D01*
X150470233Y-81447201D01*
X150533401Y-81534925D01*
X150600620Y-81624056D01*
X150672422Y-81715371D01*
X150749337Y-81809649D01*
X150777597Y-81843459D01*
X150814536Y-81886851D01*
X150852261Y-81930228D01*
X150891298Y-81974161D01*
X150932174Y-82019226D01*
X150975414Y-82065994D01*
X151021545Y-82115039D01*
X151071093Y-82166934D01*
X151124584Y-82222253D01*
X151182545Y-82281568D01*
X151197926Y-82297252D01*
X151234050Y-82334227D01*
X151265771Y-82366937D01*
X151293395Y-82395730D01*
X151317231Y-82420949D01*
X151337586Y-82442941D01*
X151354766Y-82462052D01*
X151369078Y-82478625D01*
X151380831Y-82493008D01*
X151390331Y-82505545D01*
X151397885Y-82516583D01*
X151403801Y-82526465D01*
X151408386Y-82535539D01*
X151413202Y-82547952D01*
X151415066Y-82561205D01*
X151411735Y-82572435D01*
X151403041Y-82583146D01*
X151401131Y-82584884D01*
X151393916Y-82589758D01*
X151385708Y-82592341D01*
X151375942Y-82592429D01*
X151364052Y-82589819D01*
X151349471Y-82584307D01*
X151331634Y-82575690D01*
X151309974Y-82563764D01*
X151283925Y-82548326D01*
X151252922Y-82529172D01*
X151248344Y-82526300D01*
X151176796Y-82479817D01*
X151106000Y-82430747D01*
X151035736Y-82378865D01*
X150965785Y-82323946D01*
X150895927Y-82265767D01*
X150825943Y-82204101D01*
X150755613Y-82138726D01*
X150684718Y-82069415D01*
X150613037Y-81995944D01*
X150540353Y-81918089D01*
X150466444Y-81835624D01*
X150391092Y-81748325D01*
X150314076Y-81655968D01*
X150235178Y-81558327D01*
X150154178Y-81455179D01*
X150070856Y-81346297D01*
X149984993Y-81231458D01*
X149966699Y-81206807D01*
X149946292Y-81179601D01*
X149929142Y-81157178D01*
X149914883Y-81139117D01*
X149903147Y-81124998D01*
X149893568Y-81114399D01*
X149885781Y-81106901D01*
X149879419Y-81102082D01*
X149874116Y-81099522D01*
X149869505Y-81098799D01*
X149868454Y-81099269D01*
X149863925Y-81104523D01*
X149857041Y-81115166D01*
X149848142Y-81130650D01*
X149837568Y-81150425D01*
X149814294Y-81194087D01*
X149789612Y-81238272D01*
X149764342Y-81281574D01*
X149738964Y-81323237D01*
X149713961Y-81362504D01*
X149689814Y-81398621D01*
X149667003Y-81430832D01*
X149646010Y-81458380D01*
X149627317Y-81480511D01*
X149621837Y-81486300D01*
X149601846Y-81503779D01*
X149580906Y-81517104D01*
X149560239Y-81525592D01*
X149541069Y-81528561D01*
X149538382Y-81528499D01*
X149518544Y-81525278D01*
X149494706Y-81517379D01*
X149467356Y-81505081D01*
X149436982Y-81488665D01*
X149404071Y-81468409D01*
X149369112Y-81444593D01*
X149332592Y-81417499D01*
X149294998Y-81387404D01*
X149280121Y-81374974D01*
X149266810Y-81363679D01*
X149256264Y-81354547D01*
X149249306Y-81348287D01*
X149246758Y-81345614D01*
X149248235Y-81343727D01*
X149254008Y-81337922D01*
X149263380Y-81329015D01*
X149275536Y-81317780D01*
X149289658Y-81304990D01*
X149306813Y-81289450D01*
X149335056Y-81262939D01*
X149359320Y-81238595D01*
X149380591Y-81215249D01*
X149399853Y-81191734D01*
X149418091Y-81166885D01*
X149436289Y-81139532D01*
X149455433Y-81108510D01*
X149461520Y-81098199D01*
X149477751Y-81069465D01*
X149496268Y-81035177D01*
X149516832Y-80995821D01*
X149539206Y-80951880D01*
X149563152Y-80903839D01*
X149588432Y-80852182D01*
X149614808Y-80797395D01*
X149642041Y-80739960D01*
X149669895Y-80680364D01*
X149698131Y-80619089D01*
X149726511Y-80556622D01*
X149726793Y-80556000D01*
X149732686Y-80544437D01*
X149738479Y-80535289D01*
X149742955Y-80530489D01*
X149744575Y-80529563D01*
X149749496Y-80527432D01*
X149754441Y-80527463D01*
G37*
G36*
X149029631Y-79735844D02*
G01*
X149038414Y-79741293D01*
X149040572Y-79743929D01*
X149043749Y-79749205D01*
X149046425Y-79756060D01*
X149048651Y-79765073D01*
X149050480Y-79776819D01*
X149051964Y-79791875D01*
X149053153Y-79810818D01*
X149054101Y-79834224D01*
X149054859Y-79862671D01*
X149055478Y-79896735D01*
X149056012Y-79936993D01*
X149057721Y-80083676D01*
X149191911Y-80082233D01*
X149212842Y-80081994D01*
X149244682Y-80081554D01*
X149270840Y-80081061D01*
X149292012Y-80080481D01*
X149308891Y-80079786D01*
X149322171Y-80078942D01*
X149332548Y-80077919D01*
X149340715Y-80076685D01*
X149347367Y-80075209D01*
X149363139Y-80070501D01*
X149380248Y-80063415D01*
X149394710Y-80054440D01*
X149406858Y-80042965D01*
X149417025Y-80028381D01*
X149425543Y-80010077D01*
X149432746Y-79987443D01*
X149438966Y-79959869D01*
X149444536Y-79926745D01*
X149449790Y-79887460D01*
X149452026Y-79869842D01*
X149457087Y-79835166D01*
X149462382Y-79806599D01*
X149468095Y-79783682D01*
X149474407Y-79765958D01*
X149481500Y-79752969D01*
X149489557Y-79744258D01*
X149498759Y-79739367D01*
X149509287Y-79737838D01*
X149510373Y-79737850D01*
X149519801Y-79740011D01*
X149526604Y-79747041D01*
X149527405Y-79748340D01*
X149529613Y-79753349D01*
X149531073Y-79760151D01*
X149531905Y-79769989D01*
X149532233Y-79784105D01*
X149532178Y-79803745D01*
X149531189Y-79838125D01*
X149528175Y-79881201D01*
X149523365Y-79923637D01*
X149516959Y-79964218D01*
X149509153Y-80001726D01*
X149500144Y-80034945D01*
X149490132Y-80062659D01*
X149486298Y-80071865D01*
X149478985Y-80091988D01*
X149475355Y-80108545D01*
X149475566Y-80123152D01*
X149479779Y-80137428D01*
X149488153Y-80152991D01*
X149500846Y-80171460D01*
X149507373Y-80180608D01*
X149520721Y-80201359D01*
X149530454Y-80220569D01*
X149537567Y-80240398D01*
X149543056Y-80263007D01*
X149546154Y-80285264D01*
X149546061Y-80319875D01*
X149540564Y-80354473D01*
X149529974Y-80387364D01*
X149514604Y-80416858D01*
X149508975Y-80424885D01*
X149494020Y-80442589D01*
X149476597Y-80459657D01*
X149458601Y-80474314D01*
X149441929Y-80484789D01*
X149441715Y-80484897D01*
X149434084Y-80488572D01*
X149426421Y-80491736D01*
X149418164Y-80494431D01*
X149408751Y-80496702D01*
X149397621Y-80498593D01*
X149384212Y-80500148D01*
X149367963Y-80501411D01*
X149348313Y-80502425D01*
X149324700Y-80503234D01*
X149296562Y-80503883D01*
X149263338Y-80504414D01*
X149224466Y-80504872D01*
X149179385Y-80505302D01*
X148985274Y-80507024D01*
X148986888Y-80165594D01*
X148986948Y-80153492D01*
X149056242Y-80153492D01*
X149057880Y-80269809D01*
X149058070Y-80282602D01*
X149058785Y-80319698D01*
X149059722Y-80350778D01*
X149060968Y-80376421D01*
X149062612Y-80397203D01*
X149064742Y-80413701D01*
X149067447Y-80426491D01*
X149070815Y-80436150D01*
X149074933Y-80443254D01*
X149079891Y-80448382D01*
X149085776Y-80452108D01*
X149087394Y-80452794D01*
X149097643Y-80455052D01*
X149113183Y-80456604D01*
X149132866Y-80457466D01*
X149155543Y-80457658D01*
X149180066Y-80457196D01*
X149205284Y-80456100D01*
X149230050Y-80454386D01*
X149253215Y-80452073D01*
X149273630Y-80449179D01*
X149300200Y-80444430D01*
X149335333Y-80437161D01*
X149364836Y-80429516D01*
X149389397Y-80421161D01*
X149409701Y-80411757D01*
X149426434Y-80400971D01*
X149440284Y-80388465D01*
X149451935Y-80373905D01*
X149462076Y-80356953D01*
X149466382Y-80348220D01*
X149469216Y-80340286D01*
X149470811Y-80331421D01*
X149471513Y-80319679D01*
X149471670Y-80303114D01*
X149471668Y-80299865D01*
X149471461Y-80284383D01*
X149470629Y-80273205D01*
X149468768Y-80264226D01*
X149465469Y-80255344D01*
X149460327Y-80244454D01*
X149456439Y-80237191D01*
X149443421Y-80217999D01*
X149427684Y-80200123D01*
X149410845Y-80185267D01*
X149394521Y-80175134D01*
X149385229Y-80171343D01*
X149370358Y-80166338D01*
X149355590Y-80162291D01*
X149354539Y-80162052D01*
X149346828Y-80160661D01*
X149336910Y-80159481D01*
X149324134Y-80158483D01*
X149307847Y-80157639D01*
X149287399Y-80156921D01*
X149262135Y-80156299D01*
X149231405Y-80155745D01*
X149194557Y-80155230D01*
X149056242Y-80153492D01*
X148986948Y-80153492D01*
X148987024Y-80138327D01*
X148987360Y-80081478D01*
X148987744Y-80028988D01*
X148988172Y-79981125D01*
X148988640Y-79938157D01*
X148989144Y-79900351D01*
X148989681Y-79867976D01*
X148990247Y-79841300D01*
X148990838Y-79820590D01*
X148991450Y-79806115D01*
X148992079Y-79798143D01*
X148994869Y-79779995D01*
X148998899Y-79760757D01*
X149003305Y-79747475D01*
X149008214Y-79739683D01*
X149009682Y-79738402D01*
X149019056Y-79734827D01*
X149029631Y-79735844D01*
G37*
G36*
X147086573Y-79502869D02*
G01*
X147094843Y-79510971D01*
X147104776Y-79525013D01*
X147116202Y-79544695D01*
X147128949Y-79569718D01*
X147142846Y-79599782D01*
X147157721Y-79634586D01*
X147159059Y-79637817D01*
X147171972Y-79667950D01*
X147183981Y-79694086D01*
X147194831Y-79715741D01*
X147204270Y-79732432D01*
X147212043Y-79743678D01*
X147217895Y-79748994D01*
X147225892Y-79750300D01*
X147239104Y-79748734D01*
X147257398Y-79744101D01*
X147280935Y-79736347D01*
X147309877Y-79725419D01*
X147344386Y-79711261D01*
X147384625Y-79693822D01*
X147385321Y-79693515D01*
X147416862Y-79680812D01*
X147444219Y-79672478D01*
X147468190Y-79668318D01*
X147489570Y-79668137D01*
X147492120Y-79668368D01*
X147534328Y-79675753D01*
X147575914Y-79689699D01*
X147616546Y-79710014D01*
X147655890Y-79736503D01*
X147693614Y-79768975D01*
X147729386Y-79807237D01*
X147753624Y-79837415D01*
X147785757Y-79882248D01*
X147817024Y-79931676D01*
X147847581Y-79986010D01*
X147877581Y-80045558D01*
X147907178Y-80110633D01*
X147936528Y-80181544D01*
X147965783Y-80258602D01*
X147995099Y-80342116D01*
X148004941Y-80370971D01*
X148023679Y-80424504D01*
X148041022Y-80471998D01*
X148057120Y-80513810D01*
X148072121Y-80550300D01*
X148086176Y-80581824D01*
X148099436Y-80608740D01*
X148112049Y-80631406D01*
X148124166Y-80650180D01*
X148133203Y-80663447D01*
X148143352Y-80679285D01*
X148152477Y-80694446D01*
X148159870Y-80707709D01*
X148164824Y-80717849D01*
X148166632Y-80723645D01*
X148166130Y-80726572D01*
X148163602Y-80729419D01*
X148158085Y-80731636D01*
X148148634Y-80733459D01*
X148134307Y-80735127D01*
X148114160Y-80736877D01*
X148111656Y-80737069D01*
X148085539Y-80738312D01*
X148053942Y-80738716D01*
X148017974Y-80738342D01*
X147978743Y-80737248D01*
X147937357Y-80735497D01*
X147894923Y-80733149D01*
X147852550Y-80730264D01*
X147811345Y-80726903D01*
X147772417Y-80723126D01*
X147736873Y-80718994D01*
X147705822Y-80714567D01*
X147692821Y-80712274D01*
X147654752Y-80703614D01*
X147613964Y-80691877D01*
X147572465Y-80677729D01*
X147532265Y-80661834D01*
X147495372Y-80644859D01*
X147461711Y-80627016D01*
X147403569Y-80590778D01*
X147350650Y-80550255D01*
X147302895Y-80505389D01*
X147260245Y-80456122D01*
X147222641Y-80402395D01*
X147190025Y-80344151D01*
X147181413Y-80325899D01*
X147167851Y-80292266D01*
X147155866Y-80255449D01*
X147145210Y-80214558D01*
X147135635Y-80168703D01*
X147126894Y-80116993D01*
X147124328Y-80097195D01*
X147121982Y-80071828D01*
X147120224Y-80044288D01*
X147119061Y-80015691D01*
X147118502Y-79987148D01*
X147118556Y-79959775D01*
X147119231Y-79934685D01*
X147120537Y-79912993D01*
X147122482Y-79895811D01*
X147125074Y-79884254D01*
X147128064Y-79876652D01*
X147135525Y-79864759D01*
X147145248Y-79858282D01*
X147158303Y-79856324D01*
X147160327Y-79856391D01*
X147174435Y-79860651D01*
X147187822Y-79871326D01*
X147200083Y-79888106D01*
X147207531Y-79902408D01*
X147215353Y-79922626D01*
X147221562Y-79946048D01*
X147226341Y-79973553D01*
X147229871Y-80006016D01*
X147232332Y-80044315D01*
X147232756Y-80052551D01*
X147235132Y-80085134D01*
X147238330Y-80112675D01*
X147242277Y-80134888D01*
X147246896Y-80151487D01*
X147252112Y-80162184D01*
X147257850Y-80166694D01*
X147264034Y-80164729D01*
X147267572Y-80160618D01*
X147271353Y-80151991D01*
X147274278Y-80138989D01*
X147276511Y-80120818D01*
X147278220Y-80096681D01*
X147279542Y-80076715D01*
X147281578Y-80057457D01*
X147284221Y-80043380D01*
X147287644Y-80033611D01*
X147292021Y-80027274D01*
X147294321Y-80025113D01*
X147298336Y-80023695D01*
X147303380Y-80027284D01*
X147307731Y-80033374D01*
X147312844Y-80046315D01*
X147317427Y-80064245D01*
X147321311Y-80086175D01*
X147324328Y-80111117D01*
X147326308Y-80138081D01*
X147327083Y-80166080D01*
X147327171Y-80172973D01*
X147328527Y-80199393D01*
X147331323Y-80225239D01*
X147335324Y-80249274D01*
X147340294Y-80270258D01*
X147345999Y-80286954D01*
X147352201Y-80298123D01*
X147359986Y-80307886D01*
X147364529Y-80299611D01*
X147365755Y-80296250D01*
X147367474Y-80286549D01*
X147368942Y-80271173D01*
X147370192Y-80249758D01*
X147371255Y-80221938D01*
X147371405Y-80217318D01*
X147372223Y-80196345D01*
X147373162Y-80177671D01*
X147374153Y-80162413D01*
X147375125Y-80151688D01*
X147376008Y-80146614D01*
X147376244Y-80146095D01*
X147380706Y-80141485D01*
X147387629Y-80141985D01*
X147397466Y-80147756D01*
X147410668Y-80158958D01*
X147424842Y-80173608D01*
X147442401Y-80197800D01*
X147456161Y-80225681D01*
X147466515Y-80258102D01*
X147473855Y-80295915D01*
X147475530Y-80306885D01*
X147477703Y-80319714D01*
X147479506Y-80328794D01*
X147480664Y-80332646D01*
X147481416Y-80333234D01*
X147484028Y-80333002D01*
X147487448Y-80329201D01*
X147492089Y-80321144D01*
X147498364Y-80308149D01*
X147506686Y-80289529D01*
X147506736Y-80289415D01*
X147514264Y-80272988D01*
X147520693Y-80260440D01*
X147525573Y-80252583D01*
X147528456Y-80250227D01*
X147532084Y-80252465D01*
X147540307Y-80258103D01*
X147552142Y-80266462D01*
X147566653Y-80276881D01*
X147582904Y-80288698D01*
X147605912Y-80305445D01*
X147629366Y-80322261D01*
X147648514Y-80335637D01*
X147663924Y-80345963D01*
X147676167Y-80353629D01*
X147685815Y-80359025D01*
X147691017Y-80361595D01*
X147693568Y-80362215D01*
X147692634Y-80359893D01*
X147687898Y-80353904D01*
X147679044Y-80343524D01*
X147670063Y-80333363D01*
X147656859Y-80318842D01*
X147640140Y-80300727D01*
X147620510Y-80279660D01*
X147598568Y-80256280D01*
X147574918Y-80231230D01*
X147550159Y-80205150D01*
X147524895Y-80178681D01*
X147499726Y-80152465D01*
X147485829Y-80137988D01*
X147420312Y-80068349D01*
X147360491Y-80002328D01*
X147306351Y-79939910D01*
X147257880Y-79881076D01*
X147215067Y-79825811D01*
X147177897Y-79774098D01*
X147146359Y-79725919D01*
X147120440Y-79681259D01*
X147100127Y-79640100D01*
X147085408Y-79602425D01*
X147081320Y-79588924D01*
X147076497Y-79569092D01*
X147072993Y-79549758D01*
X147071014Y-79532403D01*
X147070767Y-79518508D01*
X147072458Y-79509554D01*
X147076468Y-79503644D01*
X147081321Y-79500866D01*
X147086573Y-79502869D01*
G37*
G36*
X146094162Y-79641155D02*
G01*
X146128059Y-79641639D01*
X146161683Y-79642413D01*
X146193736Y-79643454D01*
X146222918Y-79644741D01*
X146247929Y-79646251D01*
X146267472Y-79647964D01*
X146329928Y-79656049D01*
X146424598Y-79673169D01*
X146516565Y-79695969D01*
X146606318Y-79724630D01*
X146694349Y-79759332D01*
X146781145Y-79800258D01*
X146867199Y-79847587D01*
X146952998Y-79901502D01*
X146957321Y-79904399D01*
X146986835Y-79925043D01*
X147010577Y-79943409D01*
X147028944Y-79959848D01*
X147042332Y-79974712D01*
X147051137Y-79988351D01*
X147057502Y-80004238D01*
X147063745Y-80027843D01*
X147068979Y-80057145D01*
X147073089Y-80091603D01*
X147074519Y-80106008D01*
X147077868Y-80134796D01*
X147081661Y-80160018D01*
X147086255Y-80183898D01*
X147092012Y-80208661D01*
X147108062Y-80263763D01*
X147132824Y-80327950D01*
X147163281Y-80389690D01*
X147199031Y-80448337D01*
X147239675Y-80503246D01*
X147284813Y-80553773D01*
X147334045Y-80599270D01*
X147336918Y-80601660D01*
X147365815Y-80624220D01*
X147396060Y-80644991D01*
X147429395Y-80665101D01*
X147467565Y-80685679D01*
X147475346Y-80689737D01*
X147492663Y-80699137D01*
X147508310Y-80708102D01*
X147520819Y-80715778D01*
X147528724Y-80721312D01*
X147534008Y-80726079D01*
X147546128Y-80741157D01*
X147556962Y-80761253D01*
X147566790Y-80786946D01*
X147575891Y-80818815D01*
X147577868Y-80826811D01*
X147585419Y-80860528D01*
X147591570Y-80894192D01*
X147596402Y-80928771D01*
X147599997Y-80965231D01*
X147602435Y-81004542D01*
X147603798Y-81047669D01*
X147604167Y-81095580D01*
X147603623Y-81149244D01*
X147603308Y-81165646D01*
X147601398Y-81227838D01*
X147598353Y-81285152D01*
X147594040Y-81339047D01*
X147588327Y-81390983D01*
X147581081Y-81442419D01*
X147572169Y-81494815D01*
X147571758Y-81497049D01*
X147563710Y-81538073D01*
X147555409Y-81574447D01*
X147546267Y-81608183D01*
X147535691Y-81641288D01*
X147523093Y-81675775D01*
X147507881Y-81713651D01*
X147495061Y-81743672D01*
X147450551Y-81836976D01*
X147400654Y-81926484D01*
X147345576Y-82012002D01*
X147285524Y-82093339D01*
X147220704Y-82170299D01*
X147151321Y-82242692D01*
X147077583Y-82310323D01*
X146999695Y-82373000D01*
X146917863Y-82430530D01*
X146832294Y-82482720D01*
X146743194Y-82529376D01*
X146650768Y-82570306D01*
X146555224Y-82605318D01*
X146541370Y-82609760D01*
X146488779Y-82624501D01*
X146432516Y-82637023D01*
X146372108Y-82647389D01*
X146307080Y-82655662D01*
X146236959Y-82661905D01*
X146161269Y-82666182D01*
X146079539Y-82668554D01*
X146035734Y-82669085D01*
X145995063Y-82669036D01*
X145959205Y-82668301D01*
X145927169Y-82666816D01*
X145897960Y-82664519D01*
X145870584Y-82661348D01*
X145844050Y-82657242D01*
X145817362Y-82652137D01*
X145723697Y-82630121D01*
X145624660Y-82600782D01*
X145529426Y-82565953D01*
X145437793Y-82525543D01*
X145349559Y-82479463D01*
X145264522Y-82427623D01*
X145182479Y-82369934D01*
X145154750Y-82348571D01*
X145077515Y-82283378D01*
X145005041Y-82213455D01*
X144937465Y-82138998D01*
X144909130Y-82103296D01*
X145338278Y-82103296D01*
X145339171Y-82110928D01*
X145345701Y-82121194D01*
X145357432Y-82133484D01*
X145373835Y-82147485D01*
X145394382Y-82162883D01*
X145418543Y-82179365D01*
X145445790Y-82196616D01*
X145475593Y-82214324D01*
X145507425Y-82232173D01*
X145540756Y-82249851D01*
X145575058Y-82267044D01*
X145609801Y-82283437D01*
X145644458Y-82298718D01*
X145678498Y-82312572D01*
X145711394Y-82324686D01*
X145748716Y-82336042D01*
X145795661Y-82347025D01*
X145847341Y-82356224D01*
X145902802Y-82363612D01*
X145961091Y-82369162D01*
X146021253Y-82372849D01*
X146082335Y-82374646D01*
X146143383Y-82374526D01*
X146203443Y-82372463D01*
X146261562Y-82368429D01*
X146316786Y-82362400D01*
X146368161Y-82354347D01*
X146414733Y-82344245D01*
X146460614Y-82331397D01*
X146537572Y-82304424D01*
X146613258Y-82271125D01*
X146687305Y-82231754D01*
X146759343Y-82186571D01*
X146829006Y-82135830D01*
X146895924Y-82079789D01*
X146959731Y-82018705D01*
X147020058Y-81952834D01*
X147076537Y-81882433D01*
X147088001Y-81866982D01*
X147112947Y-81831869D01*
X147135379Y-81797789D01*
X147156445Y-81762871D01*
X147177293Y-81725248D01*
X147199073Y-81683051D01*
X147220667Y-81637778D01*
X147247480Y-81573167D01*
X147269867Y-81507519D01*
X147288201Y-81439568D01*
X147302853Y-81368050D01*
X147314195Y-81291696D01*
X147315663Y-81276688D01*
X147317108Y-81252515D01*
X147318079Y-81223972D01*
X147318585Y-81192396D01*
X147318636Y-81159124D01*
X147318239Y-81125492D01*
X147317404Y-81092837D01*
X147316140Y-81062496D01*
X147314455Y-81035805D01*
X147312359Y-81014101D01*
X147308637Y-80985876D01*
X147293664Y-80898580D01*
X147273934Y-80814606D01*
X147249579Y-80734317D01*
X147220732Y-80658072D01*
X147187523Y-80586233D01*
X147150086Y-80519161D01*
X147108553Y-80457217D01*
X147104562Y-80451830D01*
X147093222Y-80436804D01*
X147080600Y-80420368D01*
X147068762Y-80405221D01*
X147046381Y-80376923D01*
X146995544Y-80427226D01*
X146944707Y-80477529D01*
X146977015Y-80521538D01*
X146989940Y-80539269D01*
X147010699Y-80568517D01*
X147028026Y-80594237D01*
X147042535Y-80617488D01*
X147054841Y-80639328D01*
X147065559Y-80660817D01*
X147075304Y-80683014D01*
X147084691Y-80706977D01*
X147089014Y-80718878D01*
X147106481Y-80775623D01*
X147119573Y-80833963D01*
X147128379Y-80893315D01*
X147132992Y-80953097D01*
X147133502Y-81012728D01*
X147130002Y-81071625D01*
X147122582Y-81129206D01*
X147111335Y-81184888D01*
X147096350Y-81238091D01*
X147077721Y-81288231D01*
X147055538Y-81334726D01*
X147029892Y-81376995D01*
X147000876Y-81414455D01*
X146968579Y-81446525D01*
X146932950Y-81474602D01*
X146894649Y-81499673D01*
X146855591Y-81520445D01*
X146816484Y-81536667D01*
X146778035Y-81548088D01*
X146740952Y-81554458D01*
X146705941Y-81555526D01*
X146673710Y-81551041D01*
X146671685Y-81550550D01*
X146643396Y-81542637D01*
X146614104Y-81532698D01*
X146584756Y-81521198D01*
X146556294Y-81508606D01*
X146529663Y-81495386D01*
X146505808Y-81482007D01*
X146485672Y-81468935D01*
X146470200Y-81456636D01*
X146460336Y-81445576D01*
X146454401Y-81436529D01*
X146452265Y-81452977D01*
X146451420Y-81460596D01*
X146449993Y-81477011D01*
X146448351Y-81499342D01*
X146446523Y-81527089D01*
X146444539Y-81559749D01*
X146442428Y-81596820D01*
X146440218Y-81637801D01*
X146437940Y-81682189D01*
X146435622Y-81729483D01*
X146433293Y-81779181D01*
X146431942Y-81808239D01*
X146430490Y-81838533D01*
X146429119Y-81866189D01*
X146427864Y-81890519D01*
X146426763Y-81910836D01*
X146425852Y-81926452D01*
X146425167Y-81936679D01*
X146424745Y-81940830D01*
X146421171Y-81942229D01*
X146412018Y-81943386D01*
X146398413Y-81944286D01*
X146381477Y-81944929D01*
X146362331Y-81945315D01*
X146342099Y-81945443D01*
X146321902Y-81945315D01*
X146302861Y-81944929D01*
X146286099Y-81944287D01*
X146272737Y-81943388D01*
X146263897Y-81942232D01*
X146260702Y-81940820D01*
X146260689Y-81940149D01*
X146260520Y-81933884D01*
X146260167Y-81921630D01*
X146259648Y-81903962D01*
X146258979Y-81881456D01*
X146258179Y-81854690D01*
X146257263Y-81824239D01*
X146256250Y-81790680D01*
X146255156Y-81754589D01*
X146253999Y-81716543D01*
X146252721Y-81674661D01*
X146250676Y-81608169D01*
X146248780Y-81547991D01*
X146247003Y-81493840D01*
X146245311Y-81445429D01*
X146243673Y-81402472D01*
X146242055Y-81364682D01*
X146240426Y-81331772D01*
X146238752Y-81303456D01*
X146237003Y-81279446D01*
X146235145Y-81259458D01*
X146233146Y-81243203D01*
X146230973Y-81230395D01*
X146228595Y-81220748D01*
X146225979Y-81213975D01*
X146223093Y-81209789D01*
X146219904Y-81207903D01*
X146216380Y-81208032D01*
X146212489Y-81209888D01*
X146208197Y-81213184D01*
X146203474Y-81217635D01*
X146198286Y-81222953D01*
X146188253Y-81234311D01*
X146177292Y-81250981D01*
X146171111Y-81268242D01*
X146169502Y-81287320D01*
X146172258Y-81309444D01*
X146179170Y-81335840D01*
X146182414Y-81346476D01*
X146187742Y-81364984D01*
X146191704Y-81381123D01*
X146194500Y-81396415D01*
X146196329Y-81412384D01*
X146197391Y-81430553D01*
X146197885Y-81452444D01*
X146198012Y-81479581D01*
X146198012Y-81481438D01*
X146197715Y-81513894D01*
X146196728Y-81541622D01*
X146194866Y-81566549D01*
X146191943Y-81590599D01*
X146187773Y-81615697D01*
X146182171Y-81643769D01*
X146179454Y-81656091D01*
X146166906Y-81702085D01*
X146151594Y-81742529D01*
X146133201Y-81778058D01*
X146111412Y-81809306D01*
X146085909Y-81836910D01*
X146070219Y-81850888D01*
X146050351Y-81866110D01*
X146029014Y-81879622D01*
X146005680Y-81891568D01*
X145979818Y-81902096D01*
X145950898Y-81911354D01*
X145918392Y-81919487D01*
X145881768Y-81926642D01*
X145840497Y-81932967D01*
X145794050Y-81938609D01*
X145741896Y-81943713D01*
X145683506Y-81948427D01*
X145652038Y-81950810D01*
X145610803Y-81954199D01*
X145575251Y-81957599D01*
X145544740Y-81961195D01*
X145518625Y-81965175D01*
X145496262Y-81969724D01*
X145477008Y-81975029D01*
X145460218Y-81981276D01*
X145445249Y-81988651D01*
X145431457Y-81997341D01*
X145418198Y-82007533D01*
X145404827Y-82019412D01*
X145390702Y-82033164D01*
X145379615Y-82044758D01*
X145364866Y-82061788D01*
X145352447Y-82078042D01*
X145343278Y-82092287D01*
X145338278Y-82103296D01*
X144909130Y-82103296D01*
X144874926Y-82060200D01*
X144817560Y-81977256D01*
X144765506Y-81890360D01*
X144718901Y-81799708D01*
X144677883Y-81705492D01*
X144642589Y-81607908D01*
X144634214Y-81581739D01*
X144620523Y-81535768D01*
X144609453Y-81493307D01*
X144600668Y-81452723D01*
X144593832Y-81412381D01*
X144588610Y-81370649D01*
X144584667Y-81325894D01*
X144584081Y-81316081D01*
X144583317Y-81295771D01*
X144582764Y-81270688D01*
X144582413Y-81241794D01*
X144582254Y-81210050D01*
X144582280Y-81176420D01*
X144582481Y-81141863D01*
X144582528Y-81137414D01*
X144873516Y-81137414D01*
X144874972Y-81206474D01*
X144879069Y-81275521D01*
X144885747Y-81343289D01*
X144894949Y-81408510D01*
X144906612Y-81469915D01*
X144920679Y-81526235D01*
X144927683Y-81549721D01*
X144938125Y-81581196D01*
X144949770Y-81612148D01*
X144962986Y-81643310D01*
X144978143Y-81675418D01*
X144995607Y-81709204D01*
X145015747Y-81745405D01*
X145038931Y-81784753D01*
X145065527Y-81827983D01*
X145095903Y-81875831D01*
X145135821Y-81937947D01*
X145202433Y-81863104D01*
X145269046Y-81788260D01*
X145268597Y-81757388D01*
X145689496Y-81757388D01*
X145693255Y-81762157D01*
X145701681Y-81765195D01*
X145715455Y-81766775D01*
X145735257Y-81767173D01*
X145763755Y-81765681D01*
X145796272Y-81761210D01*
X145829300Y-81754157D01*
X145861625Y-81744916D01*
X145892034Y-81733884D01*
X145919316Y-81721456D01*
X145942256Y-81708027D01*
X145959641Y-81693993D01*
X145961182Y-81692411D01*
X145974386Y-81675571D01*
X145987307Y-81653731D01*
X145999579Y-81628087D01*
X146010836Y-81599832D01*
X146020713Y-81570162D01*
X146028845Y-81540270D01*
X146034867Y-81511352D01*
X146038412Y-81484601D01*
X146039116Y-81461213D01*
X146036613Y-81442382D01*
X146035212Y-81437627D01*
X146031096Y-81428385D01*
X146026831Y-81424469D01*
X146021925Y-81425421D01*
X146011948Y-81430827D01*
X145997939Y-81440634D01*
X145980233Y-81454548D01*
X145959167Y-81472278D01*
X145935077Y-81493533D01*
X145908300Y-81518021D01*
X145879171Y-81545451D01*
X145848028Y-81575530D01*
X145815206Y-81607968D01*
X145795554Y-81627727D01*
X145765342Y-81658719D01*
X145740161Y-81685431D01*
X145720033Y-81707838D01*
X145704981Y-81725916D01*
X145695026Y-81739639D01*
X145690191Y-81748982D01*
X145689724Y-81750613D01*
X145689496Y-81757388D01*
X145268597Y-81757388D01*
X145267049Y-81650847D01*
X145266850Y-81636219D01*
X145266581Y-81614602D01*
X145266262Y-81587566D01*
X145265898Y-81555563D01*
X145265494Y-81519044D01*
X145265054Y-81478461D01*
X145264582Y-81434265D01*
X145264083Y-81386907D01*
X145263561Y-81336839D01*
X145263021Y-81284512D01*
X145262472Y-81230761D01*
X145430583Y-81230761D01*
X145431788Y-81425247D01*
X145432043Y-81462056D01*
X145432402Y-81501691D01*
X145432816Y-81535134D01*
X145433293Y-81562705D01*
X145433841Y-81584722D01*
X145434470Y-81601507D01*
X145435187Y-81613378D01*
X145436000Y-81620655D01*
X145436918Y-81623659D01*
X145437318Y-81623790D01*
X145440012Y-81622523D01*
X145445164Y-81618632D01*
X145453005Y-81611898D01*
X145463762Y-81602100D01*
X145477667Y-81589019D01*
X145494948Y-81572435D01*
X145515835Y-81552129D01*
X145540558Y-81527881D01*
X145569346Y-81499471D01*
X145602429Y-81466679D01*
X145640037Y-81429287D01*
X145839230Y-81230990D01*
X145634907Y-81230875D01*
X145430583Y-81230761D01*
X145262472Y-81230761D01*
X145262468Y-81230378D01*
X145261905Y-81174888D01*
X145261338Y-81118494D01*
X145260770Y-81061647D01*
X145260206Y-81004799D01*
X145259651Y-80948401D01*
X145259110Y-80892904D01*
X145258586Y-80838760D01*
X145258084Y-80786420D01*
X145257608Y-80736336D01*
X145257164Y-80688960D01*
X145256755Y-80644742D01*
X145256386Y-80604134D01*
X145256062Y-80567588D01*
X145255786Y-80535555D01*
X145255564Y-80508486D01*
X145255400Y-80486833D01*
X145255299Y-80471048D01*
X145255264Y-80461581D01*
X145255264Y-80435212D01*
X145343282Y-80435212D01*
X145431300Y-80435212D01*
X145431300Y-80738198D01*
X145431300Y-81041183D01*
X145532013Y-81041239D01*
X145555035Y-81041293D01*
X145619587Y-81041934D01*
X145679258Y-81043280D01*
X145733783Y-81045312D01*
X145782895Y-81048016D01*
X145826327Y-81051374D01*
X145863813Y-81055370D01*
X145895087Y-81059988D01*
X145919882Y-81065211D01*
X145934773Y-81068490D01*
X145958784Y-81070707D01*
X145979473Y-81068004D01*
X145997757Y-81060323D01*
X146001100Y-81058268D01*
X146010945Y-81051351D01*
X146014035Y-81048886D01*
X146413687Y-81048886D01*
X146414550Y-81059802D01*
X146415131Y-81065102D01*
X146423836Y-81113715D01*
X146438568Y-81163237D01*
X146458989Y-81212507D01*
X146468153Y-81230812D01*
X146492064Y-81270886D01*
X146518419Y-81305462D01*
X146546871Y-81334438D01*
X146577074Y-81357710D01*
X146608682Y-81375175D01*
X146641349Y-81386730D01*
X146674730Y-81392272D01*
X146708478Y-81391698D01*
X146742248Y-81384904D01*
X146775692Y-81371788D01*
X146808466Y-81352246D01*
X146840223Y-81326175D01*
X146842672Y-81323841D01*
X146868739Y-81295546D01*
X146890848Y-81264433D01*
X146909153Y-81230029D01*
X146923807Y-81191861D01*
X146934966Y-81149456D01*
X146942782Y-81102342D01*
X146947409Y-81050046D01*
X146949002Y-80992096D01*
X146948631Y-80961698D01*
X146944550Y-80896513D01*
X146935858Y-80835222D01*
X146922411Y-80776960D01*
X146904067Y-80720861D01*
X146895298Y-80699014D01*
X146881948Y-80671273D01*
X146868468Y-80649983D01*
X146854727Y-80634948D01*
X146840598Y-80625978D01*
X146839359Y-80625464D01*
X146831997Y-80622581D01*
X146828236Y-80621404D01*
X146828171Y-80621413D01*
X146824539Y-80623379D01*
X146816956Y-80628116D01*
X146806969Y-80634662D01*
X146803209Y-80637231D01*
X146784383Y-80651340D01*
X146761957Y-80669786D01*
X146736553Y-80691940D01*
X146708794Y-80717177D01*
X146679303Y-80744868D01*
X146648699Y-80774387D01*
X146617607Y-80805106D01*
X146586647Y-80836399D01*
X146556443Y-80867639D01*
X146527615Y-80898197D01*
X146500785Y-80927449D01*
X146476577Y-80954765D01*
X146455611Y-80979520D01*
X146438511Y-81001086D01*
X146425897Y-81018836D01*
X146422586Y-81023971D01*
X146417010Y-81033479D01*
X146414276Y-81040947D01*
X146413687Y-81048886D01*
X146014035Y-81048886D01*
X146022946Y-81041776D01*
X146037456Y-81029217D01*
X146054828Y-81013347D01*
X146075414Y-80993839D01*
X146099567Y-80970367D01*
X146127641Y-80942604D01*
X146159988Y-80910225D01*
X146250546Y-80819156D01*
X146250546Y-80626930D01*
X146250546Y-80434704D01*
X146317406Y-80435804D01*
X146320911Y-80435863D01*
X146348090Y-80436475D01*
X146369318Y-80437681D01*
X146385330Y-80440065D01*
X146396861Y-80444214D01*
X146404646Y-80450711D01*
X146409422Y-80460142D01*
X146411922Y-80473092D01*
X146412884Y-80490145D01*
X146413041Y-80511887D01*
X146413042Y-80513291D01*
X146413220Y-80529035D01*
X146413658Y-80541877D01*
X146414294Y-80550528D01*
X146415065Y-80553698D01*
X146416633Y-80552718D01*
X146422597Y-80547968D01*
X146432110Y-80539952D01*
X146444284Y-80529422D01*
X146458228Y-80517133D01*
X146466173Y-80510102D01*
X146496017Y-80484365D01*
X146522072Y-80463160D01*
X146544937Y-80446090D01*
X146565206Y-80432753D01*
X146583478Y-80422749D01*
X146600349Y-80415680D01*
X146616416Y-80411144D01*
X146629224Y-80406693D01*
X146646807Y-80397473D01*
X146667657Y-80384148D01*
X146691126Y-80367207D01*
X146716568Y-80347142D01*
X146743338Y-80324443D01*
X146770790Y-80299600D01*
X146798276Y-80273104D01*
X146814220Y-80256891D01*
X146832806Y-80236659D01*
X146846015Y-80220302D01*
X146853900Y-80207752D01*
X146856517Y-80198940D01*
X146855514Y-80195028D01*
X146849223Y-80186131D01*
X146837546Y-80174832D01*
X146820940Y-80161469D01*
X146799860Y-80146376D01*
X146774762Y-80129890D01*
X146746102Y-80112347D01*
X146714333Y-80094083D01*
X146703115Y-80087863D01*
X146639576Y-80054338D01*
X146579589Y-80025752D01*
X146522534Y-80001839D01*
X146467789Y-79982338D01*
X146414733Y-79966985D01*
X146397940Y-79962753D01*
X146377993Y-79957961D01*
X146359986Y-79954031D01*
X146342186Y-79950639D01*
X146322858Y-79947462D01*
X146300270Y-79944175D01*
X146272688Y-79940456D01*
X146254011Y-79938447D01*
X146228199Y-79936501D01*
X146198161Y-79934862D01*
X146165230Y-79933556D01*
X146130736Y-79932612D01*
X146096010Y-79932058D01*
X146062384Y-79931922D01*
X146031188Y-79932232D01*
X146003754Y-79933016D01*
X145981413Y-79934302D01*
X145914915Y-79941119D01*
X145842545Y-79952470D01*
X145773433Y-79967864D01*
X145706207Y-79987611D01*
X145639497Y-80012024D01*
X145610472Y-80024062D01*
X145527246Y-80063228D01*
X145448451Y-80107513D01*
X145374084Y-80156919D01*
X145304139Y-80211452D01*
X145238613Y-80271114D01*
X145177500Y-80335909D01*
X145120796Y-80405841D01*
X145068497Y-80480914D01*
X145044923Y-80518617D01*
X145000889Y-80596727D01*
X144963508Y-80674557D01*
X144932803Y-80752047D01*
X144908801Y-80829138D01*
X144891525Y-80905771D01*
X144885594Y-80942849D01*
X144878767Y-81004334D01*
X144874761Y-81069612D01*
X144873516Y-81137414D01*
X144582528Y-81137414D01*
X144582849Y-81107344D01*
X144583374Y-81073822D01*
X144584049Y-81042261D01*
X144584863Y-81013622D01*
X144585809Y-80988867D01*
X144586878Y-80968959D01*
X144588060Y-80954858D01*
X144592078Y-80922783D01*
X144601285Y-80865313D01*
X144613120Y-80808745D01*
X144627859Y-80752233D01*
X144645774Y-80694933D01*
X144667140Y-80635998D01*
X144692232Y-80574584D01*
X144721322Y-80509844D01*
X144754686Y-80440934D01*
X144763140Y-80424199D01*
X144781229Y-80389893D01*
X144799216Y-80358176D01*
X144817687Y-80328275D01*
X144837229Y-80299417D01*
X144858428Y-80270831D01*
X144881871Y-80241743D01*
X144908145Y-80211381D01*
X144937835Y-80178973D01*
X144971529Y-80143745D01*
X145009813Y-80104927D01*
X145043553Y-80071627D01*
X145101985Y-80016642D01*
X145158614Y-79967013D01*
X145214106Y-79922237D01*
X145269130Y-79881809D01*
X145324353Y-79845226D01*
X145380444Y-79811981D01*
X145438071Y-79781572D01*
X145452343Y-79774571D01*
X145520076Y-79744089D01*
X145588635Y-79717882D01*
X145658899Y-79695725D01*
X145731750Y-79677388D01*
X145808070Y-79662644D01*
X145888741Y-79651266D01*
X145974643Y-79643026D01*
X145981832Y-79642553D01*
X146003828Y-79641660D01*
X146030748Y-79641144D01*
X146061292Y-79640983D01*
X146094162Y-79641155D01*
G37*
%TD*%
M02*
