%TF.GenerationSoftware,KiCad,Pcbnew,7.0.10*%
%TF.CreationDate,2024-07-21T08:04:53-04:00*%
%TF.ProjectId,12.1.1 - PLC Connector,31322e31-2e31-4202-9d20-504c4320436f,rev?*%
%TF.SameCoordinates,Original*%
%TF.FileFunction,Copper,L2,Bot*%
%TF.FilePolarity,Positive*%
%FSLAX46Y46*%
G04 Gerber Fmt 4.6, Leading zero omitted, Abs format (unit mm)*
G04 Created by KiCad (PCBNEW 7.0.10) date 2024-07-21 08:04:53*
%MOMM*%
%LPD*%
G01*
G04 APERTURE LIST*
G04 Aperture macros list*
%AMRoundRect*
0 Rectangle with rounded corners*
0 $1 Rounding radius*
0 $2 $3 $4 $5 $6 $7 $8 $9 X,Y pos of 4 corners*
0 Add a 4 corners polygon primitive as box body*
4,1,4,$2,$3,$4,$5,$6,$7,$8,$9,$2,$3,0*
0 Add four circle primitives for the rounded corners*
1,1,$1+$1,$2,$3*
1,1,$1+$1,$4,$5*
1,1,$1+$1,$6,$7*
1,1,$1+$1,$8,$9*
0 Add four rect primitives between the rounded corners*
20,1,$1+$1,$2,$3,$4,$5,0*
20,1,$1+$1,$4,$5,$6,$7,0*
20,1,$1+$1,$6,$7,$8,$9,0*
20,1,$1+$1,$8,$9,$2,$3,0*%
G04 Aperture macros list end*
%TA.AperFunction,SMDPad,CuDef*%
%ADD10RoundRect,0.572500X-3.045750X-0.572500X3.045750X-0.572500X3.045750X0.572500X-3.045750X0.572500X0*%
%TD*%
%TA.AperFunction,ComponentPad*%
%ADD11R,1.950000X1.950000*%
%TD*%
%TA.AperFunction,ComponentPad*%
%ADD12C,1.950000*%
%TD*%
%TA.AperFunction,ComponentPad*%
%ADD13C,1.600000*%
%TD*%
%TA.AperFunction,ComponentPad*%
%ADD14O,1.600000X1.600000*%
%TD*%
%TA.AperFunction,ComponentPad*%
%ADD15C,1.752600*%
%TD*%
%TA.AperFunction,SMDPad,CuDef*%
%ADD16RoundRect,0.572500X3.045750X0.572500X-3.045750X0.572500X-3.045750X-0.572500X3.045750X-0.572500X0*%
%TD*%
%TA.AperFunction,ViaPad*%
%ADD17C,0.800000*%
%TD*%
%TA.AperFunction,Conductor*%
%ADD18C,1.270000*%
%TD*%
%TA.AperFunction,Conductor*%
%ADD19C,1.016000*%
%TD*%
G04 APERTURE END LIST*
D10*
%TO.P,J108,1,Pin_1*%
%TO.N,Net-(J108-Pin_1)*%
X135135726Y-97805761D03*
%TD*%
D11*
%TO.P,J124,1,1*%
%TO.N,Net-(J106-Pin_1)*%
X153289000Y-107823000D03*
D12*
%TO.P,J124,2,2*%
%TO.N,Net-(J107-Pin_1)*%
X153289000Y-102743000D03*
%TD*%
D10*
%TO.P,J112,1,Pin_1*%
%TO.N,Net-(J104-Pin_1)*%
X135144119Y-118119473D03*
%TD*%
%TO.P,J105,1,Pin_1*%
%TO.N,Net-(J105-Pin_1)*%
X135135726Y-113041084D03*
%TD*%
%TO.P,J102,1,Pin_1*%
%TO.N,Net-(J102-Pin_1)*%
X135135726Y-128276415D03*
%TD*%
%TO.P,J101,1,Pin_1*%
%TO.N,M*%
X135157097Y-87647303D03*
%TD*%
%TO.P,J109,1,Pin_1*%
%TO.N,Net-(J109-Pin_1)*%
X135135726Y-92727320D03*
%TD*%
D13*
%TO.P,R104,1*%
%TO.N,M*%
X145669000Y-85140000D03*
D14*
%TO.P,R104,2*%
%TO.N,Net-(J109-Pin_1)*%
X145669000Y-90220000D03*
%TD*%
D11*
%TO.P,J122,1,1*%
%TO.N,Net-(J104-Pin_1)*%
X153289000Y-117983000D03*
D12*
%TO.P,J122,2,2*%
%TO.N,Net-(J105-Pin_1)*%
X153289000Y-112903000D03*
%TD*%
D10*
%TO.P,J103,1,Pin_1*%
%TO.N,Net-(J103-Pin_1)*%
X135135726Y-123197966D03*
%TD*%
D13*
%TO.P,R101,1*%
%TO.N,Net-(J102-Pin_1)*%
X145669000Y-125730000D03*
D14*
%TO.P,R101,2*%
%TO.N,M*%
X145669000Y-120650000D03*
%TD*%
D15*
%TO.P,J126,1,1*%
%TO.N,Net-(J107-Pin_1)*%
X149352000Y-135763000D03*
%TO.P,J126,2,2*%
%TO.N,Net-(J106-Pin_1)*%
X151892000Y-135763000D03*
%TO.P,J126,3,3*%
%TO.N,Net-(J105-Pin_1)*%
X154432000Y-135763000D03*
%TO.P,J126,4,4*%
%TO.N,Net-(J104-Pin_1)*%
X156972000Y-135763000D03*
%TD*%
D13*
%TO.P,R102,1*%
%TO.N,M*%
X145669000Y-110617000D03*
D14*
%TO.P,R102,2*%
%TO.N,Net-(J103-Pin_1)*%
X145669000Y-115697000D03*
%TD*%
D13*
%TO.P,R103,1*%
%TO.N,Net-(J108-Pin_1)*%
X145669000Y-95377000D03*
D14*
%TO.P,R103,2*%
%TO.N,M*%
X145669000Y-100457000D03*
%TD*%
D11*
%TO.P,J125,1,1*%
%TO.N,Net-(J108-Pin_1)*%
X153289000Y-97663000D03*
D12*
%TO.P,J125,2,2*%
%TO.N,Net-(J109-Pin_1)*%
X153289000Y-92583000D03*
%TD*%
D11*
%TO.P,J123,1,1*%
%TO.N,M*%
X153289000Y-87503000D03*
D12*
%TO.P,J123,2,2*%
%TO.N,Net-(J119-Pin_1)*%
X153289000Y-82423000D03*
%TD*%
D10*
%TO.P,J107,1,Pin_1*%
%TO.N,Net-(J107-Pin_1)*%
X135136410Y-102876694D03*
%TD*%
D11*
%TO.P,J118,1,1*%
%TO.N,Net-(J102-Pin_1)*%
X153289000Y-128143000D03*
D12*
%TO.P,J118,2,2*%
%TO.N,Net-(J103-Pin_1)*%
X153289000Y-123063000D03*
%TD*%
D10*
%TO.P,J114,1,Pin_1*%
%TO.N,Net-(J106-Pin_1)*%
X135154390Y-107967303D03*
%TD*%
D16*
%TO.P,J119,1,Pin_1*%
%TO.N,Net-(J119-Pin_1)*%
X135132736Y-82570977D03*
%TD*%
D17*
%TO.N,Net-(J102-Pin_1)*%
X143129000Y-128270000D03*
X140335000Y-128270000D03*
X141732000Y-128270000D03*
%TO.N,Net-(J103-Pin_1)*%
X140335000Y-123190000D03*
X143256000Y-123190000D03*
X141732000Y-123190000D03*
%TO.N,Net-(J104-Pin_1)*%
X143637000Y-118110000D03*
X140335000Y-118110000D03*
X150621900Y-125222000D03*
X142113000Y-118110000D03*
%TO.N,Net-(J105-Pin_1)*%
X142113000Y-113030000D03*
X140462000Y-113030000D03*
X143637000Y-113030000D03*
%TO.N,Net-(J106-Pin_1)*%
X156718004Y-111633000D03*
X140716000Y-107950000D03*
X159766000Y-113030000D03*
X143891000Y-107950000D03*
X142367000Y-107950000D03*
%TO.N,Net-(J107-Pin_1)*%
X140716000Y-102870000D03*
X142493998Y-102870000D03*
X144145000Y-102870000D03*
%TO.N,Net-(J108-Pin_1)*%
X142240000Y-97790000D03*
X143891000Y-97790000D03*
X140716000Y-97790000D03*
%TO.N,Net-(J109-Pin_1)*%
X144145000Y-92710000D03*
X140589000Y-92710000D03*
X142367000Y-92710000D03*
%TO.N,M*%
X153289000Y-110617000D03*
X143637000Y-87376000D03*
X150876002Y-120650000D03*
X140208000Y-87376000D03*
X152146000Y-110617000D03*
X141859000Y-87376000D03*
X151892000Y-120650000D03*
%TD*%
D18*
%TO.N,Net-(J102-Pin_1)*%
X145669000Y-126719949D02*
X144118953Y-128269996D01*
X141732000Y-128270000D02*
X143129000Y-128270000D01*
X135142141Y-128270000D02*
X140335000Y-128270000D01*
X153162000Y-128270000D02*
X153289000Y-128143000D01*
X140335000Y-128270000D02*
X141732000Y-128270000D01*
X143129000Y-128270000D02*
X153162000Y-128270000D01*
X135142145Y-128269996D02*
X135142141Y-128270000D01*
X144118953Y-128269996D02*
X135142145Y-128269996D01*
X145669000Y-125730000D02*
X145669000Y-126719949D01*
%TO.N,Net-(J103-Pin_1)*%
X145669000Y-115697000D02*
X154534289Y-115697000D01*
X155099000Y-121639712D02*
X153548712Y-123190000D01*
X155099000Y-116261711D02*
X155099000Y-121639712D01*
X135143692Y-123190000D02*
X135135726Y-123197966D01*
X140335000Y-123190000D02*
X135143692Y-123190000D01*
X143256000Y-123190000D02*
X141732000Y-123190000D01*
X141732000Y-123190000D02*
X140335000Y-123190000D01*
X153548712Y-123190000D02*
X143256000Y-123190000D01*
X154534289Y-115697000D02*
X155099000Y-116261711D01*
%TO.N,Net-(J104-Pin_1)*%
X142113000Y-118110000D02*
X140335000Y-118110000D01*
X140335000Y-118110000D02*
X135153592Y-118110000D01*
D19*
X150621900Y-125222000D02*
X154178000Y-125222000D01*
D18*
X143637000Y-118110000D02*
X142113000Y-118110000D01*
X153162000Y-118110000D02*
X143637000Y-118110000D01*
D19*
X154178000Y-125222000D02*
X155321000Y-126365000D01*
X155321000Y-134112000D02*
X156972000Y-135763000D01*
X155321000Y-126365000D02*
X155321000Y-134112000D01*
D18*
X153289000Y-117983000D02*
X153162000Y-118110000D01*
X135153592Y-118110000D02*
X135144119Y-118119473D01*
%TO.N,Net-(J105-Pin_1)*%
X142113000Y-113030000D02*
X140462000Y-113030000D01*
D19*
X157226000Y-132461000D02*
X157226000Y-115461142D01*
X158115000Y-138049000D02*
X159639000Y-136525000D01*
X159639000Y-136525000D02*
X159639000Y-134874000D01*
D18*
X153289000Y-112903000D02*
X153162000Y-113030000D01*
D19*
X154432000Y-135763000D02*
X154432000Y-136652000D01*
X159639000Y-134874000D02*
X157226000Y-132461000D01*
X157226000Y-115461142D02*
X154667858Y-112903000D01*
D18*
X143637000Y-113030000D02*
X142113000Y-113030000D01*
X153162000Y-113030000D02*
X143637000Y-113030000D01*
X140462000Y-113030000D02*
X135146810Y-113030000D01*
D19*
X155829000Y-138049000D02*
X158115000Y-138049000D01*
X154667858Y-112903000D02*
X153289000Y-112903000D01*
X154432000Y-136652000D02*
X155829000Y-138049000D01*
D18*
X135146810Y-113030000D02*
X135135726Y-113041084D01*
%TO.N,Net-(J106-Pin_1)*%
X153289000Y-107823000D02*
X153162000Y-107950000D01*
X158115004Y-113030000D02*
X156718004Y-111633000D01*
X153162000Y-107950000D02*
X143891000Y-107950000D01*
X159766000Y-113030000D02*
X158115004Y-113030000D01*
X140716000Y-107950000D02*
X139077000Y-107950000D01*
X143891000Y-107950000D02*
X142367000Y-107950000D01*
X142367000Y-107950000D02*
X140716000Y-107950000D01*
%TO.N,Net-(J107-Pin_1)*%
X142493998Y-102870000D02*
X140716000Y-102870000D01*
X135137499Y-102877783D02*
X139700000Y-102877783D01*
X153162000Y-102870000D02*
X144145000Y-102870000D01*
X153289000Y-102743000D02*
X153162000Y-102870000D01*
X140709306Y-102876694D02*
X140716000Y-102870000D01*
X144145000Y-102870000D02*
X142493998Y-102870000D01*
X135136410Y-102876694D02*
X140709306Y-102876694D01*
X135136410Y-102876694D02*
X135137499Y-102877783D01*
%TO.N,Net-(J108-Pin_1)*%
X143891000Y-97790000D02*
X153162000Y-97790000D01*
X153162000Y-97790000D02*
X153289000Y-97663000D01*
X145669000Y-95377000D02*
X145669000Y-97790000D01*
X140716000Y-97790000D02*
X140725342Y-97799342D01*
X140725342Y-97799342D02*
X142230658Y-97799342D01*
X145669000Y-97790000D02*
X142240000Y-97790000D01*
X135135726Y-97805761D02*
X135151487Y-97790000D01*
X142230658Y-97799342D02*
X142240000Y-97790000D01*
X135151487Y-97790000D02*
X143891000Y-97790000D01*
%TO.N,Net-(J109-Pin_1)*%
X135142145Y-92720901D02*
X135153046Y-92710000D01*
X140589000Y-92710000D02*
X142367000Y-92710000D01*
X145669000Y-92710000D02*
X145658099Y-92720901D01*
X142367000Y-92710000D02*
X144145000Y-92710000D01*
X135153046Y-92710000D02*
X140589000Y-92710000D01*
X144145000Y-92710000D02*
X153162000Y-92710000D01*
X145669000Y-90220000D02*
X145669000Y-92710000D01*
X153162000Y-92710000D02*
X153289000Y-92583000D01*
X145658099Y-92720901D02*
X135142145Y-92720901D01*
%TO.N,Net-(J119-Pin_1)*%
X153289000Y-82423000D02*
X153162000Y-82550000D01*
X135153713Y-82550000D02*
X135132736Y-82570977D01*
X153162000Y-82550000D02*
X135153713Y-82550000D01*
%TO.N,M*%
X145669000Y-85140000D02*
X145669000Y-86995000D01*
X153289000Y-110617000D02*
X153659000Y-110617000D01*
X157353000Y-107379000D02*
X157353000Y-102870000D01*
X157353000Y-102870000D02*
X154940000Y-100457000D01*
X157480000Y-97917000D02*
X154940000Y-100457000D01*
X152146000Y-110617000D02*
X153289000Y-110617000D01*
X152146000Y-110617000D02*
X154115000Y-110617000D01*
X157480000Y-90297000D02*
X157480000Y-97917000D01*
X145669000Y-120650000D02*
X150876002Y-120650000D01*
X145669000Y-86995000D02*
X146177000Y-87503000D01*
X141859000Y-87376000D02*
X140208000Y-87376000D01*
X154686000Y-87503000D02*
X157480000Y-90297000D01*
X154115000Y-110617000D02*
X157353000Y-107379000D01*
X153162000Y-87376000D02*
X153289000Y-87503000D01*
X140208000Y-87376000D02*
X135428400Y-87376000D01*
X143637000Y-87376000D02*
X141859000Y-87376000D01*
X135428400Y-87376000D02*
X135157097Y-87647303D01*
X153289000Y-87503000D02*
X154686000Y-87503000D01*
X143637000Y-87376000D02*
X153162000Y-87376000D01*
X146177000Y-87503000D02*
X153289000Y-87503000D01*
X151892000Y-120650000D02*
X150876002Y-120650000D01*
X154940000Y-100457000D02*
X145669000Y-100457000D01*
X145669000Y-110617000D02*
X152146000Y-110617000D01*
%TD*%
M02*
