%TF.GenerationSoftware,KiCad,Pcbnew,7.0.11*%
%TF.CreationDate,2024-11-29T15:02:53-05:00*%
%TF.ProjectId,14.1.5 - PMOS - PLC Connector Combined,31342e31-2e35-4202-9d20-504d4f53202d,rev?*%
%TF.SameCoordinates,Original*%
%TF.FileFunction,Drillmap*%
%TF.FilePolarity,Positive*%
%FSLAX45Y45*%
G04 Gerber Fmt 4.5, Leading zero omitted, Abs format (unit mm)*
G04 Created by KiCad (PCBNEW 7.0.11) date 2024-11-29 15:02:53*
%MOMM*%
%LPD*%
G01*
G04 APERTURE LIST*
%ADD10C,0.250000*%
%ADD11C,0.200000*%
%ADD12C,0.100000*%
G04 APERTURE END LIST*
D10*
X7124000Y-7599000D02*
X8249000Y-7599000D01*
X10024000Y-11518750D02*
X10024000Y-12520750D01*
X13198999Y-9212051D02*
G75*
G03*
X13124000Y-9137051I-74999J1D01*
G01*
X7049000Y-7778000D02*
X7049000Y-7674000D01*
X8249000Y-11917000D02*
X7124000Y-11917000D01*
X7124000Y-8615000D02*
X8249000Y-8615000D01*
X10224000Y-12520750D02*
X10224000Y-11518750D01*
X7049000Y-11334000D02*
X7049000Y-11230000D01*
X13124000Y-10915051D02*
X12149000Y-10915051D01*
X10024000Y-7312000D02*
X10024000Y-8314000D01*
X7049000Y-11334000D02*
G75*
G03*
X7124000Y-11409000I75000J0D01*
G01*
X13198999Y-12260051D02*
G75*
G03*
X13124000Y-12185051I-74999J1D01*
G01*
X7049000Y-8794000D02*
G75*
G03*
X7124000Y-8869000I75000J0D01*
G01*
X12073999Y-7030051D02*
G75*
G03*
X12149000Y-7105051I75001J1D01*
G01*
X8249000Y-7091000D02*
G75*
G03*
X8324000Y-7016000I0J75000D01*
G01*
X8249000Y-9377000D02*
X7124000Y-9377000D01*
X12074000Y-12006051D02*
X12074000Y-12110051D01*
X12074000Y-7942051D02*
X12074000Y-8554051D01*
X7049000Y-11842000D02*
G75*
G03*
X7124000Y-11917000I75000J0D01*
G01*
X13199000Y-12260051D02*
X13199000Y-12364051D01*
X7124000Y-8615000D02*
G75*
G03*
X7049000Y-8690000I0J-75000D01*
G01*
X7124000Y-11663000D02*
G75*
G03*
X7049000Y-11738000I0J-75000D01*
G01*
X10024000Y-6912000D02*
G75*
G03*
X10224000Y-6912000I100000J0D01*
G01*
X7049000Y-10826000D02*
G75*
G03*
X7124000Y-10901000I75000J0D01*
G01*
X8324000Y-8032000D02*
X8324000Y-7928000D01*
X12073999Y-7538051D02*
G75*
G03*
X12149000Y-7613051I75001J1D01*
G01*
X12073999Y-10586051D02*
G75*
G03*
X12149000Y-10661051I75001J1D01*
G01*
X12149000Y-7867050D02*
G75*
G03*
X12074000Y-7942051I0J-75000D01*
G01*
X8249000Y-10393000D02*
X7124000Y-10393000D01*
X12149000Y-11931050D02*
G75*
G03*
X12074000Y-12006051I0J-75000D01*
G01*
X12149000Y-8629051D02*
X13124000Y-8629051D01*
X13124000Y-7359051D02*
X12149000Y-7359051D01*
X13124000Y-9391051D02*
X12149000Y-9391051D01*
X8249000Y-7599000D02*
G75*
G03*
X8324000Y-7524000I0J75000D01*
G01*
X10024000Y-6912000D02*
G75*
G03*
X9949000Y-6837000I-75000J0D01*
G01*
X8249000Y-7345000D02*
X7124000Y-7345000D01*
X13198999Y-10736051D02*
G75*
G03*
X13124000Y-10661051I-74999J1D01*
G01*
X13199000Y-9212051D02*
X13199000Y-9316051D01*
X10024000Y-8714000D02*
X10024000Y-9716000D01*
X7049000Y-9810000D02*
G75*
G03*
X7124000Y-9885000I75000J0D01*
G01*
X13124000Y-10407051D02*
X12149000Y-10407051D01*
X7049000Y-7778000D02*
G75*
G03*
X7124000Y-7853000I75000J0D01*
G01*
X7049000Y-8794000D02*
X7049000Y-8690000D01*
X8324000Y-11080000D02*
X8324000Y-10976000D01*
X13198999Y-11752051D02*
G75*
G03*
X13124000Y-11677051I-74999J1D01*
G01*
X13124000Y-8883051D02*
X12149000Y-8883051D01*
X7124000Y-11155000D02*
G75*
G03*
X7049000Y-11230000I0J-75000D01*
G01*
X13199000Y-8704051D02*
X13199000Y-8808051D01*
X8324000Y-11484000D02*
G75*
G03*
X8249000Y-11409000I-75000J0D01*
G01*
X10224000Y-10116750D02*
G75*
G03*
X10024000Y-10116750I-100000J0D01*
G01*
X8249000Y-9123000D02*
G75*
G03*
X8324000Y-9048000I0J75000D01*
G01*
X13124000Y-9391050D02*
G75*
G03*
X13199000Y-9316051I0J75000D01*
G01*
X7124000Y-11663000D02*
X8249000Y-11663000D01*
X8249000Y-7853000D02*
X7124000Y-7853000D01*
X8249000Y-10901000D02*
X7124000Y-10901000D01*
X7049000Y-10318000D02*
X7049000Y-10214000D01*
X8324000Y-8944000D02*
G75*
G03*
X8249000Y-8869000I-75000J0D01*
G01*
X12149000Y-9391050D02*
G75*
G03*
X12074000Y-9466051I0J-75000D01*
G01*
X8324000Y-12920750D02*
G75*
G03*
X8399000Y-12995750I75000J0D01*
G01*
X8324000Y-7016000D02*
X8324000Y-6912000D01*
X7049000Y-8286000D02*
G75*
G03*
X7124000Y-8361000I75000J0D01*
G01*
X10224000Y-12920750D02*
G75*
G03*
X10024000Y-12920750I-100000J0D01*
G01*
X10224000Y-11118750D02*
X10224000Y-10116750D01*
X7124000Y-10647000D02*
G75*
G03*
X7049000Y-10722000I0J-75000D01*
G01*
X8249000Y-10647000D02*
G75*
G03*
X8324000Y-10572000I0J75000D01*
G01*
X13198999Y-10228051D02*
G75*
G03*
X13124000Y-10153051I-74999J1D01*
G01*
X10224000Y-9716000D02*
X10224000Y-8714000D01*
X12149000Y-10915050D02*
G75*
G03*
X12074000Y-10990051I0J-75000D01*
G01*
X8249000Y-8361000D02*
X7124000Y-8361000D01*
X8324000Y-10468000D02*
G75*
G03*
X8249000Y-10393000I-75000J0D01*
G01*
X8249000Y-8615000D02*
G75*
G03*
X8324000Y-8540000I0J75000D01*
G01*
X12149000Y-11677051D02*
X13124000Y-11677051D01*
X9949000Y-12995750D02*
X8399000Y-12995750D01*
X12073999Y-6730051D02*
G75*
G03*
X11999000Y-6655051I-74999J1D01*
G01*
X12073999Y-11602051D02*
G75*
G03*
X12149000Y-11677051I75001J1D01*
G01*
X13124000Y-7867050D02*
G75*
G03*
X13199000Y-7792051I0J75000D01*
G01*
X7124000Y-10139000D02*
X8249000Y-10139000D01*
X10224000Y-7312000D02*
G75*
G03*
X10024000Y-7312000I-100000J0D01*
G01*
X10299000Y-6655050D02*
G75*
G03*
X10224000Y-6730051I0J-75000D01*
G01*
X12074000Y-6730051D02*
X12074000Y-7030051D01*
X12073999Y-10078051D02*
G75*
G03*
X12149000Y-10153051I75001J1D01*
G01*
X7049000Y-8286000D02*
X7049000Y-8182000D01*
X13124000Y-11931051D02*
X12149000Y-11931051D01*
X7049000Y-10318000D02*
G75*
G03*
X7124000Y-10393000I75000J0D01*
G01*
X13199000Y-7688051D02*
X13199000Y-7792051D01*
X8324000Y-10976000D02*
G75*
G03*
X8249000Y-10901000I-75000J0D01*
G01*
X12074000Y-10482051D02*
X12074000Y-10586051D01*
X7124000Y-7599000D02*
G75*
G03*
X7049000Y-7674000I0J-75000D01*
G01*
X8249000Y-8107000D02*
G75*
G03*
X8324000Y-8032000I0J75000D01*
G01*
X8324000Y-10064000D02*
X8324000Y-9960000D01*
X12149000Y-7359050D02*
G75*
G03*
X12074000Y-7434051I0J-75000D01*
G01*
X10024000Y-10116750D02*
X10024000Y-11118750D01*
X8324000Y-8436000D02*
G75*
G03*
X8249000Y-8361000I-75000J0D01*
G01*
X7124000Y-11155000D02*
X8249000Y-11155000D01*
X7049000Y-7270000D02*
X7049000Y-7166000D01*
X8324000Y-11992000D02*
G75*
G03*
X8249000Y-11917000I-75000J0D01*
G01*
X12149000Y-10407050D02*
G75*
G03*
X12074000Y-10482051I0J-75000D01*
G01*
X12074000Y-9466051D02*
X12074000Y-10078051D01*
X8324000Y-11588000D02*
X8324000Y-11484000D01*
X13124000Y-11931050D02*
G75*
G03*
X13199000Y-11856051I0J75000D01*
G01*
X10024000Y-11118750D02*
G75*
G03*
X10224000Y-11118750I100000J0D01*
G01*
X7124000Y-10139000D02*
G75*
G03*
X7049000Y-10214000I0J-75000D01*
G01*
X8399000Y-6837000D02*
G75*
G03*
X8324000Y-6912000I0J-75000D01*
G01*
X7049000Y-10826000D02*
X7049000Y-10722000D01*
X13198999Y-7180051D02*
G75*
G03*
X13124000Y-7105051I-74999J1D01*
G01*
X12073999Y-9062051D02*
G75*
G03*
X12149000Y-9137051I75001J1D01*
G01*
X7124000Y-7091000D02*
G75*
G03*
X7049000Y-7166000I0J-75000D01*
G01*
X8324000Y-8540000D02*
X8324000Y-8436000D01*
X12073999Y-8554051D02*
G75*
G03*
X12149000Y-8629051I75001J1D01*
G01*
X7124000Y-9123000D02*
G75*
G03*
X7049000Y-9198000I0J-75000D01*
G01*
X12149000Y-8883050D02*
G75*
G03*
X12074000Y-8958051I0J-75000D01*
G01*
X7124000Y-9631000D02*
G75*
G03*
X7049000Y-9706000I0J-75000D01*
G01*
X7049000Y-9810000D02*
X7049000Y-9706000D01*
X7049000Y-9302000D02*
X7049000Y-9198000D01*
X8324000Y-7420000D02*
G75*
G03*
X8249000Y-7345000I-75000J0D01*
G01*
X8249000Y-11409000D02*
X7124000Y-11409000D01*
X7049000Y-9302000D02*
G75*
G03*
X7124000Y-9377000I75000J0D01*
G01*
X13124000Y-12439050D02*
G75*
G03*
X13199000Y-12364051I0J75000D01*
G01*
X12149000Y-12185051D02*
X13124000Y-12185051D01*
X7049000Y-7270000D02*
G75*
G03*
X7124000Y-7345000I75000J0D01*
G01*
X8324000Y-10572000D02*
X8324000Y-10468000D01*
X10224000Y-6912000D02*
X10224000Y-6730051D01*
X12073999Y-12110051D02*
G75*
G03*
X12149000Y-12185051I75001J1D01*
G01*
X7124000Y-9631000D02*
X8249000Y-9631000D01*
X7124000Y-8107000D02*
G75*
G03*
X7049000Y-8182000I0J-75000D01*
G01*
X12074000Y-8958051D02*
X12074000Y-9062051D01*
X8324000Y-9960000D02*
G75*
G03*
X8249000Y-9885000I-75000J0D01*
G01*
X8249000Y-9885000D02*
X7124000Y-9885000D01*
X10024000Y-8314000D02*
G75*
G03*
X10224000Y-8314000I100000J0D01*
G01*
X11999000Y-13439051D02*
X10299000Y-13439051D01*
X8249000Y-11663000D02*
G75*
G03*
X8324000Y-11588000I0J75000D01*
G01*
X7124000Y-8107000D02*
X8249000Y-8107000D01*
X7124000Y-7091000D02*
X8249000Y-7091000D01*
X8324000Y-7524000D02*
X8324000Y-7420000D01*
X10224000Y-13364051D02*
X10224000Y-12920750D01*
X11999000Y-13439050D02*
G75*
G03*
X12074000Y-13364051I0J75000D01*
G01*
X13124000Y-10407050D02*
G75*
G03*
X13199000Y-10332051I0J75000D01*
G01*
X10224000Y-8714000D02*
G75*
G03*
X10024000Y-8714000I-100000J0D01*
G01*
X8324000Y-9452000D02*
G75*
G03*
X8249000Y-9377000I-75000J0D01*
G01*
X10224000Y-11518750D02*
G75*
G03*
X10024000Y-11518750I-100000J0D01*
G01*
X10024000Y-12520750D02*
G75*
G03*
X10224000Y-12520750I100000J0D01*
G01*
X12074000Y-10990051D02*
X12074000Y-11602051D01*
X9949000Y-12995750D02*
G75*
G03*
X10024000Y-12920750I0J75000D01*
G01*
X12074000Y-7434051D02*
X12074000Y-7538051D01*
X13199000Y-7180051D02*
X13199000Y-7284051D01*
X12149000Y-10153051D02*
X13124000Y-10153051D01*
X10224000Y-8314000D02*
X10224000Y-7312000D01*
X8324000Y-12920750D02*
X8324000Y-11992000D01*
X8249000Y-9631000D02*
G75*
G03*
X8324000Y-9556000I0J75000D01*
G01*
X7049000Y-11842000D02*
X7049000Y-11738000D01*
X8324000Y-9048000D02*
X8324000Y-8944000D01*
X13199000Y-10736051D02*
X13199000Y-10840051D01*
X10223999Y-13364051D02*
G75*
G03*
X10299000Y-13439051I75001J1D01*
G01*
X12149000Y-7613051D02*
X13124000Y-7613051D01*
X13124000Y-12439051D02*
X12149000Y-12439051D01*
X13198999Y-8704051D02*
G75*
G03*
X13124000Y-8629051I-74999J1D01*
G01*
X8249000Y-10139000D02*
G75*
G03*
X8324000Y-10064000I0J75000D01*
G01*
X8324000Y-7928000D02*
G75*
G03*
X8249000Y-7853000I-75000J0D01*
G01*
X8399000Y-6837000D02*
X9949000Y-6837000D01*
X13124000Y-8883050D02*
G75*
G03*
X13199000Y-8808051I0J75000D01*
G01*
X7124000Y-10647000D02*
X8249000Y-10647000D01*
X13199000Y-10228051D02*
X13199000Y-10332051D01*
X13124000Y-7359050D02*
G75*
G03*
X13199000Y-7284051I0J75000D01*
G01*
X13124000Y-10915050D02*
G75*
G03*
X13199000Y-10840051I0J75000D01*
G01*
X12149000Y-12439050D02*
G75*
G03*
X12074000Y-12514051I0J-75000D01*
G01*
X13198999Y-7688051D02*
G75*
G03*
X13124000Y-7613051I-74999J1D01*
G01*
X8324000Y-9556000D02*
X8324000Y-9452000D01*
X12149000Y-9137051D02*
X13124000Y-9137051D01*
X10299000Y-6655051D02*
X11999000Y-6655051D01*
X13124000Y-7867051D02*
X12149000Y-7867051D01*
X8249000Y-11155000D02*
G75*
G03*
X8324000Y-11080000I0J75000D01*
G01*
X13199000Y-11752051D02*
X13199000Y-11856051D01*
X12149000Y-10661051D02*
X13124000Y-10661051D01*
X7124000Y-9123000D02*
X8249000Y-9123000D01*
X8249000Y-8869000D02*
X7124000Y-8869000D01*
X10024000Y-9716000D02*
G75*
G03*
X10224000Y-9716000I100000J0D01*
G01*
X12149000Y-7105051D02*
X13124000Y-7105051D01*
X12074000Y-12514051D02*
X12074000Y-13364051D01*
D11*
D12*
X10029000Y-7011000D02*
X10079000Y-7061000D01*
X10079000Y-7011000D02*
X10029000Y-7061000D01*
X10029000Y-7086000D02*
X10079000Y-7136000D01*
X10079000Y-7086000D02*
X10029000Y-7136000D01*
X10029000Y-7161000D02*
X10079000Y-7211000D01*
X10079000Y-7161000D02*
X10029000Y-7211000D01*
X10030000Y-8414000D02*
X10080000Y-8464000D01*
X10080000Y-8414000D02*
X10030000Y-8464000D01*
X10030000Y-8489000D02*
X10080000Y-8539000D01*
X10080000Y-8489000D02*
X10030000Y-8539000D01*
X10030000Y-8564000D02*
X10080000Y-8614000D01*
X10080000Y-8564000D02*
X10030000Y-8614000D01*
X10030000Y-9816000D02*
X10080000Y-9866000D01*
X10080000Y-9816000D02*
X10030000Y-9866000D01*
X10030000Y-9891000D02*
X10080000Y-9941000D01*
X10080000Y-9891000D02*
X10030000Y-9941000D01*
X10030000Y-9966000D02*
X10080000Y-10016000D01*
X10080000Y-9966000D02*
X10030000Y-10016000D01*
X10030000Y-11217000D02*
X10080000Y-11267000D01*
X10080000Y-11217000D02*
X10030000Y-11267000D01*
X10030000Y-11292000D02*
X10080000Y-11342000D01*
X10080000Y-11292000D02*
X10030000Y-11342000D01*
X10030000Y-11367000D02*
X10080000Y-11417000D01*
X10080000Y-11367000D02*
X10030000Y-11417000D01*
X10030000Y-12620000D02*
X10080000Y-12670000D01*
X10080000Y-12620000D02*
X10030000Y-12670000D01*
X10030000Y-12695000D02*
X10080000Y-12745000D01*
X10080000Y-12695000D02*
X10030000Y-12745000D01*
X10030000Y-12770000D02*
X10080000Y-12820000D01*
X10080000Y-12770000D02*
X10030000Y-12820000D01*
X10179000Y-7011000D02*
X10229000Y-7061000D01*
X10229000Y-7011000D02*
X10179000Y-7061000D01*
X10179000Y-7086000D02*
X10229000Y-7136000D01*
X10229000Y-7086000D02*
X10179000Y-7136000D01*
X10179000Y-7161000D02*
X10229000Y-7211000D01*
X10229000Y-7161000D02*
X10179000Y-7211000D01*
X10180000Y-8414000D02*
X10230000Y-8464000D01*
X10230000Y-8414000D02*
X10180000Y-8464000D01*
X10180000Y-8489000D02*
X10230000Y-8539000D01*
X10230000Y-8489000D02*
X10180000Y-8539000D01*
X10180000Y-8564000D02*
X10230000Y-8614000D01*
X10230000Y-8564000D02*
X10180000Y-8614000D01*
X10180000Y-9816000D02*
X10230000Y-9866000D01*
X10230000Y-9816000D02*
X10180000Y-9866000D01*
X10180000Y-9891000D02*
X10230000Y-9941000D01*
X10230000Y-9891000D02*
X10180000Y-9941000D01*
X10180000Y-9966000D02*
X10230000Y-10016000D01*
X10230000Y-9966000D02*
X10180000Y-10016000D01*
X10180000Y-11217000D02*
X10230000Y-11267000D01*
X10230000Y-11217000D02*
X10180000Y-11267000D01*
X10180000Y-11292000D02*
X10230000Y-11342000D01*
X10230000Y-11292000D02*
X10180000Y-11342000D01*
X10180000Y-11367000D02*
X10230000Y-11417000D01*
X10230000Y-11367000D02*
X10180000Y-11417000D01*
X10180000Y-12620000D02*
X10230000Y-12670000D01*
X10230000Y-12620000D02*
X10180000Y-12670000D01*
X10180000Y-12695000D02*
X10230000Y-12745000D01*
X10230000Y-12695000D02*
X10180000Y-12745000D01*
X10180000Y-12770000D02*
X10230000Y-12820000D01*
X10230000Y-12770000D02*
X10180000Y-12820000D01*
D11*
X7297277Y-13763035D02*
X7297277Y-13563035D01*
X7297277Y-13563035D02*
X7344896Y-13563035D01*
X7344896Y-13563035D02*
X7373467Y-13572559D01*
X7373467Y-13572559D02*
X7392515Y-13591606D01*
X7392515Y-13591606D02*
X7402039Y-13610654D01*
X7402039Y-13610654D02*
X7411562Y-13648749D01*
X7411562Y-13648749D02*
X7411562Y-13677320D01*
X7411562Y-13677320D02*
X7402039Y-13715416D01*
X7402039Y-13715416D02*
X7392515Y-13734463D01*
X7392515Y-13734463D02*
X7373467Y-13753511D01*
X7373467Y-13753511D02*
X7344896Y-13763035D01*
X7344896Y-13763035D02*
X7297277Y-13763035D01*
X7497277Y-13763035D02*
X7497277Y-13629701D01*
X7497277Y-13667797D02*
X7506801Y-13648749D01*
X7506801Y-13648749D02*
X7516324Y-13639225D01*
X7516324Y-13639225D02*
X7535372Y-13629701D01*
X7535372Y-13629701D02*
X7554420Y-13629701D01*
X7621086Y-13763035D02*
X7621086Y-13629701D01*
X7621086Y-13563035D02*
X7611562Y-13572559D01*
X7611562Y-13572559D02*
X7621086Y-13582082D01*
X7621086Y-13582082D02*
X7630610Y-13572559D01*
X7630610Y-13572559D02*
X7621086Y-13563035D01*
X7621086Y-13563035D02*
X7621086Y-13582082D01*
X7744896Y-13763035D02*
X7725848Y-13753511D01*
X7725848Y-13753511D02*
X7716324Y-13734463D01*
X7716324Y-13734463D02*
X7716324Y-13563035D01*
X7849658Y-13763035D02*
X7830610Y-13753511D01*
X7830610Y-13753511D02*
X7821086Y-13734463D01*
X7821086Y-13734463D02*
X7821086Y-13563035D01*
X8078229Y-13763035D02*
X8078229Y-13563035D01*
X8078229Y-13563035D02*
X8144896Y-13705892D01*
X8144896Y-13705892D02*
X8211562Y-13563035D01*
X8211562Y-13563035D02*
X8211562Y-13763035D01*
X8392515Y-13763035D02*
X8392515Y-13658273D01*
X8392515Y-13658273D02*
X8382991Y-13639225D01*
X8382991Y-13639225D02*
X8363943Y-13629701D01*
X8363943Y-13629701D02*
X8325848Y-13629701D01*
X8325848Y-13629701D02*
X8306801Y-13639225D01*
X8392515Y-13753511D02*
X8373467Y-13763035D01*
X8373467Y-13763035D02*
X8325848Y-13763035D01*
X8325848Y-13763035D02*
X8306801Y-13753511D01*
X8306801Y-13753511D02*
X8297277Y-13734463D01*
X8297277Y-13734463D02*
X8297277Y-13715416D01*
X8297277Y-13715416D02*
X8306801Y-13696368D01*
X8306801Y-13696368D02*
X8325848Y-13686844D01*
X8325848Y-13686844D02*
X8373467Y-13686844D01*
X8373467Y-13686844D02*
X8392515Y-13677320D01*
X8487753Y-13629701D02*
X8487753Y-13829701D01*
X8487753Y-13639225D02*
X8506801Y-13629701D01*
X8506801Y-13629701D02*
X8544896Y-13629701D01*
X8544896Y-13629701D02*
X8563944Y-13639225D01*
X8563944Y-13639225D02*
X8573467Y-13648749D01*
X8573467Y-13648749D02*
X8582991Y-13667797D01*
X8582991Y-13667797D02*
X8582991Y-13724939D01*
X8582991Y-13724939D02*
X8573467Y-13743987D01*
X8573467Y-13743987D02*
X8563944Y-13753511D01*
X8563944Y-13753511D02*
X8544896Y-13763035D01*
X8544896Y-13763035D02*
X8506801Y-13763035D01*
X8506801Y-13763035D02*
X8487753Y-13753511D01*
X8668705Y-13743987D02*
X8678229Y-13753511D01*
X8678229Y-13753511D02*
X8668705Y-13763035D01*
X8668705Y-13763035D02*
X8659182Y-13753511D01*
X8659182Y-13753511D02*
X8668705Y-13743987D01*
X8668705Y-13743987D02*
X8668705Y-13763035D01*
X8668705Y-13639225D02*
X8678229Y-13648749D01*
X8678229Y-13648749D02*
X8668705Y-13658273D01*
X8668705Y-13658273D02*
X8659182Y-13648749D01*
X8659182Y-13648749D02*
X8668705Y-13639225D01*
X8668705Y-13639225D02*
X8668705Y-13658273D01*
D12*
X6986500Y-14066551D02*
X7036500Y-14116551D01*
X7036500Y-14066551D02*
X6986500Y-14116551D01*
D11*
X7335372Y-13983035D02*
X7354420Y-13983035D01*
X7354420Y-13983035D02*
X7373467Y-13992559D01*
X7373467Y-13992559D02*
X7382991Y-14002082D01*
X7382991Y-14002082D02*
X7392515Y-14021130D01*
X7392515Y-14021130D02*
X7402039Y-14059225D01*
X7402039Y-14059225D02*
X7402039Y-14106844D01*
X7402039Y-14106844D02*
X7392515Y-14144939D01*
X7392515Y-14144939D02*
X7382991Y-14163987D01*
X7382991Y-14163987D02*
X7373467Y-14173511D01*
X7373467Y-14173511D02*
X7354420Y-14183035D01*
X7354420Y-14183035D02*
X7335372Y-14183035D01*
X7335372Y-14183035D02*
X7316324Y-14173511D01*
X7316324Y-14173511D02*
X7306801Y-14163987D01*
X7306801Y-14163987D02*
X7297277Y-14144939D01*
X7297277Y-14144939D02*
X7287753Y-14106844D01*
X7287753Y-14106844D02*
X7287753Y-14059225D01*
X7287753Y-14059225D02*
X7297277Y-14021130D01*
X7297277Y-14021130D02*
X7306801Y-14002082D01*
X7306801Y-14002082D02*
X7316324Y-13992559D01*
X7316324Y-13992559D02*
X7335372Y-13983035D01*
X7487753Y-14163987D02*
X7497277Y-14173511D01*
X7497277Y-14173511D02*
X7487753Y-14183035D01*
X7487753Y-14183035D02*
X7478229Y-14173511D01*
X7478229Y-14173511D02*
X7487753Y-14163987D01*
X7487753Y-14163987D02*
X7487753Y-14183035D01*
X7678229Y-13983035D02*
X7582991Y-13983035D01*
X7582991Y-13983035D02*
X7573467Y-14078273D01*
X7573467Y-14078273D02*
X7582991Y-14068749D01*
X7582991Y-14068749D02*
X7602039Y-14059225D01*
X7602039Y-14059225D02*
X7649658Y-14059225D01*
X7649658Y-14059225D02*
X7668705Y-14068749D01*
X7668705Y-14068749D02*
X7678229Y-14078273D01*
X7678229Y-14078273D02*
X7687753Y-14097320D01*
X7687753Y-14097320D02*
X7687753Y-14144939D01*
X7687753Y-14144939D02*
X7678229Y-14163987D01*
X7678229Y-14163987D02*
X7668705Y-14173511D01*
X7668705Y-14173511D02*
X7649658Y-14183035D01*
X7649658Y-14183035D02*
X7602039Y-14183035D01*
X7602039Y-14183035D02*
X7582991Y-14173511D01*
X7582991Y-14173511D02*
X7573467Y-14163987D01*
X7811562Y-13983035D02*
X7830610Y-13983035D01*
X7830610Y-13983035D02*
X7849658Y-13992559D01*
X7849658Y-13992559D02*
X7859182Y-14002082D01*
X7859182Y-14002082D02*
X7868705Y-14021130D01*
X7868705Y-14021130D02*
X7878229Y-14059225D01*
X7878229Y-14059225D02*
X7878229Y-14106844D01*
X7878229Y-14106844D02*
X7868705Y-14144939D01*
X7868705Y-14144939D02*
X7859182Y-14163987D01*
X7859182Y-14163987D02*
X7849658Y-14173511D01*
X7849658Y-14173511D02*
X7830610Y-14183035D01*
X7830610Y-14183035D02*
X7811562Y-14183035D01*
X7811562Y-14183035D02*
X7792515Y-14173511D01*
X7792515Y-14173511D02*
X7782991Y-14163987D01*
X7782991Y-14163987D02*
X7773467Y-14144939D01*
X7773467Y-14144939D02*
X7763943Y-14106844D01*
X7763943Y-14106844D02*
X7763943Y-14059225D01*
X7763943Y-14059225D02*
X7773467Y-14021130D01*
X7773467Y-14021130D02*
X7782991Y-14002082D01*
X7782991Y-14002082D02*
X7792515Y-13992559D01*
X7792515Y-13992559D02*
X7811562Y-13983035D01*
X8002039Y-13983035D02*
X8021086Y-13983035D01*
X8021086Y-13983035D02*
X8040134Y-13992559D01*
X8040134Y-13992559D02*
X8049658Y-14002082D01*
X8049658Y-14002082D02*
X8059182Y-14021130D01*
X8059182Y-14021130D02*
X8068705Y-14059225D01*
X8068705Y-14059225D02*
X8068705Y-14106844D01*
X8068705Y-14106844D02*
X8059182Y-14144939D01*
X8059182Y-14144939D02*
X8049658Y-14163987D01*
X8049658Y-14163987D02*
X8040134Y-14173511D01*
X8040134Y-14173511D02*
X8021086Y-14183035D01*
X8021086Y-14183035D02*
X8002039Y-14183035D01*
X8002039Y-14183035D02*
X7982991Y-14173511D01*
X7982991Y-14173511D02*
X7973467Y-14163987D01*
X7973467Y-14163987D02*
X7963943Y-14144939D01*
X7963943Y-14144939D02*
X7954420Y-14106844D01*
X7954420Y-14106844D02*
X7954420Y-14059225D01*
X7954420Y-14059225D02*
X7963943Y-14021130D01*
X7963943Y-14021130D02*
X7973467Y-14002082D01*
X7973467Y-14002082D02*
X7982991Y-13992559D01*
X7982991Y-13992559D02*
X8002039Y-13983035D01*
X8154420Y-14183035D02*
X8154420Y-14049701D01*
X8154420Y-14068749D02*
X8163943Y-14059225D01*
X8163943Y-14059225D02*
X8182991Y-14049701D01*
X8182991Y-14049701D02*
X8211563Y-14049701D01*
X8211563Y-14049701D02*
X8230610Y-14059225D01*
X8230610Y-14059225D02*
X8240134Y-14078273D01*
X8240134Y-14078273D02*
X8240134Y-14183035D01*
X8240134Y-14078273D02*
X8249658Y-14059225D01*
X8249658Y-14059225D02*
X8268705Y-14049701D01*
X8268705Y-14049701D02*
X8297277Y-14049701D01*
X8297277Y-14049701D02*
X8316324Y-14059225D01*
X8316324Y-14059225D02*
X8325848Y-14078273D01*
X8325848Y-14078273D02*
X8325848Y-14183035D01*
X8421086Y-14183035D02*
X8421086Y-14049701D01*
X8421086Y-14068749D02*
X8430610Y-14059225D01*
X8430610Y-14059225D02*
X8449658Y-14049701D01*
X8449658Y-14049701D02*
X8478229Y-14049701D01*
X8478229Y-14049701D02*
X8497277Y-14059225D01*
X8497277Y-14059225D02*
X8506801Y-14078273D01*
X8506801Y-14078273D02*
X8506801Y-14183035D01*
X8506801Y-14078273D02*
X8516325Y-14059225D01*
X8516325Y-14059225D02*
X8535372Y-14049701D01*
X8535372Y-14049701D02*
X8563944Y-14049701D01*
X8563944Y-14049701D02*
X8582991Y-14059225D01*
X8582991Y-14059225D02*
X8592515Y-14078273D01*
X8592515Y-14078273D02*
X8592515Y-14183035D01*
X8982991Y-13973511D02*
X8811563Y-14230654D01*
X9240134Y-13983035D02*
X9259182Y-13983035D01*
X9259182Y-13983035D02*
X9278229Y-13992559D01*
X9278229Y-13992559D02*
X9287753Y-14002082D01*
X9287753Y-14002082D02*
X9297277Y-14021130D01*
X9297277Y-14021130D02*
X9306801Y-14059225D01*
X9306801Y-14059225D02*
X9306801Y-14106844D01*
X9306801Y-14106844D02*
X9297277Y-14144939D01*
X9297277Y-14144939D02*
X9287753Y-14163987D01*
X9287753Y-14163987D02*
X9278229Y-14173511D01*
X9278229Y-14173511D02*
X9259182Y-14183035D01*
X9259182Y-14183035D02*
X9240134Y-14183035D01*
X9240134Y-14183035D02*
X9221087Y-14173511D01*
X9221087Y-14173511D02*
X9211563Y-14163987D01*
X9211563Y-14163987D02*
X9202039Y-14144939D01*
X9202039Y-14144939D02*
X9192515Y-14106844D01*
X9192515Y-14106844D02*
X9192515Y-14059225D01*
X9192515Y-14059225D02*
X9202039Y-14021130D01*
X9202039Y-14021130D02*
X9211563Y-14002082D01*
X9211563Y-14002082D02*
X9221087Y-13992559D01*
X9221087Y-13992559D02*
X9240134Y-13983035D01*
X9392515Y-14163987D02*
X9402039Y-14173511D01*
X9402039Y-14173511D02*
X9392515Y-14183035D01*
X9392515Y-14183035D02*
X9382991Y-14173511D01*
X9382991Y-14173511D02*
X9392515Y-14163987D01*
X9392515Y-14163987D02*
X9392515Y-14183035D01*
X9525848Y-13983035D02*
X9544896Y-13983035D01*
X9544896Y-13983035D02*
X9563944Y-13992559D01*
X9563944Y-13992559D02*
X9573468Y-14002082D01*
X9573468Y-14002082D02*
X9582991Y-14021130D01*
X9582991Y-14021130D02*
X9592515Y-14059225D01*
X9592515Y-14059225D02*
X9592515Y-14106844D01*
X9592515Y-14106844D02*
X9582991Y-14144939D01*
X9582991Y-14144939D02*
X9573468Y-14163987D01*
X9573468Y-14163987D02*
X9563944Y-14173511D01*
X9563944Y-14173511D02*
X9544896Y-14183035D01*
X9544896Y-14183035D02*
X9525848Y-14183035D01*
X9525848Y-14183035D02*
X9506801Y-14173511D01*
X9506801Y-14173511D02*
X9497277Y-14163987D01*
X9497277Y-14163987D02*
X9487753Y-14144939D01*
X9487753Y-14144939D02*
X9478229Y-14106844D01*
X9478229Y-14106844D02*
X9478229Y-14059225D01*
X9478229Y-14059225D02*
X9487753Y-14021130D01*
X9487753Y-14021130D02*
X9497277Y-14002082D01*
X9497277Y-14002082D02*
X9506801Y-13992559D01*
X9506801Y-13992559D02*
X9525848Y-13983035D01*
X9782991Y-14183035D02*
X9668706Y-14183035D01*
X9725848Y-14183035D02*
X9725848Y-13983035D01*
X9725848Y-13983035D02*
X9706801Y-14011606D01*
X9706801Y-14011606D02*
X9687753Y-14030654D01*
X9687753Y-14030654D02*
X9668706Y-14040178D01*
X9878229Y-14183035D02*
X9916325Y-14183035D01*
X9916325Y-14183035D02*
X9935372Y-14173511D01*
X9935372Y-14173511D02*
X9944896Y-14163987D01*
X9944896Y-14163987D02*
X9963944Y-14135416D01*
X9963944Y-14135416D02*
X9973468Y-14097320D01*
X9973468Y-14097320D02*
X9973468Y-14021130D01*
X9973468Y-14021130D02*
X9963944Y-14002082D01*
X9963944Y-14002082D02*
X9954420Y-13992559D01*
X9954420Y-13992559D02*
X9935372Y-13983035D01*
X9935372Y-13983035D02*
X9897277Y-13983035D01*
X9897277Y-13983035D02*
X9878229Y-13992559D01*
X9878229Y-13992559D02*
X9868706Y-14002082D01*
X9868706Y-14002082D02*
X9859182Y-14021130D01*
X9859182Y-14021130D02*
X9859182Y-14068749D01*
X9859182Y-14068749D02*
X9868706Y-14087797D01*
X9868706Y-14087797D02*
X9878229Y-14097320D01*
X9878229Y-14097320D02*
X9897277Y-14106844D01*
X9897277Y-14106844D02*
X9935372Y-14106844D01*
X9935372Y-14106844D02*
X9954420Y-14097320D01*
X9954420Y-14097320D02*
X9963944Y-14087797D01*
X9963944Y-14087797D02*
X9973468Y-14068749D01*
X10040134Y-13983035D02*
X10173468Y-13983035D01*
X10173468Y-13983035D02*
X10087753Y-14183035D01*
X10240134Y-13983035D02*
X10240134Y-14021130D01*
X10316325Y-13983035D02*
X10316325Y-14021130D01*
X10611563Y-14259225D02*
X10602039Y-14249701D01*
X10602039Y-14249701D02*
X10582991Y-14221130D01*
X10582991Y-14221130D02*
X10573468Y-14202082D01*
X10573468Y-14202082D02*
X10563944Y-14173511D01*
X10563944Y-14173511D02*
X10554420Y-14125892D01*
X10554420Y-14125892D02*
X10554420Y-14087797D01*
X10554420Y-14087797D02*
X10563944Y-14040178D01*
X10563944Y-14040178D02*
X10573468Y-14011606D01*
X10573468Y-14011606D02*
X10582991Y-13992559D01*
X10582991Y-13992559D02*
X10602039Y-13963987D01*
X10602039Y-13963987D02*
X10611563Y-13954463D01*
X10668706Y-13983035D02*
X10792515Y-13983035D01*
X10792515Y-13983035D02*
X10725849Y-14059225D01*
X10725849Y-14059225D02*
X10754420Y-14059225D01*
X10754420Y-14059225D02*
X10773468Y-14068749D01*
X10773468Y-14068749D02*
X10782991Y-14078273D01*
X10782991Y-14078273D02*
X10792515Y-14097320D01*
X10792515Y-14097320D02*
X10792515Y-14144939D01*
X10792515Y-14144939D02*
X10782991Y-14163987D01*
X10782991Y-14163987D02*
X10773468Y-14173511D01*
X10773468Y-14173511D02*
X10754420Y-14183035D01*
X10754420Y-14183035D02*
X10697277Y-14183035D01*
X10697277Y-14183035D02*
X10678230Y-14173511D01*
X10678230Y-14173511D02*
X10668706Y-14163987D01*
X10916325Y-13983035D02*
X10935372Y-13983035D01*
X10935372Y-13983035D02*
X10954420Y-13992559D01*
X10954420Y-13992559D02*
X10963944Y-14002082D01*
X10963944Y-14002082D02*
X10973468Y-14021130D01*
X10973468Y-14021130D02*
X10982991Y-14059225D01*
X10982991Y-14059225D02*
X10982991Y-14106844D01*
X10982991Y-14106844D02*
X10973468Y-14144939D01*
X10973468Y-14144939D02*
X10963944Y-14163987D01*
X10963944Y-14163987D02*
X10954420Y-14173511D01*
X10954420Y-14173511D02*
X10935372Y-14183035D01*
X10935372Y-14183035D02*
X10916325Y-14183035D01*
X10916325Y-14183035D02*
X10897277Y-14173511D01*
X10897277Y-14173511D02*
X10887753Y-14163987D01*
X10887753Y-14163987D02*
X10878230Y-14144939D01*
X10878230Y-14144939D02*
X10868706Y-14106844D01*
X10868706Y-14106844D02*
X10868706Y-14059225D01*
X10868706Y-14059225D02*
X10878230Y-14021130D01*
X10878230Y-14021130D02*
X10887753Y-14002082D01*
X10887753Y-14002082D02*
X10897277Y-13992559D01*
X10897277Y-13992559D02*
X10916325Y-13983035D01*
X11221087Y-14183035D02*
X11221087Y-13983035D01*
X11306801Y-14183035D02*
X11306801Y-14078273D01*
X11306801Y-14078273D02*
X11297277Y-14059225D01*
X11297277Y-14059225D02*
X11278230Y-14049701D01*
X11278230Y-14049701D02*
X11249658Y-14049701D01*
X11249658Y-14049701D02*
X11230610Y-14059225D01*
X11230610Y-14059225D02*
X11221087Y-14068749D01*
X11430610Y-14183035D02*
X11411563Y-14173511D01*
X11411563Y-14173511D02*
X11402039Y-14163987D01*
X11402039Y-14163987D02*
X11392515Y-14144939D01*
X11392515Y-14144939D02*
X11392515Y-14087797D01*
X11392515Y-14087797D02*
X11402039Y-14068749D01*
X11402039Y-14068749D02*
X11411563Y-14059225D01*
X11411563Y-14059225D02*
X11430610Y-14049701D01*
X11430610Y-14049701D02*
X11459182Y-14049701D01*
X11459182Y-14049701D02*
X11478230Y-14059225D01*
X11478230Y-14059225D02*
X11487753Y-14068749D01*
X11487753Y-14068749D02*
X11497277Y-14087797D01*
X11497277Y-14087797D02*
X11497277Y-14144939D01*
X11497277Y-14144939D02*
X11487753Y-14163987D01*
X11487753Y-14163987D02*
X11478230Y-14173511D01*
X11478230Y-14173511D02*
X11459182Y-14183035D01*
X11459182Y-14183035D02*
X11430610Y-14183035D01*
X11611563Y-14183035D02*
X11592515Y-14173511D01*
X11592515Y-14173511D02*
X11582991Y-14154463D01*
X11582991Y-14154463D02*
X11582991Y-13983035D01*
X11763944Y-14173511D02*
X11744896Y-14183035D01*
X11744896Y-14183035D02*
X11706801Y-14183035D01*
X11706801Y-14183035D02*
X11687753Y-14173511D01*
X11687753Y-14173511D02*
X11678230Y-14154463D01*
X11678230Y-14154463D02*
X11678230Y-14078273D01*
X11678230Y-14078273D02*
X11687753Y-14059225D01*
X11687753Y-14059225D02*
X11706801Y-14049701D01*
X11706801Y-14049701D02*
X11744896Y-14049701D01*
X11744896Y-14049701D02*
X11763944Y-14059225D01*
X11763944Y-14059225D02*
X11773468Y-14078273D01*
X11773468Y-14078273D02*
X11773468Y-14097320D01*
X11773468Y-14097320D02*
X11678230Y-14116368D01*
X11849658Y-14173511D02*
X11868706Y-14183035D01*
X11868706Y-14183035D02*
X11906801Y-14183035D01*
X11906801Y-14183035D02*
X11925849Y-14173511D01*
X11925849Y-14173511D02*
X11935372Y-14154463D01*
X11935372Y-14154463D02*
X11935372Y-14144939D01*
X11935372Y-14144939D02*
X11925849Y-14125892D01*
X11925849Y-14125892D02*
X11906801Y-14116368D01*
X11906801Y-14116368D02*
X11878230Y-14116368D01*
X11878230Y-14116368D02*
X11859182Y-14106844D01*
X11859182Y-14106844D02*
X11849658Y-14087797D01*
X11849658Y-14087797D02*
X11849658Y-14078273D01*
X11849658Y-14078273D02*
X11859182Y-14059225D01*
X11859182Y-14059225D02*
X11878230Y-14049701D01*
X11878230Y-14049701D02*
X11906801Y-14049701D01*
X11906801Y-14049701D02*
X11925849Y-14059225D01*
X12002039Y-14259225D02*
X12011563Y-14249701D01*
X12011563Y-14249701D02*
X12030611Y-14221130D01*
X12030611Y-14221130D02*
X12040134Y-14202082D01*
X12040134Y-14202082D02*
X12049658Y-14173511D01*
X12049658Y-14173511D02*
X12059182Y-14125892D01*
X12059182Y-14125892D02*
X12059182Y-14087797D01*
X12059182Y-14087797D02*
X12049658Y-14040178D01*
X12049658Y-14040178D02*
X12040134Y-14011606D01*
X12040134Y-14011606D02*
X12030611Y-13992559D01*
X12030611Y-13992559D02*
X12011563Y-13963987D01*
X12011563Y-13963987D02*
X12002039Y-13954463D01*
X12363944Y-14259225D02*
X12354420Y-14249701D01*
X12354420Y-14249701D02*
X12335372Y-14221130D01*
X12335372Y-14221130D02*
X12325849Y-14202082D01*
X12325849Y-14202082D02*
X12316325Y-14173511D01*
X12316325Y-14173511D02*
X12306801Y-14125892D01*
X12306801Y-14125892D02*
X12306801Y-14087797D01*
X12306801Y-14087797D02*
X12316325Y-14040178D01*
X12316325Y-14040178D02*
X12325849Y-14011606D01*
X12325849Y-14011606D02*
X12335372Y-13992559D01*
X12335372Y-13992559D02*
X12354420Y-13963987D01*
X12354420Y-13963987D02*
X12363944Y-13954463D01*
X12440134Y-14049701D02*
X12440134Y-14183035D01*
X12440134Y-14068749D02*
X12449658Y-14059225D01*
X12449658Y-14059225D02*
X12468706Y-14049701D01*
X12468706Y-14049701D02*
X12497277Y-14049701D01*
X12497277Y-14049701D02*
X12516325Y-14059225D01*
X12516325Y-14059225D02*
X12525849Y-14078273D01*
X12525849Y-14078273D02*
X12525849Y-14183035D01*
X12649658Y-14183035D02*
X12630611Y-14173511D01*
X12630611Y-14173511D02*
X12621087Y-14163987D01*
X12621087Y-14163987D02*
X12611563Y-14144939D01*
X12611563Y-14144939D02*
X12611563Y-14087797D01*
X12611563Y-14087797D02*
X12621087Y-14068749D01*
X12621087Y-14068749D02*
X12630611Y-14059225D01*
X12630611Y-14059225D02*
X12649658Y-14049701D01*
X12649658Y-14049701D02*
X12678230Y-14049701D01*
X12678230Y-14049701D02*
X12697277Y-14059225D01*
X12697277Y-14059225D02*
X12706801Y-14068749D01*
X12706801Y-14068749D02*
X12716325Y-14087797D01*
X12716325Y-14087797D02*
X12716325Y-14144939D01*
X12716325Y-14144939D02*
X12706801Y-14163987D01*
X12706801Y-14163987D02*
X12697277Y-14173511D01*
X12697277Y-14173511D02*
X12678230Y-14183035D01*
X12678230Y-14183035D02*
X12649658Y-14183035D01*
X12773468Y-14049701D02*
X12849658Y-14049701D01*
X12802039Y-13983035D02*
X12802039Y-14154463D01*
X12802039Y-14154463D02*
X12811563Y-14173511D01*
X12811563Y-14173511D02*
X12830611Y-14183035D01*
X12830611Y-14183035D02*
X12849658Y-14183035D01*
X13068706Y-14049701D02*
X13068706Y-14249701D01*
X13068706Y-14059225D02*
X13087753Y-14049701D01*
X13087753Y-14049701D02*
X13125849Y-14049701D01*
X13125849Y-14049701D02*
X13144896Y-14059225D01*
X13144896Y-14059225D02*
X13154420Y-14068749D01*
X13154420Y-14068749D02*
X13163944Y-14087797D01*
X13163944Y-14087797D02*
X13163944Y-14144939D01*
X13163944Y-14144939D02*
X13154420Y-14163987D01*
X13154420Y-14163987D02*
X13144896Y-14173511D01*
X13144896Y-14173511D02*
X13125849Y-14183035D01*
X13125849Y-14183035D02*
X13087753Y-14183035D01*
X13087753Y-14183035D02*
X13068706Y-14173511D01*
X13278230Y-14183035D02*
X13259182Y-14173511D01*
X13259182Y-14173511D02*
X13249658Y-14154463D01*
X13249658Y-14154463D02*
X13249658Y-13983035D01*
X13440134Y-14183035D02*
X13440134Y-14078273D01*
X13440134Y-14078273D02*
X13430611Y-14059225D01*
X13430611Y-14059225D02*
X13411563Y-14049701D01*
X13411563Y-14049701D02*
X13373468Y-14049701D01*
X13373468Y-14049701D02*
X13354420Y-14059225D01*
X13440134Y-14173511D02*
X13421087Y-14183035D01*
X13421087Y-14183035D02*
X13373468Y-14183035D01*
X13373468Y-14183035D02*
X13354420Y-14173511D01*
X13354420Y-14173511D02*
X13344896Y-14154463D01*
X13344896Y-14154463D02*
X13344896Y-14135416D01*
X13344896Y-14135416D02*
X13354420Y-14116368D01*
X13354420Y-14116368D02*
X13373468Y-14106844D01*
X13373468Y-14106844D02*
X13421087Y-14106844D01*
X13421087Y-14106844D02*
X13440134Y-14097320D01*
X13506801Y-14049701D02*
X13582992Y-14049701D01*
X13535373Y-13983035D02*
X13535373Y-14154463D01*
X13535373Y-14154463D02*
X13544896Y-14173511D01*
X13544896Y-14173511D02*
X13563944Y-14183035D01*
X13563944Y-14183035D02*
X13582992Y-14183035D01*
X13725849Y-14173511D02*
X13706801Y-14183035D01*
X13706801Y-14183035D02*
X13668706Y-14183035D01*
X13668706Y-14183035D02*
X13649658Y-14173511D01*
X13649658Y-14173511D02*
X13640134Y-14154463D01*
X13640134Y-14154463D02*
X13640134Y-14078273D01*
X13640134Y-14078273D02*
X13649658Y-14059225D01*
X13649658Y-14059225D02*
X13668706Y-14049701D01*
X13668706Y-14049701D02*
X13706801Y-14049701D01*
X13706801Y-14049701D02*
X13725849Y-14059225D01*
X13725849Y-14059225D02*
X13735373Y-14078273D01*
X13735373Y-14078273D02*
X13735373Y-14097320D01*
X13735373Y-14097320D02*
X13640134Y-14116368D01*
X13906801Y-14183035D02*
X13906801Y-13983035D01*
X13906801Y-14173511D02*
X13887754Y-14183035D01*
X13887754Y-14183035D02*
X13849658Y-14183035D01*
X13849658Y-14183035D02*
X13830611Y-14173511D01*
X13830611Y-14173511D02*
X13821087Y-14163987D01*
X13821087Y-14163987D02*
X13811563Y-14144939D01*
X13811563Y-14144939D02*
X13811563Y-14087797D01*
X13811563Y-14087797D02*
X13821087Y-14068749D01*
X13821087Y-14068749D02*
X13830611Y-14059225D01*
X13830611Y-14059225D02*
X13849658Y-14049701D01*
X13849658Y-14049701D02*
X13887754Y-14049701D01*
X13887754Y-14049701D02*
X13906801Y-14059225D01*
X13982992Y-14259225D02*
X13992515Y-14249701D01*
X13992515Y-14249701D02*
X14011563Y-14221130D01*
X14011563Y-14221130D02*
X14021087Y-14202082D01*
X14021087Y-14202082D02*
X14030611Y-14173511D01*
X14030611Y-14173511D02*
X14040134Y-14125892D01*
X14040134Y-14125892D02*
X14040134Y-14087797D01*
X14040134Y-14087797D02*
X14030611Y-14040178D01*
X14030611Y-14040178D02*
X14021087Y-14011606D01*
X14021087Y-14011606D02*
X14011563Y-13992559D01*
X14011563Y-13992559D02*
X13992515Y-13963987D01*
X13992515Y-13963987D02*
X13982992Y-13954463D01*
M02*
