%TF.GenerationSoftware,KiCad,Pcbnew,7.0.10*%
%TF.CreationDate,2024-08-04T06:11:57-04:00*%
%TF.ProjectId,12.X.2 - PLC Connector Combined,31322e58-2e32-4202-9d20-504c4320436f,rev?*%
%TF.SameCoordinates,Original*%
%TF.FileFunction,Profile,NP*%
%FSLAX46Y46*%
G04 Gerber Fmt 4.6, Leading zero omitted, Abs format (unit mm)*
G04 Created by KiCad (PCBNEW 7.0.10) date 2024-08-04 06:11:57*
%MOMM*%
%LPD*%
G01*
G04 APERTURE LIST*
%TA.AperFunction,Profile*%
%ADD10C,0.250000*%
%TD*%
G04 APERTURE END LIST*
D10*
X71299176Y-75984877D02*
X82550000Y-75984877D01*
X83299882Y-104885087D02*
G75*
G03*
X82359425Y-103922498I-707082J249887D01*
G01*
X83300007Y-84565132D02*
G75*
G03*
X82327201Y-83602498I-702307J263132D01*
G01*
X102300000Y-73115129D02*
G75*
G03*
X100300000Y-73115129I-1000000J0D01*
G01*
X70591481Y-98321250D02*
X70589831Y-97281251D01*
X82550000Y-75984800D02*
G75*
G03*
X83300000Y-75234877I100J749900D01*
G01*
X131300000Y-109143007D02*
X120050000Y-109143007D01*
X132050000Y-122593007D02*
X132050000Y-123633007D01*
X70575001Y-87933687D02*
X70573355Y-86896067D01*
X119300000Y-79413007D02*
X119300000Y-85533007D01*
X82351365Y-98842497D02*
X71100541Y-98842497D01*
X131300000Y-109143000D02*
G75*
G03*
X132050000Y-108393007I0J750000D01*
G01*
X119300000Y-109893007D02*
X119300000Y-116013007D01*
X83300000Y-85605129D02*
X83300000Y-84565129D01*
X118550000Y-134383007D02*
X103050000Y-134383007D01*
X82550000Y-70904800D02*
G75*
G03*
X83300000Y-70154877I100J749900D01*
G01*
X120050000Y-71043007D02*
X131300000Y-71043007D01*
X131300000Y-78663007D02*
X120050000Y-78663007D01*
X100300066Y-69115129D02*
G75*
G03*
X99550000Y-68365134I-750066J-71D01*
G01*
X100300000Y-115180000D02*
X100300000Y-125200000D01*
X132049993Y-76873007D02*
G75*
G03*
X131300000Y-76123007I-749993J7D01*
G01*
X83299915Y-79485104D02*
G75*
G03*
X82559706Y-78522498I-719015J213004D01*
G01*
X71299983Y-111544877D02*
X82549983Y-111544877D01*
X100300000Y-125200000D02*
G75*
G03*
X102300000Y-125200000I1000000J0D01*
G01*
X71299176Y-75984920D02*
G75*
G03*
X70557260Y-76751277I7824J-749880D01*
G01*
X71299981Y-116624833D02*
G75*
G03*
X70622069Y-117601225I36919J-749167D01*
G01*
X132050000Y-102273007D02*
X132050000Y-103313007D01*
X102300000Y-115180000D02*
G75*
G03*
X100300000Y-115180000I-1000000J0D01*
G01*
X131300000Y-93903007D02*
X120050000Y-93903007D01*
X120050000Y-104063000D02*
G75*
G03*
X119300000Y-104813007I0J-750000D01*
G01*
X70599532Y-103401245D02*
G75*
G03*
X71108601Y-103922497I723568J197445D01*
G01*
X132050000Y-107353007D02*
X132050000Y-108393007D01*
X70550823Y-72693687D02*
X70549177Y-71656067D01*
X71104699Y-101384881D02*
G75*
G03*
X70597890Y-102361245I199201J-723119D01*
G01*
X70567266Y-83081279D02*
G75*
G03*
X71076377Y-83602497I723434J197379D01*
G01*
X120050000Y-106603007D02*
X131300000Y-106603007D01*
X70550804Y-72693687D02*
G75*
G03*
X71300822Y-73442497I749996J1187D01*
G01*
X71299176Y-81064877D02*
X82550000Y-81064877D01*
X71096629Y-96304841D02*
G75*
G03*
X70589832Y-97281251I199271J-723159D01*
G01*
X82343306Y-93762497D02*
X71092482Y-93762497D01*
X102300000Y-97155129D02*
X102300000Y-87135129D01*
X131300000Y-88823007D02*
X120050000Y-88823007D01*
X82549983Y-114082497D02*
X71299983Y-114082497D01*
X120050000Y-121843007D02*
X131300000Y-121843007D01*
X102300000Y-101160000D02*
G75*
G03*
X100300000Y-101160000I-1000000J0D01*
G01*
X70607613Y-108481233D02*
G75*
G03*
X71299983Y-109002497I714387J228433D01*
G01*
X83300000Y-70154877D02*
X83300000Y-69115134D01*
X132050000Y-76873007D02*
X132050000Y-77913007D01*
X131300000Y-119303000D02*
G75*
G03*
X132050000Y-118553007I0J750000D01*
G01*
X100300000Y-87135129D02*
X100300000Y-97155129D01*
X119299993Y-62793007D02*
G75*
G03*
X118550000Y-62043007I-749993J7D01*
G01*
X120050000Y-88823000D02*
G75*
G03*
X119300000Y-89573007I0J-750000D01*
G01*
X71323354Y-86144877D02*
X82574178Y-86144877D01*
X83300000Y-75234877D02*
X83300000Y-74242162D01*
X119299993Y-121093007D02*
G75*
G03*
X120050000Y-121843007I750007J7D01*
G01*
X84050000Y-68365100D02*
G75*
G03*
X83300000Y-69115134I0J-750000D01*
G01*
X132049993Y-122593007D02*
G75*
G03*
X131300000Y-121843007I-749993J7D01*
G01*
X82575824Y-88682497D02*
X71325000Y-88682497D01*
X132049993Y-102273007D02*
G75*
G03*
X131300000Y-101523007I-749993J7D01*
G01*
X102300000Y-125200000D02*
X102300000Y-115180000D01*
X132049993Y-107353007D02*
G75*
G03*
X131300000Y-106603007I-749993J7D01*
G01*
X102300000Y-87135129D02*
G75*
G03*
X100300000Y-87135129I-1000000J0D01*
G01*
X70575004Y-87933687D02*
G75*
G03*
X71325000Y-88682497I749996J1187D01*
G01*
X71112753Y-106464857D02*
G75*
G03*
X70605951Y-107441238I199247J-723143D01*
G01*
X82327201Y-83602497D02*
X71076377Y-83602497D01*
X103049146Y-62043007D02*
X118550000Y-62043007D01*
X132050000Y-117513007D02*
X132050000Y-118553007D01*
X119299993Y-90613007D02*
G75*
G03*
X120050000Y-91363007I750007J7D01*
G01*
X120050000Y-86283007D02*
X131300000Y-86283007D01*
X131300000Y-78663000D02*
G75*
G03*
X132050000Y-77913007I0J750000D01*
G01*
X132049993Y-92113007D02*
G75*
G03*
X131300000Y-91363007I-749993J7D01*
G01*
X119300000Y-74333007D02*
X119300000Y-75373007D01*
X132049993Y-117513007D02*
G75*
G03*
X131300000Y-116763007I-749993J7D01*
G01*
X70583430Y-93241254D02*
G75*
G03*
X71092482Y-93762496I723570J197454D01*
G01*
X120050000Y-76123007D02*
X131300000Y-76123007D01*
X100300000Y-101160000D02*
X100300000Y-111180000D01*
X71088580Y-91224877D02*
X82339404Y-91224877D01*
X119299993Y-116013007D02*
G75*
G03*
X120050000Y-116763007I750007J7D01*
G01*
X100300000Y-111180000D02*
G75*
G03*
X102300000Y-111180000I1000000J0D01*
G01*
X71299175Y-81064910D02*
G75*
G03*
X70565654Y-82041270I-18675J-749690D01*
G01*
X131300000Y-124383000D02*
G75*
G03*
X132050000Y-123633007I0J750000D01*
G01*
X82359425Y-103922497D02*
X71108601Y-103922497D01*
X120050000Y-116763007D02*
X131300000Y-116763007D01*
X120050000Y-78663000D02*
G75*
G03*
X119300000Y-79413007I0J-750000D01*
G01*
X83299921Y-89645106D02*
G75*
G03*
X82575824Y-88682498I-719121J212706D01*
G01*
X100300000Y-73115129D02*
X100300000Y-83135129D01*
X120050000Y-124383000D02*
G75*
G03*
X119300000Y-125133007I0J-750000D01*
G01*
X120050000Y-119303000D02*
G75*
G03*
X119300000Y-120053007I0J-750000D01*
G01*
X83300000Y-80314877D02*
X83300000Y-79485129D01*
X120050000Y-91363007D02*
X131300000Y-91363007D01*
X83300000Y-116085129D02*
X83300000Y-115045129D01*
X82549983Y-109002497D02*
X71299983Y-109002497D01*
X70623358Y-118413687D02*
X70622069Y-117601225D01*
X71299176Y-70904877D02*
X82550000Y-70904877D01*
X132050000Y-71793007D02*
X132050000Y-72833007D01*
X119300000Y-89573007D02*
X119300000Y-90613007D01*
X119300000Y-62793007D02*
X119300000Y-70293007D01*
X83300064Y-74242166D02*
G75*
G03*
X82551646Y-73442497I-748464J49566D01*
G01*
X120050000Y-93903000D02*
G75*
G03*
X119300000Y-94653007I0J-750000D01*
G01*
X71112758Y-106464877D02*
X82363582Y-106464877D01*
X119299993Y-70293007D02*
G75*
G03*
X120050000Y-71043007I750007J7D01*
G01*
X102300000Y-111180000D02*
X102300000Y-101160000D01*
X132050000Y-87033007D02*
X132050000Y-88073007D01*
X102300000Y-129200000D02*
G75*
G03*
X100300000Y-129200000I-1000000J0D01*
G01*
X100300000Y-97155129D02*
G75*
G03*
X102300000Y-97155129I1000000J0D01*
G01*
X84050000Y-68365134D02*
X99550000Y-68365134D01*
X100300000Y-69115129D02*
G75*
G03*
X102300000Y-69115129I1000000J0D01*
G01*
X83300000Y-129200000D02*
G75*
G03*
X84050000Y-129950000I750000J0D01*
G01*
X82624181Y-119162497D02*
X71373357Y-119162497D01*
X131300000Y-73583007D02*
X120050000Y-73583007D01*
X71323354Y-86144855D02*
G75*
G03*
X70573356Y-86896067I46J-750045D01*
G01*
X102299993Y-133633007D02*
G75*
G03*
X103050000Y-134383007I750007J7D01*
G01*
X83300000Y-105925129D02*
X83300000Y-104885129D01*
X119299993Y-105853007D02*
G75*
G03*
X120050000Y-106603007I750007J7D01*
G01*
X71096639Y-96304877D02*
X82347463Y-96304877D01*
X70558882Y-77773687D02*
X70557260Y-76751277D01*
X70558904Y-77773687D02*
G75*
G03*
X71308882Y-78522497I749996J1187D01*
G01*
X83300088Y-109965155D02*
G75*
G03*
X82549983Y-109002498I-719088J213255D01*
G01*
X99550000Y-129950000D02*
X84050000Y-129950000D01*
X82549982Y-116624895D02*
G75*
G03*
X83300000Y-116085129I29918J749395D01*
G01*
X119299993Y-100773007D02*
G75*
G03*
X120050000Y-101523007I750007J7D01*
G01*
X102300000Y-83135129D02*
X102300000Y-73115129D01*
X83300038Y-94725143D02*
G75*
G03*
X82343306Y-93762497I-704938J256143D01*
G01*
X70591450Y-98321259D02*
G75*
G03*
X71100541Y-98842496I723450J197359D01*
G01*
X120050000Y-73583000D02*
G75*
G03*
X119300000Y-74333007I0J-750000D01*
G01*
X71088577Y-91224865D02*
G75*
G03*
X70581772Y-92201257I199223J-723135D01*
G01*
X102300000Y-69115129D02*
X102300000Y-62757221D01*
X131300000Y-104063007D02*
X120050000Y-104063007D01*
X70567303Y-83081269D02*
X70565653Y-82041270D01*
X71299176Y-70904877D02*
G75*
G03*
X70549178Y-71656067I24J-750023D01*
G01*
X100300000Y-83135129D02*
G75*
G03*
X102300000Y-83135129I1000000J0D01*
G01*
X119300000Y-94653007D02*
X119300000Y-100773007D01*
X132050000Y-92113007D02*
X132050000Y-93153007D01*
X82363560Y-106464954D02*
G75*
G03*
X83299999Y-105925129I208440J720554D01*
G01*
X70623304Y-118413687D02*
G75*
G03*
X71373357Y-119162497I750096J1287D01*
G01*
X119299993Y-75373007D02*
G75*
G03*
X120050000Y-76123007I750007J7D01*
G01*
X83300000Y-100845129D02*
X83300000Y-99805129D01*
X70615659Y-113561230D02*
X70614009Y-112521232D01*
X82574178Y-86144941D02*
G75*
G03*
X83300000Y-85605129I5822J750041D01*
G01*
X83299969Y-99805118D02*
G75*
G03*
X82351365Y-98842497I-706069J252918D01*
G01*
X83300088Y-115045155D02*
G75*
G03*
X82549983Y-114082498I-719088J213255D01*
G01*
X70583422Y-93241256D02*
X70581772Y-92201257D01*
X99550000Y-129950000D02*
G75*
G03*
X100300000Y-129200000I0J750000D01*
G01*
X132049993Y-71793007D02*
G75*
G03*
X131300000Y-71043007I-749993J7D01*
G01*
X71299983Y-116624877D02*
X82549983Y-116624877D01*
X118550000Y-134383000D02*
G75*
G03*
X119300000Y-133633007I0J750000D01*
G01*
X83299980Y-119908820D02*
G75*
G03*
X82624181Y-119162498I-749980J20D01*
G01*
X102300000Y-133633007D02*
X102300000Y-129200000D01*
X83300000Y-95765129D02*
X83300000Y-94725129D01*
X71104698Y-101384877D02*
X82355522Y-101384877D01*
X70615704Y-113561216D02*
G75*
G03*
X71299983Y-114082497I714396J228016D01*
G01*
X83300000Y-111005129D02*
X83300000Y-109965129D01*
X131300000Y-73583000D02*
G75*
G03*
X132050000Y-72833007I0J750000D01*
G01*
X82550000Y-81064800D02*
G75*
G03*
X83300000Y-80314877I100J749900D01*
G01*
X119300000Y-104813007D02*
X119300000Y-105853007D01*
X119300000Y-120053007D02*
X119300000Y-121093007D01*
X131300000Y-88823000D02*
G75*
G03*
X132050000Y-88073007I0J750000D01*
G01*
X82559706Y-78522497D02*
X71308882Y-78522497D01*
X82339408Y-91224864D02*
G75*
G03*
X83299999Y-90685129I230992J713564D01*
G01*
X131300000Y-104063000D02*
G75*
G03*
X132050000Y-103313007I0J750000D01*
G01*
X120050000Y-101523007D02*
X131300000Y-101523007D01*
X70599540Y-103401243D02*
X70597890Y-102361245D01*
X131300000Y-93903000D02*
G75*
G03*
X132050000Y-93153007I0J750000D01*
G01*
X132049993Y-87033007D02*
G75*
G03*
X131300000Y-86283007I-749993J7D01*
G01*
X119299993Y-85533007D02*
G75*
G03*
X120050000Y-86283007I750007J7D01*
G01*
X83300000Y-90685129D02*
X83300000Y-89645129D01*
X70607600Y-108481237D02*
X70605950Y-107441238D01*
X71299984Y-111544905D02*
G75*
G03*
X70614010Y-112521232I28816J-749395D01*
G01*
X131300000Y-124383007D02*
X120050000Y-124383007D01*
X82549982Y-111544895D02*
G75*
G03*
X83300000Y-111005129I29918J749395D01*
G01*
X103049146Y-62042947D02*
G75*
G03*
X102300001Y-62757221I54J-750053D01*
G01*
X120050000Y-109143000D02*
G75*
G03*
X119300000Y-109893007I0J-750000D01*
G01*
X82347461Y-96304885D02*
G75*
G03*
X83299999Y-95765129I223539J715885D01*
G01*
X83300000Y-129200000D02*
X83300000Y-119908820D01*
X119300000Y-125133007D02*
X119300000Y-133633007D01*
X82551646Y-73442497D02*
X71300822Y-73442497D01*
X82355514Y-101384904D02*
G75*
G03*
X83299999Y-100845129I216086J718104D01*
G01*
X131300000Y-119303007D02*
X120050000Y-119303007D01*
M02*
