%TF.GenerationSoftware,KiCad,Pcbnew,7.0.10*%
%TF.CreationDate,2024-07-21T07:40:16-04:00*%
%TF.ProjectId,12.1.1 - PLC Connector.kicad_pcb_appended,31322e31-2e31-4202-9d20-504c4320436f,rev?*%
%TF.SameCoordinates,Original*%
%TF.FileFunction,Legend,Top*%
%TF.FilePolarity,Positive*%
%FSLAX46Y46*%
G04 Gerber Fmt 4.6, Leading zero omitted, Abs format (unit mm)*
G04 Created by KiCad (PCBNEW 7.0.10) date 2024-07-21 07:40:16*
%MOMM*%
%LPD*%
G01*
G04 APERTURE LIST*
%ADD10C,0.457200*%
%ADD11C,0.177800*%
%ADD12C,0.006614*%
%ADD13C,0.000000*%
%ADD14C,0.381000*%
%ADD15C,0.508000*%
%ADD16C,0.300000*%
%ADD17C,0.254000*%
%ADD18C,0.150000*%
%ADD19C,0.100000*%
%ADD20C,0.200000*%
%ADD21C,0.120000*%
%ADD22C,0.152400*%
G04 APERTURE END LIST*
D10*
X160661414Y-88390387D02*
X158832614Y-88390387D01*
X158832614Y-88390387D02*
X160138900Y-87780787D01*
X160138900Y-87780787D02*
X158832614Y-87171187D01*
X158832614Y-87171187D02*
X160661414Y-87171187D01*
D11*
X155183568Y-88121066D02*
X155691568Y-88121066D01*
X155691568Y-88121066D02*
X155793168Y-88154933D01*
X155793168Y-88154933D02*
X155860902Y-88222666D01*
X155860902Y-88222666D02*
X155894768Y-88324266D01*
X155894768Y-88324266D02*
X155894768Y-88392000D01*
X155894768Y-87443733D02*
X155894768Y-87782399D01*
X155894768Y-87782399D02*
X155183568Y-87782399D01*
X155827035Y-86800266D02*
X155860902Y-86834133D01*
X155860902Y-86834133D02*
X155894768Y-86935733D01*
X155894768Y-86935733D02*
X155894768Y-87003466D01*
X155894768Y-87003466D02*
X155860902Y-87105066D01*
X155860902Y-87105066D02*
X155793168Y-87172800D01*
X155793168Y-87172800D02*
X155725435Y-87206666D01*
X155725435Y-87206666D02*
X155589968Y-87240533D01*
X155589968Y-87240533D02*
X155488368Y-87240533D01*
X155488368Y-87240533D02*
X155352902Y-87206666D01*
X155352902Y-87206666D02*
X155285168Y-87172800D01*
X155285168Y-87172800D02*
X155217435Y-87105066D01*
X155217435Y-87105066D02*
X155183568Y-87003466D01*
X155183568Y-87003466D02*
X155183568Y-86935733D01*
X155183568Y-86935733D02*
X155217435Y-86834133D01*
X155217435Y-86834133D02*
X155251302Y-86800266D01*
X155183568Y-86292266D02*
X155691568Y-86292266D01*
X155691568Y-86292266D02*
X155793168Y-86326133D01*
X155793168Y-86326133D02*
X155860902Y-86393866D01*
X155860902Y-86393866D02*
X155894768Y-86495466D01*
X155894768Y-86495466D02*
X155894768Y-86563200D01*
X155894768Y-85614933D02*
X155894768Y-85953599D01*
X155894768Y-85953599D02*
X155183568Y-85953599D01*
X155827035Y-84971466D02*
X155860902Y-85005333D01*
X155860902Y-85005333D02*
X155894768Y-85106933D01*
X155894768Y-85106933D02*
X155894768Y-85174666D01*
X155894768Y-85174666D02*
X155860902Y-85276266D01*
X155860902Y-85276266D02*
X155793168Y-85344000D01*
X155793168Y-85344000D02*
X155725435Y-85377866D01*
X155725435Y-85377866D02*
X155589968Y-85411733D01*
X155589968Y-85411733D02*
X155488368Y-85411733D01*
X155488368Y-85411733D02*
X155352902Y-85377866D01*
X155352902Y-85377866D02*
X155285168Y-85344000D01*
X155285168Y-85344000D02*
X155217435Y-85276266D01*
X155217435Y-85276266D02*
X155183568Y-85174666D01*
X155183568Y-85174666D02*
X155183568Y-85106933D01*
X155183568Y-85106933D02*
X155217435Y-85005333D01*
X155217435Y-85005333D02*
X155251302Y-84971466D01*
X155183568Y-84463466D02*
X155691568Y-84463466D01*
X155691568Y-84463466D02*
X155793168Y-84497333D01*
X155793168Y-84497333D02*
X155860902Y-84565066D01*
X155860902Y-84565066D02*
X155894768Y-84666666D01*
X155894768Y-84666666D02*
X155894768Y-84734400D01*
X155894768Y-83786133D02*
X155894768Y-84124799D01*
X155894768Y-84124799D02*
X155183568Y-84124799D01*
X155827035Y-83142666D02*
X155860902Y-83176533D01*
X155860902Y-83176533D02*
X155894768Y-83278133D01*
X155894768Y-83278133D02*
X155894768Y-83345866D01*
X155894768Y-83345866D02*
X155860902Y-83447466D01*
X155860902Y-83447466D02*
X155793168Y-83515200D01*
X155793168Y-83515200D02*
X155725435Y-83549066D01*
X155725435Y-83549066D02*
X155589968Y-83582933D01*
X155589968Y-83582933D02*
X155488368Y-83582933D01*
X155488368Y-83582933D02*
X155352902Y-83549066D01*
X155352902Y-83549066D02*
X155285168Y-83515200D01*
X155285168Y-83515200D02*
X155217435Y-83447466D01*
X155217435Y-83447466D02*
X155183568Y-83345866D01*
X155183568Y-83345866D02*
X155183568Y-83278133D01*
X155183568Y-83278133D02*
X155217435Y-83176533D01*
X155217435Y-83176533D02*
X155251302Y-83142666D01*
X155183568Y-82634666D02*
X155691568Y-82634666D01*
X155691568Y-82634666D02*
X155793168Y-82668533D01*
X155793168Y-82668533D02*
X155860902Y-82736266D01*
X155860902Y-82736266D02*
X155894768Y-82837866D01*
X155894768Y-82837866D02*
X155894768Y-82905600D01*
X155894768Y-81957333D02*
X155894768Y-82295999D01*
X155894768Y-82295999D02*
X155183568Y-82295999D01*
X155827035Y-81313866D02*
X155860902Y-81347733D01*
X155860902Y-81347733D02*
X155894768Y-81449333D01*
X155894768Y-81449333D02*
X155894768Y-81517066D01*
X155894768Y-81517066D02*
X155860902Y-81618666D01*
X155860902Y-81618666D02*
X155793168Y-81686400D01*
X155793168Y-81686400D02*
X155725435Y-81720266D01*
X155725435Y-81720266D02*
X155589968Y-81754133D01*
X155589968Y-81754133D02*
X155488368Y-81754133D01*
X155488368Y-81754133D02*
X155352902Y-81720266D01*
X155352902Y-81720266D02*
X155285168Y-81686400D01*
X155285168Y-81686400D02*
X155217435Y-81618666D01*
X155217435Y-81618666D02*
X155183568Y-81517066D01*
X155183568Y-81517066D02*
X155183568Y-81449333D01*
X155183568Y-81449333D02*
X155217435Y-81347733D01*
X155217435Y-81347733D02*
X155251302Y-81313866D01*
D10*
X159006786Y-98312514D02*
X158919700Y-98225428D01*
X158919700Y-98225428D02*
X158832614Y-98051257D01*
X158832614Y-98051257D02*
X158832614Y-97615828D01*
X158832614Y-97615828D02*
X158919700Y-97441657D01*
X158919700Y-97441657D02*
X159006786Y-97354571D01*
X159006786Y-97354571D02*
X159180957Y-97267485D01*
X159180957Y-97267485D02*
X159355129Y-97267485D01*
X159355129Y-97267485D02*
X159616386Y-97354571D01*
X159616386Y-97354571D02*
X160661414Y-98399599D01*
X160661414Y-98399599D02*
X160661414Y-97267485D01*
X144862614Y-124053599D02*
X144862614Y-122834399D01*
X144862614Y-122834399D02*
X146691414Y-123618171D01*
X144735614Y-118015657D02*
X144735614Y-118363999D01*
X144735614Y-118363999D02*
X144822700Y-118538171D01*
X144822700Y-118538171D02*
X144909786Y-118625257D01*
X144909786Y-118625257D02*
X145171043Y-118799428D01*
X145171043Y-118799428D02*
X145519386Y-118886514D01*
X145519386Y-118886514D02*
X146216071Y-118886514D01*
X146216071Y-118886514D02*
X146390243Y-118799428D01*
X146390243Y-118799428D02*
X146477329Y-118712342D01*
X146477329Y-118712342D02*
X146564414Y-118538171D01*
X146564414Y-118538171D02*
X146564414Y-118189828D01*
X146564414Y-118189828D02*
X146477329Y-118015657D01*
X146477329Y-118015657D02*
X146390243Y-117928571D01*
X146390243Y-117928571D02*
X146216071Y-117841485D01*
X146216071Y-117841485D02*
X145780643Y-117841485D01*
X145780643Y-117841485D02*
X145606471Y-117928571D01*
X145606471Y-117928571D02*
X145519386Y-118015657D01*
X145519386Y-118015657D02*
X145432300Y-118189828D01*
X145432300Y-118189828D02*
X145432300Y-118538171D01*
X145432300Y-118538171D02*
X145519386Y-118712342D01*
X145519386Y-118712342D02*
X145606471Y-118799428D01*
X145606471Y-118799428D02*
X145780643Y-118886514D01*
X144989614Y-103479599D02*
X144989614Y-102347485D01*
X144989614Y-102347485D02*
X145686300Y-102957085D01*
X145686300Y-102957085D02*
X145686300Y-102695828D01*
X145686300Y-102695828D02*
X145773386Y-102521657D01*
X145773386Y-102521657D02*
X145860471Y-102434571D01*
X145860471Y-102434571D02*
X146034643Y-102347485D01*
X146034643Y-102347485D02*
X146470071Y-102347485D01*
X146470071Y-102347485D02*
X146644243Y-102434571D01*
X146644243Y-102434571D02*
X146731329Y-102521657D01*
X146731329Y-102521657D02*
X146818414Y-102695828D01*
X146818414Y-102695828D02*
X146818414Y-103218342D01*
X146818414Y-103218342D02*
X146731329Y-103392514D01*
X146731329Y-103392514D02*
X146644243Y-103479599D01*
X158832614Y-124053599D02*
X158832614Y-122834399D01*
X158832614Y-122834399D02*
X160661414Y-123618171D01*
X146818414Y-92187485D02*
X146818414Y-93232514D01*
X146818414Y-92709999D02*
X144989614Y-92709999D01*
X144989614Y-92709999D02*
X145250871Y-92884171D01*
X145250871Y-92884171D02*
X145425043Y-93058342D01*
X145425043Y-93058342D02*
X145512129Y-93232514D01*
X160661414Y-92568485D02*
X160661414Y-93613514D01*
X160661414Y-93090999D02*
X158832614Y-93090999D01*
X158832614Y-93090999D02*
X159093871Y-93265171D01*
X159093871Y-93265171D02*
X159268043Y-93439342D01*
X159268043Y-93439342D02*
X159355129Y-93613514D01*
X158832614Y-112975571D02*
X158832614Y-113846428D01*
X158832614Y-113846428D02*
X159703471Y-113933514D01*
X159703471Y-113933514D02*
X159616386Y-113846428D01*
X159616386Y-113846428D02*
X159529300Y-113672257D01*
X159529300Y-113672257D02*
X159529300Y-113236828D01*
X159529300Y-113236828D02*
X159616386Y-113062657D01*
X159616386Y-113062657D02*
X159703471Y-112975571D01*
X159703471Y-112975571D02*
X159877643Y-112888485D01*
X159877643Y-112888485D02*
X160313071Y-112888485D01*
X160313071Y-112888485D02*
X160487243Y-112975571D01*
X160487243Y-112975571D02*
X160574329Y-113062657D01*
X160574329Y-113062657D02*
X160661414Y-113236828D01*
X160661414Y-113236828D02*
X160661414Y-113672257D01*
X160661414Y-113672257D02*
X160574329Y-113846428D01*
X160574329Y-113846428D02*
X160487243Y-113933514D01*
X145726214Y-107601657D02*
X146945414Y-107601657D01*
X145029529Y-108037085D02*
X146335814Y-108472514D01*
X146335814Y-108472514D02*
X146335814Y-107340399D01*
X146818414Y-88366599D02*
X144989614Y-88366599D01*
X144989614Y-88366599D02*
X146295900Y-87756999D01*
X146295900Y-87756999D02*
X144989614Y-87147399D01*
X144989614Y-87147399D02*
X146818414Y-87147399D01*
X160661414Y-82100057D02*
X160661414Y-82970914D01*
X160661414Y-82970914D02*
X158832614Y-82970914D01*
X159964729Y-81490457D02*
X159964729Y-80097086D01*
X160661414Y-80793771D02*
X159268043Y-80793771D01*
X159188214Y-108109657D02*
X160407414Y-108109657D01*
X158491529Y-108545085D02*
X159797814Y-108980514D01*
X159797814Y-108980514D02*
X159797814Y-107848399D01*
X158832614Y-118269657D02*
X158832614Y-118617999D01*
X158832614Y-118617999D02*
X158919700Y-118792171D01*
X158919700Y-118792171D02*
X159006786Y-118879257D01*
X159006786Y-118879257D02*
X159268043Y-119053428D01*
X159268043Y-119053428D02*
X159616386Y-119140514D01*
X159616386Y-119140514D02*
X160313071Y-119140514D01*
X160313071Y-119140514D02*
X160487243Y-119053428D01*
X160487243Y-119053428D02*
X160574329Y-118966342D01*
X160574329Y-118966342D02*
X160661414Y-118792171D01*
X160661414Y-118792171D02*
X160661414Y-118443828D01*
X160661414Y-118443828D02*
X160574329Y-118269657D01*
X160574329Y-118269657D02*
X160487243Y-118182571D01*
X160487243Y-118182571D02*
X160313071Y-118095485D01*
X160313071Y-118095485D02*
X159877643Y-118095485D01*
X159877643Y-118095485D02*
X159703471Y-118182571D01*
X159703471Y-118182571D02*
X159616386Y-118269657D01*
X159616386Y-118269657D02*
X159529300Y-118443828D01*
X159529300Y-118443828D02*
X159529300Y-118792171D01*
X159529300Y-118792171D02*
X159616386Y-118966342D01*
X159616386Y-118966342D02*
X159703471Y-119053428D01*
X159703471Y-119053428D02*
X159877643Y-119140514D01*
X145646386Y-128444171D02*
X145559300Y-128618342D01*
X145559300Y-128618342D02*
X145472214Y-128705428D01*
X145472214Y-128705428D02*
X145298043Y-128792514D01*
X145298043Y-128792514D02*
X145210957Y-128792514D01*
X145210957Y-128792514D02*
X145036786Y-128705428D01*
X145036786Y-128705428D02*
X144949700Y-128618342D01*
X144949700Y-128618342D02*
X144862614Y-128444171D01*
X144862614Y-128444171D02*
X144862614Y-128095828D01*
X144862614Y-128095828D02*
X144949700Y-127921657D01*
X144949700Y-127921657D02*
X145036786Y-127834571D01*
X145036786Y-127834571D02*
X145210957Y-127747485D01*
X145210957Y-127747485D02*
X145298043Y-127747485D01*
X145298043Y-127747485D02*
X145472214Y-127834571D01*
X145472214Y-127834571D02*
X145559300Y-127921657D01*
X145559300Y-127921657D02*
X145646386Y-128095828D01*
X145646386Y-128095828D02*
X145646386Y-128444171D01*
X145646386Y-128444171D02*
X145733471Y-128618342D01*
X145733471Y-128618342D02*
X145820557Y-128705428D01*
X145820557Y-128705428D02*
X145994729Y-128792514D01*
X145994729Y-128792514D02*
X146343071Y-128792514D01*
X146343071Y-128792514D02*
X146517243Y-128705428D01*
X146517243Y-128705428D02*
X146604329Y-128618342D01*
X146604329Y-128618342D02*
X146691414Y-128444171D01*
X146691414Y-128444171D02*
X146691414Y-128095828D01*
X146691414Y-128095828D02*
X146604329Y-127921657D01*
X146604329Y-127921657D02*
X146517243Y-127834571D01*
X146517243Y-127834571D02*
X146343071Y-127747485D01*
X146343071Y-127747485D02*
X145994729Y-127747485D01*
X145994729Y-127747485D02*
X145820557Y-127834571D01*
X145820557Y-127834571D02*
X145733471Y-127921657D01*
X145733471Y-127921657D02*
X145646386Y-128095828D01*
X144862614Y-112848571D02*
X144862614Y-113719428D01*
X144862614Y-113719428D02*
X145733471Y-113806514D01*
X145733471Y-113806514D02*
X145646386Y-113719428D01*
X145646386Y-113719428D02*
X145559300Y-113545257D01*
X145559300Y-113545257D02*
X145559300Y-113109828D01*
X145559300Y-113109828D02*
X145646386Y-112935657D01*
X145646386Y-112935657D02*
X145733471Y-112848571D01*
X145733471Y-112848571D02*
X145907643Y-112761485D01*
X145907643Y-112761485D02*
X146343071Y-112761485D01*
X146343071Y-112761485D02*
X146517243Y-112848571D01*
X146517243Y-112848571D02*
X146604329Y-112935657D01*
X146604329Y-112935657D02*
X146691414Y-113109828D01*
X146691414Y-113109828D02*
X146691414Y-113545257D01*
X146691414Y-113545257D02*
X146604329Y-113719428D01*
X146604329Y-113719428D02*
X146517243Y-113806514D01*
X159489386Y-128444171D02*
X159402300Y-128618342D01*
X159402300Y-128618342D02*
X159315214Y-128705428D01*
X159315214Y-128705428D02*
X159141043Y-128792514D01*
X159141043Y-128792514D02*
X159053957Y-128792514D01*
X159053957Y-128792514D02*
X158879786Y-128705428D01*
X158879786Y-128705428D02*
X158792700Y-128618342D01*
X158792700Y-128618342D02*
X158705614Y-128444171D01*
X158705614Y-128444171D02*
X158705614Y-128095828D01*
X158705614Y-128095828D02*
X158792700Y-127921657D01*
X158792700Y-127921657D02*
X158879786Y-127834571D01*
X158879786Y-127834571D02*
X159053957Y-127747485D01*
X159053957Y-127747485D02*
X159141043Y-127747485D01*
X159141043Y-127747485D02*
X159315214Y-127834571D01*
X159315214Y-127834571D02*
X159402300Y-127921657D01*
X159402300Y-127921657D02*
X159489386Y-128095828D01*
X159489386Y-128095828D02*
X159489386Y-128444171D01*
X159489386Y-128444171D02*
X159576471Y-128618342D01*
X159576471Y-128618342D02*
X159663557Y-128705428D01*
X159663557Y-128705428D02*
X159837729Y-128792514D01*
X159837729Y-128792514D02*
X160186071Y-128792514D01*
X160186071Y-128792514D02*
X160360243Y-128705428D01*
X160360243Y-128705428D02*
X160447329Y-128618342D01*
X160447329Y-128618342D02*
X160534414Y-128444171D01*
X160534414Y-128444171D02*
X160534414Y-128095828D01*
X160534414Y-128095828D02*
X160447329Y-127921657D01*
X160447329Y-127921657D02*
X160360243Y-127834571D01*
X160360243Y-127834571D02*
X160186071Y-127747485D01*
X160186071Y-127747485D02*
X159837729Y-127747485D01*
X159837729Y-127747485D02*
X159663557Y-127834571D01*
X159663557Y-127834571D02*
X159576471Y-127921657D01*
X159576471Y-127921657D02*
X159489386Y-128095828D01*
X145036786Y-98185514D02*
X144949700Y-98098428D01*
X144949700Y-98098428D02*
X144862614Y-97924257D01*
X144862614Y-97924257D02*
X144862614Y-97488828D01*
X144862614Y-97488828D02*
X144949700Y-97314657D01*
X144949700Y-97314657D02*
X145036786Y-97227571D01*
X145036786Y-97227571D02*
X145210957Y-97140485D01*
X145210957Y-97140485D02*
X145385129Y-97140485D01*
X145385129Y-97140485D02*
X145646386Y-97227571D01*
X145646386Y-97227571D02*
X146691414Y-98272599D01*
X146691414Y-98272599D02*
X146691414Y-97140485D01*
X146564414Y-81973057D02*
X146564414Y-82843914D01*
X146564414Y-82843914D02*
X144735614Y-82843914D01*
X145867729Y-81363457D02*
X145867729Y-79970086D01*
X146564414Y-80666771D02*
X145171043Y-80666771D01*
X158832614Y-103733599D02*
X158832614Y-102601485D01*
X158832614Y-102601485D02*
X159529300Y-103211085D01*
X159529300Y-103211085D02*
X159529300Y-102949828D01*
X159529300Y-102949828D02*
X159616386Y-102775657D01*
X159616386Y-102775657D02*
X159703471Y-102688571D01*
X159703471Y-102688571D02*
X159877643Y-102601485D01*
X159877643Y-102601485D02*
X160313071Y-102601485D01*
X160313071Y-102601485D02*
X160487243Y-102688571D01*
X160487243Y-102688571D02*
X160574329Y-102775657D01*
X160574329Y-102775657D02*
X160661414Y-102949828D01*
X160661414Y-102949828D02*
X160661414Y-103472342D01*
X160661414Y-103472342D02*
X160574329Y-103646514D01*
X160574329Y-103646514D02*
X160487243Y-103733599D01*
D12*
X177278225Y-115976462D02*
X177245416Y-115954766D01*
D13*
G36*
X163172032Y-76084513D02*
G01*
X163198386Y-76086831D01*
X163228817Y-76091164D01*
X163263550Y-76097559D01*
X163346821Y-76116721D01*
X163449998Y-76144688D01*
X163574880Y-76181833D01*
X163723263Y-76228528D01*
X164289472Y-76413736D01*
X164305347Y-77059319D01*
X164321221Y-77704903D01*
X164818638Y-77704903D01*
X164897484Y-77704760D01*
X164967694Y-77704262D01*
X165029811Y-77703298D01*
X165084379Y-77701761D01*
X165109001Y-77700743D01*
X165131940Y-77699541D01*
X165153262Y-77698142D01*
X165173035Y-77696531D01*
X165191328Y-77694696D01*
X165208209Y-77692622D01*
X165223744Y-77690296D01*
X165238003Y-77687705D01*
X165251052Y-77684834D01*
X165262960Y-77681671D01*
X165273794Y-77678202D01*
X165283623Y-77674413D01*
X165292513Y-77670291D01*
X165300534Y-77665822D01*
X165307752Y-77660993D01*
X165314236Y-77655789D01*
X165320053Y-77650198D01*
X165325271Y-77644206D01*
X165329959Y-77637799D01*
X165334183Y-77630964D01*
X165338012Y-77623687D01*
X165341513Y-77615954D01*
X165344755Y-77607753D01*
X165347805Y-77599069D01*
X165353287Y-77582795D01*
X165359790Y-77566726D01*
X165367279Y-77550885D01*
X165375720Y-77535290D01*
X165395325Y-77504924D01*
X165418333Y-77475790D01*
X165444472Y-77448051D01*
X165473472Y-77421871D01*
X165505060Y-77397411D01*
X165538966Y-77374835D01*
X165574919Y-77354305D01*
X165612647Y-77335984D01*
X165651878Y-77320036D01*
X165692342Y-77306622D01*
X165733767Y-77295906D01*
X165775882Y-77288049D01*
X165818416Y-77283216D01*
X165850513Y-77281978D01*
X165861097Y-77281569D01*
X165890021Y-77282014D01*
X165917372Y-77283388D01*
X165943312Y-77285755D01*
X165968005Y-77289176D01*
X165991612Y-77293713D01*
X166014297Y-77299429D01*
X166036222Y-77306384D01*
X166057550Y-77314642D01*
X166078444Y-77324264D01*
X166099067Y-77335313D01*
X166119581Y-77347849D01*
X166140149Y-77361936D01*
X166160935Y-77377636D01*
X166182100Y-77395009D01*
X166203808Y-77414119D01*
X166226222Y-77435028D01*
X166248002Y-77457385D01*
X166267759Y-77478953D01*
X166285578Y-77499931D01*
X166301545Y-77520521D01*
X166315745Y-77540925D01*
X166328262Y-77561345D01*
X166339182Y-77581982D01*
X166348591Y-77603038D01*
X166356574Y-77624714D01*
X166363216Y-77647211D01*
X166368602Y-77670731D01*
X166372817Y-77695477D01*
X166375948Y-77721648D01*
X166378078Y-77749448D01*
X166379294Y-77779076D01*
X166379680Y-77810736D01*
X166379033Y-77838791D01*
X166377112Y-77866385D01*
X166373942Y-77893488D01*
X166369551Y-77920073D01*
X166363967Y-77946111D01*
X166357216Y-77971575D01*
X166349326Y-77996436D01*
X166340323Y-78020666D01*
X166330235Y-78044238D01*
X166319089Y-78067122D01*
X166306912Y-78089291D01*
X166293732Y-78110718D01*
X166279574Y-78131372D01*
X166264467Y-78151228D01*
X166248438Y-78170256D01*
X166231513Y-78188429D01*
X166213720Y-78205717D01*
X166195086Y-78222094D01*
X166175639Y-78237532D01*
X166155404Y-78252001D01*
X166134410Y-78265474D01*
X166112683Y-78277923D01*
X166090251Y-78289320D01*
X166067141Y-78299636D01*
X166043379Y-78308844D01*
X166018994Y-78316916D01*
X165994012Y-78323822D01*
X165968460Y-78329536D01*
X165942365Y-78334029D01*
X165915755Y-78337273D01*
X165888656Y-78339241D01*
X165861097Y-78339902D01*
X165839755Y-78339487D01*
X165818416Y-78338255D01*
X165797114Y-78336227D01*
X165775882Y-78333422D01*
X165754755Y-78329862D01*
X165733767Y-78325566D01*
X165712951Y-78320555D01*
X165692342Y-78314850D01*
X165671973Y-78308470D01*
X165651878Y-78301436D01*
X165632091Y-78293768D01*
X165612647Y-78285487D01*
X165593578Y-78276613D01*
X165574919Y-78267167D01*
X165556704Y-78257168D01*
X165538966Y-78246637D01*
X165521741Y-78235594D01*
X165505060Y-78224061D01*
X165488959Y-78212056D01*
X165473472Y-78199601D01*
X165458631Y-78186716D01*
X165444472Y-78173420D01*
X165431028Y-78159736D01*
X165418333Y-78145682D01*
X165406421Y-78131279D01*
X165395325Y-78116548D01*
X165385081Y-78101509D01*
X165375720Y-78086181D01*
X165367279Y-78070587D01*
X165359790Y-78054745D01*
X165353287Y-78038677D01*
X165347805Y-78022402D01*
X165341512Y-78005517D01*
X165334173Y-77990508D01*
X165325237Y-77977266D01*
X165322856Y-77974778D01*
X165374263Y-77974778D01*
X165374935Y-77980403D01*
X165376909Y-77987283D01*
X165380123Y-77995311D01*
X165384516Y-78004378D01*
X165390025Y-78014375D01*
X165396587Y-78025193D01*
X165404143Y-78036725D01*
X165412628Y-78048861D01*
X165421981Y-78061493D01*
X165432141Y-78074513D01*
X165443045Y-78087812D01*
X165454630Y-78101281D01*
X165466836Y-78114813D01*
X165479600Y-78128298D01*
X165492861Y-78141628D01*
X165506555Y-78154694D01*
X165524370Y-78172749D01*
X165542170Y-78189245D01*
X165560063Y-78204238D01*
X165578158Y-78217781D01*
X165596562Y-78229929D01*
X165615385Y-78240735D01*
X165634736Y-78250256D01*
X165654722Y-78258543D01*
X165675452Y-78265653D01*
X165697034Y-78271638D01*
X165719578Y-78276554D01*
X165743192Y-78280454D01*
X165767983Y-78283393D01*
X165794062Y-78285425D01*
X165821536Y-78286605D01*
X165850513Y-78286986D01*
X165879491Y-78286605D01*
X165906965Y-78285425D01*
X165933043Y-78283393D01*
X165957835Y-78280454D01*
X165981448Y-78276554D01*
X166003992Y-78271638D01*
X166025575Y-78265653D01*
X166046305Y-78258543D01*
X166066291Y-78250256D01*
X166085641Y-78240735D01*
X166104464Y-78229929D01*
X166122869Y-78217781D01*
X166140963Y-78204238D01*
X166158856Y-78189245D01*
X166176656Y-78172749D01*
X166194472Y-78154694D01*
X166212526Y-78136879D01*
X166229022Y-78119079D01*
X166244015Y-78101186D01*
X166257558Y-78083091D01*
X166269706Y-78064687D01*
X166280513Y-78045864D01*
X166290033Y-78026513D01*
X166298321Y-78006528D01*
X166305430Y-77985798D01*
X166311415Y-77964215D01*
X166316331Y-77941671D01*
X166320231Y-77918057D01*
X166323170Y-77893266D01*
X166325203Y-77867187D01*
X166326382Y-77839713D01*
X166326763Y-77810736D01*
X166326238Y-77783298D01*
X166324670Y-77756553D01*
X166322072Y-77730514D01*
X166318454Y-77705192D01*
X166313828Y-77680598D01*
X166308206Y-77656745D01*
X166301600Y-77633644D01*
X166294021Y-77611306D01*
X166285481Y-77589744D01*
X166275991Y-77568968D01*
X166265563Y-77548990D01*
X166254210Y-77529823D01*
X166241941Y-77511477D01*
X166228769Y-77493965D01*
X166214706Y-77477297D01*
X166199763Y-77461486D01*
X166183952Y-77446543D01*
X166167285Y-77432480D01*
X166149772Y-77419308D01*
X166131426Y-77407040D01*
X166112259Y-77395686D01*
X166092281Y-77385258D01*
X166071506Y-77375768D01*
X166049943Y-77367228D01*
X166027605Y-77359649D01*
X166004504Y-77353043D01*
X165980651Y-77347421D01*
X165956057Y-77342796D01*
X165930735Y-77339178D01*
X165904696Y-77336579D01*
X165877951Y-77335011D01*
X165850513Y-77334486D01*
X165821536Y-77334867D01*
X165794062Y-77336047D01*
X165767983Y-77338079D01*
X165743192Y-77341018D01*
X165719578Y-77344918D01*
X165697034Y-77349834D01*
X165675452Y-77355819D01*
X165654722Y-77362929D01*
X165634736Y-77371216D01*
X165615385Y-77380736D01*
X165596562Y-77391543D01*
X165578158Y-77403691D01*
X165560063Y-77417234D01*
X165542170Y-77432227D01*
X165524370Y-77448723D01*
X165506555Y-77466777D01*
X165492861Y-77479844D01*
X165479600Y-77493174D01*
X165466836Y-77506659D01*
X165454630Y-77520190D01*
X165443045Y-77533660D01*
X165432141Y-77546959D01*
X165421981Y-77559979D01*
X165412628Y-77572611D01*
X165404143Y-77584747D01*
X165396587Y-77596279D01*
X165390025Y-77607097D01*
X165384516Y-77617094D01*
X165380123Y-77626161D01*
X165376909Y-77634189D01*
X165375763Y-77637779D01*
X165374935Y-77641069D01*
X165374432Y-77644045D01*
X165374263Y-77646694D01*
X165374632Y-77649189D01*
X165375727Y-77651711D01*
X165380020Y-77656812D01*
X165386995Y-77661961D01*
X165396505Y-77667117D01*
X165408402Y-77672242D01*
X165422539Y-77677297D01*
X165438770Y-77682244D01*
X165456946Y-77687043D01*
X165476920Y-77691657D01*
X165498545Y-77696045D01*
X165546160Y-77703993D01*
X165598611Y-77710577D01*
X165654722Y-77715486D01*
X165690949Y-77717660D01*
X165724278Y-77720230D01*
X165739880Y-77721670D01*
X165754785Y-77723218D01*
X165769005Y-77724876D01*
X165782548Y-77726648D01*
X165795425Y-77728536D01*
X165807645Y-77730543D01*
X165819218Y-77732672D01*
X165830153Y-77734927D01*
X165840460Y-77737309D01*
X165850149Y-77739822D01*
X165859229Y-77742468D01*
X165867711Y-77745251D01*
X165875604Y-77748174D01*
X165882917Y-77751239D01*
X165889660Y-77754450D01*
X165895844Y-77757809D01*
X165901477Y-77761319D01*
X165906569Y-77764983D01*
X165911131Y-77768804D01*
X165915171Y-77772785D01*
X165918699Y-77776928D01*
X165921726Y-77781238D01*
X165924260Y-77785716D01*
X165926312Y-77790365D01*
X165927891Y-77795189D01*
X165929007Y-77800190D01*
X165929670Y-77805371D01*
X165929888Y-77810736D01*
X165929007Y-77821282D01*
X165926312Y-77831107D01*
X165921726Y-77840234D01*
X165915171Y-77848687D01*
X165906569Y-77856489D01*
X165895844Y-77863663D01*
X165882917Y-77870232D01*
X165867711Y-77876220D01*
X165850149Y-77881650D01*
X165830153Y-77886545D01*
X165807645Y-77890929D01*
X165782548Y-77894824D01*
X165754785Y-77898254D01*
X165724278Y-77901242D01*
X165690949Y-77903812D01*
X165654722Y-77905986D01*
X165626283Y-77908212D01*
X165598611Y-77910895D01*
X165571855Y-77913997D01*
X165546160Y-77917479D01*
X165521674Y-77921301D01*
X165498545Y-77925427D01*
X165476920Y-77929815D01*
X165456946Y-77934429D01*
X165438770Y-77939228D01*
X165422539Y-77944175D01*
X165408402Y-77949230D01*
X165396505Y-77954355D01*
X165391442Y-77956932D01*
X165386995Y-77959511D01*
X165383181Y-77962089D01*
X165380020Y-77964659D01*
X165377529Y-77967218D01*
X165375727Y-77969761D01*
X165374632Y-77972282D01*
X165374263Y-77974778D01*
X165322856Y-77974778D01*
X165314153Y-77965682D01*
X165300372Y-77955649D01*
X165283344Y-77947058D01*
X165262517Y-77939800D01*
X165237341Y-77933767D01*
X165207267Y-77928850D01*
X165171743Y-77924941D01*
X165130220Y-77921931D01*
X165082147Y-77919711D01*
X164964149Y-77917210D01*
X164813347Y-77916569D01*
X164315930Y-77916569D01*
X164315930Y-78604486D01*
X164315738Y-78703900D01*
X164315134Y-78794066D01*
X164314081Y-78875411D01*
X164312540Y-78948361D01*
X164310472Y-79013343D01*
X164307837Y-79070783D01*
X164304599Y-79121107D01*
X164300716Y-79164741D01*
X164298522Y-79184183D01*
X164296152Y-79202112D01*
X164293602Y-79218582D01*
X164290867Y-79233646D01*
X164287942Y-79247358D01*
X164284822Y-79259770D01*
X164281503Y-79270936D01*
X164277979Y-79280910D01*
X164274246Y-79289744D01*
X164270298Y-79297491D01*
X164266132Y-79304206D01*
X164261742Y-79309941D01*
X164257123Y-79314750D01*
X164252271Y-79318686D01*
X164247180Y-79321803D01*
X164241847Y-79324152D01*
X164229240Y-79326994D01*
X164211501Y-79327661D01*
X164162048Y-79322954D01*
X164096332Y-79310990D01*
X164017199Y-79292733D01*
X163927492Y-79269143D01*
X163830058Y-79241181D01*
X163623383Y-79175986D01*
X163419933Y-79104838D01*
X163242466Y-79035426D01*
X163170588Y-79003774D01*
X163113740Y-78975440D01*
X163074767Y-78951384D01*
X163062872Y-78941262D01*
X163056513Y-78932569D01*
X163054778Y-78925386D01*
X163053547Y-78917769D01*
X163052828Y-78909780D01*
X163052627Y-78901481D01*
X163052954Y-78892933D01*
X163053816Y-78884200D01*
X163055220Y-78875343D01*
X163057175Y-78866423D01*
X163059688Y-78857504D01*
X163062766Y-78848647D01*
X163066418Y-78839913D01*
X163070652Y-78831366D01*
X163075475Y-78823067D01*
X163080894Y-78815078D01*
X163086919Y-78807460D01*
X163090160Y-78803811D01*
X163093555Y-78800277D01*
X163107203Y-78792016D01*
X163128075Y-78787017D01*
X163155830Y-78785197D01*
X163190128Y-78786469D01*
X163230627Y-78790750D01*
X163276986Y-78797952D01*
X163385920Y-78820783D01*
X163514201Y-78854279D01*
X163659102Y-78897760D01*
X163817893Y-78950542D01*
X163987847Y-79011944D01*
X163995536Y-79014981D01*
X163999195Y-79015800D01*
X164002730Y-79016151D01*
X164006140Y-79016032D01*
X164009427Y-79015444D01*
X164012589Y-79014385D01*
X164015628Y-79012854D01*
X164018542Y-79010850D01*
X164021333Y-79008372D01*
X164026542Y-79001991D01*
X164031255Y-78993704D01*
X164035472Y-78983501D01*
X164039192Y-78971377D01*
X164042417Y-78957322D01*
X164045145Y-78941330D01*
X164047378Y-78923391D01*
X164049114Y-78903500D01*
X164050354Y-78881647D01*
X164051099Y-78857826D01*
X164051347Y-78832027D01*
X164051347Y-78625653D01*
X163569805Y-78472194D01*
X163484694Y-78444143D01*
X163407830Y-78417448D01*
X163372433Y-78404568D01*
X163339028Y-78391978D01*
X163307592Y-78379661D01*
X163278102Y-78367601D01*
X163250534Y-78355781D01*
X163224865Y-78344185D01*
X163201072Y-78332797D01*
X163179131Y-78321599D01*
X163159020Y-78310575D01*
X163140715Y-78299710D01*
X163124193Y-78288986D01*
X163109430Y-78278387D01*
X163096404Y-78267896D01*
X163085090Y-78257498D01*
X163075467Y-78247175D01*
X163067510Y-78236911D01*
X163061197Y-78226690D01*
X163056503Y-78216495D01*
X163053406Y-78206310D01*
X163051883Y-78196118D01*
X163051910Y-78185903D01*
X163053465Y-78175648D01*
X163056522Y-78165337D01*
X163061061Y-78154953D01*
X163067057Y-78144480D01*
X163074486Y-78133901D01*
X163083327Y-78123200D01*
X163093555Y-78112361D01*
X163107203Y-78104099D01*
X163128075Y-78099101D01*
X163155830Y-78097280D01*
X163190128Y-78098553D01*
X163230627Y-78102833D01*
X163276986Y-78110035D01*
X163385920Y-78132866D01*
X163514201Y-78166363D01*
X163659102Y-78209843D01*
X163817893Y-78262626D01*
X163987847Y-78324028D01*
X163995536Y-78327065D01*
X163999195Y-78327883D01*
X164002730Y-78328234D01*
X164006140Y-78328116D01*
X164009427Y-78327527D01*
X164012589Y-78326468D01*
X164015628Y-78324937D01*
X164018542Y-78322933D01*
X164021333Y-78320455D01*
X164026542Y-78314075D01*
X164031255Y-78305787D01*
X164035472Y-78295585D01*
X164039192Y-78283460D01*
X164042417Y-78269406D01*
X164045145Y-78253413D01*
X164047378Y-78235475D01*
X164049114Y-78215583D01*
X164050354Y-78193731D01*
X164051099Y-78169909D01*
X164051347Y-78144111D01*
X164051347Y-77937736D01*
X163569805Y-77784278D01*
X163484694Y-77756226D01*
X163407830Y-77729532D01*
X163372433Y-77716652D01*
X163339028Y-77704061D01*
X163307592Y-77691745D01*
X163278102Y-77679684D01*
X163250534Y-77667865D01*
X163224865Y-77656269D01*
X163201072Y-77644880D01*
X163179131Y-77633682D01*
X163159020Y-77622659D01*
X163140715Y-77611793D01*
X163124193Y-77601069D01*
X163109430Y-77590470D01*
X163096404Y-77579980D01*
X163085090Y-77569581D01*
X163075467Y-77559258D01*
X163067510Y-77548995D01*
X163061197Y-77538774D01*
X163056503Y-77528579D01*
X163053406Y-77518393D01*
X163051883Y-77508201D01*
X163051910Y-77497986D01*
X163053465Y-77487731D01*
X163056522Y-77477420D01*
X163061061Y-77467036D01*
X163067057Y-77456563D01*
X163074486Y-77445984D01*
X163083327Y-77435284D01*
X163093555Y-77424444D01*
X163107202Y-77416182D01*
X163128065Y-77411184D01*
X163155795Y-77409364D01*
X163190045Y-77410636D01*
X163230465Y-77414916D01*
X163276707Y-77422119D01*
X163385258Y-77444949D01*
X163512909Y-77478446D01*
X163656870Y-77521927D01*
X163814348Y-77574709D01*
X163982555Y-77636111D01*
X163991176Y-77639211D01*
X163995256Y-77640111D01*
X163999184Y-77640576D01*
X164002962Y-77640607D01*
X164006588Y-77640204D01*
X164010066Y-77639366D01*
X164013395Y-77638095D01*
X164016578Y-77636390D01*
X164019613Y-77634251D01*
X164022504Y-77631677D01*
X164025250Y-77628669D01*
X164027853Y-77625228D01*
X164030313Y-77621352D01*
X164034810Y-77612298D01*
X164038749Y-77601508D01*
X164042138Y-77588982D01*
X164044984Y-77574719D01*
X164047295Y-77558720D01*
X164049079Y-77540985D01*
X164050344Y-77521513D01*
X164051097Y-77500305D01*
X164051347Y-77477361D01*
X164051347Y-77292153D01*
X163569805Y-77117528D01*
X163485565Y-77086624D01*
X163409339Y-77057325D01*
X163340959Y-77029498D01*
X163309657Y-77016096D01*
X163280252Y-77003013D01*
X163252723Y-76990232D01*
X163227048Y-76977736D01*
X163203207Y-76965511D01*
X163181178Y-76953538D01*
X163160939Y-76941801D01*
X163142469Y-76930285D01*
X163125748Y-76918971D01*
X163110753Y-76907845D01*
X163097463Y-76896890D01*
X163085858Y-76886088D01*
X163075915Y-76875424D01*
X163067613Y-76864882D01*
X163060932Y-76854443D01*
X163055849Y-76844093D01*
X163052344Y-76833815D01*
X163050395Y-76823592D01*
X163049981Y-76813408D01*
X163051080Y-76803246D01*
X163053671Y-76793090D01*
X163057733Y-76782923D01*
X163063245Y-76772729D01*
X163070184Y-76762491D01*
X163078531Y-76752194D01*
X163088263Y-76741819D01*
X163097400Y-76734753D01*
X163109017Y-76729438D01*
X163123238Y-76725890D01*
X163140188Y-76724125D01*
X163159990Y-76724159D01*
X163182769Y-76726006D01*
X163208649Y-76729683D01*
X163237753Y-76735205D01*
X163270206Y-76742587D01*
X163306131Y-76751845D01*
X163388896Y-76776050D01*
X163487040Y-76807944D01*
X163601555Y-76847653D01*
X164051347Y-77011694D01*
X164051347Y-76614819D01*
X163569805Y-76461361D01*
X163484694Y-76433310D01*
X163407830Y-76406615D01*
X163372433Y-76393735D01*
X163339028Y-76381145D01*
X163307592Y-76368828D01*
X163278102Y-76356768D01*
X163250534Y-76344948D01*
X163224865Y-76333352D01*
X163201072Y-76321963D01*
X163179131Y-76310766D01*
X163159020Y-76299742D01*
X163140715Y-76288877D01*
X163124193Y-76278153D01*
X163109430Y-76267554D01*
X163096404Y-76257063D01*
X163085090Y-76246665D01*
X163075467Y-76236342D01*
X163067510Y-76226078D01*
X163061197Y-76215857D01*
X163056503Y-76205662D01*
X163053406Y-76195477D01*
X163051883Y-76185285D01*
X163051910Y-76175070D01*
X163053465Y-76164814D01*
X163056522Y-76154503D01*
X163061061Y-76144119D01*
X163067057Y-76133646D01*
X163074486Y-76123068D01*
X163083327Y-76112367D01*
X163093555Y-76101528D01*
X163102894Y-76094466D01*
X163115187Y-76089187D01*
X163130658Y-76085738D01*
X163149531Y-76084164D01*
X163172032Y-76084513D01*
G37*
D14*
X176994402Y-135360976D02*
X177066974Y-135215833D01*
X177066974Y-135215833D02*
X177212117Y-135070690D01*
X177212117Y-135070690D02*
X177429831Y-134852976D01*
X177429831Y-134852976D02*
X177502402Y-134707833D01*
X177502402Y-134707833D02*
X177502402Y-134562690D01*
X177139545Y-134635261D02*
X177212117Y-134490119D01*
X177212117Y-134490119D02*
X177357259Y-134344976D01*
X177357259Y-134344976D02*
X177647545Y-134272404D01*
X177647545Y-134272404D02*
X178155545Y-134272404D01*
X178155545Y-134272404D02*
X178445831Y-134344976D01*
X178445831Y-134344976D02*
X178590974Y-134490119D01*
X178590974Y-134490119D02*
X178663545Y-134635261D01*
X178663545Y-134635261D02*
X178663545Y-134925547D01*
X178663545Y-134925547D02*
X178590974Y-135070690D01*
X178590974Y-135070690D02*
X178445831Y-135215833D01*
X178445831Y-135215833D02*
X178155545Y-135288404D01*
X178155545Y-135288404D02*
X177647545Y-135288404D01*
X177647545Y-135288404D02*
X177357259Y-135215833D01*
X177357259Y-135215833D02*
X177212117Y-135070690D01*
X177212117Y-135070690D02*
X177139545Y-134925547D01*
X177139545Y-134925547D02*
X177139545Y-134635261D01*
X178155545Y-136594690D02*
X177139545Y-136594690D01*
X178736117Y-136231832D02*
X177647545Y-135868975D01*
X177647545Y-135868975D02*
X177647545Y-136812404D01*
X177502402Y-98022976D02*
X177574974Y-97877833D01*
X177574974Y-97877833D02*
X177720117Y-97732690D01*
X177720117Y-97732690D02*
X177937831Y-97514976D01*
X177937831Y-97514976D02*
X178010402Y-97369833D01*
X178010402Y-97369833D02*
X178010402Y-97224690D01*
X177647545Y-97297261D02*
X177720117Y-97152119D01*
X177720117Y-97152119D02*
X177865259Y-97006976D01*
X177865259Y-97006976D02*
X178155545Y-96934404D01*
X178155545Y-96934404D02*
X178663545Y-96934404D01*
X178663545Y-96934404D02*
X178953831Y-97006976D01*
X178953831Y-97006976D02*
X179098974Y-97152119D01*
X179098974Y-97152119D02*
X179171545Y-97297261D01*
X179171545Y-97297261D02*
X179171545Y-97587547D01*
X179171545Y-97587547D02*
X179098974Y-97732690D01*
X179098974Y-97732690D02*
X178953831Y-97877833D01*
X178953831Y-97877833D02*
X178663545Y-97950404D01*
X178663545Y-97950404D02*
X178155545Y-97950404D01*
X178155545Y-97950404D02*
X177865259Y-97877833D01*
X177865259Y-97877833D02*
X177720117Y-97732690D01*
X177720117Y-97732690D02*
X177647545Y-97587547D01*
X177647545Y-97587547D02*
X177647545Y-97297261D01*
X179026402Y-98530975D02*
X179098974Y-98603547D01*
X179098974Y-98603547D02*
X179171545Y-98748690D01*
X179171545Y-98748690D02*
X179171545Y-99111547D01*
X179171545Y-99111547D02*
X179098974Y-99256690D01*
X179098974Y-99256690D02*
X179026402Y-99329261D01*
X179026402Y-99329261D02*
X178881259Y-99401832D01*
X178881259Y-99401832D02*
X178736117Y-99401832D01*
X178736117Y-99401832D02*
X178518402Y-99329261D01*
X178518402Y-99329261D02*
X177647545Y-98458404D01*
X177647545Y-98458404D02*
X177647545Y-99401832D01*
D15*
X163238319Y-83560795D02*
X163238319Y-82196452D01*
X163238319Y-82878624D02*
X165270319Y-82878624D01*
X165270319Y-82878624D02*
X164980033Y-82651233D01*
X164980033Y-82651233D02*
X164786509Y-82423843D01*
X164786509Y-82423843D02*
X164689747Y-82196452D01*
X165076795Y-88108605D02*
X165173557Y-88222301D01*
X165173557Y-88222301D02*
X165270319Y-88449691D01*
X165270319Y-88449691D02*
X165270319Y-89018167D01*
X165270319Y-89018167D02*
X165173557Y-89245558D01*
X165173557Y-89245558D02*
X165076795Y-89359253D01*
X165076795Y-89359253D02*
X164883271Y-89472948D01*
X164883271Y-89472948D02*
X164689747Y-89472948D01*
X164689747Y-89472948D02*
X164399461Y-89359253D01*
X164399461Y-89359253D02*
X163238319Y-87994910D01*
X163238319Y-87994910D02*
X163238319Y-89472948D01*
X163238319Y-99023349D02*
X163238319Y-97659006D01*
X163238319Y-98341178D02*
X165270319Y-98341178D01*
X165270319Y-98341178D02*
X164980033Y-98113787D01*
X164980033Y-98113787D02*
X164786509Y-97886397D01*
X164786509Y-97886397D02*
X164689747Y-97659006D01*
X165076795Y-103571159D02*
X165173557Y-103684855D01*
X165173557Y-103684855D02*
X165270319Y-103912245D01*
X165270319Y-103912245D02*
X165270319Y-104480721D01*
X165270319Y-104480721D02*
X165173557Y-104708112D01*
X165173557Y-104708112D02*
X165076795Y-104821807D01*
X165076795Y-104821807D02*
X164883271Y-104935502D01*
X164883271Y-104935502D02*
X164689747Y-104935502D01*
X164689747Y-104935502D02*
X164399461Y-104821807D01*
X164399461Y-104821807D02*
X163238319Y-103457464D01*
X163238319Y-103457464D02*
X163238319Y-104935502D01*
X163238319Y-114485903D02*
X163238319Y-113121560D01*
X163238319Y-113803732D02*
X165270319Y-113803732D01*
X165270319Y-113803732D02*
X164980033Y-113576341D01*
X164980033Y-113576341D02*
X164786509Y-113348951D01*
X164786509Y-113348951D02*
X164689747Y-113121560D01*
X165076795Y-119033713D02*
X165173557Y-119147409D01*
X165173557Y-119147409D02*
X165270319Y-119374799D01*
X165270319Y-119374799D02*
X165270319Y-119943275D01*
X165270319Y-119943275D02*
X165173557Y-120170666D01*
X165173557Y-120170666D02*
X165076795Y-120284361D01*
X165076795Y-120284361D02*
X164883271Y-120398056D01*
X164883271Y-120398056D02*
X164689747Y-120398056D01*
X164689747Y-120398056D02*
X164399461Y-120284361D01*
X164399461Y-120284361D02*
X163238319Y-118920018D01*
X163238319Y-118920018D02*
X163238319Y-120398056D01*
X163238319Y-129948457D02*
X163238319Y-128584114D01*
X163238319Y-129266286D02*
X165270319Y-129266286D01*
X165270319Y-129266286D02*
X164980033Y-129038895D01*
X164980033Y-129038895D02*
X164786509Y-128811505D01*
X164786509Y-128811505D02*
X164689747Y-128584114D01*
X165076795Y-134496267D02*
X165173557Y-134609963D01*
X165173557Y-134609963D02*
X165270319Y-134837353D01*
X165270319Y-134837353D02*
X165270319Y-135405829D01*
X165270319Y-135405829D02*
X165173557Y-135633220D01*
X165173557Y-135633220D02*
X165076795Y-135746915D01*
X165076795Y-135746915D02*
X164883271Y-135860610D01*
X164883271Y-135860610D02*
X164689747Y-135860610D01*
X164689747Y-135860610D02*
X164399461Y-135746915D01*
X164399461Y-135746915D02*
X163238319Y-134382572D01*
X163238319Y-134382572D02*
X163238319Y-135860610D01*
D16*
X178398904Y-112063990D02*
X178517952Y-112123514D01*
X178517952Y-112123514D02*
X178636999Y-112242562D01*
X178636999Y-112242562D02*
X178815571Y-112421133D01*
X178815571Y-112421133D02*
X178934618Y-112480657D01*
X178934618Y-112480657D02*
X179053666Y-112480657D01*
X178994142Y-112183038D02*
X179113190Y-112242562D01*
X179113190Y-112242562D02*
X179232237Y-112361609D01*
X179232237Y-112361609D02*
X179291761Y-112599704D01*
X179291761Y-112599704D02*
X179291761Y-113016371D01*
X179291761Y-113016371D02*
X179232237Y-113254466D01*
X179232237Y-113254466D02*
X179113190Y-113373514D01*
X179113190Y-113373514D02*
X178994142Y-113433038D01*
X178994142Y-113433038D02*
X178756047Y-113433038D01*
X178756047Y-113433038D02*
X178636999Y-113373514D01*
X178636999Y-113373514D02*
X178517952Y-113254466D01*
X178517952Y-113254466D02*
X178458428Y-113016371D01*
X178458428Y-113016371D02*
X178458428Y-112599704D01*
X178458428Y-112599704D02*
X178517952Y-112361609D01*
X178517952Y-112361609D02*
X178636999Y-112242562D01*
X178636999Y-112242562D02*
X178756047Y-112183038D01*
X178756047Y-112183038D02*
X178994142Y-112183038D01*
X177267952Y-112183038D02*
X177982237Y-112183038D01*
X177625094Y-112183038D02*
X177625094Y-113433038D01*
X177625094Y-113433038D02*
X177744142Y-113254466D01*
X177744142Y-113254466D02*
X177863190Y-113135419D01*
X177863190Y-113135419D02*
X177982237Y-113075895D01*
X176732237Y-112302085D02*
X176672714Y-112242562D01*
X176672714Y-112242562D02*
X176732237Y-112183038D01*
X176732237Y-112183038D02*
X176791761Y-112242562D01*
X176791761Y-112242562D02*
X176732237Y-112302085D01*
X176732237Y-112302085D02*
X176732237Y-112183038D01*
X176732237Y-112956847D02*
X176672714Y-112897323D01*
X176672714Y-112897323D02*
X176732237Y-112837800D01*
X176732237Y-112837800D02*
X176791761Y-112897323D01*
X176791761Y-112897323D02*
X176732237Y-112956847D01*
X176732237Y-112956847D02*
X176732237Y-112837800D01*
X175482238Y-112183038D02*
X176196523Y-112183038D01*
X175839380Y-112183038D02*
X175839380Y-113433038D01*
X175839380Y-113433038D02*
X175958428Y-113254466D01*
X175958428Y-113254466D02*
X176077476Y-113135419D01*
X176077476Y-113135419D02*
X176196523Y-113075895D01*
X178144904Y-88822990D02*
X178263952Y-88882514D01*
X178263952Y-88882514D02*
X178382999Y-89001562D01*
X178382999Y-89001562D02*
X178561571Y-89180133D01*
X178561571Y-89180133D02*
X178680618Y-89239657D01*
X178680618Y-89239657D02*
X178799666Y-89239657D01*
X178740142Y-88942038D02*
X178859190Y-89001562D01*
X178859190Y-89001562D02*
X178978237Y-89120609D01*
X178978237Y-89120609D02*
X179037761Y-89358704D01*
X179037761Y-89358704D02*
X179037761Y-89775371D01*
X179037761Y-89775371D02*
X178978237Y-90013466D01*
X178978237Y-90013466D02*
X178859190Y-90132514D01*
X178859190Y-90132514D02*
X178740142Y-90192038D01*
X178740142Y-90192038D02*
X178502047Y-90192038D01*
X178502047Y-90192038D02*
X178382999Y-90132514D01*
X178382999Y-90132514D02*
X178263952Y-90013466D01*
X178263952Y-90013466D02*
X178204428Y-89775371D01*
X178204428Y-89775371D02*
X178204428Y-89358704D01*
X178204428Y-89358704D02*
X178263952Y-89120609D01*
X178263952Y-89120609D02*
X178382999Y-89001562D01*
X178382999Y-89001562D02*
X178502047Y-88942038D01*
X178502047Y-88942038D02*
X178740142Y-88942038D01*
X177013952Y-88942038D02*
X177728237Y-88942038D01*
X177371094Y-88942038D02*
X177371094Y-90192038D01*
X177371094Y-90192038D02*
X177490142Y-90013466D01*
X177490142Y-90013466D02*
X177609190Y-89894419D01*
X177609190Y-89894419D02*
X177728237Y-89834895D01*
X176478237Y-89061085D02*
X176418714Y-89001562D01*
X176418714Y-89001562D02*
X176478237Y-88942038D01*
X176478237Y-88942038D02*
X176537761Y-89001562D01*
X176537761Y-89001562D02*
X176478237Y-89061085D01*
X176478237Y-89061085D02*
X176478237Y-88942038D01*
X176478237Y-89715847D02*
X176418714Y-89656323D01*
X176418714Y-89656323D02*
X176478237Y-89596800D01*
X176478237Y-89596800D02*
X176537761Y-89656323D01*
X176537761Y-89656323D02*
X176478237Y-89715847D01*
X176478237Y-89715847D02*
X176478237Y-89596800D01*
X175228238Y-88942038D02*
X175942523Y-88942038D01*
X175585380Y-88942038D02*
X175585380Y-90192038D01*
X175585380Y-90192038D02*
X175704428Y-90013466D01*
X175704428Y-90013466D02*
X175823476Y-89894419D01*
X175823476Y-89894419D02*
X175942523Y-89834895D01*
D14*
X177248402Y-119993976D02*
X177320974Y-119848833D01*
X177320974Y-119848833D02*
X177466117Y-119703690D01*
X177466117Y-119703690D02*
X177683831Y-119485976D01*
X177683831Y-119485976D02*
X177756402Y-119340833D01*
X177756402Y-119340833D02*
X177756402Y-119195690D01*
X177393545Y-119268261D02*
X177466117Y-119123119D01*
X177466117Y-119123119D02*
X177611259Y-118977976D01*
X177611259Y-118977976D02*
X177901545Y-118905404D01*
X177901545Y-118905404D02*
X178409545Y-118905404D01*
X178409545Y-118905404D02*
X178699831Y-118977976D01*
X178699831Y-118977976D02*
X178844974Y-119123119D01*
X178844974Y-119123119D02*
X178917545Y-119268261D01*
X178917545Y-119268261D02*
X178917545Y-119558547D01*
X178917545Y-119558547D02*
X178844974Y-119703690D01*
X178844974Y-119703690D02*
X178699831Y-119848833D01*
X178699831Y-119848833D02*
X178409545Y-119921404D01*
X178409545Y-119921404D02*
X177901545Y-119921404D01*
X177901545Y-119921404D02*
X177611259Y-119848833D01*
X177611259Y-119848833D02*
X177466117Y-119703690D01*
X177466117Y-119703690D02*
X177393545Y-119558547D01*
X177393545Y-119558547D02*
X177393545Y-119268261D01*
X178917545Y-120429404D02*
X178917545Y-121372832D01*
X178917545Y-121372832D02*
X178336974Y-120864832D01*
X178336974Y-120864832D02*
X178336974Y-121082547D01*
X178336974Y-121082547D02*
X178264402Y-121227690D01*
X178264402Y-121227690D02*
X178191831Y-121300261D01*
X178191831Y-121300261D02*
X178046688Y-121372832D01*
X178046688Y-121372832D02*
X177683831Y-121372832D01*
X177683831Y-121372832D02*
X177538688Y-121300261D01*
X177538688Y-121300261D02*
X177466117Y-121227690D01*
X177466117Y-121227690D02*
X177393545Y-121082547D01*
X177393545Y-121082547D02*
X177393545Y-120647118D01*
X177393545Y-120647118D02*
X177466117Y-120501975D01*
X177466117Y-120501975D02*
X177538688Y-120429404D01*
D16*
X178271904Y-127176990D02*
X178390952Y-127236514D01*
X178390952Y-127236514D02*
X178509999Y-127355562D01*
X178509999Y-127355562D02*
X178688571Y-127534133D01*
X178688571Y-127534133D02*
X178807618Y-127593657D01*
X178807618Y-127593657D02*
X178926666Y-127593657D01*
X178867142Y-127296038D02*
X178986190Y-127355562D01*
X178986190Y-127355562D02*
X179105237Y-127474609D01*
X179105237Y-127474609D02*
X179164761Y-127712704D01*
X179164761Y-127712704D02*
X179164761Y-128129371D01*
X179164761Y-128129371D02*
X179105237Y-128367466D01*
X179105237Y-128367466D02*
X178986190Y-128486514D01*
X178986190Y-128486514D02*
X178867142Y-128546038D01*
X178867142Y-128546038D02*
X178629047Y-128546038D01*
X178629047Y-128546038D02*
X178509999Y-128486514D01*
X178509999Y-128486514D02*
X178390952Y-128367466D01*
X178390952Y-128367466D02*
X178331428Y-128129371D01*
X178331428Y-128129371D02*
X178331428Y-127712704D01*
X178331428Y-127712704D02*
X178390952Y-127474609D01*
X178390952Y-127474609D02*
X178509999Y-127355562D01*
X178509999Y-127355562D02*
X178629047Y-127296038D01*
X178629047Y-127296038D02*
X178867142Y-127296038D01*
X177140952Y-127296038D02*
X177855237Y-127296038D01*
X177498094Y-127296038D02*
X177498094Y-128546038D01*
X177498094Y-128546038D02*
X177617142Y-128367466D01*
X177617142Y-128367466D02*
X177736190Y-128248419D01*
X177736190Y-128248419D02*
X177855237Y-128188895D01*
X176605237Y-127415085D02*
X176545714Y-127355562D01*
X176545714Y-127355562D02*
X176605237Y-127296038D01*
X176605237Y-127296038D02*
X176664761Y-127355562D01*
X176664761Y-127355562D02*
X176605237Y-127415085D01*
X176605237Y-127415085D02*
X176605237Y-127296038D01*
X176605237Y-128069847D02*
X176545714Y-128010323D01*
X176545714Y-128010323D02*
X176605237Y-127950800D01*
X176605237Y-127950800D02*
X176664761Y-128010323D01*
X176664761Y-128010323D02*
X176605237Y-128069847D01*
X176605237Y-128069847D02*
X176605237Y-127950800D01*
X175355238Y-127296038D02*
X176069523Y-127296038D01*
X175712380Y-127296038D02*
X175712380Y-128546038D01*
X175712380Y-128546038D02*
X175831428Y-128367466D01*
X175831428Y-128367466D02*
X175950476Y-128248419D01*
X175950476Y-128248419D02*
X176069523Y-128188895D01*
D11*
X168688656Y-113428395D02*
X168180656Y-113428395D01*
X168180656Y-113428395D02*
X168079056Y-113394528D01*
X168079056Y-113394528D02*
X168011323Y-113326795D01*
X168011323Y-113326795D02*
X167977456Y-113225195D01*
X167977456Y-113225195D02*
X167977456Y-113157462D01*
X167977456Y-114105729D02*
X167977456Y-113767062D01*
X167977456Y-113767062D02*
X168688656Y-113767062D01*
X168045189Y-114749195D02*
X168011323Y-114715328D01*
X168011323Y-114715328D02*
X167977456Y-114613728D01*
X167977456Y-114613728D02*
X167977456Y-114545995D01*
X167977456Y-114545995D02*
X168011323Y-114444395D01*
X168011323Y-114444395D02*
X168079056Y-114376662D01*
X168079056Y-114376662D02*
X168146789Y-114342795D01*
X168146789Y-114342795D02*
X168282256Y-114308928D01*
X168282256Y-114308928D02*
X168383856Y-114308928D01*
X168383856Y-114308928D02*
X168519323Y-114342795D01*
X168519323Y-114342795D02*
X168587056Y-114376662D01*
X168587056Y-114376662D02*
X168654789Y-114444395D01*
X168654789Y-114444395D02*
X168688656Y-114545995D01*
X168688656Y-114545995D02*
X168688656Y-114613728D01*
X168688656Y-114613728D02*
X168654789Y-114715328D01*
X168654789Y-114715328D02*
X168620923Y-114749195D01*
X168688656Y-115257195D02*
X168180656Y-115257195D01*
X168180656Y-115257195D02*
X168079056Y-115223328D01*
X168079056Y-115223328D02*
X168011323Y-115155595D01*
X168011323Y-115155595D02*
X167977456Y-115053995D01*
X167977456Y-115053995D02*
X167977456Y-114986262D01*
X167977456Y-115934529D02*
X167977456Y-115595862D01*
X167977456Y-115595862D02*
X168688656Y-115595862D01*
X168045189Y-116577995D02*
X168011323Y-116544128D01*
X168011323Y-116544128D02*
X167977456Y-116442528D01*
X167977456Y-116442528D02*
X167977456Y-116374795D01*
X167977456Y-116374795D02*
X168011323Y-116273195D01*
X168011323Y-116273195D02*
X168079056Y-116205462D01*
X168079056Y-116205462D02*
X168146789Y-116171595D01*
X168146789Y-116171595D02*
X168282256Y-116137728D01*
X168282256Y-116137728D02*
X168383856Y-116137728D01*
X168383856Y-116137728D02*
X168519323Y-116171595D01*
X168519323Y-116171595D02*
X168587056Y-116205462D01*
X168587056Y-116205462D02*
X168654789Y-116273195D01*
X168654789Y-116273195D02*
X168688656Y-116374795D01*
X168688656Y-116374795D02*
X168688656Y-116442528D01*
X168688656Y-116442528D02*
X168654789Y-116544128D01*
X168654789Y-116544128D02*
X168620923Y-116577995D01*
X168688656Y-117085995D02*
X168180656Y-117085995D01*
X168180656Y-117085995D02*
X168079056Y-117052128D01*
X168079056Y-117052128D02*
X168011323Y-116984395D01*
X168011323Y-116984395D02*
X167977456Y-116882795D01*
X167977456Y-116882795D02*
X167977456Y-116815062D01*
X167977456Y-117763329D02*
X167977456Y-117424662D01*
X167977456Y-117424662D02*
X168688656Y-117424662D01*
X168045189Y-118406795D02*
X168011323Y-118372928D01*
X168011323Y-118372928D02*
X167977456Y-118271328D01*
X167977456Y-118271328D02*
X167977456Y-118203595D01*
X167977456Y-118203595D02*
X168011323Y-118101995D01*
X168011323Y-118101995D02*
X168079056Y-118034262D01*
X168079056Y-118034262D02*
X168146789Y-118000395D01*
X168146789Y-118000395D02*
X168282256Y-117966528D01*
X168282256Y-117966528D02*
X168383856Y-117966528D01*
X168383856Y-117966528D02*
X168519323Y-118000395D01*
X168519323Y-118000395D02*
X168587056Y-118034262D01*
X168587056Y-118034262D02*
X168654789Y-118101995D01*
X168654789Y-118101995D02*
X168688656Y-118203595D01*
X168688656Y-118203595D02*
X168688656Y-118271328D01*
X168688656Y-118271328D02*
X168654789Y-118372928D01*
X168654789Y-118372928D02*
X168620923Y-118406795D01*
X168688656Y-118914795D02*
X168180656Y-118914795D01*
X168180656Y-118914795D02*
X168079056Y-118880928D01*
X168079056Y-118880928D02*
X168011323Y-118813195D01*
X168011323Y-118813195D02*
X167977456Y-118711595D01*
X167977456Y-118711595D02*
X167977456Y-118643862D01*
X167977456Y-119592129D02*
X167977456Y-119253462D01*
X167977456Y-119253462D02*
X168688656Y-119253462D01*
X168045189Y-120235595D02*
X168011323Y-120201728D01*
X168011323Y-120201728D02*
X167977456Y-120100128D01*
X167977456Y-120100128D02*
X167977456Y-120032395D01*
X167977456Y-120032395D02*
X168011323Y-119930795D01*
X168011323Y-119930795D02*
X168079056Y-119863062D01*
X168079056Y-119863062D02*
X168146789Y-119829195D01*
X168146789Y-119829195D02*
X168282256Y-119795328D01*
X168282256Y-119795328D02*
X168383856Y-119795328D01*
X168383856Y-119795328D02*
X168519323Y-119829195D01*
X168519323Y-119829195D02*
X168587056Y-119863062D01*
X168587056Y-119863062D02*
X168654789Y-119930795D01*
X168654789Y-119930795D02*
X168688656Y-120032395D01*
X168688656Y-120032395D02*
X168688656Y-120100128D01*
X168688656Y-120100128D02*
X168654789Y-120201728D01*
X168654789Y-120201728D02*
X168620923Y-120235595D01*
D14*
X177248402Y-82147976D02*
X177320974Y-82002833D01*
X177320974Y-82002833D02*
X177466117Y-81857690D01*
X177466117Y-81857690D02*
X177683831Y-81639976D01*
X177683831Y-81639976D02*
X177756402Y-81494833D01*
X177756402Y-81494833D02*
X177756402Y-81349690D01*
X177393545Y-81422261D02*
X177466117Y-81277119D01*
X177466117Y-81277119D02*
X177611259Y-81131976D01*
X177611259Y-81131976D02*
X177901545Y-81059404D01*
X177901545Y-81059404D02*
X178409545Y-81059404D01*
X178409545Y-81059404D02*
X178699831Y-81131976D01*
X178699831Y-81131976D02*
X178844974Y-81277119D01*
X178844974Y-81277119D02*
X178917545Y-81422261D01*
X178917545Y-81422261D02*
X178917545Y-81712547D01*
X178917545Y-81712547D02*
X178844974Y-81857690D01*
X178844974Y-81857690D02*
X178699831Y-82002833D01*
X178699831Y-82002833D02*
X178409545Y-82075404D01*
X178409545Y-82075404D02*
X177901545Y-82075404D01*
X177901545Y-82075404D02*
X177611259Y-82002833D01*
X177611259Y-82002833D02*
X177466117Y-81857690D01*
X177466117Y-81857690D02*
X177393545Y-81712547D01*
X177393545Y-81712547D02*
X177393545Y-81422261D01*
X177393545Y-83526832D02*
X177393545Y-82655975D01*
X177393545Y-83091404D02*
X178917545Y-83091404D01*
X178917545Y-83091404D02*
X178699831Y-82946261D01*
X178699831Y-82946261D02*
X178554688Y-82801118D01*
X178554688Y-82801118D02*
X178482117Y-82655975D01*
D17*
X152593318Y-109455856D02*
X153500461Y-109455856D01*
X153500461Y-109455856D02*
X153681889Y-109516333D01*
X153681889Y-109516333D02*
X153802842Y-109637285D01*
X153802842Y-109637285D02*
X153863318Y-109818714D01*
X153863318Y-109818714D02*
X153863318Y-109939666D01*
X153863318Y-108185856D02*
X153863318Y-108911571D01*
X153863318Y-108548714D02*
X152593318Y-108548714D01*
X152593318Y-108548714D02*
X152774746Y-108669666D01*
X152774746Y-108669666D02*
X152895699Y-108790618D01*
X152895699Y-108790618D02*
X152956175Y-108911571D01*
X152714270Y-107702047D02*
X152653794Y-107641571D01*
X152653794Y-107641571D02*
X152593318Y-107520618D01*
X152593318Y-107520618D02*
X152593318Y-107218237D01*
X152593318Y-107218237D02*
X152653794Y-107097285D01*
X152653794Y-107097285D02*
X152714270Y-107036809D01*
X152714270Y-107036809D02*
X152835222Y-106976332D01*
X152835222Y-106976332D02*
X152956175Y-106976332D01*
X152956175Y-106976332D02*
X153137603Y-107036809D01*
X153137603Y-107036809D02*
X153863318Y-107762523D01*
X153863318Y-107762523D02*
X153863318Y-106976332D01*
X153016651Y-105887761D02*
X153863318Y-105887761D01*
X152532842Y-106190142D02*
X153439984Y-106492523D01*
X153439984Y-106492523D02*
X153439984Y-105706332D01*
D18*
X151076819Y-88749047D02*
X150600628Y-89082380D01*
X151076819Y-89320475D02*
X150076819Y-89320475D01*
X150076819Y-89320475D02*
X150076819Y-88939523D01*
X150076819Y-88939523D02*
X150124438Y-88844285D01*
X150124438Y-88844285D02*
X150172057Y-88796666D01*
X150172057Y-88796666D02*
X150267295Y-88749047D01*
X150267295Y-88749047D02*
X150410152Y-88749047D01*
X150410152Y-88749047D02*
X150505390Y-88796666D01*
X150505390Y-88796666D02*
X150553009Y-88844285D01*
X150553009Y-88844285D02*
X150600628Y-88939523D01*
X150600628Y-88939523D02*
X150600628Y-89320475D01*
X151076819Y-87796666D02*
X151076819Y-88368094D01*
X151076819Y-88082380D02*
X150076819Y-88082380D01*
X150076819Y-88082380D02*
X150219676Y-88177618D01*
X150219676Y-88177618D02*
X150314914Y-88272856D01*
X150314914Y-88272856D02*
X150362533Y-88368094D01*
X150076819Y-87177618D02*
X150076819Y-87082380D01*
X150076819Y-87082380D02*
X150124438Y-86987142D01*
X150124438Y-86987142D02*
X150172057Y-86939523D01*
X150172057Y-86939523D02*
X150267295Y-86891904D01*
X150267295Y-86891904D02*
X150457771Y-86844285D01*
X150457771Y-86844285D02*
X150695866Y-86844285D01*
X150695866Y-86844285D02*
X150886342Y-86891904D01*
X150886342Y-86891904D02*
X150981580Y-86939523D01*
X150981580Y-86939523D02*
X151029200Y-86987142D01*
X151029200Y-86987142D02*
X151076819Y-87082380D01*
X151076819Y-87082380D02*
X151076819Y-87177618D01*
X151076819Y-87177618D02*
X151029200Y-87272856D01*
X151029200Y-87272856D02*
X150981580Y-87320475D01*
X150981580Y-87320475D02*
X150886342Y-87368094D01*
X150886342Y-87368094D02*
X150695866Y-87415713D01*
X150695866Y-87415713D02*
X150457771Y-87415713D01*
X150457771Y-87415713D02*
X150267295Y-87368094D01*
X150267295Y-87368094D02*
X150172057Y-87320475D01*
X150172057Y-87320475D02*
X150124438Y-87272856D01*
X150124438Y-87272856D02*
X150076819Y-87177618D01*
X150410152Y-85987142D02*
X151076819Y-85987142D01*
X150029200Y-86225237D02*
X150743485Y-86463332D01*
X150743485Y-86463332D02*
X150743485Y-85844285D01*
D17*
X152593318Y-119615856D02*
X153500461Y-119615856D01*
X153500461Y-119615856D02*
X153681889Y-119676333D01*
X153681889Y-119676333D02*
X153802842Y-119797285D01*
X153802842Y-119797285D02*
X153863318Y-119978714D01*
X153863318Y-119978714D02*
X153863318Y-120099666D01*
X153863318Y-118345856D02*
X153863318Y-119071571D01*
X153863318Y-118708714D02*
X152593318Y-118708714D01*
X152593318Y-118708714D02*
X152774746Y-118829666D01*
X152774746Y-118829666D02*
X152895699Y-118950618D01*
X152895699Y-118950618D02*
X152956175Y-119071571D01*
X152714270Y-117862047D02*
X152653794Y-117801571D01*
X152653794Y-117801571D02*
X152593318Y-117680618D01*
X152593318Y-117680618D02*
X152593318Y-117378237D01*
X152593318Y-117378237D02*
X152653794Y-117257285D01*
X152653794Y-117257285D02*
X152714270Y-117196809D01*
X152714270Y-117196809D02*
X152835222Y-117136332D01*
X152835222Y-117136332D02*
X152956175Y-117136332D01*
X152956175Y-117136332D02*
X153137603Y-117196809D01*
X153137603Y-117196809D02*
X153863318Y-117922523D01*
X153863318Y-117922523D02*
X153863318Y-117136332D01*
X152714270Y-116652523D02*
X152653794Y-116592047D01*
X152653794Y-116592047D02*
X152593318Y-116471094D01*
X152593318Y-116471094D02*
X152593318Y-116168713D01*
X152593318Y-116168713D02*
X152653794Y-116047761D01*
X152653794Y-116047761D02*
X152714270Y-115987285D01*
X152714270Y-115987285D02*
X152835222Y-115926808D01*
X152835222Y-115926808D02*
X152956175Y-115926808D01*
X152956175Y-115926808D02*
X153137603Y-115987285D01*
X153137603Y-115987285D02*
X153863318Y-116712999D01*
X153863318Y-116712999D02*
X153863318Y-115926808D01*
D18*
X150822819Y-124817047D02*
X150346628Y-125150380D01*
X150822819Y-125388475D02*
X149822819Y-125388475D01*
X149822819Y-125388475D02*
X149822819Y-125007523D01*
X149822819Y-125007523D02*
X149870438Y-124912285D01*
X149870438Y-124912285D02*
X149918057Y-124864666D01*
X149918057Y-124864666D02*
X150013295Y-124817047D01*
X150013295Y-124817047D02*
X150156152Y-124817047D01*
X150156152Y-124817047D02*
X150251390Y-124864666D01*
X150251390Y-124864666D02*
X150299009Y-124912285D01*
X150299009Y-124912285D02*
X150346628Y-125007523D01*
X150346628Y-125007523D02*
X150346628Y-125388475D01*
X150822819Y-123864666D02*
X150822819Y-124436094D01*
X150822819Y-124150380D02*
X149822819Y-124150380D01*
X149822819Y-124150380D02*
X149965676Y-124245618D01*
X149965676Y-124245618D02*
X150060914Y-124340856D01*
X150060914Y-124340856D02*
X150108533Y-124436094D01*
X149822819Y-123245618D02*
X149822819Y-123150380D01*
X149822819Y-123150380D02*
X149870438Y-123055142D01*
X149870438Y-123055142D02*
X149918057Y-123007523D01*
X149918057Y-123007523D02*
X150013295Y-122959904D01*
X150013295Y-122959904D02*
X150203771Y-122912285D01*
X150203771Y-122912285D02*
X150441866Y-122912285D01*
X150441866Y-122912285D02*
X150632342Y-122959904D01*
X150632342Y-122959904D02*
X150727580Y-123007523D01*
X150727580Y-123007523D02*
X150775200Y-123055142D01*
X150775200Y-123055142D02*
X150822819Y-123150380D01*
X150822819Y-123150380D02*
X150822819Y-123245618D01*
X150822819Y-123245618D02*
X150775200Y-123340856D01*
X150775200Y-123340856D02*
X150727580Y-123388475D01*
X150727580Y-123388475D02*
X150632342Y-123436094D01*
X150632342Y-123436094D02*
X150441866Y-123483713D01*
X150441866Y-123483713D02*
X150203771Y-123483713D01*
X150203771Y-123483713D02*
X150013295Y-123436094D01*
X150013295Y-123436094D02*
X149918057Y-123388475D01*
X149918057Y-123388475D02*
X149870438Y-123340856D01*
X149870438Y-123340856D02*
X149822819Y-123245618D01*
X150822819Y-121959904D02*
X150822819Y-122531332D01*
X150822819Y-122245618D02*
X149822819Y-122245618D01*
X149822819Y-122245618D02*
X149965676Y-122340856D01*
X149965676Y-122340856D02*
X150060914Y-122436094D01*
X150060914Y-122436094D02*
X150108533Y-122531332D01*
X151876285Y-135217819D02*
X151876285Y-135932104D01*
X151876285Y-135932104D02*
X151828666Y-136074961D01*
X151828666Y-136074961D02*
X151733428Y-136170200D01*
X151733428Y-136170200D02*
X151590571Y-136217819D01*
X151590571Y-136217819D02*
X151495333Y-136217819D01*
X152876285Y-136217819D02*
X152304857Y-136217819D01*
X152590571Y-136217819D02*
X152590571Y-135217819D01*
X152590571Y-135217819D02*
X152495333Y-135360676D01*
X152495333Y-135360676D02*
X152400095Y-135455914D01*
X152400095Y-135455914D02*
X152304857Y-135503533D01*
X153257238Y-135313057D02*
X153304857Y-135265438D01*
X153304857Y-135265438D02*
X153400095Y-135217819D01*
X153400095Y-135217819D02*
X153638190Y-135217819D01*
X153638190Y-135217819D02*
X153733428Y-135265438D01*
X153733428Y-135265438D02*
X153781047Y-135313057D01*
X153781047Y-135313057D02*
X153828666Y-135408295D01*
X153828666Y-135408295D02*
X153828666Y-135503533D01*
X153828666Y-135503533D02*
X153781047Y-135646390D01*
X153781047Y-135646390D02*
X153209619Y-136217819D01*
X153209619Y-136217819D02*
X153828666Y-136217819D01*
X154685809Y-135217819D02*
X154495333Y-135217819D01*
X154495333Y-135217819D02*
X154400095Y-135265438D01*
X154400095Y-135265438D02*
X154352476Y-135313057D01*
X154352476Y-135313057D02*
X154257238Y-135455914D01*
X154257238Y-135455914D02*
X154209619Y-135646390D01*
X154209619Y-135646390D02*
X154209619Y-136027342D01*
X154209619Y-136027342D02*
X154257238Y-136122580D01*
X154257238Y-136122580D02*
X154304857Y-136170200D01*
X154304857Y-136170200D02*
X154400095Y-136217819D01*
X154400095Y-136217819D02*
X154590571Y-136217819D01*
X154590571Y-136217819D02*
X154685809Y-136170200D01*
X154685809Y-136170200D02*
X154733428Y-136122580D01*
X154733428Y-136122580D02*
X154781047Y-136027342D01*
X154781047Y-136027342D02*
X154781047Y-135789247D01*
X154781047Y-135789247D02*
X154733428Y-135694009D01*
X154733428Y-135694009D02*
X154685809Y-135646390D01*
X154685809Y-135646390D02*
X154590571Y-135598771D01*
X154590571Y-135598771D02*
X154400095Y-135598771D01*
X154400095Y-135598771D02*
X154304857Y-135646390D01*
X154304857Y-135646390D02*
X154257238Y-135694009D01*
X154257238Y-135694009D02*
X154209619Y-135789247D01*
X150949819Y-115038047D02*
X150473628Y-115371380D01*
X150949819Y-115609475D02*
X149949819Y-115609475D01*
X149949819Y-115609475D02*
X149949819Y-115228523D01*
X149949819Y-115228523D02*
X149997438Y-115133285D01*
X149997438Y-115133285D02*
X150045057Y-115085666D01*
X150045057Y-115085666D02*
X150140295Y-115038047D01*
X150140295Y-115038047D02*
X150283152Y-115038047D01*
X150283152Y-115038047D02*
X150378390Y-115085666D01*
X150378390Y-115085666D02*
X150426009Y-115133285D01*
X150426009Y-115133285D02*
X150473628Y-115228523D01*
X150473628Y-115228523D02*
X150473628Y-115609475D01*
X150949819Y-114085666D02*
X150949819Y-114657094D01*
X150949819Y-114371380D02*
X149949819Y-114371380D01*
X149949819Y-114371380D02*
X150092676Y-114466618D01*
X150092676Y-114466618D02*
X150187914Y-114561856D01*
X150187914Y-114561856D02*
X150235533Y-114657094D01*
X149949819Y-113466618D02*
X149949819Y-113371380D01*
X149949819Y-113371380D02*
X149997438Y-113276142D01*
X149997438Y-113276142D02*
X150045057Y-113228523D01*
X150045057Y-113228523D02*
X150140295Y-113180904D01*
X150140295Y-113180904D02*
X150330771Y-113133285D01*
X150330771Y-113133285D02*
X150568866Y-113133285D01*
X150568866Y-113133285D02*
X150759342Y-113180904D01*
X150759342Y-113180904D02*
X150854580Y-113228523D01*
X150854580Y-113228523D02*
X150902200Y-113276142D01*
X150902200Y-113276142D02*
X150949819Y-113371380D01*
X150949819Y-113371380D02*
X150949819Y-113466618D01*
X150949819Y-113466618D02*
X150902200Y-113561856D01*
X150902200Y-113561856D02*
X150854580Y-113609475D01*
X150854580Y-113609475D02*
X150759342Y-113657094D01*
X150759342Y-113657094D02*
X150568866Y-113704713D01*
X150568866Y-113704713D02*
X150330771Y-113704713D01*
X150330771Y-113704713D02*
X150140295Y-113657094D01*
X150140295Y-113657094D02*
X150045057Y-113609475D01*
X150045057Y-113609475D02*
X149997438Y-113561856D01*
X149997438Y-113561856D02*
X149949819Y-113466618D01*
X150045057Y-112752332D02*
X149997438Y-112704713D01*
X149997438Y-112704713D02*
X149949819Y-112609475D01*
X149949819Y-112609475D02*
X149949819Y-112371380D01*
X149949819Y-112371380D02*
X149997438Y-112276142D01*
X149997438Y-112276142D02*
X150045057Y-112228523D01*
X150045057Y-112228523D02*
X150140295Y-112180904D01*
X150140295Y-112180904D02*
X150235533Y-112180904D01*
X150235533Y-112180904D02*
X150378390Y-112228523D01*
X150378390Y-112228523D02*
X150949819Y-112799951D01*
X150949819Y-112799951D02*
X150949819Y-112180904D01*
X150949819Y-98401047D02*
X150473628Y-98734380D01*
X150949819Y-98972475D02*
X149949819Y-98972475D01*
X149949819Y-98972475D02*
X149949819Y-98591523D01*
X149949819Y-98591523D02*
X149997438Y-98496285D01*
X149997438Y-98496285D02*
X150045057Y-98448666D01*
X150045057Y-98448666D02*
X150140295Y-98401047D01*
X150140295Y-98401047D02*
X150283152Y-98401047D01*
X150283152Y-98401047D02*
X150378390Y-98448666D01*
X150378390Y-98448666D02*
X150426009Y-98496285D01*
X150426009Y-98496285D02*
X150473628Y-98591523D01*
X150473628Y-98591523D02*
X150473628Y-98972475D01*
X150949819Y-97448666D02*
X150949819Y-98020094D01*
X150949819Y-97734380D02*
X149949819Y-97734380D01*
X149949819Y-97734380D02*
X150092676Y-97829618D01*
X150092676Y-97829618D02*
X150187914Y-97924856D01*
X150187914Y-97924856D02*
X150235533Y-98020094D01*
X149949819Y-96829618D02*
X149949819Y-96734380D01*
X149949819Y-96734380D02*
X149997438Y-96639142D01*
X149997438Y-96639142D02*
X150045057Y-96591523D01*
X150045057Y-96591523D02*
X150140295Y-96543904D01*
X150140295Y-96543904D02*
X150330771Y-96496285D01*
X150330771Y-96496285D02*
X150568866Y-96496285D01*
X150568866Y-96496285D02*
X150759342Y-96543904D01*
X150759342Y-96543904D02*
X150854580Y-96591523D01*
X150854580Y-96591523D02*
X150902200Y-96639142D01*
X150902200Y-96639142D02*
X150949819Y-96734380D01*
X150949819Y-96734380D02*
X150949819Y-96829618D01*
X150949819Y-96829618D02*
X150902200Y-96924856D01*
X150902200Y-96924856D02*
X150854580Y-96972475D01*
X150854580Y-96972475D02*
X150759342Y-97020094D01*
X150759342Y-97020094D02*
X150568866Y-97067713D01*
X150568866Y-97067713D02*
X150330771Y-97067713D01*
X150330771Y-97067713D02*
X150140295Y-97020094D01*
X150140295Y-97020094D02*
X150045057Y-96972475D01*
X150045057Y-96972475D02*
X149997438Y-96924856D01*
X149997438Y-96924856D02*
X149949819Y-96829618D01*
X149949819Y-96162951D02*
X149949819Y-95543904D01*
X149949819Y-95543904D02*
X150330771Y-95877237D01*
X150330771Y-95877237D02*
X150330771Y-95734380D01*
X150330771Y-95734380D02*
X150378390Y-95639142D01*
X150378390Y-95639142D02*
X150426009Y-95591523D01*
X150426009Y-95591523D02*
X150521247Y-95543904D01*
X150521247Y-95543904D02*
X150759342Y-95543904D01*
X150759342Y-95543904D02*
X150854580Y-95591523D01*
X150854580Y-95591523D02*
X150902200Y-95639142D01*
X150902200Y-95639142D02*
X150949819Y-95734380D01*
X150949819Y-95734380D02*
X150949819Y-96020094D01*
X150949819Y-96020094D02*
X150902200Y-96115332D01*
X150902200Y-96115332D02*
X150854580Y-96162951D01*
D17*
X152593318Y-99295856D02*
X153500461Y-99295856D01*
X153500461Y-99295856D02*
X153681889Y-99356333D01*
X153681889Y-99356333D02*
X153802842Y-99477285D01*
X153802842Y-99477285D02*
X153863318Y-99658714D01*
X153863318Y-99658714D02*
X153863318Y-99779666D01*
X153863318Y-98025856D02*
X153863318Y-98751571D01*
X153863318Y-98388714D02*
X152593318Y-98388714D01*
X152593318Y-98388714D02*
X152774746Y-98509666D01*
X152774746Y-98509666D02*
X152895699Y-98630618D01*
X152895699Y-98630618D02*
X152956175Y-98751571D01*
X152714270Y-97542047D02*
X152653794Y-97481571D01*
X152653794Y-97481571D02*
X152593318Y-97360618D01*
X152593318Y-97360618D02*
X152593318Y-97058237D01*
X152593318Y-97058237D02*
X152653794Y-96937285D01*
X152653794Y-96937285D02*
X152714270Y-96876809D01*
X152714270Y-96876809D02*
X152835222Y-96816332D01*
X152835222Y-96816332D02*
X152956175Y-96816332D01*
X152956175Y-96816332D02*
X153137603Y-96876809D01*
X153137603Y-96876809D02*
X153863318Y-97602523D01*
X153863318Y-97602523D02*
X153863318Y-96816332D01*
X152593318Y-95667285D02*
X152593318Y-96272047D01*
X152593318Y-96272047D02*
X153198080Y-96332523D01*
X153198080Y-96332523D02*
X153137603Y-96272047D01*
X153137603Y-96272047D02*
X153077127Y-96151094D01*
X153077127Y-96151094D02*
X153077127Y-95848713D01*
X153077127Y-95848713D02*
X153137603Y-95727761D01*
X153137603Y-95727761D02*
X153198080Y-95667285D01*
X153198080Y-95667285D02*
X153319032Y-95606808D01*
X153319032Y-95606808D02*
X153621413Y-95606808D01*
X153621413Y-95606808D02*
X153742365Y-95667285D01*
X153742365Y-95667285D02*
X153802842Y-95727761D01*
X153802842Y-95727761D02*
X153863318Y-95848713D01*
X153863318Y-95848713D02*
X153863318Y-96151094D01*
X153863318Y-96151094D02*
X153802842Y-96272047D01*
X153802842Y-96272047D02*
X153742365Y-96332523D01*
X152593318Y-89135856D02*
X153500461Y-89135856D01*
X153500461Y-89135856D02*
X153681889Y-89196333D01*
X153681889Y-89196333D02*
X153802842Y-89317285D01*
X153802842Y-89317285D02*
X153863318Y-89498714D01*
X153863318Y-89498714D02*
X153863318Y-89619666D01*
X153863318Y-87865856D02*
X153863318Y-88591571D01*
X153863318Y-88228714D02*
X152593318Y-88228714D01*
X152593318Y-88228714D02*
X152774746Y-88349666D01*
X152774746Y-88349666D02*
X152895699Y-88470618D01*
X152895699Y-88470618D02*
X152956175Y-88591571D01*
X152714270Y-87382047D02*
X152653794Y-87321571D01*
X152653794Y-87321571D02*
X152593318Y-87200618D01*
X152593318Y-87200618D02*
X152593318Y-86898237D01*
X152593318Y-86898237D02*
X152653794Y-86777285D01*
X152653794Y-86777285D02*
X152714270Y-86716809D01*
X152714270Y-86716809D02*
X152835222Y-86656332D01*
X152835222Y-86656332D02*
X152956175Y-86656332D01*
X152956175Y-86656332D02*
X153137603Y-86716809D01*
X153137603Y-86716809D02*
X153863318Y-87442523D01*
X153863318Y-87442523D02*
X153863318Y-86656332D01*
X152593318Y-86232999D02*
X152593318Y-85446808D01*
X152593318Y-85446808D02*
X153077127Y-85870142D01*
X153077127Y-85870142D02*
X153077127Y-85688713D01*
X153077127Y-85688713D02*
X153137603Y-85567761D01*
X153137603Y-85567761D02*
X153198080Y-85507285D01*
X153198080Y-85507285D02*
X153319032Y-85446808D01*
X153319032Y-85446808D02*
X153621413Y-85446808D01*
X153621413Y-85446808D02*
X153742365Y-85507285D01*
X153742365Y-85507285D02*
X153802842Y-85567761D01*
X153802842Y-85567761D02*
X153863318Y-85688713D01*
X153863318Y-85688713D02*
X153863318Y-86051570D01*
X153863318Y-86051570D02*
X153802842Y-86172523D01*
X153802842Y-86172523D02*
X153742365Y-86232999D01*
X152593318Y-129775856D02*
X153500461Y-129775856D01*
X153500461Y-129775856D02*
X153681889Y-129836333D01*
X153681889Y-129836333D02*
X153802842Y-129957285D01*
X153802842Y-129957285D02*
X153863318Y-130138714D01*
X153863318Y-130138714D02*
X153863318Y-130259666D01*
X153863318Y-128505856D02*
X153863318Y-129231571D01*
X153863318Y-128868714D02*
X152593318Y-128868714D01*
X152593318Y-128868714D02*
X152774746Y-128989666D01*
X152774746Y-128989666D02*
X152895699Y-129110618D01*
X152895699Y-129110618D02*
X152956175Y-129231571D01*
X153863318Y-127296332D02*
X153863318Y-128022047D01*
X153863318Y-127659190D02*
X152593318Y-127659190D01*
X152593318Y-127659190D02*
X152774746Y-127780142D01*
X152774746Y-127780142D02*
X152895699Y-127901094D01*
X152895699Y-127901094D02*
X152956175Y-128022047D01*
X153137603Y-126570618D02*
X153077127Y-126691570D01*
X153077127Y-126691570D02*
X153016651Y-126752047D01*
X153016651Y-126752047D02*
X152895699Y-126812523D01*
X152895699Y-126812523D02*
X152835222Y-126812523D01*
X152835222Y-126812523D02*
X152714270Y-126752047D01*
X152714270Y-126752047D02*
X152653794Y-126691570D01*
X152653794Y-126691570D02*
X152593318Y-126570618D01*
X152593318Y-126570618D02*
X152593318Y-126328713D01*
X152593318Y-126328713D02*
X152653794Y-126207761D01*
X152653794Y-126207761D02*
X152714270Y-126147285D01*
X152714270Y-126147285D02*
X152835222Y-126086808D01*
X152835222Y-126086808D02*
X152895699Y-126086808D01*
X152895699Y-126086808D02*
X153016651Y-126147285D01*
X153016651Y-126147285D02*
X153077127Y-126207761D01*
X153077127Y-126207761D02*
X153137603Y-126328713D01*
X153137603Y-126328713D02*
X153137603Y-126570618D01*
X153137603Y-126570618D02*
X153198080Y-126691570D01*
X153198080Y-126691570D02*
X153258556Y-126752047D01*
X153258556Y-126752047D02*
X153379508Y-126812523D01*
X153379508Y-126812523D02*
X153621413Y-126812523D01*
X153621413Y-126812523D02*
X153742365Y-126752047D01*
X153742365Y-126752047D02*
X153802842Y-126691570D01*
X153802842Y-126691570D02*
X153863318Y-126570618D01*
X153863318Y-126570618D02*
X153863318Y-126328713D01*
X153863318Y-126328713D02*
X153802842Y-126207761D01*
X153802842Y-126207761D02*
X153742365Y-126147285D01*
X153742365Y-126147285D02*
X153621413Y-126086808D01*
X153621413Y-126086808D02*
X153379508Y-126086808D01*
X153379508Y-126086808D02*
X153258556Y-126147285D01*
X153258556Y-126147285D02*
X153198080Y-126207761D01*
X153198080Y-126207761D02*
X153137603Y-126328713D01*
D18*
X173959044Y-134024937D02*
X172959044Y-134024937D01*
X172959044Y-134024937D02*
X172959044Y-133786842D01*
X172959044Y-133786842D02*
X173006663Y-133643985D01*
X173006663Y-133643985D02*
X173101901Y-133548747D01*
X173101901Y-133548747D02*
X173197139Y-133501128D01*
X173197139Y-133501128D02*
X173387615Y-133453509D01*
X173387615Y-133453509D02*
X173530472Y-133453509D01*
X173530472Y-133453509D02*
X173720948Y-133501128D01*
X173720948Y-133501128D02*
X173816186Y-133548747D01*
X173816186Y-133548747D02*
X173911425Y-133643985D01*
X173911425Y-133643985D02*
X173959044Y-133786842D01*
X173959044Y-133786842D02*
X173959044Y-134024937D01*
X173959044Y-132501128D02*
X173959044Y-133072556D01*
X173959044Y-132786842D02*
X172959044Y-132786842D01*
X172959044Y-132786842D02*
X173101901Y-132882080D01*
X173101901Y-132882080D02*
X173197139Y-132977318D01*
X173197139Y-132977318D02*
X173244758Y-133072556D01*
X172959044Y-131882080D02*
X172959044Y-131786842D01*
X172959044Y-131786842D02*
X173006663Y-131691604D01*
X173006663Y-131691604D02*
X173054282Y-131643985D01*
X173054282Y-131643985D02*
X173149520Y-131596366D01*
X173149520Y-131596366D02*
X173339996Y-131548747D01*
X173339996Y-131548747D02*
X173578091Y-131548747D01*
X173578091Y-131548747D02*
X173768567Y-131596366D01*
X173768567Y-131596366D02*
X173863805Y-131643985D01*
X173863805Y-131643985D02*
X173911425Y-131691604D01*
X173911425Y-131691604D02*
X173959044Y-131786842D01*
X173959044Y-131786842D02*
X173959044Y-131882080D01*
X173959044Y-131882080D02*
X173911425Y-131977318D01*
X173911425Y-131977318D02*
X173863805Y-132024937D01*
X173863805Y-132024937D02*
X173768567Y-132072556D01*
X173768567Y-132072556D02*
X173578091Y-132120175D01*
X173578091Y-132120175D02*
X173339996Y-132120175D01*
X173339996Y-132120175D02*
X173149520Y-132072556D01*
X173149520Y-132072556D02*
X173054282Y-132024937D01*
X173054282Y-132024937D02*
X173006663Y-131977318D01*
X173006663Y-131977318D02*
X172959044Y-131882080D01*
X172959044Y-130643985D02*
X172959044Y-131120175D01*
X172959044Y-131120175D02*
X173435234Y-131167794D01*
X173435234Y-131167794D02*
X173387615Y-131120175D01*
X173387615Y-131120175D02*
X173339996Y-131024937D01*
X173339996Y-131024937D02*
X173339996Y-130786842D01*
X173339996Y-130786842D02*
X173387615Y-130691604D01*
X173387615Y-130691604D02*
X173435234Y-130643985D01*
X173435234Y-130643985D02*
X173530472Y-130596366D01*
X173530472Y-130596366D02*
X173768567Y-130596366D01*
X173768567Y-130596366D02*
X173863805Y-130643985D01*
X173863805Y-130643985D02*
X173911425Y-130691604D01*
X173911425Y-130691604D02*
X173959044Y-130786842D01*
X173959044Y-130786842D02*
X173959044Y-131024937D01*
X173959044Y-131024937D02*
X173911425Y-131120175D01*
X173911425Y-131120175D02*
X173863805Y-131167794D01*
X173603044Y-116616937D02*
X172603044Y-116616937D01*
X172603044Y-116616937D02*
X172603044Y-116378842D01*
X172603044Y-116378842D02*
X172650663Y-116235985D01*
X172650663Y-116235985D02*
X172745901Y-116140747D01*
X172745901Y-116140747D02*
X172841139Y-116093128D01*
X172841139Y-116093128D02*
X173031615Y-116045509D01*
X173031615Y-116045509D02*
X173174472Y-116045509D01*
X173174472Y-116045509D02*
X173364948Y-116093128D01*
X173364948Y-116093128D02*
X173460186Y-116140747D01*
X173460186Y-116140747D02*
X173555425Y-116235985D01*
X173555425Y-116235985D02*
X173603044Y-116378842D01*
X173603044Y-116378842D02*
X173603044Y-116616937D01*
X173603044Y-115093128D02*
X173603044Y-115664556D01*
X173603044Y-115378842D02*
X172603044Y-115378842D01*
X172603044Y-115378842D02*
X172745901Y-115474080D01*
X172745901Y-115474080D02*
X172841139Y-115569318D01*
X172841139Y-115569318D02*
X172888758Y-115664556D01*
X172603044Y-114474080D02*
X172603044Y-114378842D01*
X172603044Y-114378842D02*
X172650663Y-114283604D01*
X172650663Y-114283604D02*
X172698282Y-114235985D01*
X172698282Y-114235985D02*
X172793520Y-114188366D01*
X172793520Y-114188366D02*
X172983996Y-114140747D01*
X172983996Y-114140747D02*
X173222091Y-114140747D01*
X173222091Y-114140747D02*
X173412567Y-114188366D01*
X173412567Y-114188366D02*
X173507805Y-114235985D01*
X173507805Y-114235985D02*
X173555425Y-114283604D01*
X173555425Y-114283604D02*
X173603044Y-114378842D01*
X173603044Y-114378842D02*
X173603044Y-114474080D01*
X173603044Y-114474080D02*
X173555425Y-114569318D01*
X173555425Y-114569318D02*
X173507805Y-114616937D01*
X173507805Y-114616937D02*
X173412567Y-114664556D01*
X173412567Y-114664556D02*
X173222091Y-114712175D01*
X173222091Y-114712175D02*
X172983996Y-114712175D01*
X172983996Y-114712175D02*
X172793520Y-114664556D01*
X172793520Y-114664556D02*
X172698282Y-114616937D01*
X172698282Y-114616937D02*
X172650663Y-114569318D01*
X172650663Y-114569318D02*
X172603044Y-114474080D01*
X172603044Y-113283604D02*
X172603044Y-113474080D01*
X172603044Y-113474080D02*
X172650663Y-113569318D01*
X172650663Y-113569318D02*
X172698282Y-113616937D01*
X172698282Y-113616937D02*
X172841139Y-113712175D01*
X172841139Y-113712175D02*
X173031615Y-113759794D01*
X173031615Y-113759794D02*
X173412567Y-113759794D01*
X173412567Y-113759794D02*
X173507805Y-113712175D01*
X173507805Y-113712175D02*
X173555425Y-113664556D01*
X173555425Y-113664556D02*
X173603044Y-113569318D01*
X173603044Y-113569318D02*
X173603044Y-113378842D01*
X173603044Y-113378842D02*
X173555425Y-113283604D01*
X173555425Y-113283604D02*
X173507805Y-113235985D01*
X173507805Y-113235985D02*
X173412567Y-113188366D01*
X173412567Y-113188366D02*
X173174472Y-113188366D01*
X173174472Y-113188366D02*
X173079234Y-113235985D01*
X173079234Y-113235985D02*
X173031615Y-113283604D01*
X173031615Y-113283604D02*
X172983996Y-113378842D01*
X172983996Y-113378842D02*
X172983996Y-113569318D01*
X172983996Y-113569318D02*
X173031615Y-113664556D01*
X173031615Y-113664556D02*
X173079234Y-113712175D01*
X173079234Y-113712175D02*
X173174472Y-113759794D01*
X171183650Y-112658201D02*
X171183650Y-111658201D01*
X171183650Y-111658201D02*
X171421745Y-111658201D01*
X171421745Y-111658201D02*
X171564602Y-111705820D01*
X171564602Y-111705820D02*
X171659840Y-111801058D01*
X171659840Y-111801058D02*
X171707459Y-111896296D01*
X171707459Y-111896296D02*
X171755078Y-112086772D01*
X171755078Y-112086772D02*
X171755078Y-112229629D01*
X171755078Y-112229629D02*
X171707459Y-112420105D01*
X171707459Y-112420105D02*
X171659840Y-112515343D01*
X171659840Y-112515343D02*
X171564602Y-112610582D01*
X171564602Y-112610582D02*
X171421745Y-112658201D01*
X171421745Y-112658201D02*
X171183650Y-112658201D01*
X172707459Y-112658201D02*
X172136031Y-112658201D01*
X172421745Y-112658201D02*
X172421745Y-111658201D01*
X172421745Y-111658201D02*
X172326507Y-111801058D01*
X172326507Y-111801058D02*
X172231269Y-111896296D01*
X172231269Y-111896296D02*
X172136031Y-111943915D01*
X173326507Y-111658201D02*
X173421745Y-111658201D01*
X173421745Y-111658201D02*
X173516983Y-111705820D01*
X173516983Y-111705820D02*
X173564602Y-111753439D01*
X173564602Y-111753439D02*
X173612221Y-111848677D01*
X173612221Y-111848677D02*
X173659840Y-112039153D01*
X173659840Y-112039153D02*
X173659840Y-112277248D01*
X173659840Y-112277248D02*
X173612221Y-112467724D01*
X173612221Y-112467724D02*
X173564602Y-112562962D01*
X173564602Y-112562962D02*
X173516983Y-112610582D01*
X173516983Y-112610582D02*
X173421745Y-112658201D01*
X173421745Y-112658201D02*
X173326507Y-112658201D01*
X173326507Y-112658201D02*
X173231269Y-112610582D01*
X173231269Y-112610582D02*
X173183650Y-112562962D01*
X173183650Y-112562962D02*
X173136031Y-112467724D01*
X173136031Y-112467724D02*
X173088412Y-112277248D01*
X173088412Y-112277248D02*
X173088412Y-112039153D01*
X173088412Y-112039153D02*
X173136031Y-111848677D01*
X173136031Y-111848677D02*
X173183650Y-111753439D01*
X173183650Y-111753439D02*
X173231269Y-111705820D01*
X173231269Y-111705820D02*
X173326507Y-111658201D01*
X174612221Y-112658201D02*
X174040793Y-112658201D01*
X174326507Y-112658201D02*
X174326507Y-111658201D01*
X174326507Y-111658201D02*
X174231269Y-111801058D01*
X174231269Y-111801058D02*
X174136031Y-111896296D01*
X174136031Y-111896296D02*
X174040793Y-111943915D01*
X166987749Y-89736281D02*
X166987749Y-88736281D01*
X166987749Y-88736281D02*
X167225844Y-88736281D01*
X167225844Y-88736281D02*
X167368701Y-88783900D01*
X167368701Y-88783900D02*
X167463939Y-88879138D01*
X167463939Y-88879138D02*
X167511558Y-88974376D01*
X167511558Y-88974376D02*
X167559177Y-89164852D01*
X167559177Y-89164852D02*
X167559177Y-89307709D01*
X167559177Y-89307709D02*
X167511558Y-89498185D01*
X167511558Y-89498185D02*
X167463939Y-89593423D01*
X167463939Y-89593423D02*
X167368701Y-89688662D01*
X167368701Y-89688662D02*
X167225844Y-89736281D01*
X167225844Y-89736281D02*
X166987749Y-89736281D01*
X168511558Y-89736281D02*
X167940130Y-89736281D01*
X168225844Y-89736281D02*
X168225844Y-88736281D01*
X168225844Y-88736281D02*
X168130606Y-88879138D01*
X168130606Y-88879138D02*
X168035368Y-88974376D01*
X168035368Y-88974376D02*
X167940130Y-89021995D01*
X169130606Y-88736281D02*
X169225844Y-88736281D01*
X169225844Y-88736281D02*
X169321082Y-88783900D01*
X169321082Y-88783900D02*
X169368701Y-88831519D01*
X169368701Y-88831519D02*
X169416320Y-88926757D01*
X169416320Y-88926757D02*
X169463939Y-89117233D01*
X169463939Y-89117233D02*
X169463939Y-89355328D01*
X169463939Y-89355328D02*
X169416320Y-89545804D01*
X169416320Y-89545804D02*
X169368701Y-89641042D01*
X169368701Y-89641042D02*
X169321082Y-89688662D01*
X169321082Y-89688662D02*
X169225844Y-89736281D01*
X169225844Y-89736281D02*
X169130606Y-89736281D01*
X169130606Y-89736281D02*
X169035368Y-89688662D01*
X169035368Y-89688662D02*
X168987749Y-89641042D01*
X168987749Y-89641042D02*
X168940130Y-89545804D01*
X168940130Y-89545804D02*
X168892511Y-89355328D01*
X168892511Y-89355328D02*
X168892511Y-89117233D01*
X168892511Y-89117233D02*
X168940130Y-88926757D01*
X168940130Y-88926757D02*
X168987749Y-88831519D01*
X168987749Y-88831519D02*
X169035368Y-88783900D01*
X169035368Y-88783900D02*
X169130606Y-88736281D01*
X170321082Y-89069614D02*
X170321082Y-89736281D01*
X170082987Y-88688662D02*
X169844892Y-89402947D01*
X169844892Y-89402947D02*
X170463939Y-89402947D01*
X174086044Y-105195937D02*
X173086044Y-105195937D01*
X173086044Y-105195937D02*
X173086044Y-104957842D01*
X173086044Y-104957842D02*
X173133663Y-104814985D01*
X173133663Y-104814985D02*
X173228901Y-104719747D01*
X173228901Y-104719747D02*
X173324139Y-104672128D01*
X173324139Y-104672128D02*
X173514615Y-104624509D01*
X173514615Y-104624509D02*
X173657472Y-104624509D01*
X173657472Y-104624509D02*
X173847948Y-104672128D01*
X173847948Y-104672128D02*
X173943186Y-104719747D01*
X173943186Y-104719747D02*
X174038425Y-104814985D01*
X174038425Y-104814985D02*
X174086044Y-104957842D01*
X174086044Y-104957842D02*
X174086044Y-105195937D01*
X174086044Y-103672128D02*
X174086044Y-104243556D01*
X174086044Y-103957842D02*
X173086044Y-103957842D01*
X173086044Y-103957842D02*
X173228901Y-104053080D01*
X173228901Y-104053080D02*
X173324139Y-104148318D01*
X173324139Y-104148318D02*
X173371758Y-104243556D01*
X173086044Y-103053080D02*
X173086044Y-102957842D01*
X173086044Y-102957842D02*
X173133663Y-102862604D01*
X173133663Y-102862604D02*
X173181282Y-102814985D01*
X173181282Y-102814985D02*
X173276520Y-102767366D01*
X173276520Y-102767366D02*
X173466996Y-102719747D01*
X173466996Y-102719747D02*
X173705091Y-102719747D01*
X173705091Y-102719747D02*
X173895567Y-102767366D01*
X173895567Y-102767366D02*
X173990805Y-102814985D01*
X173990805Y-102814985D02*
X174038425Y-102862604D01*
X174038425Y-102862604D02*
X174086044Y-102957842D01*
X174086044Y-102957842D02*
X174086044Y-103053080D01*
X174086044Y-103053080D02*
X174038425Y-103148318D01*
X174038425Y-103148318D02*
X173990805Y-103195937D01*
X173990805Y-103195937D02*
X173895567Y-103243556D01*
X173895567Y-103243556D02*
X173705091Y-103291175D01*
X173705091Y-103291175D02*
X173466996Y-103291175D01*
X173466996Y-103291175D02*
X173276520Y-103243556D01*
X173276520Y-103243556D02*
X173181282Y-103195937D01*
X173181282Y-103195937D02*
X173133663Y-103148318D01*
X173133663Y-103148318D02*
X173086044Y-103053080D01*
X173514615Y-102148318D02*
X173466996Y-102243556D01*
X173466996Y-102243556D02*
X173419377Y-102291175D01*
X173419377Y-102291175D02*
X173324139Y-102338794D01*
X173324139Y-102338794D02*
X173276520Y-102338794D01*
X173276520Y-102338794D02*
X173181282Y-102291175D01*
X173181282Y-102291175D02*
X173133663Y-102243556D01*
X173133663Y-102243556D02*
X173086044Y-102148318D01*
X173086044Y-102148318D02*
X173086044Y-101957842D01*
X173086044Y-101957842D02*
X173133663Y-101862604D01*
X173133663Y-101862604D02*
X173181282Y-101814985D01*
X173181282Y-101814985D02*
X173276520Y-101767366D01*
X173276520Y-101767366D02*
X173324139Y-101767366D01*
X173324139Y-101767366D02*
X173419377Y-101814985D01*
X173419377Y-101814985D02*
X173466996Y-101862604D01*
X173466996Y-101862604D02*
X173514615Y-101957842D01*
X173514615Y-101957842D02*
X173514615Y-102148318D01*
X173514615Y-102148318D02*
X173562234Y-102243556D01*
X173562234Y-102243556D02*
X173609853Y-102291175D01*
X173609853Y-102291175D02*
X173705091Y-102338794D01*
X173705091Y-102338794D02*
X173895567Y-102338794D01*
X173895567Y-102338794D02*
X173990805Y-102291175D01*
X173990805Y-102291175D02*
X174038425Y-102243556D01*
X174038425Y-102243556D02*
X174086044Y-102148318D01*
X174086044Y-102148318D02*
X174086044Y-101957842D01*
X174086044Y-101957842D02*
X174038425Y-101862604D01*
X174038425Y-101862604D02*
X173990805Y-101814985D01*
X173990805Y-101814985D02*
X173895567Y-101767366D01*
X173895567Y-101767366D02*
X173705091Y-101767366D01*
X173705091Y-101767366D02*
X173609853Y-101814985D01*
X173609853Y-101814985D02*
X173562234Y-101862604D01*
X173562234Y-101862604D02*
X173514615Y-101957842D01*
D17*
X167214211Y-104884318D02*
X168121354Y-104884318D01*
X168121354Y-104884318D02*
X168302782Y-104944795D01*
X168302782Y-104944795D02*
X168423735Y-105065747D01*
X168423735Y-105065747D02*
X168484211Y-105247176D01*
X168484211Y-105247176D02*
X168484211Y-105368128D01*
X168484211Y-103614318D02*
X168484211Y-104340033D01*
X168484211Y-103977176D02*
X167214211Y-103977176D01*
X167214211Y-103977176D02*
X167395639Y-104098128D01*
X167395639Y-104098128D02*
X167516592Y-104219080D01*
X167516592Y-104219080D02*
X167577068Y-104340033D01*
X168484211Y-102404794D02*
X168484211Y-103130509D01*
X168484211Y-102767652D02*
X167214211Y-102767652D01*
X167214211Y-102767652D02*
X167395639Y-102888604D01*
X167395639Y-102888604D02*
X167516592Y-103009556D01*
X167516592Y-103009556D02*
X167577068Y-103130509D01*
X167758496Y-101679080D02*
X167698020Y-101800032D01*
X167698020Y-101800032D02*
X167637544Y-101860509D01*
X167637544Y-101860509D02*
X167516592Y-101920985D01*
X167516592Y-101920985D02*
X167456115Y-101920985D01*
X167456115Y-101920985D02*
X167335163Y-101860509D01*
X167335163Y-101860509D02*
X167274687Y-101800032D01*
X167274687Y-101800032D02*
X167214211Y-101679080D01*
X167214211Y-101679080D02*
X167214211Y-101437175D01*
X167214211Y-101437175D02*
X167274687Y-101316223D01*
X167274687Y-101316223D02*
X167335163Y-101255747D01*
X167335163Y-101255747D02*
X167456115Y-101195270D01*
X167456115Y-101195270D02*
X167516592Y-101195270D01*
X167516592Y-101195270D02*
X167637544Y-101255747D01*
X167637544Y-101255747D02*
X167698020Y-101316223D01*
X167698020Y-101316223D02*
X167758496Y-101437175D01*
X167758496Y-101437175D02*
X167758496Y-101679080D01*
X167758496Y-101679080D02*
X167818973Y-101800032D01*
X167818973Y-101800032D02*
X167879449Y-101860509D01*
X167879449Y-101860509D02*
X168000401Y-101920985D01*
X168000401Y-101920985D02*
X168242306Y-101920985D01*
X168242306Y-101920985D02*
X168363258Y-101860509D01*
X168363258Y-101860509D02*
X168423735Y-101800032D01*
X168423735Y-101800032D02*
X168484211Y-101679080D01*
X168484211Y-101679080D02*
X168484211Y-101437175D01*
X168484211Y-101437175D02*
X168423735Y-101316223D01*
X168423735Y-101316223D02*
X168363258Y-101255747D01*
X168363258Y-101255747D02*
X168242306Y-101195270D01*
X168242306Y-101195270D02*
X168000401Y-101195270D01*
X168000401Y-101195270D02*
X167879449Y-101255747D01*
X167879449Y-101255747D02*
X167818973Y-101316223D01*
X167818973Y-101316223D02*
X167758496Y-101437175D01*
D18*
X173197044Y-87034937D02*
X172197044Y-87034937D01*
X172197044Y-87034937D02*
X172197044Y-86796842D01*
X172197044Y-86796842D02*
X172244663Y-86653985D01*
X172244663Y-86653985D02*
X172339901Y-86558747D01*
X172339901Y-86558747D02*
X172435139Y-86511128D01*
X172435139Y-86511128D02*
X172625615Y-86463509D01*
X172625615Y-86463509D02*
X172768472Y-86463509D01*
X172768472Y-86463509D02*
X172958948Y-86511128D01*
X172958948Y-86511128D02*
X173054186Y-86558747D01*
X173054186Y-86558747D02*
X173149425Y-86653985D01*
X173149425Y-86653985D02*
X173197044Y-86796842D01*
X173197044Y-86796842D02*
X173197044Y-87034937D01*
X173197044Y-85511128D02*
X173197044Y-86082556D01*
X173197044Y-85796842D02*
X172197044Y-85796842D01*
X172197044Y-85796842D02*
X172339901Y-85892080D01*
X172339901Y-85892080D02*
X172435139Y-85987318D01*
X172435139Y-85987318D02*
X172482758Y-86082556D01*
X172197044Y-84892080D02*
X172197044Y-84796842D01*
X172197044Y-84796842D02*
X172244663Y-84701604D01*
X172244663Y-84701604D02*
X172292282Y-84653985D01*
X172292282Y-84653985D02*
X172387520Y-84606366D01*
X172387520Y-84606366D02*
X172577996Y-84558747D01*
X172577996Y-84558747D02*
X172816091Y-84558747D01*
X172816091Y-84558747D02*
X173006567Y-84606366D01*
X173006567Y-84606366D02*
X173101805Y-84653985D01*
X173101805Y-84653985D02*
X173149425Y-84701604D01*
X173149425Y-84701604D02*
X173197044Y-84796842D01*
X173197044Y-84796842D02*
X173197044Y-84892080D01*
X173197044Y-84892080D02*
X173149425Y-84987318D01*
X173149425Y-84987318D02*
X173101805Y-85034937D01*
X173101805Y-85034937D02*
X173006567Y-85082556D01*
X173006567Y-85082556D02*
X172816091Y-85130175D01*
X172816091Y-85130175D02*
X172577996Y-85130175D01*
X172577996Y-85130175D02*
X172387520Y-85082556D01*
X172387520Y-85082556D02*
X172292282Y-85034937D01*
X172292282Y-85034937D02*
X172244663Y-84987318D01*
X172244663Y-84987318D02*
X172197044Y-84892080D01*
X172197044Y-84225413D02*
X172197044Y-83558747D01*
X172197044Y-83558747D02*
X173197044Y-83987318D01*
D17*
X172233877Y-120886318D02*
X173141020Y-120886318D01*
X173141020Y-120886318D02*
X173322448Y-120946795D01*
X173322448Y-120946795D02*
X173443401Y-121067747D01*
X173443401Y-121067747D02*
X173503877Y-121249176D01*
X173503877Y-121249176D02*
X173503877Y-121370128D01*
X173503877Y-119616318D02*
X173503877Y-120342033D01*
X173503877Y-119979176D02*
X172233877Y-119979176D01*
X172233877Y-119979176D02*
X172415305Y-120100128D01*
X172415305Y-120100128D02*
X172536258Y-120221080D01*
X172536258Y-120221080D02*
X172596734Y-120342033D01*
X172354829Y-119132509D02*
X172294353Y-119072033D01*
X172294353Y-119072033D02*
X172233877Y-118951080D01*
X172233877Y-118951080D02*
X172233877Y-118648699D01*
X172233877Y-118648699D02*
X172294353Y-118527747D01*
X172294353Y-118527747D02*
X172354829Y-118467271D01*
X172354829Y-118467271D02*
X172475781Y-118406794D01*
X172475781Y-118406794D02*
X172596734Y-118406794D01*
X172596734Y-118406794D02*
X172778162Y-118467271D01*
X172778162Y-118467271D02*
X173503877Y-119192985D01*
X173503877Y-119192985D02*
X173503877Y-118406794D01*
X172233877Y-117620604D02*
X172233877Y-117499651D01*
X172233877Y-117499651D02*
X172294353Y-117378699D01*
X172294353Y-117378699D02*
X172354829Y-117318223D01*
X172354829Y-117318223D02*
X172475781Y-117257747D01*
X172475781Y-117257747D02*
X172717686Y-117197270D01*
X172717686Y-117197270D02*
X173020067Y-117197270D01*
X173020067Y-117197270D02*
X173261972Y-117257747D01*
X173261972Y-117257747D02*
X173382924Y-117318223D01*
X173382924Y-117318223D02*
X173443401Y-117378699D01*
X173443401Y-117378699D02*
X173503877Y-117499651D01*
X173503877Y-117499651D02*
X173503877Y-117620604D01*
X173503877Y-117620604D02*
X173443401Y-117741556D01*
X173443401Y-117741556D02*
X173382924Y-117802032D01*
X173382924Y-117802032D02*
X173261972Y-117862509D01*
X173261972Y-117862509D02*
X173020067Y-117922985D01*
X173020067Y-117922985D02*
X172717686Y-117922985D01*
X172717686Y-117922985D02*
X172475781Y-117862509D01*
X172475781Y-117862509D02*
X172354829Y-117802032D01*
X172354829Y-117802032D02*
X172294353Y-117741556D01*
X172294353Y-117741556D02*
X172233877Y-117620604D01*
D18*
X174086044Y-99734937D02*
X173086044Y-99734937D01*
X173086044Y-99734937D02*
X173086044Y-99496842D01*
X173086044Y-99496842D02*
X173133663Y-99353985D01*
X173133663Y-99353985D02*
X173228901Y-99258747D01*
X173228901Y-99258747D02*
X173324139Y-99211128D01*
X173324139Y-99211128D02*
X173514615Y-99163509D01*
X173514615Y-99163509D02*
X173657472Y-99163509D01*
X173657472Y-99163509D02*
X173847948Y-99211128D01*
X173847948Y-99211128D02*
X173943186Y-99258747D01*
X173943186Y-99258747D02*
X174038425Y-99353985D01*
X174038425Y-99353985D02*
X174086044Y-99496842D01*
X174086044Y-99496842D02*
X174086044Y-99734937D01*
X174086044Y-98211128D02*
X174086044Y-98782556D01*
X174086044Y-98496842D02*
X173086044Y-98496842D01*
X173086044Y-98496842D02*
X173228901Y-98592080D01*
X173228901Y-98592080D02*
X173324139Y-98687318D01*
X173324139Y-98687318D02*
X173371758Y-98782556D01*
X173086044Y-97592080D02*
X173086044Y-97496842D01*
X173086044Y-97496842D02*
X173133663Y-97401604D01*
X173133663Y-97401604D02*
X173181282Y-97353985D01*
X173181282Y-97353985D02*
X173276520Y-97306366D01*
X173276520Y-97306366D02*
X173466996Y-97258747D01*
X173466996Y-97258747D02*
X173705091Y-97258747D01*
X173705091Y-97258747D02*
X173895567Y-97306366D01*
X173895567Y-97306366D02*
X173990805Y-97353985D01*
X173990805Y-97353985D02*
X174038425Y-97401604D01*
X174038425Y-97401604D02*
X174086044Y-97496842D01*
X174086044Y-97496842D02*
X174086044Y-97592080D01*
X174086044Y-97592080D02*
X174038425Y-97687318D01*
X174038425Y-97687318D02*
X173990805Y-97734937D01*
X173990805Y-97734937D02*
X173895567Y-97782556D01*
X173895567Y-97782556D02*
X173705091Y-97830175D01*
X173705091Y-97830175D02*
X173466996Y-97830175D01*
X173466996Y-97830175D02*
X173276520Y-97782556D01*
X173276520Y-97782556D02*
X173181282Y-97734937D01*
X173181282Y-97734937D02*
X173133663Y-97687318D01*
X173133663Y-97687318D02*
X173086044Y-97592080D01*
X173086044Y-96925413D02*
X173086044Y-96306366D01*
X173086044Y-96306366D02*
X173466996Y-96639699D01*
X173466996Y-96639699D02*
X173466996Y-96496842D01*
X173466996Y-96496842D02*
X173514615Y-96401604D01*
X173514615Y-96401604D02*
X173562234Y-96353985D01*
X173562234Y-96353985D02*
X173657472Y-96306366D01*
X173657472Y-96306366D02*
X173895567Y-96306366D01*
X173895567Y-96306366D02*
X173990805Y-96353985D01*
X173990805Y-96353985D02*
X174038425Y-96401604D01*
X174038425Y-96401604D02*
X174086044Y-96496842D01*
X174086044Y-96496842D02*
X174086044Y-96782556D01*
X174086044Y-96782556D02*
X174038425Y-96877794D01*
X174038425Y-96877794D02*
X173990805Y-96925413D01*
X169146749Y-128471281D02*
X169146749Y-127471281D01*
X169146749Y-127471281D02*
X169384844Y-127471281D01*
X169384844Y-127471281D02*
X169527701Y-127518900D01*
X169527701Y-127518900D02*
X169622939Y-127614138D01*
X169622939Y-127614138D02*
X169670558Y-127709376D01*
X169670558Y-127709376D02*
X169718177Y-127899852D01*
X169718177Y-127899852D02*
X169718177Y-128042709D01*
X169718177Y-128042709D02*
X169670558Y-128233185D01*
X169670558Y-128233185D02*
X169622939Y-128328423D01*
X169622939Y-128328423D02*
X169527701Y-128423662D01*
X169527701Y-128423662D02*
X169384844Y-128471281D01*
X169384844Y-128471281D02*
X169146749Y-128471281D01*
X170670558Y-128471281D02*
X170099130Y-128471281D01*
X170384844Y-128471281D02*
X170384844Y-127471281D01*
X170384844Y-127471281D02*
X170289606Y-127614138D01*
X170289606Y-127614138D02*
X170194368Y-127709376D01*
X170194368Y-127709376D02*
X170099130Y-127756995D01*
X171289606Y-127471281D02*
X171384844Y-127471281D01*
X171384844Y-127471281D02*
X171480082Y-127518900D01*
X171480082Y-127518900D02*
X171527701Y-127566519D01*
X171527701Y-127566519D02*
X171575320Y-127661757D01*
X171575320Y-127661757D02*
X171622939Y-127852233D01*
X171622939Y-127852233D02*
X171622939Y-128090328D01*
X171622939Y-128090328D02*
X171575320Y-128280804D01*
X171575320Y-128280804D02*
X171527701Y-128376042D01*
X171527701Y-128376042D02*
X171480082Y-128423662D01*
X171480082Y-128423662D02*
X171384844Y-128471281D01*
X171384844Y-128471281D02*
X171289606Y-128471281D01*
X171289606Y-128471281D02*
X171194368Y-128423662D01*
X171194368Y-128423662D02*
X171146749Y-128376042D01*
X171146749Y-128376042D02*
X171099130Y-128280804D01*
X171099130Y-128280804D02*
X171051511Y-128090328D01*
X171051511Y-128090328D02*
X171051511Y-127852233D01*
X171051511Y-127852233D02*
X171099130Y-127661757D01*
X171099130Y-127661757D02*
X171146749Y-127566519D01*
X171146749Y-127566519D02*
X171194368Y-127518900D01*
X171194368Y-127518900D02*
X171289606Y-127471281D01*
X172003892Y-127566519D02*
X172051511Y-127518900D01*
X172051511Y-127518900D02*
X172146749Y-127471281D01*
X172146749Y-127471281D02*
X172384844Y-127471281D01*
X172384844Y-127471281D02*
X172480082Y-127518900D01*
X172480082Y-127518900D02*
X172527701Y-127566519D01*
X172527701Y-127566519D02*
X172575320Y-127661757D01*
X172575320Y-127661757D02*
X172575320Y-127756995D01*
X172575320Y-127756995D02*
X172527701Y-127899852D01*
X172527701Y-127899852D02*
X171956273Y-128471281D01*
X171956273Y-128471281D02*
X172575320Y-128471281D01*
D17*
X172054543Y-82053318D02*
X172961686Y-82053318D01*
X172961686Y-82053318D02*
X173143114Y-82113795D01*
X173143114Y-82113795D02*
X173264067Y-82234747D01*
X173264067Y-82234747D02*
X173324543Y-82416176D01*
X173324543Y-82416176D02*
X173324543Y-82537128D01*
X173324543Y-80783318D02*
X173324543Y-81509033D01*
X173324543Y-81146176D02*
X172054543Y-81146176D01*
X172054543Y-81146176D02*
X172235971Y-81267128D01*
X172235971Y-81267128D02*
X172356924Y-81388080D01*
X172356924Y-81388080D02*
X172417400Y-81509033D01*
X173324543Y-79573794D02*
X173324543Y-80299509D01*
X173324543Y-79936652D02*
X172054543Y-79936652D01*
X172054543Y-79936652D02*
X172235971Y-80057604D01*
X172235971Y-80057604D02*
X172356924Y-80178556D01*
X172356924Y-80178556D02*
X172417400Y-80299509D01*
X172054543Y-79150461D02*
X172054543Y-78303794D01*
X172054543Y-78303794D02*
X173324543Y-78848080D01*
X167541209Y-136507318D02*
X168448352Y-136507318D01*
X168448352Y-136507318D02*
X168629780Y-136567795D01*
X168629780Y-136567795D02*
X168750733Y-136688747D01*
X168750733Y-136688747D02*
X168811209Y-136870176D01*
X168811209Y-136870176D02*
X168811209Y-136991128D01*
X168811209Y-135237318D02*
X168811209Y-135963033D01*
X168811209Y-135600176D02*
X167541209Y-135600176D01*
X167541209Y-135600176D02*
X167722637Y-135721128D01*
X167722637Y-135721128D02*
X167843590Y-135842080D01*
X167843590Y-135842080D02*
X167904066Y-135963033D01*
X168811209Y-134027794D02*
X168811209Y-134753509D01*
X168811209Y-134390652D02*
X167541209Y-134390652D01*
X167541209Y-134390652D02*
X167722637Y-134511604D01*
X167722637Y-134511604D02*
X167843590Y-134632556D01*
X167843590Y-134632556D02*
X167904066Y-134753509D01*
X168811209Y-133423032D02*
X168811209Y-133181128D01*
X168811209Y-133181128D02*
X168750733Y-133060175D01*
X168750733Y-133060175D02*
X168690256Y-132999699D01*
X168690256Y-132999699D02*
X168508828Y-132878747D01*
X168508828Y-132878747D02*
X168266923Y-132818270D01*
X168266923Y-132818270D02*
X167783113Y-132818270D01*
X167783113Y-132818270D02*
X167662161Y-132878747D01*
X167662161Y-132878747D02*
X167601685Y-132939223D01*
X167601685Y-132939223D02*
X167541209Y-133060175D01*
X167541209Y-133060175D02*
X167541209Y-133302080D01*
X167541209Y-133302080D02*
X167601685Y-133423032D01*
X167601685Y-133423032D02*
X167662161Y-133483509D01*
X167662161Y-133483509D02*
X167783113Y-133543985D01*
X167783113Y-133543985D02*
X168085494Y-133543985D01*
X168085494Y-133543985D02*
X168206447Y-133483509D01*
X168206447Y-133483509D02*
X168266923Y-133423032D01*
X168266923Y-133423032D02*
X168327399Y-133302080D01*
X168327399Y-133302080D02*
X168327399Y-133060175D01*
X168327399Y-133060175D02*
X168266923Y-132939223D01*
X168266923Y-132939223D02*
X168206447Y-132878747D01*
X168206447Y-132878747D02*
X168085494Y-132818270D01*
D18*
X172043939Y-144471642D02*
X172043939Y-143757357D01*
X172043939Y-143757357D02*
X172091558Y-143614500D01*
X172091558Y-143614500D02*
X172186796Y-143519262D01*
X172186796Y-143519262D02*
X172329653Y-143471642D01*
X172329653Y-143471642D02*
X172424891Y-143471642D01*
X171043939Y-143471642D02*
X171615367Y-143471642D01*
X171329653Y-143471642D02*
X171329653Y-144471642D01*
X171329653Y-144471642D02*
X171424891Y-144328785D01*
X171424891Y-144328785D02*
X171520129Y-144233547D01*
X171520129Y-144233547D02*
X171615367Y-144185928D01*
X170662986Y-144376404D02*
X170615367Y-144424023D01*
X170615367Y-144424023D02*
X170520129Y-144471642D01*
X170520129Y-144471642D02*
X170282034Y-144471642D01*
X170282034Y-144471642D02*
X170186796Y-144424023D01*
X170186796Y-144424023D02*
X170139177Y-144376404D01*
X170139177Y-144376404D02*
X170091558Y-144281166D01*
X170091558Y-144281166D02*
X170091558Y-144185928D01*
X170091558Y-144185928D02*
X170139177Y-144043071D01*
X170139177Y-144043071D02*
X170710605Y-143471642D01*
X170710605Y-143471642D02*
X170091558Y-143471642D01*
X169710605Y-144376404D02*
X169662986Y-144424023D01*
X169662986Y-144424023D02*
X169567748Y-144471642D01*
X169567748Y-144471642D02*
X169329653Y-144471642D01*
X169329653Y-144471642D02*
X169234415Y-144424023D01*
X169234415Y-144424023D02*
X169186796Y-144376404D01*
X169186796Y-144376404D02*
X169139177Y-144281166D01*
X169139177Y-144281166D02*
X169139177Y-144185928D01*
X169139177Y-144185928D02*
X169186796Y-144043071D01*
X169186796Y-144043071D02*
X169758224Y-143471642D01*
X169758224Y-143471642D02*
X169139177Y-143471642D01*
D19*
%TO.C,J124*%
X149214000Y-110363000D02*
X149214000Y-100203000D01*
X157364000Y-110363000D02*
X149214000Y-110363000D01*
X149214000Y-100203000D02*
X157364000Y-100203000D01*
X157364000Y-100203000D02*
X157364000Y-110363000D01*
D20*
X153339000Y-111173000D02*
G75*
G03*
X153239000Y-111173000I-50000J0D01*
G01*
X153239000Y-111173000D02*
G75*
G03*
X153339000Y-111173000I50000J0D01*
G01*
D21*
%TO.C,R104*%
X145669000Y-86510000D02*
X145669000Y-89120000D01*
X147039000Y-85140000D02*
G75*
G03*
X144299000Y-85140000I-1370000J0D01*
G01*
X144299000Y-85140000D02*
G75*
G03*
X147039000Y-85140000I1370000J0D01*
G01*
D19*
%TO.C,J122*%
X149214000Y-120523000D02*
X149214000Y-110363000D01*
X157364000Y-120523000D02*
X149214000Y-120523000D01*
X149214000Y-110363000D02*
X157364000Y-110363000D01*
X157364000Y-110363000D02*
X157364000Y-120523000D01*
D20*
X153339000Y-121333000D02*
G75*
G03*
X153239000Y-121333000I-50000J0D01*
G01*
X153239000Y-121333000D02*
G75*
G03*
X153339000Y-121333000I50000J0D01*
G01*
D21*
%TO.C,R101*%
X145669000Y-124360000D02*
X145669000Y-121750000D01*
X147039000Y-125730000D02*
G75*
G03*
X144299000Y-125730000I-1370000J0D01*
G01*
X144299000Y-125730000D02*
G75*
G03*
X147039000Y-125730000I1370000J0D01*
G01*
D22*
%TO.C,J126*%
X147955000Y-132756001D02*
X147955000Y-138801201D01*
X147955000Y-138801201D02*
X158369000Y-138801201D01*
X158369000Y-132756001D02*
X147955000Y-132756001D01*
X158369000Y-138801201D02*
X158369000Y-132756001D01*
D15*
X146558000Y-135763000D02*
G75*
G03*
X145796000Y-135763000I-381000J0D01*
G01*
X145796000Y-135763000D02*
G75*
G03*
X146558000Y-135763000I381000J0D01*
G01*
D21*
%TO.C,R102*%
X145669000Y-111987000D02*
X145669000Y-114597000D01*
X147039000Y-110617000D02*
G75*
G03*
X144299000Y-110617000I-1370000J0D01*
G01*
X144299000Y-110617000D02*
G75*
G03*
X147039000Y-110617000I1370000J0D01*
G01*
%TO.C,R103*%
X145669000Y-96747000D02*
X145669000Y-99357000D01*
X147039000Y-95377000D02*
G75*
G03*
X144299000Y-95377000I-1370000J0D01*
G01*
X144299000Y-95377000D02*
G75*
G03*
X147039000Y-95377000I1370000J0D01*
G01*
D19*
%TO.C,J125*%
X149214000Y-100203000D02*
X149214000Y-90043000D01*
X157364000Y-100203000D02*
X149214000Y-100203000D01*
X149214000Y-90043000D02*
X157364000Y-90043000D01*
X157364000Y-90043000D02*
X157364000Y-100203000D01*
D20*
X153339000Y-101013000D02*
G75*
G03*
X153239000Y-101013000I-50000J0D01*
G01*
X153239000Y-101013000D02*
G75*
G03*
X153339000Y-101013000I50000J0D01*
G01*
D19*
%TO.C,J123*%
X149214000Y-90043000D02*
X149214000Y-79883000D01*
X157364000Y-90043000D02*
X149214000Y-90043000D01*
X149214000Y-79883000D02*
X157364000Y-79883000D01*
X157364000Y-79883000D02*
X157364000Y-90043000D01*
D20*
X153339000Y-90853000D02*
G75*
G03*
X153239000Y-90853000I-50000J0D01*
G01*
X153239000Y-90853000D02*
G75*
G03*
X153339000Y-90853000I50000J0D01*
G01*
D19*
%TO.C,J118*%
X149214000Y-130683000D02*
X149214000Y-120523000D01*
X157364000Y-130683000D02*
X149214000Y-130683000D01*
X149214000Y-120523000D02*
X157364000Y-120523000D01*
X157364000Y-120523000D02*
X157364000Y-130683000D01*
D20*
X153339000Y-131493000D02*
G75*
G03*
X153239000Y-131493000I-50000J0D01*
G01*
X153239000Y-131493000D02*
G75*
G03*
X153339000Y-131493000I50000J0D01*
G01*
D21*
%TO.C,JP101*%
X177978225Y-91576462D02*
X178578225Y-91576462D01*
X179278225Y-92276462D02*
X179278225Y-95076462D01*
X177278225Y-95076462D02*
X177278225Y-92276462D01*
X178578225Y-95776462D02*
X177978225Y-95776462D01*
X179278225Y-92276462D02*
G75*
G03*
X178578225Y-91576462I-700001J-1D01*
G01*
X177978225Y-91576462D02*
G75*
G03*
X177278225Y-92276462I1J-700001D01*
G01*
X178578225Y-95776462D02*
G75*
G03*
X179278225Y-95076462I0J700000D01*
G01*
X177278225Y-95076462D02*
G75*
G03*
X177978225Y-95776462I700000J0D01*
G01*
%TO.C,D105*%
X179166856Y-131498613D02*
X179166856Y-129823613D01*
X179166856Y-131498613D02*
X179166856Y-132148613D01*
X176046856Y-131498613D02*
X176046856Y-130848613D01*
X176046856Y-131498613D02*
X176046856Y-132148613D01*
%TO.C,D106*%
X179194225Y-116393462D02*
X179194225Y-114718462D01*
X179194225Y-116393462D02*
X179194225Y-117043462D01*
X176074225Y-116393462D02*
X176074225Y-115743462D01*
X176074225Y-116393462D02*
X176074225Y-117043462D01*
%TO.C,D101*%
X172285225Y-109458462D02*
X172285225Y-107458462D01*
X172285225Y-109458462D02*
X168425225Y-109458462D01*
X172285225Y-107458462D02*
X168425225Y-107458462D01*
%TO.C,D104*%
X166592225Y-91583462D02*
X166592225Y-93583462D01*
X166592225Y-91583462D02*
X170452225Y-91583462D01*
X166592225Y-93583462D02*
X170452225Y-93583462D01*
%TO.C,D108*%
X179194225Y-102108462D02*
X179194225Y-100433462D01*
X179194225Y-102108462D02*
X179194225Y-102758462D01*
X176074225Y-102108462D02*
X176074225Y-101458462D01*
X176074225Y-102108462D02*
X176074225Y-102758462D01*
D19*
%TO.C,J118*%
X174785225Y-95758462D02*
X174785225Y-105918462D01*
X166635225Y-95758462D02*
X174785225Y-95758462D01*
X174785225Y-105918462D02*
X166635225Y-105918462D01*
X166635225Y-105918462D02*
X166635225Y-95758462D01*
D20*
X170760225Y-94948462D02*
G75*
G03*
X170660225Y-94948462I-50000J0D01*
G01*
X170660225Y-94948462D02*
G75*
G03*
X170760225Y-94948462I50000J0D01*
G01*
D21*
%TO.C,D107*%
X179194225Y-85900962D02*
X179194225Y-84225962D01*
X179194225Y-85900962D02*
X179194225Y-86550962D01*
X176074225Y-85900962D02*
X176074225Y-85250962D01*
X176074225Y-85900962D02*
X176074225Y-86550962D01*
D19*
%TO.C,J120*%
X174785225Y-111506462D02*
X174785225Y-121666462D01*
X166635225Y-111506462D02*
X174785225Y-111506462D01*
X174785225Y-121666462D02*
X166635225Y-121666462D01*
X166635225Y-121666462D02*
X166635225Y-111506462D01*
D20*
X170760225Y-110696462D02*
G75*
G03*
X170660225Y-110696462I-50000J0D01*
G01*
X170660225Y-110696462D02*
G75*
G03*
X170760225Y-110696462I50000J0D01*
G01*
D21*
%TO.C,JP103*%
X177978225Y-121976462D02*
X178578225Y-121976462D01*
X179278225Y-122676462D02*
X179278225Y-125476462D01*
X177278225Y-125476462D02*
X177278225Y-122676462D01*
X178578225Y-126176462D02*
X177978225Y-126176462D01*
X179278225Y-122676462D02*
G75*
G03*
X178578225Y-121976462I-700001J-1D01*
G01*
X177978225Y-121976462D02*
G75*
G03*
X177278225Y-122676462I1J-700001D01*
G01*
X178578225Y-126176462D02*
G75*
G03*
X179278225Y-125476462I0J700000D01*
G01*
X177278225Y-125476462D02*
G75*
G03*
X177978225Y-126176462I700000J0D01*
G01*
%TO.C,D103*%
X175841225Y-93583462D02*
X175841225Y-91583462D01*
X175841225Y-93583462D02*
X171981225Y-93583462D01*
X175841225Y-91583462D02*
X171981225Y-91583462D01*
%TO.C,JP102*%
X177978225Y-106726462D02*
X178578225Y-106726462D01*
X179278225Y-107426462D02*
X179278225Y-110226462D01*
X177278225Y-110226462D02*
X177278225Y-107426462D01*
X178578225Y-110926462D02*
X177978225Y-110926462D01*
X179278225Y-107426462D02*
G75*
G03*
X178578225Y-106726462I-700001J-1D01*
G01*
X177978225Y-106726462D02*
G75*
G03*
X177278225Y-107426462I1J-700001D01*
G01*
X178578225Y-110926462D02*
G75*
G03*
X179278225Y-110226462I0J700000D01*
G01*
X177278225Y-110226462D02*
G75*
G03*
X177978225Y-110926462I700000J0D01*
G01*
%TO.C,D102*%
X171904225Y-125079462D02*
X171904225Y-123079462D01*
X171904225Y-125079462D02*
X168044225Y-125079462D01*
X171904225Y-123079462D02*
X168044225Y-123079462D01*
D19*
%TO.C,J117*%
X174785225Y-74930462D02*
X174785225Y-90170462D01*
X166635225Y-74930462D02*
X174785225Y-74930462D01*
X174785225Y-90170462D02*
X166635225Y-90170462D01*
X166635225Y-90170462D02*
X166635225Y-74930462D01*
D20*
X170760225Y-74120462D02*
G75*
G03*
X170660225Y-74120462I-50000J0D01*
G01*
X170660225Y-74120462D02*
G75*
G03*
X170760225Y-74120462I50000J0D01*
G01*
D19*
%TO.C,J119*%
X174785225Y-127254462D02*
X174785225Y-137414462D01*
X166635225Y-127254462D02*
X174785225Y-127254462D01*
X174785225Y-137414462D02*
X166635225Y-137414462D01*
X166635225Y-137414462D02*
X166635225Y-127254462D01*
D20*
X170760225Y-126444462D02*
G75*
G03*
X170660225Y-126444462I-50000J0D01*
G01*
X170660225Y-126444462D02*
G75*
G03*
X170760225Y-126444462I50000J0D01*
G01*
D22*
%TO.C,J122*%
X164140825Y-138659461D02*
X164140825Y-145314261D01*
X164140825Y-145314261D02*
X176891625Y-145314261D01*
X176891625Y-138659461D02*
X164140825Y-138659461D01*
X176891625Y-145314261D02*
X176891625Y-138659461D01*
D15*
X177907625Y-141986462D02*
G75*
G03*
X177145625Y-141986462I-381000J0D01*
G01*
X177145625Y-141986462D02*
G75*
G03*
X177907625Y-141986462I381000J0D01*
G01*
%TD*%
M02*
