M48
; DRILL file {KiCad 7.0.11} date Sun Nov 17 18:12:16 2024
; FORMAT={-:-/ absolute / inch / decimal}
; #@! TF.CreationDate,2024-11-17T18:12:16-05:00
; #@! TF.GenerationSoftware,Kicad,Pcbnew,7.0.11
; #@! TF.FileFunction,Plated,1,2,PTH
FMAT,2
INCH
; #@! TA.AperFunction,Plated,PTH,ViaDrill
T1C0.0118
; #@! TA.AperFunction,Plated,PTH,ViaDrill
T2C0.0138
; #@! TA.AperFunction,Plated,PTH,ViaDrill
T3C0.0157
; #@! TA.AperFunction,Plated,PTH,ComponentDrill
T4C0.0315
; #@! TA.AperFunction,Plated,PTH,ComponentDrill
T5C0.0390
; #@! TA.AperFunction,Plated,PTH,ComponentDrill
T6C0.0512
%
G90
G05
T1
X4.565Y-3.1453
X4.6874Y-3.2086
T2
X4.6326Y-4.2869
T3
X3.1238Y-3.0307
X3.1288Y-4.2407
X3.1288Y-4.4407
X3.1288Y-4.6407
X3.1338Y-4.0407
X3.1388Y-3.2407
X3.1438Y-3.4407
X3.1438Y-3.6407
X3.1438Y-3.8407
X3.1838Y-4.4407
X3.1838Y-4.6407
X3.1888Y-3.0307
X3.1988Y-4.0407
X3.1988Y-4.2407
X3.2038Y-3.4407
X3.2088Y-3.2407
X3.2088Y-3.8407
X3.2138Y-3.6407
X3.2388Y-4.6407
X3.2438Y-4.4407
X3.2588Y-3.0307
X3.2588Y-4.0407
X3.2588Y-4.2407
X3.2688Y-3.4407
X3.2688Y-3.8407
X3.2788Y-3.2407
X3.2788Y-3.6407
X3.5338Y-4.5207
X3.5438Y-4.3407
X3.5838Y-4.3407
X3.5938Y-3.9457
X3.6388Y-3.9457
X3.7669Y-3.9545
X3.8938Y-4.1512
X4.0602Y-4.5469
X4.0622Y-5.1764
X4.0622Y-5.2165
X4.0626Y-5.2575
X4.063Y-3.9496
X4.0657Y-3.3748
X4.3043Y-4.1492
X4.3108Y-4.557
X4.3154Y-3.9835
X4.3181Y-3.6417
X4.3315Y-3.0551
X4.3413Y-3.3886
X4.3443Y-4.8785
X4.3453Y-4.1189
X4.3492Y-4.5563
X4.3508Y-3.9709
X4.3606Y-4.3886
X4.3618Y-3.6276
X4.3622Y-3.1909
X4.3644Y-3.3605
X4.3783Y-3.5906
X4.4024Y-3.2209
X4.4157Y-3.687
X4.4516Y-3.7858
X4.4533Y-3.0559
X4.4622Y-5.0264
X4.5035Y-3.1362
X4.5126Y-4.8929
X4.5157Y-2.9969
X4.5335Y-4.411
X4.5417Y-5.022
X4.5433Y-3.9201
X4.5449Y-4.5024
X4.5492Y-2.7142
X4.5563Y-3.7185
X4.5642Y-4.6799
X4.565Y-3.8496
X4.5669Y-4.1039
X4.5709Y-3.6512
X4.5827Y-4.5803
X4.5836Y-3.3689
X4.5858Y-2.8417
X4.5917Y-3.7858
X4.5945Y-4.2583
X4.5969Y-4.4051
X4.6106Y-4.7839
X4.639Y-4.6775
X4.6537Y-3.1065
X4.6686Y-2.964
X4.6885Y-3.0166
X4.7018Y-2.9094
X4.724Y-3.2488
X4.7906Y-3.626
X4.7906Y-3.6752
X4.8004Y-4.2748
X4.8012Y-4.228
X4.8063Y-4.6539
X4.8398Y-3.0197
X4.8409Y-3.0693
X4.8417Y-4.0665
X4.8472Y-3.4504
X4.8555Y-4.2319
X4.8563Y-3.626
X4.8563Y-3.6736
X4.8563Y-4.2736
X4.8606Y-4.8748
X4.861Y-4.8272
X4.8732Y-2.848
X4.876Y-3.0665
X4.8772Y-3.0197
X4.8917Y-4.874
X4.8921Y-4.8256
T4
X3.3417Y-4.343
X3.3417Y-4.543
X3.3432Y-3.3465
X3.3432Y-3.5465
X3.3432Y-3.9487
X3.3432Y-4.1487
X3.3468Y-2.9442
X3.3468Y-3.1442
T5
X3.4709Y-4.9594
X3.5693Y-4.9594
X3.6677Y-4.9594
X3.7661Y-4.9594
X4.2961Y-5.148
X4.3945Y-5.148
X4.4929Y-5.148
X4.5913Y-5.148
T6
X3.6472Y-2.848
X3.6472Y-3.048
X3.6472Y-3.248
X3.6472Y-3.448
X3.6472Y-3.648
X3.6472Y-3.848
X3.6472Y-4.048
X3.6472Y-4.248
X3.6472Y-4.448
X3.6472Y-4.648
X4.2323Y-2.7165
X4.2323Y-2.9165
X4.2323Y-3.1165
X4.2323Y-3.5039
X4.2323Y-3.7039
X4.2323Y-4.0945
X4.2323Y-4.2945
X4.2323Y-4.7008
X4.2323Y-4.9008
M30
