%TF.GenerationSoftware,KiCad,Pcbnew,7.0.11*%
%TF.CreationDate,2024-11-05T15:47:56-05:00*%
%TF.ProjectId,14.X.4 - PMOS - PLC Connector Combined,31342e58-2e34-4202-9d20-504d4f53202d,rev?*%
%TF.SameCoordinates,Original*%
%TF.FileFunction,Copper,L1,Top*%
%TF.FilePolarity,Positive*%
%FSLAX46Y46*%
G04 Gerber Fmt 4.6, Leading zero omitted, Abs format (unit mm)*
G04 Created by KiCad (PCBNEW 7.0.11) date 2024-11-05 15:47:56*
%MOMM*%
%LPD*%
G01*
G04 APERTURE LIST*
G04 Aperture macros list*
%AMRoundRect*
0 Rectangle with rounded corners*
0 $1 Rounding radius*
0 $2 $3 $4 $5 $6 $7 $8 $9 X,Y pos of 4 corners*
0 Add a 4 corners polygon primitive as box body*
4,1,4,$2,$3,$4,$5,$6,$7,$8,$9,$2,$3,0*
0 Add four circle primitives for the rounded corners*
1,1,$1+$1,$2,$3*
1,1,$1+$1,$4,$5*
1,1,$1+$1,$6,$7*
1,1,$1+$1,$8,$9*
0 Add four rect primitives between the rounded corners*
20,1,$1+$1,$2,$3,$4,$5,0*
20,1,$1+$1,$4,$5,$6,$7,0*
20,1,$1+$1,$6,$7,$8,$9,0*
20,1,$1+$1,$8,$9,$2,$3,0*%
G04 Aperture macros list end*
%TA.AperFunction,SMDPad,CuDef*%
%ADD10RoundRect,0.218750X0.256250X-0.218750X0.256250X0.218750X-0.256250X0.218750X-0.256250X-0.218750X0*%
%TD*%
%TA.AperFunction,SMDPad,CuDef*%
%ADD11RoundRect,0.200000X0.200000X0.275000X-0.200000X0.275000X-0.200000X-0.275000X0.200000X-0.275000X0*%
%TD*%
%TA.AperFunction,SMDPad,CuDef*%
%ADD12RoundRect,0.200000X-0.200000X-0.275000X0.200000X-0.275000X0.200000X0.275000X-0.200000X0.275000X0*%
%TD*%
%TA.AperFunction,SMDPad,CuDef*%
%ADD13RoundRect,0.200000X0.275000X-0.200000X0.275000X0.200000X-0.275000X0.200000X-0.275000X-0.200000X0*%
%TD*%
%TA.AperFunction,SMDPad,CuDef*%
%ADD14RoundRect,0.200000X-0.275000X0.200000X-0.275000X-0.200000X0.275000X-0.200000X0.275000X0.200000X0*%
%TD*%
%TA.AperFunction,SMDPad,CuDef*%
%ADD15RoundRect,0.150000X-0.150000X0.587500X-0.150000X-0.587500X0.150000X-0.587500X0.150000X0.587500X0*%
%TD*%
%TA.AperFunction,SMDPad,CuDef*%
%ADD16RoundRect,0.250000X0.300000X-0.300000X0.300000X0.300000X-0.300000X0.300000X-0.300000X-0.300000X0*%
%TD*%
%TA.AperFunction,SMDPad,CuDef*%
%ADD17RoundRect,0.150000X0.587500X0.150000X-0.587500X0.150000X-0.587500X-0.150000X0.587500X-0.150000X0*%
%TD*%
%TA.AperFunction,ComponentPad*%
%ADD18C,1.950000*%
%TD*%
%TA.AperFunction,ComponentPad*%
%ADD19R,1.950000X1.950000*%
%TD*%
%TA.AperFunction,SMDPad,CuDef*%
%ADD20RoundRect,0.572500X-3.045750X-0.572500X3.045750X-0.572500X3.045750X0.572500X-3.045750X0.572500X0*%
%TD*%
%TA.AperFunction,SMDPad,CuDef*%
%ADD21R,2.200000X3.500000*%
%TD*%
%TA.AperFunction,SMDPad,CuDef*%
%ADD22R,2.200000X1.200000*%
%TD*%
%TA.AperFunction,SMDPad,CuDef*%
%ADD23RoundRect,0.250000X-0.650000X1.000000X-0.650000X-1.000000X0.650000X-1.000000X0.650000X1.000000X0*%
%TD*%
%TA.AperFunction,SMDPad,CuDef*%
%ADD24RoundRect,0.250000X-1.000000X-0.650000X1.000000X-0.650000X1.000000X0.650000X-1.000000X0.650000X0*%
%TD*%
%TA.AperFunction,ComponentPad*%
%ADD25C,1.600000*%
%TD*%
%TA.AperFunction,ComponentPad*%
%ADD26O,1.600000X1.600000*%
%TD*%
%TA.AperFunction,ComponentPad*%
%ADD27C,1.498600*%
%TD*%
%TA.AperFunction,ViaPad*%
%ADD28C,0.800000*%
%TD*%
%TA.AperFunction,Conductor*%
%ADD29C,1.143000*%
%TD*%
%TA.AperFunction,Conductor*%
%ADD30C,1.524000*%
%TD*%
%TA.AperFunction,Conductor*%
%ADD31C,0.508000*%
%TD*%
%TA.AperFunction,Conductor*%
%ADD32C,0.762000*%
%TD*%
%TA.AperFunction,Conductor*%
%ADD33C,0.250000*%
%TD*%
%TA.AperFunction,Conductor*%
%ADD34C,1.270000*%
%TD*%
%TA.AperFunction,Conductor*%
%ADD35C,1.016000*%
%TD*%
G04 APERTURE END LIST*
D10*
%TO.P,D4,1,K*%
%TO.N,Net-(D4-K)*%
X119310000Y-105625000D03*
%TO.P,D4,2,A*%
%TO.N,Net-(D4-A)*%
X119310000Y-104050000D03*
%TD*%
D11*
%TO.P,R21,2*%
%TO.N,Net-(Q3-G)*%
X116630000Y-93420000D03*
%TO.P,R21,1*%
%TO.N,Net-(J306-Pin_1)*%
X118280000Y-93420000D03*
%TD*%
D12*
%TO.P,R20,2*%
%TO.N,Net-(D6-K)*%
X118180000Y-95470000D03*
%TO.P,R20,1*%
%TO.N,Net-(R20-Pad1)*%
X116530000Y-95470000D03*
%TD*%
D13*
%TO.P,R19,2*%
%TO.N,Net-(D8-K)*%
X116330000Y-123310000D03*
%TO.P,R19,1*%
%TO.N,Net-(R19-Pad1)*%
X116330000Y-124960000D03*
%TD*%
D12*
%TO.P,R18,2*%
%TO.N,Net-(D7-K)*%
X120065000Y-109310000D03*
%TO.P,R18,1*%
%TO.N,Net-(R18-Pad1)*%
X118415000Y-109310000D03*
%TD*%
%TO.P,R17,1*%
%TO.N,Net-(D5-K)*%
X118425000Y-76360000D03*
%TO.P,R17,2*%
%TO.N,Net-(R1-Pad1)*%
X120075000Y-76360000D03*
%TD*%
D11*
%TO.P,R8,2*%
%TO.N,Net-(Q1-G)*%
X117280000Y-126420000D03*
%TO.P,R8,1*%
%TO.N,Net-(J302-Pin_1)*%
X118930000Y-126420000D03*
%TD*%
D13*
%TO.P,R5,2*%
%TO.N,Net-(Q2-G)*%
X116360000Y-109330000D03*
%TO.P,R5,1*%
%TO.N,Net-(J314-Pin_1)*%
X116360000Y-110980000D03*
%TD*%
D12*
%TO.P,R4,1*%
%TO.N,Net-(J304-Pin_1)*%
X115980000Y-78170000D03*
%TO.P,R4,2*%
%TO.N,Net-(Q4-G)*%
X117630000Y-78170000D03*
%TD*%
D13*
%TO.P,R15,2*%
%TO.N,Net-(Q3-G)*%
X119760000Y-95315000D03*
%TO.P,R15,1*%
%TO.N,GNDPWR*%
X119760000Y-96965000D03*
%TD*%
D11*
%TO.P,R14,2*%
%TO.N,Net-(Q2-G)*%
X118380000Y-110880000D03*
%TO.P,R14,1*%
%TO.N,GNDPWR*%
X120030000Y-110880000D03*
%TD*%
D14*
%TO.P,R13,2*%
%TO.N,GNDPWR*%
X118280000Y-124960000D03*
%TO.P,R13,1*%
%TO.N,Net-(Q1-G)*%
X118280000Y-123310000D03*
%TD*%
D11*
%TO.P,R2,2*%
%TO.N,Net-(Q4-G)*%
X118990000Y-77900000D03*
%TO.P,R2,1*%
%TO.N,GNDPWR*%
X120640000Y-77900000D03*
%TD*%
D15*
%TO.P,Q4,3,D*%
%TO.N,Net-(D5-K)*%
X116030000Y-76380000D03*
%TO.P,Q4,2,S*%
%TO.N,GNDPWR*%
X115080000Y-74505000D03*
%TO.P,Q4,1,G*%
%TO.N,Net-(Q4-G)*%
X116980000Y-74505000D03*
%TD*%
%TO.P,Q3,3,D*%
%TO.N,Net-(D6-K)*%
X116180000Y-91617500D03*
%TO.P,Q3,2,S*%
%TO.N,GNDPWR*%
X115230000Y-89742500D03*
%TO.P,Q3,1,G*%
%TO.N,Net-(Q3-G)*%
X117130000Y-89742500D03*
%TD*%
%TO.P,Q2,3,D*%
%TO.N,Net-(D7-K)*%
X115950000Y-107115000D03*
%TO.P,Q2,2,S*%
%TO.N,GNDPWR*%
X115000000Y-105240000D03*
%TO.P,Q2,1,G*%
%TO.N,Net-(Q2-G)*%
X116900000Y-105240000D03*
%TD*%
%TO.P,Q1,3,D*%
%TO.N,Net-(D8-K)*%
X115930000Y-121575000D03*
%TO.P,Q1,2,S*%
%TO.N,GNDPWR*%
X114980000Y-119700000D03*
%TO.P,Q1,1,G*%
%TO.N,Net-(Q1-G)*%
X116880000Y-119700000D03*
%TD*%
D16*
%TO.P,D8,2,A*%
%TO.N,GNDPWR*%
X112900000Y-119200000D03*
%TO.P,D8,1,K*%
%TO.N,Net-(D8-K)*%
X112900000Y-122000000D03*
%TD*%
%TO.P,D7,2,A*%
%TO.N,GNDPWR*%
X112890000Y-104770000D03*
%TO.P,D7,1,K*%
%TO.N,Net-(D7-K)*%
X112890000Y-107570000D03*
%TD*%
%TO.P,D6,2,A*%
%TO.N,GNDPWR*%
X112930000Y-89667500D03*
%TO.P,D6,1,K*%
%TO.N,Net-(D6-K)*%
X112930000Y-92467500D03*
%TD*%
%TO.P,D5,2,A*%
%TO.N,GNDPWR*%
X112910000Y-74330000D03*
%TO.P,D5,1,K*%
%TO.N,Net-(D5-K)*%
X112910000Y-77130000D03*
%TD*%
D14*
%TO.P,R3,2*%
%TO.N,Net-(J318-Pad1)*%
X110890000Y-84965000D03*
%TO.P,R3,1*%
%TO.N,Net-(R20-Pad1)*%
X110890000Y-83315000D03*
%TD*%
%TO.P,R7,2*%
%TO.N,Net-(J318-Pad1)*%
X110530000Y-114880000D03*
%TO.P,R7,1*%
%TO.N,Net-(R19-Pad1)*%
X110530000Y-113230000D03*
%TD*%
D17*
%TO.P,D307,3*%
%TO.N,Net-(D1-A)*%
X112400000Y-80070000D03*
%TO.P,D307,2*%
%TO.N,GNDPWR*%
X114275000Y-79120000D03*
%TO.P,D307,1*%
X114275000Y-81020000D03*
%TD*%
D18*
%TO.P,J317,2,2*%
%TO.N,GNDPWR*%
X107500000Y-94080000D03*
D19*
%TO.P,J317,1,1*%
%TO.N,Net-(D2-A)*%
X107500000Y-89000000D03*
%TD*%
D20*
%TO.P,J302,1,Pin_1*%
%TO.N,Net-(J302-Pin_1)*%
X128210000Y-118050000D03*
%TD*%
D10*
%TO.P,D3,2,A*%
%TO.N,Net-(D3-A)*%
X119840000Y-119705000D03*
%TO.P,D3,1,K*%
%TO.N,Net-(D3-K)*%
X119840000Y-121280000D03*
%TD*%
D20*
%TO.P,J310,1,Pin_1*%
%TO.N,Net-(J304-Pin_1)*%
X128240000Y-72320000D03*
%TD*%
D21*
%TO.P,U1,4*%
%TO.N,N/C*%
X119270000Y-70050000D03*
D22*
%TO.P,U1,3,3*%
%TO.N,Net-(J318-Pad1)*%
X113070000Y-72350000D03*
%TO.P,U1,2,2*%
%TO.N,Net-(D1-A)*%
X113070000Y-70050000D03*
%TO.P,U1,1,1*%
%TO.N,Net-(R1-Pad1)*%
X113070000Y-67750000D03*
%TD*%
D20*
%TO.P,J210,1,Pin_1*%
%TO.N,Net-(J210-Pin_1)*%
X74278250Y-72187224D03*
%TD*%
D21*
%TO.P,U3,4*%
%TO.N,N/C*%
X119230000Y-100630000D03*
D22*
%TO.P,U3,3,3*%
%TO.N,Net-(J318-Pad1)*%
X113030000Y-102930000D03*
%TO.P,U3,2,2*%
%TO.N,Net-(D4-A)*%
X113030000Y-100630000D03*
%TO.P,U3,1,1*%
%TO.N,Net-(R18-Pad1)*%
X113030000Y-98330000D03*
%TD*%
D20*
%TO.P,J209,1,Pin_1*%
%TO.N,M*%
X74278250Y-77245000D03*
%TD*%
D14*
%TO.P,R6,2*%
%TO.N,Net-(J318-Pad1)*%
X110680000Y-99985000D03*
%TO.P,R6,1*%
%TO.N,Net-(R18-Pad1)*%
X110680000Y-98335000D03*
%TD*%
D23*
%TO.P,D303,1*%
%TO.N,Net-(D3-A)*%
X104400000Y-128862500D03*
%TO.P,D303,2*%
%TO.N,GNDPWR*%
X104400000Y-132862500D03*
%TD*%
D20*
%TO.P,J314,1,Pin_1*%
%TO.N,Net-(J314-Pin_1)*%
X128230000Y-102820000D03*
%TD*%
D17*
%TO.P,D306,3*%
%TO.N,Net-(D4-A)*%
X112695000Y-110180000D03*
%TO.P,D306,2*%
%TO.N,GNDPWR*%
X114570000Y-109230000D03*
%TO.P,D306,1*%
X114570000Y-111130000D03*
%TD*%
D20*
%TO.P,J311,1,Pin_1*%
%TO.N,GNDPWR*%
X128260000Y-92650000D03*
%TD*%
D21*
%TO.P,U4,4*%
%TO.N,N/C*%
X119220000Y-115210000D03*
D22*
%TO.P,U4,3,3*%
%TO.N,Net-(J318-Pad1)*%
X113020000Y-117510000D03*
%TO.P,U4,2,2*%
%TO.N,Net-(D3-A)*%
X113020000Y-115210000D03*
%TO.P,U4,1,1*%
%TO.N,Net-(R19-Pad1)*%
X113020000Y-112910000D03*
%TD*%
D20*
%TO.P,J206,1,Pin_1*%
%TO.N,Net-(J206-Pin_1)*%
X74308250Y-92488334D03*
%TD*%
%TO.P,J306,1,Pin_1*%
%TO.N,Net-(J306-Pin_1)*%
X128180000Y-87590000D03*
%TD*%
%TO.P,J307,1,Pin_1*%
%TO.N,GNDPWR*%
X128230000Y-123140000D03*
%TD*%
D24*
%TO.P,D302,1*%
%TO.N,Net-(D4-A)*%
X104120000Y-113990000D03*
%TO.P,D302,2*%
%TO.N,GNDPWR*%
X108120000Y-113990000D03*
%TD*%
D12*
%TO.P,R12,2*%
%TO.N,GNDPWR*%
X120170000Y-107180000D03*
%TO.P,R12,1*%
%TO.N,Net-(D4-K)*%
X118520000Y-107180000D03*
%TD*%
D20*
%TO.P,J202,1,Pin_1*%
%TO.N,Net-(J202-Pin_1)*%
X74298250Y-112799446D03*
%TD*%
%TO.P,J309,1,Pin_1*%
%TO.N,GNDPWR*%
X128230000Y-77420000D03*
%TD*%
D21*
%TO.P,U2,4*%
%TO.N,N/C*%
X119290000Y-85280000D03*
D22*
%TO.P,U2,3,3*%
%TO.N,Net-(J318-Pad1)*%
X113090000Y-87580000D03*
%TO.P,U2,2,2*%
%TO.N,Net-(D2-A)*%
X113090000Y-85280000D03*
%TO.P,U2,1,1*%
%TO.N,Net-(R20-Pad1)*%
X113090000Y-82980000D03*
%TD*%
D13*
%TO.P,R10,2*%
%TO.N,Net-(D2-K)*%
X119780000Y-92210000D03*
%TO.P,R10,1*%
%TO.N,GNDPWR*%
X119780000Y-93860000D03*
%TD*%
D25*
%TO.P,R204,1*%
%TO.N,M*%
X85008250Y-74782224D03*
D26*
%TO.P,R204,2*%
%TO.N,Net-(J208-Pin_1)*%
X85008250Y-79862224D03*
%TD*%
D19*
%TO.P,J222,1,1*%
%TO.N,Net-(J205-Pin_1)*%
X92640000Y-97740000D03*
D18*
%TO.P,J222,2,2*%
%TO.N,Net-(J206-Pin_1)*%
X92640000Y-92660000D03*
%TD*%
D20*
%TO.P,J203,1,Pin_1*%
%TO.N,Net-(J203-Pin_1)*%
X74308250Y-107721668D03*
%TD*%
D25*
%TO.P,R202,1*%
%TO.N,M*%
X84918250Y-100297224D03*
D26*
%TO.P,R202,2*%
%TO.N,Net-(J202-Pin_1)*%
X84918250Y-105377224D03*
%TD*%
D20*
%TO.P,J315,1,Pin_1*%
%TO.N,GNDPWR*%
X128210000Y-107880000D03*
%TD*%
%TO.P,J208,1,Pin_1*%
%TO.N,Net-(J208-Pin_1)*%
X74298250Y-82342778D03*
%TD*%
D19*
%TO.P,J224,1,1*%
%TO.N,Net-(J201-Pin_1)*%
X92640000Y-118060000D03*
D18*
%TO.P,J224,2,2*%
%TO.N,Net-(J202-Pin_1)*%
X92640000Y-112980000D03*
%TD*%
D19*
%TO.P,J320,1,1*%
%TO.N,Net-(D4-A)*%
X107500000Y-104000000D03*
D18*
%TO.P,J320,2,2*%
%TO.N,GNDPWR*%
X107500000Y-109080000D03*
%TD*%
D24*
%TO.P,D301,1*%
%TO.N,Net-(D2-A)*%
X104160000Y-98860000D03*
%TO.P,D301,2*%
%TO.N,GNDPWR*%
X108160000Y-98860000D03*
%TD*%
D25*
%TO.P,R201,1*%
%TO.N,Net-(J201-Pin_1)*%
X84878250Y-115392224D03*
D26*
%TO.P,R201,2*%
%TO.N,M*%
X84878250Y-110312224D03*
%TD*%
D27*
%TO.P,J226,1,1*%
%TO.N,Net-(J206-Pin_1)*%
X95660000Y-125970000D03*
%TO.P,J226,2,2*%
%TO.N,Net-(J205-Pin_1)*%
X93160000Y-125970000D03*
%TO.P,J226,3,3*%
%TO.N,Net-(J204-Pin_1)*%
X90660000Y-125970000D03*
%TO.P,J226,4,4*%
%TO.N,Net-(J203-Pin_1)*%
X88160000Y-125970000D03*
%TD*%
D20*
%TO.P,J201,1,Pin_1*%
%TO.N,Net-(J201-Pin_1)*%
X74370000Y-117920000D03*
%TD*%
D17*
%TO.P,D308,3*%
%TO.N,Net-(D2-A)*%
X112885000Y-95170000D03*
%TO.P,D308,2*%
%TO.N,GNDPWR*%
X114760000Y-94220000D03*
%TO.P,D308,1*%
X114760000Y-96120000D03*
%TD*%
D13*
%TO.P,R11,2*%
%TO.N,Net-(D3-K)*%
X119810000Y-122695000D03*
%TO.P,R11,1*%
%TO.N,GNDPWR*%
X119810000Y-124345000D03*
%TD*%
D19*
%TO.P,J318,1,1*%
%TO.N,Net-(J318-Pad1)*%
X107500000Y-69000000D03*
D18*
%TO.P,J318,2,2*%
%TO.N,Net-(D1-A)*%
X107500000Y-74080000D03*
%TO.P,J318,3,3*%
%TO.N,GNDPWR*%
X107500000Y-79160000D03*
%TD*%
D13*
%TO.P,R9,2*%
%TO.N,Net-(D1-K)*%
X119850000Y-79385000D03*
%TO.P,R9,1*%
%TO.N,GNDPWR*%
X119850000Y-81035000D03*
%TD*%
D17*
%TO.P,D305,3*%
%TO.N,Net-(D3-A)*%
X112695000Y-125250000D03*
%TO.P,D305,2*%
%TO.N,GNDPWR*%
X114570000Y-124300000D03*
%TO.P,D305,1*%
X114570000Y-126200000D03*
%TD*%
D24*
%TO.P,D309,2*%
%TO.N,GNDPWR*%
X108360000Y-84070000D03*
%TO.P,D309,1*%
%TO.N,Net-(D1-A)*%
X104360000Y-84070000D03*
%TD*%
D25*
%TO.P,R203,1*%
%TO.N,Net-(J207-Pin_1)*%
X84918250Y-85002224D03*
D26*
%TO.P,R203,2*%
%TO.N,M*%
X84918250Y-90082224D03*
%TD*%
D12*
%TO.P,R1,2*%
%TO.N,Net-(J318-Pad1)*%
X117655000Y-79760000D03*
%TO.P,R1,1*%
%TO.N,Net-(R1-Pad1)*%
X116005000Y-79760000D03*
%TD*%
D20*
%TO.P,J204,1,Pin_1*%
%TO.N,Net-(J204-Pin_1)*%
X74298250Y-102653890D03*
%TD*%
%TO.P,J207,1,Pin_1*%
%TO.N,Net-(J207-Pin_1)*%
X74308250Y-87400556D03*
%TD*%
%TO.P,J205,1,Pin_1*%
%TO.N,Net-(J205-Pin_1)*%
X74280000Y-97590000D03*
%TD*%
D19*
%TO.P,J221,1,1*%
%TO.N,Net-(J203-Pin_1)*%
X92640000Y-107900000D03*
D18*
%TO.P,J221,2,2*%
%TO.N,Net-(J204-Pin_1)*%
X92640000Y-102820000D03*
%TD*%
D19*
%TO.P,J223,1,1*%
%TO.N,M*%
X92640000Y-77420000D03*
D18*
%TO.P,J223,2,2*%
%TO.N,Net-(J210-Pin_1)*%
X92640000Y-72340000D03*
%TD*%
D19*
%TO.P,J225,1,1*%
%TO.N,Net-(J207-Pin_1)*%
X92640000Y-87580000D03*
D18*
%TO.P,J225,2,2*%
%TO.N,Net-(J208-Pin_1)*%
X92640000Y-82500000D03*
%TD*%
D10*
%TO.P,D2,2,A*%
%TO.N,Net-(D2-A)*%
X119780000Y-89135000D03*
%TO.P,D2,1,K*%
%TO.N,Net-(D2-K)*%
X119780000Y-90710000D03*
%TD*%
D19*
%TO.P,J319,1,1*%
%TO.N,Net-(D3-A)*%
X107500000Y-119400000D03*
D18*
%TO.P,J319,2,2*%
%TO.N,GNDPWR*%
X107500000Y-124480000D03*
%TD*%
D10*
%TO.P,D1,2,A*%
%TO.N,Net-(D1-A)*%
X119810000Y-73292500D03*
%TO.P,D1,1,K*%
%TO.N,Net-(D1-K)*%
X119810000Y-74867500D03*
%TD*%
D27*
%TO.P,J321,1,1*%
%TO.N,Net-(D1-A)*%
X116620000Y-130760000D03*
%TO.P,J321,2,2*%
%TO.N,Net-(D2-A)*%
X114120000Y-130760000D03*
%TO.P,J321,3,3*%
%TO.N,Net-(D4-A)*%
X111620000Y-130760000D03*
%TO.P,J321,4,4*%
%TO.N,Net-(D3-A)*%
X109120000Y-130760000D03*
%TD*%
D28*
%TO.N,GNDPWR*%
X119290000Y-82330000D03*
%TO.N,Net-(Q2-G)*%
X116000000Y-104240000D03*
X117330000Y-109870000D03*
%TO.N,GNDPWR*%
X111210000Y-91200000D03*
X108500000Y-85840000D03*
X115700000Y-83200000D03*
X110930000Y-81060000D03*
X110760000Y-111470000D03*
X116480000Y-112470000D03*
%TO.N,Net-(J314-Pin_1)*%
X123560000Y-102810000D03*
X117300000Y-111170000D03*
%TO.N,Net-(R18-Pad1)*%
X117538866Y-108811127D03*
X115400000Y-99570000D03*
%TO.N,Net-(J302-Pin_1)*%
X117735152Y-127456659D03*
X122080000Y-118210000D03*
%TO.N,Net-(R19-Pad1)*%
X116130000Y-126310000D03*
X115440000Y-113580000D03*
%TO.N,Net-(J306-Pin_1)*%
X123120000Y-87640000D03*
X118440000Y-91680000D03*
%TO.N,Net-(D6-K)*%
X115204000Y-91617500D03*
X117080000Y-96610000D03*
%TO.N,Net-(R20-Pad1)*%
X111640000Y-82250000D03*
X115540000Y-95160000D03*
%TO.N,Net-(J318-Pad1)*%
X117520000Y-81260000D03*
X110172500Y-85682500D03*
%TO.N,Net-(D1-K)*%
X118489831Y-78995448D03*
X118626054Y-74173045D03*
%TO.N,Net-(R1-Pad1)*%
X118255414Y-75101824D03*
%TO.N,Net-(D5-K)*%
X115270000Y-76380000D03*
X117834000Y-76999130D03*
%TO.N,Net-(R1-Pad1)*%
X115750000Y-80810000D03*
%TO.N,Net-(J304-Pin_1)*%
X124130000Y-72390000D03*
X115260000Y-77880000D03*
%TO.N,Net-(R1-Pad1)*%
X115550000Y-68940000D03*
%TO.N,Net-(J318-Pad1)*%
X109399956Y-87589956D03*
%TO.N,Net-(D1-A)*%
X110020000Y-77600000D03*
%TO.N,Net-(D2-A)*%
X109680000Y-92500000D03*
%TO.N,Net-(D4-A)*%
X110230000Y-108470000D03*
%TO.N,Net-(D3-A)*%
X110270000Y-122850000D03*
%TO.N,Net-(J318-Pad1)*%
X109495236Y-115748011D03*
X108610000Y-101150000D03*
X111110000Y-118010000D03*
X110330000Y-118910000D03*
X110340000Y-103860000D03*
X111150000Y-103140000D03*
X110890000Y-72350000D03*
X109750000Y-72350000D03*
X111757977Y-88787977D03*
X110940000Y-89730000D03*
%TO.N,Net-(D1-A)*%
X103270000Y-85720000D03*
%TO.N,Net-(D2-A)*%
X103200000Y-100320000D03*
%TO.N,Net-(D4-A)*%
X103130000Y-115490000D03*
%TO.N,GNDPWR*%
X122960000Y-77960000D03*
X122930000Y-76700000D03*
X123850000Y-77890000D03*
%TO.N,Net-(J201-Pin_1)*%
X79471250Y-117874224D03*
X80868250Y-117874224D03*
X82265250Y-117874224D03*
%TO.N,Net-(J202-Pin_1)*%
X79471250Y-112794224D03*
X80868250Y-112794224D03*
X82392250Y-112794224D03*
%TO.N,Net-(J203-Pin_1)*%
X79471250Y-107714224D03*
X89758150Y-114826224D03*
X81249250Y-107714224D03*
X82773250Y-107714224D03*
%TO.N,Net-(J204-Pin_1)*%
X81249250Y-102634224D03*
X79598250Y-102634224D03*
X82773250Y-102634224D03*
%TO.N,Net-(J205-Pin_1)*%
X95679002Y-100444402D03*
X79852250Y-97554224D03*
X81503250Y-97554224D03*
X98902250Y-105440000D03*
X83027250Y-97554224D03*
%TO.N,Net-(J206-Pin_1)*%
X83281250Y-92474224D03*
X79852250Y-92474224D03*
X81630248Y-92474224D03*
%TO.N,Net-(J207-Pin_1)*%
X83027250Y-87394224D03*
X81376250Y-87394224D03*
X79852250Y-87394224D03*
%TO.N,Net-(J208-Pin_1)*%
X81503250Y-82314224D03*
X79725250Y-82314224D03*
X83281250Y-82314224D03*
%TO.N,M*%
X82773250Y-76980224D03*
X79344250Y-76980224D03*
X90012252Y-110254224D03*
X91282250Y-100221224D03*
X92425250Y-100221224D03*
X80995250Y-76980224D03*
X91028250Y-110254224D03*
%TO.N,GNDPWR*%
X123880000Y-76700000D03*
X103190000Y-133540000D03*
X123350000Y-93310000D03*
X123470000Y-122610000D03*
X124250000Y-123800000D03*
X123330000Y-107490000D03*
X124260000Y-122570000D03*
X123350000Y-108550000D03*
X121680000Y-92100000D03*
X121930000Y-108580000D03*
X121680000Y-93350000D03*
X103180000Y-132500000D03*
X123460000Y-123820000D03*
X103180000Y-131480000D03*
X123350000Y-92100000D03*
X121950000Y-107390000D03*
%TD*%
D29*
%TO.N,Net-(J318-Pad1)*%
X111060000Y-103140000D02*
X110340000Y-103860000D01*
X111150000Y-103140000D02*
X111060000Y-103140000D01*
D30*
%TO.N,GNDPWR*%
X128230000Y-123140000D02*
X127741490Y-123628510D01*
X127741490Y-123628510D02*
X124250000Y-123628510D01*
X123997490Y-123140000D02*
X123470000Y-122612510D01*
X128230000Y-123140000D02*
X123997490Y-123140000D01*
X128230000Y-123140000D02*
X123948510Y-123140000D01*
X123948510Y-123140000D02*
X123460000Y-123628510D01*
D31*
X127550000Y-123800000D02*
X128220000Y-123130000D01*
X124250000Y-123800000D02*
X127550000Y-123800000D01*
D29*
X124260000Y-122570000D02*
X127660000Y-122570000D01*
X127660000Y-122570000D02*
X128220000Y-123130000D01*
D31*
%TO.N,Net-(J302-Pin_1)*%
X117735152Y-127456659D02*
X117893341Y-127456659D01*
X117893341Y-127456659D02*
X118930000Y-126420000D01*
%TO.N,Net-(D1-K)*%
X118879383Y-79385000D02*
X119320000Y-79385000D01*
X118489831Y-78995448D02*
X118879383Y-79385000D01*
%TO.N,Net-(Q2-G)*%
X116000000Y-104240000D02*
X116000000Y-104340000D01*
X116000000Y-104340000D02*
X116900000Y-105240000D01*
X117330000Y-109810000D02*
X116830000Y-109310000D01*
X117330000Y-109870000D02*
X117330000Y-109810000D01*
X117390000Y-109870000D02*
X117330000Y-109870000D01*
%TO.N,Net-(J318-Pad1)*%
X110172500Y-85682500D02*
X110890000Y-84965000D01*
X109399956Y-87589956D02*
X109399956Y-86455044D01*
X109399956Y-86455044D02*
X110890000Y-84965000D01*
D29*
%TO.N,Net-(D2-A)*%
X112590000Y-85280000D02*
X113090000Y-85280000D01*
X111020000Y-86850000D02*
X112590000Y-85280000D01*
X107500000Y-89000000D02*
X109646665Y-89000000D01*
X109646665Y-89000000D02*
X111020000Y-87626666D01*
X111020000Y-87626666D02*
X111020000Y-86850000D01*
%TO.N,Net-(J318-Pad1)*%
X112965954Y-87580000D02*
X113090000Y-87580000D01*
X110940000Y-89730000D02*
X110940000Y-89605954D01*
X110940000Y-89605954D02*
X112965954Y-87580000D01*
%TO.N,Net-(D2-A)*%
X103440000Y-90890000D02*
X105330000Y-89000000D01*
X103440000Y-98140000D02*
X103440000Y-90890000D01*
X105330000Y-89000000D02*
X107500000Y-89000000D01*
X104160000Y-98860000D02*
X103440000Y-98140000D01*
%TO.N,GNDPWR*%
X123647990Y-77420000D02*
X122930000Y-76702010D01*
X128230000Y-77420000D02*
X123647990Y-77420000D01*
X123500000Y-77420000D02*
X122960000Y-77960000D01*
X128200000Y-77420000D02*
X123500000Y-77420000D01*
X124320000Y-77420000D02*
X123850000Y-77890000D01*
X128200000Y-77420000D02*
X124320000Y-77420000D01*
X128200000Y-77420000D02*
X127482010Y-76702010D01*
X127482010Y-76702010D02*
X123880000Y-76702010D01*
X128260000Y-92680000D02*
X122339010Y-92680000D01*
X122339010Y-92680000D02*
X121680000Y-93339010D01*
X122260000Y-92680000D02*
X121680000Y-92100000D01*
X128260000Y-92680000D02*
X122260000Y-92680000D01*
X123980000Y-92680000D02*
X123350000Y-93310000D01*
X128260000Y-92680000D02*
X123980000Y-92680000D01*
X123900000Y-92650000D02*
X123350000Y-92100000D01*
X128260000Y-92650000D02*
X123900000Y-92650000D01*
D30*
X122398510Y-107920000D02*
X121930000Y-108388510D01*
X128230000Y-107920000D02*
X122398510Y-107920000D01*
X122480000Y-107920000D02*
X121950000Y-107390000D01*
X128230000Y-107920000D02*
X122480000Y-107920000D01*
X123858510Y-107880000D02*
X123350000Y-108388510D01*
X128210000Y-107880000D02*
X123858510Y-107880000D01*
X123720000Y-107880000D02*
X123330000Y-107490000D01*
X128210000Y-107880000D02*
X123720000Y-107880000D01*
D31*
%TO.N,Net-(D2-A)*%
X109680000Y-93620000D02*
X111230000Y-95170000D01*
X109680000Y-92500000D02*
X109680000Y-93620000D01*
X111230000Y-95170000D02*
X112885000Y-95170000D01*
%TO.N,GNDPWR*%
X120355000Y-123800000D02*
X124250000Y-123800000D01*
X119810000Y-124345000D02*
X120355000Y-123800000D01*
X118280000Y-124960000D02*
X119195000Y-124960000D01*
X119195000Y-124960000D02*
X119810000Y-124345000D01*
%TO.N,Net-(R1-Pad1)*%
X118255414Y-75101824D02*
X118572262Y-75101824D01*
X119830438Y-76360000D02*
X120075000Y-76360000D01*
X118572262Y-75101824D02*
X119830438Y-76360000D01*
%TO.N,Net-(D1-K)*%
X119115545Y-74173045D02*
X119810000Y-74867500D01*
X118626054Y-74173045D02*
X119115545Y-74173045D01*
%TO.N,Net-(R19-Pad1)*%
X116130000Y-126310000D02*
X116130000Y-125250000D01*
X116130000Y-125250000D02*
X116420000Y-124960000D01*
%TO.N,Net-(Q1-G)*%
X117351000Y-126349000D02*
X117280000Y-126420000D01*
X117351000Y-124239000D02*
X117351000Y-126349000D01*
X118280000Y-123310000D02*
X117351000Y-124239000D01*
%TO.N,Net-(J314-Pin_1)*%
X128210000Y-102810000D02*
X128230000Y-102830000D01*
X123560000Y-102810000D02*
X128210000Y-102810000D01*
X116360000Y-110980000D02*
X117110000Y-110980000D01*
X117110000Y-110980000D02*
X117300000Y-111170000D01*
%TO.N,Net-(D7-K)*%
X117050478Y-107115000D02*
X115950000Y-107115000D01*
X118316478Y-108381000D02*
X117050478Y-107115000D01*
X119136000Y-108381000D02*
X118316478Y-108381000D01*
X120065000Y-109310000D02*
X119136000Y-108381000D01*
%TO.N,Net-(R18-Pad1)*%
X118037739Y-109310000D02*
X118415000Y-109310000D01*
X117538866Y-108811127D02*
X118037739Y-109310000D01*
X118415000Y-109310000D02*
X118435000Y-109290000D01*
%TO.N,Net-(Q2-G)*%
X118380000Y-110860000D02*
X117390000Y-109870000D01*
X118380000Y-110880000D02*
X118380000Y-110860000D01*
%TO.N,Net-(D7-K)*%
X115495000Y-107570000D02*
X115950000Y-107115000D01*
X112890000Y-107570000D02*
X115495000Y-107570000D01*
%TO.N,Net-(D4-K)*%
X119310000Y-105625000D02*
X119310000Y-106445000D01*
X119310000Y-106445000D02*
X118505000Y-107250000D01*
%TO.N,Net-(R18-Pad1)*%
X114160000Y-98330000D02*
X115400000Y-99570000D01*
X113030000Y-98330000D02*
X114160000Y-98330000D01*
%TO.N,Net-(D4-A)*%
X113885842Y-100630000D02*
X113030000Y-100630000D01*
X119310000Y-104050000D02*
X117305842Y-104050000D01*
X117305842Y-104050000D02*
X113885842Y-100630000D01*
%TO.N,Net-(J302-Pin_1)*%
X122240000Y-118050000D02*
X122080000Y-118210000D01*
X128210000Y-118050000D02*
X122240000Y-118050000D01*
%TO.N,Net-(D3-K)*%
X119840000Y-122665000D02*
X119810000Y-122695000D01*
X119840000Y-121280000D02*
X119840000Y-122665000D01*
%TO.N,Net-(D3-A)*%
X115345000Y-115210000D02*
X113020000Y-115210000D01*
X119840000Y-119705000D02*
X115345000Y-115210000D01*
%TO.N,Net-(Q1-G)*%
X116880000Y-119700000D02*
X118180000Y-121000000D01*
X118180000Y-121000000D02*
X118180000Y-123310000D01*
%TO.N,Net-(R19-Pad1)*%
X114770000Y-112910000D02*
X115440000Y-113580000D01*
X113020000Y-112910000D02*
X114770000Y-112910000D01*
%TO.N,Net-(J306-Pin_1)*%
X123180000Y-87580000D02*
X128180000Y-87580000D01*
X123120000Y-87640000D02*
X123180000Y-87580000D01*
X118280000Y-91840000D02*
X118440000Y-91680000D01*
X118280000Y-93420000D02*
X118280000Y-91840000D01*
%TO.N,Net-(Q3-G)*%
X117751000Y-94541000D02*
X116630000Y-93420000D01*
X118986000Y-94541000D02*
X117751000Y-94541000D01*
X119760000Y-95315000D02*
X118986000Y-94541000D01*
%TO.N,Net-(R20-Pad1)*%
X116220000Y-95160000D02*
X115540000Y-95160000D01*
X116530000Y-95470000D02*
X116220000Y-95160000D01*
%TO.N,Net-(D6-K)*%
X117080000Y-96570000D02*
X117080000Y-96610000D01*
X118180000Y-95470000D02*
X117080000Y-96570000D01*
%TO.N,Net-(Q3-G)*%
X117130000Y-92920000D02*
X117130000Y-89742500D01*
X116630000Y-93420000D02*
X117130000Y-92920000D01*
%TO.N,Net-(D6-K)*%
X115204000Y-91617500D02*
X116180000Y-91617500D01*
%TO.N,Net-(D2-K)*%
X119780000Y-90710000D02*
X119780000Y-92210000D01*
%TO.N,Net-(D6-K)*%
X112972500Y-92467500D02*
X113850000Y-91590000D01*
X113850000Y-91590000D02*
X113877500Y-91617500D01*
X113877500Y-91617500D02*
X116180000Y-91617500D01*
X112930000Y-92467500D02*
X112972500Y-92467500D01*
%TO.N,Net-(D2-A)*%
X115450001Y-85280000D02*
X113090000Y-85280000D01*
X119305001Y-89135000D02*
X115450001Y-85280000D01*
X119780000Y-89135000D02*
X119305001Y-89135000D01*
%TO.N,Net-(R20-Pad1)*%
X112360000Y-82250000D02*
X113090000Y-82980000D01*
X111640000Y-82250000D02*
X112360000Y-82250000D01*
%TO.N,Net-(Q4-G)*%
X117900000Y-77900000D02*
X118990000Y-77900000D01*
X117630000Y-78170000D02*
X117900000Y-77900000D01*
%TO.N,Net-(J318-Pad1)*%
X117520000Y-79980000D02*
X117750000Y-79750000D01*
X117520000Y-81260000D02*
X117520000Y-79980000D01*
%TO.N,Net-(R1-Pad1)*%
X119826885Y-76360000D02*
X120075000Y-76360000D01*
%TO.N,Net-(D5-K)*%
X117834000Y-76951000D02*
X118425000Y-76360000D01*
X117834000Y-76999130D02*
X117834000Y-76951000D01*
X115270000Y-76380000D02*
X116030000Y-76380000D01*
X114620000Y-76380000D02*
X115270000Y-76380000D01*
%TO.N,Net-(Q4-G)*%
X116980000Y-77520000D02*
X117630000Y-78170000D01*
X116980000Y-74505000D02*
X116980000Y-77520000D01*
%TO.N,Net-(R1-Pad1)*%
X116100000Y-80460000D02*
X115750000Y-80810000D01*
X116100000Y-79750000D02*
X116100000Y-80460000D01*
%TO.N,Net-(J304-Pin_1)*%
X128170000Y-72390000D02*
X128240000Y-72320000D01*
X124130000Y-72390000D02*
X128170000Y-72390000D01*
X115550000Y-78170000D02*
X115260000Y-77880000D01*
X115980000Y-78170000D02*
X115550000Y-78170000D01*
%TO.N,Net-(D1-A)*%
X115540000Y-70050000D02*
X113070000Y-70050000D01*
X119810000Y-73345000D02*
X118835000Y-73345000D01*
X118835000Y-73345000D02*
X115540000Y-70050000D01*
%TO.N,Net-(R1-Pad1)*%
X114360000Y-67750000D02*
X115550000Y-68940000D01*
X113070000Y-67750000D02*
X114360000Y-67750000D01*
%TO.N,Net-(R20-Pad1)*%
X112755000Y-83315000D02*
X113090000Y-82980000D01*
X110890000Y-83315000D02*
X112755000Y-83315000D01*
%TO.N,Net-(D5-K)*%
X113870000Y-77130000D02*
X114620000Y-76380000D01*
X112910000Y-77130000D02*
X113870000Y-77130000D01*
X118405000Y-76380000D02*
X118425000Y-76360000D01*
%TO.N,Net-(D1-A)*%
X112400000Y-79980000D02*
X110020000Y-77600000D01*
X112400000Y-80070000D02*
X112400000Y-79980000D01*
%TO.N,Net-(D4-A)*%
X111940000Y-110180000D02*
X110230000Y-108470000D01*
X112695000Y-110180000D02*
X111940000Y-110180000D01*
%TO.N,Net-(D3-A)*%
X112670000Y-125250000D02*
X110270000Y-122850000D01*
X112695000Y-125250000D02*
X112670000Y-125250000D01*
%TO.N,Net-(D8-K)*%
X116420000Y-122065000D02*
X115930000Y-121575000D01*
X116420000Y-123310000D02*
X116420000Y-122065000D01*
X113325000Y-121575000D02*
X112900000Y-122000000D01*
X115930000Y-121575000D02*
X113325000Y-121575000D01*
%TO.N,Net-(R19-Pad1)*%
X112700000Y-113230000D02*
X113020000Y-112910000D01*
X110530000Y-113230000D02*
X112700000Y-113230000D01*
%TO.N,Net-(J318-Pad1)*%
X110363247Y-114880000D02*
X109495236Y-115748011D01*
X110530000Y-114880000D02*
X110363247Y-114880000D01*
%TO.N,Net-(R18-Pad1)*%
X110685000Y-98330000D02*
X110680000Y-98335000D01*
X113030000Y-98330000D02*
X110685000Y-98330000D01*
%TO.N,Net-(J318-Pad1)*%
X109775000Y-99985000D02*
X108610000Y-101150000D01*
X110680000Y-99985000D02*
X109775000Y-99985000D01*
D30*
X110330000Y-118910000D02*
X111568000Y-117672000D01*
X111568000Y-117672000D02*
X112858000Y-117672000D01*
D29*
X111360000Y-102930000D02*
X111150000Y-103140000D01*
X113030000Y-102930000D02*
X111360000Y-102930000D01*
X109750000Y-72350000D02*
X113070000Y-72350000D01*
%TO.N,Net-(D1-A)*%
X109760000Y-70050000D02*
X113070000Y-70050000D01*
X107500000Y-74080000D02*
X107500000Y-72310000D01*
X107500000Y-72310000D02*
X109760000Y-70050000D01*
D32*
%TO.N,Net-(D2-A)*%
X104160000Y-99360000D02*
X104160000Y-98860000D01*
X103200000Y-100320000D02*
X104160000Y-99360000D01*
D31*
%TO.N,Net-(D1-A)*%
X103270000Y-85160000D02*
X104360000Y-84070000D01*
X103270000Y-85720000D02*
X103270000Y-85160000D01*
D32*
%TO.N,Net-(D4-A)*%
X103130000Y-114980000D02*
X104120000Y-113990000D01*
X103130000Y-115490000D02*
X103130000Y-114980000D01*
X103130000Y-115490000D02*
X103100000Y-115460000D01*
D29*
%TO.N,GNDPWR*%
X107500000Y-113370000D02*
X108120000Y-113990000D01*
D30*
X107500000Y-83210000D02*
X108360000Y-84070000D01*
X107500000Y-79160000D02*
X107500000Y-83210000D01*
D29*
%TO.N,Net-(D3-A)*%
X112091500Y-116138500D02*
X113020000Y-115210000D01*
X110761500Y-116138500D02*
X112091500Y-116138500D01*
X107500000Y-119400000D02*
X110761500Y-116138500D01*
X107222500Y-128862500D02*
X109120000Y-130760000D01*
X104400000Y-128862500D02*
X107222500Y-128862500D01*
%TO.N,Net-(D1-A)*%
X104360000Y-77220000D02*
X104360000Y-84070000D01*
X107500000Y-74080000D02*
X104360000Y-77220000D01*
%TO.N,Net-(D4-A)*%
X104120000Y-107380000D02*
X107500000Y-104000000D01*
X104120000Y-113990000D02*
X104120000Y-107380000D01*
%TO.N,Net-(D3-A)*%
X104400000Y-122500000D02*
X104400000Y-128862500D01*
X107500000Y-119400000D02*
X104400000Y-122500000D01*
%TO.N,Net-(D4-A)*%
X112101500Y-101558500D02*
X113030000Y-100630000D01*
X109941500Y-101558500D02*
X112101500Y-101558500D01*
X107500000Y-104000000D02*
X109941500Y-101558500D01*
D30*
%TO.N,GNDPWR*%
X107500000Y-79160000D02*
X107530000Y-79190000D01*
D33*
%TO.N,Net-(J304-Pin_1)*%
X128150000Y-72410000D02*
X128240000Y-72320000D01*
D34*
%TO.N,Net-(J201-Pin_1)*%
X92298250Y-117874224D02*
X74292163Y-117874224D01*
X74292163Y-117874224D02*
X74290616Y-117875771D01*
X92425250Y-117747224D02*
X92298250Y-117874224D01*
%TO.N,Net-(J202-Pin_1)*%
X82900250Y-112794224D02*
X74282641Y-112794224D01*
X74282641Y-112794224D02*
X74273772Y-112803093D01*
D35*
%TO.N,Net-(J203-Pin_1)*%
X88107250Y-113175324D02*
X89758150Y-114826224D01*
D34*
X92425250Y-107587224D02*
X92298250Y-107714224D01*
X74287595Y-107731527D02*
X74295588Y-107739520D01*
X74304898Y-107714224D02*
X74287595Y-107731527D01*
X74295588Y-107739520D02*
X79090250Y-107739520D01*
D35*
X88107250Y-107714224D02*
X88107250Y-113175324D01*
D34*
X92298250Y-107714224D02*
X88107250Y-107714224D01*
X88107250Y-107714224D02*
X74304898Y-107714224D01*
%TO.N,Net-(J204-Pin_1)*%
X92425250Y-102507224D02*
X92298250Y-102634224D01*
X92298250Y-102634224D02*
X74288698Y-102634224D01*
X74288698Y-102634224D02*
X74270525Y-102652397D01*
%TO.N,Net-(J205-Pin_1)*%
X95679002Y-99869002D02*
X95679002Y-100444402D01*
X74208250Y-97576109D02*
X93386109Y-97576109D01*
X95280000Y-128090000D02*
X97390000Y-128090000D01*
X98902250Y-126577750D02*
X98902250Y-105440000D01*
X93160000Y-125970000D02*
X95280000Y-128090000D01*
X97390000Y-128090000D02*
X98902250Y-126577750D01*
X93386109Y-97576109D02*
X95679002Y-99869002D01*
%TO.N,Net-(J206-Pin_1)*%
X74259168Y-92494687D02*
X79090250Y-92494687D01*
D35*
X96188250Y-122371750D02*
X96188250Y-117667224D01*
D34*
X92425250Y-92347224D02*
X92298250Y-92474224D01*
D35*
X96188250Y-117667224D02*
X97324258Y-116531216D01*
D34*
X92298250Y-92474224D02*
X74279353Y-92474224D01*
X74259029Y-92494548D02*
X74259168Y-92494687D01*
D35*
X95620000Y-122940000D02*
X96188250Y-122371750D01*
X97324258Y-97246232D02*
X92425250Y-92347224D01*
X95620000Y-125930000D02*
X95620000Y-122940000D01*
X95660000Y-125970000D02*
X95620000Y-125930000D01*
X97324258Y-116531216D02*
X97324258Y-97246232D01*
D34*
X74279353Y-92474224D02*
X74259029Y-92494548D01*
%TO.N,Net-(J207-Pin_1)*%
X92425250Y-87267224D02*
X92298250Y-87394224D01*
X92298250Y-87394224D02*
X74277496Y-87394224D01*
X74277496Y-87394224D02*
X74272933Y-87398787D01*
%TO.N,Net-(J208-Pin_1)*%
X92298250Y-82314224D02*
X74322732Y-82314224D01*
X92425250Y-82187224D02*
X92298250Y-82314224D01*
X74322732Y-82314224D02*
X74290929Y-82346027D01*
%TO.N,M*%
X95110000Y-102070000D02*
X95110000Y-109175474D01*
X94031250Y-110254224D02*
X90012252Y-110254224D01*
X74595318Y-76970000D02*
X74313791Y-77251527D01*
D33*
X79088577Y-77251527D02*
X74313791Y-77251527D01*
D34*
X93261224Y-100221224D02*
X95110000Y-102070000D01*
D33*
X79105880Y-77234224D02*
X79088577Y-77251527D01*
D34*
X95110000Y-109175474D02*
X94031250Y-110254224D01*
X84805250Y-100221224D02*
X93261224Y-100221224D01*
X92288026Y-76970000D02*
X74595318Y-76970000D01*
X92425250Y-77107224D02*
X92288026Y-76970000D01*
%TO.N,Net-(J210-Pin_1)*%
X74268986Y-72175201D02*
X92500273Y-72175201D01*
%TD*%
%TA.AperFunction,Conductor*%
%TO.N,GNDPWR*%
G36*
X114835702Y-102647330D02*
G01*
X114842180Y-102653362D01*
X115501019Y-103312201D01*
X115534504Y-103373524D01*
X115529520Y-103443216D01*
X115487648Y-103499149D01*
X115486224Y-103500199D01*
X115394132Y-103567109D01*
X115394129Y-103567111D01*
X115267466Y-103707785D01*
X115172821Y-103871715D01*
X115172818Y-103871722D01*
X115121058Y-104031025D01*
X115114326Y-104051744D01*
X115094540Y-104240000D01*
X115114326Y-104428256D01*
X115114327Y-104428259D01*
X115172818Y-104608277D01*
X115172821Y-104608284D01*
X115220229Y-104690398D01*
X115233387Y-104713187D01*
X115250000Y-104775187D01*
X115250000Y-106145684D01*
X115232733Y-106208804D01*
X115198254Y-106267105D01*
X115198254Y-106267106D01*
X115152402Y-106424926D01*
X115152401Y-106424932D01*
X115149500Y-106461798D01*
X115149500Y-106691500D01*
X115129815Y-106758539D01*
X115077011Y-106804294D01*
X115025500Y-106815500D01*
X113848231Y-106815500D01*
X113781192Y-106795815D01*
X113760550Y-106779182D01*
X113718692Y-106737324D01*
X113658656Y-106677288D01*
X113581917Y-106629955D01*
X113509336Y-106585187D01*
X113509331Y-106585185D01*
X113482394Y-106576259D01*
X113342797Y-106530001D01*
X113342795Y-106530000D01*
X113240010Y-106519500D01*
X112539998Y-106519500D01*
X112539980Y-106519501D01*
X112437203Y-106530000D01*
X112437200Y-106530001D01*
X112270668Y-106585185D01*
X112270663Y-106585187D01*
X112121342Y-106677289D01*
X111997289Y-106801342D01*
X111905191Y-106950658D01*
X111905185Y-106950668D01*
X111903386Y-106956097D01*
X111850001Y-107117203D01*
X111850001Y-107117204D01*
X111850000Y-107117204D01*
X111839500Y-107219983D01*
X111839500Y-107920001D01*
X111839501Y-107920019D01*
X111850000Y-108022796D01*
X111850001Y-108022799D01*
X111905185Y-108189331D01*
X111905187Y-108189336D01*
X111924459Y-108220581D01*
X111997288Y-108338656D01*
X112121344Y-108462712D01*
X112270666Y-108554814D01*
X112437203Y-108609999D01*
X112539991Y-108620500D01*
X113240008Y-108620499D01*
X113271362Y-108617296D01*
X113340055Y-108630065D01*
X113390939Y-108677946D01*
X113407860Y-108745736D01*
X113390697Y-108803773D01*
X113381218Y-108819800D01*
X113335399Y-108977513D01*
X113335204Y-108979998D01*
X113335205Y-108980000D01*
X114696000Y-108980000D01*
X114763039Y-108999685D01*
X114808794Y-109052489D01*
X114820000Y-109104000D01*
X114820000Y-110030000D01*
X115223134Y-110030000D01*
X115223149Y-110029999D01*
X115259989Y-110027100D01*
X115259995Y-110027099D01*
X115417694Y-109981283D01*
X115424857Y-109978184D01*
X115425674Y-109980074D01*
X115482995Y-109965520D01*
X115549262Y-109987667D01*
X115566096Y-110001754D01*
X115631661Y-110067319D01*
X115665146Y-110128642D01*
X115660162Y-110198334D01*
X115631661Y-110242682D01*
X115529935Y-110344407D01*
X115468612Y-110377891D01*
X115407659Y-110375801D01*
X115259995Y-110332900D01*
X115259989Y-110332899D01*
X115223149Y-110330000D01*
X114820000Y-110330000D01*
X114820000Y-111256000D01*
X114800315Y-111323039D01*
X114747511Y-111368794D01*
X114696000Y-111380000D01*
X113335205Y-111380000D01*
X113335204Y-111380001D01*
X113335399Y-111382486D01*
X113381218Y-111540197D01*
X113429820Y-111622380D01*
X113447002Y-111690104D01*
X113424842Y-111756366D01*
X113370375Y-111800129D01*
X113323087Y-111809500D01*
X111872129Y-111809500D01*
X111872123Y-111809501D01*
X111812516Y-111815908D01*
X111677671Y-111866202D01*
X111677664Y-111866206D01*
X111562455Y-111952452D01*
X111562452Y-111952455D01*
X111476206Y-112067664D01*
X111476202Y-112067671D01*
X111425908Y-112202517D01*
X111419501Y-112262116D01*
X111419500Y-112262135D01*
X111419500Y-112351500D01*
X111399815Y-112418539D01*
X111347011Y-112464294D01*
X111295500Y-112475500D01*
X111276360Y-112475500D01*
X111212211Y-112457617D01*
X111094606Y-112386522D01*
X110932196Y-112335914D01*
X110932194Y-112335913D01*
X110932192Y-112335913D01*
X110882778Y-112331423D01*
X110861616Y-112329500D01*
X110198384Y-112329500D01*
X110179145Y-112331248D01*
X110127807Y-112335913D01*
X109965393Y-112386522D01*
X109819811Y-112474530D01*
X109699531Y-112594810D01*
X109699528Y-112594814D01*
X109666743Y-112649047D01*
X109615215Y-112696234D01*
X109546356Y-112708072D01*
X109495531Y-112690435D01*
X109439128Y-112655645D01*
X109439119Y-112655641D01*
X109272697Y-112600494D01*
X109272690Y-112600493D01*
X109169986Y-112590000D01*
X108370000Y-112590000D01*
X108370000Y-115389999D01*
X108494048Y-115389999D01*
X108561087Y-115409684D01*
X108606842Y-115462488D01*
X108616786Y-115531646D01*
X108611979Y-115552316D01*
X108609564Y-115559748D01*
X108609562Y-115559754D01*
X108598099Y-115668817D01*
X108589776Y-115748011D01*
X108609562Y-115936267D01*
X108609563Y-115936270D01*
X108668054Y-116116288D01*
X108668057Y-116116295D01*
X108762702Y-116280226D01*
X108845545Y-116372233D01*
X108875775Y-116435225D01*
X108867149Y-116504560D01*
X108841076Y-116542886D01*
X107495781Y-117888181D01*
X107434458Y-117921666D01*
X107408100Y-117924500D01*
X106477129Y-117924500D01*
X106477123Y-117924501D01*
X106417516Y-117930908D01*
X106282671Y-117981202D01*
X106282664Y-117981206D01*
X106167455Y-118067452D01*
X106167452Y-118067455D01*
X106081206Y-118182664D01*
X106081202Y-118182671D01*
X106030908Y-118317517D01*
X106024501Y-118377116D01*
X106024500Y-118377135D01*
X106024500Y-119308100D01*
X106004815Y-119375139D01*
X105988181Y-119395781D01*
X103712591Y-121671370D01*
X103696857Y-121684682D01*
X103694800Y-121686146D01*
X103694793Y-121686153D01*
X103633956Y-121749956D01*
X103631900Y-121752062D01*
X103605876Y-121778088D01*
X103600564Y-121784521D01*
X103594700Y-121791127D01*
X103553517Y-121834320D01*
X103553511Y-121834327D01*
X103536690Y-121860502D01*
X103527997Y-121872408D01*
X103508188Y-121896400D01*
X103508185Y-121896404D01*
X103479600Y-121948752D01*
X103475086Y-121956361D01*
X103442832Y-122006549D01*
X103431264Y-122035444D01*
X103424982Y-122048776D01*
X103410074Y-122076079D01*
X103410066Y-122076097D01*
X103391908Y-122132900D01*
X103388915Y-122141226D01*
X103366745Y-122196604D01*
X103360855Y-122227165D01*
X103357210Y-122241446D01*
X103347734Y-122271093D01*
X103347733Y-122271096D01*
X103340652Y-122330320D01*
X103339288Y-122339064D01*
X103328000Y-122397634D01*
X103328000Y-122428756D01*
X103327123Y-122443476D01*
X103323429Y-122474368D01*
X103323429Y-122474374D01*
X103327684Y-122533861D01*
X103328000Y-122542707D01*
X103328000Y-127172864D01*
X103308315Y-127239903D01*
X103286137Y-127264367D01*
X103286451Y-127264681D01*
X103157289Y-127393842D01*
X103065187Y-127543163D01*
X103065186Y-127543166D01*
X103010001Y-127709703D01*
X103010001Y-127709704D01*
X103010000Y-127709704D01*
X102999500Y-127812483D01*
X102999500Y-129912501D01*
X102999501Y-129912518D01*
X103010000Y-130015296D01*
X103010001Y-130015299D01*
X103011392Y-130019496D01*
X103065186Y-130181834D01*
X103157288Y-130331156D01*
X103281344Y-130455212D01*
X103430666Y-130547314D01*
X103597203Y-130602499D01*
X103699991Y-130613000D01*
X105100008Y-130612999D01*
X105202797Y-130602499D01*
X105369334Y-130547314D01*
X105518656Y-130455212D01*
X105642712Y-130331156D01*
X105734814Y-130181834D01*
X105788608Y-130019494D01*
X105828380Y-129962051D01*
X105892895Y-129935228D01*
X105906313Y-129934500D01*
X106727101Y-129934500D01*
X106794140Y-129954185D01*
X106814782Y-129970819D01*
X107883929Y-131039966D01*
X107916023Y-131095554D01*
X107941083Y-131189082D01*
X107941085Y-131189086D01*
X107941086Y-131189090D01*
X107948998Y-131206057D01*
X108033506Y-131387286D01*
X108033507Y-131387287D01*
X108158941Y-131566425D01*
X108313575Y-131721059D01*
X108492713Y-131846493D01*
X108690910Y-131938914D01*
X108902146Y-131995514D01*
X109076429Y-132010762D01*
X109119999Y-132014574D01*
X109120000Y-132014574D01*
X109120001Y-132014574D01*
X109156309Y-132011397D01*
X109337854Y-131995514D01*
X109549090Y-131938914D01*
X109747287Y-131846493D01*
X109926425Y-131721059D01*
X110081059Y-131566425D01*
X110206493Y-131387287D01*
X110257618Y-131277648D01*
X110303790Y-131225209D01*
X110370984Y-131206057D01*
X110437865Y-131226273D01*
X110482381Y-131277648D01*
X110533507Y-131387287D01*
X110658941Y-131566425D01*
X110813575Y-131721059D01*
X110992713Y-131846493D01*
X111190910Y-131938914D01*
X111402146Y-131995514D01*
X111576429Y-132010762D01*
X111619999Y-132014574D01*
X111620000Y-132014574D01*
X111620001Y-132014574D01*
X111656309Y-132011397D01*
X111837854Y-131995514D01*
X112049090Y-131938914D01*
X112247287Y-131846493D01*
X112426425Y-131721059D01*
X112581059Y-131566425D01*
X112706493Y-131387287D01*
X112757618Y-131277648D01*
X112803790Y-131225209D01*
X112870984Y-131206057D01*
X112937865Y-131226273D01*
X112982381Y-131277648D01*
X113033507Y-131387287D01*
X113158941Y-131566425D01*
X113313575Y-131721059D01*
X113492713Y-131846493D01*
X113690910Y-131938914D01*
X113902146Y-131995514D01*
X114076429Y-132010762D01*
X114119999Y-132014574D01*
X114120000Y-132014574D01*
X114120001Y-132014574D01*
X114156309Y-132011397D01*
X114337854Y-131995514D01*
X114549090Y-131938914D01*
X114747287Y-131846493D01*
X114926425Y-131721059D01*
X115081059Y-131566425D01*
X115206493Y-131387287D01*
X115257618Y-131277648D01*
X115303790Y-131225209D01*
X115370984Y-131206057D01*
X115437865Y-131226273D01*
X115482381Y-131277648D01*
X115533507Y-131387287D01*
X115658941Y-131566425D01*
X115813575Y-131721059D01*
X115992713Y-131846493D01*
X116190910Y-131938914D01*
X116402146Y-131995514D01*
X116576429Y-132010762D01*
X116619999Y-132014574D01*
X116620000Y-132014574D01*
X116620001Y-132014574D01*
X116656309Y-132011397D01*
X116837854Y-131995514D01*
X117049090Y-131938914D01*
X117247287Y-131846493D01*
X117426425Y-131721059D01*
X117581059Y-131566425D01*
X117706493Y-131387287D01*
X117798914Y-131189090D01*
X117855514Y-130977854D01*
X117874574Y-130760000D01*
X117855514Y-130542146D01*
X117798914Y-130330910D01*
X117706493Y-130132713D01*
X117581059Y-129953575D01*
X117426425Y-129798941D01*
X117265013Y-129685919D01*
X117247286Y-129673506D01*
X117140907Y-129623901D01*
X117049090Y-129581086D01*
X117049086Y-129581085D01*
X117049082Y-129581083D01*
X116837859Y-129524487D01*
X116837849Y-129524485D01*
X116620001Y-129505426D01*
X116619999Y-129505426D01*
X116402150Y-129524485D01*
X116402140Y-129524487D01*
X116190917Y-129581083D01*
X116190908Y-129581087D01*
X115992713Y-129673506D01*
X115942649Y-129708562D01*
X115813575Y-129798941D01*
X115813573Y-129798942D01*
X115813570Y-129798945D01*
X115658945Y-129953570D01*
X115658942Y-129953573D01*
X115658941Y-129953575D01*
X115653006Y-129962051D01*
X115533506Y-130132713D01*
X115482382Y-130242351D01*
X115436210Y-130294790D01*
X115369016Y-130313942D01*
X115302135Y-130293726D01*
X115257618Y-130242351D01*
X115229398Y-130181834D01*
X115206493Y-130132713D01*
X115081059Y-129953575D01*
X114926425Y-129798941D01*
X114765013Y-129685919D01*
X114747286Y-129673506D01*
X114640907Y-129623901D01*
X114549090Y-129581086D01*
X114549086Y-129581085D01*
X114549082Y-129581083D01*
X114337859Y-129524487D01*
X114337849Y-129524485D01*
X114120001Y-129505426D01*
X114119999Y-129505426D01*
X113902150Y-129524485D01*
X113902140Y-129524487D01*
X113690917Y-129581083D01*
X113690908Y-129581087D01*
X113492713Y-129673506D01*
X113442649Y-129708562D01*
X113313575Y-129798941D01*
X113313573Y-129798942D01*
X113313570Y-129798945D01*
X113158945Y-129953570D01*
X113158942Y-129953573D01*
X113158941Y-129953575D01*
X113153006Y-129962051D01*
X113033506Y-130132713D01*
X112982382Y-130242351D01*
X112936210Y-130294790D01*
X112869016Y-130313942D01*
X112802135Y-130293726D01*
X112757618Y-130242351D01*
X112729398Y-130181834D01*
X112706493Y-130132713D01*
X112581059Y-129953575D01*
X112426425Y-129798941D01*
X112265013Y-129685919D01*
X112247286Y-129673506D01*
X112140907Y-129623901D01*
X112049090Y-129581086D01*
X112049086Y-129581085D01*
X112049082Y-129581083D01*
X111837859Y-129524487D01*
X111837849Y-129524485D01*
X111620001Y-129505426D01*
X111619999Y-129505426D01*
X111402150Y-129524485D01*
X111402140Y-129524487D01*
X111190917Y-129581083D01*
X111190908Y-129581087D01*
X110992713Y-129673506D01*
X110942649Y-129708562D01*
X110813575Y-129798941D01*
X110813573Y-129798942D01*
X110813570Y-129798945D01*
X110658945Y-129953570D01*
X110658942Y-129953573D01*
X110658941Y-129953575D01*
X110653006Y-129962051D01*
X110533506Y-130132713D01*
X110482382Y-130242351D01*
X110436210Y-130294790D01*
X110369016Y-130313942D01*
X110302135Y-130293726D01*
X110257618Y-130242351D01*
X110229398Y-130181834D01*
X110206493Y-130132713D01*
X110081059Y-129953575D01*
X109926425Y-129798941D01*
X109765013Y-129685919D01*
X109747286Y-129673506D01*
X109640907Y-129623901D01*
X109549090Y-129581086D01*
X109549086Y-129581085D01*
X109549082Y-129581083D01*
X109455553Y-129556023D01*
X109399965Y-129523929D01*
X108051132Y-128175096D01*
X108037805Y-128159341D01*
X108036351Y-128157299D01*
X108036349Y-128157296D01*
X108036343Y-128157290D01*
X107972522Y-128096436D01*
X107970411Y-128094375D01*
X107944416Y-128068380D01*
X107944411Y-128068375D01*
X107937968Y-128063055D01*
X107931366Y-128057195D01*
X107924407Y-128050560D01*
X107888181Y-128016018D01*
X107888178Y-128016015D01*
X107862001Y-127999193D01*
X107850088Y-127990495D01*
X107848128Y-127988877D01*
X107842483Y-127984215D01*
X107826100Y-127970688D01*
X107826098Y-127970687D01*
X107826097Y-127970686D01*
X107773747Y-127942100D01*
X107766137Y-127937585D01*
X107715956Y-127905335D01*
X107687063Y-127893768D01*
X107673727Y-127887485D01*
X107646409Y-127872569D01*
X107589592Y-127854407D01*
X107581261Y-127851412D01*
X107525892Y-127829245D01*
X107525887Y-127829243D01*
X107495329Y-127823353D01*
X107481047Y-127819708D01*
X107451408Y-127810234D01*
X107451402Y-127810233D01*
X107392179Y-127803152D01*
X107383433Y-127801788D01*
X107324865Y-127790500D01*
X107324864Y-127790500D01*
X107293744Y-127790500D01*
X107279024Y-127789623D01*
X107248128Y-127785929D01*
X107248127Y-127785929D01*
X107218166Y-127788071D01*
X107188637Y-127790184D01*
X107179791Y-127790500D01*
X105906314Y-127790500D01*
X105839275Y-127770815D01*
X105793520Y-127718011D01*
X105788608Y-127705505D01*
X105768530Y-127644915D01*
X105734814Y-127543166D01*
X105642712Y-127393844D01*
X105518656Y-127269788D01*
X105513549Y-127264681D01*
X105514532Y-127263697D01*
X105478710Y-127213101D01*
X105472000Y-127172864D01*
X105472000Y-126450001D01*
X113335204Y-126450001D01*
X113335399Y-126452486D01*
X113381218Y-126610198D01*
X113464814Y-126751552D01*
X113464821Y-126751561D01*
X113580938Y-126867678D01*
X113580947Y-126867685D01*
X113722303Y-126951282D01*
X113722306Y-126951283D01*
X113880004Y-126997099D01*
X113880010Y-126997100D01*
X113916850Y-126999999D01*
X113916866Y-127000000D01*
X114320000Y-127000000D01*
X114320000Y-126450000D01*
X113335205Y-126450000D01*
X113335204Y-126450001D01*
X105472000Y-126450001D01*
X105472000Y-124480005D01*
X106019945Y-124480005D01*
X106040130Y-124723605D01*
X106100138Y-124960573D01*
X106198330Y-125184429D01*
X106294626Y-125331819D01*
X106897452Y-124728993D01*
X106907188Y-124758956D01*
X106995186Y-124897619D01*
X107114903Y-125010040D01*
X107249510Y-125084041D01*
X106647758Y-125685794D01*
X106647758Y-125685796D01*
X106690478Y-125719046D01*
X106690484Y-125719050D01*
X106905468Y-125835394D01*
X106905476Y-125835397D01*
X107136664Y-125914765D01*
X107377779Y-125955000D01*
X107622221Y-125955000D01*
X107863335Y-125914765D01*
X108094523Y-125835397D01*
X108094531Y-125835394D01*
X108309514Y-125719051D01*
X108309514Y-125719050D01*
X108352240Y-125685795D01*
X108352240Y-125685794D01*
X107747534Y-125081086D01*
X107815629Y-125054126D01*
X107948492Y-124957595D01*
X108053175Y-124831055D01*
X108101631Y-124728078D01*
X108705372Y-125331819D01*
X108801667Y-125184431D01*
X108801672Y-125184423D01*
X108899861Y-124960573D01*
X108959869Y-124723605D01*
X108980055Y-124480005D01*
X108980055Y-124479994D01*
X108959869Y-124236394D01*
X108899861Y-123999426D01*
X108801669Y-123775570D01*
X108705372Y-123628179D01*
X108102546Y-124231004D01*
X108092812Y-124201044D01*
X108004814Y-124062381D01*
X107885097Y-123949960D01*
X107750488Y-123875957D01*
X108352240Y-123274204D01*
X108352240Y-123274203D01*
X108309514Y-123240949D01*
X108094531Y-123124605D01*
X108094523Y-123124602D01*
X107863335Y-123045234D01*
X107622221Y-123005000D01*
X107377779Y-123005000D01*
X107136664Y-123045234D01*
X106905476Y-123124602D01*
X106905468Y-123124605D01*
X106690481Y-123240951D01*
X106647758Y-123274202D01*
X106647757Y-123274204D01*
X107252466Y-123878912D01*
X107184371Y-123905874D01*
X107051508Y-124002405D01*
X106946825Y-124128945D01*
X106898368Y-124231921D01*
X106294626Y-123628179D01*
X106198328Y-123775575D01*
X106100138Y-123999426D01*
X106040130Y-124236394D01*
X106019945Y-124479994D01*
X106019945Y-124480005D01*
X105472000Y-124480005D01*
X105472000Y-122995398D01*
X105491685Y-122928359D01*
X105508314Y-122907722D01*
X105566036Y-122850000D01*
X109364540Y-122850000D01*
X109384326Y-123038256D01*
X109384327Y-123038259D01*
X109442818Y-123218277D01*
X109442821Y-123218284D01*
X109537467Y-123382216D01*
X109643607Y-123500096D01*
X109664129Y-123522888D01*
X109817265Y-123634148D01*
X109817270Y-123634151D01*
X109990191Y-123711142D01*
X109990193Y-123711142D01*
X109990197Y-123711144D01*
X110048148Y-123723461D01*
X110109627Y-123756653D01*
X110110046Y-123757070D01*
X111420681Y-125067705D01*
X111454166Y-125129028D01*
X111457000Y-125155386D01*
X111457000Y-125465701D01*
X111459901Y-125502567D01*
X111459902Y-125502573D01*
X111505754Y-125660393D01*
X111505755Y-125660396D01*
X111589417Y-125801862D01*
X111589423Y-125801870D01*
X111705629Y-125918076D01*
X111705633Y-125918079D01*
X111705635Y-125918081D01*
X111847102Y-126001744D01*
X111888724Y-126013836D01*
X112004926Y-126047597D01*
X112004929Y-126047597D01*
X112004931Y-126047598D01*
X112041806Y-126050500D01*
X112041814Y-126050500D01*
X113348186Y-126050500D01*
X113348194Y-126050500D01*
X113385069Y-126047598D01*
X113385071Y-126047597D01*
X113385073Y-126047597D01*
X113455533Y-126027126D01*
X113542898Y-126001744D01*
X113601194Y-125967268D01*
X113664315Y-125950000D01*
X114320000Y-125950000D01*
X114320000Y-125400000D01*
X114057000Y-125400000D01*
X113989961Y-125380315D01*
X113944206Y-125327511D01*
X113933000Y-125276000D01*
X113933000Y-125224000D01*
X113952685Y-125156961D01*
X114005489Y-125111206D01*
X114057000Y-125100000D01*
X114320000Y-125100000D01*
X114320000Y-124550000D01*
X113664315Y-124550000D01*
X113601194Y-124532732D01*
X113597094Y-124530307D01*
X113542898Y-124498256D01*
X113542897Y-124498255D01*
X113542896Y-124498255D01*
X113542893Y-124498254D01*
X113385073Y-124452402D01*
X113385067Y-124452401D01*
X113348201Y-124449500D01*
X113348194Y-124449500D01*
X112987886Y-124449500D01*
X112920847Y-124429815D01*
X112900205Y-124413181D01*
X112537022Y-124049998D01*
X113335204Y-124049998D01*
X113335205Y-124050000D01*
X114320000Y-124050000D01*
X114320000Y-123500000D01*
X113916850Y-123500000D01*
X113880010Y-123502899D01*
X113880004Y-123502900D01*
X113722306Y-123548716D01*
X113722303Y-123548717D01*
X113580947Y-123632314D01*
X113580938Y-123632321D01*
X113464821Y-123748438D01*
X113464814Y-123748447D01*
X113381218Y-123889801D01*
X113335399Y-124047513D01*
X113335204Y-124049998D01*
X112537022Y-124049998D01*
X111180048Y-122693024D01*
X111149798Y-122643661D01*
X111141894Y-122619336D01*
X111097179Y-122481716D01*
X111002533Y-122317784D01*
X110875871Y-122177112D01*
X110875870Y-122177111D01*
X110722734Y-122065851D01*
X110722729Y-122065848D01*
X110549807Y-121988857D01*
X110549802Y-121988855D01*
X110385892Y-121954016D01*
X110364646Y-121949500D01*
X110175354Y-121949500D01*
X110154108Y-121954016D01*
X109990197Y-121988855D01*
X109990192Y-121988857D01*
X109817270Y-122065848D01*
X109817265Y-122065851D01*
X109664129Y-122177111D01*
X109537466Y-122317785D01*
X109442821Y-122481715D01*
X109442818Y-122481722D01*
X109384327Y-122661740D01*
X109384326Y-122661744D01*
X109364540Y-122850000D01*
X105566036Y-122850000D01*
X107504218Y-120911817D01*
X107565541Y-120878333D01*
X107591899Y-120875499D01*
X108522871Y-120875499D01*
X108522872Y-120875499D01*
X108582483Y-120869091D01*
X108717331Y-120818796D01*
X108832546Y-120732546D01*
X108918796Y-120617331D01*
X108969091Y-120482483D01*
X108975500Y-120422873D01*
X108975499Y-119557715D01*
X108995183Y-119490677D01*
X109047987Y-119444922D01*
X109117146Y-119434978D01*
X109180702Y-119464003D01*
X109204492Y-119491743D01*
X109211943Y-119503600D01*
X109321465Y-119677904D01*
X109367014Y-119727736D01*
X109474785Y-119845642D01*
X109640312Y-119971674D01*
X109655597Y-119983312D01*
X109826093Y-120070183D01*
X109858080Y-120086481D01*
X110075732Y-120151840D01*
X110301557Y-120177284D01*
X110301559Y-120177283D01*
X110301561Y-120177284D01*
X110345098Y-120174348D01*
X110528297Y-120161996D01*
X110748663Y-120106469D01*
X110955572Y-120012486D01*
X111142376Y-119883069D01*
X111638325Y-119387118D01*
X111699642Y-119353638D01*
X111769333Y-119358622D01*
X111825267Y-119400493D01*
X111849684Y-119465958D01*
X111850000Y-119474802D01*
X111850000Y-119549970D01*
X111850001Y-119549987D01*
X111860494Y-119652697D01*
X111915641Y-119819119D01*
X111915643Y-119819124D01*
X112007684Y-119968345D01*
X112131654Y-120092315D01*
X112280875Y-120184356D01*
X112280880Y-120184358D01*
X112447302Y-120239505D01*
X112447309Y-120239506D01*
X112550019Y-120249999D01*
X112650000Y-120249998D01*
X112650000Y-119074000D01*
X112669685Y-119006961D01*
X112722489Y-118961206D01*
X112774000Y-118950000D01*
X113026000Y-118950000D01*
X113093039Y-118969685D01*
X113138794Y-119022489D01*
X113150000Y-119074000D01*
X113150000Y-120249999D01*
X113249972Y-120249999D01*
X113249986Y-120249998D01*
X113352697Y-120239505D01*
X113519119Y-120184358D01*
X113519124Y-120184356D01*
X113668345Y-120092315D01*
X113792315Y-119968345D01*
X113884356Y-119819124D01*
X113884358Y-119819119D01*
X113939505Y-119652697D01*
X113939506Y-119652690D01*
X113949999Y-119549986D01*
X113949999Y-119519365D01*
X113969682Y-119452325D01*
X114022484Y-119406568D01*
X114091642Y-119396623D01*
X114155199Y-119425646D01*
X114161680Y-119431680D01*
X114180000Y-119450000D01*
X114730000Y-119450000D01*
X114730000Y-118465203D01*
X115230000Y-118465203D01*
X115230000Y-119450000D01*
X115780000Y-119450000D01*
X115780000Y-119046865D01*
X115779999Y-119046850D01*
X115777100Y-119010010D01*
X115777099Y-119010004D01*
X115731283Y-118852306D01*
X115731282Y-118852303D01*
X115647685Y-118710947D01*
X115647678Y-118710938D01*
X115531561Y-118594821D01*
X115531552Y-118594814D01*
X115390196Y-118511217D01*
X115390193Y-118511216D01*
X115232494Y-118465400D01*
X115232497Y-118465400D01*
X115230000Y-118465203D01*
X114730000Y-118465203D01*
X114727505Y-118465400D01*
X114721330Y-118466529D01*
X114651844Y-118459214D01*
X114597344Y-118415493D01*
X114575132Y-118349248D01*
X114582861Y-118301215D01*
X114614091Y-118217482D01*
X114620500Y-118157873D01*
X114620499Y-116862128D01*
X114614091Y-116802517D01*
X114596595Y-116755609D01*
X114563797Y-116667671D01*
X114563793Y-116667664D01*
X114477547Y-116552455D01*
X114477544Y-116552452D01*
X114355231Y-116460888D01*
X114356930Y-116458617D01*
X114317743Y-116419435D01*
X114302886Y-116351163D01*
X114327298Y-116285697D01*
X114356311Y-116260556D01*
X114355231Y-116259112D01*
X114454026Y-116185153D01*
X114477546Y-116167546D01*
X114563796Y-116052331D01*
X114566467Y-116045170D01*
X114608337Y-115989235D01*
X114673800Y-115964816D01*
X114682650Y-115964500D01*
X114981114Y-115964500D01*
X115048153Y-115984185D01*
X115068795Y-116000819D01*
X117355307Y-118287331D01*
X117388792Y-118348654D01*
X117383808Y-118418346D01*
X117341936Y-118474279D01*
X117276472Y-118498696D01*
X117233032Y-118494089D01*
X117132567Y-118464901D01*
X117095701Y-118462000D01*
X117095694Y-118462000D01*
X116664306Y-118462000D01*
X116664298Y-118462000D01*
X116627432Y-118464901D01*
X116627426Y-118464902D01*
X116469606Y-118510754D01*
X116469603Y-118510755D01*
X116328137Y-118594417D01*
X116328129Y-118594423D01*
X116211923Y-118710629D01*
X116211917Y-118710637D01*
X116128255Y-118852103D01*
X116128254Y-118852106D01*
X116082402Y-119009926D01*
X116082401Y-119009932D01*
X116079500Y-119046798D01*
X116079500Y-120213000D01*
X116059815Y-120280039D01*
X116007011Y-120325794D01*
X115955500Y-120337000D01*
X115904000Y-120337000D01*
X115836961Y-120317315D01*
X115791206Y-120264511D01*
X115780000Y-120213000D01*
X115780000Y-119950000D01*
X114180000Y-119950000D01*
X114180000Y-120353149D01*
X114182899Y-120389989D01*
X114182900Y-120389995D01*
X114228716Y-120547693D01*
X114228717Y-120547696D01*
X114279390Y-120633379D01*
X114296573Y-120701103D01*
X114274413Y-120767365D01*
X114219947Y-120811129D01*
X114172658Y-120820500D01*
X113389000Y-120820500D01*
X113371031Y-120819191D01*
X113347091Y-120815684D01*
X113300330Y-120819776D01*
X113297451Y-120820028D01*
X113286645Y-120820500D01*
X113281051Y-120820500D01*
X113250113Y-120824116D01*
X113246529Y-120824482D01*
X113171387Y-120831056D01*
X113164321Y-120832516D01*
X113164310Y-120832464D01*
X113156832Y-120834122D01*
X113156845Y-120834174D01*
X113149812Y-120835840D01*
X113078925Y-120861639D01*
X113075525Y-120862821D01*
X113003962Y-120886536D01*
X112997420Y-120889587D01*
X112997397Y-120889539D01*
X112990507Y-120892875D01*
X112990531Y-120892922D01*
X112984074Y-120896164D01*
X112933996Y-120929101D01*
X112867168Y-120949493D01*
X112865858Y-120949500D01*
X112549999Y-120949500D01*
X112549980Y-120949501D01*
X112447203Y-120960000D01*
X112447200Y-120960001D01*
X112280668Y-121015185D01*
X112280663Y-121015187D01*
X112131342Y-121107289D01*
X112007289Y-121231342D01*
X111915187Y-121380663D01*
X111915186Y-121380666D01*
X111860001Y-121547203D01*
X111860001Y-121547204D01*
X111860000Y-121547204D01*
X111849500Y-121649983D01*
X111849500Y-122350001D01*
X111849501Y-122350019D01*
X111860000Y-122452796D01*
X111860001Y-122452799D01*
X111915185Y-122619331D01*
X111915187Y-122619336D01*
X111942398Y-122663452D01*
X112007288Y-122768656D01*
X112131344Y-122892712D01*
X112280666Y-122984814D01*
X112447203Y-123039999D01*
X112549991Y-123050500D01*
X113250008Y-123050499D01*
X113250016Y-123050498D01*
X113250019Y-123050498D01*
X113306302Y-123044748D01*
X113352797Y-123039999D01*
X113519334Y-122984814D01*
X113668656Y-122892712D01*
X113792712Y-122768656D01*
X113884814Y-122619334D01*
X113939999Y-122452797D01*
X113941215Y-122440895D01*
X113967612Y-122376204D01*
X114024794Y-122336054D01*
X114064573Y-122329500D01*
X115058019Y-122329500D01*
X115125058Y-122349185D01*
X115170813Y-122401989D01*
X115177095Y-122418902D01*
X115178255Y-122422897D01*
X115261917Y-122564362D01*
X115261923Y-122564370D01*
X115383651Y-122686098D01*
X115381286Y-122688462D01*
X115413270Y-122732714D01*
X115417087Y-122802480D01*
X115413471Y-122813144D01*
X115413754Y-122813233D01*
X115411523Y-122820392D01*
X115411522Y-122820394D01*
X115375889Y-122934748D01*
X115360913Y-122982807D01*
X115354500Y-123053386D01*
X115354500Y-123376195D01*
X115334815Y-123443234D01*
X115282011Y-123488989D01*
X115225615Y-123499203D01*
X115225580Y-123500096D01*
X115223134Y-123500000D01*
X114820000Y-123500000D01*
X114820000Y-125100000D01*
X115223134Y-125100000D01*
X115225580Y-125099904D01*
X115225633Y-125101260D01*
X115288950Y-125114322D01*
X115338884Y-125163193D01*
X115353357Y-125213898D01*
X115354246Y-125213818D01*
X115354500Y-125216613D01*
X115354500Y-125216616D01*
X115357475Y-125249356D01*
X115358930Y-125265362D01*
X115345393Y-125333908D01*
X115296947Y-125384254D01*
X115228972Y-125400415D01*
X115225715Y-125400202D01*
X115223159Y-125400001D01*
X115223134Y-125400000D01*
X114820000Y-125400000D01*
X114820000Y-127000000D01*
X115223134Y-127000000D01*
X115223149Y-126999999D01*
X115259989Y-126997100D01*
X115259995Y-126997099D01*
X115405349Y-126954870D01*
X115475218Y-126955069D01*
X115518633Y-126979395D01*
X115518871Y-126979068D01*
X115521642Y-126981081D01*
X115522914Y-126981794D01*
X115524130Y-126982889D01*
X115677265Y-127094148D01*
X115677270Y-127094151D01*
X115850192Y-127171142D01*
X115850197Y-127171144D01*
X116035354Y-127210500D01*
X116035355Y-127210500D01*
X116224644Y-127210500D01*
X116224646Y-127210500D01*
X116409803Y-127171144D01*
X116439671Y-127157845D01*
X116508917Y-127148560D01*
X116572194Y-127178188D01*
X116577786Y-127183444D01*
X116644811Y-127250469D01*
X116644813Y-127250470D01*
X116644815Y-127250472D01*
X116771619Y-127327128D01*
X116818807Y-127378656D01*
X116830791Y-127446199D01*
X116829692Y-127456659D01*
X116849478Y-127644915D01*
X116849479Y-127644918D01*
X116907970Y-127824936D01*
X116907973Y-127824943D01*
X117002619Y-127988875D01*
X117097612Y-128094375D01*
X117129281Y-128129547D01*
X117282417Y-128240807D01*
X117282422Y-128240810D01*
X117455344Y-128317801D01*
X117455349Y-128317803D01*
X117640506Y-128357159D01*
X117640507Y-128357159D01*
X117829796Y-128357159D01*
X117829798Y-128357159D01*
X118014955Y-128317803D01*
X118187882Y-128240810D01*
X118341023Y-128129547D01*
X118467685Y-127988875D01*
X118513531Y-127909464D01*
X118533232Y-127883790D01*
X118985205Y-127431819D01*
X119046528Y-127398334D01*
X119072886Y-127395500D01*
X119186613Y-127395500D01*
X119186616Y-127395500D01*
X119257196Y-127389086D01*
X119419606Y-127338478D01*
X119565185Y-127250472D01*
X119685472Y-127130185D01*
X119773478Y-126984606D01*
X119824086Y-126822196D01*
X119830500Y-126751616D01*
X119830500Y-126088384D01*
X119824086Y-126017804D01*
X119773478Y-125855394D01*
X119685472Y-125709815D01*
X119685470Y-125709813D01*
X119685469Y-125709811D01*
X119565188Y-125589530D01*
X119489651Y-125543866D01*
X119419606Y-125501522D01*
X119419604Y-125501521D01*
X119419602Y-125501520D01*
X119419603Y-125501520D01*
X119344629Y-125478158D01*
X119286481Y-125439421D01*
X119258507Y-125375396D01*
X119269589Y-125306410D01*
X119316207Y-125254367D01*
X119383562Y-125235790D01*
X119405715Y-125238157D01*
X119407894Y-125238590D01*
X119478418Y-125244999D01*
X119559999Y-125244998D01*
X119560000Y-125244998D01*
X119560000Y-124219000D01*
X119579685Y-124151961D01*
X119632489Y-124106206D01*
X119684000Y-124095000D01*
X120784999Y-124095000D01*
X120784999Y-124088417D01*
X120778591Y-124017897D01*
X120778590Y-124017892D01*
X120728018Y-123855603D01*
X120640072Y-123710122D01*
X120537984Y-123608034D01*
X120504499Y-123546711D01*
X120509483Y-123477019D01*
X120537983Y-123432673D01*
X120640472Y-123330185D01*
X120728478Y-123184606D01*
X120779086Y-123022196D01*
X120785500Y-122951616D01*
X120785500Y-122438384D01*
X120779086Y-122367804D01*
X120728478Y-122205394D01*
X120656934Y-122087047D01*
X120639099Y-122019493D01*
X120660617Y-121953019D01*
X120663734Y-121948778D01*
X120752544Y-121804795D01*
X120752543Y-121804795D01*
X120752549Y-121804787D01*
X120783983Y-121709924D01*
X120823753Y-121652483D01*
X120888268Y-121625659D01*
X120957044Y-121637973D01*
X120989368Y-121661250D01*
X121011575Y-121683457D01*
X121011578Y-121683459D01*
X121011581Y-121683462D01*
X121134503Y-121765594D01*
X121134509Y-121765596D01*
X121134510Y-121765597D01*
X121271081Y-121822166D01*
X121271086Y-121822168D01*
X121271090Y-121822168D01*
X121271091Y-121822169D01*
X121416079Y-121851010D01*
X121416082Y-121851010D01*
X121489901Y-121851010D01*
X124140472Y-121851010D01*
X124207511Y-121870695D01*
X124253266Y-121923499D01*
X124263210Y-121992657D01*
X124243163Y-122044512D01*
X124238661Y-122051163D01*
X124238655Y-122051173D01*
X124158030Y-122239449D01*
X124158028Y-122239456D01*
X124114491Y-122439589D01*
X124111750Y-122485621D01*
X124111750Y-123794378D01*
X124114491Y-123840410D01*
X124158028Y-124040543D01*
X124158031Y-124040551D01*
X124233675Y-124217197D01*
X124241970Y-124286573D01*
X124211441Y-124349420D01*
X124151780Y-124385785D01*
X124119687Y-124390010D01*
X121541372Y-124390010D01*
X121541338Y-124390000D01*
X121490000Y-124390000D01*
X121416082Y-124390000D01*
X121416080Y-124390000D01*
X121271091Y-124418840D01*
X121271085Y-124418842D01*
X121134506Y-124475414D01*
X121011579Y-124557553D01*
X120967246Y-124601886D01*
X120905923Y-124635370D01*
X120836231Y-124630385D01*
X120791885Y-124601885D01*
X120785000Y-124595000D01*
X120060000Y-124595000D01*
X120060000Y-125244999D01*
X120141581Y-125244999D01*
X120212102Y-125238591D01*
X120212107Y-125238590D01*
X120374396Y-125188018D01*
X120519877Y-125100072D01*
X120519878Y-125100071D01*
X120527819Y-125092131D01*
X120589142Y-125058646D01*
X120658834Y-125063630D01*
X120714767Y-125105502D01*
X120739184Y-125170966D01*
X120739500Y-125179812D01*
X120739500Y-133634413D01*
X120738903Y-133646571D01*
X120736095Y-133675073D01*
X120735913Y-133676793D01*
X120723876Y-133783665D01*
X120719315Y-133805784D01*
X120704090Y-133855972D01*
X120702471Y-133860930D01*
X120676325Y-133935650D01*
X120668641Y-133953151D01*
X120641544Y-134003843D01*
X120637181Y-134011359D01*
X120597643Y-134074284D01*
X120588501Y-134086978D01*
X120551060Y-134132599D01*
X120542888Y-134141615D01*
X120491105Y-134193397D01*
X120482089Y-134201569D01*
X120436470Y-134239007D01*
X120423779Y-134248146D01*
X120360853Y-134287686D01*
X120353331Y-134292052D01*
X120302641Y-134319145D01*
X120285144Y-134326828D01*
X120210411Y-134352978D01*
X120205453Y-134354596D01*
X120155267Y-134369820D01*
X120133154Y-134374380D01*
X120026862Y-134386356D01*
X120025136Y-134386539D01*
X120006960Y-134388329D01*
X119995957Y-134389413D01*
X119983806Y-134390010D01*
X105827998Y-134390010D01*
X105760959Y-134370325D01*
X105715204Y-134317521D01*
X105705260Y-134248363D01*
X105722459Y-134200914D01*
X105734354Y-134181628D01*
X105734358Y-134181619D01*
X105789505Y-134015197D01*
X105789506Y-134015190D01*
X105799999Y-133912486D01*
X105800000Y-133912473D01*
X105800000Y-133112500D01*
X103000001Y-133112500D01*
X103000001Y-133912486D01*
X103010494Y-134015197D01*
X103065641Y-134181619D01*
X103065644Y-134181626D01*
X103075982Y-134198385D01*
X103094423Y-134265777D01*
X103073501Y-134332441D01*
X103019860Y-134377211D01*
X102958302Y-134386887D01*
X102955751Y-134386636D01*
X102954001Y-134386451D01*
X102846736Y-134374358D01*
X102824633Y-134369800D01*
X102774997Y-134354743D01*
X102770040Y-134353124D01*
X102694734Y-134326775D01*
X102677235Y-134319092D01*
X102626917Y-134292196D01*
X102619400Y-134287833D01*
X102556093Y-134248055D01*
X102543399Y-134238914D01*
X102498051Y-134201698D01*
X102489035Y-134193526D01*
X102436977Y-134141468D01*
X102428807Y-134132454D01*
X102416429Y-134117372D01*
X102391583Y-134087097D01*
X102382457Y-134074427D01*
X102342666Y-134011101D01*
X102338321Y-134003616D01*
X102311405Y-133953261D01*
X102303727Y-133935774D01*
X102277365Y-133860438D01*
X102275773Y-133855560D01*
X102260701Y-133805878D01*
X102256144Y-133783780D01*
X102243984Y-133675867D01*
X102243810Y-133674218D01*
X102241097Y-133646669D01*
X102240500Y-133634516D01*
X102240500Y-132612500D01*
X103000000Y-132612500D01*
X104150000Y-132612500D01*
X104150000Y-131112500D01*
X104650000Y-131112500D01*
X104650000Y-132612500D01*
X105799999Y-132612500D01*
X105799999Y-131812528D01*
X105799998Y-131812513D01*
X105789505Y-131709802D01*
X105734358Y-131543380D01*
X105734356Y-131543375D01*
X105642315Y-131394154D01*
X105518345Y-131270184D01*
X105369124Y-131178143D01*
X105369119Y-131178141D01*
X105202697Y-131122994D01*
X105202690Y-131122993D01*
X105099986Y-131112500D01*
X104650000Y-131112500D01*
X104150000Y-131112500D01*
X103700028Y-131112500D01*
X103700012Y-131112501D01*
X103597302Y-131122994D01*
X103430880Y-131178141D01*
X103430875Y-131178143D01*
X103281654Y-131270184D01*
X103157684Y-131394154D01*
X103065643Y-131543375D01*
X103065641Y-131543380D01*
X103010494Y-131709802D01*
X103010493Y-131709809D01*
X103000000Y-131812513D01*
X103000000Y-132612500D01*
X102240500Y-132612500D01*
X102240500Y-129114795D01*
X102240500Y-129114793D01*
X102206429Y-128932530D01*
X102139448Y-128759631D01*
X102059024Y-128629743D01*
X102040469Y-128562383D01*
X102061278Y-128495684D01*
X102114843Y-128450822D01*
X102146803Y-128441728D01*
X102192457Y-128435165D01*
X102323373Y-128375377D01*
X102432143Y-128281128D01*
X102509953Y-128160053D01*
X102550500Y-128021961D01*
X102550500Y-127878039D01*
X102530591Y-127810233D01*
X102509954Y-127739949D01*
X102509953Y-127739948D01*
X102509953Y-127739947D01*
X102447031Y-127642039D01*
X102427347Y-127575000D01*
X102447032Y-127507961D01*
X102447032Y-127507960D01*
X102509953Y-127410053D01*
X102550500Y-127271961D01*
X102550500Y-127128039D01*
X102531278Y-127062575D01*
X102509954Y-126989949D01*
X102509953Y-126989948D01*
X102509953Y-126989947D01*
X102447031Y-126892039D01*
X102427347Y-126825000D01*
X102447032Y-126757961D01*
X102447032Y-126757960D01*
X102451111Y-126751613D01*
X102509953Y-126660053D01*
X102550500Y-126521961D01*
X102550500Y-126378039D01*
X102509953Y-126239947D01*
X102432143Y-126118872D01*
X102323373Y-126024623D01*
X102203765Y-125969999D01*
X102192455Y-125964834D01*
X102192457Y-125964834D01*
X102155337Y-125959498D01*
X102091782Y-125930473D01*
X102054007Y-125871695D01*
X102054007Y-125801826D01*
X102067555Y-125771484D01*
X102139448Y-125655375D01*
X102206429Y-125482476D01*
X102240500Y-125300213D01*
X102240500Y-125207503D01*
X102240500Y-125207003D01*
X102240500Y-116170917D01*
X102260185Y-116103878D01*
X102312989Y-116058123D01*
X102382147Y-116048179D01*
X102445703Y-116077204D01*
X102456648Y-116087943D01*
X102524129Y-116162888D01*
X102677265Y-116274148D01*
X102677270Y-116274151D01*
X102850192Y-116351142D01*
X102850197Y-116351144D01*
X103035354Y-116390500D01*
X103035355Y-116390500D01*
X103224644Y-116390500D01*
X103224646Y-116390500D01*
X103409803Y-116351144D01*
X103582730Y-116274151D01*
X103735871Y-116162888D01*
X103862533Y-116022216D01*
X103957179Y-115858284D01*
X104015674Y-115678256D01*
X104034247Y-115501536D01*
X104060832Y-115436923D01*
X104118129Y-115396938D01*
X104157568Y-115390499D01*
X105170002Y-115390499D01*
X105170008Y-115390499D01*
X105272797Y-115379999D01*
X105439334Y-115324814D01*
X105588656Y-115232712D01*
X105712712Y-115108656D01*
X105804814Y-114959334D01*
X105859999Y-114792797D01*
X105870500Y-114690009D01*
X105870500Y-114240000D01*
X106370001Y-114240000D01*
X106370001Y-114689986D01*
X106380494Y-114792697D01*
X106435641Y-114959119D01*
X106435643Y-114959124D01*
X106527684Y-115108345D01*
X106651654Y-115232315D01*
X106800875Y-115324356D01*
X106800880Y-115324358D01*
X106967302Y-115379505D01*
X106967309Y-115379506D01*
X107070019Y-115389999D01*
X107869999Y-115389999D01*
X107870000Y-115389998D01*
X107870000Y-114240000D01*
X106370001Y-114240000D01*
X105870500Y-114240000D01*
X105870499Y-113740000D01*
X106370000Y-113740000D01*
X107870000Y-113740000D01*
X107870000Y-112590000D01*
X107070028Y-112590000D01*
X107070012Y-112590001D01*
X106967302Y-112600494D01*
X106800880Y-112655641D01*
X106800875Y-112655643D01*
X106651654Y-112747684D01*
X106527684Y-112871654D01*
X106435643Y-113020875D01*
X106435641Y-113020880D01*
X106380494Y-113187302D01*
X106380493Y-113187309D01*
X106370000Y-113290013D01*
X106370000Y-113740000D01*
X105870499Y-113740000D01*
X105870499Y-113289992D01*
X105863725Y-113223683D01*
X105859999Y-113187203D01*
X105859998Y-113187200D01*
X105830453Y-113098039D01*
X105804814Y-113020666D01*
X105712712Y-112871344D01*
X105588656Y-112747288D01*
X105495888Y-112690069D01*
X105439336Y-112655187D01*
X105439335Y-112655186D01*
X105439334Y-112655186D01*
X105276995Y-112601392D01*
X105219551Y-112561619D01*
X105192728Y-112497103D01*
X105192000Y-112483686D01*
X105192000Y-109080005D01*
X106019945Y-109080005D01*
X106040130Y-109323605D01*
X106100138Y-109560573D01*
X106198330Y-109784429D01*
X106294626Y-109931819D01*
X106897452Y-109328993D01*
X106907188Y-109358956D01*
X106995186Y-109497619D01*
X107114903Y-109610040D01*
X107249510Y-109684041D01*
X106647758Y-110285794D01*
X106647758Y-110285796D01*
X106690478Y-110319046D01*
X106690484Y-110319050D01*
X106905468Y-110435394D01*
X106905476Y-110435397D01*
X107136664Y-110514765D01*
X107377779Y-110555000D01*
X107622221Y-110555000D01*
X107863335Y-110514765D01*
X108094523Y-110435397D01*
X108094531Y-110435394D01*
X108309514Y-110319051D01*
X108309514Y-110319050D01*
X108352240Y-110285795D01*
X108352240Y-110285794D01*
X107747534Y-109681086D01*
X107815629Y-109654126D01*
X107948492Y-109557595D01*
X108053175Y-109431055D01*
X108101631Y-109328078D01*
X108705372Y-109931819D01*
X108801667Y-109784431D01*
X108801672Y-109784423D01*
X108899861Y-109560573D01*
X108959869Y-109323605D01*
X108980055Y-109080005D01*
X108980055Y-109079994D01*
X108959869Y-108836394D01*
X108899861Y-108599426D01*
X108843090Y-108470000D01*
X109324540Y-108470000D01*
X109344326Y-108658256D01*
X109344327Y-108658259D01*
X109402818Y-108838277D01*
X109402821Y-108838284D01*
X109497467Y-109002216D01*
X109608331Y-109125343D01*
X109624129Y-109142888D01*
X109777265Y-109254148D01*
X109777270Y-109254151D01*
X109950191Y-109331142D01*
X109950193Y-109331142D01*
X109950197Y-109331144D01*
X110008148Y-109343461D01*
X110069627Y-109376653D01*
X110070046Y-109377070D01*
X111361234Y-110668258D01*
X111373015Y-110681890D01*
X111387461Y-110701294D01*
X111425638Y-110733328D01*
X111433614Y-110740638D01*
X111437554Y-110744579D01*
X111462010Y-110763916D01*
X111464807Y-110766195D01*
X111522572Y-110814667D01*
X111528609Y-110818637D01*
X111528579Y-110818682D01*
X111535038Y-110822796D01*
X111535067Y-110822750D01*
X111541207Y-110826537D01*
X111541209Y-110826539D01*
X111609557Y-110858410D01*
X111612775Y-110859968D01*
X111652663Y-110880000D01*
X111680189Y-110893824D01*
X111680191Y-110893824D01*
X111686979Y-110896295D01*
X111686960Y-110896347D01*
X111694188Y-110898859D01*
X111694206Y-110898808D01*
X111701055Y-110901077D01*
X111701056Y-110901077D01*
X111701060Y-110901079D01*
X111774972Y-110916339D01*
X111778419Y-110917104D01*
X111851812Y-110934500D01*
X111857402Y-110935825D01*
X111869728Y-110938317D01*
X112004931Y-110977598D01*
X112041806Y-110980500D01*
X112041814Y-110980500D01*
X113348186Y-110980500D01*
X113348194Y-110980500D01*
X113385069Y-110977598D01*
X113385071Y-110977597D01*
X113385073Y-110977597D01*
X113428583Y-110964956D01*
X113542898Y-110931744D01*
X113601194Y-110897268D01*
X113664315Y-110880000D01*
X114320000Y-110880000D01*
X114320000Y-110330000D01*
X114057000Y-110330000D01*
X113989961Y-110310315D01*
X113944206Y-110257511D01*
X113933000Y-110206000D01*
X113933000Y-110154000D01*
X113952685Y-110086961D01*
X114005489Y-110041206D01*
X114057000Y-110030000D01*
X114320000Y-110030000D01*
X114320000Y-109480000D01*
X113664315Y-109480000D01*
X113601194Y-109462732D01*
X113542896Y-109428255D01*
X113542893Y-109428254D01*
X113385073Y-109382402D01*
X113385067Y-109382401D01*
X113348201Y-109379500D01*
X113348194Y-109379500D01*
X112257886Y-109379500D01*
X112190847Y-109359815D01*
X112170205Y-109343181D01*
X111140048Y-108313024D01*
X111109798Y-108263661D01*
X111098269Y-108228179D01*
X111071980Y-108147267D01*
X111057181Y-108101721D01*
X111057178Y-108101715D01*
X110962533Y-107937784D01*
X110835871Y-107797112D01*
X110822940Y-107787717D01*
X110682734Y-107685851D01*
X110682729Y-107685848D01*
X110509807Y-107608857D01*
X110509802Y-107608855D01*
X110364001Y-107577865D01*
X110324646Y-107569500D01*
X110135354Y-107569500D01*
X110102897Y-107576398D01*
X109950197Y-107608855D01*
X109950192Y-107608857D01*
X109777270Y-107685848D01*
X109777265Y-107685851D01*
X109624129Y-107797111D01*
X109497466Y-107937785D01*
X109402821Y-108101715D01*
X109402818Y-108101722D01*
X109344327Y-108281740D01*
X109344326Y-108281744D01*
X109324540Y-108470000D01*
X108843090Y-108470000D01*
X108801669Y-108375570D01*
X108705372Y-108228179D01*
X108102546Y-108831004D01*
X108092812Y-108801044D01*
X108004814Y-108662381D01*
X107885097Y-108549960D01*
X107750488Y-108475957D01*
X108352240Y-107874204D01*
X108352240Y-107874203D01*
X108309514Y-107840949D01*
X108094531Y-107724605D01*
X108094523Y-107724602D01*
X107863335Y-107645234D01*
X107622221Y-107605000D01*
X107377779Y-107605000D01*
X107136664Y-107645234D01*
X106905476Y-107724602D01*
X106905468Y-107724605D01*
X106690481Y-107840951D01*
X106647758Y-107874202D01*
X106647757Y-107874204D01*
X107252466Y-108478912D01*
X107184371Y-108505874D01*
X107051508Y-108602405D01*
X106946825Y-108728945D01*
X106898368Y-108831921D01*
X106294626Y-108228179D01*
X106198328Y-108375575D01*
X106100138Y-108599426D01*
X106040130Y-108836394D01*
X106019945Y-109079994D01*
X106019945Y-109080005D01*
X105192000Y-109080005D01*
X105192000Y-107875398D01*
X105211685Y-107808359D01*
X105228314Y-107787722D01*
X107504218Y-105511817D01*
X107565541Y-105478333D01*
X107591899Y-105475499D01*
X108522871Y-105475499D01*
X108522872Y-105475499D01*
X108582483Y-105469091D01*
X108717331Y-105418796D01*
X108832546Y-105332546D01*
X108918796Y-105217331D01*
X108969091Y-105082483D01*
X108975500Y-105022873D01*
X108975500Y-105020000D01*
X111840001Y-105020000D01*
X111840001Y-105119986D01*
X111850494Y-105222697D01*
X111905641Y-105389119D01*
X111905643Y-105389124D01*
X111997684Y-105538345D01*
X112121654Y-105662315D01*
X112270875Y-105754356D01*
X112270880Y-105754358D01*
X112437302Y-105809505D01*
X112437309Y-105809506D01*
X112540019Y-105819999D01*
X112640000Y-105819998D01*
X112640000Y-105020000D01*
X113140000Y-105020000D01*
X113140000Y-105819999D01*
X113239972Y-105819999D01*
X113239986Y-105819998D01*
X113342697Y-105809505D01*
X113509119Y-105754358D01*
X113509124Y-105754356D01*
X113658345Y-105662315D01*
X113782315Y-105538345D01*
X113812135Y-105490000D01*
X114200000Y-105490000D01*
X114200000Y-105893149D01*
X114202899Y-105929989D01*
X114202900Y-105929995D01*
X114248716Y-106087693D01*
X114248717Y-106087696D01*
X114332314Y-106229052D01*
X114332321Y-106229061D01*
X114448438Y-106345178D01*
X114448447Y-106345185D01*
X114589801Y-106428781D01*
X114747514Y-106474600D01*
X114747511Y-106474600D01*
X114749998Y-106474795D01*
X114750000Y-106474795D01*
X114750000Y-105490000D01*
X114200000Y-105490000D01*
X113812135Y-105490000D01*
X113874356Y-105389124D01*
X113874358Y-105389119D01*
X113929505Y-105222697D01*
X113929506Y-105222690D01*
X113939999Y-105119986D01*
X113940000Y-105119973D01*
X113940000Y-105020000D01*
X113140000Y-105020000D01*
X112640000Y-105020000D01*
X111840001Y-105020000D01*
X108975500Y-105020000D01*
X108975499Y-104091897D01*
X108995183Y-104024859D01*
X109011813Y-104004222D01*
X109065978Y-103950057D01*
X109127299Y-103916574D01*
X109196991Y-103921558D01*
X109252924Y-103963430D01*
X109277341Y-104028886D01*
X109278034Y-104038577D01*
X109331022Y-104236330D01*
X109331023Y-104236333D01*
X109406790Y-104392306D01*
X109420476Y-104420480D01*
X109543164Y-104584372D01*
X109694652Y-104722083D01*
X109694654Y-104722084D01*
X109694655Y-104722085D01*
X109734861Y-104746592D01*
X109869465Y-104828638D01*
X110061284Y-104900182D01*
X110061287Y-104900182D01*
X110061289Y-104900183D01*
X110136841Y-104912888D01*
X110263176Y-104934133D01*
X110467846Y-104929261D01*
X110667895Y-104885743D01*
X110856092Y-104805151D01*
X111025636Y-104690401D01*
X111587620Y-104128415D01*
X111626484Y-104102111D01*
X111666092Y-104085151D01*
X111691860Y-104067710D01*
X111704521Y-104060196D01*
X111713197Y-104055723D01*
X111781797Y-104042496D01*
X111846664Y-104068459D01*
X111887197Y-104125369D01*
X111890528Y-104195159D01*
X111887727Y-104204939D01*
X111850495Y-104317298D01*
X111850493Y-104317309D01*
X111840000Y-104420013D01*
X111840000Y-104520000D01*
X113939999Y-104520000D01*
X113939999Y-104420028D01*
X113939998Y-104420013D01*
X113929505Y-104317302D01*
X113888482Y-104193503D01*
X113886080Y-104123675D01*
X113921812Y-104063633D01*
X113984332Y-104032440D01*
X114006187Y-104030499D01*
X114177872Y-104030499D01*
X114237483Y-104024091D01*
X114237482Y-104024091D01*
X114245196Y-104023262D01*
X114245448Y-104025610D01*
X114303475Y-104028711D01*
X114360154Y-104069568D01*
X114385747Y-104134581D01*
X114372127Y-104203111D01*
X114349925Y-104233334D01*
X114332322Y-104250936D01*
X114332314Y-104250947D01*
X114248717Y-104392303D01*
X114248716Y-104392306D01*
X114202900Y-104550004D01*
X114202899Y-104550010D01*
X114200000Y-104586850D01*
X114200000Y-104990000D01*
X114750000Y-104990000D01*
X114750000Y-104005203D01*
X114747508Y-104005400D01*
X114658619Y-104031225D01*
X114588749Y-104031025D01*
X114530079Y-103993082D01*
X114501236Y-103929444D01*
X114511377Y-103860314D01*
X114524754Y-103837842D01*
X114573796Y-103772331D01*
X114624091Y-103637483D01*
X114630500Y-103577873D01*
X114630499Y-102741042D01*
X114650183Y-102674004D01*
X114702987Y-102628249D01*
X114772146Y-102618305D01*
X114835702Y-102647330D01*
G37*
%TD.AperFunction*%
%TA.AperFunction,Conductor*%
G36*
X120223039Y-110649685D02*
G01*
X120268794Y-110702489D01*
X120280000Y-110754000D01*
X120280000Y-111854999D01*
X120286581Y-111854999D01*
X120357102Y-111848591D01*
X120357107Y-111848590D01*
X120519398Y-111798018D01*
X120551349Y-111778703D01*
X120618904Y-111760866D01*
X120685377Y-111782383D01*
X120729666Y-111836423D01*
X120739500Y-111884819D01*
X120739500Y-112903954D01*
X120719815Y-112970993D01*
X120667011Y-113016748D01*
X120597853Y-113026692D01*
X120571193Y-113017820D01*
X120570641Y-113019303D01*
X120427482Y-112965908D01*
X120427483Y-112965908D01*
X120367883Y-112959501D01*
X120367881Y-112959500D01*
X120367873Y-112959500D01*
X120367864Y-112959500D01*
X118072129Y-112959500D01*
X118072123Y-112959501D01*
X118012516Y-112965908D01*
X117877671Y-113016202D01*
X117877664Y-113016206D01*
X117762455Y-113102452D01*
X117762452Y-113102455D01*
X117676206Y-113217664D01*
X117676202Y-113217671D01*
X117625908Y-113352517D01*
X117619501Y-113412116D01*
X117619500Y-113412135D01*
X117619500Y-116118114D01*
X117599815Y-116185153D01*
X117547011Y-116230908D01*
X117477853Y-116240852D01*
X117414297Y-116211827D01*
X117407819Y-116205795D01*
X115923766Y-114721742D01*
X115911984Y-114708109D01*
X115898509Y-114690009D01*
X115897539Y-114688706D01*
X115897537Y-114688704D01*
X115897538Y-114688704D01*
X115868872Y-114664652D01*
X115859362Y-114656671D01*
X115851384Y-114649360D01*
X115847444Y-114645419D01*
X115822987Y-114626081D01*
X115820226Y-114623832D01*
X115795180Y-114602816D01*
X115756480Y-114544647D01*
X115755372Y-114474786D01*
X115792209Y-114415416D01*
X115824446Y-114394553D01*
X115892730Y-114364151D01*
X116045871Y-114252888D01*
X116172533Y-114112216D01*
X116267179Y-113948284D01*
X116325674Y-113768256D01*
X116345460Y-113580000D01*
X116325674Y-113391744D01*
X116267179Y-113211716D01*
X116172533Y-113047784D01*
X116045871Y-112907112D01*
X116045870Y-112907111D01*
X115892734Y-112795851D01*
X115892729Y-112795848D01*
X115719807Y-112718857D01*
X115719805Y-112718856D01*
X115661850Y-112706537D01*
X115600369Y-112673343D01*
X115599952Y-112672928D01*
X115348766Y-112421742D01*
X115336984Y-112408109D01*
X115333604Y-112403569D01*
X115322539Y-112388706D01*
X115322537Y-112388704D01*
X115322538Y-112388704D01*
X115284367Y-112356676D01*
X115276384Y-112349360D01*
X115272444Y-112345419D01*
X115247987Y-112326081D01*
X115245191Y-112323803D01*
X115187427Y-112275333D01*
X115181394Y-112271365D01*
X115181422Y-112271321D01*
X115174961Y-112267204D01*
X115174934Y-112267250D01*
X115168790Y-112263460D01*
X115100442Y-112231589D01*
X115097196Y-112230017D01*
X115029815Y-112196177D01*
X115023031Y-112193708D01*
X115023049Y-112193658D01*
X115015807Y-112191141D01*
X115015791Y-112191191D01*
X115008940Y-112188920D01*
X114943645Y-112175438D01*
X114881972Y-112142603D01*
X114847840Y-112081638D01*
X114852088Y-112011897D01*
X114893365Y-111955524D01*
X114958568Y-111930416D01*
X114968721Y-111930000D01*
X115223134Y-111930000D01*
X115223149Y-111929999D01*
X115259989Y-111927100D01*
X115259995Y-111927099D01*
X115417693Y-111881283D01*
X115417696Y-111881282D01*
X115559052Y-111797685D01*
X115559054Y-111797683D01*
X115563324Y-111793414D01*
X115624646Y-111759926D01*
X115694338Y-111764907D01*
X115715154Y-111774971D01*
X115795394Y-111823478D01*
X115957804Y-111874086D01*
X116028384Y-111880500D01*
X116028387Y-111880500D01*
X116691610Y-111880500D01*
X116691616Y-111880500D01*
X116693435Y-111880334D01*
X116693777Y-111880401D01*
X116694415Y-111880373D01*
X116694421Y-111880500D01*
X116694426Y-111880500D01*
X116694426Y-111880529D01*
X116761981Y-111893859D01*
X116777561Y-111903505D01*
X116847265Y-111954148D01*
X116847270Y-111954151D01*
X117020192Y-112031142D01*
X117020197Y-112031144D01*
X117205354Y-112070500D01*
X117205355Y-112070500D01*
X117394644Y-112070500D01*
X117394646Y-112070500D01*
X117579803Y-112031144D01*
X117752730Y-111954151D01*
X117893653Y-111851764D01*
X117959455Y-111828286D01*
X118003423Y-111833698D01*
X118052804Y-111849086D01*
X118123384Y-111855500D01*
X118123387Y-111855500D01*
X118636613Y-111855500D01*
X118636616Y-111855500D01*
X118707196Y-111849086D01*
X118869606Y-111798478D01*
X119015185Y-111710472D01*
X119117673Y-111607983D01*
X119178994Y-111574499D01*
X119248685Y-111579483D01*
X119293034Y-111607984D01*
X119395122Y-111710072D01*
X119540604Y-111798019D01*
X119540603Y-111798019D01*
X119702894Y-111848590D01*
X119702893Y-111848590D01*
X119773408Y-111854998D01*
X119773426Y-111854999D01*
X119779999Y-111854998D01*
X119780000Y-111854998D01*
X119780000Y-110754000D01*
X119799685Y-110686961D01*
X119852489Y-110641206D01*
X119904000Y-110630000D01*
X120156000Y-110630000D01*
X120223039Y-110649685D01*
G37*
%TD.AperFunction*%
%TA.AperFunction,Conductor*%
G36*
X115153154Y-86054185D02*
G01*
X115173796Y-86070819D01*
X117395796Y-88292819D01*
X117429281Y-88354142D01*
X117424297Y-88423834D01*
X117382425Y-88479767D01*
X117316961Y-88504184D01*
X117308115Y-88504500D01*
X116914298Y-88504500D01*
X116877432Y-88507401D01*
X116877426Y-88507402D01*
X116719606Y-88553254D01*
X116719603Y-88553255D01*
X116578137Y-88636917D01*
X116578129Y-88636923D01*
X116461923Y-88753129D01*
X116461917Y-88753137D01*
X116378255Y-88894603D01*
X116378254Y-88894606D01*
X116332402Y-89052426D01*
X116332401Y-89052432D01*
X116329500Y-89089298D01*
X116329500Y-90255500D01*
X116309815Y-90322539D01*
X116257011Y-90368294D01*
X116205500Y-90379500D01*
X116154000Y-90379500D01*
X116086961Y-90359815D01*
X116041206Y-90307011D01*
X116030000Y-90255500D01*
X116030000Y-89992500D01*
X114430000Y-89992500D01*
X114430000Y-90395649D01*
X114432899Y-90432489D01*
X114432900Y-90432495D01*
X114478716Y-90590193D01*
X114478717Y-90590196D01*
X114529390Y-90675879D01*
X114546573Y-90743603D01*
X114524413Y-90809865D01*
X114469947Y-90853629D01*
X114422658Y-90863000D01*
X114087333Y-90863000D01*
X114053986Y-90856617D01*
X114053585Y-90858117D01*
X114046614Y-90856249D01*
X114046608Y-90856248D01*
X113984637Y-90847170D01*
X113977544Y-90845918D01*
X113966299Y-90843597D01*
X113916206Y-90833253D01*
X113904867Y-90833583D01*
X113883298Y-90832326D01*
X113872100Y-90830686D01*
X113872087Y-90830685D01*
X113809727Y-90836141D01*
X113802531Y-90836560D01*
X113739908Y-90838383D01*
X113739904Y-90838384D01*
X113728956Y-90841317D01*
X113707676Y-90845069D01*
X113696383Y-90846056D01*
X113690440Y-90847284D01*
X113620805Y-90841560D01*
X113565319Y-90799097D01*
X113541599Y-90733377D01*
X113557175Y-90665266D01*
X113600274Y-90620306D01*
X113698343Y-90559817D01*
X113822315Y-90435845D01*
X113914356Y-90286624D01*
X113914358Y-90286619D01*
X113969505Y-90120197D01*
X113969506Y-90120190D01*
X113979999Y-90017486D01*
X113980000Y-90017473D01*
X113980000Y-89917500D01*
X113180000Y-89917500D01*
X113180000Y-90717499D01*
X113279972Y-90717499D01*
X113279986Y-90717498D01*
X113382688Y-90707006D01*
X113387143Y-90706053D01*
X113456818Y-90711265D01*
X113512615Y-90753319D01*
X113536818Y-90818862D01*
X113521744Y-90887086D01*
X113478217Y-90932835D01*
X113475674Y-90934404D01*
X113469417Y-90938017D01*
X113414291Y-90967742D01*
X113405820Y-90975280D01*
X113388498Y-90988175D01*
X113378849Y-90994127D01*
X113378841Y-90994133D01*
X113334552Y-91038422D01*
X113329307Y-91043371D01*
X113282535Y-91084994D01*
X113282534Y-91084995D01*
X113276032Y-91094281D01*
X113262142Y-91110832D01*
X112992293Y-91380681D01*
X112930970Y-91414166D01*
X112904612Y-91417000D01*
X112579999Y-91417000D01*
X112579980Y-91417001D01*
X112477203Y-91427500D01*
X112477200Y-91427501D01*
X112310668Y-91482685D01*
X112310663Y-91482687D01*
X112161342Y-91574789D01*
X112037289Y-91698842D01*
X111945187Y-91848163D01*
X111945186Y-91848166D01*
X111890001Y-92014703D01*
X111890001Y-92014704D01*
X111890000Y-92014704D01*
X111879500Y-92117483D01*
X111879500Y-92817501D01*
X111879501Y-92817519D01*
X111890000Y-92920296D01*
X111890001Y-92920299D01*
X111922312Y-93017805D01*
X111945186Y-93086834D01*
X112037288Y-93236156D01*
X112161344Y-93360212D01*
X112310666Y-93452314D01*
X112477203Y-93507499D01*
X112579991Y-93518000D01*
X113280008Y-93517999D01*
X113280016Y-93517998D01*
X113280019Y-93517998D01*
X113336302Y-93512248D01*
X113382797Y-93507499D01*
X113533693Y-93457496D01*
X113603518Y-93455095D01*
X113663560Y-93490826D01*
X113694753Y-93553346D01*
X113687193Y-93622806D01*
X113660379Y-93662880D01*
X113654823Y-93668435D01*
X113654814Y-93668447D01*
X113571218Y-93809801D01*
X113525399Y-93967513D01*
X113525204Y-93969998D01*
X113525205Y-93970000D01*
X114510000Y-93970000D01*
X114510000Y-93420000D01*
X114106850Y-93420000D01*
X114070010Y-93422899D01*
X113922000Y-93465900D01*
X113852131Y-93465700D01*
X113793461Y-93427757D01*
X113764618Y-93364119D01*
X113774759Y-93294989D01*
X113799721Y-93259146D01*
X113822712Y-93236156D01*
X113914814Y-93086834D01*
X113969999Y-92920297D01*
X113980500Y-92817509D01*
X113980499Y-92577887D01*
X114000183Y-92510848D01*
X114016818Y-92490205D01*
X114098706Y-92408318D01*
X114160030Y-92374834D01*
X114186387Y-92372000D01*
X114670169Y-92372000D01*
X114737208Y-92391685D01*
X114743056Y-92395683D01*
X114751269Y-92401650D01*
X114751270Y-92401651D01*
X114924192Y-92478642D01*
X114924197Y-92478644D01*
X115109354Y-92518000D01*
X115109355Y-92518000D01*
X115298645Y-92518000D01*
X115298646Y-92518000D01*
X115354262Y-92506178D01*
X115423927Y-92511493D01*
X115479661Y-92553630D01*
X115486774Y-92564347D01*
X115511917Y-92606862D01*
X115511923Y-92606870D01*
X115628129Y-92723076D01*
X115628133Y-92723079D01*
X115628135Y-92723081D01*
X115628138Y-92723082D01*
X115628141Y-92723085D01*
X115712234Y-92772817D01*
X115759918Y-92823885D01*
X115772422Y-92892627D01*
X115767500Y-92916438D01*
X115743280Y-92994167D01*
X115735914Y-93017805D01*
X115729500Y-93088386D01*
X115729500Y-93338952D01*
X115709815Y-93405991D01*
X115657011Y-93451746D01*
X115587853Y-93461690D01*
X115570905Y-93458028D01*
X115449995Y-93422900D01*
X115449989Y-93422899D01*
X115413149Y-93420000D01*
X115010000Y-93420000D01*
X115010000Y-94346000D01*
X114990315Y-94413039D01*
X114937511Y-94458794D01*
X114886000Y-94470000D01*
X113854315Y-94470000D01*
X113791194Y-94452732D01*
X113754540Y-94431055D01*
X113732898Y-94418256D01*
X113732897Y-94418255D01*
X113732896Y-94418255D01*
X113732893Y-94418254D01*
X113575073Y-94372402D01*
X113575067Y-94372401D01*
X113538201Y-94369500D01*
X113538194Y-94369500D01*
X112231806Y-94369500D01*
X112231798Y-94369500D01*
X112194932Y-94372401D01*
X112194926Y-94372402D01*
X112063536Y-94410576D01*
X112028941Y-94415500D01*
X111593886Y-94415500D01*
X111526847Y-94395815D01*
X111506205Y-94379181D01*
X110470819Y-93343795D01*
X110437334Y-93282472D01*
X110434500Y-93256114D01*
X110434500Y-93027392D01*
X110451113Y-92965392D01*
X110507179Y-92868284D01*
X110565674Y-92688256D01*
X110585460Y-92500000D01*
X110565674Y-92311744D01*
X110507179Y-92131716D01*
X110412533Y-91967784D01*
X110285871Y-91827112D01*
X110285870Y-91827111D01*
X110132734Y-91715851D01*
X110132729Y-91715848D01*
X109959807Y-91638857D01*
X109959802Y-91638855D01*
X109814001Y-91607865D01*
X109774646Y-91599500D01*
X109585354Y-91599500D01*
X109552897Y-91606398D01*
X109400197Y-91638855D01*
X109400192Y-91638857D01*
X109227270Y-91715848D01*
X109227265Y-91715851D01*
X109074129Y-91827111D01*
X108947466Y-91967785D01*
X108852821Y-92131715D01*
X108852818Y-92131722D01*
X108794327Y-92311740D01*
X108794326Y-92311744D01*
X108774540Y-92500000D01*
X108794326Y-92688256D01*
X108794327Y-92688259D01*
X108852818Y-92868277D01*
X108852821Y-92868284D01*
X108898655Y-92947671D01*
X108908887Y-92965392D01*
X108925500Y-93027392D01*
X108925500Y-93148601D01*
X108905815Y-93215640D01*
X108853011Y-93261395D01*
X108783853Y-93271339D01*
X108720297Y-93242314D01*
X108708213Y-93228474D01*
X108705372Y-93228179D01*
X108102546Y-93831004D01*
X108092812Y-93801044D01*
X108004814Y-93662381D01*
X107885097Y-93549960D01*
X107750488Y-93475957D01*
X108352240Y-92874204D01*
X108352240Y-92874203D01*
X108309514Y-92840949D01*
X108094531Y-92724605D01*
X108094523Y-92724602D01*
X107863335Y-92645234D01*
X107622221Y-92605000D01*
X107377779Y-92605000D01*
X107136664Y-92645234D01*
X106905476Y-92724602D01*
X106905468Y-92724605D01*
X106690481Y-92840951D01*
X106647758Y-92874202D01*
X106647757Y-92874204D01*
X107252466Y-93478912D01*
X107184371Y-93505874D01*
X107051508Y-93602405D01*
X106946825Y-93728945D01*
X106898368Y-93831921D01*
X106294626Y-93228179D01*
X106198328Y-93375575D01*
X106100138Y-93599426D01*
X106040130Y-93836394D01*
X106019945Y-94079994D01*
X106019945Y-94080005D01*
X106040130Y-94323605D01*
X106100138Y-94560573D01*
X106198330Y-94784429D01*
X106294626Y-94931819D01*
X106897452Y-94328993D01*
X106907188Y-94358956D01*
X106995186Y-94497619D01*
X107114903Y-94610040D01*
X107249510Y-94684041D01*
X106647758Y-95285794D01*
X106647758Y-95285796D01*
X106690478Y-95319046D01*
X106690484Y-95319050D01*
X106905468Y-95435394D01*
X106905476Y-95435397D01*
X107136664Y-95514765D01*
X107377779Y-95555000D01*
X107622221Y-95555000D01*
X107863335Y-95514765D01*
X108094523Y-95435397D01*
X108094531Y-95435394D01*
X108309514Y-95319051D01*
X108309514Y-95319050D01*
X108352240Y-95285795D01*
X108352240Y-95285794D01*
X107747534Y-94681086D01*
X107815629Y-94654126D01*
X107948492Y-94557595D01*
X108053175Y-94431055D01*
X108101631Y-94328078D01*
X108705372Y-94931819D01*
X108801667Y-94784431D01*
X108801672Y-94784423D01*
X108899861Y-94560573D01*
X108959868Y-94323611D01*
X108965073Y-94260797D01*
X108990227Y-94195612D01*
X109046628Y-94154373D01*
X109116372Y-94150174D01*
X109176331Y-94183355D01*
X110651234Y-95658258D01*
X110663015Y-95671890D01*
X110677461Y-95691294D01*
X110715638Y-95723328D01*
X110723614Y-95730638D01*
X110727554Y-95734579D01*
X110752010Y-95753916D01*
X110754807Y-95756195D01*
X110812572Y-95804667D01*
X110818609Y-95808637D01*
X110818579Y-95808682D01*
X110825038Y-95812796D01*
X110825067Y-95812750D01*
X110831207Y-95816537D01*
X110831209Y-95816539D01*
X110899557Y-95848410D01*
X110902775Y-95849968D01*
X110942663Y-95870000D01*
X110970189Y-95883824D01*
X110970191Y-95883824D01*
X110976979Y-95886295D01*
X110976960Y-95886347D01*
X110984185Y-95888858D01*
X110984203Y-95888807D01*
X110991055Y-95891077D01*
X110991056Y-95891077D01*
X110991060Y-95891079D01*
X111065003Y-95906346D01*
X111068410Y-95907102D01*
X111141812Y-95924500D01*
X111141815Y-95924500D01*
X111148986Y-95925339D01*
X111148979Y-95925392D01*
X111156594Y-95926170D01*
X111156599Y-95926117D01*
X111163789Y-95926746D01*
X111163793Y-95926745D01*
X111163794Y-95926746D01*
X111225827Y-95924940D01*
X111239196Y-95924552D01*
X111242802Y-95924500D01*
X112028941Y-95924500D01*
X112063536Y-95929424D01*
X112194926Y-95967597D01*
X112194929Y-95967597D01*
X112194931Y-95967598D01*
X112231806Y-95970500D01*
X112231814Y-95970500D01*
X113538186Y-95970500D01*
X113538194Y-95970500D01*
X113575069Y-95967598D01*
X113575071Y-95967597D01*
X113575073Y-95967597D01*
X113655773Y-95944151D01*
X113732898Y-95921744D01*
X113791194Y-95887268D01*
X113854315Y-95870000D01*
X114886000Y-95870000D01*
X114953039Y-95889685D01*
X114998794Y-95942489D01*
X115010000Y-95994000D01*
X115010000Y-96920000D01*
X115413134Y-96920000D01*
X115413149Y-96919999D01*
X115449989Y-96917100D01*
X115449995Y-96917099D01*
X115607693Y-96871283D01*
X115607696Y-96871282D01*
X115749052Y-96787685D01*
X115749061Y-96787678D01*
X115865178Y-96671561D01*
X115865184Y-96671553D01*
X115944034Y-96538225D01*
X115995103Y-96490542D01*
X116063844Y-96478038D01*
X116128434Y-96504683D01*
X116168364Y-96562018D01*
X116172910Y-96603502D01*
X116174540Y-96603502D01*
X116174540Y-96609997D01*
X116174540Y-96610000D01*
X116194326Y-96798256D01*
X116194327Y-96798259D01*
X116252818Y-96978277D01*
X116252821Y-96978284D01*
X116347467Y-97142216D01*
X116418929Y-97221582D01*
X116474129Y-97282888D01*
X116627265Y-97394148D01*
X116627270Y-97394151D01*
X116800192Y-97471142D01*
X116800197Y-97471144D01*
X116985354Y-97510500D01*
X116985355Y-97510500D01*
X117174644Y-97510500D01*
X117174646Y-97510500D01*
X117359803Y-97471144D01*
X117532730Y-97394151D01*
X117685871Y-97282888D01*
X117746998Y-97215000D01*
X118785001Y-97215000D01*
X118785001Y-97221582D01*
X118791408Y-97292102D01*
X118791409Y-97292107D01*
X118841981Y-97454396D01*
X118929927Y-97599877D01*
X119050122Y-97720072D01*
X119195604Y-97808019D01*
X119195603Y-97808019D01*
X119357894Y-97858590D01*
X119357892Y-97858590D01*
X119428418Y-97864999D01*
X119509999Y-97864998D01*
X119510000Y-97864998D01*
X119510000Y-97215000D01*
X118785001Y-97215000D01*
X117746998Y-97215000D01*
X117812533Y-97142216D01*
X117907179Y-96978284D01*
X117965674Y-96798256D01*
X117966593Y-96789513D01*
X117993175Y-96724898D01*
X118002233Y-96714790D01*
X118235205Y-96481819D01*
X118296528Y-96448334D01*
X118322886Y-96445500D01*
X118436613Y-96445500D01*
X118436616Y-96445500D01*
X118507196Y-96439086D01*
X118665026Y-96389904D01*
X118734884Y-96388753D01*
X118794276Y-96425554D01*
X118824344Y-96488623D01*
X118820300Y-96545179D01*
X118791409Y-96637896D01*
X118785000Y-96708427D01*
X118785000Y-96715000D01*
X119886000Y-96715000D01*
X119953039Y-96734685D01*
X119998794Y-96787489D01*
X120010000Y-96839000D01*
X120010000Y-97864999D01*
X120091581Y-97864999D01*
X120162102Y-97858591D01*
X120162107Y-97858590D01*
X120324396Y-97808018D01*
X120469877Y-97720072D01*
X120469878Y-97720071D01*
X120527819Y-97662131D01*
X120589142Y-97628646D01*
X120658834Y-97633630D01*
X120714767Y-97675502D01*
X120739184Y-97740966D01*
X120739500Y-97749812D01*
X120739500Y-98319960D01*
X120719815Y-98386999D01*
X120667011Y-98432754D01*
X120597853Y-98442698D01*
X120572167Y-98436142D01*
X120437482Y-98385908D01*
X120437483Y-98385908D01*
X120377883Y-98379501D01*
X120377881Y-98379500D01*
X120377873Y-98379500D01*
X120377864Y-98379500D01*
X118082129Y-98379500D01*
X118082123Y-98379501D01*
X118022516Y-98385908D01*
X117887671Y-98436202D01*
X117887664Y-98436206D01*
X117772455Y-98522452D01*
X117772452Y-98522455D01*
X117686206Y-98637664D01*
X117686202Y-98637671D01*
X117635908Y-98772517D01*
X117629501Y-98832116D01*
X117629500Y-98832135D01*
X117629500Y-102427870D01*
X117629501Y-102427876D01*
X117635908Y-102487483D01*
X117686202Y-102622328D01*
X117686206Y-102622335D01*
X117772452Y-102737544D01*
X117772455Y-102737547D01*
X117887664Y-102823793D01*
X117887671Y-102823797D01*
X118022517Y-102874091D01*
X118022516Y-102874091D01*
X118029444Y-102874835D01*
X118082127Y-102880500D01*
X118867886Y-102880499D01*
X118934923Y-102900183D01*
X118980678Y-102952987D01*
X118990622Y-103022146D01*
X118961597Y-103085702D01*
X118906889Y-103122205D01*
X118747713Y-103174951D01*
X118747704Y-103174955D01*
X118604612Y-103263216D01*
X118598946Y-103267697D01*
X118597168Y-103265448D01*
X118547324Y-103292666D01*
X118520966Y-103295500D01*
X117669728Y-103295500D01*
X117602689Y-103275815D01*
X117582047Y-103259181D01*
X114933213Y-100610347D01*
X114899728Y-100549024D01*
X114904712Y-100479332D01*
X114946584Y-100423399D01*
X115012048Y-100398982D01*
X115071330Y-100409386D01*
X115120197Y-100431144D01*
X115305354Y-100470500D01*
X115305355Y-100470500D01*
X115494644Y-100470500D01*
X115494646Y-100470500D01*
X115679803Y-100431144D01*
X115852730Y-100354151D01*
X116005871Y-100242888D01*
X116132533Y-100102216D01*
X116227179Y-99938284D01*
X116285674Y-99758256D01*
X116305460Y-99570000D01*
X116285674Y-99381744D01*
X116227179Y-99201716D01*
X116132533Y-99037784D01*
X116005871Y-98897112D01*
X116005870Y-98897111D01*
X115852734Y-98785851D01*
X115852729Y-98785848D01*
X115679807Y-98708857D01*
X115679802Y-98708855D01*
X115621853Y-98696538D01*
X115560371Y-98663345D01*
X115559953Y-98662929D01*
X114738766Y-97841742D01*
X114726984Y-97828109D01*
X114715032Y-97812055D01*
X114712539Y-97808706D01*
X114712537Y-97808704D01*
X114712538Y-97808704D01*
X114674794Y-97777034D01*
X114636091Y-97718863D01*
X114631011Y-97685418D01*
X114630900Y-97685423D01*
X114630854Y-97685429D01*
X114630853Y-97685426D01*
X114630676Y-97685436D01*
X114630499Y-97682141D01*
X114630499Y-97682128D01*
X114624750Y-97628646D01*
X114624091Y-97622516D01*
X114573797Y-97487671D01*
X114573793Y-97487664D01*
X114487547Y-97372455D01*
X114487544Y-97372452D01*
X114372335Y-97286206D01*
X114372328Y-97286202D01*
X114237482Y-97235908D01*
X114237483Y-97235908D01*
X114177883Y-97229501D01*
X114177881Y-97229500D01*
X114177873Y-97229500D01*
X114177864Y-97229500D01*
X111882129Y-97229500D01*
X111882123Y-97229501D01*
X111822516Y-97235908D01*
X111687671Y-97286202D01*
X111687664Y-97286206D01*
X111572455Y-97372452D01*
X111572452Y-97372455D01*
X111480888Y-97494769D01*
X111479604Y-97493808D01*
X111437341Y-97536061D01*
X111369066Y-97550904D01*
X111313778Y-97533338D01*
X111244606Y-97491522D01*
X111175538Y-97470000D01*
X111082196Y-97440914D01*
X111082194Y-97440913D01*
X111082192Y-97440913D01*
X111032778Y-97436423D01*
X111011616Y-97434500D01*
X110348384Y-97434500D01*
X110329145Y-97436248D01*
X110277807Y-97440913D01*
X110115393Y-97491522D01*
X109969813Y-97579529D01*
X109867682Y-97681660D01*
X109806359Y-97715144D01*
X109736667Y-97710160D01*
X109692320Y-97681659D01*
X109628345Y-97617684D01*
X109479124Y-97525643D01*
X109479119Y-97525641D01*
X109312697Y-97470494D01*
X109312690Y-97470493D01*
X109209986Y-97460000D01*
X108410000Y-97460000D01*
X108410000Y-98986000D01*
X108390315Y-99053039D01*
X108337511Y-99098794D01*
X108286000Y-99110000D01*
X106410001Y-99110000D01*
X106410001Y-99559986D01*
X106420494Y-99662697D01*
X106475641Y-99829119D01*
X106475643Y-99829124D01*
X106567684Y-99978345D01*
X106691654Y-100102315D01*
X106840875Y-100194356D01*
X106840880Y-100194358D01*
X107007302Y-100249505D01*
X107007309Y-100249506D01*
X107110019Y-100259999D01*
X107922226Y-100259999D01*
X107989265Y-100279683D01*
X108035020Y-100332487D01*
X108044964Y-100401646D01*
X108015939Y-100465202D01*
X108005202Y-100476146D01*
X108004128Y-100477112D01*
X107877466Y-100617785D01*
X107782821Y-100781715D01*
X107782818Y-100781722D01*
X107724327Y-100961740D01*
X107724326Y-100961744D01*
X107704540Y-101150000D01*
X107724326Y-101338256D01*
X107724327Y-101338259D01*
X107782818Y-101518277D01*
X107782821Y-101518284D01*
X107877464Y-101682212D01*
X107877465Y-101682214D01*
X107877467Y-101682216D01*
X107999753Y-101818028D01*
X108029982Y-101881017D01*
X108021357Y-101950352D01*
X107995283Y-101988679D01*
X107495781Y-102488181D01*
X107434458Y-102521666D01*
X107408100Y-102524500D01*
X106477129Y-102524500D01*
X106477123Y-102524501D01*
X106417516Y-102530908D01*
X106282671Y-102581202D01*
X106282664Y-102581206D01*
X106167455Y-102667452D01*
X106167452Y-102667455D01*
X106081206Y-102782664D01*
X106081202Y-102782671D01*
X106030908Y-102917517D01*
X106024501Y-102977116D01*
X106024500Y-102977135D01*
X106024500Y-103908100D01*
X106004815Y-103975139D01*
X105988181Y-103995781D01*
X103432595Y-106551367D01*
X103416854Y-106564684D01*
X103414800Y-106566146D01*
X103414796Y-106566149D01*
X103353958Y-106629955D01*
X103351899Y-106632063D01*
X103325881Y-106658082D01*
X103320564Y-106664521D01*
X103314700Y-106671127D01*
X103273517Y-106714320D01*
X103273511Y-106714327D01*
X103256690Y-106740502D01*
X103247997Y-106752408D01*
X103228188Y-106776400D01*
X103228185Y-106776404D01*
X103199600Y-106828752D01*
X103195086Y-106836361D01*
X103162832Y-106886549D01*
X103151264Y-106915444D01*
X103144982Y-106928776D01*
X103130074Y-106956079D01*
X103130066Y-106956097D01*
X103111908Y-107012900D01*
X103108915Y-107021226D01*
X103086745Y-107076604D01*
X103080855Y-107107165D01*
X103077210Y-107121446D01*
X103067734Y-107151093D01*
X103067733Y-107151096D01*
X103060652Y-107210320D01*
X103059288Y-107219064D01*
X103048000Y-107277634D01*
X103048000Y-107308756D01*
X103047123Y-107323476D01*
X103043429Y-107354368D01*
X103043429Y-107354374D01*
X103047684Y-107413861D01*
X103048000Y-107422707D01*
X103048000Y-112483687D01*
X103028315Y-112550726D01*
X102975511Y-112596481D01*
X102963013Y-112601389D01*
X102870969Y-112631890D01*
X102800668Y-112655185D01*
X102800659Y-112655190D01*
X102711798Y-112709999D01*
X102644405Y-112728439D01*
X102577742Y-112707516D01*
X102532973Y-112653874D01*
X102524312Y-112584543D01*
X102527725Y-112569525D01*
X102530047Y-112561619D01*
X102550500Y-112491961D01*
X102550500Y-112348039D01*
X102527688Y-112270348D01*
X102509954Y-112209949D01*
X102505178Y-112202517D01*
X102432143Y-112088872D01*
X102323373Y-111994623D01*
X102323371Y-111994622D01*
X102192456Y-111934834D01*
X102161021Y-111930315D01*
X102097466Y-111901289D01*
X102059692Y-111842511D01*
X102059692Y-111772641D01*
X102073238Y-111742307D01*
X102139448Y-111635375D01*
X102206429Y-111462476D01*
X102240500Y-111280213D01*
X102240500Y-111187503D01*
X102240500Y-111187003D01*
X102240500Y-101167404D01*
X102240500Y-101074793D01*
X102206429Y-100892530D01*
X102206427Y-100892526D01*
X102206426Y-100892518D01*
X102204859Y-100887009D01*
X102206498Y-100886542D01*
X102201296Y-100824798D01*
X102234003Y-100763056D01*
X102294897Y-100728798D01*
X102364646Y-100732900D01*
X102421105Y-100774061D01*
X102430173Y-100787621D01*
X102467467Y-100852216D01*
X102534642Y-100926821D01*
X102594129Y-100992888D01*
X102747265Y-101104148D01*
X102747270Y-101104151D01*
X102920192Y-101181142D01*
X102920197Y-101181144D01*
X103105354Y-101220500D01*
X103105355Y-101220500D01*
X103294644Y-101220500D01*
X103294646Y-101220500D01*
X103479803Y-101181144D01*
X103652730Y-101104151D01*
X103805871Y-100992888D01*
X103932533Y-100852216D01*
X103949122Y-100823481D01*
X103968826Y-100797801D01*
X104469810Y-100296818D01*
X104531133Y-100263333D01*
X104557491Y-100260499D01*
X105210002Y-100260499D01*
X105210008Y-100260499D01*
X105312797Y-100249999D01*
X105479334Y-100194814D01*
X105628656Y-100102712D01*
X105752712Y-99978656D01*
X105844814Y-99829334D01*
X105899999Y-99662797D01*
X105910500Y-99560009D01*
X105910499Y-98610000D01*
X106410000Y-98610000D01*
X107910000Y-98610000D01*
X107910000Y-97460000D01*
X107110028Y-97460000D01*
X107110012Y-97460001D01*
X107007302Y-97470494D01*
X106840880Y-97525641D01*
X106840875Y-97525643D01*
X106691654Y-97617684D01*
X106567684Y-97741654D01*
X106475643Y-97890875D01*
X106475641Y-97890880D01*
X106420494Y-98057302D01*
X106420493Y-98057309D01*
X106410000Y-98160013D01*
X106410000Y-98610000D01*
X105910499Y-98610000D01*
X105910499Y-98159992D01*
X105910371Y-98158743D01*
X105899999Y-98057203D01*
X105899998Y-98057200D01*
X105875948Y-97984623D01*
X105844814Y-97890666D01*
X105752712Y-97741344D01*
X105628656Y-97617288D01*
X105521030Y-97550904D01*
X105479336Y-97525187D01*
X105479331Y-97525185D01*
X105477862Y-97524698D01*
X105312797Y-97470001D01*
X105312795Y-97470000D01*
X105210016Y-97459500D01*
X105210009Y-97459500D01*
X104636000Y-97459500D01*
X104568961Y-97439815D01*
X104523206Y-97387011D01*
X104512000Y-97335500D01*
X104512000Y-96370001D01*
X113525204Y-96370001D01*
X113525399Y-96372486D01*
X113571218Y-96530198D01*
X113654814Y-96671552D01*
X113654821Y-96671561D01*
X113770938Y-96787678D01*
X113770947Y-96787685D01*
X113912303Y-96871282D01*
X113912306Y-96871283D01*
X114070004Y-96917099D01*
X114070010Y-96917100D01*
X114106850Y-96919999D01*
X114106866Y-96920000D01*
X114510000Y-96920000D01*
X114510000Y-96370000D01*
X113525205Y-96370000D01*
X113525204Y-96370001D01*
X104512000Y-96370001D01*
X104512000Y-91385399D01*
X104531685Y-91318360D01*
X104548319Y-91297718D01*
X105737718Y-90108319D01*
X105799041Y-90074834D01*
X105825399Y-90072000D01*
X105940904Y-90072000D01*
X106007943Y-90091685D01*
X106053698Y-90144489D01*
X106057086Y-90152668D01*
X106081201Y-90217326D01*
X106081206Y-90217335D01*
X106167452Y-90332544D01*
X106167455Y-90332547D01*
X106282664Y-90418793D01*
X106282671Y-90418797D01*
X106417517Y-90469091D01*
X106417516Y-90469091D01*
X106424444Y-90469835D01*
X106477127Y-90475500D01*
X108522872Y-90475499D01*
X108582483Y-90469091D01*
X108717331Y-90418796D01*
X108832546Y-90332546D01*
X108918796Y-90217331D01*
X108918798Y-90217326D01*
X108942914Y-90152668D01*
X108984785Y-90096734D01*
X109050249Y-90072316D01*
X109059096Y-90072000D01*
X109546802Y-90072000D01*
X109567367Y-90073717D01*
X109569841Y-90074133D01*
X109657977Y-90072035D01*
X109660927Y-90072000D01*
X109697718Y-90072000D01*
X109697728Y-90072000D01*
X109706033Y-90071206D01*
X109714843Y-90070681D01*
X109774510Y-90069261D01*
X109802306Y-90063214D01*
X109871998Y-90068196D01*
X109927933Y-90110066D01*
X109938884Y-90127559D01*
X109940262Y-90130233D01*
X109940263Y-90130234D01*
X109968608Y-90185215D01*
X110034074Y-90312203D01*
X110157451Y-90469091D01*
X110160628Y-90473130D01*
X110315351Y-90607197D01*
X110492650Y-90709561D01*
X110686117Y-90776521D01*
X110888758Y-90805655D01*
X110888759Y-90805656D01*
X110888759Y-90805655D01*
X110888760Y-90805656D01*
X111093255Y-90795915D01*
X111292212Y-90747649D01*
X111292219Y-90747646D01*
X111478428Y-90662607D01*
X111478431Y-90662605D01*
X111478438Y-90662602D01*
X111645204Y-90543849D01*
X111786482Y-90395681D01*
X111795549Y-90381571D01*
X111848352Y-90335816D01*
X111917510Y-90325871D01*
X111981067Y-90354894D01*
X112005405Y-90383512D01*
X112037684Y-90435845D01*
X112161654Y-90559815D01*
X112310875Y-90651856D01*
X112310880Y-90651858D01*
X112477302Y-90707005D01*
X112477309Y-90707006D01*
X112580019Y-90717499D01*
X112680000Y-90717498D01*
X112680000Y-89541500D01*
X112699685Y-89474461D01*
X112752489Y-89428706D01*
X112804000Y-89417500D01*
X113979999Y-89417500D01*
X113979999Y-89317528D01*
X113979998Y-89317513D01*
X113969505Y-89214802D01*
X113914358Y-89048380D01*
X113914356Y-89048375D01*
X113822315Y-88899154D01*
X113815341Y-88892180D01*
X113781856Y-88830857D01*
X113786840Y-88761165D01*
X113828712Y-88705232D01*
X113894176Y-88680815D01*
X113903022Y-88680499D01*
X114237871Y-88680499D01*
X114237872Y-88680499D01*
X114297483Y-88674091D01*
X114368892Y-88647456D01*
X114438583Y-88642473D01*
X114499906Y-88675958D01*
X114533391Y-88737281D01*
X114528407Y-88806973D01*
X114518958Y-88826759D01*
X114478716Y-88894805D01*
X114478716Y-88894806D01*
X114432900Y-89052504D01*
X114432899Y-89052510D01*
X114430000Y-89089350D01*
X114430000Y-89492500D01*
X114980000Y-89492500D01*
X114980000Y-88507703D01*
X115480000Y-88507703D01*
X115480000Y-89492500D01*
X116030000Y-89492500D01*
X116030000Y-89089365D01*
X116029999Y-89089350D01*
X116027100Y-89052510D01*
X116027099Y-89052504D01*
X115981283Y-88894806D01*
X115981282Y-88894803D01*
X115897685Y-88753447D01*
X115897678Y-88753438D01*
X115781561Y-88637321D01*
X115781552Y-88637314D01*
X115640196Y-88553717D01*
X115640193Y-88553716D01*
X115482494Y-88507900D01*
X115482497Y-88507900D01*
X115480000Y-88507703D01*
X114980000Y-88507703D01*
X114977503Y-88507900D01*
X114819806Y-88553716D01*
X114812646Y-88556815D01*
X114812102Y-88555558D01*
X114752411Y-88570700D01*
X114686150Y-88548538D01*
X114642388Y-88494070D01*
X114635022Y-88424590D01*
X114640837Y-88403453D01*
X114666555Y-88334500D01*
X114684091Y-88287483D01*
X114690500Y-88227873D01*
X114690499Y-86932128D01*
X114684091Y-86872517D01*
X114681297Y-86865027D01*
X114633797Y-86737671D01*
X114633793Y-86737664D01*
X114547547Y-86622455D01*
X114547544Y-86622452D01*
X114425231Y-86530888D01*
X114426930Y-86528617D01*
X114387743Y-86489435D01*
X114372886Y-86421163D01*
X114397298Y-86355697D01*
X114426311Y-86330556D01*
X114425231Y-86329112D01*
X114534309Y-86247455D01*
X114547546Y-86237546D01*
X114633796Y-86122331D01*
X114636467Y-86115170D01*
X114678337Y-86059235D01*
X114743800Y-86034816D01*
X114752650Y-86034500D01*
X115086115Y-86034500D01*
X115153154Y-86054185D01*
G37*
%TD.AperFunction*%
%TA.AperFunction,Conductor*%
G36*
X121207412Y-106555793D02*
G01*
X121271086Y-106582168D01*
X121271090Y-106582168D01*
X121271091Y-106582169D01*
X121416079Y-106611010D01*
X121416082Y-106611010D01*
X121489901Y-106611010D01*
X124108041Y-106611010D01*
X124175080Y-106630695D01*
X124220835Y-106683499D01*
X124230779Y-106752657D01*
X124219920Y-106785284D01*
X124220983Y-106785739D01*
X124138030Y-106979449D01*
X124138028Y-106979456D01*
X124094491Y-107179589D01*
X124091750Y-107225621D01*
X124091750Y-108534378D01*
X124094491Y-108580410D01*
X124138028Y-108780543D01*
X124138030Y-108780550D01*
X124220983Y-108974261D01*
X124219262Y-108974997D01*
X124232282Y-109034862D01*
X124207862Y-109100325D01*
X124151926Y-109142194D01*
X124108598Y-109150010D01*
X121541372Y-109150010D01*
X121541338Y-109150000D01*
X121490000Y-109150000D01*
X121416082Y-109150000D01*
X121416080Y-109150000D01*
X121271091Y-109178840D01*
X121271081Y-109178843D01*
X121136952Y-109234401D01*
X121067483Y-109241870D01*
X121005004Y-109210594D01*
X120969352Y-109150505D01*
X120965500Y-109119840D01*
X120965500Y-108978386D01*
X120965500Y-108978384D01*
X120959086Y-108907804D01*
X120908478Y-108745394D01*
X120820472Y-108599815D01*
X120820470Y-108599813D01*
X120820469Y-108599811D01*
X120700188Y-108479530D01*
X120691747Y-108474427D01*
X120554606Y-108391522D01*
X120554603Y-108391521D01*
X120515970Y-108379482D01*
X120457822Y-108340744D01*
X120429849Y-108276718D01*
X120440931Y-108207733D01*
X120487550Y-108155691D01*
X120515971Y-108142712D01*
X120659396Y-108098019D01*
X120804877Y-108010072D01*
X120925072Y-107889877D01*
X121013019Y-107744395D01*
X121063590Y-107582106D01*
X121070000Y-107511572D01*
X121070000Y-107430000D01*
X120044000Y-107430000D01*
X119976961Y-107410315D01*
X119931206Y-107357511D01*
X119920000Y-107306000D01*
X119920000Y-107054000D01*
X119939685Y-106986961D01*
X119992489Y-106941206D01*
X120044000Y-106930000D01*
X121069999Y-106930000D01*
X121069999Y-106848417D01*
X121063591Y-106777897D01*
X121063590Y-106777892D01*
X121041576Y-106707246D01*
X121040424Y-106637386D01*
X121077225Y-106577993D01*
X121140293Y-106547925D01*
X121207412Y-106555793D01*
G37*
%TD.AperFunction*%
%TA.AperFunction,Conductor*%
G36*
X120889579Y-91090507D02*
G01*
X120921899Y-91113780D01*
X121011581Y-91203462D01*
X121134503Y-91285594D01*
X121134509Y-91285596D01*
X121134510Y-91285597D01*
X121179289Y-91304145D01*
X121271086Y-91342168D01*
X121271090Y-91342168D01*
X121271091Y-91342169D01*
X121416079Y-91371010D01*
X121416082Y-91371010D01*
X121489901Y-91371010D01*
X124163704Y-91371010D01*
X124230743Y-91390695D01*
X124276498Y-91443499D01*
X124286442Y-91512657D01*
X124270005Y-91555174D01*
X124271489Y-91555985D01*
X124268655Y-91561173D01*
X124188030Y-91749449D01*
X124188028Y-91749456D01*
X124144491Y-91949589D01*
X124141750Y-91995621D01*
X124141750Y-93304378D01*
X124144491Y-93350410D01*
X124188028Y-93550543D01*
X124188030Y-93550550D01*
X124267958Y-93737197D01*
X124276253Y-93806573D01*
X124245724Y-93869420D01*
X124186064Y-93905785D01*
X124153970Y-93910010D01*
X121541372Y-93910010D01*
X121541338Y-93910000D01*
X121490000Y-93910000D01*
X121416082Y-93910000D01*
X121416080Y-93910000D01*
X121271091Y-93938840D01*
X121271085Y-93938842D01*
X121134506Y-93995414D01*
X121011581Y-94077551D01*
X120954747Y-94134386D01*
X120893423Y-94167870D01*
X120823731Y-94162885D01*
X120779385Y-94134385D01*
X120755000Y-94110000D01*
X119673386Y-94110000D01*
X119606347Y-94090315D01*
X119585705Y-94073681D01*
X119566319Y-94054295D01*
X119532834Y-93992972D01*
X119530000Y-93966614D01*
X119530000Y-93734000D01*
X119549685Y-93666961D01*
X119602489Y-93621206D01*
X119654000Y-93610000D01*
X120754999Y-93610000D01*
X120754999Y-93603417D01*
X120748591Y-93532897D01*
X120748590Y-93532892D01*
X120698018Y-93370603D01*
X120610072Y-93225122D01*
X120507984Y-93123034D01*
X120474499Y-93061711D01*
X120479483Y-92992019D01*
X120507983Y-92947673D01*
X120610472Y-92845185D01*
X120698478Y-92699606D01*
X120749086Y-92537196D01*
X120755500Y-92466616D01*
X120755500Y-91953384D01*
X120749086Y-91882804D01*
X120698478Y-91720394D01*
X120610472Y-91574815D01*
X120596595Y-91560938D01*
X120563110Y-91499618D01*
X120568093Y-91429926D01*
X120596594Y-91385577D01*
X120604281Y-91377891D01*
X120692549Y-91234787D01*
X120716516Y-91162459D01*
X120756287Y-91105015D01*
X120820803Y-91078192D01*
X120889579Y-91090507D01*
G37*
%TD.AperFunction*%
%TA.AperFunction,Conductor*%
G36*
X115243153Y-70824185D02*
G01*
X115263795Y-70840819D01*
X117548833Y-73125857D01*
X117582318Y-73187180D01*
X117577334Y-73256872D01*
X117535462Y-73312805D01*
X117469998Y-73337222D01*
X117401725Y-73322370D01*
X117398033Y-73320271D01*
X117390398Y-73315756D01*
X117390393Y-73315754D01*
X117232573Y-73269902D01*
X117232567Y-73269901D01*
X117195701Y-73267000D01*
X117195694Y-73267000D01*
X116764306Y-73267000D01*
X116764298Y-73267000D01*
X116727432Y-73269901D01*
X116727426Y-73269902D01*
X116569606Y-73315754D01*
X116569603Y-73315755D01*
X116428137Y-73399417D01*
X116428129Y-73399423D01*
X116311923Y-73515629D01*
X116311917Y-73515637D01*
X116228255Y-73657103D01*
X116228254Y-73657106D01*
X116182402Y-73814926D01*
X116182401Y-73814932D01*
X116179500Y-73851798D01*
X116179500Y-75018000D01*
X116159815Y-75085039D01*
X116107011Y-75130794D01*
X116055500Y-75142000D01*
X116004000Y-75142000D01*
X115936961Y-75122315D01*
X115891206Y-75069511D01*
X115880000Y-75018000D01*
X115880000Y-74755000D01*
X114280000Y-74755000D01*
X114280000Y-75158149D01*
X114282899Y-75194989D01*
X114282900Y-75194995D01*
X114328716Y-75352693D01*
X114328717Y-75352696D01*
X114413075Y-75495338D01*
X114430258Y-75563062D01*
X114408098Y-75629325D01*
X114353632Y-75673088D01*
X114345350Y-75676164D01*
X114298960Y-75691537D01*
X114292420Y-75694587D01*
X114292397Y-75694539D01*
X114285507Y-75697875D01*
X114285531Y-75697922D01*
X114279076Y-75701163D01*
X114216067Y-75742604D01*
X114213030Y-75744539D01*
X114148846Y-75784130D01*
X114143179Y-75788611D01*
X114143146Y-75788569D01*
X114137214Y-75793401D01*
X114137248Y-75793442D01*
X114131712Y-75798087D01*
X114079944Y-75852956D01*
X114077433Y-75855541D01*
X113758519Y-76174456D01*
X113697196Y-76207941D01*
X113627505Y-76202957D01*
X113605742Y-76192314D01*
X113529340Y-76145189D01*
X113529335Y-76145187D01*
X113529334Y-76145186D01*
X113362797Y-76090001D01*
X113362795Y-76090000D01*
X113260010Y-76079500D01*
X112559998Y-76079500D01*
X112559980Y-76079501D01*
X112457203Y-76090000D01*
X112457200Y-76090001D01*
X112290668Y-76145185D01*
X112290663Y-76145187D01*
X112141342Y-76237289D01*
X112017289Y-76361342D01*
X111925187Y-76510663D01*
X111925185Y-76510668D01*
X111922273Y-76519456D01*
X111870001Y-76677203D01*
X111870001Y-76677204D01*
X111870000Y-76677204D01*
X111859500Y-76779983D01*
X111859500Y-77480001D01*
X111859501Y-77480019D01*
X111870000Y-77582796D01*
X111870001Y-77582799D01*
X111917200Y-77725234D01*
X111925186Y-77749334D01*
X112017288Y-77898656D01*
X112141344Y-78022712D01*
X112290666Y-78114814D01*
X112457203Y-78169999D01*
X112559991Y-78180500D01*
X113260008Y-78180499D01*
X113285115Y-78177934D01*
X113353807Y-78190703D01*
X113404692Y-78238583D01*
X113421613Y-78306373D01*
X113399198Y-78372549D01*
X113360839Y-78408024D01*
X113285944Y-78452317D01*
X113285938Y-78452321D01*
X113169821Y-78568438D01*
X113169814Y-78568447D01*
X113086218Y-78709801D01*
X113040399Y-78867513D01*
X113040204Y-78869998D01*
X113040205Y-78870000D01*
X114025000Y-78870000D01*
X114025000Y-78320000D01*
X113633913Y-78320000D01*
X113566874Y-78300315D01*
X113521119Y-78247511D01*
X113511175Y-78178353D01*
X113540200Y-78114797D01*
X113568814Y-78090462D01*
X113678656Y-78022712D01*
X113776702Y-77924666D01*
X113838025Y-77891181D01*
X113853576Y-77888819D01*
X113897548Y-77884972D01*
X113908355Y-77884500D01*
X113913934Y-77884500D01*
X113913941Y-77884500D01*
X113944903Y-77880880D01*
X113948434Y-77880519D01*
X114023612Y-77873943D01*
X114023615Y-77873941D01*
X114030693Y-77872481D01*
X114030704Y-77872535D01*
X114038163Y-77870881D01*
X114038151Y-77870827D01*
X114045178Y-77869161D01*
X114045179Y-77869160D01*
X114045184Y-77869160D01*
X114116095Y-77843350D01*
X114119434Y-77842190D01*
X114191036Y-77818464D01*
X114191035Y-77818464D01*
X114196565Y-77816632D01*
X114266394Y-77814231D01*
X114326435Y-77849963D01*
X114357627Y-77912483D01*
X114358887Y-77921367D01*
X114374326Y-78068256D01*
X114374327Y-78068259D01*
X114432818Y-78248277D01*
X114432821Y-78248284D01*
X114504565Y-78372549D01*
X114508387Y-78379168D01*
X114525000Y-78441168D01*
X114525000Y-79920000D01*
X114928134Y-79920000D01*
X114928147Y-79919999D01*
X114970771Y-79916645D01*
X115039148Y-79931009D01*
X115088905Y-79980061D01*
X115104500Y-80040263D01*
X115104500Y-80091619D01*
X115104614Y-80094130D01*
X115087991Y-80161993D01*
X115037317Y-80210096D01*
X114971016Y-80223373D01*
X114928154Y-80220000D01*
X114525000Y-80220000D01*
X114525000Y-81146000D01*
X114505315Y-81213039D01*
X114452511Y-81258794D01*
X114401000Y-81270000D01*
X113040205Y-81270000D01*
X113040204Y-81270001D01*
X113040399Y-81272486D01*
X113086218Y-81430198D01*
X113169814Y-81571552D01*
X113169821Y-81571561D01*
X113266079Y-81667819D01*
X113299564Y-81729142D01*
X113294580Y-81798834D01*
X113252708Y-81854767D01*
X113187244Y-81879184D01*
X113178398Y-81879500D01*
X113107886Y-81879500D01*
X113040847Y-81859815D01*
X113020205Y-81843181D01*
X112938766Y-81761742D01*
X112926984Y-81748109D01*
X112923604Y-81743569D01*
X112912539Y-81728706D01*
X112912537Y-81728704D01*
X112912538Y-81728704D01*
X112874367Y-81696676D01*
X112866384Y-81689360D01*
X112862444Y-81685419D01*
X112837987Y-81666081D01*
X112835191Y-81663803D01*
X112777427Y-81615333D01*
X112771394Y-81611365D01*
X112771422Y-81611321D01*
X112764961Y-81607204D01*
X112764934Y-81607250D01*
X112758790Y-81603460D01*
X112690442Y-81571589D01*
X112687196Y-81570017D01*
X112619815Y-81536177D01*
X112613031Y-81533708D01*
X112613049Y-81533658D01*
X112605807Y-81531141D01*
X112605791Y-81531191D01*
X112598938Y-81528920D01*
X112525088Y-81513671D01*
X112521567Y-81512891D01*
X112448181Y-81495498D01*
X112441014Y-81494661D01*
X112441020Y-81494607D01*
X112433405Y-81493829D01*
X112433401Y-81493883D01*
X112426210Y-81493253D01*
X112350804Y-81495448D01*
X112347198Y-81495500D01*
X112173831Y-81495500D01*
X112106792Y-81475815D01*
X112100944Y-81471817D01*
X112092730Y-81465849D01*
X112092729Y-81465848D01*
X111919807Y-81388857D01*
X111919802Y-81388855D01*
X111774001Y-81357865D01*
X111734646Y-81349500D01*
X111545354Y-81349500D01*
X111512897Y-81356398D01*
X111360197Y-81388855D01*
X111360192Y-81388857D01*
X111187270Y-81465848D01*
X111187265Y-81465851D01*
X111034129Y-81577111D01*
X110907466Y-81717785D01*
X110812821Y-81881715D01*
X110812818Y-81881722D01*
X110768128Y-82019265D01*
X110754326Y-82061744D01*
X110734540Y-82250000D01*
X110737434Y-82277540D01*
X110724866Y-82346267D01*
X110677134Y-82397292D01*
X110614114Y-82414500D01*
X110558384Y-82414500D01*
X110539145Y-82416248D01*
X110487807Y-82420913D01*
X110325393Y-82471522D01*
X110179811Y-82559530D01*
X110059531Y-82679810D01*
X110059528Y-82679814D01*
X109996352Y-82784319D01*
X109944824Y-82831506D01*
X109875965Y-82843344D01*
X109825139Y-82825707D01*
X109679124Y-82735643D01*
X109679119Y-82735641D01*
X109512697Y-82680494D01*
X109512690Y-82680493D01*
X109409986Y-82670000D01*
X108610000Y-82670000D01*
X108610000Y-85469999D01*
X109018614Y-85469999D01*
X109085653Y-85489684D01*
X109131408Y-85542488D01*
X109141352Y-85611646D01*
X109112327Y-85675202D01*
X109106295Y-85681680D01*
X108911698Y-85876276D01*
X108898069Y-85888055D01*
X108878663Y-85902503D01*
X108846630Y-85940677D01*
X108839343Y-85948630D01*
X108835376Y-85952598D01*
X108835374Y-85952600D01*
X108816045Y-85977045D01*
X108813771Y-85979837D01*
X108765290Y-86037615D01*
X108761322Y-86043649D01*
X108761278Y-86043620D01*
X108757165Y-86050075D01*
X108757210Y-86050103D01*
X108753418Y-86056250D01*
X108721537Y-86124616D01*
X108719968Y-86127856D01*
X108686131Y-86195235D01*
X108683660Y-86202023D01*
X108683611Y-86202005D01*
X108681097Y-86209237D01*
X108681147Y-86209254D01*
X108678876Y-86216106D01*
X108663627Y-86289955D01*
X108662847Y-86293474D01*
X108645455Y-86366860D01*
X108644617Y-86374031D01*
X108644563Y-86374024D01*
X108643786Y-86381640D01*
X108643839Y-86381645D01*
X108643209Y-86388834D01*
X108645404Y-86464237D01*
X108645456Y-86467844D01*
X108645456Y-87062562D01*
X108628844Y-87124560D01*
X108621384Y-87137483D01*
X108572776Y-87221674D01*
X108572774Y-87221678D01*
X108514283Y-87401695D01*
X108514281Y-87401705D01*
X108513045Y-87413465D01*
X108486459Y-87478079D01*
X108429161Y-87518062D01*
X108389725Y-87524500D01*
X106477129Y-87524500D01*
X106477123Y-87524501D01*
X106417516Y-87530908D01*
X106282671Y-87581202D01*
X106282664Y-87581206D01*
X106167455Y-87667452D01*
X106167452Y-87667455D01*
X106081206Y-87782664D01*
X106081201Y-87782673D01*
X106057086Y-87847332D01*
X106015215Y-87903266D01*
X105949751Y-87927684D01*
X105940904Y-87928000D01*
X105429863Y-87928000D01*
X105409298Y-87926283D01*
X105406826Y-87925867D01*
X105406824Y-87925867D01*
X105331111Y-87927669D01*
X105318688Y-87927965D01*
X105315738Y-87928000D01*
X105278937Y-87928000D01*
X105270620Y-87928793D01*
X105261810Y-87929318D01*
X105202150Y-87930739D01*
X105171729Y-87937356D01*
X105157165Y-87939627D01*
X105126207Y-87942583D01*
X105126204Y-87942584D01*
X105126200Y-87942584D01*
X105126200Y-87942585D01*
X105068978Y-87959386D01*
X105060410Y-87961573D01*
X105002106Y-87974257D01*
X105002105Y-87974257D01*
X105002102Y-87974258D01*
X104973491Y-87986510D01*
X104959619Y-87991496D01*
X104929767Y-88000262D01*
X104929763Y-88000263D01*
X104876754Y-88027590D01*
X104868753Y-88031360D01*
X104813908Y-88054847D01*
X104813903Y-88054850D01*
X104788133Y-88072292D01*
X104775452Y-88079816D01*
X104747797Y-88094073D01*
X104700908Y-88130947D01*
X104693761Y-88136166D01*
X104644365Y-88169598D01*
X104622353Y-88191609D01*
X104611328Y-88201393D01*
X104586867Y-88220629D01*
X104547809Y-88265705D01*
X104541778Y-88272183D01*
X102752593Y-90061369D01*
X102736850Y-90074687D01*
X102734804Y-90076144D01*
X102734797Y-90076149D01*
X102673956Y-90139956D01*
X102671901Y-90142061D01*
X102645876Y-90168088D01*
X102640564Y-90174521D01*
X102634700Y-90181127D01*
X102593517Y-90224320D01*
X102593511Y-90224327D01*
X102576690Y-90250502D01*
X102567997Y-90262408D01*
X102548188Y-90286400D01*
X102548185Y-90286404D01*
X102519600Y-90338752D01*
X102515086Y-90346361D01*
X102482832Y-90396550D01*
X102479617Y-90404582D01*
X102436426Y-90459502D01*
X102370399Y-90482354D01*
X102302499Y-90465880D01*
X102254284Y-90415313D01*
X102240500Y-90358494D01*
X102240500Y-87047292D01*
X102240500Y-87047290D01*
X102206429Y-86865027D01*
X102139448Y-86692128D01*
X102063290Y-86569129D01*
X102044735Y-86501770D01*
X102065543Y-86435071D01*
X102119109Y-86390209D01*
X102151070Y-86381115D01*
X102192457Y-86375165D01*
X102323373Y-86315377D01*
X102323375Y-86315374D01*
X102323377Y-86315374D01*
X102370497Y-86274544D01*
X102383637Y-86263157D01*
X102447192Y-86234132D01*
X102516351Y-86244075D01*
X102556988Y-86273897D01*
X102636981Y-86362737D01*
X102664129Y-86392888D01*
X102817265Y-86504148D01*
X102817270Y-86504151D01*
X102990192Y-86581142D01*
X102990197Y-86581144D01*
X103175354Y-86620500D01*
X103175355Y-86620500D01*
X103364644Y-86620500D01*
X103364646Y-86620500D01*
X103549803Y-86581144D01*
X103722730Y-86504151D01*
X103875871Y-86392888D01*
X104002533Y-86252216D01*
X104097179Y-86088284D01*
X104155674Y-85908256D01*
X104175460Y-85720000D01*
X104163631Y-85607457D01*
X104176200Y-85538731D01*
X104223932Y-85487707D01*
X104286952Y-85470499D01*
X105410002Y-85470499D01*
X105410008Y-85470499D01*
X105512797Y-85459999D01*
X105679334Y-85404814D01*
X105828656Y-85312712D01*
X105952712Y-85188656D01*
X106044814Y-85039334D01*
X106099999Y-84872797D01*
X106110500Y-84770009D01*
X106110500Y-84320000D01*
X106610001Y-84320000D01*
X106610001Y-84769986D01*
X106620494Y-84872697D01*
X106675641Y-85039119D01*
X106675643Y-85039124D01*
X106767684Y-85188345D01*
X106891654Y-85312315D01*
X107040875Y-85404356D01*
X107040880Y-85404358D01*
X107207302Y-85459505D01*
X107207309Y-85459506D01*
X107310019Y-85469999D01*
X108109999Y-85469999D01*
X108110000Y-85469998D01*
X108110000Y-84320000D01*
X106610001Y-84320000D01*
X106110500Y-84320000D01*
X106110499Y-83820000D01*
X106610000Y-83820000D01*
X108110000Y-83820000D01*
X108110000Y-82670000D01*
X107310028Y-82670000D01*
X107310012Y-82670001D01*
X107207302Y-82680494D01*
X107040880Y-82735641D01*
X107040875Y-82735643D01*
X106891654Y-82827684D01*
X106767684Y-82951654D01*
X106675643Y-83100875D01*
X106675641Y-83100880D01*
X106620494Y-83267302D01*
X106620493Y-83267309D01*
X106610000Y-83370013D01*
X106610000Y-83820000D01*
X106110499Y-83820000D01*
X106110499Y-83369992D01*
X106099999Y-83267203D01*
X106044814Y-83100666D01*
X105952712Y-82951344D01*
X105828656Y-82827288D01*
X105735888Y-82770069D01*
X105679336Y-82735187D01*
X105679335Y-82735186D01*
X105679334Y-82735186D01*
X105516995Y-82681392D01*
X105459551Y-82641619D01*
X105432728Y-82577103D01*
X105432000Y-82563686D01*
X105432000Y-79160005D01*
X106019945Y-79160005D01*
X106040130Y-79403605D01*
X106100138Y-79640573D01*
X106198330Y-79864429D01*
X106294626Y-80011819D01*
X106897452Y-79408993D01*
X106907188Y-79438956D01*
X106995186Y-79577619D01*
X107114903Y-79690040D01*
X107249510Y-79764041D01*
X106647758Y-80365794D01*
X106647758Y-80365796D01*
X106690478Y-80399046D01*
X106690484Y-80399050D01*
X106905468Y-80515394D01*
X106905476Y-80515397D01*
X107136664Y-80594765D01*
X107377779Y-80635000D01*
X107622221Y-80635000D01*
X107863335Y-80594765D01*
X108094523Y-80515397D01*
X108094531Y-80515394D01*
X108309514Y-80399051D01*
X108309514Y-80399050D01*
X108352240Y-80365795D01*
X108352240Y-80365794D01*
X107747534Y-79761086D01*
X107815629Y-79734126D01*
X107948492Y-79637595D01*
X108053175Y-79511055D01*
X108101631Y-79408078D01*
X108705372Y-80011819D01*
X108801667Y-79864431D01*
X108801672Y-79864423D01*
X108899861Y-79640573D01*
X108959869Y-79403605D01*
X108980055Y-79160005D01*
X108980055Y-79159994D01*
X108959869Y-78916394D01*
X108899861Y-78679426D01*
X108801669Y-78455570D01*
X108705372Y-78308179D01*
X108102546Y-78911004D01*
X108092812Y-78881044D01*
X108004814Y-78742381D01*
X107885097Y-78629960D01*
X107750488Y-78555957D01*
X108352240Y-77954204D01*
X108352240Y-77954203D01*
X108309514Y-77920949D01*
X108094531Y-77804605D01*
X108094523Y-77804602D01*
X107863335Y-77725234D01*
X107622221Y-77685000D01*
X107377779Y-77685000D01*
X107136664Y-77725234D01*
X106905476Y-77804602D01*
X106905468Y-77804605D01*
X106690481Y-77920951D01*
X106647758Y-77954202D01*
X106647757Y-77954204D01*
X107252466Y-78558912D01*
X107184371Y-78585874D01*
X107051508Y-78682405D01*
X106946825Y-78808945D01*
X106898368Y-78911921D01*
X106294626Y-78308179D01*
X106198328Y-78455575D01*
X106100138Y-78679426D01*
X106040130Y-78916394D01*
X106019945Y-79159994D01*
X106019945Y-79160005D01*
X105432000Y-79160005D01*
X105432000Y-77715399D01*
X105451685Y-77648360D01*
X105468319Y-77627718D01*
X105496037Y-77600000D01*
X109114540Y-77600000D01*
X109134326Y-77788256D01*
X109134327Y-77788259D01*
X109192818Y-77968277D01*
X109192821Y-77968284D01*
X109287467Y-78132216D01*
X109414129Y-78272888D01*
X109567265Y-78384148D01*
X109567270Y-78384151D01*
X109740191Y-78461142D01*
X109740193Y-78461142D01*
X109740197Y-78461144D01*
X109798148Y-78473461D01*
X109859627Y-78506653D01*
X109860046Y-78507070D01*
X111125681Y-79772705D01*
X111159166Y-79834028D01*
X111162000Y-79860386D01*
X111162000Y-80285701D01*
X111164901Y-80322567D01*
X111164902Y-80322573D01*
X111210754Y-80480393D01*
X111210755Y-80480396D01*
X111210756Y-80480398D01*
X111231454Y-80515397D01*
X111294417Y-80621862D01*
X111294423Y-80621870D01*
X111410629Y-80738076D01*
X111410633Y-80738079D01*
X111410635Y-80738081D01*
X111552102Y-80821744D01*
X111560707Y-80824244D01*
X111709926Y-80867597D01*
X111709929Y-80867597D01*
X111709931Y-80867598D01*
X111746806Y-80870500D01*
X111746814Y-80870500D01*
X113053186Y-80870500D01*
X113053194Y-80870500D01*
X113090069Y-80867598D01*
X113090071Y-80867597D01*
X113090073Y-80867597D01*
X113150720Y-80849977D01*
X113247898Y-80821744D01*
X113306194Y-80787268D01*
X113369315Y-80770000D01*
X114025000Y-80770000D01*
X114025000Y-80220000D01*
X113762000Y-80220000D01*
X113694961Y-80200315D01*
X113649206Y-80147511D01*
X113638000Y-80096000D01*
X113638000Y-80044000D01*
X113657685Y-79976961D01*
X113710489Y-79931206D01*
X113762000Y-79920000D01*
X114025000Y-79920000D01*
X114025000Y-79370000D01*
X113369315Y-79370000D01*
X113306194Y-79352732D01*
X113247896Y-79318255D01*
X113247893Y-79318254D01*
X113090073Y-79272402D01*
X113090067Y-79272401D01*
X113053201Y-79269500D01*
X113053194Y-79269500D01*
X112807886Y-79269500D01*
X112740847Y-79249815D01*
X112720205Y-79233181D01*
X110930048Y-77443024D01*
X110899798Y-77393661D01*
X110847181Y-77231721D01*
X110847178Y-77231715D01*
X110752533Y-77067784D01*
X110625871Y-76927112D01*
X110609404Y-76915148D01*
X110472734Y-76815851D01*
X110472729Y-76815848D01*
X110299807Y-76738857D01*
X110299802Y-76738855D01*
X110154001Y-76707865D01*
X110114646Y-76699500D01*
X109925354Y-76699500D01*
X109892897Y-76706398D01*
X109740197Y-76738855D01*
X109740192Y-76738857D01*
X109567270Y-76815848D01*
X109567265Y-76815851D01*
X109414129Y-76927111D01*
X109287466Y-77067785D01*
X109192821Y-77231715D01*
X109192818Y-77231722D01*
X109134327Y-77411740D01*
X109134326Y-77411744D01*
X109114540Y-77600000D01*
X105496037Y-77600000D01*
X107504218Y-75591819D01*
X107565541Y-75558334D01*
X107591899Y-75555500D01*
X107622262Y-75555500D01*
X107622263Y-75555500D01*
X107863455Y-75515252D01*
X108094733Y-75435855D01*
X108309788Y-75319473D01*
X108502754Y-75169281D01*
X108668368Y-74989377D01*
X108802111Y-74784667D01*
X108891886Y-74580000D01*
X111860001Y-74580000D01*
X111860001Y-74679986D01*
X111870494Y-74782697D01*
X111925641Y-74949119D01*
X111925643Y-74949124D01*
X112017684Y-75098345D01*
X112141654Y-75222315D01*
X112290875Y-75314356D01*
X112290880Y-75314358D01*
X112457302Y-75369505D01*
X112457309Y-75369506D01*
X112560019Y-75379999D01*
X112660000Y-75379998D01*
X112660000Y-74580000D01*
X113160000Y-74580000D01*
X113160000Y-75379999D01*
X113259972Y-75379999D01*
X113259986Y-75379998D01*
X113362697Y-75369505D01*
X113529119Y-75314358D01*
X113529124Y-75314356D01*
X113678345Y-75222315D01*
X113802315Y-75098345D01*
X113894356Y-74949124D01*
X113894358Y-74949119D01*
X113949505Y-74782697D01*
X113949506Y-74782690D01*
X113959999Y-74679986D01*
X113960000Y-74679973D01*
X113960000Y-74580000D01*
X113160000Y-74580000D01*
X112660000Y-74580000D01*
X111860001Y-74580000D01*
X108891886Y-74580000D01*
X108900336Y-74560736D01*
X108960364Y-74323692D01*
X108965096Y-74266592D01*
X108980557Y-74080000D01*
X108980557Y-74079994D01*
X108960365Y-73836316D01*
X108960363Y-73836304D01*
X108927304Y-73705758D01*
X108900336Y-73599264D01*
X108802111Y-73375333D01*
X108668368Y-73170623D01*
X108622227Y-73120500D01*
X108604769Y-73101535D01*
X108573848Y-73038880D01*
X108572000Y-73017553D01*
X108572000Y-72921111D01*
X108591685Y-72854072D01*
X108644489Y-72808317D01*
X108713647Y-72798373D01*
X108777203Y-72827398D01*
X108808795Y-72869601D01*
X108817395Y-72888433D01*
X108817399Y-72888440D01*
X108936150Y-73055203D01*
X108936153Y-73055206D01*
X109004003Y-73119901D01*
X109084319Y-73196482D01*
X109256547Y-73307166D01*
X109446609Y-73383255D01*
X109501301Y-73393796D01*
X109647635Y-73422000D01*
X109647636Y-73422000D01*
X111780916Y-73422000D01*
X111824249Y-73429818D01*
X111862517Y-73444091D01*
X111880524Y-73446027D01*
X111945073Y-73472765D01*
X111984921Y-73530157D01*
X111987415Y-73599982D01*
X111972806Y-73634412D01*
X111925645Y-73710871D01*
X111925641Y-73710880D01*
X111870494Y-73877302D01*
X111870493Y-73877309D01*
X111860000Y-73980013D01*
X111860000Y-74080000D01*
X113959999Y-74080000D01*
X113959999Y-73980028D01*
X113959998Y-73980013D01*
X113949505Y-73877302D01*
X113894358Y-73710880D01*
X113894353Y-73710869D01*
X113850391Y-73639596D01*
X113831950Y-73572204D01*
X113852872Y-73505540D01*
X113906514Y-73460771D01*
X113955928Y-73450499D01*
X114217872Y-73450499D01*
X114220975Y-73450165D01*
X114289735Y-73462562D01*
X114340878Y-73510167D01*
X114358166Y-73577864D01*
X114340977Y-73636572D01*
X114328718Y-73657301D01*
X114328716Y-73657306D01*
X114282900Y-73815004D01*
X114282899Y-73815010D01*
X114280000Y-73851850D01*
X114280000Y-74255000D01*
X114830000Y-74255000D01*
X114830000Y-73270203D01*
X115330000Y-73270203D01*
X115330000Y-74255000D01*
X115880000Y-74255000D01*
X115880000Y-73851865D01*
X115879999Y-73851850D01*
X115877100Y-73815010D01*
X115877099Y-73815004D01*
X115831283Y-73657306D01*
X115831282Y-73657303D01*
X115747685Y-73515947D01*
X115747678Y-73515938D01*
X115631561Y-73399821D01*
X115631552Y-73399814D01*
X115490196Y-73316217D01*
X115490193Y-73316216D01*
X115332494Y-73270400D01*
X115332497Y-73270400D01*
X115330000Y-73270203D01*
X114830000Y-73270203D01*
X114827507Y-73270400D01*
X114792203Y-73280657D01*
X114722333Y-73280457D01*
X114663664Y-73242514D01*
X114634821Y-73178875D01*
X114641426Y-73118249D01*
X114664091Y-73057483D01*
X114670500Y-72997873D01*
X114670499Y-71702128D01*
X114664091Y-71642517D01*
X114655519Y-71619535D01*
X114613797Y-71507671D01*
X114613793Y-71507664D01*
X114527547Y-71392455D01*
X114527544Y-71392452D01*
X114405231Y-71300888D01*
X114406930Y-71298617D01*
X114367743Y-71259435D01*
X114352886Y-71191163D01*
X114377298Y-71125697D01*
X114406311Y-71100556D01*
X114405231Y-71099112D01*
X114508012Y-71022169D01*
X114527546Y-71007546D01*
X114613796Y-70892331D01*
X114616467Y-70885170D01*
X114658337Y-70829235D01*
X114723800Y-70804816D01*
X114732650Y-70804500D01*
X115176114Y-70804500D01*
X115243153Y-70824185D01*
G37*
%TD.AperFunction*%
%TA.AperFunction,Conductor*%
G36*
X118681071Y-80114468D02*
G01*
X118714321Y-80121333D01*
X118717794Y-80122103D01*
X118791195Y-80139500D01*
X118791198Y-80139500D01*
X118798369Y-80140339D01*
X118798362Y-80140392D01*
X118805977Y-80141170D01*
X118805982Y-80141117D01*
X118813172Y-80141746D01*
X118813176Y-80141745D01*
X118813177Y-80141746D01*
X118875210Y-80139940D01*
X118888579Y-80139552D01*
X118892185Y-80139500D01*
X118981188Y-80139500D01*
X119048227Y-80159185D01*
X119093982Y-80211989D01*
X119103926Y-80281147D01*
X119074901Y-80344703D01*
X119068869Y-80351181D01*
X119019928Y-80400121D01*
X119019927Y-80400122D01*
X118931980Y-80545604D01*
X118881409Y-80707893D01*
X118875000Y-80778427D01*
X118875000Y-80785000D01*
X119976000Y-80785000D01*
X120043039Y-80804685D01*
X120088794Y-80857489D01*
X120100000Y-80909000D01*
X120100000Y-81934999D01*
X120181581Y-81934999D01*
X120252102Y-81928591D01*
X120252107Y-81928590D01*
X120414396Y-81878018D01*
X120551350Y-81795227D01*
X120618904Y-81777391D01*
X120685378Y-81798908D01*
X120729666Y-81852949D01*
X120739500Y-81901344D01*
X120739500Y-82947581D01*
X120719815Y-83014620D01*
X120667011Y-83060375D01*
X120597853Y-83070319D01*
X120572168Y-83063763D01*
X120497485Y-83035909D01*
X120497483Y-83035908D01*
X120437883Y-83029501D01*
X120437881Y-83029500D01*
X120437873Y-83029500D01*
X120437864Y-83029500D01*
X118142129Y-83029500D01*
X118142123Y-83029501D01*
X118082516Y-83035908D01*
X117947671Y-83086202D01*
X117947664Y-83086206D01*
X117832455Y-83172452D01*
X117832452Y-83172455D01*
X117746206Y-83287664D01*
X117746202Y-83287671D01*
X117695908Y-83422517D01*
X117689501Y-83482116D01*
X117689500Y-83482135D01*
X117689500Y-86153113D01*
X117669815Y-86220152D01*
X117617011Y-86265907D01*
X117547853Y-86275851D01*
X117484297Y-86246826D01*
X117477819Y-86240794D01*
X116028767Y-84791742D01*
X116016985Y-84778109D01*
X116010954Y-84770008D01*
X116002540Y-84758706D01*
X116002538Y-84758704D01*
X116002539Y-84758704D01*
X115964368Y-84726676D01*
X115956385Y-84719360D01*
X115952445Y-84715419D01*
X115927988Y-84696081D01*
X115925192Y-84693803D01*
X115867428Y-84645333D01*
X115861395Y-84641365D01*
X115861423Y-84641321D01*
X115854962Y-84637204D01*
X115854935Y-84637250D01*
X115848791Y-84633460D01*
X115780443Y-84601589D01*
X115777197Y-84600017D01*
X115709816Y-84566177D01*
X115703032Y-84563708D01*
X115703050Y-84563658D01*
X115695808Y-84561141D01*
X115695792Y-84561191D01*
X115688939Y-84558920D01*
X115615089Y-84543671D01*
X115611568Y-84542891D01*
X115538182Y-84525498D01*
X115531015Y-84524661D01*
X115531021Y-84524607D01*
X115523406Y-84523829D01*
X115523402Y-84523883D01*
X115516211Y-84523253D01*
X115440805Y-84525448D01*
X115437199Y-84525500D01*
X114752650Y-84525500D01*
X114685611Y-84505815D01*
X114639856Y-84453011D01*
X114636467Y-84444830D01*
X114633797Y-84437671D01*
X114633793Y-84437664D01*
X114547547Y-84322455D01*
X114547544Y-84322452D01*
X114425231Y-84230888D01*
X114426930Y-84228617D01*
X114387743Y-84189435D01*
X114372886Y-84121163D01*
X114397298Y-84055697D01*
X114426311Y-84030556D01*
X114425231Y-84029112D01*
X114530662Y-83950185D01*
X114547546Y-83937546D01*
X114633796Y-83822331D01*
X114684091Y-83687483D01*
X114690500Y-83627873D01*
X114690499Y-82332128D01*
X114684091Y-82272517D01*
X114678048Y-82256316D01*
X114633797Y-82137671D01*
X114633793Y-82137664D01*
X114544445Y-82018311D01*
X114520027Y-81952847D01*
X114534878Y-81884574D01*
X114584283Y-81835168D01*
X114643711Y-81820000D01*
X114928134Y-81820000D01*
X114928149Y-81819999D01*
X114964989Y-81817100D01*
X114964995Y-81817099D01*
X115122693Y-81771283D01*
X115122696Y-81771282D01*
X115264050Y-81687686D01*
X115264057Y-81687680D01*
X115278741Y-81672997D01*
X115340063Y-81639510D01*
X115409755Y-81644493D01*
X115416860Y-81647397D01*
X115470192Y-81671142D01*
X115470197Y-81671144D01*
X115655354Y-81710500D01*
X115655355Y-81710500D01*
X115844644Y-81710500D01*
X115844646Y-81710500D01*
X116029803Y-81671144D01*
X116202730Y-81594151D01*
X116355871Y-81482888D01*
X116425045Y-81406061D01*
X116484530Y-81369414D01*
X116554387Y-81370744D01*
X116612436Y-81409631D01*
X116635125Y-81450717D01*
X116692818Y-81628277D01*
X116692821Y-81628284D01*
X116787467Y-81792216D01*
X116868059Y-81881722D01*
X116914129Y-81932888D01*
X117067265Y-82044148D01*
X117067270Y-82044151D01*
X117240192Y-82121142D01*
X117240197Y-82121144D01*
X117425354Y-82160500D01*
X117425355Y-82160500D01*
X117614644Y-82160500D01*
X117614646Y-82160500D01*
X117799803Y-82121144D01*
X117972730Y-82044151D01*
X118125871Y-81932888D01*
X118252533Y-81792216D01*
X118347179Y-81628284D01*
X118405674Y-81448256D01*
X118422832Y-81285000D01*
X118875001Y-81285000D01*
X118875001Y-81291582D01*
X118881408Y-81362102D01*
X118881409Y-81362107D01*
X118931981Y-81524396D01*
X119019927Y-81669877D01*
X119140122Y-81790072D01*
X119285604Y-81878019D01*
X119285603Y-81878019D01*
X119447894Y-81928590D01*
X119447892Y-81928590D01*
X119518418Y-81934999D01*
X119599999Y-81934998D01*
X119600000Y-81934998D01*
X119600000Y-81285000D01*
X118875001Y-81285000D01*
X118422832Y-81285000D01*
X118425460Y-81260000D01*
X118405674Y-81071744D01*
X118347179Y-80891716D01*
X118291111Y-80794604D01*
X118274500Y-80732606D01*
X118274500Y-80657520D01*
X118294185Y-80590481D01*
X118310819Y-80569839D01*
X118410468Y-80470189D01*
X118410469Y-80470188D01*
X118410472Y-80470185D01*
X118498478Y-80324606D01*
X118537613Y-80199013D01*
X118576348Y-80140869D01*
X118640373Y-80112894D01*
X118681071Y-80114468D01*
G37*
%TD.AperFunction*%
%TA.AperFunction,Conductor*%
G36*
X121146946Y-76050748D02*
G01*
X121271086Y-76102168D01*
X121271090Y-76102168D01*
X121271091Y-76102169D01*
X121416079Y-76131010D01*
X121416082Y-76131010D01*
X121489901Y-76131010D01*
X124140472Y-76131010D01*
X124207511Y-76150695D01*
X124253266Y-76203499D01*
X124263210Y-76272657D01*
X124243163Y-76324512D01*
X124238661Y-76331163D01*
X124238655Y-76331173D01*
X124158030Y-76519449D01*
X124158028Y-76519456D01*
X124114491Y-76719589D01*
X124111750Y-76765621D01*
X124111750Y-78074378D01*
X124114491Y-78120410D01*
X124158028Y-78320543D01*
X124158031Y-78320551D01*
X124233675Y-78497197D01*
X124241970Y-78566573D01*
X124211441Y-78629420D01*
X124151780Y-78665785D01*
X124119687Y-78670010D01*
X121578579Y-78670010D01*
X121511540Y-78650325D01*
X121465785Y-78597521D01*
X121455841Y-78528363D01*
X121472462Y-78481860D01*
X121483019Y-78464396D01*
X121533590Y-78302106D01*
X121540000Y-78231572D01*
X121540000Y-78150000D01*
X120514000Y-78150000D01*
X120446961Y-78130315D01*
X120401206Y-78077511D01*
X120390000Y-78026000D01*
X120390000Y-77774000D01*
X120409685Y-77706961D01*
X120462489Y-77661206D01*
X120514000Y-77650000D01*
X121539999Y-77650000D01*
X121539999Y-77568417D01*
X121533591Y-77497897D01*
X121533590Y-77497892D01*
X121483018Y-77335603D01*
X121395072Y-77190122D01*
X121274877Y-77069927D01*
X121129395Y-76981980D01*
X121129396Y-76981980D01*
X121039234Y-76953885D01*
X120981086Y-76915148D01*
X120953112Y-76851122D01*
X120957739Y-76798610D01*
X120963543Y-76779983D01*
X120969086Y-76762196D01*
X120975500Y-76691616D01*
X120975500Y-76165311D01*
X120995185Y-76098272D01*
X121047989Y-76052517D01*
X121117147Y-76042573D01*
X121146946Y-76050748D01*
G37*
%TD.AperFunction*%
%TD*%
M02*
