%TF.GenerationSoftware,KiCad,Pcbnew,7.0.11*%
%TF.CreationDate,2024-11-05T15:47:59-05:00*%
%TF.ProjectId,14.X.4 - PMOS - PLC Connector Combined,31342e58-2e34-4202-9d20-504d4f53202d,rev?*%
%TF.SameCoordinates,Original*%
%TF.FileFunction,Drillmap*%
%TF.FilePolarity,Positive*%
%FSLAX45Y45*%
G04 Gerber Fmt 4.5, Leading zero omitted, Abs format (unit mm)*
G04 Created by KiCad (PCBNEW 7.0.11) date 2024-11-05 15:47:59*
%MOMM*%
%LPD*%
G01*
G04 APERTURE LIST*
%ADD10C,0.250000*%
%ADD11C,0.200000*%
%ADD12C,0.100000*%
%ADD13C,0.130000*%
G04 APERTURE END LIST*
D10*
X7124000Y-7599000D02*
X8249000Y-7599000D01*
X10024000Y-11518750D02*
X10024000Y-12520750D01*
X13198999Y-9212051D02*
G75*
G03*
X13124000Y-9137051I-74999J1D01*
G01*
X7049000Y-7778000D02*
X7049000Y-7674000D01*
X8249000Y-11917000D02*
X7124000Y-11917000D01*
X7124000Y-8615000D02*
X8249000Y-8615000D01*
X10224000Y-12520750D02*
X10224000Y-11518750D01*
X7049000Y-11334000D02*
X7049000Y-11230000D01*
X13124000Y-10915051D02*
X12149000Y-10915051D01*
X10024000Y-7312000D02*
X10024000Y-8314000D01*
X7049000Y-11334000D02*
G75*
G03*
X7124000Y-11409000I75000J0D01*
G01*
X13198999Y-12260051D02*
G75*
G03*
X13124000Y-12185051I-74999J1D01*
G01*
X7049000Y-8794000D02*
G75*
G03*
X7124000Y-8869000I75000J0D01*
G01*
X12073999Y-7030051D02*
G75*
G03*
X12149000Y-7105051I75001J1D01*
G01*
X8249000Y-7091000D02*
G75*
G03*
X8324000Y-7016000I0J75000D01*
G01*
X8249000Y-9377000D02*
X7124000Y-9377000D01*
X12074000Y-12006051D02*
X12074000Y-12110051D01*
X12074000Y-7942051D02*
X12074000Y-8554051D01*
X7049000Y-11842000D02*
G75*
G03*
X7124000Y-11917000I75000J0D01*
G01*
X13199000Y-12260051D02*
X13199000Y-12364051D01*
X7124000Y-8615000D02*
G75*
G03*
X7049000Y-8690000I0J-75000D01*
G01*
X7124000Y-11663000D02*
G75*
G03*
X7049000Y-11738000I0J-75000D01*
G01*
X10024000Y-6912000D02*
G75*
G03*
X10224000Y-6912000I100000J0D01*
G01*
X7049000Y-10826000D02*
G75*
G03*
X7124000Y-10901000I75000J0D01*
G01*
X8324000Y-8032000D02*
X8324000Y-7928000D01*
X12073999Y-7538051D02*
G75*
G03*
X12149000Y-7613051I75001J1D01*
G01*
X12073999Y-10586051D02*
G75*
G03*
X12149000Y-10661051I75001J1D01*
G01*
X12149000Y-7867050D02*
G75*
G03*
X12074000Y-7942051I0J-75000D01*
G01*
X8249000Y-10393000D02*
X7124000Y-10393000D01*
X12149000Y-11931050D02*
G75*
G03*
X12074000Y-12006051I0J-75000D01*
G01*
X12149000Y-8629051D02*
X13124000Y-8629051D01*
X13124000Y-7359051D02*
X12149000Y-7359051D01*
X13124000Y-9391051D02*
X12149000Y-9391051D01*
X8249000Y-7599000D02*
G75*
G03*
X8324000Y-7524000I0J75000D01*
G01*
X10024000Y-6912000D02*
G75*
G03*
X9949000Y-6837000I-75000J0D01*
G01*
X8249000Y-7345000D02*
X7124000Y-7345000D01*
X13198999Y-10736051D02*
G75*
G03*
X13124000Y-10661051I-74999J1D01*
G01*
X13199000Y-9212051D02*
X13199000Y-9316051D01*
X10024000Y-8714000D02*
X10024000Y-9716000D01*
X7049000Y-9810000D02*
G75*
G03*
X7124000Y-9885000I75000J0D01*
G01*
X13124000Y-10407051D02*
X12149000Y-10407051D01*
X7049000Y-7778000D02*
G75*
G03*
X7124000Y-7853000I75000J0D01*
G01*
X7049000Y-8794000D02*
X7049000Y-8690000D01*
X8324000Y-11080000D02*
X8324000Y-10976000D01*
X13198999Y-11752051D02*
G75*
G03*
X13124000Y-11677051I-74999J1D01*
G01*
X13124000Y-8883051D02*
X12149000Y-8883051D01*
X7124000Y-11155000D02*
G75*
G03*
X7049000Y-11230000I0J-75000D01*
G01*
X13199000Y-8704051D02*
X13199000Y-8808051D01*
X8324000Y-11484000D02*
G75*
G03*
X8249000Y-11409000I-75000J0D01*
G01*
X10224000Y-10116750D02*
G75*
G03*
X10024000Y-10116750I-100000J0D01*
G01*
X8249000Y-9123000D02*
G75*
G03*
X8324000Y-9048000I0J75000D01*
G01*
X13124000Y-9391050D02*
G75*
G03*
X13199000Y-9316051I0J75000D01*
G01*
X7124000Y-11663000D02*
X8249000Y-11663000D01*
X8249000Y-7853000D02*
X7124000Y-7853000D01*
X8249000Y-10901000D02*
X7124000Y-10901000D01*
X7049000Y-10318000D02*
X7049000Y-10214000D01*
X8324000Y-8944000D02*
G75*
G03*
X8249000Y-8869000I-75000J0D01*
G01*
X12149000Y-9391050D02*
G75*
G03*
X12074000Y-9466051I0J-75000D01*
G01*
X8324000Y-12920750D02*
G75*
G03*
X8399000Y-12995750I75000J0D01*
G01*
X8324000Y-7016000D02*
X8324000Y-6912000D01*
X7049000Y-8286000D02*
G75*
G03*
X7124000Y-8361000I75000J0D01*
G01*
X10224000Y-12920750D02*
G75*
G03*
X10024000Y-12920750I-100000J0D01*
G01*
X10224000Y-11118750D02*
X10224000Y-10116750D01*
X7124000Y-10647000D02*
G75*
G03*
X7049000Y-10722000I0J-75000D01*
G01*
X8249000Y-10647000D02*
G75*
G03*
X8324000Y-10572000I0J75000D01*
G01*
X13198999Y-10228051D02*
G75*
G03*
X13124000Y-10153051I-74999J1D01*
G01*
X10224000Y-9716000D02*
X10224000Y-8714000D01*
X12149000Y-10915050D02*
G75*
G03*
X12074000Y-10990051I0J-75000D01*
G01*
X8249000Y-8361000D02*
X7124000Y-8361000D01*
X8324000Y-10468000D02*
G75*
G03*
X8249000Y-10393000I-75000J0D01*
G01*
X8249000Y-8615000D02*
G75*
G03*
X8324000Y-8540000I0J75000D01*
G01*
X12149000Y-11677051D02*
X13124000Y-11677051D01*
X9949000Y-12995750D02*
X8399000Y-12995750D01*
X12073999Y-6730051D02*
G75*
G03*
X11999000Y-6655051I-74999J1D01*
G01*
X12073999Y-11602051D02*
G75*
G03*
X12149000Y-11677051I75001J1D01*
G01*
X13124000Y-7867050D02*
G75*
G03*
X13199000Y-7792051I0J75000D01*
G01*
X7124000Y-10139000D02*
X8249000Y-10139000D01*
X10224000Y-7312000D02*
G75*
G03*
X10024000Y-7312000I-100000J0D01*
G01*
X10299000Y-6655050D02*
G75*
G03*
X10224000Y-6730051I0J-75000D01*
G01*
X12074000Y-6730051D02*
X12074000Y-7030051D01*
X12073999Y-10078051D02*
G75*
G03*
X12149000Y-10153051I75001J1D01*
G01*
X7049000Y-8286000D02*
X7049000Y-8182000D01*
X13124000Y-11931051D02*
X12149000Y-11931051D01*
X7049000Y-10318000D02*
G75*
G03*
X7124000Y-10393000I75000J0D01*
G01*
X13199000Y-7688051D02*
X13199000Y-7792051D01*
X8324000Y-10976000D02*
G75*
G03*
X8249000Y-10901000I-75000J0D01*
G01*
X12074000Y-10482051D02*
X12074000Y-10586051D01*
X7124000Y-7599000D02*
G75*
G03*
X7049000Y-7674000I0J-75000D01*
G01*
X8249000Y-8107000D02*
G75*
G03*
X8324000Y-8032000I0J75000D01*
G01*
X8324000Y-10064000D02*
X8324000Y-9960000D01*
X12149000Y-7359050D02*
G75*
G03*
X12074000Y-7434051I0J-75000D01*
G01*
X10024000Y-10116750D02*
X10024000Y-11118750D01*
X8324000Y-8436000D02*
G75*
G03*
X8249000Y-8361000I-75000J0D01*
G01*
X7124000Y-11155000D02*
X8249000Y-11155000D01*
X7049000Y-7270000D02*
X7049000Y-7166000D01*
X8324000Y-11992000D02*
G75*
G03*
X8249000Y-11917000I-75000J0D01*
G01*
X12149000Y-10407050D02*
G75*
G03*
X12074000Y-10482051I0J-75000D01*
G01*
X12074000Y-9466051D02*
X12074000Y-10078051D01*
X8324000Y-11588000D02*
X8324000Y-11484000D01*
X13124000Y-11931050D02*
G75*
G03*
X13199000Y-11856051I0J75000D01*
G01*
X10024000Y-11118750D02*
G75*
G03*
X10224000Y-11118750I100000J0D01*
G01*
X7124000Y-10139000D02*
G75*
G03*
X7049000Y-10214000I0J-75000D01*
G01*
X8399000Y-6837000D02*
G75*
G03*
X8324000Y-6912000I0J-75000D01*
G01*
X7049000Y-10826000D02*
X7049000Y-10722000D01*
X13198999Y-7180051D02*
G75*
G03*
X13124000Y-7105051I-74999J1D01*
G01*
X12073999Y-9062051D02*
G75*
G03*
X12149000Y-9137051I75001J1D01*
G01*
X7124000Y-7091000D02*
G75*
G03*
X7049000Y-7166000I0J-75000D01*
G01*
X8324000Y-8540000D02*
X8324000Y-8436000D01*
X12073999Y-8554051D02*
G75*
G03*
X12149000Y-8629051I75001J1D01*
G01*
X7124000Y-9123000D02*
G75*
G03*
X7049000Y-9198000I0J-75000D01*
G01*
X12149000Y-8883050D02*
G75*
G03*
X12074000Y-8958051I0J-75000D01*
G01*
X7124000Y-9631000D02*
G75*
G03*
X7049000Y-9706000I0J-75000D01*
G01*
X7049000Y-9810000D02*
X7049000Y-9706000D01*
X7049000Y-9302000D02*
X7049000Y-9198000D01*
X8324000Y-7420000D02*
G75*
G03*
X8249000Y-7345000I-75000J0D01*
G01*
X8249000Y-11409000D02*
X7124000Y-11409000D01*
X7049000Y-9302000D02*
G75*
G03*
X7124000Y-9377000I75000J0D01*
G01*
X13124000Y-12439050D02*
G75*
G03*
X13199000Y-12364051I0J75000D01*
G01*
X12149000Y-12185051D02*
X13124000Y-12185051D01*
X7049000Y-7270000D02*
G75*
G03*
X7124000Y-7345000I75000J0D01*
G01*
X8324000Y-10572000D02*
X8324000Y-10468000D01*
X10224000Y-6912000D02*
X10224000Y-6730051D01*
X12073999Y-12110051D02*
G75*
G03*
X12149000Y-12185051I75001J1D01*
G01*
X7124000Y-9631000D02*
X8249000Y-9631000D01*
X7124000Y-8107000D02*
G75*
G03*
X7049000Y-8182000I0J-75000D01*
G01*
X12074000Y-8958051D02*
X12074000Y-9062051D01*
X8324000Y-9960000D02*
G75*
G03*
X8249000Y-9885000I-75000J0D01*
G01*
X8249000Y-9885000D02*
X7124000Y-9885000D01*
X10024000Y-8314000D02*
G75*
G03*
X10224000Y-8314000I100000J0D01*
G01*
X11999000Y-13439051D02*
X10299000Y-13439051D01*
X8249000Y-11663000D02*
G75*
G03*
X8324000Y-11588000I0J75000D01*
G01*
X7124000Y-8107000D02*
X8249000Y-8107000D01*
X7124000Y-7091000D02*
X8249000Y-7091000D01*
X8324000Y-7524000D02*
X8324000Y-7420000D01*
X10224000Y-13364051D02*
X10224000Y-12920750D01*
X11999000Y-13439050D02*
G75*
G03*
X12074000Y-13364051I0J75000D01*
G01*
X13124000Y-10407050D02*
G75*
G03*
X13199000Y-10332051I0J75000D01*
G01*
X10224000Y-8714000D02*
G75*
G03*
X10024000Y-8714000I-100000J0D01*
G01*
X8324000Y-9452000D02*
G75*
G03*
X8249000Y-9377000I-75000J0D01*
G01*
X10224000Y-11518750D02*
G75*
G03*
X10024000Y-11518750I-100000J0D01*
G01*
X10024000Y-12520750D02*
G75*
G03*
X10224000Y-12520750I100000J0D01*
G01*
X12074000Y-10990051D02*
X12074000Y-11602051D01*
X9949000Y-12995750D02*
G75*
G03*
X10024000Y-12920750I0J75000D01*
G01*
X12074000Y-7434051D02*
X12074000Y-7538051D01*
X13199000Y-7180051D02*
X13199000Y-7284051D01*
X12149000Y-10153051D02*
X13124000Y-10153051D01*
X10224000Y-8314000D02*
X10224000Y-7312000D01*
X8324000Y-12920750D02*
X8324000Y-11992000D01*
X8249000Y-9631000D02*
G75*
G03*
X8324000Y-9556000I0J75000D01*
G01*
X7049000Y-11842000D02*
X7049000Y-11738000D01*
X8324000Y-9048000D02*
X8324000Y-8944000D01*
X13199000Y-10736051D02*
X13199000Y-10840051D01*
X10223999Y-13364051D02*
G75*
G03*
X10299000Y-13439051I75001J1D01*
G01*
X12149000Y-7613051D02*
X13124000Y-7613051D01*
X13124000Y-12439051D02*
X12149000Y-12439051D01*
X13198999Y-8704051D02*
G75*
G03*
X13124000Y-8629051I-74999J1D01*
G01*
X8249000Y-10139000D02*
G75*
G03*
X8324000Y-10064000I0J75000D01*
G01*
X8324000Y-7928000D02*
G75*
G03*
X8249000Y-7853000I-75000J0D01*
G01*
X8399000Y-6837000D02*
X9949000Y-6837000D01*
X13124000Y-8883050D02*
G75*
G03*
X13199000Y-8808051I0J75000D01*
G01*
X7124000Y-10647000D02*
X8249000Y-10647000D01*
X13199000Y-10228051D02*
X13199000Y-10332051D01*
X13124000Y-7359050D02*
G75*
G03*
X13199000Y-7284051I0J75000D01*
G01*
X13124000Y-10915050D02*
G75*
G03*
X13199000Y-10840051I0J75000D01*
G01*
X12149000Y-12439050D02*
G75*
G03*
X12074000Y-12514051I0J-75000D01*
G01*
X13198999Y-7688051D02*
G75*
G03*
X13124000Y-7613051I-74999J1D01*
G01*
X8324000Y-9556000D02*
X8324000Y-9452000D01*
X12149000Y-9137051D02*
X13124000Y-9137051D01*
X10299000Y-6655051D02*
X11999000Y-6655051D01*
X13124000Y-7867051D02*
X12149000Y-7867051D01*
X8249000Y-11155000D02*
G75*
G03*
X8324000Y-11080000I0J75000D01*
G01*
X13199000Y-11752051D02*
X13199000Y-11856051D01*
X12149000Y-10661051D02*
X13124000Y-10661051D01*
X7124000Y-9123000D02*
X8249000Y-9123000D01*
X8249000Y-8869000D02*
X7124000Y-8869000D01*
X10024000Y-9716000D02*
G75*
G03*
X10224000Y-9716000I100000J0D01*
G01*
X12149000Y-7105051D02*
X13124000Y-7105051D01*
X12074000Y-12514051D02*
X12074000Y-13364051D01*
D11*
D12*
X7914425Y-7678022D02*
X7954425Y-7718022D01*
X7954425Y-7678022D02*
X7914425Y-7718022D01*
X7927125Y-10751422D02*
X7967125Y-10791422D01*
X7967125Y-10751422D02*
X7927125Y-10791422D01*
X7927125Y-11259422D02*
X7967125Y-11299422D01*
X7967125Y-11259422D02*
X7927125Y-11299422D01*
X7927125Y-11767422D02*
X7967125Y-11807422D01*
X7967125Y-11767422D02*
X7927125Y-11807422D01*
X7939825Y-10243422D02*
X7979825Y-10283422D01*
X7979825Y-10243422D02*
X7939825Y-10283422D01*
X7952525Y-8211422D02*
X7992525Y-8251422D01*
X7992525Y-8211422D02*
X7952525Y-8251422D01*
X7965225Y-8719422D02*
X8005225Y-8759422D01*
X8005225Y-8719422D02*
X7965225Y-8759422D01*
X7965225Y-9227422D02*
X8005225Y-9267422D01*
X8005225Y-9227422D02*
X7965225Y-9267422D01*
X7965225Y-9735422D02*
X8005225Y-9775422D01*
X8005225Y-9735422D02*
X7965225Y-9775422D01*
X8066825Y-11259422D02*
X8106825Y-11299422D01*
X8106825Y-11259422D02*
X8066825Y-11299422D01*
X8066825Y-11767422D02*
X8106825Y-11807422D01*
X8106825Y-11767422D02*
X8066825Y-11807422D01*
X8079525Y-7678022D02*
X8119525Y-7718022D01*
X8119525Y-7678022D02*
X8079525Y-7718022D01*
X8104925Y-10243422D02*
X8144925Y-10283422D01*
X8144925Y-10243422D02*
X8104925Y-10283422D01*
X8104925Y-10751422D02*
X8144925Y-10791422D01*
X8144925Y-10751422D02*
X8104925Y-10791422D01*
X8117625Y-8719422D02*
X8157625Y-8759422D01*
X8157625Y-8719422D02*
X8117625Y-8759422D01*
X8130325Y-8211422D02*
X8170325Y-8251422D01*
X8170325Y-8211422D02*
X8130325Y-8251422D01*
X8130325Y-9735422D02*
X8170325Y-9775422D01*
X8170325Y-9735422D02*
X8130325Y-9775422D01*
X8143025Y-9227422D02*
X8183025Y-9267422D01*
X8183025Y-9227422D02*
X8143025Y-9267422D01*
X8206525Y-11767422D02*
X8246525Y-11807422D01*
X8246525Y-11767422D02*
X8206525Y-11807422D01*
X8219225Y-11259422D02*
X8259225Y-11299422D01*
X8259225Y-11259422D02*
X8219225Y-11299422D01*
X8257325Y-7678022D02*
X8297325Y-7718022D01*
X8297325Y-7678022D02*
X8257325Y-7718022D01*
X8257325Y-10243422D02*
X8297325Y-10283422D01*
X8297325Y-10243422D02*
X8257325Y-10283422D01*
X8257325Y-10751422D02*
X8297325Y-10791422D01*
X8297325Y-10751422D02*
X8257325Y-10791422D01*
X8282725Y-8719422D02*
X8322725Y-8759422D01*
X8322725Y-8719422D02*
X8282725Y-8759422D01*
X8282725Y-9735422D02*
X8322725Y-9775422D01*
X8322725Y-9735422D02*
X8282725Y-9775422D01*
X8308125Y-8211422D02*
X8348125Y-8251422D01*
X8348125Y-8211422D02*
X8308125Y-8251422D01*
X8308125Y-9227422D02*
X8348125Y-9267422D01*
X8348125Y-9227422D02*
X8308125Y-9267422D01*
X8955815Y-11462622D02*
X8995815Y-11502622D01*
X8995815Y-11462622D02*
X8955815Y-11502622D01*
X8981225Y-11005422D02*
X9021225Y-11045422D01*
X9021225Y-11005422D02*
X8981225Y-11045422D01*
X9082825Y-11005422D02*
X9122825Y-11045422D01*
X9122825Y-11005422D02*
X9082825Y-11045422D01*
X9108225Y-10002122D02*
X9148225Y-10042122D01*
X9148225Y-10002122D02*
X9108225Y-10042122D01*
X9222525Y-10002122D02*
X9262525Y-10042122D01*
X9262525Y-10002122D02*
X9222525Y-10042122D01*
X9547900Y-10024440D02*
X9587900Y-10064440D01*
X9587900Y-10024440D02*
X9547900Y-10064440D01*
X9870225Y-10524000D02*
X9910225Y-10564000D01*
X9910225Y-10524000D02*
X9870225Y-10564000D01*
X10293000Y-11529000D02*
X10333000Y-11569000D01*
X10333000Y-11529000D02*
X10293000Y-11569000D01*
X10298000Y-13128000D02*
X10338000Y-13168000D01*
X10338000Y-13128000D02*
X10298000Y-13168000D01*
X10298000Y-13230000D02*
X10338000Y-13270000D01*
X10338000Y-13230000D02*
X10298000Y-13270000D01*
X10299000Y-13334000D02*
X10339000Y-13374000D01*
X10339000Y-13334000D02*
X10299000Y-13374000D01*
X10300000Y-10012000D02*
X10340000Y-10052000D01*
X10340000Y-10012000D02*
X10300000Y-10052000D01*
X10307000Y-8552000D02*
X10347000Y-8592000D01*
X10347000Y-8552000D02*
X10307000Y-8592000D01*
X10830000Y-8564000D02*
X10870000Y-8604000D01*
X10870000Y-8564000D02*
X10830000Y-8604000D01*
X10841000Y-10095000D02*
X10881000Y-10135000D01*
X10881000Y-10095000D02*
X10841000Y-10135000D01*
X10919996Y-8738996D02*
X10959996Y-8778996D01*
X10959996Y-8738996D02*
X10919996Y-8778996D01*
X10929524Y-11554801D02*
X10969524Y-11594801D01*
X10969524Y-11554801D02*
X10929524Y-11594801D01*
X10948000Y-9230000D02*
X10988000Y-9270000D01*
X10988000Y-9230000D02*
X10948000Y-9270000D01*
X10955000Y-7215000D02*
X10995000Y-7255000D01*
X10995000Y-7215000D02*
X10955000Y-7255000D01*
X10982000Y-7740000D02*
X11022000Y-7780000D01*
X11022000Y-7740000D02*
X10982000Y-7780000D01*
X10997250Y-8548250D02*
X11037250Y-8588250D01*
X11037250Y-8548250D02*
X10997250Y-8588250D01*
X11003000Y-10827000D02*
X11043000Y-10867000D01*
X11043000Y-10827000D02*
X11003000Y-10867000D01*
X11007000Y-12265000D02*
X11047000Y-12305000D01*
X11047000Y-12265000D02*
X11007000Y-12305000D01*
X11013000Y-11871000D02*
X11053000Y-11911000D01*
X11053000Y-11871000D02*
X11013000Y-11911000D01*
X11014000Y-10366000D02*
X11054000Y-10406000D01*
X11054000Y-10366000D02*
X11014000Y-10406000D01*
X11056000Y-11127000D02*
X11096000Y-11167000D01*
X11096000Y-11127000D02*
X11056000Y-11167000D01*
X11069000Y-7215000D02*
X11109000Y-7255000D01*
X11109000Y-7215000D02*
X11069000Y-7255000D01*
X11073000Y-8086000D02*
X11113000Y-8126000D01*
X11113000Y-8086000D02*
X11073000Y-8126000D01*
X11074000Y-8953000D02*
X11114000Y-8993000D01*
X11114000Y-8953000D02*
X11074000Y-8993000D01*
X11091000Y-11781000D02*
X11131000Y-11821000D01*
X11131000Y-11781000D02*
X11091000Y-11821000D01*
X11095000Y-10294000D02*
X11135000Y-10334000D01*
X11135000Y-10294000D02*
X11095000Y-10334000D01*
X11101000Y-9100000D02*
X11141000Y-9140000D01*
X11141000Y-9100000D02*
X11101000Y-9140000D01*
X11144000Y-8205000D02*
X11184000Y-8245000D01*
X11184000Y-8205000D02*
X11144000Y-8245000D01*
X11155798Y-8858798D02*
X11195798Y-8898798D01*
X11195798Y-8858798D02*
X11155798Y-8898798D01*
X11500400Y-9141750D02*
X11540400Y-9181750D01*
X11540400Y-9141750D02*
X11500400Y-9181750D01*
X11506000Y-7768000D02*
X11546000Y-7808000D01*
X11546000Y-7768000D02*
X11506000Y-7808000D01*
X11507000Y-7618000D02*
X11547000Y-7658000D01*
X11547000Y-7618000D02*
X11507000Y-7658000D01*
X11520000Y-9937000D02*
X11560000Y-9977000D01*
X11560000Y-9937000D02*
X11520000Y-9977000D01*
X11524000Y-11338000D02*
X11564000Y-11378000D01*
X11564000Y-11338000D02*
X11524000Y-11378000D01*
X11534000Y-9496000D02*
X11574000Y-9536000D01*
X11574000Y-9496000D02*
X11534000Y-9536000D01*
X11535000Y-6874000D02*
X11575000Y-6914000D01*
X11575000Y-6874000D02*
X11535000Y-6914000D01*
X11550000Y-8300000D02*
X11590000Y-8340000D01*
X11590000Y-8300000D02*
X11550000Y-8340000D01*
X11555000Y-8061000D02*
X11595000Y-8101000D01*
X11595000Y-8061000D02*
X11555000Y-8101000D01*
X11580000Y-10404000D02*
X11620000Y-10444000D01*
X11620000Y-10404000D02*
X11580000Y-10444000D01*
X11593000Y-12611000D02*
X11633000Y-12651000D01*
X11633000Y-12611000D02*
X11593000Y-12651000D01*
X11628000Y-11227000D02*
X11668000Y-11267000D01*
X11668000Y-11227000D02*
X11628000Y-11267000D01*
X11688000Y-9641000D02*
X11728000Y-9681000D01*
X11728000Y-9641000D02*
X11688000Y-9681000D01*
X11710000Y-11097000D02*
X11750000Y-11137000D01*
X11750000Y-11097000D02*
X11710000Y-11137000D01*
X11713000Y-10967000D02*
X11753000Y-11007000D01*
X11753000Y-10967000D02*
X11713000Y-11007000D01*
X11732000Y-8106000D02*
X11772000Y-8146000D01*
X11772000Y-8106000D02*
X11732000Y-8146000D01*
X11733887Y-10861113D02*
X11773887Y-10901113D01*
X11773887Y-10861113D02*
X11733887Y-10901113D01*
X11753515Y-12725666D02*
X11793515Y-12765666D01*
X11793515Y-12725666D02*
X11753515Y-12765666D01*
X11763400Y-7679913D02*
X11803400Y-7719913D01*
X11803400Y-7679913D02*
X11763400Y-7719913D01*
X11805541Y-7490182D02*
X11845541Y-7530182D01*
X11845541Y-7490182D02*
X11805541Y-7530182D01*
X11824000Y-9148000D02*
X11864000Y-9188000D01*
X11864000Y-9148000D02*
X11824000Y-9188000D01*
X11828983Y-7879545D02*
X11868983Y-7919545D01*
X11868983Y-7879545D02*
X11828983Y-7919545D01*
X11842605Y-7397304D02*
X11882605Y-7437304D01*
X11882605Y-7397304D02*
X11842605Y-7437304D01*
X11909000Y-8213000D02*
X11949000Y-8253000D01*
X11949000Y-8213000D02*
X11909000Y-8253000D01*
X12148000Y-9190000D02*
X12188000Y-9230000D01*
X12188000Y-9190000D02*
X12148000Y-9230000D01*
X12148000Y-9315000D02*
X12188000Y-9355000D01*
X12188000Y-9315000D02*
X12148000Y-9355000D01*
X12173000Y-10838000D02*
X12213000Y-10878000D01*
X12213000Y-10838000D02*
X12173000Y-10878000D01*
X12175000Y-10719000D02*
X12215000Y-10759000D01*
X12215000Y-10719000D02*
X12175000Y-10759000D01*
X12188000Y-11801000D02*
X12228000Y-11841000D01*
X12228000Y-11801000D02*
X12188000Y-11841000D01*
X12273000Y-7650000D02*
X12313000Y-7690000D01*
X12313000Y-7650000D02*
X12273000Y-7690000D01*
X12276000Y-7776000D02*
X12316000Y-7816000D01*
X12316000Y-7776000D02*
X12276000Y-7816000D01*
X12292000Y-8744000D02*
X12332000Y-8784000D01*
X12332000Y-8744000D02*
X12292000Y-8784000D01*
X12313000Y-10729000D02*
X12353000Y-10769000D01*
X12353000Y-10729000D02*
X12313000Y-10769000D01*
X12315000Y-9190000D02*
X12355000Y-9230000D01*
X12355000Y-9190000D02*
X12315000Y-9230000D01*
X12315000Y-9311000D02*
X12355000Y-9351000D01*
X12355000Y-9311000D02*
X12315000Y-9351000D01*
X12315000Y-10835000D02*
X12355000Y-10875000D01*
X12355000Y-10835000D02*
X12315000Y-10875000D01*
X12326000Y-12362000D02*
X12366000Y-12402000D01*
X12366000Y-12362000D02*
X12326000Y-12402000D01*
X12327000Y-12241000D02*
X12367000Y-12281000D01*
X12367000Y-12241000D02*
X12327000Y-12281000D01*
X12336000Y-10261000D02*
X12376000Y-10301000D01*
X12376000Y-10261000D02*
X12336000Y-10301000D01*
X12365000Y-7769000D02*
X12405000Y-7809000D01*
X12405000Y-7769000D02*
X12365000Y-7809000D01*
X12368000Y-7650000D02*
X12408000Y-7690000D01*
X12408000Y-7650000D02*
X12368000Y-7690000D01*
X12393000Y-7219000D02*
X12433000Y-7259000D01*
X12433000Y-7219000D02*
X12393000Y-7259000D01*
X12405000Y-12360000D02*
X12445000Y-12400000D01*
X12445000Y-12360000D02*
X12405000Y-12400000D01*
X12406000Y-12237000D02*
X12446000Y-12277000D01*
X12446000Y-12237000D02*
X12406000Y-12277000D01*
X8527825Y-11031222D02*
G75*
G03*
X8447825Y-11031222I-40000J0D01*
G01*
X8447825Y-11031222D02*
G75*
G03*
X8527825Y-11031222I40000J0D01*
G01*
X8527825Y-11539222D02*
G75*
G03*
X8447825Y-11539222I-40000J0D01*
G01*
X8447825Y-11539222D02*
G75*
G03*
X8527825Y-11539222I40000J0D01*
G01*
X8531825Y-8500222D02*
G75*
G03*
X8451825Y-8500222I-40000J0D01*
G01*
X8451825Y-8500222D02*
G75*
G03*
X8531825Y-8500222I40000J0D01*
G01*
X8531825Y-9008222D02*
G75*
G03*
X8451825Y-9008222I-40000J0D01*
G01*
X8451825Y-9008222D02*
G75*
G03*
X8531825Y-9008222I40000J0D01*
G01*
X8531825Y-10029722D02*
G75*
G03*
X8451825Y-10029722I-40000J0D01*
G01*
X8451825Y-10029722D02*
G75*
G03*
X8531825Y-10029722I40000J0D01*
G01*
X8531825Y-10537722D02*
G75*
G03*
X8451825Y-10537722I-40000J0D01*
G01*
X8451825Y-10537722D02*
G75*
G03*
X8531825Y-10537722I40000J0D01*
G01*
X8540825Y-7478222D02*
G75*
G03*
X8460825Y-7478222I-40000J0D01*
G01*
X8460825Y-7478222D02*
G75*
G03*
X8540825Y-7478222I40000J0D01*
G01*
X8540825Y-7986222D02*
G75*
G03*
X8460825Y-7986222I-40000J0D01*
G01*
X8460825Y-7986222D02*
G75*
G03*
X8540825Y-7986222I40000J0D01*
G01*
X8816000Y-12547470D02*
X8816000Y-12646530D01*
X8766470Y-12597000D02*
X8865530Y-12597000D01*
X9066000Y-12547470D02*
X9066000Y-12646530D01*
X9016470Y-12597000D02*
X9115530Y-12597000D01*
X9316000Y-12547470D02*
X9316000Y-12646530D01*
X9266470Y-12597000D02*
X9365530Y-12597000D01*
X9566000Y-12547470D02*
X9566000Y-12646530D01*
X9516470Y-12597000D02*
X9615530Y-12597000D01*
X10912000Y-13026470D02*
X10912000Y-13125530D01*
X10862470Y-13076000D02*
X10961530Y-13076000D01*
X11162000Y-13026470D02*
X11162000Y-13125530D01*
X11112470Y-13076000D02*
X11211530Y-13076000D01*
X11412000Y-13026470D02*
X11412000Y-13125530D01*
X11362470Y-13076000D02*
X11461530Y-13076000D01*
X11662000Y-13026470D02*
X11662000Y-13125530D01*
X11612470Y-13076000D02*
X11711530Y-13076000D01*
D13*
X9309962Y-7279962D02*
X9309962Y-7188038D01*
X9218038Y-7188038D01*
X9218038Y-7279962D01*
X9309962Y-7279962D01*
X9309962Y-7787962D02*
X9309962Y-7696038D01*
X9218038Y-7696038D01*
X9218038Y-7787962D01*
X9309962Y-7787962D01*
X9309962Y-8295962D02*
X9309962Y-8204038D01*
X9218038Y-8204038D01*
X9218038Y-8295962D01*
X9309962Y-8295962D01*
X9309962Y-8803962D02*
X9309962Y-8712038D01*
X9218038Y-8712038D01*
X9218038Y-8803962D01*
X9309962Y-8803962D01*
X9309962Y-9311962D02*
X9309962Y-9220038D01*
X9218038Y-9220038D01*
X9218038Y-9311962D01*
X9309962Y-9311962D01*
X9309962Y-9819962D02*
X9309962Y-9728038D01*
X9218038Y-9728038D01*
X9218038Y-9819962D01*
X9309962Y-9819962D01*
X9309962Y-10327962D02*
X9309962Y-10236038D01*
X9218038Y-10236038D01*
X9218038Y-10327962D01*
X9309962Y-10327962D01*
X9309962Y-10835962D02*
X9309962Y-10744038D01*
X9218038Y-10744038D01*
X9218038Y-10835962D01*
X9309962Y-10835962D01*
X9309962Y-11343962D02*
X9309962Y-11252038D01*
X9218038Y-11252038D01*
X9218038Y-11343962D01*
X9309962Y-11343962D01*
X9309962Y-11851962D02*
X9309962Y-11760038D01*
X9218038Y-11760038D01*
X9218038Y-11851962D01*
X9309962Y-11851962D01*
X10795962Y-6945962D02*
X10795962Y-6854038D01*
X10704038Y-6854038D01*
X10704038Y-6945962D01*
X10795962Y-6945962D01*
X10795962Y-7453962D02*
X10795962Y-7362038D01*
X10704038Y-7362038D01*
X10704038Y-7453962D01*
X10795962Y-7453962D01*
X10795962Y-7961962D02*
X10795962Y-7870038D01*
X10704038Y-7870038D01*
X10704038Y-7961962D01*
X10795962Y-7961962D01*
X10795962Y-8945962D02*
X10795962Y-8854038D01*
X10704038Y-8854038D01*
X10704038Y-8945962D01*
X10795962Y-8945962D01*
X10795962Y-9453962D02*
X10795962Y-9362038D01*
X10704038Y-9362038D01*
X10704038Y-9453962D01*
X10795962Y-9453962D01*
X10795962Y-10445962D02*
X10795962Y-10354038D01*
X10704038Y-10354038D01*
X10704038Y-10445962D01*
X10795962Y-10445962D01*
X10795962Y-10953962D02*
X10795962Y-10862038D01*
X10704038Y-10862038D01*
X10704038Y-10953962D01*
X10795962Y-10953962D01*
X10795962Y-11985962D02*
X10795962Y-11894038D01*
X10704038Y-11894038D01*
X10704038Y-11985962D01*
X10795962Y-11985962D01*
X10795962Y-12493962D02*
X10795962Y-12402038D01*
X10704038Y-12402038D01*
X10704038Y-12493962D01*
X10795962Y-12493962D01*
D11*
X7297277Y-13763035D02*
X7297277Y-13563035D01*
X7297277Y-13563035D02*
X7344896Y-13563035D01*
X7344896Y-13563035D02*
X7373467Y-13572559D01*
X7373467Y-13572559D02*
X7392515Y-13591606D01*
X7392515Y-13591606D02*
X7402039Y-13610654D01*
X7402039Y-13610654D02*
X7411562Y-13648749D01*
X7411562Y-13648749D02*
X7411562Y-13677320D01*
X7411562Y-13677320D02*
X7402039Y-13715416D01*
X7402039Y-13715416D02*
X7392515Y-13734463D01*
X7392515Y-13734463D02*
X7373467Y-13753511D01*
X7373467Y-13753511D02*
X7344896Y-13763035D01*
X7344896Y-13763035D02*
X7297277Y-13763035D01*
X7497277Y-13763035D02*
X7497277Y-13629701D01*
X7497277Y-13667797D02*
X7506801Y-13648749D01*
X7506801Y-13648749D02*
X7516324Y-13639225D01*
X7516324Y-13639225D02*
X7535372Y-13629701D01*
X7535372Y-13629701D02*
X7554420Y-13629701D01*
X7621086Y-13763035D02*
X7621086Y-13629701D01*
X7621086Y-13563035D02*
X7611562Y-13572559D01*
X7611562Y-13572559D02*
X7621086Y-13582082D01*
X7621086Y-13582082D02*
X7630610Y-13572559D01*
X7630610Y-13572559D02*
X7621086Y-13563035D01*
X7621086Y-13563035D02*
X7621086Y-13582082D01*
X7744896Y-13763035D02*
X7725848Y-13753511D01*
X7725848Y-13753511D02*
X7716324Y-13734463D01*
X7716324Y-13734463D02*
X7716324Y-13563035D01*
X7849658Y-13763035D02*
X7830610Y-13753511D01*
X7830610Y-13753511D02*
X7821086Y-13734463D01*
X7821086Y-13734463D02*
X7821086Y-13563035D01*
X8078229Y-13763035D02*
X8078229Y-13563035D01*
X8078229Y-13563035D02*
X8144896Y-13705892D01*
X8144896Y-13705892D02*
X8211562Y-13563035D01*
X8211562Y-13563035D02*
X8211562Y-13763035D01*
X8392515Y-13763035D02*
X8392515Y-13658273D01*
X8392515Y-13658273D02*
X8382991Y-13639225D01*
X8382991Y-13639225D02*
X8363943Y-13629701D01*
X8363943Y-13629701D02*
X8325848Y-13629701D01*
X8325848Y-13629701D02*
X8306801Y-13639225D01*
X8392515Y-13753511D02*
X8373467Y-13763035D01*
X8373467Y-13763035D02*
X8325848Y-13763035D01*
X8325848Y-13763035D02*
X8306801Y-13753511D01*
X8306801Y-13753511D02*
X8297277Y-13734463D01*
X8297277Y-13734463D02*
X8297277Y-13715416D01*
X8297277Y-13715416D02*
X8306801Y-13696368D01*
X8306801Y-13696368D02*
X8325848Y-13686844D01*
X8325848Y-13686844D02*
X8373467Y-13686844D01*
X8373467Y-13686844D02*
X8392515Y-13677320D01*
X8487753Y-13629701D02*
X8487753Y-13829701D01*
X8487753Y-13639225D02*
X8506801Y-13629701D01*
X8506801Y-13629701D02*
X8544896Y-13629701D01*
X8544896Y-13629701D02*
X8563944Y-13639225D01*
X8563944Y-13639225D02*
X8573467Y-13648749D01*
X8573467Y-13648749D02*
X8582991Y-13667797D01*
X8582991Y-13667797D02*
X8582991Y-13724939D01*
X8582991Y-13724939D02*
X8573467Y-13743987D01*
X8573467Y-13743987D02*
X8563944Y-13753511D01*
X8563944Y-13753511D02*
X8544896Y-13763035D01*
X8544896Y-13763035D02*
X8506801Y-13763035D01*
X8506801Y-13763035D02*
X8487753Y-13753511D01*
X8668705Y-13743987D02*
X8678229Y-13753511D01*
X8678229Y-13753511D02*
X8668705Y-13763035D01*
X8668705Y-13763035D02*
X8659182Y-13753511D01*
X8659182Y-13753511D02*
X8668705Y-13743987D01*
X8668705Y-13743987D02*
X8668705Y-13763035D01*
X8668705Y-13639225D02*
X8678229Y-13648749D01*
X8678229Y-13648749D02*
X8668705Y-13658273D01*
X8668705Y-13658273D02*
X8659182Y-13648749D01*
X8659182Y-13648749D02*
X8668705Y-13639225D01*
X8668705Y-13639225D02*
X8668705Y-13658273D01*
D12*
X6996500Y-14071551D02*
X7036500Y-14111551D01*
X7036500Y-14071551D02*
X6996500Y-14111551D01*
D11*
X7335372Y-13983035D02*
X7354420Y-13983035D01*
X7354420Y-13983035D02*
X7373467Y-13992559D01*
X7373467Y-13992559D02*
X7382991Y-14002082D01*
X7382991Y-14002082D02*
X7392515Y-14021130D01*
X7392515Y-14021130D02*
X7402039Y-14059225D01*
X7402039Y-14059225D02*
X7402039Y-14106844D01*
X7402039Y-14106844D02*
X7392515Y-14144939D01*
X7392515Y-14144939D02*
X7382991Y-14163987D01*
X7382991Y-14163987D02*
X7373467Y-14173511D01*
X7373467Y-14173511D02*
X7354420Y-14183035D01*
X7354420Y-14183035D02*
X7335372Y-14183035D01*
X7335372Y-14183035D02*
X7316324Y-14173511D01*
X7316324Y-14173511D02*
X7306801Y-14163987D01*
X7306801Y-14163987D02*
X7297277Y-14144939D01*
X7297277Y-14144939D02*
X7287753Y-14106844D01*
X7287753Y-14106844D02*
X7287753Y-14059225D01*
X7287753Y-14059225D02*
X7297277Y-14021130D01*
X7297277Y-14021130D02*
X7306801Y-14002082D01*
X7306801Y-14002082D02*
X7316324Y-13992559D01*
X7316324Y-13992559D02*
X7335372Y-13983035D01*
X7487753Y-14163987D02*
X7497277Y-14173511D01*
X7497277Y-14173511D02*
X7487753Y-14183035D01*
X7487753Y-14183035D02*
X7478229Y-14173511D01*
X7478229Y-14173511D02*
X7487753Y-14163987D01*
X7487753Y-14163987D02*
X7487753Y-14183035D01*
X7668705Y-14049701D02*
X7668705Y-14183035D01*
X7621086Y-13973511D02*
X7573467Y-14116368D01*
X7573467Y-14116368D02*
X7697277Y-14116368D01*
X7811562Y-13983035D02*
X7830610Y-13983035D01*
X7830610Y-13983035D02*
X7849658Y-13992559D01*
X7849658Y-13992559D02*
X7859182Y-14002082D01*
X7859182Y-14002082D02*
X7868705Y-14021130D01*
X7868705Y-14021130D02*
X7878229Y-14059225D01*
X7878229Y-14059225D02*
X7878229Y-14106844D01*
X7878229Y-14106844D02*
X7868705Y-14144939D01*
X7868705Y-14144939D02*
X7859182Y-14163987D01*
X7859182Y-14163987D02*
X7849658Y-14173511D01*
X7849658Y-14173511D02*
X7830610Y-14183035D01*
X7830610Y-14183035D02*
X7811562Y-14183035D01*
X7811562Y-14183035D02*
X7792515Y-14173511D01*
X7792515Y-14173511D02*
X7782991Y-14163987D01*
X7782991Y-14163987D02*
X7773467Y-14144939D01*
X7773467Y-14144939D02*
X7763943Y-14106844D01*
X7763943Y-14106844D02*
X7763943Y-14059225D01*
X7763943Y-14059225D02*
X7773467Y-14021130D01*
X7773467Y-14021130D02*
X7782991Y-14002082D01*
X7782991Y-14002082D02*
X7792515Y-13992559D01*
X7792515Y-13992559D02*
X7811562Y-13983035D01*
X8002039Y-13983035D02*
X8021086Y-13983035D01*
X8021086Y-13983035D02*
X8040134Y-13992559D01*
X8040134Y-13992559D02*
X8049658Y-14002082D01*
X8049658Y-14002082D02*
X8059182Y-14021130D01*
X8059182Y-14021130D02*
X8068705Y-14059225D01*
X8068705Y-14059225D02*
X8068705Y-14106844D01*
X8068705Y-14106844D02*
X8059182Y-14144939D01*
X8059182Y-14144939D02*
X8049658Y-14163987D01*
X8049658Y-14163987D02*
X8040134Y-14173511D01*
X8040134Y-14173511D02*
X8021086Y-14183035D01*
X8021086Y-14183035D02*
X8002039Y-14183035D01*
X8002039Y-14183035D02*
X7982991Y-14173511D01*
X7982991Y-14173511D02*
X7973467Y-14163987D01*
X7973467Y-14163987D02*
X7963943Y-14144939D01*
X7963943Y-14144939D02*
X7954420Y-14106844D01*
X7954420Y-14106844D02*
X7954420Y-14059225D01*
X7954420Y-14059225D02*
X7963943Y-14021130D01*
X7963943Y-14021130D02*
X7973467Y-14002082D01*
X7973467Y-14002082D02*
X7982991Y-13992559D01*
X7982991Y-13992559D02*
X8002039Y-13983035D01*
X8154420Y-14183035D02*
X8154420Y-14049701D01*
X8154420Y-14068749D02*
X8163943Y-14059225D01*
X8163943Y-14059225D02*
X8182991Y-14049701D01*
X8182991Y-14049701D02*
X8211563Y-14049701D01*
X8211563Y-14049701D02*
X8230610Y-14059225D01*
X8230610Y-14059225D02*
X8240134Y-14078273D01*
X8240134Y-14078273D02*
X8240134Y-14183035D01*
X8240134Y-14078273D02*
X8249658Y-14059225D01*
X8249658Y-14059225D02*
X8268705Y-14049701D01*
X8268705Y-14049701D02*
X8297277Y-14049701D01*
X8297277Y-14049701D02*
X8316324Y-14059225D01*
X8316324Y-14059225D02*
X8325848Y-14078273D01*
X8325848Y-14078273D02*
X8325848Y-14183035D01*
X8421086Y-14183035D02*
X8421086Y-14049701D01*
X8421086Y-14068749D02*
X8430610Y-14059225D01*
X8430610Y-14059225D02*
X8449658Y-14049701D01*
X8449658Y-14049701D02*
X8478229Y-14049701D01*
X8478229Y-14049701D02*
X8497277Y-14059225D01*
X8497277Y-14059225D02*
X8506801Y-14078273D01*
X8506801Y-14078273D02*
X8506801Y-14183035D01*
X8506801Y-14078273D02*
X8516325Y-14059225D01*
X8516325Y-14059225D02*
X8535372Y-14049701D01*
X8535372Y-14049701D02*
X8563944Y-14049701D01*
X8563944Y-14049701D02*
X8582991Y-14059225D01*
X8582991Y-14059225D02*
X8592515Y-14078273D01*
X8592515Y-14078273D02*
X8592515Y-14183035D01*
X8982991Y-13973511D02*
X8811563Y-14230654D01*
X9240134Y-13983035D02*
X9259182Y-13983035D01*
X9259182Y-13983035D02*
X9278229Y-13992559D01*
X9278229Y-13992559D02*
X9287753Y-14002082D01*
X9287753Y-14002082D02*
X9297277Y-14021130D01*
X9297277Y-14021130D02*
X9306801Y-14059225D01*
X9306801Y-14059225D02*
X9306801Y-14106844D01*
X9306801Y-14106844D02*
X9297277Y-14144939D01*
X9297277Y-14144939D02*
X9287753Y-14163987D01*
X9287753Y-14163987D02*
X9278229Y-14173511D01*
X9278229Y-14173511D02*
X9259182Y-14183035D01*
X9259182Y-14183035D02*
X9240134Y-14183035D01*
X9240134Y-14183035D02*
X9221087Y-14173511D01*
X9221087Y-14173511D02*
X9211563Y-14163987D01*
X9211563Y-14163987D02*
X9202039Y-14144939D01*
X9202039Y-14144939D02*
X9192515Y-14106844D01*
X9192515Y-14106844D02*
X9192515Y-14059225D01*
X9192515Y-14059225D02*
X9202039Y-14021130D01*
X9202039Y-14021130D02*
X9211563Y-14002082D01*
X9211563Y-14002082D02*
X9221087Y-13992559D01*
X9221087Y-13992559D02*
X9240134Y-13983035D01*
X9392515Y-14163987D02*
X9402039Y-14173511D01*
X9402039Y-14173511D02*
X9392515Y-14183035D01*
X9392515Y-14183035D02*
X9382991Y-14173511D01*
X9382991Y-14173511D02*
X9392515Y-14163987D01*
X9392515Y-14163987D02*
X9392515Y-14183035D01*
X9525848Y-13983035D02*
X9544896Y-13983035D01*
X9544896Y-13983035D02*
X9563944Y-13992559D01*
X9563944Y-13992559D02*
X9573468Y-14002082D01*
X9573468Y-14002082D02*
X9582991Y-14021130D01*
X9582991Y-14021130D02*
X9592515Y-14059225D01*
X9592515Y-14059225D02*
X9592515Y-14106844D01*
X9592515Y-14106844D02*
X9582991Y-14144939D01*
X9582991Y-14144939D02*
X9573468Y-14163987D01*
X9573468Y-14163987D02*
X9563944Y-14173511D01*
X9563944Y-14173511D02*
X9544896Y-14183035D01*
X9544896Y-14183035D02*
X9525848Y-14183035D01*
X9525848Y-14183035D02*
X9506801Y-14173511D01*
X9506801Y-14173511D02*
X9497277Y-14163987D01*
X9497277Y-14163987D02*
X9487753Y-14144939D01*
X9487753Y-14144939D02*
X9478229Y-14106844D01*
X9478229Y-14106844D02*
X9478229Y-14059225D01*
X9478229Y-14059225D02*
X9487753Y-14021130D01*
X9487753Y-14021130D02*
X9497277Y-14002082D01*
X9497277Y-14002082D02*
X9506801Y-13992559D01*
X9506801Y-13992559D02*
X9525848Y-13983035D01*
X9782991Y-14183035D02*
X9668706Y-14183035D01*
X9725848Y-14183035D02*
X9725848Y-13983035D01*
X9725848Y-13983035D02*
X9706801Y-14011606D01*
X9706801Y-14011606D02*
X9687753Y-14030654D01*
X9687753Y-14030654D02*
X9668706Y-14040178D01*
X9963944Y-13983035D02*
X9868706Y-13983035D01*
X9868706Y-13983035D02*
X9859182Y-14078273D01*
X9859182Y-14078273D02*
X9868706Y-14068749D01*
X9868706Y-14068749D02*
X9887753Y-14059225D01*
X9887753Y-14059225D02*
X9935372Y-14059225D01*
X9935372Y-14059225D02*
X9954420Y-14068749D01*
X9954420Y-14068749D02*
X9963944Y-14078273D01*
X9963944Y-14078273D02*
X9973468Y-14097320D01*
X9973468Y-14097320D02*
X9973468Y-14144939D01*
X9973468Y-14144939D02*
X9963944Y-14163987D01*
X9963944Y-14163987D02*
X9954420Y-14173511D01*
X9954420Y-14173511D02*
X9935372Y-14183035D01*
X9935372Y-14183035D02*
X9887753Y-14183035D01*
X9887753Y-14183035D02*
X9868706Y-14173511D01*
X9868706Y-14173511D02*
X9859182Y-14163987D01*
X10040134Y-13983035D02*
X10173468Y-13983035D01*
X10173468Y-13983035D02*
X10087753Y-14183035D01*
X10240134Y-13983035D02*
X10240134Y-14021130D01*
X10316325Y-13983035D02*
X10316325Y-14021130D01*
X10611563Y-14259225D02*
X10602039Y-14249701D01*
X10602039Y-14249701D02*
X10582991Y-14221130D01*
X10582991Y-14221130D02*
X10573468Y-14202082D01*
X10573468Y-14202082D02*
X10563944Y-14173511D01*
X10563944Y-14173511D02*
X10554420Y-14125892D01*
X10554420Y-14125892D02*
X10554420Y-14087797D01*
X10554420Y-14087797D02*
X10563944Y-14040178D01*
X10563944Y-14040178D02*
X10573468Y-14011606D01*
X10573468Y-14011606D02*
X10582991Y-13992559D01*
X10582991Y-13992559D02*
X10602039Y-13963987D01*
X10602039Y-13963987D02*
X10611563Y-13954463D01*
X10792515Y-14183035D02*
X10678230Y-14183035D01*
X10735372Y-14183035D02*
X10735372Y-13983035D01*
X10735372Y-13983035D02*
X10716325Y-14011606D01*
X10716325Y-14011606D02*
X10697277Y-14030654D01*
X10697277Y-14030654D02*
X10678230Y-14040178D01*
X10916325Y-13983035D02*
X10935372Y-13983035D01*
X10935372Y-13983035D02*
X10954420Y-13992559D01*
X10954420Y-13992559D02*
X10963944Y-14002082D01*
X10963944Y-14002082D02*
X10973468Y-14021130D01*
X10973468Y-14021130D02*
X10982991Y-14059225D01*
X10982991Y-14059225D02*
X10982991Y-14106844D01*
X10982991Y-14106844D02*
X10973468Y-14144939D01*
X10973468Y-14144939D02*
X10963944Y-14163987D01*
X10963944Y-14163987D02*
X10954420Y-14173511D01*
X10954420Y-14173511D02*
X10935372Y-14183035D01*
X10935372Y-14183035D02*
X10916325Y-14183035D01*
X10916325Y-14183035D02*
X10897277Y-14173511D01*
X10897277Y-14173511D02*
X10887753Y-14163987D01*
X10887753Y-14163987D02*
X10878230Y-14144939D01*
X10878230Y-14144939D02*
X10868706Y-14106844D01*
X10868706Y-14106844D02*
X10868706Y-14059225D01*
X10868706Y-14059225D02*
X10878230Y-14021130D01*
X10878230Y-14021130D02*
X10887753Y-14002082D01*
X10887753Y-14002082D02*
X10897277Y-13992559D01*
X10897277Y-13992559D02*
X10916325Y-13983035D01*
X11163944Y-13983035D02*
X11068706Y-13983035D01*
X11068706Y-13983035D02*
X11059182Y-14078273D01*
X11059182Y-14078273D02*
X11068706Y-14068749D01*
X11068706Y-14068749D02*
X11087753Y-14059225D01*
X11087753Y-14059225D02*
X11135372Y-14059225D01*
X11135372Y-14059225D02*
X11154420Y-14068749D01*
X11154420Y-14068749D02*
X11163944Y-14078273D01*
X11163944Y-14078273D02*
X11173468Y-14097320D01*
X11173468Y-14097320D02*
X11173468Y-14144939D01*
X11173468Y-14144939D02*
X11163944Y-14163987D01*
X11163944Y-14163987D02*
X11154420Y-14173511D01*
X11154420Y-14173511D02*
X11135372Y-14183035D01*
X11135372Y-14183035D02*
X11087753Y-14183035D01*
X11087753Y-14183035D02*
X11068706Y-14173511D01*
X11068706Y-14173511D02*
X11059182Y-14163987D01*
X11411563Y-14183035D02*
X11411563Y-13983035D01*
X11497277Y-14183035D02*
X11497277Y-14078273D01*
X11497277Y-14078273D02*
X11487753Y-14059225D01*
X11487753Y-14059225D02*
X11468706Y-14049701D01*
X11468706Y-14049701D02*
X11440134Y-14049701D01*
X11440134Y-14049701D02*
X11421087Y-14059225D01*
X11421087Y-14059225D02*
X11411563Y-14068749D01*
X11621087Y-14183035D02*
X11602039Y-14173511D01*
X11602039Y-14173511D02*
X11592515Y-14163987D01*
X11592515Y-14163987D02*
X11582991Y-14144939D01*
X11582991Y-14144939D02*
X11582991Y-14087797D01*
X11582991Y-14087797D02*
X11592515Y-14068749D01*
X11592515Y-14068749D02*
X11602039Y-14059225D01*
X11602039Y-14059225D02*
X11621087Y-14049701D01*
X11621087Y-14049701D02*
X11649658Y-14049701D01*
X11649658Y-14049701D02*
X11668706Y-14059225D01*
X11668706Y-14059225D02*
X11678230Y-14068749D01*
X11678230Y-14068749D02*
X11687753Y-14087797D01*
X11687753Y-14087797D02*
X11687753Y-14144939D01*
X11687753Y-14144939D02*
X11678230Y-14163987D01*
X11678230Y-14163987D02*
X11668706Y-14173511D01*
X11668706Y-14173511D02*
X11649658Y-14183035D01*
X11649658Y-14183035D02*
X11621087Y-14183035D01*
X11802039Y-14183035D02*
X11782991Y-14173511D01*
X11782991Y-14173511D02*
X11773468Y-14154463D01*
X11773468Y-14154463D02*
X11773468Y-13983035D01*
X11954420Y-14173511D02*
X11935372Y-14183035D01*
X11935372Y-14183035D02*
X11897277Y-14183035D01*
X11897277Y-14183035D02*
X11878230Y-14173511D01*
X11878230Y-14173511D02*
X11868706Y-14154463D01*
X11868706Y-14154463D02*
X11868706Y-14078273D01*
X11868706Y-14078273D02*
X11878230Y-14059225D01*
X11878230Y-14059225D02*
X11897277Y-14049701D01*
X11897277Y-14049701D02*
X11935372Y-14049701D01*
X11935372Y-14049701D02*
X11954420Y-14059225D01*
X11954420Y-14059225D02*
X11963944Y-14078273D01*
X11963944Y-14078273D02*
X11963944Y-14097320D01*
X11963944Y-14097320D02*
X11868706Y-14116368D01*
X12040134Y-14173511D02*
X12059182Y-14183035D01*
X12059182Y-14183035D02*
X12097277Y-14183035D01*
X12097277Y-14183035D02*
X12116325Y-14173511D01*
X12116325Y-14173511D02*
X12125849Y-14154463D01*
X12125849Y-14154463D02*
X12125849Y-14144939D01*
X12125849Y-14144939D02*
X12116325Y-14125892D01*
X12116325Y-14125892D02*
X12097277Y-14116368D01*
X12097277Y-14116368D02*
X12068706Y-14116368D01*
X12068706Y-14116368D02*
X12049658Y-14106844D01*
X12049658Y-14106844D02*
X12040134Y-14087797D01*
X12040134Y-14087797D02*
X12040134Y-14078273D01*
X12040134Y-14078273D02*
X12049658Y-14059225D01*
X12049658Y-14059225D02*
X12068706Y-14049701D01*
X12068706Y-14049701D02*
X12097277Y-14049701D01*
X12097277Y-14049701D02*
X12116325Y-14059225D01*
X12192515Y-14259225D02*
X12202039Y-14249701D01*
X12202039Y-14249701D02*
X12221087Y-14221130D01*
X12221087Y-14221130D02*
X12230611Y-14202082D01*
X12230611Y-14202082D02*
X12240134Y-14173511D01*
X12240134Y-14173511D02*
X12249658Y-14125892D01*
X12249658Y-14125892D02*
X12249658Y-14087797D01*
X12249658Y-14087797D02*
X12240134Y-14040178D01*
X12240134Y-14040178D02*
X12230611Y-14011606D01*
X12230611Y-14011606D02*
X12221087Y-13992559D01*
X12221087Y-13992559D02*
X12202039Y-13963987D01*
X12202039Y-13963987D02*
X12192515Y-13954463D01*
D12*
X7036500Y-14355551D02*
G75*
G03*
X6956500Y-14355551I-40000J0D01*
G01*
X6956500Y-14355551D02*
G75*
G03*
X7036500Y-14355551I40000J0D01*
G01*
D11*
X7335372Y-14247035D02*
X7354420Y-14247035D01*
X7354420Y-14247035D02*
X7373467Y-14256559D01*
X7373467Y-14256559D02*
X7382991Y-14266082D01*
X7382991Y-14266082D02*
X7392515Y-14285130D01*
X7392515Y-14285130D02*
X7402039Y-14323225D01*
X7402039Y-14323225D02*
X7402039Y-14370844D01*
X7402039Y-14370844D02*
X7392515Y-14408939D01*
X7392515Y-14408939D02*
X7382991Y-14427987D01*
X7382991Y-14427987D02*
X7373467Y-14437511D01*
X7373467Y-14437511D02*
X7354420Y-14447035D01*
X7354420Y-14447035D02*
X7335372Y-14447035D01*
X7335372Y-14447035D02*
X7316324Y-14437511D01*
X7316324Y-14437511D02*
X7306801Y-14427987D01*
X7306801Y-14427987D02*
X7297277Y-14408939D01*
X7297277Y-14408939D02*
X7287753Y-14370844D01*
X7287753Y-14370844D02*
X7287753Y-14323225D01*
X7287753Y-14323225D02*
X7297277Y-14285130D01*
X7297277Y-14285130D02*
X7306801Y-14266082D01*
X7306801Y-14266082D02*
X7316324Y-14256559D01*
X7316324Y-14256559D02*
X7335372Y-14247035D01*
X7487753Y-14427987D02*
X7497277Y-14437511D01*
X7497277Y-14437511D02*
X7487753Y-14447035D01*
X7487753Y-14447035D02*
X7478229Y-14437511D01*
X7478229Y-14437511D02*
X7487753Y-14427987D01*
X7487753Y-14427987D02*
X7487753Y-14447035D01*
X7611562Y-14332749D02*
X7592515Y-14323225D01*
X7592515Y-14323225D02*
X7582991Y-14313701D01*
X7582991Y-14313701D02*
X7573467Y-14294654D01*
X7573467Y-14294654D02*
X7573467Y-14285130D01*
X7573467Y-14285130D02*
X7582991Y-14266082D01*
X7582991Y-14266082D02*
X7592515Y-14256559D01*
X7592515Y-14256559D02*
X7611562Y-14247035D01*
X7611562Y-14247035D02*
X7649658Y-14247035D01*
X7649658Y-14247035D02*
X7668705Y-14256559D01*
X7668705Y-14256559D02*
X7678229Y-14266082D01*
X7678229Y-14266082D02*
X7687753Y-14285130D01*
X7687753Y-14285130D02*
X7687753Y-14294654D01*
X7687753Y-14294654D02*
X7678229Y-14313701D01*
X7678229Y-14313701D02*
X7668705Y-14323225D01*
X7668705Y-14323225D02*
X7649658Y-14332749D01*
X7649658Y-14332749D02*
X7611562Y-14332749D01*
X7611562Y-14332749D02*
X7592515Y-14342273D01*
X7592515Y-14342273D02*
X7582991Y-14351797D01*
X7582991Y-14351797D02*
X7573467Y-14370844D01*
X7573467Y-14370844D02*
X7573467Y-14408939D01*
X7573467Y-14408939D02*
X7582991Y-14427987D01*
X7582991Y-14427987D02*
X7592515Y-14437511D01*
X7592515Y-14437511D02*
X7611562Y-14447035D01*
X7611562Y-14447035D02*
X7649658Y-14447035D01*
X7649658Y-14447035D02*
X7668705Y-14437511D01*
X7668705Y-14437511D02*
X7678229Y-14427987D01*
X7678229Y-14427987D02*
X7687753Y-14408939D01*
X7687753Y-14408939D02*
X7687753Y-14370844D01*
X7687753Y-14370844D02*
X7678229Y-14351797D01*
X7678229Y-14351797D02*
X7668705Y-14342273D01*
X7668705Y-14342273D02*
X7649658Y-14332749D01*
X7811562Y-14247035D02*
X7830610Y-14247035D01*
X7830610Y-14247035D02*
X7849658Y-14256559D01*
X7849658Y-14256559D02*
X7859182Y-14266082D01*
X7859182Y-14266082D02*
X7868705Y-14285130D01*
X7868705Y-14285130D02*
X7878229Y-14323225D01*
X7878229Y-14323225D02*
X7878229Y-14370844D01*
X7878229Y-14370844D02*
X7868705Y-14408939D01*
X7868705Y-14408939D02*
X7859182Y-14427987D01*
X7859182Y-14427987D02*
X7849658Y-14437511D01*
X7849658Y-14437511D02*
X7830610Y-14447035D01*
X7830610Y-14447035D02*
X7811562Y-14447035D01*
X7811562Y-14447035D02*
X7792515Y-14437511D01*
X7792515Y-14437511D02*
X7782991Y-14427987D01*
X7782991Y-14427987D02*
X7773467Y-14408939D01*
X7773467Y-14408939D02*
X7763943Y-14370844D01*
X7763943Y-14370844D02*
X7763943Y-14323225D01*
X7763943Y-14323225D02*
X7773467Y-14285130D01*
X7773467Y-14285130D02*
X7782991Y-14266082D01*
X7782991Y-14266082D02*
X7792515Y-14256559D01*
X7792515Y-14256559D02*
X7811562Y-14247035D01*
X8002039Y-14247035D02*
X8021086Y-14247035D01*
X8021086Y-14247035D02*
X8040134Y-14256559D01*
X8040134Y-14256559D02*
X8049658Y-14266082D01*
X8049658Y-14266082D02*
X8059182Y-14285130D01*
X8059182Y-14285130D02*
X8068705Y-14323225D01*
X8068705Y-14323225D02*
X8068705Y-14370844D01*
X8068705Y-14370844D02*
X8059182Y-14408939D01*
X8059182Y-14408939D02*
X8049658Y-14427987D01*
X8049658Y-14427987D02*
X8040134Y-14437511D01*
X8040134Y-14437511D02*
X8021086Y-14447035D01*
X8021086Y-14447035D02*
X8002039Y-14447035D01*
X8002039Y-14447035D02*
X7982991Y-14437511D01*
X7982991Y-14437511D02*
X7973467Y-14427987D01*
X7973467Y-14427987D02*
X7963943Y-14408939D01*
X7963943Y-14408939D02*
X7954420Y-14370844D01*
X7954420Y-14370844D02*
X7954420Y-14323225D01*
X7954420Y-14323225D02*
X7963943Y-14285130D01*
X7963943Y-14285130D02*
X7973467Y-14266082D01*
X7973467Y-14266082D02*
X7982991Y-14256559D01*
X7982991Y-14256559D02*
X8002039Y-14247035D01*
X8154420Y-14447035D02*
X8154420Y-14313701D01*
X8154420Y-14332749D02*
X8163943Y-14323225D01*
X8163943Y-14323225D02*
X8182991Y-14313701D01*
X8182991Y-14313701D02*
X8211563Y-14313701D01*
X8211563Y-14313701D02*
X8230610Y-14323225D01*
X8230610Y-14323225D02*
X8240134Y-14342273D01*
X8240134Y-14342273D02*
X8240134Y-14447035D01*
X8240134Y-14342273D02*
X8249658Y-14323225D01*
X8249658Y-14323225D02*
X8268705Y-14313701D01*
X8268705Y-14313701D02*
X8297277Y-14313701D01*
X8297277Y-14313701D02*
X8316324Y-14323225D01*
X8316324Y-14323225D02*
X8325848Y-14342273D01*
X8325848Y-14342273D02*
X8325848Y-14447035D01*
X8421086Y-14447035D02*
X8421086Y-14313701D01*
X8421086Y-14332749D02*
X8430610Y-14323225D01*
X8430610Y-14323225D02*
X8449658Y-14313701D01*
X8449658Y-14313701D02*
X8478229Y-14313701D01*
X8478229Y-14313701D02*
X8497277Y-14323225D01*
X8497277Y-14323225D02*
X8506801Y-14342273D01*
X8506801Y-14342273D02*
X8506801Y-14447035D01*
X8506801Y-14342273D02*
X8516325Y-14323225D01*
X8516325Y-14323225D02*
X8535372Y-14313701D01*
X8535372Y-14313701D02*
X8563944Y-14313701D01*
X8563944Y-14313701D02*
X8582991Y-14323225D01*
X8582991Y-14323225D02*
X8592515Y-14342273D01*
X8592515Y-14342273D02*
X8592515Y-14447035D01*
X8982991Y-14237511D02*
X8811563Y-14494654D01*
X9240134Y-14247035D02*
X9259182Y-14247035D01*
X9259182Y-14247035D02*
X9278229Y-14256559D01*
X9278229Y-14256559D02*
X9287753Y-14266082D01*
X9287753Y-14266082D02*
X9297277Y-14285130D01*
X9297277Y-14285130D02*
X9306801Y-14323225D01*
X9306801Y-14323225D02*
X9306801Y-14370844D01*
X9306801Y-14370844D02*
X9297277Y-14408939D01*
X9297277Y-14408939D02*
X9287753Y-14427987D01*
X9287753Y-14427987D02*
X9278229Y-14437511D01*
X9278229Y-14437511D02*
X9259182Y-14447035D01*
X9259182Y-14447035D02*
X9240134Y-14447035D01*
X9240134Y-14447035D02*
X9221087Y-14437511D01*
X9221087Y-14437511D02*
X9211563Y-14427987D01*
X9211563Y-14427987D02*
X9202039Y-14408939D01*
X9202039Y-14408939D02*
X9192515Y-14370844D01*
X9192515Y-14370844D02*
X9192515Y-14323225D01*
X9192515Y-14323225D02*
X9202039Y-14285130D01*
X9202039Y-14285130D02*
X9211563Y-14266082D01*
X9211563Y-14266082D02*
X9221087Y-14256559D01*
X9221087Y-14256559D02*
X9240134Y-14247035D01*
X9392515Y-14427987D02*
X9402039Y-14437511D01*
X9402039Y-14437511D02*
X9392515Y-14447035D01*
X9392515Y-14447035D02*
X9382991Y-14437511D01*
X9382991Y-14437511D02*
X9392515Y-14427987D01*
X9392515Y-14427987D02*
X9392515Y-14447035D01*
X9525848Y-14247035D02*
X9544896Y-14247035D01*
X9544896Y-14247035D02*
X9563944Y-14256559D01*
X9563944Y-14256559D02*
X9573468Y-14266082D01*
X9573468Y-14266082D02*
X9582991Y-14285130D01*
X9582991Y-14285130D02*
X9592515Y-14323225D01*
X9592515Y-14323225D02*
X9592515Y-14370844D01*
X9592515Y-14370844D02*
X9582991Y-14408939D01*
X9582991Y-14408939D02*
X9573468Y-14427987D01*
X9573468Y-14427987D02*
X9563944Y-14437511D01*
X9563944Y-14437511D02*
X9544896Y-14447035D01*
X9544896Y-14447035D02*
X9525848Y-14447035D01*
X9525848Y-14447035D02*
X9506801Y-14437511D01*
X9506801Y-14437511D02*
X9497277Y-14427987D01*
X9497277Y-14427987D02*
X9487753Y-14408939D01*
X9487753Y-14408939D02*
X9478229Y-14370844D01*
X9478229Y-14370844D02*
X9478229Y-14323225D01*
X9478229Y-14323225D02*
X9487753Y-14285130D01*
X9487753Y-14285130D02*
X9497277Y-14266082D01*
X9497277Y-14266082D02*
X9506801Y-14256559D01*
X9506801Y-14256559D02*
X9525848Y-14247035D01*
X9659182Y-14247035D02*
X9782991Y-14247035D01*
X9782991Y-14247035D02*
X9716325Y-14323225D01*
X9716325Y-14323225D02*
X9744896Y-14323225D01*
X9744896Y-14323225D02*
X9763944Y-14332749D01*
X9763944Y-14332749D02*
X9773468Y-14342273D01*
X9773468Y-14342273D02*
X9782991Y-14361320D01*
X9782991Y-14361320D02*
X9782991Y-14408939D01*
X9782991Y-14408939D02*
X9773468Y-14427987D01*
X9773468Y-14427987D02*
X9763944Y-14437511D01*
X9763944Y-14437511D02*
X9744896Y-14447035D01*
X9744896Y-14447035D02*
X9687753Y-14447035D01*
X9687753Y-14447035D02*
X9668706Y-14437511D01*
X9668706Y-14437511D02*
X9659182Y-14427987D01*
X9973468Y-14447035D02*
X9859182Y-14447035D01*
X9916325Y-14447035D02*
X9916325Y-14247035D01*
X9916325Y-14247035D02*
X9897277Y-14275606D01*
X9897277Y-14275606D02*
X9878229Y-14294654D01*
X9878229Y-14294654D02*
X9859182Y-14304178D01*
X10154420Y-14247035D02*
X10059182Y-14247035D01*
X10059182Y-14247035D02*
X10049658Y-14342273D01*
X10049658Y-14342273D02*
X10059182Y-14332749D01*
X10059182Y-14332749D02*
X10078229Y-14323225D01*
X10078229Y-14323225D02*
X10125849Y-14323225D01*
X10125849Y-14323225D02*
X10144896Y-14332749D01*
X10144896Y-14332749D02*
X10154420Y-14342273D01*
X10154420Y-14342273D02*
X10163944Y-14361320D01*
X10163944Y-14361320D02*
X10163944Y-14408939D01*
X10163944Y-14408939D02*
X10154420Y-14427987D01*
X10154420Y-14427987D02*
X10144896Y-14437511D01*
X10144896Y-14437511D02*
X10125849Y-14447035D01*
X10125849Y-14447035D02*
X10078229Y-14447035D01*
X10078229Y-14447035D02*
X10059182Y-14437511D01*
X10059182Y-14437511D02*
X10049658Y-14427987D01*
X10240134Y-14247035D02*
X10240134Y-14285130D01*
X10316325Y-14247035D02*
X10316325Y-14285130D01*
X10611563Y-14523225D02*
X10602039Y-14513701D01*
X10602039Y-14513701D02*
X10582991Y-14485130D01*
X10582991Y-14485130D02*
X10573468Y-14466082D01*
X10573468Y-14466082D02*
X10563944Y-14437511D01*
X10563944Y-14437511D02*
X10554420Y-14389892D01*
X10554420Y-14389892D02*
X10554420Y-14351797D01*
X10554420Y-14351797D02*
X10563944Y-14304178D01*
X10563944Y-14304178D02*
X10573468Y-14275606D01*
X10573468Y-14275606D02*
X10582991Y-14256559D01*
X10582991Y-14256559D02*
X10602039Y-14227987D01*
X10602039Y-14227987D02*
X10611563Y-14218463D01*
X10716325Y-14332749D02*
X10697277Y-14323225D01*
X10697277Y-14323225D02*
X10687753Y-14313701D01*
X10687753Y-14313701D02*
X10678230Y-14294654D01*
X10678230Y-14294654D02*
X10678230Y-14285130D01*
X10678230Y-14285130D02*
X10687753Y-14266082D01*
X10687753Y-14266082D02*
X10697277Y-14256559D01*
X10697277Y-14256559D02*
X10716325Y-14247035D01*
X10716325Y-14247035D02*
X10754420Y-14247035D01*
X10754420Y-14247035D02*
X10773468Y-14256559D01*
X10773468Y-14256559D02*
X10782991Y-14266082D01*
X10782991Y-14266082D02*
X10792515Y-14285130D01*
X10792515Y-14285130D02*
X10792515Y-14294654D01*
X10792515Y-14294654D02*
X10782991Y-14313701D01*
X10782991Y-14313701D02*
X10773468Y-14323225D01*
X10773468Y-14323225D02*
X10754420Y-14332749D01*
X10754420Y-14332749D02*
X10716325Y-14332749D01*
X10716325Y-14332749D02*
X10697277Y-14342273D01*
X10697277Y-14342273D02*
X10687753Y-14351797D01*
X10687753Y-14351797D02*
X10678230Y-14370844D01*
X10678230Y-14370844D02*
X10678230Y-14408939D01*
X10678230Y-14408939D02*
X10687753Y-14427987D01*
X10687753Y-14427987D02*
X10697277Y-14437511D01*
X10697277Y-14437511D02*
X10716325Y-14447035D01*
X10716325Y-14447035D02*
X10754420Y-14447035D01*
X10754420Y-14447035D02*
X10773468Y-14437511D01*
X10773468Y-14437511D02*
X10782991Y-14427987D01*
X10782991Y-14427987D02*
X10792515Y-14408939D01*
X10792515Y-14408939D02*
X10792515Y-14370844D01*
X10792515Y-14370844D02*
X10782991Y-14351797D01*
X10782991Y-14351797D02*
X10773468Y-14342273D01*
X10773468Y-14342273D02*
X10754420Y-14332749D01*
X11030611Y-14447035D02*
X11030611Y-14247035D01*
X11116325Y-14447035D02*
X11116325Y-14342273D01*
X11116325Y-14342273D02*
X11106801Y-14323225D01*
X11106801Y-14323225D02*
X11087753Y-14313701D01*
X11087753Y-14313701D02*
X11059182Y-14313701D01*
X11059182Y-14313701D02*
X11040134Y-14323225D01*
X11040134Y-14323225D02*
X11030611Y-14332749D01*
X11240134Y-14447035D02*
X11221087Y-14437511D01*
X11221087Y-14437511D02*
X11211563Y-14427987D01*
X11211563Y-14427987D02*
X11202039Y-14408939D01*
X11202039Y-14408939D02*
X11202039Y-14351797D01*
X11202039Y-14351797D02*
X11211563Y-14332749D01*
X11211563Y-14332749D02*
X11221087Y-14323225D01*
X11221087Y-14323225D02*
X11240134Y-14313701D01*
X11240134Y-14313701D02*
X11268706Y-14313701D01*
X11268706Y-14313701D02*
X11287753Y-14323225D01*
X11287753Y-14323225D02*
X11297277Y-14332749D01*
X11297277Y-14332749D02*
X11306801Y-14351797D01*
X11306801Y-14351797D02*
X11306801Y-14408939D01*
X11306801Y-14408939D02*
X11297277Y-14427987D01*
X11297277Y-14427987D02*
X11287753Y-14437511D01*
X11287753Y-14437511D02*
X11268706Y-14447035D01*
X11268706Y-14447035D02*
X11240134Y-14447035D01*
X11421087Y-14447035D02*
X11402039Y-14437511D01*
X11402039Y-14437511D02*
X11392515Y-14418463D01*
X11392515Y-14418463D02*
X11392515Y-14247035D01*
X11573468Y-14437511D02*
X11554420Y-14447035D01*
X11554420Y-14447035D02*
X11516325Y-14447035D01*
X11516325Y-14447035D02*
X11497277Y-14437511D01*
X11497277Y-14437511D02*
X11487753Y-14418463D01*
X11487753Y-14418463D02*
X11487753Y-14342273D01*
X11487753Y-14342273D02*
X11497277Y-14323225D01*
X11497277Y-14323225D02*
X11516325Y-14313701D01*
X11516325Y-14313701D02*
X11554420Y-14313701D01*
X11554420Y-14313701D02*
X11573468Y-14323225D01*
X11573468Y-14323225D02*
X11582991Y-14342273D01*
X11582991Y-14342273D02*
X11582991Y-14361320D01*
X11582991Y-14361320D02*
X11487753Y-14380368D01*
X11659182Y-14437511D02*
X11678230Y-14447035D01*
X11678230Y-14447035D02*
X11716325Y-14447035D01*
X11716325Y-14447035D02*
X11735372Y-14437511D01*
X11735372Y-14437511D02*
X11744896Y-14418463D01*
X11744896Y-14418463D02*
X11744896Y-14408939D01*
X11744896Y-14408939D02*
X11735372Y-14389892D01*
X11735372Y-14389892D02*
X11716325Y-14380368D01*
X11716325Y-14380368D02*
X11687753Y-14380368D01*
X11687753Y-14380368D02*
X11668706Y-14370844D01*
X11668706Y-14370844D02*
X11659182Y-14351797D01*
X11659182Y-14351797D02*
X11659182Y-14342273D01*
X11659182Y-14342273D02*
X11668706Y-14323225D01*
X11668706Y-14323225D02*
X11687753Y-14313701D01*
X11687753Y-14313701D02*
X11716325Y-14313701D01*
X11716325Y-14313701D02*
X11735372Y-14323225D01*
X11811563Y-14523225D02*
X11821087Y-14513701D01*
X11821087Y-14513701D02*
X11840134Y-14485130D01*
X11840134Y-14485130D02*
X11849658Y-14466082D01*
X11849658Y-14466082D02*
X11859182Y-14437511D01*
X11859182Y-14437511D02*
X11868706Y-14389892D01*
X11868706Y-14389892D02*
X11868706Y-14351797D01*
X11868706Y-14351797D02*
X11859182Y-14304178D01*
X11859182Y-14304178D02*
X11849658Y-14275606D01*
X11849658Y-14275606D02*
X11840134Y-14256559D01*
X11840134Y-14256559D02*
X11821087Y-14227987D01*
X11821087Y-14227987D02*
X11811563Y-14218463D01*
D12*
X6986970Y-14570021D02*
X6986970Y-14669081D01*
X6937440Y-14619551D02*
X7036500Y-14619551D01*
D11*
X7335372Y-14511035D02*
X7354420Y-14511035D01*
X7354420Y-14511035D02*
X7373467Y-14520559D01*
X7373467Y-14520559D02*
X7382991Y-14530082D01*
X7382991Y-14530082D02*
X7392515Y-14549130D01*
X7392515Y-14549130D02*
X7402039Y-14587225D01*
X7402039Y-14587225D02*
X7402039Y-14634844D01*
X7402039Y-14634844D02*
X7392515Y-14672939D01*
X7392515Y-14672939D02*
X7382991Y-14691987D01*
X7382991Y-14691987D02*
X7373467Y-14701511D01*
X7373467Y-14701511D02*
X7354420Y-14711035D01*
X7354420Y-14711035D02*
X7335372Y-14711035D01*
X7335372Y-14711035D02*
X7316324Y-14701511D01*
X7316324Y-14701511D02*
X7306801Y-14691987D01*
X7306801Y-14691987D02*
X7297277Y-14672939D01*
X7297277Y-14672939D02*
X7287753Y-14634844D01*
X7287753Y-14634844D02*
X7287753Y-14587225D01*
X7287753Y-14587225D02*
X7297277Y-14549130D01*
X7297277Y-14549130D02*
X7306801Y-14530082D01*
X7306801Y-14530082D02*
X7316324Y-14520559D01*
X7316324Y-14520559D02*
X7335372Y-14511035D01*
X7487753Y-14691987D02*
X7497277Y-14701511D01*
X7497277Y-14701511D02*
X7487753Y-14711035D01*
X7487753Y-14711035D02*
X7478229Y-14701511D01*
X7478229Y-14701511D02*
X7487753Y-14691987D01*
X7487753Y-14691987D02*
X7487753Y-14711035D01*
X7592515Y-14711035D02*
X7630610Y-14711035D01*
X7630610Y-14711035D02*
X7649658Y-14701511D01*
X7649658Y-14701511D02*
X7659182Y-14691987D01*
X7659182Y-14691987D02*
X7678229Y-14663416D01*
X7678229Y-14663416D02*
X7687753Y-14625320D01*
X7687753Y-14625320D02*
X7687753Y-14549130D01*
X7687753Y-14549130D02*
X7678229Y-14530082D01*
X7678229Y-14530082D02*
X7668705Y-14520559D01*
X7668705Y-14520559D02*
X7649658Y-14511035D01*
X7649658Y-14511035D02*
X7611562Y-14511035D01*
X7611562Y-14511035D02*
X7592515Y-14520559D01*
X7592515Y-14520559D02*
X7582991Y-14530082D01*
X7582991Y-14530082D02*
X7573467Y-14549130D01*
X7573467Y-14549130D02*
X7573467Y-14596749D01*
X7573467Y-14596749D02*
X7582991Y-14615797D01*
X7582991Y-14615797D02*
X7592515Y-14625320D01*
X7592515Y-14625320D02*
X7611562Y-14634844D01*
X7611562Y-14634844D02*
X7649658Y-14634844D01*
X7649658Y-14634844D02*
X7668705Y-14625320D01*
X7668705Y-14625320D02*
X7678229Y-14615797D01*
X7678229Y-14615797D02*
X7687753Y-14596749D01*
X7782991Y-14711035D02*
X7821086Y-14711035D01*
X7821086Y-14711035D02*
X7840134Y-14701511D01*
X7840134Y-14701511D02*
X7849658Y-14691987D01*
X7849658Y-14691987D02*
X7868705Y-14663416D01*
X7868705Y-14663416D02*
X7878229Y-14625320D01*
X7878229Y-14625320D02*
X7878229Y-14549130D01*
X7878229Y-14549130D02*
X7868705Y-14530082D01*
X7868705Y-14530082D02*
X7859182Y-14520559D01*
X7859182Y-14520559D02*
X7840134Y-14511035D01*
X7840134Y-14511035D02*
X7802039Y-14511035D01*
X7802039Y-14511035D02*
X7782991Y-14520559D01*
X7782991Y-14520559D02*
X7773467Y-14530082D01*
X7773467Y-14530082D02*
X7763943Y-14549130D01*
X7763943Y-14549130D02*
X7763943Y-14596749D01*
X7763943Y-14596749D02*
X7773467Y-14615797D01*
X7773467Y-14615797D02*
X7782991Y-14625320D01*
X7782991Y-14625320D02*
X7802039Y-14634844D01*
X7802039Y-14634844D02*
X7840134Y-14634844D01*
X7840134Y-14634844D02*
X7859182Y-14625320D01*
X7859182Y-14625320D02*
X7868705Y-14615797D01*
X7868705Y-14615797D02*
X7878229Y-14596749D01*
X8068705Y-14711035D02*
X7954420Y-14711035D01*
X8011562Y-14711035D02*
X8011562Y-14511035D01*
X8011562Y-14511035D02*
X7992515Y-14539606D01*
X7992515Y-14539606D02*
X7973467Y-14558654D01*
X7973467Y-14558654D02*
X7954420Y-14568178D01*
X8154420Y-14711035D02*
X8154420Y-14577701D01*
X8154420Y-14596749D02*
X8163943Y-14587225D01*
X8163943Y-14587225D02*
X8182991Y-14577701D01*
X8182991Y-14577701D02*
X8211563Y-14577701D01*
X8211563Y-14577701D02*
X8230610Y-14587225D01*
X8230610Y-14587225D02*
X8240134Y-14606273D01*
X8240134Y-14606273D02*
X8240134Y-14711035D01*
X8240134Y-14606273D02*
X8249658Y-14587225D01*
X8249658Y-14587225D02*
X8268705Y-14577701D01*
X8268705Y-14577701D02*
X8297277Y-14577701D01*
X8297277Y-14577701D02*
X8316324Y-14587225D01*
X8316324Y-14587225D02*
X8325848Y-14606273D01*
X8325848Y-14606273D02*
X8325848Y-14711035D01*
X8421086Y-14711035D02*
X8421086Y-14577701D01*
X8421086Y-14596749D02*
X8430610Y-14587225D01*
X8430610Y-14587225D02*
X8449658Y-14577701D01*
X8449658Y-14577701D02*
X8478229Y-14577701D01*
X8478229Y-14577701D02*
X8497277Y-14587225D01*
X8497277Y-14587225D02*
X8506801Y-14606273D01*
X8506801Y-14606273D02*
X8506801Y-14711035D01*
X8506801Y-14606273D02*
X8516325Y-14587225D01*
X8516325Y-14587225D02*
X8535372Y-14577701D01*
X8535372Y-14577701D02*
X8563944Y-14577701D01*
X8563944Y-14577701D02*
X8582991Y-14587225D01*
X8582991Y-14587225D02*
X8592515Y-14606273D01*
X8592515Y-14606273D02*
X8592515Y-14711035D01*
X8982991Y-14501511D02*
X8811563Y-14758654D01*
X9240134Y-14511035D02*
X9259182Y-14511035D01*
X9259182Y-14511035D02*
X9278229Y-14520559D01*
X9278229Y-14520559D02*
X9287753Y-14530082D01*
X9287753Y-14530082D02*
X9297277Y-14549130D01*
X9297277Y-14549130D02*
X9306801Y-14587225D01*
X9306801Y-14587225D02*
X9306801Y-14634844D01*
X9306801Y-14634844D02*
X9297277Y-14672939D01*
X9297277Y-14672939D02*
X9287753Y-14691987D01*
X9287753Y-14691987D02*
X9278229Y-14701511D01*
X9278229Y-14701511D02*
X9259182Y-14711035D01*
X9259182Y-14711035D02*
X9240134Y-14711035D01*
X9240134Y-14711035D02*
X9221087Y-14701511D01*
X9221087Y-14701511D02*
X9211563Y-14691987D01*
X9211563Y-14691987D02*
X9202039Y-14672939D01*
X9202039Y-14672939D02*
X9192515Y-14634844D01*
X9192515Y-14634844D02*
X9192515Y-14587225D01*
X9192515Y-14587225D02*
X9202039Y-14549130D01*
X9202039Y-14549130D02*
X9211563Y-14530082D01*
X9211563Y-14530082D02*
X9221087Y-14520559D01*
X9221087Y-14520559D02*
X9240134Y-14511035D01*
X9392515Y-14691987D02*
X9402039Y-14701511D01*
X9402039Y-14701511D02*
X9392515Y-14711035D01*
X9392515Y-14711035D02*
X9382991Y-14701511D01*
X9382991Y-14701511D02*
X9392515Y-14691987D01*
X9392515Y-14691987D02*
X9392515Y-14711035D01*
X9525848Y-14511035D02*
X9544896Y-14511035D01*
X9544896Y-14511035D02*
X9563944Y-14520559D01*
X9563944Y-14520559D02*
X9573468Y-14530082D01*
X9573468Y-14530082D02*
X9582991Y-14549130D01*
X9582991Y-14549130D02*
X9592515Y-14587225D01*
X9592515Y-14587225D02*
X9592515Y-14634844D01*
X9592515Y-14634844D02*
X9582991Y-14672939D01*
X9582991Y-14672939D02*
X9573468Y-14691987D01*
X9573468Y-14691987D02*
X9563944Y-14701511D01*
X9563944Y-14701511D02*
X9544896Y-14711035D01*
X9544896Y-14711035D02*
X9525848Y-14711035D01*
X9525848Y-14711035D02*
X9506801Y-14701511D01*
X9506801Y-14701511D02*
X9497277Y-14691987D01*
X9497277Y-14691987D02*
X9487753Y-14672939D01*
X9487753Y-14672939D02*
X9478229Y-14634844D01*
X9478229Y-14634844D02*
X9478229Y-14587225D01*
X9478229Y-14587225D02*
X9487753Y-14549130D01*
X9487753Y-14549130D02*
X9497277Y-14530082D01*
X9497277Y-14530082D02*
X9506801Y-14520559D01*
X9506801Y-14520559D02*
X9525848Y-14511035D01*
X9659182Y-14511035D02*
X9782991Y-14511035D01*
X9782991Y-14511035D02*
X9716325Y-14587225D01*
X9716325Y-14587225D02*
X9744896Y-14587225D01*
X9744896Y-14587225D02*
X9763944Y-14596749D01*
X9763944Y-14596749D02*
X9773468Y-14606273D01*
X9773468Y-14606273D02*
X9782991Y-14625320D01*
X9782991Y-14625320D02*
X9782991Y-14672939D01*
X9782991Y-14672939D02*
X9773468Y-14691987D01*
X9773468Y-14691987D02*
X9763944Y-14701511D01*
X9763944Y-14701511D02*
X9744896Y-14711035D01*
X9744896Y-14711035D02*
X9687753Y-14711035D01*
X9687753Y-14711035D02*
X9668706Y-14701511D01*
X9668706Y-14701511D02*
X9659182Y-14691987D01*
X9878229Y-14711035D02*
X9916325Y-14711035D01*
X9916325Y-14711035D02*
X9935372Y-14701511D01*
X9935372Y-14701511D02*
X9944896Y-14691987D01*
X9944896Y-14691987D02*
X9963944Y-14663416D01*
X9963944Y-14663416D02*
X9973468Y-14625320D01*
X9973468Y-14625320D02*
X9973468Y-14549130D01*
X9973468Y-14549130D02*
X9963944Y-14530082D01*
X9963944Y-14530082D02*
X9954420Y-14520559D01*
X9954420Y-14520559D02*
X9935372Y-14511035D01*
X9935372Y-14511035D02*
X9897277Y-14511035D01*
X9897277Y-14511035D02*
X9878229Y-14520559D01*
X9878229Y-14520559D02*
X9868706Y-14530082D01*
X9868706Y-14530082D02*
X9859182Y-14549130D01*
X9859182Y-14549130D02*
X9859182Y-14596749D01*
X9859182Y-14596749D02*
X9868706Y-14615797D01*
X9868706Y-14615797D02*
X9878229Y-14625320D01*
X9878229Y-14625320D02*
X9897277Y-14634844D01*
X9897277Y-14634844D02*
X9935372Y-14634844D01*
X9935372Y-14634844D02*
X9954420Y-14625320D01*
X9954420Y-14625320D02*
X9963944Y-14615797D01*
X9963944Y-14615797D02*
X9973468Y-14596749D01*
X10097277Y-14511035D02*
X10116325Y-14511035D01*
X10116325Y-14511035D02*
X10135372Y-14520559D01*
X10135372Y-14520559D02*
X10144896Y-14530082D01*
X10144896Y-14530082D02*
X10154420Y-14549130D01*
X10154420Y-14549130D02*
X10163944Y-14587225D01*
X10163944Y-14587225D02*
X10163944Y-14634844D01*
X10163944Y-14634844D02*
X10154420Y-14672939D01*
X10154420Y-14672939D02*
X10144896Y-14691987D01*
X10144896Y-14691987D02*
X10135372Y-14701511D01*
X10135372Y-14701511D02*
X10116325Y-14711035D01*
X10116325Y-14711035D02*
X10097277Y-14711035D01*
X10097277Y-14711035D02*
X10078229Y-14701511D01*
X10078229Y-14701511D02*
X10068706Y-14691987D01*
X10068706Y-14691987D02*
X10059182Y-14672939D01*
X10059182Y-14672939D02*
X10049658Y-14634844D01*
X10049658Y-14634844D02*
X10049658Y-14587225D01*
X10049658Y-14587225D02*
X10059182Y-14549130D01*
X10059182Y-14549130D02*
X10068706Y-14530082D01*
X10068706Y-14530082D02*
X10078229Y-14520559D01*
X10078229Y-14520559D02*
X10097277Y-14511035D01*
X10240134Y-14511035D02*
X10240134Y-14549130D01*
X10316325Y-14511035D02*
X10316325Y-14549130D01*
X10611563Y-14787225D02*
X10602039Y-14777701D01*
X10602039Y-14777701D02*
X10582991Y-14749130D01*
X10582991Y-14749130D02*
X10573468Y-14730082D01*
X10573468Y-14730082D02*
X10563944Y-14701511D01*
X10563944Y-14701511D02*
X10554420Y-14653892D01*
X10554420Y-14653892D02*
X10554420Y-14615797D01*
X10554420Y-14615797D02*
X10563944Y-14568178D01*
X10563944Y-14568178D02*
X10573468Y-14539606D01*
X10573468Y-14539606D02*
X10582991Y-14520559D01*
X10582991Y-14520559D02*
X10602039Y-14491987D01*
X10602039Y-14491987D02*
X10611563Y-14482463D01*
X10716325Y-14596749D02*
X10697277Y-14587225D01*
X10697277Y-14587225D02*
X10687753Y-14577701D01*
X10687753Y-14577701D02*
X10678230Y-14558654D01*
X10678230Y-14558654D02*
X10678230Y-14549130D01*
X10678230Y-14549130D02*
X10687753Y-14530082D01*
X10687753Y-14530082D02*
X10697277Y-14520559D01*
X10697277Y-14520559D02*
X10716325Y-14511035D01*
X10716325Y-14511035D02*
X10754420Y-14511035D01*
X10754420Y-14511035D02*
X10773468Y-14520559D01*
X10773468Y-14520559D02*
X10782991Y-14530082D01*
X10782991Y-14530082D02*
X10792515Y-14549130D01*
X10792515Y-14549130D02*
X10792515Y-14558654D01*
X10792515Y-14558654D02*
X10782991Y-14577701D01*
X10782991Y-14577701D02*
X10773468Y-14587225D01*
X10773468Y-14587225D02*
X10754420Y-14596749D01*
X10754420Y-14596749D02*
X10716325Y-14596749D01*
X10716325Y-14596749D02*
X10697277Y-14606273D01*
X10697277Y-14606273D02*
X10687753Y-14615797D01*
X10687753Y-14615797D02*
X10678230Y-14634844D01*
X10678230Y-14634844D02*
X10678230Y-14672939D01*
X10678230Y-14672939D02*
X10687753Y-14691987D01*
X10687753Y-14691987D02*
X10697277Y-14701511D01*
X10697277Y-14701511D02*
X10716325Y-14711035D01*
X10716325Y-14711035D02*
X10754420Y-14711035D01*
X10754420Y-14711035D02*
X10773468Y-14701511D01*
X10773468Y-14701511D02*
X10782991Y-14691987D01*
X10782991Y-14691987D02*
X10792515Y-14672939D01*
X10792515Y-14672939D02*
X10792515Y-14634844D01*
X10792515Y-14634844D02*
X10782991Y-14615797D01*
X10782991Y-14615797D02*
X10773468Y-14606273D01*
X10773468Y-14606273D02*
X10754420Y-14596749D01*
X11030611Y-14711035D02*
X11030611Y-14511035D01*
X11116325Y-14711035D02*
X11116325Y-14606273D01*
X11116325Y-14606273D02*
X11106801Y-14587225D01*
X11106801Y-14587225D02*
X11087753Y-14577701D01*
X11087753Y-14577701D02*
X11059182Y-14577701D01*
X11059182Y-14577701D02*
X11040134Y-14587225D01*
X11040134Y-14587225D02*
X11030611Y-14596749D01*
X11240134Y-14711035D02*
X11221087Y-14701511D01*
X11221087Y-14701511D02*
X11211563Y-14691987D01*
X11211563Y-14691987D02*
X11202039Y-14672939D01*
X11202039Y-14672939D02*
X11202039Y-14615797D01*
X11202039Y-14615797D02*
X11211563Y-14596749D01*
X11211563Y-14596749D02*
X11221087Y-14587225D01*
X11221087Y-14587225D02*
X11240134Y-14577701D01*
X11240134Y-14577701D02*
X11268706Y-14577701D01*
X11268706Y-14577701D02*
X11287753Y-14587225D01*
X11287753Y-14587225D02*
X11297277Y-14596749D01*
X11297277Y-14596749D02*
X11306801Y-14615797D01*
X11306801Y-14615797D02*
X11306801Y-14672939D01*
X11306801Y-14672939D02*
X11297277Y-14691987D01*
X11297277Y-14691987D02*
X11287753Y-14701511D01*
X11287753Y-14701511D02*
X11268706Y-14711035D01*
X11268706Y-14711035D02*
X11240134Y-14711035D01*
X11421087Y-14711035D02*
X11402039Y-14701511D01*
X11402039Y-14701511D02*
X11392515Y-14682463D01*
X11392515Y-14682463D02*
X11392515Y-14511035D01*
X11573468Y-14701511D02*
X11554420Y-14711035D01*
X11554420Y-14711035D02*
X11516325Y-14711035D01*
X11516325Y-14711035D02*
X11497277Y-14701511D01*
X11497277Y-14701511D02*
X11487753Y-14682463D01*
X11487753Y-14682463D02*
X11487753Y-14606273D01*
X11487753Y-14606273D02*
X11497277Y-14587225D01*
X11497277Y-14587225D02*
X11516325Y-14577701D01*
X11516325Y-14577701D02*
X11554420Y-14577701D01*
X11554420Y-14577701D02*
X11573468Y-14587225D01*
X11573468Y-14587225D02*
X11582991Y-14606273D01*
X11582991Y-14606273D02*
X11582991Y-14625320D01*
X11582991Y-14625320D02*
X11487753Y-14644368D01*
X11659182Y-14701511D02*
X11678230Y-14711035D01*
X11678230Y-14711035D02*
X11716325Y-14711035D01*
X11716325Y-14711035D02*
X11735372Y-14701511D01*
X11735372Y-14701511D02*
X11744896Y-14682463D01*
X11744896Y-14682463D02*
X11744896Y-14672939D01*
X11744896Y-14672939D02*
X11735372Y-14653892D01*
X11735372Y-14653892D02*
X11716325Y-14644368D01*
X11716325Y-14644368D02*
X11687753Y-14644368D01*
X11687753Y-14644368D02*
X11668706Y-14634844D01*
X11668706Y-14634844D02*
X11659182Y-14615797D01*
X11659182Y-14615797D02*
X11659182Y-14606273D01*
X11659182Y-14606273D02*
X11668706Y-14587225D01*
X11668706Y-14587225D02*
X11687753Y-14577701D01*
X11687753Y-14577701D02*
X11716325Y-14577701D01*
X11716325Y-14577701D02*
X11735372Y-14587225D01*
X11811563Y-14787225D02*
X11821087Y-14777701D01*
X11821087Y-14777701D02*
X11840134Y-14749130D01*
X11840134Y-14749130D02*
X11849658Y-14730082D01*
X11849658Y-14730082D02*
X11859182Y-14701511D01*
X11859182Y-14701511D02*
X11868706Y-14653892D01*
X11868706Y-14653892D02*
X11868706Y-14615797D01*
X11868706Y-14615797D02*
X11859182Y-14568178D01*
X11859182Y-14568178D02*
X11849658Y-14539606D01*
X11849658Y-14539606D02*
X11840134Y-14520559D01*
X11840134Y-14520559D02*
X11821087Y-14491987D01*
X11821087Y-14491987D02*
X11811563Y-14482463D01*
D13*
X7017462Y-14929513D02*
X7017462Y-14837589D01*
X6925538Y-14837589D01*
X6925538Y-14929513D01*
X7017462Y-14929513D01*
D11*
X7402039Y-14975035D02*
X7287753Y-14975035D01*
X7344896Y-14975035D02*
X7344896Y-14775035D01*
X7344896Y-14775035D02*
X7325848Y-14803606D01*
X7325848Y-14803606D02*
X7306801Y-14822654D01*
X7306801Y-14822654D02*
X7287753Y-14832178D01*
X7487753Y-14955987D02*
X7497277Y-14965511D01*
X7497277Y-14965511D02*
X7487753Y-14975035D01*
X7487753Y-14975035D02*
X7478229Y-14965511D01*
X7478229Y-14965511D02*
X7487753Y-14955987D01*
X7487753Y-14955987D02*
X7487753Y-14975035D01*
X7563943Y-14775035D02*
X7687753Y-14775035D01*
X7687753Y-14775035D02*
X7621086Y-14851225D01*
X7621086Y-14851225D02*
X7649658Y-14851225D01*
X7649658Y-14851225D02*
X7668705Y-14860749D01*
X7668705Y-14860749D02*
X7678229Y-14870273D01*
X7678229Y-14870273D02*
X7687753Y-14889320D01*
X7687753Y-14889320D02*
X7687753Y-14936939D01*
X7687753Y-14936939D02*
X7678229Y-14955987D01*
X7678229Y-14955987D02*
X7668705Y-14965511D01*
X7668705Y-14965511D02*
X7649658Y-14975035D01*
X7649658Y-14975035D02*
X7592515Y-14975035D01*
X7592515Y-14975035D02*
X7573467Y-14965511D01*
X7573467Y-14965511D02*
X7563943Y-14955987D01*
X7811562Y-14775035D02*
X7830610Y-14775035D01*
X7830610Y-14775035D02*
X7849658Y-14784559D01*
X7849658Y-14784559D02*
X7859182Y-14794082D01*
X7859182Y-14794082D02*
X7868705Y-14813130D01*
X7868705Y-14813130D02*
X7878229Y-14851225D01*
X7878229Y-14851225D02*
X7878229Y-14898844D01*
X7878229Y-14898844D02*
X7868705Y-14936939D01*
X7868705Y-14936939D02*
X7859182Y-14955987D01*
X7859182Y-14955987D02*
X7849658Y-14965511D01*
X7849658Y-14965511D02*
X7830610Y-14975035D01*
X7830610Y-14975035D02*
X7811562Y-14975035D01*
X7811562Y-14975035D02*
X7792515Y-14965511D01*
X7792515Y-14965511D02*
X7782991Y-14955987D01*
X7782991Y-14955987D02*
X7773467Y-14936939D01*
X7773467Y-14936939D02*
X7763943Y-14898844D01*
X7763943Y-14898844D02*
X7763943Y-14851225D01*
X7763943Y-14851225D02*
X7773467Y-14813130D01*
X7773467Y-14813130D02*
X7782991Y-14794082D01*
X7782991Y-14794082D02*
X7792515Y-14784559D01*
X7792515Y-14784559D02*
X7811562Y-14775035D01*
X8002039Y-14775035D02*
X8021086Y-14775035D01*
X8021086Y-14775035D02*
X8040134Y-14784559D01*
X8040134Y-14784559D02*
X8049658Y-14794082D01*
X8049658Y-14794082D02*
X8059182Y-14813130D01*
X8059182Y-14813130D02*
X8068705Y-14851225D01*
X8068705Y-14851225D02*
X8068705Y-14898844D01*
X8068705Y-14898844D02*
X8059182Y-14936939D01*
X8059182Y-14936939D02*
X8049658Y-14955987D01*
X8049658Y-14955987D02*
X8040134Y-14965511D01*
X8040134Y-14965511D02*
X8021086Y-14975035D01*
X8021086Y-14975035D02*
X8002039Y-14975035D01*
X8002039Y-14975035D02*
X7982991Y-14965511D01*
X7982991Y-14965511D02*
X7973467Y-14955987D01*
X7973467Y-14955987D02*
X7963943Y-14936939D01*
X7963943Y-14936939D02*
X7954420Y-14898844D01*
X7954420Y-14898844D02*
X7954420Y-14851225D01*
X7954420Y-14851225D02*
X7963943Y-14813130D01*
X7963943Y-14813130D02*
X7973467Y-14794082D01*
X7973467Y-14794082D02*
X7982991Y-14784559D01*
X7982991Y-14784559D02*
X8002039Y-14775035D01*
X8154420Y-14975035D02*
X8154420Y-14841701D01*
X8154420Y-14860749D02*
X8163943Y-14851225D01*
X8163943Y-14851225D02*
X8182991Y-14841701D01*
X8182991Y-14841701D02*
X8211563Y-14841701D01*
X8211563Y-14841701D02*
X8230610Y-14851225D01*
X8230610Y-14851225D02*
X8240134Y-14870273D01*
X8240134Y-14870273D02*
X8240134Y-14975035D01*
X8240134Y-14870273D02*
X8249658Y-14851225D01*
X8249658Y-14851225D02*
X8268705Y-14841701D01*
X8268705Y-14841701D02*
X8297277Y-14841701D01*
X8297277Y-14841701D02*
X8316324Y-14851225D01*
X8316324Y-14851225D02*
X8325848Y-14870273D01*
X8325848Y-14870273D02*
X8325848Y-14975035D01*
X8421086Y-14975035D02*
X8421086Y-14841701D01*
X8421086Y-14860749D02*
X8430610Y-14851225D01*
X8430610Y-14851225D02*
X8449658Y-14841701D01*
X8449658Y-14841701D02*
X8478229Y-14841701D01*
X8478229Y-14841701D02*
X8497277Y-14851225D01*
X8497277Y-14851225D02*
X8506801Y-14870273D01*
X8506801Y-14870273D02*
X8506801Y-14975035D01*
X8506801Y-14870273D02*
X8516325Y-14851225D01*
X8516325Y-14851225D02*
X8535372Y-14841701D01*
X8535372Y-14841701D02*
X8563944Y-14841701D01*
X8563944Y-14841701D02*
X8582991Y-14851225D01*
X8582991Y-14851225D02*
X8592515Y-14870273D01*
X8592515Y-14870273D02*
X8592515Y-14975035D01*
X8982991Y-14765511D02*
X8811563Y-15022654D01*
X9240134Y-14775035D02*
X9259182Y-14775035D01*
X9259182Y-14775035D02*
X9278229Y-14784559D01*
X9278229Y-14784559D02*
X9287753Y-14794082D01*
X9287753Y-14794082D02*
X9297277Y-14813130D01*
X9297277Y-14813130D02*
X9306801Y-14851225D01*
X9306801Y-14851225D02*
X9306801Y-14898844D01*
X9306801Y-14898844D02*
X9297277Y-14936939D01*
X9297277Y-14936939D02*
X9287753Y-14955987D01*
X9287753Y-14955987D02*
X9278229Y-14965511D01*
X9278229Y-14965511D02*
X9259182Y-14975035D01*
X9259182Y-14975035D02*
X9240134Y-14975035D01*
X9240134Y-14975035D02*
X9221087Y-14965511D01*
X9221087Y-14965511D02*
X9211563Y-14955987D01*
X9211563Y-14955987D02*
X9202039Y-14936939D01*
X9202039Y-14936939D02*
X9192515Y-14898844D01*
X9192515Y-14898844D02*
X9192515Y-14851225D01*
X9192515Y-14851225D02*
X9202039Y-14813130D01*
X9202039Y-14813130D02*
X9211563Y-14794082D01*
X9211563Y-14794082D02*
X9221087Y-14784559D01*
X9221087Y-14784559D02*
X9240134Y-14775035D01*
X9392515Y-14955987D02*
X9402039Y-14965511D01*
X9402039Y-14965511D02*
X9392515Y-14975035D01*
X9392515Y-14975035D02*
X9382991Y-14965511D01*
X9382991Y-14965511D02*
X9392515Y-14955987D01*
X9392515Y-14955987D02*
X9392515Y-14975035D01*
X9525848Y-14775035D02*
X9544896Y-14775035D01*
X9544896Y-14775035D02*
X9563944Y-14784559D01*
X9563944Y-14784559D02*
X9573468Y-14794082D01*
X9573468Y-14794082D02*
X9582991Y-14813130D01*
X9582991Y-14813130D02*
X9592515Y-14851225D01*
X9592515Y-14851225D02*
X9592515Y-14898844D01*
X9592515Y-14898844D02*
X9582991Y-14936939D01*
X9582991Y-14936939D02*
X9573468Y-14955987D01*
X9573468Y-14955987D02*
X9563944Y-14965511D01*
X9563944Y-14965511D02*
X9544896Y-14975035D01*
X9544896Y-14975035D02*
X9525848Y-14975035D01*
X9525848Y-14975035D02*
X9506801Y-14965511D01*
X9506801Y-14965511D02*
X9497277Y-14955987D01*
X9497277Y-14955987D02*
X9487753Y-14936939D01*
X9487753Y-14936939D02*
X9478229Y-14898844D01*
X9478229Y-14898844D02*
X9478229Y-14851225D01*
X9478229Y-14851225D02*
X9487753Y-14813130D01*
X9487753Y-14813130D02*
X9497277Y-14794082D01*
X9497277Y-14794082D02*
X9506801Y-14784559D01*
X9506801Y-14784559D02*
X9525848Y-14775035D01*
X9773468Y-14775035D02*
X9678229Y-14775035D01*
X9678229Y-14775035D02*
X9668706Y-14870273D01*
X9668706Y-14870273D02*
X9678229Y-14860749D01*
X9678229Y-14860749D02*
X9697277Y-14851225D01*
X9697277Y-14851225D02*
X9744896Y-14851225D01*
X9744896Y-14851225D02*
X9763944Y-14860749D01*
X9763944Y-14860749D02*
X9773468Y-14870273D01*
X9773468Y-14870273D02*
X9782991Y-14889320D01*
X9782991Y-14889320D02*
X9782991Y-14936939D01*
X9782991Y-14936939D02*
X9773468Y-14955987D01*
X9773468Y-14955987D02*
X9763944Y-14965511D01*
X9763944Y-14965511D02*
X9744896Y-14975035D01*
X9744896Y-14975035D02*
X9697277Y-14975035D01*
X9697277Y-14975035D02*
X9678229Y-14965511D01*
X9678229Y-14965511D02*
X9668706Y-14955987D01*
X9973468Y-14975035D02*
X9859182Y-14975035D01*
X9916325Y-14975035D02*
X9916325Y-14775035D01*
X9916325Y-14775035D02*
X9897277Y-14803606D01*
X9897277Y-14803606D02*
X9878229Y-14822654D01*
X9878229Y-14822654D02*
X9859182Y-14832178D01*
X10049658Y-14794082D02*
X10059182Y-14784559D01*
X10059182Y-14784559D02*
X10078229Y-14775035D01*
X10078229Y-14775035D02*
X10125849Y-14775035D01*
X10125849Y-14775035D02*
X10144896Y-14784559D01*
X10144896Y-14784559D02*
X10154420Y-14794082D01*
X10154420Y-14794082D02*
X10163944Y-14813130D01*
X10163944Y-14813130D02*
X10163944Y-14832178D01*
X10163944Y-14832178D02*
X10154420Y-14860749D01*
X10154420Y-14860749D02*
X10040134Y-14975035D01*
X10040134Y-14975035D02*
X10163944Y-14975035D01*
X10240134Y-14775035D02*
X10240134Y-14813130D01*
X10316325Y-14775035D02*
X10316325Y-14813130D01*
X10611563Y-15051225D02*
X10602039Y-15041701D01*
X10602039Y-15041701D02*
X10582991Y-15013130D01*
X10582991Y-15013130D02*
X10573468Y-14994082D01*
X10573468Y-14994082D02*
X10563944Y-14965511D01*
X10563944Y-14965511D02*
X10554420Y-14917892D01*
X10554420Y-14917892D02*
X10554420Y-14879797D01*
X10554420Y-14879797D02*
X10563944Y-14832178D01*
X10563944Y-14832178D02*
X10573468Y-14803606D01*
X10573468Y-14803606D02*
X10582991Y-14784559D01*
X10582991Y-14784559D02*
X10602039Y-14755987D01*
X10602039Y-14755987D02*
X10611563Y-14746463D01*
X10792515Y-14975035D02*
X10678230Y-14975035D01*
X10735372Y-14975035D02*
X10735372Y-14775035D01*
X10735372Y-14775035D02*
X10716325Y-14803606D01*
X10716325Y-14803606D02*
X10697277Y-14822654D01*
X10697277Y-14822654D02*
X10678230Y-14832178D01*
X10887753Y-14975035D02*
X10925849Y-14975035D01*
X10925849Y-14975035D02*
X10944896Y-14965511D01*
X10944896Y-14965511D02*
X10954420Y-14955987D01*
X10954420Y-14955987D02*
X10973468Y-14927416D01*
X10973468Y-14927416D02*
X10982991Y-14889320D01*
X10982991Y-14889320D02*
X10982991Y-14813130D01*
X10982991Y-14813130D02*
X10973468Y-14794082D01*
X10973468Y-14794082D02*
X10963944Y-14784559D01*
X10963944Y-14784559D02*
X10944896Y-14775035D01*
X10944896Y-14775035D02*
X10906801Y-14775035D01*
X10906801Y-14775035D02*
X10887753Y-14784559D01*
X10887753Y-14784559D02*
X10878230Y-14794082D01*
X10878230Y-14794082D02*
X10868706Y-14813130D01*
X10868706Y-14813130D02*
X10868706Y-14860749D01*
X10868706Y-14860749D02*
X10878230Y-14879797D01*
X10878230Y-14879797D02*
X10887753Y-14889320D01*
X10887753Y-14889320D02*
X10906801Y-14898844D01*
X10906801Y-14898844D02*
X10944896Y-14898844D01*
X10944896Y-14898844D02*
X10963944Y-14889320D01*
X10963944Y-14889320D02*
X10973468Y-14879797D01*
X10973468Y-14879797D02*
X10982991Y-14860749D01*
X11221087Y-14975035D02*
X11221087Y-14775035D01*
X11306801Y-14975035D02*
X11306801Y-14870273D01*
X11306801Y-14870273D02*
X11297277Y-14851225D01*
X11297277Y-14851225D02*
X11278230Y-14841701D01*
X11278230Y-14841701D02*
X11249658Y-14841701D01*
X11249658Y-14841701D02*
X11230610Y-14851225D01*
X11230610Y-14851225D02*
X11221087Y-14860749D01*
X11430610Y-14975035D02*
X11411563Y-14965511D01*
X11411563Y-14965511D02*
X11402039Y-14955987D01*
X11402039Y-14955987D02*
X11392515Y-14936939D01*
X11392515Y-14936939D02*
X11392515Y-14879797D01*
X11392515Y-14879797D02*
X11402039Y-14860749D01*
X11402039Y-14860749D02*
X11411563Y-14851225D01*
X11411563Y-14851225D02*
X11430610Y-14841701D01*
X11430610Y-14841701D02*
X11459182Y-14841701D01*
X11459182Y-14841701D02*
X11478230Y-14851225D01*
X11478230Y-14851225D02*
X11487753Y-14860749D01*
X11487753Y-14860749D02*
X11497277Y-14879797D01*
X11497277Y-14879797D02*
X11497277Y-14936939D01*
X11497277Y-14936939D02*
X11487753Y-14955987D01*
X11487753Y-14955987D02*
X11478230Y-14965511D01*
X11478230Y-14965511D02*
X11459182Y-14975035D01*
X11459182Y-14975035D02*
X11430610Y-14975035D01*
X11611563Y-14975035D02*
X11592515Y-14965511D01*
X11592515Y-14965511D02*
X11582991Y-14946463D01*
X11582991Y-14946463D02*
X11582991Y-14775035D01*
X11763944Y-14965511D02*
X11744896Y-14975035D01*
X11744896Y-14975035D02*
X11706801Y-14975035D01*
X11706801Y-14975035D02*
X11687753Y-14965511D01*
X11687753Y-14965511D02*
X11678230Y-14946463D01*
X11678230Y-14946463D02*
X11678230Y-14870273D01*
X11678230Y-14870273D02*
X11687753Y-14851225D01*
X11687753Y-14851225D02*
X11706801Y-14841701D01*
X11706801Y-14841701D02*
X11744896Y-14841701D01*
X11744896Y-14841701D02*
X11763944Y-14851225D01*
X11763944Y-14851225D02*
X11773468Y-14870273D01*
X11773468Y-14870273D02*
X11773468Y-14889320D01*
X11773468Y-14889320D02*
X11678230Y-14908368D01*
X11849658Y-14965511D02*
X11868706Y-14975035D01*
X11868706Y-14975035D02*
X11906801Y-14975035D01*
X11906801Y-14975035D02*
X11925849Y-14965511D01*
X11925849Y-14965511D02*
X11935372Y-14946463D01*
X11935372Y-14946463D02*
X11935372Y-14936939D01*
X11935372Y-14936939D02*
X11925849Y-14917892D01*
X11925849Y-14917892D02*
X11906801Y-14908368D01*
X11906801Y-14908368D02*
X11878230Y-14908368D01*
X11878230Y-14908368D02*
X11859182Y-14898844D01*
X11859182Y-14898844D02*
X11849658Y-14879797D01*
X11849658Y-14879797D02*
X11849658Y-14870273D01*
X11849658Y-14870273D02*
X11859182Y-14851225D01*
X11859182Y-14851225D02*
X11878230Y-14841701D01*
X11878230Y-14841701D02*
X11906801Y-14841701D01*
X11906801Y-14841701D02*
X11925849Y-14851225D01*
X12002039Y-15051225D02*
X12011563Y-15041701D01*
X12011563Y-15041701D02*
X12030611Y-15013130D01*
X12030611Y-15013130D02*
X12040134Y-14994082D01*
X12040134Y-14994082D02*
X12049658Y-14965511D01*
X12049658Y-14965511D02*
X12059182Y-14917892D01*
X12059182Y-14917892D02*
X12059182Y-14879797D01*
X12059182Y-14879797D02*
X12049658Y-14832178D01*
X12049658Y-14832178D02*
X12040134Y-14803606D01*
X12040134Y-14803606D02*
X12030611Y-14784559D01*
X12030611Y-14784559D02*
X12011563Y-14755987D01*
X12011563Y-14755987D02*
X12002039Y-14746463D01*
M02*
