%TF.GenerationSoftware,KiCad,Pcbnew,7.0.11*%
%TF.CreationDate,2024-11-05T15:47:56-05:00*%
%TF.ProjectId,14.X.4 - PMOS - PLC Connector Combined,31342e58-2e34-4202-9d20-504d4f53202d,rev?*%
%TF.SameCoordinates,Original*%
%TF.FileFunction,Copper,L2,Bot*%
%TF.FilePolarity,Positive*%
%FSLAX46Y46*%
G04 Gerber Fmt 4.6, Leading zero omitted, Abs format (unit mm)*
G04 Created by KiCad (PCBNEW 7.0.11) date 2024-11-05 15:47:56*
%MOMM*%
%LPD*%
G01*
G04 APERTURE LIST*
G04 Aperture macros list*
%AMRoundRect*
0 Rectangle with rounded corners*
0 $1 Rounding radius*
0 $2 $3 $4 $5 $6 $7 $8 $9 X,Y pos of 4 corners*
0 Add a 4 corners polygon primitive as box body*
4,1,4,$2,$3,$4,$5,$6,$7,$8,$9,$2,$3,0*
0 Add four circle primitives for the rounded corners*
1,1,$1+$1,$2,$3*
1,1,$1+$1,$4,$5*
1,1,$1+$1,$6,$7*
1,1,$1+$1,$8,$9*
0 Add four rect primitives between the rounded corners*
20,1,$1+$1,$2,$3,$4,$5,0*
20,1,$1+$1,$4,$5,$6,$7,0*
20,1,$1+$1,$6,$7,$8,$9,0*
20,1,$1+$1,$8,$9,$2,$3,0*%
G04 Aperture macros list end*
%TA.AperFunction,SMDPad,CuDef*%
%ADD10RoundRect,0.572500X3.045750X0.572500X-3.045750X0.572500X-3.045750X-0.572500X3.045750X-0.572500X0*%
%TD*%
%TA.AperFunction,ComponentPad*%
%ADD11C,1.950000*%
%TD*%
%TA.AperFunction,ComponentPad*%
%ADD12R,1.950000X1.950000*%
%TD*%
%TA.AperFunction,ComponentPad*%
%ADD13C,1.600000*%
%TD*%
%TA.AperFunction,ComponentPad*%
%ADD14O,1.600000X1.600000*%
%TD*%
%TA.AperFunction,ComponentPad*%
%ADD15C,1.498600*%
%TD*%
%TA.AperFunction,ViaPad*%
%ADD16C,0.800000*%
%TD*%
%TA.AperFunction,Conductor*%
%ADD17C,0.508000*%
%TD*%
%TA.AperFunction,Conductor*%
%ADD18C,1.524000*%
%TD*%
%TA.AperFunction,Conductor*%
%ADD19C,1.143000*%
%TD*%
%TA.AperFunction,Conductor*%
%ADD20C,0.762000*%
%TD*%
%TA.AperFunction,Conductor*%
%ADD21C,1.270000*%
%TD*%
%TA.AperFunction,Conductor*%
%ADD22C,1.016000*%
%TD*%
G04 APERTURE END LIST*
D10*
%TO.P,J304,1,Pin_1*%
%TO.N,Net-(J304-Pin_1)*%
X128220000Y-72350000D03*
%TD*%
D11*
%TO.P,J317,2,2*%
%TO.N,GNDPWR*%
X107500000Y-94080000D03*
D12*
%TO.P,J317,1,1*%
%TO.N,Net-(D2-A)*%
X107500000Y-89000000D03*
%TD*%
D10*
%TO.P,J308,1,Pin_1*%
%TO.N,Net-(J302-Pin_1)*%
X128220000Y-118070000D03*
%TD*%
%TO.P,J312,1,Pin_1*%
%TO.N,Net-(J306-Pin_1)*%
X128220000Y-87570000D03*
%TD*%
%TO.P,J316,1,Pin_1*%
%TO.N,Net-(J314-Pin_1)*%
X128230000Y-102800000D03*
%TD*%
D13*
%TO.P,R204,1*%
%TO.N,M*%
X85008250Y-74782224D03*
D14*
%TO.P,R204,2*%
%TO.N,Net-(J208-Pin_1)*%
X85008250Y-79862224D03*
%TD*%
D12*
%TO.P,J222,1,1*%
%TO.N,Net-(J205-Pin_1)*%
X92640000Y-97740000D03*
D11*
%TO.P,J222,2,2*%
%TO.N,Net-(J206-Pin_1)*%
X92640000Y-92660000D03*
%TD*%
D13*
%TO.P,R202,1*%
%TO.N,M*%
X84918250Y-100297224D03*
D14*
%TO.P,R202,2*%
%TO.N,Net-(J202-Pin_1)*%
X84918250Y-105377224D03*
%TD*%
D10*
%TO.P,J305,1,Pin_1*%
%TO.N,GNDPWR*%
X128230000Y-92650000D03*
%TD*%
%TO.P,J301,1,Pin_1*%
%TO.N,GNDPWR*%
X128220000Y-123130000D03*
%TD*%
D12*
%TO.P,J224,1,1*%
%TO.N,Net-(J201-Pin_1)*%
X92640000Y-118060000D03*
D11*
%TO.P,J224,2,2*%
%TO.N,Net-(J202-Pin_1)*%
X92640000Y-112980000D03*
%TD*%
D12*
%TO.P,J320,1,1*%
%TO.N,Net-(D4-A)*%
X107500000Y-104000000D03*
D11*
%TO.P,J320,2,2*%
%TO.N,GNDPWR*%
X107500000Y-109080000D03*
%TD*%
D13*
%TO.P,R201,1*%
%TO.N,Net-(J201-Pin_1)*%
X84878250Y-115392224D03*
D14*
%TO.P,R201,2*%
%TO.N,M*%
X84878250Y-110312224D03*
%TD*%
D15*
%TO.P,J226,1,1*%
%TO.N,Net-(J206-Pin_1)*%
X95660000Y-125970000D03*
%TO.P,J226,2,2*%
%TO.N,Net-(J205-Pin_1)*%
X93160000Y-125970000D03*
%TO.P,J226,3,3*%
%TO.N,Net-(J204-Pin_1)*%
X90660000Y-125970000D03*
%TO.P,J226,4,4*%
%TO.N,Net-(J203-Pin_1)*%
X88160000Y-125970000D03*
%TD*%
D12*
%TO.P,J318,1,1*%
%TO.N,Net-(J318-Pad1)*%
X107500000Y-69000000D03*
D11*
%TO.P,J318,2,2*%
%TO.N,Net-(D1-A)*%
X107500000Y-74080000D03*
%TO.P,J318,3,3*%
%TO.N,GNDPWR*%
X107500000Y-79160000D03*
%TD*%
D10*
%TO.P,J303,1,Pin_1*%
%TO.N,GNDPWR*%
X128240000Y-77410000D03*
%TD*%
D13*
%TO.P,R203,1*%
%TO.N,Net-(J207-Pin_1)*%
X84918250Y-85002224D03*
D14*
%TO.P,R203,2*%
%TO.N,M*%
X84918250Y-90082224D03*
%TD*%
D10*
%TO.P,J313,1,Pin_1*%
%TO.N,GNDPWR*%
X128220000Y-107900000D03*
%TD*%
D12*
%TO.P,J221,1,1*%
%TO.N,Net-(J203-Pin_1)*%
X92640000Y-107900000D03*
D11*
%TO.P,J221,2,2*%
%TO.N,Net-(J204-Pin_1)*%
X92640000Y-102820000D03*
%TD*%
D12*
%TO.P,J223,1,1*%
%TO.N,M*%
X92640000Y-77420000D03*
D11*
%TO.P,J223,2,2*%
%TO.N,Net-(J210-Pin_1)*%
X92640000Y-72340000D03*
%TD*%
D12*
%TO.P,J225,1,1*%
%TO.N,Net-(J207-Pin_1)*%
X92640000Y-87580000D03*
D11*
%TO.P,J225,2,2*%
%TO.N,Net-(J208-Pin_1)*%
X92640000Y-82500000D03*
%TD*%
D12*
%TO.P,J319,1,1*%
%TO.N,Net-(D3-A)*%
X107500000Y-119400000D03*
D11*
%TO.P,J319,2,2*%
%TO.N,GNDPWR*%
X107500000Y-124480000D03*
%TD*%
D15*
%TO.P,J321,1,1*%
%TO.N,Net-(D1-A)*%
X116620000Y-130760000D03*
%TO.P,J321,2,2*%
%TO.N,Net-(D2-A)*%
X114120000Y-130760000D03*
%TO.P,J321,3,3*%
%TO.N,Net-(D4-A)*%
X111620000Y-130760000D03*
%TO.P,J321,4,4*%
%TO.N,Net-(D3-A)*%
X109120000Y-130760000D03*
%TD*%
D10*
%TO.P,J212,1,Pin_1*%
%TO.N,Net-(J202-Pin_1)*%
X74258250Y-112817224D03*
%TD*%
%TO.P,J216,1,Pin_1*%
%TO.N,Net-(J206-Pin_1)*%
X74268250Y-92497224D03*
%TD*%
%TO.P,J213,1,Pin_1*%
%TO.N,Net-(J203-Pin_1)*%
X74268250Y-107737224D03*
%TD*%
%TO.P,J217,1,Pin_1*%
%TO.N,Net-(J207-Pin_1)*%
X74268250Y-87407224D03*
%TD*%
%TO.P,J219,1,Pin_1*%
%TO.N,M*%
X74238250Y-77247224D03*
%TD*%
%TO.P,J211,1,Pin_1*%
%TO.N,Net-(J201-Pin_1)*%
X74340000Y-117907224D03*
%TD*%
%TO.P,J214,1,Pin_1*%
%TO.N,Net-(J204-Pin_1)*%
X74258250Y-102667224D03*
%TD*%
%TO.P,J215,1,Pin_1*%
%TO.N,Net-(J205-Pin_1)*%
X74320000Y-97580000D03*
%TD*%
%TO.P,J218,1,Pin_1*%
%TO.N,Net-(J208-Pin_1)*%
X74258250Y-82347224D03*
%TD*%
%TO.P,J220,1,Pin_1*%
%TO.N,Net-(J210-Pin_1)*%
X74238250Y-72187224D03*
%TD*%
D16*
%TO.N,GNDPWR*%
X119290000Y-82330000D03*
%TO.N,Net-(Q2-G)*%
X116000000Y-104240000D03*
X117330000Y-109870000D03*
%TO.N,GNDPWR*%
X111210000Y-91200000D03*
X108500000Y-85840000D03*
X115700000Y-83200000D03*
X110930000Y-81060000D03*
X110760000Y-111470000D03*
X116480000Y-112470000D03*
%TO.N,Net-(J314-Pin_1)*%
X123560000Y-102810000D03*
X117300000Y-111170000D03*
%TO.N,Net-(R18-Pad1)*%
X117538866Y-108811127D03*
X115400000Y-99570000D03*
%TO.N,Net-(J302-Pin_1)*%
X117735152Y-127456659D03*
X122080000Y-118210000D03*
%TO.N,Net-(R19-Pad1)*%
X116130000Y-126310000D03*
X115440000Y-113580000D03*
%TO.N,Net-(J306-Pin_1)*%
X123120000Y-87640000D03*
X118440000Y-91680000D03*
%TO.N,Net-(D6-K)*%
X115204000Y-91617500D03*
X117080000Y-96610000D03*
%TO.N,Net-(R20-Pad1)*%
X111640000Y-82250000D03*
X115540000Y-95160000D03*
%TO.N,Net-(J318-Pad1)*%
X117520000Y-81260000D03*
X110172500Y-85682500D03*
%TO.N,Net-(D1-K)*%
X118489831Y-78995448D03*
X118626054Y-74173045D03*
%TO.N,Net-(R1-Pad1)*%
X118255414Y-75101824D03*
%TO.N,Net-(D5-K)*%
X115270000Y-76380000D03*
X117834000Y-76999130D03*
%TO.N,Net-(R1-Pad1)*%
X115750000Y-80810000D03*
%TO.N,Net-(J304-Pin_1)*%
X124130000Y-72390000D03*
X115260000Y-77880000D03*
%TO.N,Net-(R1-Pad1)*%
X115550000Y-68940000D03*
%TO.N,Net-(J318-Pad1)*%
X109399956Y-87589956D03*
%TO.N,Net-(D1-A)*%
X110020000Y-77600000D03*
%TO.N,Net-(D2-A)*%
X109680000Y-92500000D03*
%TO.N,Net-(D4-A)*%
X110230000Y-108470000D03*
%TO.N,Net-(D3-A)*%
X110270000Y-122850000D03*
%TO.N,Net-(J318-Pad1)*%
X109495236Y-115748011D03*
X108610000Y-101150000D03*
X111110000Y-118010000D03*
X110330000Y-118910000D03*
X110340000Y-103860000D03*
X111150000Y-103140000D03*
X110890000Y-72350000D03*
X109750000Y-72350000D03*
X111757977Y-88787977D03*
X110940000Y-89730000D03*
%TO.N,Net-(D1-A)*%
X103270000Y-85720000D03*
%TO.N,Net-(D2-A)*%
X103200000Y-100320000D03*
%TO.N,Net-(D4-A)*%
X103130000Y-115490000D03*
%TO.N,GNDPWR*%
X122960000Y-77960000D03*
X122930000Y-76700000D03*
X123850000Y-77890000D03*
%TO.N,Net-(J201-Pin_1)*%
X79471250Y-117874224D03*
X80868250Y-117874224D03*
X82265250Y-117874224D03*
%TO.N,Net-(J202-Pin_1)*%
X79471250Y-112794224D03*
X80868250Y-112794224D03*
X82392250Y-112794224D03*
%TO.N,Net-(J203-Pin_1)*%
X79471250Y-107714224D03*
X89758150Y-114826224D03*
X81249250Y-107714224D03*
X82773250Y-107714224D03*
%TO.N,Net-(J204-Pin_1)*%
X81249250Y-102634224D03*
X79598250Y-102634224D03*
X82773250Y-102634224D03*
%TO.N,Net-(J205-Pin_1)*%
X95679002Y-100444402D03*
X79852250Y-97554224D03*
X81503250Y-97554224D03*
X98902250Y-105440000D03*
X83027250Y-97554224D03*
%TO.N,Net-(J206-Pin_1)*%
X83281250Y-92474224D03*
X79852250Y-92474224D03*
X81630248Y-92474224D03*
%TO.N,Net-(J207-Pin_1)*%
X83027250Y-87394224D03*
X81376250Y-87394224D03*
X79852250Y-87394224D03*
%TO.N,Net-(J208-Pin_1)*%
X81503250Y-82314224D03*
X79725250Y-82314224D03*
X83281250Y-82314224D03*
%TO.N,M*%
X82773250Y-76980224D03*
X79344250Y-76980224D03*
X90012252Y-110254224D03*
X91282250Y-100221224D03*
X92425250Y-100221224D03*
X80995250Y-76980224D03*
X91028250Y-110254224D03*
%TO.N,GNDPWR*%
X123880000Y-76700000D03*
X103190000Y-133540000D03*
X123350000Y-93310000D03*
X123470000Y-122610000D03*
X124250000Y-123800000D03*
X123330000Y-107490000D03*
X124260000Y-122570000D03*
X123350000Y-108550000D03*
X121680000Y-92100000D03*
X121930000Y-108580000D03*
X121680000Y-93350000D03*
X103180000Y-132500000D03*
X123460000Y-123820000D03*
X103180000Y-131480000D03*
X123350000Y-92100000D03*
X121950000Y-107390000D03*
%TD*%
D17*
%TO.N,Net-(J306-Pin_1)*%
X123120000Y-87640000D02*
X123190000Y-87570000D01*
X123190000Y-87570000D02*
X128220000Y-87570000D01*
%TO.N,Net-(J302-Pin_1)*%
X122220000Y-118070000D02*
X128220000Y-118070000D01*
X122080000Y-118210000D02*
X122220000Y-118070000D01*
D18*
%TO.N,GNDPWR*%
X123987490Y-123130000D02*
X123470000Y-122612510D01*
X128220000Y-123130000D02*
X123987490Y-123130000D01*
X128220000Y-123130000D02*
X123958510Y-123130000D01*
X123958510Y-123130000D02*
X123460000Y-123628510D01*
X128220000Y-123130000D02*
X124748510Y-123130000D01*
X124748510Y-123130000D02*
X124250000Y-123628510D01*
X127702510Y-122612510D02*
X124260000Y-122612510D01*
X128220000Y-123130000D02*
X127702510Y-122612510D01*
X122418510Y-107900000D02*
X121930000Y-108388510D01*
X128220000Y-107900000D02*
X122418510Y-107900000D01*
X122460000Y-107900000D02*
X121950000Y-107390000D01*
X128220000Y-107900000D02*
X122460000Y-107900000D01*
X128220000Y-107900000D02*
X123838510Y-107900000D01*
X123838510Y-107900000D02*
X123350000Y-108388510D01*
X123740000Y-107900000D02*
X123330000Y-107490000D01*
X128220000Y-107900000D02*
X123740000Y-107900000D01*
X121730000Y-93148510D02*
X131050278Y-93148510D01*
X122228510Y-92650000D02*
X121730000Y-93148510D01*
X128230000Y-92650000D02*
X122228510Y-92650000D01*
X131050278Y-93148510D02*
X131227243Y-93143556D01*
X128230000Y-92650000D02*
X122185698Y-92650000D01*
X122185698Y-92650000D02*
X121678794Y-92143096D01*
X123848510Y-92650000D02*
X123350000Y-93148510D01*
X128230000Y-92650000D02*
X123848510Y-92650000D01*
X123867490Y-92650000D02*
X123350000Y-92132510D01*
X128230000Y-92650000D02*
X123867490Y-92650000D01*
X123447490Y-77410000D02*
X122930000Y-76892510D01*
X128240000Y-77410000D02*
X123447490Y-77410000D01*
X123458510Y-77410000D02*
X122960000Y-77908510D01*
X128240000Y-77410000D02*
X123458510Y-77410000D01*
X124397490Y-77410000D02*
X123880000Y-76892510D01*
X128240000Y-77410000D02*
X124397490Y-77410000D01*
X124330000Y-77410000D02*
X123850000Y-77890000D01*
X128240000Y-77410000D02*
X124330000Y-77410000D01*
D17*
%TO.N,Net-(J304-Pin_1)*%
X128180000Y-72390000D02*
X128220000Y-72350000D01*
X124130000Y-72390000D02*
X128180000Y-72390000D01*
%TO.N,Net-(J302-Pin_1)*%
X121907629Y-118210000D02*
X122080000Y-118210000D01*
X118960000Y-121157629D02*
X121907629Y-118210000D01*
X118960000Y-126231811D02*
X118960000Y-121157629D01*
X117735152Y-127456659D02*
X118960000Y-126231811D01*
%TO.N,GNDPWR*%
X121510000Y-77960000D02*
X122960000Y-77960000D01*
X120051831Y-79418169D02*
X121510000Y-77960000D01*
X120051831Y-81568169D02*
X120051831Y-79418169D01*
X119290000Y-82330000D02*
X120051831Y-81568169D01*
%TO.N,Net-(J304-Pin_1)*%
X122020000Y-72390000D02*
X124130000Y-72390000D01*
X120483930Y-73926070D02*
X122020000Y-72390000D01*
X120483930Y-76666070D02*
X120483930Y-73926070D01*
X119343831Y-79349187D02*
X119343831Y-77806169D01*
X117500000Y-80120000D02*
X118573018Y-80120000D01*
X118573018Y-80120000D02*
X119343831Y-79349187D01*
X119343831Y-77806169D02*
X120483930Y-76666070D01*
X115260000Y-77880000D02*
X117500000Y-80120000D01*
%TO.N,Net-(D1-K)*%
X119160000Y-74706991D02*
X118626054Y-74173045D01*
X118280000Y-77760869D02*
X119160000Y-76880869D01*
X118280000Y-78785617D02*
X118280000Y-77760869D01*
X118489831Y-78995448D02*
X118280000Y-78785617D01*
X119160000Y-76880869D02*
X119160000Y-74706991D01*
%TO.N,Net-(Q2-G)*%
X116684866Y-104924866D02*
X116000000Y-104240000D01*
X116684866Y-109224866D02*
X116684866Y-104924866D01*
X117330000Y-109870000D02*
X116684866Y-109224866D01*
%TO.N,Net-(R20-Pad1)*%
X115570000Y-86180000D02*
X111640000Y-82250000D01*
X114350000Y-91263761D02*
X115570000Y-90043761D01*
X114350000Y-93970000D02*
X114350000Y-91263761D01*
X115540000Y-95160000D02*
X114350000Y-93970000D01*
X115570000Y-90043761D02*
X115570000Y-86180000D01*
D19*
%TO.N,Net-(J318-Pad1)*%
X110940000Y-89730000D02*
X111757977Y-88912023D01*
X111757977Y-88912023D02*
X111757977Y-88787977D01*
D17*
%TO.N,GNDPWR*%
X112140000Y-91200000D02*
X111210000Y-91200000D01*
X113190000Y-90150000D02*
X112140000Y-91200000D01*
X113190000Y-88510000D02*
X113190000Y-90150000D01*
X112140000Y-87460000D02*
X113190000Y-88510000D01*
X109122261Y-85840000D02*
X110742261Y-87460000D01*
X110742261Y-87460000D02*
X112140000Y-87460000D01*
X108500000Y-85840000D02*
X109122261Y-85840000D01*
%TO.N,Net-(J318-Pad1)*%
X116507739Y-81260000D02*
X117520000Y-81260000D01*
X116103739Y-81664000D02*
X116507739Y-81260000D01*
X115396261Y-81664000D02*
X116103739Y-81664000D01*
X109239931Y-84749931D02*
X109239931Y-81400069D01*
X109239931Y-81400069D02*
X110760000Y-79880000D01*
X113612261Y-79880000D02*
X115396261Y-81664000D01*
X110172500Y-85682500D02*
X109239931Y-84749931D01*
X110760000Y-79880000D02*
X113612261Y-79880000D01*
D19*
X109399956Y-87589956D02*
X110870000Y-89060000D01*
X106833500Y-87253500D02*
X105140000Y-85560000D01*
X109063500Y-87253500D02*
X106833500Y-87253500D01*
X109399956Y-87589956D02*
X109063500Y-87253500D01*
X105140000Y-85560000D02*
X105140000Y-83330000D01*
X110940000Y-89730000D02*
X110940000Y-89130000D01*
X110940000Y-89130000D02*
X110890000Y-89080000D01*
D20*
%TO.N,GNDPWR*%
X113560000Y-81060000D02*
X110930000Y-81060000D01*
X115700000Y-83200000D02*
X113560000Y-81060000D01*
D18*
%TO.N,Net-(J318-Pad1)*%
X105310000Y-99480316D02*
X105310000Y-101100000D01*
X104486000Y-98656316D02*
X105310000Y-99480316D01*
X104486000Y-86430159D02*
X104486000Y-98656316D01*
X105140000Y-85776159D02*
X104486000Y-86430159D01*
X105140000Y-83330000D02*
X105140000Y-85776159D01*
D19*
%TO.N,GNDPWR*%
X115480000Y-111470000D02*
X110760000Y-111470000D01*
X116480000Y-112470000D02*
X115480000Y-111470000D01*
D17*
%TO.N,Net-(J314-Pin_1)*%
X121690000Y-102810000D02*
X123560000Y-102810000D01*
X120280000Y-104220000D02*
X121690000Y-102810000D01*
X120280000Y-108190000D02*
X120280000Y-104220000D01*
X117300000Y-111170000D02*
X120280000Y-108190000D01*
%TO.N,Net-(R1-Pad1)*%
X115550000Y-72530000D02*
X115550000Y-71870000D01*
X118121824Y-75101824D02*
X115550000Y-72530000D01*
X118255414Y-75101824D02*
X118121824Y-75101824D01*
%TO.N,Net-(R19-Pad1)*%
X115440000Y-125620000D02*
X115440000Y-113580000D01*
X116130000Y-126310000D02*
X115440000Y-125620000D01*
%TO.N,Net-(R18-Pad1)*%
X117480000Y-108752261D02*
X117480000Y-101650000D01*
X117538866Y-108811127D02*
X117480000Y-108752261D01*
X117480000Y-101650000D02*
X115400000Y-99570000D01*
%TO.N,Net-(J306-Pin_1)*%
X121997629Y-87640000D02*
X123120000Y-87640000D01*
X118440000Y-91197629D02*
X121997629Y-87640000D01*
X118440000Y-91680000D02*
X118440000Y-91197629D01*
%TO.N,Net-(D6-K)*%
X117080000Y-93493500D02*
X115204000Y-91617500D01*
X117080000Y-96610000D02*
X117080000Y-93493500D01*
%TO.N,Net-(R20-Pad1)*%
X111490000Y-82250000D02*
X111640000Y-82250000D01*
%TO.N,Net-(D5-K)*%
X117214870Y-76380000D02*
X115270000Y-76380000D01*
X117834000Y-76999130D02*
X117214870Y-76380000D01*
%TO.N,Net-(R1-Pad1)*%
X114406000Y-73014000D02*
X115550000Y-71870000D01*
X115750000Y-80810000D02*
X114406000Y-79466000D01*
X114406000Y-79466000D02*
X114406000Y-73014000D01*
%TO.N,Net-(J304-Pin_1)*%
X124130000Y-72390000D02*
X124170000Y-72430000D01*
%TO.N,Net-(R1-Pad1)*%
X115550000Y-71870000D02*
X115550000Y-68940000D01*
%TO.N,Net-(D1-A)*%
X110020000Y-76600000D02*
X107500000Y-74080000D01*
X110020000Y-77600000D02*
X110020000Y-76600000D01*
%TO.N,Net-(D2-A)*%
X109680000Y-92500000D02*
X108940000Y-91760000D01*
X108940000Y-91760000D02*
X108940000Y-90440000D01*
X108940000Y-90440000D02*
X107500000Y-89000000D01*
%TO.N,Net-(D4-A)*%
X110230000Y-108470000D02*
X107500000Y-105740000D01*
X107500000Y-105740000D02*
X107500000Y-104000000D01*
%TO.N,Net-(D3-A)*%
X110270000Y-122850000D02*
X110270000Y-122170000D01*
X110270000Y-122170000D02*
X107500000Y-119400000D01*
D18*
%TO.N,Net-(J318-Pad1)*%
X108524000Y-101150000D02*
X108474000Y-101100000D01*
X108610000Y-101150000D02*
X108524000Y-101150000D01*
X108610000Y-101236000D02*
X108610000Y-101150000D01*
X105140000Y-83330000D02*
X105140000Y-71360000D01*
X105140000Y-71360000D02*
X107500000Y-69000000D01*
X108474000Y-101100000D02*
X105310000Y-101100000D01*
X110340000Y-102966000D02*
X108610000Y-101236000D01*
X110340000Y-103860000D02*
X110340000Y-102966000D01*
X105310000Y-111490316D02*
X105310000Y-101100000D01*
X111110000Y-118010000D02*
X110270000Y-116450316D01*
X110330000Y-118910000D02*
X111110000Y-118010000D01*
X110270000Y-116450316D02*
X105310000Y-111490316D01*
X110270000Y-118910000D02*
X110330000Y-118910000D01*
D17*
%TO.N,Net-(D2-A)*%
X112789700Y-129429700D02*
X114120000Y-130760000D01*
X111650174Y-129429700D02*
X112789700Y-129429700D01*
X105230000Y-128420000D02*
X110640474Y-128420000D01*
X103970000Y-127160000D02*
X105230000Y-128420000D01*
X103984000Y-115843739D02*
X103970000Y-115857739D01*
X103970000Y-115857739D02*
X103970000Y-127160000D01*
X103200000Y-112220000D02*
X103984000Y-113004000D01*
X110640474Y-128420000D02*
X111650174Y-129429700D01*
X103200000Y-100320000D02*
X103200000Y-112220000D01*
X103984000Y-113004000D02*
X103984000Y-115843739D01*
%TO.N,Net-(D1-A)*%
X116150000Y-130760000D02*
X116620000Y-130760000D01*
X113920000Y-128530000D02*
X116150000Y-130760000D01*
X112040000Y-128530000D02*
X113920000Y-128530000D01*
X105820000Y-127640000D02*
X111150000Y-127640000D01*
X104748000Y-126568000D02*
X105820000Y-127640000D01*
X104054000Y-111954000D02*
X104748000Y-112648000D01*
X104054000Y-99944000D02*
X104054000Y-111954000D01*
X104748000Y-112648000D02*
X104748000Y-126568000D01*
X103270000Y-99160000D02*
X104054000Y-99944000D01*
X103270000Y-85720000D02*
X103270000Y-99160000D01*
X111150000Y-127640000D02*
X112040000Y-128530000D01*
D18*
%TO.N,Net-(J318-Pad1)*%
X111150000Y-103140000D02*
X110380000Y-103910000D01*
D19*
X109750000Y-72350000D02*
X110890000Y-72350000D01*
X107500000Y-70100000D02*
X109750000Y-72350000D01*
X107500000Y-69000000D02*
X107500000Y-70100000D01*
D17*
%TO.N,Net-(D4-A)*%
X110200000Y-129340000D02*
X111620000Y-130760000D01*
X103130000Y-127830000D02*
X104640000Y-129340000D01*
X104640000Y-129340000D02*
X110200000Y-129340000D01*
X103130000Y-115490000D02*
X103130000Y-127830000D01*
D19*
%TO.N,GNDPWR*%
X103190000Y-133540000D02*
X103180000Y-133530000D01*
D21*
%TO.N,Net-(J201-Pin_1)*%
X84805250Y-117874220D02*
X74278395Y-117874220D01*
X79471250Y-117874224D02*
X80868250Y-117874224D01*
X92298250Y-117874224D02*
X92425250Y-117747224D01*
X74278395Y-117874220D02*
X74278391Y-117874224D01*
X82265250Y-117874224D02*
X92298250Y-117874224D01*
X80868250Y-117874224D02*
X82265250Y-117874224D01*
X84805250Y-115334224D02*
X84805250Y-117874220D01*
X74278391Y-117874224D02*
X79471250Y-117874224D01*
%TO.N,Net-(J202-Pin_1)*%
X80868250Y-112794224D02*
X79471250Y-112794224D01*
X79471250Y-112794224D02*
X79514250Y-112837224D01*
X94578250Y-111861750D02*
X94578250Y-106087224D01*
X93602776Y-112837224D02*
X94578250Y-111861750D01*
X94578250Y-106087224D02*
X93748250Y-105257224D01*
X82392250Y-112794224D02*
X80868250Y-112794224D01*
X79514250Y-112837224D02*
X93602776Y-112837224D01*
X79471250Y-112794224D02*
X74279942Y-112794224D01*
X74279942Y-112794224D02*
X74271976Y-112802190D01*
X93748250Y-105257224D02*
X85278250Y-105257224D01*
D22*
%TO.N,Net-(J203-Pin_1)*%
X88160000Y-124380000D02*
X88160000Y-125970000D01*
X93620000Y-120870000D02*
X91670000Y-120870000D01*
X91670000Y-120870000D02*
X88160000Y-124380000D01*
D21*
X79471250Y-107714224D02*
X74289842Y-107714224D01*
D22*
X90421926Y-115490000D02*
X93640000Y-115490000D01*
X94770000Y-116620000D02*
X94770000Y-119720000D01*
D21*
X81249250Y-107714224D02*
X79471250Y-107714224D01*
X92425250Y-107587224D02*
X92298250Y-107714224D01*
D22*
X89758150Y-114826224D02*
X90421926Y-115490000D01*
D21*
X92298250Y-107714224D02*
X82773250Y-107714224D01*
D22*
X94770000Y-119720000D02*
X93620000Y-120870000D01*
D21*
X82773250Y-107714224D02*
X81249250Y-107714224D01*
X74289842Y-107714224D02*
X74280369Y-107723697D01*
D22*
X93640000Y-115490000D02*
X94770000Y-116620000D01*
%TO.N,Net-(J204-Pin_1)*%
X92230000Y-123420000D02*
X95080000Y-123420000D01*
X95080000Y-123420000D02*
X97025000Y-121475000D01*
D21*
X92425250Y-102507224D02*
X92298250Y-102634224D01*
D22*
X97025000Y-121475000D02*
X97025000Y-105728116D01*
X97025000Y-105728116D02*
X93804108Y-102507224D01*
D21*
X82773250Y-102634224D02*
X81249250Y-102634224D01*
D22*
X90660000Y-124990000D02*
X92230000Y-123420000D01*
D21*
X81249250Y-102634224D02*
X79598250Y-102634224D01*
X74283060Y-102634224D02*
X74271976Y-102645308D01*
X92298250Y-102634224D02*
X82773250Y-102634224D01*
D22*
X93804108Y-102507224D02*
X92425250Y-102507224D01*
D21*
X79598250Y-102634224D02*
X74283060Y-102634224D01*
D22*
X90660000Y-125970000D02*
X90660000Y-124990000D01*
D21*
%TO.N,Net-(J205-Pin_1)*%
X98902250Y-102380000D02*
X96966652Y-100444402D01*
X92298250Y-97554224D02*
X83027250Y-97554224D01*
X83027250Y-97554224D02*
X81503250Y-97554224D01*
X81503250Y-97554224D02*
X79852250Y-97554224D01*
X79852250Y-97554224D02*
X74199025Y-97554224D01*
X96966652Y-100444402D02*
X95679002Y-100444402D01*
X74199025Y-97554224D02*
X74168250Y-97584999D01*
X92425250Y-97427224D02*
X92298250Y-97554224D01*
X98902250Y-105440000D02*
X98902250Y-102380000D01*
%TO.N,Net-(J206-Pin_1)*%
X79845556Y-92480918D02*
X79852250Y-92474224D01*
X74272660Y-92480918D02*
X79845556Y-92480918D01*
X81630248Y-92474224D02*
X79852250Y-92474224D01*
X92425250Y-92347224D02*
X92298250Y-92474224D01*
X74273749Y-92482007D02*
X78836250Y-92482007D01*
X74272660Y-92480918D02*
X74273749Y-92482007D01*
X83281250Y-92474224D02*
X81630248Y-92474224D01*
X92298250Y-92474224D02*
X83281250Y-92474224D01*
%TO.N,Net-(J207-Pin_1)*%
X74287737Y-87394224D02*
X83027250Y-87394224D01*
X79852250Y-87394224D02*
X79861592Y-87403566D01*
X74271976Y-87409985D02*
X74287737Y-87394224D01*
X81366908Y-87403566D02*
X81376250Y-87394224D01*
X92298250Y-87394224D02*
X92425250Y-87267224D01*
X83027250Y-87394224D02*
X92298250Y-87394224D01*
X84805250Y-87394224D02*
X81376250Y-87394224D01*
X79861592Y-87403566D02*
X81366908Y-87403566D01*
X84805250Y-84981224D02*
X84805250Y-87394224D01*
%TO.N,Net-(J208-Pin_1)*%
X74278395Y-82325125D02*
X74289296Y-82314224D01*
X81503250Y-82314224D02*
X83281250Y-82314224D01*
X79725250Y-82314224D02*
X81503250Y-82314224D01*
X83281250Y-82314224D02*
X92298250Y-82314224D01*
X74289296Y-82314224D02*
X79725250Y-82314224D01*
X92298250Y-82314224D02*
X92425250Y-82187224D01*
X84805250Y-79824224D02*
X84805250Y-82314224D01*
X84794349Y-82325125D02*
X74278395Y-82325125D01*
X84805250Y-82314224D02*
X84794349Y-82325125D01*
%TO.N,M*%
X91282250Y-100221224D02*
X93578776Y-100221224D01*
X91282250Y-100221224D02*
X92425250Y-100221224D01*
X84805250Y-110254224D02*
X90012252Y-110254224D01*
X79344250Y-76980224D02*
X74564650Y-76980224D01*
X94135026Y-77420000D02*
X96616250Y-79901224D01*
X94076250Y-90061224D02*
X84805250Y-90061224D01*
X82773250Y-76980224D02*
X80995250Y-76980224D01*
X82773250Y-76980224D02*
X92298250Y-76980224D01*
X96616250Y-79901224D02*
X96616250Y-87521224D01*
X74564650Y-76980224D02*
X74293347Y-77251527D01*
X93578776Y-100221224D02*
X96489250Y-97310750D01*
X85313250Y-77107224D02*
X92425250Y-77107224D01*
X80995250Y-76980224D02*
X79344250Y-76980224D01*
X84805250Y-74744224D02*
X84805250Y-76599224D01*
X91028250Y-110254224D02*
X90012252Y-110254224D01*
X92425250Y-100221224D02*
X92795250Y-100221224D01*
X96616250Y-87521224D02*
X94076250Y-90061224D01*
X92298250Y-76980224D02*
X92425250Y-77107224D01*
X84805250Y-76599224D02*
X85313250Y-77107224D01*
X96489250Y-97310750D02*
X96489250Y-92474224D01*
X92640000Y-77420000D02*
X94135026Y-77420000D01*
X84805250Y-100221224D02*
X91282250Y-100221224D01*
X96489250Y-92474224D02*
X94076250Y-90061224D01*
%TO.N,Net-(J210-Pin_1)*%
X92298250Y-72154224D02*
X74289963Y-72154224D01*
X74289963Y-72154224D02*
X74268986Y-72175201D01*
X92425250Y-72027224D02*
X92298250Y-72154224D01*
%TD*%
%TA.AperFunction,Conductor*%
%TO.N,GNDPWR*%
G36*
X121386617Y-76125149D02*
G01*
X121398714Y-76127555D01*
X121416081Y-76131010D01*
X121416082Y-76131010D01*
X121489901Y-76131010D01*
X124143704Y-76131010D01*
X124210743Y-76150695D01*
X124256498Y-76203499D01*
X124266442Y-76272657D01*
X124250005Y-76315174D01*
X124251489Y-76315985D01*
X124248655Y-76321173D01*
X124168030Y-76509449D01*
X124168028Y-76509456D01*
X124124491Y-76709589D01*
X124121750Y-76755621D01*
X124121750Y-78064378D01*
X124124491Y-78110410D01*
X124168028Y-78310543D01*
X124168030Y-78310550D01*
X124247958Y-78497197D01*
X124256253Y-78566573D01*
X124225724Y-78629420D01*
X124166064Y-78665785D01*
X124133970Y-78670010D01*
X121541372Y-78670010D01*
X121541338Y-78670000D01*
X121490000Y-78670000D01*
X121416082Y-78670000D01*
X121416080Y-78670000D01*
X121271091Y-78698840D01*
X121271085Y-78698842D01*
X121134506Y-78755414D01*
X121011582Y-78837551D01*
X120907040Y-78942094D01*
X120824918Y-79065002D01*
X120824911Y-79065014D01*
X120768341Y-79201588D01*
X120768340Y-79201592D01*
X120768339Y-79201595D01*
X120741164Y-79338220D01*
X120739499Y-79346593D01*
X120739500Y-79420510D01*
X120739500Y-85489137D01*
X120739489Y-85489174D01*
X120739490Y-85614429D01*
X120768332Y-85759419D01*
X120768335Y-85759429D01*
X120824906Y-85895998D01*
X120824908Y-85896002D01*
X120824910Y-85896006D01*
X120824913Y-85896010D01*
X120824915Y-85896014D01*
X120890579Y-85994283D01*
X120907045Y-86018926D01*
X121011581Y-86123462D01*
X121134503Y-86205594D01*
X121134509Y-86205596D01*
X121134510Y-86205597D01*
X121262008Y-86258408D01*
X121271086Y-86262168D01*
X121271090Y-86262168D01*
X121271091Y-86262169D01*
X121416079Y-86291010D01*
X121416082Y-86291010D01*
X121489901Y-86291010D01*
X124123099Y-86291010D01*
X124190138Y-86310695D01*
X124235893Y-86363499D01*
X124245837Y-86432657D01*
X124229502Y-86474906D01*
X124231044Y-86475748D01*
X124228215Y-86480927D01*
X124147550Y-86669296D01*
X124147549Y-86669301D01*
X124136986Y-86717859D01*
X124103501Y-86779182D01*
X124042178Y-86812666D01*
X124015820Y-86815500D01*
X123508463Y-86815500D01*
X123458027Y-86804779D01*
X123399806Y-86778857D01*
X123399802Y-86778855D01*
X123254001Y-86747865D01*
X123214646Y-86739500D01*
X123025354Y-86739500D01*
X122992897Y-86746398D01*
X122840197Y-86778855D01*
X122840192Y-86778857D01*
X122667270Y-86855848D01*
X122667269Y-86855849D01*
X122659056Y-86861817D01*
X122593250Y-86885298D01*
X122586169Y-86885500D01*
X122061621Y-86885500D01*
X122043652Y-86884191D01*
X122019718Y-86880685D01*
X121974624Y-86884631D01*
X121970086Y-86885028D01*
X121959282Y-86885500D01*
X121953684Y-86885500D01*
X121922720Y-86889119D01*
X121919133Y-86889485D01*
X121844022Y-86896056D01*
X121836948Y-86897517D01*
X121836937Y-86897465D01*
X121829461Y-86899122D01*
X121829474Y-86899174D01*
X121822441Y-86900840D01*
X121751554Y-86926639D01*
X121748154Y-86927821D01*
X121676591Y-86951536D01*
X121670049Y-86954587D01*
X121670026Y-86954539D01*
X121663136Y-86957875D01*
X121663160Y-86957922D01*
X121656705Y-86961163D01*
X121593696Y-87002604D01*
X121590659Y-87004539D01*
X121526475Y-87044130D01*
X121520808Y-87048611D01*
X121520775Y-87048569D01*
X121514843Y-87053401D01*
X121514877Y-87053442D01*
X121509341Y-87058087D01*
X121457573Y-87112956D01*
X121455062Y-87115541D01*
X117951742Y-90618861D01*
X117938113Y-90630640D01*
X117918707Y-90645088D01*
X117886674Y-90683262D01*
X117879387Y-90691215D01*
X117875420Y-90695183D01*
X117875418Y-90695185D01*
X117856089Y-90719630D01*
X117853815Y-90722422D01*
X117805334Y-90780200D01*
X117801366Y-90786234D01*
X117801322Y-90786205D01*
X117797209Y-90792660D01*
X117797254Y-90792688D01*
X117793462Y-90798835D01*
X117761581Y-90867201D01*
X117760012Y-90870441D01*
X117726175Y-90937820D01*
X117723704Y-90944608D01*
X117723655Y-90944590D01*
X117721141Y-90951822D01*
X117721191Y-90951839D01*
X117718920Y-90958691D01*
X117703671Y-91032540D01*
X117702891Y-91036059D01*
X117685499Y-91109445D01*
X117684661Y-91116616D01*
X117684607Y-91116609D01*
X117683829Y-91124227D01*
X117683883Y-91124232D01*
X117683253Y-91131423D01*
X117683845Y-91151778D01*
X117667285Y-91217377D01*
X117612821Y-91311714D01*
X117554327Y-91491740D01*
X117554326Y-91491744D01*
X117534540Y-91680000D01*
X117554326Y-91868256D01*
X117554327Y-91868259D01*
X117612818Y-92048277D01*
X117612821Y-92048284D01*
X117707467Y-92212216D01*
X117797079Y-92311740D01*
X117834129Y-92352888D01*
X117987265Y-92464148D01*
X117987270Y-92464151D01*
X118160192Y-92541142D01*
X118160197Y-92541144D01*
X118345354Y-92580500D01*
X118345355Y-92580500D01*
X118534644Y-92580500D01*
X118534646Y-92580500D01*
X118719803Y-92541144D01*
X118892730Y-92464151D01*
X119045871Y-92352888D01*
X119172533Y-92212216D01*
X119267179Y-92048284D01*
X119325674Y-91868256D01*
X119345460Y-91680000D01*
X119325674Y-91491744D01*
X119321500Y-91478900D01*
X119319504Y-91409063D01*
X119351748Y-91352903D01*
X120527820Y-90176831D01*
X120589142Y-90143348D01*
X120658834Y-90148332D01*
X120714767Y-90190204D01*
X120739184Y-90255668D01*
X120739500Y-90264514D01*
X120739500Y-90569137D01*
X120739489Y-90569174D01*
X120739490Y-90694429D01*
X120768332Y-90839419D01*
X120768335Y-90839429D01*
X120824906Y-90975998D01*
X120824908Y-90976002D01*
X120824910Y-90976006D01*
X120824913Y-90976010D01*
X120824915Y-90976014D01*
X120895915Y-91082270D01*
X120907045Y-91098926D01*
X121011581Y-91203462D01*
X121134503Y-91285594D01*
X121134509Y-91285596D01*
X121134510Y-91285597D01*
X121262771Y-91338724D01*
X121271086Y-91342168D01*
X121271090Y-91342168D01*
X121271091Y-91342169D01*
X121416079Y-91371010D01*
X121416082Y-91371010D01*
X121489901Y-91371010D01*
X124133704Y-91371010D01*
X124200743Y-91390695D01*
X124246498Y-91443499D01*
X124256442Y-91512657D01*
X124240005Y-91555174D01*
X124241489Y-91555985D01*
X124238655Y-91561173D01*
X124158030Y-91749449D01*
X124158028Y-91749456D01*
X124114491Y-91949589D01*
X124111750Y-91995621D01*
X124111750Y-93304378D01*
X124114491Y-93350410D01*
X124158028Y-93550543D01*
X124158030Y-93550550D01*
X124237958Y-93737197D01*
X124246253Y-93806573D01*
X124215724Y-93869420D01*
X124156064Y-93905785D01*
X124123970Y-93910010D01*
X121541372Y-93910010D01*
X121541338Y-93910000D01*
X121490000Y-93910000D01*
X121416082Y-93910000D01*
X121416080Y-93910000D01*
X121271091Y-93938840D01*
X121271085Y-93938842D01*
X121134506Y-93995414D01*
X121011582Y-94077551D01*
X120907040Y-94182094D01*
X120824918Y-94305002D01*
X120824911Y-94305014D01*
X120768341Y-94441588D01*
X120768340Y-94441592D01*
X120768339Y-94441595D01*
X120752764Y-94519901D01*
X120739499Y-94586593D01*
X120739500Y-94660510D01*
X120739500Y-100729137D01*
X120739489Y-100729174D01*
X120739490Y-100854429D01*
X120768332Y-100999419D01*
X120768335Y-100999429D01*
X120824906Y-101135998D01*
X120824908Y-101136002D01*
X120824910Y-101136006D01*
X120824913Y-101136010D01*
X120824915Y-101136014D01*
X120896401Y-101242997D01*
X120907045Y-101258926D01*
X121011581Y-101363462D01*
X121134503Y-101445594D01*
X121134509Y-101445596D01*
X121134510Y-101445597D01*
X121240034Y-101489306D01*
X121271086Y-101502168D01*
X121271090Y-101502168D01*
X121271091Y-101502169D01*
X121416079Y-101531010D01*
X121416082Y-101531010D01*
X121489901Y-101531010D01*
X124127467Y-101531010D01*
X124194506Y-101550695D01*
X124240261Y-101603499D01*
X124250205Y-101672657D01*
X124239433Y-101705021D01*
X124240541Y-101705496D01*
X124157552Y-101899294D01*
X124157547Y-101899310D01*
X124152055Y-101924557D01*
X124118570Y-101985880D01*
X124057247Y-102019365D01*
X123987555Y-102014381D01*
X123980453Y-102011478D01*
X123839807Y-101948857D01*
X123839802Y-101948855D01*
X123694001Y-101917865D01*
X123654646Y-101909500D01*
X123465354Y-101909500D01*
X123432897Y-101916398D01*
X123280197Y-101948855D01*
X123280192Y-101948857D01*
X123107270Y-102025848D01*
X123107269Y-102025849D01*
X123099056Y-102031817D01*
X123033250Y-102055298D01*
X123026169Y-102055500D01*
X121753999Y-102055500D01*
X121736030Y-102054191D01*
X121712090Y-102050684D01*
X121662452Y-102055028D01*
X121651644Y-102055500D01*
X121646050Y-102055500D01*
X121615111Y-102059116D01*
X121611527Y-102059482D01*
X121536387Y-102066056D01*
X121529321Y-102067516D01*
X121529310Y-102067464D01*
X121521832Y-102069122D01*
X121521845Y-102069174D01*
X121514812Y-102070840D01*
X121443925Y-102096639D01*
X121440525Y-102097821D01*
X121368962Y-102121536D01*
X121362420Y-102124587D01*
X121362397Y-102124539D01*
X121355507Y-102127875D01*
X121355531Y-102127922D01*
X121349076Y-102131163D01*
X121286067Y-102172604D01*
X121283030Y-102174539D01*
X121218846Y-102214130D01*
X121213179Y-102218611D01*
X121213146Y-102218569D01*
X121207214Y-102223401D01*
X121207248Y-102223442D01*
X121201712Y-102228087D01*
X121149944Y-102282956D01*
X121147433Y-102285541D01*
X119791742Y-103641232D01*
X119778113Y-103653011D01*
X119758707Y-103667459D01*
X119726674Y-103705633D01*
X119719387Y-103713586D01*
X119715420Y-103717554D01*
X119715418Y-103717556D01*
X119696089Y-103742001D01*
X119693815Y-103744793D01*
X119645334Y-103802571D01*
X119641366Y-103808605D01*
X119641322Y-103808576D01*
X119637209Y-103815031D01*
X119637254Y-103815059D01*
X119633462Y-103821206D01*
X119601581Y-103889572D01*
X119600012Y-103892812D01*
X119566175Y-103960191D01*
X119563704Y-103966979D01*
X119563655Y-103966961D01*
X119561141Y-103974193D01*
X119561191Y-103974210D01*
X119558920Y-103981062D01*
X119543671Y-104054911D01*
X119542891Y-104058430D01*
X119525499Y-104131816D01*
X119524661Y-104138987D01*
X119524607Y-104138980D01*
X119523830Y-104146596D01*
X119523883Y-104146601D01*
X119523253Y-104153790D01*
X119525448Y-104229193D01*
X119525500Y-104232800D01*
X119525500Y-107826113D01*
X119505815Y-107893152D01*
X119489181Y-107913794D01*
X118642183Y-108760791D01*
X118580860Y-108794276D01*
X118511168Y-108789292D01*
X118455235Y-108747420D01*
X118431182Y-108686074D01*
X118424540Y-108622871D01*
X118366045Y-108442843D01*
X118273035Y-108281744D01*
X118271401Y-108278914D01*
X118271397Y-108278909D01*
X118266348Y-108273301D01*
X118236120Y-108210309D01*
X118234500Y-108190331D01*
X118234500Y-101713992D01*
X118235809Y-101696022D01*
X118239231Y-101672657D01*
X118239314Y-101672093D01*
X118237709Y-101653750D01*
X118234972Y-101622460D01*
X118234500Y-101611652D01*
X118234500Y-101606064D01*
X118234499Y-101606052D01*
X118230882Y-101575109D01*
X118230515Y-101571517D01*
X118223943Y-101496389D01*
X118222483Y-101489318D01*
X118222537Y-101489306D01*
X118220881Y-101481837D01*
X118220827Y-101481850D01*
X118219160Y-101474822D01*
X118219160Y-101474816D01*
X118193369Y-101403957D01*
X118192186Y-101400552D01*
X118186949Y-101384748D01*
X118168464Y-101328964D01*
X118168461Y-101328960D01*
X118165412Y-101322419D01*
X118165461Y-101322395D01*
X118162128Y-101315509D01*
X118162079Y-101315534D01*
X118158835Y-101309075D01*
X118117376Y-101246038D01*
X118115469Y-101243046D01*
X118075870Y-101178846D01*
X118075867Y-101178843D01*
X118071392Y-101173183D01*
X118071434Y-101173149D01*
X118066597Y-101167211D01*
X118066556Y-101167246D01*
X118061912Y-101161712D01*
X118007061Y-101109963D01*
X118004473Y-101107449D01*
X116310048Y-99413024D01*
X116279798Y-99363661D01*
X116275340Y-99349942D01*
X116227179Y-99201716D01*
X116132533Y-99037784D01*
X116005871Y-98897112D01*
X115988435Y-98884444D01*
X115852734Y-98785851D01*
X115852729Y-98785848D01*
X115679807Y-98708857D01*
X115679802Y-98708855D01*
X115534001Y-98677865D01*
X115494646Y-98669500D01*
X115305354Y-98669500D01*
X115272897Y-98676398D01*
X115120197Y-98708855D01*
X115120192Y-98708857D01*
X114947270Y-98785848D01*
X114947265Y-98785851D01*
X114794129Y-98897111D01*
X114667466Y-99037785D01*
X114572821Y-99201715D01*
X114572818Y-99201722D01*
X114516998Y-99373519D01*
X114514326Y-99381744D01*
X114494540Y-99570000D01*
X114514326Y-99758256D01*
X114514327Y-99758259D01*
X114572818Y-99938277D01*
X114572821Y-99938284D01*
X114667467Y-100102216D01*
X114737249Y-100179716D01*
X114794129Y-100242888D01*
X114947265Y-100354148D01*
X114947270Y-100354151D01*
X115120191Y-100431142D01*
X115120193Y-100431142D01*
X115120197Y-100431144D01*
X115178148Y-100443461D01*
X115239627Y-100476653D01*
X115240046Y-100477070D01*
X116689181Y-101926205D01*
X116722666Y-101987528D01*
X116725500Y-102013886D01*
X116725500Y-103410664D01*
X116705815Y-103477703D01*
X116653011Y-103523458D01*
X116583853Y-103533402D01*
X116528615Y-103510982D01*
X116452734Y-103455851D01*
X116452729Y-103455848D01*
X116279807Y-103378857D01*
X116279802Y-103378855D01*
X116134001Y-103347865D01*
X116094646Y-103339500D01*
X115905354Y-103339500D01*
X115872897Y-103346398D01*
X115720197Y-103378855D01*
X115720192Y-103378857D01*
X115547270Y-103455848D01*
X115547265Y-103455851D01*
X115394129Y-103567111D01*
X115267466Y-103707785D01*
X115172821Y-103871715D01*
X115172818Y-103871722D01*
X115126292Y-104014916D01*
X115114326Y-104051744D01*
X115094540Y-104240000D01*
X115114326Y-104428256D01*
X115114327Y-104428259D01*
X115172818Y-104608277D01*
X115172821Y-104608284D01*
X115267467Y-104772216D01*
X115367279Y-104883068D01*
X115394129Y-104912888D01*
X115547265Y-105024148D01*
X115547270Y-105024151D01*
X115720191Y-105101142D01*
X115720193Y-105101142D01*
X115720197Y-105101144D01*
X115778148Y-105113461D01*
X115839627Y-105146653D01*
X115840046Y-105147070D01*
X115894047Y-105201071D01*
X115927532Y-105262394D01*
X115930366Y-105288752D01*
X115930366Y-109160866D01*
X115929057Y-109178835D01*
X115925550Y-109202774D01*
X115929894Y-109252411D01*
X115930366Y-109263220D01*
X115930366Y-109268812D01*
X115933982Y-109299751D01*
X115934348Y-109303336D01*
X115940922Y-109378476D01*
X115942382Y-109385543D01*
X115942330Y-109385553D01*
X115943989Y-109393033D01*
X115944040Y-109393021D01*
X115945706Y-109400051D01*
X115971487Y-109470886D01*
X115972670Y-109474289D01*
X115996399Y-109545895D01*
X115999452Y-109552441D01*
X115999402Y-109552464D01*
X116002742Y-109559363D01*
X116002791Y-109559339D01*
X116006033Y-109565796D01*
X116047479Y-109628812D01*
X116049416Y-109631852D01*
X116088997Y-109696022D01*
X116093477Y-109701688D01*
X116093435Y-109701721D01*
X116098267Y-109707652D01*
X116098309Y-109707618D01*
X116102954Y-109713154D01*
X116157804Y-109764902D01*
X116160391Y-109767415D01*
X116419951Y-110026975D01*
X116450201Y-110076338D01*
X116502818Y-110238277D01*
X116502821Y-110238284D01*
X116597466Y-110402215D01*
X116613811Y-110420368D01*
X116644041Y-110483360D01*
X116635415Y-110552695D01*
X116613811Y-110586312D01*
X116567470Y-110637778D01*
X116567465Y-110637785D01*
X116472821Y-110801715D01*
X116472818Y-110801722D01*
X116419780Y-110964958D01*
X116414326Y-110981744D01*
X116394540Y-111170000D01*
X116414326Y-111358256D01*
X116414327Y-111358259D01*
X116472818Y-111538277D01*
X116472821Y-111538284D01*
X116567467Y-111702216D01*
X116670609Y-111816766D01*
X116694129Y-111842888D01*
X116847265Y-111954148D01*
X116847270Y-111954151D01*
X117020192Y-112031142D01*
X117020197Y-112031144D01*
X117205354Y-112070500D01*
X117205355Y-112070500D01*
X117394644Y-112070500D01*
X117394646Y-112070500D01*
X117579803Y-112031144D01*
X117752730Y-111954151D01*
X117905871Y-111842888D01*
X118032533Y-111702216D01*
X118127179Y-111538284D01*
X118179799Y-111376335D01*
X118210046Y-111326976D01*
X120768264Y-108768758D01*
X120781883Y-108756988D01*
X120801294Y-108742539D01*
X120833334Y-108704354D01*
X120840623Y-108696399D01*
X120844583Y-108692441D01*
X120863934Y-108667966D01*
X120866175Y-108665215D01*
X120914667Y-108607427D01*
X120914668Y-108607424D01*
X120918637Y-108601390D01*
X120918684Y-108601421D01*
X120922790Y-108594976D01*
X120922743Y-108594947D01*
X120926534Y-108588799D01*
X120926534Y-108588797D01*
X120926539Y-108588792D01*
X120958436Y-108520386D01*
X120959976Y-108517206D01*
X120993824Y-108449811D01*
X120993826Y-108449798D01*
X120996293Y-108443024D01*
X120996346Y-108443043D01*
X120998858Y-108435815D01*
X120998807Y-108435798D01*
X121001080Y-108428938D01*
X121016333Y-108355065D01*
X121017114Y-108351541D01*
X121034500Y-108278188D01*
X121034500Y-108278185D01*
X121035339Y-108271015D01*
X121035391Y-108271021D01*
X121036169Y-108263406D01*
X121036116Y-108263402D01*
X121036745Y-108256211D01*
X121034552Y-108180838D01*
X121034500Y-108177232D01*
X121034500Y-106669750D01*
X121054185Y-106602711D01*
X121106989Y-106556956D01*
X121176147Y-106547012D01*
X121205950Y-106555188D01*
X121271086Y-106582168D01*
X121271090Y-106582168D01*
X121271091Y-106582169D01*
X121416079Y-106611010D01*
X121416082Y-106611010D01*
X121489901Y-106611010D01*
X124130472Y-106611010D01*
X124197511Y-106630695D01*
X124243266Y-106683499D01*
X124253210Y-106752657D01*
X124233163Y-106804512D01*
X124228661Y-106811163D01*
X124228655Y-106811173D01*
X124148030Y-106999449D01*
X124148028Y-106999456D01*
X124104491Y-107199589D01*
X124101750Y-107245621D01*
X124101750Y-108554378D01*
X124104491Y-108600410D01*
X124148028Y-108800543D01*
X124148031Y-108800551D01*
X124223675Y-108977197D01*
X124231970Y-109046573D01*
X124201441Y-109109420D01*
X124141780Y-109145785D01*
X124109687Y-109150010D01*
X121541372Y-109150010D01*
X121541338Y-109150000D01*
X121490000Y-109150000D01*
X121416082Y-109150000D01*
X121416080Y-109150000D01*
X121271091Y-109178840D01*
X121271085Y-109178842D01*
X121134506Y-109235414D01*
X121011582Y-109317551D01*
X120907040Y-109422094D01*
X120824918Y-109545002D01*
X120824911Y-109545014D01*
X120768341Y-109681588D01*
X120768340Y-109681592D01*
X120768339Y-109681595D01*
X120747885Y-109784431D01*
X120739499Y-109826593D01*
X120739500Y-109900510D01*
X120739500Y-115969137D01*
X120739489Y-115969174D01*
X120739490Y-116094429D01*
X120768332Y-116239419D01*
X120768335Y-116239429D01*
X120824906Y-116375998D01*
X120824908Y-116376002D01*
X120824910Y-116376006D01*
X120824913Y-116376010D01*
X120824915Y-116376014D01*
X120888251Y-116470800D01*
X120907045Y-116498926D01*
X121011581Y-116603462D01*
X121134503Y-116685594D01*
X121134509Y-116685596D01*
X121134510Y-116685597D01*
X121262762Y-116738720D01*
X121271086Y-116742168D01*
X121271090Y-116742168D01*
X121271091Y-116742169D01*
X121416079Y-116771010D01*
X121416082Y-116771010D01*
X121489901Y-116771010D01*
X124136635Y-116771010D01*
X124203674Y-116790695D01*
X124249429Y-116843499D01*
X124259373Y-116912657D01*
X124239326Y-116964512D01*
X124228214Y-116980929D01*
X124147550Y-117169296D01*
X124147549Y-117169301D01*
X124136986Y-117217859D01*
X124103501Y-117279182D01*
X124042178Y-117312666D01*
X124015820Y-117315500D01*
X122284000Y-117315500D01*
X122266031Y-117314191D01*
X122242089Y-117310684D01*
X122216721Y-117312904D01*
X122180137Y-117310667D01*
X122174646Y-117309500D01*
X121985354Y-117309500D01*
X121957126Y-117315500D01*
X121800197Y-117348855D01*
X121800192Y-117348857D01*
X121627270Y-117425848D01*
X121627265Y-117425851D01*
X121474129Y-117537111D01*
X121347469Y-117677781D01*
X121347465Y-117677786D01*
X121320994Y-117723635D01*
X121301289Y-117749314D01*
X118471742Y-120578861D01*
X118458113Y-120590640D01*
X118438707Y-120605088D01*
X118406674Y-120643262D01*
X118399387Y-120651215D01*
X118395420Y-120655183D01*
X118395418Y-120655185D01*
X118376089Y-120679630D01*
X118373815Y-120682422D01*
X118325334Y-120740200D01*
X118321366Y-120746234D01*
X118321322Y-120746205D01*
X118317209Y-120752660D01*
X118317254Y-120752688D01*
X118313462Y-120758835D01*
X118281581Y-120827201D01*
X118280012Y-120830441D01*
X118246175Y-120897820D01*
X118243704Y-120904608D01*
X118243655Y-120904590D01*
X118241141Y-120911822D01*
X118241191Y-120911839D01*
X118238920Y-120918691D01*
X118223671Y-120992540D01*
X118222891Y-120996059D01*
X118205499Y-121069445D01*
X118204661Y-121076616D01*
X118204607Y-121076609D01*
X118203830Y-121084225D01*
X118203883Y-121084230D01*
X118203253Y-121091419D01*
X118205448Y-121166822D01*
X118205500Y-121170429D01*
X118205500Y-125867924D01*
X118185815Y-125934963D01*
X118169181Y-125955605D01*
X117575198Y-126549587D01*
X117513875Y-126583072D01*
X117513300Y-126583196D01*
X117455347Y-126595515D01*
X117455344Y-126595516D01*
X117282423Y-126672507D01*
X117167877Y-126755729D01*
X117102070Y-126779208D01*
X117034016Y-126763382D01*
X116985322Y-126713276D01*
X116971447Y-126644798D01*
X116977059Y-126617098D01*
X117015674Y-126498256D01*
X117035460Y-126310000D01*
X117015674Y-126121744D01*
X116957179Y-125941716D01*
X116862533Y-125777784D01*
X116735871Y-125637112D01*
X116693784Y-125606534D01*
X116582734Y-125525851D01*
X116582729Y-125525848D01*
X116409807Y-125448857D01*
X116409805Y-125448856D01*
X116351850Y-125436537D01*
X116290369Y-125403343D01*
X116289952Y-125402928D01*
X116230819Y-125343795D01*
X116197334Y-125282472D01*
X116194500Y-125256114D01*
X116194500Y-114107392D01*
X116211113Y-114045392D01*
X116267179Y-113948284D01*
X116325674Y-113768256D01*
X116345460Y-113580000D01*
X116325674Y-113391744D01*
X116267179Y-113211716D01*
X116172533Y-113047784D01*
X116045871Y-112907112D01*
X116045870Y-112907111D01*
X115892734Y-112795851D01*
X115892729Y-112795848D01*
X115719807Y-112718857D01*
X115719802Y-112718855D01*
X115574001Y-112687865D01*
X115534646Y-112679500D01*
X115345354Y-112679500D01*
X115312897Y-112686398D01*
X115160197Y-112718855D01*
X115160192Y-112718857D01*
X114987270Y-112795848D01*
X114987265Y-112795851D01*
X114834129Y-112907111D01*
X114707466Y-113047785D01*
X114612821Y-113211715D01*
X114612818Y-113211722D01*
X114554327Y-113391740D01*
X114554326Y-113391744D01*
X114534540Y-113580000D01*
X114554326Y-113768256D01*
X114554327Y-113768259D01*
X114612818Y-113948277D01*
X114612821Y-113948284D01*
X114668783Y-114045213D01*
X114668887Y-114045392D01*
X114685500Y-114107392D01*
X114685500Y-125556000D01*
X114684191Y-125573969D01*
X114680684Y-125597908D01*
X114685028Y-125647545D01*
X114685500Y-125658354D01*
X114685500Y-125663946D01*
X114689116Y-125694885D01*
X114689482Y-125698470D01*
X114696056Y-125773610D01*
X114697516Y-125780677D01*
X114697464Y-125780687D01*
X114699123Y-125788167D01*
X114699174Y-125788155D01*
X114700840Y-125795185D01*
X114726621Y-125866020D01*
X114727804Y-125869423D01*
X114751533Y-125941029D01*
X114754586Y-125947575D01*
X114754536Y-125947598D01*
X114757876Y-125954497D01*
X114757925Y-125954473D01*
X114761167Y-125960930D01*
X114802613Y-126023946D01*
X114804550Y-126026986D01*
X114844131Y-126091156D01*
X114848611Y-126096822D01*
X114848569Y-126096855D01*
X114853401Y-126102786D01*
X114853443Y-126102752D01*
X114858088Y-126108288D01*
X114912938Y-126160036D01*
X114915525Y-126162549D01*
X115219951Y-126466975D01*
X115250201Y-126516338D01*
X115302818Y-126678277D01*
X115302821Y-126678284D01*
X115397467Y-126842216D01*
X115477462Y-126931059D01*
X115524129Y-126982888D01*
X115677265Y-127094148D01*
X115677270Y-127094151D01*
X115850192Y-127171142D01*
X115850197Y-127171144D01*
X116035354Y-127210500D01*
X116035355Y-127210500D01*
X116224644Y-127210500D01*
X116224646Y-127210500D01*
X116409803Y-127171144D01*
X116582730Y-127094151D01*
X116697275Y-127010929D01*
X116763080Y-126987450D01*
X116831134Y-127003275D01*
X116879829Y-127053381D01*
X116893704Y-127121859D01*
X116888090Y-127149566D01*
X116863719Y-127224574D01*
X116849478Y-127268403D01*
X116829692Y-127456659D01*
X116849478Y-127644915D01*
X116849479Y-127644918D01*
X116907970Y-127824936D01*
X116907973Y-127824943D01*
X117002619Y-127988875D01*
X117129281Y-128129547D01*
X117282417Y-128240807D01*
X117282422Y-128240810D01*
X117455344Y-128317801D01*
X117455349Y-128317803D01*
X117640506Y-128357159D01*
X117640507Y-128357159D01*
X117829796Y-128357159D01*
X117829798Y-128357159D01*
X118014955Y-128317803D01*
X118187882Y-128240810D01*
X118341023Y-128129547D01*
X118467685Y-127988875D01*
X118562331Y-127824943D01*
X118565982Y-127813708D01*
X118578686Y-127774607D01*
X118614951Y-127662994D01*
X118645198Y-127613635D01*
X119448264Y-126810569D01*
X119461883Y-126798799D01*
X119481294Y-126784350D01*
X119513334Y-126746165D01*
X119520623Y-126738210D01*
X119524583Y-126734252D01*
X119543927Y-126709785D01*
X119546161Y-126707043D01*
X119594667Y-126649238D01*
X119594671Y-126649229D01*
X119598637Y-126643201D01*
X119598683Y-126643231D01*
X119602795Y-126636776D01*
X119602748Y-126636747D01*
X119606532Y-126630610D01*
X119606539Y-126630602D01*
X119638417Y-126562239D01*
X119639972Y-126559025D01*
X119673824Y-126491622D01*
X119673826Y-126491609D01*
X119676293Y-126484835D01*
X119676346Y-126484854D01*
X119678858Y-126477626D01*
X119678807Y-126477609D01*
X119681077Y-126470756D01*
X119681077Y-126470754D01*
X119681079Y-126470751D01*
X119696345Y-126396812D01*
X119697097Y-126393421D01*
X119714500Y-126319999D01*
X119714500Y-126319992D01*
X119715338Y-126312826D01*
X119715392Y-126312832D01*
X119716170Y-126305216D01*
X119716117Y-126305212D01*
X119716746Y-126298021D01*
X119714552Y-126222615D01*
X119714500Y-126219009D01*
X119714500Y-121521515D01*
X119734185Y-121454476D01*
X119750819Y-121433834D01*
X120527819Y-120656834D01*
X120589142Y-120623349D01*
X120658834Y-120628333D01*
X120714767Y-120670205D01*
X120739184Y-120735669D01*
X120739500Y-120744515D01*
X120739500Y-121049137D01*
X120739489Y-121049174D01*
X120739490Y-121174429D01*
X120768332Y-121319419D01*
X120768335Y-121319429D01*
X120824906Y-121455998D01*
X120824908Y-121456002D01*
X120824910Y-121456006D01*
X120824913Y-121456010D01*
X120824915Y-121456014D01*
X120868683Y-121521515D01*
X120907045Y-121578926D01*
X121011581Y-121683462D01*
X121134503Y-121765594D01*
X121134509Y-121765596D01*
X121134510Y-121765597D01*
X121200566Y-121792958D01*
X121271086Y-121822168D01*
X121271090Y-121822168D01*
X121271091Y-121822169D01*
X121416079Y-121851010D01*
X121416082Y-121851010D01*
X121489901Y-121851010D01*
X124123704Y-121851010D01*
X124190743Y-121870695D01*
X124236498Y-121923499D01*
X124246442Y-121992657D01*
X124230005Y-122035174D01*
X124231489Y-122035985D01*
X124228655Y-122041173D01*
X124148030Y-122229449D01*
X124148028Y-122229456D01*
X124104491Y-122429589D01*
X124101750Y-122475621D01*
X124101750Y-123784378D01*
X124104491Y-123830410D01*
X124148028Y-124030543D01*
X124148030Y-124030550D01*
X124227958Y-124217197D01*
X124236253Y-124286573D01*
X124205724Y-124349420D01*
X124146064Y-124385785D01*
X124113970Y-124390010D01*
X121541372Y-124390010D01*
X121541338Y-124390000D01*
X121490000Y-124390000D01*
X121416082Y-124390000D01*
X121416080Y-124390000D01*
X121271091Y-124418840D01*
X121271085Y-124418842D01*
X121134506Y-124475414D01*
X121011582Y-124557551D01*
X120907040Y-124662094D01*
X120824918Y-124785002D01*
X120824911Y-124785014D01*
X120768341Y-124921588D01*
X120768340Y-124921592D01*
X120768339Y-124921595D01*
X120739499Y-125066592D01*
X120739499Y-125066593D01*
X120739500Y-125140510D01*
X120739500Y-133634413D01*
X120738903Y-133646571D01*
X120736095Y-133675073D01*
X120735913Y-133676793D01*
X120723876Y-133783665D01*
X120719315Y-133805784D01*
X120704090Y-133855972D01*
X120702471Y-133860930D01*
X120676325Y-133935650D01*
X120668641Y-133953151D01*
X120641544Y-134003843D01*
X120637181Y-134011359D01*
X120597643Y-134074284D01*
X120588501Y-134086978D01*
X120551060Y-134132599D01*
X120542888Y-134141615D01*
X120491105Y-134193397D01*
X120482089Y-134201569D01*
X120436470Y-134239007D01*
X120423779Y-134248146D01*
X120360853Y-134287686D01*
X120353331Y-134292052D01*
X120302641Y-134319145D01*
X120285144Y-134326828D01*
X120210411Y-134352978D01*
X120205453Y-134354596D01*
X120155267Y-134369820D01*
X120133154Y-134374380D01*
X120026862Y-134386356D01*
X120025136Y-134386539D01*
X120006960Y-134388329D01*
X119995957Y-134389413D01*
X119983806Y-134390010D01*
X102996093Y-134390010D01*
X102983939Y-134389413D01*
X102978122Y-134388840D01*
X102955737Y-134386635D01*
X102954001Y-134386451D01*
X102846736Y-134374358D01*
X102824633Y-134369800D01*
X102774997Y-134354743D01*
X102770040Y-134353124D01*
X102694734Y-134326775D01*
X102677235Y-134319092D01*
X102626917Y-134292196D01*
X102619400Y-134287833D01*
X102556093Y-134248055D01*
X102543399Y-134238914D01*
X102498051Y-134201698D01*
X102489035Y-134193526D01*
X102436977Y-134141468D01*
X102428807Y-134132454D01*
X102416429Y-134117372D01*
X102391583Y-134087097D01*
X102382457Y-134074427D01*
X102342666Y-134011101D01*
X102338321Y-134003616D01*
X102311405Y-133953261D01*
X102303727Y-133935774D01*
X102277365Y-133860438D01*
X102275773Y-133855560D01*
X102260701Y-133805878D01*
X102256144Y-133783780D01*
X102243984Y-133675867D01*
X102243810Y-133674218D01*
X102241097Y-133646669D01*
X102240500Y-133634516D01*
X102240500Y-129114795D01*
X102240500Y-129114793D01*
X102206429Y-128932530D01*
X102139448Y-128759631D01*
X102059024Y-128629743D01*
X102040469Y-128562383D01*
X102061278Y-128495684D01*
X102114843Y-128450822D01*
X102146803Y-128441728D01*
X102192457Y-128435165D01*
X102323373Y-128375377D01*
X102323375Y-128375374D01*
X102323377Y-128375374D01*
X102351954Y-128350611D01*
X102387310Y-128319975D01*
X102450864Y-128290950D01*
X102520023Y-128300893D01*
X102553603Y-128323491D01*
X102602974Y-128370070D01*
X102605525Y-128372549D01*
X104061234Y-129828258D01*
X104073016Y-129841891D01*
X104087461Y-129861294D01*
X104125634Y-129893325D01*
X104133609Y-129900633D01*
X104137557Y-129904581D01*
X104137565Y-129904588D01*
X104162008Y-129923917D01*
X104164800Y-129926191D01*
X104222569Y-129974664D01*
X104222573Y-129974667D01*
X104222575Y-129974668D01*
X104228607Y-129978635D01*
X104228576Y-129978680D01*
X104235038Y-129982797D01*
X104235067Y-129982751D01*
X104241203Y-129986536D01*
X104241205Y-129986537D01*
X104241208Y-129986539D01*
X104309597Y-130018429D01*
X104312779Y-130019969D01*
X104380189Y-130053824D01*
X104380194Y-130053825D01*
X104386979Y-130056295D01*
X104386960Y-130056347D01*
X104394188Y-130058859D01*
X104394206Y-130058808D01*
X104401056Y-130061078D01*
X104401059Y-130061078D01*
X104401060Y-130061079D01*
X104474993Y-130076344D01*
X104478354Y-130077089D01*
X104551812Y-130094500D01*
X104551818Y-130094500D01*
X104558985Y-130095338D01*
X104558978Y-130095391D01*
X104566595Y-130096169D01*
X104566600Y-130096116D01*
X104573789Y-130096745D01*
X104573792Y-130096744D01*
X104573793Y-130096745D01*
X104633067Y-130095020D01*
X104649161Y-130094552D01*
X104652767Y-130094500D01*
X107856685Y-130094500D01*
X107923724Y-130114185D01*
X107969479Y-130166989D01*
X107979423Y-130236147D01*
X107969067Y-130270905D01*
X107941087Y-130330908D01*
X107941083Y-130330917D01*
X107884487Y-130542140D01*
X107884485Y-130542150D01*
X107865426Y-130759999D01*
X107865426Y-130760000D01*
X107884485Y-130977849D01*
X107884487Y-130977859D01*
X107941083Y-131189082D01*
X107941085Y-131189086D01*
X107941086Y-131189090D01*
X107948998Y-131206057D01*
X108033506Y-131387286D01*
X108033507Y-131387287D01*
X108158941Y-131566425D01*
X108313575Y-131721059D01*
X108492713Y-131846493D01*
X108690910Y-131938914D01*
X108902146Y-131995514D01*
X109076429Y-132010762D01*
X109119999Y-132014574D01*
X109120000Y-132014574D01*
X109120001Y-132014574D01*
X109156309Y-132011397D01*
X109337854Y-131995514D01*
X109549090Y-131938914D01*
X109747287Y-131846493D01*
X109926425Y-131721059D01*
X110081059Y-131566425D01*
X110206493Y-131387287D01*
X110257618Y-131277648D01*
X110303790Y-131225209D01*
X110370984Y-131206057D01*
X110437865Y-131226273D01*
X110482381Y-131277648D01*
X110533507Y-131387287D01*
X110658941Y-131566425D01*
X110813575Y-131721059D01*
X110992713Y-131846493D01*
X111190910Y-131938914D01*
X111402146Y-131995514D01*
X111576429Y-132010762D01*
X111619999Y-132014574D01*
X111620000Y-132014574D01*
X111620001Y-132014574D01*
X111656309Y-132011397D01*
X111837854Y-131995514D01*
X112049090Y-131938914D01*
X112247287Y-131846493D01*
X112426425Y-131721059D01*
X112581059Y-131566425D01*
X112706493Y-131387287D01*
X112757618Y-131277648D01*
X112803790Y-131225209D01*
X112870984Y-131206057D01*
X112937865Y-131226273D01*
X112982381Y-131277648D01*
X113033507Y-131387287D01*
X113158941Y-131566425D01*
X113313575Y-131721059D01*
X113492713Y-131846493D01*
X113690910Y-131938914D01*
X113902146Y-131995514D01*
X114076429Y-132010762D01*
X114119999Y-132014574D01*
X114120000Y-132014574D01*
X114120001Y-132014574D01*
X114156309Y-132011397D01*
X114337854Y-131995514D01*
X114549090Y-131938914D01*
X114747287Y-131846493D01*
X114926425Y-131721059D01*
X115081059Y-131566425D01*
X115206493Y-131387287D01*
X115257618Y-131277648D01*
X115303790Y-131225209D01*
X115370984Y-131206057D01*
X115437865Y-131226273D01*
X115482381Y-131277648D01*
X115533507Y-131387287D01*
X115658941Y-131566425D01*
X115813575Y-131721059D01*
X115992713Y-131846493D01*
X116190910Y-131938914D01*
X116402146Y-131995514D01*
X116576429Y-132010762D01*
X116619999Y-132014574D01*
X116620000Y-132014574D01*
X116620001Y-132014574D01*
X116656309Y-132011397D01*
X116837854Y-131995514D01*
X117049090Y-131938914D01*
X117247287Y-131846493D01*
X117426425Y-131721059D01*
X117581059Y-131566425D01*
X117706493Y-131387287D01*
X117798914Y-131189090D01*
X117855514Y-130977854D01*
X117874574Y-130760000D01*
X117855514Y-130542146D01*
X117798914Y-130330910D01*
X117706493Y-130132713D01*
X117581059Y-129953575D01*
X117426425Y-129798941D01*
X117265013Y-129685919D01*
X117247286Y-129673506D01*
X117074607Y-129592985D01*
X117049090Y-129581086D01*
X117049086Y-129581085D01*
X117049082Y-129581083D01*
X116837859Y-129524487D01*
X116837849Y-129524485D01*
X116620001Y-129505426D01*
X116619999Y-129505426D01*
X116402150Y-129524485D01*
X116402140Y-129524487D01*
X116190909Y-129581085D01*
X116165391Y-129592985D01*
X116096314Y-129603476D01*
X116032530Y-129574955D01*
X116025307Y-129568283D01*
X114498766Y-128041742D01*
X114486984Y-128028109D01*
X114482406Y-128021960D01*
X114472539Y-128008706D01*
X114472537Y-128008704D01*
X114472538Y-128008704D01*
X114434367Y-127976676D01*
X114426384Y-127969360D01*
X114422444Y-127965419D01*
X114397987Y-127946081D01*
X114395191Y-127943803D01*
X114337427Y-127895333D01*
X114331394Y-127891365D01*
X114331422Y-127891321D01*
X114324961Y-127887204D01*
X114324934Y-127887250D01*
X114318790Y-127883460D01*
X114250442Y-127851589D01*
X114247196Y-127850017D01*
X114179815Y-127816177D01*
X114173031Y-127813708D01*
X114173049Y-127813658D01*
X114165807Y-127811141D01*
X114165791Y-127811191D01*
X114158938Y-127808920D01*
X114085088Y-127793671D01*
X114081567Y-127792891D01*
X114008181Y-127775498D01*
X114001014Y-127774661D01*
X114001020Y-127774607D01*
X113993405Y-127773829D01*
X113993401Y-127773883D01*
X113986210Y-127773253D01*
X113910804Y-127775448D01*
X113907198Y-127775500D01*
X112403886Y-127775500D01*
X112336847Y-127755815D01*
X112316205Y-127739181D01*
X111728766Y-127151742D01*
X111716984Y-127138109D01*
X111704886Y-127121859D01*
X111702539Y-127118706D01*
X111702537Y-127118704D01*
X111702538Y-127118704D01*
X111664367Y-127086676D01*
X111656384Y-127079360D01*
X111652444Y-127075419D01*
X111627987Y-127056081D01*
X111625191Y-127053803D01*
X111567427Y-127005333D01*
X111561394Y-127001365D01*
X111561422Y-127001321D01*
X111554961Y-126997204D01*
X111554934Y-126997250D01*
X111548790Y-126993460D01*
X111480442Y-126961589D01*
X111477196Y-126960017D01*
X111409815Y-126926177D01*
X111403031Y-126923708D01*
X111403049Y-126923658D01*
X111395807Y-126921141D01*
X111395791Y-126921191D01*
X111388938Y-126918920D01*
X111315088Y-126903671D01*
X111311567Y-126902891D01*
X111238181Y-126885498D01*
X111231014Y-126884661D01*
X111231020Y-126884607D01*
X111223405Y-126883829D01*
X111223401Y-126883883D01*
X111216210Y-126883253D01*
X111140804Y-126885448D01*
X111137198Y-126885500D01*
X106183886Y-126885500D01*
X106116847Y-126865815D01*
X106096205Y-126849181D01*
X105538819Y-126291795D01*
X105505334Y-126230472D01*
X105502500Y-126204114D01*
X105502500Y-124480005D01*
X106019945Y-124480005D01*
X106040130Y-124723605D01*
X106100138Y-124960573D01*
X106198330Y-125184429D01*
X106294626Y-125331819D01*
X106897452Y-124728993D01*
X106907188Y-124758956D01*
X106995186Y-124897619D01*
X107114903Y-125010040D01*
X107249510Y-125084041D01*
X106647758Y-125685794D01*
X106647758Y-125685796D01*
X106690478Y-125719046D01*
X106690484Y-125719050D01*
X106905468Y-125835394D01*
X106905476Y-125835397D01*
X107136664Y-125914765D01*
X107377779Y-125955000D01*
X107622221Y-125955000D01*
X107863335Y-125914765D01*
X108094523Y-125835397D01*
X108094531Y-125835394D01*
X108309514Y-125719051D01*
X108309514Y-125719050D01*
X108352240Y-125685795D01*
X108352240Y-125685794D01*
X107747534Y-125081086D01*
X107815629Y-125054126D01*
X107948492Y-124957595D01*
X108053175Y-124831055D01*
X108101631Y-124728078D01*
X108705372Y-125331819D01*
X108801667Y-125184431D01*
X108801672Y-125184423D01*
X108899861Y-124960573D01*
X108959869Y-124723605D01*
X108980055Y-124480005D01*
X108980055Y-124479994D01*
X108959869Y-124236394D01*
X108899861Y-123999426D01*
X108801669Y-123775570D01*
X108705372Y-123628179D01*
X108102546Y-124231004D01*
X108092812Y-124201044D01*
X108004814Y-124062381D01*
X107885097Y-123949960D01*
X107750488Y-123875957D01*
X108352240Y-123274204D01*
X108352240Y-123274203D01*
X108309514Y-123240949D01*
X108094531Y-123124605D01*
X108094523Y-123124602D01*
X107863335Y-123045234D01*
X107622221Y-123005000D01*
X107377779Y-123005000D01*
X107136664Y-123045234D01*
X106905476Y-123124602D01*
X106905468Y-123124605D01*
X106690481Y-123240951D01*
X106647758Y-123274202D01*
X106647757Y-123274204D01*
X107252466Y-123878912D01*
X107184371Y-123905874D01*
X107051508Y-124002405D01*
X106946825Y-124128945D01*
X106898368Y-124231921D01*
X106294626Y-123628179D01*
X106198328Y-123775575D01*
X106100138Y-123999426D01*
X106040130Y-124236394D01*
X106019945Y-124479994D01*
X106019945Y-124480005D01*
X105502500Y-124480005D01*
X105502500Y-113767622D01*
X105522185Y-113700583D01*
X105574989Y-113654828D01*
X105644147Y-113644884D01*
X105707703Y-113673909D01*
X105714181Y-113679941D01*
X109233426Y-117199186D01*
X109254918Y-117228069D01*
X109319971Y-117348857D01*
X109535645Y-117749314D01*
X109536008Y-117749987D01*
X109550466Y-117818345D01*
X109525672Y-117883667D01*
X109499722Y-117909102D01*
X109435998Y-117955401D01*
X109435992Y-117955405D01*
X109278949Y-118119660D01*
X109168216Y-118287413D01*
X109114856Y-118332518D01*
X109045581Y-118341615D01*
X108982385Y-118311814D01*
X108948547Y-118262435D01*
X108918797Y-118182671D01*
X108918793Y-118182664D01*
X108832547Y-118067455D01*
X108832544Y-118067452D01*
X108717335Y-117981206D01*
X108717328Y-117981202D01*
X108582482Y-117930908D01*
X108582483Y-117930908D01*
X108522883Y-117924501D01*
X108522881Y-117924500D01*
X108522873Y-117924500D01*
X108522864Y-117924500D01*
X106477129Y-117924500D01*
X106477123Y-117924501D01*
X106417516Y-117930908D01*
X106282671Y-117981202D01*
X106282664Y-117981206D01*
X106167455Y-118067452D01*
X106167452Y-118067455D01*
X106081206Y-118182664D01*
X106081202Y-118182671D01*
X106030908Y-118317517D01*
X106024501Y-118377116D01*
X106024500Y-118377135D01*
X106024500Y-120422870D01*
X106024501Y-120422876D01*
X106030908Y-120482483D01*
X106081202Y-120617328D01*
X106081206Y-120617335D01*
X106167452Y-120732544D01*
X106167455Y-120732547D01*
X106282664Y-120818793D01*
X106282671Y-120818797D01*
X106417517Y-120869091D01*
X106417516Y-120869091D01*
X106424444Y-120869835D01*
X106477127Y-120875500D01*
X107857113Y-120875499D01*
X107924152Y-120895184D01*
X107944794Y-120911818D01*
X109406715Y-122373739D01*
X109440200Y-122435062D01*
X109436965Y-122499738D01*
X109404263Y-122600386D01*
X109384326Y-122661744D01*
X109364540Y-122850000D01*
X109384326Y-123038256D01*
X109384327Y-123038259D01*
X109442818Y-123218277D01*
X109442821Y-123218284D01*
X109537467Y-123382216D01*
X109664129Y-123522888D01*
X109817265Y-123634148D01*
X109817270Y-123634151D01*
X109990192Y-123711142D01*
X109990197Y-123711144D01*
X110175354Y-123750500D01*
X110175355Y-123750500D01*
X110364644Y-123750500D01*
X110364646Y-123750500D01*
X110549803Y-123711144D01*
X110722730Y-123634151D01*
X110875871Y-123522888D01*
X111002533Y-123382216D01*
X111097179Y-123218284D01*
X111155674Y-123038256D01*
X111175460Y-122850000D01*
X111155674Y-122661744D01*
X111101112Y-122493823D01*
X111097181Y-122481722D01*
X111097180Y-122481721D01*
X111097179Y-122481716D01*
X111041111Y-122384604D01*
X111024500Y-122322606D01*
X111024500Y-122233999D01*
X111025809Y-122216029D01*
X111026030Y-122214516D01*
X111029315Y-122192094D01*
X111029269Y-122191570D01*
X111024972Y-122142452D01*
X111024500Y-122131644D01*
X111024500Y-122126066D01*
X111024500Y-122126059D01*
X111020879Y-122095082D01*
X111020515Y-122091510D01*
X111015834Y-122038004D01*
X111013943Y-122016388D01*
X111013941Y-122016383D01*
X111012483Y-122009319D01*
X111012536Y-122009307D01*
X111010878Y-122001827D01*
X111010824Y-122001840D01*
X111009160Y-121994822D01*
X111009160Y-121994816D01*
X110983360Y-121923932D01*
X110982175Y-121920523D01*
X110978046Y-121908062D01*
X110958464Y-121848965D01*
X110958462Y-121848961D01*
X110955409Y-121842412D01*
X110955458Y-121842389D01*
X110952125Y-121835504D01*
X110952076Y-121835529D01*
X110948838Y-121829083D01*
X110948836Y-121829076D01*
X110907372Y-121766034D01*
X110905480Y-121763065D01*
X110865871Y-121698847D01*
X110865868Y-121698844D01*
X110865867Y-121698842D01*
X110861390Y-121693180D01*
X110861432Y-121693146D01*
X110856597Y-121687211D01*
X110856556Y-121687246D01*
X110851912Y-121681712D01*
X110797061Y-121629963D01*
X110794473Y-121627449D01*
X109011818Y-119844794D01*
X108978333Y-119783471D01*
X108975499Y-119757113D01*
X108975499Y-119660761D01*
X108995184Y-119593722D01*
X109047988Y-119547967D01*
X109117146Y-119538023D01*
X109180702Y-119567048D01*
X109208691Y-119602000D01*
X109212092Y-119608319D01*
X109212093Y-119608320D01*
X109353782Y-119785993D01*
X109524915Y-119935506D01*
X109524922Y-119935512D01*
X109720008Y-120052071D01*
X109900331Y-120119747D01*
X109932771Y-120131922D01*
X110156369Y-120172500D01*
X110156373Y-120172500D01*
X110301647Y-120172500D01*
X110306714Y-120172603D01*
X110328877Y-120173510D01*
X110391917Y-120176090D01*
X110391917Y-120176089D01*
X110391920Y-120176090D01*
X110470889Y-120165071D01*
X110476902Y-120164381D01*
X110556339Y-120157232D01*
X110578446Y-120151130D01*
X110594287Y-120147854D01*
X110616994Y-120144686D01*
X110692768Y-120119730D01*
X110698486Y-120118001D01*
X110775404Y-120096774D01*
X110796066Y-120086823D01*
X110811073Y-120080769D01*
X110832844Y-120073600D01*
X110902952Y-120035511D01*
X110908277Y-120032785D01*
X110980153Y-119998172D01*
X110998696Y-119984698D01*
X111012397Y-119976052D01*
X111032525Y-119965118D01*
X111032525Y-119965117D01*
X111032532Y-119965114D01*
X111094719Y-119915112D01*
X111099452Y-119911494D01*
X111164005Y-119864596D01*
X111179852Y-119848020D01*
X111191775Y-119837078D01*
X111209640Y-119822716D01*
X111261876Y-119762442D01*
X111265935Y-119757984D01*
X111321052Y-119700338D01*
X111333691Y-119681189D01*
X111343456Y-119668311D01*
X112042006Y-118862292D01*
X112046047Y-118857852D01*
X112073729Y-118828879D01*
X112101327Y-118799994D01*
X112148189Y-118728945D01*
X112151038Y-118724813D01*
X112200756Y-118655808D01*
X112208333Y-118639911D01*
X112216753Y-118624998D01*
X112226455Y-118610290D01*
X112259856Y-118532065D01*
X112261941Y-118527447D01*
X112298541Y-118450668D01*
X112303158Y-118433669D01*
X112308776Y-118417499D01*
X112315698Y-118401293D01*
X112334594Y-118318365D01*
X112335818Y-118313461D01*
X112358125Y-118231364D01*
X112359633Y-118213821D01*
X112362278Y-118196884D01*
X112365517Y-118182671D01*
X112366190Y-118179719D01*
X112369975Y-118094758D01*
X112370308Y-118089664D01*
X112372218Y-118067452D01*
X112377593Y-118004946D01*
X112375943Y-117987408D01*
X112375522Y-117970290D01*
X112376307Y-117952690D01*
X112364862Y-117868424D01*
X112364281Y-117863356D01*
X112356320Y-117778688D01*
X112356319Y-117778687D01*
X112351568Y-117761736D01*
X112348094Y-117744957D01*
X112345724Y-117727503D01*
X112319401Y-117646589D01*
X112317958Y-117641823D01*
X112294989Y-117559867D01*
X112287280Y-117544023D01*
X112280869Y-117528139D01*
X112275423Y-117511396D01*
X112235099Y-117436524D01*
X112232778Y-117431993D01*
X112229789Y-117425849D01*
X112195571Y-117355513D01*
X112185158Y-117341301D01*
X112176013Y-117326815D01*
X111586481Y-116232191D01*
X111403793Y-115892981D01*
X111400069Y-115885468D01*
X111372487Y-115824745D01*
X111372486Y-115824743D01*
X111316521Y-115743962D01*
X111314986Y-115741694D01*
X111284083Y-115694915D01*
X111260778Y-115659635D01*
X111257822Y-115656545D01*
X111245501Y-115641450D01*
X111243069Y-115637940D01*
X111173564Y-115568435D01*
X111171649Y-115566477D01*
X111103676Y-115495433D01*
X111103668Y-115495426D01*
X111100219Y-115492922D01*
X111085390Y-115480261D01*
X106608819Y-111003690D01*
X106575334Y-110942367D01*
X106572500Y-110916009D01*
X106572500Y-110463299D01*
X106592185Y-110396260D01*
X106644989Y-110350505D01*
X106714147Y-110340561D01*
X106755518Y-110354245D01*
X106905458Y-110435390D01*
X106905476Y-110435397D01*
X107136664Y-110514765D01*
X107377779Y-110555000D01*
X107622221Y-110555000D01*
X107863335Y-110514765D01*
X108094523Y-110435397D01*
X108094531Y-110435394D01*
X108309514Y-110319051D01*
X108309514Y-110319050D01*
X108352240Y-110285795D01*
X108352240Y-110285794D01*
X107747533Y-109681087D01*
X107815629Y-109654126D01*
X107948492Y-109557595D01*
X108053175Y-109431055D01*
X108101631Y-109328078D01*
X108705372Y-109931819D01*
X108801667Y-109784431D01*
X108801672Y-109784423D01*
X108899861Y-109560573D01*
X108959869Y-109323605D01*
X108980055Y-109080005D01*
X108980055Y-109079994D01*
X108959869Y-108836394D01*
X108899861Y-108599426D01*
X108857813Y-108503565D01*
X108848910Y-108434265D01*
X108878887Y-108371153D01*
X108938226Y-108334266D01*
X109008088Y-108335316D01*
X109059050Y-108366074D01*
X109319951Y-108626975D01*
X109350201Y-108676338D01*
X109402818Y-108838277D01*
X109402821Y-108838284D01*
X109497467Y-109002216D01*
X109617566Y-109135599D01*
X109624129Y-109142888D01*
X109777265Y-109254148D01*
X109777270Y-109254151D01*
X109950192Y-109331142D01*
X109950197Y-109331144D01*
X110135354Y-109370500D01*
X110135355Y-109370500D01*
X110324644Y-109370500D01*
X110324646Y-109370500D01*
X110509803Y-109331144D01*
X110682730Y-109254151D01*
X110835871Y-109142888D01*
X110962533Y-109002216D01*
X111057179Y-108838284D01*
X111115674Y-108658256D01*
X111135460Y-108470000D01*
X111115674Y-108281744D01*
X111057179Y-108101716D01*
X110962533Y-107937784D01*
X110835871Y-107797112D01*
X110833910Y-107795687D01*
X110682734Y-107685851D01*
X110682729Y-107685848D01*
X110509807Y-107608857D01*
X110509805Y-107608856D01*
X110451850Y-107596537D01*
X110390369Y-107563343D01*
X110389952Y-107562928D01*
X108507180Y-105680156D01*
X108473695Y-105618833D01*
X108478679Y-105549141D01*
X108520551Y-105493208D01*
X108575134Y-105471732D01*
X108574932Y-105470876D01*
X108580891Y-105469467D01*
X108581610Y-105469185D01*
X108582483Y-105469091D01*
X108717328Y-105418797D01*
X108717327Y-105418797D01*
X108717331Y-105418796D01*
X108832546Y-105332546D01*
X108918796Y-105217331D01*
X108969091Y-105082483D01*
X108975500Y-105022873D01*
X108975499Y-104479627D01*
X108995183Y-104412591D01*
X109047987Y-104366836D01*
X109117146Y-104356892D01*
X109180702Y-104385917D01*
X109211219Y-104425828D01*
X109251826Y-104510150D01*
X109251828Y-104510154D01*
X109354668Y-104651701D01*
X109359343Y-104658613D01*
X109371457Y-104677893D01*
X109371462Y-104677898D01*
X109371464Y-104677902D01*
X109377690Y-104684714D01*
X109383390Y-104691701D01*
X109385405Y-104694007D01*
X109388572Y-104697035D01*
X109394398Y-104702994D01*
X109493403Y-104811309D01*
X109524785Y-104845642D01*
X109705594Y-104983310D01*
X109705597Y-104983312D01*
X109900231Y-105082482D01*
X109908080Y-105086481D01*
X110125732Y-105151840D01*
X110351557Y-105177284D01*
X110351559Y-105177283D01*
X110351561Y-105177284D01*
X110395098Y-105174348D01*
X110578297Y-105161996D01*
X110798663Y-105106469D01*
X111005572Y-105012486D01*
X111192376Y-104883069D01*
X112082814Y-103992630D01*
X112147987Y-103914566D01*
X112191972Y-103861882D01*
X112191974Y-103861878D01*
X112218540Y-103815059D01*
X112304124Y-103664228D01*
X112379181Y-103449727D01*
X112414732Y-103225271D01*
X112409633Y-102998074D01*
X112364048Y-102775438D01*
X112279442Y-102564521D01*
X112158535Y-102372099D01*
X112005214Y-102204358D01*
X112005212Y-102204357D01*
X112005210Y-102204354D01*
X111824406Y-102066689D01*
X111824400Y-102066686D01*
X111621923Y-101963520D01*
X111618606Y-101962524D01*
X111492173Y-101924557D01*
X111404266Y-101898159D01*
X111178447Y-101872716D01*
X111178436Y-101872715D01*
X111097594Y-101878166D01*
X111029382Y-101863035D01*
X111001572Y-101842128D01*
X110382395Y-101222951D01*
X109749185Y-100589740D01*
X109725147Y-100555862D01*
X109698172Y-100499847D01*
X109686326Y-100483542D01*
X109677461Y-100469434D01*
X109667908Y-100451681D01*
X109661352Y-100443460D01*
X109616456Y-100387161D01*
X109613085Y-100382735D01*
X109603749Y-100369885D01*
X109564596Y-100315995D01*
X109550032Y-100302070D01*
X109538778Y-100289758D01*
X109526219Y-100274009D01*
X109526213Y-100274003D01*
X109464100Y-100219737D01*
X109459993Y-100215983D01*
X109400339Y-100158949D01*
X109400332Y-100158944D01*
X109383514Y-100147842D01*
X109370244Y-100137738D01*
X109355081Y-100124491D01*
X109355078Y-100124488D01*
X109284246Y-100082168D01*
X109279571Y-100079230D01*
X109210677Y-100033754D01*
X109192144Y-100025832D01*
X109177285Y-100018261D01*
X109159991Y-100007928D01*
X109115494Y-99991228D01*
X109082726Y-99978930D01*
X109077578Y-99976865D01*
X109001718Y-99944441D01*
X109001711Y-99944438D01*
X108986666Y-99941004D01*
X108973306Y-99937154D01*
X108905631Y-99913473D01*
X108903016Y-99912525D01*
X108811234Y-99878079D01*
X108811232Y-99878078D01*
X108806778Y-99877270D01*
X108787986Y-99872309D01*
X108783733Y-99870821D01*
X108783723Y-99870818D01*
X108686856Y-99855475D01*
X108684115Y-99855009D01*
X108587631Y-99837500D01*
X108587627Y-99837500D01*
X108583120Y-99837500D01*
X108563733Y-99835974D01*
X108559271Y-99835268D01*
X108559265Y-99835268D01*
X108461200Y-99837469D01*
X108458418Y-99837500D01*
X106696500Y-99837500D01*
X106629461Y-99817815D01*
X106583706Y-99765011D01*
X106572500Y-99713500D01*
X106572500Y-99558179D01*
X106573280Y-99544294D01*
X106575332Y-99526079D01*
X106577284Y-99508759D01*
X106576677Y-99499763D01*
X106572781Y-99441973D01*
X106572500Y-99433631D01*
X106572500Y-99423622D01*
X106572500Y-99423617D01*
X106568806Y-99382584D01*
X106568591Y-99379838D01*
X106568165Y-99373519D01*
X106561996Y-99282019D01*
X106560895Y-99277650D01*
X106557636Y-99258463D01*
X106557232Y-99253978D01*
X106554619Y-99244511D01*
X106531136Y-99159419D01*
X106530439Y-99156782D01*
X106506469Y-99061653D01*
X106504608Y-99057556D01*
X106497973Y-99039256D01*
X106496774Y-99034913D01*
X106485541Y-99011588D01*
X106454206Y-98946521D01*
X106453037Y-98944021D01*
X106412486Y-98854744D01*
X106409920Y-98851040D01*
X106400133Y-98834235D01*
X106398172Y-98830163D01*
X106340479Y-98750756D01*
X106338938Y-98748583D01*
X106283069Y-98667940D01*
X106279883Y-98664754D01*
X106267243Y-98649954D01*
X106264599Y-98646314D01*
X106237129Y-98620050D01*
X106193663Y-98578492D01*
X106191719Y-98576590D01*
X105784819Y-98169690D01*
X105751334Y-98108367D01*
X105748500Y-98082009D01*
X105748500Y-94080005D01*
X106019945Y-94080005D01*
X106040130Y-94323605D01*
X106100138Y-94560573D01*
X106198330Y-94784429D01*
X106294626Y-94931819D01*
X106897452Y-94328993D01*
X106907188Y-94358956D01*
X106995186Y-94497619D01*
X107114903Y-94610040D01*
X107249510Y-94684041D01*
X106647758Y-95285794D01*
X106647758Y-95285796D01*
X106690478Y-95319046D01*
X106690484Y-95319050D01*
X106905468Y-95435394D01*
X106905476Y-95435397D01*
X107136664Y-95514765D01*
X107377779Y-95555000D01*
X107622221Y-95555000D01*
X107863335Y-95514765D01*
X108094523Y-95435397D01*
X108094531Y-95435394D01*
X108309514Y-95319051D01*
X108309514Y-95319050D01*
X108352240Y-95285795D01*
X108352240Y-95285794D01*
X107747534Y-94681086D01*
X107815629Y-94654126D01*
X107948492Y-94557595D01*
X108053175Y-94431055D01*
X108101631Y-94328078D01*
X108705372Y-94931819D01*
X108801667Y-94784431D01*
X108801672Y-94784423D01*
X108899861Y-94560573D01*
X108959869Y-94323605D01*
X108980055Y-94080005D01*
X108980055Y-94079994D01*
X108959869Y-93836394D01*
X108899861Y-93599426D01*
X108801669Y-93375570D01*
X108705372Y-93228179D01*
X108102546Y-93831004D01*
X108092812Y-93801044D01*
X108004814Y-93662381D01*
X107885097Y-93549960D01*
X107750488Y-93475957D01*
X108352240Y-92874204D01*
X108352240Y-92874203D01*
X108309514Y-92840949D01*
X108094531Y-92724605D01*
X108094523Y-92724602D01*
X107863335Y-92645234D01*
X107622221Y-92605000D01*
X107377779Y-92605000D01*
X107136664Y-92645234D01*
X106905476Y-92724602D01*
X106905468Y-92724605D01*
X106690481Y-92840951D01*
X106647758Y-92874202D01*
X106647757Y-92874204D01*
X107252466Y-93478912D01*
X107184371Y-93505874D01*
X107051508Y-93602405D01*
X106946825Y-93728945D01*
X106898368Y-93831921D01*
X106294626Y-93228179D01*
X106198328Y-93375575D01*
X106100138Y-93599426D01*
X106040130Y-93836394D01*
X106019945Y-94079994D01*
X106019945Y-94080005D01*
X105748500Y-94080005D01*
X105748500Y-87983899D01*
X105768185Y-87916860D01*
X105820989Y-87871105D01*
X105890147Y-87861161D01*
X105953703Y-87890186D01*
X105960181Y-87896218D01*
X105988181Y-87924218D01*
X106021666Y-87985541D01*
X106024500Y-88011899D01*
X106024500Y-90022870D01*
X106024501Y-90022876D01*
X106030908Y-90082483D01*
X106081202Y-90217328D01*
X106081206Y-90217335D01*
X106167452Y-90332544D01*
X106167455Y-90332547D01*
X106282664Y-90418793D01*
X106282671Y-90418797D01*
X106417517Y-90469091D01*
X106417516Y-90469091D01*
X106424444Y-90469835D01*
X106477127Y-90475500D01*
X107857113Y-90475499D01*
X107924152Y-90495184D01*
X107944794Y-90511818D01*
X108149181Y-90716205D01*
X108182666Y-90777528D01*
X108185500Y-90803886D01*
X108185500Y-91696000D01*
X108184191Y-91713969D01*
X108180684Y-91737908D01*
X108185028Y-91787545D01*
X108185500Y-91798354D01*
X108185500Y-91803946D01*
X108189116Y-91834885D01*
X108189482Y-91838470D01*
X108196056Y-91913610D01*
X108197516Y-91920677D01*
X108197464Y-91920687D01*
X108199123Y-91928167D01*
X108199174Y-91928155D01*
X108200840Y-91935185D01*
X108226621Y-92006020D01*
X108227804Y-92009423D01*
X108251533Y-92081029D01*
X108254586Y-92087575D01*
X108254536Y-92087598D01*
X108257876Y-92094497D01*
X108257925Y-92094473D01*
X108261167Y-92100930D01*
X108302613Y-92163946D01*
X108304550Y-92166986D01*
X108344131Y-92231156D01*
X108348611Y-92236822D01*
X108348569Y-92236855D01*
X108353401Y-92242786D01*
X108353443Y-92242752D01*
X108358088Y-92248288D01*
X108412938Y-92300036D01*
X108415525Y-92302549D01*
X108769951Y-92656975D01*
X108800201Y-92706338D01*
X108852818Y-92868277D01*
X108852821Y-92868284D01*
X108947467Y-93032216D01*
X109045179Y-93140736D01*
X109074129Y-93172888D01*
X109227265Y-93284148D01*
X109227270Y-93284151D01*
X109400192Y-93361142D01*
X109400197Y-93361144D01*
X109585354Y-93400500D01*
X109585355Y-93400500D01*
X109774644Y-93400500D01*
X109774646Y-93400500D01*
X109959803Y-93361144D01*
X110132730Y-93284151D01*
X110285871Y-93172888D01*
X110412533Y-93032216D01*
X110507179Y-92868284D01*
X110565674Y-92688256D01*
X110585460Y-92500000D01*
X110565674Y-92311744D01*
X110507179Y-92131716D01*
X110412533Y-91967784D01*
X110285871Y-91827112D01*
X110253979Y-91803941D01*
X110132734Y-91715851D01*
X110132729Y-91715848D01*
X109959807Y-91638857D01*
X109959805Y-91638856D01*
X109901850Y-91626537D01*
X109840369Y-91593343D01*
X109839952Y-91592928D01*
X109730819Y-91483795D01*
X109697334Y-91422472D01*
X109694500Y-91396114D01*
X109694500Y-90503999D01*
X109695809Y-90486029D01*
X109697351Y-90475499D01*
X109699315Y-90462094D01*
X109698786Y-90456050D01*
X109694972Y-90412452D01*
X109694500Y-90401644D01*
X109694500Y-90396066D01*
X109694500Y-90396059D01*
X109690879Y-90365082D01*
X109690515Y-90361510D01*
X109685446Y-90303569D01*
X109683943Y-90286388D01*
X109683941Y-90286383D01*
X109682483Y-90279319D01*
X109682536Y-90279307D01*
X109680878Y-90271827D01*
X109680824Y-90271840D01*
X109679160Y-90264822D01*
X109679160Y-90264816D01*
X109661878Y-90217335D01*
X109653360Y-90193932D01*
X109652175Y-90190523D01*
X109628464Y-90118965D01*
X109628462Y-90118961D01*
X109625409Y-90112412D01*
X109625458Y-90112389D01*
X109622125Y-90105504D01*
X109622076Y-90105529D01*
X109618838Y-90099083D01*
X109618836Y-90099076D01*
X109577372Y-90036034D01*
X109575480Y-90033065D01*
X109535871Y-89968847D01*
X109535868Y-89968844D01*
X109535867Y-89968842D01*
X109531390Y-89963180D01*
X109531432Y-89963146D01*
X109526597Y-89957211D01*
X109526556Y-89957246D01*
X109521912Y-89951712D01*
X109467061Y-89899963D01*
X109464473Y-89897449D01*
X109011818Y-89444794D01*
X108978333Y-89383471D01*
X108975499Y-89357113D01*
X108975499Y-88980898D01*
X108995184Y-88913859D01*
X109047988Y-88868104D01*
X109117146Y-88858160D01*
X109180702Y-88887185D01*
X109187180Y-88893217D01*
X109831681Y-89537718D01*
X109865166Y-89599041D01*
X109868000Y-89625399D01*
X109868000Y-89658756D01*
X109867123Y-89673476D01*
X109863429Y-89704368D01*
X109863429Y-89704374D01*
X109867684Y-89763861D01*
X109868000Y-89772707D01*
X109868000Y-89781060D01*
X109871504Y-89817765D01*
X109871749Y-89820702D01*
X109878034Y-89908576D01*
X109878034Y-89908578D01*
X109878684Y-89911002D01*
X109882345Y-89931291D01*
X109882584Y-89933800D01*
X109907416Y-90018370D01*
X109908214Y-90021210D01*
X109930800Y-90105504D01*
X109931022Y-90106330D01*
X109932120Y-90108590D01*
X109939555Y-90127824D01*
X109940261Y-90130229D01*
X109940265Y-90130240D01*
X109980646Y-90208569D01*
X109981966Y-90211206D01*
X110020475Y-90290480D01*
X110020477Y-90290482D01*
X110021976Y-90292485D01*
X110032923Y-90309972D01*
X110034071Y-90312199D01*
X110034073Y-90312202D01*
X110034074Y-90312203D01*
X110088571Y-90381501D01*
X110090340Y-90383809D01*
X110143163Y-90454372D01*
X110145010Y-90456050D01*
X110159085Y-90471168D01*
X110160628Y-90473130D01*
X110224774Y-90528712D01*
X110227242Y-90530850D01*
X110229448Y-90532808D01*
X110294652Y-90592083D01*
X110296211Y-90593033D01*
X110296791Y-90593387D01*
X110313450Y-90605550D01*
X110315349Y-90607196D01*
X110315351Y-90607197D01*
X110391702Y-90651278D01*
X110394156Y-90652734D01*
X110469465Y-90698638D01*
X110471809Y-90699512D01*
X110490486Y-90708312D01*
X110492647Y-90709560D01*
X110492650Y-90709561D01*
X110575955Y-90738393D01*
X110578651Y-90739361D01*
X110661284Y-90770182D01*
X110663731Y-90770593D01*
X110683753Y-90775702D01*
X110686117Y-90776521D01*
X110773362Y-90789063D01*
X110776209Y-90789507D01*
X110863176Y-90804133D01*
X110865681Y-90804073D01*
X110886290Y-90805300D01*
X110888760Y-90805656D01*
X110976814Y-90801461D01*
X110979670Y-90801359D01*
X111067846Y-90799261D01*
X111070289Y-90798729D01*
X111090765Y-90796033D01*
X111093255Y-90795915D01*
X111093259Y-90795914D01*
X111093261Y-90795914D01*
X111178912Y-90775135D01*
X111181698Y-90774493D01*
X111267895Y-90755743D01*
X111270190Y-90754759D01*
X111289785Y-90748237D01*
X111292212Y-90747649D01*
X111372463Y-90710998D01*
X111374945Y-90709900D01*
X111456092Y-90675151D01*
X111458154Y-90673755D01*
X111476165Y-90663639D01*
X111478438Y-90662602D01*
X111550266Y-90611452D01*
X111552658Y-90609792D01*
X111556493Y-90607197D01*
X111586093Y-90587163D01*
X111625632Y-90560404D01*
X111625632Y-90560403D01*
X111625636Y-90560401D01*
X111627396Y-90558640D01*
X111643173Y-90545295D01*
X111645204Y-90543849D01*
X111706042Y-90480042D01*
X111708062Y-90477973D01*
X112445386Y-89740649D01*
X112461144Y-89727322D01*
X112463181Y-89725872D01*
X112523998Y-89662087D01*
X112526020Y-89660015D01*
X112552102Y-89633935D01*
X112557417Y-89627496D01*
X112563282Y-89620887D01*
X112604459Y-89577704D01*
X112621285Y-89551519D01*
X112629979Y-89539613D01*
X112649791Y-89515620D01*
X112678396Y-89463230D01*
X112682867Y-89455696D01*
X112715143Y-89405476D01*
X112726707Y-89376588D01*
X112732994Y-89363244D01*
X112736342Y-89357113D01*
X112747906Y-89335936D01*
X112766069Y-89279111D01*
X112769062Y-89270788D01*
X112791232Y-89215414D01*
X112797123Y-89184844D01*
X112800765Y-89170576D01*
X112810243Y-89140930D01*
X112817322Y-89081709D01*
X112818683Y-89072975D01*
X112829977Y-89014387D01*
X112829977Y-88983265D01*
X112830854Y-88968544D01*
X112832873Y-88951655D01*
X112834548Y-88937650D01*
X112830293Y-88878160D01*
X112829977Y-88869314D01*
X112829977Y-88736909D01*
X112815393Y-88584187D01*
X112815392Y-88584186D01*
X112815392Y-88584177D01*
X112757714Y-88387743D01*
X112663903Y-88205774D01*
X112537349Y-88044847D01*
X112382626Y-87910780D01*
X112373638Y-87905591D01*
X112205332Y-87808419D01*
X112205327Y-87808416D01*
X112205321Y-87808413D01*
X112205319Y-87808413D01*
X112011861Y-87741456D01*
X111809219Y-87712321D01*
X111809217Y-87712320D01*
X111604724Y-87722061D01*
X111405763Y-87770328D01*
X111271678Y-87831563D01*
X111202519Y-87841506D01*
X111138964Y-87812481D01*
X111132486Y-87806449D01*
X110237427Y-86911391D01*
X110237425Y-86911388D01*
X110120718Y-86794681D01*
X110087233Y-86733358D01*
X110092217Y-86663666D01*
X110134089Y-86607733D01*
X110199553Y-86583316D01*
X110208399Y-86583000D01*
X110267144Y-86583000D01*
X110267146Y-86583000D01*
X110452303Y-86543644D01*
X110625230Y-86466651D01*
X110778371Y-86355388D01*
X110905033Y-86214716D01*
X110999679Y-86050784D01*
X111058174Y-85870756D01*
X111077960Y-85682500D01*
X111058174Y-85494244D01*
X110999679Y-85314216D01*
X110905033Y-85150284D01*
X110778371Y-85009612D01*
X110768204Y-85002225D01*
X110625234Y-84898351D01*
X110625229Y-84898348D01*
X110452307Y-84821357D01*
X110452302Y-84821355D01*
X110394353Y-84809038D01*
X110332871Y-84775845D01*
X110332453Y-84775429D01*
X110030750Y-84473725D01*
X109997265Y-84412402D01*
X109994431Y-84386044D01*
X109994431Y-82294169D01*
X110731649Y-82294169D01*
X110749545Y-82395670D01*
X110750749Y-82404236D01*
X110754325Y-82438255D01*
X110754326Y-82438257D01*
X110757615Y-82448380D01*
X110761799Y-82465160D01*
X110762274Y-82467858D01*
X110762277Y-82467866D01*
X110766755Y-82478248D01*
X110770825Y-82489038D01*
X110812819Y-82618280D01*
X110812821Y-82618284D01*
X110907467Y-82782216D01*
X111034129Y-82922888D01*
X111187265Y-83034148D01*
X111187270Y-83034151D01*
X111360191Y-83111142D01*
X111360193Y-83111142D01*
X111360197Y-83111144D01*
X111418148Y-83123461D01*
X111479627Y-83156653D01*
X111480046Y-83157070D01*
X114779181Y-86456205D01*
X114812666Y-86517528D01*
X114815500Y-86543886D01*
X114815500Y-89679874D01*
X114795815Y-89746913D01*
X114779181Y-89767555D01*
X113861742Y-90684993D01*
X113848113Y-90696772D01*
X113828707Y-90711220D01*
X113796674Y-90749394D01*
X113789387Y-90757347D01*
X113785420Y-90761315D01*
X113785418Y-90761317D01*
X113766089Y-90785762D01*
X113763815Y-90788554D01*
X113715334Y-90846332D01*
X113711366Y-90852366D01*
X113711322Y-90852337D01*
X113707209Y-90858792D01*
X113707254Y-90858820D01*
X113703462Y-90864967D01*
X113671581Y-90933333D01*
X113670012Y-90936573D01*
X113636175Y-91003952D01*
X113633704Y-91010740D01*
X113633655Y-91010722D01*
X113631141Y-91017954D01*
X113631191Y-91017971D01*
X113628920Y-91024823D01*
X113613671Y-91098672D01*
X113612891Y-91102191D01*
X113595499Y-91175577D01*
X113594661Y-91182748D01*
X113594607Y-91182741D01*
X113593830Y-91190357D01*
X113593883Y-91190362D01*
X113593253Y-91197551D01*
X113595448Y-91272954D01*
X113595500Y-91276561D01*
X113595500Y-93906000D01*
X113594191Y-93923969D01*
X113590684Y-93947908D01*
X113594370Y-93990023D01*
X113594841Y-93995414D01*
X113595028Y-93997545D01*
X113595500Y-94008354D01*
X113595500Y-94013946D01*
X113599116Y-94044885D01*
X113599482Y-94048470D01*
X113606056Y-94123610D01*
X113607516Y-94130677D01*
X113607464Y-94130687D01*
X113609123Y-94138167D01*
X113609174Y-94138155D01*
X113610840Y-94145185D01*
X113636621Y-94216020D01*
X113637804Y-94219423D01*
X113661533Y-94291029D01*
X113664586Y-94297575D01*
X113664536Y-94297598D01*
X113667876Y-94304497D01*
X113667925Y-94304473D01*
X113671167Y-94310930D01*
X113712613Y-94373946D01*
X113714550Y-94376986D01*
X113754131Y-94441156D01*
X113758611Y-94446822D01*
X113758569Y-94446855D01*
X113763401Y-94452786D01*
X113763443Y-94452752D01*
X113768088Y-94458288D01*
X113822938Y-94510036D01*
X113825525Y-94512549D01*
X114629951Y-95316975D01*
X114660201Y-95366338D01*
X114712818Y-95528277D01*
X114712821Y-95528284D01*
X114807467Y-95692216D01*
X114885524Y-95778907D01*
X114934129Y-95832888D01*
X115087265Y-95944148D01*
X115087270Y-95944151D01*
X115260192Y-96021142D01*
X115260197Y-96021144D01*
X115445354Y-96060500D01*
X115445355Y-96060500D01*
X115634644Y-96060500D01*
X115634646Y-96060500D01*
X115819803Y-96021144D01*
X115992730Y-95944151D01*
X116128616Y-95845424D01*
X116194421Y-95821945D01*
X116262475Y-95837770D01*
X116311170Y-95887876D01*
X116325500Y-95945743D01*
X116325500Y-96082606D01*
X116308888Y-96144604D01*
X116262424Y-96225084D01*
X116252820Y-96241718D01*
X116252818Y-96241722D01*
X116195410Y-96418408D01*
X116194326Y-96421744D01*
X116174540Y-96610000D01*
X116194326Y-96798256D01*
X116194327Y-96798259D01*
X116252818Y-96978277D01*
X116252821Y-96978284D01*
X116347467Y-97142216D01*
X116446954Y-97252707D01*
X116474129Y-97282888D01*
X116627265Y-97394148D01*
X116627270Y-97394151D01*
X116800192Y-97471142D01*
X116800197Y-97471144D01*
X116985354Y-97510500D01*
X116985355Y-97510500D01*
X117174644Y-97510500D01*
X117174646Y-97510500D01*
X117359803Y-97471144D01*
X117532730Y-97394151D01*
X117685871Y-97282888D01*
X117812533Y-97142216D01*
X117907179Y-96978284D01*
X117965674Y-96798256D01*
X117985460Y-96610000D01*
X117965674Y-96421744D01*
X117907179Y-96241716D01*
X117851111Y-96144604D01*
X117834500Y-96082606D01*
X117834500Y-93557499D01*
X117835809Y-93539529D01*
X117839255Y-93516001D01*
X117839315Y-93515594D01*
X117834972Y-93465952D01*
X117834500Y-93455144D01*
X117834500Y-93449566D01*
X117834500Y-93449559D01*
X117830879Y-93418582D01*
X117830515Y-93415010D01*
X117829020Y-93397924D01*
X117823943Y-93339888D01*
X117823941Y-93339883D01*
X117822483Y-93332819D01*
X117822536Y-93332807D01*
X117820878Y-93325327D01*
X117820824Y-93325340D01*
X117819160Y-93318322D01*
X117819160Y-93318316D01*
X117793360Y-93247432D01*
X117792175Y-93244023D01*
X117768464Y-93172465D01*
X117768462Y-93172461D01*
X117765409Y-93165912D01*
X117765458Y-93165889D01*
X117762125Y-93159004D01*
X117762076Y-93159029D01*
X117758838Y-93152583D01*
X117758836Y-93152576D01*
X117717372Y-93089534D01*
X117715480Y-93086565D01*
X117675871Y-93022347D01*
X117675868Y-93022344D01*
X117675867Y-93022342D01*
X117671390Y-93016680D01*
X117671432Y-93016646D01*
X117666597Y-93010711D01*
X117666556Y-93010746D01*
X117661912Y-93005212D01*
X117607061Y-92953463D01*
X117604473Y-92950949D01*
X116114048Y-91460524D01*
X116083798Y-91411161D01*
X116083116Y-91409063D01*
X116031179Y-91249216D01*
X115936533Y-91085284D01*
X115875909Y-91017954D01*
X115853690Y-90993277D01*
X115823460Y-90930285D01*
X115832086Y-90860950D01*
X115858156Y-90822627D01*
X116058264Y-90622519D01*
X116071883Y-90610749D01*
X116091294Y-90596300D01*
X116123334Y-90558115D01*
X116130623Y-90550160D01*
X116134583Y-90546202D01*
X116153927Y-90521735D01*
X116156161Y-90518993D01*
X116204667Y-90461188D01*
X116204671Y-90461179D01*
X116208637Y-90455151D01*
X116208683Y-90455181D01*
X116212795Y-90448726D01*
X116212748Y-90448697D01*
X116216532Y-90442560D01*
X116216539Y-90442552D01*
X116235614Y-90401644D01*
X116248423Y-90374177D01*
X116249995Y-90370929D01*
X116283824Y-90303572D01*
X116283825Y-90303569D01*
X116286297Y-90296778D01*
X116286349Y-90296796D01*
X116288860Y-90289571D01*
X116288809Y-90289555D01*
X116291078Y-90282706D01*
X116291078Y-90282704D01*
X116291080Y-90282701D01*
X116306343Y-90208773D01*
X116307108Y-90205324D01*
X116324500Y-90131949D01*
X116324500Y-90131947D01*
X116324501Y-90131943D01*
X116325339Y-90124776D01*
X116325392Y-90124782D01*
X116326170Y-90117166D01*
X116326117Y-90117162D01*
X116326746Y-90109971D01*
X116324552Y-90034565D01*
X116324500Y-90030959D01*
X116324500Y-86243992D01*
X116325809Y-86226022D01*
X116327545Y-86214167D01*
X116329314Y-86202093D01*
X116328573Y-86193627D01*
X116324972Y-86152460D01*
X116324500Y-86141652D01*
X116324500Y-86136064D01*
X116324499Y-86136052D01*
X116322816Y-86121658D01*
X116320881Y-86105104D01*
X116320515Y-86101517D01*
X116317328Y-86065084D01*
X116313943Y-86026388D01*
X116313942Y-86026386D01*
X116312483Y-86019318D01*
X116312537Y-86019306D01*
X116310881Y-86011837D01*
X116310827Y-86011850D01*
X116309160Y-86004822D01*
X116309160Y-86004816D01*
X116283369Y-85933957D01*
X116282186Y-85930552D01*
X116270741Y-85896014D01*
X116258464Y-85858964D01*
X116258461Y-85858960D01*
X116255412Y-85852419D01*
X116255461Y-85852395D01*
X116252128Y-85845509D01*
X116252079Y-85845534D01*
X116248835Y-85839075D01*
X116207376Y-85776038D01*
X116205469Y-85773046D01*
X116165870Y-85708846D01*
X116165867Y-85708843D01*
X116161392Y-85703183D01*
X116161434Y-85703149D01*
X116156597Y-85697211D01*
X116156556Y-85697246D01*
X116151912Y-85691712D01*
X116097061Y-85639963D01*
X116094473Y-85637449D01*
X112550048Y-82093024D01*
X112519798Y-82043661D01*
X112518018Y-82038183D01*
X112467179Y-81881716D01*
X112372533Y-81717784D01*
X112245871Y-81577112D01*
X112245870Y-81577111D01*
X112092734Y-81465851D01*
X112092729Y-81465848D01*
X111919807Y-81388857D01*
X111919802Y-81388855D01*
X111774001Y-81357865D01*
X111734646Y-81349500D01*
X111545354Y-81349500D01*
X111512897Y-81356398D01*
X111360197Y-81388855D01*
X111360192Y-81388857D01*
X111187270Y-81465848D01*
X111187265Y-81465851D01*
X111034129Y-81577111D01*
X110907466Y-81717785D01*
X110812821Y-81881715D01*
X110812818Y-81881722D01*
X110754325Y-82061744D01*
X110753129Y-82073126D01*
X110748602Y-82095719D01*
X110741904Y-82118093D01*
X110731649Y-82294167D01*
X110731649Y-82294169D01*
X109994431Y-82294169D01*
X109994431Y-81763955D01*
X110014116Y-81696916D01*
X110030750Y-81676274D01*
X111036205Y-80670819D01*
X111097528Y-80637334D01*
X111123886Y-80634500D01*
X113248375Y-80634500D01*
X113315414Y-80654185D01*
X113336056Y-80670819D01*
X114817495Y-82152258D01*
X114829276Y-82165890D01*
X114843722Y-82185294D01*
X114881899Y-82217328D01*
X114889875Y-82224638D01*
X114893815Y-82228579D01*
X114893819Y-82228582D01*
X114893820Y-82228583D01*
X114915741Y-82245916D01*
X114918271Y-82247916D01*
X114921068Y-82250195D01*
X114978833Y-82298667D01*
X114984870Y-82302637D01*
X114984840Y-82302682D01*
X114991299Y-82306796D01*
X114991328Y-82306750D01*
X114997468Y-82310537D01*
X114997470Y-82310539D01*
X115065818Y-82342410D01*
X115069036Y-82343968D01*
X115134315Y-82376752D01*
X115136450Y-82377824D01*
X115136452Y-82377824D01*
X115143240Y-82380295D01*
X115143221Y-82380347D01*
X115150446Y-82382858D01*
X115150464Y-82382807D01*
X115157316Y-82385077D01*
X115157317Y-82385077D01*
X115157321Y-82385079D01*
X115231264Y-82400346D01*
X115234671Y-82401102D01*
X115308073Y-82418500D01*
X115308076Y-82418500D01*
X115315247Y-82419339D01*
X115315240Y-82419392D01*
X115322855Y-82420170D01*
X115322860Y-82420117D01*
X115330050Y-82420746D01*
X115330054Y-82420745D01*
X115330055Y-82420746D01*
X115392088Y-82418940D01*
X115405457Y-82418552D01*
X115409063Y-82418500D01*
X116039739Y-82418500D01*
X116057708Y-82419809D01*
X116063089Y-82420596D01*
X116081645Y-82423315D01*
X116131287Y-82418971D01*
X116142094Y-82418500D01*
X116147673Y-82418500D01*
X116147680Y-82418500D01*
X116178642Y-82414880D01*
X116182173Y-82414519D01*
X116257351Y-82407943D01*
X116257354Y-82407941D01*
X116264432Y-82406481D01*
X116264443Y-82406535D01*
X116271902Y-82404881D01*
X116271890Y-82404827D01*
X116278917Y-82403161D01*
X116278918Y-82403160D01*
X116278923Y-82403160D01*
X116349834Y-82377350D01*
X116353133Y-82376203D01*
X116424775Y-82352464D01*
X116424777Y-82352462D01*
X116424779Y-82352462D01*
X116431320Y-82349412D01*
X116431343Y-82349462D01*
X116438237Y-82346125D01*
X116438212Y-82346075D01*
X116444659Y-82342837D01*
X116444663Y-82342836D01*
X116507706Y-82301370D01*
X116510681Y-82299476D01*
X116574893Y-82259870D01*
X116574901Y-82259861D01*
X116580562Y-82255387D01*
X116580596Y-82255430D01*
X116586521Y-82250604D01*
X116586486Y-82250562D01*
X116592015Y-82245920D01*
X116592024Y-82245915D01*
X116643810Y-82191023D01*
X116646221Y-82188540D01*
X116783945Y-82050817D01*
X116845268Y-82017334D01*
X116871625Y-82014500D01*
X116986169Y-82014500D01*
X117053208Y-82034185D01*
X117059056Y-82038183D01*
X117067269Y-82044150D01*
X117067270Y-82044151D01*
X117240192Y-82121142D01*
X117240197Y-82121144D01*
X117425354Y-82160500D01*
X117425355Y-82160500D01*
X117614644Y-82160500D01*
X117614646Y-82160500D01*
X117799803Y-82121144D01*
X117972730Y-82044151D01*
X118125871Y-81932888D01*
X118252533Y-81792216D01*
X118347179Y-81628284D01*
X118405674Y-81448256D01*
X118425460Y-81260000D01*
X118405674Y-81071744D01*
X118394487Y-81037317D01*
X118392491Y-80967477D01*
X118428571Y-80907643D01*
X118491271Y-80876814D01*
X118530387Y-80876307D01*
X118533850Y-80876814D01*
X118550924Y-80879315D01*
X118600566Y-80874971D01*
X118611373Y-80874500D01*
X118616952Y-80874500D01*
X118616959Y-80874500D01*
X118647921Y-80870880D01*
X118651452Y-80870519D01*
X118726630Y-80863943D01*
X118726633Y-80863941D01*
X118733711Y-80862481D01*
X118733722Y-80862535D01*
X118741181Y-80860881D01*
X118741169Y-80860827D01*
X118748196Y-80859161D01*
X118748197Y-80859160D01*
X118748202Y-80859160D01*
X118819113Y-80833350D01*
X118822412Y-80832203D01*
X118894054Y-80808464D01*
X118894056Y-80808462D01*
X118894058Y-80808462D01*
X118900599Y-80805412D01*
X118900622Y-80805462D01*
X118907516Y-80802125D01*
X118907491Y-80802075D01*
X118913938Y-80798837D01*
X118913942Y-80798836D01*
X118976985Y-80757370D01*
X118979960Y-80755476D01*
X119044172Y-80715870D01*
X119044180Y-80715861D01*
X119049841Y-80711387D01*
X119049875Y-80711430D01*
X119055800Y-80706604D01*
X119055765Y-80706562D01*
X119061294Y-80701920D01*
X119061303Y-80701915D01*
X119113089Y-80647023D01*
X119115534Y-80644506D01*
X119832095Y-79927945D01*
X119845714Y-79916175D01*
X119865125Y-79901726D01*
X119897165Y-79863541D01*
X119904454Y-79855586D01*
X119908414Y-79851628D01*
X119927758Y-79827161D01*
X119929992Y-79824419D01*
X119978498Y-79766614D01*
X119978502Y-79766605D01*
X119982468Y-79760577D01*
X119982514Y-79760607D01*
X119986626Y-79754152D01*
X119986579Y-79754123D01*
X119990363Y-79747986D01*
X119990370Y-79747978D01*
X120012095Y-79701385D01*
X120022248Y-79679615D01*
X120023803Y-79676401D01*
X120057655Y-79608998D01*
X120057657Y-79608985D01*
X120060124Y-79602211D01*
X120060177Y-79602230D01*
X120062689Y-79595002D01*
X120062638Y-79594985D01*
X120064908Y-79588132D01*
X120064908Y-79588130D01*
X120064910Y-79588127D01*
X120080167Y-79514228D01*
X120080935Y-79510765D01*
X120098331Y-79437375D01*
X120098331Y-79437367D01*
X120099169Y-79430203D01*
X120099223Y-79430209D01*
X120100001Y-79422592D01*
X120099948Y-79422588D01*
X120100577Y-79415398D01*
X120098383Y-79340006D01*
X120098331Y-79336399D01*
X120098331Y-78170054D01*
X120118016Y-78103015D01*
X120134646Y-78082377D01*
X120972194Y-77244828D01*
X120985813Y-77233058D01*
X121005224Y-77218609D01*
X121037264Y-77180424D01*
X121044553Y-77172469D01*
X121048513Y-77168511D01*
X121067864Y-77144036D01*
X121070105Y-77141285D01*
X121118597Y-77083497D01*
X121118598Y-77083494D01*
X121122567Y-77077460D01*
X121122614Y-77077491D01*
X121126720Y-77071046D01*
X121126673Y-77071017D01*
X121130464Y-77064869D01*
X121130464Y-77064867D01*
X121130469Y-77064862D01*
X121162366Y-76996456D01*
X121163906Y-76993276D01*
X121197754Y-76925881D01*
X121197756Y-76925868D01*
X121200223Y-76919094D01*
X121200276Y-76919113D01*
X121202788Y-76911885D01*
X121202737Y-76911868D01*
X121205010Y-76905008D01*
X121220263Y-76831135D01*
X121221044Y-76827611D01*
X121238430Y-76754258D01*
X121238430Y-76754255D01*
X121239269Y-76747085D01*
X121239321Y-76747091D01*
X121240099Y-76739476D01*
X121240046Y-76739472D01*
X121240675Y-76732281D01*
X121238482Y-76656909D01*
X121238430Y-76653303D01*
X121238430Y-76246767D01*
X121258115Y-76179728D01*
X121310919Y-76133973D01*
X121380077Y-76124029D01*
X121386617Y-76125149D01*
G37*
%TD.AperFunction*%
%TA.AperFunction,Conductor*%
G36*
X119996042Y-66551605D02*
G01*
X120024844Y-66554441D01*
X120026020Y-66554566D01*
X120133167Y-66566632D01*
X120155258Y-66571186D01*
X120205511Y-66586430D01*
X120210384Y-66588022D01*
X120267480Y-66608001D01*
X120285148Y-66614184D01*
X120302644Y-66621866D01*
X120320771Y-66631555D01*
X120353344Y-66648966D01*
X120360829Y-66653310D01*
X120423784Y-66692868D01*
X120436462Y-66701998D01*
X120482099Y-66739452D01*
X120491103Y-66747612D01*
X120516995Y-66773504D01*
X120542884Y-66799394D01*
X120551055Y-66808410D01*
X120588504Y-66854042D01*
X120597644Y-66866735D01*
X120637175Y-66929649D01*
X120641540Y-66937168D01*
X120668639Y-66987868D01*
X120676322Y-67005367D01*
X120702460Y-67080069D01*
X120704079Y-67085028D01*
X120719311Y-67135243D01*
X120723870Y-67157354D01*
X120735848Y-67263666D01*
X120736031Y-67265392D01*
X120738903Y-67294545D01*
X120739500Y-67306702D01*
X120739500Y-70249137D01*
X120739489Y-70249174D01*
X120739490Y-70374429D01*
X120768332Y-70519419D01*
X120768335Y-70519429D01*
X120824906Y-70655998D01*
X120824908Y-70656002D01*
X120824910Y-70656006D01*
X120824913Y-70656010D01*
X120824915Y-70656014D01*
X120888251Y-70750800D01*
X120907045Y-70778926D01*
X121011581Y-70883462D01*
X121134503Y-70965594D01*
X121134509Y-70965596D01*
X121134510Y-70965597D01*
X121179289Y-70984145D01*
X121271086Y-71022168D01*
X121271090Y-71022168D01*
X121271091Y-71022169D01*
X121416079Y-71051010D01*
X121416082Y-71051010D01*
X121489901Y-71051010D01*
X124136635Y-71051010D01*
X124203674Y-71070695D01*
X124249429Y-71123499D01*
X124259373Y-71192657D01*
X124239326Y-71244512D01*
X124228214Y-71260929D01*
X124162532Y-71414313D01*
X124118047Y-71468191D01*
X124051495Y-71489465D01*
X124048544Y-71489500D01*
X124035354Y-71489500D01*
X124002897Y-71496398D01*
X123850197Y-71528855D01*
X123850192Y-71528857D01*
X123677270Y-71605848D01*
X123677269Y-71605849D01*
X123669056Y-71611817D01*
X123603250Y-71635298D01*
X123596169Y-71635500D01*
X122084000Y-71635500D01*
X122066031Y-71634191D01*
X122042091Y-71630684D01*
X121995330Y-71634776D01*
X121992451Y-71635028D01*
X121981645Y-71635500D01*
X121976051Y-71635500D01*
X121945113Y-71639116D01*
X121941529Y-71639482D01*
X121866387Y-71646056D01*
X121859321Y-71647516D01*
X121859310Y-71647464D01*
X121851832Y-71649122D01*
X121851845Y-71649174D01*
X121844812Y-71650840D01*
X121773925Y-71676639D01*
X121770525Y-71677821D01*
X121698962Y-71701536D01*
X121692420Y-71704587D01*
X121692397Y-71704539D01*
X121685507Y-71707875D01*
X121685531Y-71707922D01*
X121679076Y-71711163D01*
X121616067Y-71752604D01*
X121613030Y-71754539D01*
X121548846Y-71794130D01*
X121543179Y-71798611D01*
X121543146Y-71798569D01*
X121537214Y-71803401D01*
X121537248Y-71803442D01*
X121531712Y-71808087D01*
X121479944Y-71862956D01*
X121477433Y-71865541D01*
X119995672Y-73347302D01*
X119982043Y-73359081D01*
X119962637Y-73373529D01*
X119930604Y-73411703D01*
X119923317Y-73419656D01*
X119919350Y-73423624D01*
X119919348Y-73423626D01*
X119900019Y-73448071D01*
X119897745Y-73450863D01*
X119849264Y-73508641D01*
X119845296Y-73514675D01*
X119845252Y-73514646D01*
X119841139Y-73521101D01*
X119841184Y-73521129D01*
X119837392Y-73527276D01*
X119805511Y-73595642D01*
X119803942Y-73598882D01*
X119770105Y-73666261D01*
X119767634Y-73673049D01*
X119767585Y-73673031D01*
X119765071Y-73680263D01*
X119765121Y-73680280D01*
X119762850Y-73687132D01*
X119747601Y-73760981D01*
X119746821Y-73764500D01*
X119729429Y-73837886D01*
X119728591Y-73845057D01*
X119728537Y-73845050D01*
X119727760Y-73852666D01*
X119727813Y-73852671D01*
X119727183Y-73859867D01*
X119727237Y-73861717D01*
X119726913Y-73862949D01*
X119726554Y-73867060D01*
X119725851Y-73866998D01*
X119709505Y-73929299D01*
X119658051Y-73976567D01*
X119589210Y-73988512D01*
X119524839Y-73961343D01*
X119485376Y-73903688D01*
X119466147Y-73844505D01*
X119453235Y-73804766D01*
X119453232Y-73804760D01*
X119442646Y-73786424D01*
X119358587Y-73640829D01*
X119231925Y-73500157D01*
X119231921Y-73500154D01*
X119078788Y-73388896D01*
X119078783Y-73388893D01*
X118905861Y-73311902D01*
X118905856Y-73311900D01*
X118760055Y-73280910D01*
X118720700Y-73272545D01*
X118531408Y-73272545D01*
X118498951Y-73279443D01*
X118346251Y-73311900D01*
X118346246Y-73311902D01*
X118173324Y-73388893D01*
X118173319Y-73388896D01*
X118020186Y-73500154D01*
X118020183Y-73500156D01*
X118020183Y-73500157D01*
X117990880Y-73532701D01*
X117902462Y-73630899D01*
X117842975Y-73667547D01*
X117773118Y-73666216D01*
X117722631Y-73635607D01*
X116340819Y-72253795D01*
X116307334Y-72192472D01*
X116304500Y-72166114D01*
X116304500Y-71959749D01*
X116306169Y-71943406D01*
X116306116Y-71943402D01*
X116306745Y-71936211D01*
X116306621Y-71931964D01*
X116304552Y-71860838D01*
X116304500Y-71857232D01*
X116304500Y-69467392D01*
X116321113Y-69405392D01*
X116377179Y-69308284D01*
X116435674Y-69128256D01*
X116455460Y-68940000D01*
X116435674Y-68751744D01*
X116377179Y-68571716D01*
X116282533Y-68407784D01*
X116155871Y-68267112D01*
X116155870Y-68267111D01*
X116002734Y-68155851D01*
X116002729Y-68155848D01*
X115829807Y-68078857D01*
X115829802Y-68078855D01*
X115684001Y-68047865D01*
X115644646Y-68039500D01*
X115455354Y-68039500D01*
X115422897Y-68046398D01*
X115270197Y-68078855D01*
X115270192Y-68078857D01*
X115097270Y-68155848D01*
X115097265Y-68155851D01*
X114944129Y-68267111D01*
X114817466Y-68407785D01*
X114722821Y-68571715D01*
X114722818Y-68571722D01*
X114665131Y-68749265D01*
X114664326Y-68751744D01*
X114644540Y-68940000D01*
X114664326Y-69128256D01*
X114664327Y-69128259D01*
X114722818Y-69308277D01*
X114722821Y-69308284D01*
X114772872Y-69394975D01*
X114778887Y-69405392D01*
X114795500Y-69467392D01*
X114795500Y-71506113D01*
X114775815Y-71573152D01*
X114759181Y-71593794D01*
X113917742Y-72435232D01*
X113904113Y-72447011D01*
X113884707Y-72461459D01*
X113852674Y-72499633D01*
X113845387Y-72507586D01*
X113841420Y-72511554D01*
X113841418Y-72511556D01*
X113822089Y-72536001D01*
X113819815Y-72538793D01*
X113771334Y-72596571D01*
X113767366Y-72602605D01*
X113767322Y-72602576D01*
X113763209Y-72609031D01*
X113763254Y-72609059D01*
X113759462Y-72615206D01*
X113727581Y-72683572D01*
X113726012Y-72686812D01*
X113692175Y-72754191D01*
X113689704Y-72760979D01*
X113689655Y-72760961D01*
X113687141Y-72768193D01*
X113687191Y-72768210D01*
X113684920Y-72775062D01*
X113669671Y-72848911D01*
X113668891Y-72852430D01*
X113651499Y-72925816D01*
X113650661Y-72932987D01*
X113650607Y-72932980D01*
X113649830Y-72940596D01*
X113649883Y-72940601D01*
X113649253Y-72947790D01*
X113651448Y-73023193D01*
X113651500Y-73026800D01*
X113651500Y-79001500D01*
X113631815Y-79068539D01*
X113579011Y-79114294D01*
X113527500Y-79125500D01*
X110823992Y-79125500D01*
X110806023Y-79124191D01*
X110782089Y-79120685D01*
X110736995Y-79124631D01*
X110732457Y-79125028D01*
X110721653Y-79125500D01*
X110716055Y-79125500D01*
X110685091Y-79129119D01*
X110681504Y-79129485D01*
X110606393Y-79136056D01*
X110599319Y-79137517D01*
X110599308Y-79137465D01*
X110591832Y-79139122D01*
X110591845Y-79139174D01*
X110584812Y-79140840D01*
X110513925Y-79166639D01*
X110510525Y-79167821D01*
X110438962Y-79191536D01*
X110432420Y-79194587D01*
X110432397Y-79194539D01*
X110425507Y-79197875D01*
X110425531Y-79197922D01*
X110419076Y-79201163D01*
X110356067Y-79242604D01*
X110353030Y-79244539D01*
X110288846Y-79284130D01*
X110283179Y-79288611D01*
X110283146Y-79288569D01*
X110277214Y-79293401D01*
X110277248Y-79293442D01*
X110271712Y-79298087D01*
X110219944Y-79352956D01*
X110217433Y-79355541D01*
X108751673Y-80821301D01*
X108738044Y-80833080D01*
X108718638Y-80847528D01*
X108686605Y-80885702D01*
X108679318Y-80893655D01*
X108675351Y-80897623D01*
X108675349Y-80897625D01*
X108656020Y-80922070D01*
X108653746Y-80924862D01*
X108605265Y-80982640D01*
X108601297Y-80988674D01*
X108601253Y-80988645D01*
X108597140Y-80995100D01*
X108597185Y-80995128D01*
X108593393Y-81001275D01*
X108561512Y-81069641D01*
X108559943Y-81072881D01*
X108526106Y-81140260D01*
X108523635Y-81147048D01*
X108523586Y-81147030D01*
X108521072Y-81154262D01*
X108521122Y-81154279D01*
X108518851Y-81161131D01*
X108503602Y-81234980D01*
X108502822Y-81238499D01*
X108485430Y-81311885D01*
X108484592Y-81319056D01*
X108484538Y-81319049D01*
X108483761Y-81326665D01*
X108483814Y-81326670D01*
X108483184Y-81333859D01*
X108485379Y-81409262D01*
X108485431Y-81412869D01*
X108485431Y-84685931D01*
X108484122Y-84703900D01*
X108480615Y-84727839D01*
X108484959Y-84777476D01*
X108485431Y-84788285D01*
X108485431Y-84793877D01*
X108489047Y-84824816D01*
X108489413Y-84828401D01*
X108495987Y-84903541D01*
X108497447Y-84910608D01*
X108497395Y-84910618D01*
X108499054Y-84918098D01*
X108499105Y-84918086D01*
X108500771Y-84925116D01*
X108526552Y-84995951D01*
X108527735Y-84999354D01*
X108551464Y-85070960D01*
X108554517Y-85077506D01*
X108554467Y-85077529D01*
X108557807Y-85084428D01*
X108557856Y-85084404D01*
X108561098Y-85090861D01*
X108602544Y-85153877D01*
X108604481Y-85156917D01*
X108644062Y-85221087D01*
X108648542Y-85226753D01*
X108648500Y-85226786D01*
X108653332Y-85232717D01*
X108653374Y-85232683D01*
X108658019Y-85238219D01*
X108712869Y-85289967D01*
X108715456Y-85292480D01*
X109262451Y-85839475D01*
X109292701Y-85888838D01*
X109337685Y-86027286D01*
X109339680Y-86097127D01*
X109303599Y-86156960D01*
X109240898Y-86187788D01*
X109196288Y-86187363D01*
X109165866Y-86181500D01*
X109165864Y-86181500D01*
X109134744Y-86181500D01*
X109120024Y-86180623D01*
X109089128Y-86176929D01*
X109089127Y-86176929D01*
X109064996Y-86178655D01*
X109029637Y-86181184D01*
X109020791Y-86181500D01*
X107328899Y-86181500D01*
X107261860Y-86161815D01*
X107241218Y-86145181D01*
X106438819Y-85342782D01*
X106405334Y-85281459D01*
X106402500Y-85255101D01*
X106402500Y-80428549D01*
X106422185Y-80361510D01*
X106474989Y-80315755D01*
X106544147Y-80305811D01*
X106602662Y-80330696D01*
X106690478Y-80399046D01*
X106690484Y-80399050D01*
X106905468Y-80515394D01*
X106905476Y-80515397D01*
X107136664Y-80594765D01*
X107377779Y-80635000D01*
X107622221Y-80635000D01*
X107863335Y-80594765D01*
X108094523Y-80515397D01*
X108094531Y-80515394D01*
X108309514Y-80399051D01*
X108309514Y-80399050D01*
X108352240Y-80365795D01*
X108352240Y-80365794D01*
X107747533Y-79761087D01*
X107815629Y-79734126D01*
X107948492Y-79637595D01*
X108053175Y-79511055D01*
X108101631Y-79408078D01*
X108705372Y-80011819D01*
X108801667Y-79864431D01*
X108801672Y-79864423D01*
X108899861Y-79640573D01*
X108959869Y-79403605D01*
X108980055Y-79160005D01*
X108980055Y-79159994D01*
X108959869Y-78916394D01*
X108899861Y-78679426D01*
X108801669Y-78455570D01*
X108705372Y-78308179D01*
X108102546Y-78911004D01*
X108092812Y-78881044D01*
X108004814Y-78742381D01*
X107885097Y-78629960D01*
X107750488Y-78555957D01*
X108352240Y-77954204D01*
X108352240Y-77954203D01*
X108309514Y-77920949D01*
X108094531Y-77804605D01*
X108094523Y-77804602D01*
X107863335Y-77725234D01*
X107622221Y-77685000D01*
X107377779Y-77685000D01*
X107136664Y-77725234D01*
X106905476Y-77804602D01*
X106905468Y-77804605D01*
X106690485Y-77920949D01*
X106602662Y-77989304D01*
X106537668Y-78014946D01*
X106469128Y-78001379D01*
X106418803Y-77952911D01*
X106402500Y-77891450D01*
X106402500Y-75349183D01*
X106422185Y-75282144D01*
X106474989Y-75236389D01*
X106544147Y-75226445D01*
X106602661Y-75251329D01*
X106690212Y-75319473D01*
X106905267Y-75435855D01*
X106905270Y-75435856D01*
X107136541Y-75515251D01*
X107136543Y-75515251D01*
X107136545Y-75515252D01*
X107377737Y-75555500D01*
X107377738Y-75555500D01*
X107622261Y-75555500D01*
X107622263Y-75555500D01*
X107804591Y-75525074D01*
X107873952Y-75533456D01*
X107912678Y-75559702D01*
X109229181Y-76876205D01*
X109262666Y-76937528D01*
X109265500Y-76963886D01*
X109265500Y-77072606D01*
X109248888Y-77134604D01*
X109205854Y-77209143D01*
X109192820Y-77231718D01*
X109192818Y-77231722D01*
X109134327Y-77411740D01*
X109134326Y-77411744D01*
X109114540Y-77600000D01*
X109134326Y-77788256D01*
X109134327Y-77788259D01*
X109192818Y-77968277D01*
X109192821Y-77968284D01*
X109287467Y-78132216D01*
X109356966Y-78209402D01*
X109414129Y-78272888D01*
X109567265Y-78384148D01*
X109567270Y-78384151D01*
X109740192Y-78461142D01*
X109740197Y-78461144D01*
X109925354Y-78500500D01*
X109925355Y-78500500D01*
X110114644Y-78500500D01*
X110114646Y-78500500D01*
X110299803Y-78461144D01*
X110472730Y-78384151D01*
X110625871Y-78272888D01*
X110752533Y-78132216D01*
X110847179Y-77968284D01*
X110905674Y-77788256D01*
X110925460Y-77600000D01*
X110905674Y-77411744D01*
X110847179Y-77231716D01*
X110791111Y-77134604D01*
X110774500Y-77072606D01*
X110774500Y-76663992D01*
X110775809Y-76646022D01*
X110776194Y-76643388D01*
X110779314Y-76622093D01*
X110774971Y-76572458D01*
X110774500Y-76561652D01*
X110774500Y-76556064D01*
X110774499Y-76556052D01*
X110770882Y-76525109D01*
X110770515Y-76521517D01*
X110763943Y-76446389D01*
X110762483Y-76439318D01*
X110762537Y-76439306D01*
X110760881Y-76431837D01*
X110760827Y-76431850D01*
X110759160Y-76424822D01*
X110759160Y-76424816D01*
X110733369Y-76353957D01*
X110732186Y-76350552D01*
X110732180Y-76350534D01*
X110708464Y-76278964D01*
X110708461Y-76278960D01*
X110705412Y-76272419D01*
X110705461Y-76272395D01*
X110702128Y-76265509D01*
X110702079Y-76265534D01*
X110698835Y-76259075D01*
X110697683Y-76257324D01*
X110666857Y-76210454D01*
X110657376Y-76196038D01*
X110655469Y-76193046D01*
X110615870Y-76128846D01*
X110615867Y-76128843D01*
X110611392Y-76123183D01*
X110611434Y-76123149D01*
X110606597Y-76117211D01*
X110606556Y-76117246D01*
X110601912Y-76111712D01*
X110547061Y-76059963D01*
X110544473Y-76057449D01*
X108979946Y-74492922D01*
X108946461Y-74431599D01*
X108947422Y-74374800D01*
X108957316Y-74335728D01*
X108960364Y-74323692D01*
X108960365Y-74323683D01*
X108980557Y-74080005D01*
X108980557Y-74079994D01*
X108960365Y-73836316D01*
X108960363Y-73836304D01*
X108941739Y-73762759D01*
X108900336Y-73599264D01*
X108802111Y-73375333D01*
X108720975Y-73251144D01*
X108668367Y-73170621D01*
X108502757Y-72990722D01*
X108502747Y-72990713D01*
X108309791Y-72840529D01*
X108309787Y-72840526D01*
X108094734Y-72724145D01*
X108094729Y-72724143D01*
X107863458Y-72644748D01*
X107649583Y-72609059D01*
X107622263Y-72604500D01*
X107377737Y-72604500D01*
X107350417Y-72609059D01*
X107136541Y-72644748D01*
X106905270Y-72724143D01*
X106905265Y-72724145D01*
X106705418Y-72832297D01*
X106690212Y-72840527D01*
X106620487Y-72894795D01*
X106602662Y-72908670D01*
X106537668Y-72934312D01*
X106469128Y-72920745D01*
X106418803Y-72872277D01*
X106402500Y-72810816D01*
X106402500Y-71934307D01*
X106422185Y-71867268D01*
X106438819Y-71846626D01*
X106997023Y-71288422D01*
X107058346Y-71254937D01*
X107128038Y-71259921D01*
X107172385Y-71288422D01*
X108921368Y-73037405D01*
X108934693Y-73053157D01*
X108936148Y-73055201D01*
X108936152Y-73055205D01*
X108999955Y-73116041D01*
X109002066Y-73118103D01*
X109028089Y-73144126D01*
X109034525Y-73149440D01*
X109041136Y-73155307D01*
X109084319Y-73196482D01*
X109084324Y-73196485D01*
X109110494Y-73213303D01*
X109122401Y-73221996D01*
X109146403Y-73241814D01*
X109172246Y-73255925D01*
X109198751Y-73270398D01*
X109206361Y-73274913D01*
X109256547Y-73307166D01*
X109285443Y-73318733D01*
X109298778Y-73325017D01*
X109326087Y-73339929D01*
X109345300Y-73346070D01*
X109382915Y-73358094D01*
X109391209Y-73361076D01*
X109446609Y-73383255D01*
X109477164Y-73389143D01*
X109491450Y-73392790D01*
X109501318Y-73395944D01*
X109521094Y-73402266D01*
X109564143Y-73407413D01*
X109580318Y-73409347D01*
X109589066Y-73410711D01*
X109647630Y-73421999D01*
X109647631Y-73421999D01*
X109647636Y-73422000D01*
X109678749Y-73422000D01*
X109693470Y-73422877D01*
X109695843Y-73423160D01*
X109724373Y-73426572D01*
X109780199Y-73422578D01*
X109783877Y-73422316D01*
X109792723Y-73422000D01*
X110941068Y-73422000D01*
X111079206Y-73408808D01*
X111093800Y-73407415D01*
X111290234Y-73349737D01*
X111472203Y-73255926D01*
X111633130Y-73129372D01*
X111767197Y-72974649D01*
X111869561Y-72797350D01*
X111936521Y-72603883D01*
X111965656Y-72401240D01*
X111955915Y-72196745D01*
X111907649Y-71997788D01*
X111907646Y-71997783D01*
X111907646Y-71997780D01*
X111822607Y-71811571D01*
X111822600Y-71811559D01*
X111703849Y-71644796D01*
X111703846Y-71644793D01*
X111555680Y-71503517D01*
X111383453Y-71392834D01*
X111193389Y-71316744D01*
X110992365Y-71278000D01*
X110992364Y-71278000D01*
X110245399Y-71278000D01*
X110178360Y-71258315D01*
X110157718Y-71241681D01*
X109606014Y-70689977D01*
X109011817Y-70095781D01*
X108978333Y-70034459D01*
X108975499Y-70008110D01*
X108975499Y-67977128D01*
X108969091Y-67917517D01*
X108918796Y-67782669D01*
X108918795Y-67782668D01*
X108918793Y-67782664D01*
X108832547Y-67667455D01*
X108832544Y-67667452D01*
X108717335Y-67581206D01*
X108717328Y-67581202D01*
X108582482Y-67530908D01*
X108582483Y-67530908D01*
X108522883Y-67524501D01*
X108522881Y-67524500D01*
X108522873Y-67524500D01*
X108522864Y-67524500D01*
X106477129Y-67524500D01*
X106477123Y-67524501D01*
X106417516Y-67530908D01*
X106282671Y-67581202D01*
X106282664Y-67581206D01*
X106167455Y-67667452D01*
X106167452Y-67667455D01*
X106081206Y-67782664D01*
X106081202Y-67782671D01*
X106030908Y-67917517D01*
X106024501Y-67977116D01*
X106024501Y-67977123D01*
X106024500Y-67977135D01*
X106024500Y-68638692D01*
X106004815Y-68705731D01*
X105988181Y-68726373D01*
X104302338Y-70412215D01*
X104291974Y-70421478D01*
X104264010Y-70443780D01*
X104264002Y-70443787D01*
X104219970Y-70494186D01*
X104214281Y-70500273D01*
X104207184Y-70507371D01*
X104207181Y-70507374D01*
X104180799Y-70538973D01*
X104178996Y-70541084D01*
X104114489Y-70614920D01*
X104114482Y-70614930D01*
X104112170Y-70618800D01*
X104100922Y-70634653D01*
X104098029Y-70638118D01*
X104098026Y-70638122D01*
X104049639Y-70723397D01*
X104048240Y-70725799D01*
X103997934Y-70809998D01*
X103997924Y-70810018D01*
X103996339Y-70814242D01*
X103988106Y-70831840D01*
X103985881Y-70835760D01*
X103985875Y-70835775D01*
X103953488Y-70928329D01*
X103952541Y-70930942D01*
X103918079Y-71022767D01*
X103918077Y-71022773D01*
X103917270Y-71027221D01*
X103912309Y-71046012D01*
X103910821Y-71050265D01*
X103910819Y-71050271D01*
X103895475Y-71147142D01*
X103895009Y-71149882D01*
X103877500Y-71246367D01*
X103877500Y-71250880D01*
X103875974Y-71270266D01*
X103875268Y-71274729D01*
X103875268Y-71274732D01*
X103875268Y-71274735D01*
X103877469Y-71372798D01*
X103877500Y-71375580D01*
X103877500Y-84813814D01*
X103857815Y-84880853D01*
X103805011Y-84926608D01*
X103735853Y-84936552D01*
X103703064Y-84927093D01*
X103549807Y-84858857D01*
X103549802Y-84858855D01*
X103389656Y-84824816D01*
X103364646Y-84819500D01*
X103175354Y-84819500D01*
X103150344Y-84824816D01*
X102990197Y-84858855D01*
X102990192Y-84858857D01*
X102817271Y-84935848D01*
X102707720Y-85015441D01*
X102641913Y-85038920D01*
X102573859Y-85023094D01*
X102525165Y-84972988D01*
X102515858Y-84950056D01*
X102509954Y-84929948D01*
X102447032Y-84832040D01*
X102427347Y-84765000D01*
X102447032Y-84697961D01*
X102447032Y-84697960D01*
X102448957Y-84694965D01*
X102509953Y-84600053D01*
X102550500Y-84461961D01*
X102550500Y-84318039D01*
X102550499Y-84318037D01*
X102550499Y-84318036D01*
X102544366Y-84297150D01*
X102532586Y-84257030D01*
X102509954Y-84179949D01*
X102509953Y-84179947D01*
X102432143Y-84058872D01*
X102323373Y-83964623D01*
X102323371Y-83964622D01*
X102192456Y-83904834D01*
X102151070Y-83898884D01*
X102087514Y-83869858D01*
X102049741Y-83811080D01*
X102049741Y-83741210D01*
X102063288Y-83710873D01*
X102139448Y-83587872D01*
X102206429Y-83414973D01*
X102240500Y-83232710D01*
X102240500Y-83140000D01*
X102240500Y-83139500D01*
X102240500Y-73119901D01*
X102240500Y-73027290D01*
X102206429Y-72845027D01*
X102139448Y-72672128D01*
X102104205Y-72615209D01*
X102056788Y-72538627D01*
X102038233Y-72471267D01*
X102059041Y-72404567D01*
X102112606Y-72359706D01*
X102144567Y-72350612D01*
X102182457Y-72345165D01*
X102313373Y-72285377D01*
X102422143Y-72191128D01*
X102499953Y-72070053D01*
X102540500Y-71931961D01*
X102540500Y-71788039D01*
X102517928Y-71711164D01*
X102499954Y-71649949D01*
X102499953Y-71649948D01*
X102499953Y-71649947D01*
X102437031Y-71552039D01*
X102417347Y-71485000D01*
X102437032Y-71417961D01*
X102437032Y-71417960D01*
X102439376Y-71414313D01*
X102499953Y-71320053D01*
X102540500Y-71181961D01*
X102540500Y-71038039D01*
X102527263Y-70992958D01*
X102499954Y-70899949D01*
X102499953Y-70899948D01*
X102499953Y-70899947D01*
X102437031Y-70802039D01*
X102417347Y-70735000D01*
X102437032Y-70667961D01*
X102437032Y-70667960D01*
X102444714Y-70656006D01*
X102499953Y-70570053D01*
X102540500Y-70431961D01*
X102540500Y-70288039D01*
X102529088Y-70249174D01*
X102499954Y-70149949D01*
X102479467Y-70118070D01*
X102422143Y-70028872D01*
X102313373Y-69934623D01*
X102313371Y-69934622D01*
X102182456Y-69874834D01*
X102155938Y-69871022D01*
X102092383Y-69841996D01*
X102054609Y-69783218D01*
X102054609Y-69713348D01*
X102068156Y-69683011D01*
X102139448Y-69567872D01*
X102206429Y-69394973D01*
X102240500Y-69212710D01*
X102240500Y-69120000D01*
X102240500Y-69119500D01*
X102240500Y-67306596D01*
X102241097Y-67294446D01*
X102243882Y-67266166D01*
X102244036Y-67264700D01*
X102256150Y-67157228D01*
X102260704Y-67135152D01*
X102275771Y-67085479D01*
X102277374Y-67080568D01*
X102303734Y-67005232D01*
X102311408Y-66987756D01*
X102338330Y-66937387D01*
X102342656Y-66929935D01*
X102382463Y-66866582D01*
X102391575Y-66853928D01*
X102428816Y-66808548D01*
X102436966Y-66799557D01*
X102489056Y-66747466D01*
X102498036Y-66739327D01*
X102543423Y-66702078D01*
X102556063Y-66692975D01*
X102619436Y-66653155D01*
X102626886Y-66648831D01*
X102677239Y-66621916D01*
X102694730Y-66614237D01*
X102770042Y-66587884D01*
X102774971Y-66586274D01*
X102824643Y-66571206D01*
X102846723Y-66566653D01*
X102954847Y-66554470D01*
X102956128Y-66554335D01*
X102981948Y-66551792D01*
X102983830Y-66551607D01*
X102995979Y-66551010D01*
X119983912Y-66551010D01*
X119996042Y-66551605D01*
G37*
%TD.AperFunction*%
%TD*%
M02*
