M48
; DRILL file {KiCad 7.0.10} date Sun Aug  4 06:12:01 2024
; FORMAT={-:-/ absolute / metric / decimal}
; #@! TF.CreationDate,2024-08-04T06:12:01-04:00
; #@! TF.GenerationSoftware,Kicad,Pcbnew,7.0.10
; #@! TF.FileFunction,NonPlated,1,2,NPTH
FMAT,2
METRIC
; #@! TA.AperFunction,NonPlated,NPTH,ComponentDrill
T1C0.500
%
G90
G05
T1
X100.54Y-70.36
X100.54Y-71.11
X100.54Y-71.86
X100.55Y-84.39
X100.55Y-85.14
X100.55Y-85.89
X100.55Y-98.41
X100.55Y-99.16
X100.55Y-99.91
X100.55Y-112.42
X100.55Y-113.17
X100.55Y-113.92
X100.55Y-126.45
X100.55Y-127.2
X100.55Y-127.95
X102.04Y-70.36
X102.04Y-71.11
X102.04Y-71.86
X102.05Y-84.39
X102.05Y-85.14
X102.05Y-85.89
X102.05Y-98.41
X102.05Y-99.16
X102.05Y-99.91
X102.05Y-112.42
X102.05Y-113.17
X102.05Y-113.92
X102.05Y-126.45
X102.05Y-127.2
X102.05Y-127.95
M30
