M48
; DRILL file {KiCad 7.0.10} date Sat Aug  3 20:42:25 2024
; FORMAT={-:-/ absolute / metric / decimal}
; #@! TF.CreationDate,2024-08-03T20:42:25-04:00
; #@! TF.GenerationSoftware,Kicad,Pcbnew,7.0.10
; #@! TF.FileFunction,Plated,1,2,PTH
FMAT,2
METRIC
; #@! TA.AperFunction,Plated,PTH,ViaDrill
T1C0.400
; #@! TA.AperFunction,Plated,PTH,ComponentDrill
T2C0.800
; #@! TA.AperFunction,Plated,PTH,ComponentDrill
T3C0.991
; #@! TA.AperFunction,Plated,PTH,ComponentDrill
T4C1.300
%
G90
G05
T1
X79.344Y-76.98
X79.471Y-107.714
X79.471Y-112.794
X79.471Y-117.874
X79.598Y-102.634
X79.725Y-82.314
X79.852Y-87.394
X79.852Y-92.474
X79.852Y-97.554
X80.868Y-112.794
X80.868Y-117.874
X80.995Y-76.98
X81.249Y-102.634
X81.249Y-107.714
X81.376Y-87.394
X81.503Y-82.314
X81.503Y-97.554
X81.63Y-92.474
X82.265Y-117.874
X82.392Y-112.794
X82.773Y-76.98
X82.773Y-102.634
X82.773Y-107.714
X83.027Y-87.394
X83.027Y-97.554
X83.281Y-82.314
X83.281Y-92.474
X89.758Y-114.826
X90.012Y-110.254
X91.028Y-110.254
X91.282Y-100.221
X92.425Y-100.221
X95.679Y-100.444
X98.902Y-105.44
X103.896Y-75.479
X103.896Y-77.3
X103.964Y-78.911
X103.972Y-95.625
X105.782Y-99.929
X105.992Y-97.453
X106.202Y-127.849
X107.242Y-69.282
X108.107Y-68.417
X108.153Y-117.011
X108.325Y-111.05
X108.528Y-124.117
X108.9Y-110.325
X113.312Y-109.95
X115.011Y-73.958
X115.392Y-119.551
X115.695Y-90.166
X116.35Y-84.85
X116.35Y-85.75
X117.134Y-103.391
X117.297Y-90.214
X117.344Y-73.991
X117.344Y-119.561
X117.551Y-104.45
X117.95Y-79.7
X118.058Y-80.608
X120.034Y-102.871
X120.034Y-107.891
X120.134Y-92.671
X120.148Y-123.125
X120.234Y-77.392
X120.234Y-87.571
X120.264Y-72.281
X120.434Y-118.041
X121.294Y-92.671
X121.334Y-107.871
X121.404Y-87.541
X121.454Y-72.311
X121.454Y-77.401
X121.474Y-102.871
X121.668Y-118.059
X121.87Y-123.125
X122.474Y-92.671
X122.644Y-87.561
X122.754Y-107.841
X122.764Y-77.381
X122.864Y-72.311
X122.904Y-102.851
X123.003Y-118.043
X123.3Y-123.125
T2
X84.878Y-110.312
X84.878Y-115.392
X84.918Y-85.002
X84.918Y-90.082
X84.918Y-100.297
X84.918Y-105.377
X85.008Y-74.782
X85.008Y-79.862
T3
X88.16Y-125.97
X90.66Y-125.97
X93.16Y-125.97
X95.66Y-125.97
X106.76Y-130.69
X109.26Y-130.69
X111.76Y-130.69
X114.26Y-130.69
T4
X92.64Y-72.34
X92.64Y-77.42
X92.64Y-82.5
X92.64Y-87.58
X92.64Y-92.66
X92.64Y-97.74
X92.64Y-102.82
X92.64Y-107.9
X92.64Y-112.98
X92.64Y-118.06
X110.5Y-67.25
X110.5Y-72.33
X110.5Y-77.41
X110.5Y-87.65
X110.5Y-92.73
X110.5Y-102.81
X110.5Y-107.89
X110.5Y-118.05
X110.5Y-123.13
M30
