%TF.GenerationSoftware,KiCad,Pcbnew,7.0.10*%
%TF.CreationDate,2024-08-03T20:42:26-04:00*%
%TF.ProjectId,12.X.2 - PLC Connector Combined,31322e58-2e32-4202-9d20-504c4320436f,rev?*%
%TF.SameCoordinates,Original*%
%TF.FileFunction,Drillmap*%
%TF.FilePolarity,Positive*%
%FSLAX45Y45*%
G04 Gerber Fmt 4.5, Leading zero omitted, Abs format (unit mm)*
G04 Created by KiCad (PCBNEW 7.0.10) date 2024-08-03 20:42:26*
%MOMM*%
%LPD*%
G01*
G04 APERTURE LIST*
%ADD10C,0.250000*%
%ADD11C,0.200000*%
%ADD12C,0.100000*%
%ADD13C,0.130000*%
G04 APERTURE END LIST*
D10*
X7129918Y-7598488D02*
X8255000Y-7598488D01*
X8329988Y-10488509D02*
G75*
G03*
X8235942Y-10392250I-70708J24989D01*
G01*
X8330001Y-8456513D02*
G75*
G03*
X8232720Y-8360250I-70231J26313D01*
G01*
X10230000Y-7311513D02*
G75*
G03*
X10030000Y-7311513I-100000J0D01*
G01*
X7059148Y-9832125D02*
X7058983Y-9728125D01*
X8255000Y-7598480D02*
G75*
G03*
X8330000Y-7523488I10J74990D01*
G01*
X13130000Y-10914301D02*
X12005000Y-10914301D01*
X13205000Y-12259301D02*
X13205000Y-12363301D01*
X7057500Y-8793369D02*
X7057335Y-8689607D01*
X11930000Y-7941301D02*
X11930000Y-8553301D01*
X8235136Y-9884250D02*
X7110054Y-9884250D01*
X13130000Y-10914300D02*
G75*
G03*
X13205000Y-10839301I0J75000D01*
G01*
X11930000Y-10989301D02*
X11930000Y-11601301D01*
X8330000Y-8560513D02*
X8330000Y-8456513D01*
X11855000Y-13438301D02*
X10305000Y-13438301D01*
X8255000Y-7090480D02*
G75*
G03*
X8330000Y-7015488I10J74990D01*
G01*
X12005000Y-7104301D02*
X13130000Y-7104301D01*
X13130000Y-7866301D02*
X12005000Y-7866301D01*
X10030007Y-6911513D02*
G75*
G03*
X9955000Y-6836513I-75007J-7D01*
G01*
X10030000Y-11518000D02*
X10030000Y-12520000D01*
X13204999Y-7687301D02*
G75*
G03*
X13130000Y-7612301I-74999J1D01*
G01*
X8329991Y-7948510D02*
G75*
G03*
X8255971Y-7852250I-71902J21300D01*
G01*
X7129998Y-11154488D02*
X8254998Y-11154488D01*
X10030000Y-12520000D02*
G75*
G03*
X10230000Y-12520000I100000J0D01*
G01*
X7129918Y-7598492D02*
G75*
G03*
X7055726Y-7675128I782J-74988D01*
G01*
X7129998Y-11662483D02*
G75*
G03*
X7062207Y-11760122I3692J-74917D01*
G01*
X13205000Y-10227301D02*
X13205000Y-10331301D01*
X10230000Y-11518000D02*
G75*
G03*
X10030000Y-11518000I-100000J0D01*
G01*
X13130000Y-9390301D02*
X12005000Y-9390301D01*
X12005000Y-10406300D02*
G75*
G03*
X11930000Y-10481301I0J-75000D01*
G01*
X7059953Y-10340125D02*
G75*
G03*
X7110860Y-10392250I72357J19745D01*
G01*
X13205000Y-10735301D02*
X13205000Y-10839301D01*
X7055082Y-7269369D02*
X7054918Y-7165607D01*
X7110470Y-10138488D02*
G75*
G03*
X7059789Y-10236125I19920J-72312D01*
G01*
X7056727Y-8308128D02*
G75*
G03*
X7107638Y-8360250I72343J19738D01*
G01*
X12005000Y-10660301D02*
X13130000Y-10660301D01*
X7055080Y-7269369D02*
G75*
G03*
X7130082Y-7344250I75000J119D01*
G01*
X7129918Y-8106488D02*
X8255000Y-8106488D01*
X7109663Y-9630484D02*
G75*
G03*
X7058983Y-9728125I19927J-72316D01*
G01*
X8234331Y-9376250D02*
X7109248Y-9376250D01*
X10230000Y-9715513D02*
X10230000Y-8713513D01*
X13130000Y-8882301D02*
X12005000Y-8882301D01*
X8254998Y-11408250D02*
X7129998Y-11408250D01*
X12005000Y-12184301D02*
X13130000Y-12184301D01*
X10230000Y-10116000D02*
G75*
G03*
X10030000Y-10116000I-100000J0D01*
G01*
X7060761Y-10848123D02*
G75*
G03*
X7129998Y-10900250I71439J22843D01*
G01*
X8330000Y-7015488D02*
X8330000Y-6911513D01*
X13205000Y-7687301D02*
X13205000Y-7791301D01*
X13130000Y-11930300D02*
G75*
G03*
X13205000Y-11855301I0J75000D01*
G01*
X10030000Y-8713513D02*
X10030000Y-9715513D01*
X11929999Y-6279301D02*
G75*
G03*
X11855000Y-6204301I-74999J1D01*
G01*
X12005000Y-8882300D02*
G75*
G03*
X11930000Y-8957301I0J-75000D01*
G01*
X7132335Y-8614488D02*
X8257418Y-8614488D01*
X8330000Y-7523488D02*
X8330000Y-7424216D01*
X11929999Y-12109301D02*
G75*
G03*
X12005000Y-12184301I75001J1D01*
G01*
X8405000Y-6836510D02*
G75*
G03*
X8330000Y-6911513I0J-75000D01*
G01*
X13204999Y-12259301D02*
G75*
G03*
X13130000Y-12184301I-74999J1D01*
G01*
X8257582Y-8868250D02*
X7132500Y-8868250D01*
X13204999Y-10227301D02*
G75*
G03*
X13130000Y-10152301I-74999J1D01*
G01*
X10230000Y-12520000D02*
X10230000Y-11518000D01*
X13204999Y-10735301D02*
G75*
G03*
X13130000Y-10660301I-74999J1D01*
G01*
X10230000Y-8713513D02*
G75*
G03*
X10030000Y-8713513I-100000J0D01*
G01*
X7057500Y-8793369D02*
G75*
G03*
X7132500Y-8868250I75000J119D01*
G01*
X7111275Y-10646486D02*
G75*
G03*
X7060595Y-10744124I19925J-72314D01*
G01*
X8232720Y-8360250D02*
X7107638Y-8360250D01*
X10304915Y-6204301D02*
X11855000Y-6204301D01*
X13205000Y-11751301D02*
X13205000Y-11855301D01*
X11929999Y-9061301D02*
G75*
G03*
X12005000Y-9136301I75001J1D01*
G01*
X12005000Y-8628301D02*
X13130000Y-8628301D01*
X13130000Y-7866300D02*
G75*
G03*
X13205000Y-7791301I0J75000D01*
G01*
X13204999Y-9211301D02*
G75*
G03*
X13130000Y-9136301I-74999J1D01*
G01*
X11930000Y-7433301D02*
X11930000Y-7537301D01*
X13204999Y-11751301D02*
G75*
G03*
X13130000Y-11676301I-74999J1D01*
G01*
X7058343Y-9324125D02*
G75*
G03*
X7109248Y-9376250I72357J19745D01*
G01*
X12005000Y-7612301D02*
X13130000Y-7612301D01*
X10030000Y-10116000D02*
X10030000Y-11118000D01*
X7108858Y-9122488D02*
X8233940Y-9122488D01*
X11929999Y-11601301D02*
G75*
G03*
X12005000Y-11676301I75001J1D01*
G01*
X10030000Y-11118000D02*
G75*
G03*
X10230000Y-11118000I100000J0D01*
G01*
X7129917Y-8106491D02*
G75*
G03*
X7056565Y-8204127I-1868J-74969D01*
G01*
X13130000Y-12438300D02*
G75*
G03*
X13205000Y-12363301I0J75000D01*
G01*
X8235942Y-10392250D02*
X7110860Y-10392250D01*
X12005000Y-11676301D02*
X13130000Y-11676301D01*
X12005000Y-7866300D02*
G75*
G03*
X11930000Y-7941301I0J-75000D01*
G01*
X8329992Y-8964511D02*
G75*
G03*
X8257582Y-8868250I-71912J21271D01*
G01*
X10030000Y-7311513D02*
X10030000Y-8313513D01*
X12005000Y-12438300D02*
G75*
G03*
X11930000Y-12513301I0J-75000D01*
G01*
X12005000Y-11930300D02*
G75*
G03*
X11930000Y-12005301I0J-75000D01*
G01*
X8330000Y-8031488D02*
X8330000Y-7948513D01*
X12005000Y-9136301D02*
X13130000Y-9136301D01*
X8330000Y-11608513D02*
X8330000Y-11504513D01*
X8254998Y-10900250D02*
X7129998Y-10900250D01*
X7062336Y-11841369D02*
X7062207Y-11760122D01*
X7129918Y-7090488D02*
X8255000Y-7090488D01*
X13205000Y-7179301D02*
X13205000Y-7283301D01*
X11930000Y-8957301D02*
X11930000Y-9061301D01*
X11930000Y-6279301D02*
X11930000Y-7029301D01*
X8330006Y-7424217D02*
G75*
G03*
X8255165Y-7344250I-74846J4957D01*
G01*
X12005000Y-9390300D02*
G75*
G03*
X11930000Y-9465301I0J-75000D01*
G01*
X7111276Y-10646488D02*
X8236358Y-10646488D01*
X11929999Y-7029301D02*
G75*
G03*
X12005000Y-7104301I75001J1D01*
G01*
X10230000Y-11118000D02*
X10230000Y-10116000D01*
X13205000Y-8703301D02*
X13205000Y-8807301D01*
X10230000Y-12920000D02*
G75*
G03*
X10030000Y-12920000I-100000J0D01*
G01*
X10030000Y-9715513D02*
G75*
G03*
X10230000Y-9715513I100000J0D01*
G01*
X8405000Y-6836513D02*
X9955000Y-6836513D01*
X10030000Y-6911513D02*
G75*
G03*
X10230000Y-6911513I100000J0D01*
G01*
X8330000Y-12920000D02*
G75*
G03*
X8405000Y-12995000I75000J0D01*
G01*
X8262418Y-11916250D02*
X7137336Y-11916250D01*
X13130000Y-7358301D02*
X12005000Y-7358301D01*
X7132335Y-8614486D02*
G75*
G03*
X7057336Y-8689607I5J-75005D01*
G01*
X10229999Y-13363301D02*
G75*
G03*
X10305000Y-13438301I75001J1D01*
G01*
X8330000Y-10592513D02*
X8330000Y-10488513D01*
X11929999Y-10585301D02*
G75*
G03*
X12005000Y-10660301I75001J1D01*
G01*
X7109664Y-9630488D02*
X8234746Y-9630488D01*
X7055888Y-7777369D02*
X7055726Y-7675128D01*
X7055890Y-7777369D02*
G75*
G03*
X7130888Y-7852250I75000J119D01*
G01*
X8330009Y-10996516D02*
G75*
G03*
X8254998Y-10900250I-71909J21326D01*
G01*
X9955000Y-12995000D02*
X8405000Y-12995000D01*
X8254998Y-11662489D02*
G75*
G03*
X8330000Y-11608513I2992J74940D01*
G01*
X11929999Y-10077301D02*
G75*
G03*
X12005000Y-10152301I75001J1D01*
G01*
X10230000Y-8313513D02*
X10230000Y-7311513D01*
X8330004Y-9472514D02*
G75*
G03*
X8234331Y-9376250I-70494J25614D01*
G01*
X7059145Y-9832126D02*
G75*
G03*
X7110054Y-9884250I72345J19736D01*
G01*
X12005000Y-7358300D02*
G75*
G03*
X11930000Y-7433301I0J-75000D01*
G01*
X7108858Y-9122487D02*
G75*
G03*
X7058177Y-9220126I19922J-72314D01*
G01*
X10230000Y-6911513D02*
X10230000Y-6275722D01*
X13130000Y-10406301D02*
X12005000Y-10406301D01*
X7056730Y-8308127D02*
X7056565Y-8204127D01*
X7129918Y-7090488D02*
G75*
G03*
X7054918Y-7165607I2J-75002D01*
G01*
X10030000Y-8313513D02*
G75*
G03*
X10230000Y-8313513I100000J0D01*
G01*
X11930000Y-9465301D02*
X11930000Y-10077301D01*
X13205000Y-9211301D02*
X13205000Y-9315301D01*
X8236356Y-10646495D02*
G75*
G03*
X8330000Y-10592513I20844J72055D01*
G01*
X7062330Y-11841369D02*
G75*
G03*
X7137336Y-11916250I75010J129D01*
G01*
X11929999Y-7537301D02*
G75*
G03*
X12005000Y-7612301I75001J1D01*
G01*
X8330000Y-10084513D02*
X8330000Y-9980513D01*
X7061566Y-11356123D02*
X7061401Y-11252123D01*
X8257418Y-8614494D02*
G75*
G03*
X8330000Y-8560513I582J75004D01*
G01*
X8329997Y-9980512D02*
G75*
G03*
X8235136Y-9884250I-70607J25292D01*
G01*
X8330009Y-11504515D02*
G75*
G03*
X8254998Y-11408250I-71909J21326D01*
G01*
X7058342Y-9324126D02*
X7058177Y-9220126D01*
X9955000Y-12995000D02*
G75*
G03*
X10030000Y-12920000I0J75000D01*
G01*
X13204999Y-7179301D02*
G75*
G03*
X13130000Y-7104301I-74999J1D01*
G01*
X7129998Y-11662488D02*
X8254998Y-11662488D01*
X11855000Y-13438300D02*
G75*
G03*
X11930000Y-13363301I0J75000D01*
G01*
X8329998Y-11990882D02*
G75*
G03*
X8262418Y-11916250I-74998J2D01*
G01*
X10230000Y-13363301D02*
X10230000Y-12920000D01*
X8330000Y-9576513D02*
X8330000Y-9472513D01*
X7110470Y-10138488D02*
X8235552Y-10138488D01*
X7061570Y-11356122D02*
G75*
G03*
X7129998Y-11408250I71440J22802D01*
G01*
X8330000Y-11100513D02*
X8330000Y-10996513D01*
X13130000Y-7358300D02*
G75*
G03*
X13205000Y-7283301I0J75000D01*
G01*
X8255000Y-8106480D02*
G75*
G03*
X8330000Y-8031488I10J74990D01*
G01*
X11930000Y-10481301D02*
X11930000Y-10585301D01*
X11930000Y-12005301D02*
X11930000Y-12109301D01*
X13130000Y-8882300D02*
G75*
G03*
X13205000Y-8807301I0J75000D01*
G01*
X8255971Y-7852250D02*
X7130888Y-7852250D01*
X8233941Y-9122486D02*
G75*
G03*
X8330000Y-9068513I23099J71356D01*
G01*
X13130000Y-10406300D02*
G75*
G03*
X13205000Y-10331301I0J75000D01*
G01*
X12005000Y-10152301D02*
X13130000Y-10152301D01*
X7059954Y-10340124D02*
X7059789Y-10236125D01*
X13130000Y-9390300D02*
G75*
G03*
X13205000Y-9315301I0J75000D01*
G01*
X13204999Y-8703301D02*
G75*
G03*
X13130000Y-8628301I-74999J1D01*
G01*
X11929999Y-8553301D02*
G75*
G03*
X12005000Y-8628301I75001J1D01*
G01*
X8330000Y-9068513D02*
X8330000Y-8964513D01*
X7060760Y-10848124D02*
X7060595Y-10744124D01*
X7129998Y-11154491D02*
G75*
G03*
X7061401Y-11252123I2882J-74939D01*
G01*
X13130000Y-12438301D02*
X12005000Y-12438301D01*
X8254998Y-11154490D02*
G75*
G03*
X8330000Y-11100513I2992J74940D01*
G01*
X10304915Y-6204295D02*
G75*
G03*
X10230000Y-6275722I5J-75005D01*
G01*
X12005000Y-10914300D02*
G75*
G03*
X11930000Y-10989301I0J-75000D01*
G01*
X8234746Y-9630489D02*
G75*
G03*
X8330000Y-9576513I22354J71589D01*
G01*
X8330000Y-12920000D02*
X8330000Y-11990882D01*
X11930000Y-12513301D02*
X11930000Y-13363301D01*
X8255165Y-7344250D02*
X7130082Y-7344250D01*
X8235551Y-10138490D02*
G75*
G03*
X8330000Y-10084513I21609J71810D01*
G01*
X13130000Y-11930301D02*
X12005000Y-11930301D01*
D11*
D12*
X7914425Y-7678022D02*
X7954425Y-7718022D01*
X7954425Y-7678022D02*
X7914425Y-7718022D01*
X7927125Y-10751422D02*
X7967125Y-10791422D01*
X7967125Y-10751422D02*
X7927125Y-10791422D01*
X7927125Y-11259422D02*
X7967125Y-11299422D01*
X7967125Y-11259422D02*
X7927125Y-11299422D01*
X7927125Y-11767422D02*
X7967125Y-11807422D01*
X7967125Y-11767422D02*
X7927125Y-11807422D01*
X7939825Y-10243422D02*
X7979825Y-10283422D01*
X7979825Y-10243422D02*
X7939825Y-10283422D01*
X7952525Y-8211422D02*
X7992525Y-8251422D01*
X7992525Y-8211422D02*
X7952525Y-8251422D01*
X7965225Y-8719422D02*
X8005225Y-8759422D01*
X8005225Y-8719422D02*
X7965225Y-8759422D01*
X7965225Y-9227422D02*
X8005225Y-9267422D01*
X8005225Y-9227422D02*
X7965225Y-9267422D01*
X7965225Y-9735422D02*
X8005225Y-9775422D01*
X8005225Y-9735422D02*
X7965225Y-9775422D01*
X8066825Y-11259422D02*
X8106825Y-11299422D01*
X8106825Y-11259422D02*
X8066825Y-11299422D01*
X8066825Y-11767422D02*
X8106825Y-11807422D01*
X8106825Y-11767422D02*
X8066825Y-11807422D01*
X8079525Y-7678022D02*
X8119525Y-7718022D01*
X8119525Y-7678022D02*
X8079525Y-7718022D01*
X8104925Y-10243422D02*
X8144925Y-10283422D01*
X8144925Y-10243422D02*
X8104925Y-10283422D01*
X8104925Y-10751422D02*
X8144925Y-10791422D01*
X8144925Y-10751422D02*
X8104925Y-10791422D01*
X8117625Y-8719422D02*
X8157625Y-8759422D01*
X8157625Y-8719422D02*
X8117625Y-8759422D01*
X8130325Y-8211422D02*
X8170325Y-8251422D01*
X8170325Y-8211422D02*
X8130325Y-8251422D01*
X8130325Y-9735422D02*
X8170325Y-9775422D01*
X8170325Y-9735422D02*
X8130325Y-9775422D01*
X8143025Y-9227422D02*
X8183025Y-9267422D01*
X8183025Y-9227422D02*
X8143025Y-9267422D01*
X8206525Y-11767422D02*
X8246525Y-11807422D01*
X8246525Y-11767422D02*
X8206525Y-11807422D01*
X8219225Y-11259422D02*
X8259225Y-11299422D01*
X8259225Y-11259422D02*
X8219225Y-11299422D01*
X8257325Y-7678022D02*
X8297325Y-7718022D01*
X8297325Y-7678022D02*
X8257325Y-7718022D01*
X8257325Y-10243422D02*
X8297325Y-10283422D01*
X8297325Y-10243422D02*
X8257325Y-10283422D01*
X8257325Y-10751422D02*
X8297325Y-10791422D01*
X8297325Y-10751422D02*
X8257325Y-10791422D01*
X8282725Y-8719422D02*
X8322725Y-8759422D01*
X8322725Y-8719422D02*
X8282725Y-8759422D01*
X8282725Y-9735422D02*
X8322725Y-9775422D01*
X8322725Y-9735422D02*
X8282725Y-9775422D01*
X8308125Y-8211422D02*
X8348125Y-8251422D01*
X8348125Y-8211422D02*
X8308125Y-8251422D01*
X8308125Y-9227422D02*
X8348125Y-9267422D01*
X8348125Y-9227422D02*
X8308125Y-9267422D01*
X8955815Y-11462622D02*
X8995815Y-11502622D01*
X8995815Y-11462622D02*
X8955815Y-11502622D01*
X8981225Y-11005422D02*
X9021225Y-11045422D01*
X9021225Y-11005422D02*
X8981225Y-11045422D01*
X9082825Y-11005422D02*
X9122825Y-11045422D01*
X9122825Y-11005422D02*
X9082825Y-11045422D01*
X9108225Y-10002122D02*
X9148225Y-10042122D01*
X9148225Y-10002122D02*
X9108225Y-10042122D01*
X9222525Y-10002122D02*
X9262525Y-10042122D01*
X9262525Y-10002122D02*
X9222525Y-10042122D01*
X9547900Y-10024440D02*
X9587900Y-10064440D01*
X9587900Y-10024440D02*
X9547900Y-10064440D01*
X9870225Y-10524000D02*
X9910225Y-10564000D01*
X9910225Y-10524000D02*
X9870225Y-10564000D01*
X10369614Y-7527886D02*
X10409614Y-7567886D01*
X10409614Y-7527886D02*
X10369614Y-7567886D01*
X10369614Y-7710000D02*
X10409614Y-7750000D01*
X10409614Y-7710000D02*
X10369614Y-7750000D01*
X10376401Y-7871100D02*
X10416401Y-7911100D01*
X10416401Y-7871100D02*
X10376401Y-7911100D01*
X10377239Y-9542500D02*
X10417239Y-9582500D01*
X10417239Y-9542500D02*
X10377239Y-9582500D01*
X10558239Y-9972913D02*
X10598239Y-10012913D01*
X10598239Y-9972913D02*
X10558239Y-10012913D01*
X10579239Y-9725300D02*
X10619239Y-9765300D01*
X10619239Y-9725300D02*
X10579239Y-9765300D01*
X10600244Y-12764908D02*
X10640244Y-12804908D01*
X10640244Y-12764908D02*
X10600244Y-12804908D01*
X10704163Y-6908162D02*
X10744163Y-6948162D01*
X10744163Y-6908162D02*
X10704163Y-6948162D01*
X10790663Y-6821662D02*
X10830663Y-6861662D01*
X10830663Y-6821662D02*
X10790663Y-6861662D01*
X10795325Y-11681100D02*
X10835325Y-11721100D01*
X10835325Y-11681100D02*
X10795325Y-11721100D01*
X10812500Y-11085000D02*
X10852500Y-11125000D01*
X10852500Y-11085000D02*
X10812500Y-11125000D01*
X10832805Y-12391680D02*
X10872805Y-12431680D01*
X10872805Y-12391680D02*
X10832805Y-12431680D01*
X10870000Y-11012500D02*
X10910000Y-11052500D01*
X10910000Y-11012500D02*
X10870000Y-11052500D01*
X11311195Y-10975000D02*
X11351195Y-11015000D01*
X11351195Y-10975000D02*
X11311195Y-11015000D01*
X11481125Y-7375800D02*
X11521125Y-7415800D01*
X11521125Y-7375800D02*
X11481125Y-7415800D01*
X11519225Y-11935100D02*
X11559225Y-11975100D01*
X11559225Y-11935100D02*
X11519225Y-11975100D01*
X11549474Y-8996551D02*
X11589474Y-9036551D01*
X11589474Y-8996551D02*
X11549474Y-9036551D01*
X11615000Y-8465000D02*
X11655000Y-8505000D01*
X11655000Y-8465000D02*
X11615000Y-8505000D01*
X11615000Y-8555000D02*
X11655000Y-8595000D01*
X11655000Y-8555000D02*
X11615000Y-8595000D01*
X11693425Y-10319100D02*
X11733425Y-10359100D01*
X11733425Y-10319100D02*
X11693425Y-10359100D01*
X11709725Y-9001400D02*
X11749725Y-9041400D01*
X11749725Y-9001400D02*
X11709725Y-9041400D01*
X11714425Y-7379100D02*
X11754425Y-7419100D01*
X11754425Y-7379100D02*
X11714425Y-7419100D01*
X11714425Y-11936100D02*
X11754425Y-11976100D01*
X11754425Y-11936100D02*
X11714425Y-11976100D01*
X11735124Y-10425050D02*
X11775124Y-10465050D01*
X11775124Y-10425050D02*
X11735124Y-10465050D01*
X11775000Y-7950000D02*
X11815000Y-7990000D01*
X11815000Y-7950000D02*
X11775000Y-7990000D01*
X11785824Y-8040826D02*
X11825824Y-8080826D01*
X11825824Y-8040826D02*
X11785824Y-8080826D01*
X11983425Y-10267100D02*
X12023425Y-10307100D01*
X12023425Y-10267100D02*
X11983425Y-10307100D01*
X11983425Y-10769109D02*
X12023425Y-10809109D01*
X12023425Y-10769109D02*
X11983425Y-10809109D01*
X11993425Y-9247100D02*
X12033425Y-9287100D01*
X12033425Y-9247100D02*
X11993425Y-9287100D01*
X11994803Y-12292477D02*
X12034803Y-12332477D01*
X12034803Y-12292477D02*
X11994803Y-12332477D01*
X12003425Y-7719184D02*
X12043425Y-7759184D01*
X12043425Y-7719184D02*
X12003425Y-7759184D01*
X12003425Y-8737100D02*
X12043425Y-8777100D01*
X12043425Y-8737100D02*
X12003425Y-8777100D01*
X12006425Y-7208100D02*
X12046425Y-7248100D01*
X12046425Y-7208100D02*
X12006425Y-7248100D01*
X12023425Y-11784093D02*
X12063425Y-11824093D01*
X12063425Y-11784093D02*
X12023425Y-11824093D01*
X12109425Y-9247100D02*
X12149425Y-9287100D01*
X12149425Y-9247100D02*
X12109425Y-9287100D01*
X12113425Y-10767100D02*
X12153425Y-10807100D01*
X12153425Y-10767100D02*
X12113425Y-10807100D01*
X12120425Y-8734100D02*
X12160425Y-8774100D01*
X12160425Y-8734100D02*
X12120425Y-8774100D01*
X12125425Y-7211100D02*
X12165425Y-7251100D01*
X12165425Y-7211100D02*
X12125425Y-7251100D01*
X12125425Y-7720100D02*
X12165425Y-7760100D01*
X12165425Y-7720100D02*
X12125425Y-7760100D01*
X12127425Y-10267100D02*
X12167425Y-10307100D01*
X12167425Y-10267100D02*
X12127425Y-10307100D01*
X12146783Y-11785905D02*
X12186783Y-11825905D01*
X12186783Y-11785905D02*
X12146783Y-11825905D01*
X12167047Y-12292478D02*
X12207047Y-12332478D01*
X12207047Y-12292478D02*
X12167047Y-12332478D01*
X12227425Y-9247100D02*
X12267425Y-9287100D01*
X12267425Y-9247100D02*
X12227425Y-9287100D01*
X12244425Y-8736100D02*
X12284425Y-8776100D01*
X12284425Y-8736100D02*
X12244425Y-8776100D01*
X12255425Y-10764100D02*
X12295425Y-10804100D01*
X12295425Y-10764100D02*
X12255425Y-10804100D01*
X12256425Y-7718100D02*
X12296425Y-7758100D01*
X12296425Y-7718100D02*
X12256425Y-7758100D01*
X12266425Y-7211100D02*
X12306425Y-7251100D01*
X12306425Y-7211100D02*
X12266425Y-7251100D01*
X12270425Y-10265100D02*
X12310425Y-10305100D01*
X12310425Y-10265100D02*
X12270425Y-10305100D01*
X12280255Y-11784257D02*
X12320255Y-11824257D01*
X12320255Y-11784257D02*
X12280255Y-11824257D01*
X12310047Y-12292478D02*
X12350047Y-12332478D01*
X12350047Y-12292478D02*
X12310047Y-12332478D01*
X8527825Y-11031222D02*
G75*
G03*
X8447825Y-11031222I-40000J0D01*
G01*
X8447825Y-11031222D02*
G75*
G03*
X8527825Y-11031222I40000J0D01*
G01*
X8527825Y-11539222D02*
G75*
G03*
X8447825Y-11539222I-40000J0D01*
G01*
X8447825Y-11539222D02*
G75*
G03*
X8527825Y-11539222I40000J0D01*
G01*
X8531825Y-8500222D02*
G75*
G03*
X8451825Y-8500222I-40000J0D01*
G01*
X8451825Y-8500222D02*
G75*
G03*
X8531825Y-8500222I40000J0D01*
G01*
X8531825Y-9008222D02*
G75*
G03*
X8451825Y-9008222I-40000J0D01*
G01*
X8451825Y-9008222D02*
G75*
G03*
X8531825Y-9008222I40000J0D01*
G01*
X8531825Y-10029722D02*
G75*
G03*
X8451825Y-10029722I-40000J0D01*
G01*
X8451825Y-10029722D02*
G75*
G03*
X8531825Y-10029722I40000J0D01*
G01*
X8531825Y-10537722D02*
G75*
G03*
X8451825Y-10537722I-40000J0D01*
G01*
X8451825Y-10537722D02*
G75*
G03*
X8531825Y-10537722I40000J0D01*
G01*
X8540825Y-7478222D02*
G75*
G03*
X8460825Y-7478222I-40000J0D01*
G01*
X8460825Y-7478222D02*
G75*
G03*
X8540825Y-7478222I40000J0D01*
G01*
X8540825Y-7986222D02*
G75*
G03*
X8460825Y-7986222I-40000J0D01*
G01*
X8460825Y-7986222D02*
G75*
G03*
X8540825Y-7986222I40000J0D01*
G01*
X8816000Y-12547470D02*
X8816000Y-12646530D01*
X8766470Y-12597000D02*
X8865530Y-12597000D01*
X9066000Y-12547470D02*
X9066000Y-12646530D01*
X9016470Y-12597000D02*
X9115530Y-12597000D01*
X9316000Y-12547470D02*
X9316000Y-12646530D01*
X9266470Y-12597000D02*
X9365530Y-12597000D01*
X9566000Y-12547470D02*
X9566000Y-12646530D01*
X9516470Y-12597000D02*
X9615530Y-12597000D01*
X10676000Y-13019470D02*
X10676000Y-13118530D01*
X10626470Y-13069000D02*
X10725530Y-13069000D01*
X10926000Y-13019470D02*
X10926000Y-13118530D01*
X10876470Y-13069000D02*
X10975530Y-13069000D01*
X11176000Y-13019470D02*
X11176000Y-13118530D01*
X11126470Y-13069000D02*
X11225530Y-13069000D01*
X11426000Y-13019470D02*
X11426000Y-13118530D01*
X11376470Y-13069000D02*
X11475530Y-13069000D01*
D13*
X9309962Y-7279962D02*
X9309962Y-7188038D01*
X9218038Y-7188038D01*
X9218038Y-7279962D01*
X9309962Y-7279962D01*
X9309962Y-7787962D02*
X9309962Y-7696038D01*
X9218038Y-7696038D01*
X9218038Y-7787962D01*
X9309962Y-7787962D01*
X9309962Y-8295962D02*
X9309962Y-8204038D01*
X9218038Y-8204038D01*
X9218038Y-8295962D01*
X9309962Y-8295962D01*
X9309962Y-8803962D02*
X9309962Y-8712038D01*
X9218038Y-8712038D01*
X9218038Y-8803962D01*
X9309962Y-8803962D01*
X9309962Y-9311962D02*
X9309962Y-9220038D01*
X9218038Y-9220038D01*
X9218038Y-9311962D01*
X9309962Y-9311962D01*
X9309962Y-9819962D02*
X9309962Y-9728038D01*
X9218038Y-9728038D01*
X9218038Y-9819962D01*
X9309962Y-9819962D01*
X9309962Y-10327962D02*
X9309962Y-10236038D01*
X9218038Y-10236038D01*
X9218038Y-10327962D01*
X9309962Y-10327962D01*
X9309962Y-10835962D02*
X9309962Y-10744038D01*
X9218038Y-10744038D01*
X9218038Y-10835962D01*
X9309962Y-10835962D01*
X9309962Y-11343962D02*
X9309962Y-11252038D01*
X9218038Y-11252038D01*
X9218038Y-11343962D01*
X9309962Y-11343962D01*
X9309962Y-11851962D02*
X9309962Y-11760038D01*
X9218038Y-11760038D01*
X9218038Y-11851962D01*
X9309962Y-11851962D01*
X11095962Y-6770962D02*
X11095962Y-6679038D01*
X11004038Y-6679038D01*
X11004038Y-6770962D01*
X11095962Y-6770962D01*
X11095962Y-7278962D02*
X11095962Y-7187038D01*
X11004038Y-7187038D01*
X11004038Y-7278962D01*
X11095962Y-7278962D01*
X11095962Y-7786962D02*
X11095962Y-7695038D01*
X11004038Y-7695038D01*
X11004038Y-7786962D01*
X11095962Y-7786962D01*
X11095962Y-8810962D02*
X11095962Y-8719038D01*
X11004038Y-8719038D01*
X11004038Y-8810962D01*
X11095962Y-8810962D01*
X11095962Y-9318962D02*
X11095962Y-9227038D01*
X11004038Y-9227038D01*
X11004038Y-9318962D01*
X11095962Y-9318962D01*
X11095962Y-10326962D02*
X11095962Y-10235038D01*
X11004038Y-10235038D01*
X11004038Y-10326962D01*
X11095962Y-10326962D01*
X11095962Y-10834962D02*
X11095962Y-10743038D01*
X11004038Y-10743038D01*
X11004038Y-10834962D01*
X11095962Y-10834962D01*
X11095962Y-11850962D02*
X11095962Y-11759038D01*
X11004038Y-11759038D01*
X11004038Y-11850962D01*
X11095962Y-11850962D01*
X11095962Y-12358962D02*
X11095962Y-12267038D01*
X11004038Y-12267038D01*
X11004038Y-12358962D01*
X11095962Y-12358962D01*
D11*
X7301334Y-13762284D02*
X7301334Y-13562284D01*
X7301334Y-13562284D02*
X7348953Y-13562284D01*
X7348953Y-13562284D02*
X7377525Y-13571808D01*
X7377525Y-13571808D02*
X7396572Y-13590856D01*
X7396572Y-13590856D02*
X7406096Y-13609903D01*
X7406096Y-13609903D02*
X7415620Y-13647999D01*
X7415620Y-13647999D02*
X7415620Y-13676570D01*
X7415620Y-13676570D02*
X7406096Y-13714665D01*
X7406096Y-13714665D02*
X7396572Y-13733713D01*
X7396572Y-13733713D02*
X7377525Y-13752761D01*
X7377525Y-13752761D02*
X7348953Y-13762284D01*
X7348953Y-13762284D02*
X7301334Y-13762284D01*
X7501334Y-13762284D02*
X7501334Y-13628951D01*
X7501334Y-13667046D02*
X7510858Y-13647999D01*
X7510858Y-13647999D02*
X7520382Y-13638475D01*
X7520382Y-13638475D02*
X7539430Y-13628951D01*
X7539430Y-13628951D02*
X7558477Y-13628951D01*
X7625144Y-13762284D02*
X7625144Y-13628951D01*
X7625144Y-13562284D02*
X7615620Y-13571808D01*
X7615620Y-13571808D02*
X7625144Y-13581332D01*
X7625144Y-13581332D02*
X7634668Y-13571808D01*
X7634668Y-13571808D02*
X7625144Y-13562284D01*
X7625144Y-13562284D02*
X7625144Y-13581332D01*
X7748953Y-13762284D02*
X7729906Y-13752761D01*
X7729906Y-13752761D02*
X7720382Y-13733713D01*
X7720382Y-13733713D02*
X7720382Y-13562284D01*
X7853715Y-13762284D02*
X7834668Y-13752761D01*
X7834668Y-13752761D02*
X7825144Y-13733713D01*
X7825144Y-13733713D02*
X7825144Y-13562284D01*
X8082287Y-13762284D02*
X8082287Y-13562284D01*
X8082287Y-13562284D02*
X8148953Y-13705142D01*
X8148953Y-13705142D02*
X8215620Y-13562284D01*
X8215620Y-13562284D02*
X8215620Y-13762284D01*
X8396573Y-13762284D02*
X8396573Y-13657523D01*
X8396573Y-13657523D02*
X8387049Y-13638475D01*
X8387049Y-13638475D02*
X8368001Y-13628951D01*
X8368001Y-13628951D02*
X8329906Y-13628951D01*
X8329906Y-13628951D02*
X8310858Y-13638475D01*
X8396573Y-13752761D02*
X8377525Y-13762284D01*
X8377525Y-13762284D02*
X8329906Y-13762284D01*
X8329906Y-13762284D02*
X8310858Y-13752761D01*
X8310858Y-13752761D02*
X8301334Y-13733713D01*
X8301334Y-13733713D02*
X8301334Y-13714665D01*
X8301334Y-13714665D02*
X8310858Y-13695618D01*
X8310858Y-13695618D02*
X8329906Y-13686094D01*
X8329906Y-13686094D02*
X8377525Y-13686094D01*
X8377525Y-13686094D02*
X8396573Y-13676570D01*
X8491811Y-13628951D02*
X8491811Y-13828951D01*
X8491811Y-13638475D02*
X8510858Y-13628951D01*
X8510858Y-13628951D02*
X8548954Y-13628951D01*
X8548954Y-13628951D02*
X8568001Y-13638475D01*
X8568001Y-13638475D02*
X8577525Y-13647999D01*
X8577525Y-13647999D02*
X8587049Y-13667046D01*
X8587049Y-13667046D02*
X8587049Y-13724189D01*
X8587049Y-13724189D02*
X8577525Y-13743237D01*
X8577525Y-13743237D02*
X8568001Y-13752761D01*
X8568001Y-13752761D02*
X8548954Y-13762284D01*
X8548954Y-13762284D02*
X8510858Y-13762284D01*
X8510858Y-13762284D02*
X8491811Y-13752761D01*
X8672763Y-13743237D02*
X8682287Y-13752761D01*
X8682287Y-13752761D02*
X8672763Y-13762284D01*
X8672763Y-13762284D02*
X8663239Y-13752761D01*
X8663239Y-13752761D02*
X8672763Y-13743237D01*
X8672763Y-13743237D02*
X8672763Y-13762284D01*
X8672763Y-13638475D02*
X8682287Y-13647999D01*
X8682287Y-13647999D02*
X8672763Y-13657523D01*
X8672763Y-13657523D02*
X8663239Y-13647999D01*
X8663239Y-13647999D02*
X8672763Y-13638475D01*
X8672763Y-13638475D02*
X8672763Y-13657523D01*
D12*
X7000558Y-14070801D02*
X7040558Y-14110801D01*
X7040558Y-14070801D02*
X7000558Y-14110801D01*
D11*
X7339430Y-13982284D02*
X7358477Y-13982284D01*
X7358477Y-13982284D02*
X7377525Y-13991808D01*
X7377525Y-13991808D02*
X7387049Y-14001332D01*
X7387049Y-14001332D02*
X7396572Y-14020380D01*
X7396572Y-14020380D02*
X7406096Y-14058475D01*
X7406096Y-14058475D02*
X7406096Y-14106094D01*
X7406096Y-14106094D02*
X7396572Y-14144189D01*
X7396572Y-14144189D02*
X7387049Y-14163237D01*
X7387049Y-14163237D02*
X7377525Y-14172761D01*
X7377525Y-14172761D02*
X7358477Y-14182284D01*
X7358477Y-14182284D02*
X7339430Y-14182284D01*
X7339430Y-14182284D02*
X7320382Y-14172761D01*
X7320382Y-14172761D02*
X7310858Y-14163237D01*
X7310858Y-14163237D02*
X7301334Y-14144189D01*
X7301334Y-14144189D02*
X7291811Y-14106094D01*
X7291811Y-14106094D02*
X7291811Y-14058475D01*
X7291811Y-14058475D02*
X7301334Y-14020380D01*
X7301334Y-14020380D02*
X7310858Y-14001332D01*
X7310858Y-14001332D02*
X7320382Y-13991808D01*
X7320382Y-13991808D02*
X7339430Y-13982284D01*
X7491811Y-14163237D02*
X7501334Y-14172761D01*
X7501334Y-14172761D02*
X7491811Y-14182284D01*
X7491811Y-14182284D02*
X7482287Y-14172761D01*
X7482287Y-14172761D02*
X7491811Y-14163237D01*
X7491811Y-14163237D02*
X7491811Y-14182284D01*
X7672763Y-14048951D02*
X7672763Y-14182284D01*
X7625144Y-13972761D02*
X7577525Y-14115618D01*
X7577525Y-14115618D02*
X7701334Y-14115618D01*
X7815620Y-13982284D02*
X7834668Y-13982284D01*
X7834668Y-13982284D02*
X7853715Y-13991808D01*
X7853715Y-13991808D02*
X7863239Y-14001332D01*
X7863239Y-14001332D02*
X7872763Y-14020380D01*
X7872763Y-14020380D02*
X7882287Y-14058475D01*
X7882287Y-14058475D02*
X7882287Y-14106094D01*
X7882287Y-14106094D02*
X7872763Y-14144189D01*
X7872763Y-14144189D02*
X7863239Y-14163237D01*
X7863239Y-14163237D02*
X7853715Y-14172761D01*
X7853715Y-14172761D02*
X7834668Y-14182284D01*
X7834668Y-14182284D02*
X7815620Y-14182284D01*
X7815620Y-14182284D02*
X7796572Y-14172761D01*
X7796572Y-14172761D02*
X7787049Y-14163237D01*
X7787049Y-14163237D02*
X7777525Y-14144189D01*
X7777525Y-14144189D02*
X7768001Y-14106094D01*
X7768001Y-14106094D02*
X7768001Y-14058475D01*
X7768001Y-14058475D02*
X7777525Y-14020380D01*
X7777525Y-14020380D02*
X7787049Y-14001332D01*
X7787049Y-14001332D02*
X7796572Y-13991808D01*
X7796572Y-13991808D02*
X7815620Y-13982284D01*
X8006096Y-13982284D02*
X8025144Y-13982284D01*
X8025144Y-13982284D02*
X8044192Y-13991808D01*
X8044192Y-13991808D02*
X8053715Y-14001332D01*
X8053715Y-14001332D02*
X8063239Y-14020380D01*
X8063239Y-14020380D02*
X8072763Y-14058475D01*
X8072763Y-14058475D02*
X8072763Y-14106094D01*
X8072763Y-14106094D02*
X8063239Y-14144189D01*
X8063239Y-14144189D02*
X8053715Y-14163237D01*
X8053715Y-14163237D02*
X8044192Y-14172761D01*
X8044192Y-14172761D02*
X8025144Y-14182284D01*
X8025144Y-14182284D02*
X8006096Y-14182284D01*
X8006096Y-14182284D02*
X7987049Y-14172761D01*
X7987049Y-14172761D02*
X7977525Y-14163237D01*
X7977525Y-14163237D02*
X7968001Y-14144189D01*
X7968001Y-14144189D02*
X7958477Y-14106094D01*
X7958477Y-14106094D02*
X7958477Y-14058475D01*
X7958477Y-14058475D02*
X7968001Y-14020380D01*
X7968001Y-14020380D02*
X7977525Y-14001332D01*
X7977525Y-14001332D02*
X7987049Y-13991808D01*
X7987049Y-13991808D02*
X8006096Y-13982284D01*
X8158477Y-14182284D02*
X8158477Y-14048951D01*
X8158477Y-14067999D02*
X8168001Y-14058475D01*
X8168001Y-14058475D02*
X8187049Y-14048951D01*
X8187049Y-14048951D02*
X8215620Y-14048951D01*
X8215620Y-14048951D02*
X8234668Y-14058475D01*
X8234668Y-14058475D02*
X8244192Y-14077523D01*
X8244192Y-14077523D02*
X8244192Y-14182284D01*
X8244192Y-14077523D02*
X8253715Y-14058475D01*
X8253715Y-14058475D02*
X8272763Y-14048951D01*
X8272763Y-14048951D02*
X8301334Y-14048951D01*
X8301334Y-14048951D02*
X8320382Y-14058475D01*
X8320382Y-14058475D02*
X8329906Y-14077523D01*
X8329906Y-14077523D02*
X8329906Y-14182284D01*
X8425144Y-14182284D02*
X8425144Y-14048951D01*
X8425144Y-14067999D02*
X8434668Y-14058475D01*
X8434668Y-14058475D02*
X8453715Y-14048951D01*
X8453715Y-14048951D02*
X8482287Y-14048951D01*
X8482287Y-14048951D02*
X8501335Y-14058475D01*
X8501335Y-14058475D02*
X8510858Y-14077523D01*
X8510858Y-14077523D02*
X8510858Y-14182284D01*
X8510858Y-14077523D02*
X8520382Y-14058475D01*
X8520382Y-14058475D02*
X8539430Y-14048951D01*
X8539430Y-14048951D02*
X8568001Y-14048951D01*
X8568001Y-14048951D02*
X8587049Y-14058475D01*
X8587049Y-14058475D02*
X8596573Y-14077523D01*
X8596573Y-14077523D02*
X8596573Y-14182284D01*
X8987049Y-13972761D02*
X8815620Y-14229903D01*
X9244192Y-13982284D02*
X9263239Y-13982284D01*
X9263239Y-13982284D02*
X9282287Y-13991808D01*
X9282287Y-13991808D02*
X9291811Y-14001332D01*
X9291811Y-14001332D02*
X9301335Y-14020380D01*
X9301335Y-14020380D02*
X9310858Y-14058475D01*
X9310858Y-14058475D02*
X9310858Y-14106094D01*
X9310858Y-14106094D02*
X9301335Y-14144189D01*
X9301335Y-14144189D02*
X9291811Y-14163237D01*
X9291811Y-14163237D02*
X9282287Y-14172761D01*
X9282287Y-14172761D02*
X9263239Y-14182284D01*
X9263239Y-14182284D02*
X9244192Y-14182284D01*
X9244192Y-14182284D02*
X9225144Y-14172761D01*
X9225144Y-14172761D02*
X9215620Y-14163237D01*
X9215620Y-14163237D02*
X9206097Y-14144189D01*
X9206097Y-14144189D02*
X9196573Y-14106094D01*
X9196573Y-14106094D02*
X9196573Y-14058475D01*
X9196573Y-14058475D02*
X9206097Y-14020380D01*
X9206097Y-14020380D02*
X9215620Y-14001332D01*
X9215620Y-14001332D02*
X9225144Y-13991808D01*
X9225144Y-13991808D02*
X9244192Y-13982284D01*
X9396573Y-14163237D02*
X9406097Y-14172761D01*
X9406097Y-14172761D02*
X9396573Y-14182284D01*
X9396573Y-14182284D02*
X9387049Y-14172761D01*
X9387049Y-14172761D02*
X9396573Y-14163237D01*
X9396573Y-14163237D02*
X9396573Y-14182284D01*
X9529906Y-13982284D02*
X9548954Y-13982284D01*
X9548954Y-13982284D02*
X9568001Y-13991808D01*
X9568001Y-13991808D02*
X9577525Y-14001332D01*
X9577525Y-14001332D02*
X9587049Y-14020380D01*
X9587049Y-14020380D02*
X9596573Y-14058475D01*
X9596573Y-14058475D02*
X9596573Y-14106094D01*
X9596573Y-14106094D02*
X9587049Y-14144189D01*
X9587049Y-14144189D02*
X9577525Y-14163237D01*
X9577525Y-14163237D02*
X9568001Y-14172761D01*
X9568001Y-14172761D02*
X9548954Y-14182284D01*
X9548954Y-14182284D02*
X9529906Y-14182284D01*
X9529906Y-14182284D02*
X9510858Y-14172761D01*
X9510858Y-14172761D02*
X9501335Y-14163237D01*
X9501335Y-14163237D02*
X9491811Y-14144189D01*
X9491811Y-14144189D02*
X9482287Y-14106094D01*
X9482287Y-14106094D02*
X9482287Y-14058475D01*
X9482287Y-14058475D02*
X9491811Y-14020380D01*
X9491811Y-14020380D02*
X9501335Y-14001332D01*
X9501335Y-14001332D02*
X9510858Y-13991808D01*
X9510858Y-13991808D02*
X9529906Y-13982284D01*
X9787049Y-14182284D02*
X9672763Y-14182284D01*
X9729906Y-14182284D02*
X9729906Y-13982284D01*
X9729906Y-13982284D02*
X9710858Y-14010856D01*
X9710858Y-14010856D02*
X9691811Y-14029903D01*
X9691811Y-14029903D02*
X9672763Y-14039427D01*
X9968001Y-13982284D02*
X9872763Y-13982284D01*
X9872763Y-13982284D02*
X9863239Y-14077523D01*
X9863239Y-14077523D02*
X9872763Y-14067999D01*
X9872763Y-14067999D02*
X9891811Y-14058475D01*
X9891811Y-14058475D02*
X9939430Y-14058475D01*
X9939430Y-14058475D02*
X9958478Y-14067999D01*
X9958478Y-14067999D02*
X9968001Y-14077523D01*
X9968001Y-14077523D02*
X9977525Y-14096570D01*
X9977525Y-14096570D02*
X9977525Y-14144189D01*
X9977525Y-14144189D02*
X9968001Y-14163237D01*
X9968001Y-14163237D02*
X9958478Y-14172761D01*
X9958478Y-14172761D02*
X9939430Y-14182284D01*
X9939430Y-14182284D02*
X9891811Y-14182284D01*
X9891811Y-14182284D02*
X9872763Y-14172761D01*
X9872763Y-14172761D02*
X9863239Y-14163237D01*
X10044192Y-13982284D02*
X10177525Y-13982284D01*
X10177525Y-13982284D02*
X10091811Y-14182284D01*
X10244192Y-13982284D02*
X10244192Y-14020380D01*
X10320382Y-13982284D02*
X10320382Y-14020380D01*
X10615621Y-14258475D02*
X10606097Y-14248951D01*
X10606097Y-14248951D02*
X10587049Y-14220380D01*
X10587049Y-14220380D02*
X10577525Y-14201332D01*
X10577525Y-14201332D02*
X10568001Y-14172761D01*
X10568001Y-14172761D02*
X10558478Y-14125142D01*
X10558478Y-14125142D02*
X10558478Y-14087046D01*
X10558478Y-14087046D02*
X10568001Y-14039427D01*
X10568001Y-14039427D02*
X10577525Y-14010856D01*
X10577525Y-14010856D02*
X10587049Y-13991808D01*
X10587049Y-13991808D02*
X10606097Y-13963237D01*
X10606097Y-13963237D02*
X10615621Y-13953713D01*
X10720382Y-14067999D02*
X10701335Y-14058475D01*
X10701335Y-14058475D02*
X10691811Y-14048951D01*
X10691811Y-14048951D02*
X10682287Y-14029903D01*
X10682287Y-14029903D02*
X10682287Y-14020380D01*
X10682287Y-14020380D02*
X10691811Y-14001332D01*
X10691811Y-14001332D02*
X10701335Y-13991808D01*
X10701335Y-13991808D02*
X10720382Y-13982284D01*
X10720382Y-13982284D02*
X10758478Y-13982284D01*
X10758478Y-13982284D02*
X10777525Y-13991808D01*
X10777525Y-13991808D02*
X10787049Y-14001332D01*
X10787049Y-14001332D02*
X10796573Y-14020380D01*
X10796573Y-14020380D02*
X10796573Y-14029903D01*
X10796573Y-14029903D02*
X10787049Y-14048951D01*
X10787049Y-14048951D02*
X10777525Y-14058475D01*
X10777525Y-14058475D02*
X10758478Y-14067999D01*
X10758478Y-14067999D02*
X10720382Y-14067999D01*
X10720382Y-14067999D02*
X10701335Y-14077523D01*
X10701335Y-14077523D02*
X10691811Y-14087046D01*
X10691811Y-14087046D02*
X10682287Y-14106094D01*
X10682287Y-14106094D02*
X10682287Y-14144189D01*
X10682287Y-14144189D02*
X10691811Y-14163237D01*
X10691811Y-14163237D02*
X10701335Y-14172761D01*
X10701335Y-14172761D02*
X10720382Y-14182284D01*
X10720382Y-14182284D02*
X10758478Y-14182284D01*
X10758478Y-14182284D02*
X10777525Y-14172761D01*
X10777525Y-14172761D02*
X10787049Y-14163237D01*
X10787049Y-14163237D02*
X10796573Y-14144189D01*
X10796573Y-14144189D02*
X10796573Y-14106094D01*
X10796573Y-14106094D02*
X10787049Y-14087046D01*
X10787049Y-14087046D02*
X10777525Y-14077523D01*
X10777525Y-14077523D02*
X10758478Y-14067999D01*
X10968001Y-14048951D02*
X10968001Y-14182284D01*
X10920382Y-13972761D02*
X10872763Y-14115618D01*
X10872763Y-14115618D02*
X10996573Y-14115618D01*
X11225144Y-14182284D02*
X11225144Y-13982284D01*
X11310859Y-14182284D02*
X11310859Y-14077523D01*
X11310859Y-14077523D02*
X11301335Y-14058475D01*
X11301335Y-14058475D02*
X11282287Y-14048951D01*
X11282287Y-14048951D02*
X11253716Y-14048951D01*
X11253716Y-14048951D02*
X11234668Y-14058475D01*
X11234668Y-14058475D02*
X11225144Y-14067999D01*
X11434668Y-14182284D02*
X11415620Y-14172761D01*
X11415620Y-14172761D02*
X11406097Y-14163237D01*
X11406097Y-14163237D02*
X11396573Y-14144189D01*
X11396573Y-14144189D02*
X11396573Y-14087046D01*
X11396573Y-14087046D02*
X11406097Y-14067999D01*
X11406097Y-14067999D02*
X11415620Y-14058475D01*
X11415620Y-14058475D02*
X11434668Y-14048951D01*
X11434668Y-14048951D02*
X11463240Y-14048951D01*
X11463240Y-14048951D02*
X11482287Y-14058475D01*
X11482287Y-14058475D02*
X11491811Y-14067999D01*
X11491811Y-14067999D02*
X11501335Y-14087046D01*
X11501335Y-14087046D02*
X11501335Y-14144189D01*
X11501335Y-14144189D02*
X11491811Y-14163237D01*
X11491811Y-14163237D02*
X11482287Y-14172761D01*
X11482287Y-14172761D02*
X11463240Y-14182284D01*
X11463240Y-14182284D02*
X11434668Y-14182284D01*
X11615620Y-14182284D02*
X11596573Y-14172761D01*
X11596573Y-14172761D02*
X11587049Y-14153713D01*
X11587049Y-14153713D02*
X11587049Y-13982284D01*
X11768001Y-14172761D02*
X11748954Y-14182284D01*
X11748954Y-14182284D02*
X11710859Y-14182284D01*
X11710859Y-14182284D02*
X11691811Y-14172761D01*
X11691811Y-14172761D02*
X11682287Y-14153713D01*
X11682287Y-14153713D02*
X11682287Y-14077523D01*
X11682287Y-14077523D02*
X11691811Y-14058475D01*
X11691811Y-14058475D02*
X11710859Y-14048951D01*
X11710859Y-14048951D02*
X11748954Y-14048951D01*
X11748954Y-14048951D02*
X11768001Y-14058475D01*
X11768001Y-14058475D02*
X11777525Y-14077523D01*
X11777525Y-14077523D02*
X11777525Y-14096570D01*
X11777525Y-14096570D02*
X11682287Y-14115618D01*
X11853716Y-14172761D02*
X11872763Y-14182284D01*
X11872763Y-14182284D02*
X11910859Y-14182284D01*
X11910859Y-14182284D02*
X11929906Y-14172761D01*
X11929906Y-14172761D02*
X11939430Y-14153713D01*
X11939430Y-14153713D02*
X11939430Y-14144189D01*
X11939430Y-14144189D02*
X11929906Y-14125142D01*
X11929906Y-14125142D02*
X11910859Y-14115618D01*
X11910859Y-14115618D02*
X11882287Y-14115618D01*
X11882287Y-14115618D02*
X11863240Y-14106094D01*
X11863240Y-14106094D02*
X11853716Y-14087046D01*
X11853716Y-14087046D02*
X11853716Y-14077523D01*
X11853716Y-14077523D02*
X11863240Y-14058475D01*
X11863240Y-14058475D02*
X11882287Y-14048951D01*
X11882287Y-14048951D02*
X11910859Y-14048951D01*
X11910859Y-14048951D02*
X11929906Y-14058475D01*
X12006097Y-14258475D02*
X12015621Y-14248951D01*
X12015621Y-14248951D02*
X12034668Y-14220380D01*
X12034668Y-14220380D02*
X12044192Y-14201332D01*
X12044192Y-14201332D02*
X12053716Y-14172761D01*
X12053716Y-14172761D02*
X12063240Y-14125142D01*
X12063240Y-14125142D02*
X12063240Y-14087046D01*
X12063240Y-14087046D02*
X12053716Y-14039427D01*
X12053716Y-14039427D02*
X12044192Y-14010856D01*
X12044192Y-14010856D02*
X12034668Y-13991808D01*
X12034668Y-13991808D02*
X12015621Y-13963237D01*
X12015621Y-13963237D02*
X12006097Y-13953713D01*
D12*
X7040558Y-14354801D02*
G75*
G03*
X6960558Y-14354801I-40000J0D01*
G01*
X6960558Y-14354801D02*
G75*
G03*
X7040558Y-14354801I40000J0D01*
G01*
D11*
X7339430Y-14246284D02*
X7358477Y-14246284D01*
X7358477Y-14246284D02*
X7377525Y-14255808D01*
X7377525Y-14255808D02*
X7387049Y-14265332D01*
X7387049Y-14265332D02*
X7396572Y-14284380D01*
X7396572Y-14284380D02*
X7406096Y-14322475D01*
X7406096Y-14322475D02*
X7406096Y-14370094D01*
X7406096Y-14370094D02*
X7396572Y-14408189D01*
X7396572Y-14408189D02*
X7387049Y-14427237D01*
X7387049Y-14427237D02*
X7377525Y-14436761D01*
X7377525Y-14436761D02*
X7358477Y-14446284D01*
X7358477Y-14446284D02*
X7339430Y-14446284D01*
X7339430Y-14446284D02*
X7320382Y-14436761D01*
X7320382Y-14436761D02*
X7310858Y-14427237D01*
X7310858Y-14427237D02*
X7301334Y-14408189D01*
X7301334Y-14408189D02*
X7291811Y-14370094D01*
X7291811Y-14370094D02*
X7291811Y-14322475D01*
X7291811Y-14322475D02*
X7301334Y-14284380D01*
X7301334Y-14284380D02*
X7310858Y-14265332D01*
X7310858Y-14265332D02*
X7320382Y-14255808D01*
X7320382Y-14255808D02*
X7339430Y-14246284D01*
X7491811Y-14427237D02*
X7501334Y-14436761D01*
X7501334Y-14436761D02*
X7491811Y-14446284D01*
X7491811Y-14446284D02*
X7482287Y-14436761D01*
X7482287Y-14436761D02*
X7491811Y-14427237D01*
X7491811Y-14427237D02*
X7491811Y-14446284D01*
X7615620Y-14331999D02*
X7596572Y-14322475D01*
X7596572Y-14322475D02*
X7587049Y-14312951D01*
X7587049Y-14312951D02*
X7577525Y-14293903D01*
X7577525Y-14293903D02*
X7577525Y-14284380D01*
X7577525Y-14284380D02*
X7587049Y-14265332D01*
X7587049Y-14265332D02*
X7596572Y-14255808D01*
X7596572Y-14255808D02*
X7615620Y-14246284D01*
X7615620Y-14246284D02*
X7653715Y-14246284D01*
X7653715Y-14246284D02*
X7672763Y-14255808D01*
X7672763Y-14255808D02*
X7682287Y-14265332D01*
X7682287Y-14265332D02*
X7691811Y-14284380D01*
X7691811Y-14284380D02*
X7691811Y-14293903D01*
X7691811Y-14293903D02*
X7682287Y-14312951D01*
X7682287Y-14312951D02*
X7672763Y-14322475D01*
X7672763Y-14322475D02*
X7653715Y-14331999D01*
X7653715Y-14331999D02*
X7615620Y-14331999D01*
X7615620Y-14331999D02*
X7596572Y-14341523D01*
X7596572Y-14341523D02*
X7587049Y-14351046D01*
X7587049Y-14351046D02*
X7577525Y-14370094D01*
X7577525Y-14370094D02*
X7577525Y-14408189D01*
X7577525Y-14408189D02*
X7587049Y-14427237D01*
X7587049Y-14427237D02*
X7596572Y-14436761D01*
X7596572Y-14436761D02*
X7615620Y-14446284D01*
X7615620Y-14446284D02*
X7653715Y-14446284D01*
X7653715Y-14446284D02*
X7672763Y-14436761D01*
X7672763Y-14436761D02*
X7682287Y-14427237D01*
X7682287Y-14427237D02*
X7691811Y-14408189D01*
X7691811Y-14408189D02*
X7691811Y-14370094D01*
X7691811Y-14370094D02*
X7682287Y-14351046D01*
X7682287Y-14351046D02*
X7672763Y-14341523D01*
X7672763Y-14341523D02*
X7653715Y-14331999D01*
X7815620Y-14246284D02*
X7834668Y-14246284D01*
X7834668Y-14246284D02*
X7853715Y-14255808D01*
X7853715Y-14255808D02*
X7863239Y-14265332D01*
X7863239Y-14265332D02*
X7872763Y-14284380D01*
X7872763Y-14284380D02*
X7882287Y-14322475D01*
X7882287Y-14322475D02*
X7882287Y-14370094D01*
X7882287Y-14370094D02*
X7872763Y-14408189D01*
X7872763Y-14408189D02*
X7863239Y-14427237D01*
X7863239Y-14427237D02*
X7853715Y-14436761D01*
X7853715Y-14436761D02*
X7834668Y-14446284D01*
X7834668Y-14446284D02*
X7815620Y-14446284D01*
X7815620Y-14446284D02*
X7796572Y-14436761D01*
X7796572Y-14436761D02*
X7787049Y-14427237D01*
X7787049Y-14427237D02*
X7777525Y-14408189D01*
X7777525Y-14408189D02*
X7768001Y-14370094D01*
X7768001Y-14370094D02*
X7768001Y-14322475D01*
X7768001Y-14322475D02*
X7777525Y-14284380D01*
X7777525Y-14284380D02*
X7787049Y-14265332D01*
X7787049Y-14265332D02*
X7796572Y-14255808D01*
X7796572Y-14255808D02*
X7815620Y-14246284D01*
X8006096Y-14246284D02*
X8025144Y-14246284D01*
X8025144Y-14246284D02*
X8044192Y-14255808D01*
X8044192Y-14255808D02*
X8053715Y-14265332D01*
X8053715Y-14265332D02*
X8063239Y-14284380D01*
X8063239Y-14284380D02*
X8072763Y-14322475D01*
X8072763Y-14322475D02*
X8072763Y-14370094D01*
X8072763Y-14370094D02*
X8063239Y-14408189D01*
X8063239Y-14408189D02*
X8053715Y-14427237D01*
X8053715Y-14427237D02*
X8044192Y-14436761D01*
X8044192Y-14436761D02*
X8025144Y-14446284D01*
X8025144Y-14446284D02*
X8006096Y-14446284D01*
X8006096Y-14446284D02*
X7987049Y-14436761D01*
X7987049Y-14436761D02*
X7977525Y-14427237D01*
X7977525Y-14427237D02*
X7968001Y-14408189D01*
X7968001Y-14408189D02*
X7958477Y-14370094D01*
X7958477Y-14370094D02*
X7958477Y-14322475D01*
X7958477Y-14322475D02*
X7968001Y-14284380D01*
X7968001Y-14284380D02*
X7977525Y-14265332D01*
X7977525Y-14265332D02*
X7987049Y-14255808D01*
X7987049Y-14255808D02*
X8006096Y-14246284D01*
X8158477Y-14446284D02*
X8158477Y-14312951D01*
X8158477Y-14331999D02*
X8168001Y-14322475D01*
X8168001Y-14322475D02*
X8187049Y-14312951D01*
X8187049Y-14312951D02*
X8215620Y-14312951D01*
X8215620Y-14312951D02*
X8234668Y-14322475D01*
X8234668Y-14322475D02*
X8244192Y-14341523D01*
X8244192Y-14341523D02*
X8244192Y-14446284D01*
X8244192Y-14341523D02*
X8253715Y-14322475D01*
X8253715Y-14322475D02*
X8272763Y-14312951D01*
X8272763Y-14312951D02*
X8301334Y-14312951D01*
X8301334Y-14312951D02*
X8320382Y-14322475D01*
X8320382Y-14322475D02*
X8329906Y-14341523D01*
X8329906Y-14341523D02*
X8329906Y-14446284D01*
X8425144Y-14446284D02*
X8425144Y-14312951D01*
X8425144Y-14331999D02*
X8434668Y-14322475D01*
X8434668Y-14322475D02*
X8453715Y-14312951D01*
X8453715Y-14312951D02*
X8482287Y-14312951D01*
X8482287Y-14312951D02*
X8501335Y-14322475D01*
X8501335Y-14322475D02*
X8510858Y-14341523D01*
X8510858Y-14341523D02*
X8510858Y-14446284D01*
X8510858Y-14341523D02*
X8520382Y-14322475D01*
X8520382Y-14322475D02*
X8539430Y-14312951D01*
X8539430Y-14312951D02*
X8568001Y-14312951D01*
X8568001Y-14312951D02*
X8587049Y-14322475D01*
X8587049Y-14322475D02*
X8596573Y-14341523D01*
X8596573Y-14341523D02*
X8596573Y-14446284D01*
X8987049Y-14236761D02*
X8815620Y-14493903D01*
X9244192Y-14246284D02*
X9263239Y-14246284D01*
X9263239Y-14246284D02*
X9282287Y-14255808D01*
X9282287Y-14255808D02*
X9291811Y-14265332D01*
X9291811Y-14265332D02*
X9301335Y-14284380D01*
X9301335Y-14284380D02*
X9310858Y-14322475D01*
X9310858Y-14322475D02*
X9310858Y-14370094D01*
X9310858Y-14370094D02*
X9301335Y-14408189D01*
X9301335Y-14408189D02*
X9291811Y-14427237D01*
X9291811Y-14427237D02*
X9282287Y-14436761D01*
X9282287Y-14436761D02*
X9263239Y-14446284D01*
X9263239Y-14446284D02*
X9244192Y-14446284D01*
X9244192Y-14446284D02*
X9225144Y-14436761D01*
X9225144Y-14436761D02*
X9215620Y-14427237D01*
X9215620Y-14427237D02*
X9206097Y-14408189D01*
X9206097Y-14408189D02*
X9196573Y-14370094D01*
X9196573Y-14370094D02*
X9196573Y-14322475D01*
X9196573Y-14322475D02*
X9206097Y-14284380D01*
X9206097Y-14284380D02*
X9215620Y-14265332D01*
X9215620Y-14265332D02*
X9225144Y-14255808D01*
X9225144Y-14255808D02*
X9244192Y-14246284D01*
X9396573Y-14427237D02*
X9406097Y-14436761D01*
X9406097Y-14436761D02*
X9396573Y-14446284D01*
X9396573Y-14446284D02*
X9387049Y-14436761D01*
X9387049Y-14436761D02*
X9396573Y-14427237D01*
X9396573Y-14427237D02*
X9396573Y-14446284D01*
X9529906Y-14246284D02*
X9548954Y-14246284D01*
X9548954Y-14246284D02*
X9568001Y-14255808D01*
X9568001Y-14255808D02*
X9577525Y-14265332D01*
X9577525Y-14265332D02*
X9587049Y-14284380D01*
X9587049Y-14284380D02*
X9596573Y-14322475D01*
X9596573Y-14322475D02*
X9596573Y-14370094D01*
X9596573Y-14370094D02*
X9587049Y-14408189D01*
X9587049Y-14408189D02*
X9577525Y-14427237D01*
X9577525Y-14427237D02*
X9568001Y-14436761D01*
X9568001Y-14436761D02*
X9548954Y-14446284D01*
X9548954Y-14446284D02*
X9529906Y-14446284D01*
X9529906Y-14446284D02*
X9510858Y-14436761D01*
X9510858Y-14436761D02*
X9501335Y-14427237D01*
X9501335Y-14427237D02*
X9491811Y-14408189D01*
X9491811Y-14408189D02*
X9482287Y-14370094D01*
X9482287Y-14370094D02*
X9482287Y-14322475D01*
X9482287Y-14322475D02*
X9491811Y-14284380D01*
X9491811Y-14284380D02*
X9501335Y-14265332D01*
X9501335Y-14265332D02*
X9510858Y-14255808D01*
X9510858Y-14255808D02*
X9529906Y-14246284D01*
X9663239Y-14246284D02*
X9787049Y-14246284D01*
X9787049Y-14246284D02*
X9720382Y-14322475D01*
X9720382Y-14322475D02*
X9748954Y-14322475D01*
X9748954Y-14322475D02*
X9768001Y-14331999D01*
X9768001Y-14331999D02*
X9777525Y-14341523D01*
X9777525Y-14341523D02*
X9787049Y-14360570D01*
X9787049Y-14360570D02*
X9787049Y-14408189D01*
X9787049Y-14408189D02*
X9777525Y-14427237D01*
X9777525Y-14427237D02*
X9768001Y-14436761D01*
X9768001Y-14436761D02*
X9748954Y-14446284D01*
X9748954Y-14446284D02*
X9691811Y-14446284D01*
X9691811Y-14446284D02*
X9672763Y-14436761D01*
X9672763Y-14436761D02*
X9663239Y-14427237D01*
X9977525Y-14446284D02*
X9863239Y-14446284D01*
X9920382Y-14446284D02*
X9920382Y-14246284D01*
X9920382Y-14246284D02*
X9901335Y-14274856D01*
X9901335Y-14274856D02*
X9882287Y-14293903D01*
X9882287Y-14293903D02*
X9863239Y-14303427D01*
X10158478Y-14246284D02*
X10063239Y-14246284D01*
X10063239Y-14246284D02*
X10053716Y-14341523D01*
X10053716Y-14341523D02*
X10063239Y-14331999D01*
X10063239Y-14331999D02*
X10082287Y-14322475D01*
X10082287Y-14322475D02*
X10129906Y-14322475D01*
X10129906Y-14322475D02*
X10148954Y-14331999D01*
X10148954Y-14331999D02*
X10158478Y-14341523D01*
X10158478Y-14341523D02*
X10168001Y-14360570D01*
X10168001Y-14360570D02*
X10168001Y-14408189D01*
X10168001Y-14408189D02*
X10158478Y-14427237D01*
X10158478Y-14427237D02*
X10148954Y-14436761D01*
X10148954Y-14436761D02*
X10129906Y-14446284D01*
X10129906Y-14446284D02*
X10082287Y-14446284D01*
X10082287Y-14446284D02*
X10063239Y-14436761D01*
X10063239Y-14436761D02*
X10053716Y-14427237D01*
X10244192Y-14246284D02*
X10244192Y-14284380D01*
X10320382Y-14246284D02*
X10320382Y-14284380D01*
X10615621Y-14522475D02*
X10606097Y-14512951D01*
X10606097Y-14512951D02*
X10587049Y-14484380D01*
X10587049Y-14484380D02*
X10577525Y-14465332D01*
X10577525Y-14465332D02*
X10568001Y-14436761D01*
X10568001Y-14436761D02*
X10558478Y-14389142D01*
X10558478Y-14389142D02*
X10558478Y-14351046D01*
X10558478Y-14351046D02*
X10568001Y-14303427D01*
X10568001Y-14303427D02*
X10577525Y-14274856D01*
X10577525Y-14274856D02*
X10587049Y-14255808D01*
X10587049Y-14255808D02*
X10606097Y-14227237D01*
X10606097Y-14227237D02*
X10615621Y-14217713D01*
X10720382Y-14331999D02*
X10701335Y-14322475D01*
X10701335Y-14322475D02*
X10691811Y-14312951D01*
X10691811Y-14312951D02*
X10682287Y-14293903D01*
X10682287Y-14293903D02*
X10682287Y-14284380D01*
X10682287Y-14284380D02*
X10691811Y-14265332D01*
X10691811Y-14265332D02*
X10701335Y-14255808D01*
X10701335Y-14255808D02*
X10720382Y-14246284D01*
X10720382Y-14246284D02*
X10758478Y-14246284D01*
X10758478Y-14246284D02*
X10777525Y-14255808D01*
X10777525Y-14255808D02*
X10787049Y-14265332D01*
X10787049Y-14265332D02*
X10796573Y-14284380D01*
X10796573Y-14284380D02*
X10796573Y-14293903D01*
X10796573Y-14293903D02*
X10787049Y-14312951D01*
X10787049Y-14312951D02*
X10777525Y-14322475D01*
X10777525Y-14322475D02*
X10758478Y-14331999D01*
X10758478Y-14331999D02*
X10720382Y-14331999D01*
X10720382Y-14331999D02*
X10701335Y-14341523D01*
X10701335Y-14341523D02*
X10691811Y-14351046D01*
X10691811Y-14351046D02*
X10682287Y-14370094D01*
X10682287Y-14370094D02*
X10682287Y-14408189D01*
X10682287Y-14408189D02*
X10691811Y-14427237D01*
X10691811Y-14427237D02*
X10701335Y-14436761D01*
X10701335Y-14436761D02*
X10720382Y-14446284D01*
X10720382Y-14446284D02*
X10758478Y-14446284D01*
X10758478Y-14446284D02*
X10777525Y-14436761D01*
X10777525Y-14436761D02*
X10787049Y-14427237D01*
X10787049Y-14427237D02*
X10796573Y-14408189D01*
X10796573Y-14408189D02*
X10796573Y-14370094D01*
X10796573Y-14370094D02*
X10787049Y-14351046D01*
X10787049Y-14351046D02*
X10777525Y-14341523D01*
X10777525Y-14341523D02*
X10758478Y-14331999D01*
X11034668Y-14446284D02*
X11034668Y-14246284D01*
X11120382Y-14446284D02*
X11120382Y-14341523D01*
X11120382Y-14341523D02*
X11110859Y-14322475D01*
X11110859Y-14322475D02*
X11091811Y-14312951D01*
X11091811Y-14312951D02*
X11063240Y-14312951D01*
X11063240Y-14312951D02*
X11044192Y-14322475D01*
X11044192Y-14322475D02*
X11034668Y-14331999D01*
X11244192Y-14446284D02*
X11225144Y-14436761D01*
X11225144Y-14436761D02*
X11215620Y-14427237D01*
X11215620Y-14427237D02*
X11206097Y-14408189D01*
X11206097Y-14408189D02*
X11206097Y-14351046D01*
X11206097Y-14351046D02*
X11215620Y-14331999D01*
X11215620Y-14331999D02*
X11225144Y-14322475D01*
X11225144Y-14322475D02*
X11244192Y-14312951D01*
X11244192Y-14312951D02*
X11272763Y-14312951D01*
X11272763Y-14312951D02*
X11291811Y-14322475D01*
X11291811Y-14322475D02*
X11301335Y-14331999D01*
X11301335Y-14331999D02*
X11310859Y-14351046D01*
X11310859Y-14351046D02*
X11310859Y-14408189D01*
X11310859Y-14408189D02*
X11301335Y-14427237D01*
X11301335Y-14427237D02*
X11291811Y-14436761D01*
X11291811Y-14436761D02*
X11272763Y-14446284D01*
X11272763Y-14446284D02*
X11244192Y-14446284D01*
X11425144Y-14446284D02*
X11406097Y-14436761D01*
X11406097Y-14436761D02*
X11396573Y-14417713D01*
X11396573Y-14417713D02*
X11396573Y-14246284D01*
X11577525Y-14436761D02*
X11558478Y-14446284D01*
X11558478Y-14446284D02*
X11520382Y-14446284D01*
X11520382Y-14446284D02*
X11501335Y-14436761D01*
X11501335Y-14436761D02*
X11491811Y-14417713D01*
X11491811Y-14417713D02*
X11491811Y-14341523D01*
X11491811Y-14341523D02*
X11501335Y-14322475D01*
X11501335Y-14322475D02*
X11520382Y-14312951D01*
X11520382Y-14312951D02*
X11558478Y-14312951D01*
X11558478Y-14312951D02*
X11577525Y-14322475D01*
X11577525Y-14322475D02*
X11587049Y-14341523D01*
X11587049Y-14341523D02*
X11587049Y-14360570D01*
X11587049Y-14360570D02*
X11491811Y-14379618D01*
X11663240Y-14436761D02*
X11682287Y-14446284D01*
X11682287Y-14446284D02*
X11720382Y-14446284D01*
X11720382Y-14446284D02*
X11739430Y-14436761D01*
X11739430Y-14436761D02*
X11748954Y-14417713D01*
X11748954Y-14417713D02*
X11748954Y-14408189D01*
X11748954Y-14408189D02*
X11739430Y-14389142D01*
X11739430Y-14389142D02*
X11720382Y-14379618D01*
X11720382Y-14379618D02*
X11691811Y-14379618D01*
X11691811Y-14379618D02*
X11672763Y-14370094D01*
X11672763Y-14370094D02*
X11663240Y-14351046D01*
X11663240Y-14351046D02*
X11663240Y-14341523D01*
X11663240Y-14341523D02*
X11672763Y-14322475D01*
X11672763Y-14322475D02*
X11691811Y-14312951D01*
X11691811Y-14312951D02*
X11720382Y-14312951D01*
X11720382Y-14312951D02*
X11739430Y-14322475D01*
X11815621Y-14522475D02*
X11825144Y-14512951D01*
X11825144Y-14512951D02*
X11844192Y-14484380D01*
X11844192Y-14484380D02*
X11853716Y-14465332D01*
X11853716Y-14465332D02*
X11863240Y-14436761D01*
X11863240Y-14436761D02*
X11872763Y-14389142D01*
X11872763Y-14389142D02*
X11872763Y-14351046D01*
X11872763Y-14351046D02*
X11863240Y-14303427D01*
X11863240Y-14303427D02*
X11853716Y-14274856D01*
X11853716Y-14274856D02*
X11844192Y-14255808D01*
X11844192Y-14255808D02*
X11825144Y-14227237D01*
X11825144Y-14227237D02*
X11815621Y-14217713D01*
D12*
X6991028Y-14569271D02*
X6991028Y-14668331D01*
X6941498Y-14618801D02*
X7040558Y-14618801D01*
D11*
X7339430Y-14510284D02*
X7358477Y-14510284D01*
X7358477Y-14510284D02*
X7377525Y-14519808D01*
X7377525Y-14519808D02*
X7387049Y-14529332D01*
X7387049Y-14529332D02*
X7396572Y-14548380D01*
X7396572Y-14548380D02*
X7406096Y-14586475D01*
X7406096Y-14586475D02*
X7406096Y-14634094D01*
X7406096Y-14634094D02*
X7396572Y-14672189D01*
X7396572Y-14672189D02*
X7387049Y-14691237D01*
X7387049Y-14691237D02*
X7377525Y-14700761D01*
X7377525Y-14700761D02*
X7358477Y-14710284D01*
X7358477Y-14710284D02*
X7339430Y-14710284D01*
X7339430Y-14710284D02*
X7320382Y-14700761D01*
X7320382Y-14700761D02*
X7310858Y-14691237D01*
X7310858Y-14691237D02*
X7301334Y-14672189D01*
X7301334Y-14672189D02*
X7291811Y-14634094D01*
X7291811Y-14634094D02*
X7291811Y-14586475D01*
X7291811Y-14586475D02*
X7301334Y-14548380D01*
X7301334Y-14548380D02*
X7310858Y-14529332D01*
X7310858Y-14529332D02*
X7320382Y-14519808D01*
X7320382Y-14519808D02*
X7339430Y-14510284D01*
X7491811Y-14691237D02*
X7501334Y-14700761D01*
X7501334Y-14700761D02*
X7491811Y-14710284D01*
X7491811Y-14710284D02*
X7482287Y-14700761D01*
X7482287Y-14700761D02*
X7491811Y-14691237D01*
X7491811Y-14691237D02*
X7491811Y-14710284D01*
X7596572Y-14710284D02*
X7634668Y-14710284D01*
X7634668Y-14710284D02*
X7653715Y-14700761D01*
X7653715Y-14700761D02*
X7663239Y-14691237D01*
X7663239Y-14691237D02*
X7682287Y-14662665D01*
X7682287Y-14662665D02*
X7691811Y-14624570D01*
X7691811Y-14624570D02*
X7691811Y-14548380D01*
X7691811Y-14548380D02*
X7682287Y-14529332D01*
X7682287Y-14529332D02*
X7672763Y-14519808D01*
X7672763Y-14519808D02*
X7653715Y-14510284D01*
X7653715Y-14510284D02*
X7615620Y-14510284D01*
X7615620Y-14510284D02*
X7596572Y-14519808D01*
X7596572Y-14519808D02*
X7587049Y-14529332D01*
X7587049Y-14529332D02*
X7577525Y-14548380D01*
X7577525Y-14548380D02*
X7577525Y-14595999D01*
X7577525Y-14595999D02*
X7587049Y-14615046D01*
X7587049Y-14615046D02*
X7596572Y-14624570D01*
X7596572Y-14624570D02*
X7615620Y-14634094D01*
X7615620Y-14634094D02*
X7653715Y-14634094D01*
X7653715Y-14634094D02*
X7672763Y-14624570D01*
X7672763Y-14624570D02*
X7682287Y-14615046D01*
X7682287Y-14615046D02*
X7691811Y-14595999D01*
X7787049Y-14710284D02*
X7825144Y-14710284D01*
X7825144Y-14710284D02*
X7844192Y-14700761D01*
X7844192Y-14700761D02*
X7853715Y-14691237D01*
X7853715Y-14691237D02*
X7872763Y-14662665D01*
X7872763Y-14662665D02*
X7882287Y-14624570D01*
X7882287Y-14624570D02*
X7882287Y-14548380D01*
X7882287Y-14548380D02*
X7872763Y-14529332D01*
X7872763Y-14529332D02*
X7863239Y-14519808D01*
X7863239Y-14519808D02*
X7844192Y-14510284D01*
X7844192Y-14510284D02*
X7806096Y-14510284D01*
X7806096Y-14510284D02*
X7787049Y-14519808D01*
X7787049Y-14519808D02*
X7777525Y-14529332D01*
X7777525Y-14529332D02*
X7768001Y-14548380D01*
X7768001Y-14548380D02*
X7768001Y-14595999D01*
X7768001Y-14595999D02*
X7777525Y-14615046D01*
X7777525Y-14615046D02*
X7787049Y-14624570D01*
X7787049Y-14624570D02*
X7806096Y-14634094D01*
X7806096Y-14634094D02*
X7844192Y-14634094D01*
X7844192Y-14634094D02*
X7863239Y-14624570D01*
X7863239Y-14624570D02*
X7872763Y-14615046D01*
X7872763Y-14615046D02*
X7882287Y-14595999D01*
X8072763Y-14710284D02*
X7958477Y-14710284D01*
X8015620Y-14710284D02*
X8015620Y-14510284D01*
X8015620Y-14510284D02*
X7996572Y-14538856D01*
X7996572Y-14538856D02*
X7977525Y-14557903D01*
X7977525Y-14557903D02*
X7958477Y-14567427D01*
X8158477Y-14710284D02*
X8158477Y-14576951D01*
X8158477Y-14595999D02*
X8168001Y-14586475D01*
X8168001Y-14586475D02*
X8187049Y-14576951D01*
X8187049Y-14576951D02*
X8215620Y-14576951D01*
X8215620Y-14576951D02*
X8234668Y-14586475D01*
X8234668Y-14586475D02*
X8244192Y-14605523D01*
X8244192Y-14605523D02*
X8244192Y-14710284D01*
X8244192Y-14605523D02*
X8253715Y-14586475D01*
X8253715Y-14586475D02*
X8272763Y-14576951D01*
X8272763Y-14576951D02*
X8301334Y-14576951D01*
X8301334Y-14576951D02*
X8320382Y-14586475D01*
X8320382Y-14586475D02*
X8329906Y-14605523D01*
X8329906Y-14605523D02*
X8329906Y-14710284D01*
X8425144Y-14710284D02*
X8425144Y-14576951D01*
X8425144Y-14595999D02*
X8434668Y-14586475D01*
X8434668Y-14586475D02*
X8453715Y-14576951D01*
X8453715Y-14576951D02*
X8482287Y-14576951D01*
X8482287Y-14576951D02*
X8501335Y-14586475D01*
X8501335Y-14586475D02*
X8510858Y-14605523D01*
X8510858Y-14605523D02*
X8510858Y-14710284D01*
X8510858Y-14605523D02*
X8520382Y-14586475D01*
X8520382Y-14586475D02*
X8539430Y-14576951D01*
X8539430Y-14576951D02*
X8568001Y-14576951D01*
X8568001Y-14576951D02*
X8587049Y-14586475D01*
X8587049Y-14586475D02*
X8596573Y-14605523D01*
X8596573Y-14605523D02*
X8596573Y-14710284D01*
X8987049Y-14500761D02*
X8815620Y-14757903D01*
X9244192Y-14510284D02*
X9263239Y-14510284D01*
X9263239Y-14510284D02*
X9282287Y-14519808D01*
X9282287Y-14519808D02*
X9291811Y-14529332D01*
X9291811Y-14529332D02*
X9301335Y-14548380D01*
X9301335Y-14548380D02*
X9310858Y-14586475D01*
X9310858Y-14586475D02*
X9310858Y-14634094D01*
X9310858Y-14634094D02*
X9301335Y-14672189D01*
X9301335Y-14672189D02*
X9291811Y-14691237D01*
X9291811Y-14691237D02*
X9282287Y-14700761D01*
X9282287Y-14700761D02*
X9263239Y-14710284D01*
X9263239Y-14710284D02*
X9244192Y-14710284D01*
X9244192Y-14710284D02*
X9225144Y-14700761D01*
X9225144Y-14700761D02*
X9215620Y-14691237D01*
X9215620Y-14691237D02*
X9206097Y-14672189D01*
X9206097Y-14672189D02*
X9196573Y-14634094D01*
X9196573Y-14634094D02*
X9196573Y-14586475D01*
X9196573Y-14586475D02*
X9206097Y-14548380D01*
X9206097Y-14548380D02*
X9215620Y-14529332D01*
X9215620Y-14529332D02*
X9225144Y-14519808D01*
X9225144Y-14519808D02*
X9244192Y-14510284D01*
X9396573Y-14691237D02*
X9406097Y-14700761D01*
X9406097Y-14700761D02*
X9396573Y-14710284D01*
X9396573Y-14710284D02*
X9387049Y-14700761D01*
X9387049Y-14700761D02*
X9396573Y-14691237D01*
X9396573Y-14691237D02*
X9396573Y-14710284D01*
X9529906Y-14510284D02*
X9548954Y-14510284D01*
X9548954Y-14510284D02*
X9568001Y-14519808D01*
X9568001Y-14519808D02*
X9577525Y-14529332D01*
X9577525Y-14529332D02*
X9587049Y-14548380D01*
X9587049Y-14548380D02*
X9596573Y-14586475D01*
X9596573Y-14586475D02*
X9596573Y-14634094D01*
X9596573Y-14634094D02*
X9587049Y-14672189D01*
X9587049Y-14672189D02*
X9577525Y-14691237D01*
X9577525Y-14691237D02*
X9568001Y-14700761D01*
X9568001Y-14700761D02*
X9548954Y-14710284D01*
X9548954Y-14710284D02*
X9529906Y-14710284D01*
X9529906Y-14710284D02*
X9510858Y-14700761D01*
X9510858Y-14700761D02*
X9501335Y-14691237D01*
X9501335Y-14691237D02*
X9491811Y-14672189D01*
X9491811Y-14672189D02*
X9482287Y-14634094D01*
X9482287Y-14634094D02*
X9482287Y-14586475D01*
X9482287Y-14586475D02*
X9491811Y-14548380D01*
X9491811Y-14548380D02*
X9501335Y-14529332D01*
X9501335Y-14529332D02*
X9510858Y-14519808D01*
X9510858Y-14519808D02*
X9529906Y-14510284D01*
X9663239Y-14510284D02*
X9787049Y-14510284D01*
X9787049Y-14510284D02*
X9720382Y-14586475D01*
X9720382Y-14586475D02*
X9748954Y-14586475D01*
X9748954Y-14586475D02*
X9768001Y-14595999D01*
X9768001Y-14595999D02*
X9777525Y-14605523D01*
X9777525Y-14605523D02*
X9787049Y-14624570D01*
X9787049Y-14624570D02*
X9787049Y-14672189D01*
X9787049Y-14672189D02*
X9777525Y-14691237D01*
X9777525Y-14691237D02*
X9768001Y-14700761D01*
X9768001Y-14700761D02*
X9748954Y-14710284D01*
X9748954Y-14710284D02*
X9691811Y-14710284D01*
X9691811Y-14710284D02*
X9672763Y-14700761D01*
X9672763Y-14700761D02*
X9663239Y-14691237D01*
X9882287Y-14710284D02*
X9920382Y-14710284D01*
X9920382Y-14710284D02*
X9939430Y-14700761D01*
X9939430Y-14700761D02*
X9948954Y-14691237D01*
X9948954Y-14691237D02*
X9968001Y-14662665D01*
X9968001Y-14662665D02*
X9977525Y-14624570D01*
X9977525Y-14624570D02*
X9977525Y-14548380D01*
X9977525Y-14548380D02*
X9968001Y-14529332D01*
X9968001Y-14529332D02*
X9958478Y-14519808D01*
X9958478Y-14519808D02*
X9939430Y-14510284D01*
X9939430Y-14510284D02*
X9901335Y-14510284D01*
X9901335Y-14510284D02*
X9882287Y-14519808D01*
X9882287Y-14519808D02*
X9872763Y-14529332D01*
X9872763Y-14529332D02*
X9863239Y-14548380D01*
X9863239Y-14548380D02*
X9863239Y-14595999D01*
X9863239Y-14595999D02*
X9872763Y-14615046D01*
X9872763Y-14615046D02*
X9882287Y-14624570D01*
X9882287Y-14624570D02*
X9901335Y-14634094D01*
X9901335Y-14634094D02*
X9939430Y-14634094D01*
X9939430Y-14634094D02*
X9958478Y-14624570D01*
X9958478Y-14624570D02*
X9968001Y-14615046D01*
X9968001Y-14615046D02*
X9977525Y-14595999D01*
X10101335Y-14510284D02*
X10120382Y-14510284D01*
X10120382Y-14510284D02*
X10139430Y-14519808D01*
X10139430Y-14519808D02*
X10148954Y-14529332D01*
X10148954Y-14529332D02*
X10158478Y-14548380D01*
X10158478Y-14548380D02*
X10168001Y-14586475D01*
X10168001Y-14586475D02*
X10168001Y-14634094D01*
X10168001Y-14634094D02*
X10158478Y-14672189D01*
X10158478Y-14672189D02*
X10148954Y-14691237D01*
X10148954Y-14691237D02*
X10139430Y-14700761D01*
X10139430Y-14700761D02*
X10120382Y-14710284D01*
X10120382Y-14710284D02*
X10101335Y-14710284D01*
X10101335Y-14710284D02*
X10082287Y-14700761D01*
X10082287Y-14700761D02*
X10072763Y-14691237D01*
X10072763Y-14691237D02*
X10063239Y-14672189D01*
X10063239Y-14672189D02*
X10053716Y-14634094D01*
X10053716Y-14634094D02*
X10053716Y-14586475D01*
X10053716Y-14586475D02*
X10063239Y-14548380D01*
X10063239Y-14548380D02*
X10072763Y-14529332D01*
X10072763Y-14529332D02*
X10082287Y-14519808D01*
X10082287Y-14519808D02*
X10101335Y-14510284D01*
X10244192Y-14510284D02*
X10244192Y-14548380D01*
X10320382Y-14510284D02*
X10320382Y-14548380D01*
X10615621Y-14786475D02*
X10606097Y-14776951D01*
X10606097Y-14776951D02*
X10587049Y-14748380D01*
X10587049Y-14748380D02*
X10577525Y-14729332D01*
X10577525Y-14729332D02*
X10568001Y-14700761D01*
X10568001Y-14700761D02*
X10558478Y-14653142D01*
X10558478Y-14653142D02*
X10558478Y-14615046D01*
X10558478Y-14615046D02*
X10568001Y-14567427D01*
X10568001Y-14567427D02*
X10577525Y-14538856D01*
X10577525Y-14538856D02*
X10587049Y-14519808D01*
X10587049Y-14519808D02*
X10606097Y-14491237D01*
X10606097Y-14491237D02*
X10615621Y-14481713D01*
X10720382Y-14595999D02*
X10701335Y-14586475D01*
X10701335Y-14586475D02*
X10691811Y-14576951D01*
X10691811Y-14576951D02*
X10682287Y-14557903D01*
X10682287Y-14557903D02*
X10682287Y-14548380D01*
X10682287Y-14548380D02*
X10691811Y-14529332D01*
X10691811Y-14529332D02*
X10701335Y-14519808D01*
X10701335Y-14519808D02*
X10720382Y-14510284D01*
X10720382Y-14510284D02*
X10758478Y-14510284D01*
X10758478Y-14510284D02*
X10777525Y-14519808D01*
X10777525Y-14519808D02*
X10787049Y-14529332D01*
X10787049Y-14529332D02*
X10796573Y-14548380D01*
X10796573Y-14548380D02*
X10796573Y-14557903D01*
X10796573Y-14557903D02*
X10787049Y-14576951D01*
X10787049Y-14576951D02*
X10777525Y-14586475D01*
X10777525Y-14586475D02*
X10758478Y-14595999D01*
X10758478Y-14595999D02*
X10720382Y-14595999D01*
X10720382Y-14595999D02*
X10701335Y-14605523D01*
X10701335Y-14605523D02*
X10691811Y-14615046D01*
X10691811Y-14615046D02*
X10682287Y-14634094D01*
X10682287Y-14634094D02*
X10682287Y-14672189D01*
X10682287Y-14672189D02*
X10691811Y-14691237D01*
X10691811Y-14691237D02*
X10701335Y-14700761D01*
X10701335Y-14700761D02*
X10720382Y-14710284D01*
X10720382Y-14710284D02*
X10758478Y-14710284D01*
X10758478Y-14710284D02*
X10777525Y-14700761D01*
X10777525Y-14700761D02*
X10787049Y-14691237D01*
X10787049Y-14691237D02*
X10796573Y-14672189D01*
X10796573Y-14672189D02*
X10796573Y-14634094D01*
X10796573Y-14634094D02*
X10787049Y-14615046D01*
X10787049Y-14615046D02*
X10777525Y-14605523D01*
X10777525Y-14605523D02*
X10758478Y-14595999D01*
X11034668Y-14710284D02*
X11034668Y-14510284D01*
X11120382Y-14710284D02*
X11120382Y-14605523D01*
X11120382Y-14605523D02*
X11110859Y-14586475D01*
X11110859Y-14586475D02*
X11091811Y-14576951D01*
X11091811Y-14576951D02*
X11063240Y-14576951D01*
X11063240Y-14576951D02*
X11044192Y-14586475D01*
X11044192Y-14586475D02*
X11034668Y-14595999D01*
X11244192Y-14710284D02*
X11225144Y-14700761D01*
X11225144Y-14700761D02*
X11215620Y-14691237D01*
X11215620Y-14691237D02*
X11206097Y-14672189D01*
X11206097Y-14672189D02*
X11206097Y-14615046D01*
X11206097Y-14615046D02*
X11215620Y-14595999D01*
X11215620Y-14595999D02*
X11225144Y-14586475D01*
X11225144Y-14586475D02*
X11244192Y-14576951D01*
X11244192Y-14576951D02*
X11272763Y-14576951D01*
X11272763Y-14576951D02*
X11291811Y-14586475D01*
X11291811Y-14586475D02*
X11301335Y-14595999D01*
X11301335Y-14595999D02*
X11310859Y-14615046D01*
X11310859Y-14615046D02*
X11310859Y-14672189D01*
X11310859Y-14672189D02*
X11301335Y-14691237D01*
X11301335Y-14691237D02*
X11291811Y-14700761D01*
X11291811Y-14700761D02*
X11272763Y-14710284D01*
X11272763Y-14710284D02*
X11244192Y-14710284D01*
X11425144Y-14710284D02*
X11406097Y-14700761D01*
X11406097Y-14700761D02*
X11396573Y-14681713D01*
X11396573Y-14681713D02*
X11396573Y-14510284D01*
X11577525Y-14700761D02*
X11558478Y-14710284D01*
X11558478Y-14710284D02*
X11520382Y-14710284D01*
X11520382Y-14710284D02*
X11501335Y-14700761D01*
X11501335Y-14700761D02*
X11491811Y-14681713D01*
X11491811Y-14681713D02*
X11491811Y-14605523D01*
X11491811Y-14605523D02*
X11501335Y-14586475D01*
X11501335Y-14586475D02*
X11520382Y-14576951D01*
X11520382Y-14576951D02*
X11558478Y-14576951D01*
X11558478Y-14576951D02*
X11577525Y-14586475D01*
X11577525Y-14586475D02*
X11587049Y-14605523D01*
X11587049Y-14605523D02*
X11587049Y-14624570D01*
X11587049Y-14624570D02*
X11491811Y-14643618D01*
X11663240Y-14700761D02*
X11682287Y-14710284D01*
X11682287Y-14710284D02*
X11720382Y-14710284D01*
X11720382Y-14710284D02*
X11739430Y-14700761D01*
X11739430Y-14700761D02*
X11748954Y-14681713D01*
X11748954Y-14681713D02*
X11748954Y-14672189D01*
X11748954Y-14672189D02*
X11739430Y-14653142D01*
X11739430Y-14653142D02*
X11720382Y-14643618D01*
X11720382Y-14643618D02*
X11691811Y-14643618D01*
X11691811Y-14643618D02*
X11672763Y-14634094D01*
X11672763Y-14634094D02*
X11663240Y-14615046D01*
X11663240Y-14615046D02*
X11663240Y-14605523D01*
X11663240Y-14605523D02*
X11672763Y-14586475D01*
X11672763Y-14586475D02*
X11691811Y-14576951D01*
X11691811Y-14576951D02*
X11720382Y-14576951D01*
X11720382Y-14576951D02*
X11739430Y-14586475D01*
X11815621Y-14786475D02*
X11825144Y-14776951D01*
X11825144Y-14776951D02*
X11844192Y-14748380D01*
X11844192Y-14748380D02*
X11853716Y-14729332D01*
X11853716Y-14729332D02*
X11863240Y-14700761D01*
X11863240Y-14700761D02*
X11872763Y-14653142D01*
X11872763Y-14653142D02*
X11872763Y-14615046D01*
X11872763Y-14615046D02*
X11863240Y-14567427D01*
X11863240Y-14567427D02*
X11853716Y-14538856D01*
X11853716Y-14538856D02*
X11844192Y-14519808D01*
X11844192Y-14519808D02*
X11825144Y-14491237D01*
X11825144Y-14491237D02*
X11815621Y-14481713D01*
D13*
X7021520Y-14928763D02*
X7021520Y-14836838D01*
X6929595Y-14836838D01*
X6929595Y-14928763D01*
X7021520Y-14928763D01*
D11*
X7406096Y-14974284D02*
X7291811Y-14974284D01*
X7348953Y-14974284D02*
X7348953Y-14774284D01*
X7348953Y-14774284D02*
X7329906Y-14802856D01*
X7329906Y-14802856D02*
X7310858Y-14821903D01*
X7310858Y-14821903D02*
X7291811Y-14831427D01*
X7491811Y-14955237D02*
X7501334Y-14964761D01*
X7501334Y-14964761D02*
X7491811Y-14974284D01*
X7491811Y-14974284D02*
X7482287Y-14964761D01*
X7482287Y-14964761D02*
X7491811Y-14955237D01*
X7491811Y-14955237D02*
X7491811Y-14974284D01*
X7568001Y-14774284D02*
X7691811Y-14774284D01*
X7691811Y-14774284D02*
X7625144Y-14850475D01*
X7625144Y-14850475D02*
X7653715Y-14850475D01*
X7653715Y-14850475D02*
X7672763Y-14859999D01*
X7672763Y-14859999D02*
X7682287Y-14869523D01*
X7682287Y-14869523D02*
X7691811Y-14888570D01*
X7691811Y-14888570D02*
X7691811Y-14936189D01*
X7691811Y-14936189D02*
X7682287Y-14955237D01*
X7682287Y-14955237D02*
X7672763Y-14964761D01*
X7672763Y-14964761D02*
X7653715Y-14974284D01*
X7653715Y-14974284D02*
X7596572Y-14974284D01*
X7596572Y-14974284D02*
X7577525Y-14964761D01*
X7577525Y-14964761D02*
X7568001Y-14955237D01*
X7815620Y-14774284D02*
X7834668Y-14774284D01*
X7834668Y-14774284D02*
X7853715Y-14783808D01*
X7853715Y-14783808D02*
X7863239Y-14793332D01*
X7863239Y-14793332D02*
X7872763Y-14812380D01*
X7872763Y-14812380D02*
X7882287Y-14850475D01*
X7882287Y-14850475D02*
X7882287Y-14898094D01*
X7882287Y-14898094D02*
X7872763Y-14936189D01*
X7872763Y-14936189D02*
X7863239Y-14955237D01*
X7863239Y-14955237D02*
X7853715Y-14964761D01*
X7853715Y-14964761D02*
X7834668Y-14974284D01*
X7834668Y-14974284D02*
X7815620Y-14974284D01*
X7815620Y-14974284D02*
X7796572Y-14964761D01*
X7796572Y-14964761D02*
X7787049Y-14955237D01*
X7787049Y-14955237D02*
X7777525Y-14936189D01*
X7777525Y-14936189D02*
X7768001Y-14898094D01*
X7768001Y-14898094D02*
X7768001Y-14850475D01*
X7768001Y-14850475D02*
X7777525Y-14812380D01*
X7777525Y-14812380D02*
X7787049Y-14793332D01*
X7787049Y-14793332D02*
X7796572Y-14783808D01*
X7796572Y-14783808D02*
X7815620Y-14774284D01*
X8006096Y-14774284D02*
X8025144Y-14774284D01*
X8025144Y-14774284D02*
X8044192Y-14783808D01*
X8044192Y-14783808D02*
X8053715Y-14793332D01*
X8053715Y-14793332D02*
X8063239Y-14812380D01*
X8063239Y-14812380D02*
X8072763Y-14850475D01*
X8072763Y-14850475D02*
X8072763Y-14898094D01*
X8072763Y-14898094D02*
X8063239Y-14936189D01*
X8063239Y-14936189D02*
X8053715Y-14955237D01*
X8053715Y-14955237D02*
X8044192Y-14964761D01*
X8044192Y-14964761D02*
X8025144Y-14974284D01*
X8025144Y-14974284D02*
X8006096Y-14974284D01*
X8006096Y-14974284D02*
X7987049Y-14964761D01*
X7987049Y-14964761D02*
X7977525Y-14955237D01*
X7977525Y-14955237D02*
X7968001Y-14936189D01*
X7968001Y-14936189D02*
X7958477Y-14898094D01*
X7958477Y-14898094D02*
X7958477Y-14850475D01*
X7958477Y-14850475D02*
X7968001Y-14812380D01*
X7968001Y-14812380D02*
X7977525Y-14793332D01*
X7977525Y-14793332D02*
X7987049Y-14783808D01*
X7987049Y-14783808D02*
X8006096Y-14774284D01*
X8158477Y-14974284D02*
X8158477Y-14840951D01*
X8158477Y-14859999D02*
X8168001Y-14850475D01*
X8168001Y-14850475D02*
X8187049Y-14840951D01*
X8187049Y-14840951D02*
X8215620Y-14840951D01*
X8215620Y-14840951D02*
X8234668Y-14850475D01*
X8234668Y-14850475D02*
X8244192Y-14869523D01*
X8244192Y-14869523D02*
X8244192Y-14974284D01*
X8244192Y-14869523D02*
X8253715Y-14850475D01*
X8253715Y-14850475D02*
X8272763Y-14840951D01*
X8272763Y-14840951D02*
X8301334Y-14840951D01*
X8301334Y-14840951D02*
X8320382Y-14850475D01*
X8320382Y-14850475D02*
X8329906Y-14869523D01*
X8329906Y-14869523D02*
X8329906Y-14974284D01*
X8425144Y-14974284D02*
X8425144Y-14840951D01*
X8425144Y-14859999D02*
X8434668Y-14850475D01*
X8434668Y-14850475D02*
X8453715Y-14840951D01*
X8453715Y-14840951D02*
X8482287Y-14840951D01*
X8482287Y-14840951D02*
X8501335Y-14850475D01*
X8501335Y-14850475D02*
X8510858Y-14869523D01*
X8510858Y-14869523D02*
X8510858Y-14974284D01*
X8510858Y-14869523D02*
X8520382Y-14850475D01*
X8520382Y-14850475D02*
X8539430Y-14840951D01*
X8539430Y-14840951D02*
X8568001Y-14840951D01*
X8568001Y-14840951D02*
X8587049Y-14850475D01*
X8587049Y-14850475D02*
X8596573Y-14869523D01*
X8596573Y-14869523D02*
X8596573Y-14974284D01*
X8987049Y-14764761D02*
X8815620Y-15021903D01*
X9244192Y-14774284D02*
X9263239Y-14774284D01*
X9263239Y-14774284D02*
X9282287Y-14783808D01*
X9282287Y-14783808D02*
X9291811Y-14793332D01*
X9291811Y-14793332D02*
X9301335Y-14812380D01*
X9301335Y-14812380D02*
X9310858Y-14850475D01*
X9310858Y-14850475D02*
X9310858Y-14898094D01*
X9310858Y-14898094D02*
X9301335Y-14936189D01*
X9301335Y-14936189D02*
X9291811Y-14955237D01*
X9291811Y-14955237D02*
X9282287Y-14964761D01*
X9282287Y-14964761D02*
X9263239Y-14974284D01*
X9263239Y-14974284D02*
X9244192Y-14974284D01*
X9244192Y-14974284D02*
X9225144Y-14964761D01*
X9225144Y-14964761D02*
X9215620Y-14955237D01*
X9215620Y-14955237D02*
X9206097Y-14936189D01*
X9206097Y-14936189D02*
X9196573Y-14898094D01*
X9196573Y-14898094D02*
X9196573Y-14850475D01*
X9196573Y-14850475D02*
X9206097Y-14812380D01*
X9206097Y-14812380D02*
X9215620Y-14793332D01*
X9215620Y-14793332D02*
X9225144Y-14783808D01*
X9225144Y-14783808D02*
X9244192Y-14774284D01*
X9396573Y-14955237D02*
X9406097Y-14964761D01*
X9406097Y-14964761D02*
X9396573Y-14974284D01*
X9396573Y-14974284D02*
X9387049Y-14964761D01*
X9387049Y-14964761D02*
X9396573Y-14955237D01*
X9396573Y-14955237D02*
X9396573Y-14974284D01*
X9529906Y-14774284D02*
X9548954Y-14774284D01*
X9548954Y-14774284D02*
X9568001Y-14783808D01*
X9568001Y-14783808D02*
X9577525Y-14793332D01*
X9577525Y-14793332D02*
X9587049Y-14812380D01*
X9587049Y-14812380D02*
X9596573Y-14850475D01*
X9596573Y-14850475D02*
X9596573Y-14898094D01*
X9596573Y-14898094D02*
X9587049Y-14936189D01*
X9587049Y-14936189D02*
X9577525Y-14955237D01*
X9577525Y-14955237D02*
X9568001Y-14964761D01*
X9568001Y-14964761D02*
X9548954Y-14974284D01*
X9548954Y-14974284D02*
X9529906Y-14974284D01*
X9529906Y-14974284D02*
X9510858Y-14964761D01*
X9510858Y-14964761D02*
X9501335Y-14955237D01*
X9501335Y-14955237D02*
X9491811Y-14936189D01*
X9491811Y-14936189D02*
X9482287Y-14898094D01*
X9482287Y-14898094D02*
X9482287Y-14850475D01*
X9482287Y-14850475D02*
X9491811Y-14812380D01*
X9491811Y-14812380D02*
X9501335Y-14793332D01*
X9501335Y-14793332D02*
X9510858Y-14783808D01*
X9510858Y-14783808D02*
X9529906Y-14774284D01*
X9777525Y-14774284D02*
X9682287Y-14774284D01*
X9682287Y-14774284D02*
X9672763Y-14869523D01*
X9672763Y-14869523D02*
X9682287Y-14859999D01*
X9682287Y-14859999D02*
X9701335Y-14850475D01*
X9701335Y-14850475D02*
X9748954Y-14850475D01*
X9748954Y-14850475D02*
X9768001Y-14859999D01*
X9768001Y-14859999D02*
X9777525Y-14869523D01*
X9777525Y-14869523D02*
X9787049Y-14888570D01*
X9787049Y-14888570D02*
X9787049Y-14936189D01*
X9787049Y-14936189D02*
X9777525Y-14955237D01*
X9777525Y-14955237D02*
X9768001Y-14964761D01*
X9768001Y-14964761D02*
X9748954Y-14974284D01*
X9748954Y-14974284D02*
X9701335Y-14974284D01*
X9701335Y-14974284D02*
X9682287Y-14964761D01*
X9682287Y-14964761D02*
X9672763Y-14955237D01*
X9977525Y-14974284D02*
X9863239Y-14974284D01*
X9920382Y-14974284D02*
X9920382Y-14774284D01*
X9920382Y-14774284D02*
X9901335Y-14802856D01*
X9901335Y-14802856D02*
X9882287Y-14821903D01*
X9882287Y-14821903D02*
X9863239Y-14831427D01*
X10053716Y-14793332D02*
X10063239Y-14783808D01*
X10063239Y-14783808D02*
X10082287Y-14774284D01*
X10082287Y-14774284D02*
X10129906Y-14774284D01*
X10129906Y-14774284D02*
X10148954Y-14783808D01*
X10148954Y-14783808D02*
X10158478Y-14793332D01*
X10158478Y-14793332D02*
X10168001Y-14812380D01*
X10168001Y-14812380D02*
X10168001Y-14831427D01*
X10168001Y-14831427D02*
X10158478Y-14859999D01*
X10158478Y-14859999D02*
X10044192Y-14974284D01*
X10044192Y-14974284D02*
X10168001Y-14974284D01*
X10244192Y-14774284D02*
X10244192Y-14812380D01*
X10320382Y-14774284D02*
X10320382Y-14812380D01*
X10615621Y-15050475D02*
X10606097Y-15040951D01*
X10606097Y-15040951D02*
X10587049Y-15012380D01*
X10587049Y-15012380D02*
X10577525Y-14993332D01*
X10577525Y-14993332D02*
X10568001Y-14964761D01*
X10568001Y-14964761D02*
X10558478Y-14917142D01*
X10558478Y-14917142D02*
X10558478Y-14879046D01*
X10558478Y-14879046D02*
X10568001Y-14831427D01*
X10568001Y-14831427D02*
X10577525Y-14802856D01*
X10577525Y-14802856D02*
X10587049Y-14783808D01*
X10587049Y-14783808D02*
X10606097Y-14755237D01*
X10606097Y-14755237D02*
X10615621Y-14745713D01*
X10796573Y-14974284D02*
X10682287Y-14974284D01*
X10739430Y-14974284D02*
X10739430Y-14774284D01*
X10739430Y-14774284D02*
X10720382Y-14802856D01*
X10720382Y-14802856D02*
X10701335Y-14821903D01*
X10701335Y-14821903D02*
X10682287Y-14831427D01*
X10891811Y-14974284D02*
X10929906Y-14974284D01*
X10929906Y-14974284D02*
X10948954Y-14964761D01*
X10948954Y-14964761D02*
X10958478Y-14955237D01*
X10958478Y-14955237D02*
X10977525Y-14926665D01*
X10977525Y-14926665D02*
X10987049Y-14888570D01*
X10987049Y-14888570D02*
X10987049Y-14812380D01*
X10987049Y-14812380D02*
X10977525Y-14793332D01*
X10977525Y-14793332D02*
X10968001Y-14783808D01*
X10968001Y-14783808D02*
X10948954Y-14774284D01*
X10948954Y-14774284D02*
X10910859Y-14774284D01*
X10910859Y-14774284D02*
X10891811Y-14783808D01*
X10891811Y-14783808D02*
X10882287Y-14793332D01*
X10882287Y-14793332D02*
X10872763Y-14812380D01*
X10872763Y-14812380D02*
X10872763Y-14859999D01*
X10872763Y-14859999D02*
X10882287Y-14879046D01*
X10882287Y-14879046D02*
X10891811Y-14888570D01*
X10891811Y-14888570D02*
X10910859Y-14898094D01*
X10910859Y-14898094D02*
X10948954Y-14898094D01*
X10948954Y-14898094D02*
X10968001Y-14888570D01*
X10968001Y-14888570D02*
X10977525Y-14879046D01*
X10977525Y-14879046D02*
X10987049Y-14859999D01*
X11225144Y-14974284D02*
X11225144Y-14774284D01*
X11310859Y-14974284D02*
X11310859Y-14869523D01*
X11310859Y-14869523D02*
X11301335Y-14850475D01*
X11301335Y-14850475D02*
X11282287Y-14840951D01*
X11282287Y-14840951D02*
X11253716Y-14840951D01*
X11253716Y-14840951D02*
X11234668Y-14850475D01*
X11234668Y-14850475D02*
X11225144Y-14859999D01*
X11434668Y-14974284D02*
X11415620Y-14964761D01*
X11415620Y-14964761D02*
X11406097Y-14955237D01*
X11406097Y-14955237D02*
X11396573Y-14936189D01*
X11396573Y-14936189D02*
X11396573Y-14879046D01*
X11396573Y-14879046D02*
X11406097Y-14859999D01*
X11406097Y-14859999D02*
X11415620Y-14850475D01*
X11415620Y-14850475D02*
X11434668Y-14840951D01*
X11434668Y-14840951D02*
X11463240Y-14840951D01*
X11463240Y-14840951D02*
X11482287Y-14850475D01*
X11482287Y-14850475D02*
X11491811Y-14859999D01*
X11491811Y-14859999D02*
X11501335Y-14879046D01*
X11501335Y-14879046D02*
X11501335Y-14936189D01*
X11501335Y-14936189D02*
X11491811Y-14955237D01*
X11491811Y-14955237D02*
X11482287Y-14964761D01*
X11482287Y-14964761D02*
X11463240Y-14974284D01*
X11463240Y-14974284D02*
X11434668Y-14974284D01*
X11615620Y-14974284D02*
X11596573Y-14964761D01*
X11596573Y-14964761D02*
X11587049Y-14945713D01*
X11587049Y-14945713D02*
X11587049Y-14774284D01*
X11768001Y-14964761D02*
X11748954Y-14974284D01*
X11748954Y-14974284D02*
X11710859Y-14974284D01*
X11710859Y-14974284D02*
X11691811Y-14964761D01*
X11691811Y-14964761D02*
X11682287Y-14945713D01*
X11682287Y-14945713D02*
X11682287Y-14869523D01*
X11682287Y-14869523D02*
X11691811Y-14850475D01*
X11691811Y-14850475D02*
X11710859Y-14840951D01*
X11710859Y-14840951D02*
X11748954Y-14840951D01*
X11748954Y-14840951D02*
X11768001Y-14850475D01*
X11768001Y-14850475D02*
X11777525Y-14869523D01*
X11777525Y-14869523D02*
X11777525Y-14888570D01*
X11777525Y-14888570D02*
X11682287Y-14907618D01*
X11853716Y-14964761D02*
X11872763Y-14974284D01*
X11872763Y-14974284D02*
X11910859Y-14974284D01*
X11910859Y-14974284D02*
X11929906Y-14964761D01*
X11929906Y-14964761D02*
X11939430Y-14945713D01*
X11939430Y-14945713D02*
X11939430Y-14936189D01*
X11939430Y-14936189D02*
X11929906Y-14917142D01*
X11929906Y-14917142D02*
X11910859Y-14907618D01*
X11910859Y-14907618D02*
X11882287Y-14907618D01*
X11882287Y-14907618D02*
X11863240Y-14898094D01*
X11863240Y-14898094D02*
X11853716Y-14879046D01*
X11853716Y-14879046D02*
X11853716Y-14869523D01*
X11853716Y-14869523D02*
X11863240Y-14850475D01*
X11863240Y-14850475D02*
X11882287Y-14840951D01*
X11882287Y-14840951D02*
X11910859Y-14840951D01*
X11910859Y-14840951D02*
X11929906Y-14850475D01*
X12006097Y-15050475D02*
X12015621Y-15040951D01*
X12015621Y-15040951D02*
X12034668Y-15012380D01*
X12034668Y-15012380D02*
X12044192Y-14993332D01*
X12044192Y-14993332D02*
X12053716Y-14964761D01*
X12053716Y-14964761D02*
X12063240Y-14917142D01*
X12063240Y-14917142D02*
X12063240Y-14879046D01*
X12063240Y-14879046D02*
X12053716Y-14831427D01*
X12053716Y-14831427D02*
X12044192Y-14802856D01*
X12044192Y-14802856D02*
X12034668Y-14783808D01*
X12034668Y-14783808D02*
X12015621Y-14755237D01*
X12015621Y-14755237D02*
X12006097Y-14745713D01*
M02*
