%TF.GenerationSoftware,KiCad,Pcbnew,7.0.10*%
%TF.CreationDate,2024-08-03T20:42:26-04:00*%
%TF.ProjectId,12.X.2 - PLC Connector Combined,31322e58-2e32-4202-9d20-504c4320436f,rev?*%
%TF.SameCoordinates,Original*%
%TF.FileFunction,Drillmap*%
%TF.FilePolarity,Positive*%
%FSLAX45Y45*%
G04 Gerber Fmt 4.5, Leading zero omitted, Abs format (unit mm)*
G04 Created by KiCad (PCBNEW 7.0.10) date 2024-08-03 20:42:26*
%MOMM*%
%LPD*%
G01*
G04 APERTURE LIST*
%ADD10C,0.250000*%
%ADD11C,0.200000*%
%ADD12C,0.100000*%
G04 APERTURE END LIST*
D10*
X7129918Y-7598488D02*
X8255000Y-7598488D01*
X8329988Y-10488509D02*
G75*
G03*
X8235942Y-10392250I-70708J24989D01*
G01*
X8330001Y-8456513D02*
G75*
G03*
X8232720Y-8360250I-70231J26313D01*
G01*
X10230000Y-7311513D02*
G75*
G03*
X10030000Y-7311513I-100000J0D01*
G01*
X7059148Y-9832125D02*
X7058983Y-9728125D01*
X8255000Y-7598480D02*
G75*
G03*
X8330000Y-7523488I10J74990D01*
G01*
X13130000Y-10914301D02*
X12005000Y-10914301D01*
X13205000Y-12259301D02*
X13205000Y-12363301D01*
X7057500Y-8793369D02*
X7057335Y-8689607D01*
X11930000Y-7941301D02*
X11930000Y-8553301D01*
X8235136Y-9884250D02*
X7110054Y-9884250D01*
X13130000Y-10914300D02*
G75*
G03*
X13205000Y-10839301I0J75000D01*
G01*
X11930000Y-10989301D02*
X11930000Y-11601301D01*
X8330000Y-8560513D02*
X8330000Y-8456513D01*
X11855000Y-13438301D02*
X10305000Y-13438301D01*
X8255000Y-7090480D02*
G75*
G03*
X8330000Y-7015488I10J74990D01*
G01*
X12005000Y-7104301D02*
X13130000Y-7104301D01*
X13130000Y-7866301D02*
X12005000Y-7866301D01*
X10030007Y-6911513D02*
G75*
G03*
X9955000Y-6836513I-75007J-7D01*
G01*
X10030000Y-11518000D02*
X10030000Y-12520000D01*
X13204999Y-7687301D02*
G75*
G03*
X13130000Y-7612301I-74999J1D01*
G01*
X8329991Y-7948510D02*
G75*
G03*
X8255971Y-7852250I-71902J21300D01*
G01*
X7129998Y-11154488D02*
X8254998Y-11154488D01*
X10030000Y-12520000D02*
G75*
G03*
X10230000Y-12520000I100000J0D01*
G01*
X7129918Y-7598492D02*
G75*
G03*
X7055726Y-7675128I782J-74988D01*
G01*
X7129998Y-11662483D02*
G75*
G03*
X7062207Y-11760122I3692J-74917D01*
G01*
X13205000Y-10227301D02*
X13205000Y-10331301D01*
X10230000Y-11518000D02*
G75*
G03*
X10030000Y-11518000I-100000J0D01*
G01*
X13130000Y-9390301D02*
X12005000Y-9390301D01*
X12005000Y-10406300D02*
G75*
G03*
X11930000Y-10481301I0J-75000D01*
G01*
X7059953Y-10340125D02*
G75*
G03*
X7110860Y-10392250I72357J19745D01*
G01*
X13205000Y-10735301D02*
X13205000Y-10839301D01*
X7055082Y-7269369D02*
X7054918Y-7165607D01*
X7110470Y-10138488D02*
G75*
G03*
X7059789Y-10236125I19920J-72312D01*
G01*
X7056727Y-8308128D02*
G75*
G03*
X7107638Y-8360250I72343J19738D01*
G01*
X12005000Y-10660301D02*
X13130000Y-10660301D01*
X7055080Y-7269369D02*
G75*
G03*
X7130082Y-7344250I75000J119D01*
G01*
X7129918Y-8106488D02*
X8255000Y-8106488D01*
X7109663Y-9630484D02*
G75*
G03*
X7058983Y-9728125I19927J-72316D01*
G01*
X8234331Y-9376250D02*
X7109248Y-9376250D01*
X10230000Y-9715513D02*
X10230000Y-8713513D01*
X13130000Y-8882301D02*
X12005000Y-8882301D01*
X8254998Y-11408250D02*
X7129998Y-11408250D01*
X12005000Y-12184301D02*
X13130000Y-12184301D01*
X10230000Y-10116000D02*
G75*
G03*
X10030000Y-10116000I-100000J0D01*
G01*
X7060761Y-10848123D02*
G75*
G03*
X7129998Y-10900250I71439J22843D01*
G01*
X8330000Y-7015488D02*
X8330000Y-6911513D01*
X13205000Y-7687301D02*
X13205000Y-7791301D01*
X13130000Y-11930300D02*
G75*
G03*
X13205000Y-11855301I0J75000D01*
G01*
X10030000Y-8713513D02*
X10030000Y-9715513D01*
X11929999Y-6279301D02*
G75*
G03*
X11855000Y-6204301I-74999J1D01*
G01*
X12005000Y-8882300D02*
G75*
G03*
X11930000Y-8957301I0J-75000D01*
G01*
X7132335Y-8614488D02*
X8257418Y-8614488D01*
X8330000Y-7523488D02*
X8330000Y-7424216D01*
X11929999Y-12109301D02*
G75*
G03*
X12005000Y-12184301I75001J1D01*
G01*
X8405000Y-6836510D02*
G75*
G03*
X8330000Y-6911513I0J-75000D01*
G01*
X13204999Y-12259301D02*
G75*
G03*
X13130000Y-12184301I-74999J1D01*
G01*
X8257582Y-8868250D02*
X7132500Y-8868250D01*
X13204999Y-10227301D02*
G75*
G03*
X13130000Y-10152301I-74999J1D01*
G01*
X10230000Y-12520000D02*
X10230000Y-11518000D01*
X13204999Y-10735301D02*
G75*
G03*
X13130000Y-10660301I-74999J1D01*
G01*
X10230000Y-8713513D02*
G75*
G03*
X10030000Y-8713513I-100000J0D01*
G01*
X7057500Y-8793369D02*
G75*
G03*
X7132500Y-8868250I75000J119D01*
G01*
X7111275Y-10646486D02*
G75*
G03*
X7060595Y-10744124I19925J-72314D01*
G01*
X8232720Y-8360250D02*
X7107638Y-8360250D01*
X10304915Y-6204301D02*
X11855000Y-6204301D01*
X13205000Y-11751301D02*
X13205000Y-11855301D01*
X11929999Y-9061301D02*
G75*
G03*
X12005000Y-9136301I75001J1D01*
G01*
X12005000Y-8628301D02*
X13130000Y-8628301D01*
X13130000Y-7866300D02*
G75*
G03*
X13205000Y-7791301I0J75000D01*
G01*
X13204999Y-9211301D02*
G75*
G03*
X13130000Y-9136301I-74999J1D01*
G01*
X11930000Y-7433301D02*
X11930000Y-7537301D01*
X13204999Y-11751301D02*
G75*
G03*
X13130000Y-11676301I-74999J1D01*
G01*
X7058343Y-9324125D02*
G75*
G03*
X7109248Y-9376250I72357J19745D01*
G01*
X12005000Y-7612301D02*
X13130000Y-7612301D01*
X10030000Y-10116000D02*
X10030000Y-11118000D01*
X7108858Y-9122488D02*
X8233940Y-9122488D01*
X11929999Y-11601301D02*
G75*
G03*
X12005000Y-11676301I75001J1D01*
G01*
X10030000Y-11118000D02*
G75*
G03*
X10230000Y-11118000I100000J0D01*
G01*
X7129917Y-8106491D02*
G75*
G03*
X7056565Y-8204127I-1868J-74969D01*
G01*
X13130000Y-12438300D02*
G75*
G03*
X13205000Y-12363301I0J75000D01*
G01*
X8235942Y-10392250D02*
X7110860Y-10392250D01*
X12005000Y-11676301D02*
X13130000Y-11676301D01*
X12005000Y-7866300D02*
G75*
G03*
X11930000Y-7941301I0J-75000D01*
G01*
X8329992Y-8964511D02*
G75*
G03*
X8257582Y-8868250I-71912J21271D01*
G01*
X10030000Y-7311513D02*
X10030000Y-8313513D01*
X12005000Y-12438300D02*
G75*
G03*
X11930000Y-12513301I0J-75000D01*
G01*
X12005000Y-11930300D02*
G75*
G03*
X11930000Y-12005301I0J-75000D01*
G01*
X8330000Y-8031488D02*
X8330000Y-7948513D01*
X12005000Y-9136301D02*
X13130000Y-9136301D01*
X8330000Y-11608513D02*
X8330000Y-11504513D01*
X8254998Y-10900250D02*
X7129998Y-10900250D01*
X7062336Y-11841369D02*
X7062207Y-11760122D01*
X7129918Y-7090488D02*
X8255000Y-7090488D01*
X13205000Y-7179301D02*
X13205000Y-7283301D01*
X11930000Y-8957301D02*
X11930000Y-9061301D01*
X11930000Y-6279301D02*
X11930000Y-7029301D01*
X8330006Y-7424217D02*
G75*
G03*
X8255165Y-7344250I-74846J4957D01*
G01*
X12005000Y-9390300D02*
G75*
G03*
X11930000Y-9465301I0J-75000D01*
G01*
X7111276Y-10646488D02*
X8236358Y-10646488D01*
X11929999Y-7029301D02*
G75*
G03*
X12005000Y-7104301I75001J1D01*
G01*
X10230000Y-11118000D02*
X10230000Y-10116000D01*
X13205000Y-8703301D02*
X13205000Y-8807301D01*
X10230000Y-12920000D02*
G75*
G03*
X10030000Y-12920000I-100000J0D01*
G01*
X10030000Y-9715513D02*
G75*
G03*
X10230000Y-9715513I100000J0D01*
G01*
X8405000Y-6836513D02*
X9955000Y-6836513D01*
X10030000Y-6911513D02*
G75*
G03*
X10230000Y-6911513I100000J0D01*
G01*
X8330000Y-12920000D02*
G75*
G03*
X8405000Y-12995000I75000J0D01*
G01*
X8262418Y-11916250D02*
X7137336Y-11916250D01*
X13130000Y-7358301D02*
X12005000Y-7358301D01*
X7132335Y-8614486D02*
G75*
G03*
X7057336Y-8689607I5J-75005D01*
G01*
X10229999Y-13363301D02*
G75*
G03*
X10305000Y-13438301I75001J1D01*
G01*
X8330000Y-10592513D02*
X8330000Y-10488513D01*
X11929999Y-10585301D02*
G75*
G03*
X12005000Y-10660301I75001J1D01*
G01*
X7109664Y-9630488D02*
X8234746Y-9630488D01*
X7055888Y-7777369D02*
X7055726Y-7675128D01*
X7055890Y-7777369D02*
G75*
G03*
X7130888Y-7852250I75000J119D01*
G01*
X8330009Y-10996516D02*
G75*
G03*
X8254998Y-10900250I-71909J21326D01*
G01*
X9955000Y-12995000D02*
X8405000Y-12995000D01*
X8254998Y-11662489D02*
G75*
G03*
X8330000Y-11608513I2992J74940D01*
G01*
X11929999Y-10077301D02*
G75*
G03*
X12005000Y-10152301I75001J1D01*
G01*
X10230000Y-8313513D02*
X10230000Y-7311513D01*
X8330004Y-9472514D02*
G75*
G03*
X8234331Y-9376250I-70494J25614D01*
G01*
X7059145Y-9832126D02*
G75*
G03*
X7110054Y-9884250I72345J19736D01*
G01*
X12005000Y-7358300D02*
G75*
G03*
X11930000Y-7433301I0J-75000D01*
G01*
X7108858Y-9122487D02*
G75*
G03*
X7058177Y-9220126I19922J-72314D01*
G01*
X10230000Y-6911513D02*
X10230000Y-6275722D01*
X13130000Y-10406301D02*
X12005000Y-10406301D01*
X7056730Y-8308127D02*
X7056565Y-8204127D01*
X7129918Y-7090488D02*
G75*
G03*
X7054918Y-7165607I2J-75002D01*
G01*
X10030000Y-8313513D02*
G75*
G03*
X10230000Y-8313513I100000J0D01*
G01*
X11930000Y-9465301D02*
X11930000Y-10077301D01*
X13205000Y-9211301D02*
X13205000Y-9315301D01*
X8236356Y-10646495D02*
G75*
G03*
X8330000Y-10592513I20844J72055D01*
G01*
X7062330Y-11841369D02*
G75*
G03*
X7137336Y-11916250I75010J129D01*
G01*
X11929999Y-7537301D02*
G75*
G03*
X12005000Y-7612301I75001J1D01*
G01*
X8330000Y-10084513D02*
X8330000Y-9980513D01*
X7061566Y-11356123D02*
X7061401Y-11252123D01*
X8257418Y-8614494D02*
G75*
G03*
X8330000Y-8560513I582J75004D01*
G01*
X8329997Y-9980512D02*
G75*
G03*
X8235136Y-9884250I-70607J25292D01*
G01*
X8330009Y-11504515D02*
G75*
G03*
X8254998Y-11408250I-71909J21326D01*
G01*
X7058342Y-9324126D02*
X7058177Y-9220126D01*
X9955000Y-12995000D02*
G75*
G03*
X10030000Y-12920000I0J75000D01*
G01*
X13204999Y-7179301D02*
G75*
G03*
X13130000Y-7104301I-74999J1D01*
G01*
X7129998Y-11662488D02*
X8254998Y-11662488D01*
X11855000Y-13438300D02*
G75*
G03*
X11930000Y-13363301I0J75000D01*
G01*
X8329998Y-11990882D02*
G75*
G03*
X8262418Y-11916250I-74998J2D01*
G01*
X10230000Y-13363301D02*
X10230000Y-12920000D01*
X8330000Y-9576513D02*
X8330000Y-9472513D01*
X7110470Y-10138488D02*
X8235552Y-10138488D01*
X7061570Y-11356122D02*
G75*
G03*
X7129998Y-11408250I71440J22802D01*
G01*
X8330000Y-11100513D02*
X8330000Y-10996513D01*
X13130000Y-7358300D02*
G75*
G03*
X13205000Y-7283301I0J75000D01*
G01*
X8255000Y-8106480D02*
G75*
G03*
X8330000Y-8031488I10J74990D01*
G01*
X11930000Y-10481301D02*
X11930000Y-10585301D01*
X11930000Y-12005301D02*
X11930000Y-12109301D01*
X13130000Y-8882300D02*
G75*
G03*
X13205000Y-8807301I0J75000D01*
G01*
X8255971Y-7852250D02*
X7130888Y-7852250D01*
X8233941Y-9122486D02*
G75*
G03*
X8330000Y-9068513I23099J71356D01*
G01*
X13130000Y-10406300D02*
G75*
G03*
X13205000Y-10331301I0J75000D01*
G01*
X12005000Y-10152301D02*
X13130000Y-10152301D01*
X7059954Y-10340124D02*
X7059789Y-10236125D01*
X13130000Y-9390300D02*
G75*
G03*
X13205000Y-9315301I0J75000D01*
G01*
X13204999Y-8703301D02*
G75*
G03*
X13130000Y-8628301I-74999J1D01*
G01*
X11929999Y-8553301D02*
G75*
G03*
X12005000Y-8628301I75001J1D01*
G01*
X8330000Y-9068513D02*
X8330000Y-8964513D01*
X7060760Y-10848124D02*
X7060595Y-10744124D01*
X7129998Y-11154491D02*
G75*
G03*
X7061401Y-11252123I2882J-74939D01*
G01*
X13130000Y-12438301D02*
X12005000Y-12438301D01*
X8254998Y-11154490D02*
G75*
G03*
X8330000Y-11100513I2992J74940D01*
G01*
X10304915Y-6204295D02*
G75*
G03*
X10230000Y-6275722I5J-75005D01*
G01*
X12005000Y-10914300D02*
G75*
G03*
X11930000Y-10989301I0J-75000D01*
G01*
X8234746Y-9630489D02*
G75*
G03*
X8330000Y-9576513I22354J71589D01*
G01*
X8330000Y-12920000D02*
X8330000Y-11990882D01*
X11930000Y-12513301D02*
X11930000Y-13363301D01*
X8255165Y-7344250D02*
X7130082Y-7344250D01*
X8235551Y-10138490D02*
G75*
G03*
X8330000Y-10084513I21609J71810D01*
G01*
X13130000Y-11930301D02*
X12005000Y-11930301D01*
D11*
D12*
X10029000Y-7011000D02*
X10079000Y-7061000D01*
X10079000Y-7011000D02*
X10029000Y-7061000D01*
X10029000Y-7086000D02*
X10079000Y-7136000D01*
X10079000Y-7086000D02*
X10029000Y-7136000D01*
X10029000Y-7161000D02*
X10079000Y-7211000D01*
X10079000Y-7161000D02*
X10029000Y-7211000D01*
X10030000Y-8414000D02*
X10080000Y-8464000D01*
X10080000Y-8414000D02*
X10030000Y-8464000D01*
X10030000Y-8489000D02*
X10080000Y-8539000D01*
X10080000Y-8489000D02*
X10030000Y-8539000D01*
X10030000Y-8564000D02*
X10080000Y-8614000D01*
X10080000Y-8564000D02*
X10030000Y-8614000D01*
X10030000Y-9816000D02*
X10080000Y-9866000D01*
X10080000Y-9816000D02*
X10030000Y-9866000D01*
X10030000Y-9891000D02*
X10080000Y-9941000D01*
X10080000Y-9891000D02*
X10030000Y-9941000D01*
X10030000Y-9966000D02*
X10080000Y-10016000D01*
X10080000Y-9966000D02*
X10030000Y-10016000D01*
X10030000Y-11217000D02*
X10080000Y-11267000D01*
X10080000Y-11217000D02*
X10030000Y-11267000D01*
X10030000Y-11292000D02*
X10080000Y-11342000D01*
X10080000Y-11292000D02*
X10030000Y-11342000D01*
X10030000Y-11367000D02*
X10080000Y-11417000D01*
X10080000Y-11367000D02*
X10030000Y-11417000D01*
X10030000Y-12620000D02*
X10080000Y-12670000D01*
X10080000Y-12620000D02*
X10030000Y-12670000D01*
X10030000Y-12695000D02*
X10080000Y-12745000D01*
X10080000Y-12695000D02*
X10030000Y-12745000D01*
X10030000Y-12770000D02*
X10080000Y-12820000D01*
X10080000Y-12770000D02*
X10030000Y-12820000D01*
X10179000Y-7011000D02*
X10229000Y-7061000D01*
X10229000Y-7011000D02*
X10179000Y-7061000D01*
X10179000Y-7086000D02*
X10229000Y-7136000D01*
X10229000Y-7086000D02*
X10179000Y-7136000D01*
X10179000Y-7161000D02*
X10229000Y-7211000D01*
X10229000Y-7161000D02*
X10179000Y-7211000D01*
X10180000Y-8414000D02*
X10230000Y-8464000D01*
X10230000Y-8414000D02*
X10180000Y-8464000D01*
X10180000Y-8489000D02*
X10230000Y-8539000D01*
X10230000Y-8489000D02*
X10180000Y-8539000D01*
X10180000Y-8564000D02*
X10230000Y-8614000D01*
X10230000Y-8564000D02*
X10180000Y-8614000D01*
X10180000Y-9816000D02*
X10230000Y-9866000D01*
X10230000Y-9816000D02*
X10180000Y-9866000D01*
X10180000Y-9891000D02*
X10230000Y-9941000D01*
X10230000Y-9891000D02*
X10180000Y-9941000D01*
X10180000Y-9966000D02*
X10230000Y-10016000D01*
X10230000Y-9966000D02*
X10180000Y-10016000D01*
X10180000Y-11217000D02*
X10230000Y-11267000D01*
X10230000Y-11217000D02*
X10180000Y-11267000D01*
X10180000Y-11292000D02*
X10230000Y-11342000D01*
X10230000Y-11292000D02*
X10180000Y-11342000D01*
X10180000Y-11367000D02*
X10230000Y-11417000D01*
X10230000Y-11367000D02*
X10180000Y-11417000D01*
X10180000Y-12620000D02*
X10230000Y-12670000D01*
X10230000Y-12620000D02*
X10180000Y-12670000D01*
X10180000Y-12695000D02*
X10230000Y-12745000D01*
X10230000Y-12695000D02*
X10180000Y-12745000D01*
X10180000Y-12770000D02*
X10230000Y-12820000D01*
X10230000Y-12770000D02*
X10180000Y-12820000D01*
D11*
X7301334Y-13762284D02*
X7301334Y-13562284D01*
X7301334Y-13562284D02*
X7348953Y-13562284D01*
X7348953Y-13562284D02*
X7377525Y-13571808D01*
X7377525Y-13571808D02*
X7396572Y-13590856D01*
X7396572Y-13590856D02*
X7406096Y-13609903D01*
X7406096Y-13609903D02*
X7415620Y-13647999D01*
X7415620Y-13647999D02*
X7415620Y-13676570D01*
X7415620Y-13676570D02*
X7406096Y-13714665D01*
X7406096Y-13714665D02*
X7396572Y-13733713D01*
X7396572Y-13733713D02*
X7377525Y-13752761D01*
X7377525Y-13752761D02*
X7348953Y-13762284D01*
X7348953Y-13762284D02*
X7301334Y-13762284D01*
X7501334Y-13762284D02*
X7501334Y-13628951D01*
X7501334Y-13667046D02*
X7510858Y-13647999D01*
X7510858Y-13647999D02*
X7520382Y-13638475D01*
X7520382Y-13638475D02*
X7539430Y-13628951D01*
X7539430Y-13628951D02*
X7558477Y-13628951D01*
X7625144Y-13762284D02*
X7625144Y-13628951D01*
X7625144Y-13562284D02*
X7615620Y-13571808D01*
X7615620Y-13571808D02*
X7625144Y-13581332D01*
X7625144Y-13581332D02*
X7634668Y-13571808D01*
X7634668Y-13571808D02*
X7625144Y-13562284D01*
X7625144Y-13562284D02*
X7625144Y-13581332D01*
X7748953Y-13762284D02*
X7729906Y-13752761D01*
X7729906Y-13752761D02*
X7720382Y-13733713D01*
X7720382Y-13733713D02*
X7720382Y-13562284D01*
X7853715Y-13762284D02*
X7834668Y-13752761D01*
X7834668Y-13752761D02*
X7825144Y-13733713D01*
X7825144Y-13733713D02*
X7825144Y-13562284D01*
X8082287Y-13762284D02*
X8082287Y-13562284D01*
X8082287Y-13562284D02*
X8148953Y-13705142D01*
X8148953Y-13705142D02*
X8215620Y-13562284D01*
X8215620Y-13562284D02*
X8215620Y-13762284D01*
X8396573Y-13762284D02*
X8396573Y-13657523D01*
X8396573Y-13657523D02*
X8387049Y-13638475D01*
X8387049Y-13638475D02*
X8368001Y-13628951D01*
X8368001Y-13628951D02*
X8329906Y-13628951D01*
X8329906Y-13628951D02*
X8310858Y-13638475D01*
X8396573Y-13752761D02*
X8377525Y-13762284D01*
X8377525Y-13762284D02*
X8329906Y-13762284D01*
X8329906Y-13762284D02*
X8310858Y-13752761D01*
X8310858Y-13752761D02*
X8301334Y-13733713D01*
X8301334Y-13733713D02*
X8301334Y-13714665D01*
X8301334Y-13714665D02*
X8310858Y-13695618D01*
X8310858Y-13695618D02*
X8329906Y-13686094D01*
X8329906Y-13686094D02*
X8377525Y-13686094D01*
X8377525Y-13686094D02*
X8396573Y-13676570D01*
X8491811Y-13628951D02*
X8491811Y-13828951D01*
X8491811Y-13638475D02*
X8510858Y-13628951D01*
X8510858Y-13628951D02*
X8548954Y-13628951D01*
X8548954Y-13628951D02*
X8568001Y-13638475D01*
X8568001Y-13638475D02*
X8577525Y-13647999D01*
X8577525Y-13647999D02*
X8587049Y-13667046D01*
X8587049Y-13667046D02*
X8587049Y-13724189D01*
X8587049Y-13724189D02*
X8577525Y-13743237D01*
X8577525Y-13743237D02*
X8568001Y-13752761D01*
X8568001Y-13752761D02*
X8548954Y-13762284D01*
X8548954Y-13762284D02*
X8510858Y-13762284D01*
X8510858Y-13762284D02*
X8491811Y-13752761D01*
X8672763Y-13743237D02*
X8682287Y-13752761D01*
X8682287Y-13752761D02*
X8672763Y-13762284D01*
X8672763Y-13762284D02*
X8663239Y-13752761D01*
X8663239Y-13752761D02*
X8672763Y-13743237D01*
X8672763Y-13743237D02*
X8672763Y-13762284D01*
X8672763Y-13638475D02*
X8682287Y-13647999D01*
X8682287Y-13647999D02*
X8672763Y-13657523D01*
X8672763Y-13657523D02*
X8663239Y-13647999D01*
X8663239Y-13647999D02*
X8672763Y-13638475D01*
X8672763Y-13638475D02*
X8672763Y-13657523D01*
D12*
X6990558Y-14065801D02*
X7040558Y-14115801D01*
X7040558Y-14065801D02*
X6990558Y-14115801D01*
D11*
X7339430Y-13982284D02*
X7358477Y-13982284D01*
X7358477Y-13982284D02*
X7377525Y-13991808D01*
X7377525Y-13991808D02*
X7387049Y-14001332D01*
X7387049Y-14001332D02*
X7396572Y-14020380D01*
X7396572Y-14020380D02*
X7406096Y-14058475D01*
X7406096Y-14058475D02*
X7406096Y-14106094D01*
X7406096Y-14106094D02*
X7396572Y-14144189D01*
X7396572Y-14144189D02*
X7387049Y-14163237D01*
X7387049Y-14163237D02*
X7377525Y-14172761D01*
X7377525Y-14172761D02*
X7358477Y-14182284D01*
X7358477Y-14182284D02*
X7339430Y-14182284D01*
X7339430Y-14182284D02*
X7320382Y-14172761D01*
X7320382Y-14172761D02*
X7310858Y-14163237D01*
X7310858Y-14163237D02*
X7301334Y-14144189D01*
X7301334Y-14144189D02*
X7291811Y-14106094D01*
X7291811Y-14106094D02*
X7291811Y-14058475D01*
X7291811Y-14058475D02*
X7301334Y-14020380D01*
X7301334Y-14020380D02*
X7310858Y-14001332D01*
X7310858Y-14001332D02*
X7320382Y-13991808D01*
X7320382Y-13991808D02*
X7339430Y-13982284D01*
X7491811Y-14163237D02*
X7501334Y-14172761D01*
X7501334Y-14172761D02*
X7491811Y-14182284D01*
X7491811Y-14182284D02*
X7482287Y-14172761D01*
X7482287Y-14172761D02*
X7491811Y-14163237D01*
X7491811Y-14163237D02*
X7491811Y-14182284D01*
X7682287Y-13982284D02*
X7587049Y-13982284D01*
X7587049Y-13982284D02*
X7577525Y-14077523D01*
X7577525Y-14077523D02*
X7587049Y-14067999D01*
X7587049Y-14067999D02*
X7606096Y-14058475D01*
X7606096Y-14058475D02*
X7653715Y-14058475D01*
X7653715Y-14058475D02*
X7672763Y-14067999D01*
X7672763Y-14067999D02*
X7682287Y-14077523D01*
X7682287Y-14077523D02*
X7691811Y-14096570D01*
X7691811Y-14096570D02*
X7691811Y-14144189D01*
X7691811Y-14144189D02*
X7682287Y-14163237D01*
X7682287Y-14163237D02*
X7672763Y-14172761D01*
X7672763Y-14172761D02*
X7653715Y-14182284D01*
X7653715Y-14182284D02*
X7606096Y-14182284D01*
X7606096Y-14182284D02*
X7587049Y-14172761D01*
X7587049Y-14172761D02*
X7577525Y-14163237D01*
X7815620Y-13982284D02*
X7834668Y-13982284D01*
X7834668Y-13982284D02*
X7853715Y-13991808D01*
X7853715Y-13991808D02*
X7863239Y-14001332D01*
X7863239Y-14001332D02*
X7872763Y-14020380D01*
X7872763Y-14020380D02*
X7882287Y-14058475D01*
X7882287Y-14058475D02*
X7882287Y-14106094D01*
X7882287Y-14106094D02*
X7872763Y-14144189D01*
X7872763Y-14144189D02*
X7863239Y-14163237D01*
X7863239Y-14163237D02*
X7853715Y-14172761D01*
X7853715Y-14172761D02*
X7834668Y-14182284D01*
X7834668Y-14182284D02*
X7815620Y-14182284D01*
X7815620Y-14182284D02*
X7796572Y-14172761D01*
X7796572Y-14172761D02*
X7787049Y-14163237D01*
X7787049Y-14163237D02*
X7777525Y-14144189D01*
X7777525Y-14144189D02*
X7768001Y-14106094D01*
X7768001Y-14106094D02*
X7768001Y-14058475D01*
X7768001Y-14058475D02*
X7777525Y-14020380D01*
X7777525Y-14020380D02*
X7787049Y-14001332D01*
X7787049Y-14001332D02*
X7796572Y-13991808D01*
X7796572Y-13991808D02*
X7815620Y-13982284D01*
X8006096Y-13982284D02*
X8025144Y-13982284D01*
X8025144Y-13982284D02*
X8044192Y-13991808D01*
X8044192Y-13991808D02*
X8053715Y-14001332D01*
X8053715Y-14001332D02*
X8063239Y-14020380D01*
X8063239Y-14020380D02*
X8072763Y-14058475D01*
X8072763Y-14058475D02*
X8072763Y-14106094D01*
X8072763Y-14106094D02*
X8063239Y-14144189D01*
X8063239Y-14144189D02*
X8053715Y-14163237D01*
X8053715Y-14163237D02*
X8044192Y-14172761D01*
X8044192Y-14172761D02*
X8025144Y-14182284D01*
X8025144Y-14182284D02*
X8006096Y-14182284D01*
X8006096Y-14182284D02*
X7987049Y-14172761D01*
X7987049Y-14172761D02*
X7977525Y-14163237D01*
X7977525Y-14163237D02*
X7968001Y-14144189D01*
X7968001Y-14144189D02*
X7958477Y-14106094D01*
X7958477Y-14106094D02*
X7958477Y-14058475D01*
X7958477Y-14058475D02*
X7968001Y-14020380D01*
X7968001Y-14020380D02*
X7977525Y-14001332D01*
X7977525Y-14001332D02*
X7987049Y-13991808D01*
X7987049Y-13991808D02*
X8006096Y-13982284D01*
X8158477Y-14182284D02*
X8158477Y-14048951D01*
X8158477Y-14067999D02*
X8168001Y-14058475D01*
X8168001Y-14058475D02*
X8187049Y-14048951D01*
X8187049Y-14048951D02*
X8215620Y-14048951D01*
X8215620Y-14048951D02*
X8234668Y-14058475D01*
X8234668Y-14058475D02*
X8244192Y-14077523D01*
X8244192Y-14077523D02*
X8244192Y-14182284D01*
X8244192Y-14077523D02*
X8253715Y-14058475D01*
X8253715Y-14058475D02*
X8272763Y-14048951D01*
X8272763Y-14048951D02*
X8301334Y-14048951D01*
X8301334Y-14048951D02*
X8320382Y-14058475D01*
X8320382Y-14058475D02*
X8329906Y-14077523D01*
X8329906Y-14077523D02*
X8329906Y-14182284D01*
X8425144Y-14182284D02*
X8425144Y-14048951D01*
X8425144Y-14067999D02*
X8434668Y-14058475D01*
X8434668Y-14058475D02*
X8453715Y-14048951D01*
X8453715Y-14048951D02*
X8482287Y-14048951D01*
X8482287Y-14048951D02*
X8501335Y-14058475D01*
X8501335Y-14058475D02*
X8510858Y-14077523D01*
X8510858Y-14077523D02*
X8510858Y-14182284D01*
X8510858Y-14077523D02*
X8520382Y-14058475D01*
X8520382Y-14058475D02*
X8539430Y-14048951D01*
X8539430Y-14048951D02*
X8568001Y-14048951D01*
X8568001Y-14048951D02*
X8587049Y-14058475D01*
X8587049Y-14058475D02*
X8596573Y-14077523D01*
X8596573Y-14077523D02*
X8596573Y-14182284D01*
X8987049Y-13972761D02*
X8815620Y-14229903D01*
X9244192Y-13982284D02*
X9263239Y-13982284D01*
X9263239Y-13982284D02*
X9282287Y-13991808D01*
X9282287Y-13991808D02*
X9291811Y-14001332D01*
X9291811Y-14001332D02*
X9301335Y-14020380D01*
X9301335Y-14020380D02*
X9310858Y-14058475D01*
X9310858Y-14058475D02*
X9310858Y-14106094D01*
X9310858Y-14106094D02*
X9301335Y-14144189D01*
X9301335Y-14144189D02*
X9291811Y-14163237D01*
X9291811Y-14163237D02*
X9282287Y-14172761D01*
X9282287Y-14172761D02*
X9263239Y-14182284D01*
X9263239Y-14182284D02*
X9244192Y-14182284D01*
X9244192Y-14182284D02*
X9225144Y-14172761D01*
X9225144Y-14172761D02*
X9215620Y-14163237D01*
X9215620Y-14163237D02*
X9206097Y-14144189D01*
X9206097Y-14144189D02*
X9196573Y-14106094D01*
X9196573Y-14106094D02*
X9196573Y-14058475D01*
X9196573Y-14058475D02*
X9206097Y-14020380D01*
X9206097Y-14020380D02*
X9215620Y-14001332D01*
X9215620Y-14001332D02*
X9225144Y-13991808D01*
X9225144Y-13991808D02*
X9244192Y-13982284D01*
X9396573Y-14163237D02*
X9406097Y-14172761D01*
X9406097Y-14172761D02*
X9396573Y-14182284D01*
X9396573Y-14182284D02*
X9387049Y-14172761D01*
X9387049Y-14172761D02*
X9396573Y-14163237D01*
X9396573Y-14163237D02*
X9396573Y-14182284D01*
X9529906Y-13982284D02*
X9548954Y-13982284D01*
X9548954Y-13982284D02*
X9568001Y-13991808D01*
X9568001Y-13991808D02*
X9577525Y-14001332D01*
X9577525Y-14001332D02*
X9587049Y-14020380D01*
X9587049Y-14020380D02*
X9596573Y-14058475D01*
X9596573Y-14058475D02*
X9596573Y-14106094D01*
X9596573Y-14106094D02*
X9587049Y-14144189D01*
X9587049Y-14144189D02*
X9577525Y-14163237D01*
X9577525Y-14163237D02*
X9568001Y-14172761D01*
X9568001Y-14172761D02*
X9548954Y-14182284D01*
X9548954Y-14182284D02*
X9529906Y-14182284D01*
X9529906Y-14182284D02*
X9510858Y-14172761D01*
X9510858Y-14172761D02*
X9501335Y-14163237D01*
X9501335Y-14163237D02*
X9491811Y-14144189D01*
X9491811Y-14144189D02*
X9482287Y-14106094D01*
X9482287Y-14106094D02*
X9482287Y-14058475D01*
X9482287Y-14058475D02*
X9491811Y-14020380D01*
X9491811Y-14020380D02*
X9501335Y-14001332D01*
X9501335Y-14001332D02*
X9510858Y-13991808D01*
X9510858Y-13991808D02*
X9529906Y-13982284D01*
X9787049Y-14182284D02*
X9672763Y-14182284D01*
X9729906Y-14182284D02*
X9729906Y-13982284D01*
X9729906Y-13982284D02*
X9710858Y-14010856D01*
X9710858Y-14010856D02*
X9691811Y-14029903D01*
X9691811Y-14029903D02*
X9672763Y-14039427D01*
X9882287Y-14182284D02*
X9920382Y-14182284D01*
X9920382Y-14182284D02*
X9939430Y-14172761D01*
X9939430Y-14172761D02*
X9948954Y-14163237D01*
X9948954Y-14163237D02*
X9968001Y-14134665D01*
X9968001Y-14134665D02*
X9977525Y-14096570D01*
X9977525Y-14096570D02*
X9977525Y-14020380D01*
X9977525Y-14020380D02*
X9968001Y-14001332D01*
X9968001Y-14001332D02*
X9958478Y-13991808D01*
X9958478Y-13991808D02*
X9939430Y-13982284D01*
X9939430Y-13982284D02*
X9901335Y-13982284D01*
X9901335Y-13982284D02*
X9882287Y-13991808D01*
X9882287Y-13991808D02*
X9872763Y-14001332D01*
X9872763Y-14001332D02*
X9863239Y-14020380D01*
X9863239Y-14020380D02*
X9863239Y-14067999D01*
X9863239Y-14067999D02*
X9872763Y-14087046D01*
X9872763Y-14087046D02*
X9882287Y-14096570D01*
X9882287Y-14096570D02*
X9901335Y-14106094D01*
X9901335Y-14106094D02*
X9939430Y-14106094D01*
X9939430Y-14106094D02*
X9958478Y-14096570D01*
X9958478Y-14096570D02*
X9968001Y-14087046D01*
X9968001Y-14087046D02*
X9977525Y-14067999D01*
X10044192Y-13982284D02*
X10177525Y-13982284D01*
X10177525Y-13982284D02*
X10091811Y-14182284D01*
X10244192Y-13982284D02*
X10244192Y-14020380D01*
X10320382Y-13982284D02*
X10320382Y-14020380D01*
X10615621Y-14258475D02*
X10606097Y-14248951D01*
X10606097Y-14248951D02*
X10587049Y-14220380D01*
X10587049Y-14220380D02*
X10577525Y-14201332D01*
X10577525Y-14201332D02*
X10568001Y-14172761D01*
X10568001Y-14172761D02*
X10558478Y-14125142D01*
X10558478Y-14125142D02*
X10558478Y-14087046D01*
X10558478Y-14087046D02*
X10568001Y-14039427D01*
X10568001Y-14039427D02*
X10577525Y-14010856D01*
X10577525Y-14010856D02*
X10587049Y-13991808D01*
X10587049Y-13991808D02*
X10606097Y-13963237D01*
X10606097Y-13963237D02*
X10615621Y-13953713D01*
X10672763Y-13982284D02*
X10796573Y-13982284D01*
X10796573Y-13982284D02*
X10729906Y-14058475D01*
X10729906Y-14058475D02*
X10758478Y-14058475D01*
X10758478Y-14058475D02*
X10777525Y-14067999D01*
X10777525Y-14067999D02*
X10787049Y-14077523D01*
X10787049Y-14077523D02*
X10796573Y-14096570D01*
X10796573Y-14096570D02*
X10796573Y-14144189D01*
X10796573Y-14144189D02*
X10787049Y-14163237D01*
X10787049Y-14163237D02*
X10777525Y-14172761D01*
X10777525Y-14172761D02*
X10758478Y-14182284D01*
X10758478Y-14182284D02*
X10701335Y-14182284D01*
X10701335Y-14182284D02*
X10682287Y-14172761D01*
X10682287Y-14172761D02*
X10672763Y-14163237D01*
X10920382Y-13982284D02*
X10939430Y-13982284D01*
X10939430Y-13982284D02*
X10958478Y-13991808D01*
X10958478Y-13991808D02*
X10968001Y-14001332D01*
X10968001Y-14001332D02*
X10977525Y-14020380D01*
X10977525Y-14020380D02*
X10987049Y-14058475D01*
X10987049Y-14058475D02*
X10987049Y-14106094D01*
X10987049Y-14106094D02*
X10977525Y-14144189D01*
X10977525Y-14144189D02*
X10968001Y-14163237D01*
X10968001Y-14163237D02*
X10958478Y-14172761D01*
X10958478Y-14172761D02*
X10939430Y-14182284D01*
X10939430Y-14182284D02*
X10920382Y-14182284D01*
X10920382Y-14182284D02*
X10901335Y-14172761D01*
X10901335Y-14172761D02*
X10891811Y-14163237D01*
X10891811Y-14163237D02*
X10882287Y-14144189D01*
X10882287Y-14144189D02*
X10872763Y-14106094D01*
X10872763Y-14106094D02*
X10872763Y-14058475D01*
X10872763Y-14058475D02*
X10882287Y-14020380D01*
X10882287Y-14020380D02*
X10891811Y-14001332D01*
X10891811Y-14001332D02*
X10901335Y-13991808D01*
X10901335Y-13991808D02*
X10920382Y-13982284D01*
X11225144Y-14182284D02*
X11225144Y-13982284D01*
X11310859Y-14182284D02*
X11310859Y-14077523D01*
X11310859Y-14077523D02*
X11301335Y-14058475D01*
X11301335Y-14058475D02*
X11282287Y-14048951D01*
X11282287Y-14048951D02*
X11253716Y-14048951D01*
X11253716Y-14048951D02*
X11234668Y-14058475D01*
X11234668Y-14058475D02*
X11225144Y-14067999D01*
X11434668Y-14182284D02*
X11415620Y-14172761D01*
X11415620Y-14172761D02*
X11406097Y-14163237D01*
X11406097Y-14163237D02*
X11396573Y-14144189D01*
X11396573Y-14144189D02*
X11396573Y-14087046D01*
X11396573Y-14087046D02*
X11406097Y-14067999D01*
X11406097Y-14067999D02*
X11415620Y-14058475D01*
X11415620Y-14058475D02*
X11434668Y-14048951D01*
X11434668Y-14048951D02*
X11463240Y-14048951D01*
X11463240Y-14048951D02*
X11482287Y-14058475D01*
X11482287Y-14058475D02*
X11491811Y-14067999D01*
X11491811Y-14067999D02*
X11501335Y-14087046D01*
X11501335Y-14087046D02*
X11501335Y-14144189D01*
X11501335Y-14144189D02*
X11491811Y-14163237D01*
X11491811Y-14163237D02*
X11482287Y-14172761D01*
X11482287Y-14172761D02*
X11463240Y-14182284D01*
X11463240Y-14182284D02*
X11434668Y-14182284D01*
X11615620Y-14182284D02*
X11596573Y-14172761D01*
X11596573Y-14172761D02*
X11587049Y-14153713D01*
X11587049Y-14153713D02*
X11587049Y-13982284D01*
X11768001Y-14172761D02*
X11748954Y-14182284D01*
X11748954Y-14182284D02*
X11710859Y-14182284D01*
X11710859Y-14182284D02*
X11691811Y-14172761D01*
X11691811Y-14172761D02*
X11682287Y-14153713D01*
X11682287Y-14153713D02*
X11682287Y-14077523D01*
X11682287Y-14077523D02*
X11691811Y-14058475D01*
X11691811Y-14058475D02*
X11710859Y-14048951D01*
X11710859Y-14048951D02*
X11748954Y-14048951D01*
X11748954Y-14048951D02*
X11768001Y-14058475D01*
X11768001Y-14058475D02*
X11777525Y-14077523D01*
X11777525Y-14077523D02*
X11777525Y-14096570D01*
X11777525Y-14096570D02*
X11682287Y-14115618D01*
X11853716Y-14172761D02*
X11872763Y-14182284D01*
X11872763Y-14182284D02*
X11910859Y-14182284D01*
X11910859Y-14182284D02*
X11929906Y-14172761D01*
X11929906Y-14172761D02*
X11939430Y-14153713D01*
X11939430Y-14153713D02*
X11939430Y-14144189D01*
X11939430Y-14144189D02*
X11929906Y-14125142D01*
X11929906Y-14125142D02*
X11910859Y-14115618D01*
X11910859Y-14115618D02*
X11882287Y-14115618D01*
X11882287Y-14115618D02*
X11863240Y-14106094D01*
X11863240Y-14106094D02*
X11853716Y-14087046D01*
X11853716Y-14087046D02*
X11853716Y-14077523D01*
X11853716Y-14077523D02*
X11863240Y-14058475D01*
X11863240Y-14058475D02*
X11882287Y-14048951D01*
X11882287Y-14048951D02*
X11910859Y-14048951D01*
X11910859Y-14048951D02*
X11929906Y-14058475D01*
X12006097Y-14258475D02*
X12015621Y-14248951D01*
X12015621Y-14248951D02*
X12034668Y-14220380D01*
X12034668Y-14220380D02*
X12044192Y-14201332D01*
X12044192Y-14201332D02*
X12053716Y-14172761D01*
X12053716Y-14172761D02*
X12063240Y-14125142D01*
X12063240Y-14125142D02*
X12063240Y-14087046D01*
X12063240Y-14087046D02*
X12053716Y-14039427D01*
X12053716Y-14039427D02*
X12044192Y-14010856D01*
X12044192Y-14010856D02*
X12034668Y-13991808D01*
X12034668Y-13991808D02*
X12015621Y-13963237D01*
X12015621Y-13963237D02*
X12006097Y-13953713D01*
X12368002Y-14258475D02*
X12358478Y-14248951D01*
X12358478Y-14248951D02*
X12339430Y-14220380D01*
X12339430Y-14220380D02*
X12329906Y-14201332D01*
X12329906Y-14201332D02*
X12320382Y-14172761D01*
X12320382Y-14172761D02*
X12310859Y-14125142D01*
X12310859Y-14125142D02*
X12310859Y-14087046D01*
X12310859Y-14087046D02*
X12320382Y-14039427D01*
X12320382Y-14039427D02*
X12329906Y-14010856D01*
X12329906Y-14010856D02*
X12339430Y-13991808D01*
X12339430Y-13991808D02*
X12358478Y-13963237D01*
X12358478Y-13963237D02*
X12368002Y-13953713D01*
X12444192Y-14048951D02*
X12444192Y-14182284D01*
X12444192Y-14067999D02*
X12453716Y-14058475D01*
X12453716Y-14058475D02*
X12472763Y-14048951D01*
X12472763Y-14048951D02*
X12501335Y-14048951D01*
X12501335Y-14048951D02*
X12520382Y-14058475D01*
X12520382Y-14058475D02*
X12529906Y-14077523D01*
X12529906Y-14077523D02*
X12529906Y-14182284D01*
X12653716Y-14182284D02*
X12634668Y-14172761D01*
X12634668Y-14172761D02*
X12625144Y-14163237D01*
X12625144Y-14163237D02*
X12615621Y-14144189D01*
X12615621Y-14144189D02*
X12615621Y-14087046D01*
X12615621Y-14087046D02*
X12625144Y-14067999D01*
X12625144Y-14067999D02*
X12634668Y-14058475D01*
X12634668Y-14058475D02*
X12653716Y-14048951D01*
X12653716Y-14048951D02*
X12682287Y-14048951D01*
X12682287Y-14048951D02*
X12701335Y-14058475D01*
X12701335Y-14058475D02*
X12710859Y-14067999D01*
X12710859Y-14067999D02*
X12720382Y-14087046D01*
X12720382Y-14087046D02*
X12720382Y-14144189D01*
X12720382Y-14144189D02*
X12710859Y-14163237D01*
X12710859Y-14163237D02*
X12701335Y-14172761D01*
X12701335Y-14172761D02*
X12682287Y-14182284D01*
X12682287Y-14182284D02*
X12653716Y-14182284D01*
X12777525Y-14048951D02*
X12853716Y-14048951D01*
X12806097Y-13982284D02*
X12806097Y-14153713D01*
X12806097Y-14153713D02*
X12815621Y-14172761D01*
X12815621Y-14172761D02*
X12834668Y-14182284D01*
X12834668Y-14182284D02*
X12853716Y-14182284D01*
X13072763Y-14048951D02*
X13072763Y-14248951D01*
X13072763Y-14058475D02*
X13091811Y-14048951D01*
X13091811Y-14048951D02*
X13129906Y-14048951D01*
X13129906Y-14048951D02*
X13148954Y-14058475D01*
X13148954Y-14058475D02*
X13158478Y-14067999D01*
X13158478Y-14067999D02*
X13168002Y-14087046D01*
X13168002Y-14087046D02*
X13168002Y-14144189D01*
X13168002Y-14144189D02*
X13158478Y-14163237D01*
X13158478Y-14163237D02*
X13148954Y-14172761D01*
X13148954Y-14172761D02*
X13129906Y-14182284D01*
X13129906Y-14182284D02*
X13091811Y-14182284D01*
X13091811Y-14182284D02*
X13072763Y-14172761D01*
X13282287Y-14182284D02*
X13263240Y-14172761D01*
X13263240Y-14172761D02*
X13253716Y-14153713D01*
X13253716Y-14153713D02*
X13253716Y-13982284D01*
X13444192Y-14182284D02*
X13444192Y-14077523D01*
X13444192Y-14077523D02*
X13434668Y-14058475D01*
X13434668Y-14058475D02*
X13415621Y-14048951D01*
X13415621Y-14048951D02*
X13377525Y-14048951D01*
X13377525Y-14048951D02*
X13358478Y-14058475D01*
X13444192Y-14172761D02*
X13425144Y-14182284D01*
X13425144Y-14182284D02*
X13377525Y-14182284D01*
X13377525Y-14182284D02*
X13358478Y-14172761D01*
X13358478Y-14172761D02*
X13348954Y-14153713D01*
X13348954Y-14153713D02*
X13348954Y-14134665D01*
X13348954Y-14134665D02*
X13358478Y-14115618D01*
X13358478Y-14115618D02*
X13377525Y-14106094D01*
X13377525Y-14106094D02*
X13425144Y-14106094D01*
X13425144Y-14106094D02*
X13444192Y-14096570D01*
X13510859Y-14048951D02*
X13587049Y-14048951D01*
X13539430Y-13982284D02*
X13539430Y-14153713D01*
X13539430Y-14153713D02*
X13548954Y-14172761D01*
X13548954Y-14172761D02*
X13568002Y-14182284D01*
X13568002Y-14182284D02*
X13587049Y-14182284D01*
X13729906Y-14172761D02*
X13710859Y-14182284D01*
X13710859Y-14182284D02*
X13672763Y-14182284D01*
X13672763Y-14182284D02*
X13653716Y-14172761D01*
X13653716Y-14172761D02*
X13644192Y-14153713D01*
X13644192Y-14153713D02*
X13644192Y-14077523D01*
X13644192Y-14077523D02*
X13653716Y-14058475D01*
X13653716Y-14058475D02*
X13672763Y-14048951D01*
X13672763Y-14048951D02*
X13710859Y-14048951D01*
X13710859Y-14048951D02*
X13729906Y-14058475D01*
X13729906Y-14058475D02*
X13739430Y-14077523D01*
X13739430Y-14077523D02*
X13739430Y-14096570D01*
X13739430Y-14096570D02*
X13644192Y-14115618D01*
X13910859Y-14182284D02*
X13910859Y-13982284D01*
X13910859Y-14172761D02*
X13891811Y-14182284D01*
X13891811Y-14182284D02*
X13853716Y-14182284D01*
X13853716Y-14182284D02*
X13834668Y-14172761D01*
X13834668Y-14172761D02*
X13825144Y-14163237D01*
X13825144Y-14163237D02*
X13815621Y-14144189D01*
X13815621Y-14144189D02*
X13815621Y-14087046D01*
X13815621Y-14087046D02*
X13825144Y-14067999D01*
X13825144Y-14067999D02*
X13834668Y-14058475D01*
X13834668Y-14058475D02*
X13853716Y-14048951D01*
X13853716Y-14048951D02*
X13891811Y-14048951D01*
X13891811Y-14048951D02*
X13910859Y-14058475D01*
X13987049Y-14258475D02*
X13996573Y-14248951D01*
X13996573Y-14248951D02*
X14015621Y-14220380D01*
X14015621Y-14220380D02*
X14025144Y-14201332D01*
X14025144Y-14201332D02*
X14034668Y-14172761D01*
X14034668Y-14172761D02*
X14044192Y-14125142D01*
X14044192Y-14125142D02*
X14044192Y-14087046D01*
X14044192Y-14087046D02*
X14034668Y-14039427D01*
X14034668Y-14039427D02*
X14025144Y-14010856D01*
X14025144Y-14010856D02*
X14015621Y-13991808D01*
X14015621Y-13991808D02*
X13996573Y-13963237D01*
X13996573Y-13963237D02*
X13987049Y-13953713D01*
M02*
