%TF.GenerationSoftware,KiCad,Pcbnew,7.0.10*%
%TF.CreationDate,2024-07-21T07:40:16-04:00*%
%TF.ProjectId,12.1.1 - PLC Connector.kicad_pcb_appended,31322e31-2e31-4202-9d20-504c4320436f,rev?*%
%TF.SameCoordinates,Original*%
%TF.FileFunction,Copper,L2,Bot*%
%TF.FilePolarity,Positive*%
%FSLAX46Y46*%
G04 Gerber Fmt 4.6, Leading zero omitted, Abs format (unit mm)*
G04 Created by KiCad (PCBNEW 7.0.10) date 2024-07-21 07:40:16*
%MOMM*%
%LPD*%
G01*
G04 APERTURE LIST*
G04 Aperture macros list*
%AMRoundRect*
0 Rectangle with rounded corners*
0 $1 Rounding radius*
0 $2 $3 $4 $5 $6 $7 $8 $9 X,Y pos of 4 corners*
0 Add a 4 corners polygon primitive as box body*
4,1,4,$2,$3,$4,$5,$6,$7,$8,$9,$2,$3,0*
0 Add four circle primitives for the rounded corners*
1,1,$1+$1,$2,$3*
1,1,$1+$1,$4,$5*
1,1,$1+$1,$6,$7*
1,1,$1+$1,$8,$9*
0 Add four rect primitives between the rounded corners*
20,1,$1+$1,$2,$3,$4,$5,0*
20,1,$1+$1,$4,$5,$6,$7,0*
20,1,$1+$1,$6,$7,$8,$9,0*
20,1,$1+$1,$8,$9,$2,$3,0*%
G04 Aperture macros list end*
%TA.AperFunction,SMDPad,CuDef*%
%ADD10RoundRect,0.572500X-3.045750X-0.572500X3.045750X-0.572500X3.045750X0.572500X-3.045750X0.572500X0*%
%TD*%
%TA.AperFunction,ComponentPad*%
%ADD11R,1.950000X1.950000*%
%TD*%
%TA.AperFunction,ComponentPad*%
%ADD12C,1.950000*%
%TD*%
%TA.AperFunction,ComponentPad*%
%ADD13C,1.600000*%
%TD*%
%TA.AperFunction,ComponentPad*%
%ADD14O,1.600000X1.600000*%
%TD*%
%TA.AperFunction,ComponentPad*%
%ADD15C,1.752600*%
%TD*%
%TA.AperFunction,SMDPad,CuDef*%
%ADD16RoundRect,0.572500X3.045750X0.572500X-3.045750X0.572500X-3.045750X-0.572500X3.045750X-0.572500X0*%
%TD*%
%TA.AperFunction,ComponentPad*%
%ADD17C,1.498600*%
%TD*%
%TA.AperFunction,ViaPad*%
%ADD18C,0.800000*%
%TD*%
%TA.AperFunction,Conductor*%
%ADD19C,1.270000*%
%TD*%
%TA.AperFunction,Conductor*%
%ADD20C,1.016000*%
%TD*%
%TA.AperFunction,Conductor*%
%ADD21C,2.000000*%
%TD*%
%TA.AperFunction,Conductor*%
%ADD22C,1.500000*%
%TD*%
%TA.AperFunction,Conductor*%
%ADD23C,1.999996*%
%TD*%
G04 APERTURE END LIST*
D10*
%TO.P,J108,1,Pin_1*%
%TO.N,Net-(J108-Pin_1)*%
X135135726Y-97805761D03*
%TD*%
D11*
%TO.P,J124,1,1*%
%TO.N,Net-(J106-Pin_1)*%
X153289000Y-107823000D03*
D12*
%TO.P,J124,2,2*%
%TO.N,Net-(J107-Pin_1)*%
X153289000Y-102743000D03*
%TD*%
D10*
%TO.P,J112,1,Pin_1*%
%TO.N,Net-(J104-Pin_1)*%
X135144119Y-118119473D03*
%TD*%
%TO.P,J105,1,Pin_1*%
%TO.N,Net-(J105-Pin_1)*%
X135135726Y-113041084D03*
%TD*%
%TO.P,J102,1,Pin_1*%
%TO.N,Net-(J102-Pin_1)*%
X135135726Y-128276415D03*
%TD*%
%TO.P,J101,1,Pin_1*%
%TO.N,M*%
X135157097Y-87647303D03*
%TD*%
%TO.P,J109,1,Pin_1*%
%TO.N,Net-(J109-Pin_1)*%
X135135726Y-92727320D03*
%TD*%
D13*
%TO.P,R104,1*%
%TO.N,M*%
X145669000Y-85140000D03*
D14*
%TO.P,R104,2*%
%TO.N,Net-(J109-Pin_1)*%
X145669000Y-90220000D03*
%TD*%
D11*
%TO.P,J122,1,1*%
%TO.N,Net-(J104-Pin_1)*%
X153289000Y-117983000D03*
D12*
%TO.P,J122,2,2*%
%TO.N,Net-(J105-Pin_1)*%
X153289000Y-112903000D03*
%TD*%
D10*
%TO.P,J103,1,Pin_1*%
%TO.N,Net-(J103-Pin_1)*%
X135135726Y-123197966D03*
%TD*%
D13*
%TO.P,R101,1*%
%TO.N,Net-(J102-Pin_1)*%
X145669000Y-125730000D03*
D14*
%TO.P,R101,2*%
%TO.N,M*%
X145669000Y-120650000D03*
%TD*%
D15*
%TO.P,J126,1,1*%
%TO.N,Net-(J107-Pin_1)*%
X149352000Y-135763000D03*
%TO.P,J126,2,2*%
%TO.N,Net-(J106-Pin_1)*%
X151892000Y-135763000D03*
%TO.P,J126,3,3*%
%TO.N,Net-(J105-Pin_1)*%
X154432000Y-135763000D03*
%TO.P,J126,4,4*%
%TO.N,Net-(J104-Pin_1)*%
X156972000Y-135763000D03*
%TD*%
D13*
%TO.P,R102,1*%
%TO.N,M*%
X145669000Y-110617000D03*
D14*
%TO.P,R102,2*%
%TO.N,Net-(J103-Pin_1)*%
X145669000Y-115697000D03*
%TD*%
D13*
%TO.P,R103,1*%
%TO.N,Net-(J108-Pin_1)*%
X145669000Y-95377000D03*
D14*
%TO.P,R103,2*%
%TO.N,M*%
X145669000Y-100457000D03*
%TD*%
D11*
%TO.P,J125,1,1*%
%TO.N,Net-(J108-Pin_1)*%
X153289000Y-97663000D03*
D12*
%TO.P,J125,2,2*%
%TO.N,Net-(J109-Pin_1)*%
X153289000Y-92583000D03*
%TD*%
D11*
%TO.P,J123,1,1*%
%TO.N,M*%
X153289000Y-87503000D03*
D12*
%TO.P,J123,2,2*%
%TO.N,Net-(J119-Pin_1)*%
X153289000Y-82423000D03*
%TD*%
D10*
%TO.P,J107,1,Pin_1*%
%TO.N,Net-(J107-Pin_1)*%
X135136410Y-102876694D03*
%TD*%
D11*
%TO.P,J118,1,1*%
%TO.N,Net-(J102-Pin_1)*%
X153289000Y-128143000D03*
D12*
%TO.P,J118,2,2*%
%TO.N,Net-(J103-Pin_1)*%
X153289000Y-123063000D03*
%TD*%
D10*
%TO.P,J114,1,Pin_1*%
%TO.N,Net-(J106-Pin_1)*%
X135154390Y-107967303D03*
%TD*%
D16*
%TO.P,J119,1,Pin_1*%
%TO.N,Net-(J119-Pin_1)*%
X135132736Y-82570977D03*
%TD*%
D11*
%TO.P,J118,1,1*%
%TO.N,Net-(J105-Pin_1)*%
X170710225Y-98298462D03*
D12*
%TO.P,J118,2,2*%
%TO.N,Net-(J106-Pin_1)*%
X170710225Y-103378462D03*
%TD*%
D11*
%TO.P,J120,1,1*%
%TO.N,Net-(J113-Pin_1)*%
X170710225Y-114046462D03*
D12*
%TO.P,J120,2,2*%
%TO.N,Net-(J114-Pin_1)*%
X170710225Y-119126462D03*
%TD*%
D11*
%TO.P,J117,1,1*%
%TO.N,GNDPWR*%
X170710225Y-77470462D03*
D12*
%TO.P,J117,2,2*%
%TO.N,Net-(J103-Pin_1)*%
X170710225Y-82550462D03*
%TO.P,J117,3,3*%
%TO.N,Net-(J104-Pin_1)*%
X170710225Y-87630462D03*
%TD*%
D11*
%TO.P,J119,1,1*%
%TO.N,Net-(J101-Pin_1)*%
X170710225Y-129794462D03*
D12*
%TO.P,J119,2,2*%
%TO.N,Net-(J102-Pin_1)*%
X170710225Y-134874462D03*
%TD*%
D17*
%TO.P,J122,1,1*%
%TO.N,Net-(J104-Pin_1)*%
X174266225Y-141986462D03*
%TO.P,J122,2,2*%
%TO.N,Net-(J106-Pin_1)*%
X171766225Y-141986462D03*
%TO.P,J122,3,3*%
%TO.N,Net-(J114-Pin_1)*%
X169266225Y-141986462D03*
%TO.P,J122,4,4*%
%TO.N,Net-(J102-Pin_1)*%
X166766225Y-141986462D03*
%TD*%
D10*
%TO.P,J104,1,Pin_1*%
%TO.N,Net-(J104-Pin_1)*%
X188427725Y-88391550D03*
%TD*%
%TO.P,J112,1,Pin_1*%
%TO.N,Net-(J106-Pin_1)*%
X188447999Y-103648104D03*
%TD*%
%TO.P,J102,1,Pin_1*%
%TO.N,Net-(J102-Pin_1)*%
X188419114Y-134116506D03*
%TD*%
%TO.P,J116,1,Pin_1*%
%TO.N,Net-(J114-Pin_1)*%
X188440469Y-118878540D03*
%TD*%
%TO.P,J103,1,Pin_1*%
%TO.N,Net-(J103-Pin_1)*%
X188433762Y-83317523D03*
%TD*%
%TO.P,J111,1,Pin_1*%
%TO.N,Net-(J105-Pin_1)*%
X188434972Y-98565054D03*
%TD*%
%TO.P,J107,1,Pin_1*%
%TO.N,Net-(J101-Pin_1)*%
X188445251Y-129045356D03*
%TD*%
%TO.P,J113,1,Pin_1*%
%TO.N,Net-(J113-Pin_1)*%
X188455684Y-113802003D03*
%TD*%
D18*
%TO.N,Net-(J102-Pin_1)*%
X143129000Y-128270000D03*
X140335000Y-128270000D03*
X141732000Y-128270000D03*
%TO.N,Net-(J103-Pin_1)*%
X140335000Y-123190000D03*
X143256000Y-123190000D03*
X141732000Y-123190000D03*
%TO.N,Net-(J104-Pin_1)*%
X143637000Y-118110000D03*
X140335000Y-118110000D03*
X150621900Y-125222000D03*
X142113000Y-118110000D03*
%TO.N,Net-(J105-Pin_1)*%
X142113000Y-113030000D03*
X140462000Y-113030000D03*
X143637000Y-113030000D03*
%TO.N,Net-(J106-Pin_1)*%
X156718004Y-111633000D03*
X140716000Y-107950000D03*
X159766000Y-113030000D03*
X143891000Y-107950000D03*
X142367000Y-107950000D03*
%TO.N,Net-(J107-Pin_1)*%
X140716000Y-102870000D03*
X142493998Y-102870000D03*
X144145000Y-102870000D03*
%TO.N,Net-(J108-Pin_1)*%
X142240000Y-97790000D03*
X143891000Y-97790000D03*
X140716000Y-97790000D03*
%TO.N,Net-(J109-Pin_1)*%
X144145000Y-92710000D03*
X140589000Y-92710000D03*
X142367000Y-92710000D03*
%TO.N,M*%
X153289000Y-110617000D03*
X143637000Y-87376000D03*
X150876002Y-120650000D03*
X140208000Y-87376000D03*
X152146000Y-110617000D03*
X141859000Y-87376000D03*
X151892000Y-120650000D03*
%TO.N,Net-(J102-Pin_1)*%
X180292000Y-134130237D03*
X182014447Y-134130240D03*
X183444448Y-134130239D03*
%TO.N,Net-(J103-Pin_1)*%
X181598225Y-83316462D03*
X180408225Y-83286462D03*
X183008225Y-83316462D03*
%TO.N,Net-(J104-Pin_1)*%
X182908225Y-88386462D03*
X173633225Y-122680462D03*
X168297225Y-130638462D03*
X180378225Y-88397301D03*
X181598225Y-88406462D03*
X168672027Y-135122264D03*
%TO.N,Net-(J105-Pin_1)*%
X182788225Y-98566462D03*
X180378225Y-98576462D03*
X181548225Y-98546462D03*
%TO.N,Net-(J101-Pin_1)*%
X180578225Y-129046398D03*
X183146523Y-129048036D03*
X181811808Y-129064514D03*
%TO.N,GNDPWR*%
X169059225Y-78740462D03*
X175155225Y-84963462D03*
X168297225Y-79502462D03*
X166961231Y-123256468D03*
X177488225Y-84996462D03*
X166011225Y-89916462D03*
X165122225Y-90678462D03*
X164995225Y-91821462D03*
X177441225Y-101219462D03*
X164995225Y-109220462D03*
X177695215Y-115455962D03*
X177488225Y-130566462D03*
X177278225Y-114396462D03*
X175790225Y-101219462D03*
X164995225Y-110617462D03*
X175536225Y-130556462D03*
X167022225Y-124841462D03*
%TO.N,Net-(J106-Pin_1)*%
X180278225Y-103676462D03*
X163217225Y-105537462D03*
X182618225Y-103676462D03*
X181438225Y-103676462D03*
%TO.N,Net-(J114-Pin_1)*%
X180178225Y-118896555D03*
X165503225Y-137795462D03*
X181478225Y-118876462D03*
X182898225Y-118846462D03*
%TO.N,Net-(J113-Pin_1)*%
X180178225Y-113876462D03*
X183048225Y-113856462D03*
X181618225Y-113876462D03*
%TD*%
D19*
%TO.N,Net-(J102-Pin_1)*%
X145669000Y-126719949D02*
X144118953Y-128269996D01*
X141732000Y-128270000D02*
X143129000Y-128270000D01*
X135142141Y-128270000D02*
X140335000Y-128270000D01*
X153162000Y-128270000D02*
X153289000Y-128143000D01*
X140335000Y-128270000D02*
X141732000Y-128270000D01*
X143129000Y-128270000D02*
X153162000Y-128270000D01*
X135142145Y-128269996D02*
X135142141Y-128270000D01*
X144118953Y-128269996D02*
X135142145Y-128269996D01*
X145669000Y-125730000D02*
X145669000Y-126719949D01*
%TO.N,Net-(J103-Pin_1)*%
X145669000Y-115697000D02*
X154534289Y-115697000D01*
X155099000Y-121639712D02*
X153548712Y-123190000D01*
X155099000Y-116261711D02*
X155099000Y-121639712D01*
X135143692Y-123190000D02*
X135135726Y-123197966D01*
X140335000Y-123190000D02*
X135143692Y-123190000D01*
X143256000Y-123190000D02*
X141732000Y-123190000D01*
X141732000Y-123190000D02*
X140335000Y-123190000D01*
X153548712Y-123190000D02*
X143256000Y-123190000D01*
X154534289Y-115697000D02*
X155099000Y-116261711D01*
%TO.N,Net-(J104-Pin_1)*%
X142113000Y-118110000D02*
X140335000Y-118110000D01*
X140335000Y-118110000D02*
X135153592Y-118110000D01*
D20*
X150621900Y-125222000D02*
X154178000Y-125222000D01*
D19*
X143637000Y-118110000D02*
X142113000Y-118110000D01*
X153162000Y-118110000D02*
X143637000Y-118110000D01*
D20*
X154178000Y-125222000D02*
X155321000Y-126365000D01*
X155321000Y-134112000D02*
X156972000Y-135763000D01*
X155321000Y-126365000D02*
X155321000Y-134112000D01*
D19*
X153289000Y-117983000D02*
X153162000Y-118110000D01*
X135153592Y-118110000D02*
X135144119Y-118119473D01*
%TO.N,Net-(J105-Pin_1)*%
X142113000Y-113030000D02*
X140462000Y-113030000D01*
D20*
X157226000Y-132461000D02*
X157226000Y-115461142D01*
X158115000Y-138049000D02*
X159639000Y-136525000D01*
X159639000Y-136525000D02*
X159639000Y-134874000D01*
D19*
X153289000Y-112903000D02*
X153162000Y-113030000D01*
D20*
X154432000Y-135763000D02*
X154432000Y-136652000D01*
X159639000Y-134874000D02*
X157226000Y-132461000D01*
X157226000Y-115461142D02*
X154667858Y-112903000D01*
D19*
X143637000Y-113030000D02*
X142113000Y-113030000D01*
X153162000Y-113030000D02*
X143637000Y-113030000D01*
X140462000Y-113030000D02*
X135146810Y-113030000D01*
D20*
X155829000Y-138049000D02*
X158115000Y-138049000D01*
X154667858Y-112903000D02*
X153289000Y-112903000D01*
X154432000Y-136652000D02*
X155829000Y-138049000D01*
D19*
X135146810Y-113030000D02*
X135135726Y-113041084D01*
%TO.N,Net-(J106-Pin_1)*%
X153289000Y-107823000D02*
X153162000Y-107950000D01*
X158115004Y-113030000D02*
X156718004Y-111633000D01*
X153162000Y-107950000D02*
X143891000Y-107950000D01*
X159766000Y-113030000D02*
X158115004Y-113030000D01*
X140716000Y-107950000D02*
X139077000Y-107950000D01*
X143891000Y-107950000D02*
X142367000Y-107950000D01*
X142367000Y-107950000D02*
X140716000Y-107950000D01*
%TO.N,Net-(J107-Pin_1)*%
X142493998Y-102870000D02*
X140716000Y-102870000D01*
X135137499Y-102877783D02*
X139700000Y-102877783D01*
X153162000Y-102870000D02*
X144145000Y-102870000D01*
X153289000Y-102743000D02*
X153162000Y-102870000D01*
X140709306Y-102876694D02*
X140716000Y-102870000D01*
X144145000Y-102870000D02*
X142493998Y-102870000D01*
X135136410Y-102876694D02*
X140709306Y-102876694D01*
X135136410Y-102876694D02*
X135137499Y-102877783D01*
%TO.N,Net-(J108-Pin_1)*%
X143891000Y-97790000D02*
X153162000Y-97790000D01*
X153162000Y-97790000D02*
X153289000Y-97663000D01*
X145669000Y-95377000D02*
X145669000Y-97790000D01*
X140716000Y-97790000D02*
X140725342Y-97799342D01*
X140725342Y-97799342D02*
X142230658Y-97799342D01*
X145669000Y-97790000D02*
X142240000Y-97790000D01*
X135135726Y-97805761D02*
X135151487Y-97790000D01*
X142230658Y-97799342D02*
X142240000Y-97790000D01*
X135151487Y-97790000D02*
X143891000Y-97790000D01*
%TO.N,Net-(J109-Pin_1)*%
X135142145Y-92720901D02*
X135153046Y-92710000D01*
X140589000Y-92710000D02*
X142367000Y-92710000D01*
X145669000Y-92710000D02*
X145658099Y-92720901D01*
X142367000Y-92710000D02*
X144145000Y-92710000D01*
X135153046Y-92710000D02*
X140589000Y-92710000D01*
X144145000Y-92710000D02*
X153162000Y-92710000D01*
X145669000Y-90220000D02*
X145669000Y-92710000D01*
X153162000Y-92710000D02*
X153289000Y-92583000D01*
X145658099Y-92720901D02*
X135142145Y-92720901D01*
%TO.N,Net-(J119-Pin_1)*%
X153289000Y-82423000D02*
X153162000Y-82550000D01*
X135153713Y-82550000D02*
X135132736Y-82570977D01*
X153162000Y-82550000D02*
X135153713Y-82550000D01*
%TO.N,M*%
X145669000Y-85140000D02*
X145669000Y-86995000D01*
X153289000Y-110617000D02*
X153659000Y-110617000D01*
X157353000Y-107379000D02*
X157353000Y-102870000D01*
X157353000Y-102870000D02*
X154940000Y-100457000D01*
X157480000Y-97917000D02*
X154940000Y-100457000D01*
X152146000Y-110617000D02*
X153289000Y-110617000D01*
X152146000Y-110617000D02*
X154115000Y-110617000D01*
X157480000Y-90297000D02*
X157480000Y-97917000D01*
X145669000Y-120650000D02*
X150876002Y-120650000D01*
X145669000Y-86995000D02*
X146177000Y-87503000D01*
X141859000Y-87376000D02*
X140208000Y-87376000D01*
X154686000Y-87503000D02*
X157480000Y-90297000D01*
X154115000Y-110617000D02*
X157353000Y-107379000D01*
X153162000Y-87376000D02*
X153289000Y-87503000D01*
X140208000Y-87376000D02*
X135428400Y-87376000D01*
X143637000Y-87376000D02*
X141859000Y-87376000D01*
X135428400Y-87376000D02*
X135157097Y-87647303D01*
X153289000Y-87503000D02*
X154686000Y-87503000D01*
X143637000Y-87376000D02*
X153162000Y-87376000D01*
X146177000Y-87503000D02*
X153289000Y-87503000D01*
X151892000Y-120650000D02*
X150876002Y-120650000D01*
X154940000Y-100457000D02*
X145669000Y-100457000D01*
X145669000Y-110617000D02*
X152146000Y-110617000D01*
D21*
%TO.N,Net-(J102-Pin_1)*%
X188452665Y-134130233D02*
X179716214Y-134130233D01*
X178844985Y-135001462D02*
X170770559Y-135001462D01*
X170770559Y-135001462D02*
X170643559Y-134874462D01*
X179716214Y-134130233D02*
X178844985Y-135001462D01*
%TO.N,Net-(J103-Pin_1)*%
X183016359Y-83324596D02*
X183008225Y-83316462D01*
X179722403Y-83316462D02*
X178067403Y-81661462D01*
X183008225Y-83316462D02*
X183000091Y-83324596D01*
X183000091Y-83324596D02*
X181606359Y-83324596D01*
X188466108Y-83324596D02*
X183016359Y-83324596D01*
X178067403Y-81661462D02*
X171599225Y-81661462D01*
X171599225Y-81661462D02*
X170710225Y-82550462D01*
X181606359Y-83324596D02*
X181598225Y-83316462D01*
X181598225Y-83316462D02*
X179722403Y-83316462D01*
D20*
%TO.N,Net-(J104-Pin_1)*%
X168672027Y-136100164D02*
X168672027Y-135122264D01*
D21*
X180378225Y-88397301D02*
X171477064Y-88397301D01*
D20*
X174431325Y-141859462D02*
X168672027Y-136100164D01*
D21*
X171477064Y-88397301D02*
X170710225Y-87630462D01*
D20*
X168297225Y-128016462D02*
X168297225Y-130638462D01*
X173633225Y-122680462D02*
X168297225Y-128016462D01*
D21*
X188432020Y-88397301D02*
X180378225Y-88397301D01*
%TO.N,Net-(J105-Pin_1)*%
X170970557Y-98171462D02*
X179548166Y-98171462D01*
X179548166Y-98171462D02*
X179953166Y-98576462D01*
X170843557Y-98298462D02*
X170970557Y-98171462D01*
X179953166Y-98576462D02*
X188278225Y-98576462D01*
%TO.N,Net-(J101-Pin_1)*%
X178448403Y-127762462D02*
X172675559Y-127762462D01*
X180578225Y-129046398D02*
X179732339Y-129046398D01*
X172675559Y-127762462D02*
X170643559Y-129794462D01*
X188462253Y-129046398D02*
X180578225Y-129046398D01*
X179732339Y-129046398D02*
X178448403Y-127762462D01*
%TO.N,GNDPWR*%
X168297225Y-79502462D02*
X168170225Y-79502462D01*
D22*
X177568225Y-130556462D02*
X175536225Y-130556462D01*
D21*
X167027225Y-100838462D02*
X165828725Y-99639962D01*
X175152225Y-84966462D02*
X175155226Y-84963461D01*
D23*
X166133225Y-122428462D02*
X166961231Y-123256468D01*
D21*
X166133225Y-122428462D02*
X166133225Y-113787462D01*
X175409225Y-100838462D02*
X167027225Y-100838462D01*
X168170225Y-79502462D02*
X166392224Y-81280463D01*
X170710225Y-77470462D02*
X170329225Y-77470462D01*
X164995225Y-102870462D02*
X164995225Y-112649462D01*
X167027225Y-100838462D02*
X164995225Y-102870462D01*
X164995225Y-98806462D02*
X164995225Y-91821462D01*
X170329225Y-77470462D02*
X168297225Y-79502462D01*
D22*
X176868227Y-114396462D02*
X176868226Y-114396461D01*
D21*
X167086748Y-132396462D02*
X166133225Y-131442939D01*
X174551225Y-116713462D02*
X176868226Y-114396461D01*
X173566225Y-132396462D02*
X167086748Y-132396462D01*
X166392224Y-83426461D02*
X167932225Y-84966462D01*
X166408225Y-83442462D02*
X166392224Y-83426461D01*
X166408225Y-89392462D02*
X166408225Y-83442462D01*
X177441225Y-101219462D02*
X175790225Y-101219462D01*
D23*
X166133225Y-125730462D02*
X167022225Y-124841462D01*
D21*
X166133225Y-113787462D02*
X165828725Y-113482962D01*
X164995225Y-112649462D02*
X165828725Y-113482962D01*
X165828725Y-99639962D02*
X164995225Y-98806462D01*
D20*
X175155225Y-84963462D02*
X175155226Y-84963461D01*
D22*
X177278225Y-114396462D02*
X176868227Y-114396462D01*
D21*
X167932225Y-84966462D02*
X175152225Y-84966462D01*
X164995225Y-90805462D02*
X166408225Y-89392462D01*
X166133225Y-125730462D02*
X166133225Y-122428462D01*
X175790225Y-101219462D02*
X175409225Y-100838462D01*
D22*
X175536225Y-130556462D02*
X173631225Y-132461462D01*
D21*
X169059225Y-116713462D02*
X174551225Y-116713462D01*
X166392224Y-81280463D02*
X166392224Y-83426461D01*
X164995225Y-91821462D02*
X164995225Y-90805462D01*
D22*
X177598225Y-114716462D02*
X177278225Y-114396462D01*
X177598225Y-115906462D02*
X177598225Y-114716462D01*
D21*
X165828725Y-113482962D02*
X169059225Y-116713462D01*
X166133225Y-131442939D02*
X166133225Y-125730462D01*
X177314225Y-84963462D02*
X175155225Y-84963462D01*
%TO.N,Net-(J106-Pin_1)*%
X180278225Y-103676462D02*
X171141557Y-103676462D01*
X188378225Y-103676462D02*
X180278225Y-103676462D01*
D20*
X163217225Y-133185362D02*
X163217225Y-105537462D01*
X171891325Y-141859462D02*
X163217225Y-133185362D01*
D21*
X171141557Y-103676462D02*
X170843557Y-103378462D01*
%TO.N,Net-(J114-Pin_1)*%
X177556765Y-120788462D02*
X172438891Y-120788462D01*
X179448672Y-118896555D02*
X177556765Y-120788462D01*
X172438891Y-120788462D02*
X170776891Y-119126462D01*
X180178225Y-118896555D02*
X179448672Y-118896555D01*
X188447850Y-118896555D02*
X180178225Y-118896555D01*
D20*
X165503225Y-138011362D02*
X165503225Y-137795462D01*
X169351325Y-141859462D02*
X165503225Y-138011362D01*
D21*
%TO.N,Net-(J113-Pin_1)*%
X188467288Y-113833918D02*
X179577499Y-113833918D01*
X174264225Y-111887462D02*
X172105225Y-114046462D01*
X179577499Y-113833918D02*
X177631043Y-111887462D01*
X177631043Y-111887462D02*
X174264225Y-111887462D01*
X172105225Y-114046462D02*
X170776891Y-114046462D01*
%TD*%
M02*
