%TF.GenerationSoftware,KiCad,Pcbnew,7.0.10*%
%TF.CreationDate,2024-07-21T07:40:16-04:00*%
%TF.ProjectId,12.1.1 - PLC Connector.kicad_pcb_appended,31322e31-2e31-4202-9d20-504c4320436f,rev?*%
%TF.SameCoordinates,Original*%
%TF.FileFunction,Profile,NP*%
%FSLAX46Y46*%
G04 Gerber Fmt 4.6, Leading zero omitted, Abs format (unit mm)*
G04 Created by KiCad (PCBNEW 7.0.10) date 2024-07-21 07:40:16*
%MOMM*%
%LPD*%
G01*
G04 APERTURE LIST*
%TA.AperFunction,Profile*%
%ADD10C,0.250000*%
%TD*%
G04 APERTURE END LIST*
D10*
X144136134Y-115062166D02*
G75*
G03*
X143386145Y-114312166I-750034J-34D01*
G01*
X132136145Y-81292245D02*
G75*
G03*
X131386145Y-82042166I-45J-749955D01*
G01*
X144136145Y-126262166D02*
X144136145Y-125222166D01*
X144136145Y-100862166D02*
X144136145Y-99822166D01*
X132136145Y-86372166D02*
X143386145Y-86372166D01*
X160386145Y-140092245D02*
G75*
G03*
X161136145Y-139342166I-45J750045D01*
G01*
X144136145Y-116102166D02*
X144136145Y-115062166D01*
X131386134Y-93242166D02*
G75*
G03*
X132136145Y-93992166I749966J-34D01*
G01*
X144136145Y-139342166D02*
X144136145Y-130302166D01*
X132136145Y-96532245D02*
G75*
G03*
X131386145Y-97282166I-45J-749955D01*
G01*
X131386134Y-108482166D02*
G75*
G03*
X132136145Y-109232166I749966J-34D01*
G01*
X131386145Y-88162166D02*
X131386145Y-87122166D01*
X144136134Y-94742166D02*
G75*
G03*
X143386145Y-93992166I-750034J-34D01*
G01*
X132136145Y-111772166D02*
X143386145Y-111772166D01*
X131386145Y-98322166D02*
X131386145Y-97282166D01*
X143386145Y-88912166D02*
X132136145Y-88912166D01*
X143386145Y-121932245D02*
G75*
G03*
X144136145Y-121182166I-45J750045D01*
G01*
X132136145Y-91452166D02*
X143386145Y-91452166D01*
X144886145Y-78752166D02*
X160386145Y-78752166D01*
X132136145Y-106692245D02*
G75*
G03*
X131386145Y-107442166I-45J-749955D01*
G01*
X144136145Y-111022166D02*
X144136145Y-109982166D01*
X144136134Y-139342166D02*
G75*
G03*
X144886145Y-140092166I749966J-34D01*
G01*
X131386134Y-83082166D02*
G75*
G03*
X132136145Y-83832166I749966J-34D01*
G01*
X143386145Y-116852245D02*
G75*
G03*
X144136145Y-116102166I-45J750045D01*
G01*
X132136145Y-121932166D02*
X143386145Y-121932166D01*
X160386145Y-140092166D02*
X144886145Y-140092166D01*
X132136145Y-106692166D02*
X143386145Y-106692166D01*
X143386145Y-101612245D02*
G75*
G03*
X144136145Y-100862166I-45J750045D01*
G01*
X144136134Y-89662166D02*
G75*
G03*
X143386145Y-88912166I-750034J-34D01*
G01*
X143386145Y-109232166D02*
X132136145Y-109232166D01*
X144136145Y-85622166D02*
X144136145Y-84582166D01*
X143386145Y-106692245D02*
G75*
G03*
X144136145Y-105942166I-45J750045D01*
G01*
X131386145Y-128802166D02*
X131386145Y-127762166D01*
X144136145Y-80542166D02*
X144136145Y-79502166D01*
X131386145Y-123722166D02*
X131386145Y-122682166D01*
X161136145Y-79502166D02*
X161136145Y-139342166D01*
X144136134Y-84582166D02*
G75*
G03*
X143386145Y-83832166I-750034J-34D01*
G01*
X131386145Y-103402166D02*
X131386145Y-102362166D01*
X131386145Y-108482166D02*
X131386145Y-107442166D01*
X131386134Y-123722166D02*
G75*
G03*
X132136145Y-124472166I749966J-34D01*
G01*
X132136145Y-127012166D02*
X143386145Y-127012166D01*
X143386145Y-124472166D02*
X132136145Y-124472166D01*
X131386134Y-88162166D02*
G75*
G03*
X132136145Y-88912166I749966J-34D01*
G01*
X144136145Y-90702166D02*
X144136145Y-89662166D01*
X143386145Y-91452245D02*
G75*
G03*
X144136145Y-90702166I-45J750045D01*
G01*
X131386134Y-103402166D02*
G75*
G03*
X132136145Y-104152166I749966J-34D01*
G01*
X131386145Y-118642166D02*
X131386145Y-117602166D01*
X144136134Y-125222166D02*
G75*
G03*
X143386145Y-124472166I-750034J-34D01*
G01*
X144136134Y-99822166D02*
G75*
G03*
X143386145Y-99072166I-750034J-34D01*
G01*
X144886145Y-78752245D02*
G75*
G03*
X144136145Y-79502166I-45J-749955D01*
G01*
X132136145Y-91452245D02*
G75*
G03*
X131386145Y-92202166I-45J-749955D01*
G01*
X161136134Y-79502166D02*
G75*
G03*
X160386145Y-78752166I-750034J-34D01*
G01*
X144136134Y-120142166D02*
G75*
G03*
X143386145Y-119392166I-750034J-34D01*
G01*
X131386134Y-128802166D02*
G75*
G03*
X132136145Y-129552166I749966J-34D01*
G01*
X131386134Y-118642166D02*
G75*
G03*
X132136145Y-119392166I749966J-34D01*
G01*
X132136145Y-101612245D02*
G75*
G03*
X131386145Y-102362166I-45J-749955D01*
G01*
X132136145Y-96532166D02*
X143386145Y-96532166D01*
X131386145Y-113562166D02*
X131386145Y-112522166D01*
X132136145Y-127012245D02*
G75*
G03*
X131386145Y-127762166I-45J-749955D01*
G01*
X143386145Y-81292245D02*
G75*
G03*
X144136145Y-80542166I-45J750045D01*
G01*
X132136145Y-81292166D02*
X143386145Y-81292166D01*
X131386145Y-93242166D02*
X131386145Y-92202166D01*
X132136145Y-111772245D02*
G75*
G03*
X131386145Y-112522166I-45J-749955D01*
G01*
X143386145Y-93992166D02*
X132136145Y-93992166D01*
X132136145Y-86372245D02*
G75*
G03*
X131386145Y-87122166I-45J-749955D01*
G01*
X143386145Y-127012245D02*
G75*
G03*
X144136145Y-126262166I-45J750045D01*
G01*
X143386145Y-119392166D02*
X132136145Y-119392166D01*
X143386145Y-96532245D02*
G75*
G03*
X144136145Y-95782166I-45J750045D01*
G01*
X132136145Y-101612166D02*
X143386145Y-101612166D01*
X143386145Y-86372245D02*
G75*
G03*
X144136145Y-85622166I-45J750045D01*
G01*
X132136145Y-116852245D02*
G75*
G03*
X131386145Y-117602166I-45J-749955D01*
G01*
X131386145Y-83082166D02*
X131386145Y-82042166D01*
X132136145Y-116852166D02*
X143386145Y-116852166D01*
X144136145Y-105942166D02*
X144136145Y-104902166D01*
X144136134Y-104902166D02*
G75*
G03*
X143386145Y-104152166I-750034J-34D01*
G01*
X132136145Y-121932245D02*
G75*
G03*
X131386145Y-122682166I-45J-749955D01*
G01*
X143386145Y-104152166D02*
X132136145Y-104152166D01*
X144136145Y-121182166D02*
X144136145Y-120142166D01*
X144136145Y-95782166D02*
X144136145Y-94742166D01*
X143386145Y-111772245D02*
G75*
G03*
X144136145Y-111022166I-45J750045D01*
G01*
X131386134Y-98322166D02*
G75*
G03*
X132136145Y-99072166I749966J-34D01*
G01*
X131386134Y-113562166D02*
G75*
G03*
X132136145Y-114312166I749966J-34D01*
G01*
X144136134Y-130302166D02*
G75*
G03*
X143386145Y-129552166I-750034J-34D01*
G01*
X143386145Y-83832166D02*
X132136145Y-83832166D01*
X144136134Y-109982166D02*
G75*
G03*
X143386145Y-109232166I-750034J-34D01*
G01*
X143386145Y-114312166D02*
X132136145Y-114312166D01*
X143386145Y-129552166D02*
X132136145Y-129552166D01*
X143386145Y-99072166D02*
X132136145Y-99072166D01*
X192199987Y-82800000D02*
G75*
G03*
X191450000Y-82050000I-749962J38D01*
G01*
X179449987Y-111780000D02*
G75*
G03*
X180200000Y-112530000I750038J38D01*
G01*
X180200000Y-87130000D02*
X191450000Y-87130000D01*
X162450000Y-144640000D02*
X162450000Y-73800000D01*
X179450000Y-85340000D02*
X179450000Y-86380000D01*
X179450000Y-120900000D02*
X179450000Y-127020000D01*
X192200000Y-98040000D02*
X192200000Y-99080000D01*
X192199987Y-103120000D02*
G75*
G03*
X191450000Y-102370000I-749962J38D01*
G01*
X192200000Y-118360000D02*
X192200000Y-119400000D01*
X180200000Y-132850000D02*
X191450000Y-132850000D01*
X192199987Y-98040000D02*
G75*
G03*
X191450000Y-97290000I-749962J38D01*
G01*
X180200000Y-120149937D02*
G75*
G03*
X179450000Y-120900000I25J-750025D01*
G01*
X180200000Y-135389937D02*
G75*
G03*
X179450000Y-136140000I25J-750025D01*
G01*
X191450000Y-89670000D02*
X180200000Y-89670000D01*
X180200000Y-130309937D02*
G75*
G03*
X179450000Y-131060000I25J-750025D01*
G01*
X179449987Y-96540000D02*
G75*
G03*
X180200000Y-97290000I750038J38D01*
G01*
X179449987Y-86380000D02*
G75*
G03*
X180200000Y-87130000I750038J38D01*
G01*
X191450000Y-99830000D02*
X180200000Y-99830000D01*
X192200000Y-82800000D02*
X192200000Y-83840000D01*
X179449987Y-81300000D02*
G75*
G03*
X180200000Y-82050000I750038J38D01*
G01*
X180200000Y-82050000D02*
X191450000Y-82050000D01*
X191450000Y-135389937D02*
G75*
G03*
X192200000Y-134640000I25J749975D01*
G01*
X192200000Y-128520000D02*
X192200000Y-129560000D01*
X180200000Y-99829937D02*
G75*
G03*
X179450000Y-100580000I25J-750025D01*
G01*
X192200000Y-113280000D02*
X192200000Y-114320000D01*
X179449987Y-127020000D02*
G75*
G03*
X180200000Y-127770000I750038J38D01*
G01*
X180200000Y-127770000D02*
X191450000Y-127770000D01*
X191450000Y-84589937D02*
G75*
G03*
X192200000Y-83840000I25J749975D01*
G01*
X191450000Y-115069937D02*
G75*
G03*
X192200000Y-114320000I25J749975D01*
G01*
X191450000Y-135390000D02*
X180200000Y-135390000D01*
X163200000Y-73050000D02*
X178700000Y-73050000D01*
X179449987Y-116860000D02*
G75*
G03*
X180200000Y-117610000I750038J38D01*
G01*
X191450000Y-130310000D02*
X180200000Y-130310000D01*
X191450000Y-120149937D02*
G75*
G03*
X192200000Y-119400000I25J749975D01*
G01*
X180200000Y-115069937D02*
G75*
G03*
X179450000Y-115820000I25J-750025D01*
G01*
X180200000Y-97290000D02*
X191450000Y-97290000D01*
X179450000Y-90420000D02*
X179450000Y-96540000D01*
X191450000Y-130309937D02*
G75*
G03*
X192200000Y-129560000I25J749975D01*
G01*
X192199987Y-118360000D02*
G75*
G03*
X191450000Y-117610000I-749962J38D01*
G01*
X192199987Y-128520000D02*
G75*
G03*
X191450000Y-127770000I-749962J38D01*
G01*
X192200000Y-133600000D02*
X192200000Y-134640000D01*
X178700000Y-145389937D02*
G75*
G03*
X179450000Y-144640000I25J749975D01*
G01*
X192200000Y-103120000D02*
X192200000Y-104160000D01*
X179450000Y-115820000D02*
X179450000Y-116860000D01*
X162449987Y-144640000D02*
G75*
G03*
X163200000Y-145390000I750038J38D01*
G01*
X180200000Y-89669937D02*
G75*
G03*
X179450000Y-90420000I25J-750025D01*
G01*
X180200000Y-112530000D02*
X191450000Y-112530000D01*
X180200000Y-104909937D02*
G75*
G03*
X179450000Y-105660000I25J-750025D01*
G01*
X180200000Y-117610000D02*
X191450000Y-117610000D01*
X179450000Y-136140000D02*
X179450000Y-144640000D01*
X191450000Y-84590000D02*
X180200000Y-84590000D01*
X191450000Y-99829937D02*
G75*
G03*
X192200000Y-99080000I25J749975D01*
G01*
X179449987Y-101620000D02*
G75*
G03*
X180200000Y-102370000I750038J38D01*
G01*
X192199987Y-133600000D02*
G75*
G03*
X191450000Y-132850000I-749962J38D01*
G01*
X191450000Y-104910000D02*
X180200000Y-104910000D01*
X179450000Y-105660000D02*
X179450000Y-111780000D01*
X192199987Y-113280000D02*
G75*
G03*
X191450000Y-112530000I-749962J38D01*
G01*
X191450000Y-89669937D02*
G75*
G03*
X192200000Y-88920000I25J749975D01*
G01*
X191450000Y-120150000D02*
X180200000Y-120150000D01*
X179450000Y-100580000D02*
X179450000Y-101620000D01*
X179449987Y-132100000D02*
G75*
G03*
X180200000Y-132850000I750038J38D01*
G01*
X163200000Y-73049937D02*
G75*
G03*
X162450000Y-73800000I25J-750025D01*
G01*
X192199987Y-87880000D02*
G75*
G03*
X191450000Y-87130000I-749962J38D01*
G01*
X179450000Y-131060000D02*
X179450000Y-132100000D01*
X191450000Y-104909937D02*
G75*
G03*
X192200000Y-104160000I25J749975D01*
G01*
X191450000Y-115070000D02*
X180200000Y-115070000D01*
X178700000Y-145390000D02*
X163200000Y-145390000D01*
X179450000Y-73800000D02*
X179450000Y-81300000D01*
X180200000Y-102370000D02*
X191450000Y-102370000D01*
X192200000Y-87880000D02*
X192200000Y-88920000D01*
X180200000Y-84589937D02*
G75*
G03*
X179450000Y-85340000I25J-750025D01*
G01*
X179449987Y-73800000D02*
G75*
G03*
X178700000Y-73050000I-749962J38D01*
G01*
M02*
