%TF.GenerationSoftware,KiCad,Pcbnew,7.0.10*%
%TF.CreationDate,2024-07-21T07:40:16-04:00*%
%TF.ProjectId,12.1.1 - PLC Connector.kicad_pcb_appended,31322e31-2e31-4202-9d20-504c4320436f,rev?*%
%TF.SameCoordinates,Original*%
%TF.FileFunction,Soldermask,Top*%
%TF.FilePolarity,Negative*%
%FSLAX46Y46*%
G04 Gerber Fmt 4.6, Leading zero omitted, Abs format (unit mm)*
G04 Created by KiCad (PCBNEW 7.0.10) date 2024-07-21 07:40:16*
%MOMM*%
%LPD*%
G01*
G04 APERTURE LIST*
G04 Aperture macros list*
%AMRoundRect*
0 Rectangle with rounded corners*
0 $1 Rounding radius*
0 $2 $3 $4 $5 $6 $7 $8 $9 X,Y pos of 4 corners*
0 Add a 4 corners polygon primitive as box body*
4,1,4,$2,$3,$4,$5,$6,$7,$8,$9,$2,$3,0*
0 Add four circle primitives for the rounded corners*
1,1,$1+$1,$2,$3*
1,1,$1+$1,$4,$5*
1,1,$1+$1,$6,$7*
1,1,$1+$1,$8,$9*
0 Add four rect primitives between the rounded corners*
20,1,$1+$1,$2,$3,$4,$5,0*
20,1,$1+$1,$4,$5,$6,$7,0*
20,1,$1+$1,$6,$7,$8,$9,0*
20,1,$1+$1,$8,$9,$2,$3,0*%
%AMFreePoly0*
4,1,19,0.750000,-0.750000,-0.200000,-0.750000,-0.200000,-0.744911,-0.221157,-0.744911,-0.357708,-0.704816,-0.477430,-0.627875,-0.570627,-0.520320,-0.629746,-0.390866,-0.650000,-0.250000,-0.650000,0.250000,-0.629746,0.390866,-0.570627,0.520320,-0.477430,0.627875,-0.357708,0.704816,-0.221157,0.744911,-0.200000,0.744911,-0.200000,0.750000,0.750000,0.750000,0.750000,-0.750000,0.750000,-0.750000,
$1*%
%AMFreePoly1*
4,1,19,0.200000,0.744911,0.221157,0.744911,0.357708,0.704816,0.477430,0.627875,0.570627,0.520320,0.629746,0.390866,0.650000,0.250000,0.650000,-0.250000,0.629746,-0.390866,0.570627,-0.520320,0.477430,-0.627875,0.357708,-0.704816,0.221157,-0.744911,0.200000,-0.744911,0.200000,-0.750000,-0.750000,-0.750000,-0.750000,0.750000,0.200000,0.750000,0.200000,0.744911,0.200000,0.744911,
$1*%
G04 Aperture macros list end*
%ADD10RoundRect,0.572500X-3.045750X-0.572500X3.045750X-0.572500X3.045750X0.572500X-3.045750X0.572500X0*%
%ADD11R,1.950000X1.950000*%
%ADD12C,1.950000*%
%ADD13C,1.600000*%
%ADD14O,1.600000X1.600000*%
%ADD15C,1.752600*%
%ADD16FreePoly0,270.000000*%
%ADD17FreePoly1,270.000000*%
%ADD18RoundRect,0.572500X3.045750X0.572500X-3.045750X0.572500X-3.045750X-0.572500X3.045750X-0.572500X0*%
%ADD19RoundRect,0.150000X-0.150000X0.587500X-0.150000X-0.587500X0.150000X-0.587500X0.150000X0.587500X0*%
%ADD20RoundRect,0.250000X0.300000X0.300000X-0.300000X0.300000X-0.300000X-0.300000X0.300000X-0.300000X0*%
%ADD21RoundRect,0.250000X-0.300000X-0.300000X0.300000X-0.300000X0.300000X0.300000X-0.300000X0.300000X0*%
%ADD22C,1.498600*%
G04 APERTURE END LIST*
D10*
%TO.C,J104*%
X135151345Y-118127303D03*
%TD*%
D11*
%TO.C,J124*%
X153289000Y-107823000D03*
D12*
X153289000Y-102743000D03*
%TD*%
D10*
%TO.C,J106*%
X135163477Y-107967303D03*
%TD*%
D13*
%TO.C,R104*%
X145669000Y-85140000D03*
D14*
X145669000Y-90220000D03*
%TD*%
D11*
%TO.C,J122*%
X153289000Y-117983000D03*
D12*
X153289000Y-112903000D03*
%TD*%
D10*
%TO.C,J116*%
X135136683Y-97794563D03*
%TD*%
%TO.C,J115*%
X135122779Y-102890324D03*
%TD*%
D13*
%TO.C,R101*%
X145669000Y-125730000D03*
D14*
X145669000Y-120650000D03*
%TD*%
D15*
%TO.C,J126*%
X149352000Y-135763000D03*
X151892000Y-135763000D03*
X154432000Y-135763000D03*
X156972000Y-135763000D03*
%TD*%
D13*
%TO.C,R102*%
X145669000Y-110617000D03*
D14*
X145669000Y-115697000D03*
%TD*%
D13*
%TO.C,R103*%
X145669000Y-95377000D03*
D14*
X145669000Y-100457000D03*
%TD*%
D10*
%TO.C,J111*%
X135137522Y-123198869D03*
%TD*%
%TO.C,J110*%
X135154366Y-128271547D03*
%TD*%
D11*
%TO.C,J125*%
X153289000Y-97663000D03*
D12*
X153289000Y-92583000D03*
%TD*%
D10*
%TO.C,J120*%
X135177543Y-87647303D03*
%TD*%
D11*
%TO.C,J123*%
X153289000Y-87503000D03*
D12*
X153289000Y-82423000D03*
%TD*%
D11*
%TO.C,J118*%
X153289000Y-128143000D03*
D12*
X153289000Y-123063000D03*
%TD*%
D10*
%TO.C,J121*%
X135132736Y-82570977D03*
%TD*%
%TO.C,J117*%
X135154679Y-92741803D03*
%TD*%
%TO.C,J113*%
X135134275Y-113048173D03*
%TD*%
D16*
%TO.C,JP101*%
X178278225Y-92426462D03*
D17*
X178278225Y-94926462D03*
%TD*%
D18*
%TO.C,J108*%
X188422864Y-134127111D03*
%TD*%
D19*
%TO.C,D105*%
X178556856Y-130561113D03*
X176656856Y-130561113D03*
X177606856Y-132436113D03*
%TD*%
%TO.C,D106*%
X178584225Y-115455962D03*
X176684225Y-115455962D03*
X177634225Y-117330962D03*
%TD*%
D18*
%TO.C,J105*%
X188434462Y-98547442D03*
%TD*%
D20*
%TO.C,D101*%
X171475225Y-108458462D03*
X168675225Y-108458462D03*
%TD*%
D18*
%TO.C,J101*%
X188428553Y-129047523D03*
%TD*%
%TO.C,J109*%
X188439959Y-83312463D03*
%TD*%
D21*
%TO.C,D104*%
X167402225Y-92583462D03*
X170202225Y-92583462D03*
%TD*%
D18*
%TO.C,J115*%
X188435157Y-113791922D03*
%TD*%
D19*
%TO.C,D108*%
X178584225Y-101170962D03*
X176684225Y-101170962D03*
X177634225Y-103045962D03*
%TD*%
D18*
%TO.C,J106*%
X188444026Y-103639993D03*
%TD*%
D11*
%TO.C,J118*%
X170710225Y-98298462D03*
D12*
X170710225Y-103378462D03*
%TD*%
D19*
%TO.C,D107*%
X178584225Y-84963462D03*
X176684225Y-84963462D03*
X177634225Y-86838462D03*
%TD*%
D18*
%TO.C,J110*%
X188437513Y-88401010D03*
%TD*%
D11*
%TO.C,J120*%
X170710225Y-114046462D03*
D12*
X170710225Y-119126462D03*
%TD*%
D16*
%TO.C,JP103*%
X178278225Y-122826462D03*
D17*
X178278225Y-125326462D03*
%TD*%
D20*
%TO.C,D103*%
X175031225Y-92583462D03*
X172231225Y-92583462D03*
%TD*%
D16*
%TO.C,JP102*%
X178278225Y-107576462D03*
D17*
X178278225Y-110076462D03*
%TD*%
D20*
%TO.C,D102*%
X171094225Y-124079462D03*
X168294225Y-124079462D03*
%TD*%
D11*
%TO.C,J117*%
X170710225Y-77470462D03*
D12*
X170710225Y-82550462D03*
X170710225Y-87630462D03*
%TD*%
D18*
%TO.C,J114*%
X188438530Y-118872462D03*
%TD*%
D11*
%TO.C,J119*%
X170710225Y-129794462D03*
D12*
X170710225Y-134874462D03*
%TD*%
D22*
%TO.C,J122*%
X174266225Y-141986462D03*
X171766225Y-141986462D03*
X169266225Y-141986462D03*
X166766225Y-141986462D03*
%TD*%
M02*
