%TF.GenerationSoftware,KiCad,Pcbnew,7.0.10*%
%TF.CreationDate,2024-07-21T07:16:58-04:00*%
%TF.ProjectId,12.2.1 - PLC Connector,31322e32-2e31-4202-9d20-504c4320436f,rev?*%
%TF.SameCoordinates,Original*%
%TF.FileFunction,Copper,L2,Bot*%
%TF.FilePolarity,Positive*%
%FSLAX46Y46*%
G04 Gerber Fmt 4.6, Leading zero omitted, Abs format (unit mm)*
G04 Created by KiCad (PCBNEW 7.0.10) date 2024-07-21 07:16:58*
%MOMM*%
%LPD*%
G01*
G04 APERTURE LIST*
G04 Aperture macros list*
%AMRoundRect*
0 Rectangle with rounded corners*
0 $1 Rounding radius*
0 $2 $3 $4 $5 $6 $7 $8 $9 X,Y pos of 4 corners*
0 Add a 4 corners polygon primitive as box body*
4,1,4,$2,$3,$4,$5,$6,$7,$8,$9,$2,$3,0*
0 Add four circle primitives for the rounded corners*
1,1,$1+$1,$2,$3*
1,1,$1+$1,$4,$5*
1,1,$1+$1,$6,$7*
1,1,$1+$1,$8,$9*
0 Add four rect primitives between the rounded corners*
20,1,$1+$1,$2,$3,$4,$5,0*
20,1,$1+$1,$4,$5,$6,$7,0*
20,1,$1+$1,$6,$7,$8,$9,0*
20,1,$1+$1,$8,$9,$2,$3,0*%
G04 Aperture macros list end*
%TA.AperFunction,ComponentPad*%
%ADD10R,1.950000X1.950000*%
%TD*%
%TA.AperFunction,ComponentPad*%
%ADD11C,1.950000*%
%TD*%
%TA.AperFunction,ComponentPad*%
%ADD12C,1.498600*%
%TD*%
%TA.AperFunction,SMDPad,CuDef*%
%ADD13RoundRect,0.572500X3.045750X0.572500X-3.045750X0.572500X-3.045750X-0.572500X3.045750X-0.572500X0*%
%TD*%
%TA.AperFunction,ViaPad*%
%ADD14C,0.800000*%
%TD*%
%TA.AperFunction,Conductor*%
%ADD15C,2.000000*%
%TD*%
%TA.AperFunction,Conductor*%
%ADD16C,1.016000*%
%TD*%
%TA.AperFunction,Conductor*%
%ADD17C,1.500000*%
%TD*%
%TA.AperFunction,Conductor*%
%ADD18C,1.999996*%
%TD*%
G04 APERTURE END LIST*
D10*
%TO.P,J118,1,1*%
%TO.N,Net-(J105-Pin_1)*%
X175768000Y-90678000D03*
D11*
%TO.P,J118,2,2*%
%TO.N,Net-(J106-Pin_1)*%
X175768000Y-85598000D03*
%TD*%
D10*
%TO.P,J120,1,1*%
%TO.N,Net-(J113-Pin_1)*%
X175768000Y-74930000D03*
D11*
%TO.P,J120,2,2*%
%TO.N,Net-(J114-Pin_1)*%
X175768000Y-69850000D03*
%TD*%
D10*
%TO.P,J117,1,1*%
%TO.N,GNDPWR*%
X175768000Y-111506000D03*
D11*
%TO.P,J117,2,2*%
%TO.N,Net-(J103-Pin_1)*%
X175768000Y-106426000D03*
%TO.P,J117,3,3*%
%TO.N,Net-(J104-Pin_1)*%
X175768000Y-101346000D03*
%TD*%
D10*
%TO.P,J119,1,1*%
%TO.N,Net-(J101-Pin_1)*%
X175768000Y-59182000D03*
D11*
%TO.P,J119,2,2*%
%TO.N,Net-(J102-Pin_1)*%
X175768000Y-54102000D03*
%TD*%
D12*
%TO.P,J122,4,4*%
%TO.N,Net-(J102-Pin_1)*%
X179712000Y-46990000D03*
%TO.P,J122,3,3*%
%TO.N,Net-(J114-Pin_1)*%
X177212000Y-46990000D03*
%TO.P,J122,2,2*%
%TO.N,Net-(J106-Pin_1)*%
X174712000Y-46990000D03*
%TO.P,J122,1,1*%
%TO.N,Net-(J104-Pin_1)*%
X172212000Y-46990000D03*
%TD*%
D13*
%TO.P,J104,1,Pin_1*%
%TO.N,Net-(J104-Pin_1)*%
X158050500Y-100584912D03*
%TD*%
%TO.P,J112,1,Pin_1*%
%TO.N,Net-(J106-Pin_1)*%
X158030226Y-85328358D03*
%TD*%
%TO.P,J102,1,Pin_1*%
%TO.N,Net-(J102-Pin_1)*%
X158059111Y-54859956D03*
%TD*%
%TO.P,J116,1,Pin_1*%
%TO.N,Net-(J114-Pin_1)*%
X158037756Y-70097922D03*
%TD*%
%TO.P,J103,1,Pin_1*%
%TO.N,Net-(J103-Pin_1)*%
X158044463Y-105658939D03*
%TD*%
%TO.P,J111,1,Pin_1*%
%TO.N,Net-(J105-Pin_1)*%
X158043253Y-90411408D03*
%TD*%
%TO.P,J107,1,Pin_1*%
%TO.N,Net-(J101-Pin_1)*%
X158032974Y-59931106D03*
%TD*%
%TO.P,J113,1,Pin_1*%
%TO.N,Net-(J113-Pin_1)*%
X158022541Y-75174459D03*
%TD*%
D14*
%TO.N,Net-(J102-Pin_1)*%
X166186225Y-54846225D03*
X164463778Y-54846222D03*
X163033777Y-54846223D03*
%TO.N,Net-(J103-Pin_1)*%
X164880000Y-105660000D03*
X166070000Y-105690000D03*
X163470000Y-105660000D03*
%TO.N,Net-(J104-Pin_1)*%
X163570000Y-100590000D03*
X172845000Y-66296000D03*
X178181000Y-58338000D03*
X166100000Y-100579161D03*
X164880000Y-100570000D03*
X177806198Y-53854198D03*
%TO.N,Net-(J105-Pin_1)*%
X163690000Y-90410000D03*
X166100000Y-90400000D03*
X164930000Y-90430000D03*
%TO.N,Net-(J101-Pin_1)*%
X165900000Y-59930064D03*
X163331702Y-59928426D03*
X164666417Y-59911948D03*
%TO.N,GNDPWR*%
X177419000Y-110236000D03*
X171323000Y-104013000D03*
X178181000Y-109474000D03*
X179516994Y-65719994D03*
X168990000Y-103980000D03*
X180467000Y-99060000D03*
X181356000Y-98298000D03*
X181483000Y-97155000D03*
X169037000Y-87757000D03*
X181483000Y-79756000D03*
X168783010Y-73520500D03*
X168990000Y-58410000D03*
X169200000Y-74580000D03*
X170688000Y-87757000D03*
X181483000Y-78359000D03*
X170942000Y-58420000D03*
X179456000Y-64135000D03*
%TO.N,Net-(J106-Pin_1)*%
X166200000Y-85300000D03*
X183261000Y-83439000D03*
X163860000Y-85300000D03*
X165040000Y-85300000D03*
%TO.N,Net-(J114-Pin_1)*%
X166300000Y-70079907D03*
X180975000Y-51181000D03*
X165000000Y-70100000D03*
X163580000Y-70130000D03*
%TO.N,Net-(J113-Pin_1)*%
X166300000Y-75100000D03*
X163430000Y-75120000D03*
X164860000Y-75100000D03*
%TD*%
D15*
%TO.N,Net-(J102-Pin_1)*%
X158025560Y-54846229D02*
X166762011Y-54846229D01*
X167633240Y-53975000D02*
X175707666Y-53975000D01*
X175707666Y-53975000D02*
X175834666Y-54102000D01*
X166762011Y-54846229D02*
X167633240Y-53975000D01*
%TO.N,Net-(J103-Pin_1)*%
X163461866Y-105651866D02*
X163470000Y-105660000D01*
X166755822Y-105660000D02*
X168410822Y-107315000D01*
X163470000Y-105660000D02*
X163478134Y-105651866D01*
X163478134Y-105651866D02*
X164871866Y-105651866D01*
X158012117Y-105651866D02*
X163461866Y-105651866D01*
X168410822Y-107315000D02*
X174879000Y-107315000D01*
X174879000Y-107315000D02*
X175768000Y-106426000D01*
X164871866Y-105651866D02*
X164880000Y-105660000D01*
X164880000Y-105660000D02*
X166755822Y-105660000D01*
D16*
%TO.N,Net-(J104-Pin_1)*%
X177806198Y-52876298D02*
X177806198Y-53854198D01*
D15*
X166100000Y-100579161D02*
X175001161Y-100579161D01*
D16*
X172046900Y-47117000D02*
X177806198Y-52876298D01*
D15*
X175001161Y-100579161D02*
X175768000Y-101346000D01*
D16*
X178181000Y-60960000D02*
X178181000Y-58338000D01*
X172845000Y-66296000D02*
X178181000Y-60960000D01*
D15*
X158046205Y-100579161D02*
X166100000Y-100579161D01*
%TO.N,Net-(J105-Pin_1)*%
X175507668Y-90805000D02*
X166930059Y-90805000D01*
X166930059Y-90805000D02*
X166525059Y-90400000D01*
X175634668Y-90678000D02*
X175507668Y-90805000D01*
X166525059Y-90400000D02*
X158200000Y-90400000D01*
%TO.N,Net-(J101-Pin_1)*%
X168029822Y-61214000D02*
X173802666Y-61214000D01*
X165900000Y-59930064D02*
X166745886Y-59930064D01*
X173802666Y-61214000D02*
X175834666Y-59182000D01*
X158015972Y-59930064D02*
X165900000Y-59930064D01*
X166745886Y-59930064D02*
X168029822Y-61214000D01*
%TO.N,GNDPWR*%
X178181000Y-109474000D02*
X178308000Y-109474000D01*
D17*
X168910000Y-58420000D02*
X170942000Y-58420000D01*
D15*
X179451000Y-88138000D02*
X180649500Y-89336500D01*
X171326000Y-104010000D02*
X171322999Y-104013001D01*
D18*
X180345000Y-66548000D02*
X179516994Y-65719994D01*
D15*
X180345000Y-66548000D02*
X180345000Y-75189000D01*
X171069000Y-88138000D02*
X179451000Y-88138000D01*
X178308000Y-109474000D02*
X180086001Y-107695999D01*
X175768000Y-111506000D02*
X176149000Y-111506000D01*
X181483000Y-86106000D02*
X181483000Y-76327000D01*
X179451000Y-88138000D02*
X181483000Y-86106000D01*
X181483000Y-90170000D02*
X181483000Y-97155000D01*
X176149000Y-111506000D02*
X178181000Y-109474000D01*
D17*
X169609998Y-74580000D02*
X169609999Y-74580001D01*
D15*
X179391477Y-56580000D02*
X180345000Y-57533523D01*
X171927000Y-72263000D02*
X169609999Y-74580001D01*
X172912000Y-56580000D02*
X179391477Y-56580000D01*
X180086001Y-105550001D02*
X178546000Y-104010000D01*
X180070000Y-105534000D02*
X180086001Y-105550001D01*
X180070000Y-99584000D02*
X180070000Y-105534000D01*
X169037000Y-87757000D02*
X170688000Y-87757000D01*
D18*
X180345000Y-63246000D02*
X179456000Y-64135000D01*
D15*
X180345000Y-75189000D02*
X180649500Y-75493500D01*
X181483000Y-76327000D02*
X180649500Y-75493500D01*
X180649500Y-89336500D02*
X181483000Y-90170000D01*
D16*
X171323000Y-104013000D02*
X171322999Y-104013001D01*
D17*
X169200000Y-74580000D02*
X169609998Y-74580000D01*
D15*
X178546000Y-104010000D02*
X171326000Y-104010000D01*
X181483000Y-98171000D02*
X180070000Y-99584000D01*
X180345000Y-63246000D02*
X180345000Y-66548000D01*
X170688000Y-87757000D02*
X171069000Y-88138000D01*
D17*
X170942000Y-58420000D02*
X172847000Y-56515000D01*
D15*
X177419000Y-72263000D02*
X171927000Y-72263000D01*
X180086001Y-107695999D02*
X180086001Y-105550001D01*
X181483000Y-97155000D02*
X181483000Y-98171000D01*
D17*
X168880000Y-74260000D02*
X169200000Y-74580000D01*
X168880000Y-73070000D02*
X168880000Y-74260000D01*
D15*
X180649500Y-75493500D02*
X177419000Y-72263000D01*
X180345000Y-57533523D02*
X180345000Y-63246000D01*
X169164000Y-104013000D02*
X171323000Y-104013000D01*
%TO.N,Net-(J106-Pin_1)*%
X166200000Y-85300000D02*
X175336668Y-85300000D01*
X158100000Y-85300000D02*
X166200000Y-85300000D01*
D16*
X183261000Y-55791100D02*
X183261000Y-83439000D01*
X174586900Y-47117000D02*
X183261000Y-55791100D01*
D15*
X175336668Y-85300000D02*
X175634668Y-85598000D01*
%TO.N,Net-(J114-Pin_1)*%
X168921460Y-68188000D02*
X174039334Y-68188000D01*
X167029553Y-70079907D02*
X168921460Y-68188000D01*
X174039334Y-68188000D02*
X175701334Y-69850000D01*
X166300000Y-70079907D02*
X167029553Y-70079907D01*
X158030375Y-70079907D02*
X166300000Y-70079907D01*
D16*
X180975000Y-50965100D02*
X180975000Y-51181000D01*
X177126900Y-47117000D02*
X180975000Y-50965100D01*
D15*
%TO.N,Net-(J113-Pin_1)*%
X158010937Y-75142544D02*
X166900726Y-75142544D01*
X172214000Y-77089000D02*
X174373000Y-74930000D01*
X166900726Y-75142544D02*
X168847182Y-77089000D01*
X168847182Y-77089000D02*
X172214000Y-77089000D01*
X174373000Y-74930000D02*
X175701334Y-74930000D01*
%TD*%
M02*
