%TF.GenerationSoftware,KiCad,Pcbnew,7.0.10*%
%TF.CreationDate,2024-07-21T07:16:58-04:00*%
%TF.ProjectId,12.2.1 - PLC Connector,31322e32-2e31-4202-9d20-504c4320436f,rev?*%
%TF.SameCoordinates,Original*%
%TF.FileFunction,Profile,NP*%
%FSLAX46Y46*%
G04 Gerber Fmt 4.6, Leading zero omitted, Abs format (unit mm)*
G04 Created by KiCad (PCBNEW 7.0.10) date 2024-07-21 07:16:58*
%MOMM*%
%LPD*%
G01*
G04 APERTURE LIST*
%TA.AperFunction,Profile*%
%ADD10C,0.250000*%
%TD*%
G04 APERTURE END LIST*
D10*
X154278238Y-106176462D02*
G75*
G03*
X155028225Y-106926462I749962J-38D01*
G01*
X167028238Y-77196462D02*
G75*
G03*
X166278225Y-76446462I-750038J-38D01*
G01*
X166278225Y-101846462D02*
X155028225Y-101846462D01*
X184028225Y-44336462D02*
X184028225Y-115176462D01*
X167028225Y-103636462D02*
X167028225Y-102596462D01*
X167028225Y-68076462D02*
X167028225Y-61956462D01*
X154278225Y-90936462D02*
X154278225Y-89896462D01*
X154278238Y-85856462D02*
G75*
G03*
X155028225Y-86606462I749962J-38D01*
G01*
X154278225Y-70616462D02*
X154278225Y-69576462D01*
X166278225Y-56126462D02*
X155028225Y-56126462D01*
X154278238Y-90936462D02*
G75*
G03*
X155028225Y-91686462I749962J-38D01*
G01*
X166278225Y-68826525D02*
G75*
G03*
X167028225Y-68076462I-25J750025D01*
G01*
X166278225Y-53586525D02*
G75*
G03*
X167028225Y-52836462I-25J750025D01*
G01*
X155028225Y-99306462D02*
X166278225Y-99306462D01*
X166278225Y-58666525D02*
G75*
G03*
X167028225Y-57916462I-25J750025D01*
G01*
X167028238Y-92436462D02*
G75*
G03*
X166278225Y-91686462I-750038J-38D01*
G01*
X167028238Y-102596462D02*
G75*
G03*
X166278225Y-101846462I-750038J-38D01*
G01*
X155028225Y-89146462D02*
X166278225Y-89146462D01*
X154278225Y-106176462D02*
X154278225Y-105136462D01*
X167028238Y-107676462D02*
G75*
G03*
X166278225Y-106926462I-750038J-38D01*
G01*
X166278225Y-106926462D02*
X155028225Y-106926462D01*
X155028225Y-53586525D02*
G75*
G03*
X154278225Y-54336462I-25J-749975D01*
G01*
X154278225Y-60456462D02*
X154278225Y-59416462D01*
X166278225Y-89146525D02*
G75*
G03*
X167028225Y-88396462I-25J750025D01*
G01*
X154278225Y-75696462D02*
X154278225Y-74656462D01*
X167028238Y-61956462D02*
G75*
G03*
X166278225Y-61206462I-750038J-38D01*
G01*
X166278225Y-61206462D02*
X155028225Y-61206462D01*
X155028225Y-104386525D02*
G75*
G03*
X154278225Y-105136462I-25J-749975D01*
G01*
X155028225Y-73906525D02*
G75*
G03*
X154278225Y-74656462I-25J-749975D01*
G01*
X155028225Y-53586462D02*
X166278225Y-53586462D01*
X183278225Y-115926462D02*
X167778225Y-115926462D01*
X167028238Y-72116462D02*
G75*
G03*
X166278225Y-71366462I-750038J-38D01*
G01*
X155028225Y-58666462D02*
X166278225Y-58666462D01*
X155028225Y-68826525D02*
G75*
G03*
X154278225Y-69576462I-25J-749975D01*
G01*
X166278225Y-73906525D02*
G75*
G03*
X167028225Y-73156462I-25J750025D01*
G01*
X166278225Y-91686462D02*
X155028225Y-91686462D01*
X167028225Y-98556462D02*
X167028225Y-92436462D01*
X155028225Y-58666525D02*
G75*
G03*
X154278225Y-59416462I-25J-749975D01*
G01*
X154278238Y-70616462D02*
G75*
G03*
X155028225Y-71366462I749962J-38D01*
G01*
X154278238Y-60456462D02*
G75*
G03*
X155028225Y-61206462I749962J-38D01*
G01*
X154278225Y-55376462D02*
X154278225Y-54336462D01*
X167778225Y-43586525D02*
G75*
G03*
X167028225Y-44336462I-25J-749975D01*
G01*
X154278225Y-85856462D02*
X154278225Y-84816462D01*
X167028225Y-73156462D02*
X167028225Y-72116462D01*
X184028238Y-44336462D02*
G75*
G03*
X183278225Y-43586462I-750038J-38D01*
G01*
X166278225Y-99306525D02*
G75*
G03*
X167028225Y-98556462I-25J750025D01*
G01*
X166278225Y-76446462D02*
X155028225Y-76446462D01*
X166278225Y-84066525D02*
G75*
G03*
X167028225Y-83316462I-25J750025D01*
G01*
X166278225Y-71366462D02*
X155028225Y-71366462D01*
X167028225Y-52836462D02*
X167028225Y-44336462D01*
X155028225Y-104386462D02*
X166278225Y-104386462D01*
X155028225Y-89146525D02*
G75*
G03*
X154278225Y-89896462I-25J-749975D01*
G01*
X167028238Y-87356462D02*
G75*
G03*
X166278225Y-86606462I-750038J-38D01*
G01*
X154278238Y-55376462D02*
G75*
G03*
X155028225Y-56126462I749962J-38D01*
G01*
X155028225Y-84066462D02*
X166278225Y-84066462D01*
X167028225Y-83316462D02*
X167028225Y-77196462D01*
X154278238Y-75696462D02*
G75*
G03*
X155028225Y-76446462I749962J-38D01*
G01*
X155028225Y-99306525D02*
G75*
G03*
X154278225Y-100056462I-25J-749975D01*
G01*
X155028225Y-68826462D02*
X166278225Y-68826462D01*
X167028225Y-88396462D02*
X167028225Y-87356462D01*
X167028238Y-56876462D02*
G75*
G03*
X166278225Y-56126462I-750038J-38D01*
G01*
X183278225Y-115926525D02*
G75*
G03*
X184028225Y-115176462I-25J750025D01*
G01*
X154278238Y-101096462D02*
G75*
G03*
X155028225Y-101846462I749962J-38D01*
G01*
X167028225Y-57916462D02*
X167028225Y-56876462D01*
X155028225Y-84066525D02*
G75*
G03*
X154278225Y-84816462I-25J-749975D01*
G01*
X155028225Y-73906462D02*
X166278225Y-73906462D01*
X167778225Y-43586462D02*
X183278225Y-43586462D01*
X167028225Y-115176462D02*
X167028225Y-107676462D01*
X166278225Y-86606462D02*
X155028225Y-86606462D01*
X154278225Y-101096462D02*
X154278225Y-100056462D01*
X166278225Y-104386525D02*
G75*
G03*
X167028225Y-103636462I-25J750025D01*
G01*
X167028238Y-115176462D02*
G75*
G03*
X167778225Y-115926462I749962J-38D01*
G01*
M02*
