%TF.GenerationSoftware,KiCad,Pcbnew,7.0.10*%
%TF.CreationDate,2024-07-21T07:16:58-04:00*%
%TF.ProjectId,12.2.1 - PLC Connector,31322e32-2e31-4202-9d20-504c4320436f,rev?*%
%TF.SameCoordinates,Original*%
%TF.FileFunction,Copper,L1,Top*%
%TF.FilePolarity,Positive*%
%FSLAX46Y46*%
G04 Gerber Fmt 4.6, Leading zero omitted, Abs format (unit mm)*
G04 Created by KiCad (PCBNEW 7.0.10) date 2024-07-21 07:16:58*
%MOMM*%
%LPD*%
G01*
G04 APERTURE LIST*
G04 Aperture macros list*
%AMRoundRect*
0 Rectangle with rounded corners*
0 $1 Rounding radius*
0 $2 $3 $4 $5 $6 $7 $8 $9 X,Y pos of 4 corners*
0 Add a 4 corners polygon primitive as box body*
4,1,4,$2,$3,$4,$5,$6,$7,$8,$9,$2,$3,0*
0 Add four circle primitives for the rounded corners*
1,1,$1+$1,$2,$3*
1,1,$1+$1,$4,$5*
1,1,$1+$1,$6,$7*
1,1,$1+$1,$8,$9*
0 Add four rect primitives between the rounded corners*
20,1,$1+$1,$2,$3,$4,$5,0*
20,1,$1+$1,$4,$5,$6,$7,0*
20,1,$1+$1,$6,$7,$8,$9,0*
20,1,$1+$1,$8,$9,$2,$3,0*%
%AMFreePoly0*
4,1,19,0.750000,-0.750000,-0.200000,-0.750000,-0.200000,-0.744911,-0.221157,-0.744911,-0.357708,-0.704816,-0.477430,-0.627875,-0.570627,-0.520320,-0.629746,-0.390866,-0.650000,-0.250000,-0.650000,0.250000,-0.629746,0.390866,-0.570627,0.520320,-0.477430,0.627875,-0.357708,0.704816,-0.221157,0.744911,-0.200000,0.744911,-0.200000,0.750000,0.750000,0.750000,0.750000,-0.750000,0.750000,-0.750000,
$1*%
%AMFreePoly1*
4,1,19,0.200000,0.744911,0.221157,0.744911,0.357708,0.704816,0.477430,0.627875,0.570627,0.520320,0.629746,0.390866,0.650000,0.250000,0.650000,-0.250000,0.629746,-0.390866,0.570627,-0.520320,0.477430,-0.627875,0.357708,-0.704816,0.221157,-0.744911,0.200000,-0.744911,0.200000,-0.750000,-0.750000,-0.750000,-0.750000,0.750000,0.200000,0.750000,0.200000,0.744911,0.200000,0.744911,
$1*%
G04 Aperture macros list end*
%TA.AperFunction,SMDPad,CuDef*%
%ADD10FreePoly0,90.000000*%
%TD*%
%TA.AperFunction,SMDPad,CuDef*%
%ADD11FreePoly1,90.000000*%
%TD*%
%TA.AperFunction,SMDPad,CuDef*%
%ADD12RoundRect,0.572500X-3.045750X-0.572500X3.045750X-0.572500X3.045750X0.572500X-3.045750X0.572500X0*%
%TD*%
%TA.AperFunction,SMDPad,CuDef*%
%ADD13RoundRect,0.150000X0.150000X-0.587500X0.150000X0.587500X-0.150000X0.587500X-0.150000X-0.587500X0*%
%TD*%
%TA.AperFunction,SMDPad,CuDef*%
%ADD14RoundRect,0.250000X-0.300000X-0.300000X0.300000X-0.300000X0.300000X0.300000X-0.300000X0.300000X0*%
%TD*%
%TA.AperFunction,SMDPad,CuDef*%
%ADD15RoundRect,0.250000X0.300000X0.300000X-0.300000X0.300000X-0.300000X-0.300000X0.300000X-0.300000X0*%
%TD*%
%TA.AperFunction,ComponentPad*%
%ADD16R,1.950000X1.950000*%
%TD*%
%TA.AperFunction,ComponentPad*%
%ADD17C,1.950000*%
%TD*%
%TA.AperFunction,ComponentPad*%
%ADD18C,1.498600*%
%TD*%
%TA.AperFunction,ViaPad*%
%ADD19C,0.800000*%
%TD*%
%TA.AperFunction,Conductor*%
%ADD20C,2.000000*%
%TD*%
%TA.AperFunction,Conductor*%
%ADD21C,1.016000*%
%TD*%
%TA.AperFunction,Conductor*%
%ADD22C,1.500000*%
%TD*%
%TA.AperFunction,Conductor*%
%ADD23C,1.651000*%
%TD*%
%TA.AperFunction,Conductor*%
%ADD24C,1.999996*%
%TD*%
G04 APERTURE END LIST*
D10*
%TO.P,JP101,1,A*%
%TO.N,Net-(J103-Pin_1)*%
X168200000Y-96550000D03*
D11*
%TO.P,JP101,2,B*%
%TO.N,Net-(J105-Pin_1)*%
X168200000Y-94050000D03*
%TD*%
D12*
%TO.P,J108,1,Pin_1*%
%TO.N,Net-(J102-Pin_1)*%
X158055361Y-54849351D03*
%TD*%
D13*
%TO.P,D105,1*%
%TO.N,GNDPWR*%
X167921369Y-58415349D03*
%TO.P,D105,2*%
X169821369Y-58415349D03*
%TO.P,D105,3*%
%TO.N,Net-(J102-Pin_1)*%
X168871369Y-56540349D03*
%TD*%
%TO.P,D106,1*%
%TO.N,GNDPWR*%
X167894000Y-73520500D03*
%TO.P,D106,2*%
X169794000Y-73520500D03*
%TO.P,D106,3*%
%TO.N,Net-(J114-Pin_1)*%
X168844000Y-71645500D03*
%TD*%
D12*
%TO.P,J105,1,Pin_1*%
%TO.N,Net-(J105-Pin_1)*%
X158043763Y-90429020D03*
%TD*%
D14*
%TO.P,D101,1*%
%TO.N,Net-(J114-Pin_1)*%
X175003000Y-80518000D03*
%TO.P,D101,2*%
%TO.N,GNDPWR*%
X177803000Y-80518000D03*
%TD*%
D12*
%TO.P,J101,1,Pin_1*%
%TO.N,Net-(J101-Pin_1)*%
X158049672Y-59928939D03*
%TD*%
%TO.P,J109,1,Pin_1*%
%TO.N,Net-(J103-Pin_1)*%
X158038266Y-105663999D03*
%TD*%
D15*
%TO.P,D104,1*%
%TO.N,Net-(J106-Pin_1)*%
X179076000Y-96393000D03*
%TO.P,D104,2*%
%TO.N,GNDPWR*%
X176276000Y-96393000D03*
%TD*%
D12*
%TO.P,J115,1,Pin_1*%
%TO.N,Net-(J113-Pin_1)*%
X158043068Y-75184540D03*
%TD*%
D13*
%TO.P,D108,1*%
%TO.N,GNDPWR*%
X167894000Y-87805500D03*
%TO.P,D108,2*%
X169794000Y-87805500D03*
%TO.P,D108,3*%
%TO.N,Net-(J106-Pin_1)*%
X168844000Y-85930500D03*
%TD*%
D12*
%TO.P,J106,1,Pin_1*%
%TO.N,Net-(J106-Pin_1)*%
X158034199Y-85336469D03*
%TD*%
D16*
%TO.P,J118,1,1*%
%TO.N,Net-(J105-Pin_1)*%
X175768000Y-90678000D03*
D17*
%TO.P,J118,2,2*%
%TO.N,Net-(J106-Pin_1)*%
X175768000Y-85598000D03*
%TD*%
D13*
%TO.P,D107,1*%
%TO.N,GNDPWR*%
X167894000Y-104013000D03*
%TO.P,D107,2*%
X169794000Y-104013000D03*
%TO.P,D107,3*%
%TO.N,Net-(J104-Pin_1)*%
X168844000Y-102138000D03*
%TD*%
D12*
%TO.P,J110,1,Pin_1*%
%TO.N,Net-(J104-Pin_1)*%
X158040712Y-100575452D03*
%TD*%
D16*
%TO.P,J120,1,1*%
%TO.N,Net-(J113-Pin_1)*%
X175768000Y-74930000D03*
D17*
%TO.P,J120,2,2*%
%TO.N,Net-(J114-Pin_1)*%
X175768000Y-69850000D03*
%TD*%
D10*
%TO.P,JP103,1,A*%
%TO.N,Net-(J103-Pin_1)*%
X168200000Y-66150000D03*
D11*
%TO.P,JP103,2,B*%
%TO.N,Net-(J101-Pin_1)*%
X168200000Y-63650000D03*
%TD*%
D14*
%TO.P,D103,1*%
%TO.N,Net-(J104-Pin_1)*%
X171447000Y-96393000D03*
%TO.P,D103,2*%
%TO.N,GNDPWR*%
X174247000Y-96393000D03*
%TD*%
D10*
%TO.P,JP102,1,A*%
%TO.N,Net-(J103-Pin_1)*%
X168200000Y-81400000D03*
D11*
%TO.P,JP102,2,B*%
%TO.N,Net-(J113-Pin_1)*%
X168200000Y-78900000D03*
%TD*%
D14*
%TO.P,D102,1*%
%TO.N,Net-(J102-Pin_1)*%
X175384000Y-64897000D03*
%TO.P,D102,2*%
%TO.N,GNDPWR*%
X178184000Y-64897000D03*
%TD*%
D16*
%TO.P,J117,1,1*%
%TO.N,GNDPWR*%
X175768000Y-111506000D03*
D17*
%TO.P,J117,2,2*%
%TO.N,Net-(J103-Pin_1)*%
X175768000Y-106426000D03*
%TO.P,J117,3,3*%
%TO.N,Net-(J104-Pin_1)*%
X175768000Y-101346000D03*
%TD*%
D12*
%TO.P,J114,1,Pin_1*%
%TO.N,Net-(J114-Pin_1)*%
X158039695Y-70104000D03*
%TD*%
D16*
%TO.P,J119,1,1*%
%TO.N,Net-(J101-Pin_1)*%
X175768000Y-59182000D03*
D17*
%TO.P,J119,2,2*%
%TO.N,Net-(J102-Pin_1)*%
X175768000Y-54102000D03*
%TD*%
D18*
%TO.P,J122,4,4*%
%TO.N,Net-(J102-Pin_1)*%
X179712000Y-46990000D03*
%TO.P,J122,3,3*%
%TO.N,Net-(J114-Pin_1)*%
X177212000Y-46990000D03*
%TO.P,J122,2,2*%
%TO.N,Net-(J106-Pin_1)*%
X174712000Y-46990000D03*
%TO.P,J122,1,1*%
%TO.N,Net-(J104-Pin_1)*%
X172212000Y-46990000D03*
%TD*%
D19*
%TO.N,Net-(J102-Pin_1)*%
X166186225Y-54846225D03*
X164463778Y-54846222D03*
X163033777Y-54846223D03*
%TO.N,Net-(J103-Pin_1)*%
X164880000Y-105660000D03*
X166070000Y-105690000D03*
X163470000Y-105660000D03*
%TO.N,Net-(J104-Pin_1)*%
X163570000Y-100590000D03*
X172845000Y-66296000D03*
X178181000Y-58338000D03*
X166100000Y-100579161D03*
X164880000Y-100570000D03*
X177806198Y-53854198D03*
%TO.N,Net-(J105-Pin_1)*%
X163690000Y-90410000D03*
X166100000Y-90400000D03*
X164930000Y-90430000D03*
%TO.N,Net-(J101-Pin_1)*%
X165900000Y-59930064D03*
X163331702Y-59928426D03*
X164666417Y-59911948D03*
%TO.N,GNDPWR*%
X177419000Y-110236000D03*
X171323000Y-104013000D03*
X178181000Y-109474000D03*
X179516994Y-65719994D03*
X168990000Y-103980000D03*
X180467000Y-99060000D03*
X181356000Y-98298000D03*
X181483000Y-97155000D03*
X169037000Y-87757000D03*
X181483000Y-79756000D03*
X168783010Y-73520500D03*
X168990000Y-58410000D03*
X169200000Y-74580000D03*
X170688000Y-87757000D03*
X181483000Y-78359000D03*
X170942000Y-58420000D03*
X179456000Y-64135000D03*
%TO.N,Net-(J106-Pin_1)*%
X166200000Y-85300000D03*
X183261000Y-83439000D03*
X163860000Y-85300000D03*
X165040000Y-85300000D03*
%TO.N,Net-(J114-Pin_1)*%
X166300000Y-70079907D03*
X180975000Y-51181000D03*
X165000000Y-70100000D03*
X163580000Y-70130000D03*
%TO.N,Net-(J113-Pin_1)*%
X166300000Y-75100000D03*
X163430000Y-75120000D03*
X164860000Y-75100000D03*
%TD*%
D20*
%TO.N,Net-(J102-Pin_1)*%
X173466000Y-56438000D02*
X173466000Y-62979000D01*
X175641000Y-54263000D02*
X173466000Y-56438000D01*
X158025560Y-54846229D02*
X163033771Y-54846229D01*
D21*
X168971000Y-56440718D02*
X168971000Y-54685000D01*
X179666900Y-47117000D02*
X175768000Y-51015900D01*
D20*
X173466000Y-62979000D02*
X175384000Y-64897000D01*
X163033771Y-54846229D02*
X163033777Y-54846223D01*
X166186222Y-54846222D02*
X166186225Y-54846225D01*
X164463778Y-54846222D02*
X163033778Y-54846222D01*
X164463778Y-54846222D02*
X166186222Y-54846222D01*
X163033778Y-54846222D02*
X163033777Y-54846223D01*
X166186229Y-54846229D02*
X175090439Y-54846229D01*
D21*
X175768000Y-51015900D02*
X175768000Y-54102000D01*
D20*
X175090439Y-54846229D02*
X175834668Y-54102000D01*
D21*
X168871369Y-56540349D02*
X168971000Y-56440718D01*
D20*
%TO.N,Net-(J103-Pin_1)*%
X175768000Y-106668500D02*
X175768000Y-105269801D01*
D22*
X171337000Y-69287000D02*
X171337000Y-74504924D01*
D20*
X166056511Y-105676511D02*
X166070000Y-105690000D01*
X168897056Y-96550000D02*
X168200000Y-96550000D01*
D22*
X168200000Y-81400000D02*
X169002000Y-81400000D01*
X168200000Y-66150000D02*
X171337000Y-69287000D01*
X170942000Y-83340000D02*
X170942000Y-84074000D01*
X170942000Y-74899924D02*
X170942000Y-85500924D01*
D20*
X157991881Y-105676511D02*
X166056511Y-105676511D01*
X168200000Y-97652969D02*
X168200000Y-96550000D01*
X166070000Y-105690000D02*
X166083489Y-105676511D01*
X175768000Y-105269801D02*
X168393668Y-97895469D01*
D22*
X172405000Y-93042056D02*
X168897056Y-96550000D01*
X172405000Y-86963924D02*
X172405000Y-93042056D01*
X169002000Y-81400000D02*
X170942000Y-83340000D01*
X170942000Y-85500924D02*
X172405000Y-86963924D01*
X171337000Y-74504924D02*
X170942000Y-74899924D01*
D21*
%TO.N,Net-(J104-Pin_1)*%
X177806198Y-53854198D02*
X178181000Y-54229000D01*
D20*
X171806163Y-97417497D02*
X171806163Y-96752163D01*
D21*
X171447000Y-96393000D02*
X173863000Y-93977000D01*
D20*
X168844000Y-102138000D02*
X167285161Y-100579161D01*
X175768000Y-101346000D02*
X175734666Y-101346000D01*
X158100000Y-100600000D02*
X166079161Y-100600000D01*
D21*
X173863000Y-82732080D02*
X172845000Y-81714080D01*
X173863000Y-93977000D02*
X173863000Y-82732080D01*
D20*
X167285161Y-100579161D02*
X166100000Y-100579161D01*
X166079161Y-100600000D02*
X166100000Y-100579161D01*
X175734666Y-101346000D02*
X171806163Y-97417497D01*
D21*
X172845000Y-81714080D02*
X172845000Y-66296000D01*
X178181000Y-54229000D02*
X178181000Y-58338000D01*
D20*
%TO.N,Net-(J105-Pin_1)*%
X166733294Y-90400000D02*
X168200000Y-91866706D01*
X166100000Y-90400000D02*
X166733294Y-90400000D01*
X168200000Y-91866706D02*
X168200000Y-94050000D01*
X158200000Y-90400000D02*
X166100000Y-90400000D01*
D23*
%TO.N,Net-(J101-Pin_1)*%
X166802119Y-60457069D02*
X167122528Y-60611365D01*
D20*
X165896435Y-59926499D02*
X165900000Y-59930064D01*
X158034088Y-59926499D02*
X165896435Y-59926499D01*
D23*
X167122528Y-60611365D02*
X167400567Y-60833088D01*
X167400567Y-60833088D02*
X168200000Y-61632521D01*
X165900000Y-59930064D02*
X166275114Y-59930064D01*
X168200000Y-61632521D02*
X168200000Y-63650000D01*
X166275114Y-59930064D02*
X166802119Y-60457069D01*
D21*
%TO.N,GNDPWR*%
X168021000Y-58420000D02*
X168910000Y-58420000D01*
D20*
X181483000Y-78359000D02*
X181483000Y-79756000D01*
D24*
X179006994Y-65719994D02*
X179516994Y-65719994D01*
D21*
X169146500Y-103995500D02*
X169164000Y-104013000D01*
X170942000Y-58420000D02*
X171450000Y-58420000D01*
D20*
X180467000Y-99060000D02*
X180594000Y-99060000D01*
D21*
X168988500Y-87805500D02*
X169037000Y-87757000D01*
D24*
X178184000Y-64897000D02*
X179006994Y-65719994D01*
D20*
X178181000Y-109601000D02*
X177546000Y-110236000D01*
X179197000Y-99314000D02*
X180340000Y-99314000D01*
X180467000Y-99187000D02*
X180467000Y-99060000D01*
D21*
X171340500Y-103995500D02*
X171559500Y-103995500D01*
D20*
X181483000Y-80264000D02*
X181229000Y-80518000D01*
D21*
X170736500Y-87805500D02*
X170893500Y-87805500D01*
D20*
X181229000Y-80518000D02*
X177803000Y-80518000D01*
D21*
X169085500Y-87805500D02*
X169860000Y-87805500D01*
D20*
X181356000Y-98298000D02*
X181483000Y-98171000D01*
X181483000Y-79756000D02*
X181483000Y-80264000D01*
D21*
X169181500Y-103995500D02*
X170162500Y-103995500D01*
X168008500Y-73520500D02*
X168783010Y-73520500D01*
X170688000Y-87757000D02*
X170736500Y-87805500D01*
X169860000Y-87805500D02*
X170639500Y-87805500D01*
X170639500Y-87805500D02*
X170688000Y-87757000D01*
D20*
X176276000Y-111506000D02*
X175768000Y-111506000D01*
X174247000Y-96393000D02*
X176276000Y-96393000D01*
D21*
X169037000Y-87757000D02*
X169085500Y-87805500D01*
D20*
X176276000Y-96393000D02*
X179197000Y-99314000D01*
X181483000Y-98171000D02*
X181483000Y-97155000D01*
X178181000Y-109474000D02*
X178181000Y-109601000D01*
D21*
X167894000Y-87805500D02*
X168988500Y-87805500D01*
X169200000Y-73937490D02*
X169200000Y-74580000D01*
X171305500Y-103995500D02*
X171323000Y-104013000D01*
D24*
X179456000Y-64135000D02*
X179456000Y-65659000D01*
D21*
X171323000Y-104013000D02*
X171340500Y-103995500D01*
X171559500Y-103995500D02*
X171577000Y-104013000D01*
X169921000Y-58420000D02*
X170942000Y-58420000D01*
D20*
X177419000Y-110363000D02*
X176276000Y-111506000D01*
D21*
X168783010Y-73520500D02*
X169200000Y-73937490D01*
X168262500Y-103995500D02*
X169146500Y-103995500D01*
X170893500Y-87805500D02*
X170942000Y-87757000D01*
X169879000Y-73901000D02*
X169879000Y-73215395D01*
D24*
X179456000Y-65659000D02*
X179516994Y-65719994D01*
D20*
X180594000Y-99060000D02*
X181356000Y-98298000D01*
D21*
X169164000Y-104013000D02*
X169181500Y-103995500D01*
X170162500Y-103995500D02*
X171305500Y-103995500D01*
X169200000Y-74580000D02*
X169879000Y-73901000D01*
X168910000Y-58420000D02*
X169921000Y-58420000D01*
D20*
X180340000Y-99314000D02*
X180467000Y-99187000D01*
%TO.N,Net-(J106-Pin_1)*%
X179231635Y-96237365D02*
X179231635Y-94141635D01*
X176176000Y-85598000D02*
X175634668Y-85598000D01*
X178562000Y-93472000D02*
X178562000Y-87984000D01*
X179231635Y-94141635D02*
X178562000Y-93472000D01*
X168279500Y-85300000D02*
X168910000Y-85930500D01*
D21*
X181102000Y-85598000D02*
X176176000Y-85598000D01*
D20*
X158000000Y-85300000D02*
X166200000Y-85300000D01*
X178562000Y-87984000D02*
X176176000Y-85598000D01*
X166200000Y-85300000D02*
X168279500Y-85300000D01*
D21*
X183261000Y-83439000D02*
X181102000Y-85598000D01*
D20*
%TO.N,Net-(J114-Pin_1)*%
X177943000Y-69993000D02*
X177943000Y-77232000D01*
X177943000Y-77232000D02*
X175003000Y-80172000D01*
D21*
X178437474Y-69850000D02*
X181542498Y-66744976D01*
D20*
X175003000Y-80172000D02*
X175003000Y-80518000D01*
D21*
X177800000Y-69850000D02*
X178437474Y-69850000D01*
D20*
X167392907Y-70079907D02*
X168958500Y-71645500D01*
D21*
X181542498Y-66744976D02*
X181542498Y-51748498D01*
D20*
X158000000Y-70100000D02*
X166279907Y-70100000D01*
X177800000Y-69850000D02*
X177943000Y-69993000D01*
D21*
X181542498Y-51748498D02*
X180975000Y-51181000D01*
D20*
X166279907Y-70100000D02*
X166300000Y-70079907D01*
X166300000Y-70079907D02*
X167392907Y-70079907D01*
X175701334Y-69850000D02*
X177800000Y-69850000D01*
%TO.N,Net-(J113-Pin_1)*%
X168200000Y-76626706D02*
X168200000Y-78900000D01*
X158000000Y-75100000D02*
X166300000Y-75100000D01*
D23*
X166673294Y-75100000D02*
X168200000Y-76626706D01*
%TD*%
M02*
