%TF.GenerationSoftware,KiCad,Pcbnew,7.0.11*%
%TF.CreationDate,2024-11-09T09:44:04-05:00*%
%TF.ProjectId,14.1.4 - PMOS - PLC Connector Combined,31342e31-2e34-4202-9d20-504d4f53202d,rev?*%
%TF.SameCoordinates,Original*%
%TF.FileFunction,Copper,L2,Bot*%
%TF.FilePolarity,Positive*%
%FSLAX46Y46*%
G04 Gerber Fmt 4.6, Leading zero omitted, Abs format (unit mm)*
G04 Created by KiCad (PCBNEW 7.0.11) date 2024-11-09 09:44:04*
%MOMM*%
%LPD*%
G01*
G04 APERTURE LIST*
G04 Aperture macros list*
%AMRoundRect*
0 Rectangle with rounded corners*
0 $1 Rounding radius*
0 $2 $3 $4 $5 $6 $7 $8 $9 X,Y pos of 4 corners*
0 Add a 4 corners polygon primitive as box body*
4,1,4,$2,$3,$4,$5,$6,$7,$8,$9,$2,$3,0*
0 Add four circle primitives for the rounded corners*
1,1,$1+$1,$2,$3*
1,1,$1+$1,$4,$5*
1,1,$1+$1,$6,$7*
1,1,$1+$1,$8,$9*
0 Add four rect primitives between the rounded corners*
20,1,$1+$1,$2,$3,$4,$5,0*
20,1,$1+$1,$4,$5,$6,$7,0*
20,1,$1+$1,$6,$7,$8,$9,0*
20,1,$1+$1,$8,$9,$2,$3,0*%
G04 Aperture macros list end*
%TA.AperFunction,ComponentPad*%
%ADD10R,1.950000X1.950000*%
%TD*%
%TA.AperFunction,ComponentPad*%
%ADD11C,1.950000*%
%TD*%
%TA.AperFunction,ComponentPad*%
%ADD12C,1.600000*%
%TD*%
%TA.AperFunction,ComponentPad*%
%ADD13O,1.600000X1.600000*%
%TD*%
%TA.AperFunction,ComponentPad*%
%ADD14C,1.498600*%
%TD*%
%TA.AperFunction,SMDPad,CuDef*%
%ADD15RoundRect,0.572500X3.045750X0.572500X-3.045750X0.572500X-3.045750X-0.572500X3.045750X-0.572500X0*%
%TD*%
%TA.AperFunction,ViaPad*%
%ADD16C,0.800000*%
%TD*%
%TA.AperFunction,ViaPad*%
%ADD17C,0.600000*%
%TD*%
%TA.AperFunction,ViaPad*%
%ADD18C,0.500000*%
%TD*%
%TA.AperFunction,ViaPad*%
%ADD19C,0.700000*%
%TD*%
%TA.AperFunction,Conductor*%
%ADD20C,1.143000*%
%TD*%
%TA.AperFunction,Conductor*%
%ADD21C,0.508000*%
%TD*%
%TA.AperFunction,Conductor*%
%ADD22C,1.270000*%
%TD*%
%TA.AperFunction,Conductor*%
%ADD23C,1.016000*%
%TD*%
%TA.AperFunction,Conductor*%
%ADD24C,0.812800*%
%TD*%
%TA.AperFunction,Conductor*%
%ADD25C,1.524000*%
%TD*%
%TA.AperFunction,Conductor*%
%ADD26C,0.762000*%
%TD*%
%TA.AperFunction,Conductor*%
%ADD27C,0.250000*%
%TD*%
G04 APERTURE END LIST*
D10*
%TO.P,J317,1,1*%
%TO.N,Net-(D10-A)*%
X107500000Y-89000000D03*
D11*
%TO.P,J317,2,2*%
%TO.N,GNDPWR*%
X107500000Y-94080000D03*
%TD*%
D12*
%TO.P,R204,1*%
%TO.N,M*%
X85008250Y-74782224D03*
D13*
%TO.P,R204,2*%
%TO.N,Net-(J208-Pin_1)*%
X85008250Y-79862224D03*
%TD*%
D10*
%TO.P,J222,1,1*%
%TO.N,Net-(J205-Pin_1)*%
X92640000Y-97740000D03*
D11*
%TO.P,J222,2,2*%
%TO.N,Net-(J206-Pin_1)*%
X92640000Y-92660000D03*
%TD*%
D12*
%TO.P,R202,1*%
%TO.N,M*%
X84918250Y-100297224D03*
D13*
%TO.P,R202,2*%
%TO.N,Net-(J202-Pin_1)*%
X84918250Y-105377224D03*
%TD*%
D10*
%TO.P,J224,1,1*%
%TO.N,Net-(J201-Pin_1)*%
X92640000Y-118060000D03*
D11*
%TO.P,J224,2,2*%
%TO.N,Net-(J202-Pin_1)*%
X92640000Y-112980000D03*
%TD*%
D10*
%TO.P,J320,1,1*%
%TO.N,Net-(D11-A)*%
X107500000Y-104000000D03*
D11*
%TO.P,J320,2,2*%
%TO.N,GNDPWR*%
X107500000Y-109080000D03*
%TD*%
D12*
%TO.P,R201,1*%
%TO.N,Net-(J201-Pin_1)*%
X84878250Y-115392224D03*
D13*
%TO.P,R201,2*%
%TO.N,M*%
X84878250Y-110312224D03*
%TD*%
D14*
%TO.P,J226,1,1*%
%TO.N,Net-(J206-Pin_1)*%
X95660000Y-125970000D03*
%TO.P,J226,2,2*%
%TO.N,Net-(J205-Pin_1)*%
X93160000Y-125970000D03*
%TO.P,J226,3,3*%
%TO.N,Net-(J204-Pin_1)*%
X90660000Y-125970000D03*
%TO.P,J226,4,4*%
%TO.N,Net-(J203-Pin_1)*%
X88160000Y-125970000D03*
%TD*%
D10*
%TO.P,J318,1,1*%
%TO.N,Net-(D10-K)*%
X107500000Y-69000000D03*
D11*
%TO.P,J318,2,2*%
%TO.N,Net-(D1-A)*%
X107500000Y-74080000D03*
%TO.P,J318,3,3*%
%TO.N,GNDPWR*%
X107500000Y-79160000D03*
%TD*%
D12*
%TO.P,R203,1*%
%TO.N,Net-(J207-Pin_1)*%
X84918250Y-85002224D03*
D13*
%TO.P,R203,2*%
%TO.N,M*%
X84918250Y-90082224D03*
%TD*%
D10*
%TO.P,J221,1,1*%
%TO.N,Net-(J203-Pin_1)*%
X92640000Y-107900000D03*
D11*
%TO.P,J221,2,2*%
%TO.N,Net-(J204-Pin_1)*%
X92640000Y-102820000D03*
%TD*%
D10*
%TO.P,J223,1,1*%
%TO.N,M*%
X92640000Y-77420000D03*
D11*
%TO.P,J223,2,2*%
%TO.N,Net-(J210-Pin_1)*%
X92640000Y-72340000D03*
%TD*%
D10*
%TO.P,J225,1,1*%
%TO.N,Net-(J207-Pin_1)*%
X92640000Y-87580000D03*
D11*
%TO.P,J225,2,2*%
%TO.N,Net-(J208-Pin_1)*%
X92640000Y-82500000D03*
%TD*%
D10*
%TO.P,J319,1,1*%
%TO.N,Net-(D12-K)*%
X107500000Y-119400000D03*
D11*
%TO.P,J319,2,2*%
%TO.N,GNDPWR*%
X107500000Y-124480000D03*
%TD*%
D14*
%TO.P,J321,1,1*%
%TO.N,Net-(D1-A)*%
X116620000Y-130760000D03*
%TO.P,J321,2,2*%
%TO.N,Net-(D10-A)*%
X114120000Y-130760000D03*
%TO.P,J321,3,3*%
%TO.N,Net-(D11-A)*%
X111620000Y-130760000D03*
%TO.P,J321,4,4*%
%TO.N,Net-(D12-K)*%
X109120000Y-130760000D03*
%TD*%
D15*
%TO.P,J304,1,Pin_1*%
%TO.N,Net-(J304-Pin_1)*%
X128220000Y-72350000D03*
%TD*%
%TO.P,J212,1,Pin_1*%
%TO.N,Net-(J202-Pin_1)*%
X74258250Y-112817224D03*
%TD*%
%TO.P,J216,1,Pin_1*%
%TO.N,Net-(J206-Pin_1)*%
X74268250Y-92497224D03*
%TD*%
%TO.P,J213,1,Pin_1*%
%TO.N,Net-(J203-Pin_1)*%
X74268250Y-107737224D03*
%TD*%
%TO.P,J217,1,Pin_1*%
%TO.N,Net-(J207-Pin_1)*%
X74268250Y-87407224D03*
%TD*%
%TO.P,J308,1,Pin_1*%
%TO.N,Net-(J302-Pin_1)*%
X128220000Y-118070000D03*
%TD*%
%TO.P,J219,1,Pin_1*%
%TO.N,M*%
X74238250Y-77247224D03*
%TD*%
%TO.P,J211,1,Pin_1*%
%TO.N,Net-(J201-Pin_1)*%
X74340000Y-117907224D03*
%TD*%
%TO.P,J312,1,Pin_1*%
%TO.N,Net-(J306-Pin_1)*%
X128220000Y-87570000D03*
%TD*%
%TO.P,J316,1,Pin_1*%
%TO.N,Net-(J314-Pin_1)*%
X128230000Y-102800000D03*
%TD*%
%TO.P,J214,1,Pin_1*%
%TO.N,Net-(J204-Pin_1)*%
X74258250Y-102667224D03*
%TD*%
%TO.P,J305,1,Pin_1*%
%TO.N,GNDPWR*%
X128230000Y-92650000D03*
%TD*%
%TO.P,J301,1,Pin_1*%
%TO.N,GNDPWR*%
X128220000Y-123130000D03*
%TD*%
%TO.P,J215,1,Pin_1*%
%TO.N,Net-(J205-Pin_1)*%
X74320000Y-97580000D03*
%TD*%
%TO.P,J303,1,Pin_1*%
%TO.N,GNDPWR*%
X128240000Y-77410000D03*
%TD*%
%TO.P,J313,1,Pin_1*%
%TO.N,GNDPWR*%
X128220000Y-107900000D03*
%TD*%
%TO.P,J218,1,Pin_1*%
%TO.N,Net-(J208-Pin_1)*%
X74258250Y-82347224D03*
%TD*%
%TO.P,J220,1,Pin_1*%
%TO.N,Net-(J210-Pin_1)*%
X74238250Y-72187224D03*
%TD*%
D16*
%TO.N,Net-(J306-Pin_1)*%
X123120000Y-87640000D03*
X116101130Y-92741130D03*
%TO.N,Net-(J302-Pin_1)*%
X122080000Y-118210000D03*
X115360000Y-127560000D03*
%TO.N,Net-(J304-Pin_1)*%
X123780000Y-72340000D03*
X113114000Y-77620000D03*
%TO.N,Net-(J201-Pin_1)*%
X79471250Y-117874224D03*
X80868250Y-117874224D03*
X82265250Y-117874224D03*
%TO.N,Net-(J202-Pin_1)*%
X79471250Y-112794224D03*
X80868250Y-112794224D03*
X82392250Y-112794224D03*
%TO.N,Net-(J203-Pin_1)*%
X79471250Y-107714224D03*
X89758150Y-114826224D03*
X81249250Y-107714224D03*
X82773250Y-107714224D03*
%TO.N,Net-(J204-Pin_1)*%
X81249250Y-102634224D03*
X79598250Y-102634224D03*
X82773250Y-102634224D03*
%TO.N,Net-(J205-Pin_1)*%
X95679002Y-100444402D03*
X79852250Y-97554224D03*
X81503250Y-97554224D03*
X98902250Y-105440000D03*
X83027250Y-97554224D03*
%TO.N,Net-(J206-Pin_1)*%
X83281250Y-92474224D03*
X79852250Y-92474224D03*
X81630248Y-92474224D03*
%TO.N,Net-(J207-Pin_1)*%
X83027250Y-87394224D03*
X81376250Y-87394224D03*
X79852250Y-87394224D03*
%TO.N,Net-(J208-Pin_1)*%
X81503250Y-82314224D03*
X79725250Y-82314224D03*
X83281250Y-82314224D03*
%TO.N,M*%
X82773250Y-76980224D03*
X79344250Y-76980224D03*
X90012252Y-110254224D03*
X91282250Y-100221224D03*
X92425250Y-100221224D03*
X80995250Y-76980224D03*
X91028250Y-110254224D03*
%TO.N,Net-(J314-Pin_1)*%
X122980000Y-103290000D03*
X116760000Y-111890000D03*
%TO.N,GNDPWR*%
X111210000Y-91200000D03*
X115930000Y-118870000D03*
X115150000Y-112040000D03*
X119990000Y-82520000D03*
X115950000Y-97780000D03*
X110760000Y-111470000D03*
X123880000Y-76700000D03*
X108500000Y-85840000D03*
X103190000Y-133540000D03*
X122930000Y-76700000D03*
X123350000Y-93310000D03*
X123470000Y-122610000D03*
X124250000Y-123800000D03*
X123330000Y-107490000D03*
X124260000Y-122570000D03*
X123350000Y-108550000D03*
X121680000Y-92100000D03*
X121930000Y-108580000D03*
X121680000Y-93350000D03*
X103180000Y-132500000D03*
X123460000Y-123820000D03*
X103180000Y-131480000D03*
X122960000Y-77960000D03*
X123350000Y-92100000D03*
X110798870Y-81048870D03*
X121950000Y-107390000D03*
X116480000Y-72180000D03*
X123850000Y-77890000D03*
X116424000Y-85570000D03*
%TO.N,Net-(D10-A)*%
X116630000Y-96160000D03*
X103200000Y-100320000D03*
X109680000Y-92500000D03*
X113070000Y-96160000D03*
%TO.N,Net-(D5-K)*%
X114700000Y-76120000D03*
X119088933Y-76621067D03*
%TO.N,Net-(D6-K)*%
X110790000Y-92140000D03*
X115730000Y-94449130D03*
%TO.N,Net-(Q1-G)*%
X117110000Y-121510000D03*
X113340000Y-127670000D03*
%TO.N,Net-(Q2-G)*%
X116700000Y-108160000D03*
X116000000Y-104240000D03*
%TO.N,Net-(R1-Pad1)*%
X118581260Y-75286740D03*
X115550000Y-68940000D03*
X116631529Y-82248471D03*
%TO.N,Net-(R20-Pad1)*%
X112160000Y-93650000D03*
X111820000Y-81810000D03*
%TO.N,Net-(R18-Pad1)*%
X115400000Y-99570000D03*
D17*
X117668190Y-108888058D03*
D16*
%TO.N,Net-(R19-Pad1)*%
X115440000Y-114360000D03*
X114620000Y-124280000D03*
%TO.N,Net-(D11-A)*%
X103130000Y-115490000D03*
X109330000Y-105390000D03*
%TO.N,Net-(D10-K)*%
X117831130Y-118808870D03*
X110510000Y-100860000D03*
X110270000Y-86070000D03*
D18*
X119060122Y-80461429D03*
X115950000Y-79890000D03*
D16*
X110470000Y-115730000D03*
X110856624Y-85356624D03*
X109495236Y-115748011D03*
X109610000Y-101180000D03*
X116400000Y-116340000D03*
X110370000Y-104620000D03*
%TO.N,Net-(D1-K)*%
X119426265Y-73900000D03*
D19*
X118205033Y-78906000D03*
D16*
%TO.N,Net-(D1-A)*%
X110020000Y-77600000D03*
X103270000Y-85720000D03*
%TO.N,Net-(D12-K)*%
X110345000Y-123915000D03*
%TD*%
D20*
%TO.N,Net-(J306-Pin_1)*%
X116101130Y-92741130D02*
X116101130Y-91458870D01*
X116101130Y-91458870D02*
X119990000Y-87570000D01*
X119990000Y-87570000D02*
X128220000Y-87570000D01*
X123190000Y-87570000D02*
X128220000Y-87570000D01*
D21*
X123120000Y-87640000D02*
X123190000Y-87570000D01*
%TO.N,Net-(J302-Pin_1)*%
X122080000Y-118210000D02*
X122220000Y-118070000D01*
X122220000Y-118070000D02*
X128220000Y-118070000D01*
X121907629Y-118210000D02*
X122080000Y-118210000D01*
X118960000Y-123960000D02*
X118960000Y-121157629D01*
X115360000Y-127560000D02*
X118960000Y-123960000D01*
X118960000Y-121157629D02*
X121907629Y-118210000D01*
%TO.N,Net-(J304-Pin_1)*%
X128220000Y-72350000D02*
X123790000Y-72350000D01*
X113114000Y-77620000D02*
X115080000Y-77620000D01*
X115080000Y-77620000D02*
X117220000Y-79760000D01*
X119340000Y-79420000D02*
X119340000Y-78579003D01*
X122057629Y-72340000D02*
X123780000Y-72340000D01*
X119000000Y-79760000D02*
X119340000Y-79420000D01*
X123790000Y-72350000D02*
X123780000Y-72340000D01*
X120650933Y-75974065D02*
X120240000Y-75563130D01*
X120650933Y-77268070D02*
X120650933Y-75974065D01*
X120240000Y-74157629D02*
X122057629Y-72340000D01*
X120240000Y-75563130D02*
X120240000Y-74157629D01*
X119340000Y-78579003D02*
X120650933Y-77268070D01*
X128180000Y-72390000D02*
X128220000Y-72350000D01*
X117220000Y-79760000D02*
X119000000Y-79760000D01*
D22*
%TO.N,Net-(J201-Pin_1)*%
X84805250Y-117874220D02*
X74278395Y-117874220D01*
X79471250Y-117874224D02*
X80868250Y-117874224D01*
X92298250Y-117874224D02*
X92425250Y-117747224D01*
X74278395Y-117874220D02*
X74278391Y-117874224D01*
X82265250Y-117874224D02*
X92298250Y-117874224D01*
X80868250Y-117874224D02*
X82265250Y-117874224D01*
X84805250Y-115334224D02*
X84805250Y-117874220D01*
X74278391Y-117874224D02*
X79471250Y-117874224D01*
%TO.N,Net-(J202-Pin_1)*%
X80868250Y-112794224D02*
X79471250Y-112794224D01*
X79471250Y-112794224D02*
X79514250Y-112837224D01*
X94578250Y-111861750D02*
X94578250Y-106087224D01*
X93602776Y-112837224D02*
X94578250Y-111861750D01*
X94578250Y-106087224D02*
X93748250Y-105257224D01*
X82392250Y-112794224D02*
X80868250Y-112794224D01*
X79514250Y-112837224D02*
X93602776Y-112837224D01*
X79471250Y-112794224D02*
X74279942Y-112794224D01*
X74279942Y-112794224D02*
X74271976Y-112802190D01*
X93748250Y-105257224D02*
X85278250Y-105257224D01*
D23*
%TO.N,Net-(J203-Pin_1)*%
X88160000Y-124380000D02*
X88160000Y-125970000D01*
X93620000Y-120870000D02*
X91670000Y-120870000D01*
X91670000Y-120870000D02*
X88160000Y-124380000D01*
D22*
X79471250Y-107714224D02*
X74289842Y-107714224D01*
D23*
X90421926Y-115490000D02*
X93640000Y-115490000D01*
X94770000Y-116620000D02*
X94770000Y-119720000D01*
D22*
X81249250Y-107714224D02*
X79471250Y-107714224D01*
X92425250Y-107587224D02*
X92298250Y-107714224D01*
D23*
X89758150Y-114826224D02*
X90421926Y-115490000D01*
D22*
X92298250Y-107714224D02*
X82773250Y-107714224D01*
D23*
X94770000Y-119720000D02*
X93620000Y-120870000D01*
D22*
X82773250Y-107714224D02*
X81249250Y-107714224D01*
X74289842Y-107714224D02*
X74280369Y-107723697D01*
D23*
X93640000Y-115490000D02*
X94770000Y-116620000D01*
%TO.N,Net-(J204-Pin_1)*%
X92230000Y-123420000D02*
X95080000Y-123420000D01*
X95080000Y-123420000D02*
X97025000Y-121475000D01*
D22*
X92425250Y-102507224D02*
X92298250Y-102634224D01*
D23*
X97025000Y-121475000D02*
X97025000Y-105728116D01*
X97025000Y-105728116D02*
X93804108Y-102507224D01*
D22*
X82773250Y-102634224D02*
X81249250Y-102634224D01*
D23*
X90660000Y-124990000D02*
X92230000Y-123420000D01*
D22*
X81249250Y-102634224D02*
X79598250Y-102634224D01*
X74283060Y-102634224D02*
X74271976Y-102645308D01*
X92298250Y-102634224D02*
X82773250Y-102634224D01*
D23*
X93804108Y-102507224D02*
X92425250Y-102507224D01*
D22*
X79598250Y-102634224D02*
X74283060Y-102634224D01*
D23*
X90660000Y-125970000D02*
X90660000Y-124990000D01*
D22*
%TO.N,Net-(J205-Pin_1)*%
X98902250Y-102380000D02*
X96966652Y-100444402D01*
X92298250Y-97554224D02*
X83027250Y-97554224D01*
X83027250Y-97554224D02*
X81503250Y-97554224D01*
X81503250Y-97554224D02*
X79852250Y-97554224D01*
X79852250Y-97554224D02*
X74199025Y-97554224D01*
X96966652Y-100444402D02*
X95679002Y-100444402D01*
X74199025Y-97554224D02*
X74168250Y-97584999D01*
X92425250Y-97427224D02*
X92298250Y-97554224D01*
X98902250Y-105440000D02*
X98902250Y-102380000D01*
%TO.N,Net-(J206-Pin_1)*%
X79845556Y-92480918D02*
X79852250Y-92474224D01*
X74272660Y-92480918D02*
X79845556Y-92480918D01*
X81630248Y-92474224D02*
X79852250Y-92474224D01*
X92425250Y-92347224D02*
X92298250Y-92474224D01*
X74273749Y-92482007D02*
X78836250Y-92482007D01*
X74272660Y-92480918D02*
X74273749Y-92482007D01*
X83281250Y-92474224D02*
X81630248Y-92474224D01*
X92298250Y-92474224D02*
X83281250Y-92474224D01*
%TO.N,Net-(J207-Pin_1)*%
X74287737Y-87394224D02*
X83027250Y-87394224D01*
X79852250Y-87394224D02*
X79861592Y-87403566D01*
X74271976Y-87409985D02*
X74287737Y-87394224D01*
X81366908Y-87403566D02*
X81376250Y-87394224D01*
X92298250Y-87394224D02*
X92425250Y-87267224D01*
X83027250Y-87394224D02*
X92298250Y-87394224D01*
X84805250Y-87394224D02*
X81376250Y-87394224D01*
X79861592Y-87403566D02*
X81366908Y-87403566D01*
X84805250Y-84981224D02*
X84805250Y-87394224D01*
%TO.N,Net-(J208-Pin_1)*%
X74278395Y-82325125D02*
X74289296Y-82314224D01*
X81503250Y-82314224D02*
X83281250Y-82314224D01*
X79725250Y-82314224D02*
X81503250Y-82314224D01*
X83281250Y-82314224D02*
X92298250Y-82314224D01*
X74289296Y-82314224D02*
X79725250Y-82314224D01*
X92298250Y-82314224D02*
X92425250Y-82187224D01*
X84805250Y-79824224D02*
X84805250Y-82314224D01*
X84794349Y-82325125D02*
X74278395Y-82325125D01*
X84805250Y-82314224D02*
X84794349Y-82325125D01*
%TO.N,M*%
X91282250Y-100221224D02*
X93578776Y-100221224D01*
X91282250Y-100221224D02*
X92425250Y-100221224D01*
X84805250Y-110254224D02*
X90012252Y-110254224D01*
X79344250Y-76980224D02*
X74564650Y-76980224D01*
X94135026Y-77420000D02*
X96616250Y-79901224D01*
X94076250Y-90061224D02*
X84805250Y-90061224D01*
X82773250Y-76980224D02*
X80995250Y-76980224D01*
X82773250Y-76980224D02*
X92298250Y-76980224D01*
X96616250Y-79901224D02*
X96616250Y-87521224D01*
X74564650Y-76980224D02*
X74293347Y-77251527D01*
X93578776Y-100221224D02*
X96489250Y-97310750D01*
X85313250Y-77107224D02*
X92425250Y-77107224D01*
X80995250Y-76980224D02*
X79344250Y-76980224D01*
X84805250Y-74744224D02*
X84805250Y-76599224D01*
X91028250Y-110254224D02*
X90012252Y-110254224D01*
X92425250Y-100221224D02*
X92795250Y-100221224D01*
X96616250Y-87521224D02*
X94076250Y-90061224D01*
X92298250Y-76980224D02*
X92425250Y-77107224D01*
X84805250Y-76599224D02*
X85313250Y-77107224D01*
X96489250Y-97310750D02*
X96489250Y-92474224D01*
X92640000Y-77420000D02*
X94135026Y-77420000D01*
X84805250Y-100221224D02*
X91282250Y-100221224D01*
X96489250Y-92474224D02*
X94076250Y-90061224D01*
%TO.N,Net-(J210-Pin_1)*%
X92298250Y-72154224D02*
X74289963Y-72154224D01*
X74289963Y-72154224D02*
X74268986Y-72175201D01*
X92425250Y-72027224D02*
X92298250Y-72154224D01*
D24*
%TO.N,Net-(J314-Pin_1)*%
X119270000Y-109940227D02*
X119270000Y-105390740D01*
D20*
X123470000Y-102800000D02*
X128230000Y-102800000D01*
D24*
X117320227Y-111890000D02*
X119270000Y-109940227D01*
X119270000Y-105390740D02*
X121370740Y-103290000D01*
X121370740Y-103290000D02*
X122980000Y-103290000D01*
D20*
X122980000Y-103290000D02*
X123470000Y-102800000D01*
D24*
X116760000Y-111890000D02*
X117320227Y-111890000D01*
D25*
%TO.N,GNDPWR*%
X123958510Y-123130000D02*
X123460000Y-123628510D01*
X124330000Y-77410000D02*
X123850000Y-77890000D01*
X128230000Y-92650000D02*
X123848510Y-92650000D01*
D26*
X119790000Y-94746888D02*
X121186888Y-93350000D01*
D21*
X120400400Y-82109600D02*
X120400400Y-78939600D01*
X119990000Y-82520000D02*
X120400400Y-82109600D01*
D26*
X119790000Y-96750000D02*
X119790000Y-94746888D01*
X118760000Y-97780000D02*
X119790000Y-96750000D01*
D25*
X128220000Y-107900000D02*
X123838510Y-107900000D01*
X128220000Y-107900000D02*
X122418510Y-107900000D01*
D26*
X113041000Y-81289656D02*
X112466344Y-80715000D01*
D25*
X128220000Y-123130000D02*
X123987490Y-123130000D01*
D21*
X113190000Y-88510000D02*
X113190000Y-90150000D01*
D25*
X128230000Y-92650000D02*
X123867490Y-92650000D01*
D26*
X112466344Y-80715000D02*
X111132740Y-80715000D01*
D25*
X122228510Y-92650000D02*
X121730000Y-93148510D01*
D20*
X115150000Y-112040000D02*
X114580000Y-111470000D01*
D25*
X122418510Y-107900000D02*
X121930000Y-108388510D01*
D20*
X114580000Y-111470000D02*
X110760000Y-111470000D01*
D25*
X123740000Y-107900000D02*
X123330000Y-107490000D01*
X128240000Y-77410000D02*
X124397490Y-77410000D01*
D21*
X121380000Y-77960000D02*
X122960000Y-77960000D01*
D25*
X123987490Y-123130000D02*
X123470000Y-122612510D01*
X131050278Y-93148510D02*
X131227243Y-93143556D01*
X128240000Y-77410000D02*
X123447490Y-77410000D01*
X124748510Y-123130000D02*
X124250000Y-123628510D01*
X128230000Y-92650000D02*
X122228510Y-92650000D01*
D21*
X108500000Y-85840000D02*
X109122261Y-85840000D01*
D26*
X115950000Y-97780000D02*
X118760000Y-97780000D01*
D21*
X112140000Y-87460000D02*
X113190000Y-88510000D01*
D25*
X128240000Y-77410000D02*
X123458510Y-77410000D01*
X123848510Y-92650000D02*
X123350000Y-93148510D01*
X127702510Y-122612510D02*
X124260000Y-122612510D01*
X123447490Y-77410000D02*
X122930000Y-76892510D01*
D26*
X116424000Y-84783132D02*
X113041000Y-81400132D01*
X111132740Y-80715000D02*
X110798870Y-81048870D01*
D25*
X123867490Y-92650000D02*
X123350000Y-92132510D01*
D26*
X121186888Y-93350000D02*
X121680000Y-93350000D01*
D20*
X103190000Y-133540000D02*
X103180000Y-133530000D01*
D25*
X122185698Y-92650000D02*
X121678794Y-92143096D01*
X128220000Y-107900000D02*
X123740000Y-107900000D01*
D21*
X113190000Y-90150000D02*
X112140000Y-91200000D01*
D26*
X113041000Y-81400132D02*
X113041000Y-81289656D01*
D25*
X128220000Y-107900000D02*
X122460000Y-107900000D01*
X128230000Y-92650000D02*
X122185698Y-92650000D01*
X123838510Y-107900000D02*
X123350000Y-108388510D01*
X121730000Y-93148510D02*
X131050278Y-93148510D01*
X124397490Y-77410000D02*
X123880000Y-76892510D01*
D21*
X112140000Y-91200000D02*
X111210000Y-91200000D01*
D25*
X123458510Y-77410000D02*
X122960000Y-77908510D01*
X128220000Y-123130000D02*
X127702510Y-122612510D01*
D26*
X116424000Y-85570000D02*
X116424000Y-84783132D01*
D25*
X122460000Y-107900000D02*
X121950000Y-107390000D01*
X128220000Y-123130000D02*
X124748510Y-123130000D01*
X128240000Y-77410000D02*
X124330000Y-77410000D01*
X128220000Y-123130000D02*
X123958510Y-123130000D01*
D21*
X120400400Y-78939600D02*
X121380000Y-77960000D01*
%TO.N,Net-(D10-A)*%
X103200000Y-112220000D02*
X103984000Y-113004000D01*
X108940000Y-91760000D02*
X108940000Y-90440000D01*
X112789700Y-129429700D02*
X114120000Y-130760000D01*
X103970000Y-127160000D02*
X105230000Y-128420000D01*
X103984000Y-113004000D02*
X103984000Y-115843739D01*
X108940000Y-90440000D02*
X107500000Y-89000000D01*
X109680000Y-92500000D02*
X108940000Y-91760000D01*
X103200000Y-100320000D02*
X103200000Y-112220000D01*
X105230000Y-128420000D02*
X110640474Y-128420000D01*
X103970000Y-115857739D02*
X103970000Y-127160000D01*
X103984000Y-115843739D02*
X103970000Y-115857739D01*
X113070000Y-96160000D02*
X116630000Y-96160000D01*
X110640474Y-128420000D02*
X111650174Y-129429700D01*
X111650174Y-129429700D02*
X112789700Y-129429700D01*
%TO.N,Net-(D5-K)*%
X114700000Y-76120000D02*
X115220000Y-76640000D01*
X115220000Y-76640000D02*
X119070000Y-76640000D01*
X119070000Y-76640000D02*
X119088933Y-76621067D01*
%TO.N,Net-(D6-K)*%
X110790000Y-93660000D02*
X110790000Y-92140000D01*
X115730000Y-94449130D02*
X115675130Y-94504000D01*
X111634000Y-94504000D02*
X110790000Y-93660000D01*
X115675130Y-94504000D02*
X111634000Y-94504000D01*
%TO.N,Net-(Q1-G)*%
X113340000Y-127670000D02*
X117110000Y-123900000D01*
X117110000Y-123900000D02*
X117110000Y-121510000D01*
%TO.N,Net-(Q2-G)*%
X116700000Y-108160000D02*
X116684866Y-108144866D01*
X116684866Y-108144866D02*
X116684866Y-104924866D01*
X116684866Y-104924866D02*
X116000000Y-104240000D01*
%TO.N,Net-(R1-Pad1)*%
X116380000Y-74300000D02*
X115550000Y-73470000D01*
X112892000Y-79172000D02*
X112260000Y-78540000D01*
X116631529Y-81949398D02*
X113854131Y-79172000D01*
X115550000Y-73470000D02*
X115550000Y-71870000D01*
X112260000Y-76760000D02*
X115550000Y-73470000D01*
X113854131Y-79172000D02*
X112892000Y-79172000D01*
X116631529Y-82248471D02*
X116631529Y-81949398D01*
X117594520Y-74300000D02*
X116380000Y-74300000D01*
X118581260Y-75286740D02*
X117594520Y-74300000D01*
X115550000Y-71870000D02*
X115550000Y-68940000D01*
X112260000Y-78540000D02*
X112260000Y-76760000D01*
%TO.N,Net-(R20-Pad1)*%
X112160000Y-92210000D02*
X112160000Y-93650000D01*
X115200000Y-85190000D02*
X115200000Y-89170000D01*
X111820000Y-81810000D02*
X115200000Y-85190000D01*
X115200000Y-89170000D02*
X112160000Y-92210000D01*
%TO.N,Net-(R18-Pad1)*%
X117554000Y-108773868D02*
X117554000Y-101724000D01*
X117674430Y-108944136D02*
X117674430Y-108894298D01*
X117554000Y-101724000D02*
X115400000Y-99570000D01*
X117674430Y-108894298D02*
X117554000Y-108773868D01*
%TO.N,Net-(R19-Pad1)*%
X114760000Y-122820000D02*
X114760000Y-115040000D01*
X114760000Y-115040000D02*
X115440000Y-114360000D01*
X114620000Y-122960000D02*
X114760000Y-122820000D01*
X114620000Y-124280000D02*
X114620000Y-122960000D01*
%TO.N,Net-(D11-A)*%
X104640000Y-129340000D02*
X110200000Y-129340000D01*
X107500000Y-104050000D02*
X107500000Y-104000000D01*
X103130000Y-115490000D02*
X103130000Y-127830000D01*
X110200000Y-129340000D02*
X111620000Y-130760000D01*
X103130000Y-127830000D02*
X104640000Y-129340000D01*
X108840000Y-105390000D02*
X107500000Y-104050000D01*
X109330000Y-105390000D02*
X108840000Y-105390000D01*
D25*
%TO.N,Net-(D10-K)*%
X105140000Y-83330000D02*
X105140000Y-71360000D01*
D21*
X117253739Y-83304000D02*
X116479319Y-83304000D01*
X115950000Y-80221127D02*
X118143306Y-82414433D01*
D25*
X105310000Y-111490316D02*
X105310000Y-101100000D01*
X110510000Y-100860000D02*
X110220000Y-101150000D01*
D20*
X110270000Y-86142537D02*
X109159037Y-87253500D01*
D25*
X105310000Y-99480316D02*
X105310000Y-101100000D01*
D21*
X113055319Y-79880000D02*
X110760000Y-79880000D01*
X110760000Y-79880000D02*
X109239931Y-81400069D01*
X115950000Y-79890000D02*
X115950000Y-80221127D01*
X117888870Y-118808870D02*
X118170000Y-119090000D01*
D25*
X110220000Y-101150000D02*
X108524000Y-101150000D01*
D27*
X119060122Y-80461429D02*
X119060122Y-81497617D01*
D21*
X117831130Y-118808870D02*
X117831130Y-118751130D01*
X110370000Y-104620000D02*
X110370000Y-101000000D01*
D25*
X110340000Y-115490000D02*
X109309684Y-115490000D01*
D21*
X116479319Y-83304000D02*
X113055319Y-79880000D01*
X109239931Y-81400069D02*
X109239931Y-81962542D01*
D25*
X105140000Y-85776159D02*
X104486000Y-86430159D01*
X104486000Y-86430159D02*
X104486000Y-98656316D01*
D20*
X110856624Y-85555913D02*
X110342537Y-86070000D01*
X110270000Y-86070000D02*
X110270000Y-86142537D01*
D25*
X108524000Y-101150000D02*
X108474000Y-101100000D01*
D21*
X109239931Y-81962542D02*
X110856624Y-83579235D01*
D25*
X105140000Y-71360000D02*
X107500000Y-69000000D01*
D21*
X117831130Y-118751130D02*
X116440000Y-117360000D01*
D20*
X106833500Y-87253500D02*
X105140000Y-85560000D01*
D25*
X104486000Y-98656316D02*
X105310000Y-99480316D01*
X109309684Y-115490000D02*
X105310000Y-111490316D01*
D20*
X110856624Y-85356624D02*
X110856624Y-85555913D01*
D21*
X118143306Y-82414433D02*
X117253739Y-83304000D01*
D25*
X105140000Y-83330000D02*
X105140000Y-85776159D01*
D21*
X110370000Y-101000000D02*
X110510000Y-100860000D01*
D25*
X108474000Y-101100000D02*
X105310000Y-101100000D01*
D20*
X105140000Y-85560000D02*
X105140000Y-83330000D01*
D21*
X116440000Y-117360000D02*
X116440000Y-116378737D01*
D20*
X110342537Y-86070000D02*
X110270000Y-86070000D01*
D27*
X119060122Y-81497617D02*
X118143306Y-82414433D01*
D21*
X117831130Y-118808870D02*
X117888870Y-118808870D01*
D20*
X109159037Y-87253500D02*
X106833500Y-87253500D01*
D21*
X110856624Y-83579235D02*
X110856624Y-85356624D01*
%TO.N,Net-(D1-K)*%
X119442672Y-77475067D02*
X119942933Y-76974806D01*
X119942933Y-76267328D02*
X119532000Y-75856395D01*
X119274933Y-77475067D02*
X119442672Y-77475067D01*
X119532000Y-75856395D02*
X119532000Y-75029740D01*
X118205033Y-78544967D02*
X119274933Y-77475067D01*
X119532000Y-75029740D02*
X119426265Y-74924005D01*
X119942933Y-76974806D02*
X119942933Y-76267328D01*
X118205033Y-78906000D02*
X118205033Y-78544967D01*
X119426265Y-74924005D02*
X119426265Y-73900000D01*
%TO.N,Net-(D1-A)*%
X111150000Y-127640000D02*
X112040000Y-128530000D01*
X103270000Y-85720000D02*
X103270000Y-99160000D01*
X104054000Y-99944000D02*
X104054000Y-111954000D01*
X110020000Y-77600000D02*
X110020000Y-76600000D01*
X110020000Y-76600000D02*
X107500000Y-74080000D01*
X104748000Y-112648000D02*
X104748000Y-126568000D01*
X113920000Y-128530000D02*
X116150000Y-130760000D01*
X105820000Y-127640000D02*
X111150000Y-127640000D01*
X104054000Y-111954000D02*
X104748000Y-112648000D01*
X104748000Y-126568000D02*
X105820000Y-127640000D01*
X112040000Y-128530000D02*
X113920000Y-128530000D01*
X116150000Y-130760000D02*
X116620000Y-130760000D01*
X103270000Y-99160000D02*
X104054000Y-99944000D01*
%TO.N,Net-(D12-K)*%
X110345000Y-123915000D02*
X110345000Y-122245000D01*
X110345000Y-122245000D02*
X107500000Y-119400000D01*
%TD*%
%TA.AperFunction,Conductor*%
%TO.N,GNDPWR*%
G36*
X120658834Y-120628333D02*
G01*
X120714767Y-120670205D01*
X120739184Y-120735669D01*
X120739500Y-120744515D01*
X120739500Y-121049137D01*
X120739489Y-121049174D01*
X120739490Y-121174429D01*
X120768332Y-121319419D01*
X120768335Y-121319429D01*
X120824906Y-121455998D01*
X120824908Y-121456002D01*
X120824910Y-121456006D01*
X120824913Y-121456010D01*
X120824915Y-121456014D01*
X120868683Y-121521515D01*
X120907045Y-121578926D01*
X121011581Y-121683462D01*
X121134503Y-121765594D01*
X121134509Y-121765596D01*
X121134510Y-121765597D01*
X121200566Y-121792958D01*
X121271086Y-121822168D01*
X121271090Y-121822168D01*
X121271091Y-121822169D01*
X121416079Y-121851010D01*
X121416082Y-121851010D01*
X121489901Y-121851010D01*
X124123704Y-121851010D01*
X124190743Y-121870695D01*
X124236498Y-121923499D01*
X124246442Y-121992657D01*
X124230005Y-122035174D01*
X124231489Y-122035985D01*
X124228655Y-122041173D01*
X124148030Y-122229449D01*
X124148028Y-122229456D01*
X124104491Y-122429589D01*
X124101750Y-122475621D01*
X124101750Y-123784378D01*
X124104491Y-123830410D01*
X124148028Y-124030543D01*
X124148030Y-124030550D01*
X124227958Y-124217197D01*
X124236253Y-124286573D01*
X124205724Y-124349420D01*
X124146064Y-124385785D01*
X124113970Y-124390010D01*
X121541372Y-124390010D01*
X121541338Y-124390000D01*
X121490000Y-124390000D01*
X121416082Y-124390000D01*
X121416080Y-124390000D01*
X121271091Y-124418840D01*
X121271085Y-124418842D01*
X121134506Y-124475414D01*
X121011582Y-124557551D01*
X120907040Y-124662094D01*
X120824918Y-124785002D01*
X120824911Y-124785014D01*
X120768341Y-124921588D01*
X120768340Y-124921592D01*
X120768339Y-124921595D01*
X120739985Y-125064148D01*
X120739499Y-125066593D01*
X120739500Y-125140510D01*
X120739500Y-133634413D01*
X120738903Y-133646571D01*
X120736095Y-133675073D01*
X120735913Y-133676793D01*
X120723876Y-133783665D01*
X120719315Y-133805784D01*
X120704090Y-133855972D01*
X120702471Y-133860930D01*
X120676325Y-133935650D01*
X120668641Y-133953151D01*
X120641544Y-134003843D01*
X120637181Y-134011359D01*
X120597643Y-134074284D01*
X120588501Y-134086978D01*
X120551060Y-134132599D01*
X120542888Y-134141615D01*
X120491105Y-134193397D01*
X120482089Y-134201569D01*
X120436470Y-134239007D01*
X120423779Y-134248146D01*
X120360853Y-134287686D01*
X120353331Y-134292052D01*
X120302641Y-134319145D01*
X120285144Y-134326828D01*
X120210411Y-134352978D01*
X120205453Y-134354596D01*
X120155267Y-134369820D01*
X120133154Y-134374380D01*
X120026862Y-134386356D01*
X120025136Y-134386539D01*
X120006960Y-134388329D01*
X119995957Y-134389413D01*
X119983806Y-134390010D01*
X102996093Y-134390010D01*
X102983939Y-134389413D01*
X102978122Y-134388840D01*
X102955737Y-134386635D01*
X102954001Y-134386451D01*
X102846736Y-134374358D01*
X102824633Y-134369800D01*
X102774997Y-134354743D01*
X102770040Y-134353124D01*
X102694734Y-134326775D01*
X102677235Y-134319092D01*
X102626917Y-134292196D01*
X102619400Y-134287833D01*
X102556093Y-134248055D01*
X102543399Y-134238914D01*
X102498051Y-134201698D01*
X102489035Y-134193526D01*
X102436977Y-134141468D01*
X102428807Y-134132454D01*
X102416429Y-134117372D01*
X102391583Y-134087097D01*
X102382457Y-134074427D01*
X102342666Y-134011101D01*
X102338321Y-134003616D01*
X102311405Y-133953261D01*
X102303727Y-133935774D01*
X102277365Y-133860438D01*
X102275773Y-133855560D01*
X102260701Y-133805878D01*
X102256144Y-133783780D01*
X102243984Y-133675867D01*
X102243810Y-133674218D01*
X102241097Y-133646669D01*
X102240500Y-133634516D01*
X102240500Y-129114795D01*
X102240500Y-129114793D01*
X102206429Y-128932530D01*
X102139448Y-128759631D01*
X102059024Y-128629743D01*
X102040469Y-128562383D01*
X102061278Y-128495684D01*
X102114843Y-128450822D01*
X102146803Y-128441728D01*
X102192457Y-128435165D01*
X102323373Y-128375377D01*
X102323375Y-128375374D01*
X102323377Y-128375374D01*
X102359413Y-128344148D01*
X102387310Y-128319975D01*
X102450864Y-128290950D01*
X102520023Y-128300893D01*
X102553603Y-128323491D01*
X102602974Y-128370070D01*
X102605525Y-128372549D01*
X104061234Y-129828258D01*
X104073016Y-129841891D01*
X104087461Y-129861294D01*
X104125634Y-129893325D01*
X104133609Y-129900633D01*
X104137557Y-129904581D01*
X104137565Y-129904588D01*
X104162008Y-129923917D01*
X104164800Y-129926191D01*
X104222569Y-129974664D01*
X104222573Y-129974667D01*
X104222575Y-129974668D01*
X104228607Y-129978635D01*
X104228576Y-129978680D01*
X104235038Y-129982797D01*
X104235067Y-129982751D01*
X104241203Y-129986536D01*
X104241205Y-129986537D01*
X104241208Y-129986539D01*
X104309597Y-130018429D01*
X104312779Y-130019969D01*
X104380189Y-130053824D01*
X104380194Y-130053825D01*
X104386979Y-130056295D01*
X104386960Y-130056347D01*
X104394188Y-130058859D01*
X104394206Y-130058808D01*
X104401056Y-130061078D01*
X104401059Y-130061078D01*
X104401060Y-130061079D01*
X104474993Y-130076344D01*
X104478354Y-130077089D01*
X104551812Y-130094500D01*
X104551818Y-130094500D01*
X104558985Y-130095338D01*
X104558978Y-130095391D01*
X104566595Y-130096169D01*
X104566600Y-130096116D01*
X104573789Y-130096745D01*
X104573792Y-130096744D01*
X104573793Y-130096745D01*
X104633067Y-130095020D01*
X104649161Y-130094552D01*
X104652767Y-130094500D01*
X107856685Y-130094500D01*
X107923724Y-130114185D01*
X107969479Y-130166989D01*
X107979423Y-130236147D01*
X107969067Y-130270905D01*
X107941087Y-130330908D01*
X107941083Y-130330917D01*
X107884487Y-130542140D01*
X107884485Y-130542150D01*
X107865426Y-130759999D01*
X107865426Y-130760000D01*
X107884485Y-130977849D01*
X107884487Y-130977859D01*
X107941083Y-131189082D01*
X107941085Y-131189086D01*
X107941086Y-131189090D01*
X107948998Y-131206057D01*
X108033506Y-131387286D01*
X108033507Y-131387287D01*
X108158941Y-131566425D01*
X108313575Y-131721059D01*
X108492713Y-131846493D01*
X108690910Y-131938914D01*
X108902146Y-131995514D01*
X109076429Y-132010762D01*
X109119999Y-132014574D01*
X109120000Y-132014574D01*
X109120001Y-132014574D01*
X109156309Y-132011397D01*
X109337854Y-131995514D01*
X109549090Y-131938914D01*
X109747287Y-131846493D01*
X109926425Y-131721059D01*
X110081059Y-131566425D01*
X110206493Y-131387287D01*
X110257618Y-131277648D01*
X110303790Y-131225209D01*
X110370984Y-131206057D01*
X110437865Y-131226273D01*
X110482381Y-131277648D01*
X110533507Y-131387287D01*
X110658941Y-131566425D01*
X110813575Y-131721059D01*
X110992713Y-131846493D01*
X111190910Y-131938914D01*
X111402146Y-131995514D01*
X111576429Y-132010762D01*
X111619999Y-132014574D01*
X111620000Y-132014574D01*
X111620001Y-132014574D01*
X111656309Y-132011397D01*
X111837854Y-131995514D01*
X112049090Y-131938914D01*
X112247287Y-131846493D01*
X112426425Y-131721059D01*
X112581059Y-131566425D01*
X112706493Y-131387287D01*
X112757618Y-131277648D01*
X112803790Y-131225209D01*
X112870984Y-131206057D01*
X112937865Y-131226273D01*
X112982381Y-131277648D01*
X113033507Y-131387287D01*
X113158941Y-131566425D01*
X113313575Y-131721059D01*
X113492713Y-131846493D01*
X113690910Y-131938914D01*
X113902146Y-131995514D01*
X114076429Y-132010762D01*
X114119999Y-132014574D01*
X114120000Y-132014574D01*
X114120001Y-132014574D01*
X114156309Y-132011397D01*
X114337854Y-131995514D01*
X114549090Y-131938914D01*
X114747287Y-131846493D01*
X114926425Y-131721059D01*
X115081059Y-131566425D01*
X115206493Y-131387287D01*
X115257618Y-131277648D01*
X115303790Y-131225209D01*
X115370984Y-131206057D01*
X115437865Y-131226273D01*
X115482381Y-131277648D01*
X115533507Y-131387287D01*
X115658941Y-131566425D01*
X115813575Y-131721059D01*
X115992713Y-131846493D01*
X116190910Y-131938914D01*
X116402146Y-131995514D01*
X116576429Y-132010762D01*
X116619999Y-132014574D01*
X116620000Y-132014574D01*
X116620001Y-132014574D01*
X116656309Y-132011397D01*
X116837854Y-131995514D01*
X117049090Y-131938914D01*
X117247287Y-131846493D01*
X117426425Y-131721059D01*
X117581059Y-131566425D01*
X117706493Y-131387287D01*
X117798914Y-131189090D01*
X117855514Y-130977854D01*
X117874574Y-130760000D01*
X117855514Y-130542146D01*
X117798914Y-130330910D01*
X117706493Y-130132713D01*
X117581059Y-129953575D01*
X117426425Y-129798941D01*
X117265013Y-129685919D01*
X117247286Y-129673506D01*
X117074607Y-129592985D01*
X117049090Y-129581086D01*
X117049086Y-129581085D01*
X117049082Y-129581083D01*
X116837859Y-129524487D01*
X116837849Y-129524485D01*
X116620001Y-129505426D01*
X116619999Y-129505426D01*
X116402150Y-129524485D01*
X116402140Y-129524487D01*
X116190909Y-129581085D01*
X116165391Y-129592985D01*
X116096314Y-129603476D01*
X116032530Y-129574955D01*
X116025307Y-129568283D01*
X115119639Y-128662615D01*
X115086154Y-128601292D01*
X115091138Y-128531600D01*
X115133010Y-128475667D01*
X115198474Y-128451250D01*
X115233097Y-128453643D01*
X115265354Y-128460500D01*
X115265356Y-128460500D01*
X115454644Y-128460500D01*
X115454646Y-128460500D01*
X115639803Y-128421144D01*
X115812730Y-128344151D01*
X115965871Y-128232888D01*
X116092533Y-128092216D01*
X116187179Y-127928284D01*
X116239799Y-127766335D01*
X116270046Y-127716976D01*
X119448264Y-124538758D01*
X119461883Y-124526988D01*
X119481294Y-124512539D01*
X119513334Y-124474354D01*
X119520623Y-124466399D01*
X119524583Y-124462441D01*
X119543927Y-124437974D01*
X119546161Y-124435232D01*
X119594667Y-124377427D01*
X119594671Y-124377418D01*
X119598637Y-124371390D01*
X119598683Y-124371420D01*
X119602795Y-124364965D01*
X119602748Y-124364936D01*
X119606532Y-124358799D01*
X119606539Y-124358791D01*
X119628264Y-124312198D01*
X119638417Y-124290428D01*
X119639972Y-124287214D01*
X119673824Y-124219811D01*
X119673826Y-124219798D01*
X119676293Y-124213024D01*
X119676346Y-124213043D01*
X119678858Y-124205815D01*
X119678807Y-124205798D01*
X119681077Y-124198945D01*
X119681077Y-124198943D01*
X119681079Y-124198940D01*
X119696345Y-124125001D01*
X119697097Y-124121610D01*
X119714500Y-124048188D01*
X119714500Y-124048181D01*
X119715338Y-124041015D01*
X119715392Y-124041021D01*
X119716170Y-124033405D01*
X119716117Y-124033401D01*
X119716746Y-124026210D01*
X119714552Y-123950804D01*
X119714500Y-123947198D01*
X119714500Y-121521515D01*
X119734185Y-121454476D01*
X119750819Y-121433834D01*
X120527819Y-120656834D01*
X120589142Y-120623349D01*
X120658834Y-120628333D01*
G37*
%TD.AperFunction*%
%TA.AperFunction,Conductor*%
G36*
X105953703Y-87890186D02*
G01*
X105960181Y-87896218D01*
X105988181Y-87924218D01*
X106021666Y-87985541D01*
X106024500Y-88011899D01*
X106024500Y-90022870D01*
X106024501Y-90022876D01*
X106030908Y-90082483D01*
X106081202Y-90217328D01*
X106081206Y-90217335D01*
X106167452Y-90332544D01*
X106167455Y-90332547D01*
X106282664Y-90418793D01*
X106282671Y-90418797D01*
X106417517Y-90469091D01*
X106417516Y-90469091D01*
X106424444Y-90469835D01*
X106477127Y-90475500D01*
X107857113Y-90475499D01*
X107924152Y-90495184D01*
X107944794Y-90511818D01*
X108149181Y-90716205D01*
X108182666Y-90777528D01*
X108185500Y-90803886D01*
X108185500Y-91696000D01*
X108184191Y-91713969D01*
X108180684Y-91737908D01*
X108185028Y-91787545D01*
X108185500Y-91798354D01*
X108185500Y-91803946D01*
X108189116Y-91834885D01*
X108189482Y-91838470D01*
X108196056Y-91913610D01*
X108197516Y-91920677D01*
X108197464Y-91920687D01*
X108199123Y-91928167D01*
X108199174Y-91928155D01*
X108200840Y-91935185D01*
X108226621Y-92006020D01*
X108227804Y-92009423D01*
X108251533Y-92081029D01*
X108254586Y-92087575D01*
X108254536Y-92087598D01*
X108257876Y-92094497D01*
X108257925Y-92094473D01*
X108261167Y-92100930D01*
X108302613Y-92163946D01*
X108304550Y-92166986D01*
X108344131Y-92231156D01*
X108348611Y-92236822D01*
X108348569Y-92236855D01*
X108353401Y-92242786D01*
X108353443Y-92242752D01*
X108358088Y-92248288D01*
X108412938Y-92300036D01*
X108415525Y-92302549D01*
X108769951Y-92656975D01*
X108800201Y-92706338D01*
X108852818Y-92868277D01*
X108852821Y-92868284D01*
X108947467Y-93032216D01*
X109045179Y-93140736D01*
X109074129Y-93172888D01*
X109227265Y-93284148D01*
X109227270Y-93284151D01*
X109400192Y-93361142D01*
X109400197Y-93361144D01*
X109585354Y-93400500D01*
X109585355Y-93400500D01*
X109774644Y-93400500D01*
X109774646Y-93400500D01*
X109885721Y-93376890D01*
X109955386Y-93382206D01*
X110011119Y-93424343D01*
X110035225Y-93489922D01*
X110035500Y-93498180D01*
X110035500Y-93596000D01*
X110034191Y-93613969D01*
X110030684Y-93637908D01*
X110035028Y-93687545D01*
X110035500Y-93698354D01*
X110035500Y-93703946D01*
X110039116Y-93734885D01*
X110039482Y-93738470D01*
X110046056Y-93813610D01*
X110047516Y-93820677D01*
X110047464Y-93820687D01*
X110049123Y-93828167D01*
X110049174Y-93828155D01*
X110050840Y-93835185D01*
X110076621Y-93906020D01*
X110077804Y-93909423D01*
X110101533Y-93981029D01*
X110104586Y-93987575D01*
X110104536Y-93987598D01*
X110107876Y-93994497D01*
X110107925Y-93994473D01*
X110111167Y-94000930D01*
X110152613Y-94063946D01*
X110154550Y-94066986D01*
X110194131Y-94131156D01*
X110198611Y-94136822D01*
X110198569Y-94136855D01*
X110203401Y-94142786D01*
X110203443Y-94142752D01*
X110208088Y-94148288D01*
X110262938Y-94200036D01*
X110265525Y-94202549D01*
X111055234Y-94992258D01*
X111067015Y-95005890D01*
X111081461Y-95025294D01*
X111119638Y-95057328D01*
X111127614Y-95064638D01*
X111131554Y-95068579D01*
X111131558Y-95068582D01*
X111131559Y-95068583D01*
X111150924Y-95083895D01*
X111156010Y-95087916D01*
X111158807Y-95090195D01*
X111216572Y-95138667D01*
X111222609Y-95142637D01*
X111222579Y-95142682D01*
X111229038Y-95146796D01*
X111229067Y-95146750D01*
X111235207Y-95150537D01*
X111235209Y-95150539D01*
X111303557Y-95182410D01*
X111306775Y-95183968D01*
X111373894Y-95217676D01*
X111374189Y-95217824D01*
X111374191Y-95217824D01*
X111380979Y-95220295D01*
X111380960Y-95220347D01*
X111388188Y-95222859D01*
X111388206Y-95222808D01*
X111395055Y-95225077D01*
X111395056Y-95225077D01*
X111395060Y-95225079D01*
X111468972Y-95240339D01*
X111472419Y-95241104D01*
X111545812Y-95258500D01*
X111545813Y-95258500D01*
X111545817Y-95258501D01*
X111552985Y-95259339D01*
X111552978Y-95259392D01*
X111560594Y-95260170D01*
X111560599Y-95260117D01*
X111567788Y-95260746D01*
X111567792Y-95260745D01*
X111567793Y-95260746D01*
X111643179Y-95258551D01*
X111646786Y-95258500D01*
X112397154Y-95258500D01*
X112464193Y-95278185D01*
X112509948Y-95330989D01*
X112519892Y-95400147D01*
X112490867Y-95463703D01*
X112470039Y-95482818D01*
X112464129Y-95487111D01*
X112337466Y-95627785D01*
X112242821Y-95791715D01*
X112242818Y-95791722D01*
X112196427Y-95934500D01*
X112184326Y-95971744D01*
X112164540Y-96160000D01*
X112184326Y-96348256D01*
X112184327Y-96348259D01*
X112242818Y-96528277D01*
X112242821Y-96528284D01*
X112337467Y-96692216D01*
X112464129Y-96832888D01*
X112617265Y-96944148D01*
X112617270Y-96944151D01*
X112790192Y-97021142D01*
X112790197Y-97021144D01*
X112975354Y-97060500D01*
X112975355Y-97060500D01*
X113164644Y-97060500D01*
X113164646Y-97060500D01*
X113349803Y-97021144D01*
X113522730Y-96944151D01*
X113530944Y-96938182D01*
X113596750Y-96914702D01*
X113603831Y-96914500D01*
X116096169Y-96914500D01*
X116163208Y-96934185D01*
X116169056Y-96938183D01*
X116177269Y-96944150D01*
X116177270Y-96944151D01*
X116350192Y-97021142D01*
X116350197Y-97021144D01*
X116535354Y-97060500D01*
X116535355Y-97060500D01*
X116724644Y-97060500D01*
X116724646Y-97060500D01*
X116909803Y-97021144D01*
X117082730Y-96944151D01*
X117235871Y-96832888D01*
X117362533Y-96692216D01*
X117457179Y-96528284D01*
X117515674Y-96348256D01*
X117535460Y-96160000D01*
X117515674Y-95971744D01*
X117457179Y-95791716D01*
X117362533Y-95627784D01*
X117235871Y-95487112D01*
X117229961Y-95482818D01*
X117082734Y-95375851D01*
X117082729Y-95375848D01*
X116909807Y-95298857D01*
X116909802Y-95298855D01*
X116764001Y-95267865D01*
X116724646Y-95259500D01*
X116535354Y-95259500D01*
X116508857Y-95265131D01*
X116439191Y-95259814D01*
X116383458Y-95217676D01*
X116359354Y-95152096D01*
X116374532Y-95083895D01*
X116390926Y-95060872D01*
X116462533Y-94981346D01*
X116557179Y-94817414D01*
X116615674Y-94637386D01*
X116635460Y-94449130D01*
X116615674Y-94260874D01*
X116557179Y-94080846D01*
X116474158Y-93937049D01*
X116459284Y-93911286D01*
X116460555Y-93910551D01*
X116439630Y-93851896D01*
X116455458Y-93783843D01*
X116505566Y-93735150D01*
X116511886Y-93732042D01*
X116639568Y-93673732D01*
X116806334Y-93554979D01*
X116947612Y-93406811D01*
X117058296Y-93234583D01*
X117134385Y-93044521D01*
X117173130Y-92843494D01*
X117173130Y-91954269D01*
X117192815Y-91887230D01*
X117209449Y-91866588D01*
X120397718Y-88678319D01*
X120459041Y-88644834D01*
X120485399Y-88642000D01*
X121171199Y-88642000D01*
X121238238Y-88661685D01*
X121283993Y-88714489D01*
X121293937Y-88783647D01*
X121264912Y-88847203D01*
X121218651Y-88880561D01*
X121134508Y-88915413D01*
X121011582Y-88997551D01*
X120907040Y-89102094D01*
X120824918Y-89225002D01*
X120824911Y-89225014D01*
X120768341Y-89361588D01*
X120768340Y-89361592D01*
X120768339Y-89361595D01*
X120752764Y-89439901D01*
X120739499Y-89506593D01*
X120739500Y-89580510D01*
X120739500Y-90569137D01*
X120739489Y-90569174D01*
X120739490Y-90694429D01*
X120768332Y-90839419D01*
X120768335Y-90839429D01*
X120824906Y-90975998D01*
X120824908Y-90976002D01*
X120824910Y-90976006D01*
X120824913Y-90976010D01*
X120824915Y-90976014D01*
X120895915Y-91082270D01*
X120907045Y-91098926D01*
X121011581Y-91203462D01*
X121134503Y-91285594D01*
X121134509Y-91285596D01*
X121134510Y-91285597D01*
X121262771Y-91338724D01*
X121271086Y-91342168D01*
X121271090Y-91342168D01*
X121271091Y-91342169D01*
X121416079Y-91371010D01*
X121416082Y-91371010D01*
X121489901Y-91371010D01*
X124133704Y-91371010D01*
X124200743Y-91390695D01*
X124246498Y-91443499D01*
X124256442Y-91512657D01*
X124240005Y-91555174D01*
X124241489Y-91555985D01*
X124238655Y-91561173D01*
X124158030Y-91749449D01*
X124158028Y-91749456D01*
X124114491Y-91949589D01*
X124111750Y-91995621D01*
X124111750Y-93304378D01*
X124114491Y-93350410D01*
X124158028Y-93550543D01*
X124158030Y-93550550D01*
X124237958Y-93737197D01*
X124246253Y-93806573D01*
X124215724Y-93869420D01*
X124156064Y-93905785D01*
X124123970Y-93910010D01*
X121541372Y-93910010D01*
X121541338Y-93910000D01*
X121490000Y-93910000D01*
X121416082Y-93910000D01*
X121416080Y-93910000D01*
X121271091Y-93938840D01*
X121271085Y-93938842D01*
X121134506Y-93995414D01*
X121011582Y-94077551D01*
X120907040Y-94182094D01*
X120824918Y-94305002D01*
X120824911Y-94305014D01*
X120768341Y-94441588D01*
X120768340Y-94441592D01*
X120768339Y-94441595D01*
X120752764Y-94519901D01*
X120739499Y-94586593D01*
X120739500Y-94660510D01*
X120739500Y-100729137D01*
X120739489Y-100729174D01*
X120739490Y-100854429D01*
X120768332Y-100999419D01*
X120768335Y-100999429D01*
X120824906Y-101135998D01*
X120824908Y-101136002D01*
X120824910Y-101136006D01*
X120824913Y-101136010D01*
X120824915Y-101136014D01*
X120891533Y-101235712D01*
X120907045Y-101258926D01*
X121011581Y-101363462D01*
X121134503Y-101445594D01*
X121134509Y-101445596D01*
X121134510Y-101445597D01*
X121179289Y-101464145D01*
X121271086Y-101502168D01*
X121271090Y-101502168D01*
X121271091Y-101502169D01*
X121416079Y-101531010D01*
X121416082Y-101531010D01*
X121489901Y-101531010D01*
X123107901Y-101531010D01*
X123174940Y-101550695D01*
X123220695Y-101603499D01*
X123230639Y-101672657D01*
X123201614Y-101736213D01*
X123147516Y-101771893D01*
X123147534Y-101771933D01*
X123147313Y-101772027D01*
X123145651Y-101773124D01*
X123142108Y-101774256D01*
X123113491Y-101786510D01*
X123099619Y-101791496D01*
X123069767Y-101800262D01*
X123069763Y-101800263D01*
X123016754Y-101827590D01*
X123008753Y-101831360D01*
X122953908Y-101854847D01*
X122953903Y-101854850D01*
X122928133Y-101872292D01*
X122915452Y-101879816D01*
X122887797Y-101894073D01*
X122840908Y-101930947D01*
X122833761Y-101936166D01*
X122784365Y-101969598D01*
X122762353Y-101991609D01*
X122751328Y-102001393D01*
X122726874Y-102020623D01*
X122726866Y-102020631D01*
X122687808Y-102065707D01*
X122681777Y-102072185D01*
X122407181Y-102346782D01*
X122345861Y-102380266D01*
X122319502Y-102383100D01*
X121451868Y-102383100D01*
X121432468Y-102381573D01*
X121424216Y-102380266D01*
X121418465Y-102379355D01*
X121350248Y-102382930D01*
X121343759Y-102383100D01*
X121323215Y-102383100D01*
X121306251Y-102384882D01*
X121302781Y-102385247D01*
X121296319Y-102385755D01*
X121228087Y-102389331D01*
X121214386Y-102393003D01*
X121195260Y-102396548D01*
X121181147Y-102398031D01*
X121116164Y-102419144D01*
X121109944Y-102420986D01*
X121043950Y-102438670D01*
X121043946Y-102438671D01*
X121031303Y-102445113D01*
X121013336Y-102452556D01*
X120999842Y-102456941D01*
X120999841Y-102456941D01*
X120999839Y-102456941D01*
X120999839Y-102456942D01*
X120940657Y-102491110D01*
X120934964Y-102494201D01*
X120874092Y-102525217D01*
X120874089Y-102525218D01*
X120874087Y-102525220D01*
X120874083Y-102525223D01*
X120874079Y-102525226D01*
X120863059Y-102534149D01*
X120847034Y-102545163D01*
X120834747Y-102552257D01*
X120834739Y-102552263D01*
X120783962Y-102597982D01*
X120779034Y-102602192D01*
X120763070Y-102615120D01*
X120763066Y-102615123D01*
X120763061Y-102615128D01*
X120748536Y-102629651D01*
X120743836Y-102634111D01*
X120693071Y-102679820D01*
X120693067Y-102679824D01*
X120684729Y-102691301D01*
X120672095Y-102706093D01*
X118686093Y-104692095D01*
X118671301Y-104704729D01*
X118659824Y-104713067D01*
X118659820Y-104713071D01*
X118614111Y-104763836D01*
X118609651Y-104768536D01*
X118595128Y-104783061D01*
X118595123Y-104783066D01*
X118595120Y-104783070D01*
X118585828Y-104794543D01*
X118582192Y-104799034D01*
X118577982Y-104803962D01*
X118527914Y-104859570D01*
X118526829Y-104858593D01*
X118477487Y-104896642D01*
X118407873Y-104902620D01*
X118346078Y-104870013D01*
X118311722Y-104809174D01*
X118308500Y-104781090D01*
X118308500Y-101787999D01*
X118309809Y-101770029D01*
X118311185Y-101760633D01*
X118313315Y-101746094D01*
X118311545Y-101725867D01*
X118308972Y-101696452D01*
X118308500Y-101685644D01*
X118308500Y-101680066D01*
X118308500Y-101680059D01*
X118304879Y-101649082D01*
X118304515Y-101645510D01*
X118300840Y-101603499D01*
X118297943Y-101570388D01*
X118297941Y-101570383D01*
X118296483Y-101563319D01*
X118296537Y-101563307D01*
X118294881Y-101555837D01*
X118294827Y-101555850D01*
X118293160Y-101548822D01*
X118293160Y-101548816D01*
X118267369Y-101477957D01*
X118266186Y-101474552D01*
X118248348Y-101420722D01*
X118242464Y-101402964D01*
X118242461Y-101402960D01*
X118239412Y-101396419D01*
X118239461Y-101396395D01*
X118236128Y-101389509D01*
X118236079Y-101389534D01*
X118232835Y-101383075D01*
X118191376Y-101320038D01*
X118189469Y-101317046D01*
X118149870Y-101252846D01*
X118149867Y-101252843D01*
X118145392Y-101247183D01*
X118145434Y-101247149D01*
X118140597Y-101241211D01*
X118140556Y-101241246D01*
X118135912Y-101235712D01*
X118081061Y-101183963D01*
X118078473Y-101181449D01*
X116310048Y-99413024D01*
X116279798Y-99363661D01*
X116275340Y-99349942D01*
X116227179Y-99201716D01*
X116132533Y-99037784D01*
X116005871Y-98897112D01*
X115988435Y-98884444D01*
X115852734Y-98785851D01*
X115852729Y-98785848D01*
X115679807Y-98708857D01*
X115679802Y-98708855D01*
X115534001Y-98677865D01*
X115494646Y-98669500D01*
X115305354Y-98669500D01*
X115272897Y-98676398D01*
X115120197Y-98708855D01*
X115120192Y-98708857D01*
X114947270Y-98785848D01*
X114947265Y-98785851D01*
X114794129Y-98897111D01*
X114667466Y-99037785D01*
X114572821Y-99201715D01*
X114572818Y-99201722D01*
X114516998Y-99373519D01*
X114514326Y-99381744D01*
X114494540Y-99570000D01*
X114514326Y-99758256D01*
X114514327Y-99758259D01*
X114572818Y-99938277D01*
X114572821Y-99938284D01*
X114667467Y-100102216D01*
X114737249Y-100179716D01*
X114794129Y-100242888D01*
X114947265Y-100354148D01*
X114947270Y-100354151D01*
X115120191Y-100431142D01*
X115120193Y-100431142D01*
X115120197Y-100431144D01*
X115178148Y-100443461D01*
X115239627Y-100476653D01*
X115240046Y-100477070D01*
X116763181Y-102000205D01*
X116796666Y-102061528D01*
X116799500Y-102087886D01*
X116799500Y-103464428D01*
X116779815Y-103531467D01*
X116727011Y-103577222D01*
X116657853Y-103587166D01*
X116602615Y-103564746D01*
X116452734Y-103455851D01*
X116452729Y-103455848D01*
X116279807Y-103378857D01*
X116279802Y-103378855D01*
X116134001Y-103347865D01*
X116094646Y-103339500D01*
X115905354Y-103339500D01*
X115872897Y-103346398D01*
X115720197Y-103378855D01*
X115720192Y-103378857D01*
X115547270Y-103455848D01*
X115547265Y-103455851D01*
X115394129Y-103567111D01*
X115267466Y-103707785D01*
X115172821Y-103871715D01*
X115172818Y-103871722D01*
X115126292Y-104014916D01*
X115114326Y-104051744D01*
X115094540Y-104240000D01*
X115114326Y-104428256D01*
X115114327Y-104428259D01*
X115172818Y-104608277D01*
X115172821Y-104608284D01*
X115267467Y-104772216D01*
X115379501Y-104896642D01*
X115394129Y-104912888D01*
X115547265Y-105024148D01*
X115547270Y-105024151D01*
X115720191Y-105101142D01*
X115720193Y-105101142D01*
X115720197Y-105101144D01*
X115778148Y-105113461D01*
X115839627Y-105146653D01*
X115840046Y-105147070D01*
X115894047Y-105201071D01*
X115927532Y-105262394D01*
X115930366Y-105288752D01*
X115930366Y-107658819D01*
X115913753Y-107720819D01*
X115872821Y-107791714D01*
X115814327Y-107971740D01*
X115814326Y-107971744D01*
X115794540Y-108160000D01*
X115814326Y-108348256D01*
X115814327Y-108348259D01*
X115872818Y-108528277D01*
X115872821Y-108528284D01*
X115967467Y-108692216D01*
X116079738Y-108816905D01*
X116094129Y-108832888D01*
X116247265Y-108944148D01*
X116247270Y-108944151D01*
X116420192Y-109021142D01*
X116420197Y-109021144D01*
X116605354Y-109060500D01*
X116605355Y-109060500D01*
X116772595Y-109060500D01*
X116839634Y-109080185D01*
X116876196Y-109116362D01*
X116916613Y-109177814D01*
X116918545Y-109180846D01*
X116920732Y-109184391D01*
X116932240Y-109208542D01*
X116942400Y-109237578D01*
X116942402Y-109237582D01*
X116970599Y-109282457D01*
X117038374Y-109390320D01*
X117165928Y-109517874D01*
X117207177Y-109543792D01*
X117215246Y-109549318D01*
X117220805Y-109553457D01*
X117240393Y-109564766D01*
X117244362Y-109567157D01*
X117318668Y-109613847D01*
X117318671Y-109613848D01*
X117324791Y-109615990D01*
X117345837Y-109625644D01*
X117364950Y-109636678D01*
X117373554Y-109641646D01*
X117542521Y-109692231D01*
X117718599Y-109702487D01*
X117892296Y-109671859D01*
X117936592Y-109652751D01*
X118005942Y-109644273D01*
X118068870Y-109674635D01*
X118105393Y-109734198D01*
X118103916Y-109804053D01*
X118073385Y-109854291D01*
X116980896Y-110946781D01*
X116919573Y-110980266D01*
X116893215Y-110983100D01*
X116712475Y-110983100D01*
X116610997Y-110993765D01*
X116570404Y-110998032D01*
X116570402Y-110998033D01*
X116389104Y-111056939D01*
X116389098Y-111056942D01*
X116224003Y-111152260D01*
X116082334Y-111279817D01*
X116082332Y-111279820D01*
X115970275Y-111434052D01*
X115892737Y-111608204D01*
X115892735Y-111608209D01*
X115870319Y-111713672D01*
X115853100Y-111794681D01*
X115853100Y-111985319D01*
X115855078Y-111994623D01*
X115892735Y-112171790D01*
X115892737Y-112171795D01*
X115970275Y-112345946D01*
X115970278Y-112345951D01*
X116082328Y-112500176D01*
X116082329Y-112500177D01*
X116153166Y-112563958D01*
X116224002Y-112627739D01*
X116389099Y-112723058D01*
X116389101Y-112723058D01*
X116389104Y-112723060D01*
X116425517Y-112734891D01*
X116570406Y-112781968D01*
X116712475Y-112796900D01*
X117239099Y-112796900D01*
X117258498Y-112798426D01*
X117272502Y-112800645D01*
X117340719Y-112797069D01*
X117347208Y-112796900D01*
X117367751Y-112796900D01*
X117367752Y-112796900D01*
X117388195Y-112794750D01*
X117394638Y-112794243D01*
X117462879Y-112790668D01*
X117476582Y-112786995D01*
X117495708Y-112783450D01*
X117509821Y-112781968D01*
X117574808Y-112760852D01*
X117581032Y-112759009D01*
X117647011Y-112741331D01*
X117647013Y-112741329D01*
X117647021Y-112741328D01*
X117659660Y-112734886D01*
X117677634Y-112727441D01*
X117691128Y-112723058D01*
X117750326Y-112688878D01*
X117755964Y-112685817D01*
X117816880Y-112654780D01*
X117827901Y-112645854D01*
X117843945Y-112634828D01*
X117856225Y-112627739D01*
X117907024Y-112581997D01*
X117911918Y-112577817D01*
X117927897Y-112564880D01*
X117942440Y-112550335D01*
X117947109Y-112545904D01*
X117997897Y-112500177D01*
X118006240Y-112488692D01*
X118018866Y-112473909D01*
X119853909Y-110638866D01*
X119868692Y-110626240D01*
X119880177Y-110617897D01*
X119925905Y-110567109D01*
X119930359Y-110562417D01*
X119944873Y-110547904D01*
X119944873Y-110547903D01*
X119944880Y-110547897D01*
X119957821Y-110531915D01*
X119961997Y-110527025D01*
X120007739Y-110476225D01*
X120014827Y-110463945D01*
X120025856Y-110447900D01*
X120026358Y-110447280D01*
X120034780Y-110436881D01*
X120065815Y-110375970D01*
X120068893Y-110370302D01*
X120080323Y-110350505D01*
X120103058Y-110311128D01*
X120107441Y-110297635D01*
X120114886Y-110279661D01*
X120121327Y-110267022D01*
X120139012Y-110201019D01*
X120140844Y-110194831D01*
X120161968Y-110129821D01*
X120163450Y-110115708D01*
X120166996Y-110096577D01*
X120170668Y-110082880D01*
X120174243Y-110014637D01*
X120174750Y-110008195D01*
X120176900Y-109987752D01*
X120176900Y-109967209D01*
X120177070Y-109960720D01*
X120177214Y-109957964D01*
X120180645Y-109892503D01*
X120178426Y-109878498D01*
X120176900Y-109859100D01*
X120176900Y-105817752D01*
X120196585Y-105750713D01*
X120213219Y-105730071D01*
X120527819Y-105415471D01*
X120589142Y-105381986D01*
X120658834Y-105386970D01*
X120714767Y-105428842D01*
X120739184Y-105494306D01*
X120739500Y-105503152D01*
X120739500Y-105809137D01*
X120739489Y-105809174D01*
X120739490Y-105934429D01*
X120768332Y-106079419D01*
X120768335Y-106079429D01*
X120824906Y-106215998D01*
X120824908Y-106216002D01*
X120824910Y-106216006D01*
X120824913Y-106216010D01*
X120824915Y-106216014D01*
X120903452Y-106333549D01*
X120907045Y-106338926D01*
X121011581Y-106443462D01*
X121134503Y-106525594D01*
X121134509Y-106525596D01*
X121134510Y-106525597D01*
X121189830Y-106548511D01*
X121271086Y-106582168D01*
X121271090Y-106582168D01*
X121271091Y-106582169D01*
X121416079Y-106611010D01*
X121416082Y-106611010D01*
X121489901Y-106611010D01*
X124130472Y-106611010D01*
X124197511Y-106630695D01*
X124243266Y-106683499D01*
X124253210Y-106752657D01*
X124233163Y-106804512D01*
X124228661Y-106811163D01*
X124228655Y-106811173D01*
X124148030Y-106999449D01*
X124148028Y-106999456D01*
X124104491Y-107199589D01*
X124101750Y-107245621D01*
X124101750Y-108554378D01*
X124104491Y-108600410D01*
X124148028Y-108800543D01*
X124148031Y-108800551D01*
X124223675Y-108977197D01*
X124231970Y-109046573D01*
X124201441Y-109109420D01*
X124141780Y-109145785D01*
X124109687Y-109150010D01*
X121541372Y-109150010D01*
X121541338Y-109150000D01*
X121490000Y-109150000D01*
X121416082Y-109150000D01*
X121416080Y-109150000D01*
X121271091Y-109178840D01*
X121271085Y-109178842D01*
X121134506Y-109235414D01*
X121011582Y-109317551D01*
X120907040Y-109422094D01*
X120824918Y-109545002D01*
X120824911Y-109545014D01*
X120768341Y-109681588D01*
X120768340Y-109681592D01*
X120768339Y-109681595D01*
X120747885Y-109784431D01*
X120739499Y-109826593D01*
X120739500Y-109900510D01*
X120739500Y-115969137D01*
X120739489Y-115969174D01*
X120739490Y-116094429D01*
X120768332Y-116239419D01*
X120768335Y-116239429D01*
X120824906Y-116375998D01*
X120824908Y-116376002D01*
X120824910Y-116376006D01*
X120824913Y-116376010D01*
X120824915Y-116376014D01*
X120888251Y-116470800D01*
X120907045Y-116498926D01*
X121011581Y-116603462D01*
X121134503Y-116685594D01*
X121134509Y-116685596D01*
X121134510Y-116685597D01*
X121259169Y-116737232D01*
X121271086Y-116742168D01*
X121271090Y-116742168D01*
X121271091Y-116742169D01*
X121416079Y-116771010D01*
X121416082Y-116771010D01*
X121489901Y-116771010D01*
X124136635Y-116771010D01*
X124203674Y-116790695D01*
X124249429Y-116843499D01*
X124259373Y-116912657D01*
X124239326Y-116964512D01*
X124228214Y-116980929D01*
X124147550Y-117169296D01*
X124147549Y-117169301D01*
X124136986Y-117217859D01*
X124103501Y-117279182D01*
X124042178Y-117312666D01*
X124015820Y-117315500D01*
X122284000Y-117315500D01*
X122266031Y-117314191D01*
X122242089Y-117310684D01*
X122216721Y-117312904D01*
X122180137Y-117310667D01*
X122174646Y-117309500D01*
X121985354Y-117309500D01*
X121957126Y-117315500D01*
X121800197Y-117348855D01*
X121800192Y-117348857D01*
X121627270Y-117425848D01*
X121627265Y-117425851D01*
X121474129Y-117537111D01*
X121347469Y-117677781D01*
X121347465Y-117677786D01*
X121320994Y-117723635D01*
X121301289Y-117749314D01*
X118471742Y-120578861D01*
X118458113Y-120590640D01*
X118438707Y-120605088D01*
X118406674Y-120643262D01*
X118399387Y-120651215D01*
X118395420Y-120655183D01*
X118395418Y-120655185D01*
X118376089Y-120679630D01*
X118373815Y-120682422D01*
X118325334Y-120740200D01*
X118321366Y-120746234D01*
X118321322Y-120746205D01*
X118317209Y-120752660D01*
X118317254Y-120752688D01*
X118313462Y-120758835D01*
X118281581Y-120827201D01*
X118280012Y-120830441D01*
X118246175Y-120897820D01*
X118243704Y-120904608D01*
X118243655Y-120904590D01*
X118241141Y-120911822D01*
X118241191Y-120911839D01*
X118238920Y-120918691D01*
X118223671Y-120992540D01*
X118222891Y-120996059D01*
X118205499Y-121069445D01*
X118204661Y-121076616D01*
X118204607Y-121076609D01*
X118203830Y-121084225D01*
X118203883Y-121084230D01*
X118203253Y-121091419D01*
X118205448Y-121166822D01*
X118205500Y-121170429D01*
X118205500Y-121184617D01*
X118185815Y-121251656D01*
X118133011Y-121297411D01*
X118063853Y-121307355D01*
X118000297Y-121278330D01*
X117963569Y-121222935D01*
X117937181Y-121141722D01*
X117937180Y-121141721D01*
X117937179Y-121141716D01*
X117842533Y-120977784D01*
X117715871Y-120837112D01*
X117715870Y-120837111D01*
X117562734Y-120725851D01*
X117562729Y-120725848D01*
X117389807Y-120648857D01*
X117389802Y-120648855D01*
X117241474Y-120617328D01*
X117204646Y-120609500D01*
X117015354Y-120609500D01*
X116982897Y-120616398D01*
X116830197Y-120648855D01*
X116830192Y-120648857D01*
X116657270Y-120725848D01*
X116657265Y-120725851D01*
X116504129Y-120837111D01*
X116377466Y-120977785D01*
X116282821Y-121141715D01*
X116282818Y-121141722D01*
X116248699Y-121246731D01*
X116224326Y-121321744D01*
X116204540Y-121510000D01*
X116224326Y-121698256D01*
X116224327Y-121698259D01*
X116282818Y-121878277D01*
X116282821Y-121878284D01*
X116305398Y-121917389D01*
X116338887Y-121975392D01*
X116355500Y-122037392D01*
X116355500Y-123536113D01*
X116335815Y-123603152D01*
X116319181Y-123623794D01*
X115722366Y-124220609D01*
X115661043Y-124254094D01*
X115591351Y-124249110D01*
X115535418Y-124207238D01*
X115511364Y-124145891D01*
X115505674Y-124091744D01*
X115447179Y-123911716D01*
X115391111Y-123814604D01*
X115374500Y-123752606D01*
X115374500Y-123305212D01*
X115392365Y-123244370D01*
X115391419Y-123243896D01*
X115393957Y-123238840D01*
X115394016Y-123238746D01*
X115394185Y-123238173D01*
X115394902Y-123237070D01*
X115398642Y-123231384D01*
X115398687Y-123231413D01*
X115402795Y-123224965D01*
X115402748Y-123224936D01*
X115406532Y-123218799D01*
X115406539Y-123218791D01*
X115438417Y-123150428D01*
X115439972Y-123147214D01*
X115473824Y-123079811D01*
X115473826Y-123079798D01*
X115476293Y-123073024D01*
X115476346Y-123073043D01*
X115478858Y-123065815D01*
X115478807Y-123065798D01*
X115481077Y-123058945D01*
X115481077Y-123058943D01*
X115481079Y-123058940D01*
X115496345Y-122985001D01*
X115497097Y-122981610D01*
X115514500Y-122908188D01*
X115514500Y-122908181D01*
X115515338Y-122901015D01*
X115515392Y-122901021D01*
X115516170Y-122893405D01*
X115516117Y-122893401D01*
X115516746Y-122886210D01*
X115514552Y-122810804D01*
X115514500Y-122807198D01*
X115514500Y-117732038D01*
X115534185Y-117664999D01*
X115586989Y-117619244D01*
X115656147Y-117609300D01*
X115719703Y-117638325D01*
X115747439Y-117675072D01*
X115747743Y-117674885D01*
X115749731Y-117678107D01*
X115750880Y-117679630D01*
X115754587Y-117687579D01*
X115754538Y-117687601D01*
X115757876Y-117694497D01*
X115757925Y-117694473D01*
X115761167Y-117700930D01*
X115802613Y-117763946D01*
X115804550Y-117766986D01*
X115844131Y-117831156D01*
X115848611Y-117836822D01*
X115848569Y-117836855D01*
X115853401Y-117842786D01*
X115853443Y-117842752D01*
X115858088Y-117848288D01*
X115912938Y-117900036D01*
X115915525Y-117902549D01*
X116906813Y-118893837D01*
X116940298Y-118955160D01*
X116942452Y-118968553D01*
X116945455Y-118997120D01*
X116945457Y-118997130D01*
X117003948Y-119177147D01*
X117003951Y-119177154D01*
X117098597Y-119341086D01*
X117189086Y-119441584D01*
X117225259Y-119481758D01*
X117378395Y-119593018D01*
X117378400Y-119593021D01*
X117551322Y-119670012D01*
X117551323Y-119670012D01*
X117551327Y-119670014D01*
X117708607Y-119703444D01*
X117759734Y-119727466D01*
X117771209Y-119736539D01*
X117931060Y-119811079D01*
X117931061Y-119811079D01*
X117931063Y-119811080D01*
X117999355Y-119825181D01*
X118103794Y-119846746D01*
X118280096Y-119841616D01*
X118450463Y-119795966D01*
X118605709Y-119712257D01*
X118737467Y-119595003D01*
X118838632Y-119450523D01*
X118838635Y-119450515D01*
X118838637Y-119450512D01*
X118882109Y-119341086D01*
X118903752Y-119286608D01*
X118929315Y-119112094D01*
X118929314Y-119112090D01*
X118929315Y-119112088D01*
X118913943Y-118936389D01*
X118899843Y-118893837D01*
X118858464Y-118768964D01*
X118765870Y-118618846D01*
X118713387Y-118566363D01*
X118683137Y-118516999D01*
X118658312Y-118440594D01*
X118658310Y-118440590D01*
X118658309Y-118440586D01*
X118563663Y-118276654D01*
X118437001Y-118135982D01*
X118437000Y-118135981D01*
X118283864Y-118024721D01*
X118283859Y-118024718D01*
X118104997Y-117945083D01*
X118105779Y-117943325D01*
X118065910Y-117918886D01*
X117230819Y-117083795D01*
X117197334Y-117022472D01*
X117194500Y-116996114D01*
X117194500Y-116798111D01*
X117211113Y-116736110D01*
X117216111Y-116727454D01*
X117227179Y-116708284D01*
X117285674Y-116528256D01*
X117305460Y-116340000D01*
X117285674Y-116151744D01*
X117227179Y-115971716D01*
X117132533Y-115807784D01*
X117005871Y-115667112D01*
X116996301Y-115660159D01*
X116852734Y-115555851D01*
X116852729Y-115555848D01*
X116679807Y-115478857D01*
X116679802Y-115478855D01*
X116534001Y-115447865D01*
X116494646Y-115439500D01*
X116305354Y-115439500D01*
X116272897Y-115446398D01*
X116120197Y-115478855D01*
X116120192Y-115478857D01*
X115947270Y-115555848D01*
X115947265Y-115555851D01*
X115794132Y-115667109D01*
X115794129Y-115667111D01*
X115794129Y-115667112D01*
X115730648Y-115737613D01*
X115671163Y-115774261D01*
X115601306Y-115772930D01*
X115543258Y-115734043D01*
X115515448Y-115669947D01*
X115514500Y-115654640D01*
X115514500Y-115403886D01*
X115534185Y-115336847D01*
X115550819Y-115316205D01*
X115599954Y-115267070D01*
X115661277Y-115233585D01*
X115661855Y-115233461D01*
X115662745Y-115233271D01*
X115719803Y-115221144D01*
X115719806Y-115221142D01*
X115719808Y-115221142D01*
X115795583Y-115187404D01*
X115892730Y-115144151D01*
X116045871Y-115032888D01*
X116172533Y-114892216D01*
X116267179Y-114728284D01*
X116325674Y-114548256D01*
X116345460Y-114360000D01*
X116325674Y-114171744D01*
X116267179Y-113991716D01*
X116172533Y-113827784D01*
X116045871Y-113687112D01*
X116045870Y-113687111D01*
X115892734Y-113575851D01*
X115892729Y-113575848D01*
X115719807Y-113498857D01*
X115719802Y-113498855D01*
X115574001Y-113467865D01*
X115534646Y-113459500D01*
X115345354Y-113459500D01*
X115312897Y-113466398D01*
X115160197Y-113498855D01*
X115160192Y-113498857D01*
X114987270Y-113575848D01*
X114987265Y-113575851D01*
X114834129Y-113687111D01*
X114707466Y-113827785D01*
X114612821Y-113991715D01*
X114612819Y-113991719D01*
X114560201Y-114153661D01*
X114529951Y-114203023D01*
X114271742Y-114461232D01*
X114258113Y-114473011D01*
X114238707Y-114487459D01*
X114206674Y-114525633D01*
X114199387Y-114533586D01*
X114195420Y-114537554D01*
X114195418Y-114537556D01*
X114176089Y-114562001D01*
X114173815Y-114564793D01*
X114125334Y-114622571D01*
X114121366Y-114628605D01*
X114121322Y-114628576D01*
X114117209Y-114635031D01*
X114117254Y-114635059D01*
X114113462Y-114641206D01*
X114081581Y-114709572D01*
X114080012Y-114712812D01*
X114046175Y-114780191D01*
X114043704Y-114786979D01*
X114043655Y-114786961D01*
X114041141Y-114794193D01*
X114041191Y-114794210D01*
X114038920Y-114801062D01*
X114023671Y-114874911D01*
X114022891Y-114878430D01*
X114005499Y-114951816D01*
X114004661Y-114958987D01*
X114004607Y-114958980D01*
X114003830Y-114966596D01*
X114003883Y-114966601D01*
X114003253Y-114973790D01*
X114005448Y-115049193D01*
X114005500Y-115052800D01*
X114005500Y-122474787D01*
X113987624Y-122535665D01*
X113988565Y-122536138D01*
X113986023Y-122541197D01*
X113985979Y-122541264D01*
X113985815Y-122541826D01*
X113985105Y-122542920D01*
X113981371Y-122548598D01*
X113981326Y-122548568D01*
X113977209Y-122555031D01*
X113977254Y-122555059D01*
X113973462Y-122561206D01*
X113941581Y-122629572D01*
X113940012Y-122632812D01*
X113906175Y-122700191D01*
X113903704Y-122706979D01*
X113903655Y-122706961D01*
X113901141Y-122714193D01*
X113901191Y-122714210D01*
X113898920Y-122721062D01*
X113883671Y-122794911D01*
X113882891Y-122798430D01*
X113865499Y-122871816D01*
X113864661Y-122878987D01*
X113864607Y-122878980D01*
X113863830Y-122886596D01*
X113863883Y-122886601D01*
X113863253Y-122893790D01*
X113865448Y-122969193D01*
X113865500Y-122972800D01*
X113865500Y-123752606D01*
X113848888Y-123814604D01*
X113847508Y-123816996D01*
X113792820Y-123911718D01*
X113792818Y-123911722D01*
X113734327Y-124091740D01*
X113734326Y-124091744D01*
X113714540Y-124280000D01*
X113734326Y-124468256D01*
X113734327Y-124468259D01*
X113792818Y-124648277D01*
X113792821Y-124648284D01*
X113887467Y-124812216D01*
X113985946Y-124921588D01*
X114014129Y-124952888D01*
X114167265Y-125064148D01*
X114167270Y-125064151D01*
X114340192Y-125141142D01*
X114340193Y-125141142D01*
X114340197Y-125141144D01*
X114497520Y-125174583D01*
X114559001Y-125207775D01*
X114592778Y-125268938D01*
X114588126Y-125338652D01*
X114559420Y-125383554D01*
X113180046Y-126762928D01*
X113118723Y-126796413D01*
X113118148Y-126796537D01*
X113060195Y-126808856D01*
X113060192Y-126808857D01*
X112887270Y-126885848D01*
X112887265Y-126885851D01*
X112734129Y-126997111D01*
X112607466Y-127137785D01*
X112512821Y-127301715D01*
X112512818Y-127301722D01*
X112454327Y-127481740D01*
X112454326Y-127481744D01*
X112451571Y-127507960D01*
X112443880Y-127581135D01*
X112417295Y-127645750D01*
X112359998Y-127685734D01*
X112290179Y-127688394D01*
X112232878Y-127655854D01*
X111728766Y-127151742D01*
X111716984Y-127138109D01*
X111709485Y-127128036D01*
X111702539Y-127118706D01*
X111702537Y-127118704D01*
X111702538Y-127118704D01*
X111664367Y-127086676D01*
X111656384Y-127079360D01*
X111652444Y-127075419D01*
X111627987Y-127056081D01*
X111625191Y-127053803D01*
X111567427Y-127005333D01*
X111561394Y-127001365D01*
X111561422Y-127001321D01*
X111554961Y-126997204D01*
X111554934Y-126997250D01*
X111548790Y-126993460D01*
X111480442Y-126961589D01*
X111477196Y-126960017D01*
X111409815Y-126926177D01*
X111403031Y-126923708D01*
X111403049Y-126923658D01*
X111395807Y-126921141D01*
X111395791Y-126921191D01*
X111388938Y-126918920D01*
X111315088Y-126903671D01*
X111311567Y-126902891D01*
X111238181Y-126885498D01*
X111231014Y-126884661D01*
X111231020Y-126884607D01*
X111223405Y-126883829D01*
X111223401Y-126883883D01*
X111216210Y-126883253D01*
X111140804Y-126885448D01*
X111137198Y-126885500D01*
X106183886Y-126885500D01*
X106116847Y-126865815D01*
X106096205Y-126849181D01*
X105538819Y-126291795D01*
X105505334Y-126230472D01*
X105502500Y-126204114D01*
X105502500Y-124480005D01*
X106019945Y-124480005D01*
X106040130Y-124723605D01*
X106100138Y-124960573D01*
X106198330Y-125184429D01*
X106294626Y-125331819D01*
X106897452Y-124728993D01*
X106907188Y-124758956D01*
X106995186Y-124897619D01*
X107114903Y-125010040D01*
X107249510Y-125084041D01*
X106647758Y-125685794D01*
X106647758Y-125685796D01*
X106690478Y-125719046D01*
X106690484Y-125719050D01*
X106905468Y-125835394D01*
X106905476Y-125835397D01*
X107136664Y-125914765D01*
X107377779Y-125955000D01*
X107622221Y-125955000D01*
X107863335Y-125914765D01*
X108094523Y-125835397D01*
X108094531Y-125835394D01*
X108309514Y-125719051D01*
X108309514Y-125719050D01*
X108352240Y-125685795D01*
X108352240Y-125685794D01*
X107747534Y-125081086D01*
X107815629Y-125054126D01*
X107948492Y-124957595D01*
X108053175Y-124831055D01*
X108101631Y-124728078D01*
X108705372Y-125331819D01*
X108801667Y-125184431D01*
X108801672Y-125184423D01*
X108899861Y-124960573D01*
X108959869Y-124723605D01*
X108980055Y-124480005D01*
X108980055Y-124479994D01*
X108959869Y-124236394D01*
X108899861Y-123999426D01*
X108801669Y-123775570D01*
X108705372Y-123628179D01*
X108102546Y-124231004D01*
X108092812Y-124201044D01*
X108004814Y-124062381D01*
X107885097Y-123949960D01*
X107750488Y-123875957D01*
X108352240Y-123274204D01*
X108352240Y-123274203D01*
X108309514Y-123240949D01*
X108094531Y-123124605D01*
X108094523Y-123124602D01*
X107863335Y-123045234D01*
X107622221Y-123005000D01*
X107377779Y-123005000D01*
X107136664Y-123045234D01*
X106905476Y-123124602D01*
X106905468Y-123124605D01*
X106690481Y-123240951D01*
X106647758Y-123274202D01*
X106647757Y-123274204D01*
X107252466Y-123878912D01*
X107184371Y-123905874D01*
X107051508Y-124002405D01*
X106946825Y-124128945D01*
X106898368Y-124231921D01*
X106294626Y-123628179D01*
X106198328Y-123775575D01*
X106100138Y-123999426D01*
X106040130Y-124236394D01*
X106019945Y-124479994D01*
X106019945Y-124480005D01*
X105502500Y-124480005D01*
X105502500Y-120422870D01*
X106024500Y-120422870D01*
X106024501Y-120422876D01*
X106030908Y-120482483D01*
X106081202Y-120617328D01*
X106081206Y-120617335D01*
X106167452Y-120732544D01*
X106167455Y-120732547D01*
X106282664Y-120818793D01*
X106282671Y-120818797D01*
X106417517Y-120869091D01*
X106417516Y-120869091D01*
X106424444Y-120869835D01*
X106477127Y-120875500D01*
X107857113Y-120875499D01*
X107924152Y-120895184D01*
X107944794Y-120911818D01*
X109554181Y-122521205D01*
X109587666Y-122582528D01*
X109590500Y-122608886D01*
X109590500Y-123387606D01*
X109573888Y-123449605D01*
X109517820Y-123546718D01*
X109517818Y-123546722D01*
X109471553Y-123689112D01*
X109459326Y-123726744D01*
X109448474Y-123830000D01*
X109439885Y-123911722D01*
X109439540Y-123915000D01*
X109459326Y-124103256D01*
X109459327Y-124103259D01*
X109517818Y-124283277D01*
X109517821Y-124283284D01*
X109612467Y-124447216D01*
X109711814Y-124557552D01*
X109739129Y-124587888D01*
X109892265Y-124699148D01*
X109892270Y-124699151D01*
X110065192Y-124776142D01*
X110065197Y-124776144D01*
X110250354Y-124815500D01*
X110250355Y-124815500D01*
X110439644Y-124815500D01*
X110439646Y-124815500D01*
X110624803Y-124776144D01*
X110797730Y-124699151D01*
X110950871Y-124587888D01*
X111077533Y-124447216D01*
X111172179Y-124283284D01*
X111230674Y-124103256D01*
X111250460Y-123915000D01*
X111250115Y-123911722D01*
X111244618Y-123859420D01*
X111230674Y-123726744D01*
X111172179Y-123546716D01*
X111116111Y-123449604D01*
X111099500Y-123387606D01*
X111099500Y-122308999D01*
X111100809Y-122291029D01*
X111101030Y-122289516D01*
X111104315Y-122267094D01*
X111102383Y-122245016D01*
X111099972Y-122217452D01*
X111099500Y-122206644D01*
X111099500Y-122201066D01*
X111099500Y-122201059D01*
X111095879Y-122170082D01*
X111095515Y-122166510D01*
X111088943Y-122091391D01*
X111088943Y-122091388D01*
X111088941Y-122091383D01*
X111087483Y-122084319D01*
X111087536Y-122084307D01*
X111085878Y-122076827D01*
X111085824Y-122076840D01*
X111084160Y-122069822D01*
X111084160Y-122069816D01*
X111058360Y-121998932D01*
X111057175Y-121995523D01*
X111033464Y-121923965D01*
X111033462Y-121923961D01*
X111030409Y-121917412D01*
X111030458Y-121917389D01*
X111027125Y-121910504D01*
X111027076Y-121910529D01*
X111023838Y-121904083D01*
X111023836Y-121904076D01*
X110982372Y-121841034D01*
X110980480Y-121838065D01*
X110940871Y-121773847D01*
X110940868Y-121773844D01*
X110940867Y-121773842D01*
X110936390Y-121768180D01*
X110936432Y-121768146D01*
X110931597Y-121762211D01*
X110931556Y-121762246D01*
X110926912Y-121756712D01*
X110872061Y-121704963D01*
X110869473Y-121702449D01*
X109011818Y-119844794D01*
X108978333Y-119783471D01*
X108975499Y-119757113D01*
X108975499Y-118377129D01*
X108975498Y-118377123D01*
X108975497Y-118377116D01*
X108969091Y-118317517D01*
X108953850Y-118276655D01*
X108918797Y-118182671D01*
X108918793Y-118182664D01*
X108832547Y-118067455D01*
X108832544Y-118067452D01*
X108717335Y-117981206D01*
X108717328Y-117981202D01*
X108582482Y-117930908D01*
X108582483Y-117930908D01*
X108522883Y-117924501D01*
X108522881Y-117924500D01*
X108522873Y-117924500D01*
X108522864Y-117924500D01*
X106477129Y-117924500D01*
X106477123Y-117924501D01*
X106417516Y-117930908D01*
X106282671Y-117981202D01*
X106282664Y-117981206D01*
X106167455Y-118067452D01*
X106167452Y-118067455D01*
X106081206Y-118182664D01*
X106081202Y-118182671D01*
X106030908Y-118317517D01*
X106024501Y-118377116D01*
X106024501Y-118377123D01*
X106024500Y-118377135D01*
X106024500Y-120422870D01*
X105502500Y-120422870D01*
X105502500Y-113767622D01*
X105522185Y-113700583D01*
X105574989Y-113654828D01*
X105644147Y-113644884D01*
X105707703Y-113673909D01*
X105714181Y-113679941D01*
X108361897Y-116327657D01*
X108371163Y-116338025D01*
X108393466Y-116365992D01*
X108443882Y-116410039D01*
X108449979Y-116415739D01*
X108457059Y-116422819D01*
X108473940Y-116436911D01*
X108488664Y-116449203D01*
X108490747Y-116450983D01*
X108564597Y-116515505D01*
X108564601Y-116515507D01*
X108564606Y-116515512D01*
X108568470Y-116517820D01*
X108584348Y-116529087D01*
X108587804Y-116531973D01*
X108587806Y-116531974D01*
X108673089Y-116580365D01*
X108675495Y-116581766D01*
X108759686Y-116632068D01*
X108759689Y-116632069D01*
X108759692Y-116632071D01*
X108762142Y-116632990D01*
X108763907Y-116633653D01*
X108781536Y-116641900D01*
X108785456Y-116644124D01*
X108878074Y-116676532D01*
X108880587Y-116677443D01*
X108972455Y-116711922D01*
X108976890Y-116712726D01*
X108995715Y-116717696D01*
X108999958Y-116719181D01*
X109096935Y-116734540D01*
X109099483Y-116734973D01*
X109178443Y-116749303D01*
X109196056Y-116752500D01*
X109196057Y-116752500D01*
X109200564Y-116752500D01*
X109219950Y-116754025D01*
X109224413Y-116754732D01*
X109322484Y-116752531D01*
X109325266Y-116752500D01*
X110396693Y-116752500D01*
X110396699Y-116752500D01*
X110555810Y-116738179D01*
X110566340Y-116737232D01*
X110785392Y-116676778D01*
X110785397Y-116676775D01*
X110785404Y-116676774D01*
X110990153Y-116578172D01*
X111174005Y-116444596D01*
X111331052Y-116280338D01*
X111456246Y-116090677D01*
X111545562Y-115881711D01*
X111596131Y-115660154D01*
X111606327Y-115433129D01*
X111575822Y-115207932D01*
X111505596Y-114991800D01*
X111397908Y-114791681D01*
X111319834Y-114693780D01*
X111256217Y-114614006D01*
X111085084Y-114464493D01*
X111085082Y-114464491D01*
X111085078Y-114464488D01*
X111002671Y-114415252D01*
X110889998Y-114347932D01*
X110889995Y-114347930D01*
X110889992Y-114347929D01*
X110756064Y-114297665D01*
X110677228Y-114268077D01*
X110453631Y-114227500D01*
X110453627Y-114227500D01*
X109883990Y-114227500D01*
X109816951Y-114207815D01*
X109796309Y-114191181D01*
X106608819Y-111003690D01*
X106575334Y-110942367D01*
X106572500Y-110916009D01*
X106572500Y-110463299D01*
X106592185Y-110396260D01*
X106644989Y-110350505D01*
X106714147Y-110340561D01*
X106755518Y-110354245D01*
X106905458Y-110435390D01*
X106905476Y-110435397D01*
X107136664Y-110514765D01*
X107377779Y-110555000D01*
X107622221Y-110555000D01*
X107863335Y-110514765D01*
X108094523Y-110435397D01*
X108094531Y-110435394D01*
X108309514Y-110319051D01*
X108309514Y-110319050D01*
X108352240Y-110285795D01*
X108352240Y-110285794D01*
X107747533Y-109681087D01*
X107815629Y-109654126D01*
X107948492Y-109557595D01*
X108053175Y-109431055D01*
X108101631Y-109328078D01*
X108705372Y-109931819D01*
X108801667Y-109784431D01*
X108801672Y-109784423D01*
X108899861Y-109560573D01*
X108959869Y-109323605D01*
X108980055Y-109080005D01*
X108980055Y-109079994D01*
X108959869Y-108836394D01*
X108899861Y-108599426D01*
X108801669Y-108375570D01*
X108705372Y-108228179D01*
X108102546Y-108831004D01*
X108092812Y-108801044D01*
X108004814Y-108662381D01*
X107885097Y-108549960D01*
X107750488Y-108475957D01*
X108352240Y-107874204D01*
X108352240Y-107874203D01*
X108309514Y-107840949D01*
X108094531Y-107724605D01*
X108094523Y-107724602D01*
X107863335Y-107645234D01*
X107622221Y-107605000D01*
X107377779Y-107605000D01*
X107136664Y-107645234D01*
X106905476Y-107724602D01*
X106905468Y-107724605D01*
X106755518Y-107805755D01*
X106687189Y-107820350D01*
X106621817Y-107795687D01*
X106580156Y-107739597D01*
X106572500Y-107696700D01*
X106572500Y-105599499D01*
X106592185Y-105532460D01*
X106644989Y-105486705D01*
X106696500Y-105475499D01*
X107807113Y-105475499D01*
X107874152Y-105495184D01*
X107894794Y-105511818D01*
X108261234Y-105878258D01*
X108273015Y-105891890D01*
X108287461Y-105911294D01*
X108325638Y-105943328D01*
X108333614Y-105950638D01*
X108337554Y-105954579D01*
X108362010Y-105973916D01*
X108364807Y-105976195D01*
X108422572Y-106024667D01*
X108428609Y-106028637D01*
X108428579Y-106028682D01*
X108435038Y-106032796D01*
X108435067Y-106032750D01*
X108441207Y-106036537D01*
X108441209Y-106036539D01*
X108509557Y-106068410D01*
X108512775Y-106069968D01*
X108580187Y-106103823D01*
X108580189Y-106103824D01*
X108580191Y-106103824D01*
X108586979Y-106106295D01*
X108586960Y-106106347D01*
X108594188Y-106108859D01*
X108594206Y-106108808D01*
X108601055Y-106111077D01*
X108601056Y-106111077D01*
X108601060Y-106111079D01*
X108674972Y-106126339D01*
X108678419Y-106127104D01*
X108751812Y-106144500D01*
X108751813Y-106144500D01*
X108751817Y-106144501D01*
X108758985Y-106145339D01*
X108758978Y-106145392D01*
X108766593Y-106146170D01*
X108766598Y-106146117D01*
X108773792Y-106146746D01*
X108773792Y-106146745D01*
X108773793Y-106146746D01*
X108794735Y-106146136D01*
X108862320Y-106163859D01*
X108871234Y-106169766D01*
X108876285Y-106173435D01*
X108877270Y-106174151D01*
X108971259Y-106215998D01*
X109050192Y-106251142D01*
X109050197Y-106251144D01*
X109235354Y-106290500D01*
X109235355Y-106290500D01*
X109424644Y-106290500D01*
X109424646Y-106290500D01*
X109609803Y-106251144D01*
X109782730Y-106174151D01*
X109935871Y-106062888D01*
X110062533Y-105922216D01*
X110157179Y-105758284D01*
X110206600Y-105606181D01*
X110246037Y-105548507D01*
X110310396Y-105521308D01*
X110324531Y-105520500D01*
X110464644Y-105520500D01*
X110464646Y-105520500D01*
X110649803Y-105481144D01*
X110822730Y-105404151D01*
X110975871Y-105292888D01*
X111102533Y-105152216D01*
X111197179Y-104988284D01*
X111255674Y-104808256D01*
X111275460Y-104620000D01*
X111255674Y-104431744D01*
X111197179Y-104251716D01*
X111141111Y-104154604D01*
X111124500Y-104092606D01*
X111124500Y-102082307D01*
X111144185Y-102015268D01*
X111160819Y-101994626D01*
X111300598Y-101854847D01*
X111442815Y-101712630D01*
X111551972Y-101581880D01*
X111664124Y-101384228D01*
X111739181Y-101169726D01*
X111774732Y-100945271D01*
X111769633Y-100718074D01*
X111724048Y-100495438D01*
X111724047Y-100495436D01*
X111724046Y-100495431D01*
X111644538Y-100297222D01*
X111639443Y-100284520D01*
X111558407Y-100155553D01*
X111528023Y-100107196D01*
X111518536Y-100092098D01*
X111518535Y-100092097D01*
X111518534Y-100092095D01*
X111365217Y-99924360D01*
X111365216Y-99924359D01*
X111365215Y-99924358D01*
X111184406Y-99786690D01*
X111184405Y-99786689D01*
X111184402Y-99786687D01*
X110981923Y-99683520D01*
X110764266Y-99618159D01*
X110538449Y-99592716D01*
X110538438Y-99592715D01*
X110322588Y-99607270D01*
X110311703Y-99608004D01*
X110271402Y-99618159D01*
X110091334Y-99663531D01*
X109884431Y-99757512D01*
X109884425Y-99757515D01*
X109728662Y-99865428D01*
X109662345Y-99887425D01*
X109658046Y-99887500D01*
X108858837Y-99887500D01*
X108815266Y-99879593D01*
X108811229Y-99878078D01*
X108811232Y-99878078D01*
X108806778Y-99877270D01*
X108787986Y-99872309D01*
X108783733Y-99870821D01*
X108783723Y-99870818D01*
X108686856Y-99855475D01*
X108684115Y-99855009D01*
X108587631Y-99837500D01*
X108587627Y-99837500D01*
X108583120Y-99837500D01*
X108563733Y-99835974D01*
X108559271Y-99835268D01*
X108559265Y-99835268D01*
X108461200Y-99837469D01*
X108458418Y-99837500D01*
X106696500Y-99837500D01*
X106629461Y-99817815D01*
X106583706Y-99765011D01*
X106572500Y-99713500D01*
X106572500Y-99558179D01*
X106573280Y-99544294D01*
X106575332Y-99526079D01*
X106577284Y-99508759D01*
X106576677Y-99499763D01*
X106572781Y-99441973D01*
X106572500Y-99433631D01*
X106572500Y-99423622D01*
X106572500Y-99423617D01*
X106568806Y-99382584D01*
X106568591Y-99379838D01*
X106568165Y-99373519D01*
X106561996Y-99282019D01*
X106560895Y-99277650D01*
X106557636Y-99258463D01*
X106557232Y-99253978D01*
X106554619Y-99244511D01*
X106531136Y-99159419D01*
X106530439Y-99156782D01*
X106506469Y-99061653D01*
X106504608Y-99057556D01*
X106497973Y-99039256D01*
X106496774Y-99034913D01*
X106485541Y-99011588D01*
X106454206Y-98946521D01*
X106453037Y-98944021D01*
X106412486Y-98854744D01*
X106409920Y-98851040D01*
X106400133Y-98834235D01*
X106398172Y-98830163D01*
X106340479Y-98750756D01*
X106338938Y-98748583D01*
X106283069Y-98667940D01*
X106279883Y-98664754D01*
X106267243Y-98649954D01*
X106264599Y-98646314D01*
X106237129Y-98620050D01*
X106193663Y-98578492D01*
X106191719Y-98576590D01*
X105784819Y-98169690D01*
X105751334Y-98108367D01*
X105748500Y-98082009D01*
X105748500Y-94080005D01*
X106019945Y-94080005D01*
X106040130Y-94323605D01*
X106100138Y-94560573D01*
X106198330Y-94784429D01*
X106294626Y-94931819D01*
X106897452Y-94328993D01*
X106907188Y-94358956D01*
X106995186Y-94497619D01*
X107114903Y-94610040D01*
X107249510Y-94684041D01*
X106647758Y-95285794D01*
X106647758Y-95285796D01*
X106690478Y-95319046D01*
X106690484Y-95319050D01*
X106905468Y-95435394D01*
X106905476Y-95435397D01*
X107136664Y-95514765D01*
X107377779Y-95555000D01*
X107622221Y-95555000D01*
X107863335Y-95514765D01*
X108094523Y-95435397D01*
X108094531Y-95435394D01*
X108309514Y-95319051D01*
X108309514Y-95319050D01*
X108352240Y-95285795D01*
X108352240Y-95285794D01*
X107747534Y-94681086D01*
X107815629Y-94654126D01*
X107948492Y-94557595D01*
X108053175Y-94431055D01*
X108101631Y-94328078D01*
X108705372Y-94931819D01*
X108801667Y-94784431D01*
X108801672Y-94784423D01*
X108899861Y-94560573D01*
X108959869Y-94323605D01*
X108980055Y-94080005D01*
X108980055Y-94079994D01*
X108959869Y-93836394D01*
X108899861Y-93599426D01*
X108801669Y-93375570D01*
X108705372Y-93228179D01*
X108102546Y-93831004D01*
X108092812Y-93801044D01*
X108004814Y-93662381D01*
X107885097Y-93549960D01*
X107750488Y-93475957D01*
X108352240Y-92874204D01*
X108352240Y-92874203D01*
X108309514Y-92840949D01*
X108094531Y-92724605D01*
X108094523Y-92724602D01*
X107863335Y-92645234D01*
X107622221Y-92605000D01*
X107377779Y-92605000D01*
X107136664Y-92645234D01*
X106905476Y-92724602D01*
X106905468Y-92724605D01*
X106690481Y-92840951D01*
X106647758Y-92874202D01*
X106647757Y-92874204D01*
X107252466Y-93478912D01*
X107184371Y-93505874D01*
X107051508Y-93602405D01*
X106946825Y-93728945D01*
X106898368Y-93831921D01*
X106294626Y-93228179D01*
X106198328Y-93375575D01*
X106100138Y-93599426D01*
X106040130Y-93836394D01*
X106019945Y-94079994D01*
X106019945Y-94080005D01*
X105748500Y-94080005D01*
X105748500Y-87983899D01*
X105768185Y-87916860D01*
X105820989Y-87871105D01*
X105890147Y-87861161D01*
X105953703Y-87890186D01*
G37*
%TD.AperFunction*%
%TA.AperFunction,Conductor*%
G36*
X124210743Y-76150695D02*
G01*
X124256498Y-76203499D01*
X124266442Y-76272657D01*
X124250005Y-76315174D01*
X124251489Y-76315985D01*
X124248655Y-76321173D01*
X124168030Y-76509449D01*
X124168028Y-76509456D01*
X124124491Y-76709589D01*
X124121750Y-76755621D01*
X124121750Y-78064378D01*
X124124491Y-78110410D01*
X124168028Y-78310543D01*
X124168030Y-78310550D01*
X124247958Y-78497197D01*
X124256253Y-78566573D01*
X124225724Y-78629420D01*
X124166064Y-78665785D01*
X124133970Y-78670010D01*
X121541372Y-78670010D01*
X121541338Y-78670000D01*
X121490000Y-78670000D01*
X121416082Y-78670000D01*
X121416080Y-78670000D01*
X121271091Y-78698840D01*
X121271085Y-78698842D01*
X121134506Y-78755414D01*
X121011582Y-78837551D01*
X120907040Y-78942094D01*
X120824918Y-79065002D01*
X120824911Y-79065014D01*
X120768341Y-79201588D01*
X120768340Y-79201592D01*
X120768339Y-79201595D01*
X120747469Y-79306521D01*
X120739499Y-79346593D01*
X120739500Y-79420510D01*
X120739500Y-85489137D01*
X120739489Y-85489174D01*
X120739490Y-85614429D01*
X120768332Y-85759419D01*
X120768335Y-85759429D01*
X120824906Y-85895998D01*
X120824908Y-85896002D01*
X120824910Y-85896006D01*
X120824913Y-85896010D01*
X120824915Y-85896014D01*
X120890579Y-85994283D01*
X120907045Y-86018926D01*
X121011581Y-86123462D01*
X121134503Y-86205594D01*
X121134509Y-86205596D01*
X121134510Y-86205597D01*
X121264497Y-86259439D01*
X121318901Y-86303280D01*
X121340966Y-86369574D01*
X121323687Y-86437273D01*
X121272550Y-86484884D01*
X121217045Y-86498000D01*
X120089863Y-86498000D01*
X120069298Y-86496283D01*
X120066826Y-86495867D01*
X120066824Y-86495867D01*
X119997551Y-86497516D01*
X119978688Y-86497965D01*
X119975738Y-86498000D01*
X119938937Y-86498000D01*
X119930620Y-86498793D01*
X119921810Y-86499318D01*
X119862150Y-86500739D01*
X119831729Y-86507356D01*
X119817165Y-86509627D01*
X119786207Y-86512583D01*
X119786204Y-86512584D01*
X119786200Y-86512584D01*
X119786200Y-86512585D01*
X119728978Y-86529386D01*
X119720410Y-86531573D01*
X119662106Y-86544257D01*
X119662105Y-86544257D01*
X119662102Y-86544258D01*
X119633491Y-86556510D01*
X119619619Y-86561496D01*
X119589767Y-86570262D01*
X119589763Y-86570263D01*
X119536754Y-86597590D01*
X119528753Y-86601360D01*
X119473908Y-86624847D01*
X119473903Y-86624850D01*
X119448133Y-86642292D01*
X119435452Y-86649816D01*
X119407797Y-86664073D01*
X119360908Y-86700947D01*
X119353761Y-86706166D01*
X119304365Y-86739598D01*
X119282353Y-86761609D01*
X119271328Y-86771393D01*
X119246867Y-86790629D01*
X119207809Y-86835705D01*
X119201778Y-86842183D01*
X115413725Y-90630237D01*
X115397984Y-90643554D01*
X115395930Y-90645016D01*
X115395926Y-90645019D01*
X115335088Y-90708825D01*
X115333029Y-90710933D01*
X115307011Y-90736952D01*
X115301694Y-90743391D01*
X115295830Y-90749997D01*
X115254647Y-90793190D01*
X115254641Y-90793197D01*
X115237820Y-90819372D01*
X115229127Y-90831278D01*
X115209318Y-90855270D01*
X115209315Y-90855274D01*
X115180730Y-90907622D01*
X115176216Y-90915231D01*
X115143962Y-90965419D01*
X115132394Y-90994314D01*
X115126112Y-91007646D01*
X115111204Y-91034949D01*
X115111196Y-91034967D01*
X115093038Y-91091770D01*
X115090045Y-91100096D01*
X115067875Y-91155474D01*
X115061985Y-91186035D01*
X115058340Y-91200316D01*
X115048864Y-91229963D01*
X115048863Y-91229966D01*
X115041782Y-91289190D01*
X115040418Y-91297934D01*
X115029130Y-91356504D01*
X115029130Y-91387626D01*
X115028253Y-91402346D01*
X115024559Y-91433238D01*
X115024559Y-91433244D01*
X115028814Y-91492731D01*
X115029130Y-91501577D01*
X115029130Y-92792197D01*
X115043713Y-92944919D01*
X115043716Y-92944933D01*
X115101208Y-93140736D01*
X115101393Y-93141364D01*
X115185432Y-93304378D01*
X115195204Y-93323333D01*
X115317147Y-93478397D01*
X115343115Y-93543262D01*
X115329891Y-93611869D01*
X115281676Y-93662435D01*
X115281675Y-93662436D01*
X115277264Y-93664982D01*
X115193531Y-93725818D01*
X115127725Y-93749298D01*
X115120646Y-93749500D01*
X113187568Y-93749500D01*
X113120529Y-93729815D01*
X113074774Y-93677011D01*
X113064247Y-93638462D01*
X113064189Y-93637906D01*
X113045674Y-93461744D01*
X112987179Y-93281716D01*
X112931111Y-93184604D01*
X112914500Y-93122606D01*
X112914500Y-92573885D01*
X112934185Y-92506846D01*
X112950814Y-92486209D01*
X115688264Y-89748758D01*
X115701883Y-89736988D01*
X115721294Y-89722539D01*
X115753334Y-89684354D01*
X115760623Y-89676399D01*
X115764583Y-89672441D01*
X115783927Y-89647974D01*
X115786161Y-89645232D01*
X115834667Y-89587427D01*
X115834671Y-89587418D01*
X115838637Y-89581390D01*
X115838683Y-89581420D01*
X115842795Y-89574965D01*
X115842748Y-89574936D01*
X115846532Y-89568799D01*
X115846539Y-89568791D01*
X115875542Y-89506593D01*
X115878417Y-89500428D01*
X115879972Y-89497214D01*
X115913824Y-89429811D01*
X115913826Y-89429798D01*
X115916293Y-89423024D01*
X115916346Y-89423043D01*
X115918858Y-89415815D01*
X115918807Y-89415798D01*
X115921077Y-89408945D01*
X115921077Y-89408943D01*
X115921079Y-89408940D01*
X115936336Y-89335041D01*
X115937104Y-89331578D01*
X115954500Y-89258188D01*
X115954500Y-89258180D01*
X115955338Y-89251016D01*
X115955392Y-89251022D01*
X115956170Y-89243405D01*
X115956117Y-89243401D01*
X115956746Y-89236211D01*
X115956063Y-89212758D01*
X115954552Y-89160819D01*
X115954500Y-89157212D01*
X115954500Y-85253999D01*
X115955809Y-85236029D01*
X115959141Y-85213279D01*
X115959315Y-85212094D01*
X115959303Y-85211962D01*
X115954972Y-85162452D01*
X115954500Y-85151644D01*
X115954500Y-85146066D01*
X115954500Y-85146059D01*
X115950879Y-85115082D01*
X115950515Y-85111510D01*
X115945808Y-85057704D01*
X115943943Y-85036388D01*
X115943941Y-85036383D01*
X115942483Y-85029319D01*
X115942537Y-85029307D01*
X115940881Y-85021837D01*
X115940827Y-85021850D01*
X115939160Y-85014822D01*
X115939160Y-85014816D01*
X115913369Y-84943957D01*
X115912186Y-84940552D01*
X115888464Y-84868964D01*
X115888461Y-84868960D01*
X115885412Y-84862419D01*
X115885461Y-84862395D01*
X115882128Y-84855509D01*
X115882079Y-84855534D01*
X115878837Y-84849078D01*
X115867631Y-84832040D01*
X115837362Y-84786019D01*
X115835491Y-84783080D01*
X115795871Y-84718846D01*
X115791393Y-84713183D01*
X115791435Y-84713149D01*
X115786597Y-84707210D01*
X115786556Y-84707246D01*
X115781912Y-84701712D01*
X115727079Y-84649980D01*
X115724491Y-84647466D01*
X112730048Y-81653023D01*
X112699798Y-81603660D01*
X112647181Y-81441721D01*
X112647178Y-81441715D01*
X112629474Y-81411050D01*
X112552533Y-81277784D01*
X112425871Y-81137112D01*
X112404745Y-81121763D01*
X112272734Y-81025851D01*
X112272729Y-81025848D01*
X112099807Y-80948857D01*
X112099802Y-80948855D01*
X111954001Y-80917865D01*
X111914646Y-80909500D01*
X111725354Y-80909500D01*
X111692897Y-80916398D01*
X111540197Y-80948855D01*
X111540192Y-80948857D01*
X111367270Y-81025848D01*
X111367265Y-81025851D01*
X111214129Y-81137111D01*
X111087466Y-81277785D01*
X110992821Y-81441715D01*
X110992818Y-81441722D01*
X110940202Y-81603660D01*
X110934326Y-81621744D01*
X110914540Y-81810000D01*
X110934326Y-81998256D01*
X110934327Y-81998259D01*
X110992818Y-82178277D01*
X110992821Y-82178284D01*
X111087467Y-82342216D01*
X111176906Y-82441548D01*
X111214129Y-82482888D01*
X111367265Y-82594148D01*
X111367270Y-82594151D01*
X111540191Y-82671142D01*
X111540193Y-82671142D01*
X111540197Y-82671144D01*
X111598148Y-82683461D01*
X111659627Y-82716653D01*
X111660046Y-82717070D01*
X114409181Y-85466205D01*
X114442666Y-85527528D01*
X114445500Y-85553886D01*
X114445500Y-88806113D01*
X114425815Y-88873152D01*
X114409181Y-88893794D01*
X111696734Y-91606240D01*
X111635411Y-91639725D01*
X111565719Y-91634741D01*
X111516903Y-91601531D01*
X111423074Y-91497324D01*
X111395871Y-91467112D01*
X111379787Y-91455426D01*
X111242734Y-91355851D01*
X111242729Y-91355848D01*
X111069807Y-91278857D01*
X111069802Y-91278855D01*
X110924001Y-91247865D01*
X110884646Y-91239500D01*
X110695354Y-91239500D01*
X110662897Y-91246398D01*
X110510197Y-91278855D01*
X110510192Y-91278857D01*
X110337270Y-91355848D01*
X110337265Y-91355851D01*
X110184129Y-91467111D01*
X110184128Y-91467112D01*
X110066198Y-91598086D01*
X110006712Y-91634734D01*
X109948268Y-91636403D01*
X109901852Y-91626537D01*
X109840370Y-91593345D01*
X109839952Y-91592928D01*
X109730819Y-91483795D01*
X109697334Y-91422472D01*
X109694500Y-91396114D01*
X109694500Y-90503999D01*
X109695809Y-90486029D01*
X109697351Y-90475499D01*
X109699315Y-90462094D01*
X109694972Y-90412452D01*
X109694500Y-90401644D01*
X109694500Y-90396066D01*
X109694500Y-90396059D01*
X109690879Y-90365082D01*
X109690515Y-90361510D01*
X109683943Y-90286391D01*
X109683943Y-90286388D01*
X109683941Y-90286383D01*
X109682483Y-90279319D01*
X109682536Y-90279307D01*
X109680878Y-90271827D01*
X109680824Y-90271840D01*
X109679160Y-90264822D01*
X109679160Y-90264816D01*
X109661878Y-90217335D01*
X109653360Y-90193932D01*
X109652175Y-90190523D01*
X109628464Y-90118965D01*
X109628462Y-90118961D01*
X109625409Y-90112412D01*
X109625458Y-90112389D01*
X109622125Y-90105504D01*
X109622076Y-90105529D01*
X109618838Y-90099083D01*
X109618836Y-90099076D01*
X109577372Y-90036034D01*
X109575480Y-90033065D01*
X109535871Y-89968847D01*
X109535868Y-89968844D01*
X109535867Y-89968842D01*
X109531390Y-89963180D01*
X109531432Y-89963146D01*
X109526597Y-89957211D01*
X109526556Y-89957246D01*
X109521912Y-89951712D01*
X109467061Y-89899963D01*
X109464473Y-89897449D01*
X109011818Y-89444794D01*
X108978333Y-89383471D01*
X108975499Y-89357113D01*
X108975499Y-88451256D01*
X108995184Y-88384217D01*
X109047988Y-88338462D01*
X109096545Y-88327291D01*
X109170349Y-88325535D01*
X109173299Y-88325500D01*
X109210090Y-88325500D01*
X109210100Y-88325500D01*
X109218405Y-88324706D01*
X109227215Y-88324181D01*
X109286883Y-88322761D01*
X109317299Y-88316144D01*
X109331866Y-88313873D01*
X109349132Y-88312223D01*
X109362837Y-88310915D01*
X109420087Y-88294104D01*
X109428609Y-88291929D01*
X109486932Y-88279243D01*
X109503275Y-88272244D01*
X109515537Y-88266993D01*
X109529419Y-88262002D01*
X109537362Y-88259669D01*
X109559271Y-88253237D01*
X109612306Y-88225894D01*
X109620267Y-88222143D01*
X109675129Y-88198651D01*
X109700906Y-88181203D01*
X109713575Y-88173687D01*
X109741240Y-88159426D01*
X109788142Y-88122540D01*
X109795272Y-88117335D01*
X109796104Y-88116772D01*
X109844673Y-88083901D01*
X109866685Y-88061887D01*
X109877696Y-88052115D01*
X109902167Y-88032872D01*
X109941239Y-87987777D01*
X109947245Y-87981327D01*
X110957409Y-86971163D01*
X110973167Y-86957836D01*
X110975204Y-86956386D01*
X111036042Y-86892579D01*
X111038062Y-86890510D01*
X111050180Y-86878392D01*
X111061205Y-86868608D01*
X111065759Y-86865027D01*
X111085667Y-86849372D01*
X111124739Y-86804277D01*
X111130745Y-86797827D01*
X111544033Y-86384539D01*
X111559791Y-86371212D01*
X111561828Y-86369762D01*
X111622645Y-86305977D01*
X111624667Y-86303905D01*
X111650750Y-86277824D01*
X111656065Y-86271385D01*
X111661930Y-86264776D01*
X111703106Y-86221594D01*
X111719932Y-86195409D01*
X111728626Y-86183503D01*
X111748438Y-86159510D01*
X111777043Y-86107120D01*
X111781514Y-86099586D01*
X111813790Y-86049366D01*
X111825354Y-86020478D01*
X111831641Y-86007134D01*
X111833599Y-86003549D01*
X111846553Y-85979826D01*
X111864716Y-85923001D01*
X111867709Y-85914678D01*
X111889879Y-85859304D01*
X111895770Y-85828734D01*
X111899412Y-85814466D01*
X111908890Y-85784820D01*
X111911324Y-85764466D01*
X111915970Y-85725598D01*
X111917330Y-85716869D01*
X111928624Y-85658277D01*
X111928624Y-85627163D01*
X111929501Y-85612442D01*
X111932373Y-85588419D01*
X111933196Y-85581540D01*
X111928940Y-85522036D01*
X111928624Y-85513190D01*
X111928624Y-85305556D01*
X111914040Y-85152834D01*
X111914039Y-85152833D01*
X111914039Y-85152824D01*
X111856361Y-84956390D01*
X111762550Y-84774421D01*
X111720640Y-84721128D01*
X111637653Y-84615600D01*
X111611685Y-84550735D01*
X111611124Y-84538949D01*
X111611124Y-83643227D01*
X111612433Y-83625257D01*
X111612818Y-83622623D01*
X111615938Y-83601328D01*
X111611595Y-83551693D01*
X111611124Y-83540887D01*
X111611124Y-83535299D01*
X111611123Y-83535287D01*
X111607506Y-83504344D01*
X111607139Y-83500752D01*
X111600567Y-83425624D01*
X111599107Y-83418553D01*
X111599161Y-83418541D01*
X111597505Y-83411072D01*
X111597451Y-83411085D01*
X111595784Y-83404057D01*
X111595784Y-83404051D01*
X111569993Y-83333192D01*
X111568810Y-83329787D01*
X111550092Y-83273301D01*
X111545088Y-83258199D01*
X111545085Y-83258195D01*
X111542036Y-83251654D01*
X111542085Y-83251630D01*
X111538752Y-83244744D01*
X111538703Y-83244769D01*
X111535459Y-83238310D01*
X111494000Y-83175273D01*
X111492093Y-83172281D01*
X111452494Y-83108081D01*
X111452491Y-83108078D01*
X111448016Y-83102418D01*
X111448058Y-83102384D01*
X111443221Y-83096446D01*
X111443180Y-83096481D01*
X111438536Y-83090947D01*
X111383685Y-83039198D01*
X111381097Y-83036684D01*
X110113399Y-81768986D01*
X110079914Y-81707663D01*
X110084898Y-81637971D01*
X110113399Y-81593624D01*
X110552745Y-81154279D01*
X111036205Y-80670819D01*
X111097528Y-80637334D01*
X111123886Y-80634500D01*
X112691433Y-80634500D01*
X112758472Y-80654185D01*
X112779114Y-80670819D01*
X115900553Y-83792258D01*
X115912334Y-83805890D01*
X115926780Y-83825294D01*
X115964957Y-83857328D01*
X115972933Y-83864638D01*
X115976873Y-83868579D01*
X115976877Y-83868582D01*
X115976878Y-83868583D01*
X115998799Y-83885916D01*
X116001329Y-83887916D01*
X116004126Y-83890195D01*
X116061891Y-83938667D01*
X116067928Y-83942637D01*
X116067898Y-83942682D01*
X116074357Y-83946796D01*
X116074386Y-83946750D01*
X116080526Y-83950537D01*
X116080528Y-83950539D01*
X116148876Y-83982410D01*
X116152094Y-83983968D01*
X116217373Y-84016752D01*
X116219508Y-84017824D01*
X116219510Y-84017824D01*
X116226298Y-84020295D01*
X116226279Y-84020347D01*
X116233507Y-84022859D01*
X116233525Y-84022808D01*
X116240374Y-84025077D01*
X116240375Y-84025077D01*
X116240379Y-84025079D01*
X116314291Y-84040339D01*
X116317738Y-84041104D01*
X116391131Y-84058500D01*
X116391132Y-84058500D01*
X116391136Y-84058501D01*
X116398304Y-84059339D01*
X116398297Y-84059392D01*
X116405913Y-84060170D01*
X116405918Y-84060117D01*
X116413107Y-84060746D01*
X116413111Y-84060745D01*
X116413112Y-84060746D01*
X116488498Y-84058551D01*
X116492105Y-84058500D01*
X117189739Y-84058500D01*
X117207708Y-84059809D01*
X117213089Y-84060596D01*
X117231645Y-84063315D01*
X117281287Y-84058971D01*
X117292094Y-84058500D01*
X117297673Y-84058500D01*
X117297680Y-84058500D01*
X117328642Y-84054880D01*
X117332173Y-84054519D01*
X117407351Y-84047943D01*
X117407354Y-84047941D01*
X117414432Y-84046481D01*
X117414443Y-84046535D01*
X117421902Y-84044881D01*
X117421890Y-84044827D01*
X117428917Y-84043161D01*
X117428918Y-84043160D01*
X117428923Y-84043160D01*
X117499834Y-84017350D01*
X117503133Y-84016203D01*
X117574775Y-83992464D01*
X117574777Y-83992462D01*
X117574779Y-83992462D01*
X117581320Y-83989412D01*
X117581343Y-83989462D01*
X117588237Y-83986125D01*
X117588212Y-83986075D01*
X117594659Y-83982837D01*
X117594663Y-83982836D01*
X117657706Y-83941370D01*
X117660681Y-83939476D01*
X117724893Y-83899870D01*
X117724901Y-83899861D01*
X117730562Y-83895387D01*
X117730596Y-83895430D01*
X117736521Y-83890604D01*
X117736486Y-83890562D01*
X117742015Y-83885920D01*
X117742024Y-83885915D01*
X117793810Y-83831023D01*
X117796255Y-83828506D01*
X118658766Y-82965995D01*
X118663960Y-82961094D01*
X118710773Y-82919436D01*
X118746706Y-82868116D01*
X118750989Y-82862362D01*
X118789845Y-82813224D01*
X118791567Y-82809528D01*
X118794634Y-82802954D01*
X118805446Y-82784226D01*
X118811938Y-82774956D01*
X118835064Y-82716742D01*
X118837898Y-82710171D01*
X118864385Y-82653373D01*
X118866677Y-82642267D01*
X118872874Y-82621570D01*
X118877058Y-82611041D01*
X118878957Y-82598071D01*
X118908146Y-82534595D01*
X118913952Y-82528375D01*
X119443908Y-81998419D01*
X119456170Y-81988597D01*
X119455987Y-81988376D01*
X119461990Y-81983408D01*
X119461999Y-81983403D01*
X119508056Y-81934356D01*
X119510704Y-81931623D01*
X119530242Y-81912087D01*
X119532692Y-81908927D01*
X119540276Y-81900046D01*
X119570184Y-81868199D01*
X119579836Y-81850640D01*
X119590511Y-81834389D01*
X119602796Y-81818553D01*
X119620152Y-81778442D01*
X119625283Y-81767971D01*
X119646316Y-81729715D01*
X119646316Y-81729714D01*
X119646319Y-81729709D01*
X119651302Y-81710297D01*
X119657599Y-81691908D01*
X119665560Y-81673512D01*
X119672392Y-81630365D01*
X119674761Y-81618933D01*
X119685621Y-81576639D01*
X119685622Y-81576634D01*
X119685622Y-81556600D01*
X119687149Y-81537199D01*
X119690282Y-81517421D01*
X119686172Y-81473941D01*
X119685622Y-81462272D01*
X119685622Y-80912304D01*
X119704629Y-80846331D01*
X119740578Y-80789119D01*
X119770199Y-80704466D01*
X119796435Y-80629488D01*
X119815371Y-80461429D01*
X119811666Y-80428549D01*
X119800641Y-80330696D01*
X119796435Y-80293370D01*
X119780669Y-80248315D01*
X119754052Y-80172244D01*
X119750491Y-80102465D01*
X119783411Y-80043611D01*
X119828264Y-79998758D01*
X119841883Y-79986988D01*
X119861294Y-79972539D01*
X119893334Y-79934354D01*
X119900623Y-79926399D01*
X119904583Y-79922441D01*
X119923927Y-79897974D01*
X119926161Y-79895232D01*
X119974667Y-79837427D01*
X119974671Y-79837418D01*
X119978637Y-79831390D01*
X119978683Y-79831420D01*
X119982795Y-79824965D01*
X119982748Y-79824936D01*
X119986532Y-79818799D01*
X119986539Y-79818791D01*
X120018417Y-79750428D01*
X120019972Y-79747214D01*
X120053824Y-79679811D01*
X120053826Y-79679798D01*
X120056293Y-79673024D01*
X120056346Y-79673043D01*
X120058858Y-79665815D01*
X120058807Y-79665798D01*
X120061077Y-79658945D01*
X120061077Y-79658943D01*
X120061079Y-79658940D01*
X120076345Y-79585001D01*
X120077097Y-79581610D01*
X120094500Y-79508188D01*
X120094500Y-79508181D01*
X120095338Y-79501015D01*
X120095392Y-79501021D01*
X120096170Y-79493405D01*
X120096117Y-79493401D01*
X120096746Y-79486210D01*
X120094552Y-79410804D01*
X120094500Y-79407198D01*
X120094500Y-78942888D01*
X120114185Y-78875849D01*
X120130814Y-78855211D01*
X121139197Y-77846828D01*
X121152816Y-77835058D01*
X121172227Y-77820609D01*
X121204267Y-77782424D01*
X121211556Y-77774469D01*
X121215516Y-77770511D01*
X121234860Y-77746044D01*
X121237094Y-77743302D01*
X121285600Y-77685497D01*
X121285604Y-77685488D01*
X121289570Y-77679460D01*
X121289616Y-77679490D01*
X121293728Y-77673035D01*
X121293681Y-77673006D01*
X121297465Y-77666869D01*
X121297472Y-77666861D01*
X121325767Y-77606181D01*
X121329350Y-77598498D01*
X121330905Y-77595284D01*
X121364757Y-77527881D01*
X121364759Y-77527868D01*
X121367226Y-77521094D01*
X121367279Y-77521113D01*
X121369791Y-77513885D01*
X121369740Y-77513868D01*
X121372010Y-77507015D01*
X121372010Y-77507013D01*
X121372012Y-77507010D01*
X121387269Y-77433111D01*
X121388037Y-77429648D01*
X121405433Y-77356258D01*
X121405433Y-77356250D01*
X121406271Y-77349086D01*
X121406325Y-77349092D01*
X121407103Y-77341475D01*
X121407050Y-77341471D01*
X121407679Y-77334281D01*
X121405485Y-77258889D01*
X121405433Y-77255282D01*
X121405433Y-76255010D01*
X121425118Y-76187971D01*
X121477922Y-76142216D01*
X121529433Y-76131010D01*
X124143704Y-76131010D01*
X124210743Y-76150695D01*
G37*
%TD.AperFunction*%
%TA.AperFunction,Conductor*%
G36*
X119996042Y-66551605D02*
G01*
X120024844Y-66554441D01*
X120026020Y-66554566D01*
X120133167Y-66566632D01*
X120155258Y-66571186D01*
X120205511Y-66586430D01*
X120210384Y-66588022D01*
X120267480Y-66608001D01*
X120285148Y-66614184D01*
X120302644Y-66621866D01*
X120320771Y-66631555D01*
X120353344Y-66648966D01*
X120360829Y-66653310D01*
X120423784Y-66692868D01*
X120436462Y-66701998D01*
X120482099Y-66739452D01*
X120491103Y-66747612D01*
X120516995Y-66773504D01*
X120542884Y-66799394D01*
X120551055Y-66808410D01*
X120588504Y-66854042D01*
X120597644Y-66866735D01*
X120637175Y-66929649D01*
X120641540Y-66937168D01*
X120668639Y-66987868D01*
X120676322Y-67005367D01*
X120702460Y-67080069D01*
X120704079Y-67085028D01*
X120719311Y-67135243D01*
X120723870Y-67157354D01*
X120735848Y-67263666D01*
X120736031Y-67265392D01*
X120738903Y-67294545D01*
X120739500Y-67306702D01*
X120739500Y-70249137D01*
X120739489Y-70249174D01*
X120739490Y-70374429D01*
X120768332Y-70519419D01*
X120768335Y-70519429D01*
X120824906Y-70655998D01*
X120824908Y-70656002D01*
X120824910Y-70656006D01*
X120824913Y-70656010D01*
X120824915Y-70656014D01*
X120888251Y-70750800D01*
X120907045Y-70778926D01*
X121011581Y-70883462D01*
X121134503Y-70965594D01*
X121134509Y-70965596D01*
X121134510Y-70965597D01*
X121179289Y-70984145D01*
X121271086Y-71022168D01*
X121271090Y-71022168D01*
X121271091Y-71022169D01*
X121416079Y-71051010D01*
X121416082Y-71051010D01*
X121489901Y-71051010D01*
X124136635Y-71051010D01*
X124203674Y-71070695D01*
X124249429Y-71123499D01*
X124259373Y-71192657D01*
X124239326Y-71244512D01*
X124228215Y-71260927D01*
X124168735Y-71399825D01*
X124124249Y-71453702D01*
X124057697Y-71474976D01*
X124028967Y-71472301D01*
X123874646Y-71439500D01*
X123685354Y-71439500D01*
X123652897Y-71446398D01*
X123500197Y-71478855D01*
X123500192Y-71478857D01*
X123327270Y-71555848D01*
X123327269Y-71555849D01*
X123319056Y-71561817D01*
X123253250Y-71585298D01*
X123246169Y-71585500D01*
X122121629Y-71585500D01*
X122103660Y-71584191D01*
X122079720Y-71580684D01*
X122032959Y-71584776D01*
X122030080Y-71585028D01*
X122019274Y-71585500D01*
X122013680Y-71585500D01*
X121982742Y-71589116D01*
X121979158Y-71589482D01*
X121904016Y-71596056D01*
X121896950Y-71597516D01*
X121896939Y-71597464D01*
X121889460Y-71599122D01*
X121889473Y-71599174D01*
X121882445Y-71600839D01*
X121811591Y-71626628D01*
X121808186Y-71627812D01*
X121736591Y-71651536D01*
X121730050Y-71654587D01*
X121730027Y-71654539D01*
X121723130Y-71657878D01*
X121723154Y-71657925D01*
X121716701Y-71661165D01*
X121653681Y-71702614D01*
X121650640Y-71704551D01*
X121586482Y-71744124D01*
X121580814Y-71748606D01*
X121580781Y-71748564D01*
X121574843Y-71753401D01*
X121574877Y-71753442D01*
X121569341Y-71758087D01*
X121517573Y-71812956D01*
X121515062Y-71815541D01*
X120148351Y-73182252D01*
X120087028Y-73215737D01*
X120017336Y-73210753D01*
X119987785Y-73194889D01*
X119878999Y-73115851D01*
X119878994Y-73115848D01*
X119706072Y-73038857D01*
X119706067Y-73038855D01*
X119544133Y-73004436D01*
X119520911Y-72999500D01*
X119331619Y-72999500D01*
X119308397Y-73004436D01*
X119146462Y-73038855D01*
X119146457Y-73038857D01*
X118973535Y-73115848D01*
X118973530Y-73115851D01*
X118820394Y-73227111D01*
X118693731Y-73367785D01*
X118599086Y-73531715D01*
X118599083Y-73531722D01*
X118545753Y-73695856D01*
X118540591Y-73711744D01*
X118533553Y-73778706D01*
X118523321Y-73876056D01*
X118496736Y-73940671D01*
X118439438Y-73980655D01*
X118369619Y-73983315D01*
X118312319Y-73950775D01*
X118173286Y-73811742D01*
X118161504Y-73798109D01*
X118149645Y-73782180D01*
X118147059Y-73778706D01*
X118147057Y-73778704D01*
X118147058Y-73778704D01*
X118108887Y-73746676D01*
X118100904Y-73739360D01*
X118096964Y-73735419D01*
X118072507Y-73716081D01*
X118069711Y-73713803D01*
X118011947Y-73665333D01*
X118005914Y-73661365D01*
X118005942Y-73661321D01*
X117999481Y-73657204D01*
X117999454Y-73657250D01*
X117993310Y-73653460D01*
X117924962Y-73621589D01*
X117921716Y-73620017D01*
X117854335Y-73586177D01*
X117847551Y-73583708D01*
X117847569Y-73583658D01*
X117840327Y-73581141D01*
X117840311Y-73581191D01*
X117833458Y-73578920D01*
X117759608Y-73563671D01*
X117756087Y-73562891D01*
X117682701Y-73545498D01*
X117675534Y-73544661D01*
X117675540Y-73544607D01*
X117667925Y-73543829D01*
X117667921Y-73543883D01*
X117660730Y-73543253D01*
X117585324Y-73545448D01*
X117581718Y-73545500D01*
X116743886Y-73545500D01*
X116676847Y-73525815D01*
X116656205Y-73509181D01*
X116340819Y-73193795D01*
X116307334Y-73132472D01*
X116304500Y-73106114D01*
X116304500Y-69467392D01*
X116321113Y-69405392D01*
X116377179Y-69308284D01*
X116435674Y-69128256D01*
X116455460Y-68940000D01*
X116435674Y-68751744D01*
X116377179Y-68571716D01*
X116282533Y-68407784D01*
X116155871Y-68267112D01*
X116155870Y-68267111D01*
X116002734Y-68155851D01*
X116002729Y-68155848D01*
X115829807Y-68078857D01*
X115829802Y-68078855D01*
X115684001Y-68047865D01*
X115644646Y-68039500D01*
X115455354Y-68039500D01*
X115422897Y-68046398D01*
X115270197Y-68078855D01*
X115270192Y-68078857D01*
X115097270Y-68155848D01*
X115097265Y-68155851D01*
X114944129Y-68267111D01*
X114817466Y-68407785D01*
X114722821Y-68571715D01*
X114722818Y-68571722D01*
X114665131Y-68749265D01*
X114664326Y-68751744D01*
X114644540Y-68940000D01*
X114664326Y-69128256D01*
X114664327Y-69128259D01*
X114722818Y-69308277D01*
X114722821Y-69308284D01*
X114772872Y-69394975D01*
X114778887Y-69405392D01*
X114795500Y-69467392D01*
X114795500Y-73106113D01*
X114775815Y-73173152D01*
X114759181Y-73193794D01*
X111771742Y-76181232D01*
X111758113Y-76193011D01*
X111738707Y-76207459D01*
X111706674Y-76245633D01*
X111699387Y-76253586D01*
X111695420Y-76257554D01*
X111695418Y-76257556D01*
X111676089Y-76282001D01*
X111673815Y-76284793D01*
X111625334Y-76342571D01*
X111621366Y-76348605D01*
X111621322Y-76348576D01*
X111617209Y-76355031D01*
X111617254Y-76355059D01*
X111613462Y-76361206D01*
X111581581Y-76429572D01*
X111580012Y-76432812D01*
X111546175Y-76500191D01*
X111543704Y-76506979D01*
X111543655Y-76506961D01*
X111541141Y-76514193D01*
X111541191Y-76514210D01*
X111538920Y-76521062D01*
X111523671Y-76594911D01*
X111522891Y-76598430D01*
X111505499Y-76671816D01*
X111504661Y-76678987D01*
X111504607Y-76678980D01*
X111503830Y-76686596D01*
X111503883Y-76686601D01*
X111503253Y-76693790D01*
X111505448Y-76769193D01*
X111505500Y-76772800D01*
X111505500Y-78476000D01*
X111504191Y-78493969D01*
X111500684Y-78517908D01*
X111505028Y-78567545D01*
X111505500Y-78578354D01*
X111505500Y-78583946D01*
X111509116Y-78614885D01*
X111509482Y-78618470D01*
X111516056Y-78693610D01*
X111517516Y-78700677D01*
X111517464Y-78700687D01*
X111519123Y-78708167D01*
X111519174Y-78708155D01*
X111520840Y-78715185D01*
X111546621Y-78786020D01*
X111547804Y-78789423D01*
X111571533Y-78861029D01*
X111574586Y-78867575D01*
X111574536Y-78867598D01*
X111577876Y-78874497D01*
X111577925Y-78874473D01*
X111581167Y-78880930D01*
X111615652Y-78933362D01*
X111636044Y-79000189D01*
X111617069Y-79067433D01*
X111564752Y-79113744D01*
X111512051Y-79125500D01*
X110823992Y-79125500D01*
X110806023Y-79124191D01*
X110782089Y-79120685D01*
X110736995Y-79124631D01*
X110732457Y-79125028D01*
X110721653Y-79125500D01*
X110716055Y-79125500D01*
X110685091Y-79129119D01*
X110681504Y-79129485D01*
X110606393Y-79136056D01*
X110599319Y-79137517D01*
X110599308Y-79137465D01*
X110591832Y-79139122D01*
X110591845Y-79139174D01*
X110584812Y-79140840D01*
X110513925Y-79166639D01*
X110510525Y-79167821D01*
X110438962Y-79191536D01*
X110432420Y-79194587D01*
X110432397Y-79194539D01*
X110425507Y-79197875D01*
X110425531Y-79197922D01*
X110419076Y-79201163D01*
X110356067Y-79242604D01*
X110353030Y-79244539D01*
X110288846Y-79284130D01*
X110283179Y-79288611D01*
X110283146Y-79288569D01*
X110277214Y-79293401D01*
X110277248Y-79293442D01*
X110271712Y-79298087D01*
X110219944Y-79352956D01*
X110217433Y-79355541D01*
X108751673Y-80821301D01*
X108738044Y-80833080D01*
X108718638Y-80847528D01*
X108686605Y-80885702D01*
X108679318Y-80893655D01*
X108675351Y-80897623D01*
X108675349Y-80897625D01*
X108656020Y-80922070D01*
X108653746Y-80924862D01*
X108605265Y-80982640D01*
X108601297Y-80988674D01*
X108601253Y-80988645D01*
X108597140Y-80995100D01*
X108597185Y-80995128D01*
X108593393Y-81001275D01*
X108561512Y-81069641D01*
X108559943Y-81072881D01*
X108526106Y-81140260D01*
X108523635Y-81147048D01*
X108523586Y-81147030D01*
X108521072Y-81154262D01*
X108521122Y-81154279D01*
X108518851Y-81161131D01*
X108503602Y-81234980D01*
X108502822Y-81238499D01*
X108485430Y-81311885D01*
X108484592Y-81319056D01*
X108484538Y-81319049D01*
X108483761Y-81326665D01*
X108483814Y-81326670D01*
X108483184Y-81333859D01*
X108485379Y-81409262D01*
X108485431Y-81412869D01*
X108485431Y-81898542D01*
X108484122Y-81916511D01*
X108480615Y-81940450D01*
X108484374Y-81983398D01*
X108484828Y-81988597D01*
X108484959Y-81990087D01*
X108485431Y-82000896D01*
X108485431Y-82006488D01*
X108489047Y-82037427D01*
X108489413Y-82041012D01*
X108495987Y-82116152D01*
X108497447Y-82123219D01*
X108497395Y-82123229D01*
X108499054Y-82130709D01*
X108499105Y-82130697D01*
X108500771Y-82137727D01*
X108526552Y-82208562D01*
X108527735Y-82211965D01*
X108551464Y-82283571D01*
X108554517Y-82290117D01*
X108554467Y-82290140D01*
X108557807Y-82297039D01*
X108557856Y-82297015D01*
X108561098Y-82303472D01*
X108602544Y-82366488D01*
X108604481Y-82369528D01*
X108644062Y-82433698D01*
X108648542Y-82439364D01*
X108648500Y-82439397D01*
X108653332Y-82445328D01*
X108653374Y-82445294D01*
X108658019Y-82450830D01*
X108712869Y-82502578D01*
X108715456Y-82505091D01*
X110065805Y-83855440D01*
X110099290Y-83916763D01*
X110102124Y-83943121D01*
X110102124Y-84544832D01*
X110082439Y-84611871D01*
X110067868Y-84630401D01*
X110010141Y-84690943D01*
X109899458Y-84863170D01*
X109821174Y-85058716D01*
X109818648Y-85057704D01*
X109786909Y-85106728D01*
X109757538Y-85125534D01*
X109731563Y-85137396D01*
X109731563Y-85137397D01*
X109717850Y-85147161D01*
X109702757Y-85156360D01*
X109687801Y-85164071D01*
X109687799Y-85164072D01*
X109629720Y-85209745D01*
X109624999Y-85213279D01*
X109564796Y-85256150D01*
X109564789Y-85256156D01*
X109553177Y-85268334D01*
X109540100Y-85280222D01*
X109526871Y-85290626D01*
X109526861Y-85290636D01*
X109478473Y-85346479D01*
X109474504Y-85350845D01*
X109423525Y-85404309D01*
X109423515Y-85404322D01*
X109414415Y-85418482D01*
X109403821Y-85432634D01*
X109392804Y-85445349D01*
X109355859Y-85509337D01*
X109352790Y-85514371D01*
X109309642Y-85581514D01*
X109308983Y-85581091D01*
X109291584Y-85604915D01*
X108751320Y-86145181D01*
X108689997Y-86178666D01*
X108663639Y-86181500D01*
X107328899Y-86181500D01*
X107261860Y-86161815D01*
X107241218Y-86145181D01*
X106438819Y-85342782D01*
X106405334Y-85281459D01*
X106402500Y-85255101D01*
X106402500Y-80428549D01*
X106422185Y-80361510D01*
X106474989Y-80315755D01*
X106544147Y-80305811D01*
X106602662Y-80330696D01*
X106690478Y-80399046D01*
X106690484Y-80399050D01*
X106905468Y-80515394D01*
X106905476Y-80515397D01*
X107136664Y-80594765D01*
X107377779Y-80635000D01*
X107622221Y-80635000D01*
X107863335Y-80594765D01*
X108094523Y-80515397D01*
X108094531Y-80515394D01*
X108309514Y-80399051D01*
X108309514Y-80399050D01*
X108352240Y-80365795D01*
X108352240Y-80365794D01*
X107747533Y-79761087D01*
X107815629Y-79734126D01*
X107948492Y-79637595D01*
X108053175Y-79511055D01*
X108101631Y-79408078D01*
X108705372Y-80011819D01*
X108801667Y-79864431D01*
X108801672Y-79864423D01*
X108899861Y-79640573D01*
X108959869Y-79403605D01*
X108980055Y-79160005D01*
X108980055Y-79159994D01*
X108959869Y-78916394D01*
X108899861Y-78679426D01*
X108801669Y-78455570D01*
X108705372Y-78308179D01*
X108102546Y-78911004D01*
X108092812Y-78881044D01*
X108004814Y-78742381D01*
X107885097Y-78629960D01*
X107750488Y-78555957D01*
X108352240Y-77954204D01*
X108352240Y-77954203D01*
X108309514Y-77920949D01*
X108094531Y-77804605D01*
X108094523Y-77804602D01*
X107863335Y-77725234D01*
X107622221Y-77685000D01*
X107377779Y-77685000D01*
X107136664Y-77725234D01*
X106905476Y-77804602D01*
X106905468Y-77804605D01*
X106690485Y-77920949D01*
X106602662Y-77989304D01*
X106537668Y-78014946D01*
X106469128Y-78001379D01*
X106418803Y-77952911D01*
X106402500Y-77891450D01*
X106402500Y-75349183D01*
X106422185Y-75282144D01*
X106474989Y-75236389D01*
X106544147Y-75226445D01*
X106602661Y-75251329D01*
X106690212Y-75319473D01*
X106905267Y-75435855D01*
X106905270Y-75435856D01*
X107136541Y-75515251D01*
X107136543Y-75515251D01*
X107136545Y-75515252D01*
X107377737Y-75555500D01*
X107377738Y-75555500D01*
X107622261Y-75555500D01*
X107622263Y-75555500D01*
X107804591Y-75525074D01*
X107873952Y-75533456D01*
X107912678Y-75559702D01*
X109229181Y-76876205D01*
X109262666Y-76937528D01*
X109265500Y-76963886D01*
X109265500Y-77072606D01*
X109248888Y-77134605D01*
X109192820Y-77231718D01*
X109192818Y-77231722D01*
X109152354Y-77356259D01*
X109134326Y-77411744D01*
X109114540Y-77600000D01*
X109134326Y-77788256D01*
X109134327Y-77788259D01*
X109192818Y-77968277D01*
X109192821Y-77968284D01*
X109287467Y-78132216D01*
X109368146Y-78221819D01*
X109414129Y-78272888D01*
X109567265Y-78384148D01*
X109567270Y-78384151D01*
X109740192Y-78461142D01*
X109740197Y-78461144D01*
X109925354Y-78500500D01*
X109925355Y-78500500D01*
X110114644Y-78500500D01*
X110114646Y-78500500D01*
X110299803Y-78461144D01*
X110472730Y-78384151D01*
X110625871Y-78272888D01*
X110752533Y-78132216D01*
X110847179Y-77968284D01*
X110905674Y-77788256D01*
X110925460Y-77600000D01*
X110905674Y-77411744D01*
X110847179Y-77231716D01*
X110791111Y-77134604D01*
X110774500Y-77072606D01*
X110774500Y-76663992D01*
X110775809Y-76646022D01*
X110777761Y-76632696D01*
X110779314Y-76622093D01*
X110774971Y-76572458D01*
X110774500Y-76561652D01*
X110774500Y-76556064D01*
X110774499Y-76556052D01*
X110770882Y-76525109D01*
X110770515Y-76521517D01*
X110763943Y-76446389D01*
X110762483Y-76439318D01*
X110762537Y-76439306D01*
X110760881Y-76431837D01*
X110760827Y-76431850D01*
X110759160Y-76424822D01*
X110759160Y-76424816D01*
X110733369Y-76353957D01*
X110732186Y-76350552D01*
X110732180Y-76350534D01*
X110708464Y-76278964D01*
X110708461Y-76278960D01*
X110705412Y-76272419D01*
X110705461Y-76272395D01*
X110702128Y-76265509D01*
X110702079Y-76265534D01*
X110698835Y-76259075D01*
X110697683Y-76257324D01*
X110666857Y-76210454D01*
X110657376Y-76196038D01*
X110655469Y-76193046D01*
X110615870Y-76128846D01*
X110615867Y-76128843D01*
X110611392Y-76123183D01*
X110611434Y-76123149D01*
X110606597Y-76117211D01*
X110606556Y-76117246D01*
X110601912Y-76111712D01*
X110547061Y-76059963D01*
X110544473Y-76057449D01*
X108979946Y-74492922D01*
X108946461Y-74431599D01*
X108947422Y-74374800D01*
X108957316Y-74335728D01*
X108960364Y-74323692D01*
X108968729Y-74222745D01*
X108980557Y-74080005D01*
X108980557Y-74079994D01*
X108960365Y-73836316D01*
X108960363Y-73836304D01*
X108927304Y-73705758D01*
X108900336Y-73599264D01*
X108802111Y-73375333D01*
X108729805Y-73264660D01*
X108668367Y-73170621D01*
X108502757Y-72990722D01*
X108502747Y-72990713D01*
X108309791Y-72840529D01*
X108309787Y-72840526D01*
X108094734Y-72724145D01*
X108094729Y-72724143D01*
X107863458Y-72644748D01*
X107682561Y-72614562D01*
X107622263Y-72604500D01*
X107377737Y-72604500D01*
X107329498Y-72612549D01*
X107136541Y-72644748D01*
X106905270Y-72724143D01*
X106905265Y-72724145D01*
X106705418Y-72832297D01*
X106690212Y-72840527D01*
X106620487Y-72894795D01*
X106602662Y-72908670D01*
X106537668Y-72934312D01*
X106469128Y-72920745D01*
X106418803Y-72872277D01*
X106402500Y-72810816D01*
X106402500Y-71934306D01*
X106422185Y-71867267D01*
X106438814Y-71846630D01*
X107773626Y-70511817D01*
X107834949Y-70478333D01*
X107861307Y-70475499D01*
X108522871Y-70475499D01*
X108522872Y-70475499D01*
X108582483Y-70469091D01*
X108717331Y-70418796D01*
X108832546Y-70332546D01*
X108918796Y-70217331D01*
X108969091Y-70082483D01*
X108975500Y-70022873D01*
X108975499Y-67977128D01*
X108969091Y-67917517D01*
X108918796Y-67782669D01*
X108918795Y-67782668D01*
X108918793Y-67782664D01*
X108832547Y-67667455D01*
X108832544Y-67667452D01*
X108717335Y-67581206D01*
X108717328Y-67581202D01*
X108582482Y-67530908D01*
X108582483Y-67530908D01*
X108522883Y-67524501D01*
X108522881Y-67524500D01*
X108522873Y-67524500D01*
X108522864Y-67524500D01*
X106477129Y-67524500D01*
X106477123Y-67524501D01*
X106417516Y-67530908D01*
X106282671Y-67581202D01*
X106282664Y-67581206D01*
X106167455Y-67667452D01*
X106167452Y-67667455D01*
X106081206Y-67782664D01*
X106081202Y-67782671D01*
X106030908Y-67917517D01*
X106024501Y-67977116D01*
X106024501Y-67977123D01*
X106024500Y-67977135D01*
X106024500Y-68638692D01*
X106004815Y-68705731D01*
X105988181Y-68726373D01*
X104302338Y-70412215D01*
X104291974Y-70421478D01*
X104264010Y-70443780D01*
X104264002Y-70443787D01*
X104219970Y-70494186D01*
X104214281Y-70500273D01*
X104207184Y-70507371D01*
X104207181Y-70507374D01*
X104180799Y-70538973D01*
X104178996Y-70541084D01*
X104114489Y-70614920D01*
X104114482Y-70614930D01*
X104112170Y-70618800D01*
X104100922Y-70634653D01*
X104098029Y-70638118D01*
X104098026Y-70638122D01*
X104049639Y-70723397D01*
X104048240Y-70725799D01*
X103997934Y-70809998D01*
X103997924Y-70810018D01*
X103996339Y-70814242D01*
X103988106Y-70831840D01*
X103985881Y-70835760D01*
X103985875Y-70835775D01*
X103953488Y-70928329D01*
X103952541Y-70930942D01*
X103918079Y-71022767D01*
X103918077Y-71022773D01*
X103917270Y-71027221D01*
X103912309Y-71046012D01*
X103910821Y-71050265D01*
X103910819Y-71050271D01*
X103895475Y-71147142D01*
X103895009Y-71149882D01*
X103877500Y-71246367D01*
X103877500Y-71250880D01*
X103875974Y-71270266D01*
X103875268Y-71274729D01*
X103875268Y-71274732D01*
X103875268Y-71274735D01*
X103877469Y-71372798D01*
X103877500Y-71375580D01*
X103877500Y-84813814D01*
X103857815Y-84880853D01*
X103805011Y-84926608D01*
X103735853Y-84936552D01*
X103703064Y-84927093D01*
X103549807Y-84858857D01*
X103549802Y-84858855D01*
X103404001Y-84827865D01*
X103364646Y-84819500D01*
X103175354Y-84819500D01*
X103142897Y-84826398D01*
X102990197Y-84858855D01*
X102990192Y-84858857D01*
X102817271Y-84935848D01*
X102707720Y-85015441D01*
X102641913Y-85038920D01*
X102573859Y-85023094D01*
X102525165Y-84972988D01*
X102515858Y-84950056D01*
X102509954Y-84929948D01*
X102447032Y-84832040D01*
X102427347Y-84765000D01*
X102447032Y-84697961D01*
X102447032Y-84697960D01*
X102509953Y-84600053D01*
X102550500Y-84461961D01*
X102550500Y-84318039D01*
X102550499Y-84318037D01*
X102550499Y-84318036D01*
X102544366Y-84297150D01*
X102532586Y-84257030D01*
X102509954Y-84179949D01*
X102509953Y-84179947D01*
X102432143Y-84058872D01*
X102323373Y-83964623D01*
X102284338Y-83946796D01*
X102192456Y-83904834D01*
X102151070Y-83898884D01*
X102087514Y-83869858D01*
X102049741Y-83811080D01*
X102049741Y-83741210D01*
X102063288Y-83710873D01*
X102139448Y-83587872D01*
X102206429Y-83414973D01*
X102240500Y-83232710D01*
X102240500Y-83140000D01*
X102240500Y-83139500D01*
X102240500Y-73119901D01*
X102240500Y-73027290D01*
X102206429Y-72845027D01*
X102139448Y-72672128D01*
X102097574Y-72604500D01*
X102056788Y-72538627D01*
X102038233Y-72471267D01*
X102059041Y-72404567D01*
X102112606Y-72359706D01*
X102144567Y-72350612D01*
X102182457Y-72345165D01*
X102313373Y-72285377D01*
X102422143Y-72191128D01*
X102499953Y-72070053D01*
X102540500Y-71931961D01*
X102540500Y-71788039D01*
X102502131Y-71657364D01*
X102499954Y-71649949D01*
X102499953Y-71649948D01*
X102499953Y-71649947D01*
X102437031Y-71552039D01*
X102417347Y-71485000D01*
X102437032Y-71417961D01*
X102437032Y-71417960D01*
X102499953Y-71320053D01*
X102540500Y-71181961D01*
X102540500Y-71038039D01*
X102527263Y-70992958D01*
X102499954Y-70899949D01*
X102499953Y-70899948D01*
X102499953Y-70899947D01*
X102437031Y-70802039D01*
X102417347Y-70735000D01*
X102437032Y-70667961D01*
X102437032Y-70667960D01*
X102444714Y-70656006D01*
X102499953Y-70570053D01*
X102540500Y-70431961D01*
X102540500Y-70288039D01*
X102529088Y-70249174D01*
X102499954Y-70149949D01*
X102479467Y-70118070D01*
X102422143Y-70028872D01*
X102313373Y-69934623D01*
X102313371Y-69934622D01*
X102182456Y-69874834D01*
X102155938Y-69871022D01*
X102092383Y-69841996D01*
X102054609Y-69783218D01*
X102054609Y-69713348D01*
X102068156Y-69683011D01*
X102139448Y-69567872D01*
X102206429Y-69394973D01*
X102240500Y-69212710D01*
X102240500Y-69120000D01*
X102240500Y-69119500D01*
X102240500Y-67306596D01*
X102241097Y-67294446D01*
X102243882Y-67266166D01*
X102244036Y-67264700D01*
X102256150Y-67157228D01*
X102260704Y-67135152D01*
X102275771Y-67085479D01*
X102277374Y-67080568D01*
X102303734Y-67005232D01*
X102311408Y-66987756D01*
X102338330Y-66937387D01*
X102342656Y-66929935D01*
X102382463Y-66866582D01*
X102391575Y-66853928D01*
X102428816Y-66808548D01*
X102436966Y-66799557D01*
X102489056Y-66747466D01*
X102498036Y-66739327D01*
X102543423Y-66702078D01*
X102556063Y-66692975D01*
X102619436Y-66653155D01*
X102626886Y-66648831D01*
X102677239Y-66621916D01*
X102694730Y-66614237D01*
X102770042Y-66587884D01*
X102774971Y-66586274D01*
X102824643Y-66571206D01*
X102846723Y-66566653D01*
X102954847Y-66554470D01*
X102956128Y-66554335D01*
X102981948Y-66551792D01*
X102983830Y-66551607D01*
X102995979Y-66551010D01*
X119983912Y-66551010D01*
X119996042Y-66551605D01*
G37*
%TD.AperFunction*%
%TD*%
M02*
