%TF.GenerationSoftware,KiCad,Pcbnew,7.0.11*%
%TF.CreationDate,2024-11-05T15:47:57-05:00*%
%TF.ProjectId,14.X.4 - PMOS - PLC Connector Combined,31342e58-2e34-4202-9d20-504d4f53202d,rev?*%
%TF.SameCoordinates,Original*%
%TF.FileFunction,Paste,Top*%
%TF.FilePolarity,Positive*%
%FSLAX46Y46*%
G04 Gerber Fmt 4.6, Leading zero omitted, Abs format (unit mm)*
G04 Created by KiCad (PCBNEW 7.0.11) date 2024-11-05 15:47:57*
%MOMM*%
%LPD*%
G01*
G04 APERTURE LIST*
G04 Aperture macros list*
%AMRoundRect*
0 Rectangle with rounded corners*
0 $1 Rounding radius*
0 $2 $3 $4 $5 $6 $7 $8 $9 X,Y pos of 4 corners*
0 Add a 4 corners polygon primitive as box body*
4,1,4,$2,$3,$4,$5,$6,$7,$8,$9,$2,$3,0*
0 Add four circle primitives for the rounded corners*
1,1,$1+$1,$2,$3*
1,1,$1+$1,$4,$5*
1,1,$1+$1,$6,$7*
1,1,$1+$1,$8,$9*
0 Add four rect primitives between the rounded corners*
20,1,$1+$1,$2,$3,$4,$5,0*
20,1,$1+$1,$4,$5,$6,$7,0*
20,1,$1+$1,$6,$7,$8,$9,0*
20,1,$1+$1,$8,$9,$2,$3,0*%
G04 Aperture macros list end*
%ADD10RoundRect,0.218750X0.256250X-0.218750X0.256250X0.218750X-0.256250X0.218750X-0.256250X-0.218750X0*%
%ADD11RoundRect,0.200000X0.200000X0.275000X-0.200000X0.275000X-0.200000X-0.275000X0.200000X-0.275000X0*%
%ADD12RoundRect,0.200000X-0.200000X-0.275000X0.200000X-0.275000X0.200000X0.275000X-0.200000X0.275000X0*%
%ADD13RoundRect,0.200000X0.275000X-0.200000X0.275000X0.200000X-0.275000X0.200000X-0.275000X-0.200000X0*%
%ADD14RoundRect,0.200000X-0.275000X0.200000X-0.275000X-0.200000X0.275000X-0.200000X0.275000X0.200000X0*%
%ADD15RoundRect,0.150000X-0.150000X0.587500X-0.150000X-0.587500X0.150000X-0.587500X0.150000X0.587500X0*%
%ADD16RoundRect,0.250000X0.300000X-0.300000X0.300000X0.300000X-0.300000X0.300000X-0.300000X-0.300000X0*%
%ADD17RoundRect,0.150000X0.587500X0.150000X-0.587500X0.150000X-0.587500X-0.150000X0.587500X-0.150000X0*%
%ADD18RoundRect,0.572500X-3.045750X-0.572500X3.045750X-0.572500X3.045750X0.572500X-3.045750X0.572500X0*%
%ADD19R,2.200000X3.500000*%
%ADD20R,2.200000X1.200000*%
%ADD21RoundRect,0.250000X-0.650000X1.000000X-0.650000X-1.000000X0.650000X-1.000000X0.650000X1.000000X0*%
%ADD22RoundRect,0.250000X-1.000000X-0.650000X1.000000X-0.650000X1.000000X0.650000X-1.000000X0.650000X0*%
G04 APERTURE END LIST*
D10*
%TO.C,D4*%
X119310000Y-105625000D03*
X119310000Y-104050000D03*
%TD*%
D11*
%TO.C,R21*%
X116630000Y-93420000D03*
X118280000Y-93420000D03*
%TD*%
D12*
%TO.C,R20*%
X118180000Y-95470000D03*
X116530000Y-95470000D03*
%TD*%
D13*
%TO.C,R19*%
X116330000Y-123310000D03*
X116330000Y-124960000D03*
%TD*%
D12*
%TO.C,R18*%
X120065000Y-109310000D03*
X118415000Y-109310000D03*
%TD*%
%TO.C,R17*%
X118425000Y-76360000D03*
X120075000Y-76360000D03*
%TD*%
D11*
%TO.C,R8*%
X117280000Y-126420000D03*
X118930000Y-126420000D03*
%TD*%
D13*
%TO.C,R5*%
X116360000Y-109330000D03*
X116360000Y-110980000D03*
%TD*%
D12*
%TO.C,R4*%
X115980000Y-78170000D03*
X117630000Y-78170000D03*
%TD*%
D13*
%TO.C,R15*%
X119760000Y-95315000D03*
X119760000Y-96965000D03*
%TD*%
D11*
%TO.C,R14*%
X118380000Y-110880000D03*
X120030000Y-110880000D03*
%TD*%
D14*
%TO.C,R13*%
X118280000Y-124960000D03*
X118280000Y-123310000D03*
%TD*%
D11*
%TO.C,R2*%
X118990000Y-77900000D03*
X120640000Y-77900000D03*
%TD*%
D15*
%TO.C,Q4*%
X116030000Y-76380000D03*
X115080000Y-74505000D03*
X116980000Y-74505000D03*
%TD*%
%TO.C,Q3*%
X116180000Y-91617500D03*
X115230000Y-89742500D03*
X117130000Y-89742500D03*
%TD*%
%TO.C,Q2*%
X115950000Y-107115000D03*
X115000000Y-105240000D03*
X116900000Y-105240000D03*
%TD*%
%TO.C,Q1*%
X115930000Y-121575000D03*
X114980000Y-119700000D03*
X116880000Y-119700000D03*
%TD*%
D16*
%TO.C,D8*%
X112900000Y-119200000D03*
X112900000Y-122000000D03*
%TD*%
%TO.C,D7*%
X112890000Y-104770000D03*
X112890000Y-107570000D03*
%TD*%
%TO.C,D6*%
X112930000Y-89667500D03*
X112930000Y-92467500D03*
%TD*%
%TO.C,D5*%
X112910000Y-74330000D03*
X112910000Y-77130000D03*
%TD*%
D14*
%TO.C,R3*%
X110890000Y-84965000D03*
X110890000Y-83315000D03*
%TD*%
%TO.C,R7*%
X110530000Y-114880000D03*
X110530000Y-113230000D03*
%TD*%
D17*
%TO.C,D307*%
X112400000Y-80070000D03*
X114275000Y-79120000D03*
X114275000Y-81020000D03*
%TD*%
D18*
%TO.C,J302*%
X128210000Y-118050000D03*
%TD*%
D10*
%TO.C,D3*%
X119840000Y-119705000D03*
X119840000Y-121280000D03*
%TD*%
D18*
%TO.C,J310*%
X128240000Y-72320000D03*
%TD*%
D19*
%TO.C,U1*%
X119270000Y-70050000D03*
D20*
X113070000Y-72350000D03*
X113070000Y-70050000D03*
X113070000Y-67750000D03*
%TD*%
D18*
%TO.C,J210*%
X74278250Y-72187224D03*
%TD*%
D19*
%TO.C,U3*%
X119230000Y-100630000D03*
D20*
X113030000Y-102930000D03*
X113030000Y-100630000D03*
X113030000Y-98330000D03*
%TD*%
D18*
%TO.C,J209*%
X74278250Y-77245000D03*
%TD*%
D14*
%TO.C,R6*%
X110680000Y-99985000D03*
X110680000Y-98335000D03*
%TD*%
D21*
%TO.C,D303*%
X104400000Y-128862500D03*
X104400000Y-132862500D03*
%TD*%
D18*
%TO.C,J314*%
X128230000Y-102820000D03*
%TD*%
D17*
%TO.C,D306*%
X112695000Y-110180000D03*
X114570000Y-109230000D03*
X114570000Y-111130000D03*
%TD*%
D18*
%TO.C,J311*%
X128260000Y-92650000D03*
%TD*%
D19*
%TO.C,U4*%
X119220000Y-115210000D03*
D20*
X113020000Y-117510000D03*
X113020000Y-115210000D03*
X113020000Y-112910000D03*
%TD*%
D18*
%TO.C,J206*%
X74308250Y-92488334D03*
%TD*%
%TO.C,J306*%
X128180000Y-87590000D03*
%TD*%
%TO.C,J307*%
X128230000Y-123140000D03*
%TD*%
D22*
%TO.C,D302*%
X104120000Y-113990000D03*
X108120000Y-113990000D03*
%TD*%
D12*
%TO.C,R12*%
X120170000Y-107180000D03*
X118520000Y-107180000D03*
%TD*%
D18*
%TO.C,J202*%
X74298250Y-112799446D03*
%TD*%
%TO.C,J309*%
X128230000Y-77420000D03*
%TD*%
D19*
%TO.C,U2*%
X119290000Y-85280000D03*
D20*
X113090000Y-87580000D03*
X113090000Y-85280000D03*
X113090000Y-82980000D03*
%TD*%
D13*
%TO.C,R10*%
X119780000Y-92210000D03*
X119780000Y-93860000D03*
%TD*%
D18*
%TO.C,J203*%
X74308250Y-107721668D03*
%TD*%
%TO.C,J315*%
X128210000Y-107880000D03*
%TD*%
%TO.C,J208*%
X74298250Y-82342778D03*
%TD*%
D22*
%TO.C,D301*%
X104160000Y-98860000D03*
X108160000Y-98860000D03*
%TD*%
D18*
%TO.C,J201*%
X74370000Y-117920000D03*
%TD*%
D17*
%TO.C,D308*%
X112885000Y-95170000D03*
X114760000Y-94220000D03*
X114760000Y-96120000D03*
%TD*%
D13*
%TO.C,R11*%
X119810000Y-122695000D03*
X119810000Y-124345000D03*
%TD*%
%TO.C,R9*%
X119850000Y-79385000D03*
X119850000Y-81035000D03*
%TD*%
D17*
%TO.C,D305*%
X112695000Y-125250000D03*
X114570000Y-124300000D03*
X114570000Y-126200000D03*
%TD*%
D22*
%TO.C,D309*%
X108360000Y-84070000D03*
X104360000Y-84070000D03*
%TD*%
D12*
%TO.C,R1*%
X117655000Y-79760000D03*
X116005000Y-79760000D03*
%TD*%
D18*
%TO.C,J204*%
X74298250Y-102653890D03*
%TD*%
%TO.C,J207*%
X74308250Y-87400556D03*
%TD*%
%TO.C,J205*%
X74280000Y-97590000D03*
%TD*%
D10*
%TO.C,D2*%
X119780000Y-89135000D03*
X119780000Y-90710000D03*
%TD*%
%TO.C,D1*%
X119810000Y-73292500D03*
X119810000Y-74867500D03*
%TD*%
M02*
