%TF.GenerationSoftware,KiCad,Pcbnew,7.0.11*%
%TF.CreationDate,2024-11-09T10:58:47-05:00*%
%TF.ProjectId,14.1.4 - PMOS - PLC Connector Combined,31342e31-2e34-4202-9d20-504d4f53202d,rev?*%
%TF.SameCoordinates,Original*%
%TF.FileFunction,Profile,NP*%
%FSLAX46Y46*%
G04 Gerber Fmt 4.6, Leading zero omitted, Abs format (unit mm)*
G04 Created by KiCad (PCBNEW 7.0.11) date 2024-11-09 10:58:47*
%MOMM*%
%LPD*%
G01*
G04 APERTURE LIST*
%TA.AperFunction,Profile*%
%ADD10C,0.250000*%
%TD*%
G04 APERTURE END LIST*
D10*
X71240000Y-75990000D02*
X82490000Y-75990000D01*
X100240000Y-115187503D02*
X100240000Y-125207503D01*
X131989990Y-92120510D02*
G75*
G03*
X131240000Y-91370510I-749990J10D01*
G01*
X70490000Y-77780000D02*
X70490000Y-76740000D01*
X82490000Y-119170000D02*
X71240000Y-119170000D01*
X71240000Y-86150000D02*
X82490000Y-86150000D01*
X102240000Y-125207503D02*
X102240000Y-115187503D01*
X70490000Y-113340000D02*
X70490000Y-112300000D01*
X131240000Y-109150510D02*
X121490000Y-109150510D01*
X100240000Y-73120000D02*
X100240000Y-83140000D01*
X70490000Y-113340000D02*
G75*
G03*
X71240000Y-114090000I750000J0D01*
G01*
X131989990Y-122600510D02*
G75*
G03*
X131240000Y-121850510I-749990J10D01*
G01*
X70490000Y-87940000D02*
G75*
G03*
X71240000Y-88690000I750000J0D01*
G01*
X120739990Y-70300510D02*
G75*
G03*
X121490000Y-71050510I750010J10D01*
G01*
X82490000Y-70910000D02*
G75*
G03*
X83240000Y-70160000I0J750000D01*
G01*
X82490000Y-93770000D02*
X71240000Y-93770000D01*
X120740000Y-120060510D02*
X120740000Y-121100510D01*
X120740000Y-79420510D02*
X120740000Y-85540510D01*
X70490000Y-118420000D02*
G75*
G03*
X71240000Y-119170000I750000J0D01*
G01*
X131990000Y-122600510D02*
X131990000Y-123640510D01*
X71240000Y-86150000D02*
G75*
G03*
X70490000Y-86900000I0J-750000D01*
G01*
X71240000Y-116630000D02*
G75*
G03*
X70490000Y-117380000I0J-750000D01*
G01*
X100240000Y-69120000D02*
G75*
G03*
X102240000Y-69120000I1000000J0D01*
G01*
X70490000Y-108260000D02*
G75*
G03*
X71240000Y-109010000I750000J0D01*
G01*
X83240000Y-80320000D02*
X83240000Y-79280000D01*
X120739990Y-75380510D02*
G75*
G03*
X121490000Y-76130510I750010J10D01*
G01*
X120739990Y-105860510D02*
G75*
G03*
X121490000Y-106610510I750010J10D01*
G01*
X121490000Y-78670500D02*
G75*
G03*
X120740000Y-79420510I0J-750000D01*
G01*
X82490000Y-103930000D02*
X71240000Y-103930000D01*
X121490000Y-119310500D02*
G75*
G03*
X120740000Y-120060510I0J-750000D01*
G01*
X121490000Y-86290510D02*
X131240000Y-86290510D01*
X131240000Y-73590510D02*
X121490000Y-73590510D01*
X131240000Y-93910510D02*
X121490000Y-93910510D01*
X82490000Y-75990000D02*
G75*
G03*
X83240000Y-75240000I0J750000D01*
G01*
X100240000Y-69120000D02*
G75*
G03*
X99490000Y-68370000I-750000J0D01*
G01*
X82490000Y-73450000D02*
X71240000Y-73450000D01*
X131989990Y-107360510D02*
G75*
G03*
X131240000Y-106610510I-749990J10D01*
G01*
X131990000Y-92120510D02*
X131990000Y-93160510D01*
X100240000Y-87140000D02*
X100240000Y-97160000D01*
X70490000Y-98100000D02*
G75*
G03*
X71240000Y-98850000I750000J0D01*
G01*
X131240000Y-104070510D02*
X121490000Y-104070510D01*
X70490000Y-77780000D02*
G75*
G03*
X71240000Y-78530000I750000J0D01*
G01*
X70490000Y-87940000D02*
X70490000Y-86900000D01*
X83240000Y-110800000D02*
X83240000Y-109760000D01*
X131989990Y-117520510D02*
G75*
G03*
X131240000Y-116770510I-749990J10D01*
G01*
X131240000Y-88830510D02*
X121490000Y-88830510D01*
X71240000Y-111550000D02*
G75*
G03*
X70490000Y-112300000I0J-750000D01*
G01*
X131990000Y-87040510D02*
X131990000Y-88080510D01*
X83240000Y-114840000D02*
G75*
G03*
X82490000Y-114090000I-750000J0D01*
G01*
X102240000Y-101167503D02*
G75*
G03*
X100240000Y-101167503I-1000000J0D01*
G01*
X82490000Y-91230000D02*
G75*
G03*
X83240000Y-90480000I0J750000D01*
G01*
X131240000Y-93910500D02*
G75*
G03*
X131990000Y-93160510I0J750000D01*
G01*
X71240000Y-116630000D02*
X82490000Y-116630000D01*
X82490000Y-78530000D02*
X71240000Y-78530000D01*
X82490000Y-109010000D02*
X71240000Y-109010000D01*
X70490000Y-103180000D02*
X70490000Y-102140000D01*
X83240000Y-89440000D02*
G75*
G03*
X82490000Y-88690000I-750000J0D01*
G01*
X121490000Y-93910500D02*
G75*
G03*
X120740000Y-94660510I0J-750000D01*
G01*
X83239997Y-129207503D02*
G75*
G03*
X83990000Y-129957503I750003J3D01*
G01*
X83240000Y-70160000D02*
X83240000Y-69120000D01*
X70490000Y-82860000D02*
G75*
G03*
X71240000Y-83610000I750000J0D01*
G01*
X102240000Y-129207503D02*
G75*
G03*
X100240000Y-129207503I-1000000J0D01*
G01*
X102240000Y-111187503D02*
X102240000Y-101167503D01*
X71240000Y-106470000D02*
G75*
G03*
X70490000Y-107220000I0J-750000D01*
G01*
X82490000Y-106470000D02*
G75*
G03*
X83240000Y-105720000I0J750000D01*
G01*
X131989990Y-102280510D02*
G75*
G03*
X131240000Y-101530510I-749990J10D01*
G01*
X102240000Y-97160000D02*
X102240000Y-87140000D01*
X121490000Y-109150500D02*
G75*
G03*
X120740000Y-109900510I0J-750000D01*
G01*
X82490000Y-83610000D02*
X71240000Y-83610000D01*
X83240000Y-104680000D02*
G75*
G03*
X82490000Y-103930000I-750000J0D01*
G01*
X82490000Y-86150000D02*
G75*
G03*
X83240000Y-85400000I0J750000D01*
G01*
X121490000Y-116770510D02*
X131240000Y-116770510D01*
X99490000Y-129957503D02*
X83990000Y-129957503D01*
X120739990Y-67300510D02*
G75*
G03*
X119990000Y-66550510I-749990J10D01*
G01*
X120739990Y-116020510D02*
G75*
G03*
X121490000Y-116770510I750010J10D01*
G01*
X131240000Y-78670500D02*
G75*
G03*
X131990000Y-77920510I0J750000D01*
G01*
X71240000Y-101390000D02*
X82490000Y-101390000D01*
X102240000Y-73120000D02*
G75*
G03*
X100240000Y-73120000I-1000000J0D01*
G01*
X102990000Y-66550500D02*
G75*
G03*
X102240000Y-67300510I0J-750000D01*
G01*
X120740000Y-67300510D02*
X120740000Y-70300510D01*
X120739990Y-100780510D02*
G75*
G03*
X121490000Y-101530510I750010J10D01*
G01*
X70490000Y-82860000D02*
X70490000Y-81820000D01*
X131240000Y-119310510D02*
X121490000Y-119310510D01*
X70490000Y-103180000D02*
G75*
G03*
X71240000Y-103930000I750000J0D01*
G01*
X131990000Y-76880510D02*
X131990000Y-77920510D01*
X83240000Y-109760000D02*
G75*
G03*
X82490000Y-109010000I-750000J0D01*
G01*
X120740000Y-104820510D02*
X120740000Y-105860510D01*
X71240000Y-75990000D02*
G75*
G03*
X70490000Y-76740000I0J-750000D01*
G01*
X82490000Y-81070000D02*
G75*
G03*
X83240000Y-80320000I0J750000D01*
G01*
X83240000Y-100640000D02*
X83240000Y-99600000D01*
X121490000Y-73590500D02*
G75*
G03*
X120740000Y-74340510I0J-750000D01*
G01*
X100240000Y-101167503D02*
X100240000Y-111187503D01*
X83240000Y-84360000D02*
G75*
G03*
X82490000Y-83610000I-750000J0D01*
G01*
X71240000Y-111550000D02*
X82490000Y-111550000D01*
X70490000Y-72700000D02*
X70490000Y-71660000D01*
X83240000Y-119920000D02*
G75*
G03*
X82490000Y-119170000I-750000J0D01*
G01*
X121490000Y-104070500D02*
G75*
G03*
X120740000Y-104820510I0J-750000D01*
G01*
X120740000Y-94660510D02*
X120740000Y-100780510D01*
X83240000Y-115880000D02*
X83240000Y-114840000D01*
X131240000Y-119310500D02*
G75*
G03*
X131990000Y-118560510I0J750000D01*
G01*
X100240000Y-111187503D02*
G75*
G03*
X102240000Y-111187503I1000000J0D01*
G01*
X71240000Y-101390000D02*
G75*
G03*
X70490000Y-102140000I0J-750000D01*
G01*
X83990000Y-68370000D02*
G75*
G03*
X83240000Y-69120000I0J-750000D01*
G01*
X70490000Y-108260000D02*
X70490000Y-107220000D01*
X131989990Y-71800510D02*
G75*
G03*
X131240000Y-71050510I-749990J10D01*
G01*
X120739990Y-90620510D02*
G75*
G03*
X121490000Y-91370510I750010J10D01*
G01*
X71240000Y-70910000D02*
G75*
G03*
X70490000Y-71660000I0J-750000D01*
G01*
X83240000Y-85400000D02*
X83240000Y-84360000D01*
X120739990Y-85540510D02*
G75*
G03*
X121490000Y-86290510I750010J10D01*
G01*
X71240000Y-91230000D02*
G75*
G03*
X70490000Y-91980000I0J-750000D01*
G01*
X121490000Y-88830500D02*
G75*
G03*
X120740000Y-89580510I0J-750000D01*
G01*
X71240000Y-96310000D02*
G75*
G03*
X70490000Y-97060000I0J-750000D01*
G01*
X70490000Y-98100000D02*
X70490000Y-97060000D01*
X70490000Y-93020000D02*
X70490000Y-91980000D01*
X83240000Y-74200000D02*
G75*
G03*
X82490000Y-73450000I-750000J0D01*
G01*
X82490000Y-114090000D02*
X71240000Y-114090000D01*
X70490000Y-93020000D02*
G75*
G03*
X71240000Y-93770000I750000J0D01*
G01*
X131240000Y-124390500D02*
G75*
G03*
X131990000Y-123640510I0J750000D01*
G01*
X121490000Y-121850510D02*
X131240000Y-121850510D01*
X70490000Y-72700000D02*
G75*
G03*
X71240000Y-73450000I750000J0D01*
G01*
X83240000Y-105720000D02*
X83240000Y-104680000D01*
X102240000Y-69120000D02*
X102240000Y-67300510D01*
X120739990Y-121100510D02*
G75*
G03*
X121490000Y-121850510I750010J10D01*
G01*
X71240000Y-96310000D02*
X82490000Y-96310000D01*
X71240000Y-81070000D02*
G75*
G03*
X70490000Y-81820000I0J-750000D01*
G01*
X120740000Y-89580510D02*
X120740000Y-90620510D01*
X83240000Y-99600000D02*
G75*
G03*
X82490000Y-98850000I-750000J0D01*
G01*
X82490000Y-98850000D02*
X71240000Y-98850000D01*
X100240000Y-83140000D02*
G75*
G03*
X102240000Y-83140000I1000000J0D01*
G01*
X119990000Y-134390510D02*
X102990000Y-134390510D01*
X82490000Y-116630000D02*
G75*
G03*
X83240000Y-115880000I0J750000D01*
G01*
X71240000Y-81070000D02*
X82490000Y-81070000D01*
X71240000Y-70910000D02*
X82490000Y-70910000D01*
X83240000Y-75240000D02*
X83240000Y-74200000D01*
X102240000Y-133640510D02*
X102240000Y-129207503D01*
X119990000Y-134390500D02*
G75*
G03*
X120740000Y-133640510I0J750000D01*
G01*
X131240000Y-104070500D02*
G75*
G03*
X131990000Y-103320510I0J750000D01*
G01*
X102240000Y-87140000D02*
G75*
G03*
X100240000Y-87140000I-1000000J0D01*
G01*
X83240000Y-94520000D02*
G75*
G03*
X82490000Y-93770000I-750000J0D01*
G01*
X102240000Y-115187503D02*
G75*
G03*
X100240000Y-115187503I-1000000J0D01*
G01*
X100240000Y-125207503D02*
G75*
G03*
X102240000Y-125207503I1000000J0D01*
G01*
X120740000Y-109900510D02*
X120740000Y-116020510D01*
X99490000Y-129957500D02*
G75*
G03*
X100240000Y-129207503I0J750000D01*
G01*
X120740000Y-74340510D02*
X120740000Y-75380510D01*
X131990000Y-71800510D02*
X131990000Y-72840510D01*
X121490000Y-101530510D02*
X131240000Y-101530510D01*
X102240000Y-83140000D02*
X102240000Y-73120000D01*
X83240000Y-129207503D02*
X83240000Y-119920000D01*
X82490000Y-96310000D02*
G75*
G03*
X83240000Y-95560000I0J750000D01*
G01*
X70490000Y-118420000D02*
X70490000Y-117380000D01*
X83240000Y-90480000D02*
X83240000Y-89440000D01*
X131990000Y-107360510D02*
X131990000Y-108400510D01*
X102239990Y-133640510D02*
G75*
G03*
X102990000Y-134390510I750010J10D01*
G01*
X121490000Y-76130510D02*
X131240000Y-76130510D01*
X131240000Y-124390510D02*
X121490000Y-124390510D01*
X131989990Y-87040510D02*
G75*
G03*
X131240000Y-86290510I-749990J10D01*
G01*
X82490000Y-101390000D02*
G75*
G03*
X83240000Y-100640000I0J750000D01*
G01*
X83240000Y-79280000D02*
G75*
G03*
X82490000Y-78530000I-750000J0D01*
G01*
X83990000Y-68370000D02*
X99490000Y-68370000D01*
X131240000Y-88830500D02*
G75*
G03*
X131990000Y-88080510I0J750000D01*
G01*
X71240000Y-106470000D02*
X82490000Y-106470000D01*
X131990000Y-102280510D02*
X131990000Y-103320510D01*
X131240000Y-73590500D02*
G75*
G03*
X131990000Y-72840510I0J750000D01*
G01*
X131240000Y-109150500D02*
G75*
G03*
X131990000Y-108400510I0J750000D01*
G01*
X121490000Y-124390500D02*
G75*
G03*
X120740000Y-125140510I0J-750000D01*
G01*
X131989990Y-76880510D02*
G75*
G03*
X131240000Y-76130510I-749990J10D01*
G01*
X83240000Y-95560000D02*
X83240000Y-94520000D01*
X121490000Y-91370510D02*
X131240000Y-91370510D01*
X102990000Y-66550510D02*
X119990000Y-66550510D01*
X131240000Y-78670510D02*
X121490000Y-78670510D01*
X82490000Y-111550000D02*
G75*
G03*
X83240000Y-110800000I0J750000D01*
G01*
X131990000Y-117520510D02*
X131990000Y-118560510D01*
X121490000Y-106610510D02*
X131240000Y-106610510D01*
X71240000Y-91230000D02*
X82490000Y-91230000D01*
X82490000Y-88690000D02*
X71240000Y-88690000D01*
X100240000Y-97160000D02*
G75*
G03*
X102240000Y-97160000I1000000J0D01*
G01*
X121490000Y-71050510D02*
X131240000Y-71050510D01*
X120740000Y-125140510D02*
X120740000Y-133640510D01*
M02*
