<svg id="Layer_1" data-name="Layer 1" xmlns="http://www.w3.org/2000/svg" viewBox="0 0 253 253"><defs><style>.cls-1{fill:#008f96;}.cls-2{fill:#96c941;}.cls-3{fill:none;stroke:#231f20;stroke-miterlimit:10;stroke-width:0.25px;}</style></defs><title>Volodyne- VVC - LOGO-01</title><path class="cls-1" d="M136.61,155.25l.76-1.17c.12-.26.24-.53.35-.8L212.81,28.12a19.56,19.56,0,0,1,17.61-10.34c10.7,0,19.38,8,19.38,17.76a16.39,16.39,0,0,1-1.47,6.81l-2,3.33L147.89,209.76,142.32,219l-1.08,1.81-.08.13a18.78,18.78,0,0,1-30.6,0,1,1,0,0,0-.09-.13L109.39,219l-5.56-9.26L6.34,47.27,4.67,44.5A16.4,16.4,0,0,1,3,37.34c0-9.82,8.7-17.77,19.44-17.77a20.1,20.1,0,0,1,15.59,7.14l0,.05L40.61,31l73.7,122.82a10.64,10.64,0,0,0,1.45,2.42,13.13,13.13,0,0,0,19.94.42"/><path class="cls-2" d="M151.68,121.36a3.54,3.54,0,0,1-2.94,3.49,3,3,0,0,1-.68.07H148a3.05,3.05,0,0,1-.52,0,3.48,3.48,0,0,0-.41-.1l-.3-.12a1.43,1.43,0,0,1-.28-.13c-.19-.14-.38-.25-.58-.37a1.46,1.46,0,0,1-.21-.16,4.67,4.67,0,0,1-.45-.44,2.35,2.35,0,0,0,.43.46,39.17,39.17,0,0,0-38.93.24,1.44,1.44,0,0,1-.31.19,3.47,3.47,0,0,1-1.79.48,3.53,3.53,0,0,1-3.57-3.5,3.42,3.42,0,0,1,.42-1.62s0,0,0,0c.15-.23.33-.47.5-.7,5.7-7.89,14.51-13,24.38-13s18.54,5,24.23,12.75c0,0,0,0,0,0l.73,1,0,.1A3.72,3.72,0,0,1,151.68,121.36Z"/><path class="cls-1" d="M161.37,87.35a4.5,4.5,0,0,1-4.07,4.21,4.16,4.16,0,0,1-.94.09h-.14a3.51,3.51,0,0,1-.72-.07,5.78,5.78,0,0,0-.57-.12c-.15,0-.27-.09-.41-.14a1.61,1.61,0,0,1-.38-.16c-.27-.16-.53-.3-.82-.44a2.31,2.31,0,0,1-.28-.19,5.43,5.43,0,0,1-.63-.54,3.53,3.53,0,0,0,.6.56,58,58,0,0,0-26.65-6.12,57.9,57.9,0,0,0-27.17,6.4,1.52,1.52,0,0,1-.43.24,5.39,5.39,0,0,1-2.47.58c-2.73,0-4.93-1.89-4.93-4.23a3.74,3.74,0,0,1,.58-2s0,0,0,0q.33-.42.69-.84a44.13,44.13,0,0,1,67.21-.25l0,0c.33.4.67.82,1,1.24a.3.3,0,0,1,.07.11A4,4,0,0,1,161.37,87.35Z"/><path class="cls-2" d="M167.87,54.67c0,2.32-2.08,4.25-4.83,4.63a5,5,0,0,1-1.11.11h-.17a5,5,0,0,1-.85-.08c-.23,0-.45-.1-.68-.13l-.48-.15a3.14,3.14,0,0,1-.46-.18,9.6,9.6,0,0,0-1-.49,2.09,2.09,0,0,1-.34-.21,7.09,7.09,0,0,1-.74-.59,3.85,3.85,0,0,0,.71.62c-8.69-4.23-19.64-6.75-31.6-6.75-12.2,0-23.42,2.65-32.22,7.06a1.86,1.86,0,0,1-.51.25,6.56,6.56,0,0,1-2.92.65c-3.24,0-5.85-2.09-5.85-4.66a4,4,0,0,1,.68-2.17s0,0,0,0c.26-.31.54-.62.82-.93,9.34-10.5,23.79-17.25,40-17.25s30.38,6.62,39.72,17c0,0,0,0,.06,0,.39.43.79.9,1.19,1.36a.74.74,0,0,1,.08.13A4,4,0,0,1,167.87,54.67Z"/><line class="cls-3" x1="135.24" y1="163.27" x2="136.06" y2="162.03"/></svg>