<svg id="lettre" xmlns="http://www.w3.org/2000/svg" viewBox="0 0 840 600"><title>CE [Converted]</title><path d="M652.5,691V600.37a210.51,210.51,0,0,1-30,2.13c-100.54,0-184.57-70.64-205.17-165H592.5v-90H417.33c20.6-94.36,104.63-165,205.17-165a212,212,0,0,1,30,2.12V94q-14.81-1.47-30-1.48c-165.69,0-300,134.31-300,300s134.31,300,300,300Q637.69,692.5,652.5,691Z" transform="translate(187.5 -92.5)"/><path d="M-187.5,392.5c0,165.69,134.31,300,300,300a304.66,304.66,0,0,0,32-1.68V600.08a211,211,0,0,1-32,2.42c-116,0-210-94-210-210s94-210,210-210a211,211,0,0,1,32,2.42V94.18a304.66,304.66,0,0,0-32-1.68C-53.19,92.5-187.5,226.81-187.5,392.5Z" transform="translate(187.5 -92.5)"/></svg>