M48
; DRILL file {KiCad 7.0.10} date Sun Jul 21 08:04:51 2024
; FORMAT={-:-/ absolute / metric / decimal}
; #@! TF.CreationDate,2024-07-21T08:04:51-04:00
; #@! TF.GenerationSoftware,Kicad,Pcbnew,7.0.10
; #@! TF.FileFunction,Plated,1,2,PTH
FMAT,2
METRIC
; #@! TA.AperFunction,Plated,PTH,ViaDrill
T1C0.400
; #@! TA.AperFunction,Plated,PTH,ComponentDrill
T2C0.800
; #@! TA.AperFunction,Plated,PTH,ComponentDrill
T3C1.245
; #@! TA.AperFunction,Plated,PTH,ComponentDrill
T4C1.300
%
G90
G05
T1
X140.208Y-87.376
X140.335Y-118.11
X140.335Y-123.19
X140.335Y-128.27
X140.462Y-113.03
X140.589Y-92.71
X140.716Y-97.79
X140.716Y-102.87
X140.716Y-107.95
X141.732Y-123.19
X141.732Y-128.27
X141.859Y-87.376
X142.113Y-113.03
X142.113Y-118.11
X142.24Y-97.79
X142.367Y-92.71
X142.367Y-107.95
X142.494Y-102.87
X143.129Y-128.27
X143.256Y-123.19
X143.637Y-87.376
X143.637Y-113.03
X143.637Y-118.11
X143.891Y-97.79
X143.891Y-107.95
X144.145Y-92.71
X144.145Y-102.87
X150.622Y-125.222
X150.876Y-120.65
X151.892Y-120.65
X152.146Y-110.617
X153.289Y-110.617
X156.718Y-111.633
X159.766Y-113.03
T2
X145.669Y-85.14
X145.669Y-90.22
X145.669Y-95.377
X145.669Y-100.457
X145.669Y-110.617
X145.669Y-115.697
X145.669Y-120.65
X145.669Y-125.73
T3
X149.352Y-135.763
X151.892Y-135.763
X154.432Y-135.763
X156.972Y-135.763
T4
X153.289Y-82.423
X153.289Y-87.503
X153.289Y-92.583
X153.289Y-97.663
X153.289Y-102.743
X153.289Y-107.823
X153.289Y-112.903
X153.289Y-117.983
X153.289Y-123.063
X153.289Y-128.143
M30
