%TF.GenerationSoftware,KiCad,Pcbnew,7.0.10*%
%TF.CreationDate,2024-07-21T08:04:53-04:00*%
%TF.ProjectId,12.1.1 - PLC Connector,31322e31-2e31-4202-9d20-504c4320436f,rev?*%
%TF.SameCoordinates,Original*%
%TF.FileFunction,Copper,L1,Top*%
%TF.FilePolarity,Positive*%
%FSLAX46Y46*%
G04 Gerber Fmt 4.6, Leading zero omitted, Abs format (unit mm)*
G04 Created by KiCad (PCBNEW 7.0.10) date 2024-07-21 08:04:53*
%MOMM*%
%LPD*%
G01*
G04 APERTURE LIST*
G04 Aperture macros list*
%AMRoundRect*
0 Rectangle with rounded corners*
0 $1 Rounding radius*
0 $2 $3 $4 $5 $6 $7 $8 $9 X,Y pos of 4 corners*
0 Add a 4 corners polygon primitive as box body*
4,1,4,$2,$3,$4,$5,$6,$7,$8,$9,$2,$3,0*
0 Add four circle primitives for the rounded corners*
1,1,$1+$1,$2,$3*
1,1,$1+$1,$4,$5*
1,1,$1+$1,$6,$7*
1,1,$1+$1,$8,$9*
0 Add four rect primitives between the rounded corners*
20,1,$1+$1,$2,$3,$4,$5,0*
20,1,$1+$1,$4,$5,$6,$7,0*
20,1,$1+$1,$6,$7,$8,$9,0*
20,1,$1+$1,$8,$9,$2,$3,0*%
G04 Aperture macros list end*
%TA.AperFunction,SMDPad,CuDef*%
%ADD10RoundRect,0.572500X-3.045750X-0.572500X3.045750X-0.572500X3.045750X0.572500X-3.045750X0.572500X0*%
%TD*%
%TA.AperFunction,ComponentPad*%
%ADD11R,1.950000X1.950000*%
%TD*%
%TA.AperFunction,ComponentPad*%
%ADD12C,1.950000*%
%TD*%
%TA.AperFunction,ComponentPad*%
%ADD13C,1.600000*%
%TD*%
%TA.AperFunction,ComponentPad*%
%ADD14O,1.600000X1.600000*%
%TD*%
%TA.AperFunction,ComponentPad*%
%ADD15C,1.752600*%
%TD*%
%TA.AperFunction,ViaPad*%
%ADD16C,0.800000*%
%TD*%
%TA.AperFunction,Conductor*%
%ADD17C,1.270000*%
%TD*%
%TA.AperFunction,Conductor*%
%ADD18C,1.016000*%
%TD*%
%TA.AperFunction,Conductor*%
%ADD19C,0.250000*%
%TD*%
G04 APERTURE END LIST*
D10*
%TO.P,J104,1,Pin_1*%
%TO.N,Net-(J104-Pin_1)*%
X135151345Y-118127303D03*
%TD*%
D11*
%TO.P,J124,1,1*%
%TO.N,Net-(J106-Pin_1)*%
X153289000Y-107823000D03*
D12*
%TO.P,J124,2,2*%
%TO.N,Net-(J107-Pin_1)*%
X153289000Y-102743000D03*
%TD*%
D10*
%TO.P,J106,1,Pin_1*%
%TO.N,Net-(J106-Pin_1)*%
X135163477Y-107967303D03*
%TD*%
D13*
%TO.P,R104,1*%
%TO.N,M*%
X145669000Y-85140000D03*
D14*
%TO.P,R104,2*%
%TO.N,Net-(J109-Pin_1)*%
X145669000Y-90220000D03*
%TD*%
D11*
%TO.P,J122,1,1*%
%TO.N,Net-(J104-Pin_1)*%
X153289000Y-117983000D03*
D12*
%TO.P,J122,2,2*%
%TO.N,Net-(J105-Pin_1)*%
X153289000Y-112903000D03*
%TD*%
D10*
%TO.P,J116,1,Pin_1*%
%TO.N,Net-(J108-Pin_1)*%
X135136683Y-97794563D03*
%TD*%
%TO.P,J115,1,Pin_1*%
%TO.N,Net-(J107-Pin_1)*%
X135122779Y-102890324D03*
%TD*%
D13*
%TO.P,R101,1*%
%TO.N,Net-(J102-Pin_1)*%
X145669000Y-125730000D03*
D14*
%TO.P,R101,2*%
%TO.N,M*%
X145669000Y-120650000D03*
%TD*%
D15*
%TO.P,J126,1,1*%
%TO.N,Net-(J107-Pin_1)*%
X149352000Y-135763000D03*
%TO.P,J126,2,2*%
%TO.N,Net-(J106-Pin_1)*%
X151892000Y-135763000D03*
%TO.P,J126,3,3*%
%TO.N,Net-(J105-Pin_1)*%
X154432000Y-135763000D03*
%TO.P,J126,4,4*%
%TO.N,Net-(J104-Pin_1)*%
X156972000Y-135763000D03*
%TD*%
D13*
%TO.P,R102,1*%
%TO.N,M*%
X145669000Y-110617000D03*
D14*
%TO.P,R102,2*%
%TO.N,Net-(J103-Pin_1)*%
X145669000Y-115697000D03*
%TD*%
D13*
%TO.P,R103,1*%
%TO.N,Net-(J108-Pin_1)*%
X145669000Y-95377000D03*
D14*
%TO.P,R103,2*%
%TO.N,M*%
X145669000Y-100457000D03*
%TD*%
D10*
%TO.P,J111,1,Pin_1*%
%TO.N,Net-(J103-Pin_1)*%
X135137522Y-123198869D03*
%TD*%
%TO.P,J110,1,Pin_1*%
%TO.N,Net-(J102-Pin_1)*%
X135154366Y-128271547D03*
%TD*%
D11*
%TO.P,J125,1,1*%
%TO.N,Net-(J108-Pin_1)*%
X153289000Y-97663000D03*
D12*
%TO.P,J125,2,2*%
%TO.N,Net-(J109-Pin_1)*%
X153289000Y-92583000D03*
%TD*%
D10*
%TO.P,J120,1,Pin_1*%
%TO.N,M*%
X135177543Y-87647303D03*
%TD*%
D11*
%TO.P,J123,1,1*%
%TO.N,M*%
X153289000Y-87503000D03*
D12*
%TO.P,J123,2,2*%
%TO.N,Net-(J119-Pin_1)*%
X153289000Y-82423000D03*
%TD*%
D11*
%TO.P,J118,1,1*%
%TO.N,Net-(J102-Pin_1)*%
X153289000Y-128143000D03*
D12*
%TO.P,J118,2,2*%
%TO.N,Net-(J103-Pin_1)*%
X153289000Y-123063000D03*
%TD*%
D10*
%TO.P,J121,1,Pin_1*%
%TO.N,Net-(J119-Pin_1)*%
X135132736Y-82570977D03*
%TD*%
%TO.P,J117,1,Pin_1*%
%TO.N,Net-(J109-Pin_1)*%
X135154679Y-92741803D03*
%TD*%
%TO.P,J113,1,Pin_1*%
%TO.N,Net-(J105-Pin_1)*%
X135134275Y-113048173D03*
%TD*%
D16*
%TO.N,Net-(J102-Pin_1)*%
X143129000Y-128270000D03*
X140335000Y-128270000D03*
X141732000Y-128270000D03*
%TO.N,Net-(J103-Pin_1)*%
X140335000Y-123190000D03*
X143256000Y-123190000D03*
X141732000Y-123190000D03*
%TO.N,Net-(J104-Pin_1)*%
X143637000Y-118110000D03*
X140335000Y-118110000D03*
X150621900Y-125222000D03*
X142113000Y-118110000D03*
%TO.N,Net-(J105-Pin_1)*%
X142113000Y-113030000D03*
X140462000Y-113030000D03*
X143637000Y-113030000D03*
%TO.N,Net-(J106-Pin_1)*%
X156718004Y-111633000D03*
X140716000Y-107950000D03*
X159766000Y-113030000D03*
X143891000Y-107950000D03*
X142367000Y-107950000D03*
%TO.N,Net-(J107-Pin_1)*%
X140716000Y-102870000D03*
X142493998Y-102870000D03*
X144145000Y-102870000D03*
%TO.N,Net-(J108-Pin_1)*%
X142240000Y-97790000D03*
X143891000Y-97790000D03*
X140716000Y-97790000D03*
%TO.N,Net-(J109-Pin_1)*%
X144145000Y-92710000D03*
X140589000Y-92710000D03*
X142367000Y-92710000D03*
%TO.N,M*%
X153289000Y-110617000D03*
X143637000Y-87376000D03*
X150876002Y-120650000D03*
X140208000Y-87376000D03*
X152146000Y-110617000D03*
X141859000Y-87376000D03*
X151892000Y-120650000D03*
%TD*%
D17*
%TO.N,Net-(J102-Pin_1)*%
X153162000Y-128270000D02*
X135155913Y-128270000D01*
X153289000Y-128143000D02*
X153162000Y-128270000D01*
X135155913Y-128270000D02*
X135154366Y-128271547D01*
%TO.N,Net-(J103-Pin_1)*%
X135146391Y-123190000D02*
X135137522Y-123198869D01*
X143764000Y-123190000D02*
X135146391Y-123190000D01*
%TO.N,Net-(J104-Pin_1)*%
X148971000Y-118110000D02*
X135168648Y-118110000D01*
X135159338Y-118135296D02*
X139954000Y-118135296D01*
D18*
X148971000Y-123571100D02*
X150621900Y-125222000D01*
D17*
X153289000Y-117983000D02*
X153162000Y-118110000D01*
X153162000Y-118110000D02*
X148971000Y-118110000D01*
X135168648Y-118110000D02*
X135151345Y-118127303D01*
X135151345Y-118127303D02*
X135159338Y-118135296D01*
D18*
X148971000Y-118110000D02*
X148971000Y-123571100D01*
D17*
%TO.N,Net-(J105-Pin_1)*%
X153162000Y-113030000D02*
X135152448Y-113030000D01*
X153289000Y-112903000D02*
X153162000Y-113030000D01*
X135152448Y-113030000D02*
X135134275Y-113048173D01*
%TO.N,Net-(J106-Pin_1)*%
X156718004Y-111252004D02*
X156718004Y-111633000D01*
X154432000Y-133223000D02*
X155829000Y-133223000D01*
X135163477Y-107967303D02*
X135168248Y-107972074D01*
X153162000Y-107950000D02*
X135180780Y-107950000D01*
X135168248Y-107972074D02*
X139954000Y-107972074D01*
X155829000Y-133223000D02*
X159766000Y-129286000D01*
X151892000Y-135763000D02*
X154432000Y-133223000D01*
X153289000Y-107823000D02*
X153162000Y-107950000D01*
X135180780Y-107950000D02*
X135163477Y-107967303D01*
X153289000Y-107823000D02*
X156718004Y-111252004D01*
X159766000Y-129286000D02*
X159766000Y-113030000D01*
%TO.N,Net-(J107-Pin_1)*%
X135143103Y-102870000D02*
X135122779Y-102890324D01*
X135122779Y-102890324D02*
X135122918Y-102890463D01*
X153289000Y-102743000D02*
X153162000Y-102870000D01*
X135122918Y-102890463D02*
X139954000Y-102890463D01*
D18*
X149352000Y-135763000D02*
X158188008Y-126926992D01*
X158188008Y-126926992D02*
X158188008Y-107642008D01*
X158188008Y-107642008D02*
X153289000Y-102743000D01*
D17*
X153162000Y-102870000D02*
X135143103Y-102870000D01*
%TO.N,Net-(J108-Pin_1)*%
X135141246Y-97790000D02*
X135136683Y-97794563D01*
X153289000Y-97663000D02*
X153162000Y-97790000D01*
X153162000Y-97790000D02*
X135141246Y-97790000D01*
%TO.N,Net-(J109-Pin_1)*%
X135186482Y-92710000D02*
X135154679Y-92741803D01*
X153289000Y-92583000D02*
X153162000Y-92710000D01*
X153162000Y-92710000D02*
X135186482Y-92710000D01*
%TO.N,Net-(J119-Pin_1)*%
X153141023Y-82570977D02*
X153289000Y-82423000D01*
X135132736Y-82570977D02*
X153141023Y-82570977D01*
%TO.N,M*%
X135464844Y-87360000D02*
X135177541Y-87647303D01*
X153146000Y-87360000D02*
X135464844Y-87360000D01*
D19*
X139969630Y-87630000D02*
X139952327Y-87647303D01*
X139952327Y-87647303D02*
X135177541Y-87647303D01*
D17*
X155099000Y-112153273D02*
X155099000Y-113652727D01*
X154994000Y-116068000D02*
X155099000Y-116173000D01*
X153289000Y-87503000D02*
X153146000Y-87360000D01*
X154994000Y-113757727D02*
X154994000Y-116068000D01*
X145669000Y-110617000D02*
X153562727Y-110617000D01*
X154242000Y-120650000D02*
X150876002Y-120650000D01*
X155099000Y-113652727D02*
X154994000Y-113757727D01*
X153562727Y-110617000D02*
X155099000Y-112153273D01*
X155099000Y-116173000D02*
X155099000Y-119793000D01*
X155099000Y-119793000D02*
X154242000Y-120650000D01*
%TD*%
M02*
