%TF.GenerationSoftware,KiCad,Pcbnew,7.0.10*%
%TF.CreationDate,2024-07-21T08:04:53-04:00*%
%TF.ProjectId,12.1.1 - PLC Connector,31322e31-2e31-4202-9d20-504c4320436f,rev?*%
%TF.SameCoordinates,Original*%
%TF.FileFunction,Profile,NP*%
%FSLAX46Y46*%
G04 Gerber Fmt 4.6, Leading zero omitted, Abs format (unit mm)*
G04 Created by KiCad (PCBNEW 7.0.10) date 2024-07-21 08:04:53*
%MOMM*%
%LPD*%
G01*
G04 APERTURE LIST*
%TA.AperFunction,Profile*%
%ADD10C,0.250000*%
%TD*%
G04 APERTURE END LIST*
D10*
X144136134Y-115062166D02*
G75*
G03*
X143386145Y-114312166I-750034J-34D01*
G01*
X132136145Y-81292245D02*
G75*
G03*
X131386145Y-82042166I-45J-749955D01*
G01*
X144136145Y-126262166D02*
X144136145Y-125222166D01*
X144136145Y-100862166D02*
X144136145Y-99822166D01*
X132136145Y-86372166D02*
X143386145Y-86372166D01*
X160386145Y-140092245D02*
G75*
G03*
X161136145Y-139342166I-45J750045D01*
G01*
X144136145Y-116102166D02*
X144136145Y-115062166D01*
X131386134Y-93242166D02*
G75*
G03*
X132136145Y-93992166I749966J-34D01*
G01*
X144136145Y-139342166D02*
X144136145Y-130302166D01*
X132136145Y-96532245D02*
G75*
G03*
X131386145Y-97282166I-45J-749955D01*
G01*
X131386134Y-108482166D02*
G75*
G03*
X132136145Y-109232166I749966J-34D01*
G01*
X131386145Y-88162166D02*
X131386145Y-87122166D01*
X144136134Y-94742166D02*
G75*
G03*
X143386145Y-93992166I-750034J-34D01*
G01*
X132136145Y-111772166D02*
X143386145Y-111772166D01*
X131386145Y-98322166D02*
X131386145Y-97282166D01*
X143386145Y-88912166D02*
X132136145Y-88912166D01*
X143386145Y-121932245D02*
G75*
G03*
X144136145Y-121182166I-45J750045D01*
G01*
X132136145Y-91452166D02*
X143386145Y-91452166D01*
X144886145Y-78752166D02*
X160386145Y-78752166D01*
X132136145Y-106692245D02*
G75*
G03*
X131386145Y-107442166I-45J-749955D01*
G01*
X144136145Y-111022166D02*
X144136145Y-109982166D01*
X144136134Y-139342166D02*
G75*
G03*
X144886145Y-140092166I749966J-34D01*
G01*
X131386134Y-83082166D02*
G75*
G03*
X132136145Y-83832166I749966J-34D01*
G01*
X143386145Y-116852245D02*
G75*
G03*
X144136145Y-116102166I-45J750045D01*
G01*
X132136145Y-121932166D02*
X143386145Y-121932166D01*
X160386145Y-140092166D02*
X144886145Y-140092166D01*
X132136145Y-106692166D02*
X143386145Y-106692166D01*
X143386145Y-101612245D02*
G75*
G03*
X144136145Y-100862166I-45J750045D01*
G01*
X144136134Y-89662166D02*
G75*
G03*
X143386145Y-88912166I-750034J-34D01*
G01*
X143386145Y-109232166D02*
X132136145Y-109232166D01*
X144136145Y-85622166D02*
X144136145Y-84582166D01*
X143386145Y-106692245D02*
G75*
G03*
X144136145Y-105942166I-45J750045D01*
G01*
X131386145Y-128802166D02*
X131386145Y-127762166D01*
X144136145Y-80542166D02*
X144136145Y-79502166D01*
X131386145Y-123722166D02*
X131386145Y-122682166D01*
X161136145Y-79502166D02*
X161136145Y-139342166D01*
X144136134Y-84582166D02*
G75*
G03*
X143386145Y-83832166I-750034J-34D01*
G01*
X131386145Y-103402166D02*
X131386145Y-102362166D01*
X131386145Y-108482166D02*
X131386145Y-107442166D01*
X131386134Y-123722166D02*
G75*
G03*
X132136145Y-124472166I749966J-34D01*
G01*
X132136145Y-127012166D02*
X143386145Y-127012166D01*
X143386145Y-124472166D02*
X132136145Y-124472166D01*
X131386134Y-88162166D02*
G75*
G03*
X132136145Y-88912166I749966J-34D01*
G01*
X144136145Y-90702166D02*
X144136145Y-89662166D01*
X143386145Y-91452245D02*
G75*
G03*
X144136145Y-90702166I-45J750045D01*
G01*
X131386134Y-103402166D02*
G75*
G03*
X132136145Y-104152166I749966J-34D01*
G01*
X131386145Y-118642166D02*
X131386145Y-117602166D01*
X144136134Y-125222166D02*
G75*
G03*
X143386145Y-124472166I-750034J-34D01*
G01*
X144136134Y-99822166D02*
G75*
G03*
X143386145Y-99072166I-750034J-34D01*
G01*
X144886145Y-78752245D02*
G75*
G03*
X144136145Y-79502166I-45J-749955D01*
G01*
X132136145Y-91452245D02*
G75*
G03*
X131386145Y-92202166I-45J-749955D01*
G01*
X161136134Y-79502166D02*
G75*
G03*
X160386145Y-78752166I-750034J-34D01*
G01*
X144136134Y-120142166D02*
G75*
G03*
X143386145Y-119392166I-750034J-34D01*
G01*
X131386134Y-128802166D02*
G75*
G03*
X132136145Y-129552166I749966J-34D01*
G01*
X131386134Y-118642166D02*
G75*
G03*
X132136145Y-119392166I749966J-34D01*
G01*
X132136145Y-101612245D02*
G75*
G03*
X131386145Y-102362166I-45J-749955D01*
G01*
X132136145Y-96532166D02*
X143386145Y-96532166D01*
X131386145Y-113562166D02*
X131386145Y-112522166D01*
X132136145Y-127012245D02*
G75*
G03*
X131386145Y-127762166I-45J-749955D01*
G01*
X143386145Y-81292245D02*
G75*
G03*
X144136145Y-80542166I-45J750045D01*
G01*
X132136145Y-81292166D02*
X143386145Y-81292166D01*
X131386145Y-93242166D02*
X131386145Y-92202166D01*
X132136145Y-111772245D02*
G75*
G03*
X131386145Y-112522166I-45J-749955D01*
G01*
X143386145Y-93992166D02*
X132136145Y-93992166D01*
X132136145Y-86372245D02*
G75*
G03*
X131386145Y-87122166I-45J-749955D01*
G01*
X143386145Y-127012245D02*
G75*
G03*
X144136145Y-126262166I-45J750045D01*
G01*
X143386145Y-119392166D02*
X132136145Y-119392166D01*
X143386145Y-96532245D02*
G75*
G03*
X144136145Y-95782166I-45J750045D01*
G01*
X132136145Y-101612166D02*
X143386145Y-101612166D01*
X143386145Y-86372245D02*
G75*
G03*
X144136145Y-85622166I-45J750045D01*
G01*
X132136145Y-116852245D02*
G75*
G03*
X131386145Y-117602166I-45J-749955D01*
G01*
X131386145Y-83082166D02*
X131386145Y-82042166D01*
X132136145Y-116852166D02*
X143386145Y-116852166D01*
X144136145Y-105942166D02*
X144136145Y-104902166D01*
X144136134Y-104902166D02*
G75*
G03*
X143386145Y-104152166I-750034J-34D01*
G01*
X132136145Y-121932245D02*
G75*
G03*
X131386145Y-122682166I-45J-749955D01*
G01*
X143386145Y-104152166D02*
X132136145Y-104152166D01*
X144136145Y-121182166D02*
X144136145Y-120142166D01*
X144136145Y-95782166D02*
X144136145Y-94742166D01*
X143386145Y-111772245D02*
G75*
G03*
X144136145Y-111022166I-45J750045D01*
G01*
X131386134Y-98322166D02*
G75*
G03*
X132136145Y-99072166I749966J-34D01*
G01*
X131386134Y-113562166D02*
G75*
G03*
X132136145Y-114312166I749966J-34D01*
G01*
X144136134Y-130302166D02*
G75*
G03*
X143386145Y-129552166I-750034J-34D01*
G01*
X143386145Y-83832166D02*
X132136145Y-83832166D01*
X144136134Y-109982166D02*
G75*
G03*
X143386145Y-109232166I-750034J-34D01*
G01*
X143386145Y-114312166D02*
X132136145Y-114312166D01*
X143386145Y-129552166D02*
X132136145Y-129552166D01*
X143386145Y-99072166D02*
X132136145Y-99072166D01*
M02*
