M48
; DRILL file {KiCad 7.0.10} date Sun Jul 21 07:16:59 2024
; FORMAT={-:-/ absolute / metric / decimal}
; #@! TF.CreationDate,2024-07-21T07:16:59-04:00
; #@! TF.GenerationSoftware,Kicad,Pcbnew,7.0.10
; #@! TF.FileFunction,Plated,1,2,PTH
FMAT,2
METRIC
; #@! TA.AperFunction,Plated,PTH,ViaDrill
T1C0.400
; #@! TA.AperFunction,Plated,PTH,ComponentDrill
T2C0.991
; #@! TA.AperFunction,Plated,PTH,ComponentDrill
T3C1.300
%
G90
G05
T1
X163.034Y-54.846
X163.332Y-59.928
X163.43Y-75.12
X163.47Y-105.66
X163.57Y-100.59
X163.58Y-70.13
X163.69Y-90.41
X163.86Y-85.3
X164.464Y-54.846
X164.666Y-59.912
X164.86Y-75.1
X164.88Y-100.57
X164.88Y-105.66
X164.93Y-90.43
X165.0Y-70.1
X165.04Y-85.3
X165.9Y-59.93
X166.07Y-105.69
X166.1Y-90.4
X166.1Y-100.579
X166.186Y-54.846
X166.2Y-85.3
X166.3Y-70.08
X166.3Y-75.1
X168.783Y-73.52
X168.99Y-58.41
X168.99Y-103.98
X169.037Y-87.757
X169.2Y-74.58
X170.688Y-87.757
X170.942Y-58.42
X171.323Y-104.013
X172.845Y-66.296
X177.419Y-110.236
X177.806Y-53.854
X178.181Y-58.338
X178.181Y-109.474
X179.456Y-64.135
X179.517Y-65.72
X180.467Y-99.06
X180.975Y-51.181
X181.356Y-98.298
X181.483Y-78.359
X181.483Y-79.756
X181.483Y-97.155
X183.261Y-83.439
T2
X172.212Y-46.99
X174.712Y-46.99
X177.212Y-46.99
X179.712Y-46.99
T3
X175.768Y-54.102
X175.768Y-59.182
X175.768Y-69.85
X175.768Y-74.93
X175.768Y-85.598
X175.768Y-90.678
X175.768Y-101.346
X175.768Y-106.426
X175.768Y-111.506
M30
