%TF.GenerationSoftware,KiCad,Pcbnew,7.0.10*%
%TF.CreationDate,2024-07-21T07:16:58-04:00*%
%TF.ProjectId,12.2.1 - PLC Connector,31322e32-2e31-4202-9d20-504c4320436f,rev?*%
%TF.SameCoordinates,Original*%
%TF.FileFunction,Legend,Bot*%
%TF.FilePolarity,Positive*%
%FSLAX46Y46*%
G04 Gerber Fmt 4.6, Leading zero omitted, Abs format (unit mm)*
G04 Created by KiCad (PCBNEW 7.0.10) date 2024-07-21 07:16:58*
%MOMM*%
%LPD*%
G01*
G04 APERTURE LIST*
%ADD10C,0.310000*%
%ADD11C,0.000000*%
%ADD12C,0.004960*%
%ADD13C,0.150000*%
%ADD14C,0.508000*%
G04 APERTURE END LIST*
D10*
X178141566Y-45759951D02*
X178260614Y-45700427D01*
X178260614Y-45700427D02*
X178379661Y-45581380D01*
X178379661Y-45581380D02*
X178558233Y-45402808D01*
X178558233Y-45402808D02*
X178677280Y-45343284D01*
X178677280Y-45343284D02*
X178796328Y-45343284D01*
X178736804Y-45640903D02*
X178855852Y-45581380D01*
X178855852Y-45581380D02*
X178974899Y-45462332D01*
X178974899Y-45462332D02*
X179034423Y-45224237D01*
X179034423Y-45224237D02*
X179034423Y-44807570D01*
X179034423Y-44807570D02*
X178974899Y-44569475D01*
X178974899Y-44569475D02*
X178855852Y-44450427D01*
X178855852Y-44450427D02*
X178736804Y-44390903D01*
X178736804Y-44390903D02*
X178498709Y-44390903D01*
X178498709Y-44390903D02*
X178379661Y-44450427D01*
X178379661Y-44450427D02*
X178260614Y-44569475D01*
X178260614Y-44569475D02*
X178201090Y-44807570D01*
X178201090Y-44807570D02*
X178201090Y-45224237D01*
X178201090Y-45224237D02*
X178260614Y-45462332D01*
X178260614Y-45462332D02*
X178379661Y-45581380D01*
X178379661Y-45581380D02*
X178498709Y-45640903D01*
X178498709Y-45640903D02*
X178736804Y-45640903D01*
X177665375Y-45164713D02*
X176712995Y-45164713D01*
X175879661Y-44390903D02*
X175641566Y-44390903D01*
X175641566Y-44390903D02*
X175522518Y-44450427D01*
X175522518Y-44450427D02*
X175403471Y-44569475D01*
X175403471Y-44569475D02*
X175343947Y-44807570D01*
X175343947Y-44807570D02*
X175343947Y-45224237D01*
X175343947Y-45224237D02*
X175403471Y-45462332D01*
X175403471Y-45462332D02*
X175522518Y-45581380D01*
X175522518Y-45581380D02*
X175641566Y-45640903D01*
X175641566Y-45640903D02*
X175879661Y-45640903D01*
X175879661Y-45640903D02*
X175998709Y-45581380D01*
X175998709Y-45581380D02*
X176117756Y-45462332D01*
X176117756Y-45462332D02*
X176177280Y-45224237D01*
X176177280Y-45224237D02*
X176177280Y-44807570D01*
X176177280Y-44807570D02*
X176117756Y-44569475D01*
X176117756Y-44569475D02*
X175998709Y-44450427D01*
X175998709Y-44450427D02*
X175879661Y-44390903D01*
X174808232Y-44390903D02*
X174808232Y-45402808D01*
X174808232Y-45402808D02*
X174748709Y-45521856D01*
X174748709Y-45521856D02*
X174689185Y-45581380D01*
X174689185Y-45581380D02*
X174570137Y-45640903D01*
X174570137Y-45640903D02*
X174332042Y-45640903D01*
X174332042Y-45640903D02*
X174212994Y-45581380D01*
X174212994Y-45581380D02*
X174153471Y-45521856D01*
X174153471Y-45521856D02*
X174093947Y-45402808D01*
X174093947Y-45402808D02*
X174093947Y-44390903D01*
X173677280Y-44390903D02*
X172962994Y-44390903D01*
X173320137Y-45640903D02*
X173320137Y-44390903D01*
D11*
G36*
X169118787Y-71901861D02*
G01*
X169123030Y-71902218D01*
X169127220Y-71902806D01*
X169131351Y-71903621D01*
X169135420Y-71904657D01*
X169139423Y-71905910D01*
X169143355Y-71907373D01*
X169147212Y-71909043D01*
X169150990Y-71910913D01*
X169154685Y-71912979D01*
X169158292Y-71915236D01*
X169161808Y-71917678D01*
X169165228Y-71920301D01*
X169168547Y-71923099D01*
X169171763Y-71926067D01*
X169174869Y-71929200D01*
X169177863Y-71932493D01*
X169180740Y-71935940D01*
X169183496Y-71939538D01*
X169186126Y-71943279D01*
X169188627Y-71947160D01*
X169190993Y-71951176D01*
X169193222Y-71955320D01*
X169195308Y-71959589D01*
X169197248Y-71963976D01*
X169199037Y-71968477D01*
X169200672Y-71973087D01*
X169202147Y-71977800D01*
X169203458Y-71982612D01*
X169204603Y-71987517D01*
X169205575Y-71992510D01*
X169206371Y-71997586D01*
X169206913Y-72000307D01*
X169207378Y-72003041D01*
X169207767Y-72005785D01*
X169208079Y-72008539D01*
X169208314Y-72011300D01*
X169208471Y-72014067D01*
X169208551Y-72016839D01*
X169208554Y-72019613D01*
X169208554Y-72022986D01*
X169208514Y-72025107D01*
X169208428Y-72027226D01*
X169208297Y-72029342D01*
X169208121Y-72031454D01*
X169207900Y-72033562D01*
X169207634Y-72035665D01*
X169207323Y-72037762D01*
X169206967Y-72039853D01*
X169206944Y-72040707D01*
X169206880Y-72041557D01*
X169206780Y-72042402D01*
X169206647Y-72043246D01*
X169206488Y-72044086D01*
X169206307Y-72044925D01*
X169205900Y-72046600D01*
X169205041Y-72049955D01*
X169204846Y-72050798D01*
X169204669Y-72051644D01*
X169204514Y-72052494D01*
X169204387Y-72053347D01*
X169201410Y-72062872D01*
X169201043Y-72064043D01*
X169200653Y-72065206D01*
X169200240Y-72066360D01*
X169199804Y-72067507D01*
X169199346Y-72068644D01*
X169198866Y-72069772D01*
X169198363Y-72070891D01*
X169197838Y-72072000D01*
X169196498Y-72074418D01*
X169195192Y-72076854D01*
X169193923Y-72079309D01*
X169192689Y-72081781D01*
X169191491Y-72084271D01*
X169190329Y-72086779D01*
X169189204Y-72089303D01*
X169188115Y-72091844D01*
X169187665Y-72092730D01*
X169187195Y-72093604D01*
X169186704Y-72094467D01*
X169186193Y-72095317D01*
X169185661Y-72096155D01*
X169185110Y-72096980D01*
X169184539Y-72097792D01*
X169183948Y-72098591D01*
X169182593Y-72100511D01*
X169181206Y-72102407D01*
X169179788Y-72104280D01*
X169178339Y-72106129D01*
X169176860Y-72107953D01*
X169175350Y-72109753D01*
X169173810Y-72111527D01*
X169172240Y-72113276D01*
X169173108Y-72112486D01*
X169173963Y-72111684D01*
X169174806Y-72110869D01*
X169175636Y-72110041D01*
X169176453Y-72109201D01*
X169177257Y-72108349D01*
X169178047Y-72107485D01*
X169178824Y-72106608D01*
X169179588Y-72105720D01*
X169180338Y-72104821D01*
X169181074Y-72103909D01*
X169181796Y-72102987D01*
X169182504Y-72102053D01*
X169183198Y-72101108D01*
X169183878Y-72100152D01*
X169184543Y-72099186D01*
X169169206Y-72132038D01*
X169154688Y-72165906D01*
X169141012Y-72200751D01*
X169128202Y-72236539D01*
X169116282Y-72273232D01*
X169105275Y-72310795D01*
X169095204Y-72349191D01*
X169086093Y-72388384D01*
X169077966Y-72428337D01*
X169070847Y-72469014D01*
X169064758Y-72510379D01*
X169059723Y-72552396D01*
X169055766Y-72595027D01*
X169052910Y-72638237D01*
X169051180Y-72681990D01*
X169050598Y-72726249D01*
X169051210Y-72771406D01*
X169053028Y-72816066D01*
X169056028Y-72860187D01*
X169060182Y-72903726D01*
X169065465Y-72946642D01*
X169071851Y-72988893D01*
X169079315Y-73030437D01*
X169087830Y-73071232D01*
X169097370Y-73111237D01*
X169107910Y-73150409D01*
X169119424Y-73188706D01*
X169131886Y-73226088D01*
X169145270Y-73262511D01*
X169159550Y-73297935D01*
X169174700Y-73332316D01*
X169190695Y-73365614D01*
X169191094Y-73366199D01*
X169191482Y-73366791D01*
X169191859Y-73367390D01*
X169192224Y-73367996D01*
X169192576Y-73368608D01*
X169192918Y-73369227D01*
X169193247Y-73369852D01*
X169193564Y-73370484D01*
X169193869Y-73371121D01*
X169194161Y-73371764D01*
X169194442Y-73372413D01*
X169194710Y-73373067D01*
X169194965Y-73373727D01*
X169195208Y-73374391D01*
X169195438Y-73375060D01*
X169195656Y-73375734D01*
X169197237Y-73379142D01*
X169198718Y-73382588D01*
X169200097Y-73386071D01*
X169201374Y-73389589D01*
X169202549Y-73393139D01*
X169203620Y-73396720D01*
X169204588Y-73400328D01*
X169205452Y-73403961D01*
X169206211Y-73407618D01*
X169206865Y-73411296D01*
X169207413Y-73414993D01*
X169207856Y-73418706D01*
X169208192Y-73422433D01*
X169208420Y-73426173D01*
X169208541Y-73429922D01*
X169208554Y-73433678D01*
X169208434Y-73439668D01*
X169208076Y-73445577D01*
X169207487Y-73451399D01*
X169206672Y-73457126D01*
X169204390Y-73468266D01*
X169201277Y-73478941D01*
X169197379Y-73489092D01*
X169192742Y-73498663D01*
X169187415Y-73507595D01*
X169181443Y-73515831D01*
X169178229Y-73519671D01*
X169174873Y-73523314D01*
X169171378Y-73526755D01*
X169167752Y-73529986D01*
X169164000Y-73533000D01*
X169160128Y-73535790D01*
X169156141Y-73538348D01*
X169152046Y-73540667D01*
X169147848Y-73542740D01*
X169143554Y-73544561D01*
X169139168Y-73546121D01*
X169134698Y-73547413D01*
X169130148Y-73548431D01*
X169125525Y-73549167D01*
X169120834Y-73549614D01*
X169116082Y-73549764D01*
X169113208Y-73549668D01*
X169110346Y-73549468D01*
X169107498Y-73549165D01*
X169104668Y-73548761D01*
X169101857Y-73548255D01*
X169099070Y-73547650D01*
X169096307Y-73546945D01*
X169093573Y-73546142D01*
X169090869Y-73545241D01*
X169088198Y-73544243D01*
X169085563Y-73543150D01*
X169082967Y-73541961D01*
X169080412Y-73540678D01*
X169077901Y-73539301D01*
X169075437Y-73537832D01*
X169073021Y-73536270D01*
X169070714Y-73534318D01*
X169068408Y-73532333D01*
X169063794Y-73528283D01*
X169059180Y-73524160D01*
X169054567Y-73519999D01*
X169016386Y-73484075D01*
X168980036Y-73445872D01*
X168945605Y-73405488D01*
X168913180Y-73363019D01*
X168882847Y-73318563D01*
X168854695Y-73272217D01*
X168828810Y-73224079D01*
X168805279Y-73174246D01*
X168784191Y-73122815D01*
X168765631Y-73069885D01*
X168749687Y-73015551D01*
X168736446Y-72959912D01*
X168725996Y-72903065D01*
X168718424Y-72845107D01*
X168713817Y-72786136D01*
X168712262Y-72726249D01*
X168713787Y-72666424D01*
X168718309Y-72607629D01*
X168725743Y-72549945D01*
X168736006Y-72493454D01*
X168749016Y-72438235D01*
X168764689Y-72384371D01*
X168782942Y-72331942D01*
X168803692Y-72281029D01*
X168826856Y-72231714D01*
X168852350Y-72184078D01*
X168880092Y-72138202D01*
X168909999Y-72094166D01*
X168941986Y-72052053D01*
X168975972Y-72011942D01*
X169011873Y-71973916D01*
X169049606Y-71938055D01*
X169049606Y-71936864D01*
X169056139Y-71931026D01*
X169062876Y-71925132D01*
X169076593Y-71913250D01*
X169076897Y-71913023D01*
X169077207Y-71912803D01*
X169077522Y-71912592D01*
X169077842Y-71912389D01*
X169078167Y-71912195D01*
X169078498Y-71912009D01*
X169078833Y-71911831D01*
X169079173Y-71911662D01*
X169081219Y-71910564D01*
X169083294Y-71909528D01*
X169085395Y-71908554D01*
X169087522Y-71907643D01*
X169089673Y-71906795D01*
X169091845Y-71906010D01*
X169094039Y-71905289D01*
X169096253Y-71904633D01*
X169098484Y-71904041D01*
X169100733Y-71903514D01*
X169102996Y-71903053D01*
X169105274Y-71902657D01*
X169107564Y-71902328D01*
X169109865Y-71902065D01*
X169112176Y-71901869D01*
X169114495Y-71901741D01*
X169118787Y-71901861D01*
G37*
D12*
X171269526Y-72549242D02*
X171244920Y-72532971D01*
D13*
X170672000Y-79518000D02*
G75*
G03*
X168672000Y-79518000I-1000000J0D01*
G01*
X168672000Y-79518000D02*
G75*
G03*
X170672000Y-79518000I1000000J0D01*
G01*
D11*
G36*
X168743619Y-70276046D02*
G01*
X168752336Y-70276384D01*
X168761032Y-70276954D01*
X168769702Y-70277757D01*
X168778341Y-70278790D01*
X168786944Y-70280054D01*
X168795508Y-70281546D01*
X168804027Y-70283266D01*
X168812497Y-70285213D01*
X168820913Y-70287387D01*
X168829271Y-70289785D01*
X168837566Y-70292407D01*
X168845794Y-70295252D01*
X168853950Y-70298319D01*
X168862029Y-70301608D01*
X168870027Y-70305116D01*
X168936099Y-70344800D01*
X172192062Y-72298219D01*
X172375418Y-72408749D01*
X172411335Y-72430180D01*
X172413915Y-72431767D01*
X172431861Y-72445374D01*
X172448845Y-72459942D01*
X172464839Y-72475417D01*
X172479818Y-72491747D01*
X172493753Y-72508881D01*
X172506619Y-72526766D01*
X172518387Y-72545348D01*
X172529031Y-72564577D01*
X172538525Y-72584399D01*
X172546839Y-72604763D01*
X172553949Y-72625615D01*
X172559827Y-72646904D01*
X172564446Y-72668577D01*
X172567778Y-72690582D01*
X172569797Y-72712866D01*
X172570476Y-72735377D01*
X172569797Y-72757888D01*
X172567778Y-72780172D01*
X172564446Y-72802176D01*
X172559827Y-72823849D01*
X172553949Y-72845138D01*
X172546839Y-72865991D01*
X172538525Y-72886354D01*
X172529031Y-72906176D01*
X172518387Y-72925405D01*
X172506619Y-72943988D01*
X172493753Y-72961872D01*
X172479818Y-72979006D01*
X172464839Y-72995336D01*
X172448845Y-73010812D01*
X172431861Y-73025379D01*
X172413915Y-73038986D01*
X172413577Y-73039187D01*
X172413244Y-73039394D01*
X172412915Y-73039608D01*
X172412590Y-73039828D01*
X172412269Y-73040054D01*
X172411953Y-73040287D01*
X172411642Y-73040527D01*
X172411335Y-73040772D01*
X172375418Y-73062203D01*
X172191665Y-73172534D01*
X168967651Y-75107102D01*
X168912684Y-75140241D01*
X168904338Y-75144180D01*
X168895897Y-75147876D01*
X168887364Y-75151328D01*
X168878746Y-75154534D01*
X168870047Y-75157493D01*
X168861274Y-75160203D01*
X168852431Y-75162664D01*
X168843524Y-75164875D01*
X168834558Y-75166833D01*
X168825539Y-75168538D01*
X168816472Y-75169989D01*
X168807362Y-75171183D01*
X168798215Y-75172121D01*
X168789035Y-75172801D01*
X168779830Y-75173221D01*
X168770603Y-75173380D01*
X168752446Y-75172878D01*
X168734530Y-75171389D01*
X168716874Y-75168937D01*
X168699503Y-75165545D01*
X168682437Y-75161239D01*
X168665700Y-75156043D01*
X168649312Y-75149980D01*
X168633296Y-75143075D01*
X168617675Y-75135352D01*
X168602469Y-75126835D01*
X168587703Y-75117548D01*
X168573396Y-75107516D01*
X168559572Y-75096763D01*
X168546253Y-75085313D01*
X168533460Y-75073191D01*
X168521216Y-75060419D01*
X168509543Y-75047023D01*
X168498463Y-75033028D01*
X168487999Y-75018456D01*
X168478171Y-75003332D01*
X168469002Y-74987681D01*
X168460515Y-74971526D01*
X168452732Y-74954892D01*
X168445674Y-74937803D01*
X168439363Y-74920284D01*
X168433822Y-74902358D01*
X168429073Y-74884049D01*
X168425138Y-74865382D01*
X168422039Y-74846382D01*
X168419798Y-74827071D01*
X168418438Y-74807475D01*
X168417979Y-74787617D01*
X168418350Y-74765359D01*
X168419950Y-74743278D01*
X168422757Y-74721420D01*
X168426751Y-74699831D01*
X168431910Y-74678556D01*
X168438215Y-74657640D01*
X168445644Y-74637129D01*
X168454177Y-74617069D01*
X168463792Y-74597504D01*
X168474469Y-74578480D01*
X168486187Y-74560044D01*
X168498925Y-74542239D01*
X168512663Y-74525113D01*
X168527379Y-74508709D01*
X168543053Y-74493074D01*
X168559663Y-74478253D01*
X168560656Y-74478253D01*
X168644793Y-74427056D01*
X171082003Y-72964572D01*
X171088407Y-72961685D01*
X171094706Y-72958590D01*
X171100896Y-72955288D01*
X171106971Y-72951784D01*
X171112926Y-72948080D01*
X171118757Y-72944179D01*
X171124458Y-72940084D01*
X171130024Y-72935799D01*
X171140769Y-72926479D01*
X171150938Y-72916641D01*
X171160516Y-72906312D01*
X171169491Y-72895519D01*
X171177849Y-72884290D01*
X171185576Y-72872653D01*
X171192659Y-72860635D01*
X171199086Y-72848263D01*
X171204841Y-72835566D01*
X171209913Y-72822570D01*
X171214287Y-72809304D01*
X171217951Y-72795794D01*
X171220891Y-72782069D01*
X171223093Y-72768155D01*
X171224544Y-72754081D01*
X171225231Y-72739874D01*
X171225143Y-72725650D01*
X171224285Y-72711528D01*
X171222671Y-72697534D01*
X171220312Y-72683697D01*
X171217220Y-72670045D01*
X171213409Y-72656606D01*
X171208889Y-72643408D01*
X171203673Y-72630480D01*
X171197773Y-72617849D01*
X171191202Y-72605543D01*
X171183972Y-72593591D01*
X171176095Y-72582020D01*
X171167582Y-72570859D01*
X171158448Y-72560135D01*
X171148702Y-72549878D01*
X171138359Y-72540114D01*
X171110379Y-72522057D01*
X171087162Y-72506975D01*
X171083258Y-72505192D01*
X171079299Y-72503428D01*
X171075302Y-72501701D01*
X171071287Y-72500030D01*
X168587643Y-71009963D01*
X168575733Y-71003330D01*
X168564117Y-70996318D01*
X168552803Y-70988939D01*
X168541796Y-70981202D01*
X168531101Y-70973117D01*
X168520726Y-70964695D01*
X168510675Y-70955945D01*
X168500956Y-70946878D01*
X168491573Y-70937504D01*
X168482533Y-70927833D01*
X168473842Y-70917875D01*
X168465506Y-70907641D01*
X168457530Y-70897141D01*
X168449921Y-70886384D01*
X168442685Y-70875381D01*
X168435827Y-70864142D01*
X168429354Y-70852677D01*
X168423271Y-70840996D01*
X168417585Y-70829110D01*
X168412301Y-70817029D01*
X168407426Y-70804763D01*
X168402965Y-70792321D01*
X168398925Y-70779715D01*
X168395310Y-70766954D01*
X168392128Y-70754048D01*
X168389385Y-70741008D01*
X168387085Y-70727844D01*
X168385236Y-70714566D01*
X168383842Y-70701183D01*
X168382911Y-70687707D01*
X168382448Y-70674148D01*
X168382459Y-70660515D01*
X168382920Y-70640730D01*
X168384289Y-70621205D01*
X168386543Y-70601963D01*
X168389658Y-70583029D01*
X168393614Y-70564426D01*
X168398386Y-70546179D01*
X168403952Y-70528312D01*
X168410290Y-70510849D01*
X168417376Y-70493815D01*
X168425189Y-70477234D01*
X168433705Y-70461129D01*
X168442902Y-70445525D01*
X168452757Y-70430447D01*
X168463247Y-70415918D01*
X168474350Y-70401963D01*
X168486043Y-70388606D01*
X168498304Y-70375870D01*
X168511109Y-70363781D01*
X168524437Y-70352363D01*
X168538263Y-70341639D01*
X168552567Y-70331634D01*
X168567324Y-70322372D01*
X168582513Y-70313877D01*
X168598111Y-70306173D01*
X168614094Y-70299286D01*
X168630441Y-70293238D01*
X168647129Y-70288054D01*
X168664135Y-70283758D01*
X168681436Y-70280375D01*
X168699009Y-70277929D01*
X168716833Y-70276443D01*
X168734884Y-70275943D01*
X168743619Y-70276046D01*
G37*
G36*
X170441067Y-72223082D02*
G01*
X170444226Y-72223294D01*
X170447350Y-72223645D01*
X170450435Y-72224132D01*
X170453477Y-72224752D01*
X170456473Y-72225502D01*
X170459419Y-72226379D01*
X170462313Y-72227381D01*
X170465151Y-72228504D01*
X170467929Y-72229746D01*
X170470644Y-72231104D01*
X170473292Y-72232575D01*
X170475871Y-72234157D01*
X170478377Y-72235845D01*
X170480807Y-72237639D01*
X170483157Y-72239533D01*
X170485423Y-72241527D01*
X170487603Y-72243617D01*
X170489692Y-72245799D01*
X170491689Y-72248073D01*
X170493588Y-72250433D01*
X170495388Y-72252878D01*
X170497084Y-72255405D01*
X170498673Y-72258010D01*
X170500151Y-72260692D01*
X170501516Y-72263446D01*
X170502764Y-72266272D01*
X170503892Y-72269164D01*
X170504895Y-72272121D01*
X170505771Y-72275140D01*
X170506517Y-72278218D01*
X170507129Y-72281352D01*
X170507471Y-72283017D01*
X170507765Y-72284691D01*
X170508011Y-72286372D01*
X170508209Y-72288059D01*
X170508359Y-72289751D01*
X170508460Y-72291446D01*
X170508514Y-72293145D01*
X170508518Y-72294846D01*
X170508518Y-72296036D01*
X170508614Y-72297324D01*
X170508683Y-72298614D01*
X170508725Y-72299905D01*
X170508738Y-72301196D01*
X170508725Y-72302487D01*
X170508683Y-72303777D01*
X170508614Y-72305067D01*
X170508518Y-72306355D01*
X170508216Y-72307358D01*
X170507930Y-72308366D01*
X170507658Y-72309377D01*
X170507402Y-72310393D01*
X170507162Y-72311412D01*
X170506937Y-72312435D01*
X170506728Y-72313461D01*
X170506534Y-72314491D01*
X170504152Y-72320444D01*
X170503896Y-72321168D01*
X170503621Y-72321884D01*
X170503326Y-72322592D01*
X170503013Y-72323292D01*
X170502681Y-72323983D01*
X170502330Y-72324665D01*
X170501960Y-72325338D01*
X170501573Y-72326000D01*
X170500557Y-72327415D01*
X170499588Y-72328831D01*
X170498657Y-72330252D01*
X170497753Y-72331681D01*
X170495992Y-72334567D01*
X170494231Y-72337510D01*
X170493876Y-72338061D01*
X170493508Y-72338605D01*
X170493129Y-72339139D01*
X170492737Y-72339665D01*
X170492334Y-72340182D01*
X170491919Y-72340690D01*
X170491493Y-72341188D01*
X170491055Y-72341677D01*
X170490031Y-72342857D01*
X170488987Y-72344019D01*
X170487923Y-72345163D01*
X170486840Y-72346290D01*
X170485739Y-72347397D01*
X170484619Y-72348486D01*
X170483481Y-72349556D01*
X170482324Y-72350607D01*
X170482960Y-72350148D01*
X170483587Y-72349678D01*
X170484207Y-72349198D01*
X170484818Y-72348708D01*
X170485420Y-72348208D01*
X170486014Y-72347697D01*
X170486599Y-72347177D01*
X170487175Y-72346648D01*
X170487743Y-72346108D01*
X170488301Y-72345560D01*
X170488850Y-72345001D01*
X170489389Y-72344434D01*
X170489920Y-72343857D01*
X170490440Y-72343272D01*
X170490951Y-72342677D01*
X170491452Y-72342074D01*
X170467646Y-72387701D01*
X170447059Y-72434430D01*
X170429688Y-72482100D01*
X170415535Y-72530552D01*
X170404596Y-72579624D01*
X170396873Y-72629158D01*
X170392363Y-72678992D01*
X170391065Y-72728966D01*
X170392979Y-72778921D01*
X170398103Y-72828695D01*
X170406437Y-72878130D01*
X170417979Y-72927064D01*
X170432729Y-72975337D01*
X170450686Y-73022790D01*
X170471848Y-73069261D01*
X170496215Y-73114591D01*
X170496770Y-73115306D01*
X170497302Y-73116037D01*
X170497811Y-73116785D01*
X170498295Y-73117548D01*
X170498755Y-73118325D01*
X170499190Y-73119118D01*
X170499600Y-73119924D01*
X170499985Y-73120743D01*
X170501137Y-73122777D01*
X170502218Y-73124846D01*
X170503226Y-73126946D01*
X170504161Y-73129076D01*
X170505023Y-73131233D01*
X170505811Y-73133417D01*
X170506524Y-73135625D01*
X170507163Y-73137855D01*
X170507726Y-73140106D01*
X170508213Y-73142374D01*
X170508623Y-73144659D01*
X170508957Y-73146959D01*
X170509213Y-73149271D01*
X170509391Y-73151594D01*
X170509490Y-73153925D01*
X170509510Y-73156263D01*
X170509463Y-73159744D01*
X170509245Y-73163203D01*
X170508858Y-73166635D01*
X170508303Y-73170033D01*
X170507584Y-73173392D01*
X170506703Y-73176706D01*
X170505662Y-73179969D01*
X170504464Y-73183176D01*
X170503110Y-73186321D01*
X170501604Y-73189397D01*
X170499947Y-73192399D01*
X170498142Y-73195322D01*
X170496191Y-73198159D01*
X170494096Y-73200904D01*
X170491861Y-73203553D01*
X170489486Y-73206098D01*
X170486988Y-73208523D01*
X170484384Y-73210811D01*
X170481681Y-73212959D01*
X170478883Y-73214966D01*
X170475996Y-73216829D01*
X170473028Y-73218545D01*
X170469982Y-73220112D01*
X170466865Y-73221527D01*
X170463682Y-73222789D01*
X170460440Y-73223894D01*
X170457144Y-73224841D01*
X170453800Y-73225626D01*
X170450414Y-73226247D01*
X170446991Y-73226703D01*
X170443536Y-73226990D01*
X170440057Y-73227105D01*
X170437952Y-73227059D01*
X170435853Y-73226948D01*
X170433761Y-73226772D01*
X170431679Y-73226531D01*
X170429606Y-73226227D01*
X170427546Y-73225859D01*
X170425499Y-73225429D01*
X170423466Y-73224935D01*
X170421450Y-73224379D01*
X170419451Y-73223761D01*
X170417471Y-73223081D01*
X170415512Y-73222340D01*
X170413575Y-73221538D01*
X170411661Y-73220676D01*
X170409773Y-73219753D01*
X170407910Y-73218771D01*
X170406190Y-73217628D01*
X170404456Y-73216439D01*
X170402713Y-73215213D01*
X170400965Y-73213959D01*
X170397474Y-73211404D01*
X170394020Y-73208849D01*
X170365321Y-73186928D01*
X170337983Y-73163620D01*
X170312074Y-73138984D01*
X170287660Y-73113081D01*
X170264811Y-73085970D01*
X170243593Y-73057711D01*
X170224074Y-73028362D01*
X170206323Y-72997984D01*
X170190406Y-72966637D01*
X170176391Y-72934379D01*
X170164347Y-72901271D01*
X170154341Y-72867372D01*
X170146441Y-72832742D01*
X170140714Y-72797440D01*
X170138686Y-72779555D01*
X170137228Y-72761525D01*
X170136347Y-72743357D01*
X170136051Y-72725058D01*
X170137203Y-72688623D01*
X170140615Y-72652797D01*
X170146221Y-72617633D01*
X170153957Y-72583182D01*
X170163756Y-72549496D01*
X170175554Y-72516627D01*
X170189285Y-72484627D01*
X170204884Y-72453546D01*
X170222285Y-72423438D01*
X170241422Y-72394354D01*
X170262231Y-72366345D01*
X170284646Y-72339463D01*
X170308602Y-72313761D01*
X170334033Y-72289289D01*
X170360874Y-72266100D01*
X170389059Y-72244245D01*
X170408902Y-72229759D01*
X170410887Y-72229759D01*
X170412486Y-72229040D01*
X170414100Y-72228359D01*
X170415728Y-72227718D01*
X170417370Y-72227116D01*
X170419025Y-72226553D01*
X170420692Y-72226029D01*
X170422370Y-72225546D01*
X170424060Y-72225102D01*
X170425759Y-72224699D01*
X170427467Y-72224335D01*
X170429185Y-72224013D01*
X170430910Y-72223730D01*
X170432642Y-72223489D01*
X170434380Y-72223288D01*
X170436125Y-72223129D01*
X170437874Y-72223011D01*
X170441067Y-72223082D01*
G37*
G36*
X169767083Y-72031065D02*
G01*
X169771124Y-72031586D01*
X169775107Y-72032285D01*
X169779027Y-72033157D01*
X169782881Y-72034198D01*
X169786665Y-72035404D01*
X169790373Y-72036771D01*
X169794003Y-72038296D01*
X169797549Y-72039973D01*
X169801008Y-72041799D01*
X169804376Y-72043771D01*
X169807647Y-72045883D01*
X169810819Y-72048132D01*
X169813887Y-72050514D01*
X169816846Y-72053025D01*
X169819693Y-72055660D01*
X169822423Y-72058416D01*
X169825032Y-72061289D01*
X169827517Y-72064274D01*
X169829872Y-72067368D01*
X169832093Y-72070567D01*
X169834178Y-72073866D01*
X169836120Y-72077261D01*
X169837916Y-72080749D01*
X169839562Y-72084324D01*
X169841054Y-72087985D01*
X169842388Y-72091725D01*
X169843558Y-72095542D01*
X169844562Y-72099431D01*
X169845395Y-72103388D01*
X169846053Y-72107409D01*
X169846531Y-72111489D01*
X169846986Y-72113794D01*
X169847375Y-72116109D01*
X169847698Y-72118433D01*
X169847955Y-72120765D01*
X169848145Y-72123104D01*
X169848269Y-72125447D01*
X169848326Y-72127794D01*
X169848316Y-72130143D01*
X169848316Y-72132921D01*
X169848305Y-72134719D01*
X169848246Y-72136516D01*
X169848142Y-72138310D01*
X169847991Y-72140100D01*
X169847794Y-72141886D01*
X169847551Y-72143667D01*
X169847262Y-72145441D01*
X169846927Y-72147208D01*
X169846568Y-72148608D01*
X169846225Y-72150013D01*
X169845901Y-72151421D01*
X169845594Y-72152834D01*
X169845305Y-72154250D01*
X169845034Y-72155670D01*
X169844781Y-72157093D01*
X169844546Y-72158520D01*
X169844526Y-72159071D01*
X169844467Y-72159610D01*
X169844375Y-72160138D01*
X169844252Y-72160656D01*
X169844102Y-72161166D01*
X169843929Y-72161669D01*
X169843737Y-72162167D01*
X169843529Y-72162662D01*
X169843083Y-72163645D01*
X169842621Y-72164631D01*
X169842172Y-72165630D01*
X169841963Y-72166139D01*
X169841768Y-72166655D01*
X169841478Y-72167640D01*
X169841157Y-72168614D01*
X169840805Y-72169577D01*
X169840423Y-72170528D01*
X169840010Y-72171466D01*
X169839567Y-72172390D01*
X169839095Y-72173301D01*
X169838593Y-72174196D01*
X169837420Y-72176198D01*
X169836280Y-72178190D01*
X169835167Y-72180182D01*
X169834078Y-72182183D01*
X169833008Y-72184203D01*
X169831951Y-72186251D01*
X169830904Y-72188337D01*
X169829862Y-72190468D01*
X169829435Y-72191192D01*
X169828996Y-72191908D01*
X169828544Y-72192616D01*
X169828078Y-72193315D01*
X169827600Y-72194006D01*
X169827110Y-72194688D01*
X169826607Y-72195361D01*
X169826091Y-72196024D01*
X169824858Y-72197675D01*
X169823593Y-72199302D01*
X169822298Y-72200904D01*
X169820973Y-72202480D01*
X169819617Y-72204031D01*
X169818232Y-72205556D01*
X169816818Y-72207054D01*
X169815376Y-72208526D01*
X169816913Y-72207183D01*
X169818410Y-72205796D01*
X169819866Y-72204367D01*
X169821279Y-72202897D01*
X169822649Y-72201386D01*
X169823974Y-72199836D01*
X169825254Y-72198247D01*
X169826488Y-72196620D01*
X169811578Y-72227583D01*
X169797621Y-72258928D01*
X169784620Y-72290633D01*
X169772582Y-72322676D01*
X169761512Y-72355034D01*
X169751414Y-72387685D01*
X169742294Y-72420607D01*
X169734156Y-72453779D01*
X169727006Y-72487177D01*
X169720850Y-72520779D01*
X169715691Y-72554565D01*
X169711535Y-72588511D01*
X169708387Y-72622595D01*
X169706253Y-72656795D01*
X169705137Y-72691089D01*
X169705044Y-72725455D01*
X169705155Y-72760559D01*
X169706336Y-72795586D01*
X169708580Y-72830512D01*
X169711883Y-72865314D01*
X169716239Y-72899967D01*
X169721642Y-72934448D01*
X169728086Y-72968734D01*
X169735567Y-73002801D01*
X169744078Y-73036625D01*
X169753615Y-73070182D01*
X169764170Y-73103450D01*
X169775740Y-73136404D01*
X169788317Y-73169020D01*
X169801898Y-73201276D01*
X169816475Y-73233147D01*
X169832044Y-73264610D01*
X169832422Y-73265095D01*
X169832789Y-73265587D01*
X169833146Y-73266086D01*
X169833493Y-73266593D01*
X169833829Y-73267105D01*
X169834155Y-73267625D01*
X169834469Y-73268151D01*
X169834773Y-73268683D01*
X169835067Y-73269221D01*
X169835349Y-73269765D01*
X169835620Y-73270314D01*
X169835880Y-73270870D01*
X169836129Y-73271430D01*
X169836366Y-73271996D01*
X169836592Y-73272567D01*
X169836807Y-73273143D01*
X169838203Y-73276010D01*
X169839512Y-73278912D01*
X169840732Y-73281848D01*
X169841863Y-73284816D01*
X169842904Y-73287814D01*
X169843855Y-73290839D01*
X169844716Y-73293889D01*
X169845487Y-73296963D01*
X169846165Y-73300059D01*
X169846752Y-73303174D01*
X169847246Y-73306306D01*
X169847648Y-73309454D01*
X169847956Y-73312615D01*
X169848171Y-73315787D01*
X169848291Y-73318969D01*
X169848316Y-73322157D01*
X169848207Y-73327204D01*
X169847884Y-73332183D01*
X169847351Y-73337089D01*
X169846614Y-73341914D01*
X169845678Y-73346654D01*
X169844549Y-73351302D01*
X169843231Y-73355852D01*
X169841731Y-73360297D01*
X169840052Y-73364633D01*
X169838201Y-73368852D01*
X169836182Y-73372949D01*
X169834001Y-73376918D01*
X169831663Y-73380752D01*
X169829173Y-73384446D01*
X169826537Y-73387993D01*
X169823760Y-73391387D01*
X169820846Y-73394623D01*
X169817802Y-73397694D01*
X169814632Y-73400594D01*
X169811342Y-73403317D01*
X169807936Y-73405857D01*
X169804421Y-73408208D01*
X169800801Y-73410364D01*
X169797082Y-73412319D01*
X169793269Y-73414067D01*
X169789366Y-73415601D01*
X169785380Y-73416916D01*
X169781316Y-73418005D01*
X169777178Y-73418863D01*
X169772972Y-73419483D01*
X169768703Y-73419860D01*
X169764377Y-73419987D01*
X169761748Y-73419940D01*
X169759128Y-73419801D01*
X169756518Y-73419569D01*
X169753923Y-73419246D01*
X169751343Y-73418832D01*
X169748782Y-73418328D01*
X169746242Y-73417735D01*
X169743724Y-73417053D01*
X169741232Y-73416283D01*
X169738768Y-73415425D01*
X169736334Y-73414481D01*
X169733932Y-73413451D01*
X169731566Y-73412335D01*
X169729236Y-73411135D01*
X169726946Y-73409850D01*
X169724698Y-73408483D01*
X169724690Y-73408477D01*
X169720522Y-73405166D01*
X169716355Y-73401780D01*
X169712188Y-73398320D01*
X169708021Y-73394785D01*
X169672228Y-73362830D01*
X169638414Y-73329149D01*
X169606623Y-73293834D01*
X169576898Y-73256982D01*
X169549285Y-73218686D01*
X169523826Y-73179040D01*
X169500566Y-73138138D01*
X169479550Y-73096075D01*
X169460819Y-73052945D01*
X169444420Y-73008843D01*
X169430395Y-72963862D01*
X169418790Y-72918097D01*
X169409647Y-72871643D01*
X169403010Y-72824592D01*
X169398924Y-72777041D01*
X169397433Y-72729082D01*
X169398568Y-72681114D01*
X169402299Y-72633533D01*
X169408586Y-72586435D01*
X169417383Y-72539913D01*
X169428648Y-72494063D01*
X169442337Y-72448979D01*
X169458408Y-72404756D01*
X169476817Y-72361488D01*
X169497520Y-72319270D01*
X169520475Y-72278197D01*
X169545638Y-72238363D01*
X169572966Y-72199862D01*
X169602415Y-72162789D01*
X169633943Y-72127239D01*
X169667505Y-72093307D01*
X169703060Y-72061087D01*
X169709081Y-72056144D01*
X169715214Y-72051165D01*
X169721422Y-72046185D01*
X169727666Y-72041243D01*
X169727783Y-72041129D01*
X169727903Y-72041018D01*
X169728026Y-72040911D01*
X169728152Y-72040807D01*
X169728280Y-72040707D01*
X169728412Y-72040611D01*
X169728545Y-72040518D01*
X169728681Y-72040428D01*
X169728820Y-72040343D01*
X169728960Y-72040261D01*
X169729103Y-72040183D01*
X169729248Y-72040110D01*
X169729396Y-72040040D01*
X169729545Y-72039974D01*
X169729696Y-72039912D01*
X169729849Y-72039854D01*
X169731783Y-72038863D01*
X169733740Y-72037927D01*
X169735720Y-72037046D01*
X169737721Y-72036220D01*
X169739743Y-72035450D01*
X169741784Y-72034735D01*
X169743843Y-72034076D01*
X169745919Y-72033474D01*
X169748010Y-72032929D01*
X169750116Y-72032440D01*
X169752235Y-72032009D01*
X169754366Y-72031636D01*
X169756508Y-72031320D01*
X169758660Y-72031063D01*
X169760820Y-72030865D01*
X169762988Y-72030725D01*
X169767083Y-72031065D01*
G37*
D10*
X170772903Y-54232053D02*
X170772903Y-53517768D01*
X170772903Y-53874911D02*
X169522903Y-53874911D01*
X169522903Y-53874911D02*
X169701475Y-53755863D01*
X169701475Y-53755863D02*
X169820522Y-53636815D01*
X169820522Y-53636815D02*
X169880046Y-53517768D01*
X169641951Y-54708244D02*
X169582427Y-54767768D01*
X169582427Y-54767768D02*
X169522903Y-54886815D01*
X169522903Y-54886815D02*
X169522903Y-55184434D01*
X169522903Y-55184434D02*
X169582427Y-55303482D01*
X169582427Y-55303482D02*
X169641951Y-55363006D01*
X169641951Y-55363006D02*
X169760999Y-55422529D01*
X169760999Y-55422529D02*
X169880046Y-55422529D01*
X169880046Y-55422529D02*
X170058618Y-55363006D01*
X170058618Y-55363006D02*
X170772903Y-54648720D01*
X170772903Y-54648720D02*
X170772903Y-55422529D01*
X170653856Y-55958244D02*
X170713380Y-56017767D01*
X170713380Y-56017767D02*
X170772903Y-55958244D01*
X170772903Y-55958244D02*
X170713380Y-55898720D01*
X170713380Y-55898720D02*
X170653856Y-55958244D01*
X170653856Y-55958244D02*
X170772903Y-55958244D01*
X169641951Y-56493958D02*
X169582427Y-56553482D01*
X169582427Y-56553482D02*
X169522903Y-56672529D01*
X169522903Y-56672529D02*
X169522903Y-56970148D01*
X169522903Y-56970148D02*
X169582427Y-57089196D01*
X169582427Y-57089196D02*
X169641951Y-57148720D01*
X169641951Y-57148720D02*
X169760999Y-57208243D01*
X169760999Y-57208243D02*
X169880046Y-57208243D01*
X169880046Y-57208243D02*
X170058618Y-57148720D01*
X170058618Y-57148720D02*
X170772903Y-56434434D01*
X170772903Y-56434434D02*
X170772903Y-57208243D01*
X170653856Y-57743958D02*
X170713380Y-57803481D01*
X170713380Y-57803481D02*
X170772903Y-57743958D01*
X170772903Y-57743958D02*
X170713380Y-57684434D01*
X170713380Y-57684434D02*
X170653856Y-57743958D01*
X170653856Y-57743958D02*
X170772903Y-57743958D01*
X170772903Y-58993957D02*
X170772903Y-58279672D01*
X170772903Y-58636815D02*
X169522903Y-58636815D01*
X169522903Y-58636815D02*
X169701475Y-58517767D01*
X169701475Y-58517767D02*
X169820522Y-58398719D01*
X169820522Y-58398719D02*
X169880046Y-58279672D01*
X170145856Y-79711672D02*
X170205380Y-79652148D01*
X170205380Y-79652148D02*
X170264903Y-79473577D01*
X170264903Y-79473577D02*
X170264903Y-79354529D01*
X170264903Y-79354529D02*
X170205380Y-79175958D01*
X170205380Y-79175958D02*
X170086332Y-79056910D01*
X170086332Y-79056910D02*
X169967284Y-78997387D01*
X169967284Y-78997387D02*
X169729189Y-78937863D01*
X169729189Y-78937863D02*
X169550618Y-78937863D01*
X169550618Y-78937863D02*
X169312522Y-78997387D01*
X169312522Y-78997387D02*
X169193475Y-79056910D01*
X169193475Y-79056910D02*
X169074427Y-79175958D01*
X169074427Y-79175958D02*
X169014903Y-79354529D01*
X169014903Y-79354529D02*
X169014903Y-79473577D01*
X169014903Y-79473577D02*
X169074427Y-79652148D01*
X169074427Y-79652148D02*
X169133951Y-79711672D01*
X169133951Y-81140244D02*
X169074427Y-81199768D01*
X169074427Y-81199768D02*
X169014903Y-81318815D01*
X169014903Y-81318815D02*
X169014903Y-81616434D01*
X169014903Y-81616434D02*
X169074427Y-81735482D01*
X169074427Y-81735482D02*
X169133951Y-81795006D01*
X169133951Y-81795006D02*
X169252999Y-81854529D01*
X169252999Y-81854529D02*
X169372046Y-81854529D01*
X169372046Y-81854529D02*
X169550618Y-81795006D01*
X169550618Y-81795006D02*
X170264903Y-81080720D01*
X170264903Y-81080720D02*
X170264903Y-81854529D01*
X169014903Y-82628339D02*
X169014903Y-82747386D01*
X169014903Y-82747386D02*
X169074427Y-82866434D01*
X169074427Y-82866434D02*
X169133951Y-82925958D01*
X169133951Y-82925958D02*
X169252999Y-82985482D01*
X169252999Y-82985482D02*
X169491094Y-83045005D01*
X169491094Y-83045005D02*
X169788713Y-83045005D01*
X169788713Y-83045005D02*
X170026808Y-82985482D01*
X170026808Y-82985482D02*
X170145856Y-82925958D01*
X170145856Y-82925958D02*
X170205380Y-82866434D01*
X170205380Y-82866434D02*
X170264903Y-82747386D01*
X170264903Y-82747386D02*
X170264903Y-82628339D01*
X170264903Y-82628339D02*
X170205380Y-82509291D01*
X170205380Y-82509291D02*
X170145856Y-82449767D01*
X170145856Y-82449767D02*
X170026808Y-82390244D01*
X170026808Y-82390244D02*
X169788713Y-82330720D01*
X169788713Y-82330720D02*
X169491094Y-82330720D01*
X169491094Y-82330720D02*
X169252999Y-82390244D01*
X169252999Y-82390244D02*
X169133951Y-82449767D01*
X169133951Y-82449767D02*
X169074427Y-82509291D01*
X169074427Y-82509291D02*
X169014903Y-82628339D01*
X169133951Y-83521196D02*
X169074427Y-83580720D01*
X169074427Y-83580720D02*
X169014903Y-83699767D01*
X169014903Y-83699767D02*
X169014903Y-83997386D01*
X169014903Y-83997386D02*
X169074427Y-84116434D01*
X169074427Y-84116434D02*
X169133951Y-84175958D01*
X169133951Y-84175958D02*
X169252999Y-84235481D01*
X169252999Y-84235481D02*
X169372046Y-84235481D01*
X169372046Y-84235481D02*
X169550618Y-84175958D01*
X169550618Y-84175958D02*
X170264903Y-83461672D01*
X170264903Y-83461672D02*
X170264903Y-84235481D01*
X169431570Y-85306910D02*
X170264903Y-85306910D01*
X168955380Y-85009291D02*
X169848237Y-84711672D01*
X169848237Y-84711672D02*
X169848237Y-85485481D01*
D14*
%TO.C,J122*%
X169332600Y-46990000D02*
G75*
G03*
X168570600Y-46990000I-381000J0D01*
G01*
X168570600Y-46990000D02*
G75*
G03*
X169332600Y-46990000I381000J0D01*
G01*
%TO.C,G\u002A\u002A\u002A*%
G36*
X172048536Y-96855768D02*
G01*
X172060395Y-96862816D01*
X172069761Y-96876643D01*
X172076653Y-96897273D01*
X172077884Y-96903459D01*
X172079774Y-96923089D01*
X172079628Y-96945038D01*
X172077664Y-96967405D01*
X172074095Y-96988287D01*
X172069137Y-97005782D01*
X172063004Y-97017990D01*
X172059878Y-97021694D01*
X172051298Y-97027062D01*
X172042959Y-97025742D01*
X172035188Y-97018150D01*
X172028312Y-97004697D01*
X172022660Y-96985798D01*
X172018557Y-96961865D01*
X172017079Y-96944870D01*
X172016911Y-96921929D01*
X172018717Y-96900690D01*
X172022264Y-96882254D01*
X172027322Y-96867721D01*
X172033660Y-96858194D01*
X172041046Y-96854774D01*
X172048536Y-96855768D01*
G37*
G36*
X172122235Y-101186710D02*
G01*
X172122501Y-101186813D01*
X172126279Y-101188979D01*
X172125612Y-101192244D01*
X172120145Y-101198612D01*
X172115092Y-101203038D01*
X172104051Y-101210407D01*
X172091493Y-101217018D01*
X172074715Y-101223958D01*
X172050646Y-101232734D01*
X172021887Y-101242363D01*
X171989691Y-101252482D01*
X171955313Y-101262728D01*
X171920006Y-101272737D01*
X171885026Y-101282144D01*
X171851626Y-101290587D01*
X171821060Y-101297702D01*
X171794583Y-101303125D01*
X171776204Y-101306104D01*
X171758882Y-101308029D01*
X171744995Y-101308635D01*
X171735766Y-101307871D01*
X171732418Y-101305686D01*
X171735103Y-101299922D01*
X171744883Y-101292187D01*
X171761819Y-101283295D01*
X171785908Y-101273248D01*
X171817149Y-101262045D01*
X171855539Y-101249689D01*
X171901074Y-101236180D01*
X171938961Y-101225483D01*
X171981199Y-101214027D01*
X172018670Y-101204413D01*
X172051024Y-101196718D01*
X172077910Y-101191021D01*
X172098974Y-101187402D01*
X172113866Y-101185939D01*
X172122235Y-101186710D01*
G37*
G36*
X172119368Y-101937794D02*
G01*
X172121523Y-101938830D01*
X172124228Y-101943517D01*
X172120162Y-101949967D01*
X172109482Y-101958008D01*
X172092347Y-101967467D01*
X172080695Y-101972896D01*
X172055641Y-101983087D01*
X172025508Y-101993973D01*
X171991601Y-102005186D01*
X171955228Y-102016355D01*
X171917694Y-102027113D01*
X171880307Y-102037090D01*
X171844371Y-102045917D01*
X171811194Y-102053225D01*
X171782082Y-102058645D01*
X171758341Y-102061808D01*
X171752087Y-102062373D01*
X171740948Y-102063110D01*
X171735004Y-102062691D01*
X171732818Y-102060864D01*
X171732952Y-102057378D01*
X171735812Y-102052596D01*
X171745488Y-102045173D01*
X171761488Y-102036569D01*
X171783375Y-102026962D01*
X171810711Y-102016527D01*
X171843056Y-102005440D01*
X171879973Y-101993875D01*
X171921023Y-101982010D01*
X171952177Y-101973465D01*
X171990148Y-101963428D01*
X172024283Y-101954846D01*
X172054066Y-101947834D01*
X172078982Y-101942509D01*
X172098514Y-101938984D01*
X172112148Y-101937374D01*
X172119368Y-101937794D01*
G37*
G36*
X172046735Y-97298202D02*
G01*
X172057984Y-97298359D01*
X172091416Y-97298932D01*
X172118603Y-97299647D01*
X172140323Y-97300595D01*
X172157354Y-97301870D01*
X172170474Y-97303564D01*
X172180460Y-97305770D01*
X172188090Y-97308580D01*
X172194143Y-97312088D01*
X172199397Y-97316385D01*
X172202230Y-97319409D01*
X172207224Y-97330721D01*
X172205613Y-97343060D01*
X172197465Y-97355071D01*
X172185633Y-97362738D01*
X172167454Y-97368556D01*
X172143915Y-97372185D01*
X172115857Y-97373437D01*
X172109760Y-97373490D01*
X172079843Y-97375815D01*
X172054894Y-97382039D01*
X172033590Y-97392796D01*
X172014608Y-97408719D01*
X171996625Y-97430439D01*
X171984080Y-97446702D01*
X171970670Y-97460777D01*
X171959617Y-97468104D01*
X171950870Y-97468728D01*
X171950359Y-97468496D01*
X171945409Y-97463740D01*
X171940032Y-97455624D01*
X171939524Y-97454647D01*
X171937430Y-97449193D01*
X171935829Y-97441694D01*
X171934631Y-97431107D01*
X171933742Y-97416391D01*
X171933071Y-97396505D01*
X171932527Y-97370407D01*
X171931251Y-97296650D01*
X172046735Y-97298202D01*
G37*
G36*
X172157419Y-95795999D02*
G01*
X172172108Y-95797160D01*
X172176308Y-95797956D01*
X172188761Y-95801899D01*
X172198234Y-95807013D01*
X172204293Y-95813152D01*
X172208038Y-95823288D01*
X172205238Y-95833686D01*
X172196265Y-95843801D01*
X172181494Y-95853084D01*
X172161298Y-95860992D01*
X172154430Y-95862986D01*
X172132606Y-95868190D01*
X172106758Y-95873078D01*
X172077902Y-95877566D01*
X172047053Y-95881572D01*
X172015228Y-95885014D01*
X171983442Y-95887807D01*
X171952710Y-95889870D01*
X171924049Y-95891120D01*
X171898475Y-95891474D01*
X171877003Y-95890849D01*
X171860648Y-95889162D01*
X171850428Y-95886331D01*
X171841530Y-95879938D01*
X171834277Y-95871283D01*
X171831835Y-95865261D01*
X171832555Y-95854210D01*
X171840215Y-95843939D01*
X171854625Y-95834592D01*
X171875591Y-95826315D01*
X171902922Y-95819253D01*
X171906233Y-95818572D01*
X171929908Y-95814344D01*
X171957521Y-95810311D01*
X171987839Y-95806572D01*
X172019627Y-95803229D01*
X172051650Y-95800383D01*
X172082675Y-95798136D01*
X172111468Y-95796589D01*
X172136794Y-95795843D01*
X172157419Y-95795999D01*
G37*
G36*
X171981254Y-97084313D02*
G01*
X171988595Y-97087664D01*
X172002917Y-97092230D01*
X172020458Y-97095497D01*
X172042218Y-97097582D01*
X172069191Y-97098604D01*
X172102374Y-97098682D01*
X172121889Y-97098581D01*
X172146756Y-97098890D01*
X172165837Y-97099878D01*
X172180017Y-97101675D01*
X172190179Y-97104409D01*
X172197206Y-97108208D01*
X172201984Y-97113203D01*
X172203224Y-97115138D01*
X172207367Y-97128407D01*
X172205857Y-97142270D01*
X172198907Y-97153915D01*
X172191504Y-97159711D01*
X172181487Y-97164207D01*
X172167782Y-97167583D01*
X172149200Y-97170130D01*
X172124556Y-97172138D01*
X172105887Y-97173725D01*
X172070202Y-97179421D01*
X172039540Y-97188558D01*
X172012787Y-97201520D01*
X171988828Y-97218686D01*
X171979830Y-97226123D01*
X171966154Y-97236170D01*
X171956024Y-97241134D01*
X171948526Y-97241164D01*
X171942748Y-97236409D01*
X171937777Y-97227019D01*
X171929890Y-97212886D01*
X171919165Y-97202841D01*
X171907077Y-97199340D01*
X171899921Y-97200315D01*
X171891422Y-97205955D01*
X171885542Y-97217244D01*
X171881773Y-97234895D01*
X171880556Y-97242169D01*
X171875456Y-97258389D01*
X171868035Y-97268436D01*
X171858563Y-97271881D01*
X171851126Y-97270820D01*
X171840806Y-97264219D01*
X171833941Y-97252165D01*
X171830723Y-97235343D01*
X171831338Y-97214436D01*
X171835977Y-97190128D01*
X171838171Y-97182179D01*
X171845571Y-97162091D01*
X171855038Y-97146959D01*
X171867872Y-97135062D01*
X171885374Y-97124674D01*
X171900341Y-97116142D01*
X171916058Y-97105498D01*
X171928576Y-97095339D01*
X171938612Y-97086985D01*
X171952581Y-97079850D01*
X171966340Y-97079055D01*
X171981254Y-97084313D01*
G37*
G36*
X171958730Y-102463729D02*
G01*
X171994022Y-102471027D01*
X172027506Y-102484882D01*
X172042213Y-102493638D01*
X172068847Y-102514872D01*
X172091196Y-102540182D01*
X172108275Y-102568350D01*
X172119098Y-102598155D01*
X172121737Y-102611152D01*
X172124096Y-102643186D01*
X172121082Y-102675056D01*
X172113131Y-102705671D01*
X172100682Y-102733938D01*
X172084171Y-102758768D01*
X172064036Y-102779068D01*
X172040715Y-102793746D01*
X172040117Y-102794022D01*
X172023128Y-102800286D01*
X172008301Y-102802869D01*
X171996951Y-102801694D01*
X171990394Y-102796683D01*
X171988877Y-102790741D01*
X171990884Y-102781662D01*
X171997454Y-102769937D01*
X172008953Y-102754937D01*
X172025748Y-102736032D01*
X172040170Y-102719770D01*
X172057053Y-102697499D01*
X172068471Y-102677136D01*
X172074943Y-102657695D01*
X172076985Y-102638185D01*
X172076944Y-102635304D01*
X172072865Y-102610301D01*
X172062359Y-102588102D01*
X172045794Y-102569045D01*
X172023535Y-102553466D01*
X171995950Y-102541702D01*
X171963407Y-102534089D01*
X171962399Y-102533936D01*
X171936295Y-102532068D01*
X171906829Y-102533215D01*
X171876986Y-102537129D01*
X171849749Y-102543560D01*
X171825974Y-102553306D01*
X171804611Y-102568209D01*
X171788913Y-102586939D01*
X171779277Y-102609010D01*
X171776101Y-102633933D01*
X171776726Y-102647239D01*
X171779186Y-102661932D01*
X171784068Y-102676578D01*
X171791965Y-102692551D01*
X171803469Y-102711226D01*
X171819170Y-102733975D01*
X171829658Y-102750610D01*
X171837049Y-102767163D01*
X171839935Y-102781050D01*
X171838148Y-102791411D01*
X171831519Y-102797386D01*
X171825871Y-102797664D01*
X171815010Y-102794208D01*
X171801813Y-102787191D01*
X171787885Y-102777501D01*
X171774829Y-102766026D01*
X171764842Y-102754904D01*
X171748188Y-102728875D01*
X171737202Y-102699920D01*
X171731831Y-102669056D01*
X171732024Y-102637300D01*
X171737727Y-102605670D01*
X171748890Y-102575182D01*
X171765458Y-102546854D01*
X171787381Y-102521701D01*
X171788687Y-102520478D01*
X171818645Y-102497187D01*
X171851586Y-102479719D01*
X171886553Y-102468223D01*
X171922587Y-102462844D01*
X171958730Y-102463729D01*
G37*
G36*
X171905870Y-100604212D02*
G01*
X171920334Y-100604470D01*
X171962409Y-100607387D01*
X172000417Y-100613137D01*
X172033778Y-100621552D01*
X172061909Y-100632466D01*
X172084230Y-100645712D01*
X172100160Y-100661125D01*
X172101958Y-100663577D01*
X172110112Y-100676387D01*
X172116969Y-100689414D01*
X172119755Y-100696539D01*
X172123990Y-100719249D01*
X172122457Y-100742741D01*
X172115217Y-100764404D01*
X172107656Y-100776955D01*
X172088959Y-100798028D01*
X172064392Y-100816665D01*
X172034733Y-100832321D01*
X172000758Y-100844453D01*
X171994488Y-100846105D01*
X171969290Y-100850856D01*
X171941423Y-100853764D01*
X171913277Y-100854723D01*
X171887243Y-100853630D01*
X171865711Y-100850378D01*
X171863302Y-100849794D01*
X171831765Y-100839198D01*
X171803704Y-100824349D01*
X171779573Y-100805951D01*
X171759829Y-100784708D01*
X171744928Y-100761325D01*
X171735325Y-100736507D01*
X171733679Y-100725581D01*
X171783210Y-100725581D01*
X171783465Y-100738058D01*
X171784848Y-100747564D01*
X171788140Y-100754795D01*
X171794124Y-100762383D01*
X171799255Y-100767449D01*
X171816497Y-100778460D01*
X171840340Y-100787362D01*
X171870909Y-100794195D01*
X171908328Y-100799000D01*
X171930277Y-100799902D01*
X171959870Y-100797842D01*
X171988605Y-100792428D01*
X172015226Y-100784075D01*
X172038477Y-100773200D01*
X172057099Y-100760219D01*
X172069837Y-100745547D01*
X172074876Y-100733086D01*
X172076971Y-100718027D01*
X172076959Y-100716236D01*
X172075814Y-100706143D01*
X172071772Y-100697977D01*
X172063383Y-100688595D01*
X172059655Y-100685037D01*
X172050368Y-100678130D01*
X172039209Y-100673233D01*
X172023499Y-100669033D01*
X172012886Y-100666926D01*
X171989427Y-100663550D01*
X171962336Y-100660850D01*
X171933766Y-100658954D01*
X171905870Y-100657989D01*
X171880801Y-100658084D01*
X171860713Y-100659365D01*
X171837439Y-100662936D01*
X171816180Y-100669071D01*
X171800783Y-100677843D01*
X171790592Y-100689813D01*
X171784952Y-100705539D01*
X171783210Y-100725581D01*
X171733679Y-100725581D01*
X171731475Y-100710958D01*
X171733836Y-100685382D01*
X171742861Y-100660484D01*
X171748734Y-100650591D01*
X171762080Y-100635441D01*
X171779485Y-100623524D01*
X171801516Y-100614637D01*
X171828745Y-100608577D01*
X171861741Y-100605141D01*
X171901074Y-100604127D01*
X171905870Y-100604212D01*
G37*
G36*
X172088712Y-95922429D02*
G01*
X172107965Y-95928133D01*
X172133537Y-95941761D01*
X172155733Y-95961130D01*
X172173993Y-95985592D01*
X172187758Y-96014500D01*
X172196470Y-96047206D01*
X172197051Y-96051071D01*
X172198259Y-96070009D01*
X172197748Y-96091686D01*
X172195684Y-96112807D01*
X172192237Y-96130073D01*
X172191280Y-96132944D01*
X172185424Y-96145060D01*
X172177764Y-96156369D01*
X172171992Y-96162445D01*
X172161519Y-96168615D01*
X172151946Y-96167896D01*
X172143772Y-96160231D01*
X172141896Y-96157148D01*
X172140044Y-96152178D01*
X172139750Y-96145741D01*
X172141016Y-96135964D01*
X172143847Y-96120977D01*
X172146394Y-96105665D01*
X172147384Y-96084705D01*
X172144403Y-96065279D01*
X172137195Y-96044448D01*
X172130641Y-96032289D01*
X172119551Y-96018232D01*
X172106599Y-96006390D01*
X172093424Y-95998218D01*
X172081664Y-95995171D01*
X172079989Y-95995302D01*
X172074033Y-95998556D01*
X172069097Y-96006548D01*
X172065057Y-96019779D01*
X172061793Y-96038751D01*
X172059182Y-96063963D01*
X172057102Y-96095917D01*
X172056959Y-96098559D01*
X172054294Y-96129748D01*
X172050058Y-96154284D01*
X172044057Y-96172604D01*
X172036098Y-96185148D01*
X172025987Y-96192352D01*
X172013532Y-96194657D01*
X172004298Y-96193753D01*
X171988443Y-96188106D01*
X171971099Y-96176874D01*
X171951430Y-96159584D01*
X171947786Y-96155953D01*
X171927887Y-96131205D01*
X171915038Y-96105242D01*
X171909230Y-96078452D01*
X171909891Y-96063725D01*
X171963558Y-96063725D01*
X171966213Y-96079649D01*
X171974858Y-96093831D01*
X171990125Y-96106854D01*
X171992400Y-96108341D01*
X172004474Y-96113507D01*
X172014318Y-96112078D01*
X172022768Y-96103981D01*
X172023688Y-96102584D01*
X172029269Y-96088155D01*
X172031297Y-96069843D01*
X172029482Y-96049975D01*
X172024290Y-96033879D01*
X172016104Y-96023817D01*
X172005449Y-96020468D01*
X171992747Y-96023961D01*
X171978420Y-96034423D01*
X171974642Y-96038029D01*
X171967538Y-96046194D01*
X171964316Y-96053826D01*
X171963558Y-96063725D01*
X171909891Y-96063725D01*
X171910453Y-96051219D01*
X171918697Y-96023931D01*
X171933952Y-95996973D01*
X171956209Y-95970731D01*
X171975975Y-95953347D01*
X172003354Y-95935960D01*
X172005449Y-95935139D01*
X172031809Y-95924814D01*
X172060531Y-95920206D01*
X172088712Y-95922429D01*
G37*
G36*
X172095870Y-100883689D02*
G01*
X172096860Y-100885490D01*
X172098983Y-100893621D01*
X172100999Y-100906220D01*
X172102578Y-100921432D01*
X172103022Y-100928355D01*
X172103700Y-100946740D01*
X172104056Y-100969078D01*
X172104064Y-100993159D01*
X172103699Y-101016776D01*
X172103227Y-101034022D01*
X172102089Y-101064581D01*
X172100743Y-101087893D01*
X172099187Y-101103962D01*
X172097421Y-101112790D01*
X172095444Y-101114381D01*
X172093254Y-101108737D01*
X172090852Y-101095862D01*
X172088236Y-101075759D01*
X172085221Y-101052348D01*
X172080819Y-101027179D01*
X172075815Y-101008429D01*
X172070037Y-100995623D01*
X172063311Y-100988286D01*
X172055465Y-100985946D01*
X172051700Y-100986473D01*
X172042897Y-100990371D01*
X172031322Y-100998382D01*
X172016514Y-101010877D01*
X171998015Y-101028228D01*
X171975366Y-101050807D01*
X171958032Y-101068024D01*
X171928123Y-101095417D01*
X171901441Y-101116607D01*
X171878064Y-101131535D01*
X171858066Y-101140144D01*
X171847211Y-101143063D01*
X171832703Y-101145163D01*
X171818638Y-101144089D01*
X171801544Y-101139821D01*
X171786212Y-101133450D01*
X171766781Y-101119082D01*
X171751011Y-101099309D01*
X171739740Y-101075013D01*
X171735680Y-101059513D01*
X171732558Y-101033683D01*
X171733037Y-101007225D01*
X171737018Y-100982500D01*
X171744405Y-100961870D01*
X171748079Y-100955293D01*
X171764378Y-100935030D01*
X171785089Y-100919536D01*
X171808880Y-100909635D01*
X171834419Y-100906152D01*
X171835184Y-100906155D01*
X171846331Y-100907392D01*
X171851214Y-100911029D01*
X171849787Y-100917294D01*
X171842004Y-100926419D01*
X171827817Y-100938632D01*
X171814009Y-100951950D01*
X171799319Y-100974160D01*
X171790208Y-100999532D01*
X171787092Y-101026775D01*
X171790388Y-101054598D01*
X171790757Y-101056070D01*
X171797205Y-101072430D01*
X171806605Y-101085892D01*
X171817686Y-101095021D01*
X171829176Y-101098384D01*
X171835863Y-101097221D01*
X171848992Y-101091906D01*
X171865062Y-101083008D01*
X171882680Y-101071326D01*
X171900449Y-101057657D01*
X171906742Y-101052171D01*
X171918142Y-101041770D01*
X171933005Y-101027913D01*
X171950404Y-101011471D01*
X171969409Y-100993318D01*
X171989094Y-100974324D01*
X172014029Y-100950215D01*
X172035529Y-100929641D01*
X172052842Y-100913390D01*
X172066451Y-100901052D01*
X172076840Y-100892217D01*
X172084494Y-100886473D01*
X172089894Y-100883411D01*
X172093525Y-100882619D01*
X172095870Y-100883689D01*
G37*
G36*
X172084114Y-96521169D02*
G01*
X172100112Y-96521938D01*
X172128307Y-96527734D01*
X172151753Y-96538980D01*
X172170392Y-96555634D01*
X172184168Y-96577650D01*
X172193024Y-96604987D01*
X172193607Y-96608272D01*
X172194861Y-96623242D01*
X172195103Y-96642748D01*
X172194421Y-96664763D01*
X172192905Y-96687260D01*
X172190644Y-96708213D01*
X172187726Y-96725596D01*
X172183464Y-96742844D01*
X172175623Y-96764108D01*
X172165614Y-96779387D01*
X172152686Y-96789416D01*
X172136088Y-96794931D01*
X172115068Y-96796665D01*
X172114871Y-96796666D01*
X172095044Y-96797348D01*
X172068636Y-96799207D01*
X172036207Y-96802191D01*
X171998318Y-96806249D01*
X171955529Y-96811330D01*
X171945905Y-96812481D01*
X171923799Y-96814858D01*
X171902933Y-96816768D01*
X171885289Y-96818041D01*
X171872850Y-96818504D01*
X171861970Y-96818322D01*
X171851935Y-96817191D01*
X171845129Y-96814488D01*
X171839250Y-96809601D01*
X171838023Y-96808293D01*
X171831819Y-96796444D01*
X171831026Y-96782876D01*
X171834893Y-96769317D01*
X171842667Y-96757494D01*
X171853599Y-96749134D01*
X171866936Y-96745963D01*
X171868789Y-96745859D01*
X171880174Y-96741957D01*
X171891408Y-96733839D01*
X171899661Y-96723453D01*
X171900601Y-96721006D01*
X171902756Y-96711496D01*
X171904232Y-96701871D01*
X171958625Y-96701871D01*
X171962722Y-96709683D01*
X171969856Y-96712641D01*
X171982677Y-96714850D01*
X171999333Y-96716121D01*
X172018108Y-96716380D01*
X172037284Y-96715557D01*
X172055146Y-96713578D01*
X172077121Y-96708950D01*
X172096064Y-96701488D01*
X172109890Y-96691090D01*
X172119602Y-96677188D01*
X172122703Y-96670275D01*
X172126610Y-96655423D01*
X172127763Y-96636946D01*
X172127728Y-96632684D01*
X172126508Y-96618156D01*
X172122695Y-96608441D01*
X172115129Y-96602502D01*
X172102655Y-96599301D01*
X172084114Y-96597799D01*
X172058484Y-96598290D01*
X172036965Y-96602865D01*
X172017738Y-96612248D01*
X171998732Y-96627151D01*
X171996529Y-96629210D01*
X171982955Y-96644118D01*
X171971839Y-96660070D01*
X171963721Y-96675834D01*
X171959138Y-96690178D01*
X171958625Y-96701871D01*
X171904232Y-96701871D01*
X171904856Y-96697805D01*
X171906556Y-96682012D01*
X171910556Y-96654523D01*
X171919354Y-96626874D01*
X171933463Y-96601847D01*
X171953765Y-96577489D01*
X171955490Y-96575714D01*
X171983389Y-96552140D01*
X172014174Y-96535033D01*
X172047350Y-96524610D01*
X172082425Y-96521088D01*
X172084114Y-96521169D01*
G37*
G36*
X171948543Y-100305379D02*
G01*
X171988285Y-100309144D01*
X172024988Y-100315402D01*
X172056748Y-100324106D01*
X172060460Y-100325455D01*
X172085887Y-100338855D01*
X172106694Y-100357811D01*
X172122569Y-100382046D01*
X172127331Y-100393984D01*
X172130267Y-100414887D01*
X172126743Y-100437375D01*
X172116704Y-100462192D01*
X172115079Y-100465319D01*
X172098365Y-100490577D01*
X172078552Y-100509474D01*
X172055823Y-100521830D01*
X172051439Y-100523453D01*
X172032374Y-100529932D01*
X172014648Y-100534683D01*
X171996548Y-100537957D01*
X171976357Y-100540007D01*
X171952358Y-100541088D01*
X171922836Y-100541453D01*
X171917835Y-100541463D01*
X171894499Y-100541383D01*
X171876613Y-100540972D01*
X171862652Y-100540098D01*
X171851096Y-100538630D01*
X171840420Y-100536439D01*
X171829103Y-100533392D01*
X171816385Y-100529571D01*
X171799778Y-100523742D01*
X171787209Y-100517716D01*
X171776751Y-100510500D01*
X171766478Y-100501101D01*
X171765685Y-100500297D01*
X171750839Y-100480274D01*
X171740177Y-100455950D01*
X171734120Y-100429155D01*
X171734033Y-100426836D01*
X171783153Y-100426836D01*
X171784855Y-100443696D01*
X171789515Y-100456912D01*
X171798118Y-100466253D01*
X171813033Y-100475657D01*
X171832672Y-100483958D01*
X171855737Y-100490499D01*
X171871821Y-100493679D01*
X171907992Y-100497890D01*
X171943019Y-100498100D01*
X171975979Y-100494502D01*
X172005952Y-100487289D01*
X172032015Y-100476654D01*
X172053247Y-100462791D01*
X172068727Y-100445891D01*
X172072594Y-100438859D01*
X172076778Y-100422792D01*
X172075719Y-100406799D01*
X172069388Y-100393317D01*
X172065080Y-100388369D01*
X172055062Y-100380045D01*
X172042341Y-100373425D01*
X172026165Y-100368352D01*
X172005783Y-100364669D01*
X171980443Y-100362218D01*
X171949393Y-100360842D01*
X171911880Y-100360385D01*
X171887299Y-100360376D01*
X171866965Y-100360487D01*
X171851765Y-100360820D01*
X171840601Y-100361476D01*
X171832378Y-100362557D01*
X171825997Y-100364163D01*
X171820363Y-100366394D01*
X171814378Y-100369353D01*
X171800185Y-100378797D01*
X171789972Y-100391059D01*
X171788537Y-100394059D01*
X171784387Y-100409300D01*
X171783153Y-100426836D01*
X171734033Y-100426836D01*
X171733090Y-100401715D01*
X171737509Y-100375460D01*
X171742335Y-100362550D01*
X171755265Y-100342350D01*
X171772835Y-100326890D01*
X171794077Y-100317165D01*
X171797271Y-100316276D01*
X171830126Y-100309558D01*
X171867559Y-100305536D01*
X171887299Y-100304859D01*
X171907666Y-100304160D01*
X171948543Y-100305379D01*
G37*
G36*
X172136037Y-96222902D02*
G01*
X172150719Y-96231070D01*
X172164113Y-96245432D01*
X172175859Y-96265765D01*
X172185603Y-96291848D01*
X172192985Y-96323459D01*
X172193407Y-96326369D01*
X172194427Y-96338683D01*
X172195164Y-96355730D01*
X172195552Y-96375652D01*
X172195528Y-96396597D01*
X172195209Y-96416749D01*
X172194674Y-96432728D01*
X172193784Y-96443940D01*
X172192379Y-96451675D01*
X172190296Y-96457226D01*
X172187375Y-96461883D01*
X172183155Y-96467037D01*
X172174859Y-96474063D01*
X172164012Y-96479406D01*
X172149439Y-96483455D01*
X172129964Y-96486595D01*
X172104411Y-96489213D01*
X172090083Y-96490270D01*
X172054272Y-96491304D01*
X172021582Y-96489927D01*
X171992797Y-96486263D01*
X171968696Y-96480436D01*
X171950062Y-96472570D01*
X171937676Y-96462789D01*
X171932633Y-96455872D01*
X171922798Y-96435426D01*
X171915144Y-96408483D01*
X171909772Y-96375367D01*
X171907965Y-96351800D01*
X171908062Y-96327323D01*
X171910116Y-96305066D01*
X171913921Y-96286023D01*
X171919276Y-96271190D01*
X171925975Y-96261560D01*
X171933814Y-96258129D01*
X171939096Y-96259444D01*
X171944111Y-96265190D01*
X171947475Y-96276116D01*
X171949373Y-96292885D01*
X171949991Y-96316162D01*
X171950155Y-96329005D01*
X171951475Y-96349810D01*
X171954395Y-96364718D01*
X171959249Y-96374579D01*
X171966372Y-96380243D01*
X171976098Y-96382560D01*
X171981803Y-96382550D01*
X171992805Y-96379326D01*
X172003600Y-96371352D01*
X172007557Y-96366618D01*
X172064405Y-96366618D01*
X172064407Y-96370072D01*
X172065169Y-96379924D01*
X172067839Y-96385564D01*
X172073358Y-96389390D01*
X172075721Y-96390440D01*
X172089097Y-96393380D01*
X172105482Y-96393865D01*
X172121811Y-96391975D01*
X172135017Y-96387790D01*
X172144365Y-96381260D01*
X172152041Y-96368753D01*
X172152520Y-96367303D01*
X172156119Y-96347851D01*
X172154532Y-96330265D01*
X172148513Y-96315439D01*
X172138819Y-96304266D01*
X172126205Y-96297639D01*
X172111425Y-96296451D01*
X172095236Y-96301594D01*
X172088888Y-96306385D01*
X172079784Y-96318153D01*
X172071986Y-96333554D01*
X172066518Y-96350428D01*
X172064405Y-96366618D01*
X172007557Y-96366618D01*
X172014707Y-96358064D01*
X172026647Y-96338897D01*
X172039939Y-96313285D01*
X172040440Y-96312261D01*
X172049874Y-96293872D01*
X172059694Y-96276182D01*
X172068766Y-96261158D01*
X172075959Y-96250766D01*
X172087831Y-96237777D01*
X172104236Y-96226033D01*
X172111425Y-96223864D01*
X172120424Y-96221149D01*
X172136037Y-96222902D01*
G37*
G36*
X172094347Y-99979437D02*
G01*
X172096723Y-99985796D01*
X172097928Y-99991454D01*
X172099998Y-100001211D01*
X172100363Y-100005643D01*
X172100740Y-100016609D01*
X172101061Y-100032856D01*
X172101309Y-100053334D01*
X172101469Y-100076988D01*
X172101524Y-100102767D01*
X172101515Y-100111518D01*
X172101272Y-100146553D01*
X172100701Y-100174532D01*
X172099806Y-100195431D01*
X172098594Y-100209227D01*
X172097068Y-100215894D01*
X172095234Y-100215409D01*
X172093095Y-100207748D01*
X172090658Y-100192887D01*
X172087926Y-100170802D01*
X172085727Y-100153159D01*
X172081806Y-100128652D01*
X172077438Y-100108207D01*
X172072833Y-100092618D01*
X172068200Y-100082681D01*
X172063751Y-100079192D01*
X172060508Y-100080456D01*
X172051920Y-100085994D01*
X172039180Y-100095420D01*
X172023000Y-100108171D01*
X172004089Y-100123683D01*
X171983159Y-100141392D01*
X171960920Y-100160736D01*
X171938160Y-100180639D01*
X171911463Y-100203267D01*
X171888838Y-100221181D01*
X171869646Y-100234588D01*
X171853247Y-100243691D01*
X171838999Y-100248697D01*
X171826262Y-100249811D01*
X171814395Y-100247237D01*
X171802758Y-100241180D01*
X171790711Y-100231847D01*
X171777612Y-100219442D01*
X171775665Y-100217477D01*
X171758694Y-100198535D01*
X171746933Y-100180709D01*
X171739560Y-100161971D01*
X171735752Y-100140294D01*
X171734686Y-100113649D01*
X171735033Y-100097080D01*
X171736936Y-100078502D01*
X171741049Y-100063686D01*
X171747991Y-100050642D01*
X171758380Y-100037383D01*
X171760967Y-100034614D01*
X171773815Y-100024040D01*
X171789162Y-100015031D01*
X171805377Y-100008182D01*
X171820828Y-100004088D01*
X171833885Y-100003345D01*
X171842915Y-100006546D01*
X171844956Y-100008719D01*
X171846021Y-100012935D01*
X171843908Y-100018783D01*
X171838099Y-100027108D01*
X171828074Y-100038749D01*
X171813314Y-100054551D01*
X171807067Y-100061269D01*
X171789425Y-100082994D01*
X171778075Y-100102561D01*
X171772786Y-100120655D01*
X171773327Y-100137960D01*
X171779468Y-100155161D01*
X171781166Y-100158328D01*
X171793601Y-100174419D01*
X171808980Y-100183889D01*
X171827154Y-100186679D01*
X171847975Y-100182730D01*
X171855268Y-100179976D01*
X171870510Y-100172286D01*
X171887672Y-100161133D01*
X171907293Y-100146090D01*
X171929914Y-100126732D01*
X171956073Y-100102631D01*
X171986309Y-100073362D01*
X171987794Y-100071899D01*
X172017100Y-100043273D01*
X172041711Y-100019756D01*
X172061579Y-100001392D01*
X172076659Y-99988222D01*
X172086903Y-99980289D01*
X172092264Y-99977635D01*
X172094347Y-99979437D01*
G37*
G36*
X172068890Y-97502285D02*
G01*
X172081655Y-97503007D01*
X172091558Y-97504957D01*
X172101193Y-97508723D01*
X172113153Y-97514891D01*
X172123830Y-97521150D01*
X172151090Y-97542413D01*
X172173299Y-97568153D01*
X172189806Y-97597511D01*
X172199962Y-97629628D01*
X172201360Y-97639810D01*
X172202215Y-97655965D01*
X172201882Y-97671997D01*
X172201647Y-97675026D01*
X172196905Y-97700213D01*
X172187670Y-97720328D01*
X172174176Y-97735000D01*
X172156655Y-97743859D01*
X172154810Y-97744398D01*
X172144747Y-97746431D01*
X172138696Y-97744998D01*
X172136226Y-97739246D01*
X172136910Y-97728320D01*
X172140317Y-97711366D01*
X172142162Y-97703108D01*
X172144457Y-97690579D01*
X172144987Y-97680545D01*
X172143783Y-97670003D01*
X172140874Y-97655946D01*
X172134997Y-97635198D01*
X172125379Y-97612833D01*
X172113699Y-97594581D01*
X172100652Y-97581490D01*
X172086932Y-97574606D01*
X172083039Y-97573812D01*
X172078178Y-97574508D01*
X172074240Y-97579085D01*
X172069469Y-97588991D01*
X172068590Y-97591064D01*
X172065767Y-97599524D01*
X172063559Y-97610047D01*
X172061790Y-97623931D01*
X172060283Y-97642474D01*
X172058863Y-97666972D01*
X172057884Y-97684578D01*
X172056106Y-97709150D01*
X172054002Y-97727982D01*
X172051371Y-97742027D01*
X172048014Y-97752237D01*
X172043732Y-97759564D01*
X172038324Y-97764961D01*
X172027385Y-97770282D01*
X172011424Y-97772457D01*
X171993738Y-97770646D01*
X171976614Y-97764851D01*
X171961417Y-97755089D01*
X171944098Y-97737764D01*
X171929096Y-97716014D01*
X171917273Y-97691378D01*
X171909489Y-97665395D01*
X171907458Y-97647237D01*
X171963575Y-97647237D01*
X171968539Y-97662898D01*
X171979634Y-97677569D01*
X171980873Y-97678755D01*
X171994339Y-97688347D01*
X172006858Y-97691495D01*
X172017662Y-97688186D01*
X172025983Y-97678405D01*
X172027593Y-97674821D01*
X172030884Y-97660529D01*
X172031355Y-97644033D01*
X172029248Y-97627637D01*
X172024802Y-97613645D01*
X172018258Y-97604360D01*
X172010098Y-97600223D01*
X171998064Y-97600221D01*
X171985724Y-97605586D01*
X171974559Y-97615603D01*
X171966050Y-97629557D01*
X171965132Y-97631963D01*
X171963575Y-97647237D01*
X171907458Y-97647237D01*
X171906604Y-97639603D01*
X171907897Y-97627911D01*
X171914567Y-97608227D01*
X171926074Y-97587203D01*
X171941474Y-97566082D01*
X171959825Y-97546105D01*
X171980182Y-97528515D01*
X171998064Y-97516860D01*
X172001602Y-97514554D01*
X172009652Y-97510306D01*
X172019621Y-97505898D01*
X172029127Y-97503459D01*
X172040742Y-97502417D01*
X172057036Y-97502196D01*
X172068890Y-97502285D01*
G37*
G36*
X172074627Y-97810685D02*
G01*
X172088119Y-97811385D01*
X172098414Y-97812990D01*
X172107593Y-97815832D01*
X172117737Y-97820243D01*
X172135244Y-97830424D01*
X172157447Y-97849675D01*
X172176308Y-97873641D01*
X172190799Y-97900948D01*
X172199894Y-97930221D01*
X172202251Y-97946276D01*
X172202387Y-97972140D01*
X172198171Y-97996125D01*
X172189930Y-98016719D01*
X172177987Y-98032406D01*
X172177159Y-98033160D01*
X172166352Y-98040688D01*
X172155097Y-98045231D01*
X172145033Y-98046552D01*
X172137794Y-98044417D01*
X172135017Y-98038589D01*
X172135753Y-98033076D01*
X172137882Y-98022594D01*
X172140916Y-98009748D01*
X172142134Y-98004731D01*
X172144631Y-97990762D01*
X172144724Y-97978403D01*
X172142556Y-97963665D01*
X172141855Y-97960191D01*
X172135454Y-97938133D01*
X172126301Y-97916834D01*
X172115458Y-97898455D01*
X172103987Y-97885157D01*
X172103140Y-97884420D01*
X172091693Y-97876215D01*
X172082918Y-97874379D01*
X172075792Y-97879066D01*
X172069292Y-97890433D01*
X172068735Y-97891731D01*
X172065882Y-97900101D01*
X172063640Y-97910644D01*
X172061836Y-97924631D01*
X172060301Y-97943331D01*
X172058863Y-97968015D01*
X172057884Y-97985621D01*
X172056106Y-98010192D01*
X172054002Y-98029025D01*
X172051371Y-98043070D01*
X172048014Y-98053280D01*
X172043732Y-98060607D01*
X172038324Y-98066003D01*
X172036770Y-98067120D01*
X172023863Y-98072140D01*
X172007360Y-98073606D01*
X171989617Y-98071523D01*
X171972987Y-98065894D01*
X171958051Y-98056688D01*
X171940253Y-98039122D01*
X171926449Y-98017210D01*
X171916931Y-97992129D01*
X171911992Y-97965053D01*
X171911946Y-97945527D01*
X171963593Y-97945527D01*
X171966550Y-97958555D01*
X171973073Y-97970618D01*
X171982119Y-97980753D01*
X171992648Y-97987999D01*
X172003617Y-97991393D01*
X172013984Y-97989973D01*
X172022707Y-97982776D01*
X172023639Y-97981403D01*
X172028994Y-97968000D01*
X172031260Y-97951257D01*
X172030515Y-97933687D01*
X172026837Y-97917798D01*
X172020306Y-97906101D01*
X172018522Y-97904377D01*
X172008624Y-97900165D01*
X171996892Y-97901352D01*
X171984859Y-97907250D01*
X171974059Y-97917172D01*
X171966024Y-97930430D01*
X171965244Y-97932496D01*
X171963593Y-97945527D01*
X171911946Y-97945527D01*
X171911926Y-97937158D01*
X171917025Y-97909621D01*
X171927582Y-97883616D01*
X171929110Y-97880919D01*
X171941829Y-97863688D01*
X171958872Y-97846449D01*
X171978054Y-97831201D01*
X171997190Y-97819943D01*
X172005486Y-97816317D01*
X172008624Y-97815304D01*
X172014727Y-97813335D01*
X172025023Y-97811596D01*
X172038437Y-97810777D01*
X172057036Y-97810554D01*
X172074627Y-97810685D01*
G37*
G36*
X171857550Y-101358470D02*
G01*
X171877105Y-101359227D01*
X171904701Y-101364700D01*
X171920140Y-101369858D01*
X171940672Y-101380128D01*
X171955810Y-101393469D01*
X171966633Y-101410953D01*
X171974223Y-101433652D01*
X171976399Y-101443151D01*
X171978069Y-101453925D01*
X171978461Y-101464987D01*
X171977627Y-101478630D01*
X171975615Y-101497146D01*
X171974790Y-101504395D01*
X171973086Y-101525486D01*
X171973472Y-101540295D01*
X171976255Y-101549419D01*
X171981744Y-101553460D01*
X171990246Y-101553016D01*
X172002067Y-101548687D01*
X172014085Y-101542259D01*
X172028623Y-101532842D01*
X172043717Y-101521857D01*
X172057661Y-101510612D01*
X172068750Y-101500412D01*
X172075281Y-101492565D01*
X172078611Y-101484866D01*
X172079459Y-101471633D01*
X172074978Y-101455844D01*
X172064989Y-101436525D01*
X172059178Y-101426220D01*
X172051732Y-101411479D01*
X172046346Y-101399046D01*
X172041827Y-101382890D01*
X172041576Y-101369851D01*
X172045675Y-101362030D01*
X172053567Y-101359856D01*
X172064700Y-101363757D01*
X172078516Y-101374164D01*
X172090554Y-101386648D01*
X172105088Y-101405120D01*
X172117471Y-101424451D01*
X172125879Y-101442031D01*
X172130580Y-101462248D01*
X172129857Y-101485648D01*
X172122717Y-101507458D01*
X172122323Y-101508227D01*
X172106615Y-101531088D01*
X172084834Y-101551549D01*
X172057859Y-101569203D01*
X172026568Y-101583641D01*
X171991839Y-101594457D01*
X171954551Y-101601242D01*
X171915582Y-101603590D01*
X171882984Y-101601924D01*
X171845813Y-101595084D01*
X171813402Y-101583022D01*
X171785892Y-101565813D01*
X171763421Y-101543527D01*
X171746130Y-101516237D01*
X171742916Y-101509566D01*
X171738267Y-101498387D01*
X171735652Y-101488099D01*
X171734592Y-101476921D01*
X171783699Y-101476921D01*
X171785683Y-101499835D01*
X171793441Y-101518374D01*
X171807016Y-101532606D01*
X171826450Y-101542598D01*
X171844768Y-101546975D01*
X171867005Y-101547021D01*
X171887678Y-101541648D01*
X171905563Y-101531391D01*
X171919432Y-101516784D01*
X171928059Y-101498361D01*
X171929050Y-101494475D01*
X171931128Y-101471882D01*
X171926818Y-101451742D01*
X171916713Y-101434791D01*
X171901406Y-101421770D01*
X171881487Y-101413415D01*
X171857550Y-101410466D01*
X171833909Y-101413005D01*
X171813693Y-101420882D01*
X171798382Y-101433807D01*
X171788323Y-101451481D01*
X171783863Y-101473607D01*
X171783699Y-101476921D01*
X171734592Y-101476921D01*
X171734504Y-101475991D01*
X171734258Y-101459348D01*
X171734313Y-101453834D01*
X171736116Y-101431621D01*
X171740983Y-101414103D01*
X171749621Y-101399456D01*
X171762737Y-101385853D01*
X171772659Y-101378501D01*
X171794566Y-101368002D01*
X171820380Y-101361125D01*
X171848446Y-101358118D01*
X171857550Y-101358470D01*
G37*
G36*
X172104428Y-102228639D02*
G01*
X172103949Y-102249352D01*
X172103168Y-102277926D01*
X172102319Y-102304003D01*
X172101440Y-102326630D01*
X172100568Y-102344858D01*
X172099742Y-102357735D01*
X172099000Y-102364309D01*
X172096211Y-102376907D01*
X172094187Y-102364213D01*
X172093487Y-102358943D01*
X172092108Y-102346706D01*
X172090358Y-102329849D01*
X172088389Y-102309857D01*
X172086354Y-102288215D01*
X172084178Y-102265828D01*
X172081000Y-102240426D01*
X172077072Y-102220938D01*
X172071766Y-102206591D01*
X172064456Y-102196612D01*
X172054515Y-102190225D01*
X172041315Y-102186658D01*
X172024230Y-102185135D01*
X172002631Y-102184883D01*
X171990552Y-102184998D01*
X171972887Y-102185772D01*
X171959433Y-102187985D01*
X171949559Y-102192468D01*
X171942634Y-102200052D01*
X171938025Y-102211565D01*
X171935100Y-102227839D01*
X171933229Y-102249704D01*
X171931779Y-102277989D01*
X171931083Y-102292353D01*
X171929526Y-102317762D01*
X171927698Y-102337430D01*
X171925420Y-102352383D01*
X171922513Y-102363648D01*
X171918798Y-102372252D01*
X171914094Y-102379219D01*
X171910928Y-102382839D01*
X171906384Y-102385323D01*
X171901502Y-102382702D01*
X171900764Y-102382048D01*
X171895033Y-102373468D01*
X171890306Y-102359273D01*
X171886506Y-102339060D01*
X171883554Y-102312429D01*
X171881372Y-102278978D01*
X171880608Y-102264279D01*
X171879156Y-102241993D01*
X171877483Y-102225313D01*
X171875376Y-102213168D01*
X171872620Y-102204486D01*
X171869004Y-102198198D01*
X171864314Y-102193231D01*
X171858089Y-102189358D01*
X171844487Y-102185342D01*
X171828655Y-102184142D01*
X171813453Y-102186155D01*
X171808717Y-102187579D01*
X171801226Y-102191030D01*
X171795491Y-102196221D01*
X171791213Y-102204072D01*
X171788091Y-102215501D01*
X171785826Y-102231428D01*
X171784117Y-102252770D01*
X171782665Y-102280448D01*
X171780882Y-102313410D01*
X171778545Y-102343063D01*
X171775709Y-102366424D01*
X171772274Y-102383994D01*
X171768142Y-102396272D01*
X171763211Y-102403759D01*
X171757382Y-102406953D01*
X171751960Y-102405448D01*
X171746532Y-102397040D01*
X171742101Y-102381483D01*
X171738668Y-102358795D01*
X171736237Y-102328997D01*
X171734812Y-102292108D01*
X171734393Y-102248148D01*
X171734399Y-102245589D01*
X171734643Y-102213047D01*
X171735287Y-102186934D01*
X171736452Y-102166484D01*
X171738258Y-102150932D01*
X171740827Y-102139512D01*
X171744282Y-102131457D01*
X171748742Y-102126002D01*
X171754330Y-102122382D01*
X171761655Y-102119821D01*
X171774451Y-102117209D01*
X171792263Y-102114938D01*
X171815465Y-102112982D01*
X171844429Y-102111316D01*
X171879527Y-102109915D01*
X171921131Y-102108754D01*
X171969614Y-102107807D01*
X172107068Y-102105567D01*
X172104428Y-102228639D01*
G37*
G36*
X172053490Y-101658454D02*
G01*
X172061274Y-101661587D01*
X172074854Y-101671326D01*
X172088668Y-101685548D01*
X172101505Y-101702752D01*
X172112155Y-101721439D01*
X172119407Y-101740109D01*
X172121447Y-101748579D01*
X172123451Y-101775786D01*
X172119107Y-101802617D01*
X172109076Y-101828183D01*
X172094014Y-101851596D01*
X172074579Y-101871966D01*
X172051430Y-101888406D01*
X172025225Y-101900027D01*
X171996621Y-101905940D01*
X171994229Y-101906141D01*
X171965116Y-101904953D01*
X171938153Y-101897230D01*
X171913910Y-101883489D01*
X171892959Y-101864244D01*
X171875870Y-101840011D01*
X171863214Y-101811305D01*
X171855562Y-101778641D01*
X171852916Y-101765984D01*
X171845870Y-101749436D01*
X171835935Y-101738420D01*
X171823682Y-101733478D01*
X171809684Y-101735152D01*
X171804459Y-101737538D01*
X171797611Y-101743445D01*
X171792232Y-101752785D01*
X171787964Y-101766513D01*
X171784450Y-101785585D01*
X171781333Y-101810956D01*
X171780771Y-101816133D01*
X171777395Y-101841295D01*
X171773536Y-101859877D01*
X171768999Y-101872446D01*
X171763592Y-101879571D01*
X171757118Y-101881819D01*
X171754451Y-101881377D01*
X171747604Y-101875495D01*
X171741908Y-101863252D01*
X171737486Y-101845255D01*
X171734462Y-101822114D01*
X171732959Y-101794439D01*
X171733099Y-101762840D01*
X171733652Y-101748575D01*
X171735337Y-101726303D01*
X171738074Y-101709848D01*
X171742129Y-101698286D01*
X171747769Y-101690691D01*
X171755261Y-101686138D01*
X171759293Y-101685040D01*
X171769986Y-101683079D01*
X171784644Y-101680964D01*
X171801331Y-101678995D01*
X171809495Y-101678055D01*
X171830796Y-101675054D01*
X171852011Y-101671432D01*
X171869568Y-101667779D01*
X171887599Y-101663640D01*
X171904217Y-101660791D01*
X171915934Y-101660897D01*
X171923324Y-101664649D01*
X171926958Y-101672738D01*
X171927410Y-101685858D01*
X171925254Y-101704699D01*
X171921060Y-101729953D01*
X171918892Y-101743400D01*
X171916278Y-101763006D01*
X171914483Y-101780805D01*
X171913806Y-101794143D01*
X171913972Y-101804353D01*
X171915200Y-101813960D01*
X171918314Y-101820793D01*
X171924114Y-101827436D01*
X171924439Y-101827757D01*
X171937953Y-101837007D01*
X171955976Y-101843966D01*
X171976008Y-101847909D01*
X171995549Y-101848114D01*
X172013004Y-101844607D01*
X172034402Y-101835486D01*
X172053087Y-101822208D01*
X172067922Y-101805830D01*
X172077774Y-101787410D01*
X172081507Y-101768005D01*
X172081517Y-101766075D01*
X172079627Y-101750932D01*
X172073500Y-101738632D01*
X172062162Y-101727834D01*
X172044639Y-101717198D01*
X172030302Y-101709031D01*
X172017443Y-101699383D01*
X172010287Y-101690055D01*
X172008071Y-101680275D01*
X172009029Y-101675094D01*
X172015376Y-101666526D01*
X172026117Y-101660312D01*
X172039430Y-101657329D01*
X172053490Y-101658454D01*
G37*
G36*
X171265501Y-100738134D02*
G01*
X171305961Y-100742861D01*
X171351453Y-100753689D01*
X171395441Y-100769875D01*
X171437153Y-100791350D01*
X171475816Y-100818045D01*
X171510657Y-100849889D01*
X171511397Y-100850671D01*
X171527288Y-100869122D01*
X171538694Y-100886814D01*
X171546433Y-100905726D01*
X171551323Y-100927834D01*
X171554182Y-100955116D01*
X171555166Y-100974497D01*
X171555705Y-101002303D01*
X171555491Y-101031611D01*
X171554571Y-101060237D01*
X171552996Y-101085997D01*
X171550812Y-101106708D01*
X171549772Y-101113287D01*
X171544180Y-101135496D01*
X171535187Y-101155560D01*
X171521976Y-101174726D01*
X171503728Y-101194242D01*
X171479627Y-101215357D01*
X171468617Y-101223924D01*
X171429962Y-101248247D01*
X171387686Y-101267113D01*
X171342683Y-101280512D01*
X171295851Y-101288434D01*
X171248087Y-101290870D01*
X171200287Y-101287810D01*
X171153347Y-101279243D01*
X171108165Y-101265159D01*
X171065637Y-101245549D01*
X171026659Y-101220402D01*
X171012409Y-101208833D01*
X170993218Y-101189617D01*
X170977218Y-101167999D01*
X170963688Y-101142768D01*
X170951908Y-101112713D01*
X170941156Y-101076622D01*
X170940558Y-101074320D01*
X170934196Y-101038973D01*
X170932780Y-101008424D01*
X171007068Y-101008424D01*
X171007133Y-101014628D01*
X171010629Y-101054814D01*
X171019549Y-101090223D01*
X171034028Y-101121041D01*
X171054204Y-101147452D01*
X171080214Y-101169642D01*
X171112194Y-101187795D01*
X171150282Y-101202097D01*
X171152352Y-101202719D01*
X171165081Y-101206310D01*
X171176449Y-101208846D01*
X171188179Y-101210515D01*
X171201994Y-101211506D01*
X171219617Y-101212007D01*
X171242771Y-101212207D01*
X171261327Y-101212101D01*
X171292199Y-101210716D01*
X171318721Y-101207476D01*
X171342720Y-101202020D01*
X171366023Y-101193987D01*
X171390457Y-101183015D01*
X171391803Y-101182348D01*
X171421435Y-101163896D01*
X171447927Y-101140302D01*
X171470250Y-101112822D01*
X171487377Y-101082713D01*
X171498279Y-101051232D01*
X171501471Y-101034785D01*
X171503335Y-101002677D01*
X171498730Y-100972339D01*
X171487464Y-100943188D01*
X171469348Y-100914644D01*
X171444190Y-100886123D01*
X171425040Y-100868594D01*
X171398074Y-100849403D01*
X171368224Y-100834552D01*
X171333446Y-100822870D01*
X171308979Y-100817359D01*
X171265501Y-100812958D01*
X171220784Y-100814592D01*
X171176152Y-100822007D01*
X171132925Y-100834947D01*
X171092427Y-100853156D01*
X171055979Y-100876381D01*
X171044227Y-100886823D01*
X171027942Y-100908978D01*
X171016311Y-100936655D01*
X171009349Y-100969817D01*
X171007068Y-101008424D01*
X170932780Y-101008424D01*
X170932524Y-101002892D01*
X170935512Y-100968190D01*
X170943130Y-100936981D01*
X170943192Y-100936802D01*
X170959296Y-100898113D01*
X170979481Y-100862632D01*
X171002898Y-100831654D01*
X171028699Y-100806473D01*
X171044696Y-100794321D01*
X171082986Y-100771536D01*
X171124407Y-100754527D01*
X171168188Y-100743225D01*
X171213556Y-100737559D01*
X171259738Y-100737461D01*
X171265501Y-100738134D01*
G37*
G36*
X171128458Y-101432752D02*
G01*
X171197018Y-101433141D01*
X171224077Y-101433335D01*
X171278225Y-101433787D01*
X171325787Y-101434301D01*
X171367218Y-101434907D01*
X171402977Y-101435635D01*
X171433522Y-101436514D01*
X171459311Y-101437575D01*
X171480800Y-101438847D01*
X171498447Y-101440361D01*
X171512711Y-101442147D01*
X171524048Y-101444234D01*
X171532917Y-101446653D01*
X171539774Y-101449432D01*
X171545078Y-101452604D01*
X171549287Y-101456196D01*
X171550616Y-101457734D01*
X171554291Y-101467581D01*
X171553363Y-101478749D01*
X171547976Y-101487803D01*
X171543693Y-101491102D01*
X171537513Y-101494349D01*
X171529384Y-101497096D01*
X171518718Y-101499394D01*
X171504924Y-101501295D01*
X171487413Y-101502849D01*
X171465596Y-101504107D01*
X171438882Y-101505120D01*
X171406684Y-101505940D01*
X171368410Y-101506616D01*
X171323472Y-101507201D01*
X171155722Y-101509123D01*
X171155722Y-101745922D01*
X171155722Y-101982721D01*
X171328912Y-101984283D01*
X171341344Y-101984398D01*
X171381309Y-101984819D01*
X171414819Y-101985274D01*
X171442501Y-101985787D01*
X171464980Y-101986379D01*
X171482879Y-101987075D01*
X171496825Y-101987896D01*
X171507442Y-101988866D01*
X171515356Y-101990008D01*
X171521192Y-101991346D01*
X171532108Y-101994965D01*
X171545442Y-102001981D01*
X171552523Y-102010506D01*
X171553963Y-102021098D01*
X171551320Y-102029329D01*
X171542996Y-102037488D01*
X171528579Y-102043780D01*
X171507543Y-102048516D01*
X171493636Y-102050304D01*
X171471369Y-102052176D01*
X171442904Y-102053844D01*
X171408804Y-102055294D01*
X171369632Y-102056516D01*
X171325950Y-102057496D01*
X171278322Y-102058221D01*
X171227310Y-102058681D01*
X171173479Y-102058862D01*
X171117390Y-102058752D01*
X171059606Y-102058338D01*
X171050323Y-102058246D01*
X170997063Y-102057633D01*
X170950480Y-102056925D01*
X170910080Y-102056095D01*
X170875365Y-102055119D01*
X170845842Y-102053970D01*
X170821013Y-102052621D01*
X170800383Y-102051046D01*
X170783457Y-102049219D01*
X170769738Y-102047114D01*
X170758732Y-102044705D01*
X170749941Y-102041966D01*
X170739863Y-102037066D01*
X170730717Y-102028289D01*
X170728069Y-102018443D01*
X170731772Y-102008478D01*
X170741680Y-101999345D01*
X170757647Y-101991993D01*
X170759503Y-101991420D01*
X170765496Y-101989950D01*
X170772999Y-101988725D01*
X170782731Y-101987712D01*
X170795410Y-101986878D01*
X170811753Y-101986191D01*
X170832478Y-101985618D01*
X170858303Y-101985127D01*
X170889947Y-101984685D01*
X170928127Y-101984260D01*
X171079555Y-101982705D01*
X171079555Y-101745913D01*
X171079555Y-101509120D01*
X170933568Y-101507115D01*
X170928693Y-101507046D01*
X170895200Y-101506470D01*
X170863875Y-101505758D01*
X170835566Y-101504939D01*
X170811121Y-101504044D01*
X170791388Y-101503104D01*
X170777213Y-101502149D01*
X170769445Y-101501209D01*
X170764583Y-101500030D01*
X170748484Y-101493818D01*
X170736648Y-101485527D01*
X170729787Y-101476040D01*
X170728611Y-101466238D01*
X170733831Y-101457004D01*
X170735799Y-101455252D01*
X170742339Y-101451230D01*
X170751525Y-101447657D01*
X170763709Y-101444514D01*
X170779247Y-101441784D01*
X170798493Y-101439448D01*
X170821801Y-101437487D01*
X170849525Y-101435884D01*
X170882020Y-101434621D01*
X170919640Y-101433678D01*
X170962740Y-101433038D01*
X171011673Y-101432683D01*
X171066794Y-101432593D01*
X171128458Y-101432752D01*
G37*
G36*
X171360173Y-102210140D02*
G01*
X171374439Y-102211388D01*
X171387284Y-102214937D01*
X171402413Y-102221684D01*
X171421593Y-102232574D01*
X171451349Y-102254867D01*
X171479848Y-102282415D01*
X171506204Y-102313996D01*
X171529532Y-102348390D01*
X171548948Y-102384377D01*
X171563565Y-102420736D01*
X171572500Y-102456246D01*
X171575478Y-102481278D01*
X171576364Y-102520836D01*
X171573387Y-102562031D01*
X171566764Y-102602345D01*
X171556714Y-102639260D01*
X171543487Y-102672876D01*
X171525097Y-102706576D01*
X171502943Y-102734778D01*
X171476335Y-102758194D01*
X171444581Y-102777534D01*
X171406993Y-102793510D01*
X171384329Y-102800554D01*
X171346189Y-102807371D01*
X171309966Y-102807232D01*
X171275713Y-102800175D01*
X171243481Y-102786239D01*
X171213323Y-102765463D01*
X171185290Y-102737886D01*
X171159435Y-102703547D01*
X171135810Y-102662485D01*
X171114466Y-102614740D01*
X171095456Y-102560349D01*
X171086789Y-102532684D01*
X171072373Y-102488838D01*
X171058934Y-102451282D01*
X171046161Y-102419494D01*
X171033745Y-102392953D01*
X171021376Y-102371137D01*
X171008742Y-102353524D01*
X170995535Y-102339593D01*
X170981444Y-102328823D01*
X170966158Y-102320691D01*
X170949367Y-102314677D01*
X170924221Y-102310763D01*
X170897989Y-102313328D01*
X170872158Y-102322117D01*
X170847411Y-102336638D01*
X170824428Y-102356398D01*
X170803890Y-102380906D01*
X170786479Y-102409668D01*
X170772877Y-102442193D01*
X170772817Y-102442371D01*
X170767818Y-102458540D01*
X170765158Y-102471582D01*
X170764388Y-102484936D01*
X170765059Y-102502039D01*
X170769019Y-102531521D01*
X170777493Y-102562880D01*
X170789730Y-102593410D01*
X170805070Y-102622038D01*
X170822858Y-102647696D01*
X170842435Y-102669313D01*
X170863143Y-102685819D01*
X170884325Y-102696143D01*
X170900682Y-102702124D01*
X170922036Y-102712513D01*
X170938468Y-102723960D01*
X170949210Y-102735891D01*
X170953496Y-102747736D01*
X170952608Y-102760794D01*
X170946503Y-102773111D01*
X170935273Y-102780958D01*
X170919363Y-102784174D01*
X170899218Y-102782597D01*
X170875285Y-102776065D01*
X170874635Y-102775835D01*
X170841217Y-102760389D01*
X170807693Y-102737956D01*
X170774430Y-102708779D01*
X170754642Y-102688225D01*
X170737139Y-102666637D01*
X170724122Y-102645272D01*
X170715022Y-102622671D01*
X170709266Y-102597375D01*
X170706283Y-102567927D01*
X170705502Y-102532869D01*
X170706124Y-102497353D01*
X170708717Y-102453996D01*
X170713534Y-102416317D01*
X170720805Y-102383538D01*
X170730763Y-102354883D01*
X170743639Y-102329573D01*
X170759664Y-102306831D01*
X170779071Y-102285879D01*
X170782297Y-102282808D01*
X170797655Y-102269254D01*
X170811750Y-102259367D01*
X170827321Y-102251452D01*
X170847110Y-102243815D01*
X170849911Y-102242880D01*
X170870473Y-102238184D01*
X170895215Y-102235294D01*
X170921668Y-102234317D01*
X170947361Y-102235358D01*
X170969823Y-102238526D01*
X170992066Y-102244459D01*
X171017493Y-102254980D01*
X171040478Y-102269368D01*
X171061406Y-102288105D01*
X171080658Y-102311675D01*
X171098619Y-102340562D01*
X171115672Y-102375249D01*
X171132200Y-102416219D01*
X171148585Y-102463956D01*
X171154193Y-102481381D01*
X171164599Y-102513220D01*
X171173541Y-102539692D01*
X171181419Y-102561875D01*
X171188636Y-102580842D01*
X171195594Y-102597669D01*
X171202695Y-102613432D01*
X171210340Y-102629207D01*
X171218814Y-102645477D01*
X171237742Y-102676579D01*
X171257044Y-102700906D01*
X171277059Y-102718786D01*
X171298124Y-102730547D01*
X171320577Y-102736520D01*
X171332252Y-102736855D01*
X171353336Y-102732713D01*
X171376130Y-102723443D01*
X171399538Y-102709810D01*
X171422466Y-102692579D01*
X171443818Y-102672515D01*
X171462500Y-102650382D01*
X171477417Y-102626947D01*
X171487534Y-102605619D01*
X171497505Y-102574976D01*
X171502542Y-102542394D01*
X171503076Y-102505841D01*
X171502481Y-102495220D01*
X171496537Y-102454143D01*
X171484844Y-102417389D01*
X171467225Y-102384679D01*
X171443502Y-102355734D01*
X171413498Y-102330276D01*
X171377035Y-102308028D01*
X171375226Y-102307080D01*
X171349419Y-102292327D01*
X171330281Y-102278616D01*
X171317402Y-102265538D01*
X171310375Y-102252683D01*
X171308790Y-102239642D01*
X171308924Y-102238143D01*
X171312636Y-102225258D01*
X171321061Y-102216560D01*
X171334837Y-102211638D01*
X171354601Y-102210079D01*
X171360173Y-102210140D01*
G37*
G36*
X169830521Y-100309502D02*
G01*
X169836740Y-100315687D01*
X169846283Y-100325729D01*
X169858320Y-100338752D01*
X169872023Y-100353883D01*
X169888673Y-100372263D01*
X169917077Y-100402522D01*
X169943159Y-100428518D01*
X169968172Y-100451308D01*
X169993365Y-100471945D01*
X170019989Y-100491485D01*
X170049295Y-100510983D01*
X170082532Y-100531494D01*
X170093579Y-100538015D01*
X170124365Y-100555405D01*
X170161100Y-100575244D01*
X170203267Y-100597277D01*
X170250345Y-100621248D01*
X170301816Y-100646904D01*
X170357161Y-100673989D01*
X170415860Y-100702247D01*
X170477395Y-100731426D01*
X170541247Y-100761268D01*
X170606896Y-100791520D01*
X170673824Y-100821926D01*
X170674489Y-100822228D01*
X170686878Y-100828542D01*
X170696679Y-100834748D01*
X170701823Y-100839544D01*
X170702814Y-100841280D01*
X170705097Y-100846552D01*
X170705065Y-100851850D01*
X170702367Y-100859308D01*
X170696653Y-100871060D01*
X170692345Y-100879028D01*
X170680816Y-100897689D01*
X170665487Y-100920255D01*
X170647090Y-100945792D01*
X170626356Y-100973368D01*
X170604019Y-101002051D01*
X170580810Y-101030906D01*
X170557462Y-101059001D01*
X170534706Y-101085404D01*
X170513275Y-101109180D01*
X170493902Y-101129398D01*
X170486624Y-101136638D01*
X170469324Y-101153345D01*
X170452568Y-101168605D01*
X170435654Y-101182887D01*
X170417877Y-101196659D01*
X170398533Y-101210389D01*
X170376920Y-101224544D01*
X170352332Y-101239593D01*
X170324067Y-101256005D01*
X170291420Y-101274246D01*
X170253688Y-101294786D01*
X170210166Y-101318091D01*
X170196152Y-101325582D01*
X170097202Y-101380081D01*
X170000911Y-101436079D01*
X169906446Y-101494144D01*
X169812973Y-101554844D01*
X169719659Y-101618749D01*
X169625672Y-101686426D01*
X169530177Y-101758444D01*
X169432342Y-101835373D01*
X169331333Y-101917779D01*
X169295109Y-101948057D01*
X169248619Y-101987634D01*
X169202145Y-102028052D01*
X169155075Y-102069877D01*
X169106793Y-102113671D01*
X169056686Y-102159998D01*
X169004139Y-102209423D01*
X168948539Y-102262508D01*
X168889270Y-102319819D01*
X168825720Y-102381918D01*
X168808916Y-102398397D01*
X168769302Y-102437100D01*
X168734255Y-102471086D01*
X168703407Y-102500683D01*
X168676387Y-102526221D01*
X168652825Y-102548028D01*
X168632350Y-102566435D01*
X168614593Y-102581769D01*
X168599183Y-102594361D01*
X168585751Y-102604539D01*
X168573926Y-102612633D01*
X168563338Y-102618971D01*
X168553616Y-102623883D01*
X168540317Y-102629043D01*
X168526118Y-102631040D01*
X168514086Y-102627472D01*
X168502610Y-102618157D01*
X168500748Y-102616111D01*
X168495526Y-102608380D01*
X168492758Y-102599586D01*
X168492664Y-102589123D01*
X168495460Y-102576384D01*
X168501365Y-102560762D01*
X168510598Y-102541651D01*
X168523375Y-102518445D01*
X168539916Y-102490536D01*
X168560437Y-102457319D01*
X168563514Y-102452415D01*
X168613316Y-102375758D01*
X168665890Y-102299908D01*
X168721477Y-102224627D01*
X168780316Y-102149682D01*
X168842649Y-102074836D01*
X168908717Y-101999855D01*
X168978761Y-101924504D01*
X169053020Y-101848547D01*
X169131737Y-101771749D01*
X169215151Y-101693874D01*
X169303503Y-101614689D01*
X169397035Y-101533957D01*
X169495986Y-101451442D01*
X169600598Y-101366911D01*
X169711112Y-101280128D01*
X169827767Y-101190857D01*
X169950805Y-101098863D01*
X169977216Y-101079263D01*
X170006365Y-101057400D01*
X170030389Y-101039025D01*
X170049739Y-101023747D01*
X170064867Y-101011173D01*
X170076222Y-101000911D01*
X170084256Y-100992568D01*
X170089419Y-100985752D01*
X170092162Y-100980070D01*
X170092936Y-100975130D01*
X170092433Y-100974004D01*
X170086804Y-100969151D01*
X170075400Y-100961775D01*
X170058811Y-100952241D01*
X170037624Y-100940912D01*
X169990845Y-100915977D01*
X169943505Y-100889533D01*
X169897111Y-100862458D01*
X169852474Y-100835269D01*
X169810403Y-100808480D01*
X169771708Y-100782609D01*
X169737197Y-100758169D01*
X169707682Y-100735678D01*
X169683970Y-100715650D01*
X169677769Y-100709778D01*
X169659041Y-100688361D01*
X169644765Y-100665925D01*
X169635671Y-100643783D01*
X169632490Y-100623244D01*
X169632556Y-100620366D01*
X169636007Y-100599111D01*
X169644470Y-100573571D01*
X169657646Y-100544268D01*
X169675235Y-100511725D01*
X169696937Y-100476465D01*
X169722453Y-100439009D01*
X169751482Y-100399882D01*
X169783725Y-100359604D01*
X169797043Y-100343665D01*
X169809144Y-100329403D01*
X169818929Y-100318105D01*
X169825635Y-100310650D01*
X169828499Y-100307919D01*
X169830521Y-100309502D01*
G37*
G36*
X171092770Y-100029495D02*
G01*
X171105736Y-100029560D01*
X171121984Y-100029641D01*
X171182891Y-100030001D01*
X171239129Y-100030413D01*
X171290410Y-100030871D01*
X171336446Y-100031373D01*
X171376951Y-100031913D01*
X171411638Y-100032488D01*
X171440218Y-100033094D01*
X171462407Y-100033727D01*
X171477915Y-100034383D01*
X171486456Y-100035057D01*
X171505900Y-100038046D01*
X171526512Y-100042365D01*
X171540741Y-100047084D01*
X171549090Y-100052344D01*
X171550462Y-100053917D01*
X171554293Y-100063961D01*
X171553203Y-100075291D01*
X171547365Y-100084700D01*
X171544542Y-100087012D01*
X171538889Y-100090416D01*
X171531544Y-100093283D01*
X171521888Y-100095669D01*
X171509303Y-100097628D01*
X171493172Y-100099218D01*
X171472877Y-100100492D01*
X171447799Y-100101508D01*
X171417321Y-100102319D01*
X171380825Y-100102983D01*
X171337693Y-100103555D01*
X171180537Y-100105386D01*
X171182083Y-100249157D01*
X171182339Y-100271582D01*
X171182810Y-100305695D01*
X171183339Y-100333721D01*
X171183960Y-100356404D01*
X171184705Y-100374489D01*
X171185609Y-100388717D01*
X171186705Y-100399835D01*
X171188027Y-100408585D01*
X171189609Y-100415712D01*
X171194652Y-100432610D01*
X171202244Y-100450941D01*
X171211861Y-100466436D01*
X171224155Y-100479451D01*
X171239780Y-100490344D01*
X171259391Y-100499470D01*
X171283641Y-100507187D01*
X171313184Y-100513851D01*
X171348673Y-100519819D01*
X171390762Y-100525447D01*
X171409639Y-100527844D01*
X171446790Y-100533265D01*
X171477397Y-100538939D01*
X171501950Y-100545060D01*
X171520940Y-100551822D01*
X171534856Y-100559422D01*
X171544189Y-100568054D01*
X171549429Y-100577913D01*
X171551067Y-100589193D01*
X171551054Y-100590357D01*
X171548739Y-100600458D01*
X171541207Y-100607746D01*
X171539815Y-100608604D01*
X171534448Y-100610971D01*
X171527161Y-100612534D01*
X171516621Y-100613426D01*
X171501496Y-100613777D01*
X171480455Y-100613718D01*
X171443619Y-100612659D01*
X171397469Y-100609429D01*
X171352002Y-100604276D01*
X171308524Y-100597413D01*
X171268338Y-100589049D01*
X171232747Y-100579398D01*
X171203054Y-100568670D01*
X171193192Y-100564563D01*
X171171631Y-100556728D01*
X171153893Y-100552838D01*
X171138242Y-100553065D01*
X171122947Y-100557578D01*
X171106273Y-100566550D01*
X171086486Y-100580150D01*
X171076684Y-100587142D01*
X171054452Y-100601443D01*
X171033870Y-100611871D01*
X171012625Y-100619492D01*
X170988402Y-100625373D01*
X170964556Y-100628692D01*
X170927473Y-100628593D01*
X170890406Y-100622703D01*
X170855166Y-100611357D01*
X170823566Y-100594890D01*
X170814966Y-100588858D01*
X170795998Y-100572836D01*
X170777712Y-100554169D01*
X170762008Y-100534888D01*
X170750785Y-100517026D01*
X170750669Y-100516796D01*
X170746732Y-100508621D01*
X170743343Y-100500411D01*
X170740455Y-100491564D01*
X170738021Y-100481479D01*
X170735995Y-100469554D01*
X170734329Y-100455188D01*
X170732977Y-100437779D01*
X170731890Y-100416726D01*
X170731023Y-100391426D01*
X170730329Y-100361279D01*
X170729759Y-100325683D01*
X170729268Y-100284036D01*
X170728808Y-100235737D01*
X170728581Y-100210193D01*
X170779854Y-100210193D01*
X170780348Y-100236466D01*
X170781523Y-100263485D01*
X170783359Y-100290019D01*
X170785837Y-100314838D01*
X170788938Y-100336710D01*
X170794026Y-100365177D01*
X170801814Y-100402819D01*
X170810004Y-100434429D01*
X170818957Y-100460743D01*
X170829031Y-100482496D01*
X170840588Y-100500425D01*
X170853986Y-100515263D01*
X170869586Y-100527747D01*
X170887748Y-100538611D01*
X170897105Y-100543225D01*
X170905605Y-100546261D01*
X170915103Y-100547969D01*
X170927684Y-100548722D01*
X170945432Y-100548891D01*
X170948913Y-100548888D01*
X170965500Y-100548666D01*
X170977476Y-100547775D01*
X170987096Y-100545781D01*
X170996612Y-100542247D01*
X171008279Y-100536737D01*
X171016061Y-100532572D01*
X171036624Y-100518624D01*
X171055776Y-100501764D01*
X171071692Y-100483723D01*
X171082549Y-100466233D01*
X171086611Y-100456277D01*
X171091973Y-100440345D01*
X171096309Y-100424522D01*
X171096565Y-100423397D01*
X171098056Y-100415134D01*
X171099320Y-100404508D01*
X171100389Y-100390820D01*
X171101293Y-100373371D01*
X171102063Y-100351462D01*
X171102729Y-100324395D01*
X171103323Y-100291471D01*
X171103874Y-100251992D01*
X171105736Y-100103801D01*
X170981115Y-100105556D01*
X170967408Y-100105760D01*
X170927664Y-100106526D01*
X170894364Y-100107530D01*
X170866890Y-100108865D01*
X170844624Y-100110626D01*
X170826949Y-100112909D01*
X170813246Y-100115807D01*
X170802897Y-100119414D01*
X170795285Y-100123827D01*
X170789792Y-100129138D01*
X170785800Y-100135444D01*
X170785065Y-100137178D01*
X170782645Y-100148158D01*
X170780983Y-100164808D01*
X170780059Y-100185897D01*
X170779854Y-100210193D01*
X170728581Y-100210193D01*
X170726962Y-100027766D01*
X171092770Y-100029495D01*
G37*
G36*
X171795650Y-97978379D02*
G01*
X171801982Y-97982676D01*
X171804958Y-97987875D01*
X171802812Y-97993502D01*
X171794132Y-98002362D01*
X171779087Y-98013005D01*
X171758000Y-98025247D01*
X171731190Y-98038904D01*
X171698980Y-98053792D01*
X171661691Y-98069729D01*
X171658229Y-98071163D01*
X171625945Y-98084998D01*
X171597943Y-98097864D01*
X171574742Y-98109490D01*
X171556859Y-98119602D01*
X171544810Y-98127930D01*
X171539115Y-98134200D01*
X171537715Y-98142768D01*
X171539393Y-98156924D01*
X171544356Y-98176523D01*
X171552664Y-98201741D01*
X171564373Y-98232749D01*
X171579541Y-98269722D01*
X171598226Y-98312835D01*
X171598555Y-98313580D01*
X171612165Y-98347373D01*
X171621094Y-98376684D01*
X171625551Y-98402365D01*
X171625745Y-98425272D01*
X171625498Y-98428004D01*
X171617585Y-98473226D01*
X171602643Y-98517781D01*
X171580878Y-98561313D01*
X171552497Y-98603467D01*
X171517707Y-98643885D01*
X171476713Y-98682211D01*
X171444380Y-98708179D01*
X171396346Y-98742606D01*
X171343389Y-98776106D01*
X171285177Y-98808844D01*
X171221376Y-98840986D01*
X171151655Y-98872697D01*
X171075681Y-98904142D01*
X170993122Y-98935486D01*
X170903645Y-98966895D01*
X170872730Y-98977439D01*
X170815375Y-98997516D01*
X170764490Y-99016097D01*
X170719692Y-99033344D01*
X170680597Y-99049416D01*
X170646823Y-99064475D01*
X170617985Y-99078681D01*
X170593700Y-99092195D01*
X170573586Y-99105177D01*
X170559371Y-99114859D01*
X170542403Y-99125733D01*
X170526159Y-99135509D01*
X170511950Y-99143430D01*
X170501085Y-99148738D01*
X170494876Y-99150675D01*
X170491740Y-99150137D01*
X170488689Y-99147429D01*
X170486314Y-99141518D01*
X170484361Y-99131392D01*
X170482574Y-99116042D01*
X170480698Y-99094457D01*
X170480493Y-99091774D01*
X170479161Y-99063792D01*
X170478728Y-99029939D01*
X170479130Y-98991403D01*
X170480301Y-98949371D01*
X170482177Y-98905030D01*
X170484693Y-98859566D01*
X170487784Y-98814168D01*
X170491385Y-98770021D01*
X170495432Y-98728314D01*
X170499859Y-98690233D01*
X170504602Y-98656964D01*
X170507058Y-98643035D01*
X170516337Y-98602248D01*
X170528912Y-98558547D01*
X170544070Y-98514086D01*
X170561099Y-98471016D01*
X170579286Y-98431488D01*
X170598403Y-98395424D01*
X170637229Y-98333131D01*
X170680645Y-98276433D01*
X170728714Y-98225269D01*
X170781499Y-98179574D01*
X170839062Y-98139285D01*
X170901465Y-98104340D01*
X170921019Y-98095114D01*
X170957054Y-98080583D01*
X170996500Y-98067742D01*
X171040311Y-98056325D01*
X171089440Y-98046067D01*
X171144841Y-98036702D01*
X171166053Y-98033952D01*
X171193231Y-98031439D01*
X171222737Y-98029555D01*
X171253376Y-98028309D01*
X171283957Y-98027710D01*
X171313284Y-98027768D01*
X171340165Y-98028492D01*
X171363406Y-98029891D01*
X171381815Y-98031974D01*
X171394197Y-98034752D01*
X171402341Y-98037955D01*
X171415084Y-98045949D01*
X171422023Y-98056366D01*
X171424122Y-98070353D01*
X171424050Y-98072522D01*
X171419485Y-98087637D01*
X171408048Y-98101980D01*
X171390071Y-98115116D01*
X171374748Y-98123097D01*
X171353086Y-98131476D01*
X171327991Y-98138129D01*
X171298522Y-98143249D01*
X171263742Y-98147031D01*
X171222709Y-98149668D01*
X171213884Y-98150123D01*
X171178975Y-98152667D01*
X171149467Y-98156094D01*
X171125668Y-98160323D01*
X171107885Y-98165272D01*
X171096424Y-98170860D01*
X171091592Y-98177008D01*
X171093696Y-98183634D01*
X171098101Y-98187424D01*
X171107344Y-98191475D01*
X171121274Y-98194609D01*
X171140743Y-98197002D01*
X171166603Y-98198832D01*
X171187995Y-98200249D01*
X171208628Y-98202430D01*
X171223710Y-98205261D01*
X171234176Y-98208929D01*
X171240966Y-98213619D01*
X171243281Y-98216083D01*
X171244801Y-98220384D01*
X171240956Y-98225788D01*
X171234430Y-98230450D01*
X171220565Y-98235928D01*
X171201355Y-98240838D01*
X171177859Y-98245000D01*
X171151137Y-98248232D01*
X171122247Y-98250354D01*
X171092250Y-98251184D01*
X171084864Y-98251278D01*
X171056558Y-98252731D01*
X171028866Y-98255727D01*
X171003116Y-98260013D01*
X170980633Y-98265339D01*
X170962745Y-98271450D01*
X170950779Y-98278095D01*
X170940319Y-98286436D01*
X170949184Y-98291304D01*
X170952785Y-98292616D01*
X170963179Y-98294458D01*
X170979653Y-98296032D01*
X171002598Y-98297371D01*
X171032404Y-98298509D01*
X171037354Y-98298670D01*
X171059823Y-98299546D01*
X171079830Y-98300553D01*
X171096178Y-98301615D01*
X171107669Y-98302656D01*
X171113105Y-98303602D01*
X171113662Y-98303855D01*
X171118601Y-98308635D01*
X171118065Y-98316053D01*
X171111882Y-98326593D01*
X171099880Y-98340737D01*
X171084183Y-98355923D01*
X171058265Y-98374736D01*
X171028393Y-98389478D01*
X170993657Y-98400571D01*
X170953145Y-98408435D01*
X170941391Y-98410230D01*
X170927647Y-98412558D01*
X170917918Y-98414489D01*
X170913791Y-98415730D01*
X170913161Y-98416536D01*
X170913409Y-98419334D01*
X170917482Y-98422998D01*
X170926114Y-98427971D01*
X170940037Y-98434694D01*
X170959986Y-98443610D01*
X170960109Y-98443664D01*
X170977708Y-98451729D01*
X170991152Y-98458617D01*
X170999570Y-98463846D01*
X171002094Y-98466935D01*
X170999696Y-98470822D01*
X170993656Y-98479632D01*
X170984700Y-98492312D01*
X170973537Y-98507859D01*
X170960876Y-98525270D01*
X170942934Y-98549920D01*
X170924918Y-98575050D01*
X170910586Y-98595564D01*
X170899523Y-98612074D01*
X170891310Y-98625192D01*
X170885529Y-98635529D01*
X170882775Y-98641102D01*
X170882111Y-98643835D01*
X170884598Y-98642834D01*
X170891015Y-98637761D01*
X170902136Y-98628275D01*
X170913023Y-98618652D01*
X170928581Y-98604505D01*
X170947989Y-98586593D01*
X170970560Y-98565561D01*
X170995609Y-98542053D01*
X171022448Y-98516713D01*
X171050390Y-98490187D01*
X171078748Y-98463119D01*
X171106837Y-98436153D01*
X171122348Y-98421264D01*
X171196959Y-98351070D01*
X171267693Y-98286977D01*
X171334568Y-98228971D01*
X171397602Y-98177040D01*
X171456813Y-98131170D01*
X171512218Y-98091346D01*
X171563837Y-98057557D01*
X171611686Y-98029787D01*
X171655784Y-98008024D01*
X171696148Y-97992254D01*
X171710613Y-97987874D01*
X171731861Y-97982707D01*
X171752576Y-97978952D01*
X171771170Y-97976832D01*
X171786057Y-97976567D01*
X171795650Y-97978379D01*
G37*
G36*
X170009774Y-95310407D02*
G01*
X170046797Y-95310623D01*
X170051564Y-95310674D01*
X170083782Y-95311017D01*
X170119696Y-95311580D01*
X170153511Y-95312302D01*
X170184194Y-95313175D01*
X170210717Y-95314189D01*
X170232047Y-95315334D01*
X170247155Y-95316601D01*
X170281520Y-95320905D01*
X170343093Y-95330769D01*
X170403700Y-95343450D01*
X170464246Y-95359241D01*
X170525637Y-95378435D01*
X170588780Y-95401327D01*
X170654579Y-95428210D01*
X170723941Y-95459377D01*
X170797771Y-95495123D01*
X170815701Y-95504180D01*
X170852457Y-95523561D01*
X170886438Y-95542832D01*
X170918474Y-95562622D01*
X170949392Y-95583559D01*
X170980020Y-95606272D01*
X171011185Y-95631389D01*
X171043714Y-95659538D01*
X171078436Y-95691349D01*
X171116179Y-95727448D01*
X171157769Y-95768466D01*
X171193446Y-95804614D01*
X171252357Y-95867219D01*
X171305529Y-95927890D01*
X171353502Y-95987344D01*
X171396816Y-96046297D01*
X171436012Y-96105463D01*
X171471630Y-96165559D01*
X171504210Y-96227300D01*
X171511711Y-96242591D01*
X171544370Y-96315161D01*
X171572447Y-96388614D01*
X171596187Y-96463895D01*
X171615834Y-96541947D01*
X171631630Y-96623717D01*
X171643821Y-96710147D01*
X171652649Y-96802182D01*
X171653155Y-96809885D01*
X171654112Y-96833451D01*
X171654665Y-96862293D01*
X171654838Y-96895018D01*
X171654653Y-96930235D01*
X171654134Y-96966552D01*
X171653306Y-97002577D01*
X171652190Y-97036918D01*
X171650811Y-97068183D01*
X171649193Y-97094981D01*
X171647358Y-97115919D01*
X171638696Y-97182834D01*
X171620353Y-97284263D01*
X171595925Y-97382796D01*
X171565218Y-97478958D01*
X171528038Y-97573274D01*
X171484191Y-97666267D01*
X171433482Y-97758465D01*
X171375718Y-97850390D01*
X171372614Y-97855022D01*
X171350497Y-97886643D01*
X171330819Y-97912080D01*
X171313206Y-97931758D01*
X171297281Y-97946102D01*
X171282668Y-97955536D01*
X171265647Y-97962356D01*
X171240356Y-97969044D01*
X171208962Y-97974652D01*
X171172044Y-97979056D01*
X171156610Y-97980587D01*
X171125767Y-97984176D01*
X171098744Y-97988239D01*
X171073159Y-97993162D01*
X171046628Y-97999329D01*
X170987592Y-98016525D01*
X170918822Y-98043055D01*
X170852675Y-98075686D01*
X170789840Y-98113989D01*
X170731010Y-98157535D01*
X170676876Y-98205896D01*
X170628130Y-98258643D01*
X170625570Y-98261721D01*
X170601399Y-98292682D01*
X170579145Y-98325085D01*
X170557600Y-98360801D01*
X170535552Y-98401696D01*
X170531204Y-98410032D01*
X170521134Y-98428586D01*
X170511528Y-98445350D01*
X170503304Y-98458752D01*
X170497375Y-98467222D01*
X170492268Y-98472883D01*
X170476113Y-98485869D01*
X170454582Y-98497476D01*
X170427055Y-98508005D01*
X170392910Y-98517757D01*
X170384343Y-98519874D01*
X170348219Y-98527964D01*
X170312151Y-98534554D01*
X170275104Y-98539732D01*
X170236040Y-98543583D01*
X170193923Y-98546195D01*
X170147717Y-98547655D01*
X170096385Y-98548051D01*
X170038890Y-98547468D01*
X170021317Y-98547131D01*
X169954684Y-98545084D01*
X169893278Y-98541822D01*
X169835535Y-98537201D01*
X169779891Y-98531080D01*
X169724782Y-98523317D01*
X169668645Y-98513769D01*
X169666252Y-98513328D01*
X169622299Y-98504705D01*
X169583328Y-98495812D01*
X169547184Y-98486017D01*
X169511714Y-98474686D01*
X169474766Y-98461189D01*
X169434185Y-98444891D01*
X169402021Y-98431156D01*
X169302055Y-98383467D01*
X169206156Y-98330008D01*
X169114532Y-98270998D01*
X169027389Y-98206658D01*
X168944933Y-98137210D01*
X168867372Y-98062873D01*
X168794912Y-97983870D01*
X168727760Y-97900421D01*
X168666122Y-97812746D01*
X168610206Y-97721068D01*
X168560219Y-97625606D01*
X168516366Y-97526581D01*
X168478855Y-97424215D01*
X168474096Y-97409372D01*
X168458303Y-97353027D01*
X168444887Y-97292747D01*
X168433780Y-97228026D01*
X168424917Y-97158355D01*
X168418227Y-97083227D01*
X168413646Y-97002134D01*
X168411191Y-96917563D01*
X168725996Y-96917563D01*
X168726125Y-96982970D01*
X168728335Y-97047319D01*
X168732657Y-97109587D01*
X168739117Y-97168754D01*
X168747744Y-97223797D01*
X168758567Y-97273694D01*
X168772334Y-97322850D01*
X168801232Y-97405303D01*
X168836909Y-97486394D01*
X168879090Y-97565727D01*
X168927500Y-97642909D01*
X168981864Y-97717545D01*
X169041906Y-97789241D01*
X169107351Y-97857604D01*
X169177925Y-97922238D01*
X169253352Y-97982749D01*
X169269907Y-97995031D01*
X169307526Y-98021759D01*
X169344040Y-98045793D01*
X169381450Y-98068363D01*
X169421760Y-98090700D01*
X169466970Y-98114034D01*
X169515475Y-98137170D01*
X169584700Y-98165898D01*
X169655035Y-98189883D01*
X169727836Y-98209525D01*
X169804462Y-98225223D01*
X169886266Y-98237376D01*
X169902347Y-98238948D01*
X169928245Y-98240496D01*
X169958826Y-98241537D01*
X169992656Y-98242079D01*
X170028304Y-98242134D01*
X170064337Y-98241709D01*
X170099324Y-98240814D01*
X170131832Y-98239460D01*
X170160428Y-98237655D01*
X170183682Y-98235408D01*
X170213922Y-98231421D01*
X170307451Y-98215379D01*
X170397420Y-98194240D01*
X170483442Y-98168147D01*
X170565130Y-98137239D01*
X170642098Y-98101660D01*
X170713959Y-98061550D01*
X170780326Y-98017051D01*
X170786098Y-98012775D01*
X170802197Y-98000626D01*
X170819806Y-97987102D01*
X170836034Y-97974419D01*
X170866353Y-97950440D01*
X170812458Y-97895973D01*
X170758564Y-97841507D01*
X170711413Y-97876121D01*
X170692416Y-97889969D01*
X170661079Y-97912211D01*
X170633523Y-97930775D01*
X170608612Y-97946320D01*
X170585212Y-97959504D01*
X170562189Y-97970988D01*
X170538407Y-97981428D01*
X170512733Y-97991485D01*
X170499983Y-97996117D01*
X170439186Y-98014832D01*
X170376681Y-98028858D01*
X170313092Y-98038293D01*
X170249041Y-98043235D01*
X170185153Y-98043782D01*
X170122051Y-98040032D01*
X170060359Y-98032082D01*
X170000700Y-98020032D01*
X169943699Y-98003978D01*
X169889979Y-97984018D01*
X169840164Y-97960251D01*
X169794877Y-97932774D01*
X169754743Y-97901686D01*
X169720384Y-97867084D01*
X169690302Y-97828911D01*
X169663441Y-97787875D01*
X169641186Y-97746029D01*
X169623806Y-97704129D01*
X169611569Y-97662935D01*
X169604744Y-97623204D01*
X169603600Y-97585693D01*
X169608253Y-97552254D01*
X169778510Y-97552254D01*
X169779125Y-97588412D01*
X169786404Y-97624592D01*
X169800457Y-97660425D01*
X169821394Y-97695539D01*
X169849326Y-97729563D01*
X169851826Y-97732187D01*
X169882142Y-97760115D01*
X169915476Y-97783802D01*
X169952337Y-97803414D01*
X169993230Y-97819115D01*
X170038662Y-97831070D01*
X170089140Y-97839444D01*
X170145170Y-97844402D01*
X170207257Y-97846109D01*
X170239826Y-97845711D01*
X170309665Y-97841339D01*
X170375332Y-97832026D01*
X170437754Y-97817620D01*
X170497858Y-97797966D01*
X170521265Y-97788571D01*
X170550986Y-97774268D01*
X170573797Y-97759824D01*
X170589905Y-97745103D01*
X170599516Y-97729965D01*
X170600066Y-97728637D01*
X170603155Y-97720749D01*
X170604416Y-97716720D01*
X170604406Y-97716650D01*
X170602301Y-97712759D01*
X170597225Y-97704635D01*
X170590211Y-97693935D01*
X170587459Y-97689907D01*
X170572342Y-97669736D01*
X170552580Y-97645709D01*
X170528844Y-97618491D01*
X170501806Y-97588751D01*
X170472137Y-97557153D01*
X170440511Y-97524365D01*
X170407598Y-97491053D01*
X170374071Y-97457883D01*
X170340601Y-97425521D01*
X170307860Y-97394635D01*
X170276521Y-97365890D01*
X170247254Y-97339953D01*
X170220732Y-97317491D01*
X170197626Y-97299169D01*
X170178609Y-97285655D01*
X170173106Y-97282107D01*
X170162920Y-97276134D01*
X170154918Y-97273204D01*
X170146413Y-97272573D01*
X170134717Y-97273497D01*
X170129039Y-97274120D01*
X170076955Y-97283447D01*
X170023897Y-97299231D01*
X169971109Y-97321109D01*
X169951498Y-97330928D01*
X169908563Y-97356547D01*
X169871518Y-97384783D01*
X169840473Y-97415266D01*
X169815540Y-97447626D01*
X169796828Y-97481491D01*
X169784447Y-97516490D01*
X169778510Y-97552254D01*
X169608253Y-97552254D01*
X169608405Y-97551161D01*
X169608931Y-97548992D01*
X169617409Y-97518683D01*
X169628058Y-97487300D01*
X169640378Y-97455856D01*
X169653870Y-97425362D01*
X169668033Y-97396830D01*
X169682368Y-97371272D01*
X169696374Y-97349698D01*
X169709551Y-97333121D01*
X169721400Y-97322552D01*
X169731092Y-97316194D01*
X169713470Y-97313906D01*
X169705307Y-97313000D01*
X169687721Y-97311471D01*
X169663795Y-97309712D01*
X169634067Y-97307754D01*
X169599075Y-97305628D01*
X169559357Y-97303366D01*
X169515451Y-97300999D01*
X169467893Y-97298558D01*
X169417222Y-97296074D01*
X169363976Y-97293579D01*
X169332844Y-97292132D01*
X169300387Y-97290576D01*
X169270756Y-97289107D01*
X169244689Y-97287763D01*
X169222921Y-97286583D01*
X169206191Y-97285607D01*
X169195233Y-97284873D01*
X169190786Y-97284421D01*
X169189287Y-97280592D01*
X169188047Y-97270785D01*
X169187083Y-97256208D01*
X169186394Y-97238063D01*
X169185981Y-97217551D01*
X169185843Y-97195874D01*
X169185981Y-97174235D01*
X169186394Y-97153835D01*
X169187082Y-97135876D01*
X169188045Y-97121560D01*
X169189284Y-97112089D01*
X169190797Y-97108665D01*
X169191515Y-97108652D01*
X169198227Y-97108471D01*
X169211357Y-97108093D01*
X169230287Y-97107536D01*
X169254399Y-97106820D01*
X169283076Y-97105962D01*
X169315701Y-97104981D01*
X169351656Y-97103895D01*
X169390324Y-97102723D01*
X169431087Y-97101483D01*
X169475959Y-97100115D01*
X169547198Y-97097923D01*
X169611672Y-97095893D01*
X169669690Y-97093989D01*
X169721557Y-97092176D01*
X169767582Y-97090420D01*
X169808070Y-97088687D01*
X169843330Y-97086941D01*
X169873668Y-97085149D01*
X169899391Y-97083274D01*
X169920807Y-97081283D01*
X169938222Y-97079142D01*
X169951944Y-97076814D01*
X169962280Y-97074267D01*
X169969537Y-97071464D01*
X169974022Y-97068371D01*
X169976042Y-97064955D01*
X169975904Y-97061179D01*
X169973916Y-97057010D01*
X169970384Y-97052412D01*
X169965615Y-97047351D01*
X169959917Y-97041793D01*
X169947749Y-97031044D01*
X169929889Y-97019300D01*
X169911396Y-97012678D01*
X169890955Y-97010954D01*
X169867252Y-97013907D01*
X169838971Y-97021312D01*
X169827575Y-97024788D01*
X169807746Y-97030496D01*
X169790455Y-97034741D01*
X169774071Y-97037737D01*
X169756961Y-97039696D01*
X169737496Y-97040834D01*
X169714041Y-97041364D01*
X169684967Y-97041500D01*
X169682978Y-97041500D01*
X169648205Y-97041181D01*
X169618496Y-97040124D01*
X169591790Y-97038129D01*
X169566023Y-97034997D01*
X169539133Y-97030530D01*
X169509057Y-97024528D01*
X169495855Y-97021617D01*
X169446577Y-97008172D01*
X169403245Y-96991767D01*
X169365180Y-96972061D01*
X169331700Y-96948716D01*
X169302125Y-96921392D01*
X169287150Y-96904582D01*
X169270840Y-96883295D01*
X169256364Y-96860435D01*
X169243565Y-96835435D01*
X169232285Y-96807727D01*
X169222367Y-96776743D01*
X169213653Y-96741915D01*
X169205986Y-96702676D01*
X169199210Y-96658459D01*
X169193166Y-96608696D01*
X169187697Y-96552818D01*
X169187123Y-96545705D01*
X169376842Y-96545705D01*
X169378440Y-96576238D01*
X169383230Y-96611076D01*
X169390787Y-96646462D01*
X169400687Y-96681095D01*
X169412507Y-96713676D01*
X169425823Y-96742905D01*
X169440211Y-96767483D01*
X169455246Y-96786110D01*
X169456942Y-96787761D01*
X169474984Y-96801907D01*
X169498383Y-96815750D01*
X169525858Y-96828898D01*
X169556130Y-96840959D01*
X169587919Y-96851542D01*
X169619945Y-96860255D01*
X169650928Y-96866706D01*
X169679588Y-96870505D01*
X169704646Y-96871259D01*
X169724822Y-96868577D01*
X169729917Y-96867076D01*
X169739818Y-96862666D01*
X169744014Y-96858097D01*
X169742994Y-96852840D01*
X169737202Y-96842151D01*
X169726695Y-96827141D01*
X169711788Y-96808171D01*
X169692791Y-96785601D01*
X169670019Y-96759791D01*
X169643782Y-96731102D01*
X169614394Y-96699894D01*
X169582167Y-96666527D01*
X169547414Y-96631362D01*
X169526243Y-96610306D01*
X169493039Y-96577937D01*
X169464420Y-96550959D01*
X169440413Y-96529394D01*
X169421044Y-96513267D01*
X169406341Y-96502601D01*
X169396331Y-96497421D01*
X169394584Y-96496921D01*
X169387325Y-96496677D01*
X169382215Y-96500704D01*
X169378961Y-96509731D01*
X169377268Y-96524489D01*
X169376842Y-96545705D01*
X169187123Y-96545705D01*
X169182647Y-96490259D01*
X169180094Y-96456544D01*
X169176462Y-96412365D01*
X169172820Y-96374275D01*
X169168966Y-96341585D01*
X169164703Y-96313606D01*
X169159829Y-96289646D01*
X169154145Y-96269017D01*
X169147452Y-96251029D01*
X169139550Y-96234991D01*
X169134197Y-96226494D01*
X169530462Y-96226494D01*
X169531819Y-96229380D01*
X169535988Y-96234900D01*
X169543203Y-96243300D01*
X169553701Y-96254826D01*
X169567716Y-96269723D01*
X169585483Y-96288238D01*
X169607239Y-96310616D01*
X169633219Y-96337104D01*
X169663657Y-96367948D01*
X169698790Y-96403393D01*
X169738852Y-96443686D01*
X169951307Y-96657101D01*
X169951430Y-96438189D01*
X169951553Y-96219278D01*
X169743180Y-96220568D01*
X169703743Y-96220842D01*
X169661278Y-96221226D01*
X169625447Y-96221670D01*
X169595908Y-96222181D01*
X169572319Y-96222769D01*
X169554336Y-96223442D01*
X169541617Y-96224210D01*
X169533820Y-96225081D01*
X169530603Y-96226065D01*
X169530462Y-96226494D01*
X169134197Y-96226494D01*
X169130240Y-96220214D01*
X169119321Y-96206008D01*
X169106594Y-96191683D01*
X169091859Y-96176549D01*
X169079438Y-96164671D01*
X169061191Y-96148868D01*
X169043778Y-96135563D01*
X169028515Y-96125739D01*
X169016720Y-96120382D01*
X169008543Y-96121339D01*
X168997545Y-96128335D01*
X168984377Y-96140904D01*
X168969376Y-96158478D01*
X168952879Y-96180492D01*
X168935220Y-96206378D01*
X168916737Y-96235570D01*
X168897765Y-96267501D01*
X168878641Y-96301606D01*
X168859701Y-96337317D01*
X168841281Y-96374068D01*
X168823717Y-96411292D01*
X168807345Y-96448422D01*
X168792502Y-96484893D01*
X168779524Y-96520138D01*
X168767356Y-96560125D01*
X168755589Y-96610422D01*
X168745734Y-96665791D01*
X168737818Y-96725212D01*
X168731871Y-96787662D01*
X168727921Y-96852120D01*
X168725996Y-96917563D01*
X168411191Y-96917563D01*
X168411104Y-96914568D01*
X168410535Y-96867635D01*
X168410587Y-96824060D01*
X168411375Y-96785643D01*
X168412966Y-96751319D01*
X168415427Y-96720024D01*
X168418824Y-96690694D01*
X168423224Y-96662265D01*
X168428693Y-96633672D01*
X168452281Y-96533319D01*
X168483715Y-96427211D01*
X168521031Y-96325178D01*
X168564325Y-96227003D01*
X168613695Y-96132469D01*
X168669236Y-96041360D01*
X168731045Y-95953460D01*
X168753933Y-95923751D01*
X168771052Y-95903470D01*
X169193875Y-95903470D01*
X169274062Y-95974839D01*
X169354249Y-96046207D01*
X169387325Y-96045726D01*
X169501473Y-96044068D01*
X169517145Y-96043855D01*
X169540306Y-96043566D01*
X169569272Y-96043225D01*
X169603560Y-96042835D01*
X169642686Y-96042402D01*
X169686167Y-96041930D01*
X169733519Y-96041424D01*
X169784258Y-96040890D01*
X169837901Y-96040331D01*
X169893964Y-96039752D01*
X169951553Y-96039163D01*
X169951963Y-96039159D01*
X170011414Y-96038556D01*
X170071835Y-96037948D01*
X170132740Y-96037340D01*
X170193647Y-96036736D01*
X170254073Y-96036142D01*
X170313532Y-96035562D01*
X170371542Y-96035000D01*
X170427618Y-96034462D01*
X170481278Y-96033953D01*
X170532037Y-96033477D01*
X170579412Y-96033039D01*
X170622919Y-96032644D01*
X170662075Y-96032296D01*
X170696395Y-96032001D01*
X170725396Y-96031763D01*
X170748595Y-96031587D01*
X170765507Y-96031478D01*
X170775650Y-96031441D01*
X170803902Y-96031441D01*
X170803902Y-96125743D01*
X170803902Y-96220046D01*
X170479284Y-96220046D01*
X170154666Y-96220046D01*
X170154606Y-96327950D01*
X170154548Y-96352615D01*
X170153861Y-96421776D01*
X170152420Y-96485708D01*
X170150242Y-96544126D01*
X170147345Y-96596744D01*
X170143747Y-96643277D01*
X170139466Y-96683439D01*
X170134518Y-96716946D01*
X170128922Y-96743512D01*
X170125409Y-96759465D01*
X170123034Y-96785192D01*
X170125930Y-96807358D01*
X170134159Y-96826946D01*
X170136361Y-96830529D01*
X170143772Y-96841077D01*
X170146413Y-96844387D01*
X170154030Y-96853935D01*
X170167486Y-96869480D01*
X170184490Y-96888092D01*
X170205390Y-96910148D01*
X170230538Y-96936026D01*
X170260283Y-96966104D01*
X170294974Y-97000761D01*
X170392545Y-97097784D01*
X170598495Y-97097784D01*
X170804446Y-97097784D01*
X170803267Y-97169417D01*
X170803205Y-97173173D01*
X170802549Y-97202293D01*
X170801257Y-97225036D01*
X170798702Y-97242191D01*
X170794257Y-97254546D01*
X170787296Y-97262887D01*
X170777192Y-97268003D01*
X170763318Y-97270683D01*
X170745047Y-97271712D01*
X170721753Y-97271881D01*
X170720248Y-97271882D01*
X170703380Y-97272073D01*
X170689621Y-97272542D01*
X170680353Y-97273224D01*
X170676956Y-97274050D01*
X170678006Y-97275729D01*
X170683095Y-97282119D01*
X170691684Y-97292312D01*
X170702965Y-97305355D01*
X170716132Y-97320294D01*
X170723665Y-97328806D01*
X170751240Y-97360781D01*
X170773958Y-97388697D01*
X170792248Y-97413194D01*
X170806537Y-97434911D01*
X170817255Y-97454487D01*
X170824829Y-97472563D01*
X170829689Y-97489777D01*
X170834457Y-97503499D01*
X170844335Y-97522338D01*
X170858612Y-97544676D01*
X170876762Y-97569821D01*
X170898260Y-97597080D01*
X170922580Y-97625761D01*
X170949197Y-97655172D01*
X170977585Y-97684622D01*
X170994954Y-97701704D01*
X171016632Y-97721616D01*
X171034156Y-97735768D01*
X171047602Y-97744217D01*
X171057043Y-97747020D01*
X171061234Y-97745946D01*
X171070767Y-97739205D01*
X171082872Y-97726695D01*
X171097190Y-97708904D01*
X171113360Y-97686319D01*
X171131023Y-97659429D01*
X171149818Y-97628722D01*
X171169387Y-97594685D01*
X171176051Y-97582666D01*
X171211969Y-97514590D01*
X171242597Y-97450321D01*
X171268216Y-97389192D01*
X171289110Y-97330538D01*
X171305560Y-97273694D01*
X171310093Y-97255702D01*
X171315228Y-97234330D01*
X171319438Y-97215038D01*
X171323072Y-97195967D01*
X171326476Y-97175260D01*
X171329998Y-97151059D01*
X171333983Y-97121507D01*
X171336135Y-97101497D01*
X171338219Y-97073842D01*
X171339976Y-97041660D01*
X171341375Y-97006377D01*
X171342387Y-96969420D01*
X171342980Y-96932215D01*
X171343126Y-96896188D01*
X171342794Y-96862765D01*
X171341954Y-96833372D01*
X171340576Y-96809436D01*
X171333273Y-96738190D01*
X171321110Y-96660653D01*
X171304617Y-96586606D01*
X171283460Y-96514581D01*
X171257304Y-96443107D01*
X171244407Y-96412010D01*
X171202444Y-96322842D01*
X171154998Y-96238421D01*
X171102064Y-96158744D01*
X171043638Y-96083806D01*
X170979717Y-96013601D01*
X170910295Y-95948125D01*
X170835370Y-95887373D01*
X170754937Y-95831340D01*
X170714542Y-95806082D01*
X170630855Y-95758904D01*
X170547468Y-95718854D01*
X170464446Y-95685958D01*
X170381851Y-95660242D01*
X170299746Y-95641732D01*
X170260020Y-95635377D01*
X170194146Y-95628063D01*
X170124207Y-95623771D01*
X170051564Y-95622437D01*
X169977574Y-95623997D01*
X169903596Y-95628386D01*
X169830990Y-95635542D01*
X169761112Y-95645400D01*
X169695324Y-95657896D01*
X169634982Y-95672968D01*
X169609820Y-95680472D01*
X169576097Y-95691659D01*
X169542935Y-95704135D01*
X169509548Y-95718296D01*
X169475148Y-95734534D01*
X169438949Y-95753245D01*
X169400164Y-95774823D01*
X169358007Y-95799663D01*
X169311690Y-95828157D01*
X169260426Y-95860702D01*
X169193875Y-95903470D01*
X168771052Y-95903470D01*
X168823781Y-95841002D01*
X168898696Y-95763353D01*
X168978469Y-95690952D01*
X169016720Y-95660593D01*
X169062893Y-95623947D01*
X169151759Y-95562486D01*
X169244859Y-95506715D01*
X169341984Y-95456782D01*
X169442927Y-95412836D01*
X169547478Y-95375023D01*
X169575516Y-95366049D01*
X169624768Y-95351381D01*
X169670261Y-95339521D01*
X169713743Y-95330108D01*
X169756965Y-95322784D01*
X169801677Y-95317190D01*
X169849628Y-95312965D01*
X169860140Y-95312337D01*
X169881901Y-95311519D01*
X169908775Y-95310926D01*
X169939732Y-95310550D01*
X169973742Y-95310380D01*
X170009774Y-95310407D01*
G37*
G36*
X170448046Y-112182116D02*
G01*
X170448081Y-112296122D01*
X170448211Y-112892022D01*
X170260230Y-112892022D01*
X170072249Y-112892022D01*
X170072249Y-112704041D01*
X170072249Y-112516060D01*
X169621095Y-112516060D01*
X169169940Y-112516060D01*
X169169940Y-112704041D01*
X169169940Y-112892022D01*
X168981959Y-112892022D01*
X168793978Y-112892022D01*
X168794109Y-112296122D01*
X168794122Y-112220291D01*
X168794155Y-112140097D01*
X169168879Y-112140097D01*
X169621095Y-112140097D01*
X170073310Y-112140097D01*
X170070900Y-111931438D01*
X170070373Y-111889409D01*
X170069470Y-111834976D01*
X170068366Y-111792635D01*
X170066943Y-111760591D01*
X170065084Y-111737048D01*
X170062672Y-111720208D01*
X170059588Y-111708277D01*
X170055715Y-111699458D01*
X170042014Y-111679645D01*
X170018440Y-111655104D01*
X169992343Y-111634848D01*
X169968722Y-111623258D01*
X169962081Y-111622414D01*
X169940907Y-111621272D01*
X169907470Y-111620233D01*
X169863406Y-111619323D01*
X169810349Y-111618570D01*
X169749935Y-111617999D01*
X169683799Y-111617637D01*
X169613576Y-111617510D01*
X169557036Y-111617495D01*
X169482964Y-111617518D01*
X169421611Y-111617800D01*
X169371580Y-111618569D01*
X169331476Y-111620054D01*
X169299901Y-111622483D01*
X169275459Y-111626086D01*
X169256753Y-111631090D01*
X169242387Y-111637724D01*
X169230963Y-111646216D01*
X169221085Y-111656796D01*
X169211357Y-111669692D01*
X169200381Y-111685132D01*
X169173700Y-111722260D01*
X169171290Y-111931178D01*
X169168879Y-112140097D01*
X168794155Y-112140097D01*
X168794165Y-112115235D01*
X168794305Y-112023433D01*
X168794625Y-111943800D01*
X168795204Y-111875256D01*
X168796125Y-111816717D01*
X168797467Y-111767100D01*
X168799313Y-111725324D01*
X168801742Y-111690305D01*
X168804837Y-111660961D01*
X168808678Y-111636210D01*
X168813346Y-111614968D01*
X168818921Y-111596154D01*
X168825486Y-111578684D01*
X168833121Y-111561477D01*
X168841908Y-111543450D01*
X168851926Y-111523520D01*
X168888318Y-111462005D01*
X168943087Y-111395282D01*
X169008009Y-111338918D01*
X169081723Y-111294271D01*
X169082076Y-111294097D01*
X169106762Y-111282089D01*
X169129260Y-111271896D01*
X169151004Y-111263378D01*
X169173430Y-111256392D01*
X169197974Y-111250800D01*
X169226070Y-111246460D01*
X169259156Y-111243233D01*
X169298666Y-111240976D01*
X169346036Y-111239551D01*
X169402701Y-111238816D01*
X169470098Y-111238631D01*
X169549661Y-111238855D01*
X169642827Y-111239348D01*
X170023374Y-111241548D01*
X170091757Y-111265450D01*
X170161372Y-111295021D01*
X170236765Y-111341443D01*
X170302496Y-111399282D01*
X170358102Y-111468119D01*
X170403123Y-111547537D01*
X170404339Y-111550136D01*
X170412017Y-111566772D01*
X170418737Y-111582422D01*
X170424562Y-111598152D01*
X170429556Y-111615031D01*
X170433785Y-111634128D01*
X170437311Y-111656511D01*
X170440200Y-111683248D01*
X170442515Y-111715408D01*
X170444320Y-111754060D01*
X170445680Y-111800271D01*
X170446659Y-111855110D01*
X170447321Y-111919646D01*
X170447730Y-111994947D01*
X170447950Y-112082081D01*
X170448006Y-112140097D01*
X170448046Y-112182116D01*
G37*
G36*
X169696435Y-109580448D02*
G01*
X170068490Y-109878112D01*
X170070456Y-109580448D01*
X170072422Y-109282785D01*
X170260317Y-109282785D01*
X170448211Y-109282785D01*
X170448211Y-110109902D01*
X170448211Y-110937019D01*
X170260230Y-110937019D01*
X170072249Y-110937019D01*
X170072249Y-110640009D01*
X170072236Y-110619857D01*
X170072018Y-110556018D01*
X170071554Y-110497610D01*
X170070875Y-110446236D01*
X170070010Y-110403497D01*
X170068991Y-110370992D01*
X170067847Y-110350323D01*
X170066610Y-110343092D01*
X170060491Y-110346347D01*
X170045970Y-110357345D01*
X170027134Y-110373411D01*
X170011672Y-110387098D01*
X169995144Y-110401412D01*
X169985778Y-110409113D01*
X169984633Y-110409951D01*
X169967114Y-110423162D01*
X169942781Y-110441958D01*
X169914756Y-110463876D01*
X169886156Y-110486454D01*
X169860103Y-110507230D01*
X169839717Y-110523743D01*
X169828116Y-110533530D01*
X169810372Y-110548620D01*
X169789458Y-110564816D01*
X169769933Y-110579535D01*
X169739208Y-110604127D01*
X169710184Y-110628730D01*
X169701303Y-110636347D01*
X169687427Y-110647608D01*
X169660507Y-110668301D01*
X169625281Y-110695658D01*
X169591803Y-110721936D01*
X169562622Y-110745120D01*
X169540287Y-110763195D01*
X169527346Y-110774146D01*
X169509602Y-110789236D01*
X169488688Y-110805432D01*
X169469163Y-110820151D01*
X169438438Y-110844743D01*
X169409415Y-110869345D01*
X169405100Y-110873122D01*
X169397414Y-110879604D01*
X169387745Y-110887225D01*
X169372732Y-110898599D01*
X169349017Y-110916341D01*
X169321329Y-110937019D01*
X169057392Y-110937019D01*
X168793455Y-110937019D01*
X168818154Y-110915972D01*
X168818896Y-110915341D01*
X168830558Y-110905626D01*
X168846485Y-110892723D01*
X168867949Y-110875628D01*
X168896221Y-110853338D01*
X168932571Y-110824851D01*
X168978272Y-110789166D01*
X169034595Y-110745278D01*
X169068333Y-110718968D01*
X169108854Y-110687207D01*
X169144030Y-110659398D01*
X169177733Y-110632489D01*
X169196429Y-110617634D01*
X169222840Y-110596869D01*
X169249486Y-110576095D01*
X169270408Y-110559796D01*
X169301051Y-110535806D01*
X169335429Y-110508801D01*
X169369309Y-110482104D01*
X169399787Y-110458078D01*
X169434276Y-110430961D01*
X169465431Y-110406532D01*
X169489023Y-110388114D01*
X169512916Y-110369385D01*
X169540965Y-110347102D01*
X169563660Y-110328772D01*
X169577774Y-110317375D01*
X169605537Y-110295499D01*
X169632374Y-110274877D01*
X169633229Y-110274231D01*
X169677177Y-110240725D01*
X169718793Y-110208418D01*
X169756463Y-110178618D01*
X169788573Y-110152631D01*
X169813508Y-110131763D01*
X169829653Y-110117321D01*
X169835393Y-110110611D01*
X169831346Y-110106642D01*
X169816325Y-110093943D01*
X169791018Y-110073223D01*
X169756276Y-110045160D01*
X169712949Y-110010431D01*
X169661888Y-109969716D01*
X169603942Y-109923692D01*
X169539963Y-109873035D01*
X169470800Y-109818425D01*
X169397304Y-109760539D01*
X169320325Y-109700055D01*
X169256518Y-109649973D01*
X169182075Y-109591523D01*
X169111681Y-109536233D01*
X169046203Y-109484784D01*
X168986505Y-109437856D01*
X168933451Y-109396128D01*
X168887907Y-109360282D01*
X168850736Y-109330996D01*
X168822804Y-109308952D01*
X168804975Y-109294829D01*
X168798114Y-109289307D01*
X168801569Y-109288016D01*
X168818285Y-109286572D01*
X168847356Y-109285308D01*
X168887305Y-109284260D01*
X168936659Y-109283465D01*
X168993940Y-109282962D01*
X169057675Y-109282785D01*
X169324381Y-109282785D01*
X169696435Y-109580448D01*
G37*
G36*
X171448915Y-111237797D02*
G01*
X171545055Y-111237843D01*
X171628229Y-111237951D01*
X171699511Y-111238145D01*
X171759977Y-111238452D01*
X171810704Y-111238897D01*
X171852765Y-111239505D01*
X171887238Y-111240301D01*
X171915196Y-111241310D01*
X171937717Y-111242558D01*
X171955876Y-111244070D01*
X171970748Y-111245871D01*
X171983408Y-111247986D01*
X171994933Y-111250441D01*
X172006397Y-111253262D01*
X172031566Y-111260284D01*
X172114691Y-111292978D01*
X172189100Y-111337830D01*
X172254290Y-111394421D01*
X172309756Y-111462337D01*
X172354995Y-111541159D01*
X172358307Y-111548172D01*
X172368150Y-111569898D01*
X172376432Y-111590581D01*
X172383288Y-111611682D01*
X172388852Y-111634664D01*
X172393260Y-111660987D01*
X172396646Y-111692115D01*
X172399147Y-111729509D01*
X172400896Y-111774632D01*
X172402029Y-111828945D01*
X172402682Y-111893909D01*
X172402988Y-111970989D01*
X172403084Y-112061644D01*
X172403070Y-112095314D01*
X172402806Y-112177304D01*
X172402230Y-112251608D01*
X172401364Y-112316999D01*
X172400233Y-112372254D01*
X172398858Y-112416147D01*
X172397264Y-112447452D01*
X172395473Y-112464945D01*
X172394005Y-112472402D01*
X172377704Y-112530182D01*
X172353215Y-112590442D01*
X172323182Y-112646546D01*
X172321501Y-112649210D01*
X172306900Y-112669725D01*
X172287320Y-112694389D01*
X172265141Y-112720539D01*
X172242738Y-112745513D01*
X172222491Y-112766649D01*
X172206777Y-112781283D01*
X172197974Y-112786752D01*
X172197857Y-112786761D01*
X172189442Y-112790938D01*
X172172291Y-112801280D01*
X172149972Y-112815637D01*
X172135778Y-112824701D01*
X172093648Y-112847463D01*
X172048136Y-112865139D01*
X171993416Y-112880130D01*
X171991994Y-112880453D01*
X171980490Y-112882424D01*
X171964539Y-112884147D01*
X171943179Y-112885638D01*
X171915447Y-112886913D01*
X171880379Y-112887991D01*
X171837014Y-112888887D01*
X171784388Y-112889618D01*
X171721537Y-112890202D01*
X171647501Y-112890655D01*
X171561314Y-112890993D01*
X171462015Y-112891234D01*
X171348641Y-112891395D01*
X170748981Y-112892022D01*
X170748981Y-112704041D01*
X170748981Y-112516060D01*
X171315319Y-112516060D01*
X171340468Y-112516060D01*
X171448568Y-112516060D01*
X171542868Y-112515993D01*
X171624389Y-112515779D01*
X171694149Y-112515335D01*
X171753169Y-112514579D01*
X171802468Y-112513430D01*
X171843065Y-112511805D01*
X171875981Y-112509623D01*
X171902235Y-112506803D01*
X171922846Y-112503261D01*
X171938835Y-112498916D01*
X171951221Y-112493687D01*
X171961023Y-112487492D01*
X171969261Y-112480248D01*
X171976955Y-112471874D01*
X171985125Y-112462288D01*
X171990524Y-112455835D01*
X171999592Y-112443664D01*
X172007082Y-112430578D01*
X172013131Y-112415164D01*
X172017874Y-112396009D01*
X172021448Y-112371702D01*
X172023988Y-112340831D01*
X172025631Y-112301984D01*
X172026512Y-112253748D01*
X172026769Y-112194711D01*
X172026536Y-112123462D01*
X172025950Y-112038588D01*
X172025399Y-111967389D01*
X172024789Y-111900453D01*
X172024011Y-111845759D01*
X172022884Y-111801829D01*
X172021228Y-111767185D01*
X172018860Y-111740350D01*
X172015600Y-111719844D01*
X172011265Y-111704190D01*
X172005675Y-111691911D01*
X171998649Y-111681528D01*
X171990004Y-111671564D01*
X171979560Y-111660540D01*
X171972297Y-111652923D01*
X171964533Y-111645519D01*
X171956054Y-111639113D01*
X171945839Y-111633631D01*
X171932863Y-111629002D01*
X171916104Y-111625154D01*
X171894538Y-111622015D01*
X171867142Y-111619511D01*
X171832894Y-111617573D01*
X171790769Y-111616126D01*
X171739744Y-111615100D01*
X171678797Y-111614422D01*
X171606904Y-111614020D01*
X171523042Y-111613822D01*
X171426188Y-111613756D01*
X171315319Y-111613750D01*
X170748981Y-111613750D01*
X170748981Y-111425769D01*
X170748981Y-111237788D01*
X171347388Y-111237788D01*
X171448915Y-111237797D01*
G37*
G36*
X171126602Y-109867406D02*
G01*
X171126800Y-109924276D01*
X171127147Y-110026712D01*
X171127492Y-110115650D01*
X171127913Y-110192112D01*
X171128487Y-110257123D01*
X171129289Y-110311708D01*
X171130395Y-110356890D01*
X171131883Y-110393693D01*
X171133828Y-110423143D01*
X171136308Y-110446263D01*
X171139397Y-110464077D01*
X171143173Y-110477610D01*
X171147713Y-110487886D01*
X171153091Y-110495929D01*
X171159386Y-110502763D01*
X171166672Y-110509413D01*
X171175027Y-110516902D01*
X171183198Y-110524463D01*
X171192874Y-110532783D01*
X171202862Y-110539576D01*
X171214635Y-110545010D01*
X171229666Y-110549254D01*
X171249426Y-110552476D01*
X171275389Y-110554845D01*
X171309027Y-110556529D01*
X171351813Y-110557697D01*
X171405219Y-110558518D01*
X171470717Y-110559159D01*
X171549780Y-110559790D01*
X171597968Y-110560150D01*
X171675706Y-110560566D01*
X171740564Y-110560545D01*
X171793941Y-110559951D01*
X171837234Y-110558647D01*
X171871841Y-110556496D01*
X171899160Y-110553362D01*
X171920587Y-110549108D01*
X171937521Y-110543597D01*
X171951359Y-110536692D01*
X171963500Y-110528257D01*
X171975339Y-110518154D01*
X171976695Y-110516932D01*
X171985794Y-110508696D01*
X171993731Y-110500766D01*
X172000585Y-110492121D01*
X172006435Y-110481738D01*
X172011361Y-110468592D01*
X172015442Y-110451662D01*
X172018757Y-110429924D01*
X172021387Y-110402355D01*
X172023410Y-110367932D01*
X172024906Y-110325632D01*
X172025953Y-110274432D01*
X172026633Y-110213309D01*
X172027023Y-110141240D01*
X172027203Y-110057201D01*
X172027253Y-109960170D01*
X172027252Y-109849123D01*
X172027252Y-109282785D01*
X172215233Y-109282785D01*
X172403214Y-109282785D01*
X172402947Y-109882445D01*
X172402914Y-109950945D01*
X172402837Y-110052914D01*
X172402694Y-110141609D01*
X172402440Y-110218130D01*
X172402032Y-110283579D01*
X172401425Y-110339055D01*
X172400576Y-110385659D01*
X172399441Y-110424490D01*
X172397975Y-110456650D01*
X172396135Y-110483238D01*
X172393876Y-110505354D01*
X172391156Y-110524099D01*
X172387929Y-110540574D01*
X172384151Y-110555877D01*
X172379780Y-110571111D01*
X172374770Y-110587374D01*
X172371848Y-110595941D01*
X172356400Y-110630596D01*
X172334658Y-110669579D01*
X172308744Y-110709903D01*
X172280782Y-110748583D01*
X172252895Y-110782633D01*
X172227207Y-110809068D01*
X172205841Y-110824902D01*
X172192491Y-110832975D01*
X172173878Y-110847165D01*
X172169409Y-110850924D01*
X172141862Y-110868746D01*
X172104452Y-110887279D01*
X172061162Y-110904704D01*
X172015973Y-110919206D01*
X172004094Y-110922422D01*
X171990556Y-110925677D01*
X171976312Y-110928366D01*
X171959928Y-110930544D01*
X171939972Y-110932268D01*
X171915011Y-110933594D01*
X171883610Y-110934578D01*
X171844337Y-110935277D01*
X171795758Y-110935747D01*
X171736441Y-110936045D01*
X171664952Y-110936226D01*
X171579857Y-110936348D01*
X171500145Y-110936419D01*
X171421036Y-110936342D01*
X171354260Y-110935962D01*
X171298368Y-110935137D01*
X171251910Y-110933727D01*
X171213437Y-110931590D01*
X171181500Y-110928586D01*
X171154651Y-110924573D01*
X171131439Y-110919412D01*
X171110417Y-110912961D01*
X171090134Y-110905079D01*
X171069142Y-110895626D01*
X171045991Y-110884461D01*
X171033894Y-110878402D01*
X170960351Y-110833574D01*
X170898123Y-110779947D01*
X170845639Y-110715949D01*
X170801324Y-110640009D01*
X170797721Y-110632723D01*
X170789056Y-110614933D01*
X170781484Y-110598228D01*
X170774932Y-110581532D01*
X170769325Y-110563772D01*
X170764590Y-110543871D01*
X170760653Y-110520756D01*
X170757441Y-110493351D01*
X170754879Y-110460581D01*
X170752895Y-110421372D01*
X170751415Y-110374649D01*
X170750364Y-110319336D01*
X170749670Y-110254359D01*
X170749258Y-110178644D01*
X170749055Y-110091114D01*
X170748987Y-109990696D01*
X170748981Y-109876314D01*
X170748981Y-109282785D01*
X170936741Y-109282785D01*
X171124502Y-109282785D01*
X171126602Y-109867406D01*
G37*
G36*
X181220076Y-109623847D02*
G01*
X181338759Y-109640351D01*
X181455245Y-109666168D01*
X181568996Y-109701024D01*
X181679472Y-109744649D01*
X181786133Y-109796770D01*
X181888442Y-109857114D01*
X181985858Y-109925411D01*
X182077843Y-110001386D01*
X182163857Y-110084769D01*
X182243362Y-110175288D01*
X182315818Y-110272669D01*
X182347420Y-110320870D01*
X182408605Y-110427293D01*
X182460718Y-110537454D01*
X182503638Y-110650809D01*
X182537242Y-110766812D01*
X182561408Y-110884920D01*
X182576014Y-111004587D01*
X182580939Y-111125268D01*
X182576059Y-111246420D01*
X182561253Y-111367496D01*
X182541012Y-111469366D01*
X182508715Y-111586210D01*
X182467719Y-111698823D01*
X182418410Y-111806846D01*
X182361175Y-111909923D01*
X182296401Y-112007695D01*
X182224474Y-112099804D01*
X182145782Y-112185891D01*
X182060710Y-112265599D01*
X181969647Y-112338571D01*
X181872978Y-112404447D01*
X181771089Y-112462870D01*
X181664369Y-112513481D01*
X181553203Y-112555923D01*
X181437979Y-112589838D01*
X181319082Y-112614868D01*
X181196900Y-112630655D01*
X181190295Y-112631164D01*
X181168173Y-112632232D01*
X181140315Y-112632944D01*
X181108474Y-112633315D01*
X181074409Y-112633365D01*
X181039873Y-112633111D01*
X181006624Y-112632570D01*
X180976416Y-112631760D01*
X180951007Y-112630699D01*
X180932151Y-112629403D01*
X180921605Y-112627892D01*
X180910279Y-112624745D01*
X180910279Y-112398606D01*
X180910279Y-112172467D01*
X180949290Y-112176452D01*
X180968242Y-112178016D01*
X181003994Y-112179681D01*
X181044556Y-112180389D01*
X181087454Y-112180185D01*
X181130211Y-112179114D01*
X181170351Y-112177224D01*
X181205399Y-112174561D01*
X181232878Y-112171169D01*
X181302342Y-112157688D01*
X181401803Y-112130322D01*
X181496354Y-112094198D01*
X181586187Y-112049214D01*
X181671493Y-111995271D01*
X181752465Y-111932267D01*
X181829295Y-111860104D01*
X181858598Y-111828925D01*
X181922924Y-111750997D01*
X181978408Y-111668896D01*
X182025288Y-111582146D01*
X182063804Y-111490272D01*
X182094194Y-111392801D01*
X182116696Y-111289258D01*
X182117999Y-111281066D01*
X182121590Y-111248402D01*
X182124108Y-111208872D01*
X182125554Y-111164886D01*
X182125927Y-111118855D01*
X182125228Y-111073190D01*
X182123457Y-111030301D01*
X182120613Y-110992601D01*
X182116696Y-110962501D01*
X182108314Y-110918829D01*
X182082572Y-110817859D01*
X182048844Y-110722765D01*
X182006892Y-110633072D01*
X181956475Y-110548306D01*
X181897356Y-110467991D01*
X181829295Y-110391654D01*
X181778281Y-110342300D01*
X181698698Y-110276283D01*
X181614844Y-110219360D01*
X181526527Y-110171429D01*
X181433555Y-110132390D01*
X181335736Y-110102144D01*
X181232878Y-110080589D01*
X181216566Y-110078369D01*
X181184026Y-110075431D01*
X181145479Y-110073250D01*
X181103401Y-110071871D01*
X181060267Y-110071341D01*
X181018553Y-110071707D01*
X180980735Y-110073013D01*
X180949290Y-110075306D01*
X180910279Y-110079292D01*
X180910279Y-109853153D01*
X180910279Y-109627014D01*
X180921605Y-109624027D01*
X180926951Y-109623201D01*
X180941672Y-109621872D01*
X180963127Y-109620443D01*
X180989382Y-109619040D01*
X181018503Y-109617787D01*
X181099735Y-109616927D01*
X181220076Y-109623847D01*
G37*
G36*
X178590496Y-109619127D02*
G01*
X178694373Y-109629053D01*
X178798639Y-109646028D01*
X178901034Y-109669730D01*
X178999296Y-109699836D01*
X179030974Y-109711255D01*
X179143288Y-109758445D01*
X179250775Y-109814200D01*
X179353005Y-109878093D01*
X179449551Y-109949693D01*
X179539983Y-110028574D01*
X179623875Y-110114307D01*
X179700796Y-110206464D01*
X179770320Y-110304615D01*
X179832017Y-110408334D01*
X179885459Y-110517191D01*
X179930218Y-110630758D01*
X179940043Y-110660035D01*
X179971930Y-110774383D01*
X179994809Y-110891831D01*
X180008571Y-111011122D01*
X180013108Y-111131001D01*
X180008311Y-111250211D01*
X179994071Y-111367496D01*
X179973830Y-111469366D01*
X179941533Y-111586210D01*
X179900537Y-111698823D01*
X179851228Y-111806846D01*
X179793993Y-111909923D01*
X179729219Y-112007695D01*
X179657292Y-112099804D01*
X179578600Y-112185891D01*
X179493529Y-112265599D01*
X179402465Y-112338571D01*
X179305796Y-112404447D01*
X179203907Y-112462870D01*
X179097187Y-112513481D01*
X178986021Y-112555923D01*
X178870797Y-112589838D01*
X178751900Y-112614868D01*
X178629718Y-112630655D01*
X178612788Y-112631743D01*
X178588575Y-112632604D01*
X178559724Y-112633161D01*
X178527869Y-112633426D01*
X178494643Y-112633415D01*
X178461681Y-112633140D01*
X178430616Y-112632616D01*
X178403082Y-112631858D01*
X178380712Y-112630879D01*
X178365140Y-112629693D01*
X178358001Y-112628314D01*
X178357788Y-112628032D01*
X178356634Y-112620647D01*
X178355624Y-112603866D01*
X178354771Y-112578262D01*
X178354086Y-112544408D01*
X178353582Y-112502875D01*
X178353271Y-112454235D01*
X178353164Y-112399062D01*
X178353164Y-112172799D01*
X178382108Y-112176618D01*
X178394499Y-112177908D01*
X178422800Y-112179517D01*
X178457453Y-112180330D01*
X178496115Y-112180394D01*
X178536443Y-112179754D01*
X178576093Y-112178455D01*
X178612724Y-112176543D01*
X178643992Y-112174064D01*
X178667554Y-112171063D01*
X178714690Y-112162091D01*
X178814589Y-112136593D01*
X178908670Y-112103123D01*
X178997511Y-112061388D01*
X179081693Y-112011096D01*
X179161796Y-111951955D01*
X179238400Y-111883674D01*
X179299528Y-111820099D01*
X179357263Y-111749698D01*
X179407096Y-111676242D01*
X179450155Y-111598059D01*
X179487566Y-111513473D01*
X179489016Y-111509772D01*
X179497634Y-111486458D01*
X179506689Y-111460134D01*
X179515540Y-111432880D01*
X179523544Y-111406776D01*
X179530062Y-111383903D01*
X179534450Y-111366341D01*
X179536069Y-111356171D01*
X179532352Y-111355681D01*
X179519280Y-111355140D01*
X179497488Y-111354630D01*
X179467694Y-111354156D01*
X179430621Y-111353726D01*
X179386987Y-111353345D01*
X179337514Y-111353020D01*
X179282921Y-111352756D01*
X179223930Y-111352560D01*
X179161261Y-111352437D01*
X179095634Y-111352395D01*
X178655186Y-111352395D01*
X178655186Y-111125879D01*
X178655186Y-110899363D01*
X179095634Y-110899363D01*
X179152789Y-110899331D01*
X179215888Y-110899219D01*
X179275404Y-110899033D01*
X179330616Y-110898777D01*
X179380803Y-110898459D01*
X179425245Y-110898085D01*
X179463222Y-110897661D01*
X179494013Y-110897193D01*
X179516898Y-110896688D01*
X179531157Y-110896151D01*
X179536069Y-110895588D01*
X179536011Y-110894402D01*
X179533849Y-110882753D01*
X179529032Y-110864086D01*
X179522200Y-110840481D01*
X179513997Y-110814018D01*
X179505062Y-110786777D01*
X179496038Y-110760840D01*
X179487566Y-110738285D01*
X179481903Y-110724248D01*
X179438795Y-110631947D01*
X179387689Y-110545464D01*
X179328092Y-110463949D01*
X179322902Y-110457633D01*
X179297567Y-110428922D01*
X179267132Y-110396983D01*
X179233876Y-110364034D01*
X179200081Y-110332288D01*
X179168027Y-110303962D01*
X179139997Y-110281270D01*
X179139039Y-110280545D01*
X179054991Y-110223276D01*
X178965849Y-110174669D01*
X178871582Y-110134712D01*
X178772160Y-110103391D01*
X178667554Y-110080695D01*
X178655254Y-110078930D01*
X178627016Y-110076218D01*
X178592401Y-110074055D01*
X178553753Y-110072486D01*
X178513417Y-110071557D01*
X178473735Y-110071313D01*
X178437052Y-110071799D01*
X178405711Y-110073062D01*
X178382057Y-110075147D01*
X178353062Y-110078972D01*
X178354371Y-109851147D01*
X178355681Y-109623323D01*
X178431186Y-109618689D01*
X178489269Y-109616575D01*
X178590496Y-109619127D01*
G37*
%TD*%
M02*
