%TF.GenerationSoftware,KiCad,Pcbnew,7.0.10*%
%TF.CreationDate,2024-07-21T07:17:00-04:00*%
%TF.ProjectId,12.2.1 - PLC Connector,31322e32-2e31-4202-9d20-504c4320436f,rev?*%
%TF.SameCoordinates,Original*%
%TF.FileFunction,Drillmap*%
%TF.FilePolarity,Positive*%
%FSLAX45Y45*%
G04 Gerber Fmt 4.5, Leading zero omitted, Abs format (unit mm)*
G04 Created by KiCad (PCBNEW 7.0.10) date 2024-07-21 07:17:00*
%MOMM*%
%LPD*%
G01*
G04 APERTURE LIST*
%ADD10C,0.250000*%
%ADD11C,0.200000*%
G04 APERTURE END LIST*
D10*
X15427824Y-10617646D02*
G75*
G03*
X15502822Y-10692646I74996J-4D01*
G01*
X16702824Y-7719646D02*
G75*
G03*
X16627822Y-7644646I-75004J-4D01*
G01*
X16627822Y-10184646D02*
X15502822Y-10184646D01*
X18402823Y-4433646D02*
X18402823Y-11517646D01*
X16702822Y-10363646D02*
X16702822Y-10259646D01*
X16702822Y-6807646D02*
X16702822Y-6195646D01*
X15427822Y-9093646D02*
X15427822Y-8989646D01*
X15427824Y-8585646D02*
G75*
G03*
X15502822Y-8660646I74996J-4D01*
G01*
X15427822Y-7061646D02*
X15427822Y-6957646D01*
X16627822Y-5612646D02*
X15502822Y-5612646D01*
X15427824Y-9093646D02*
G75*
G03*
X15502822Y-9168646I74996J-4D01*
G01*
X16627822Y-6882652D02*
G75*
G03*
X16702822Y-6807646I-3J75003D01*
G01*
X16627822Y-5358653D02*
G75*
G03*
X16702822Y-5283646I-3J75003D01*
G01*
X15502822Y-9930646D02*
X16627822Y-9930646D01*
X16627822Y-5866652D02*
G75*
G03*
X16702822Y-5791646I-3J75003D01*
G01*
X16702824Y-9243646D02*
G75*
G03*
X16627822Y-9168646I-75004J-4D01*
G01*
X16702824Y-10259646D02*
G75*
G03*
X16627822Y-10184646I-75004J-4D01*
G01*
X15502822Y-8914646D02*
X16627822Y-8914646D01*
X15427822Y-10617646D02*
X15427822Y-10513646D01*
X16702824Y-10767646D02*
G75*
G03*
X16627822Y-10692646I-75004J-4D01*
G01*
X16627822Y-10692646D02*
X15502822Y-10692646D01*
X15502822Y-5358653D02*
G75*
G03*
X15427822Y-5433646I-3J-74998D01*
G01*
X15427822Y-6045646D02*
X15427822Y-5941646D01*
X16627822Y-8914653D02*
G75*
G03*
X16702822Y-8839646I-3J75003D01*
G01*
X15427822Y-7569646D02*
X15427822Y-7465646D01*
X16702824Y-6195646D02*
G75*
G03*
X16627822Y-6120646I-75004J-4D01*
G01*
X16627822Y-6120646D02*
X15502822Y-6120646D01*
X15502822Y-10438653D02*
G75*
G03*
X15427822Y-10513646I-3J-74998D01*
G01*
X15502822Y-7390652D02*
G75*
G03*
X15427822Y-7465646I-3J-74998D01*
G01*
X15502822Y-5358646D02*
X16627822Y-5358646D01*
X18327823Y-11592646D02*
X16777823Y-11592646D01*
X16702824Y-7211646D02*
G75*
G03*
X16627822Y-7136646I-75004J-4D01*
G01*
X15502822Y-5866646D02*
X16627822Y-5866646D01*
X15502822Y-6882652D02*
G75*
G03*
X15427822Y-6957646I-3J-74998D01*
G01*
X16627822Y-7390652D02*
G75*
G03*
X16702822Y-7315646I-3J75003D01*
G01*
X16627822Y-9168646D02*
X15502822Y-9168646D01*
X16702822Y-9855646D02*
X16702822Y-9243646D01*
X15502822Y-5866652D02*
G75*
G03*
X15427822Y-5941646I-3J-74998D01*
G01*
X15427824Y-7061646D02*
G75*
G03*
X15502822Y-7136646I74996J-4D01*
G01*
X15427824Y-6045646D02*
G75*
G03*
X15502822Y-6120646I74996J-4D01*
G01*
X15427822Y-5537646D02*
X15427822Y-5433646D01*
X16777823Y-4358653D02*
G75*
G03*
X16702822Y-4433646I-3J-74998D01*
G01*
X15427822Y-8585646D02*
X15427822Y-8481646D01*
X16702822Y-7315646D02*
X16702822Y-7211646D01*
X18402824Y-4433646D02*
G75*
G03*
X18327823Y-4358646I-75004J-4D01*
G01*
X16627822Y-9930653D02*
G75*
G03*
X16702822Y-9855646I-3J75003D01*
G01*
X16627822Y-7644646D02*
X15502822Y-7644646D01*
X16627822Y-8406653D02*
G75*
G03*
X16702822Y-8331646I-3J75003D01*
G01*
X16627822Y-7136646D02*
X15502822Y-7136646D01*
X16702822Y-5283646D02*
X16702822Y-4433646D01*
X15502822Y-10438646D02*
X16627822Y-10438646D01*
X15502822Y-8914653D02*
G75*
G03*
X15427822Y-8989646I-3J-74998D01*
G01*
X16702824Y-8735646D02*
G75*
G03*
X16627822Y-8660646I-75004J-4D01*
G01*
X15427824Y-5537646D02*
G75*
G03*
X15502822Y-5612646I74996J-4D01*
G01*
X15502822Y-8406646D02*
X16627822Y-8406646D01*
X16702822Y-8331646D02*
X16702822Y-7719646D01*
X15427824Y-7569646D02*
G75*
G03*
X15502822Y-7644646I74996J-4D01*
G01*
X15502822Y-9930653D02*
G75*
G03*
X15427822Y-10005646I-3J-74998D01*
G01*
X15502822Y-6882646D02*
X16627822Y-6882646D01*
X16702822Y-8839646D02*
X16702822Y-8735646D01*
X16702824Y-5687646D02*
G75*
G03*
X16627822Y-5612646I-75004J-4D01*
G01*
X18327823Y-11592652D02*
G75*
G03*
X18402823Y-11517646I-3J75003D01*
G01*
X15427824Y-10109646D02*
G75*
G03*
X15502822Y-10184646I74996J-4D01*
G01*
X16702822Y-5791646D02*
X16702822Y-5687646D01*
X15502822Y-8406653D02*
G75*
G03*
X15427822Y-8481646I-3J-74998D01*
G01*
X15502822Y-7390646D02*
X16627822Y-7390646D01*
X16777823Y-4358646D02*
X18327823Y-4358646D01*
X16702822Y-11517646D02*
X16702822Y-10767646D01*
X16627822Y-8660646D02*
X15502822Y-8660646D01*
X15427822Y-10109646D02*
X15427822Y-10005646D01*
X16627822Y-10438653D02*
G75*
G03*
X16702822Y-10363646I-3J75003D01*
G01*
X16702824Y-11517646D02*
G75*
G03*
X16777823Y-11592646I74996J-4D01*
G01*
D11*
X15676099Y-11916630D02*
X15676099Y-11716630D01*
X15676099Y-11716630D02*
X15723718Y-11716630D01*
X15723718Y-11716630D02*
X15752290Y-11726154D01*
X15752290Y-11726154D02*
X15771337Y-11745201D01*
X15771337Y-11745201D02*
X15780861Y-11764249D01*
X15780861Y-11764249D02*
X15790385Y-11802344D01*
X15790385Y-11802344D02*
X15790385Y-11830916D01*
X15790385Y-11830916D02*
X15780861Y-11869011D01*
X15780861Y-11869011D02*
X15771337Y-11888058D01*
X15771337Y-11888058D02*
X15752290Y-11907106D01*
X15752290Y-11907106D02*
X15723718Y-11916630D01*
X15723718Y-11916630D02*
X15676099Y-11916630D01*
X15876099Y-11916630D02*
X15876099Y-11783297D01*
X15876099Y-11821392D02*
X15885623Y-11802344D01*
X15885623Y-11802344D02*
X15895147Y-11792820D01*
X15895147Y-11792820D02*
X15914194Y-11783297D01*
X15914194Y-11783297D02*
X15933242Y-11783297D01*
X15999909Y-11916630D02*
X15999909Y-11783297D01*
X15999909Y-11716630D02*
X15990385Y-11726154D01*
X15990385Y-11726154D02*
X15999909Y-11735678D01*
X15999909Y-11735678D02*
X16009433Y-11726154D01*
X16009433Y-11726154D02*
X15999909Y-11716630D01*
X15999909Y-11716630D02*
X15999909Y-11735678D01*
X16123718Y-11916630D02*
X16104671Y-11907106D01*
X16104671Y-11907106D02*
X16095147Y-11888058D01*
X16095147Y-11888058D02*
X16095147Y-11716630D01*
X16228480Y-11916630D02*
X16209433Y-11907106D01*
X16209433Y-11907106D02*
X16199909Y-11888058D01*
X16199909Y-11888058D02*
X16199909Y-11716630D01*
X16457052Y-11916630D02*
X16457052Y-11716630D01*
X16457052Y-11716630D02*
X16523718Y-11859487D01*
X16523718Y-11859487D02*
X16590385Y-11716630D01*
X16590385Y-11716630D02*
X16590385Y-11916630D01*
X16771337Y-11916630D02*
X16771337Y-11811868D01*
X16771337Y-11811868D02*
X16761814Y-11792820D01*
X16761814Y-11792820D02*
X16742766Y-11783297D01*
X16742766Y-11783297D02*
X16704671Y-11783297D01*
X16704671Y-11783297D02*
X16685623Y-11792820D01*
X16771337Y-11907106D02*
X16752290Y-11916630D01*
X16752290Y-11916630D02*
X16704671Y-11916630D01*
X16704671Y-11916630D02*
X16685623Y-11907106D01*
X16685623Y-11907106D02*
X16676099Y-11888058D01*
X16676099Y-11888058D02*
X16676099Y-11869011D01*
X16676099Y-11869011D02*
X16685623Y-11849963D01*
X16685623Y-11849963D02*
X16704671Y-11840439D01*
X16704671Y-11840439D02*
X16752290Y-11840439D01*
X16752290Y-11840439D02*
X16771337Y-11830916D01*
X16866576Y-11783297D02*
X16866576Y-11983297D01*
X16866576Y-11792820D02*
X16885623Y-11783297D01*
X16885623Y-11783297D02*
X16923718Y-11783297D01*
X16923718Y-11783297D02*
X16942766Y-11792820D01*
X16942766Y-11792820D02*
X16952290Y-11802344D01*
X16952290Y-11802344D02*
X16961814Y-11821392D01*
X16961814Y-11821392D02*
X16961814Y-11878535D01*
X16961814Y-11878535D02*
X16952290Y-11897582D01*
X16952290Y-11897582D02*
X16942766Y-11907106D01*
X16942766Y-11907106D02*
X16923718Y-11916630D01*
X16923718Y-11916630D02*
X16885623Y-11916630D01*
X16885623Y-11916630D02*
X16866576Y-11907106D01*
X17047528Y-11897582D02*
X17057052Y-11907106D01*
X17057052Y-11907106D02*
X17047528Y-11916630D01*
X17047528Y-11916630D02*
X17038004Y-11907106D01*
X17038004Y-11907106D02*
X17047528Y-11897582D01*
X17047528Y-11897582D02*
X17047528Y-11916630D01*
X17047528Y-11792820D02*
X17057052Y-11802344D01*
X17057052Y-11802344D02*
X17047528Y-11811868D01*
X17047528Y-11811868D02*
X17038004Y-11802344D01*
X17038004Y-11802344D02*
X17047528Y-11792820D01*
X17047528Y-11792820D02*
X17047528Y-11811868D01*
M02*
