%TF.GenerationSoftware,KiCad,Pcbnew,7.0.10*%
%TF.CreationDate,2024-07-21T07:16:58-04:00*%
%TF.ProjectId,12.2.1 - PLC Connector,31322e32-2e31-4202-9d20-504c4320436f,rev?*%
%TF.SameCoordinates,Original*%
%TF.FileFunction,Legend,Top*%
%TF.FilePolarity,Positive*%
%FSLAX46Y46*%
G04 Gerber Fmt 4.6, Leading zero omitted, Abs format (unit mm)*
G04 Created by KiCad (PCBNEW 7.0.10) date 2024-07-21 07:16:58*
%MOMM*%
%LPD*%
G01*
G04 APERTURE LIST*
%ADD10C,0.006614*%
%ADD11C,0.000000*%
%ADD12C,0.381000*%
%ADD13C,0.508000*%
%ADD14C,0.300000*%
%ADD15C,0.177800*%
%ADD16C,0.150000*%
%ADD17C,0.254000*%
%ADD18C,0.120000*%
%ADD19C,0.100000*%
%ADD20C,0.200000*%
%ADD21C,0.152400*%
G04 APERTURE END LIST*
D10*
X169200000Y-73000000D02*
X169232809Y-73021696D01*
D11*
G36*
X182316177Y-109653508D02*
G01*
X182381893Y-109665472D01*
X182461026Y-109683729D01*
X182550733Y-109707319D01*
X182648167Y-109735281D01*
X182854842Y-109800476D01*
X183058292Y-109871624D01*
X183235759Y-109941036D01*
X183307637Y-109972688D01*
X183364485Y-110001022D01*
X183403458Y-110025078D01*
X183415353Y-110035200D01*
X183421712Y-110043893D01*
X183423447Y-110051076D01*
X183424678Y-110058693D01*
X183425397Y-110066682D01*
X183425598Y-110074981D01*
X183425271Y-110083529D01*
X183424409Y-110092262D01*
X183423005Y-110101119D01*
X183421050Y-110110039D01*
X183418537Y-110118958D01*
X183415459Y-110127815D01*
X183411807Y-110136549D01*
X183407573Y-110145096D01*
X183402750Y-110153395D01*
X183397331Y-110161384D01*
X183391306Y-110169002D01*
X183388065Y-110172651D01*
X183384670Y-110176185D01*
X183371022Y-110184446D01*
X183350150Y-110189445D01*
X183322395Y-110191265D01*
X183288097Y-110189993D01*
X183247598Y-110185712D01*
X183201239Y-110178510D01*
X183092305Y-110155679D01*
X182964024Y-110122183D01*
X182819123Y-110078702D01*
X182660332Y-110025920D01*
X182490378Y-109964518D01*
X182482689Y-109961481D01*
X182479030Y-109960662D01*
X182475495Y-109960311D01*
X182472085Y-109960430D01*
X182468798Y-109961018D01*
X182465636Y-109962077D01*
X182462597Y-109963608D01*
X182459683Y-109965612D01*
X182456892Y-109968090D01*
X182451683Y-109974471D01*
X182446970Y-109982758D01*
X182442753Y-109992961D01*
X182439033Y-110005085D01*
X182435808Y-110019140D01*
X182433080Y-110035132D01*
X182430847Y-110053071D01*
X182429111Y-110072962D01*
X182427871Y-110094815D01*
X182427126Y-110118636D01*
X182426878Y-110144435D01*
X182426878Y-110350809D01*
X182908420Y-110504268D01*
X182993531Y-110532319D01*
X183070395Y-110559014D01*
X183105792Y-110571894D01*
X183139197Y-110584484D01*
X183170633Y-110596801D01*
X183200123Y-110608861D01*
X183227691Y-110620681D01*
X183253360Y-110632277D01*
X183277153Y-110643665D01*
X183299094Y-110654863D01*
X183319205Y-110665887D01*
X183337510Y-110676752D01*
X183354032Y-110687476D01*
X183368795Y-110698075D01*
X183381821Y-110708566D01*
X183393135Y-110718964D01*
X183402758Y-110729287D01*
X183410715Y-110739551D01*
X183417028Y-110749772D01*
X183421722Y-110759967D01*
X183424819Y-110770152D01*
X183426342Y-110780344D01*
X183426315Y-110790559D01*
X183424760Y-110800814D01*
X183421703Y-110811125D01*
X183417164Y-110821509D01*
X183411168Y-110831982D01*
X183403739Y-110842561D01*
X183394898Y-110853262D01*
X183384670Y-110864101D01*
X183371022Y-110872363D01*
X183350150Y-110877361D01*
X183322395Y-110879182D01*
X183288097Y-110877909D01*
X183247598Y-110873629D01*
X183201239Y-110866427D01*
X183092305Y-110843596D01*
X182964024Y-110810099D01*
X182819123Y-110766619D01*
X182660332Y-110713836D01*
X182490378Y-110652434D01*
X182482689Y-110649397D01*
X182479030Y-110648579D01*
X182475495Y-110648228D01*
X182472085Y-110648346D01*
X182468798Y-110648935D01*
X182465636Y-110649994D01*
X182462597Y-110651525D01*
X182459683Y-110653529D01*
X182456892Y-110656007D01*
X182451683Y-110662387D01*
X182446970Y-110670675D01*
X182442753Y-110680877D01*
X182439033Y-110693002D01*
X182435808Y-110707056D01*
X182433080Y-110723049D01*
X182430847Y-110740987D01*
X182429111Y-110760879D01*
X182427871Y-110782731D01*
X182427126Y-110806553D01*
X182426878Y-110832351D01*
X182426878Y-111038726D01*
X182908420Y-111192184D01*
X182993531Y-111220236D01*
X183070395Y-111246930D01*
X183105792Y-111259810D01*
X183139197Y-111272401D01*
X183170633Y-111284717D01*
X183200123Y-111296778D01*
X183227691Y-111308597D01*
X183253360Y-111320193D01*
X183277153Y-111331582D01*
X183299094Y-111342780D01*
X183319205Y-111353803D01*
X183337510Y-111364669D01*
X183354032Y-111375393D01*
X183368795Y-111385992D01*
X183381821Y-111396482D01*
X183393135Y-111406881D01*
X183402758Y-111417204D01*
X183410715Y-111427467D01*
X183417028Y-111437688D01*
X183421722Y-111447883D01*
X183424819Y-111458069D01*
X183426342Y-111468261D01*
X183426315Y-111478476D01*
X183424760Y-111488731D01*
X183421703Y-111499042D01*
X183417164Y-111509426D01*
X183411168Y-111519899D01*
X183403739Y-111530478D01*
X183394898Y-111541178D01*
X183384670Y-111552018D01*
X183371023Y-111560280D01*
X183350160Y-111565278D01*
X183322430Y-111567098D01*
X183288180Y-111565826D01*
X183247760Y-111561546D01*
X183201518Y-111554343D01*
X183092967Y-111531513D01*
X182965316Y-111498016D01*
X182821355Y-111454535D01*
X182663877Y-111401753D01*
X182495670Y-111340351D01*
X182487049Y-111337251D01*
X182482969Y-111336351D01*
X182479041Y-111335886D01*
X182475263Y-111335855D01*
X182471637Y-111336258D01*
X182468159Y-111337096D01*
X182464830Y-111338367D01*
X182461647Y-111340072D01*
X182458612Y-111342211D01*
X182455721Y-111344785D01*
X182452975Y-111347793D01*
X182450372Y-111351234D01*
X182447912Y-111355110D01*
X182443415Y-111364164D01*
X182439476Y-111374954D01*
X182436087Y-111387480D01*
X182433241Y-111401743D01*
X182430930Y-111417742D01*
X182429146Y-111435477D01*
X182427881Y-111454949D01*
X182427128Y-111476157D01*
X182426878Y-111499101D01*
X182426878Y-111684309D01*
X182908420Y-111858934D01*
X182992660Y-111889838D01*
X183068886Y-111919137D01*
X183137266Y-111946964D01*
X183168568Y-111960366D01*
X183197973Y-111973449D01*
X183225502Y-111986230D01*
X183251177Y-111998726D01*
X183275018Y-112010951D01*
X183297047Y-112022924D01*
X183317286Y-112034661D01*
X183335756Y-112046177D01*
X183352477Y-112057491D01*
X183367472Y-112068617D01*
X183380762Y-112079572D01*
X183392367Y-112090374D01*
X183402310Y-112101038D01*
X183410612Y-112111580D01*
X183417293Y-112122019D01*
X183422376Y-112132369D01*
X183425881Y-112142647D01*
X183427830Y-112152870D01*
X183428244Y-112163054D01*
X183427145Y-112173216D01*
X183424554Y-112183372D01*
X183420492Y-112193539D01*
X183414980Y-112203733D01*
X183408041Y-112213971D01*
X183399694Y-112224268D01*
X183389962Y-112234643D01*
X183380825Y-112241709D01*
X183369208Y-112247024D01*
X183354987Y-112250572D01*
X183338037Y-112252337D01*
X183318235Y-112252303D01*
X183295456Y-112250456D01*
X183269576Y-112246779D01*
X183240472Y-112241257D01*
X183208019Y-112233875D01*
X183172094Y-112224617D01*
X183089329Y-112200412D01*
X182991185Y-112168518D01*
X182876670Y-112128809D01*
X182426878Y-111964768D01*
X182426878Y-112361643D01*
X182908420Y-112515101D01*
X182993531Y-112543152D01*
X183070395Y-112569847D01*
X183105792Y-112582727D01*
X183139197Y-112595317D01*
X183170633Y-112607634D01*
X183200123Y-112619694D01*
X183227691Y-112631514D01*
X183253360Y-112643110D01*
X183277153Y-112654499D01*
X183299094Y-112665696D01*
X183319205Y-112676720D01*
X183337510Y-112687585D01*
X183354032Y-112698309D01*
X183368795Y-112708908D01*
X183381821Y-112719399D01*
X183393135Y-112729797D01*
X183402758Y-112740120D01*
X183410715Y-112750384D01*
X183417028Y-112760605D01*
X183421722Y-112770800D01*
X183424819Y-112780985D01*
X183426342Y-112791177D01*
X183426315Y-112801392D01*
X183424760Y-112811648D01*
X183421703Y-112821959D01*
X183417164Y-112832343D01*
X183411168Y-112842816D01*
X183403739Y-112853394D01*
X183394898Y-112864095D01*
X183384670Y-112874934D01*
X183375331Y-112881996D01*
X183363038Y-112887275D01*
X183347567Y-112890724D01*
X183328694Y-112892298D01*
X183306193Y-112891949D01*
X183279839Y-112889631D01*
X183249408Y-112885298D01*
X183214675Y-112878903D01*
X183131404Y-112859741D01*
X183028227Y-112831774D01*
X182903345Y-112794629D01*
X182754962Y-112747934D01*
X182188753Y-112562726D01*
X182172878Y-111917143D01*
X182157004Y-111271559D01*
X181659587Y-111271559D01*
X181580741Y-111271702D01*
X181510531Y-111272200D01*
X181448414Y-111273164D01*
X181393846Y-111274701D01*
X181369224Y-111275719D01*
X181346285Y-111276921D01*
X181324963Y-111278320D01*
X181305190Y-111279931D01*
X181286897Y-111281766D01*
X181270016Y-111283840D01*
X181254481Y-111286166D01*
X181240222Y-111288757D01*
X181227173Y-111291628D01*
X181215265Y-111294791D01*
X181204431Y-111298260D01*
X181194602Y-111302049D01*
X181185712Y-111306171D01*
X181177691Y-111310640D01*
X181170473Y-111315469D01*
X181163989Y-111320673D01*
X181158172Y-111326264D01*
X181152954Y-111332256D01*
X181148266Y-111338663D01*
X181144042Y-111345498D01*
X181140213Y-111352775D01*
X181136712Y-111360508D01*
X181133470Y-111368709D01*
X181130420Y-111377393D01*
X181124938Y-111393667D01*
X181118435Y-111409736D01*
X181110946Y-111425577D01*
X181102505Y-111441172D01*
X181082900Y-111471538D01*
X181059892Y-111500672D01*
X181033753Y-111528411D01*
X181004753Y-111554591D01*
X180973165Y-111579051D01*
X180939259Y-111601627D01*
X180903306Y-111622157D01*
X180865578Y-111640478D01*
X180826347Y-111656426D01*
X180785883Y-111669840D01*
X180744458Y-111680556D01*
X180702343Y-111688413D01*
X180659809Y-111693246D01*
X180627712Y-111694484D01*
X180617128Y-111694893D01*
X180588204Y-111694448D01*
X180560853Y-111693074D01*
X180534913Y-111690707D01*
X180510220Y-111687286D01*
X180486613Y-111682749D01*
X180463928Y-111677033D01*
X180442003Y-111670078D01*
X180420675Y-111661820D01*
X180399781Y-111652198D01*
X180379158Y-111641149D01*
X180358644Y-111628613D01*
X180338076Y-111614526D01*
X180317290Y-111598826D01*
X180296125Y-111581453D01*
X180274417Y-111562343D01*
X180252003Y-111541434D01*
X180230223Y-111519077D01*
X180210466Y-111497509D01*
X180192647Y-111476531D01*
X180176680Y-111455941D01*
X180162480Y-111435537D01*
X180149963Y-111415117D01*
X180139043Y-111394480D01*
X180129634Y-111373424D01*
X180121651Y-111351748D01*
X180115009Y-111329251D01*
X180109623Y-111305731D01*
X180105408Y-111280985D01*
X180102277Y-111254814D01*
X180100147Y-111227014D01*
X180098931Y-111197386D01*
X180098545Y-111165726D01*
X180151462Y-111165726D01*
X180151987Y-111193164D01*
X180153555Y-111219909D01*
X180156153Y-111245948D01*
X180159771Y-111271270D01*
X180164397Y-111295864D01*
X180170019Y-111319717D01*
X180176625Y-111342818D01*
X180184204Y-111365156D01*
X180192744Y-111386718D01*
X180202234Y-111407494D01*
X180212662Y-111427472D01*
X180224015Y-111446639D01*
X180236284Y-111464985D01*
X180249456Y-111482497D01*
X180263519Y-111499165D01*
X180278462Y-111514976D01*
X180294273Y-111529919D01*
X180310940Y-111543982D01*
X180328453Y-111557154D01*
X180346799Y-111569422D01*
X180365966Y-111580776D01*
X180385944Y-111591204D01*
X180406719Y-111600694D01*
X180428282Y-111609234D01*
X180450620Y-111616813D01*
X180473721Y-111623419D01*
X180497574Y-111629041D01*
X180522168Y-111633666D01*
X180547490Y-111637284D01*
X180573529Y-111639883D01*
X180600274Y-111641451D01*
X180627712Y-111641976D01*
X180656689Y-111641595D01*
X180684163Y-111640415D01*
X180710242Y-111638383D01*
X180735033Y-111635444D01*
X180758647Y-111631544D01*
X180781191Y-111626628D01*
X180802773Y-111620643D01*
X180823503Y-111613533D01*
X180843489Y-111605246D01*
X180862840Y-111595726D01*
X180881663Y-111584919D01*
X180900067Y-111572771D01*
X180918162Y-111559228D01*
X180936055Y-111544235D01*
X180953855Y-111527739D01*
X180971670Y-111509685D01*
X180985364Y-111496618D01*
X180998625Y-111483288D01*
X181011389Y-111469803D01*
X181023595Y-111456272D01*
X181035180Y-111442802D01*
X181046084Y-111429503D01*
X181056244Y-111416483D01*
X181065597Y-111403851D01*
X181074082Y-111391715D01*
X181081638Y-111380183D01*
X181088200Y-111369365D01*
X181093709Y-111359368D01*
X181098102Y-111350301D01*
X181101316Y-111342273D01*
X181102462Y-111338683D01*
X181103290Y-111335393D01*
X181103793Y-111332417D01*
X181103962Y-111329768D01*
X181103593Y-111327273D01*
X181102498Y-111324751D01*
X181098205Y-111319650D01*
X181091230Y-111314501D01*
X181081720Y-111309345D01*
X181069823Y-111304220D01*
X181055686Y-111299165D01*
X181039455Y-111294218D01*
X181021279Y-111289419D01*
X181001305Y-111284805D01*
X180979680Y-111280417D01*
X180932065Y-111272469D01*
X180879614Y-111265885D01*
X180823503Y-111260976D01*
X180787276Y-111258802D01*
X180753947Y-111256232D01*
X180738345Y-111254792D01*
X180723440Y-111253244D01*
X180709220Y-111251586D01*
X180695677Y-111249814D01*
X180682800Y-111247926D01*
X180670580Y-111245919D01*
X180659007Y-111243790D01*
X180648072Y-111241535D01*
X180637765Y-111239153D01*
X180628076Y-111236640D01*
X180618996Y-111233994D01*
X180610514Y-111231211D01*
X180602621Y-111228288D01*
X180595308Y-111225223D01*
X180588565Y-111222012D01*
X180582381Y-111218653D01*
X180576748Y-111215143D01*
X180571656Y-111211479D01*
X180567094Y-111207658D01*
X180563054Y-111203677D01*
X180559526Y-111199534D01*
X180556499Y-111195224D01*
X180553965Y-111190746D01*
X180551913Y-111186097D01*
X180550334Y-111181273D01*
X180549218Y-111176272D01*
X180548555Y-111171091D01*
X180548337Y-111165726D01*
X180549218Y-111155180D01*
X180551913Y-111145355D01*
X180556499Y-111136228D01*
X180563054Y-111127775D01*
X180571656Y-111119973D01*
X180582381Y-111112799D01*
X180595308Y-111106230D01*
X180610514Y-111100242D01*
X180628076Y-111094812D01*
X180648072Y-111089917D01*
X180670580Y-111085533D01*
X180695677Y-111081638D01*
X180723440Y-111078208D01*
X180753947Y-111075220D01*
X180787276Y-111072650D01*
X180823503Y-111070476D01*
X180851942Y-111068250D01*
X180879614Y-111065567D01*
X180906370Y-111062465D01*
X180932065Y-111058983D01*
X180956551Y-111055161D01*
X180979680Y-111051035D01*
X181001305Y-111046647D01*
X181021279Y-111042033D01*
X181039455Y-111037234D01*
X181055686Y-111032287D01*
X181069823Y-111027232D01*
X181081720Y-111022107D01*
X181086783Y-111019530D01*
X181091230Y-111016951D01*
X181095044Y-111014373D01*
X181098205Y-111011803D01*
X181100696Y-111009244D01*
X181102498Y-111006701D01*
X181103593Y-111004180D01*
X181103962Y-111001684D01*
X181103290Y-110996059D01*
X181101316Y-110989179D01*
X181098102Y-110981151D01*
X181093709Y-110972084D01*
X181088200Y-110962087D01*
X181081638Y-110951269D01*
X181074082Y-110939737D01*
X181065597Y-110927601D01*
X181056244Y-110914969D01*
X181046084Y-110901949D01*
X181035180Y-110888650D01*
X181023595Y-110875181D01*
X181011389Y-110861649D01*
X180998625Y-110848164D01*
X180985364Y-110834834D01*
X180971670Y-110821768D01*
X180953855Y-110803713D01*
X180936055Y-110787217D01*
X180918162Y-110772224D01*
X180900067Y-110758681D01*
X180881663Y-110746533D01*
X180862840Y-110735727D01*
X180843489Y-110726206D01*
X180823503Y-110717919D01*
X180802773Y-110710809D01*
X180781191Y-110704824D01*
X180758647Y-110699908D01*
X180735033Y-110696008D01*
X180710242Y-110693069D01*
X180684163Y-110691037D01*
X180656689Y-110689857D01*
X180627712Y-110689476D01*
X180598734Y-110689857D01*
X180571260Y-110691037D01*
X180545182Y-110693069D01*
X180520390Y-110696008D01*
X180496777Y-110699908D01*
X180474233Y-110704824D01*
X180452650Y-110710809D01*
X180431920Y-110717919D01*
X180411934Y-110726206D01*
X180392584Y-110735727D01*
X180373761Y-110746533D01*
X180355356Y-110758681D01*
X180337262Y-110772224D01*
X180319369Y-110787217D01*
X180301569Y-110803713D01*
X180283753Y-110821768D01*
X180265699Y-110839583D01*
X180249203Y-110857383D01*
X180234210Y-110875276D01*
X180220667Y-110893371D01*
X180208519Y-110911775D01*
X180197712Y-110930598D01*
X180188192Y-110949949D01*
X180179904Y-110969934D01*
X180172795Y-110990664D01*
X180166810Y-111012247D01*
X180161894Y-111034791D01*
X180157994Y-111058405D01*
X180155055Y-111083196D01*
X180153022Y-111109275D01*
X180151843Y-111136749D01*
X180151462Y-111165726D01*
X180098545Y-111165726D01*
X180099192Y-111137671D01*
X180101113Y-111110077D01*
X180104283Y-111082974D01*
X180108674Y-111056389D01*
X180114258Y-111030351D01*
X180121009Y-111004887D01*
X180128899Y-110980026D01*
X180137902Y-110955796D01*
X180147990Y-110932224D01*
X180159136Y-110909340D01*
X180171313Y-110887171D01*
X180184493Y-110865744D01*
X180198651Y-110845090D01*
X180213758Y-110825234D01*
X180229787Y-110806206D01*
X180246712Y-110788033D01*
X180264505Y-110770745D01*
X180283139Y-110754368D01*
X180302586Y-110738930D01*
X180322821Y-110724461D01*
X180343815Y-110710988D01*
X180365542Y-110698539D01*
X180387974Y-110687142D01*
X180411084Y-110676826D01*
X180434846Y-110667618D01*
X180459231Y-110659546D01*
X180484213Y-110652640D01*
X180509765Y-110646926D01*
X180535860Y-110642433D01*
X180562470Y-110639189D01*
X180589569Y-110637221D01*
X180617128Y-110636560D01*
X180638470Y-110636975D01*
X180659809Y-110638207D01*
X180681111Y-110640235D01*
X180702343Y-110643040D01*
X180723470Y-110646600D01*
X180744458Y-110650896D01*
X180765274Y-110655907D01*
X180785883Y-110661612D01*
X180806252Y-110667992D01*
X180826347Y-110675026D01*
X180846134Y-110682694D01*
X180865578Y-110690975D01*
X180884647Y-110699849D01*
X180903306Y-110709295D01*
X180921521Y-110719294D01*
X180939259Y-110729825D01*
X180956484Y-110740868D01*
X180973165Y-110752401D01*
X180989266Y-110764406D01*
X181004753Y-110776861D01*
X181019594Y-110789746D01*
X181033753Y-110803042D01*
X181047197Y-110816726D01*
X181059892Y-110830780D01*
X181071804Y-110845183D01*
X181082900Y-110859914D01*
X181093144Y-110874953D01*
X181102505Y-110890281D01*
X181110946Y-110905875D01*
X181118435Y-110921717D01*
X181124938Y-110937785D01*
X181130420Y-110954060D01*
X181136713Y-110970945D01*
X181144052Y-110985954D01*
X181152988Y-110999196D01*
X181164072Y-111010780D01*
X181177853Y-111020813D01*
X181194881Y-111029404D01*
X181215708Y-111036662D01*
X181240884Y-111042695D01*
X181270958Y-111047612D01*
X181306482Y-111051521D01*
X181348005Y-111054531D01*
X181396078Y-111056751D01*
X181514076Y-111059252D01*
X181664878Y-111059893D01*
X182162295Y-111059893D01*
X182162295Y-110371976D01*
X182162487Y-110272562D01*
X182163091Y-110182396D01*
X182164144Y-110101051D01*
X182165685Y-110028101D01*
X182167753Y-109963119D01*
X182170388Y-109905679D01*
X182173626Y-109855355D01*
X182177509Y-109811721D01*
X182179703Y-109792279D01*
X182182073Y-109774350D01*
X182184623Y-109757880D01*
X182187358Y-109742816D01*
X182190283Y-109729104D01*
X182193403Y-109716692D01*
X182196722Y-109705526D01*
X182200246Y-109695552D01*
X182203979Y-109686718D01*
X182207927Y-109678971D01*
X182212093Y-109672256D01*
X182216483Y-109666521D01*
X182221102Y-109661712D01*
X182225954Y-109657776D01*
X182231045Y-109654659D01*
X182236378Y-109652310D01*
X182248985Y-109649468D01*
X182266724Y-109648801D01*
X182316177Y-109653508D01*
G37*
D12*
X169483822Y-53615485D02*
X169411250Y-53760628D01*
X169411250Y-53760628D02*
X169266108Y-53905771D01*
X169266108Y-53905771D02*
X169048393Y-54123485D01*
X169048393Y-54123485D02*
X168975822Y-54268628D01*
X168975822Y-54268628D02*
X168975822Y-54413771D01*
X169338679Y-54341200D02*
X169266108Y-54486343D01*
X169266108Y-54486343D02*
X169120965Y-54631485D01*
X169120965Y-54631485D02*
X168830679Y-54704057D01*
X168830679Y-54704057D02*
X168322679Y-54704057D01*
X168322679Y-54704057D02*
X168032393Y-54631485D01*
X168032393Y-54631485D02*
X167887250Y-54486343D01*
X167887250Y-54486343D02*
X167814679Y-54341200D01*
X167814679Y-54341200D02*
X167814679Y-54050914D01*
X167814679Y-54050914D02*
X167887250Y-53905771D01*
X167887250Y-53905771D02*
X168032393Y-53760628D01*
X168032393Y-53760628D02*
X168322679Y-53688057D01*
X168322679Y-53688057D02*
X168830679Y-53688057D01*
X168830679Y-53688057D02*
X169120965Y-53760628D01*
X169120965Y-53760628D02*
X169266108Y-53905771D01*
X169266108Y-53905771D02*
X169338679Y-54050914D01*
X169338679Y-54050914D02*
X169338679Y-54341200D01*
X168322679Y-52381772D02*
X169338679Y-52381772D01*
X167742108Y-52744629D02*
X168830679Y-53107486D01*
X168830679Y-53107486D02*
X168830679Y-52164057D01*
X168975822Y-90953485D02*
X168903250Y-91098628D01*
X168903250Y-91098628D02*
X168758108Y-91243771D01*
X168758108Y-91243771D02*
X168540393Y-91461485D01*
X168540393Y-91461485D02*
X168467822Y-91606628D01*
X168467822Y-91606628D02*
X168467822Y-91751771D01*
X168830679Y-91679200D02*
X168758108Y-91824343D01*
X168758108Y-91824343D02*
X168612965Y-91969485D01*
X168612965Y-91969485D02*
X168322679Y-92042057D01*
X168322679Y-92042057D02*
X167814679Y-92042057D01*
X167814679Y-92042057D02*
X167524393Y-91969485D01*
X167524393Y-91969485D02*
X167379250Y-91824343D01*
X167379250Y-91824343D02*
X167306679Y-91679200D01*
X167306679Y-91679200D02*
X167306679Y-91388914D01*
X167306679Y-91388914D02*
X167379250Y-91243771D01*
X167379250Y-91243771D02*
X167524393Y-91098628D01*
X167524393Y-91098628D02*
X167814679Y-91026057D01*
X167814679Y-91026057D02*
X168322679Y-91026057D01*
X168322679Y-91026057D02*
X168612965Y-91098628D01*
X168612965Y-91098628D02*
X168758108Y-91243771D01*
X168758108Y-91243771D02*
X168830679Y-91388914D01*
X168830679Y-91388914D02*
X168830679Y-91679200D01*
X167451822Y-90445486D02*
X167379250Y-90372914D01*
X167379250Y-90372914D02*
X167306679Y-90227772D01*
X167306679Y-90227772D02*
X167306679Y-89864914D01*
X167306679Y-89864914D02*
X167379250Y-89719772D01*
X167379250Y-89719772D02*
X167451822Y-89647200D01*
X167451822Y-89647200D02*
X167596965Y-89574629D01*
X167596965Y-89574629D02*
X167742108Y-89574629D01*
X167742108Y-89574629D02*
X167959822Y-89647200D01*
X167959822Y-89647200D02*
X168830679Y-90518057D01*
X168830679Y-90518057D02*
X168830679Y-89574629D01*
D13*
X183239905Y-105415666D02*
X183239905Y-106780009D01*
X183239905Y-106097837D02*
X181207905Y-106097837D01*
X181207905Y-106097837D02*
X181498191Y-106325228D01*
X181498191Y-106325228D02*
X181691715Y-106552618D01*
X181691715Y-106552618D02*
X181788477Y-106780009D01*
X181401429Y-100867856D02*
X181304667Y-100754160D01*
X181304667Y-100754160D02*
X181207905Y-100526770D01*
X181207905Y-100526770D02*
X181207905Y-99958294D01*
X181207905Y-99958294D02*
X181304667Y-99730903D01*
X181304667Y-99730903D02*
X181401429Y-99617208D01*
X181401429Y-99617208D02*
X181594953Y-99503513D01*
X181594953Y-99503513D02*
X181788477Y-99503513D01*
X181788477Y-99503513D02*
X182078763Y-99617208D01*
X182078763Y-99617208D02*
X183239905Y-100981551D01*
X183239905Y-100981551D02*
X183239905Y-99503513D01*
X183239905Y-89953112D02*
X183239905Y-91317455D01*
X183239905Y-90635283D02*
X181207905Y-90635283D01*
X181207905Y-90635283D02*
X181498191Y-90862674D01*
X181498191Y-90862674D02*
X181691715Y-91090064D01*
X181691715Y-91090064D02*
X181788477Y-91317455D01*
X181401429Y-85405302D02*
X181304667Y-85291606D01*
X181304667Y-85291606D02*
X181207905Y-85064216D01*
X181207905Y-85064216D02*
X181207905Y-84495740D01*
X181207905Y-84495740D02*
X181304667Y-84268349D01*
X181304667Y-84268349D02*
X181401429Y-84154654D01*
X181401429Y-84154654D02*
X181594953Y-84040959D01*
X181594953Y-84040959D02*
X181788477Y-84040959D01*
X181788477Y-84040959D02*
X182078763Y-84154654D01*
X182078763Y-84154654D02*
X183239905Y-85518997D01*
X183239905Y-85518997D02*
X183239905Y-84040959D01*
X183239905Y-74490558D02*
X183239905Y-75854901D01*
X183239905Y-75172729D02*
X181207905Y-75172729D01*
X181207905Y-75172729D02*
X181498191Y-75400120D01*
X181498191Y-75400120D02*
X181691715Y-75627510D01*
X181691715Y-75627510D02*
X181788477Y-75854901D01*
X181401429Y-69942748D02*
X181304667Y-69829052D01*
X181304667Y-69829052D02*
X181207905Y-69601662D01*
X181207905Y-69601662D02*
X181207905Y-69033186D01*
X181207905Y-69033186D02*
X181304667Y-68805795D01*
X181304667Y-68805795D02*
X181401429Y-68692100D01*
X181401429Y-68692100D02*
X181594953Y-68578405D01*
X181594953Y-68578405D02*
X181788477Y-68578405D01*
X181788477Y-68578405D02*
X182078763Y-68692100D01*
X182078763Y-68692100D02*
X183239905Y-70056443D01*
X183239905Y-70056443D02*
X183239905Y-68578405D01*
X183239905Y-59028004D02*
X183239905Y-60392347D01*
X183239905Y-59710175D02*
X181207905Y-59710175D01*
X181207905Y-59710175D02*
X181498191Y-59937566D01*
X181498191Y-59937566D02*
X181691715Y-60164956D01*
X181691715Y-60164956D02*
X181788477Y-60392347D01*
X181401429Y-54480194D02*
X181304667Y-54366498D01*
X181304667Y-54366498D02*
X181207905Y-54139108D01*
X181207905Y-54139108D02*
X181207905Y-53570632D01*
X181207905Y-53570632D02*
X181304667Y-53343241D01*
X181304667Y-53343241D02*
X181401429Y-53229546D01*
X181401429Y-53229546D02*
X181594953Y-53115851D01*
X181594953Y-53115851D02*
X181788477Y-53115851D01*
X181788477Y-53115851D02*
X182078763Y-53229546D01*
X182078763Y-53229546D02*
X183239905Y-54593889D01*
X183239905Y-54593889D02*
X183239905Y-53115851D01*
D14*
X168079320Y-76912471D02*
X167960272Y-76852947D01*
X167960272Y-76852947D02*
X167841225Y-76733900D01*
X167841225Y-76733900D02*
X167662653Y-76555328D01*
X167662653Y-76555328D02*
X167543606Y-76495804D01*
X167543606Y-76495804D02*
X167424558Y-76495804D01*
X167484082Y-76793423D02*
X167365034Y-76733900D01*
X167365034Y-76733900D02*
X167245987Y-76614852D01*
X167245987Y-76614852D02*
X167186463Y-76376757D01*
X167186463Y-76376757D02*
X167186463Y-75960090D01*
X167186463Y-75960090D02*
X167245987Y-75721995D01*
X167245987Y-75721995D02*
X167365034Y-75602947D01*
X167365034Y-75602947D02*
X167484082Y-75543423D01*
X167484082Y-75543423D02*
X167722177Y-75543423D01*
X167722177Y-75543423D02*
X167841225Y-75602947D01*
X167841225Y-75602947D02*
X167960272Y-75721995D01*
X167960272Y-75721995D02*
X168019796Y-75960090D01*
X168019796Y-75960090D02*
X168019796Y-76376757D01*
X168019796Y-76376757D02*
X167960272Y-76614852D01*
X167960272Y-76614852D02*
X167841225Y-76733900D01*
X167841225Y-76733900D02*
X167722177Y-76793423D01*
X167722177Y-76793423D02*
X167484082Y-76793423D01*
X169210272Y-76793423D02*
X168495987Y-76793423D01*
X168853130Y-76793423D02*
X168853130Y-75543423D01*
X168853130Y-75543423D02*
X168734082Y-75721995D01*
X168734082Y-75721995D02*
X168615034Y-75841042D01*
X168615034Y-75841042D02*
X168495987Y-75900566D01*
X169745987Y-76674376D02*
X169805510Y-76733900D01*
X169805510Y-76733900D02*
X169745987Y-76793423D01*
X169745987Y-76793423D02*
X169686463Y-76733900D01*
X169686463Y-76733900D02*
X169745987Y-76674376D01*
X169745987Y-76674376D02*
X169745987Y-76793423D01*
X169745987Y-76019614D02*
X169805510Y-76079138D01*
X169805510Y-76079138D02*
X169745987Y-76138661D01*
X169745987Y-76138661D02*
X169686463Y-76079138D01*
X169686463Y-76079138D02*
X169745987Y-76019614D01*
X169745987Y-76019614D02*
X169745987Y-76138661D01*
X170995986Y-76793423D02*
X170281701Y-76793423D01*
X170638844Y-76793423D02*
X170638844Y-75543423D01*
X170638844Y-75543423D02*
X170519796Y-75721995D01*
X170519796Y-75721995D02*
X170400748Y-75841042D01*
X170400748Y-75841042D02*
X170281701Y-75900566D01*
X168333320Y-100153471D02*
X168214272Y-100093947D01*
X168214272Y-100093947D02*
X168095225Y-99974900D01*
X168095225Y-99974900D02*
X167916653Y-99796328D01*
X167916653Y-99796328D02*
X167797606Y-99736804D01*
X167797606Y-99736804D02*
X167678558Y-99736804D01*
X167738082Y-100034423D02*
X167619034Y-99974900D01*
X167619034Y-99974900D02*
X167499987Y-99855852D01*
X167499987Y-99855852D02*
X167440463Y-99617757D01*
X167440463Y-99617757D02*
X167440463Y-99201090D01*
X167440463Y-99201090D02*
X167499987Y-98962995D01*
X167499987Y-98962995D02*
X167619034Y-98843947D01*
X167619034Y-98843947D02*
X167738082Y-98784423D01*
X167738082Y-98784423D02*
X167976177Y-98784423D01*
X167976177Y-98784423D02*
X168095225Y-98843947D01*
X168095225Y-98843947D02*
X168214272Y-98962995D01*
X168214272Y-98962995D02*
X168273796Y-99201090D01*
X168273796Y-99201090D02*
X168273796Y-99617757D01*
X168273796Y-99617757D02*
X168214272Y-99855852D01*
X168214272Y-99855852D02*
X168095225Y-99974900D01*
X168095225Y-99974900D02*
X167976177Y-100034423D01*
X167976177Y-100034423D02*
X167738082Y-100034423D01*
X169464272Y-100034423D02*
X168749987Y-100034423D01*
X169107130Y-100034423D02*
X169107130Y-98784423D01*
X169107130Y-98784423D02*
X168988082Y-98962995D01*
X168988082Y-98962995D02*
X168869034Y-99082042D01*
X168869034Y-99082042D02*
X168749987Y-99141566D01*
X169999987Y-99915376D02*
X170059510Y-99974900D01*
X170059510Y-99974900D02*
X169999987Y-100034423D01*
X169999987Y-100034423D02*
X169940463Y-99974900D01*
X169940463Y-99974900D02*
X169999987Y-99915376D01*
X169999987Y-99915376D02*
X169999987Y-100034423D01*
X169999987Y-99260614D02*
X170059510Y-99320138D01*
X170059510Y-99320138D02*
X169999987Y-99379661D01*
X169999987Y-99379661D02*
X169940463Y-99320138D01*
X169940463Y-99320138D02*
X169999987Y-99260614D01*
X169999987Y-99260614D02*
X169999987Y-99379661D01*
X171249986Y-100034423D02*
X170535701Y-100034423D01*
X170892844Y-100034423D02*
X170892844Y-98784423D01*
X170892844Y-98784423D02*
X170773796Y-98962995D01*
X170773796Y-98962995D02*
X170654748Y-99082042D01*
X170654748Y-99082042D02*
X170535701Y-99141566D01*
D12*
X169229822Y-68982485D02*
X169157250Y-69127628D01*
X169157250Y-69127628D02*
X169012108Y-69272771D01*
X169012108Y-69272771D02*
X168794393Y-69490485D01*
X168794393Y-69490485D02*
X168721822Y-69635628D01*
X168721822Y-69635628D02*
X168721822Y-69780771D01*
X169084679Y-69708200D02*
X169012108Y-69853343D01*
X169012108Y-69853343D02*
X168866965Y-69998485D01*
X168866965Y-69998485D02*
X168576679Y-70071057D01*
X168576679Y-70071057D02*
X168068679Y-70071057D01*
X168068679Y-70071057D02*
X167778393Y-69998485D01*
X167778393Y-69998485D02*
X167633250Y-69853343D01*
X167633250Y-69853343D02*
X167560679Y-69708200D01*
X167560679Y-69708200D02*
X167560679Y-69417914D01*
X167560679Y-69417914D02*
X167633250Y-69272771D01*
X167633250Y-69272771D02*
X167778393Y-69127628D01*
X167778393Y-69127628D02*
X168068679Y-69055057D01*
X168068679Y-69055057D02*
X168576679Y-69055057D01*
X168576679Y-69055057D02*
X168866965Y-69127628D01*
X168866965Y-69127628D02*
X169012108Y-69272771D01*
X169012108Y-69272771D02*
X169084679Y-69417914D01*
X169084679Y-69417914D02*
X169084679Y-69708200D01*
X167560679Y-68547057D02*
X167560679Y-67603629D01*
X167560679Y-67603629D02*
X168141250Y-68111629D01*
X168141250Y-68111629D02*
X168141250Y-67893914D01*
X168141250Y-67893914D02*
X168213822Y-67748772D01*
X168213822Y-67748772D02*
X168286393Y-67676200D01*
X168286393Y-67676200D02*
X168431536Y-67603629D01*
X168431536Y-67603629D02*
X168794393Y-67603629D01*
X168794393Y-67603629D02*
X168939536Y-67676200D01*
X168939536Y-67676200D02*
X169012108Y-67748772D01*
X169012108Y-67748772D02*
X169084679Y-67893914D01*
X169084679Y-67893914D02*
X169084679Y-68329343D01*
X169084679Y-68329343D02*
X169012108Y-68474486D01*
X169012108Y-68474486D02*
X168939536Y-68547057D01*
D14*
X168206320Y-61799471D02*
X168087272Y-61739947D01*
X168087272Y-61739947D02*
X167968225Y-61620900D01*
X167968225Y-61620900D02*
X167789653Y-61442328D01*
X167789653Y-61442328D02*
X167670606Y-61382804D01*
X167670606Y-61382804D02*
X167551558Y-61382804D01*
X167611082Y-61680423D02*
X167492034Y-61620900D01*
X167492034Y-61620900D02*
X167372987Y-61501852D01*
X167372987Y-61501852D02*
X167313463Y-61263757D01*
X167313463Y-61263757D02*
X167313463Y-60847090D01*
X167313463Y-60847090D02*
X167372987Y-60608995D01*
X167372987Y-60608995D02*
X167492034Y-60489947D01*
X167492034Y-60489947D02*
X167611082Y-60430423D01*
X167611082Y-60430423D02*
X167849177Y-60430423D01*
X167849177Y-60430423D02*
X167968225Y-60489947D01*
X167968225Y-60489947D02*
X168087272Y-60608995D01*
X168087272Y-60608995D02*
X168146796Y-60847090D01*
X168146796Y-60847090D02*
X168146796Y-61263757D01*
X168146796Y-61263757D02*
X168087272Y-61501852D01*
X168087272Y-61501852D02*
X167968225Y-61620900D01*
X167968225Y-61620900D02*
X167849177Y-61680423D01*
X167849177Y-61680423D02*
X167611082Y-61680423D01*
X169337272Y-61680423D02*
X168622987Y-61680423D01*
X168980130Y-61680423D02*
X168980130Y-60430423D01*
X168980130Y-60430423D02*
X168861082Y-60608995D01*
X168861082Y-60608995D02*
X168742034Y-60728042D01*
X168742034Y-60728042D02*
X168622987Y-60787566D01*
X169872987Y-61561376D02*
X169932510Y-61620900D01*
X169932510Y-61620900D02*
X169872987Y-61680423D01*
X169872987Y-61680423D02*
X169813463Y-61620900D01*
X169813463Y-61620900D02*
X169872987Y-61561376D01*
X169872987Y-61561376D02*
X169872987Y-61680423D01*
X169872987Y-60906614D02*
X169932510Y-60966138D01*
X169932510Y-60966138D02*
X169872987Y-61025661D01*
X169872987Y-61025661D02*
X169813463Y-60966138D01*
X169813463Y-60966138D02*
X169872987Y-60906614D01*
X169872987Y-60906614D02*
X169872987Y-61025661D01*
X171122986Y-61680423D02*
X170408701Y-61680423D01*
X170765844Y-61680423D02*
X170765844Y-60430423D01*
X170765844Y-60430423D02*
X170646796Y-60608995D01*
X170646796Y-60608995D02*
X170527748Y-60728042D01*
X170527748Y-60728042D02*
X170408701Y-60787566D01*
D15*
X177789568Y-75548066D02*
X178297568Y-75548066D01*
X178297568Y-75548066D02*
X178399168Y-75581933D01*
X178399168Y-75581933D02*
X178466902Y-75649666D01*
X178466902Y-75649666D02*
X178500768Y-75751266D01*
X178500768Y-75751266D02*
X178500768Y-75819000D01*
X178500768Y-74870733D02*
X178500768Y-75209399D01*
X178500768Y-75209399D02*
X177789568Y-75209399D01*
X178433035Y-74227266D02*
X178466902Y-74261133D01*
X178466902Y-74261133D02*
X178500768Y-74362733D01*
X178500768Y-74362733D02*
X178500768Y-74430466D01*
X178500768Y-74430466D02*
X178466902Y-74532066D01*
X178466902Y-74532066D02*
X178399168Y-74599800D01*
X178399168Y-74599800D02*
X178331435Y-74633666D01*
X178331435Y-74633666D02*
X178195968Y-74667533D01*
X178195968Y-74667533D02*
X178094368Y-74667533D01*
X178094368Y-74667533D02*
X177958902Y-74633666D01*
X177958902Y-74633666D02*
X177891168Y-74599800D01*
X177891168Y-74599800D02*
X177823435Y-74532066D01*
X177823435Y-74532066D02*
X177789568Y-74430466D01*
X177789568Y-74430466D02*
X177789568Y-74362733D01*
X177789568Y-74362733D02*
X177823435Y-74261133D01*
X177823435Y-74261133D02*
X177857302Y-74227266D01*
X177789568Y-73719266D02*
X178297568Y-73719266D01*
X178297568Y-73719266D02*
X178399168Y-73753133D01*
X178399168Y-73753133D02*
X178466902Y-73820866D01*
X178466902Y-73820866D02*
X178500768Y-73922466D01*
X178500768Y-73922466D02*
X178500768Y-73990200D01*
X178500768Y-73041933D02*
X178500768Y-73380599D01*
X178500768Y-73380599D02*
X177789568Y-73380599D01*
X178433035Y-72398466D02*
X178466902Y-72432333D01*
X178466902Y-72432333D02*
X178500768Y-72533933D01*
X178500768Y-72533933D02*
X178500768Y-72601666D01*
X178500768Y-72601666D02*
X178466902Y-72703266D01*
X178466902Y-72703266D02*
X178399168Y-72771000D01*
X178399168Y-72771000D02*
X178331435Y-72804866D01*
X178331435Y-72804866D02*
X178195968Y-72838733D01*
X178195968Y-72838733D02*
X178094368Y-72838733D01*
X178094368Y-72838733D02*
X177958902Y-72804866D01*
X177958902Y-72804866D02*
X177891168Y-72771000D01*
X177891168Y-72771000D02*
X177823435Y-72703266D01*
X177823435Y-72703266D02*
X177789568Y-72601666D01*
X177789568Y-72601666D02*
X177789568Y-72533933D01*
X177789568Y-72533933D02*
X177823435Y-72432333D01*
X177823435Y-72432333D02*
X177857302Y-72398466D01*
X177789568Y-71890466D02*
X178297568Y-71890466D01*
X178297568Y-71890466D02*
X178399168Y-71924333D01*
X178399168Y-71924333D02*
X178466902Y-71992066D01*
X178466902Y-71992066D02*
X178500768Y-72093666D01*
X178500768Y-72093666D02*
X178500768Y-72161400D01*
X178500768Y-71213133D02*
X178500768Y-71551799D01*
X178500768Y-71551799D02*
X177789568Y-71551799D01*
X178433035Y-70569666D02*
X178466902Y-70603533D01*
X178466902Y-70603533D02*
X178500768Y-70705133D01*
X178500768Y-70705133D02*
X178500768Y-70772866D01*
X178500768Y-70772866D02*
X178466902Y-70874466D01*
X178466902Y-70874466D02*
X178399168Y-70942200D01*
X178399168Y-70942200D02*
X178331435Y-70976066D01*
X178331435Y-70976066D02*
X178195968Y-71009933D01*
X178195968Y-71009933D02*
X178094368Y-71009933D01*
X178094368Y-71009933D02*
X177958902Y-70976066D01*
X177958902Y-70976066D02*
X177891168Y-70942200D01*
X177891168Y-70942200D02*
X177823435Y-70874466D01*
X177823435Y-70874466D02*
X177789568Y-70772866D01*
X177789568Y-70772866D02*
X177789568Y-70705133D01*
X177789568Y-70705133D02*
X177823435Y-70603533D01*
X177823435Y-70603533D02*
X177857302Y-70569666D01*
X177789568Y-70061666D02*
X178297568Y-70061666D01*
X178297568Y-70061666D02*
X178399168Y-70095533D01*
X178399168Y-70095533D02*
X178466902Y-70163266D01*
X178466902Y-70163266D02*
X178500768Y-70264866D01*
X178500768Y-70264866D02*
X178500768Y-70332600D01*
X178500768Y-69384333D02*
X178500768Y-69722999D01*
X178500768Y-69722999D02*
X177789568Y-69722999D01*
X178433035Y-68740866D02*
X178466902Y-68774733D01*
X178466902Y-68774733D02*
X178500768Y-68876333D01*
X178500768Y-68876333D02*
X178500768Y-68944066D01*
X178500768Y-68944066D02*
X178466902Y-69045666D01*
X178466902Y-69045666D02*
X178399168Y-69113400D01*
X178399168Y-69113400D02*
X178331435Y-69147266D01*
X178331435Y-69147266D02*
X178195968Y-69181133D01*
X178195968Y-69181133D02*
X178094368Y-69181133D01*
X178094368Y-69181133D02*
X177958902Y-69147266D01*
X177958902Y-69147266D02*
X177891168Y-69113400D01*
X177891168Y-69113400D02*
X177823435Y-69045666D01*
X177823435Y-69045666D02*
X177789568Y-68944066D01*
X177789568Y-68944066D02*
X177789568Y-68876333D01*
X177789568Y-68876333D02*
X177823435Y-68774733D01*
X177823435Y-68774733D02*
X177857302Y-68740866D01*
D12*
X169229822Y-106828485D02*
X169157250Y-106973628D01*
X169157250Y-106973628D02*
X169012108Y-107118771D01*
X169012108Y-107118771D02*
X168794393Y-107336485D01*
X168794393Y-107336485D02*
X168721822Y-107481628D01*
X168721822Y-107481628D02*
X168721822Y-107626771D01*
X169084679Y-107554200D02*
X169012108Y-107699343D01*
X169012108Y-107699343D02*
X168866965Y-107844485D01*
X168866965Y-107844485D02*
X168576679Y-107917057D01*
X168576679Y-107917057D02*
X168068679Y-107917057D01*
X168068679Y-107917057D02*
X167778393Y-107844485D01*
X167778393Y-107844485D02*
X167633250Y-107699343D01*
X167633250Y-107699343D02*
X167560679Y-107554200D01*
X167560679Y-107554200D02*
X167560679Y-107263914D01*
X167560679Y-107263914D02*
X167633250Y-107118771D01*
X167633250Y-107118771D02*
X167778393Y-106973628D01*
X167778393Y-106973628D02*
X168068679Y-106901057D01*
X168068679Y-106901057D02*
X168576679Y-106901057D01*
X168576679Y-106901057D02*
X168866965Y-106973628D01*
X168866965Y-106973628D02*
X169012108Y-107118771D01*
X169012108Y-107118771D02*
X169084679Y-107263914D01*
X169084679Y-107263914D02*
X169084679Y-107554200D01*
X169084679Y-105449629D02*
X169084679Y-106320486D01*
X169084679Y-105885057D02*
X167560679Y-105885057D01*
X167560679Y-105885057D02*
X167778393Y-106030200D01*
X167778393Y-106030200D02*
X167923536Y-106175343D01*
X167923536Y-106175343D02*
X167996108Y-106320486D01*
D16*
X173428819Y-58332475D02*
X172428819Y-58332475D01*
X172428819Y-58332475D02*
X172428819Y-58094380D01*
X172428819Y-58094380D02*
X172476438Y-57951523D01*
X172476438Y-57951523D02*
X172571676Y-57856285D01*
X172571676Y-57856285D02*
X172666914Y-57808666D01*
X172666914Y-57808666D02*
X172857390Y-57761047D01*
X172857390Y-57761047D02*
X173000247Y-57761047D01*
X173000247Y-57761047D02*
X173190723Y-57808666D01*
X173190723Y-57808666D02*
X173285961Y-57856285D01*
X173285961Y-57856285D02*
X173381200Y-57951523D01*
X173381200Y-57951523D02*
X173428819Y-58094380D01*
X173428819Y-58094380D02*
X173428819Y-58332475D01*
X173428819Y-56808666D02*
X173428819Y-57380094D01*
X173428819Y-57094380D02*
X172428819Y-57094380D01*
X172428819Y-57094380D02*
X172571676Y-57189618D01*
X172571676Y-57189618D02*
X172666914Y-57284856D01*
X172666914Y-57284856D02*
X172714533Y-57380094D01*
X172428819Y-56189618D02*
X172428819Y-56094380D01*
X172428819Y-56094380D02*
X172476438Y-55999142D01*
X172476438Y-55999142D02*
X172524057Y-55951523D01*
X172524057Y-55951523D02*
X172619295Y-55903904D01*
X172619295Y-55903904D02*
X172809771Y-55856285D01*
X172809771Y-55856285D02*
X173047866Y-55856285D01*
X173047866Y-55856285D02*
X173238342Y-55903904D01*
X173238342Y-55903904D02*
X173333580Y-55951523D01*
X173333580Y-55951523D02*
X173381200Y-55999142D01*
X173381200Y-55999142D02*
X173428819Y-56094380D01*
X173428819Y-56094380D02*
X173428819Y-56189618D01*
X173428819Y-56189618D02*
X173381200Y-56284856D01*
X173381200Y-56284856D02*
X173333580Y-56332475D01*
X173333580Y-56332475D02*
X173238342Y-56380094D01*
X173238342Y-56380094D02*
X173047866Y-56427713D01*
X173047866Y-56427713D02*
X172809771Y-56427713D01*
X172809771Y-56427713D02*
X172619295Y-56380094D01*
X172619295Y-56380094D02*
X172524057Y-56332475D01*
X172524057Y-56332475D02*
X172476438Y-56284856D01*
X172476438Y-56284856D02*
X172428819Y-56189618D01*
X172428819Y-54951523D02*
X172428819Y-55427713D01*
X172428819Y-55427713D02*
X172905009Y-55475332D01*
X172905009Y-55475332D02*
X172857390Y-55427713D01*
X172857390Y-55427713D02*
X172809771Y-55332475D01*
X172809771Y-55332475D02*
X172809771Y-55094380D01*
X172809771Y-55094380D02*
X172857390Y-54999142D01*
X172857390Y-54999142D02*
X172905009Y-54951523D01*
X172905009Y-54951523D02*
X173000247Y-54903904D01*
X173000247Y-54903904D02*
X173238342Y-54903904D01*
X173238342Y-54903904D02*
X173333580Y-54951523D01*
X173333580Y-54951523D02*
X173381200Y-54999142D01*
X173381200Y-54999142D02*
X173428819Y-55094380D01*
X173428819Y-55094380D02*
X173428819Y-55332475D01*
X173428819Y-55332475D02*
X173381200Y-55427713D01*
X173381200Y-55427713D02*
X173333580Y-55475332D01*
X173784819Y-75740475D02*
X172784819Y-75740475D01*
X172784819Y-75740475D02*
X172784819Y-75502380D01*
X172784819Y-75502380D02*
X172832438Y-75359523D01*
X172832438Y-75359523D02*
X172927676Y-75264285D01*
X172927676Y-75264285D02*
X173022914Y-75216666D01*
X173022914Y-75216666D02*
X173213390Y-75169047D01*
X173213390Y-75169047D02*
X173356247Y-75169047D01*
X173356247Y-75169047D02*
X173546723Y-75216666D01*
X173546723Y-75216666D02*
X173641961Y-75264285D01*
X173641961Y-75264285D02*
X173737200Y-75359523D01*
X173737200Y-75359523D02*
X173784819Y-75502380D01*
X173784819Y-75502380D02*
X173784819Y-75740475D01*
X173784819Y-74216666D02*
X173784819Y-74788094D01*
X173784819Y-74502380D02*
X172784819Y-74502380D01*
X172784819Y-74502380D02*
X172927676Y-74597618D01*
X172927676Y-74597618D02*
X173022914Y-74692856D01*
X173022914Y-74692856D02*
X173070533Y-74788094D01*
X172784819Y-73597618D02*
X172784819Y-73502380D01*
X172784819Y-73502380D02*
X172832438Y-73407142D01*
X172832438Y-73407142D02*
X172880057Y-73359523D01*
X172880057Y-73359523D02*
X172975295Y-73311904D01*
X172975295Y-73311904D02*
X173165771Y-73264285D01*
X173165771Y-73264285D02*
X173403866Y-73264285D01*
X173403866Y-73264285D02*
X173594342Y-73311904D01*
X173594342Y-73311904D02*
X173689580Y-73359523D01*
X173689580Y-73359523D02*
X173737200Y-73407142D01*
X173737200Y-73407142D02*
X173784819Y-73502380D01*
X173784819Y-73502380D02*
X173784819Y-73597618D01*
X173784819Y-73597618D02*
X173737200Y-73692856D01*
X173737200Y-73692856D02*
X173689580Y-73740475D01*
X173689580Y-73740475D02*
X173594342Y-73788094D01*
X173594342Y-73788094D02*
X173403866Y-73835713D01*
X173403866Y-73835713D02*
X173165771Y-73835713D01*
X173165771Y-73835713D02*
X172975295Y-73788094D01*
X172975295Y-73788094D02*
X172880057Y-73740475D01*
X172880057Y-73740475D02*
X172832438Y-73692856D01*
X172832438Y-73692856D02*
X172784819Y-73597618D01*
X172784819Y-72407142D02*
X172784819Y-72597618D01*
X172784819Y-72597618D02*
X172832438Y-72692856D01*
X172832438Y-72692856D02*
X172880057Y-72740475D01*
X172880057Y-72740475D02*
X173022914Y-72835713D01*
X173022914Y-72835713D02*
X173213390Y-72883332D01*
X173213390Y-72883332D02*
X173594342Y-72883332D01*
X173594342Y-72883332D02*
X173689580Y-72835713D01*
X173689580Y-72835713D02*
X173737200Y-72788094D01*
X173737200Y-72788094D02*
X173784819Y-72692856D01*
X173784819Y-72692856D02*
X173784819Y-72502380D01*
X173784819Y-72502380D02*
X173737200Y-72407142D01*
X173737200Y-72407142D02*
X173689580Y-72359523D01*
X173689580Y-72359523D02*
X173594342Y-72311904D01*
X173594342Y-72311904D02*
X173356247Y-72311904D01*
X173356247Y-72311904D02*
X173261009Y-72359523D01*
X173261009Y-72359523D02*
X173213390Y-72407142D01*
X173213390Y-72407142D02*
X173165771Y-72502380D01*
X173165771Y-72502380D02*
X173165771Y-72692856D01*
X173165771Y-72692856D02*
X173213390Y-72788094D01*
X173213390Y-72788094D02*
X173261009Y-72835713D01*
X173261009Y-72835713D02*
X173356247Y-72883332D01*
X171913623Y-77227899D02*
X171913623Y-76227899D01*
X171913623Y-76227899D02*
X172151718Y-76227899D01*
X172151718Y-76227899D02*
X172294575Y-76275518D01*
X172294575Y-76275518D02*
X172389813Y-76370756D01*
X172389813Y-76370756D02*
X172437432Y-76465994D01*
X172437432Y-76465994D02*
X172485051Y-76656470D01*
X172485051Y-76656470D02*
X172485051Y-76799327D01*
X172485051Y-76799327D02*
X172437432Y-76989803D01*
X172437432Y-76989803D02*
X172389813Y-77085041D01*
X172389813Y-77085041D02*
X172294575Y-77180280D01*
X172294575Y-77180280D02*
X172151718Y-77227899D01*
X172151718Y-77227899D02*
X171913623Y-77227899D01*
X173437432Y-77227899D02*
X172866004Y-77227899D01*
X173151718Y-77227899D02*
X173151718Y-76227899D01*
X173151718Y-76227899D02*
X173056480Y-76370756D01*
X173056480Y-76370756D02*
X172961242Y-76465994D01*
X172961242Y-76465994D02*
X172866004Y-76513613D01*
X174056480Y-76227899D02*
X174151718Y-76227899D01*
X174151718Y-76227899D02*
X174246956Y-76275518D01*
X174246956Y-76275518D02*
X174294575Y-76323137D01*
X174294575Y-76323137D02*
X174342194Y-76418375D01*
X174342194Y-76418375D02*
X174389813Y-76608851D01*
X174389813Y-76608851D02*
X174389813Y-76846946D01*
X174389813Y-76846946D02*
X174342194Y-77037422D01*
X174342194Y-77037422D02*
X174294575Y-77132660D01*
X174294575Y-77132660D02*
X174246956Y-77180280D01*
X174246956Y-77180280D02*
X174151718Y-77227899D01*
X174151718Y-77227899D02*
X174056480Y-77227899D01*
X174056480Y-77227899D02*
X173961242Y-77180280D01*
X173961242Y-77180280D02*
X173913623Y-77132660D01*
X173913623Y-77132660D02*
X173866004Y-77037422D01*
X173866004Y-77037422D02*
X173818385Y-76846946D01*
X173818385Y-76846946D02*
X173818385Y-76608851D01*
X173818385Y-76608851D02*
X173866004Y-76418375D01*
X173866004Y-76418375D02*
X173913623Y-76323137D01*
X173913623Y-76323137D02*
X173961242Y-76275518D01*
X173961242Y-76275518D02*
X174056480Y-76227899D01*
X175342194Y-77227899D02*
X174770766Y-77227899D01*
X175056480Y-77227899D02*
X175056480Y-76227899D01*
X175056480Y-76227899D02*
X174961242Y-76370756D01*
X174961242Y-76370756D02*
X174866004Y-76465994D01*
X174866004Y-76465994D02*
X174770766Y-76513613D01*
X176109524Y-100149819D02*
X176109524Y-99149819D01*
X176109524Y-99149819D02*
X176347619Y-99149819D01*
X176347619Y-99149819D02*
X176490476Y-99197438D01*
X176490476Y-99197438D02*
X176585714Y-99292676D01*
X176585714Y-99292676D02*
X176633333Y-99387914D01*
X176633333Y-99387914D02*
X176680952Y-99578390D01*
X176680952Y-99578390D02*
X176680952Y-99721247D01*
X176680952Y-99721247D02*
X176633333Y-99911723D01*
X176633333Y-99911723D02*
X176585714Y-100006961D01*
X176585714Y-100006961D02*
X176490476Y-100102200D01*
X176490476Y-100102200D02*
X176347619Y-100149819D01*
X176347619Y-100149819D02*
X176109524Y-100149819D01*
X177633333Y-100149819D02*
X177061905Y-100149819D01*
X177347619Y-100149819D02*
X177347619Y-99149819D01*
X177347619Y-99149819D02*
X177252381Y-99292676D01*
X177252381Y-99292676D02*
X177157143Y-99387914D01*
X177157143Y-99387914D02*
X177061905Y-99435533D01*
X178252381Y-99149819D02*
X178347619Y-99149819D01*
X178347619Y-99149819D02*
X178442857Y-99197438D01*
X178442857Y-99197438D02*
X178490476Y-99245057D01*
X178490476Y-99245057D02*
X178538095Y-99340295D01*
X178538095Y-99340295D02*
X178585714Y-99530771D01*
X178585714Y-99530771D02*
X178585714Y-99768866D01*
X178585714Y-99768866D02*
X178538095Y-99959342D01*
X178538095Y-99959342D02*
X178490476Y-100054580D01*
X178490476Y-100054580D02*
X178442857Y-100102200D01*
X178442857Y-100102200D02*
X178347619Y-100149819D01*
X178347619Y-100149819D02*
X178252381Y-100149819D01*
X178252381Y-100149819D02*
X178157143Y-100102200D01*
X178157143Y-100102200D02*
X178109524Y-100054580D01*
X178109524Y-100054580D02*
X178061905Y-99959342D01*
X178061905Y-99959342D02*
X178014286Y-99768866D01*
X178014286Y-99768866D02*
X178014286Y-99530771D01*
X178014286Y-99530771D02*
X178061905Y-99340295D01*
X178061905Y-99340295D02*
X178109524Y-99245057D01*
X178109524Y-99245057D02*
X178157143Y-99197438D01*
X178157143Y-99197438D02*
X178252381Y-99149819D01*
X179442857Y-99483152D02*
X179442857Y-100149819D01*
X179204762Y-99102200D02*
X178966667Y-99816485D01*
X178966667Y-99816485D02*
X179585714Y-99816485D01*
X173301819Y-87161475D02*
X172301819Y-87161475D01*
X172301819Y-87161475D02*
X172301819Y-86923380D01*
X172301819Y-86923380D02*
X172349438Y-86780523D01*
X172349438Y-86780523D02*
X172444676Y-86685285D01*
X172444676Y-86685285D02*
X172539914Y-86637666D01*
X172539914Y-86637666D02*
X172730390Y-86590047D01*
X172730390Y-86590047D02*
X172873247Y-86590047D01*
X172873247Y-86590047D02*
X173063723Y-86637666D01*
X173063723Y-86637666D02*
X173158961Y-86685285D01*
X173158961Y-86685285D02*
X173254200Y-86780523D01*
X173254200Y-86780523D02*
X173301819Y-86923380D01*
X173301819Y-86923380D02*
X173301819Y-87161475D01*
X173301819Y-85637666D02*
X173301819Y-86209094D01*
X173301819Y-85923380D02*
X172301819Y-85923380D01*
X172301819Y-85923380D02*
X172444676Y-86018618D01*
X172444676Y-86018618D02*
X172539914Y-86113856D01*
X172539914Y-86113856D02*
X172587533Y-86209094D01*
X172301819Y-85018618D02*
X172301819Y-84923380D01*
X172301819Y-84923380D02*
X172349438Y-84828142D01*
X172349438Y-84828142D02*
X172397057Y-84780523D01*
X172397057Y-84780523D02*
X172492295Y-84732904D01*
X172492295Y-84732904D02*
X172682771Y-84685285D01*
X172682771Y-84685285D02*
X172920866Y-84685285D01*
X172920866Y-84685285D02*
X173111342Y-84732904D01*
X173111342Y-84732904D02*
X173206580Y-84780523D01*
X173206580Y-84780523D02*
X173254200Y-84828142D01*
X173254200Y-84828142D02*
X173301819Y-84923380D01*
X173301819Y-84923380D02*
X173301819Y-85018618D01*
X173301819Y-85018618D02*
X173254200Y-85113856D01*
X173254200Y-85113856D02*
X173206580Y-85161475D01*
X173206580Y-85161475D02*
X173111342Y-85209094D01*
X173111342Y-85209094D02*
X172920866Y-85256713D01*
X172920866Y-85256713D02*
X172682771Y-85256713D01*
X172682771Y-85256713D02*
X172492295Y-85209094D01*
X172492295Y-85209094D02*
X172397057Y-85161475D01*
X172397057Y-85161475D02*
X172349438Y-85113856D01*
X172349438Y-85113856D02*
X172301819Y-85018618D01*
X172730390Y-84113856D02*
X172682771Y-84209094D01*
X172682771Y-84209094D02*
X172635152Y-84256713D01*
X172635152Y-84256713D02*
X172539914Y-84304332D01*
X172539914Y-84304332D02*
X172492295Y-84304332D01*
X172492295Y-84304332D02*
X172397057Y-84256713D01*
X172397057Y-84256713D02*
X172349438Y-84209094D01*
X172349438Y-84209094D02*
X172301819Y-84113856D01*
X172301819Y-84113856D02*
X172301819Y-83923380D01*
X172301819Y-83923380D02*
X172349438Y-83828142D01*
X172349438Y-83828142D02*
X172397057Y-83780523D01*
X172397057Y-83780523D02*
X172492295Y-83732904D01*
X172492295Y-83732904D02*
X172539914Y-83732904D01*
X172539914Y-83732904D02*
X172635152Y-83780523D01*
X172635152Y-83780523D02*
X172682771Y-83828142D01*
X172682771Y-83828142D02*
X172730390Y-83923380D01*
X172730390Y-83923380D02*
X172730390Y-84113856D01*
X172730390Y-84113856D02*
X172778009Y-84209094D01*
X172778009Y-84209094D02*
X172825628Y-84256713D01*
X172825628Y-84256713D02*
X172920866Y-84304332D01*
X172920866Y-84304332D02*
X173111342Y-84304332D01*
X173111342Y-84304332D02*
X173206580Y-84256713D01*
X173206580Y-84256713D02*
X173254200Y-84209094D01*
X173254200Y-84209094D02*
X173301819Y-84113856D01*
X173301819Y-84113856D02*
X173301819Y-83923380D01*
X173301819Y-83923380D02*
X173254200Y-83828142D01*
X173254200Y-83828142D02*
X173206580Y-83780523D01*
X173206580Y-83780523D02*
X173111342Y-83732904D01*
X173111342Y-83732904D02*
X172920866Y-83732904D01*
X172920866Y-83732904D02*
X172825628Y-83780523D01*
X172825628Y-83780523D02*
X172778009Y-83828142D01*
X172778009Y-83828142D02*
X172730390Y-83923380D01*
D17*
X177872650Y-87357856D02*
X178779793Y-87357856D01*
X178779793Y-87357856D02*
X178961221Y-87418333D01*
X178961221Y-87418333D02*
X179082174Y-87539285D01*
X179082174Y-87539285D02*
X179142650Y-87720714D01*
X179142650Y-87720714D02*
X179142650Y-87841666D01*
X179142650Y-86087856D02*
X179142650Y-86813571D01*
X179142650Y-86450714D02*
X177872650Y-86450714D01*
X177872650Y-86450714D02*
X178054078Y-86571666D01*
X178054078Y-86571666D02*
X178175031Y-86692618D01*
X178175031Y-86692618D02*
X178235507Y-86813571D01*
X179142650Y-84878332D02*
X179142650Y-85604047D01*
X179142650Y-85241190D02*
X177872650Y-85241190D01*
X177872650Y-85241190D02*
X178054078Y-85362142D01*
X178054078Y-85362142D02*
X178175031Y-85483094D01*
X178175031Y-85483094D02*
X178235507Y-85604047D01*
X178416935Y-84152618D02*
X178356459Y-84273570D01*
X178356459Y-84273570D02*
X178295983Y-84334047D01*
X178295983Y-84334047D02*
X178175031Y-84394523D01*
X178175031Y-84394523D02*
X178114554Y-84394523D01*
X178114554Y-84394523D02*
X177993602Y-84334047D01*
X177993602Y-84334047D02*
X177933126Y-84273570D01*
X177933126Y-84273570D02*
X177872650Y-84152618D01*
X177872650Y-84152618D02*
X177872650Y-83910713D01*
X177872650Y-83910713D02*
X177933126Y-83789761D01*
X177933126Y-83789761D02*
X177993602Y-83729285D01*
X177993602Y-83729285D02*
X178114554Y-83668808D01*
X178114554Y-83668808D02*
X178175031Y-83668808D01*
X178175031Y-83668808D02*
X178295983Y-83729285D01*
X178295983Y-83729285D02*
X178356459Y-83789761D01*
X178356459Y-83789761D02*
X178416935Y-83910713D01*
X178416935Y-83910713D02*
X178416935Y-84152618D01*
X178416935Y-84152618D02*
X178477412Y-84273570D01*
X178477412Y-84273570D02*
X178537888Y-84334047D01*
X178537888Y-84334047D02*
X178658840Y-84394523D01*
X178658840Y-84394523D02*
X178900745Y-84394523D01*
X178900745Y-84394523D02*
X179021697Y-84334047D01*
X179021697Y-84334047D02*
X179082174Y-84273570D01*
X179082174Y-84273570D02*
X179142650Y-84152618D01*
X179142650Y-84152618D02*
X179142650Y-83910713D01*
X179142650Y-83910713D02*
X179082174Y-83789761D01*
X179082174Y-83789761D02*
X179021697Y-83729285D01*
X179021697Y-83729285D02*
X178900745Y-83668808D01*
X178900745Y-83668808D02*
X178658840Y-83668808D01*
X178658840Y-83668808D02*
X178537888Y-83729285D01*
X178537888Y-83729285D02*
X178477412Y-83789761D01*
X178477412Y-83789761D02*
X178416935Y-83910713D01*
D16*
X174190819Y-105322475D02*
X173190819Y-105322475D01*
X173190819Y-105322475D02*
X173190819Y-105084380D01*
X173190819Y-105084380D02*
X173238438Y-104941523D01*
X173238438Y-104941523D02*
X173333676Y-104846285D01*
X173333676Y-104846285D02*
X173428914Y-104798666D01*
X173428914Y-104798666D02*
X173619390Y-104751047D01*
X173619390Y-104751047D02*
X173762247Y-104751047D01*
X173762247Y-104751047D02*
X173952723Y-104798666D01*
X173952723Y-104798666D02*
X174047961Y-104846285D01*
X174047961Y-104846285D02*
X174143200Y-104941523D01*
X174143200Y-104941523D02*
X174190819Y-105084380D01*
X174190819Y-105084380D02*
X174190819Y-105322475D01*
X174190819Y-103798666D02*
X174190819Y-104370094D01*
X174190819Y-104084380D02*
X173190819Y-104084380D01*
X173190819Y-104084380D02*
X173333676Y-104179618D01*
X173333676Y-104179618D02*
X173428914Y-104274856D01*
X173428914Y-104274856D02*
X173476533Y-104370094D01*
X173190819Y-103179618D02*
X173190819Y-103084380D01*
X173190819Y-103084380D02*
X173238438Y-102989142D01*
X173238438Y-102989142D02*
X173286057Y-102941523D01*
X173286057Y-102941523D02*
X173381295Y-102893904D01*
X173381295Y-102893904D02*
X173571771Y-102846285D01*
X173571771Y-102846285D02*
X173809866Y-102846285D01*
X173809866Y-102846285D02*
X174000342Y-102893904D01*
X174000342Y-102893904D02*
X174095580Y-102941523D01*
X174095580Y-102941523D02*
X174143200Y-102989142D01*
X174143200Y-102989142D02*
X174190819Y-103084380D01*
X174190819Y-103084380D02*
X174190819Y-103179618D01*
X174190819Y-103179618D02*
X174143200Y-103274856D01*
X174143200Y-103274856D02*
X174095580Y-103322475D01*
X174095580Y-103322475D02*
X174000342Y-103370094D01*
X174000342Y-103370094D02*
X173809866Y-103417713D01*
X173809866Y-103417713D02*
X173571771Y-103417713D01*
X173571771Y-103417713D02*
X173381295Y-103370094D01*
X173381295Y-103370094D02*
X173286057Y-103322475D01*
X173286057Y-103322475D02*
X173238438Y-103274856D01*
X173238438Y-103274856D02*
X173190819Y-103179618D01*
X173190819Y-102512951D02*
X173190819Y-101846285D01*
X173190819Y-101846285D02*
X174190819Y-102274856D01*
D17*
X172852984Y-71355856D02*
X173760127Y-71355856D01*
X173760127Y-71355856D02*
X173941555Y-71416333D01*
X173941555Y-71416333D02*
X174062508Y-71537285D01*
X174062508Y-71537285D02*
X174122984Y-71718714D01*
X174122984Y-71718714D02*
X174122984Y-71839666D01*
X174122984Y-70085856D02*
X174122984Y-70811571D01*
X174122984Y-70448714D02*
X172852984Y-70448714D01*
X172852984Y-70448714D02*
X173034412Y-70569666D01*
X173034412Y-70569666D02*
X173155365Y-70690618D01*
X173155365Y-70690618D02*
X173215841Y-70811571D01*
X172973936Y-69602047D02*
X172913460Y-69541571D01*
X172913460Y-69541571D02*
X172852984Y-69420618D01*
X172852984Y-69420618D02*
X172852984Y-69118237D01*
X172852984Y-69118237D02*
X172913460Y-68997285D01*
X172913460Y-68997285D02*
X172973936Y-68936809D01*
X172973936Y-68936809D02*
X173094888Y-68876332D01*
X173094888Y-68876332D02*
X173215841Y-68876332D01*
X173215841Y-68876332D02*
X173397269Y-68936809D01*
X173397269Y-68936809D02*
X174122984Y-69662523D01*
X174122984Y-69662523D02*
X174122984Y-68876332D01*
X172852984Y-68090142D02*
X172852984Y-67969189D01*
X172852984Y-67969189D02*
X172913460Y-67848237D01*
X172913460Y-67848237D02*
X172973936Y-67787761D01*
X172973936Y-67787761D02*
X173094888Y-67727285D01*
X173094888Y-67727285D02*
X173336793Y-67666808D01*
X173336793Y-67666808D02*
X173639174Y-67666808D01*
X173639174Y-67666808D02*
X173881079Y-67727285D01*
X173881079Y-67727285D02*
X174002031Y-67787761D01*
X174002031Y-67787761D02*
X174062508Y-67848237D01*
X174062508Y-67848237D02*
X174122984Y-67969189D01*
X174122984Y-67969189D02*
X174122984Y-68090142D01*
X174122984Y-68090142D02*
X174062508Y-68211094D01*
X174062508Y-68211094D02*
X174002031Y-68271570D01*
X174002031Y-68271570D02*
X173881079Y-68332047D01*
X173881079Y-68332047D02*
X173639174Y-68392523D01*
X173639174Y-68392523D02*
X173336793Y-68392523D01*
X173336793Y-68392523D02*
X173094888Y-68332047D01*
X173094888Y-68332047D02*
X172973936Y-68271570D01*
X172973936Y-68271570D02*
X172913460Y-68211094D01*
X172913460Y-68211094D02*
X172852984Y-68090142D01*
D16*
X173301819Y-92622475D02*
X172301819Y-92622475D01*
X172301819Y-92622475D02*
X172301819Y-92384380D01*
X172301819Y-92384380D02*
X172349438Y-92241523D01*
X172349438Y-92241523D02*
X172444676Y-92146285D01*
X172444676Y-92146285D02*
X172539914Y-92098666D01*
X172539914Y-92098666D02*
X172730390Y-92051047D01*
X172730390Y-92051047D02*
X172873247Y-92051047D01*
X172873247Y-92051047D02*
X173063723Y-92098666D01*
X173063723Y-92098666D02*
X173158961Y-92146285D01*
X173158961Y-92146285D02*
X173254200Y-92241523D01*
X173254200Y-92241523D02*
X173301819Y-92384380D01*
X173301819Y-92384380D02*
X173301819Y-92622475D01*
X173301819Y-91098666D02*
X173301819Y-91670094D01*
X173301819Y-91384380D02*
X172301819Y-91384380D01*
X172301819Y-91384380D02*
X172444676Y-91479618D01*
X172444676Y-91479618D02*
X172539914Y-91574856D01*
X172539914Y-91574856D02*
X172587533Y-91670094D01*
X172301819Y-90479618D02*
X172301819Y-90384380D01*
X172301819Y-90384380D02*
X172349438Y-90289142D01*
X172349438Y-90289142D02*
X172397057Y-90241523D01*
X172397057Y-90241523D02*
X172492295Y-90193904D01*
X172492295Y-90193904D02*
X172682771Y-90146285D01*
X172682771Y-90146285D02*
X172920866Y-90146285D01*
X172920866Y-90146285D02*
X173111342Y-90193904D01*
X173111342Y-90193904D02*
X173206580Y-90241523D01*
X173206580Y-90241523D02*
X173254200Y-90289142D01*
X173254200Y-90289142D02*
X173301819Y-90384380D01*
X173301819Y-90384380D02*
X173301819Y-90479618D01*
X173301819Y-90479618D02*
X173254200Y-90574856D01*
X173254200Y-90574856D02*
X173206580Y-90622475D01*
X173206580Y-90622475D02*
X173111342Y-90670094D01*
X173111342Y-90670094D02*
X172920866Y-90717713D01*
X172920866Y-90717713D02*
X172682771Y-90717713D01*
X172682771Y-90717713D02*
X172492295Y-90670094D01*
X172492295Y-90670094D02*
X172397057Y-90622475D01*
X172397057Y-90622475D02*
X172349438Y-90574856D01*
X172349438Y-90574856D02*
X172301819Y-90479618D01*
X172301819Y-89812951D02*
X172301819Y-89193904D01*
X172301819Y-89193904D02*
X172682771Y-89527237D01*
X172682771Y-89527237D02*
X172682771Y-89384380D01*
X172682771Y-89384380D02*
X172730390Y-89289142D01*
X172730390Y-89289142D02*
X172778009Y-89241523D01*
X172778009Y-89241523D02*
X172873247Y-89193904D01*
X172873247Y-89193904D02*
X173111342Y-89193904D01*
X173111342Y-89193904D02*
X173206580Y-89241523D01*
X173206580Y-89241523D02*
X173254200Y-89289142D01*
X173254200Y-89289142D02*
X173301819Y-89384380D01*
X173301819Y-89384380D02*
X173301819Y-89670094D01*
X173301819Y-89670094D02*
X173254200Y-89765332D01*
X173254200Y-89765332D02*
X173206580Y-89812951D01*
X173950524Y-61414819D02*
X173950524Y-60414819D01*
X173950524Y-60414819D02*
X174188619Y-60414819D01*
X174188619Y-60414819D02*
X174331476Y-60462438D01*
X174331476Y-60462438D02*
X174426714Y-60557676D01*
X174426714Y-60557676D02*
X174474333Y-60652914D01*
X174474333Y-60652914D02*
X174521952Y-60843390D01*
X174521952Y-60843390D02*
X174521952Y-60986247D01*
X174521952Y-60986247D02*
X174474333Y-61176723D01*
X174474333Y-61176723D02*
X174426714Y-61271961D01*
X174426714Y-61271961D02*
X174331476Y-61367200D01*
X174331476Y-61367200D02*
X174188619Y-61414819D01*
X174188619Y-61414819D02*
X173950524Y-61414819D01*
X175474333Y-61414819D02*
X174902905Y-61414819D01*
X175188619Y-61414819D02*
X175188619Y-60414819D01*
X175188619Y-60414819D02*
X175093381Y-60557676D01*
X175093381Y-60557676D02*
X174998143Y-60652914D01*
X174998143Y-60652914D02*
X174902905Y-60700533D01*
X176093381Y-60414819D02*
X176188619Y-60414819D01*
X176188619Y-60414819D02*
X176283857Y-60462438D01*
X176283857Y-60462438D02*
X176331476Y-60510057D01*
X176331476Y-60510057D02*
X176379095Y-60605295D01*
X176379095Y-60605295D02*
X176426714Y-60795771D01*
X176426714Y-60795771D02*
X176426714Y-61033866D01*
X176426714Y-61033866D02*
X176379095Y-61224342D01*
X176379095Y-61224342D02*
X176331476Y-61319580D01*
X176331476Y-61319580D02*
X176283857Y-61367200D01*
X176283857Y-61367200D02*
X176188619Y-61414819D01*
X176188619Y-61414819D02*
X176093381Y-61414819D01*
X176093381Y-61414819D02*
X175998143Y-61367200D01*
X175998143Y-61367200D02*
X175950524Y-61319580D01*
X175950524Y-61319580D02*
X175902905Y-61224342D01*
X175902905Y-61224342D02*
X175855286Y-61033866D01*
X175855286Y-61033866D02*
X175855286Y-60795771D01*
X175855286Y-60795771D02*
X175902905Y-60605295D01*
X175902905Y-60605295D02*
X175950524Y-60510057D01*
X175950524Y-60510057D02*
X175998143Y-60462438D01*
X175998143Y-60462438D02*
X176093381Y-60414819D01*
X176807667Y-60510057D02*
X176855286Y-60462438D01*
X176855286Y-60462438D02*
X176950524Y-60414819D01*
X176950524Y-60414819D02*
X177188619Y-60414819D01*
X177188619Y-60414819D02*
X177283857Y-60462438D01*
X177283857Y-60462438D02*
X177331476Y-60510057D01*
X177331476Y-60510057D02*
X177379095Y-60605295D01*
X177379095Y-60605295D02*
X177379095Y-60700533D01*
X177379095Y-60700533D02*
X177331476Y-60843390D01*
X177331476Y-60843390D02*
X176760048Y-61414819D01*
X176760048Y-61414819D02*
X177379095Y-61414819D01*
D17*
X173032318Y-110188856D02*
X173939461Y-110188856D01*
X173939461Y-110188856D02*
X174120889Y-110249333D01*
X174120889Y-110249333D02*
X174241842Y-110370285D01*
X174241842Y-110370285D02*
X174302318Y-110551714D01*
X174302318Y-110551714D02*
X174302318Y-110672666D01*
X174302318Y-108918856D02*
X174302318Y-109644571D01*
X174302318Y-109281714D02*
X173032318Y-109281714D01*
X173032318Y-109281714D02*
X173213746Y-109402666D01*
X173213746Y-109402666D02*
X173334699Y-109523618D01*
X173334699Y-109523618D02*
X173395175Y-109644571D01*
X174302318Y-107709332D02*
X174302318Y-108435047D01*
X174302318Y-108072190D02*
X173032318Y-108072190D01*
X173032318Y-108072190D02*
X173213746Y-108193142D01*
X173213746Y-108193142D02*
X173334699Y-108314094D01*
X173334699Y-108314094D02*
X173395175Y-108435047D01*
X173032318Y-107285999D02*
X173032318Y-106439332D01*
X173032318Y-106439332D02*
X174302318Y-106983618D01*
X177545652Y-55734856D02*
X178452795Y-55734856D01*
X178452795Y-55734856D02*
X178634223Y-55795333D01*
X178634223Y-55795333D02*
X178755176Y-55916285D01*
X178755176Y-55916285D02*
X178815652Y-56097714D01*
X178815652Y-56097714D02*
X178815652Y-56218666D01*
X178815652Y-54464856D02*
X178815652Y-55190571D01*
X178815652Y-54827714D02*
X177545652Y-54827714D01*
X177545652Y-54827714D02*
X177727080Y-54948666D01*
X177727080Y-54948666D02*
X177848033Y-55069618D01*
X177848033Y-55069618D02*
X177908509Y-55190571D01*
X178815652Y-53255332D02*
X178815652Y-53981047D01*
X178815652Y-53618190D02*
X177545652Y-53618190D01*
X177545652Y-53618190D02*
X177727080Y-53739142D01*
X177727080Y-53739142D02*
X177848033Y-53860094D01*
X177848033Y-53860094D02*
X177908509Y-53981047D01*
X178815652Y-52650570D02*
X178815652Y-52408666D01*
X178815652Y-52408666D02*
X178755176Y-52287713D01*
X178755176Y-52287713D02*
X178694699Y-52227237D01*
X178694699Y-52227237D02*
X178513271Y-52106285D01*
X178513271Y-52106285D02*
X178271366Y-52045808D01*
X178271366Y-52045808D02*
X177787556Y-52045808D01*
X177787556Y-52045808D02*
X177666604Y-52106285D01*
X177666604Y-52106285D02*
X177606128Y-52166761D01*
X177606128Y-52166761D02*
X177545652Y-52287713D01*
X177545652Y-52287713D02*
X177545652Y-52529618D01*
X177545652Y-52529618D02*
X177606128Y-52650570D01*
X177606128Y-52650570D02*
X177666604Y-52711047D01*
X177666604Y-52711047D02*
X177787556Y-52771523D01*
X177787556Y-52771523D02*
X178089937Y-52771523D01*
X178089937Y-52771523D02*
X178210890Y-52711047D01*
X178210890Y-52711047D02*
X178271366Y-52650570D01*
X178271366Y-52650570D02*
X178331842Y-52529618D01*
X178331842Y-52529618D02*
X178331842Y-52287713D01*
X178331842Y-52287713D02*
X178271366Y-52166761D01*
X178271366Y-52166761D02*
X178210890Y-52106285D01*
X178210890Y-52106285D02*
X178089937Y-52045808D01*
D16*
X174434285Y-44504819D02*
X174434285Y-45219104D01*
X174434285Y-45219104D02*
X174386666Y-45361961D01*
X174386666Y-45361961D02*
X174291428Y-45457200D01*
X174291428Y-45457200D02*
X174148571Y-45504819D01*
X174148571Y-45504819D02*
X174053333Y-45504819D01*
X175434285Y-45504819D02*
X174862857Y-45504819D01*
X175148571Y-45504819D02*
X175148571Y-44504819D01*
X175148571Y-44504819D02*
X175053333Y-44647676D01*
X175053333Y-44647676D02*
X174958095Y-44742914D01*
X174958095Y-44742914D02*
X174862857Y-44790533D01*
X175815238Y-44600057D02*
X175862857Y-44552438D01*
X175862857Y-44552438D02*
X175958095Y-44504819D01*
X175958095Y-44504819D02*
X176196190Y-44504819D01*
X176196190Y-44504819D02*
X176291428Y-44552438D01*
X176291428Y-44552438D02*
X176339047Y-44600057D01*
X176339047Y-44600057D02*
X176386666Y-44695295D01*
X176386666Y-44695295D02*
X176386666Y-44790533D01*
X176386666Y-44790533D02*
X176339047Y-44933390D01*
X176339047Y-44933390D02*
X175767619Y-45504819D01*
X175767619Y-45504819D02*
X176386666Y-45504819D01*
X176767619Y-44600057D02*
X176815238Y-44552438D01*
X176815238Y-44552438D02*
X176910476Y-44504819D01*
X176910476Y-44504819D02*
X177148571Y-44504819D01*
X177148571Y-44504819D02*
X177243809Y-44552438D01*
X177243809Y-44552438D02*
X177291428Y-44600057D01*
X177291428Y-44600057D02*
X177339047Y-44695295D01*
X177339047Y-44695295D02*
X177339047Y-44790533D01*
X177339047Y-44790533D02*
X177291428Y-44933390D01*
X177291428Y-44933390D02*
X176720000Y-45504819D01*
X176720000Y-45504819D02*
X177339047Y-45504819D01*
D18*
%TO.C,JP101*%
X168500000Y-97400000D02*
X167900000Y-97400000D01*
X167200000Y-96700000D02*
X167200000Y-93900000D01*
X169200000Y-93900000D02*
X169200000Y-96700000D01*
X167900000Y-93200000D02*
X168500000Y-93200000D01*
X167200000Y-96700000D02*
G75*
G03*
X167900000Y-97400000I700001J1D01*
G01*
X168500000Y-97400000D02*
G75*
G03*
X169200000Y-96700000I-1J700001D01*
G01*
X167900000Y-93200000D02*
G75*
G03*
X167200000Y-93900000I0J-700000D01*
G01*
X169200000Y-93900000D02*
G75*
G03*
X168500000Y-93200000I-700000J0D01*
G01*
%TO.C,D105*%
X167311369Y-57477849D02*
X167311369Y-59152849D01*
X167311369Y-57477849D02*
X167311369Y-56827849D01*
X170431369Y-57477849D02*
X170431369Y-58127849D01*
X170431369Y-57477849D02*
X170431369Y-56827849D01*
%TO.C,D106*%
X167284000Y-72583000D02*
X167284000Y-74258000D01*
X167284000Y-72583000D02*
X167284000Y-71933000D01*
X170404000Y-72583000D02*
X170404000Y-73233000D01*
X170404000Y-72583000D02*
X170404000Y-71933000D01*
%TO.C,D101*%
X174193000Y-79518000D02*
X174193000Y-81518000D01*
X174193000Y-79518000D02*
X178053000Y-79518000D01*
X174193000Y-81518000D02*
X178053000Y-81518000D01*
%TO.C,D104*%
X179886000Y-97393000D02*
X179886000Y-95393000D01*
X179886000Y-97393000D02*
X176026000Y-97393000D01*
X179886000Y-95393000D02*
X176026000Y-95393000D01*
%TO.C,D108*%
X167284000Y-86868000D02*
X167284000Y-88543000D01*
X167284000Y-86868000D02*
X167284000Y-86218000D01*
X170404000Y-86868000D02*
X170404000Y-87518000D01*
X170404000Y-86868000D02*
X170404000Y-86218000D01*
D19*
%TO.C,J118*%
X171693000Y-93218000D02*
X171693000Y-83058000D01*
X179843000Y-93218000D02*
X171693000Y-93218000D01*
X171693000Y-83058000D02*
X179843000Y-83058000D01*
X179843000Y-83058000D02*
X179843000Y-93218000D01*
D20*
X175818000Y-94028000D02*
G75*
G03*
X175718000Y-94028000I-50000J0D01*
G01*
X175718000Y-94028000D02*
G75*
G03*
X175818000Y-94028000I50000J0D01*
G01*
D18*
%TO.C,D107*%
X167284000Y-103075500D02*
X167284000Y-104750500D01*
X167284000Y-103075500D02*
X167284000Y-102425500D01*
X170404000Y-103075500D02*
X170404000Y-103725500D01*
X170404000Y-103075500D02*
X170404000Y-102425500D01*
D19*
%TO.C,J120*%
X171693000Y-77470000D02*
X171693000Y-67310000D01*
X179843000Y-77470000D02*
X171693000Y-77470000D01*
X171693000Y-67310000D02*
X179843000Y-67310000D01*
X179843000Y-67310000D02*
X179843000Y-77470000D01*
D20*
X175818000Y-78280000D02*
G75*
G03*
X175718000Y-78280000I-50000J0D01*
G01*
X175718000Y-78280000D02*
G75*
G03*
X175818000Y-78280000I50000J0D01*
G01*
D18*
%TO.C,JP103*%
X168500000Y-67000000D02*
X167900000Y-67000000D01*
X167200000Y-66300000D02*
X167200000Y-63500000D01*
X169200000Y-63500000D02*
X169200000Y-66300000D01*
X167900000Y-62800000D02*
X168500000Y-62800000D01*
X167200000Y-66300000D02*
G75*
G03*
X167900000Y-67000000I700001J1D01*
G01*
X168500000Y-67000000D02*
G75*
G03*
X169200000Y-66300000I-1J700001D01*
G01*
X167900000Y-62800000D02*
G75*
G03*
X167200000Y-63500000I0J-700000D01*
G01*
X169200000Y-63500000D02*
G75*
G03*
X168500000Y-62800000I-700000J0D01*
G01*
%TO.C,D103*%
X170637000Y-95393000D02*
X170637000Y-97393000D01*
X170637000Y-95393000D02*
X174497000Y-95393000D01*
X170637000Y-97393000D02*
X174497000Y-97393000D01*
%TO.C,JP102*%
X168500000Y-82250000D02*
X167900000Y-82250000D01*
X167200000Y-81550000D02*
X167200000Y-78750000D01*
X169200000Y-78750000D02*
X169200000Y-81550000D01*
X167900000Y-78050000D02*
X168500000Y-78050000D01*
X167200000Y-81550000D02*
G75*
G03*
X167900000Y-82250000I700001J1D01*
G01*
X168500000Y-82250000D02*
G75*
G03*
X169200000Y-81550000I-1J700001D01*
G01*
X167900000Y-78050000D02*
G75*
G03*
X167200000Y-78750000I0J-700000D01*
G01*
X169200000Y-78750000D02*
G75*
G03*
X168500000Y-78050000I-700000J0D01*
G01*
%TO.C,D102*%
X174574000Y-63897000D02*
X174574000Y-65897000D01*
X174574000Y-63897000D02*
X178434000Y-63897000D01*
X174574000Y-65897000D02*
X178434000Y-65897000D01*
D19*
%TO.C,J117*%
X171693000Y-114046000D02*
X171693000Y-98806000D01*
X179843000Y-114046000D02*
X171693000Y-114046000D01*
X171693000Y-98806000D02*
X179843000Y-98806000D01*
X179843000Y-98806000D02*
X179843000Y-114046000D01*
D20*
X175818000Y-114856000D02*
G75*
G03*
X175718000Y-114856000I-50000J0D01*
G01*
X175718000Y-114856000D02*
G75*
G03*
X175818000Y-114856000I50000J0D01*
G01*
D19*
%TO.C,J119*%
X171693000Y-61722000D02*
X171693000Y-51562000D01*
X179843000Y-61722000D02*
X171693000Y-61722000D01*
X171693000Y-51562000D02*
X179843000Y-51562000D01*
X179843000Y-51562000D02*
X179843000Y-61722000D01*
D20*
X175818000Y-62532000D02*
G75*
G03*
X175718000Y-62532000I-50000J0D01*
G01*
X175718000Y-62532000D02*
G75*
G03*
X175818000Y-62532000I50000J0D01*
G01*
D13*
%TO.C,J122*%
X169332600Y-46990000D02*
G75*
G03*
X168570600Y-46990000I-381000J0D01*
G01*
X168570600Y-46990000D02*
G75*
G03*
X169332600Y-46990000I381000J0D01*
G01*
D21*
X169586600Y-43662201D02*
X169586600Y-50317001D01*
X169586600Y-50317001D02*
X182337400Y-50317001D01*
X182337400Y-43662201D02*
X169586600Y-43662201D01*
X182337400Y-50317001D02*
X182337400Y-43662201D01*
%TD*%
M02*
