%TF.GenerationSoftware,KiCad,Pcbnew,7.0.10*%
%TF.CreationDate,2024-07-21T07:17:00-04:00*%
%TF.ProjectId,12.2.1 - PLC Connector,31322e32-2e31-4202-9d20-504c4320436f,rev?*%
%TF.SameCoordinates,Original*%
%TF.FileFunction,Drillmap*%
%TF.FilePolarity,Positive*%
%FSLAX45Y45*%
G04 Gerber Fmt 4.5, Leading zero omitted, Abs format (unit mm)*
G04 Created by KiCad (PCBNEW 7.0.10) date 2024-07-21 07:17:00*
%MOMM*%
%LPD*%
G01*
G04 APERTURE LIST*
%ADD10C,0.250000*%
%ADD11C,0.200000*%
%ADD12C,0.100000*%
%ADD13C,0.130000*%
G04 APERTURE END LIST*
D10*
X15427824Y-10617646D02*
G75*
G03*
X15502822Y-10692646I74996J-4D01*
G01*
X16702824Y-7719646D02*
G75*
G03*
X16627822Y-7644646I-75004J-4D01*
G01*
X16627822Y-10184646D02*
X15502822Y-10184646D01*
X18402823Y-4433646D02*
X18402823Y-11517646D01*
X16702822Y-10363646D02*
X16702822Y-10259646D01*
X16702822Y-6807646D02*
X16702822Y-6195646D01*
X15427822Y-9093646D02*
X15427822Y-8989646D01*
X15427824Y-8585646D02*
G75*
G03*
X15502822Y-8660646I74996J-4D01*
G01*
X15427822Y-7061646D02*
X15427822Y-6957646D01*
X16627822Y-5612646D02*
X15502822Y-5612646D01*
X15427824Y-9093646D02*
G75*
G03*
X15502822Y-9168646I74996J-4D01*
G01*
X16627822Y-6882652D02*
G75*
G03*
X16702822Y-6807646I-3J75003D01*
G01*
X16627822Y-5358653D02*
G75*
G03*
X16702822Y-5283646I-3J75003D01*
G01*
X15502822Y-9930646D02*
X16627822Y-9930646D01*
X16627822Y-5866652D02*
G75*
G03*
X16702822Y-5791646I-3J75003D01*
G01*
X16702824Y-9243646D02*
G75*
G03*
X16627822Y-9168646I-75004J-4D01*
G01*
X16702824Y-10259646D02*
G75*
G03*
X16627822Y-10184646I-75004J-4D01*
G01*
X15502822Y-8914646D02*
X16627822Y-8914646D01*
X15427822Y-10617646D02*
X15427822Y-10513646D01*
X16702824Y-10767646D02*
G75*
G03*
X16627822Y-10692646I-75004J-4D01*
G01*
X16627822Y-10692646D02*
X15502822Y-10692646D01*
X15502822Y-5358653D02*
G75*
G03*
X15427822Y-5433646I-3J-74998D01*
G01*
X15427822Y-6045646D02*
X15427822Y-5941646D01*
X16627822Y-8914653D02*
G75*
G03*
X16702822Y-8839646I-3J75003D01*
G01*
X15427822Y-7569646D02*
X15427822Y-7465646D01*
X16702824Y-6195646D02*
G75*
G03*
X16627822Y-6120646I-75004J-4D01*
G01*
X16627822Y-6120646D02*
X15502822Y-6120646D01*
X15502822Y-10438653D02*
G75*
G03*
X15427822Y-10513646I-3J-74998D01*
G01*
X15502822Y-7390652D02*
G75*
G03*
X15427822Y-7465646I-3J-74998D01*
G01*
X15502822Y-5358646D02*
X16627822Y-5358646D01*
X18327823Y-11592646D02*
X16777823Y-11592646D01*
X16702824Y-7211646D02*
G75*
G03*
X16627822Y-7136646I-75004J-4D01*
G01*
X15502822Y-5866646D02*
X16627822Y-5866646D01*
X15502822Y-6882652D02*
G75*
G03*
X15427822Y-6957646I-3J-74998D01*
G01*
X16627822Y-7390652D02*
G75*
G03*
X16702822Y-7315646I-3J75003D01*
G01*
X16627822Y-9168646D02*
X15502822Y-9168646D01*
X16702822Y-9855646D02*
X16702822Y-9243646D01*
X15502822Y-5866652D02*
G75*
G03*
X15427822Y-5941646I-3J-74998D01*
G01*
X15427824Y-7061646D02*
G75*
G03*
X15502822Y-7136646I74996J-4D01*
G01*
X15427824Y-6045646D02*
G75*
G03*
X15502822Y-6120646I74996J-4D01*
G01*
X15427822Y-5537646D02*
X15427822Y-5433646D01*
X16777823Y-4358653D02*
G75*
G03*
X16702822Y-4433646I-3J-74998D01*
G01*
X15427822Y-8585646D02*
X15427822Y-8481646D01*
X16702822Y-7315646D02*
X16702822Y-7211646D01*
X18402824Y-4433646D02*
G75*
G03*
X18327823Y-4358646I-75004J-4D01*
G01*
X16627822Y-9930653D02*
G75*
G03*
X16702822Y-9855646I-3J75003D01*
G01*
X16627822Y-7644646D02*
X15502822Y-7644646D01*
X16627822Y-8406653D02*
G75*
G03*
X16702822Y-8331646I-3J75003D01*
G01*
X16627822Y-7136646D02*
X15502822Y-7136646D01*
X16702822Y-5283646D02*
X16702822Y-4433646D01*
X15502822Y-10438646D02*
X16627822Y-10438646D01*
X15502822Y-8914653D02*
G75*
G03*
X15427822Y-8989646I-3J-74998D01*
G01*
X16702824Y-8735646D02*
G75*
G03*
X16627822Y-8660646I-75004J-4D01*
G01*
X15427824Y-5537646D02*
G75*
G03*
X15502822Y-5612646I74996J-4D01*
G01*
X15502822Y-8406646D02*
X16627822Y-8406646D01*
X16702822Y-8331646D02*
X16702822Y-7719646D01*
X15427824Y-7569646D02*
G75*
G03*
X15502822Y-7644646I74996J-4D01*
G01*
X15502822Y-9930653D02*
G75*
G03*
X15427822Y-10005646I-3J-74998D01*
G01*
X15502822Y-6882646D02*
X16627822Y-6882646D01*
X16702822Y-8839646D02*
X16702822Y-8735646D01*
X16702824Y-5687646D02*
G75*
G03*
X16627822Y-5612646I-75004J-4D01*
G01*
X18327823Y-11592652D02*
G75*
G03*
X18402823Y-11517646I-3J75003D01*
G01*
X15427824Y-10109646D02*
G75*
G03*
X15502822Y-10184646I74996J-4D01*
G01*
X16702822Y-5791646D02*
X16702822Y-5687646D01*
X15502822Y-8406653D02*
G75*
G03*
X15427822Y-8481646I-3J-74998D01*
G01*
X15502822Y-7390646D02*
X16627822Y-7390646D01*
X16777823Y-4358646D02*
X18327823Y-4358646D01*
X16702822Y-11517646D02*
X16702822Y-10767646D01*
X16627822Y-8660646D02*
X15502822Y-8660646D01*
X15427822Y-10109646D02*
X15427822Y-10005646D01*
X16627822Y-10438653D02*
G75*
G03*
X16702822Y-10363646I-3J75003D01*
G01*
X16702824Y-11517646D02*
G75*
G03*
X16777823Y-11592646I74996J-4D01*
G01*
D11*
D12*
X16283378Y-5464622D02*
X16323378Y-5504622D01*
X16323378Y-5464622D02*
X16283378Y-5504622D01*
X16313170Y-5972843D02*
X16353170Y-6012843D01*
X16353170Y-5972843D02*
X16313170Y-6012843D01*
X16323000Y-7492000D02*
X16363000Y-7532000D01*
X16363000Y-7492000D02*
X16323000Y-7532000D01*
X16327000Y-10546000D02*
X16367000Y-10586000D01*
X16367000Y-10546000D02*
X16327000Y-10586000D01*
X16337000Y-10039000D02*
X16377000Y-10079000D01*
X16377000Y-10039000D02*
X16337000Y-10079000D01*
X16338000Y-6993000D02*
X16378000Y-7033000D01*
X16378000Y-6993000D02*
X16338000Y-7033000D01*
X16349000Y-9021000D02*
X16389000Y-9061000D01*
X16389000Y-9021000D02*
X16349000Y-9061000D01*
X16366000Y-8510000D02*
X16406000Y-8550000D01*
X16406000Y-8510000D02*
X16366000Y-8550000D01*
X16426378Y-5464622D02*
X16466378Y-5504622D01*
X16466378Y-5464622D02*
X16426378Y-5504622D01*
X16446642Y-5971195D02*
X16486642Y-6011195D01*
X16486642Y-5971195D02*
X16446642Y-6011195D01*
X16466000Y-7490000D02*
X16506000Y-7530000D01*
X16506000Y-7490000D02*
X16466000Y-7530000D01*
X16468000Y-10037000D02*
X16508000Y-10077000D01*
X16508000Y-10037000D02*
X16468000Y-10077000D01*
X16468000Y-10546000D02*
X16508000Y-10586000D01*
X16508000Y-10546000D02*
X16468000Y-10586000D01*
X16473000Y-9023000D02*
X16513000Y-9063000D01*
X16513000Y-9023000D02*
X16473000Y-9063000D01*
X16480000Y-6990000D02*
X16520000Y-7030000D01*
X16520000Y-6990000D02*
X16480000Y-7030000D01*
X16484000Y-8510000D02*
X16524000Y-8550000D01*
X16524000Y-8510000D02*
X16484000Y-8550000D01*
X16570000Y-5973006D02*
X16610000Y-6013006D01*
X16610000Y-5973006D02*
X16570000Y-6013006D01*
X16587000Y-10549000D02*
X16627000Y-10589000D01*
X16627000Y-10549000D02*
X16587000Y-10589000D01*
X16590000Y-9020000D02*
X16630000Y-9060000D01*
X16630000Y-9020000D02*
X16590000Y-9060000D01*
X16590000Y-10037916D02*
X16630000Y-10077916D01*
X16630000Y-10037916D02*
X16590000Y-10077916D01*
X16598622Y-5464623D02*
X16638622Y-5504623D01*
X16638622Y-5464623D02*
X16598622Y-5504623D01*
X16600000Y-8510000D02*
X16640000Y-8550000D01*
X16640000Y-8510000D02*
X16600000Y-8550000D01*
X16610000Y-6987991D02*
X16650000Y-7027991D01*
X16650000Y-6987991D02*
X16610000Y-7027991D01*
X16610000Y-7490000D02*
X16650000Y-7530000D01*
X16650000Y-7490000D02*
X16610000Y-7530000D01*
X16858301Y-7332050D02*
X16898301Y-7372050D01*
X16898301Y-7332050D02*
X16858301Y-7372050D01*
X16879000Y-5821000D02*
X16919000Y-5861000D01*
X16919000Y-5821000D02*
X16879000Y-5861000D01*
X16879000Y-10378000D02*
X16919000Y-10418000D01*
X16919000Y-10378000D02*
X16879000Y-10418000D01*
X16883700Y-8755700D02*
X16923700Y-8795700D01*
X16923700Y-8755700D02*
X16883700Y-8795700D01*
X16900000Y-7438000D02*
X16940000Y-7478000D01*
X16940000Y-7438000D02*
X16900000Y-7478000D01*
X17048800Y-8755700D02*
X17088800Y-8795700D01*
X17088800Y-8755700D02*
X17048800Y-8795700D01*
X17074200Y-5822000D02*
X17114200Y-5862000D01*
X17114200Y-5822000D02*
X17074200Y-5862000D01*
X17112300Y-10381300D02*
X17152300Y-10421300D01*
X17152300Y-10381300D02*
X17112300Y-10421300D01*
X17264500Y-6609600D02*
X17304500Y-6649600D01*
X17304500Y-6609600D02*
X17264500Y-6649600D01*
X17721900Y-11003600D02*
X17761900Y-11043600D01*
X17761900Y-11003600D02*
X17721900Y-11043600D01*
X17760620Y-5365420D02*
X17800620Y-5405420D01*
X17800620Y-5365420D02*
X17760620Y-5405420D01*
X17798100Y-5813800D02*
X17838100Y-5853800D01*
X17838100Y-5813800D02*
X17798100Y-5853800D01*
X17798100Y-10927400D02*
X17838100Y-10967400D01*
X17838100Y-10927400D02*
X17798100Y-10967400D01*
X17925600Y-6393500D02*
X17965600Y-6433500D01*
X17965600Y-6393500D02*
X17925600Y-6433500D01*
X17931699Y-6551999D02*
X17971699Y-6591999D01*
X17971699Y-6551999D02*
X17931699Y-6591999D01*
X18026700Y-9886000D02*
X18066700Y-9926000D01*
X18066700Y-9886000D02*
X18026700Y-9926000D01*
X18077500Y-5098100D02*
X18117500Y-5138100D01*
X18117500Y-5098100D02*
X18077500Y-5138100D01*
X18115600Y-9809800D02*
X18155600Y-9849800D01*
X18155600Y-9809800D02*
X18115600Y-9849800D01*
X18128300Y-7815900D02*
X18168300Y-7855900D01*
X18168300Y-7815900D02*
X18128300Y-7855900D01*
X18128300Y-7955600D02*
X18168300Y-7995600D01*
X18168300Y-7955600D02*
X18128300Y-7995600D01*
X18128300Y-9695500D02*
X18168300Y-9735500D01*
X18168300Y-9695500D02*
X18128300Y-9735500D01*
X18306100Y-8323900D02*
X18346100Y-8363900D01*
X18346100Y-8323900D02*
X18306100Y-8363900D01*
X17270730Y-4699000D02*
G75*
G03*
X17171670Y-4699000I-49530J0D01*
G01*
X17171670Y-4699000D02*
G75*
G03*
X17270730Y-4699000I49530J0D01*
G01*
X17520730Y-4699000D02*
G75*
G03*
X17421670Y-4699000I-49530J0D01*
G01*
X17421670Y-4699000D02*
G75*
G03*
X17520730Y-4699000I49530J0D01*
G01*
X17770730Y-4699000D02*
G75*
G03*
X17671670Y-4699000I-49530J0D01*
G01*
X17671670Y-4699000D02*
G75*
G03*
X17770730Y-4699000I49530J0D01*
G01*
X18020730Y-4699000D02*
G75*
G03*
X17921670Y-4699000I-49530J0D01*
G01*
X17921670Y-4699000D02*
G75*
G03*
X18020730Y-4699000I49530J0D01*
G01*
D13*
X17576800Y-5345200D02*
X17576800Y-5475200D01*
X17511800Y-5410200D02*
X17641800Y-5410200D01*
X17576800Y-5853200D02*
X17576800Y-5983200D01*
X17511800Y-5918200D02*
X17641800Y-5918200D01*
X17576800Y-6920000D02*
X17576800Y-7050000D01*
X17511800Y-6985000D02*
X17641800Y-6985000D01*
X17576800Y-7428000D02*
X17576800Y-7558000D01*
X17511800Y-7493000D02*
X17641800Y-7493000D01*
X17576800Y-8494800D02*
X17576800Y-8624800D01*
X17511800Y-8559800D02*
X17641800Y-8559800D01*
X17576800Y-9002800D02*
X17576800Y-9132800D01*
X17511800Y-9067800D02*
X17641800Y-9067800D01*
X17576800Y-10069600D02*
X17576800Y-10199600D01*
X17511800Y-10134600D02*
X17641800Y-10134600D01*
X17576800Y-10577600D02*
X17576800Y-10707600D01*
X17511800Y-10642600D02*
X17641800Y-10642600D01*
X17576800Y-11085600D02*
X17576800Y-11215600D01*
X17511800Y-11150600D02*
X17641800Y-11150600D01*
D11*
X15676099Y-11916630D02*
X15676099Y-11716630D01*
X15676099Y-11716630D02*
X15723718Y-11716630D01*
X15723718Y-11716630D02*
X15752290Y-11726154D01*
X15752290Y-11726154D02*
X15771337Y-11745201D01*
X15771337Y-11745201D02*
X15780861Y-11764249D01*
X15780861Y-11764249D02*
X15790385Y-11802344D01*
X15790385Y-11802344D02*
X15790385Y-11830916D01*
X15790385Y-11830916D02*
X15780861Y-11869011D01*
X15780861Y-11869011D02*
X15771337Y-11888058D01*
X15771337Y-11888058D02*
X15752290Y-11907106D01*
X15752290Y-11907106D02*
X15723718Y-11916630D01*
X15723718Y-11916630D02*
X15676099Y-11916630D01*
X15876099Y-11916630D02*
X15876099Y-11783297D01*
X15876099Y-11821392D02*
X15885623Y-11802344D01*
X15885623Y-11802344D02*
X15895147Y-11792820D01*
X15895147Y-11792820D02*
X15914194Y-11783297D01*
X15914194Y-11783297D02*
X15933242Y-11783297D01*
X15999909Y-11916630D02*
X15999909Y-11783297D01*
X15999909Y-11716630D02*
X15990385Y-11726154D01*
X15990385Y-11726154D02*
X15999909Y-11735678D01*
X15999909Y-11735678D02*
X16009433Y-11726154D01*
X16009433Y-11726154D02*
X15999909Y-11716630D01*
X15999909Y-11716630D02*
X15999909Y-11735678D01*
X16123718Y-11916630D02*
X16104671Y-11907106D01*
X16104671Y-11907106D02*
X16095147Y-11888058D01*
X16095147Y-11888058D02*
X16095147Y-11716630D01*
X16228480Y-11916630D02*
X16209433Y-11907106D01*
X16209433Y-11907106D02*
X16199909Y-11888058D01*
X16199909Y-11888058D02*
X16199909Y-11716630D01*
X16457052Y-11916630D02*
X16457052Y-11716630D01*
X16457052Y-11716630D02*
X16523718Y-11859487D01*
X16523718Y-11859487D02*
X16590385Y-11716630D01*
X16590385Y-11716630D02*
X16590385Y-11916630D01*
X16771337Y-11916630D02*
X16771337Y-11811868D01*
X16771337Y-11811868D02*
X16761814Y-11792820D01*
X16761814Y-11792820D02*
X16742766Y-11783297D01*
X16742766Y-11783297D02*
X16704671Y-11783297D01*
X16704671Y-11783297D02*
X16685623Y-11792820D01*
X16771337Y-11907106D02*
X16752290Y-11916630D01*
X16752290Y-11916630D02*
X16704671Y-11916630D01*
X16704671Y-11916630D02*
X16685623Y-11907106D01*
X16685623Y-11907106D02*
X16676099Y-11888058D01*
X16676099Y-11888058D02*
X16676099Y-11869011D01*
X16676099Y-11869011D02*
X16685623Y-11849963D01*
X16685623Y-11849963D02*
X16704671Y-11840439D01*
X16704671Y-11840439D02*
X16752290Y-11840439D01*
X16752290Y-11840439D02*
X16771337Y-11830916D01*
X16866576Y-11783297D02*
X16866576Y-11983297D01*
X16866576Y-11792820D02*
X16885623Y-11783297D01*
X16885623Y-11783297D02*
X16923718Y-11783297D01*
X16923718Y-11783297D02*
X16942766Y-11792820D01*
X16942766Y-11792820D02*
X16952290Y-11802344D01*
X16952290Y-11802344D02*
X16961814Y-11821392D01*
X16961814Y-11821392D02*
X16961814Y-11878535D01*
X16961814Y-11878535D02*
X16952290Y-11897582D01*
X16952290Y-11897582D02*
X16942766Y-11907106D01*
X16942766Y-11907106D02*
X16923718Y-11916630D01*
X16923718Y-11916630D02*
X16885623Y-11916630D01*
X16885623Y-11916630D02*
X16866576Y-11907106D01*
X17047528Y-11897582D02*
X17057052Y-11907106D01*
X17057052Y-11907106D02*
X17047528Y-11916630D01*
X17047528Y-11916630D02*
X17038004Y-11907106D01*
X17038004Y-11907106D02*
X17047528Y-11897582D01*
X17047528Y-11897582D02*
X17047528Y-11916630D01*
X17047528Y-11792820D02*
X17057052Y-11802344D01*
X17057052Y-11802344D02*
X17047528Y-11811868D01*
X17047528Y-11811868D02*
X17038004Y-11802344D01*
X17038004Y-11802344D02*
X17047528Y-11792820D01*
X17047528Y-11792820D02*
X17047528Y-11811868D01*
D12*
X15375322Y-12225146D02*
X15415322Y-12265146D01*
X15415322Y-12225146D02*
X15375322Y-12265146D01*
D11*
X15714194Y-12136630D02*
X15733242Y-12136630D01*
X15733242Y-12136630D02*
X15752290Y-12146154D01*
X15752290Y-12146154D02*
X15761814Y-12155678D01*
X15761814Y-12155678D02*
X15771337Y-12174725D01*
X15771337Y-12174725D02*
X15780861Y-12212820D01*
X15780861Y-12212820D02*
X15780861Y-12260439D01*
X15780861Y-12260439D02*
X15771337Y-12298535D01*
X15771337Y-12298535D02*
X15761814Y-12317582D01*
X15761814Y-12317582D02*
X15752290Y-12327106D01*
X15752290Y-12327106D02*
X15733242Y-12336630D01*
X15733242Y-12336630D02*
X15714194Y-12336630D01*
X15714194Y-12336630D02*
X15695147Y-12327106D01*
X15695147Y-12327106D02*
X15685623Y-12317582D01*
X15685623Y-12317582D02*
X15676099Y-12298535D01*
X15676099Y-12298535D02*
X15666575Y-12260439D01*
X15666575Y-12260439D02*
X15666575Y-12212820D01*
X15666575Y-12212820D02*
X15676099Y-12174725D01*
X15676099Y-12174725D02*
X15685623Y-12155678D01*
X15685623Y-12155678D02*
X15695147Y-12146154D01*
X15695147Y-12146154D02*
X15714194Y-12136630D01*
X15866575Y-12317582D02*
X15876099Y-12327106D01*
X15876099Y-12327106D02*
X15866575Y-12336630D01*
X15866575Y-12336630D02*
X15857052Y-12327106D01*
X15857052Y-12327106D02*
X15866575Y-12317582D01*
X15866575Y-12317582D02*
X15866575Y-12336630D01*
X16047528Y-12203297D02*
X16047528Y-12336630D01*
X15999909Y-12127106D02*
X15952290Y-12269963D01*
X15952290Y-12269963D02*
X16076099Y-12269963D01*
X16190385Y-12136630D02*
X16209433Y-12136630D01*
X16209433Y-12136630D02*
X16228480Y-12146154D01*
X16228480Y-12146154D02*
X16238004Y-12155678D01*
X16238004Y-12155678D02*
X16247528Y-12174725D01*
X16247528Y-12174725D02*
X16257052Y-12212820D01*
X16257052Y-12212820D02*
X16257052Y-12260439D01*
X16257052Y-12260439D02*
X16247528Y-12298535D01*
X16247528Y-12298535D02*
X16238004Y-12317582D01*
X16238004Y-12317582D02*
X16228480Y-12327106D01*
X16228480Y-12327106D02*
X16209433Y-12336630D01*
X16209433Y-12336630D02*
X16190385Y-12336630D01*
X16190385Y-12336630D02*
X16171337Y-12327106D01*
X16171337Y-12327106D02*
X16161814Y-12317582D01*
X16161814Y-12317582D02*
X16152290Y-12298535D01*
X16152290Y-12298535D02*
X16142766Y-12260439D01*
X16142766Y-12260439D02*
X16142766Y-12212820D01*
X16142766Y-12212820D02*
X16152290Y-12174725D01*
X16152290Y-12174725D02*
X16161814Y-12155678D01*
X16161814Y-12155678D02*
X16171337Y-12146154D01*
X16171337Y-12146154D02*
X16190385Y-12136630D01*
X16380861Y-12136630D02*
X16399909Y-12136630D01*
X16399909Y-12136630D02*
X16418956Y-12146154D01*
X16418956Y-12146154D02*
X16428480Y-12155678D01*
X16428480Y-12155678D02*
X16438004Y-12174725D01*
X16438004Y-12174725D02*
X16447528Y-12212820D01*
X16447528Y-12212820D02*
X16447528Y-12260439D01*
X16447528Y-12260439D02*
X16438004Y-12298535D01*
X16438004Y-12298535D02*
X16428480Y-12317582D01*
X16428480Y-12317582D02*
X16418956Y-12327106D01*
X16418956Y-12327106D02*
X16399909Y-12336630D01*
X16399909Y-12336630D02*
X16380861Y-12336630D01*
X16380861Y-12336630D02*
X16361814Y-12327106D01*
X16361814Y-12327106D02*
X16352290Y-12317582D01*
X16352290Y-12317582D02*
X16342766Y-12298535D01*
X16342766Y-12298535D02*
X16333242Y-12260439D01*
X16333242Y-12260439D02*
X16333242Y-12212820D01*
X16333242Y-12212820D02*
X16342766Y-12174725D01*
X16342766Y-12174725D02*
X16352290Y-12155678D01*
X16352290Y-12155678D02*
X16361814Y-12146154D01*
X16361814Y-12146154D02*
X16380861Y-12136630D01*
X16533242Y-12336630D02*
X16533242Y-12203297D01*
X16533242Y-12222344D02*
X16542766Y-12212820D01*
X16542766Y-12212820D02*
X16561814Y-12203297D01*
X16561814Y-12203297D02*
X16590385Y-12203297D01*
X16590385Y-12203297D02*
X16609433Y-12212820D01*
X16609433Y-12212820D02*
X16618956Y-12231868D01*
X16618956Y-12231868D02*
X16618956Y-12336630D01*
X16618956Y-12231868D02*
X16628480Y-12212820D01*
X16628480Y-12212820D02*
X16647528Y-12203297D01*
X16647528Y-12203297D02*
X16676099Y-12203297D01*
X16676099Y-12203297D02*
X16695147Y-12212820D01*
X16695147Y-12212820D02*
X16704671Y-12231868D01*
X16704671Y-12231868D02*
X16704671Y-12336630D01*
X16799909Y-12336630D02*
X16799909Y-12203297D01*
X16799909Y-12222344D02*
X16809433Y-12212820D01*
X16809433Y-12212820D02*
X16828480Y-12203297D01*
X16828480Y-12203297D02*
X16857052Y-12203297D01*
X16857052Y-12203297D02*
X16876099Y-12212820D01*
X16876099Y-12212820D02*
X16885623Y-12231868D01*
X16885623Y-12231868D02*
X16885623Y-12336630D01*
X16885623Y-12231868D02*
X16895147Y-12212820D01*
X16895147Y-12212820D02*
X16914195Y-12203297D01*
X16914195Y-12203297D02*
X16942766Y-12203297D01*
X16942766Y-12203297D02*
X16961814Y-12212820D01*
X16961814Y-12212820D02*
X16971338Y-12231868D01*
X16971338Y-12231868D02*
X16971338Y-12336630D01*
X17361814Y-12127106D02*
X17190385Y-12384249D01*
X17618957Y-12136630D02*
X17638004Y-12136630D01*
X17638004Y-12136630D02*
X17657052Y-12146154D01*
X17657052Y-12146154D02*
X17666576Y-12155678D01*
X17666576Y-12155678D02*
X17676100Y-12174725D01*
X17676100Y-12174725D02*
X17685623Y-12212820D01*
X17685623Y-12212820D02*
X17685623Y-12260439D01*
X17685623Y-12260439D02*
X17676100Y-12298535D01*
X17676100Y-12298535D02*
X17666576Y-12317582D01*
X17666576Y-12317582D02*
X17657052Y-12327106D01*
X17657052Y-12327106D02*
X17638004Y-12336630D01*
X17638004Y-12336630D02*
X17618957Y-12336630D01*
X17618957Y-12336630D02*
X17599909Y-12327106D01*
X17599909Y-12327106D02*
X17590385Y-12317582D01*
X17590385Y-12317582D02*
X17580861Y-12298535D01*
X17580861Y-12298535D02*
X17571338Y-12260439D01*
X17571338Y-12260439D02*
X17571338Y-12212820D01*
X17571338Y-12212820D02*
X17580861Y-12174725D01*
X17580861Y-12174725D02*
X17590385Y-12155678D01*
X17590385Y-12155678D02*
X17599909Y-12146154D01*
X17599909Y-12146154D02*
X17618957Y-12136630D01*
X17771338Y-12317582D02*
X17780861Y-12327106D01*
X17780861Y-12327106D02*
X17771338Y-12336630D01*
X17771338Y-12336630D02*
X17761814Y-12327106D01*
X17761814Y-12327106D02*
X17771338Y-12317582D01*
X17771338Y-12317582D02*
X17771338Y-12336630D01*
X17904671Y-12136630D02*
X17923719Y-12136630D01*
X17923719Y-12136630D02*
X17942766Y-12146154D01*
X17942766Y-12146154D02*
X17952290Y-12155678D01*
X17952290Y-12155678D02*
X17961814Y-12174725D01*
X17961814Y-12174725D02*
X17971338Y-12212820D01*
X17971338Y-12212820D02*
X17971338Y-12260439D01*
X17971338Y-12260439D02*
X17961814Y-12298535D01*
X17961814Y-12298535D02*
X17952290Y-12317582D01*
X17952290Y-12317582D02*
X17942766Y-12327106D01*
X17942766Y-12327106D02*
X17923719Y-12336630D01*
X17923719Y-12336630D02*
X17904671Y-12336630D01*
X17904671Y-12336630D02*
X17885623Y-12327106D01*
X17885623Y-12327106D02*
X17876100Y-12317582D01*
X17876100Y-12317582D02*
X17866576Y-12298535D01*
X17866576Y-12298535D02*
X17857052Y-12260439D01*
X17857052Y-12260439D02*
X17857052Y-12212820D01*
X17857052Y-12212820D02*
X17866576Y-12174725D01*
X17866576Y-12174725D02*
X17876100Y-12155678D01*
X17876100Y-12155678D02*
X17885623Y-12146154D01*
X17885623Y-12146154D02*
X17904671Y-12136630D01*
X18161814Y-12336630D02*
X18047528Y-12336630D01*
X18104671Y-12336630D02*
X18104671Y-12136630D01*
X18104671Y-12136630D02*
X18085623Y-12165201D01*
X18085623Y-12165201D02*
X18066576Y-12184249D01*
X18066576Y-12184249D02*
X18047528Y-12193773D01*
X18342766Y-12136630D02*
X18247528Y-12136630D01*
X18247528Y-12136630D02*
X18238004Y-12231868D01*
X18238004Y-12231868D02*
X18247528Y-12222344D01*
X18247528Y-12222344D02*
X18266576Y-12212820D01*
X18266576Y-12212820D02*
X18314195Y-12212820D01*
X18314195Y-12212820D02*
X18333242Y-12222344D01*
X18333242Y-12222344D02*
X18342766Y-12231868D01*
X18342766Y-12231868D02*
X18352290Y-12250916D01*
X18352290Y-12250916D02*
X18352290Y-12298535D01*
X18352290Y-12298535D02*
X18342766Y-12317582D01*
X18342766Y-12317582D02*
X18333242Y-12327106D01*
X18333242Y-12327106D02*
X18314195Y-12336630D01*
X18314195Y-12336630D02*
X18266576Y-12336630D01*
X18266576Y-12336630D02*
X18247528Y-12327106D01*
X18247528Y-12327106D02*
X18238004Y-12317582D01*
X18418957Y-12136630D02*
X18552290Y-12136630D01*
X18552290Y-12136630D02*
X18466576Y-12336630D01*
X18618957Y-12136630D02*
X18618957Y-12174725D01*
X18695147Y-12136630D02*
X18695147Y-12174725D01*
X18990385Y-12412820D02*
X18980862Y-12403297D01*
X18980862Y-12403297D02*
X18961814Y-12374725D01*
X18961814Y-12374725D02*
X18952290Y-12355678D01*
X18952290Y-12355678D02*
X18942766Y-12327106D01*
X18942766Y-12327106D02*
X18933243Y-12279487D01*
X18933243Y-12279487D02*
X18933243Y-12241392D01*
X18933243Y-12241392D02*
X18942766Y-12193773D01*
X18942766Y-12193773D02*
X18952290Y-12165201D01*
X18952290Y-12165201D02*
X18961814Y-12146154D01*
X18961814Y-12146154D02*
X18980862Y-12117582D01*
X18980862Y-12117582D02*
X18990385Y-12108058D01*
X19152290Y-12203297D02*
X19152290Y-12336630D01*
X19104671Y-12127106D02*
X19057052Y-12269963D01*
X19057052Y-12269963D02*
X19180862Y-12269963D01*
X19342766Y-12136630D02*
X19304671Y-12136630D01*
X19304671Y-12136630D02*
X19285623Y-12146154D01*
X19285623Y-12146154D02*
X19276100Y-12155678D01*
X19276100Y-12155678D02*
X19257052Y-12184249D01*
X19257052Y-12184249D02*
X19247528Y-12222344D01*
X19247528Y-12222344D02*
X19247528Y-12298535D01*
X19247528Y-12298535D02*
X19257052Y-12317582D01*
X19257052Y-12317582D02*
X19266576Y-12327106D01*
X19266576Y-12327106D02*
X19285623Y-12336630D01*
X19285623Y-12336630D02*
X19323719Y-12336630D01*
X19323719Y-12336630D02*
X19342766Y-12327106D01*
X19342766Y-12327106D02*
X19352290Y-12317582D01*
X19352290Y-12317582D02*
X19361814Y-12298535D01*
X19361814Y-12298535D02*
X19361814Y-12250916D01*
X19361814Y-12250916D02*
X19352290Y-12231868D01*
X19352290Y-12231868D02*
X19342766Y-12222344D01*
X19342766Y-12222344D02*
X19323719Y-12212820D01*
X19323719Y-12212820D02*
X19285623Y-12212820D01*
X19285623Y-12212820D02*
X19266576Y-12222344D01*
X19266576Y-12222344D02*
X19257052Y-12231868D01*
X19257052Y-12231868D02*
X19247528Y-12250916D01*
X19599909Y-12336630D02*
X19599909Y-12136630D01*
X19685624Y-12336630D02*
X19685624Y-12231868D01*
X19685624Y-12231868D02*
X19676100Y-12212820D01*
X19676100Y-12212820D02*
X19657052Y-12203297D01*
X19657052Y-12203297D02*
X19628481Y-12203297D01*
X19628481Y-12203297D02*
X19609433Y-12212820D01*
X19609433Y-12212820D02*
X19599909Y-12222344D01*
X19809433Y-12336630D02*
X19790385Y-12327106D01*
X19790385Y-12327106D02*
X19780862Y-12317582D01*
X19780862Y-12317582D02*
X19771338Y-12298535D01*
X19771338Y-12298535D02*
X19771338Y-12241392D01*
X19771338Y-12241392D02*
X19780862Y-12222344D01*
X19780862Y-12222344D02*
X19790385Y-12212820D01*
X19790385Y-12212820D02*
X19809433Y-12203297D01*
X19809433Y-12203297D02*
X19838005Y-12203297D01*
X19838005Y-12203297D02*
X19857052Y-12212820D01*
X19857052Y-12212820D02*
X19866576Y-12222344D01*
X19866576Y-12222344D02*
X19876100Y-12241392D01*
X19876100Y-12241392D02*
X19876100Y-12298535D01*
X19876100Y-12298535D02*
X19866576Y-12317582D01*
X19866576Y-12317582D02*
X19857052Y-12327106D01*
X19857052Y-12327106D02*
X19838005Y-12336630D01*
X19838005Y-12336630D02*
X19809433Y-12336630D01*
X19990385Y-12336630D02*
X19971338Y-12327106D01*
X19971338Y-12327106D02*
X19961814Y-12308058D01*
X19961814Y-12308058D02*
X19961814Y-12136630D01*
X20142766Y-12327106D02*
X20123719Y-12336630D01*
X20123719Y-12336630D02*
X20085624Y-12336630D01*
X20085624Y-12336630D02*
X20066576Y-12327106D01*
X20066576Y-12327106D02*
X20057052Y-12308058D01*
X20057052Y-12308058D02*
X20057052Y-12231868D01*
X20057052Y-12231868D02*
X20066576Y-12212820D01*
X20066576Y-12212820D02*
X20085624Y-12203297D01*
X20085624Y-12203297D02*
X20123719Y-12203297D01*
X20123719Y-12203297D02*
X20142766Y-12212820D01*
X20142766Y-12212820D02*
X20152290Y-12231868D01*
X20152290Y-12231868D02*
X20152290Y-12250916D01*
X20152290Y-12250916D02*
X20057052Y-12269963D01*
X20228481Y-12327106D02*
X20247528Y-12336630D01*
X20247528Y-12336630D02*
X20285624Y-12336630D01*
X20285624Y-12336630D02*
X20304671Y-12327106D01*
X20304671Y-12327106D02*
X20314195Y-12308058D01*
X20314195Y-12308058D02*
X20314195Y-12298535D01*
X20314195Y-12298535D02*
X20304671Y-12279487D01*
X20304671Y-12279487D02*
X20285624Y-12269963D01*
X20285624Y-12269963D02*
X20257052Y-12269963D01*
X20257052Y-12269963D02*
X20238005Y-12260439D01*
X20238005Y-12260439D02*
X20228481Y-12241392D01*
X20228481Y-12241392D02*
X20228481Y-12231868D01*
X20228481Y-12231868D02*
X20238005Y-12212820D01*
X20238005Y-12212820D02*
X20257052Y-12203297D01*
X20257052Y-12203297D02*
X20285624Y-12203297D01*
X20285624Y-12203297D02*
X20304671Y-12212820D01*
X20380862Y-12412820D02*
X20390386Y-12403297D01*
X20390386Y-12403297D02*
X20409433Y-12374725D01*
X20409433Y-12374725D02*
X20418957Y-12355678D01*
X20418957Y-12355678D02*
X20428481Y-12327106D01*
X20428481Y-12327106D02*
X20438005Y-12279487D01*
X20438005Y-12279487D02*
X20438005Y-12241392D01*
X20438005Y-12241392D02*
X20428481Y-12193773D01*
X20428481Y-12193773D02*
X20418957Y-12165201D01*
X20418957Y-12165201D02*
X20409433Y-12146154D01*
X20409433Y-12146154D02*
X20390386Y-12117582D01*
X20390386Y-12117582D02*
X20380862Y-12108058D01*
D12*
X15415322Y-12509146D02*
G75*
G03*
X15316262Y-12509146I-49530J0D01*
G01*
X15316262Y-12509146D02*
G75*
G03*
X15415322Y-12509146I49530J0D01*
G01*
D11*
X15714194Y-12400630D02*
X15733242Y-12400630D01*
X15733242Y-12400630D02*
X15752290Y-12410154D01*
X15752290Y-12410154D02*
X15761814Y-12419678D01*
X15761814Y-12419678D02*
X15771337Y-12438725D01*
X15771337Y-12438725D02*
X15780861Y-12476820D01*
X15780861Y-12476820D02*
X15780861Y-12524439D01*
X15780861Y-12524439D02*
X15771337Y-12562535D01*
X15771337Y-12562535D02*
X15761814Y-12581582D01*
X15761814Y-12581582D02*
X15752290Y-12591106D01*
X15752290Y-12591106D02*
X15733242Y-12600630D01*
X15733242Y-12600630D02*
X15714194Y-12600630D01*
X15714194Y-12600630D02*
X15695147Y-12591106D01*
X15695147Y-12591106D02*
X15685623Y-12581582D01*
X15685623Y-12581582D02*
X15676099Y-12562535D01*
X15676099Y-12562535D02*
X15666575Y-12524439D01*
X15666575Y-12524439D02*
X15666575Y-12476820D01*
X15666575Y-12476820D02*
X15676099Y-12438725D01*
X15676099Y-12438725D02*
X15685623Y-12419678D01*
X15685623Y-12419678D02*
X15695147Y-12410154D01*
X15695147Y-12410154D02*
X15714194Y-12400630D01*
X15866575Y-12581582D02*
X15876099Y-12591106D01*
X15876099Y-12591106D02*
X15866575Y-12600630D01*
X15866575Y-12600630D02*
X15857052Y-12591106D01*
X15857052Y-12591106D02*
X15866575Y-12581582D01*
X15866575Y-12581582D02*
X15866575Y-12600630D01*
X15971337Y-12600630D02*
X16009433Y-12600630D01*
X16009433Y-12600630D02*
X16028480Y-12591106D01*
X16028480Y-12591106D02*
X16038004Y-12581582D01*
X16038004Y-12581582D02*
X16057052Y-12553011D01*
X16057052Y-12553011D02*
X16066575Y-12514916D01*
X16066575Y-12514916D02*
X16066575Y-12438725D01*
X16066575Y-12438725D02*
X16057052Y-12419678D01*
X16057052Y-12419678D02*
X16047528Y-12410154D01*
X16047528Y-12410154D02*
X16028480Y-12400630D01*
X16028480Y-12400630D02*
X15990385Y-12400630D01*
X15990385Y-12400630D02*
X15971337Y-12410154D01*
X15971337Y-12410154D02*
X15961814Y-12419678D01*
X15961814Y-12419678D02*
X15952290Y-12438725D01*
X15952290Y-12438725D02*
X15952290Y-12486344D01*
X15952290Y-12486344D02*
X15961814Y-12505392D01*
X15961814Y-12505392D02*
X15971337Y-12514916D01*
X15971337Y-12514916D02*
X15990385Y-12524439D01*
X15990385Y-12524439D02*
X16028480Y-12524439D01*
X16028480Y-12524439D02*
X16047528Y-12514916D01*
X16047528Y-12514916D02*
X16057052Y-12505392D01*
X16057052Y-12505392D02*
X16066575Y-12486344D01*
X16161814Y-12600630D02*
X16199909Y-12600630D01*
X16199909Y-12600630D02*
X16218956Y-12591106D01*
X16218956Y-12591106D02*
X16228480Y-12581582D01*
X16228480Y-12581582D02*
X16247528Y-12553011D01*
X16247528Y-12553011D02*
X16257052Y-12514916D01*
X16257052Y-12514916D02*
X16257052Y-12438725D01*
X16257052Y-12438725D02*
X16247528Y-12419678D01*
X16247528Y-12419678D02*
X16238004Y-12410154D01*
X16238004Y-12410154D02*
X16218956Y-12400630D01*
X16218956Y-12400630D02*
X16180861Y-12400630D01*
X16180861Y-12400630D02*
X16161814Y-12410154D01*
X16161814Y-12410154D02*
X16152290Y-12419678D01*
X16152290Y-12419678D02*
X16142766Y-12438725D01*
X16142766Y-12438725D02*
X16142766Y-12486344D01*
X16142766Y-12486344D02*
X16152290Y-12505392D01*
X16152290Y-12505392D02*
X16161814Y-12514916D01*
X16161814Y-12514916D02*
X16180861Y-12524439D01*
X16180861Y-12524439D02*
X16218956Y-12524439D01*
X16218956Y-12524439D02*
X16238004Y-12514916D01*
X16238004Y-12514916D02*
X16247528Y-12505392D01*
X16247528Y-12505392D02*
X16257052Y-12486344D01*
X16447528Y-12600630D02*
X16333242Y-12600630D01*
X16390385Y-12600630D02*
X16390385Y-12400630D01*
X16390385Y-12400630D02*
X16371337Y-12429201D01*
X16371337Y-12429201D02*
X16352290Y-12448249D01*
X16352290Y-12448249D02*
X16333242Y-12457773D01*
X16533242Y-12600630D02*
X16533242Y-12467297D01*
X16533242Y-12486344D02*
X16542766Y-12476820D01*
X16542766Y-12476820D02*
X16561814Y-12467297D01*
X16561814Y-12467297D02*
X16590385Y-12467297D01*
X16590385Y-12467297D02*
X16609433Y-12476820D01*
X16609433Y-12476820D02*
X16618956Y-12495868D01*
X16618956Y-12495868D02*
X16618956Y-12600630D01*
X16618956Y-12495868D02*
X16628480Y-12476820D01*
X16628480Y-12476820D02*
X16647528Y-12467297D01*
X16647528Y-12467297D02*
X16676099Y-12467297D01*
X16676099Y-12467297D02*
X16695147Y-12476820D01*
X16695147Y-12476820D02*
X16704671Y-12495868D01*
X16704671Y-12495868D02*
X16704671Y-12600630D01*
X16799909Y-12600630D02*
X16799909Y-12467297D01*
X16799909Y-12486344D02*
X16809433Y-12476820D01*
X16809433Y-12476820D02*
X16828480Y-12467297D01*
X16828480Y-12467297D02*
X16857052Y-12467297D01*
X16857052Y-12467297D02*
X16876099Y-12476820D01*
X16876099Y-12476820D02*
X16885623Y-12495868D01*
X16885623Y-12495868D02*
X16885623Y-12600630D01*
X16885623Y-12495868D02*
X16895147Y-12476820D01*
X16895147Y-12476820D02*
X16914195Y-12467297D01*
X16914195Y-12467297D02*
X16942766Y-12467297D01*
X16942766Y-12467297D02*
X16961814Y-12476820D01*
X16961814Y-12476820D02*
X16971338Y-12495868D01*
X16971338Y-12495868D02*
X16971338Y-12600630D01*
X17361814Y-12391106D02*
X17190385Y-12648249D01*
X17618957Y-12400630D02*
X17638004Y-12400630D01*
X17638004Y-12400630D02*
X17657052Y-12410154D01*
X17657052Y-12410154D02*
X17666576Y-12419678D01*
X17666576Y-12419678D02*
X17676100Y-12438725D01*
X17676100Y-12438725D02*
X17685623Y-12476820D01*
X17685623Y-12476820D02*
X17685623Y-12524439D01*
X17685623Y-12524439D02*
X17676100Y-12562535D01*
X17676100Y-12562535D02*
X17666576Y-12581582D01*
X17666576Y-12581582D02*
X17657052Y-12591106D01*
X17657052Y-12591106D02*
X17638004Y-12600630D01*
X17638004Y-12600630D02*
X17618957Y-12600630D01*
X17618957Y-12600630D02*
X17599909Y-12591106D01*
X17599909Y-12591106D02*
X17590385Y-12581582D01*
X17590385Y-12581582D02*
X17580861Y-12562535D01*
X17580861Y-12562535D02*
X17571338Y-12524439D01*
X17571338Y-12524439D02*
X17571338Y-12476820D01*
X17571338Y-12476820D02*
X17580861Y-12438725D01*
X17580861Y-12438725D02*
X17590385Y-12419678D01*
X17590385Y-12419678D02*
X17599909Y-12410154D01*
X17599909Y-12410154D02*
X17618957Y-12400630D01*
X17771338Y-12581582D02*
X17780861Y-12591106D01*
X17780861Y-12591106D02*
X17771338Y-12600630D01*
X17771338Y-12600630D02*
X17761814Y-12591106D01*
X17761814Y-12591106D02*
X17771338Y-12581582D01*
X17771338Y-12581582D02*
X17771338Y-12600630D01*
X17904671Y-12400630D02*
X17923719Y-12400630D01*
X17923719Y-12400630D02*
X17942766Y-12410154D01*
X17942766Y-12410154D02*
X17952290Y-12419678D01*
X17952290Y-12419678D02*
X17961814Y-12438725D01*
X17961814Y-12438725D02*
X17971338Y-12476820D01*
X17971338Y-12476820D02*
X17971338Y-12524439D01*
X17971338Y-12524439D02*
X17961814Y-12562535D01*
X17961814Y-12562535D02*
X17952290Y-12581582D01*
X17952290Y-12581582D02*
X17942766Y-12591106D01*
X17942766Y-12591106D02*
X17923719Y-12600630D01*
X17923719Y-12600630D02*
X17904671Y-12600630D01*
X17904671Y-12600630D02*
X17885623Y-12591106D01*
X17885623Y-12591106D02*
X17876100Y-12581582D01*
X17876100Y-12581582D02*
X17866576Y-12562535D01*
X17866576Y-12562535D02*
X17857052Y-12524439D01*
X17857052Y-12524439D02*
X17857052Y-12476820D01*
X17857052Y-12476820D02*
X17866576Y-12438725D01*
X17866576Y-12438725D02*
X17876100Y-12419678D01*
X17876100Y-12419678D02*
X17885623Y-12410154D01*
X17885623Y-12410154D02*
X17904671Y-12400630D01*
X18038004Y-12400630D02*
X18161814Y-12400630D01*
X18161814Y-12400630D02*
X18095147Y-12476820D01*
X18095147Y-12476820D02*
X18123719Y-12476820D01*
X18123719Y-12476820D02*
X18142766Y-12486344D01*
X18142766Y-12486344D02*
X18152290Y-12495868D01*
X18152290Y-12495868D02*
X18161814Y-12514916D01*
X18161814Y-12514916D02*
X18161814Y-12562535D01*
X18161814Y-12562535D02*
X18152290Y-12581582D01*
X18152290Y-12581582D02*
X18142766Y-12591106D01*
X18142766Y-12591106D02*
X18123719Y-12600630D01*
X18123719Y-12600630D02*
X18066576Y-12600630D01*
X18066576Y-12600630D02*
X18047528Y-12591106D01*
X18047528Y-12591106D02*
X18038004Y-12581582D01*
X18257052Y-12600630D02*
X18295147Y-12600630D01*
X18295147Y-12600630D02*
X18314195Y-12591106D01*
X18314195Y-12591106D02*
X18323719Y-12581582D01*
X18323719Y-12581582D02*
X18342766Y-12553011D01*
X18342766Y-12553011D02*
X18352290Y-12514916D01*
X18352290Y-12514916D02*
X18352290Y-12438725D01*
X18352290Y-12438725D02*
X18342766Y-12419678D01*
X18342766Y-12419678D02*
X18333242Y-12410154D01*
X18333242Y-12410154D02*
X18314195Y-12400630D01*
X18314195Y-12400630D02*
X18276100Y-12400630D01*
X18276100Y-12400630D02*
X18257052Y-12410154D01*
X18257052Y-12410154D02*
X18247528Y-12419678D01*
X18247528Y-12419678D02*
X18238004Y-12438725D01*
X18238004Y-12438725D02*
X18238004Y-12486344D01*
X18238004Y-12486344D02*
X18247528Y-12505392D01*
X18247528Y-12505392D02*
X18257052Y-12514916D01*
X18257052Y-12514916D02*
X18276100Y-12524439D01*
X18276100Y-12524439D02*
X18314195Y-12524439D01*
X18314195Y-12524439D02*
X18333242Y-12514916D01*
X18333242Y-12514916D02*
X18342766Y-12505392D01*
X18342766Y-12505392D02*
X18352290Y-12486344D01*
X18476100Y-12400630D02*
X18495147Y-12400630D01*
X18495147Y-12400630D02*
X18514195Y-12410154D01*
X18514195Y-12410154D02*
X18523719Y-12419678D01*
X18523719Y-12419678D02*
X18533242Y-12438725D01*
X18533242Y-12438725D02*
X18542766Y-12476820D01*
X18542766Y-12476820D02*
X18542766Y-12524439D01*
X18542766Y-12524439D02*
X18533242Y-12562535D01*
X18533242Y-12562535D02*
X18523719Y-12581582D01*
X18523719Y-12581582D02*
X18514195Y-12591106D01*
X18514195Y-12591106D02*
X18495147Y-12600630D01*
X18495147Y-12600630D02*
X18476100Y-12600630D01*
X18476100Y-12600630D02*
X18457052Y-12591106D01*
X18457052Y-12591106D02*
X18447528Y-12581582D01*
X18447528Y-12581582D02*
X18438004Y-12562535D01*
X18438004Y-12562535D02*
X18428481Y-12524439D01*
X18428481Y-12524439D02*
X18428481Y-12476820D01*
X18428481Y-12476820D02*
X18438004Y-12438725D01*
X18438004Y-12438725D02*
X18447528Y-12419678D01*
X18447528Y-12419678D02*
X18457052Y-12410154D01*
X18457052Y-12410154D02*
X18476100Y-12400630D01*
X18618957Y-12400630D02*
X18618957Y-12438725D01*
X18695147Y-12400630D02*
X18695147Y-12438725D01*
X18990385Y-12676820D02*
X18980862Y-12667297D01*
X18980862Y-12667297D02*
X18961814Y-12638725D01*
X18961814Y-12638725D02*
X18952290Y-12619678D01*
X18952290Y-12619678D02*
X18942766Y-12591106D01*
X18942766Y-12591106D02*
X18933243Y-12543487D01*
X18933243Y-12543487D02*
X18933243Y-12505392D01*
X18933243Y-12505392D02*
X18942766Y-12457773D01*
X18942766Y-12457773D02*
X18952290Y-12429201D01*
X18952290Y-12429201D02*
X18961814Y-12410154D01*
X18961814Y-12410154D02*
X18980862Y-12381582D01*
X18980862Y-12381582D02*
X18990385Y-12372058D01*
X19152290Y-12467297D02*
X19152290Y-12600630D01*
X19104671Y-12391106D02*
X19057052Y-12533963D01*
X19057052Y-12533963D02*
X19180862Y-12533963D01*
X19409433Y-12600630D02*
X19409433Y-12400630D01*
X19495147Y-12600630D02*
X19495147Y-12495868D01*
X19495147Y-12495868D02*
X19485624Y-12476820D01*
X19485624Y-12476820D02*
X19466576Y-12467297D01*
X19466576Y-12467297D02*
X19438004Y-12467297D01*
X19438004Y-12467297D02*
X19418957Y-12476820D01*
X19418957Y-12476820D02*
X19409433Y-12486344D01*
X19618957Y-12600630D02*
X19599909Y-12591106D01*
X19599909Y-12591106D02*
X19590385Y-12581582D01*
X19590385Y-12581582D02*
X19580862Y-12562535D01*
X19580862Y-12562535D02*
X19580862Y-12505392D01*
X19580862Y-12505392D02*
X19590385Y-12486344D01*
X19590385Y-12486344D02*
X19599909Y-12476820D01*
X19599909Y-12476820D02*
X19618957Y-12467297D01*
X19618957Y-12467297D02*
X19647528Y-12467297D01*
X19647528Y-12467297D02*
X19666576Y-12476820D01*
X19666576Y-12476820D02*
X19676100Y-12486344D01*
X19676100Y-12486344D02*
X19685624Y-12505392D01*
X19685624Y-12505392D02*
X19685624Y-12562535D01*
X19685624Y-12562535D02*
X19676100Y-12581582D01*
X19676100Y-12581582D02*
X19666576Y-12591106D01*
X19666576Y-12591106D02*
X19647528Y-12600630D01*
X19647528Y-12600630D02*
X19618957Y-12600630D01*
X19799909Y-12600630D02*
X19780862Y-12591106D01*
X19780862Y-12591106D02*
X19771338Y-12572058D01*
X19771338Y-12572058D02*
X19771338Y-12400630D01*
X19952290Y-12591106D02*
X19933243Y-12600630D01*
X19933243Y-12600630D02*
X19895147Y-12600630D01*
X19895147Y-12600630D02*
X19876100Y-12591106D01*
X19876100Y-12591106D02*
X19866576Y-12572058D01*
X19866576Y-12572058D02*
X19866576Y-12495868D01*
X19866576Y-12495868D02*
X19876100Y-12476820D01*
X19876100Y-12476820D02*
X19895147Y-12467297D01*
X19895147Y-12467297D02*
X19933243Y-12467297D01*
X19933243Y-12467297D02*
X19952290Y-12476820D01*
X19952290Y-12476820D02*
X19961814Y-12495868D01*
X19961814Y-12495868D02*
X19961814Y-12514916D01*
X19961814Y-12514916D02*
X19866576Y-12533963D01*
X20038005Y-12591106D02*
X20057052Y-12600630D01*
X20057052Y-12600630D02*
X20095147Y-12600630D01*
X20095147Y-12600630D02*
X20114195Y-12591106D01*
X20114195Y-12591106D02*
X20123719Y-12572058D01*
X20123719Y-12572058D02*
X20123719Y-12562535D01*
X20123719Y-12562535D02*
X20114195Y-12543487D01*
X20114195Y-12543487D02*
X20095147Y-12533963D01*
X20095147Y-12533963D02*
X20066576Y-12533963D01*
X20066576Y-12533963D02*
X20047528Y-12524439D01*
X20047528Y-12524439D02*
X20038005Y-12505392D01*
X20038005Y-12505392D02*
X20038005Y-12495868D01*
X20038005Y-12495868D02*
X20047528Y-12476820D01*
X20047528Y-12476820D02*
X20066576Y-12467297D01*
X20066576Y-12467297D02*
X20095147Y-12467297D01*
X20095147Y-12467297D02*
X20114195Y-12476820D01*
X20190386Y-12676820D02*
X20199909Y-12667297D01*
X20199909Y-12667297D02*
X20218957Y-12638725D01*
X20218957Y-12638725D02*
X20228481Y-12619678D01*
X20228481Y-12619678D02*
X20238005Y-12591106D01*
X20238005Y-12591106D02*
X20247528Y-12543487D01*
X20247528Y-12543487D02*
X20247528Y-12505392D01*
X20247528Y-12505392D02*
X20238005Y-12457773D01*
X20238005Y-12457773D02*
X20228481Y-12429201D01*
X20228481Y-12429201D02*
X20218957Y-12410154D01*
X20218957Y-12410154D02*
X20199909Y-12381582D01*
X20199909Y-12381582D02*
X20190386Y-12372058D01*
D13*
X15350322Y-12708146D02*
X15350322Y-12838146D01*
X15285322Y-12773146D02*
X15415322Y-12773146D01*
D11*
X15780861Y-12864630D02*
X15666575Y-12864630D01*
X15723718Y-12864630D02*
X15723718Y-12664630D01*
X15723718Y-12664630D02*
X15704671Y-12693201D01*
X15704671Y-12693201D02*
X15685623Y-12712249D01*
X15685623Y-12712249D02*
X15666575Y-12721773D01*
X15866575Y-12845582D02*
X15876099Y-12855106D01*
X15876099Y-12855106D02*
X15866575Y-12864630D01*
X15866575Y-12864630D02*
X15857052Y-12855106D01*
X15857052Y-12855106D02*
X15866575Y-12845582D01*
X15866575Y-12845582D02*
X15866575Y-12864630D01*
X15942766Y-12664630D02*
X16066575Y-12664630D01*
X16066575Y-12664630D02*
X15999909Y-12740820D01*
X15999909Y-12740820D02*
X16028480Y-12740820D01*
X16028480Y-12740820D02*
X16047528Y-12750344D01*
X16047528Y-12750344D02*
X16057052Y-12759868D01*
X16057052Y-12759868D02*
X16066575Y-12778916D01*
X16066575Y-12778916D02*
X16066575Y-12826535D01*
X16066575Y-12826535D02*
X16057052Y-12845582D01*
X16057052Y-12845582D02*
X16047528Y-12855106D01*
X16047528Y-12855106D02*
X16028480Y-12864630D01*
X16028480Y-12864630D02*
X15971337Y-12864630D01*
X15971337Y-12864630D02*
X15952290Y-12855106D01*
X15952290Y-12855106D02*
X15942766Y-12845582D01*
X16190385Y-12664630D02*
X16209433Y-12664630D01*
X16209433Y-12664630D02*
X16228480Y-12674154D01*
X16228480Y-12674154D02*
X16238004Y-12683678D01*
X16238004Y-12683678D02*
X16247528Y-12702725D01*
X16247528Y-12702725D02*
X16257052Y-12740820D01*
X16257052Y-12740820D02*
X16257052Y-12788439D01*
X16257052Y-12788439D02*
X16247528Y-12826535D01*
X16247528Y-12826535D02*
X16238004Y-12845582D01*
X16238004Y-12845582D02*
X16228480Y-12855106D01*
X16228480Y-12855106D02*
X16209433Y-12864630D01*
X16209433Y-12864630D02*
X16190385Y-12864630D01*
X16190385Y-12864630D02*
X16171337Y-12855106D01*
X16171337Y-12855106D02*
X16161814Y-12845582D01*
X16161814Y-12845582D02*
X16152290Y-12826535D01*
X16152290Y-12826535D02*
X16142766Y-12788439D01*
X16142766Y-12788439D02*
X16142766Y-12740820D01*
X16142766Y-12740820D02*
X16152290Y-12702725D01*
X16152290Y-12702725D02*
X16161814Y-12683678D01*
X16161814Y-12683678D02*
X16171337Y-12674154D01*
X16171337Y-12674154D02*
X16190385Y-12664630D01*
X16380861Y-12664630D02*
X16399909Y-12664630D01*
X16399909Y-12664630D02*
X16418956Y-12674154D01*
X16418956Y-12674154D02*
X16428480Y-12683678D01*
X16428480Y-12683678D02*
X16438004Y-12702725D01*
X16438004Y-12702725D02*
X16447528Y-12740820D01*
X16447528Y-12740820D02*
X16447528Y-12788439D01*
X16447528Y-12788439D02*
X16438004Y-12826535D01*
X16438004Y-12826535D02*
X16428480Y-12845582D01*
X16428480Y-12845582D02*
X16418956Y-12855106D01*
X16418956Y-12855106D02*
X16399909Y-12864630D01*
X16399909Y-12864630D02*
X16380861Y-12864630D01*
X16380861Y-12864630D02*
X16361814Y-12855106D01*
X16361814Y-12855106D02*
X16352290Y-12845582D01*
X16352290Y-12845582D02*
X16342766Y-12826535D01*
X16342766Y-12826535D02*
X16333242Y-12788439D01*
X16333242Y-12788439D02*
X16333242Y-12740820D01*
X16333242Y-12740820D02*
X16342766Y-12702725D01*
X16342766Y-12702725D02*
X16352290Y-12683678D01*
X16352290Y-12683678D02*
X16361814Y-12674154D01*
X16361814Y-12674154D02*
X16380861Y-12664630D01*
X16533242Y-12864630D02*
X16533242Y-12731297D01*
X16533242Y-12750344D02*
X16542766Y-12740820D01*
X16542766Y-12740820D02*
X16561814Y-12731297D01*
X16561814Y-12731297D02*
X16590385Y-12731297D01*
X16590385Y-12731297D02*
X16609433Y-12740820D01*
X16609433Y-12740820D02*
X16618956Y-12759868D01*
X16618956Y-12759868D02*
X16618956Y-12864630D01*
X16618956Y-12759868D02*
X16628480Y-12740820D01*
X16628480Y-12740820D02*
X16647528Y-12731297D01*
X16647528Y-12731297D02*
X16676099Y-12731297D01*
X16676099Y-12731297D02*
X16695147Y-12740820D01*
X16695147Y-12740820D02*
X16704671Y-12759868D01*
X16704671Y-12759868D02*
X16704671Y-12864630D01*
X16799909Y-12864630D02*
X16799909Y-12731297D01*
X16799909Y-12750344D02*
X16809433Y-12740820D01*
X16809433Y-12740820D02*
X16828480Y-12731297D01*
X16828480Y-12731297D02*
X16857052Y-12731297D01*
X16857052Y-12731297D02*
X16876099Y-12740820D01*
X16876099Y-12740820D02*
X16885623Y-12759868D01*
X16885623Y-12759868D02*
X16885623Y-12864630D01*
X16885623Y-12759868D02*
X16895147Y-12740820D01*
X16895147Y-12740820D02*
X16914195Y-12731297D01*
X16914195Y-12731297D02*
X16942766Y-12731297D01*
X16942766Y-12731297D02*
X16961814Y-12740820D01*
X16961814Y-12740820D02*
X16971338Y-12759868D01*
X16971338Y-12759868D02*
X16971338Y-12864630D01*
X17361814Y-12655106D02*
X17190385Y-12912249D01*
X17618957Y-12664630D02*
X17638004Y-12664630D01*
X17638004Y-12664630D02*
X17657052Y-12674154D01*
X17657052Y-12674154D02*
X17666576Y-12683678D01*
X17666576Y-12683678D02*
X17676100Y-12702725D01*
X17676100Y-12702725D02*
X17685623Y-12740820D01*
X17685623Y-12740820D02*
X17685623Y-12788439D01*
X17685623Y-12788439D02*
X17676100Y-12826535D01*
X17676100Y-12826535D02*
X17666576Y-12845582D01*
X17666576Y-12845582D02*
X17657052Y-12855106D01*
X17657052Y-12855106D02*
X17638004Y-12864630D01*
X17638004Y-12864630D02*
X17618957Y-12864630D01*
X17618957Y-12864630D02*
X17599909Y-12855106D01*
X17599909Y-12855106D02*
X17590385Y-12845582D01*
X17590385Y-12845582D02*
X17580861Y-12826535D01*
X17580861Y-12826535D02*
X17571338Y-12788439D01*
X17571338Y-12788439D02*
X17571338Y-12740820D01*
X17571338Y-12740820D02*
X17580861Y-12702725D01*
X17580861Y-12702725D02*
X17590385Y-12683678D01*
X17590385Y-12683678D02*
X17599909Y-12674154D01*
X17599909Y-12674154D02*
X17618957Y-12664630D01*
X17771338Y-12845582D02*
X17780861Y-12855106D01*
X17780861Y-12855106D02*
X17771338Y-12864630D01*
X17771338Y-12864630D02*
X17761814Y-12855106D01*
X17761814Y-12855106D02*
X17771338Y-12845582D01*
X17771338Y-12845582D02*
X17771338Y-12864630D01*
X17904671Y-12664630D02*
X17923719Y-12664630D01*
X17923719Y-12664630D02*
X17942766Y-12674154D01*
X17942766Y-12674154D02*
X17952290Y-12683678D01*
X17952290Y-12683678D02*
X17961814Y-12702725D01*
X17961814Y-12702725D02*
X17971338Y-12740820D01*
X17971338Y-12740820D02*
X17971338Y-12788439D01*
X17971338Y-12788439D02*
X17961814Y-12826535D01*
X17961814Y-12826535D02*
X17952290Y-12845582D01*
X17952290Y-12845582D02*
X17942766Y-12855106D01*
X17942766Y-12855106D02*
X17923719Y-12864630D01*
X17923719Y-12864630D02*
X17904671Y-12864630D01*
X17904671Y-12864630D02*
X17885623Y-12855106D01*
X17885623Y-12855106D02*
X17876100Y-12845582D01*
X17876100Y-12845582D02*
X17866576Y-12826535D01*
X17866576Y-12826535D02*
X17857052Y-12788439D01*
X17857052Y-12788439D02*
X17857052Y-12740820D01*
X17857052Y-12740820D02*
X17866576Y-12702725D01*
X17866576Y-12702725D02*
X17876100Y-12683678D01*
X17876100Y-12683678D02*
X17885623Y-12674154D01*
X17885623Y-12674154D02*
X17904671Y-12664630D01*
X18152290Y-12664630D02*
X18057052Y-12664630D01*
X18057052Y-12664630D02*
X18047528Y-12759868D01*
X18047528Y-12759868D02*
X18057052Y-12750344D01*
X18057052Y-12750344D02*
X18076100Y-12740820D01*
X18076100Y-12740820D02*
X18123719Y-12740820D01*
X18123719Y-12740820D02*
X18142766Y-12750344D01*
X18142766Y-12750344D02*
X18152290Y-12759868D01*
X18152290Y-12759868D02*
X18161814Y-12778916D01*
X18161814Y-12778916D02*
X18161814Y-12826535D01*
X18161814Y-12826535D02*
X18152290Y-12845582D01*
X18152290Y-12845582D02*
X18142766Y-12855106D01*
X18142766Y-12855106D02*
X18123719Y-12864630D01*
X18123719Y-12864630D02*
X18076100Y-12864630D01*
X18076100Y-12864630D02*
X18057052Y-12855106D01*
X18057052Y-12855106D02*
X18047528Y-12845582D01*
X18352290Y-12864630D02*
X18238004Y-12864630D01*
X18295147Y-12864630D02*
X18295147Y-12664630D01*
X18295147Y-12664630D02*
X18276100Y-12693201D01*
X18276100Y-12693201D02*
X18257052Y-12712249D01*
X18257052Y-12712249D02*
X18238004Y-12721773D01*
X18428481Y-12683678D02*
X18438004Y-12674154D01*
X18438004Y-12674154D02*
X18457052Y-12664630D01*
X18457052Y-12664630D02*
X18504671Y-12664630D01*
X18504671Y-12664630D02*
X18523719Y-12674154D01*
X18523719Y-12674154D02*
X18533242Y-12683678D01*
X18533242Y-12683678D02*
X18542766Y-12702725D01*
X18542766Y-12702725D02*
X18542766Y-12721773D01*
X18542766Y-12721773D02*
X18533242Y-12750344D01*
X18533242Y-12750344D02*
X18418957Y-12864630D01*
X18418957Y-12864630D02*
X18542766Y-12864630D01*
X18618957Y-12664630D02*
X18618957Y-12702725D01*
X18695147Y-12664630D02*
X18695147Y-12702725D01*
X18990385Y-12940820D02*
X18980862Y-12931297D01*
X18980862Y-12931297D02*
X18961814Y-12902725D01*
X18961814Y-12902725D02*
X18952290Y-12883678D01*
X18952290Y-12883678D02*
X18942766Y-12855106D01*
X18942766Y-12855106D02*
X18933243Y-12807487D01*
X18933243Y-12807487D02*
X18933243Y-12769392D01*
X18933243Y-12769392D02*
X18942766Y-12721773D01*
X18942766Y-12721773D02*
X18952290Y-12693201D01*
X18952290Y-12693201D02*
X18961814Y-12674154D01*
X18961814Y-12674154D02*
X18980862Y-12645582D01*
X18980862Y-12645582D02*
X18990385Y-12636058D01*
X19076100Y-12864630D02*
X19114195Y-12864630D01*
X19114195Y-12864630D02*
X19133243Y-12855106D01*
X19133243Y-12855106D02*
X19142766Y-12845582D01*
X19142766Y-12845582D02*
X19161814Y-12817011D01*
X19161814Y-12817011D02*
X19171338Y-12778916D01*
X19171338Y-12778916D02*
X19171338Y-12702725D01*
X19171338Y-12702725D02*
X19161814Y-12683678D01*
X19161814Y-12683678D02*
X19152290Y-12674154D01*
X19152290Y-12674154D02*
X19133243Y-12664630D01*
X19133243Y-12664630D02*
X19095147Y-12664630D01*
X19095147Y-12664630D02*
X19076100Y-12674154D01*
X19076100Y-12674154D02*
X19066576Y-12683678D01*
X19066576Y-12683678D02*
X19057052Y-12702725D01*
X19057052Y-12702725D02*
X19057052Y-12750344D01*
X19057052Y-12750344D02*
X19066576Y-12769392D01*
X19066576Y-12769392D02*
X19076100Y-12778916D01*
X19076100Y-12778916D02*
X19095147Y-12788439D01*
X19095147Y-12788439D02*
X19133243Y-12788439D01*
X19133243Y-12788439D02*
X19152290Y-12778916D01*
X19152290Y-12778916D02*
X19161814Y-12769392D01*
X19161814Y-12769392D02*
X19171338Y-12750344D01*
X19409433Y-12864630D02*
X19409433Y-12664630D01*
X19495147Y-12864630D02*
X19495147Y-12759868D01*
X19495147Y-12759868D02*
X19485624Y-12740820D01*
X19485624Y-12740820D02*
X19466576Y-12731297D01*
X19466576Y-12731297D02*
X19438004Y-12731297D01*
X19438004Y-12731297D02*
X19418957Y-12740820D01*
X19418957Y-12740820D02*
X19409433Y-12750344D01*
X19618957Y-12864630D02*
X19599909Y-12855106D01*
X19599909Y-12855106D02*
X19590385Y-12845582D01*
X19590385Y-12845582D02*
X19580862Y-12826535D01*
X19580862Y-12826535D02*
X19580862Y-12769392D01*
X19580862Y-12769392D02*
X19590385Y-12750344D01*
X19590385Y-12750344D02*
X19599909Y-12740820D01*
X19599909Y-12740820D02*
X19618957Y-12731297D01*
X19618957Y-12731297D02*
X19647528Y-12731297D01*
X19647528Y-12731297D02*
X19666576Y-12740820D01*
X19666576Y-12740820D02*
X19676100Y-12750344D01*
X19676100Y-12750344D02*
X19685624Y-12769392D01*
X19685624Y-12769392D02*
X19685624Y-12826535D01*
X19685624Y-12826535D02*
X19676100Y-12845582D01*
X19676100Y-12845582D02*
X19666576Y-12855106D01*
X19666576Y-12855106D02*
X19647528Y-12864630D01*
X19647528Y-12864630D02*
X19618957Y-12864630D01*
X19799909Y-12864630D02*
X19780862Y-12855106D01*
X19780862Y-12855106D02*
X19771338Y-12836058D01*
X19771338Y-12836058D02*
X19771338Y-12664630D01*
X19952290Y-12855106D02*
X19933243Y-12864630D01*
X19933243Y-12864630D02*
X19895147Y-12864630D01*
X19895147Y-12864630D02*
X19876100Y-12855106D01*
X19876100Y-12855106D02*
X19866576Y-12836058D01*
X19866576Y-12836058D02*
X19866576Y-12759868D01*
X19866576Y-12759868D02*
X19876100Y-12740820D01*
X19876100Y-12740820D02*
X19895147Y-12731297D01*
X19895147Y-12731297D02*
X19933243Y-12731297D01*
X19933243Y-12731297D02*
X19952290Y-12740820D01*
X19952290Y-12740820D02*
X19961814Y-12759868D01*
X19961814Y-12759868D02*
X19961814Y-12778916D01*
X19961814Y-12778916D02*
X19866576Y-12797963D01*
X20038005Y-12855106D02*
X20057052Y-12864630D01*
X20057052Y-12864630D02*
X20095147Y-12864630D01*
X20095147Y-12864630D02*
X20114195Y-12855106D01*
X20114195Y-12855106D02*
X20123719Y-12836058D01*
X20123719Y-12836058D02*
X20123719Y-12826535D01*
X20123719Y-12826535D02*
X20114195Y-12807487D01*
X20114195Y-12807487D02*
X20095147Y-12797963D01*
X20095147Y-12797963D02*
X20066576Y-12797963D01*
X20066576Y-12797963D02*
X20047528Y-12788439D01*
X20047528Y-12788439D02*
X20038005Y-12769392D01*
X20038005Y-12769392D02*
X20038005Y-12759868D01*
X20038005Y-12759868D02*
X20047528Y-12740820D01*
X20047528Y-12740820D02*
X20066576Y-12731297D01*
X20066576Y-12731297D02*
X20095147Y-12731297D01*
X20095147Y-12731297D02*
X20114195Y-12740820D01*
X20190386Y-12940820D02*
X20199909Y-12931297D01*
X20199909Y-12931297D02*
X20218957Y-12902725D01*
X20218957Y-12902725D02*
X20228481Y-12883678D01*
X20228481Y-12883678D02*
X20238005Y-12855106D01*
X20238005Y-12855106D02*
X20247528Y-12807487D01*
X20247528Y-12807487D02*
X20247528Y-12769392D01*
X20247528Y-12769392D02*
X20238005Y-12721773D01*
X20238005Y-12721773D02*
X20228481Y-12693201D01*
X20228481Y-12693201D02*
X20218957Y-12674154D01*
X20218957Y-12674154D02*
X20199909Y-12645582D01*
X20199909Y-12645582D02*
X20190386Y-12636058D01*
M02*
