M48
; DRILL file {KiCad 7.0.11} date Fri Sep 12 17:02:47 2025
; FORMAT={-:-/ absolute / inch / decimal}
; #@! TF.CreationDate,2025-09-12T17:02:47-04:00
; #@! TF.GenerationSoftware,Kicad,Pcbnew,7.0.11
; #@! TF.FileFunction,Plated,1,2,PTH
FMAT,2
INCH
; #@! TA.AperFunction,Plated,PTH,ViaDrill
T1C0.0118
; #@! TA.AperFunction,Plated,PTH,ViaDrill
T2C0.0138
; #@! TA.AperFunction,Plated,PTH,ViaDrill
T3C0.0157
; #@! TA.AperFunction,Plated,PTH,ComponentDrill
T4C0.0276
; #@! TA.AperFunction,Plated,PTH,ComponentDrill
T5C0.0390
; #@! TA.AperFunction,Plated,PTH,ComponentDrill
T6C0.0512
%
G90
G05
T1
X4.565Y-3.1453
X4.6378Y-3.3215
X4.6929Y-4.2913
X4.7323Y-3.1811
T2
X4.6295Y-4.2526
T3
X3.1238Y-3.0307
X3.1288Y-4.2407
X3.1288Y-4.4407
X3.1288Y-4.6407
X3.1338Y-4.0407
X3.1388Y-3.2407
X3.1438Y-3.4407
X3.1438Y-3.6407
X3.1438Y-3.8407
X3.1838Y-4.4407
X3.1838Y-4.6407
X3.1888Y-3.0307
X3.1988Y-4.0407
X3.1988Y-4.2407
X3.2038Y-3.4407
X3.2088Y-3.2407
X3.2088Y-3.8407
X3.2138Y-3.6407
X3.2388Y-4.6407
X3.2438Y-4.4407
X3.2588Y-3.0307
X3.2588Y-4.0407
X3.2588Y-4.2407
X3.2688Y-3.4407
X3.2688Y-3.8407
X3.2788Y-3.2407
X3.2788Y-3.6407
X3.5118Y-3.3386
X3.5338Y-4.5207
X3.5433Y-3.3386
X3.6693Y-3.9449
X3.7669Y-3.9545
X3.8938Y-4.1512
X4.0551Y-2.6535
X4.0602Y-4.5469
X4.0622Y-5.1764
X4.0622Y-5.2165
X4.0626Y-5.2575
X4.063Y-3.9496
X4.0657Y-3.3748
X4.1575Y-2.8898
X4.1732Y-3.5433
X4.1811Y-4.5827
X4.189Y-2.6457
X4.2205Y-3.4016
X4.2205Y-4.6142
X4.2283Y-2.8268
X4.285Y-3.9787
X4.2992Y-3.4567
X4.3071Y-2.7953
X4.3071Y-4.6299
X4.3105Y-3.957
X4.315Y-4.6772
X4.3228Y-3.4331
X4.3228Y-4.5512
X4.3409Y-2.7614
X4.3543Y-3.1969
X4.3622Y-3.1496
X4.3622Y-4.0315
X4.3685Y-3.4791
X4.3732Y-3.7575
X4.3749Y-2.8456
X4.376Y-4.1024
X4.3858Y-4.0079
X4.3929Y-3.4547
X4.3937Y-2.9213
X4.4Y-4.0772
X4.4016Y-2.8657
X4.4016Y-4.6457
X4.4016Y-4.685
X4.4043Y-3.3217
X4.4067Y-3.4933
X4.4108Y-3.622
X4.4173Y-4.8898
X4.4173Y-4.9449
X4.4409Y-3.1102
X4.4409Y-3.5512
X4.4516Y-3.7858
X4.4528Y-3.6868
X4.4531Y-4.2362
X4.4882Y-5.2441
X4.4961Y-4.8819
X4.5083Y-3.8339
X4.5118Y-3.4094
X4.512Y-3.8731
X4.5122Y-4.4642
X4.5133Y-3.1481
X4.5134Y-3.922
X4.5197Y-4.1969
X4.5198Y-3.2282
X4.5274Y-3.0906
X4.5303Y-3.0232
X4.5311Y-3.2811
X4.5335Y-4.411
X4.5433Y-2.6772
X4.5433Y-5.2441
X4.5512Y-2.7559
X4.5517Y-4.5928
X4.5556Y-4.9573
X4.5563Y-3.7185
X4.5591Y-4.3307
X4.5642Y-4.6799
X4.5669Y-4.1039
X4.5709Y-3.6512
X4.5748Y-3.2756
X4.5827Y-2.811
X4.5906Y-5.2441
X4.5917Y-3.7858
X4.5945Y-4.2583
X4.5984Y-2.8661
X4.5984Y-4.5276
X4.6106Y-4.7839
X4.6142Y-3.9764
X4.6142Y-4.0157
X4.6197Y-4.6559
X4.6378Y-5.2441
X4.6457Y-3.4331
X4.6537Y-3.1065
X4.6686Y-2.964
X4.6693Y-4.6457
X4.675Y-3.5635
X4.6795Y-2.9262
X4.6885Y-3.0166
X4.6929Y-3.748
X4.7198Y-3.1372
X4.7402Y-4.6378
X4.7906Y-3.626
X4.7906Y-3.6752
X4.8398Y-3.0197
X4.8409Y-3.0693
X4.8472Y-3.4504
X4.8555Y-4.2319
X4.8563Y-3.626
X4.8563Y-3.6736
X4.8563Y-4.2736
X4.8606Y-4.8748
X4.861Y-4.0472
X4.861Y-4.8272
X4.8732Y-2.848
X4.876Y-3.0665
X4.8772Y-3.0197
X4.8898Y-4.6772
X4.8917Y-4.874
X4.8921Y-4.8256
T4
X4.7087Y-2.6535
X4.7087Y-3.2362
X4.7087Y-4.4016
X4.7165Y-3.8346
T5
X3.4709Y-4.9594
X3.5693Y-4.9594
X3.6677Y-4.9594
X3.7661Y-4.9594
X4.2961Y-5.148
X4.3945Y-5.148
X4.4929Y-5.148
X4.5913Y-5.148
T6
X3.6457Y-4.448
X3.6457Y-4.648
X3.6472Y-2.848
X3.6472Y-3.048
X3.6472Y-3.248
X3.6472Y-3.448
X3.6472Y-3.648
X3.6472Y-3.848
X3.6472Y-4.048
X3.6472Y-4.248
X4.2323Y-2.7165
X4.2323Y-2.9165
X4.2323Y-3.1165
X4.2323Y-3.5039
X4.2323Y-3.7039
X4.2323Y-4.0945
X4.2323Y-4.2945
X4.2323Y-4.7008
X4.2323Y-4.9008
M30
