%TF.GenerationSoftware,KiCad,Pcbnew,7.0.11*%
%TF.CreationDate,2025-09-14T18:22:29-04:00*%
%TF.ProjectId,14.1.7 - PMOS - PLC Connector Combined,31342e31-2e37-4202-9d20-504d4f53202d,rev?*%
%TF.SameCoordinates,Original*%
%TF.FileFunction,Soldermask,Top*%
%TF.FilePolarity,Negative*%
%FSLAX46Y46*%
G04 Gerber Fmt 4.6, Leading zero omitted, Abs format (unit mm)*
G04 Created by KiCad (PCBNEW 7.0.11) date 2025-09-14 18:22:29*
%MOMM*%
%LPD*%
G01*
G04 APERTURE LIST*
G04 Aperture macros list*
%AMRoundRect*
0 Rectangle with rounded corners*
0 $1 Rounding radius*
0 $2 $3 $4 $5 $6 $7 $8 $9 X,Y pos of 4 corners*
0 Add a 4 corners polygon primitive as box body*
4,1,4,$2,$3,$4,$5,$6,$7,$8,$9,$2,$3,0*
0 Add four circle primitives for the rounded corners*
1,1,$1+$1,$2,$3*
1,1,$1+$1,$4,$5*
1,1,$1+$1,$6,$7*
1,1,$1+$1,$8,$9*
0 Add four rect primitives between the rounded corners*
20,1,$1+$1,$2,$3,$4,$5,0*
20,1,$1+$1,$4,$5,$6,$7,0*
20,1,$1+$1,$6,$7,$8,$9,0*
20,1,$1+$1,$8,$9,$2,$3,0*%
G04 Aperture macros list end*
%ADD10RoundRect,0.200000X-0.275000X0.200000X-0.275000X-0.200000X0.275000X-0.200000X0.275000X0.200000X0*%
%ADD11RoundRect,0.125000X0.125000X-0.125000X0.125000X0.125000X-0.125000X0.125000X-0.125000X-0.125000X0*%
%ADD12C,1.950000*%
%ADD13R,1.950000X1.950000*%
%ADD14RoundRect,0.572500X-3.045750X-0.572500X3.045750X-0.572500X3.045750X0.572500X-3.045750X0.572500X0*%
%ADD15C,0.500000*%
%ADD16RoundRect,0.200000X0.275000X-0.200000X0.275000X0.200000X-0.275000X0.200000X-0.275000X-0.200000X0*%
%ADD17RoundRect,0.218750X0.256250X-0.218750X0.256250X0.218750X-0.256250X0.218750X-0.256250X-0.218750X0*%
%ADD18RoundRect,0.125000X-0.125000X0.125000X-0.125000X-0.125000X0.125000X-0.125000X0.125000X0.125000X0*%
%ADD19C,1.250000*%
%ADD20RoundRect,0.200000X0.200000X0.275000X-0.200000X0.275000X-0.200000X-0.275000X0.200000X-0.275000X0*%
%ADD21RoundRect,0.250000X-0.650000X1.000000X-0.650000X-1.000000X0.650000X-1.000000X0.650000X1.000000X0*%
%ADD22RoundRect,0.150000X-0.150000X0.587500X-0.150000X-0.587500X0.150000X-0.587500X0.150000X0.587500X0*%
%ADD23RoundRect,0.200000X-0.200000X-0.275000X0.200000X-0.275000X0.200000X0.275000X-0.200000X0.275000X0*%
%ADD24RoundRect,0.375000X-0.625000X-0.375000X0.625000X-0.375000X0.625000X0.375000X-0.625000X0.375000X0*%
%ADD25RoundRect,0.500000X-0.500000X-1.400000X0.500000X-1.400000X0.500000X1.400000X-0.500000X1.400000X0*%
%ADD26RoundRect,0.250000X-1.000000X-0.650000X1.000000X-0.650000X1.000000X0.650000X-1.000000X0.650000X0*%
%ADD27RoundRect,0.125000X-0.125000X-0.125000X0.125000X-0.125000X0.125000X0.125000X-0.125000X0.125000X0*%
%ADD28RoundRect,0.250000X1.075000X-0.312500X1.075000X0.312500X-1.075000X0.312500X-1.075000X-0.312500X0*%
%ADD29RoundRect,0.250000X0.625000X-0.312500X0.625000X0.312500X-0.625000X0.312500X-0.625000X-0.312500X0*%
%ADD30C,1.498600*%
%ADD31RoundRect,0.125000X0.125000X0.125000X-0.125000X0.125000X-0.125000X-0.125000X0.125000X-0.125000X0*%
G04 APERTURE END LIST*
D10*
%TO.C,R3*%
X110880000Y-82750000D03*
X110880000Y-84400000D03*
%TD*%
%TO.C,R7*%
X110530000Y-113230000D03*
X110530000Y-114880000D03*
%TD*%
D11*
%TO.C,D13*%
X118840000Y-123980000D03*
X118840000Y-121780000D03*
%TD*%
D12*
%TO.C,J317*%
X107500000Y-89000000D03*
D13*
X107500000Y-94080000D03*
%TD*%
D14*
%TO.C,J302*%
X128210000Y-118050000D03*
%TD*%
D15*
%TO.C,mouse-bite-2mm-slot*%
X100550000Y-85890000D03*
X102050000Y-85890000D03*
X100550000Y-85140000D03*
X102050000Y-85140000D03*
X100550000Y-84390000D03*
X102050000Y-84390000D03*
%TD*%
D16*
%TO.C,R17*%
X119660000Y-77310000D03*
X119660000Y-75660000D03*
%TD*%
D15*
%TO.C,mouse-bite-2mm-slot*%
X100550000Y-127950000D03*
X102050000Y-127950000D03*
X100550000Y-127200000D03*
X102050000Y-127200000D03*
X100550000Y-126450000D03*
X102050000Y-126450000D03*
%TD*%
D10*
%TO.C,R205*%
X86000000Y-106175000D03*
X86000000Y-107825000D03*
%TD*%
D17*
%TO.C,D204*%
X84200000Y-93387500D03*
X84200000Y-91812500D03*
%TD*%
%TO.C,D3*%
X119690000Y-120455000D03*
X119690000Y-118880000D03*
%TD*%
D14*
%TO.C,J310*%
X128240000Y-72320000D03*
%TD*%
D18*
%TO.C,D7*%
X115040000Y-108642500D03*
X115040000Y-110842500D03*
%TD*%
D19*
%TO.C,J324*%
X119800000Y-97400000D03*
%TD*%
D16*
%TO.C,R5*%
X116700000Y-110840000D03*
X116700000Y-109190000D03*
%TD*%
D18*
%TO.C,D14*%
X113190000Y-108302500D03*
X113190000Y-110502500D03*
%TD*%
D19*
%TO.C,J325*%
X119600000Y-111800000D03*
%TD*%
D20*
%TO.C,R21*%
X114685000Y-92570000D03*
X113035000Y-92570000D03*
%TD*%
%TO.C,R14*%
X120025000Y-109800000D03*
X118375000Y-109800000D03*
%TD*%
D14*
%TO.C,J210*%
X74278250Y-72187224D03*
%TD*%
D18*
%TO.C,D11*%
X113110000Y-104942500D03*
X113110000Y-107142500D03*
%TD*%
D17*
%TO.C,D1*%
X119820000Y-74437500D03*
X119820000Y-72862500D03*
%TD*%
D14*
%TO.C,J209*%
X74278250Y-77245000D03*
%TD*%
D10*
%TO.C,R6*%
X110680000Y-98335000D03*
X110680000Y-99985000D03*
%TD*%
%TO.C,R206*%
X86000000Y-102150000D03*
X86000000Y-103800000D03*
%TD*%
D21*
%TO.C,D303*%
X104400000Y-128862500D03*
X104400000Y-132862500D03*
%TD*%
D22*
%TO.C,Q1*%
X116880000Y-119700000D03*
X114980000Y-119700000D03*
X115930000Y-121575000D03*
%TD*%
D23*
%TO.C,R18*%
X118415000Y-108200000D03*
X120065000Y-108200000D03*
%TD*%
D14*
%TO.C,J314*%
X128230000Y-102820000D03*
%TD*%
D16*
%TO.C,R208*%
X86000000Y-94225000D03*
X86000000Y-92575000D03*
%TD*%
D14*
%TO.C,J311*%
X128260000Y-92650000D03*
%TD*%
D24*
%TO.C,Q8*%
X113170000Y-98420000D03*
X113170000Y-100720000D03*
X113170000Y-103020000D03*
D25*
X119470000Y-100720000D03*
%TD*%
D14*
%TO.C,J206*%
X74308250Y-92488334D03*
%TD*%
D11*
%TO.C,D6*%
X112830000Y-91357500D03*
X112830000Y-89157500D03*
%TD*%
D14*
%TO.C,J306*%
X128180000Y-87590000D03*
%TD*%
%TO.C,J307*%
X128230000Y-123140000D03*
%TD*%
D26*
%TO.C,D302*%
X104120000Y-113990000D03*
X108120000Y-113990000D03*
%TD*%
D24*
%TO.C,Q6*%
X113300000Y-83007500D03*
X113300000Y-85307500D03*
X113300000Y-87607500D03*
D25*
X119600000Y-85307500D03*
%TD*%
D23*
%TO.C,R12*%
X118375000Y-106400000D03*
X120025000Y-106400000D03*
%TD*%
D27*
%TO.C,D15*%
X112350000Y-96140000D03*
X114550000Y-96140000D03*
%TD*%
D14*
%TO.C,J202*%
X74298250Y-112799446D03*
%TD*%
D17*
%TO.C,D203*%
X84200000Y-98387500D03*
X84200000Y-96812500D03*
%TD*%
D14*
%TO.C,J309*%
X128230000Y-77420000D03*
%TD*%
D22*
%TO.C,Q2*%
X116900000Y-105240000D03*
X115000000Y-105240000D03*
X115950000Y-107115000D03*
%TD*%
D11*
%TO.C,D5*%
X112800000Y-76017500D03*
X112800000Y-73817500D03*
%TD*%
D16*
%TO.C,R10*%
X119780000Y-93860000D03*
X119780000Y-92210000D03*
%TD*%
D28*
%TO.C,R204*%
X86600000Y-85262500D03*
X86600000Y-82337500D03*
%TD*%
D12*
%TO.C,J222*%
X92640000Y-97740000D03*
D13*
X92640000Y-92660000D03*
%TD*%
D14*
%TO.C,J203*%
X74308250Y-107721668D03*
%TD*%
D11*
%TO.C,D12*%
X113460000Y-125200000D03*
X113460000Y-123000000D03*
%TD*%
D29*
%TO.C,R202*%
X86400000Y-112462500D03*
X86400000Y-109537500D03*
%TD*%
D23*
%TO.C,R20*%
X113020000Y-94460000D03*
X114670000Y-94460000D03*
%TD*%
%TO.C,R4*%
X114135000Y-77680000D03*
X115785000Y-77680000D03*
%TD*%
D14*
%TO.C,J315*%
X128210000Y-107880000D03*
%TD*%
%TO.C,J208*%
X74298250Y-82342778D03*
%TD*%
D12*
%TO.C,J224*%
X92600000Y-118060000D03*
D13*
X92600000Y-112980000D03*
%TD*%
D12*
%TO.C,J320*%
X107500000Y-104000000D03*
D13*
X107500000Y-109080000D03*
%TD*%
D26*
%TO.C,D301*%
X104160000Y-98860000D03*
X108160000Y-98860000D03*
%TD*%
D29*
%TO.C,R201*%
X86400000Y-117800000D03*
X86400000Y-114875000D03*
%TD*%
D22*
%TO.C,Q3*%
X117120000Y-89315000D03*
X115220000Y-89315000D03*
X116170000Y-91190000D03*
%TD*%
D30*
%TO.C,J226*%
X95660000Y-125970000D03*
X93160000Y-125970000D03*
X90660000Y-125970000D03*
X88160000Y-125970000D03*
%TD*%
D14*
%TO.C,J201*%
X74370000Y-117920000D03*
%TD*%
D20*
%TO.C,R8*%
X115040000Y-126430000D03*
X113390000Y-126430000D03*
%TD*%
D23*
%TO.C,R11*%
X116690000Y-126380000D03*
X118340000Y-126380000D03*
%TD*%
D31*
%TO.C,D10*%
X118160000Y-96160000D03*
X115960000Y-96160000D03*
%TD*%
D12*
%TO.C,J318*%
X107500000Y-69000000D03*
X107500000Y-74080000D03*
D13*
X107500000Y-79160000D03*
%TD*%
D24*
%TO.C,Q5*%
X113300000Y-67840000D03*
X113300000Y-70140000D03*
X113300000Y-72440000D03*
D25*
X119600000Y-70140000D03*
%TD*%
D16*
%TO.C,R9*%
X117850000Y-81405000D03*
X117850000Y-79755000D03*
%TD*%
D17*
%TO.C,D4*%
X119820000Y-104987500D03*
X119820000Y-103412500D03*
%TD*%
D19*
%TO.C,J323*%
X119600000Y-67400000D03*
%TD*%
D27*
%TO.C,D16*%
X112230000Y-80860000D03*
X114430000Y-80860000D03*
%TD*%
D16*
%TO.C,R19*%
X115260000Y-124935000D03*
X115260000Y-123285000D03*
%TD*%
D10*
%TO.C,R15*%
X118220000Y-92030000D03*
X118220000Y-93680000D03*
%TD*%
D15*
%TO.C,mouse-bite-2mm-slot*%
X100550000Y-99910000D03*
X102050000Y-99910000D03*
X100550000Y-99160000D03*
X102050000Y-99160000D03*
X100550000Y-98410000D03*
X102050000Y-98410000D03*
%TD*%
D26*
%TO.C,D309*%
X104360000Y-84070000D03*
X108360000Y-84070000D03*
%TD*%
D15*
%TO.C,mouse-bite-2mm-slot*%
X100550000Y-113920000D03*
X102050000Y-113920000D03*
X100550000Y-113170000D03*
X102050000Y-113170000D03*
X100550000Y-112420000D03*
X102050000Y-112420000D03*
%TD*%
D28*
%TO.C,R203*%
X86600000Y-90462500D03*
X86600000Y-87537500D03*
%TD*%
D19*
%TO.C,J322*%
X119600000Y-82200000D03*
%TD*%
D22*
%TO.C,Q4*%
X116710000Y-74272500D03*
X114810000Y-74272500D03*
X115760000Y-76147500D03*
%TD*%
D14*
%TO.C,J204*%
X74298250Y-102653890D03*
%TD*%
%TO.C,J207*%
X74308250Y-87400556D03*
%TD*%
%TO.C,J205*%
X74280000Y-97590000D03*
%TD*%
D10*
%TO.C,R207*%
X85800000Y-96775000D03*
X85800000Y-98425000D03*
%TD*%
D12*
%TO.C,J221*%
X92640000Y-107900000D03*
D13*
X92640000Y-102820000D03*
%TD*%
D17*
%TO.C,D202*%
X84400000Y-103600000D03*
X84400000Y-102025000D03*
%TD*%
D11*
%TO.C,D8*%
X113450000Y-121457500D03*
X113450000Y-119257500D03*
%TD*%
D12*
%TO.C,J223*%
X92640000Y-77420000D03*
D13*
X92640000Y-72340000D03*
%TD*%
D17*
%TO.C,D201*%
X84200000Y-108600000D03*
X84200000Y-107025000D03*
%TD*%
D24*
%TO.C,Q10*%
X113040000Y-112960000D03*
X113040000Y-115260000D03*
X113040000Y-117560000D03*
D25*
X119340000Y-115260000D03*
%TD*%
D12*
%TO.C,J225*%
X92640000Y-87580000D03*
D13*
X92640000Y-82500000D03*
%TD*%
D17*
%TO.C,D2*%
X119820000Y-90710000D03*
X119820000Y-89135000D03*
%TD*%
D10*
%TO.C,R13*%
X117040000Y-123265000D03*
X117040000Y-124915000D03*
%TD*%
D15*
%TO.C,mouse-bite-2mm-slot*%
X100540000Y-71860000D03*
X102040000Y-71860000D03*
X100540000Y-71110000D03*
X102040000Y-71110000D03*
X100540000Y-70360000D03*
X102040000Y-70360000D03*
%TD*%
D16*
%TO.C,R1*%
X115700000Y-81025000D03*
X115700000Y-79375000D03*
%TD*%
D11*
%TO.C,D9*%
X119590000Y-80600000D03*
X119590000Y-78400000D03*
%TD*%
D12*
%TO.C,J319*%
X107500000Y-119400000D03*
D13*
X107500000Y-124480000D03*
%TD*%
D16*
%TO.C,R2*%
X117260000Y-78270000D03*
X117260000Y-76620000D03*
%TD*%
D30*
%TO.C,J321*%
X116620000Y-130760000D03*
X114120000Y-130760000D03*
X111620000Y-130760000D03*
X109120000Y-130760000D03*
%TD*%
M02*
