M48
; DRILL file {KiCad 7.0.11} date Sun Sep 14 18:22:27 2025
; FORMAT={-:-/ absolute / inch / decimal}
; #@! TF.CreationDate,2025-09-14T18:22:27-04:00
; #@! TF.GenerationSoftware,Kicad,Pcbnew,7.0.11
; #@! TF.FileFunction,NonPlated,1,2,NPTH
FMAT,2
INCH
; #@! TA.AperFunction,NonPlated,NPTH,ComponentDrill
T1C0.0197
%
G90
G05
T1
X3.9583Y-2.7701
X3.9583Y-2.7996
X3.9583Y-2.8291
X3.9587Y-3.3224
X3.9587Y-3.352
X3.9587Y-3.3815
X3.9587Y-3.8744
X3.9587Y-3.9039
X3.9587Y-3.9335
X3.9587Y-4.426
X3.9587Y-4.4555
X3.9587Y-4.485
X3.9587Y-4.9783
X3.9587Y-5.0079
X3.9587Y-5.0374
X4.0173Y-2.7701
X4.0173Y-2.7996
X4.0173Y-2.8291
X4.0177Y-3.3224
X4.0177Y-3.352
X4.0177Y-3.3815
X4.0177Y-3.8744
X4.0177Y-3.9039
X4.0177Y-3.9335
X4.0177Y-4.426
X4.0177Y-4.4555
X4.0177Y-4.485
X4.0177Y-4.9783
X4.0177Y-5.0079
X4.0177Y-5.0374
M30
