%TF.GenerationSoftware,KiCad,Pcbnew,7.0.11*%
%TF.CreationDate,2025-09-14T18:22:26-04:00*%
%TF.ProjectId,14.1.7 - PMOS - PLC Connector Combined,31342e31-2e37-4202-9d20-504d4f53202d,rev?*%
%TF.SameCoordinates,Original*%
%TF.FileFunction,Drillmap*%
%TF.FilePolarity,Positive*%
%FSLAX45Y45*%
G04 Gerber Fmt 4.5, Leading zero omitted, Abs format (unit mm)*
G04 Created by KiCad (PCBNEW 7.0.11) date 2025-09-14 18:22:26*
%MOMM*%
%LPD*%
G01*
G04 APERTURE LIST*
%ADD10C,0.250000*%
%ADD11C,0.100000*%
%ADD12C,0.200000*%
%ADD13C,0.130000*%
G04 APERTURE END LIST*
D10*
X7124000Y-7599000D02*
X8249000Y-7599000D01*
X10024000Y-11518750D02*
X10024000Y-12520750D01*
X13198999Y-9212051D02*
G75*
G03*
X13124000Y-9137051I-74999J1D01*
G01*
X7049000Y-7778000D02*
X7049000Y-7674000D01*
X8249000Y-11917000D02*
X7124000Y-11917000D01*
X7124000Y-8615000D02*
X8249000Y-8615000D01*
X10224000Y-12520750D02*
X10224000Y-11518750D01*
X7049000Y-11334000D02*
X7049000Y-11230000D01*
X13124000Y-10915051D02*
X12149000Y-10915051D01*
X10024000Y-7312000D02*
X10024000Y-8314000D01*
X7049000Y-11334000D02*
G75*
G03*
X7124000Y-11409000I75000J0D01*
G01*
X13198999Y-12260051D02*
G75*
G03*
X13124000Y-12185051I-74999J1D01*
G01*
X7049000Y-8794000D02*
G75*
G03*
X7124000Y-8869000I75000J0D01*
G01*
X12073999Y-7030051D02*
G75*
G03*
X12149000Y-7105051I75001J1D01*
G01*
X8249000Y-7091000D02*
G75*
G03*
X8324000Y-7016000I0J75000D01*
G01*
X8249000Y-9377000D02*
X7124000Y-9377000D01*
X12074000Y-12006051D02*
X12074000Y-12110051D01*
X12074000Y-7942051D02*
X12074000Y-8554051D01*
X7049000Y-11842000D02*
G75*
G03*
X7124000Y-11917000I75000J0D01*
G01*
X13199000Y-12260051D02*
X13199000Y-12364051D01*
X7124000Y-8615000D02*
G75*
G03*
X7049000Y-8690000I0J-75000D01*
G01*
X7124000Y-11663000D02*
G75*
G03*
X7049000Y-11738000I0J-75000D01*
G01*
X10024000Y-6912000D02*
G75*
G03*
X10224000Y-6912000I100000J0D01*
G01*
X7049000Y-10826000D02*
G75*
G03*
X7124000Y-10901000I75000J0D01*
G01*
X8324000Y-8032000D02*
X8324000Y-7928000D01*
X12073999Y-7538051D02*
G75*
G03*
X12149000Y-7613051I75001J1D01*
G01*
X12073999Y-10586051D02*
G75*
G03*
X12149000Y-10661051I75001J1D01*
G01*
X12149000Y-7867050D02*
G75*
G03*
X12074000Y-7942051I0J-75000D01*
G01*
X8249000Y-10393000D02*
X7124000Y-10393000D01*
X12149000Y-11931050D02*
G75*
G03*
X12074000Y-12006051I0J-75000D01*
G01*
X12149000Y-8629051D02*
X13124000Y-8629051D01*
X13124000Y-7359051D02*
X12149000Y-7359051D01*
X13124000Y-9391051D02*
X12149000Y-9391051D01*
X8249000Y-7599000D02*
G75*
G03*
X8324000Y-7524000I0J75000D01*
G01*
X10024000Y-6912000D02*
G75*
G03*
X9949000Y-6837000I-75000J0D01*
G01*
X8249000Y-7345000D02*
X7124000Y-7345000D01*
X13198999Y-10736051D02*
G75*
G03*
X13124000Y-10661051I-74999J1D01*
G01*
X13199000Y-9212051D02*
X13199000Y-9316051D01*
X10024000Y-8714000D02*
X10024000Y-9716000D01*
X7049000Y-9810000D02*
G75*
G03*
X7124000Y-9885000I75000J0D01*
G01*
X13124000Y-10407051D02*
X12149000Y-10407051D01*
X7049000Y-7778000D02*
G75*
G03*
X7124000Y-7853000I75000J0D01*
G01*
X7049000Y-8794000D02*
X7049000Y-8690000D01*
X8324000Y-11080000D02*
X8324000Y-10976000D01*
X13198999Y-11752051D02*
G75*
G03*
X13124000Y-11677051I-74999J1D01*
G01*
X13124000Y-8883051D02*
X12149000Y-8883051D01*
X7124000Y-11155000D02*
G75*
G03*
X7049000Y-11230000I0J-75000D01*
G01*
X13199000Y-8704051D02*
X13199000Y-8808051D01*
X8324000Y-11484000D02*
G75*
G03*
X8249000Y-11409000I-75000J0D01*
G01*
X10224000Y-10116750D02*
G75*
G03*
X10024000Y-10116750I-100000J0D01*
G01*
X8249000Y-9123000D02*
G75*
G03*
X8324000Y-9048000I0J75000D01*
G01*
X13124000Y-9391050D02*
G75*
G03*
X13199000Y-9316051I0J75000D01*
G01*
X7124000Y-11663000D02*
X8249000Y-11663000D01*
X8249000Y-7853000D02*
X7124000Y-7853000D01*
X8249000Y-10901000D02*
X7124000Y-10901000D01*
X7049000Y-10318000D02*
X7049000Y-10214000D01*
X8324000Y-8944000D02*
G75*
G03*
X8249000Y-8869000I-75000J0D01*
G01*
X12149000Y-9391050D02*
G75*
G03*
X12074000Y-9466051I0J-75000D01*
G01*
X8324000Y-12920750D02*
G75*
G03*
X8399000Y-12995750I75000J0D01*
G01*
X8324000Y-7016000D02*
X8324000Y-6912000D01*
X7049000Y-8286000D02*
G75*
G03*
X7124000Y-8361000I75000J0D01*
G01*
X10224000Y-12920750D02*
G75*
G03*
X10024000Y-12920750I-100000J0D01*
G01*
X10224000Y-11118750D02*
X10224000Y-10116750D01*
X7124000Y-10647000D02*
G75*
G03*
X7049000Y-10722000I0J-75000D01*
G01*
X8249000Y-10647000D02*
G75*
G03*
X8324000Y-10572000I0J75000D01*
G01*
X13198999Y-10228051D02*
G75*
G03*
X13124000Y-10153051I-74999J1D01*
G01*
X10224000Y-9716000D02*
X10224000Y-8714000D01*
X12149000Y-10915050D02*
G75*
G03*
X12074000Y-10990051I0J-75000D01*
G01*
X8249000Y-8361000D02*
X7124000Y-8361000D01*
X8324000Y-10468000D02*
G75*
G03*
X8249000Y-10393000I-75000J0D01*
G01*
X8249000Y-8615000D02*
G75*
G03*
X8324000Y-8540000I0J75000D01*
G01*
X12149000Y-11677051D02*
X13124000Y-11677051D01*
X9949000Y-12995750D02*
X8399000Y-12995750D01*
X12073999Y-6730051D02*
G75*
G03*
X11999000Y-6655051I-74999J1D01*
G01*
X12073999Y-11602051D02*
G75*
G03*
X12149000Y-11677051I75001J1D01*
G01*
X13124000Y-7867050D02*
G75*
G03*
X13199000Y-7792051I0J75000D01*
G01*
X7124000Y-10139000D02*
X8249000Y-10139000D01*
X10224000Y-7312000D02*
G75*
G03*
X10024000Y-7312000I-100000J0D01*
G01*
X10299000Y-6655050D02*
G75*
G03*
X10224000Y-6730051I0J-75000D01*
G01*
X12074000Y-6730051D02*
X12074000Y-7030051D01*
X12073999Y-10078051D02*
G75*
G03*
X12149000Y-10153051I75001J1D01*
G01*
X7049000Y-8286000D02*
X7049000Y-8182000D01*
X13124000Y-11931051D02*
X12149000Y-11931051D01*
X7049000Y-10318000D02*
G75*
G03*
X7124000Y-10393000I75000J0D01*
G01*
X13199000Y-7688051D02*
X13199000Y-7792051D01*
X8324000Y-10976000D02*
G75*
G03*
X8249000Y-10901000I-75000J0D01*
G01*
X12074000Y-10482051D02*
X12074000Y-10586051D01*
X7124000Y-7599000D02*
G75*
G03*
X7049000Y-7674000I0J-75000D01*
G01*
X8249000Y-8107000D02*
G75*
G03*
X8324000Y-8032000I0J75000D01*
G01*
X8324000Y-10064000D02*
X8324000Y-9960000D01*
X12149000Y-7359050D02*
G75*
G03*
X12074000Y-7434051I0J-75000D01*
G01*
X10024000Y-10116750D02*
X10024000Y-11118750D01*
X8324000Y-8436000D02*
G75*
G03*
X8249000Y-8361000I-75000J0D01*
G01*
X7124000Y-11155000D02*
X8249000Y-11155000D01*
X7049000Y-7270000D02*
X7049000Y-7166000D01*
X8324000Y-11992000D02*
G75*
G03*
X8249000Y-11917000I-75000J0D01*
G01*
X12149000Y-10407050D02*
G75*
G03*
X12074000Y-10482051I0J-75000D01*
G01*
X12074000Y-9466051D02*
X12074000Y-10078051D01*
X8324000Y-11588000D02*
X8324000Y-11484000D01*
X13124000Y-11931050D02*
G75*
G03*
X13199000Y-11856051I0J75000D01*
G01*
X10024000Y-11118750D02*
G75*
G03*
X10224000Y-11118750I100000J0D01*
G01*
X7124000Y-10139000D02*
G75*
G03*
X7049000Y-10214000I0J-75000D01*
G01*
X8399000Y-6837000D02*
G75*
G03*
X8324000Y-6912000I0J-75000D01*
G01*
X7049000Y-10826000D02*
X7049000Y-10722000D01*
X13198999Y-7180051D02*
G75*
G03*
X13124000Y-7105051I-74999J1D01*
G01*
X12073999Y-9062051D02*
G75*
G03*
X12149000Y-9137051I75001J1D01*
G01*
X7124000Y-7091000D02*
G75*
G03*
X7049000Y-7166000I0J-75000D01*
G01*
X8324000Y-8540000D02*
X8324000Y-8436000D01*
X12073999Y-8554051D02*
G75*
G03*
X12149000Y-8629051I75001J1D01*
G01*
X7124000Y-9123000D02*
G75*
G03*
X7049000Y-9198000I0J-75000D01*
G01*
X12149000Y-8883050D02*
G75*
G03*
X12074000Y-8958051I0J-75000D01*
G01*
X7124000Y-9631000D02*
G75*
G03*
X7049000Y-9706000I0J-75000D01*
G01*
X7049000Y-9810000D02*
X7049000Y-9706000D01*
X7049000Y-9302000D02*
X7049000Y-9198000D01*
X8324000Y-7420000D02*
G75*
G03*
X8249000Y-7345000I-75000J0D01*
G01*
X8249000Y-11409000D02*
X7124000Y-11409000D01*
X7049000Y-9302000D02*
G75*
G03*
X7124000Y-9377000I75000J0D01*
G01*
X13124000Y-12439050D02*
G75*
G03*
X13199000Y-12364051I0J75000D01*
G01*
X12149000Y-12185051D02*
X13124000Y-12185051D01*
X7049000Y-7270000D02*
G75*
G03*
X7124000Y-7345000I75000J0D01*
G01*
X8324000Y-10572000D02*
X8324000Y-10468000D01*
X10224000Y-6912000D02*
X10224000Y-6730051D01*
X12073999Y-12110051D02*
G75*
G03*
X12149000Y-12185051I75001J1D01*
G01*
X7124000Y-9631000D02*
X8249000Y-9631000D01*
X7124000Y-8107000D02*
G75*
G03*
X7049000Y-8182000I0J-75000D01*
G01*
X12074000Y-8958051D02*
X12074000Y-9062051D01*
X8324000Y-9960000D02*
G75*
G03*
X8249000Y-9885000I-75000J0D01*
G01*
X8249000Y-9885000D02*
X7124000Y-9885000D01*
X10024000Y-8314000D02*
G75*
G03*
X10224000Y-8314000I100000J0D01*
G01*
X11999000Y-13439051D02*
X10299000Y-13439051D01*
X8249000Y-11663000D02*
G75*
G03*
X8324000Y-11588000I0J75000D01*
G01*
X7124000Y-8107000D02*
X8249000Y-8107000D01*
X7124000Y-7091000D02*
X8249000Y-7091000D01*
X8324000Y-7524000D02*
X8324000Y-7420000D01*
X10224000Y-13364051D02*
X10224000Y-12920750D01*
X11999000Y-13439050D02*
G75*
G03*
X12074000Y-13364051I0J75000D01*
G01*
X13124000Y-10407050D02*
G75*
G03*
X13199000Y-10332051I0J75000D01*
G01*
X10224000Y-8714000D02*
G75*
G03*
X10024000Y-8714000I-100000J0D01*
G01*
X8324000Y-9452000D02*
G75*
G03*
X8249000Y-9377000I-75000J0D01*
G01*
X10224000Y-11518750D02*
G75*
G03*
X10024000Y-11518750I-100000J0D01*
G01*
X10024000Y-12520750D02*
G75*
G03*
X10224000Y-12520750I100000J0D01*
G01*
X12074000Y-10990051D02*
X12074000Y-11602051D01*
X9949000Y-12995750D02*
G75*
G03*
X10024000Y-12920750I0J75000D01*
G01*
X12074000Y-7434051D02*
X12074000Y-7538051D01*
X13199000Y-7180051D02*
X13199000Y-7284051D01*
X12149000Y-10153051D02*
X13124000Y-10153051D01*
X10224000Y-8314000D02*
X10224000Y-7312000D01*
X8324000Y-12920750D02*
X8324000Y-11992000D01*
X8249000Y-9631000D02*
G75*
G03*
X8324000Y-9556000I0J75000D01*
G01*
X7049000Y-11842000D02*
X7049000Y-11738000D01*
X8324000Y-9048000D02*
X8324000Y-8944000D01*
X13199000Y-10736051D02*
X13199000Y-10840051D01*
X10223999Y-13364051D02*
G75*
G03*
X10299000Y-13439051I75001J1D01*
G01*
X12149000Y-7613051D02*
X13124000Y-7613051D01*
X13124000Y-12439051D02*
X12149000Y-12439051D01*
X13198999Y-8704051D02*
G75*
G03*
X13124000Y-8629051I-74999J1D01*
G01*
X8249000Y-10139000D02*
G75*
G03*
X8324000Y-10064000I0J75000D01*
G01*
X8324000Y-7928000D02*
G75*
G03*
X8249000Y-7853000I-75000J0D01*
G01*
X8399000Y-6837000D02*
X9949000Y-6837000D01*
X13124000Y-8883050D02*
G75*
G03*
X13199000Y-8808051I0J75000D01*
G01*
X7124000Y-10647000D02*
X8249000Y-10647000D01*
X13199000Y-10228051D02*
X13199000Y-10332051D01*
X13124000Y-7359050D02*
G75*
G03*
X13199000Y-7284051I0J75000D01*
G01*
X13124000Y-10915050D02*
G75*
G03*
X13199000Y-10840051I0J75000D01*
G01*
X12149000Y-12439050D02*
G75*
G03*
X12074000Y-12514051I0J-75000D01*
G01*
X13198999Y-7688051D02*
G75*
G03*
X13124000Y-7613051I-74999J1D01*
G01*
X8324000Y-9556000D02*
X8324000Y-9452000D01*
X12149000Y-9137051D02*
X13124000Y-9137051D01*
X10299000Y-6655051D02*
X11999000Y-6655051D01*
X13124000Y-7867051D02*
X12149000Y-7867051D01*
X8249000Y-11155000D02*
G75*
G03*
X8324000Y-11080000I0J75000D01*
G01*
X13199000Y-11752051D02*
X13199000Y-11856051D01*
X12149000Y-10661051D02*
X13124000Y-10661051D01*
X7124000Y-9123000D02*
X8249000Y-9123000D01*
X8249000Y-8869000D02*
X7124000Y-8869000D01*
X10024000Y-9716000D02*
G75*
G03*
X10224000Y-9716000I100000J0D01*
G01*
X12149000Y-7105051D02*
X13124000Y-7105051D01*
X12074000Y-12514051D02*
X12074000Y-13364051D01*
D11*
X9781000Y-12437000D02*
G75*
G03*
X9671000Y-12437000I-55000J0D01*
G01*
X9671000Y-12437000D02*
G75*
G03*
X9781000Y-12437000I55000J0D01*
G01*
X11877000Y-12916000D02*
G75*
G03*
X11767000Y-12916000I-55000J0D01*
G01*
X11767000Y-12916000D02*
G75*
G03*
X11877000Y-12916000I55000J0D01*
G01*
D12*
D11*
X11580000Y-7974000D02*
X11610000Y-8004000D01*
X11610000Y-7974000D02*
X11580000Y-8004000D01*
X11765000Y-8421675D02*
X11795000Y-8451675D01*
X11795000Y-8421675D02*
X11765000Y-8451675D01*
X11905000Y-10885000D02*
X11935000Y-10915000D01*
X11935000Y-10885000D02*
X11905000Y-10915000D01*
X12005000Y-8065000D02*
X12035000Y-8095000D01*
X12035000Y-8065000D02*
X12005000Y-8095000D01*
X11776330Y-10801536D02*
G75*
G03*
X11741330Y-10801536I-17500J0D01*
G01*
X11741330Y-10801536D02*
G75*
G03*
X11776330Y-10801536I17500J0D01*
G01*
X7909025Y-9229469D02*
X7909025Y-9269469D01*
X7889025Y-9249469D02*
X7929025Y-9249469D01*
X7934425Y-7678022D02*
X7934425Y-7718022D01*
X7914425Y-7698022D02*
X7954425Y-7698022D01*
X7947125Y-10751422D02*
X7947125Y-10791422D01*
X7927125Y-10771422D02*
X7967125Y-10771422D01*
X7947125Y-11259422D02*
X7947125Y-11299422D01*
X7927125Y-11279422D02*
X7967125Y-11279422D01*
X7947125Y-11767422D02*
X7947125Y-11807422D01*
X7927125Y-11787422D02*
X7967125Y-11787422D01*
X7959825Y-10243422D02*
X7959825Y-10283422D01*
X7939825Y-10263422D02*
X7979825Y-10263422D01*
X7972525Y-8211422D02*
X7972525Y-8251422D01*
X7952525Y-8231422D02*
X7992525Y-8231422D01*
X7985225Y-8719422D02*
X7985225Y-8759422D01*
X7965225Y-8739422D02*
X8005225Y-8739422D01*
X7985225Y-9735422D02*
X7985225Y-9775422D01*
X7965225Y-9755422D02*
X8005225Y-9755422D01*
X8086825Y-11259422D02*
X8086825Y-11299422D01*
X8066825Y-11279422D02*
X8106825Y-11279422D01*
X8086825Y-11767422D02*
X8086825Y-11807422D01*
X8066825Y-11787422D02*
X8106825Y-11787422D01*
X8099525Y-7678022D02*
X8099525Y-7718022D01*
X8079525Y-7698022D02*
X8119525Y-7698022D01*
X8137625Y-8719422D02*
X8137625Y-8759422D01*
X8117625Y-8739422D02*
X8157625Y-8739422D01*
X8150325Y-8211422D02*
X8150325Y-8251422D01*
X8130325Y-8231422D02*
X8170325Y-8231422D01*
X8226525Y-11767422D02*
X8226525Y-11807422D01*
X8206525Y-11787422D02*
X8246525Y-11787422D01*
X8239225Y-11259422D02*
X8239225Y-11299422D01*
X8219225Y-11279422D02*
X8259225Y-11279422D01*
X8277325Y-7678022D02*
X8277325Y-7718022D01*
X8257325Y-7698022D02*
X8297325Y-7698022D01*
X8302725Y-8719422D02*
X8302725Y-8759422D01*
X8282725Y-8739422D02*
X8322725Y-8739422D01*
X8328125Y-8211422D02*
X8328125Y-8251422D01*
X8308125Y-8231422D02*
X8348125Y-8231422D01*
X8920000Y-8460000D02*
X8920000Y-8500000D01*
X8900000Y-8480000D02*
X8940000Y-8480000D01*
X8960000Y-11400000D02*
X8960000Y-11440000D01*
X8940000Y-11420000D02*
X8980000Y-11420000D01*
X9000000Y-8460000D02*
X9000000Y-8500000D01*
X8980000Y-8480000D02*
X9020000Y-8480000D01*
X9320000Y-10000000D02*
X9320000Y-10040000D01*
X9300000Y-10020000D02*
X9340000Y-10020000D01*
X9567900Y-10024440D02*
X9567900Y-10064440D01*
X9547900Y-10044440D02*
X9587900Y-10044440D01*
X9890225Y-10524000D02*
X9890225Y-10564000D01*
X9870225Y-10544000D02*
X9910225Y-10544000D01*
X10313000Y-11529000D02*
X10313000Y-11569000D01*
X10293000Y-11549000D02*
X10333000Y-11549000D01*
X10318000Y-13128000D02*
X10318000Y-13168000D01*
X10298000Y-13148000D02*
X10338000Y-13148000D01*
X10318000Y-13230000D02*
X10318000Y-13270000D01*
X10298000Y-13250000D02*
X10338000Y-13250000D01*
X10319000Y-13334000D02*
X10319000Y-13374000D01*
X10299000Y-13354000D02*
X10339000Y-13354000D01*
X10320000Y-10012000D02*
X10320000Y-10052000D01*
X10300000Y-10032000D02*
X10340000Y-10032000D01*
X10327000Y-8552000D02*
X10327000Y-8592000D01*
X10307000Y-8572000D02*
X10347000Y-8572000D01*
X10340000Y-6780000D02*
X10340000Y-6820000D01*
X10320000Y-6800000D02*
X10360000Y-6800000D01*
X10560000Y-7320000D02*
X10560000Y-7360000D01*
X10540000Y-7340000D02*
X10580000Y-7340000D01*
X10580000Y-6740000D02*
X10580000Y-6780000D01*
X10560000Y-6760000D02*
X10600000Y-6760000D01*
X10600000Y-8980000D02*
X10600000Y-9020000D01*
X10580000Y-9000000D02*
X10620000Y-9000000D01*
X10620000Y-11620000D02*
X10620000Y-11660000D01*
X10600000Y-11640000D02*
X10640000Y-11640000D01*
X10720000Y-8620000D02*
X10720000Y-8660000D01*
X10700000Y-8640000D02*
X10740000Y-8640000D01*
X10720000Y-11700000D02*
X10720000Y-11740000D01*
X10700000Y-11720000D02*
X10740000Y-11720000D01*
X10760000Y-7120000D02*
X10760000Y-7160000D01*
X10740000Y-7140000D02*
X10780000Y-7140000D01*
X10884000Y-10086000D02*
X10884000Y-10126000D01*
X10864000Y-10106000D02*
X10904000Y-10106000D01*
X10920000Y-8760000D02*
X10920000Y-8800000D01*
X10900000Y-8780000D02*
X10940000Y-8780000D01*
X10940000Y-11740000D02*
X10940000Y-11780000D01*
X10920000Y-11760000D02*
X10960000Y-11760000D01*
X10943700Y-7120000D02*
X10943700Y-7160000D01*
X10923700Y-7140000D02*
X10963700Y-7140000D01*
X10948716Y-10030892D02*
X10948716Y-10070892D01*
X10928716Y-10050892D02*
X10968716Y-10050892D01*
X10960000Y-11860000D02*
X10960000Y-11900000D01*
X10940000Y-11880000D02*
X10980000Y-11880000D01*
X10980000Y-8700000D02*
X10980000Y-8740000D01*
X10960000Y-8720000D02*
X11000000Y-8720000D01*
X10980000Y-11540000D02*
X10980000Y-11580000D01*
X10960000Y-11560000D02*
X11000000Y-11560000D01*
X11000000Y-7020000D02*
X11000000Y-7060000D01*
X10980000Y-7040000D02*
X11020000Y-7040000D01*
X11060000Y-8100000D02*
X11060000Y-8140000D01*
X11040000Y-8120000D02*
X11080000Y-8120000D01*
X11080000Y-7980000D02*
X11080000Y-8020000D01*
X11060000Y-8000000D02*
X11100000Y-8000000D01*
X11080000Y-10220000D02*
X11080000Y-10260000D01*
X11060000Y-10240000D02*
X11100000Y-10240000D01*
X11096000Y-8817000D02*
X11096000Y-8857000D01*
X11076000Y-8837000D02*
X11116000Y-8837000D01*
X11108000Y-9524000D02*
X11108000Y-9564000D01*
X11088000Y-9544000D02*
X11128000Y-9544000D01*
X11112181Y-7207759D02*
X11112181Y-7247759D01*
X11092181Y-7227759D02*
X11132181Y-7227759D01*
X11115000Y-10400000D02*
X11115000Y-10440000D01*
X11095000Y-10420000D02*
X11135000Y-10420000D01*
X11140000Y-6720000D02*
X11140000Y-6760000D01*
X11120000Y-6740000D02*
X11160000Y-6740000D01*
X11140000Y-10160000D02*
X11140000Y-10200000D01*
X11120000Y-10180000D02*
X11160000Y-10180000D01*
X11158000Y-8755000D02*
X11158000Y-8795000D01*
X11138000Y-8775000D02*
X11178000Y-8775000D01*
X11160000Y-7400000D02*
X11160000Y-7440000D01*
X11140000Y-7420000D02*
X11180000Y-7420000D01*
X11176000Y-10336000D02*
X11176000Y-10376000D01*
X11156000Y-10356000D02*
X11196000Y-10356000D01*
X11180000Y-7259000D02*
X11180000Y-7299000D01*
X11160000Y-7279000D02*
X11200000Y-7279000D01*
X11180000Y-11780000D02*
X11180000Y-11820000D01*
X11160000Y-11800000D02*
X11200000Y-11800000D01*
X11180000Y-11880000D02*
X11180000Y-11920000D01*
X11160000Y-11900000D02*
X11200000Y-11900000D01*
X11187000Y-8417000D02*
X11187000Y-8457000D01*
X11167000Y-8437000D02*
X11207000Y-8437000D01*
X11193000Y-8853000D02*
X11193000Y-8893000D01*
X11173000Y-8873000D02*
X11213000Y-8873000D01*
X11203500Y-9180000D02*
X11203500Y-9220000D01*
X11183500Y-9200000D02*
X11223500Y-9200000D01*
X11220000Y-12400000D02*
X11220000Y-12440000D01*
X11200000Y-12420000D02*
X11240000Y-12420000D01*
X11220000Y-12540000D02*
X11220000Y-12580000D01*
X11200000Y-12560000D02*
X11240000Y-12560000D01*
X11280000Y-7880000D02*
X11280000Y-7920000D01*
X11260000Y-7900000D02*
X11300000Y-7900000D01*
X11280000Y-9000000D02*
X11280000Y-9040000D01*
X11260000Y-9020000D02*
X11300000Y-9020000D01*
X11307000Y-9596000D02*
X11307000Y-9636000D01*
X11287000Y-9616000D02*
X11327000Y-9616000D01*
X11310193Y-9344500D02*
X11310193Y-9384500D01*
X11290193Y-9364500D02*
X11330193Y-9364500D01*
X11311000Y-10740000D02*
X11311000Y-10780000D01*
X11291000Y-10760000D02*
X11331000Y-10760000D01*
X11400000Y-13300000D02*
X11400000Y-13340000D01*
X11380000Y-13320000D02*
X11420000Y-13320000D01*
X11420000Y-12380000D02*
X11420000Y-12420000D01*
X11400000Y-12400000D02*
X11440000Y-12400000D01*
X11451000Y-9718000D02*
X11451000Y-9758000D01*
X11431000Y-9738000D02*
X11471000Y-9738000D01*
X11460000Y-8640000D02*
X11460000Y-8680000D01*
X11440000Y-8660000D02*
X11480000Y-8660000D01*
X11460000Y-10160000D02*
X11460000Y-10200000D01*
X11440000Y-10180000D02*
X11480000Y-10180000D01*
X11460431Y-9817555D02*
X11460431Y-9857555D01*
X11440431Y-9837555D02*
X11480431Y-9837555D01*
X11461000Y-11319000D02*
X11461000Y-11359000D01*
X11441000Y-11339000D02*
X11481000Y-11339000D01*
X11463750Y-7976250D02*
X11463750Y-8016250D01*
X11443750Y-7996250D02*
X11483750Y-7996250D01*
X11463970Y-9941867D02*
X11463970Y-9981867D01*
X11443970Y-9961867D02*
X11483970Y-9961867D01*
X11480000Y-10640000D02*
X11480000Y-10680000D01*
X11460000Y-10660000D02*
X11500000Y-10660000D01*
X11480375Y-8179625D02*
X11480375Y-8219625D01*
X11460375Y-8199625D02*
X11500375Y-8199625D01*
X11499509Y-7830086D02*
X11499509Y-7870086D01*
X11479509Y-7850086D02*
X11519509Y-7850086D01*
X11506923Y-7658971D02*
X11506923Y-7698971D01*
X11486923Y-7678971D02*
X11526923Y-7678971D01*
X11509067Y-8313933D02*
X11509067Y-8353933D01*
X11489067Y-8333933D02*
X11529067Y-8333933D01*
X11515000Y-11184000D02*
X11515000Y-11224000D01*
X11495000Y-11204000D02*
X11535000Y-11204000D01*
X11520000Y-7040000D02*
X11520000Y-7080000D01*
X11500000Y-7060000D02*
X11540000Y-7060000D01*
X11540000Y-6780000D02*
X11540000Y-6820000D01*
X11520000Y-6800000D02*
X11560000Y-6800000D01*
X11540000Y-13300000D02*
X11540000Y-13340000D01*
X11520000Y-13320000D02*
X11560000Y-13320000D01*
X11561400Y-11645600D02*
X11561400Y-11685600D01*
X11541400Y-11665600D02*
X11581400Y-11665600D01*
X11571219Y-12571467D02*
X11571219Y-12611467D01*
X11551219Y-12591467D02*
X11591219Y-12591467D01*
X11573000Y-9424913D02*
X11573000Y-9464913D01*
X11553000Y-9444913D02*
X11593000Y-9444913D01*
X11580000Y-7420000D02*
X11580000Y-7460000D01*
X11560000Y-7440000D02*
X11600000Y-7440000D01*
X11580000Y-10980000D02*
X11580000Y-11020000D01*
X11560000Y-11000000D02*
X11600000Y-11000000D01*
X11580000Y-11840000D02*
X11580000Y-11880000D01*
X11560000Y-11860000D02*
X11600000Y-11860000D01*
X11600000Y-10404000D02*
X11600000Y-10444000D01*
X11580000Y-10424000D02*
X11620000Y-10424000D01*
X11610113Y-9254113D02*
X11610113Y-9294113D01*
X11590113Y-9274113D02*
X11630113Y-9274113D01*
X11620000Y-7260000D02*
X11620000Y-7300000D01*
X11600000Y-7280000D02*
X11640000Y-7280000D01*
X11620000Y-8300000D02*
X11620000Y-8340000D01*
X11600000Y-8320000D02*
X11640000Y-8320000D01*
X11660000Y-13300000D02*
X11660000Y-13340000D01*
X11640000Y-13320000D02*
X11680000Y-13320000D01*
X11663000Y-9596000D02*
X11663000Y-9636000D01*
X11643000Y-9616000D02*
X11683000Y-9616000D01*
X11670000Y-10796000D02*
X11670000Y-10836000D01*
X11650000Y-10816000D02*
X11690000Y-10816000D01*
X11680000Y-11480000D02*
X11680000Y-11520000D01*
X11660000Y-11500000D02*
X11700000Y-11500000D01*
X11711000Y-12131000D02*
X11711000Y-12171000D01*
X11691000Y-12151000D02*
X11731000Y-12151000D01*
X11720000Y-7140000D02*
X11720000Y-7180000D01*
X11700000Y-7160000D02*
X11740000Y-7160000D01*
X11720000Y-10000000D02*
X11720000Y-10040000D01*
X11700000Y-10020000D02*
X11740000Y-10020000D01*
X11720000Y-10180000D02*
X11720000Y-10220000D01*
X11700000Y-10200000D02*
X11740000Y-10200000D01*
X11734000Y-11806000D02*
X11734000Y-11846000D01*
X11714000Y-11826000D02*
X11754000Y-11826000D01*
X11780000Y-13300000D02*
X11780000Y-13340000D01*
X11760000Y-13320000D02*
X11800000Y-13320000D01*
X11800000Y-8700000D02*
X11800000Y-8740000D01*
X11780000Y-8720000D02*
X11820000Y-8720000D01*
X11820503Y-7870600D02*
X11820503Y-7910600D01*
X11800503Y-7890600D02*
X11840503Y-7890600D01*
X11858126Y-7508674D02*
X11858126Y-7548674D01*
X11838126Y-7528674D02*
X11878126Y-7528674D01*
X11860000Y-11780000D02*
X11860000Y-11820000D01*
X11840000Y-11800000D02*
X11880000Y-11800000D01*
X11874500Y-9031169D02*
X11874500Y-9071169D01*
X11854500Y-9051169D02*
X11894500Y-9051169D01*
X11885842Y-7412591D02*
X11885842Y-7452591D01*
X11865842Y-7432591D02*
X11905842Y-7432591D01*
X11908893Y-7642107D02*
X11908893Y-7682107D01*
X11888893Y-7662107D02*
X11928893Y-7662107D01*
X11920000Y-9500000D02*
X11920000Y-9540000D01*
X11900000Y-9520000D02*
X11940000Y-9520000D01*
X11988387Y-7948387D02*
X11988387Y-7988387D01*
X11968387Y-7968387D02*
X12008387Y-7968387D01*
X12040000Y-11760000D02*
X12040000Y-11800000D01*
X12020000Y-11780000D02*
X12060000Y-11780000D01*
X12168000Y-9190000D02*
X12168000Y-9230000D01*
X12148000Y-9210000D02*
X12188000Y-9210000D01*
X12168000Y-9315000D02*
X12168000Y-9355000D01*
X12148000Y-9335000D02*
X12188000Y-9335000D01*
X12293000Y-7650000D02*
X12293000Y-7690000D01*
X12273000Y-7670000D02*
X12313000Y-7670000D01*
X12296000Y-7776000D02*
X12296000Y-7816000D01*
X12276000Y-7796000D02*
X12316000Y-7796000D01*
X12312000Y-8744000D02*
X12312000Y-8784000D01*
X12292000Y-8764000D02*
X12332000Y-8764000D01*
X12333000Y-10729000D02*
X12333000Y-10769000D01*
X12313000Y-10749000D02*
X12353000Y-10749000D01*
X12335000Y-9190000D02*
X12335000Y-9230000D01*
X12315000Y-9210000D02*
X12355000Y-9210000D01*
X12335000Y-9311000D02*
X12335000Y-9351000D01*
X12315000Y-9331000D02*
X12355000Y-9331000D01*
X12335000Y-10835000D02*
X12335000Y-10875000D01*
X12315000Y-10855000D02*
X12355000Y-10855000D01*
X12346000Y-12362000D02*
X12346000Y-12402000D01*
X12326000Y-12382000D02*
X12366000Y-12382000D01*
X12347000Y-10260000D02*
X12347000Y-10300000D01*
X12327000Y-10280000D02*
X12367000Y-10280000D01*
X12347000Y-12241000D02*
X12347000Y-12281000D01*
X12327000Y-12261000D02*
X12367000Y-12261000D01*
X12378000Y-7214000D02*
X12378000Y-7254000D01*
X12358000Y-7234000D02*
X12398000Y-7234000D01*
X12385000Y-7769000D02*
X12385000Y-7809000D01*
X12365000Y-7789000D02*
X12405000Y-7789000D01*
X12388000Y-7650000D02*
X12388000Y-7690000D01*
X12368000Y-7670000D02*
X12408000Y-7670000D01*
X12420000Y-11860000D02*
X12420000Y-11900000D01*
X12400000Y-11880000D02*
X12440000Y-11880000D01*
X12425000Y-12360000D02*
X12425000Y-12400000D01*
X12405000Y-12380000D02*
X12445000Y-12380000D01*
X12426000Y-12237000D02*
X12426000Y-12277000D01*
X12406000Y-12257000D02*
X12446000Y-12257000D01*
X11984749Y-6764749D02*
X11984749Y-6715251D01*
X11935251Y-6715251D01*
X11935251Y-6764749D01*
X11984749Y-6764749D01*
X11984749Y-8244749D02*
X11984749Y-8195251D01*
X11935251Y-8195251D01*
X11935251Y-8244749D01*
X11984749Y-8244749D01*
X11984749Y-11204749D02*
X11984749Y-11155251D01*
X11935251Y-11155251D01*
X11935251Y-11204749D01*
X11984749Y-11204749D01*
X12004749Y-9764749D02*
X12004749Y-9715251D01*
X11955251Y-9715251D01*
X11955251Y-9764749D01*
X12004749Y-9764749D01*
X8816000Y-12646530D02*
X8865530Y-12597000D01*
X8816000Y-12547470D01*
X8766470Y-12597000D01*
X8816000Y-12646530D01*
X9066000Y-12646530D02*
X9115530Y-12597000D01*
X9066000Y-12547470D01*
X9016470Y-12597000D01*
X9066000Y-12646530D01*
X9316000Y-12646530D02*
X9365530Y-12597000D01*
X9316000Y-12547470D01*
X9266470Y-12597000D01*
X9316000Y-12646530D01*
X9566000Y-12646530D02*
X9615530Y-12597000D01*
X9566000Y-12547470D01*
X9516470Y-12597000D01*
X9566000Y-12646530D01*
X10912000Y-13125530D02*
X10961530Y-13076000D01*
X10912000Y-13026470D01*
X10862470Y-13076000D01*
X10912000Y-13125530D01*
X11162000Y-13125530D02*
X11211530Y-13076000D01*
X11162000Y-13026470D01*
X11112470Y-13076000D01*
X11162000Y-13125530D01*
X11412000Y-13125530D02*
X11461530Y-13076000D01*
X11412000Y-13026470D01*
X11362470Y-13076000D01*
X11412000Y-13125530D01*
X11662000Y-13125530D02*
X11711530Y-13076000D01*
X11662000Y-13026470D01*
X11612470Y-13076000D01*
X11662000Y-13125530D01*
D13*
X9195000Y-11233000D02*
X9325000Y-11363000D01*
X9325000Y-11233000D02*
X9195000Y-11363000D01*
X9325000Y-11298000D02*
G75*
G03*
X9195000Y-11298000I-65000J0D01*
G01*
X9195000Y-11298000D02*
G75*
G03*
X9325000Y-11298000I65000J0D01*
G01*
X9195000Y-11741000D02*
X9325000Y-11871000D01*
X9325000Y-11741000D02*
X9195000Y-11871000D01*
X9325000Y-11806000D02*
G75*
G03*
X9195000Y-11806000I-65000J0D01*
G01*
X9195000Y-11806000D02*
G75*
G03*
X9325000Y-11806000I65000J0D01*
G01*
X9199000Y-7169000D02*
X9329000Y-7299000D01*
X9329000Y-7169000D02*
X9199000Y-7299000D01*
X9329000Y-7234000D02*
G75*
G03*
X9199000Y-7234000I-65000J0D01*
G01*
X9199000Y-7234000D02*
G75*
G03*
X9329000Y-7234000I65000J0D01*
G01*
X9199000Y-7677000D02*
X9329000Y-7807000D01*
X9329000Y-7677000D02*
X9199000Y-7807000D01*
X9329000Y-7742000D02*
G75*
G03*
X9199000Y-7742000I-65000J0D01*
G01*
X9199000Y-7742000D02*
G75*
G03*
X9329000Y-7742000I65000J0D01*
G01*
X9199000Y-8185000D02*
X9329000Y-8315000D01*
X9329000Y-8185000D02*
X9199000Y-8315000D01*
X9329000Y-8250000D02*
G75*
G03*
X9199000Y-8250000I-65000J0D01*
G01*
X9199000Y-8250000D02*
G75*
G03*
X9329000Y-8250000I65000J0D01*
G01*
X9199000Y-8693000D02*
X9329000Y-8823000D01*
X9329000Y-8693000D02*
X9199000Y-8823000D01*
X9329000Y-8758000D02*
G75*
G03*
X9199000Y-8758000I-65000J0D01*
G01*
X9199000Y-8758000D02*
G75*
G03*
X9329000Y-8758000I65000J0D01*
G01*
X9199000Y-9201000D02*
X9329000Y-9331000D01*
X9329000Y-9201000D02*
X9199000Y-9331000D01*
X9329000Y-9266000D02*
G75*
G03*
X9199000Y-9266000I-65000J0D01*
G01*
X9199000Y-9266000D02*
G75*
G03*
X9329000Y-9266000I65000J0D01*
G01*
X9199000Y-9709000D02*
X9329000Y-9839000D01*
X9329000Y-9709000D02*
X9199000Y-9839000D01*
X9329000Y-9774000D02*
G75*
G03*
X9199000Y-9774000I-65000J0D01*
G01*
X9199000Y-9774000D02*
G75*
G03*
X9329000Y-9774000I65000J0D01*
G01*
X9199000Y-10217000D02*
X9329000Y-10347000D01*
X9329000Y-10217000D02*
X9199000Y-10347000D01*
X9329000Y-10282000D02*
G75*
G03*
X9199000Y-10282000I-65000J0D01*
G01*
X9199000Y-10282000D02*
G75*
G03*
X9329000Y-10282000I65000J0D01*
G01*
X9199000Y-10725000D02*
X9329000Y-10855000D01*
X9329000Y-10725000D02*
X9199000Y-10855000D01*
X9329000Y-10790000D02*
G75*
G03*
X9199000Y-10790000I-65000J0D01*
G01*
X9199000Y-10790000D02*
G75*
G03*
X9329000Y-10790000I65000J0D01*
G01*
X10685000Y-6835000D02*
X10815000Y-6965000D01*
X10815000Y-6835000D02*
X10685000Y-6965000D01*
X10815000Y-6900000D02*
G75*
G03*
X10685000Y-6900000I-65000J0D01*
G01*
X10685000Y-6900000D02*
G75*
G03*
X10815000Y-6900000I65000J0D01*
G01*
X10685000Y-7343000D02*
X10815000Y-7473000D01*
X10815000Y-7343000D02*
X10685000Y-7473000D01*
X10815000Y-7408000D02*
G75*
G03*
X10685000Y-7408000I-65000J0D01*
G01*
X10685000Y-7408000D02*
G75*
G03*
X10815000Y-7408000I65000J0D01*
G01*
X10685000Y-7851000D02*
X10815000Y-7981000D01*
X10815000Y-7851000D02*
X10685000Y-7981000D01*
X10815000Y-7916000D02*
G75*
G03*
X10685000Y-7916000I-65000J0D01*
G01*
X10685000Y-7916000D02*
G75*
G03*
X10815000Y-7916000I65000J0D01*
G01*
X10685000Y-8835000D02*
X10815000Y-8965000D01*
X10815000Y-8835000D02*
X10685000Y-8965000D01*
X10815000Y-8900000D02*
G75*
G03*
X10685000Y-8900000I-65000J0D01*
G01*
X10685000Y-8900000D02*
G75*
G03*
X10815000Y-8900000I65000J0D01*
G01*
X10685000Y-9343000D02*
X10815000Y-9473000D01*
X10815000Y-9343000D02*
X10685000Y-9473000D01*
X10815000Y-9408000D02*
G75*
G03*
X10685000Y-9408000I-65000J0D01*
G01*
X10685000Y-9408000D02*
G75*
G03*
X10815000Y-9408000I65000J0D01*
G01*
X10685000Y-10335000D02*
X10815000Y-10465000D01*
X10815000Y-10335000D02*
X10685000Y-10465000D01*
X10815000Y-10400000D02*
G75*
G03*
X10685000Y-10400000I-65000J0D01*
G01*
X10685000Y-10400000D02*
G75*
G03*
X10815000Y-10400000I65000J0D01*
G01*
X10685000Y-10843000D02*
X10815000Y-10973000D01*
X10815000Y-10843000D02*
X10685000Y-10973000D01*
X10815000Y-10908000D02*
G75*
G03*
X10685000Y-10908000I-65000J0D01*
G01*
X10685000Y-10908000D02*
G75*
G03*
X10815000Y-10908000I65000J0D01*
G01*
X10685000Y-11875000D02*
X10815000Y-12005000D01*
X10815000Y-11875000D02*
X10685000Y-12005000D01*
X10815000Y-11940000D02*
G75*
G03*
X10685000Y-11940000I-65000J0D01*
G01*
X10685000Y-11940000D02*
G75*
G03*
X10815000Y-11940000I65000J0D01*
G01*
X10685000Y-12383000D02*
X10815000Y-12513000D01*
X10815000Y-12383000D02*
X10685000Y-12513000D01*
X10815000Y-12448000D02*
G75*
G03*
X10685000Y-12448000I-65000J0D01*
G01*
X10685000Y-12448000D02*
G75*
G03*
X10815000Y-12448000I65000J0D01*
G01*
D12*
X7297277Y-13763035D02*
X7297277Y-13563035D01*
X7297277Y-13563035D02*
X7344896Y-13563035D01*
X7344896Y-13563035D02*
X7373467Y-13572559D01*
X7373467Y-13572559D02*
X7392515Y-13591606D01*
X7392515Y-13591606D02*
X7402039Y-13610654D01*
X7402039Y-13610654D02*
X7411562Y-13648749D01*
X7411562Y-13648749D02*
X7411562Y-13677320D01*
X7411562Y-13677320D02*
X7402039Y-13715416D01*
X7402039Y-13715416D02*
X7392515Y-13734463D01*
X7392515Y-13734463D02*
X7373467Y-13753511D01*
X7373467Y-13753511D02*
X7344896Y-13763035D01*
X7344896Y-13763035D02*
X7297277Y-13763035D01*
X7497277Y-13763035D02*
X7497277Y-13629701D01*
X7497277Y-13667797D02*
X7506801Y-13648749D01*
X7506801Y-13648749D02*
X7516324Y-13639225D01*
X7516324Y-13639225D02*
X7535372Y-13629701D01*
X7535372Y-13629701D02*
X7554420Y-13629701D01*
X7621086Y-13763035D02*
X7621086Y-13629701D01*
X7621086Y-13563035D02*
X7611562Y-13572559D01*
X7611562Y-13572559D02*
X7621086Y-13582082D01*
X7621086Y-13582082D02*
X7630610Y-13572559D01*
X7630610Y-13572559D02*
X7621086Y-13563035D01*
X7621086Y-13563035D02*
X7621086Y-13582082D01*
X7744896Y-13763035D02*
X7725848Y-13753511D01*
X7725848Y-13753511D02*
X7716324Y-13734463D01*
X7716324Y-13734463D02*
X7716324Y-13563035D01*
X7849658Y-13763035D02*
X7830610Y-13753511D01*
X7830610Y-13753511D02*
X7821086Y-13734463D01*
X7821086Y-13734463D02*
X7821086Y-13563035D01*
X8078229Y-13763035D02*
X8078229Y-13563035D01*
X8078229Y-13563035D02*
X8144896Y-13705892D01*
X8144896Y-13705892D02*
X8211562Y-13563035D01*
X8211562Y-13563035D02*
X8211562Y-13763035D01*
X8392515Y-13763035D02*
X8392515Y-13658273D01*
X8392515Y-13658273D02*
X8382991Y-13639225D01*
X8382991Y-13639225D02*
X8363943Y-13629701D01*
X8363943Y-13629701D02*
X8325848Y-13629701D01*
X8325848Y-13629701D02*
X8306801Y-13639225D01*
X8392515Y-13753511D02*
X8373467Y-13763035D01*
X8373467Y-13763035D02*
X8325848Y-13763035D01*
X8325848Y-13763035D02*
X8306801Y-13753511D01*
X8306801Y-13753511D02*
X8297277Y-13734463D01*
X8297277Y-13734463D02*
X8297277Y-13715416D01*
X8297277Y-13715416D02*
X8306801Y-13696368D01*
X8306801Y-13696368D02*
X8325848Y-13686844D01*
X8325848Y-13686844D02*
X8373467Y-13686844D01*
X8373467Y-13686844D02*
X8392515Y-13677320D01*
X8487753Y-13629701D02*
X8487753Y-13829701D01*
X8487753Y-13639225D02*
X8506801Y-13629701D01*
X8506801Y-13629701D02*
X8544896Y-13629701D01*
X8544896Y-13629701D02*
X8563944Y-13639225D01*
X8563944Y-13639225D02*
X8573467Y-13648749D01*
X8573467Y-13648749D02*
X8582991Y-13667797D01*
X8582991Y-13667797D02*
X8582991Y-13724939D01*
X8582991Y-13724939D02*
X8573467Y-13743987D01*
X8573467Y-13743987D02*
X8563944Y-13753511D01*
X8563944Y-13753511D02*
X8544896Y-13763035D01*
X8544896Y-13763035D02*
X8506801Y-13763035D01*
X8506801Y-13763035D02*
X8487753Y-13753511D01*
X8668705Y-13743987D02*
X8678229Y-13753511D01*
X8678229Y-13753511D02*
X8668705Y-13763035D01*
X8668705Y-13763035D02*
X8659182Y-13753511D01*
X8659182Y-13753511D02*
X8668705Y-13743987D01*
X8668705Y-13743987D02*
X8668705Y-13763035D01*
X8668705Y-13639225D02*
X8678229Y-13648749D01*
X8678229Y-13648749D02*
X8668705Y-13658273D01*
X8668705Y-13658273D02*
X8659182Y-13648749D01*
X8659182Y-13648749D02*
X8668705Y-13639225D01*
X8668705Y-13639225D02*
X8668705Y-13658273D01*
D11*
X7006500Y-14076551D02*
X7036500Y-14106551D01*
X7036500Y-14076551D02*
X7006500Y-14106551D01*
D12*
X7335372Y-13983035D02*
X7354420Y-13983035D01*
X7354420Y-13983035D02*
X7373467Y-13992559D01*
X7373467Y-13992559D02*
X7382991Y-14002082D01*
X7382991Y-14002082D02*
X7392515Y-14021130D01*
X7392515Y-14021130D02*
X7402039Y-14059225D01*
X7402039Y-14059225D02*
X7402039Y-14106844D01*
X7402039Y-14106844D02*
X7392515Y-14144939D01*
X7392515Y-14144939D02*
X7382991Y-14163987D01*
X7382991Y-14163987D02*
X7373467Y-14173511D01*
X7373467Y-14173511D02*
X7354420Y-14183035D01*
X7354420Y-14183035D02*
X7335372Y-14183035D01*
X7335372Y-14183035D02*
X7316324Y-14173511D01*
X7316324Y-14173511D02*
X7306801Y-14163987D01*
X7306801Y-14163987D02*
X7297277Y-14144939D01*
X7297277Y-14144939D02*
X7287753Y-14106844D01*
X7287753Y-14106844D02*
X7287753Y-14059225D01*
X7287753Y-14059225D02*
X7297277Y-14021130D01*
X7297277Y-14021130D02*
X7306801Y-14002082D01*
X7306801Y-14002082D02*
X7316324Y-13992559D01*
X7316324Y-13992559D02*
X7335372Y-13983035D01*
X7487753Y-14163987D02*
X7497277Y-14173511D01*
X7497277Y-14173511D02*
X7487753Y-14183035D01*
X7487753Y-14183035D02*
X7478229Y-14173511D01*
X7478229Y-14173511D02*
X7487753Y-14163987D01*
X7487753Y-14163987D02*
X7487753Y-14183035D01*
X7563943Y-13983035D02*
X7687753Y-13983035D01*
X7687753Y-13983035D02*
X7621086Y-14059225D01*
X7621086Y-14059225D02*
X7649658Y-14059225D01*
X7649658Y-14059225D02*
X7668705Y-14068749D01*
X7668705Y-14068749D02*
X7678229Y-14078273D01*
X7678229Y-14078273D02*
X7687753Y-14097320D01*
X7687753Y-14097320D02*
X7687753Y-14144939D01*
X7687753Y-14144939D02*
X7678229Y-14163987D01*
X7678229Y-14163987D02*
X7668705Y-14173511D01*
X7668705Y-14173511D02*
X7649658Y-14183035D01*
X7649658Y-14183035D02*
X7592515Y-14183035D01*
X7592515Y-14183035D02*
X7573467Y-14173511D01*
X7573467Y-14173511D02*
X7563943Y-14163987D01*
X7811562Y-13983035D02*
X7830610Y-13983035D01*
X7830610Y-13983035D02*
X7849658Y-13992559D01*
X7849658Y-13992559D02*
X7859182Y-14002082D01*
X7859182Y-14002082D02*
X7868705Y-14021130D01*
X7868705Y-14021130D02*
X7878229Y-14059225D01*
X7878229Y-14059225D02*
X7878229Y-14106844D01*
X7878229Y-14106844D02*
X7868705Y-14144939D01*
X7868705Y-14144939D02*
X7859182Y-14163987D01*
X7859182Y-14163987D02*
X7849658Y-14173511D01*
X7849658Y-14173511D02*
X7830610Y-14183035D01*
X7830610Y-14183035D02*
X7811562Y-14183035D01*
X7811562Y-14183035D02*
X7792515Y-14173511D01*
X7792515Y-14173511D02*
X7782991Y-14163987D01*
X7782991Y-14163987D02*
X7773467Y-14144939D01*
X7773467Y-14144939D02*
X7763943Y-14106844D01*
X7763943Y-14106844D02*
X7763943Y-14059225D01*
X7763943Y-14059225D02*
X7773467Y-14021130D01*
X7773467Y-14021130D02*
X7782991Y-14002082D01*
X7782991Y-14002082D02*
X7792515Y-13992559D01*
X7792515Y-13992559D02*
X7811562Y-13983035D01*
X8002039Y-13983035D02*
X8021086Y-13983035D01*
X8021086Y-13983035D02*
X8040134Y-13992559D01*
X8040134Y-13992559D02*
X8049658Y-14002082D01*
X8049658Y-14002082D02*
X8059182Y-14021130D01*
X8059182Y-14021130D02*
X8068705Y-14059225D01*
X8068705Y-14059225D02*
X8068705Y-14106844D01*
X8068705Y-14106844D02*
X8059182Y-14144939D01*
X8059182Y-14144939D02*
X8049658Y-14163987D01*
X8049658Y-14163987D02*
X8040134Y-14173511D01*
X8040134Y-14173511D02*
X8021086Y-14183035D01*
X8021086Y-14183035D02*
X8002039Y-14183035D01*
X8002039Y-14183035D02*
X7982991Y-14173511D01*
X7982991Y-14173511D02*
X7973467Y-14163987D01*
X7973467Y-14163987D02*
X7963943Y-14144939D01*
X7963943Y-14144939D02*
X7954420Y-14106844D01*
X7954420Y-14106844D02*
X7954420Y-14059225D01*
X7954420Y-14059225D02*
X7963943Y-14021130D01*
X7963943Y-14021130D02*
X7973467Y-14002082D01*
X7973467Y-14002082D02*
X7982991Y-13992559D01*
X7982991Y-13992559D02*
X8002039Y-13983035D01*
X8154420Y-14183035D02*
X8154420Y-14049701D01*
X8154420Y-14068749D02*
X8163943Y-14059225D01*
X8163943Y-14059225D02*
X8182991Y-14049701D01*
X8182991Y-14049701D02*
X8211563Y-14049701D01*
X8211563Y-14049701D02*
X8230610Y-14059225D01*
X8230610Y-14059225D02*
X8240134Y-14078273D01*
X8240134Y-14078273D02*
X8240134Y-14183035D01*
X8240134Y-14078273D02*
X8249658Y-14059225D01*
X8249658Y-14059225D02*
X8268705Y-14049701D01*
X8268705Y-14049701D02*
X8297277Y-14049701D01*
X8297277Y-14049701D02*
X8316324Y-14059225D01*
X8316324Y-14059225D02*
X8325848Y-14078273D01*
X8325848Y-14078273D02*
X8325848Y-14183035D01*
X8421086Y-14183035D02*
X8421086Y-14049701D01*
X8421086Y-14068749D02*
X8430610Y-14059225D01*
X8430610Y-14059225D02*
X8449658Y-14049701D01*
X8449658Y-14049701D02*
X8478229Y-14049701D01*
X8478229Y-14049701D02*
X8497277Y-14059225D01*
X8497277Y-14059225D02*
X8506801Y-14078273D01*
X8506801Y-14078273D02*
X8506801Y-14183035D01*
X8506801Y-14078273D02*
X8516325Y-14059225D01*
X8516325Y-14059225D02*
X8535372Y-14049701D01*
X8535372Y-14049701D02*
X8563944Y-14049701D01*
X8563944Y-14049701D02*
X8582991Y-14059225D01*
X8582991Y-14059225D02*
X8592515Y-14078273D01*
X8592515Y-14078273D02*
X8592515Y-14183035D01*
X8982991Y-13973511D02*
X8811563Y-14230654D01*
X9240134Y-13983035D02*
X9259182Y-13983035D01*
X9259182Y-13983035D02*
X9278229Y-13992559D01*
X9278229Y-13992559D02*
X9287753Y-14002082D01*
X9287753Y-14002082D02*
X9297277Y-14021130D01*
X9297277Y-14021130D02*
X9306801Y-14059225D01*
X9306801Y-14059225D02*
X9306801Y-14106844D01*
X9306801Y-14106844D02*
X9297277Y-14144939D01*
X9297277Y-14144939D02*
X9287753Y-14163987D01*
X9287753Y-14163987D02*
X9278229Y-14173511D01*
X9278229Y-14173511D02*
X9259182Y-14183035D01*
X9259182Y-14183035D02*
X9240134Y-14183035D01*
X9240134Y-14183035D02*
X9221087Y-14173511D01*
X9221087Y-14173511D02*
X9211563Y-14163987D01*
X9211563Y-14163987D02*
X9202039Y-14144939D01*
X9202039Y-14144939D02*
X9192515Y-14106844D01*
X9192515Y-14106844D02*
X9192515Y-14059225D01*
X9192515Y-14059225D02*
X9202039Y-14021130D01*
X9202039Y-14021130D02*
X9211563Y-14002082D01*
X9211563Y-14002082D02*
X9221087Y-13992559D01*
X9221087Y-13992559D02*
X9240134Y-13983035D01*
X9392515Y-14163987D02*
X9402039Y-14173511D01*
X9402039Y-14173511D02*
X9392515Y-14183035D01*
X9392515Y-14183035D02*
X9382991Y-14173511D01*
X9382991Y-14173511D02*
X9392515Y-14163987D01*
X9392515Y-14163987D02*
X9392515Y-14183035D01*
X9525848Y-13983035D02*
X9544896Y-13983035D01*
X9544896Y-13983035D02*
X9563944Y-13992559D01*
X9563944Y-13992559D02*
X9573468Y-14002082D01*
X9573468Y-14002082D02*
X9582991Y-14021130D01*
X9582991Y-14021130D02*
X9592515Y-14059225D01*
X9592515Y-14059225D02*
X9592515Y-14106844D01*
X9592515Y-14106844D02*
X9582991Y-14144939D01*
X9582991Y-14144939D02*
X9573468Y-14163987D01*
X9573468Y-14163987D02*
X9563944Y-14173511D01*
X9563944Y-14173511D02*
X9544896Y-14183035D01*
X9544896Y-14183035D02*
X9525848Y-14183035D01*
X9525848Y-14183035D02*
X9506801Y-14173511D01*
X9506801Y-14173511D02*
X9497277Y-14163987D01*
X9497277Y-14163987D02*
X9487753Y-14144939D01*
X9487753Y-14144939D02*
X9478229Y-14106844D01*
X9478229Y-14106844D02*
X9478229Y-14059225D01*
X9478229Y-14059225D02*
X9487753Y-14021130D01*
X9487753Y-14021130D02*
X9497277Y-14002082D01*
X9497277Y-14002082D02*
X9506801Y-13992559D01*
X9506801Y-13992559D02*
X9525848Y-13983035D01*
X9782991Y-14183035D02*
X9668706Y-14183035D01*
X9725848Y-14183035D02*
X9725848Y-13983035D01*
X9725848Y-13983035D02*
X9706801Y-14011606D01*
X9706801Y-14011606D02*
X9687753Y-14030654D01*
X9687753Y-14030654D02*
X9668706Y-14040178D01*
X9973468Y-14183035D02*
X9859182Y-14183035D01*
X9916325Y-14183035D02*
X9916325Y-13983035D01*
X9916325Y-13983035D02*
X9897277Y-14011606D01*
X9897277Y-14011606D02*
X9878229Y-14030654D01*
X9878229Y-14030654D02*
X9859182Y-14040178D01*
X10087753Y-14068749D02*
X10068706Y-14059225D01*
X10068706Y-14059225D02*
X10059182Y-14049701D01*
X10059182Y-14049701D02*
X10049658Y-14030654D01*
X10049658Y-14030654D02*
X10049658Y-14021130D01*
X10049658Y-14021130D02*
X10059182Y-14002082D01*
X10059182Y-14002082D02*
X10068706Y-13992559D01*
X10068706Y-13992559D02*
X10087753Y-13983035D01*
X10087753Y-13983035D02*
X10125849Y-13983035D01*
X10125849Y-13983035D02*
X10144896Y-13992559D01*
X10144896Y-13992559D02*
X10154420Y-14002082D01*
X10154420Y-14002082D02*
X10163944Y-14021130D01*
X10163944Y-14021130D02*
X10163944Y-14030654D01*
X10163944Y-14030654D02*
X10154420Y-14049701D01*
X10154420Y-14049701D02*
X10144896Y-14059225D01*
X10144896Y-14059225D02*
X10125849Y-14068749D01*
X10125849Y-14068749D02*
X10087753Y-14068749D01*
X10087753Y-14068749D02*
X10068706Y-14078273D01*
X10068706Y-14078273D02*
X10059182Y-14087797D01*
X10059182Y-14087797D02*
X10049658Y-14106844D01*
X10049658Y-14106844D02*
X10049658Y-14144939D01*
X10049658Y-14144939D02*
X10059182Y-14163987D01*
X10059182Y-14163987D02*
X10068706Y-14173511D01*
X10068706Y-14173511D02*
X10087753Y-14183035D01*
X10087753Y-14183035D02*
X10125849Y-14183035D01*
X10125849Y-14183035D02*
X10144896Y-14173511D01*
X10144896Y-14173511D02*
X10154420Y-14163987D01*
X10154420Y-14163987D02*
X10163944Y-14144939D01*
X10163944Y-14144939D02*
X10163944Y-14106844D01*
X10163944Y-14106844D02*
X10154420Y-14087797D01*
X10154420Y-14087797D02*
X10144896Y-14078273D01*
X10144896Y-14078273D02*
X10125849Y-14068749D01*
X10240134Y-13983035D02*
X10240134Y-14021130D01*
X10316325Y-13983035D02*
X10316325Y-14021130D01*
X10611563Y-14259225D02*
X10602039Y-14249701D01*
X10602039Y-14249701D02*
X10582991Y-14221130D01*
X10582991Y-14221130D02*
X10573468Y-14202082D01*
X10573468Y-14202082D02*
X10563944Y-14173511D01*
X10563944Y-14173511D02*
X10554420Y-14125892D01*
X10554420Y-14125892D02*
X10554420Y-14087797D01*
X10554420Y-14087797D02*
X10563944Y-14040178D01*
X10563944Y-14040178D02*
X10573468Y-14011606D01*
X10573468Y-14011606D02*
X10582991Y-13992559D01*
X10582991Y-13992559D02*
X10602039Y-13963987D01*
X10602039Y-13963987D02*
X10611563Y-13954463D01*
X10773468Y-14049701D02*
X10773468Y-14183035D01*
X10725849Y-13973511D02*
X10678230Y-14116368D01*
X10678230Y-14116368D02*
X10802039Y-14116368D01*
X11030611Y-14183035D02*
X11030611Y-13983035D01*
X11116325Y-14183035D02*
X11116325Y-14078273D01*
X11116325Y-14078273D02*
X11106801Y-14059225D01*
X11106801Y-14059225D02*
X11087753Y-14049701D01*
X11087753Y-14049701D02*
X11059182Y-14049701D01*
X11059182Y-14049701D02*
X11040134Y-14059225D01*
X11040134Y-14059225D02*
X11030611Y-14068749D01*
X11240134Y-14183035D02*
X11221087Y-14173511D01*
X11221087Y-14173511D02*
X11211563Y-14163987D01*
X11211563Y-14163987D02*
X11202039Y-14144939D01*
X11202039Y-14144939D02*
X11202039Y-14087797D01*
X11202039Y-14087797D02*
X11211563Y-14068749D01*
X11211563Y-14068749D02*
X11221087Y-14059225D01*
X11221087Y-14059225D02*
X11240134Y-14049701D01*
X11240134Y-14049701D02*
X11268706Y-14049701D01*
X11268706Y-14049701D02*
X11287753Y-14059225D01*
X11287753Y-14059225D02*
X11297277Y-14068749D01*
X11297277Y-14068749D02*
X11306801Y-14087797D01*
X11306801Y-14087797D02*
X11306801Y-14144939D01*
X11306801Y-14144939D02*
X11297277Y-14163987D01*
X11297277Y-14163987D02*
X11287753Y-14173511D01*
X11287753Y-14173511D02*
X11268706Y-14183035D01*
X11268706Y-14183035D02*
X11240134Y-14183035D01*
X11421087Y-14183035D02*
X11402039Y-14173511D01*
X11402039Y-14173511D02*
X11392515Y-14154463D01*
X11392515Y-14154463D02*
X11392515Y-13983035D01*
X11573468Y-14173511D02*
X11554420Y-14183035D01*
X11554420Y-14183035D02*
X11516325Y-14183035D01*
X11516325Y-14183035D02*
X11497277Y-14173511D01*
X11497277Y-14173511D02*
X11487753Y-14154463D01*
X11487753Y-14154463D02*
X11487753Y-14078273D01*
X11487753Y-14078273D02*
X11497277Y-14059225D01*
X11497277Y-14059225D02*
X11516325Y-14049701D01*
X11516325Y-14049701D02*
X11554420Y-14049701D01*
X11554420Y-14049701D02*
X11573468Y-14059225D01*
X11573468Y-14059225D02*
X11582991Y-14078273D01*
X11582991Y-14078273D02*
X11582991Y-14097320D01*
X11582991Y-14097320D02*
X11487753Y-14116368D01*
X11659182Y-14173511D02*
X11678230Y-14183035D01*
X11678230Y-14183035D02*
X11716325Y-14183035D01*
X11716325Y-14183035D02*
X11735372Y-14173511D01*
X11735372Y-14173511D02*
X11744896Y-14154463D01*
X11744896Y-14154463D02*
X11744896Y-14144939D01*
X11744896Y-14144939D02*
X11735372Y-14125892D01*
X11735372Y-14125892D02*
X11716325Y-14116368D01*
X11716325Y-14116368D02*
X11687753Y-14116368D01*
X11687753Y-14116368D02*
X11668706Y-14106844D01*
X11668706Y-14106844D02*
X11659182Y-14087797D01*
X11659182Y-14087797D02*
X11659182Y-14078273D01*
X11659182Y-14078273D02*
X11668706Y-14059225D01*
X11668706Y-14059225D02*
X11687753Y-14049701D01*
X11687753Y-14049701D02*
X11716325Y-14049701D01*
X11716325Y-14049701D02*
X11735372Y-14059225D01*
X11811563Y-14259225D02*
X11821087Y-14249701D01*
X11821087Y-14249701D02*
X11840134Y-14221130D01*
X11840134Y-14221130D02*
X11849658Y-14202082D01*
X11849658Y-14202082D02*
X11859182Y-14173511D01*
X11859182Y-14173511D02*
X11868706Y-14125892D01*
X11868706Y-14125892D02*
X11868706Y-14087797D01*
X11868706Y-14087797D02*
X11859182Y-14040178D01*
X11859182Y-14040178D02*
X11849658Y-14011606D01*
X11849658Y-14011606D02*
X11840134Y-13992559D01*
X11840134Y-13992559D02*
X11821087Y-13963987D01*
X11821087Y-13963987D02*
X11811563Y-13954463D01*
D11*
X7036500Y-14355551D02*
G75*
G03*
X7001500Y-14355551I-17500J0D01*
G01*
X7001500Y-14355551D02*
G75*
G03*
X7036500Y-14355551I17500J0D01*
G01*
D12*
X7335372Y-14247035D02*
X7354420Y-14247035D01*
X7354420Y-14247035D02*
X7373467Y-14256559D01*
X7373467Y-14256559D02*
X7382991Y-14266082D01*
X7382991Y-14266082D02*
X7392515Y-14285130D01*
X7392515Y-14285130D02*
X7402039Y-14323225D01*
X7402039Y-14323225D02*
X7402039Y-14370844D01*
X7402039Y-14370844D02*
X7392515Y-14408939D01*
X7392515Y-14408939D02*
X7382991Y-14427987D01*
X7382991Y-14427987D02*
X7373467Y-14437511D01*
X7373467Y-14437511D02*
X7354420Y-14447035D01*
X7354420Y-14447035D02*
X7335372Y-14447035D01*
X7335372Y-14447035D02*
X7316324Y-14437511D01*
X7316324Y-14437511D02*
X7306801Y-14427987D01*
X7306801Y-14427987D02*
X7297277Y-14408939D01*
X7297277Y-14408939D02*
X7287753Y-14370844D01*
X7287753Y-14370844D02*
X7287753Y-14323225D01*
X7287753Y-14323225D02*
X7297277Y-14285130D01*
X7297277Y-14285130D02*
X7306801Y-14266082D01*
X7306801Y-14266082D02*
X7316324Y-14256559D01*
X7316324Y-14256559D02*
X7335372Y-14247035D01*
X7487753Y-14427987D02*
X7497277Y-14437511D01*
X7497277Y-14437511D02*
X7487753Y-14447035D01*
X7487753Y-14447035D02*
X7478229Y-14437511D01*
X7478229Y-14437511D02*
X7487753Y-14427987D01*
X7487753Y-14427987D02*
X7487753Y-14447035D01*
X7563943Y-14247035D02*
X7687753Y-14247035D01*
X7687753Y-14247035D02*
X7621086Y-14323225D01*
X7621086Y-14323225D02*
X7649658Y-14323225D01*
X7649658Y-14323225D02*
X7668705Y-14332749D01*
X7668705Y-14332749D02*
X7678229Y-14342273D01*
X7678229Y-14342273D02*
X7687753Y-14361320D01*
X7687753Y-14361320D02*
X7687753Y-14408939D01*
X7687753Y-14408939D02*
X7678229Y-14427987D01*
X7678229Y-14427987D02*
X7668705Y-14437511D01*
X7668705Y-14437511D02*
X7649658Y-14447035D01*
X7649658Y-14447035D02*
X7592515Y-14447035D01*
X7592515Y-14447035D02*
X7573467Y-14437511D01*
X7573467Y-14437511D02*
X7563943Y-14427987D01*
X7868705Y-14247035D02*
X7773467Y-14247035D01*
X7773467Y-14247035D02*
X7763943Y-14342273D01*
X7763943Y-14342273D02*
X7773467Y-14332749D01*
X7773467Y-14332749D02*
X7792515Y-14323225D01*
X7792515Y-14323225D02*
X7840134Y-14323225D01*
X7840134Y-14323225D02*
X7859182Y-14332749D01*
X7859182Y-14332749D02*
X7868705Y-14342273D01*
X7868705Y-14342273D02*
X7878229Y-14361320D01*
X7878229Y-14361320D02*
X7878229Y-14408939D01*
X7878229Y-14408939D02*
X7868705Y-14427987D01*
X7868705Y-14427987D02*
X7859182Y-14437511D01*
X7859182Y-14437511D02*
X7840134Y-14447035D01*
X7840134Y-14447035D02*
X7792515Y-14447035D01*
X7792515Y-14447035D02*
X7773467Y-14437511D01*
X7773467Y-14437511D02*
X7763943Y-14427987D01*
X8002039Y-14247035D02*
X8021086Y-14247035D01*
X8021086Y-14247035D02*
X8040134Y-14256559D01*
X8040134Y-14256559D02*
X8049658Y-14266082D01*
X8049658Y-14266082D02*
X8059182Y-14285130D01*
X8059182Y-14285130D02*
X8068705Y-14323225D01*
X8068705Y-14323225D02*
X8068705Y-14370844D01*
X8068705Y-14370844D02*
X8059182Y-14408939D01*
X8059182Y-14408939D02*
X8049658Y-14427987D01*
X8049658Y-14427987D02*
X8040134Y-14437511D01*
X8040134Y-14437511D02*
X8021086Y-14447035D01*
X8021086Y-14447035D02*
X8002039Y-14447035D01*
X8002039Y-14447035D02*
X7982991Y-14437511D01*
X7982991Y-14437511D02*
X7973467Y-14427987D01*
X7973467Y-14427987D02*
X7963943Y-14408939D01*
X7963943Y-14408939D02*
X7954420Y-14370844D01*
X7954420Y-14370844D02*
X7954420Y-14323225D01*
X7954420Y-14323225D02*
X7963943Y-14285130D01*
X7963943Y-14285130D02*
X7973467Y-14266082D01*
X7973467Y-14266082D02*
X7982991Y-14256559D01*
X7982991Y-14256559D02*
X8002039Y-14247035D01*
X8154420Y-14447035D02*
X8154420Y-14313701D01*
X8154420Y-14332749D02*
X8163943Y-14323225D01*
X8163943Y-14323225D02*
X8182991Y-14313701D01*
X8182991Y-14313701D02*
X8211563Y-14313701D01*
X8211563Y-14313701D02*
X8230610Y-14323225D01*
X8230610Y-14323225D02*
X8240134Y-14342273D01*
X8240134Y-14342273D02*
X8240134Y-14447035D01*
X8240134Y-14342273D02*
X8249658Y-14323225D01*
X8249658Y-14323225D02*
X8268705Y-14313701D01*
X8268705Y-14313701D02*
X8297277Y-14313701D01*
X8297277Y-14313701D02*
X8316324Y-14323225D01*
X8316324Y-14323225D02*
X8325848Y-14342273D01*
X8325848Y-14342273D02*
X8325848Y-14447035D01*
X8421086Y-14447035D02*
X8421086Y-14313701D01*
X8421086Y-14332749D02*
X8430610Y-14323225D01*
X8430610Y-14323225D02*
X8449658Y-14313701D01*
X8449658Y-14313701D02*
X8478229Y-14313701D01*
X8478229Y-14313701D02*
X8497277Y-14323225D01*
X8497277Y-14323225D02*
X8506801Y-14342273D01*
X8506801Y-14342273D02*
X8506801Y-14447035D01*
X8506801Y-14342273D02*
X8516325Y-14323225D01*
X8516325Y-14323225D02*
X8535372Y-14313701D01*
X8535372Y-14313701D02*
X8563944Y-14313701D01*
X8563944Y-14313701D02*
X8582991Y-14323225D01*
X8582991Y-14323225D02*
X8592515Y-14342273D01*
X8592515Y-14342273D02*
X8592515Y-14447035D01*
X8982991Y-14237511D02*
X8811563Y-14494654D01*
X9240134Y-14247035D02*
X9259182Y-14247035D01*
X9259182Y-14247035D02*
X9278229Y-14256559D01*
X9278229Y-14256559D02*
X9287753Y-14266082D01*
X9287753Y-14266082D02*
X9297277Y-14285130D01*
X9297277Y-14285130D02*
X9306801Y-14323225D01*
X9306801Y-14323225D02*
X9306801Y-14370844D01*
X9306801Y-14370844D02*
X9297277Y-14408939D01*
X9297277Y-14408939D02*
X9287753Y-14427987D01*
X9287753Y-14427987D02*
X9278229Y-14437511D01*
X9278229Y-14437511D02*
X9259182Y-14447035D01*
X9259182Y-14447035D02*
X9240134Y-14447035D01*
X9240134Y-14447035D02*
X9221087Y-14437511D01*
X9221087Y-14437511D02*
X9211563Y-14427987D01*
X9211563Y-14427987D02*
X9202039Y-14408939D01*
X9202039Y-14408939D02*
X9192515Y-14370844D01*
X9192515Y-14370844D02*
X9192515Y-14323225D01*
X9192515Y-14323225D02*
X9202039Y-14285130D01*
X9202039Y-14285130D02*
X9211563Y-14266082D01*
X9211563Y-14266082D02*
X9221087Y-14256559D01*
X9221087Y-14256559D02*
X9240134Y-14247035D01*
X9392515Y-14427987D02*
X9402039Y-14437511D01*
X9402039Y-14437511D02*
X9392515Y-14447035D01*
X9392515Y-14447035D02*
X9382991Y-14437511D01*
X9382991Y-14437511D02*
X9392515Y-14427987D01*
X9392515Y-14427987D02*
X9392515Y-14447035D01*
X9525848Y-14247035D02*
X9544896Y-14247035D01*
X9544896Y-14247035D02*
X9563944Y-14256559D01*
X9563944Y-14256559D02*
X9573468Y-14266082D01*
X9573468Y-14266082D02*
X9582991Y-14285130D01*
X9582991Y-14285130D02*
X9592515Y-14323225D01*
X9592515Y-14323225D02*
X9592515Y-14370844D01*
X9592515Y-14370844D02*
X9582991Y-14408939D01*
X9582991Y-14408939D02*
X9573468Y-14427987D01*
X9573468Y-14427987D02*
X9563944Y-14437511D01*
X9563944Y-14437511D02*
X9544896Y-14447035D01*
X9544896Y-14447035D02*
X9525848Y-14447035D01*
X9525848Y-14447035D02*
X9506801Y-14437511D01*
X9506801Y-14437511D02*
X9497277Y-14427987D01*
X9497277Y-14427987D02*
X9487753Y-14408939D01*
X9487753Y-14408939D02*
X9478229Y-14370844D01*
X9478229Y-14370844D02*
X9478229Y-14323225D01*
X9478229Y-14323225D02*
X9487753Y-14285130D01*
X9487753Y-14285130D02*
X9497277Y-14266082D01*
X9497277Y-14266082D02*
X9506801Y-14256559D01*
X9506801Y-14256559D02*
X9525848Y-14247035D01*
X9782991Y-14447035D02*
X9668706Y-14447035D01*
X9725848Y-14447035D02*
X9725848Y-14247035D01*
X9725848Y-14247035D02*
X9706801Y-14275606D01*
X9706801Y-14275606D02*
X9687753Y-14294654D01*
X9687753Y-14294654D02*
X9668706Y-14304178D01*
X9849658Y-14247035D02*
X9973468Y-14247035D01*
X9973468Y-14247035D02*
X9906801Y-14323225D01*
X9906801Y-14323225D02*
X9935372Y-14323225D01*
X9935372Y-14323225D02*
X9954420Y-14332749D01*
X9954420Y-14332749D02*
X9963944Y-14342273D01*
X9963944Y-14342273D02*
X9973468Y-14361320D01*
X9973468Y-14361320D02*
X9973468Y-14408939D01*
X9973468Y-14408939D02*
X9963944Y-14427987D01*
X9963944Y-14427987D02*
X9954420Y-14437511D01*
X9954420Y-14437511D02*
X9935372Y-14447035D01*
X9935372Y-14447035D02*
X9878229Y-14447035D01*
X9878229Y-14447035D02*
X9859182Y-14437511D01*
X9859182Y-14437511D02*
X9849658Y-14427987D01*
X10087753Y-14332749D02*
X10068706Y-14323225D01*
X10068706Y-14323225D02*
X10059182Y-14313701D01*
X10059182Y-14313701D02*
X10049658Y-14294654D01*
X10049658Y-14294654D02*
X10049658Y-14285130D01*
X10049658Y-14285130D02*
X10059182Y-14266082D01*
X10059182Y-14266082D02*
X10068706Y-14256559D01*
X10068706Y-14256559D02*
X10087753Y-14247035D01*
X10087753Y-14247035D02*
X10125849Y-14247035D01*
X10125849Y-14247035D02*
X10144896Y-14256559D01*
X10144896Y-14256559D02*
X10154420Y-14266082D01*
X10154420Y-14266082D02*
X10163944Y-14285130D01*
X10163944Y-14285130D02*
X10163944Y-14294654D01*
X10163944Y-14294654D02*
X10154420Y-14313701D01*
X10154420Y-14313701D02*
X10144896Y-14323225D01*
X10144896Y-14323225D02*
X10125849Y-14332749D01*
X10125849Y-14332749D02*
X10087753Y-14332749D01*
X10087753Y-14332749D02*
X10068706Y-14342273D01*
X10068706Y-14342273D02*
X10059182Y-14351797D01*
X10059182Y-14351797D02*
X10049658Y-14370844D01*
X10049658Y-14370844D02*
X10049658Y-14408939D01*
X10049658Y-14408939D02*
X10059182Y-14427987D01*
X10059182Y-14427987D02*
X10068706Y-14437511D01*
X10068706Y-14437511D02*
X10087753Y-14447035D01*
X10087753Y-14447035D02*
X10125849Y-14447035D01*
X10125849Y-14447035D02*
X10144896Y-14437511D01*
X10144896Y-14437511D02*
X10154420Y-14427987D01*
X10154420Y-14427987D02*
X10163944Y-14408939D01*
X10163944Y-14408939D02*
X10163944Y-14370844D01*
X10163944Y-14370844D02*
X10154420Y-14351797D01*
X10154420Y-14351797D02*
X10144896Y-14342273D01*
X10144896Y-14342273D02*
X10125849Y-14332749D01*
X10240134Y-14247035D02*
X10240134Y-14285130D01*
X10316325Y-14247035D02*
X10316325Y-14285130D01*
X10611563Y-14523225D02*
X10602039Y-14513701D01*
X10602039Y-14513701D02*
X10582991Y-14485130D01*
X10582991Y-14485130D02*
X10573468Y-14466082D01*
X10573468Y-14466082D02*
X10563944Y-14437511D01*
X10563944Y-14437511D02*
X10554420Y-14389892D01*
X10554420Y-14389892D02*
X10554420Y-14351797D01*
X10554420Y-14351797D02*
X10563944Y-14304178D01*
X10563944Y-14304178D02*
X10573468Y-14275606D01*
X10573468Y-14275606D02*
X10582991Y-14256559D01*
X10582991Y-14256559D02*
X10602039Y-14227987D01*
X10602039Y-14227987D02*
X10611563Y-14218463D01*
X10792515Y-14447035D02*
X10678230Y-14447035D01*
X10735372Y-14447035D02*
X10735372Y-14247035D01*
X10735372Y-14247035D02*
X10716325Y-14275606D01*
X10716325Y-14275606D02*
X10697277Y-14294654D01*
X10697277Y-14294654D02*
X10678230Y-14304178D01*
X11030611Y-14447035D02*
X11030611Y-14247035D01*
X11116325Y-14447035D02*
X11116325Y-14342273D01*
X11116325Y-14342273D02*
X11106801Y-14323225D01*
X11106801Y-14323225D02*
X11087753Y-14313701D01*
X11087753Y-14313701D02*
X11059182Y-14313701D01*
X11059182Y-14313701D02*
X11040134Y-14323225D01*
X11040134Y-14323225D02*
X11030611Y-14332749D01*
X11240134Y-14447035D02*
X11221087Y-14437511D01*
X11221087Y-14437511D02*
X11211563Y-14427987D01*
X11211563Y-14427987D02*
X11202039Y-14408939D01*
X11202039Y-14408939D02*
X11202039Y-14351797D01*
X11202039Y-14351797D02*
X11211563Y-14332749D01*
X11211563Y-14332749D02*
X11221087Y-14323225D01*
X11221087Y-14323225D02*
X11240134Y-14313701D01*
X11240134Y-14313701D02*
X11268706Y-14313701D01*
X11268706Y-14313701D02*
X11287753Y-14323225D01*
X11287753Y-14323225D02*
X11297277Y-14332749D01*
X11297277Y-14332749D02*
X11306801Y-14351797D01*
X11306801Y-14351797D02*
X11306801Y-14408939D01*
X11306801Y-14408939D02*
X11297277Y-14427987D01*
X11297277Y-14427987D02*
X11287753Y-14437511D01*
X11287753Y-14437511D02*
X11268706Y-14447035D01*
X11268706Y-14447035D02*
X11240134Y-14447035D01*
X11421087Y-14447035D02*
X11402039Y-14437511D01*
X11402039Y-14437511D02*
X11392515Y-14418463D01*
X11392515Y-14418463D02*
X11392515Y-14247035D01*
X11573468Y-14437511D02*
X11554420Y-14447035D01*
X11554420Y-14447035D02*
X11516325Y-14447035D01*
X11516325Y-14447035D02*
X11497277Y-14437511D01*
X11497277Y-14437511D02*
X11487753Y-14418463D01*
X11487753Y-14418463D02*
X11487753Y-14342273D01*
X11487753Y-14342273D02*
X11497277Y-14323225D01*
X11497277Y-14323225D02*
X11516325Y-14313701D01*
X11516325Y-14313701D02*
X11554420Y-14313701D01*
X11554420Y-14313701D02*
X11573468Y-14323225D01*
X11573468Y-14323225D02*
X11582991Y-14342273D01*
X11582991Y-14342273D02*
X11582991Y-14361320D01*
X11582991Y-14361320D02*
X11487753Y-14380368D01*
X11649658Y-14523225D02*
X11659182Y-14513701D01*
X11659182Y-14513701D02*
X11678230Y-14485130D01*
X11678230Y-14485130D02*
X11687753Y-14466082D01*
X11687753Y-14466082D02*
X11697277Y-14437511D01*
X11697277Y-14437511D02*
X11706801Y-14389892D01*
X11706801Y-14389892D02*
X11706801Y-14351797D01*
X11706801Y-14351797D02*
X11697277Y-14304178D01*
X11697277Y-14304178D02*
X11687753Y-14275606D01*
X11687753Y-14275606D02*
X11678230Y-14256559D01*
X11678230Y-14256559D02*
X11659182Y-14227987D01*
X11659182Y-14227987D02*
X11649658Y-14218463D01*
D11*
X7016500Y-14599551D02*
X7016500Y-14639551D01*
X6996500Y-14619551D02*
X7036500Y-14619551D01*
D12*
X7335372Y-14511035D02*
X7354420Y-14511035D01*
X7354420Y-14511035D02*
X7373467Y-14520559D01*
X7373467Y-14520559D02*
X7382991Y-14530082D01*
X7382991Y-14530082D02*
X7392515Y-14549130D01*
X7392515Y-14549130D02*
X7402039Y-14587225D01*
X7402039Y-14587225D02*
X7402039Y-14634844D01*
X7402039Y-14634844D02*
X7392515Y-14672939D01*
X7392515Y-14672939D02*
X7382991Y-14691987D01*
X7382991Y-14691987D02*
X7373467Y-14701511D01*
X7373467Y-14701511D02*
X7354420Y-14711035D01*
X7354420Y-14711035D02*
X7335372Y-14711035D01*
X7335372Y-14711035D02*
X7316324Y-14701511D01*
X7316324Y-14701511D02*
X7306801Y-14691987D01*
X7306801Y-14691987D02*
X7297277Y-14672939D01*
X7297277Y-14672939D02*
X7287753Y-14634844D01*
X7287753Y-14634844D02*
X7287753Y-14587225D01*
X7287753Y-14587225D02*
X7297277Y-14549130D01*
X7297277Y-14549130D02*
X7306801Y-14530082D01*
X7306801Y-14530082D02*
X7316324Y-14520559D01*
X7316324Y-14520559D02*
X7335372Y-14511035D01*
X7487753Y-14691987D02*
X7497277Y-14701511D01*
X7497277Y-14701511D02*
X7487753Y-14711035D01*
X7487753Y-14711035D02*
X7478229Y-14701511D01*
X7478229Y-14701511D02*
X7487753Y-14691987D01*
X7487753Y-14691987D02*
X7487753Y-14711035D01*
X7668705Y-14577701D02*
X7668705Y-14711035D01*
X7621086Y-14501511D02*
X7573467Y-14644368D01*
X7573467Y-14644368D02*
X7697277Y-14644368D01*
X7811562Y-14511035D02*
X7830610Y-14511035D01*
X7830610Y-14511035D02*
X7849658Y-14520559D01*
X7849658Y-14520559D02*
X7859182Y-14530082D01*
X7859182Y-14530082D02*
X7868705Y-14549130D01*
X7868705Y-14549130D02*
X7878229Y-14587225D01*
X7878229Y-14587225D02*
X7878229Y-14634844D01*
X7878229Y-14634844D02*
X7868705Y-14672939D01*
X7868705Y-14672939D02*
X7859182Y-14691987D01*
X7859182Y-14691987D02*
X7849658Y-14701511D01*
X7849658Y-14701511D02*
X7830610Y-14711035D01*
X7830610Y-14711035D02*
X7811562Y-14711035D01*
X7811562Y-14711035D02*
X7792515Y-14701511D01*
X7792515Y-14701511D02*
X7782991Y-14691987D01*
X7782991Y-14691987D02*
X7773467Y-14672939D01*
X7773467Y-14672939D02*
X7763943Y-14634844D01*
X7763943Y-14634844D02*
X7763943Y-14587225D01*
X7763943Y-14587225D02*
X7773467Y-14549130D01*
X7773467Y-14549130D02*
X7782991Y-14530082D01*
X7782991Y-14530082D02*
X7792515Y-14520559D01*
X7792515Y-14520559D02*
X7811562Y-14511035D01*
X8002039Y-14511035D02*
X8021086Y-14511035D01*
X8021086Y-14511035D02*
X8040134Y-14520559D01*
X8040134Y-14520559D02*
X8049658Y-14530082D01*
X8049658Y-14530082D02*
X8059182Y-14549130D01*
X8059182Y-14549130D02*
X8068705Y-14587225D01*
X8068705Y-14587225D02*
X8068705Y-14634844D01*
X8068705Y-14634844D02*
X8059182Y-14672939D01*
X8059182Y-14672939D02*
X8049658Y-14691987D01*
X8049658Y-14691987D02*
X8040134Y-14701511D01*
X8040134Y-14701511D02*
X8021086Y-14711035D01*
X8021086Y-14711035D02*
X8002039Y-14711035D01*
X8002039Y-14711035D02*
X7982991Y-14701511D01*
X7982991Y-14701511D02*
X7973467Y-14691987D01*
X7973467Y-14691987D02*
X7963943Y-14672939D01*
X7963943Y-14672939D02*
X7954420Y-14634844D01*
X7954420Y-14634844D02*
X7954420Y-14587225D01*
X7954420Y-14587225D02*
X7963943Y-14549130D01*
X7963943Y-14549130D02*
X7973467Y-14530082D01*
X7973467Y-14530082D02*
X7982991Y-14520559D01*
X7982991Y-14520559D02*
X8002039Y-14511035D01*
X8154420Y-14711035D02*
X8154420Y-14577701D01*
X8154420Y-14596749D02*
X8163943Y-14587225D01*
X8163943Y-14587225D02*
X8182991Y-14577701D01*
X8182991Y-14577701D02*
X8211563Y-14577701D01*
X8211563Y-14577701D02*
X8230610Y-14587225D01*
X8230610Y-14587225D02*
X8240134Y-14606273D01*
X8240134Y-14606273D02*
X8240134Y-14711035D01*
X8240134Y-14606273D02*
X8249658Y-14587225D01*
X8249658Y-14587225D02*
X8268705Y-14577701D01*
X8268705Y-14577701D02*
X8297277Y-14577701D01*
X8297277Y-14577701D02*
X8316324Y-14587225D01*
X8316324Y-14587225D02*
X8325848Y-14606273D01*
X8325848Y-14606273D02*
X8325848Y-14711035D01*
X8421086Y-14711035D02*
X8421086Y-14577701D01*
X8421086Y-14596749D02*
X8430610Y-14587225D01*
X8430610Y-14587225D02*
X8449658Y-14577701D01*
X8449658Y-14577701D02*
X8478229Y-14577701D01*
X8478229Y-14577701D02*
X8497277Y-14587225D01*
X8497277Y-14587225D02*
X8506801Y-14606273D01*
X8506801Y-14606273D02*
X8506801Y-14711035D01*
X8506801Y-14606273D02*
X8516325Y-14587225D01*
X8516325Y-14587225D02*
X8535372Y-14577701D01*
X8535372Y-14577701D02*
X8563944Y-14577701D01*
X8563944Y-14577701D02*
X8582991Y-14587225D01*
X8582991Y-14587225D02*
X8592515Y-14606273D01*
X8592515Y-14606273D02*
X8592515Y-14711035D01*
X8982991Y-14501511D02*
X8811563Y-14758654D01*
X9240134Y-14511035D02*
X9259182Y-14511035D01*
X9259182Y-14511035D02*
X9278229Y-14520559D01*
X9278229Y-14520559D02*
X9287753Y-14530082D01*
X9287753Y-14530082D02*
X9297277Y-14549130D01*
X9297277Y-14549130D02*
X9306801Y-14587225D01*
X9306801Y-14587225D02*
X9306801Y-14634844D01*
X9306801Y-14634844D02*
X9297277Y-14672939D01*
X9297277Y-14672939D02*
X9287753Y-14691987D01*
X9287753Y-14691987D02*
X9278229Y-14701511D01*
X9278229Y-14701511D02*
X9259182Y-14711035D01*
X9259182Y-14711035D02*
X9240134Y-14711035D01*
X9240134Y-14711035D02*
X9221087Y-14701511D01*
X9221087Y-14701511D02*
X9211563Y-14691987D01*
X9211563Y-14691987D02*
X9202039Y-14672939D01*
X9202039Y-14672939D02*
X9192515Y-14634844D01*
X9192515Y-14634844D02*
X9192515Y-14587225D01*
X9192515Y-14587225D02*
X9202039Y-14549130D01*
X9202039Y-14549130D02*
X9211563Y-14530082D01*
X9211563Y-14530082D02*
X9221087Y-14520559D01*
X9221087Y-14520559D02*
X9240134Y-14511035D01*
X9392515Y-14691987D02*
X9402039Y-14701511D01*
X9402039Y-14701511D02*
X9392515Y-14711035D01*
X9392515Y-14711035D02*
X9382991Y-14701511D01*
X9382991Y-14701511D02*
X9392515Y-14691987D01*
X9392515Y-14691987D02*
X9392515Y-14711035D01*
X9525848Y-14511035D02*
X9544896Y-14511035D01*
X9544896Y-14511035D02*
X9563944Y-14520559D01*
X9563944Y-14520559D02*
X9573468Y-14530082D01*
X9573468Y-14530082D02*
X9582991Y-14549130D01*
X9582991Y-14549130D02*
X9592515Y-14587225D01*
X9592515Y-14587225D02*
X9592515Y-14634844D01*
X9592515Y-14634844D02*
X9582991Y-14672939D01*
X9582991Y-14672939D02*
X9573468Y-14691987D01*
X9573468Y-14691987D02*
X9563944Y-14701511D01*
X9563944Y-14701511D02*
X9544896Y-14711035D01*
X9544896Y-14711035D02*
X9525848Y-14711035D01*
X9525848Y-14711035D02*
X9506801Y-14701511D01*
X9506801Y-14701511D02*
X9497277Y-14691987D01*
X9497277Y-14691987D02*
X9487753Y-14672939D01*
X9487753Y-14672939D02*
X9478229Y-14634844D01*
X9478229Y-14634844D02*
X9478229Y-14587225D01*
X9478229Y-14587225D02*
X9487753Y-14549130D01*
X9487753Y-14549130D02*
X9497277Y-14530082D01*
X9497277Y-14530082D02*
X9506801Y-14520559D01*
X9506801Y-14520559D02*
X9525848Y-14511035D01*
X9782991Y-14711035D02*
X9668706Y-14711035D01*
X9725848Y-14711035D02*
X9725848Y-14511035D01*
X9725848Y-14511035D02*
X9706801Y-14539606D01*
X9706801Y-14539606D02*
X9687753Y-14558654D01*
X9687753Y-14558654D02*
X9668706Y-14568178D01*
X9963944Y-14511035D02*
X9868706Y-14511035D01*
X9868706Y-14511035D02*
X9859182Y-14606273D01*
X9859182Y-14606273D02*
X9868706Y-14596749D01*
X9868706Y-14596749D02*
X9887753Y-14587225D01*
X9887753Y-14587225D02*
X9935372Y-14587225D01*
X9935372Y-14587225D02*
X9954420Y-14596749D01*
X9954420Y-14596749D02*
X9963944Y-14606273D01*
X9963944Y-14606273D02*
X9973468Y-14625320D01*
X9973468Y-14625320D02*
X9973468Y-14672939D01*
X9973468Y-14672939D02*
X9963944Y-14691987D01*
X9963944Y-14691987D02*
X9954420Y-14701511D01*
X9954420Y-14701511D02*
X9935372Y-14711035D01*
X9935372Y-14711035D02*
X9887753Y-14711035D01*
X9887753Y-14711035D02*
X9868706Y-14701511D01*
X9868706Y-14701511D02*
X9859182Y-14691987D01*
X10040134Y-14511035D02*
X10173468Y-14511035D01*
X10173468Y-14511035D02*
X10087753Y-14711035D01*
X10240134Y-14511035D02*
X10240134Y-14549130D01*
X10316325Y-14511035D02*
X10316325Y-14549130D01*
X10611563Y-14787225D02*
X10602039Y-14777701D01*
X10602039Y-14777701D02*
X10582991Y-14749130D01*
X10582991Y-14749130D02*
X10573468Y-14730082D01*
X10573468Y-14730082D02*
X10563944Y-14701511D01*
X10563944Y-14701511D02*
X10554420Y-14653892D01*
X10554420Y-14653892D02*
X10554420Y-14615797D01*
X10554420Y-14615797D02*
X10563944Y-14568178D01*
X10563944Y-14568178D02*
X10573468Y-14539606D01*
X10573468Y-14539606D02*
X10582991Y-14520559D01*
X10582991Y-14520559D02*
X10602039Y-14491987D01*
X10602039Y-14491987D02*
X10611563Y-14482463D01*
X10792515Y-14711035D02*
X10678230Y-14711035D01*
X10735372Y-14711035D02*
X10735372Y-14511035D01*
X10735372Y-14511035D02*
X10716325Y-14539606D01*
X10716325Y-14539606D02*
X10697277Y-14558654D01*
X10697277Y-14558654D02*
X10678230Y-14568178D01*
X10859182Y-14511035D02*
X10982991Y-14511035D01*
X10982991Y-14511035D02*
X10916325Y-14587225D01*
X10916325Y-14587225D02*
X10944896Y-14587225D01*
X10944896Y-14587225D02*
X10963944Y-14596749D01*
X10963944Y-14596749D02*
X10973468Y-14606273D01*
X10973468Y-14606273D02*
X10982991Y-14625320D01*
X10982991Y-14625320D02*
X10982991Y-14672939D01*
X10982991Y-14672939D02*
X10973468Y-14691987D01*
X10973468Y-14691987D02*
X10963944Y-14701511D01*
X10963944Y-14701511D02*
X10944896Y-14711035D01*
X10944896Y-14711035D02*
X10887753Y-14711035D01*
X10887753Y-14711035D02*
X10868706Y-14701511D01*
X10868706Y-14701511D02*
X10859182Y-14691987D01*
X11078230Y-14711035D02*
X11116325Y-14711035D01*
X11116325Y-14711035D02*
X11135372Y-14701511D01*
X11135372Y-14701511D02*
X11144896Y-14691987D01*
X11144896Y-14691987D02*
X11163944Y-14663416D01*
X11163944Y-14663416D02*
X11173468Y-14625320D01*
X11173468Y-14625320D02*
X11173468Y-14549130D01*
X11173468Y-14549130D02*
X11163944Y-14530082D01*
X11163944Y-14530082D02*
X11154420Y-14520559D01*
X11154420Y-14520559D02*
X11135372Y-14511035D01*
X11135372Y-14511035D02*
X11097277Y-14511035D01*
X11097277Y-14511035D02*
X11078230Y-14520559D01*
X11078230Y-14520559D02*
X11068706Y-14530082D01*
X11068706Y-14530082D02*
X11059182Y-14549130D01*
X11059182Y-14549130D02*
X11059182Y-14596749D01*
X11059182Y-14596749D02*
X11068706Y-14615797D01*
X11068706Y-14615797D02*
X11078230Y-14625320D01*
X11078230Y-14625320D02*
X11097277Y-14634844D01*
X11097277Y-14634844D02*
X11135372Y-14634844D01*
X11135372Y-14634844D02*
X11154420Y-14625320D01*
X11154420Y-14625320D02*
X11163944Y-14615797D01*
X11163944Y-14615797D02*
X11173468Y-14596749D01*
X11411563Y-14711035D02*
X11411563Y-14511035D01*
X11497277Y-14711035D02*
X11497277Y-14606273D01*
X11497277Y-14606273D02*
X11487753Y-14587225D01*
X11487753Y-14587225D02*
X11468706Y-14577701D01*
X11468706Y-14577701D02*
X11440134Y-14577701D01*
X11440134Y-14577701D02*
X11421087Y-14587225D01*
X11421087Y-14587225D02*
X11411563Y-14596749D01*
X11621087Y-14711035D02*
X11602039Y-14701511D01*
X11602039Y-14701511D02*
X11592515Y-14691987D01*
X11592515Y-14691987D02*
X11582991Y-14672939D01*
X11582991Y-14672939D02*
X11582991Y-14615797D01*
X11582991Y-14615797D02*
X11592515Y-14596749D01*
X11592515Y-14596749D02*
X11602039Y-14587225D01*
X11602039Y-14587225D02*
X11621087Y-14577701D01*
X11621087Y-14577701D02*
X11649658Y-14577701D01*
X11649658Y-14577701D02*
X11668706Y-14587225D01*
X11668706Y-14587225D02*
X11678230Y-14596749D01*
X11678230Y-14596749D02*
X11687753Y-14615797D01*
X11687753Y-14615797D02*
X11687753Y-14672939D01*
X11687753Y-14672939D02*
X11678230Y-14691987D01*
X11678230Y-14691987D02*
X11668706Y-14701511D01*
X11668706Y-14701511D02*
X11649658Y-14711035D01*
X11649658Y-14711035D02*
X11621087Y-14711035D01*
X11802039Y-14711035D02*
X11782991Y-14701511D01*
X11782991Y-14701511D02*
X11773468Y-14682463D01*
X11773468Y-14682463D02*
X11773468Y-14511035D01*
X11954420Y-14701511D02*
X11935372Y-14711035D01*
X11935372Y-14711035D02*
X11897277Y-14711035D01*
X11897277Y-14711035D02*
X11878230Y-14701511D01*
X11878230Y-14701511D02*
X11868706Y-14682463D01*
X11868706Y-14682463D02*
X11868706Y-14606273D01*
X11868706Y-14606273D02*
X11878230Y-14587225D01*
X11878230Y-14587225D02*
X11897277Y-14577701D01*
X11897277Y-14577701D02*
X11935372Y-14577701D01*
X11935372Y-14577701D02*
X11954420Y-14587225D01*
X11954420Y-14587225D02*
X11963944Y-14606273D01*
X11963944Y-14606273D02*
X11963944Y-14625320D01*
X11963944Y-14625320D02*
X11868706Y-14644368D01*
X12040134Y-14701511D02*
X12059182Y-14711035D01*
X12059182Y-14711035D02*
X12097277Y-14711035D01*
X12097277Y-14711035D02*
X12116325Y-14701511D01*
X12116325Y-14701511D02*
X12125849Y-14682463D01*
X12125849Y-14682463D02*
X12125849Y-14672939D01*
X12125849Y-14672939D02*
X12116325Y-14653892D01*
X12116325Y-14653892D02*
X12097277Y-14644368D01*
X12097277Y-14644368D02*
X12068706Y-14644368D01*
X12068706Y-14644368D02*
X12049658Y-14634844D01*
X12049658Y-14634844D02*
X12040134Y-14615797D01*
X12040134Y-14615797D02*
X12040134Y-14606273D01*
X12040134Y-14606273D02*
X12049658Y-14587225D01*
X12049658Y-14587225D02*
X12068706Y-14577701D01*
X12068706Y-14577701D02*
X12097277Y-14577701D01*
X12097277Y-14577701D02*
X12116325Y-14587225D01*
X12192515Y-14787225D02*
X12202039Y-14777701D01*
X12202039Y-14777701D02*
X12221087Y-14749130D01*
X12221087Y-14749130D02*
X12230611Y-14730082D01*
X12230611Y-14730082D02*
X12240134Y-14701511D01*
X12240134Y-14701511D02*
X12249658Y-14653892D01*
X12249658Y-14653892D02*
X12249658Y-14615797D01*
X12249658Y-14615797D02*
X12240134Y-14568178D01*
X12240134Y-14568178D02*
X12230611Y-14539606D01*
X12230611Y-14539606D02*
X12221087Y-14520559D01*
X12221087Y-14520559D02*
X12202039Y-14491987D01*
X12202039Y-14491987D02*
X12192515Y-14482463D01*
D11*
X7026249Y-14908300D02*
X7026249Y-14858802D01*
X6976751Y-14858802D01*
X6976751Y-14908300D01*
X7026249Y-14908300D01*
D12*
X7335372Y-14775035D02*
X7354420Y-14775035D01*
X7354420Y-14775035D02*
X7373467Y-14784559D01*
X7373467Y-14784559D02*
X7382991Y-14794082D01*
X7382991Y-14794082D02*
X7392515Y-14813130D01*
X7392515Y-14813130D02*
X7402039Y-14851225D01*
X7402039Y-14851225D02*
X7402039Y-14898844D01*
X7402039Y-14898844D02*
X7392515Y-14936939D01*
X7392515Y-14936939D02*
X7382991Y-14955987D01*
X7382991Y-14955987D02*
X7373467Y-14965511D01*
X7373467Y-14965511D02*
X7354420Y-14975035D01*
X7354420Y-14975035D02*
X7335372Y-14975035D01*
X7335372Y-14975035D02*
X7316324Y-14965511D01*
X7316324Y-14965511D02*
X7306801Y-14955987D01*
X7306801Y-14955987D02*
X7297277Y-14936939D01*
X7297277Y-14936939D02*
X7287753Y-14898844D01*
X7287753Y-14898844D02*
X7287753Y-14851225D01*
X7287753Y-14851225D02*
X7297277Y-14813130D01*
X7297277Y-14813130D02*
X7306801Y-14794082D01*
X7306801Y-14794082D02*
X7316324Y-14784559D01*
X7316324Y-14784559D02*
X7335372Y-14775035D01*
X7487753Y-14955987D02*
X7497277Y-14965511D01*
X7497277Y-14965511D02*
X7487753Y-14975035D01*
X7487753Y-14975035D02*
X7478229Y-14965511D01*
X7478229Y-14965511D02*
X7487753Y-14955987D01*
X7487753Y-14955987D02*
X7487753Y-14975035D01*
X7563943Y-14775035D02*
X7697277Y-14775035D01*
X7697277Y-14775035D02*
X7611562Y-14975035D01*
X7811562Y-14775035D02*
X7830610Y-14775035D01*
X7830610Y-14775035D02*
X7849658Y-14784559D01*
X7849658Y-14784559D02*
X7859182Y-14794082D01*
X7859182Y-14794082D02*
X7868705Y-14813130D01*
X7868705Y-14813130D02*
X7878229Y-14851225D01*
X7878229Y-14851225D02*
X7878229Y-14898844D01*
X7878229Y-14898844D02*
X7868705Y-14936939D01*
X7868705Y-14936939D02*
X7859182Y-14955987D01*
X7859182Y-14955987D02*
X7849658Y-14965511D01*
X7849658Y-14965511D02*
X7830610Y-14975035D01*
X7830610Y-14975035D02*
X7811562Y-14975035D01*
X7811562Y-14975035D02*
X7792515Y-14965511D01*
X7792515Y-14965511D02*
X7782991Y-14955987D01*
X7782991Y-14955987D02*
X7773467Y-14936939D01*
X7773467Y-14936939D02*
X7763943Y-14898844D01*
X7763943Y-14898844D02*
X7763943Y-14851225D01*
X7763943Y-14851225D02*
X7773467Y-14813130D01*
X7773467Y-14813130D02*
X7782991Y-14794082D01*
X7782991Y-14794082D02*
X7792515Y-14784559D01*
X7792515Y-14784559D02*
X7811562Y-14775035D01*
X8002039Y-14775035D02*
X8021086Y-14775035D01*
X8021086Y-14775035D02*
X8040134Y-14784559D01*
X8040134Y-14784559D02*
X8049658Y-14794082D01*
X8049658Y-14794082D02*
X8059182Y-14813130D01*
X8059182Y-14813130D02*
X8068705Y-14851225D01*
X8068705Y-14851225D02*
X8068705Y-14898844D01*
X8068705Y-14898844D02*
X8059182Y-14936939D01*
X8059182Y-14936939D02*
X8049658Y-14955987D01*
X8049658Y-14955987D02*
X8040134Y-14965511D01*
X8040134Y-14965511D02*
X8021086Y-14975035D01*
X8021086Y-14975035D02*
X8002039Y-14975035D01*
X8002039Y-14975035D02*
X7982991Y-14965511D01*
X7982991Y-14965511D02*
X7973467Y-14955987D01*
X7973467Y-14955987D02*
X7963943Y-14936939D01*
X7963943Y-14936939D02*
X7954420Y-14898844D01*
X7954420Y-14898844D02*
X7954420Y-14851225D01*
X7954420Y-14851225D02*
X7963943Y-14813130D01*
X7963943Y-14813130D02*
X7973467Y-14794082D01*
X7973467Y-14794082D02*
X7982991Y-14784559D01*
X7982991Y-14784559D02*
X8002039Y-14775035D01*
X8154420Y-14975035D02*
X8154420Y-14841701D01*
X8154420Y-14860749D02*
X8163943Y-14851225D01*
X8163943Y-14851225D02*
X8182991Y-14841701D01*
X8182991Y-14841701D02*
X8211563Y-14841701D01*
X8211563Y-14841701D02*
X8230610Y-14851225D01*
X8230610Y-14851225D02*
X8240134Y-14870273D01*
X8240134Y-14870273D02*
X8240134Y-14975035D01*
X8240134Y-14870273D02*
X8249658Y-14851225D01*
X8249658Y-14851225D02*
X8268705Y-14841701D01*
X8268705Y-14841701D02*
X8297277Y-14841701D01*
X8297277Y-14841701D02*
X8316324Y-14851225D01*
X8316324Y-14851225D02*
X8325848Y-14870273D01*
X8325848Y-14870273D02*
X8325848Y-14975035D01*
X8421086Y-14975035D02*
X8421086Y-14841701D01*
X8421086Y-14860749D02*
X8430610Y-14851225D01*
X8430610Y-14851225D02*
X8449658Y-14841701D01*
X8449658Y-14841701D02*
X8478229Y-14841701D01*
X8478229Y-14841701D02*
X8497277Y-14851225D01*
X8497277Y-14851225D02*
X8506801Y-14870273D01*
X8506801Y-14870273D02*
X8506801Y-14975035D01*
X8506801Y-14870273D02*
X8516325Y-14851225D01*
X8516325Y-14851225D02*
X8535372Y-14841701D01*
X8535372Y-14841701D02*
X8563944Y-14841701D01*
X8563944Y-14841701D02*
X8582991Y-14851225D01*
X8582991Y-14851225D02*
X8592515Y-14870273D01*
X8592515Y-14870273D02*
X8592515Y-14975035D01*
X8982991Y-14765511D02*
X8811563Y-15022654D01*
X9240134Y-14775035D02*
X9259182Y-14775035D01*
X9259182Y-14775035D02*
X9278229Y-14784559D01*
X9278229Y-14784559D02*
X9287753Y-14794082D01*
X9287753Y-14794082D02*
X9297277Y-14813130D01*
X9297277Y-14813130D02*
X9306801Y-14851225D01*
X9306801Y-14851225D02*
X9306801Y-14898844D01*
X9306801Y-14898844D02*
X9297277Y-14936939D01*
X9297277Y-14936939D02*
X9287753Y-14955987D01*
X9287753Y-14955987D02*
X9278229Y-14965511D01*
X9278229Y-14965511D02*
X9259182Y-14975035D01*
X9259182Y-14975035D02*
X9240134Y-14975035D01*
X9240134Y-14975035D02*
X9221087Y-14965511D01*
X9221087Y-14965511D02*
X9211563Y-14955987D01*
X9211563Y-14955987D02*
X9202039Y-14936939D01*
X9202039Y-14936939D02*
X9192515Y-14898844D01*
X9192515Y-14898844D02*
X9192515Y-14851225D01*
X9192515Y-14851225D02*
X9202039Y-14813130D01*
X9202039Y-14813130D02*
X9211563Y-14794082D01*
X9211563Y-14794082D02*
X9221087Y-14784559D01*
X9221087Y-14784559D02*
X9240134Y-14775035D01*
X9392515Y-14955987D02*
X9402039Y-14965511D01*
X9402039Y-14965511D02*
X9392515Y-14975035D01*
X9392515Y-14975035D02*
X9382991Y-14965511D01*
X9382991Y-14965511D02*
X9392515Y-14955987D01*
X9392515Y-14955987D02*
X9392515Y-14975035D01*
X9525848Y-14775035D02*
X9544896Y-14775035D01*
X9544896Y-14775035D02*
X9563944Y-14784559D01*
X9563944Y-14784559D02*
X9573468Y-14794082D01*
X9573468Y-14794082D02*
X9582991Y-14813130D01*
X9582991Y-14813130D02*
X9592515Y-14851225D01*
X9592515Y-14851225D02*
X9592515Y-14898844D01*
X9592515Y-14898844D02*
X9582991Y-14936939D01*
X9582991Y-14936939D02*
X9573468Y-14955987D01*
X9573468Y-14955987D02*
X9563944Y-14965511D01*
X9563944Y-14965511D02*
X9544896Y-14975035D01*
X9544896Y-14975035D02*
X9525848Y-14975035D01*
X9525848Y-14975035D02*
X9506801Y-14965511D01*
X9506801Y-14965511D02*
X9497277Y-14955987D01*
X9497277Y-14955987D02*
X9487753Y-14936939D01*
X9487753Y-14936939D02*
X9478229Y-14898844D01*
X9478229Y-14898844D02*
X9478229Y-14851225D01*
X9478229Y-14851225D02*
X9487753Y-14813130D01*
X9487753Y-14813130D02*
X9497277Y-14794082D01*
X9497277Y-14794082D02*
X9506801Y-14784559D01*
X9506801Y-14784559D02*
X9525848Y-14775035D01*
X9668706Y-14794082D02*
X9678229Y-14784559D01*
X9678229Y-14784559D02*
X9697277Y-14775035D01*
X9697277Y-14775035D02*
X9744896Y-14775035D01*
X9744896Y-14775035D02*
X9763944Y-14784559D01*
X9763944Y-14784559D02*
X9773468Y-14794082D01*
X9773468Y-14794082D02*
X9782991Y-14813130D01*
X9782991Y-14813130D02*
X9782991Y-14832178D01*
X9782991Y-14832178D02*
X9773468Y-14860749D01*
X9773468Y-14860749D02*
X9659182Y-14975035D01*
X9659182Y-14975035D02*
X9782991Y-14975035D01*
X9849658Y-14775035D02*
X9982991Y-14775035D01*
X9982991Y-14775035D02*
X9897277Y-14975035D01*
X10144896Y-14775035D02*
X10106801Y-14775035D01*
X10106801Y-14775035D02*
X10087753Y-14784559D01*
X10087753Y-14784559D02*
X10078229Y-14794082D01*
X10078229Y-14794082D02*
X10059182Y-14822654D01*
X10059182Y-14822654D02*
X10049658Y-14860749D01*
X10049658Y-14860749D02*
X10049658Y-14936939D01*
X10049658Y-14936939D02*
X10059182Y-14955987D01*
X10059182Y-14955987D02*
X10068706Y-14965511D01*
X10068706Y-14965511D02*
X10087753Y-14975035D01*
X10087753Y-14975035D02*
X10125849Y-14975035D01*
X10125849Y-14975035D02*
X10144896Y-14965511D01*
X10144896Y-14965511D02*
X10154420Y-14955987D01*
X10154420Y-14955987D02*
X10163944Y-14936939D01*
X10163944Y-14936939D02*
X10163944Y-14889320D01*
X10163944Y-14889320D02*
X10154420Y-14870273D01*
X10154420Y-14870273D02*
X10144896Y-14860749D01*
X10144896Y-14860749D02*
X10125849Y-14851225D01*
X10125849Y-14851225D02*
X10087753Y-14851225D01*
X10087753Y-14851225D02*
X10068706Y-14860749D01*
X10068706Y-14860749D02*
X10059182Y-14870273D01*
X10059182Y-14870273D02*
X10049658Y-14889320D01*
X10240134Y-14775035D02*
X10240134Y-14813130D01*
X10316325Y-14775035D02*
X10316325Y-14813130D01*
X10611563Y-15051225D02*
X10602039Y-15041701D01*
X10602039Y-15041701D02*
X10582991Y-15013130D01*
X10582991Y-15013130D02*
X10573468Y-14994082D01*
X10573468Y-14994082D02*
X10563944Y-14965511D01*
X10563944Y-14965511D02*
X10554420Y-14917892D01*
X10554420Y-14917892D02*
X10554420Y-14879797D01*
X10554420Y-14879797D02*
X10563944Y-14832178D01*
X10563944Y-14832178D02*
X10573468Y-14803606D01*
X10573468Y-14803606D02*
X10582991Y-14784559D01*
X10582991Y-14784559D02*
X10602039Y-14755987D01*
X10602039Y-14755987D02*
X10611563Y-14746463D01*
X10773468Y-14841701D02*
X10773468Y-14975035D01*
X10725849Y-14765511D02*
X10678230Y-14908368D01*
X10678230Y-14908368D02*
X10802039Y-14908368D01*
X11030611Y-14975035D02*
X11030611Y-14775035D01*
X11116325Y-14975035D02*
X11116325Y-14870273D01*
X11116325Y-14870273D02*
X11106801Y-14851225D01*
X11106801Y-14851225D02*
X11087753Y-14841701D01*
X11087753Y-14841701D02*
X11059182Y-14841701D01*
X11059182Y-14841701D02*
X11040134Y-14851225D01*
X11040134Y-14851225D02*
X11030611Y-14860749D01*
X11240134Y-14975035D02*
X11221087Y-14965511D01*
X11221087Y-14965511D02*
X11211563Y-14955987D01*
X11211563Y-14955987D02*
X11202039Y-14936939D01*
X11202039Y-14936939D02*
X11202039Y-14879797D01*
X11202039Y-14879797D02*
X11211563Y-14860749D01*
X11211563Y-14860749D02*
X11221087Y-14851225D01*
X11221087Y-14851225D02*
X11240134Y-14841701D01*
X11240134Y-14841701D02*
X11268706Y-14841701D01*
X11268706Y-14841701D02*
X11287753Y-14851225D01*
X11287753Y-14851225D02*
X11297277Y-14860749D01*
X11297277Y-14860749D02*
X11306801Y-14879797D01*
X11306801Y-14879797D02*
X11306801Y-14936939D01*
X11306801Y-14936939D02*
X11297277Y-14955987D01*
X11297277Y-14955987D02*
X11287753Y-14965511D01*
X11287753Y-14965511D02*
X11268706Y-14975035D01*
X11268706Y-14975035D02*
X11240134Y-14975035D01*
X11421087Y-14975035D02*
X11402039Y-14965511D01*
X11402039Y-14965511D02*
X11392515Y-14946463D01*
X11392515Y-14946463D02*
X11392515Y-14775035D01*
X11573468Y-14965511D02*
X11554420Y-14975035D01*
X11554420Y-14975035D02*
X11516325Y-14975035D01*
X11516325Y-14975035D02*
X11497277Y-14965511D01*
X11497277Y-14965511D02*
X11487753Y-14946463D01*
X11487753Y-14946463D02*
X11487753Y-14870273D01*
X11487753Y-14870273D02*
X11497277Y-14851225D01*
X11497277Y-14851225D02*
X11516325Y-14841701D01*
X11516325Y-14841701D02*
X11554420Y-14841701D01*
X11554420Y-14841701D02*
X11573468Y-14851225D01*
X11573468Y-14851225D02*
X11582991Y-14870273D01*
X11582991Y-14870273D02*
X11582991Y-14889320D01*
X11582991Y-14889320D02*
X11487753Y-14908368D01*
X11659182Y-14965511D02*
X11678230Y-14975035D01*
X11678230Y-14975035D02*
X11716325Y-14975035D01*
X11716325Y-14975035D02*
X11735372Y-14965511D01*
X11735372Y-14965511D02*
X11744896Y-14946463D01*
X11744896Y-14946463D02*
X11744896Y-14936939D01*
X11744896Y-14936939D02*
X11735372Y-14917892D01*
X11735372Y-14917892D02*
X11716325Y-14908368D01*
X11716325Y-14908368D02*
X11687753Y-14908368D01*
X11687753Y-14908368D02*
X11668706Y-14898844D01*
X11668706Y-14898844D02*
X11659182Y-14879797D01*
X11659182Y-14879797D02*
X11659182Y-14870273D01*
X11659182Y-14870273D02*
X11668706Y-14851225D01*
X11668706Y-14851225D02*
X11687753Y-14841701D01*
X11687753Y-14841701D02*
X11716325Y-14841701D01*
X11716325Y-14841701D02*
X11735372Y-14851225D01*
X11811563Y-15051225D02*
X11821087Y-15041701D01*
X11821087Y-15041701D02*
X11840134Y-15013130D01*
X11840134Y-15013130D02*
X11849658Y-14994082D01*
X11849658Y-14994082D02*
X11859182Y-14965511D01*
X11859182Y-14965511D02*
X11868706Y-14917892D01*
X11868706Y-14917892D02*
X11868706Y-14879797D01*
X11868706Y-14879797D02*
X11859182Y-14832178D01*
X11859182Y-14832178D02*
X11849658Y-14803606D01*
X11849658Y-14803606D02*
X11840134Y-14784559D01*
X11840134Y-14784559D02*
X11821087Y-14755987D01*
X11821087Y-14755987D02*
X11811563Y-14746463D01*
D11*
X6986970Y-15197081D02*
X7036500Y-15147551D01*
X6986970Y-15098021D01*
X6937440Y-15147551D01*
X6986970Y-15197081D01*
D12*
X7335372Y-15039035D02*
X7354420Y-15039035D01*
X7354420Y-15039035D02*
X7373467Y-15048559D01*
X7373467Y-15048559D02*
X7382991Y-15058082D01*
X7382991Y-15058082D02*
X7392515Y-15077130D01*
X7392515Y-15077130D02*
X7402039Y-15115225D01*
X7402039Y-15115225D02*
X7402039Y-15162844D01*
X7402039Y-15162844D02*
X7392515Y-15200939D01*
X7392515Y-15200939D02*
X7382991Y-15219987D01*
X7382991Y-15219987D02*
X7373467Y-15229511D01*
X7373467Y-15229511D02*
X7354420Y-15239035D01*
X7354420Y-15239035D02*
X7335372Y-15239035D01*
X7335372Y-15239035D02*
X7316324Y-15229511D01*
X7316324Y-15229511D02*
X7306801Y-15219987D01*
X7306801Y-15219987D02*
X7297277Y-15200939D01*
X7297277Y-15200939D02*
X7287753Y-15162844D01*
X7287753Y-15162844D02*
X7287753Y-15115225D01*
X7287753Y-15115225D02*
X7297277Y-15077130D01*
X7297277Y-15077130D02*
X7306801Y-15058082D01*
X7306801Y-15058082D02*
X7316324Y-15048559D01*
X7316324Y-15048559D02*
X7335372Y-15039035D01*
X7487753Y-15219987D02*
X7497277Y-15229511D01*
X7497277Y-15229511D02*
X7487753Y-15239035D01*
X7487753Y-15239035D02*
X7478229Y-15229511D01*
X7478229Y-15229511D02*
X7487753Y-15219987D01*
X7487753Y-15219987D02*
X7487753Y-15239035D01*
X7592515Y-15239035D02*
X7630610Y-15239035D01*
X7630610Y-15239035D02*
X7649658Y-15229511D01*
X7649658Y-15229511D02*
X7659182Y-15219987D01*
X7659182Y-15219987D02*
X7678229Y-15191416D01*
X7678229Y-15191416D02*
X7687753Y-15153320D01*
X7687753Y-15153320D02*
X7687753Y-15077130D01*
X7687753Y-15077130D02*
X7678229Y-15058082D01*
X7678229Y-15058082D02*
X7668705Y-15048559D01*
X7668705Y-15048559D02*
X7649658Y-15039035D01*
X7649658Y-15039035D02*
X7611562Y-15039035D01*
X7611562Y-15039035D02*
X7592515Y-15048559D01*
X7592515Y-15048559D02*
X7582991Y-15058082D01*
X7582991Y-15058082D02*
X7573467Y-15077130D01*
X7573467Y-15077130D02*
X7573467Y-15124749D01*
X7573467Y-15124749D02*
X7582991Y-15143797D01*
X7582991Y-15143797D02*
X7592515Y-15153320D01*
X7592515Y-15153320D02*
X7611562Y-15162844D01*
X7611562Y-15162844D02*
X7649658Y-15162844D01*
X7649658Y-15162844D02*
X7668705Y-15153320D01*
X7668705Y-15153320D02*
X7678229Y-15143797D01*
X7678229Y-15143797D02*
X7687753Y-15124749D01*
X7782991Y-15239035D02*
X7821086Y-15239035D01*
X7821086Y-15239035D02*
X7840134Y-15229511D01*
X7840134Y-15229511D02*
X7849658Y-15219987D01*
X7849658Y-15219987D02*
X7868705Y-15191416D01*
X7868705Y-15191416D02*
X7878229Y-15153320D01*
X7878229Y-15153320D02*
X7878229Y-15077130D01*
X7878229Y-15077130D02*
X7868705Y-15058082D01*
X7868705Y-15058082D02*
X7859182Y-15048559D01*
X7859182Y-15048559D02*
X7840134Y-15039035D01*
X7840134Y-15039035D02*
X7802039Y-15039035D01*
X7802039Y-15039035D02*
X7782991Y-15048559D01*
X7782991Y-15048559D02*
X7773467Y-15058082D01*
X7773467Y-15058082D02*
X7763943Y-15077130D01*
X7763943Y-15077130D02*
X7763943Y-15124749D01*
X7763943Y-15124749D02*
X7773467Y-15143797D01*
X7773467Y-15143797D02*
X7782991Y-15153320D01*
X7782991Y-15153320D02*
X7802039Y-15162844D01*
X7802039Y-15162844D02*
X7840134Y-15162844D01*
X7840134Y-15162844D02*
X7859182Y-15153320D01*
X7859182Y-15153320D02*
X7868705Y-15143797D01*
X7868705Y-15143797D02*
X7878229Y-15124749D01*
X8068705Y-15239035D02*
X7954420Y-15239035D01*
X8011562Y-15239035D02*
X8011562Y-15039035D01*
X8011562Y-15039035D02*
X7992515Y-15067606D01*
X7992515Y-15067606D02*
X7973467Y-15086654D01*
X7973467Y-15086654D02*
X7954420Y-15096178D01*
X8154420Y-15239035D02*
X8154420Y-15105701D01*
X8154420Y-15124749D02*
X8163943Y-15115225D01*
X8163943Y-15115225D02*
X8182991Y-15105701D01*
X8182991Y-15105701D02*
X8211563Y-15105701D01*
X8211563Y-15105701D02*
X8230610Y-15115225D01*
X8230610Y-15115225D02*
X8240134Y-15134273D01*
X8240134Y-15134273D02*
X8240134Y-15239035D01*
X8240134Y-15134273D02*
X8249658Y-15115225D01*
X8249658Y-15115225D02*
X8268705Y-15105701D01*
X8268705Y-15105701D02*
X8297277Y-15105701D01*
X8297277Y-15105701D02*
X8316324Y-15115225D01*
X8316324Y-15115225D02*
X8325848Y-15134273D01*
X8325848Y-15134273D02*
X8325848Y-15239035D01*
X8421086Y-15239035D02*
X8421086Y-15105701D01*
X8421086Y-15124749D02*
X8430610Y-15115225D01*
X8430610Y-15115225D02*
X8449658Y-15105701D01*
X8449658Y-15105701D02*
X8478229Y-15105701D01*
X8478229Y-15105701D02*
X8497277Y-15115225D01*
X8497277Y-15115225D02*
X8506801Y-15134273D01*
X8506801Y-15134273D02*
X8506801Y-15239035D01*
X8506801Y-15134273D02*
X8516325Y-15115225D01*
X8516325Y-15115225D02*
X8535372Y-15105701D01*
X8535372Y-15105701D02*
X8563944Y-15105701D01*
X8563944Y-15105701D02*
X8582991Y-15115225D01*
X8582991Y-15115225D02*
X8592515Y-15134273D01*
X8592515Y-15134273D02*
X8592515Y-15239035D01*
X8982991Y-15029511D02*
X8811563Y-15286654D01*
X9240134Y-15039035D02*
X9259182Y-15039035D01*
X9259182Y-15039035D02*
X9278229Y-15048559D01*
X9278229Y-15048559D02*
X9287753Y-15058082D01*
X9287753Y-15058082D02*
X9297277Y-15077130D01*
X9297277Y-15077130D02*
X9306801Y-15115225D01*
X9306801Y-15115225D02*
X9306801Y-15162844D01*
X9306801Y-15162844D02*
X9297277Y-15200939D01*
X9297277Y-15200939D02*
X9287753Y-15219987D01*
X9287753Y-15219987D02*
X9278229Y-15229511D01*
X9278229Y-15229511D02*
X9259182Y-15239035D01*
X9259182Y-15239035D02*
X9240134Y-15239035D01*
X9240134Y-15239035D02*
X9221087Y-15229511D01*
X9221087Y-15229511D02*
X9211563Y-15219987D01*
X9211563Y-15219987D02*
X9202039Y-15200939D01*
X9202039Y-15200939D02*
X9192515Y-15162844D01*
X9192515Y-15162844D02*
X9192515Y-15115225D01*
X9192515Y-15115225D02*
X9202039Y-15077130D01*
X9202039Y-15077130D02*
X9211563Y-15058082D01*
X9211563Y-15058082D02*
X9221087Y-15048559D01*
X9221087Y-15048559D02*
X9240134Y-15039035D01*
X9392515Y-15219987D02*
X9402039Y-15229511D01*
X9402039Y-15229511D02*
X9392515Y-15239035D01*
X9392515Y-15239035D02*
X9382991Y-15229511D01*
X9382991Y-15229511D02*
X9392515Y-15219987D01*
X9392515Y-15219987D02*
X9392515Y-15239035D01*
X9525848Y-15039035D02*
X9544896Y-15039035D01*
X9544896Y-15039035D02*
X9563944Y-15048559D01*
X9563944Y-15048559D02*
X9573468Y-15058082D01*
X9573468Y-15058082D02*
X9582991Y-15077130D01*
X9582991Y-15077130D02*
X9592515Y-15115225D01*
X9592515Y-15115225D02*
X9592515Y-15162844D01*
X9592515Y-15162844D02*
X9582991Y-15200939D01*
X9582991Y-15200939D02*
X9573468Y-15219987D01*
X9573468Y-15219987D02*
X9563944Y-15229511D01*
X9563944Y-15229511D02*
X9544896Y-15239035D01*
X9544896Y-15239035D02*
X9525848Y-15239035D01*
X9525848Y-15239035D02*
X9506801Y-15229511D01*
X9506801Y-15229511D02*
X9497277Y-15219987D01*
X9497277Y-15219987D02*
X9487753Y-15200939D01*
X9487753Y-15200939D02*
X9478229Y-15162844D01*
X9478229Y-15162844D02*
X9478229Y-15115225D01*
X9478229Y-15115225D02*
X9487753Y-15077130D01*
X9487753Y-15077130D02*
X9497277Y-15058082D01*
X9497277Y-15058082D02*
X9506801Y-15048559D01*
X9506801Y-15048559D02*
X9525848Y-15039035D01*
X9659182Y-15039035D02*
X9782991Y-15039035D01*
X9782991Y-15039035D02*
X9716325Y-15115225D01*
X9716325Y-15115225D02*
X9744896Y-15115225D01*
X9744896Y-15115225D02*
X9763944Y-15124749D01*
X9763944Y-15124749D02*
X9773468Y-15134273D01*
X9773468Y-15134273D02*
X9782991Y-15153320D01*
X9782991Y-15153320D02*
X9782991Y-15200939D01*
X9782991Y-15200939D02*
X9773468Y-15219987D01*
X9773468Y-15219987D02*
X9763944Y-15229511D01*
X9763944Y-15229511D02*
X9744896Y-15239035D01*
X9744896Y-15239035D02*
X9687753Y-15239035D01*
X9687753Y-15239035D02*
X9668706Y-15229511D01*
X9668706Y-15229511D02*
X9659182Y-15219987D01*
X9878229Y-15239035D02*
X9916325Y-15239035D01*
X9916325Y-15239035D02*
X9935372Y-15229511D01*
X9935372Y-15229511D02*
X9944896Y-15219987D01*
X9944896Y-15219987D02*
X9963944Y-15191416D01*
X9963944Y-15191416D02*
X9973468Y-15153320D01*
X9973468Y-15153320D02*
X9973468Y-15077130D01*
X9973468Y-15077130D02*
X9963944Y-15058082D01*
X9963944Y-15058082D02*
X9954420Y-15048559D01*
X9954420Y-15048559D02*
X9935372Y-15039035D01*
X9935372Y-15039035D02*
X9897277Y-15039035D01*
X9897277Y-15039035D02*
X9878229Y-15048559D01*
X9878229Y-15048559D02*
X9868706Y-15058082D01*
X9868706Y-15058082D02*
X9859182Y-15077130D01*
X9859182Y-15077130D02*
X9859182Y-15124749D01*
X9859182Y-15124749D02*
X9868706Y-15143797D01*
X9868706Y-15143797D02*
X9878229Y-15153320D01*
X9878229Y-15153320D02*
X9897277Y-15162844D01*
X9897277Y-15162844D02*
X9935372Y-15162844D01*
X9935372Y-15162844D02*
X9954420Y-15153320D01*
X9954420Y-15153320D02*
X9963944Y-15143797D01*
X9963944Y-15143797D02*
X9973468Y-15124749D01*
X10097277Y-15039035D02*
X10116325Y-15039035D01*
X10116325Y-15039035D02*
X10135372Y-15048559D01*
X10135372Y-15048559D02*
X10144896Y-15058082D01*
X10144896Y-15058082D02*
X10154420Y-15077130D01*
X10154420Y-15077130D02*
X10163944Y-15115225D01*
X10163944Y-15115225D02*
X10163944Y-15162844D01*
X10163944Y-15162844D02*
X10154420Y-15200939D01*
X10154420Y-15200939D02*
X10144896Y-15219987D01*
X10144896Y-15219987D02*
X10135372Y-15229511D01*
X10135372Y-15229511D02*
X10116325Y-15239035D01*
X10116325Y-15239035D02*
X10097277Y-15239035D01*
X10097277Y-15239035D02*
X10078229Y-15229511D01*
X10078229Y-15229511D02*
X10068706Y-15219987D01*
X10068706Y-15219987D02*
X10059182Y-15200939D01*
X10059182Y-15200939D02*
X10049658Y-15162844D01*
X10049658Y-15162844D02*
X10049658Y-15115225D01*
X10049658Y-15115225D02*
X10059182Y-15077130D01*
X10059182Y-15077130D02*
X10068706Y-15058082D01*
X10068706Y-15058082D02*
X10078229Y-15048559D01*
X10078229Y-15048559D02*
X10097277Y-15039035D01*
X10240134Y-15039035D02*
X10240134Y-15077130D01*
X10316325Y-15039035D02*
X10316325Y-15077130D01*
X10611563Y-15315225D02*
X10602039Y-15305701D01*
X10602039Y-15305701D02*
X10582991Y-15277130D01*
X10582991Y-15277130D02*
X10573468Y-15258082D01*
X10573468Y-15258082D02*
X10563944Y-15229511D01*
X10563944Y-15229511D02*
X10554420Y-15181892D01*
X10554420Y-15181892D02*
X10554420Y-15143797D01*
X10554420Y-15143797D02*
X10563944Y-15096178D01*
X10563944Y-15096178D02*
X10573468Y-15067606D01*
X10573468Y-15067606D02*
X10582991Y-15048559D01*
X10582991Y-15048559D02*
X10602039Y-15019987D01*
X10602039Y-15019987D02*
X10611563Y-15010463D01*
X10716325Y-15124749D02*
X10697277Y-15115225D01*
X10697277Y-15115225D02*
X10687753Y-15105701D01*
X10687753Y-15105701D02*
X10678230Y-15086654D01*
X10678230Y-15086654D02*
X10678230Y-15077130D01*
X10678230Y-15077130D02*
X10687753Y-15058082D01*
X10687753Y-15058082D02*
X10697277Y-15048559D01*
X10697277Y-15048559D02*
X10716325Y-15039035D01*
X10716325Y-15039035D02*
X10754420Y-15039035D01*
X10754420Y-15039035D02*
X10773468Y-15048559D01*
X10773468Y-15048559D02*
X10782991Y-15058082D01*
X10782991Y-15058082D02*
X10792515Y-15077130D01*
X10792515Y-15077130D02*
X10792515Y-15086654D01*
X10792515Y-15086654D02*
X10782991Y-15105701D01*
X10782991Y-15105701D02*
X10773468Y-15115225D01*
X10773468Y-15115225D02*
X10754420Y-15124749D01*
X10754420Y-15124749D02*
X10716325Y-15124749D01*
X10716325Y-15124749D02*
X10697277Y-15134273D01*
X10697277Y-15134273D02*
X10687753Y-15143797D01*
X10687753Y-15143797D02*
X10678230Y-15162844D01*
X10678230Y-15162844D02*
X10678230Y-15200939D01*
X10678230Y-15200939D02*
X10687753Y-15219987D01*
X10687753Y-15219987D02*
X10697277Y-15229511D01*
X10697277Y-15229511D02*
X10716325Y-15239035D01*
X10716325Y-15239035D02*
X10754420Y-15239035D01*
X10754420Y-15239035D02*
X10773468Y-15229511D01*
X10773468Y-15229511D02*
X10782991Y-15219987D01*
X10782991Y-15219987D02*
X10792515Y-15200939D01*
X10792515Y-15200939D02*
X10792515Y-15162844D01*
X10792515Y-15162844D02*
X10782991Y-15143797D01*
X10782991Y-15143797D02*
X10773468Y-15134273D01*
X10773468Y-15134273D02*
X10754420Y-15124749D01*
X11030611Y-15239035D02*
X11030611Y-15039035D01*
X11116325Y-15239035D02*
X11116325Y-15134273D01*
X11116325Y-15134273D02*
X11106801Y-15115225D01*
X11106801Y-15115225D02*
X11087753Y-15105701D01*
X11087753Y-15105701D02*
X11059182Y-15105701D01*
X11059182Y-15105701D02*
X11040134Y-15115225D01*
X11040134Y-15115225D02*
X11030611Y-15124749D01*
X11240134Y-15239035D02*
X11221087Y-15229511D01*
X11221087Y-15229511D02*
X11211563Y-15219987D01*
X11211563Y-15219987D02*
X11202039Y-15200939D01*
X11202039Y-15200939D02*
X11202039Y-15143797D01*
X11202039Y-15143797D02*
X11211563Y-15124749D01*
X11211563Y-15124749D02*
X11221087Y-15115225D01*
X11221087Y-15115225D02*
X11240134Y-15105701D01*
X11240134Y-15105701D02*
X11268706Y-15105701D01*
X11268706Y-15105701D02*
X11287753Y-15115225D01*
X11287753Y-15115225D02*
X11297277Y-15124749D01*
X11297277Y-15124749D02*
X11306801Y-15143797D01*
X11306801Y-15143797D02*
X11306801Y-15200939D01*
X11306801Y-15200939D02*
X11297277Y-15219987D01*
X11297277Y-15219987D02*
X11287753Y-15229511D01*
X11287753Y-15229511D02*
X11268706Y-15239035D01*
X11268706Y-15239035D02*
X11240134Y-15239035D01*
X11421087Y-15239035D02*
X11402039Y-15229511D01*
X11402039Y-15229511D02*
X11392515Y-15210463D01*
X11392515Y-15210463D02*
X11392515Y-15039035D01*
X11573468Y-15229511D02*
X11554420Y-15239035D01*
X11554420Y-15239035D02*
X11516325Y-15239035D01*
X11516325Y-15239035D02*
X11497277Y-15229511D01*
X11497277Y-15229511D02*
X11487753Y-15210463D01*
X11487753Y-15210463D02*
X11487753Y-15134273D01*
X11487753Y-15134273D02*
X11497277Y-15115225D01*
X11497277Y-15115225D02*
X11516325Y-15105701D01*
X11516325Y-15105701D02*
X11554420Y-15105701D01*
X11554420Y-15105701D02*
X11573468Y-15115225D01*
X11573468Y-15115225D02*
X11582991Y-15134273D01*
X11582991Y-15134273D02*
X11582991Y-15153320D01*
X11582991Y-15153320D02*
X11487753Y-15172368D01*
X11659182Y-15229511D02*
X11678230Y-15239035D01*
X11678230Y-15239035D02*
X11716325Y-15239035D01*
X11716325Y-15239035D02*
X11735372Y-15229511D01*
X11735372Y-15229511D02*
X11744896Y-15210463D01*
X11744896Y-15210463D02*
X11744896Y-15200939D01*
X11744896Y-15200939D02*
X11735372Y-15181892D01*
X11735372Y-15181892D02*
X11716325Y-15172368D01*
X11716325Y-15172368D02*
X11687753Y-15172368D01*
X11687753Y-15172368D02*
X11668706Y-15162844D01*
X11668706Y-15162844D02*
X11659182Y-15143797D01*
X11659182Y-15143797D02*
X11659182Y-15134273D01*
X11659182Y-15134273D02*
X11668706Y-15115225D01*
X11668706Y-15115225D02*
X11687753Y-15105701D01*
X11687753Y-15105701D02*
X11716325Y-15105701D01*
X11716325Y-15105701D02*
X11735372Y-15115225D01*
X11811563Y-15315225D02*
X11821087Y-15305701D01*
X11821087Y-15305701D02*
X11840134Y-15277130D01*
X11840134Y-15277130D02*
X11849658Y-15258082D01*
X11849658Y-15258082D02*
X11859182Y-15229511D01*
X11859182Y-15229511D02*
X11868706Y-15181892D01*
X11868706Y-15181892D02*
X11868706Y-15143797D01*
X11868706Y-15143797D02*
X11859182Y-15096178D01*
X11859182Y-15096178D02*
X11849658Y-15067606D01*
X11849658Y-15067606D02*
X11840134Y-15048559D01*
X11840134Y-15048559D02*
X11821087Y-15019987D01*
X11821087Y-15019987D02*
X11811563Y-15010463D01*
D13*
X6906500Y-15346551D02*
X7036500Y-15476551D01*
X7036500Y-15346551D02*
X6906500Y-15476551D01*
X7036500Y-15411551D02*
G75*
G03*
X6906500Y-15411551I-65000J0D01*
G01*
X6906500Y-15411551D02*
G75*
G03*
X7036500Y-15411551I65000J0D01*
G01*
D12*
X7402039Y-15503035D02*
X7287753Y-15503035D01*
X7344896Y-15503035D02*
X7344896Y-15303035D01*
X7344896Y-15303035D02*
X7325848Y-15331606D01*
X7325848Y-15331606D02*
X7306801Y-15350654D01*
X7306801Y-15350654D02*
X7287753Y-15360178D01*
X7487753Y-15483987D02*
X7497277Y-15493511D01*
X7497277Y-15493511D02*
X7487753Y-15503035D01*
X7487753Y-15503035D02*
X7478229Y-15493511D01*
X7478229Y-15493511D02*
X7487753Y-15483987D01*
X7487753Y-15483987D02*
X7487753Y-15503035D01*
X7563943Y-15303035D02*
X7687753Y-15303035D01*
X7687753Y-15303035D02*
X7621086Y-15379225D01*
X7621086Y-15379225D02*
X7649658Y-15379225D01*
X7649658Y-15379225D02*
X7668705Y-15388749D01*
X7668705Y-15388749D02*
X7678229Y-15398273D01*
X7678229Y-15398273D02*
X7687753Y-15417320D01*
X7687753Y-15417320D02*
X7687753Y-15464939D01*
X7687753Y-15464939D02*
X7678229Y-15483987D01*
X7678229Y-15483987D02*
X7668705Y-15493511D01*
X7668705Y-15493511D02*
X7649658Y-15503035D01*
X7649658Y-15503035D02*
X7592515Y-15503035D01*
X7592515Y-15503035D02*
X7573467Y-15493511D01*
X7573467Y-15493511D02*
X7563943Y-15483987D01*
X7811562Y-15303035D02*
X7830610Y-15303035D01*
X7830610Y-15303035D02*
X7849658Y-15312559D01*
X7849658Y-15312559D02*
X7859182Y-15322082D01*
X7859182Y-15322082D02*
X7868705Y-15341130D01*
X7868705Y-15341130D02*
X7878229Y-15379225D01*
X7878229Y-15379225D02*
X7878229Y-15426844D01*
X7878229Y-15426844D02*
X7868705Y-15464939D01*
X7868705Y-15464939D02*
X7859182Y-15483987D01*
X7859182Y-15483987D02*
X7849658Y-15493511D01*
X7849658Y-15493511D02*
X7830610Y-15503035D01*
X7830610Y-15503035D02*
X7811562Y-15503035D01*
X7811562Y-15503035D02*
X7792515Y-15493511D01*
X7792515Y-15493511D02*
X7782991Y-15483987D01*
X7782991Y-15483987D02*
X7773467Y-15464939D01*
X7773467Y-15464939D02*
X7763943Y-15426844D01*
X7763943Y-15426844D02*
X7763943Y-15379225D01*
X7763943Y-15379225D02*
X7773467Y-15341130D01*
X7773467Y-15341130D02*
X7782991Y-15322082D01*
X7782991Y-15322082D02*
X7792515Y-15312559D01*
X7792515Y-15312559D02*
X7811562Y-15303035D01*
X8002039Y-15303035D02*
X8021086Y-15303035D01*
X8021086Y-15303035D02*
X8040134Y-15312559D01*
X8040134Y-15312559D02*
X8049658Y-15322082D01*
X8049658Y-15322082D02*
X8059182Y-15341130D01*
X8059182Y-15341130D02*
X8068705Y-15379225D01*
X8068705Y-15379225D02*
X8068705Y-15426844D01*
X8068705Y-15426844D02*
X8059182Y-15464939D01*
X8059182Y-15464939D02*
X8049658Y-15483987D01*
X8049658Y-15483987D02*
X8040134Y-15493511D01*
X8040134Y-15493511D02*
X8021086Y-15503035D01*
X8021086Y-15503035D02*
X8002039Y-15503035D01*
X8002039Y-15503035D02*
X7982991Y-15493511D01*
X7982991Y-15493511D02*
X7973467Y-15483987D01*
X7973467Y-15483987D02*
X7963943Y-15464939D01*
X7963943Y-15464939D02*
X7954420Y-15426844D01*
X7954420Y-15426844D02*
X7954420Y-15379225D01*
X7954420Y-15379225D02*
X7963943Y-15341130D01*
X7963943Y-15341130D02*
X7973467Y-15322082D01*
X7973467Y-15322082D02*
X7982991Y-15312559D01*
X7982991Y-15312559D02*
X8002039Y-15303035D01*
X8154420Y-15503035D02*
X8154420Y-15369701D01*
X8154420Y-15388749D02*
X8163943Y-15379225D01*
X8163943Y-15379225D02*
X8182991Y-15369701D01*
X8182991Y-15369701D02*
X8211563Y-15369701D01*
X8211563Y-15369701D02*
X8230610Y-15379225D01*
X8230610Y-15379225D02*
X8240134Y-15398273D01*
X8240134Y-15398273D02*
X8240134Y-15503035D01*
X8240134Y-15398273D02*
X8249658Y-15379225D01*
X8249658Y-15379225D02*
X8268705Y-15369701D01*
X8268705Y-15369701D02*
X8297277Y-15369701D01*
X8297277Y-15369701D02*
X8316324Y-15379225D01*
X8316324Y-15379225D02*
X8325848Y-15398273D01*
X8325848Y-15398273D02*
X8325848Y-15503035D01*
X8421086Y-15503035D02*
X8421086Y-15369701D01*
X8421086Y-15388749D02*
X8430610Y-15379225D01*
X8430610Y-15379225D02*
X8449658Y-15369701D01*
X8449658Y-15369701D02*
X8478229Y-15369701D01*
X8478229Y-15369701D02*
X8497277Y-15379225D01*
X8497277Y-15379225D02*
X8506801Y-15398273D01*
X8506801Y-15398273D02*
X8506801Y-15503035D01*
X8506801Y-15398273D02*
X8516325Y-15379225D01*
X8516325Y-15379225D02*
X8535372Y-15369701D01*
X8535372Y-15369701D02*
X8563944Y-15369701D01*
X8563944Y-15369701D02*
X8582991Y-15379225D01*
X8582991Y-15379225D02*
X8592515Y-15398273D01*
X8592515Y-15398273D02*
X8592515Y-15503035D01*
X8982991Y-15293511D02*
X8811563Y-15550654D01*
X9240134Y-15303035D02*
X9259182Y-15303035D01*
X9259182Y-15303035D02*
X9278229Y-15312559D01*
X9278229Y-15312559D02*
X9287753Y-15322082D01*
X9287753Y-15322082D02*
X9297277Y-15341130D01*
X9297277Y-15341130D02*
X9306801Y-15379225D01*
X9306801Y-15379225D02*
X9306801Y-15426844D01*
X9306801Y-15426844D02*
X9297277Y-15464939D01*
X9297277Y-15464939D02*
X9287753Y-15483987D01*
X9287753Y-15483987D02*
X9278229Y-15493511D01*
X9278229Y-15493511D02*
X9259182Y-15503035D01*
X9259182Y-15503035D02*
X9240134Y-15503035D01*
X9240134Y-15503035D02*
X9221087Y-15493511D01*
X9221087Y-15493511D02*
X9211563Y-15483987D01*
X9211563Y-15483987D02*
X9202039Y-15464939D01*
X9202039Y-15464939D02*
X9192515Y-15426844D01*
X9192515Y-15426844D02*
X9192515Y-15379225D01*
X9192515Y-15379225D02*
X9202039Y-15341130D01*
X9202039Y-15341130D02*
X9211563Y-15322082D01*
X9211563Y-15322082D02*
X9221087Y-15312559D01*
X9221087Y-15312559D02*
X9240134Y-15303035D01*
X9392515Y-15483987D02*
X9402039Y-15493511D01*
X9402039Y-15493511D02*
X9392515Y-15503035D01*
X9392515Y-15503035D02*
X9382991Y-15493511D01*
X9382991Y-15493511D02*
X9392515Y-15483987D01*
X9392515Y-15483987D02*
X9392515Y-15503035D01*
X9525848Y-15303035D02*
X9544896Y-15303035D01*
X9544896Y-15303035D02*
X9563944Y-15312559D01*
X9563944Y-15312559D02*
X9573468Y-15322082D01*
X9573468Y-15322082D02*
X9582991Y-15341130D01*
X9582991Y-15341130D02*
X9592515Y-15379225D01*
X9592515Y-15379225D02*
X9592515Y-15426844D01*
X9592515Y-15426844D02*
X9582991Y-15464939D01*
X9582991Y-15464939D02*
X9573468Y-15483987D01*
X9573468Y-15483987D02*
X9563944Y-15493511D01*
X9563944Y-15493511D02*
X9544896Y-15503035D01*
X9544896Y-15503035D02*
X9525848Y-15503035D01*
X9525848Y-15503035D02*
X9506801Y-15493511D01*
X9506801Y-15493511D02*
X9497277Y-15483987D01*
X9497277Y-15483987D02*
X9487753Y-15464939D01*
X9487753Y-15464939D02*
X9478229Y-15426844D01*
X9478229Y-15426844D02*
X9478229Y-15379225D01*
X9478229Y-15379225D02*
X9487753Y-15341130D01*
X9487753Y-15341130D02*
X9497277Y-15322082D01*
X9497277Y-15322082D02*
X9506801Y-15312559D01*
X9506801Y-15312559D02*
X9525848Y-15303035D01*
X9773468Y-15303035D02*
X9678229Y-15303035D01*
X9678229Y-15303035D02*
X9668706Y-15398273D01*
X9668706Y-15398273D02*
X9678229Y-15388749D01*
X9678229Y-15388749D02*
X9697277Y-15379225D01*
X9697277Y-15379225D02*
X9744896Y-15379225D01*
X9744896Y-15379225D02*
X9763944Y-15388749D01*
X9763944Y-15388749D02*
X9773468Y-15398273D01*
X9773468Y-15398273D02*
X9782991Y-15417320D01*
X9782991Y-15417320D02*
X9782991Y-15464939D01*
X9782991Y-15464939D02*
X9773468Y-15483987D01*
X9773468Y-15483987D02*
X9763944Y-15493511D01*
X9763944Y-15493511D02*
X9744896Y-15503035D01*
X9744896Y-15503035D02*
X9697277Y-15503035D01*
X9697277Y-15503035D02*
X9678229Y-15493511D01*
X9678229Y-15493511D02*
X9668706Y-15483987D01*
X9973468Y-15503035D02*
X9859182Y-15503035D01*
X9916325Y-15503035D02*
X9916325Y-15303035D01*
X9916325Y-15303035D02*
X9897277Y-15331606D01*
X9897277Y-15331606D02*
X9878229Y-15350654D01*
X9878229Y-15350654D02*
X9859182Y-15360178D01*
X10049658Y-15322082D02*
X10059182Y-15312559D01*
X10059182Y-15312559D02*
X10078229Y-15303035D01*
X10078229Y-15303035D02*
X10125849Y-15303035D01*
X10125849Y-15303035D02*
X10144896Y-15312559D01*
X10144896Y-15312559D02*
X10154420Y-15322082D01*
X10154420Y-15322082D02*
X10163944Y-15341130D01*
X10163944Y-15341130D02*
X10163944Y-15360178D01*
X10163944Y-15360178D02*
X10154420Y-15388749D01*
X10154420Y-15388749D02*
X10040134Y-15503035D01*
X10040134Y-15503035D02*
X10163944Y-15503035D01*
X10240134Y-15303035D02*
X10240134Y-15341130D01*
X10316325Y-15303035D02*
X10316325Y-15341130D01*
X10611563Y-15579225D02*
X10602039Y-15569701D01*
X10602039Y-15569701D02*
X10582991Y-15541130D01*
X10582991Y-15541130D02*
X10573468Y-15522082D01*
X10573468Y-15522082D02*
X10563944Y-15493511D01*
X10563944Y-15493511D02*
X10554420Y-15445892D01*
X10554420Y-15445892D02*
X10554420Y-15407797D01*
X10554420Y-15407797D02*
X10563944Y-15360178D01*
X10563944Y-15360178D02*
X10573468Y-15331606D01*
X10573468Y-15331606D02*
X10582991Y-15312559D01*
X10582991Y-15312559D02*
X10602039Y-15283987D01*
X10602039Y-15283987D02*
X10611563Y-15274463D01*
X10792515Y-15503035D02*
X10678230Y-15503035D01*
X10735372Y-15503035D02*
X10735372Y-15303035D01*
X10735372Y-15303035D02*
X10716325Y-15331606D01*
X10716325Y-15331606D02*
X10697277Y-15350654D01*
X10697277Y-15350654D02*
X10678230Y-15360178D01*
X10887753Y-15503035D02*
X10925849Y-15503035D01*
X10925849Y-15503035D02*
X10944896Y-15493511D01*
X10944896Y-15493511D02*
X10954420Y-15483987D01*
X10954420Y-15483987D02*
X10973468Y-15455416D01*
X10973468Y-15455416D02*
X10982991Y-15417320D01*
X10982991Y-15417320D02*
X10982991Y-15341130D01*
X10982991Y-15341130D02*
X10973468Y-15322082D01*
X10973468Y-15322082D02*
X10963944Y-15312559D01*
X10963944Y-15312559D02*
X10944896Y-15303035D01*
X10944896Y-15303035D02*
X10906801Y-15303035D01*
X10906801Y-15303035D02*
X10887753Y-15312559D01*
X10887753Y-15312559D02*
X10878230Y-15322082D01*
X10878230Y-15322082D02*
X10868706Y-15341130D01*
X10868706Y-15341130D02*
X10868706Y-15388749D01*
X10868706Y-15388749D02*
X10878230Y-15407797D01*
X10878230Y-15407797D02*
X10887753Y-15417320D01*
X10887753Y-15417320D02*
X10906801Y-15426844D01*
X10906801Y-15426844D02*
X10944896Y-15426844D01*
X10944896Y-15426844D02*
X10963944Y-15417320D01*
X10963944Y-15417320D02*
X10973468Y-15407797D01*
X10973468Y-15407797D02*
X10982991Y-15388749D01*
X11221087Y-15503035D02*
X11221087Y-15303035D01*
X11306801Y-15503035D02*
X11306801Y-15398273D01*
X11306801Y-15398273D02*
X11297277Y-15379225D01*
X11297277Y-15379225D02*
X11278230Y-15369701D01*
X11278230Y-15369701D02*
X11249658Y-15369701D01*
X11249658Y-15369701D02*
X11230610Y-15379225D01*
X11230610Y-15379225D02*
X11221087Y-15388749D01*
X11430610Y-15503035D02*
X11411563Y-15493511D01*
X11411563Y-15493511D02*
X11402039Y-15483987D01*
X11402039Y-15483987D02*
X11392515Y-15464939D01*
X11392515Y-15464939D02*
X11392515Y-15407797D01*
X11392515Y-15407797D02*
X11402039Y-15388749D01*
X11402039Y-15388749D02*
X11411563Y-15379225D01*
X11411563Y-15379225D02*
X11430610Y-15369701D01*
X11430610Y-15369701D02*
X11459182Y-15369701D01*
X11459182Y-15369701D02*
X11478230Y-15379225D01*
X11478230Y-15379225D02*
X11487753Y-15388749D01*
X11487753Y-15388749D02*
X11497277Y-15407797D01*
X11497277Y-15407797D02*
X11497277Y-15464939D01*
X11497277Y-15464939D02*
X11487753Y-15483987D01*
X11487753Y-15483987D02*
X11478230Y-15493511D01*
X11478230Y-15493511D02*
X11459182Y-15503035D01*
X11459182Y-15503035D02*
X11430610Y-15503035D01*
X11611563Y-15503035D02*
X11592515Y-15493511D01*
X11592515Y-15493511D02*
X11582991Y-15474463D01*
X11582991Y-15474463D02*
X11582991Y-15303035D01*
X11763944Y-15493511D02*
X11744896Y-15503035D01*
X11744896Y-15503035D02*
X11706801Y-15503035D01*
X11706801Y-15503035D02*
X11687753Y-15493511D01*
X11687753Y-15493511D02*
X11678230Y-15474463D01*
X11678230Y-15474463D02*
X11678230Y-15398273D01*
X11678230Y-15398273D02*
X11687753Y-15379225D01*
X11687753Y-15379225D02*
X11706801Y-15369701D01*
X11706801Y-15369701D02*
X11744896Y-15369701D01*
X11744896Y-15369701D02*
X11763944Y-15379225D01*
X11763944Y-15379225D02*
X11773468Y-15398273D01*
X11773468Y-15398273D02*
X11773468Y-15417320D01*
X11773468Y-15417320D02*
X11678230Y-15436368D01*
X11849658Y-15493511D02*
X11868706Y-15503035D01*
X11868706Y-15503035D02*
X11906801Y-15503035D01*
X11906801Y-15503035D02*
X11925849Y-15493511D01*
X11925849Y-15493511D02*
X11935372Y-15474463D01*
X11935372Y-15474463D02*
X11935372Y-15464939D01*
X11935372Y-15464939D02*
X11925849Y-15445892D01*
X11925849Y-15445892D02*
X11906801Y-15436368D01*
X11906801Y-15436368D02*
X11878230Y-15436368D01*
X11878230Y-15436368D02*
X11859182Y-15426844D01*
X11859182Y-15426844D02*
X11849658Y-15407797D01*
X11849658Y-15407797D02*
X11849658Y-15398273D01*
X11849658Y-15398273D02*
X11859182Y-15379225D01*
X11859182Y-15379225D02*
X11878230Y-15369701D01*
X11878230Y-15369701D02*
X11906801Y-15369701D01*
X11906801Y-15369701D02*
X11925849Y-15379225D01*
X12002039Y-15579225D02*
X12011563Y-15569701D01*
X12011563Y-15569701D02*
X12030611Y-15541130D01*
X12030611Y-15541130D02*
X12040134Y-15522082D01*
X12040134Y-15522082D02*
X12049658Y-15493511D01*
X12049658Y-15493511D02*
X12059182Y-15445892D01*
X12059182Y-15445892D02*
X12059182Y-15407797D01*
X12059182Y-15407797D02*
X12049658Y-15360178D01*
X12049658Y-15360178D02*
X12040134Y-15331606D01*
X12040134Y-15331606D02*
X12030611Y-15312559D01*
X12030611Y-15312559D02*
X12011563Y-15283987D01*
X12011563Y-15283987D02*
X12002039Y-15274463D01*
M02*
