%TF.GenerationSoftware,KiCad,Pcbnew,7.0.11*%
%TF.CreationDate,2025-09-12T17:02:42-04:00*%
%TF.ProjectId,14.1.7 - PMOS - PLC Connector Combined,31342e31-2e37-4202-9d20-504d4f53202d,rev?*%
%TF.SameCoordinates,Original*%
%TF.FileFunction,Copper,L1,Top*%
%TF.FilePolarity,Positive*%
%FSLAX46Y46*%
G04 Gerber Fmt 4.6, Leading zero omitted, Abs format (unit mm)*
G04 Created by KiCad (PCBNEW 7.0.11) date 2025-09-12 17:02:42*
%MOMM*%
%LPD*%
G01*
G04 APERTURE LIST*
G04 Aperture macros list*
%AMRoundRect*
0 Rectangle with rounded corners*
0 $1 Rounding radius*
0 $2 $3 $4 $5 $6 $7 $8 $9 X,Y pos of 4 corners*
0 Add a 4 corners polygon primitive as box body*
4,1,4,$2,$3,$4,$5,$6,$7,$8,$9,$2,$3,0*
0 Add four circle primitives for the rounded corners*
1,1,$1+$1,$2,$3*
1,1,$1+$1,$4,$5*
1,1,$1+$1,$6,$7*
1,1,$1+$1,$8,$9*
0 Add four rect primitives between the rounded corners*
20,1,$1+$1,$2,$3,$4,$5,0*
20,1,$1+$1,$4,$5,$6,$7,0*
20,1,$1+$1,$6,$7,$8,$9,0*
20,1,$1+$1,$8,$9,$2,$3,0*%
G04 Aperture macros list end*
%TA.AperFunction,SMDPad,CuDef*%
%ADD10RoundRect,0.200000X-0.275000X0.200000X-0.275000X-0.200000X0.275000X-0.200000X0.275000X0.200000X0*%
%TD*%
%TA.AperFunction,SMDPad,CuDef*%
%ADD11RoundRect,0.125000X0.125000X-0.125000X0.125000X0.125000X-0.125000X0.125000X-0.125000X-0.125000X0*%
%TD*%
%TA.AperFunction,ComponentPad*%
%ADD12C,1.950000*%
%TD*%
%TA.AperFunction,ComponentPad*%
%ADD13R,1.950000X1.950000*%
%TD*%
%TA.AperFunction,SMDPad,CuDef*%
%ADD14RoundRect,0.572500X-3.045750X-0.572500X3.045750X-0.572500X3.045750X0.572500X-3.045750X0.572500X0*%
%TD*%
%TA.AperFunction,SMDPad,CuDef*%
%ADD15RoundRect,0.200000X0.275000X-0.200000X0.275000X0.200000X-0.275000X0.200000X-0.275000X-0.200000X0*%
%TD*%
%TA.AperFunction,SMDPad,CuDef*%
%ADD16RoundRect,0.218750X0.256250X-0.218750X0.256250X0.218750X-0.256250X0.218750X-0.256250X-0.218750X0*%
%TD*%
%TA.AperFunction,SMDPad,CuDef*%
%ADD17RoundRect,0.125000X-0.125000X0.125000X-0.125000X-0.125000X0.125000X-0.125000X0.125000X0.125000X0*%
%TD*%
%TA.AperFunction,ComponentPad*%
%ADD18C,1.250000*%
%TD*%
%TA.AperFunction,SMDPad,CuDef*%
%ADD19RoundRect,0.200000X0.200000X0.275000X-0.200000X0.275000X-0.200000X-0.275000X0.200000X-0.275000X0*%
%TD*%
%TA.AperFunction,SMDPad,CuDef*%
%ADD20RoundRect,0.250000X-0.650000X1.000000X-0.650000X-1.000000X0.650000X-1.000000X0.650000X1.000000X0*%
%TD*%
%TA.AperFunction,SMDPad,CuDef*%
%ADD21RoundRect,0.150000X-0.150000X0.587500X-0.150000X-0.587500X0.150000X-0.587500X0.150000X0.587500X0*%
%TD*%
%TA.AperFunction,SMDPad,CuDef*%
%ADD22RoundRect,0.200000X-0.200000X-0.275000X0.200000X-0.275000X0.200000X0.275000X-0.200000X0.275000X0*%
%TD*%
%TA.AperFunction,SMDPad,CuDef*%
%ADD23RoundRect,0.375000X-0.625000X-0.375000X0.625000X-0.375000X0.625000X0.375000X-0.625000X0.375000X0*%
%TD*%
%TA.AperFunction,SMDPad,CuDef*%
%ADD24RoundRect,0.500000X-0.500000X-1.400000X0.500000X-1.400000X0.500000X1.400000X-0.500000X1.400000X0*%
%TD*%
%TA.AperFunction,SMDPad,CuDef*%
%ADD25RoundRect,0.250000X-1.000000X-0.650000X1.000000X-0.650000X1.000000X0.650000X-1.000000X0.650000X0*%
%TD*%
%TA.AperFunction,SMDPad,CuDef*%
%ADD26RoundRect,0.125000X-0.125000X-0.125000X0.125000X-0.125000X0.125000X0.125000X-0.125000X0.125000X0*%
%TD*%
%TA.AperFunction,SMDPad,CuDef*%
%ADD27RoundRect,0.250000X1.075000X-0.312500X1.075000X0.312500X-1.075000X0.312500X-1.075000X-0.312500X0*%
%TD*%
%TA.AperFunction,SMDPad,CuDef*%
%ADD28RoundRect,0.250000X0.625000X-0.312500X0.625000X0.312500X-0.625000X0.312500X-0.625000X-0.312500X0*%
%TD*%
%TA.AperFunction,ComponentPad*%
%ADD29C,1.498600*%
%TD*%
%TA.AperFunction,SMDPad,CuDef*%
%ADD30RoundRect,0.125000X0.125000X0.125000X-0.125000X0.125000X-0.125000X-0.125000X0.125000X-0.125000X0*%
%TD*%
%TA.AperFunction,ViaPad*%
%ADD31C,0.800000*%
%TD*%
%TA.AperFunction,ViaPad*%
%ADD32C,0.600000*%
%TD*%
%TA.AperFunction,ViaPad*%
%ADD33C,0.500000*%
%TD*%
%TA.AperFunction,ViaPad*%
%ADD34C,0.700000*%
%TD*%
%TA.AperFunction,Conductor*%
%ADD35C,0.508000*%
%TD*%
%TA.AperFunction,Conductor*%
%ADD36C,1.143000*%
%TD*%
%TA.AperFunction,Conductor*%
%ADD37C,0.250000*%
%TD*%
%TA.AperFunction,Conductor*%
%ADD38C,1.270000*%
%TD*%
%TA.AperFunction,Conductor*%
%ADD39C,1.016000*%
%TD*%
%TA.AperFunction,Conductor*%
%ADD40C,0.762000*%
%TD*%
%TA.AperFunction,Conductor*%
%ADD41C,1.524000*%
%TD*%
%TA.AperFunction,Conductor*%
%ADD42C,0.812800*%
%TD*%
%TA.AperFunction,Conductor*%
%ADD43C,0.381000*%
%TD*%
%TA.AperFunction,Conductor*%
%ADD44C,1.397000*%
%TD*%
%TA.AperFunction,Conductor*%
%ADD45C,0.889000*%
%TD*%
%TA.AperFunction,Conductor*%
%ADD46C,0.254000*%
%TD*%
G04 APERTURE END LIST*
D10*
%TO.P,R3,1*%
%TO.N,Net-(Q6-G)*%
X110880000Y-82750000D03*
%TO.P,R3,2*%
%TO.N,Net-(D10-K)*%
X110880000Y-84400000D03*
%TD*%
%TO.P,R7,1*%
%TO.N,Net-(Q10-G)*%
X110530000Y-113230000D03*
%TO.P,R7,2*%
%TO.N,Net-(D10-K)*%
X110530000Y-114880000D03*
%TD*%
D11*
%TO.P,D13,1,K*%
%TO.N,Net-(D10-K)*%
X118840000Y-123980000D03*
%TO.P,D13,2,A*%
%TO.N,Net-(D12-K)*%
X118840000Y-121780000D03*
%TD*%
D12*
%TO.P,J317,1,1*%
%TO.N,Net-(D10-A)*%
X107500000Y-89000000D03*
D13*
%TO.P,J317,2,2*%
%TO.N,GNDPWR*%
X107500000Y-94080000D03*
%TD*%
D14*
%TO.P,J302,1,Pin_1*%
%TO.N,Net-(J302-Pin_1)*%
X128210000Y-118050000D03*
%TD*%
D15*
%TO.P,R17,1*%
%TO.N,Net-(D5-K)*%
X119660000Y-77310000D03*
%TO.P,R17,2*%
%TO.N,Net-(Q5-G)*%
X119660000Y-75660000D03*
%TD*%
D16*
%TO.P,D3,1,K*%
%TO.N,Net-(D3-K)*%
X119690000Y-120455000D03*
%TO.P,D3,2,A*%
%TO.N,Net-(D12-K)*%
X119690000Y-118880000D03*
%TD*%
D14*
%TO.P,J310,1,Pin_1*%
%TO.N,Net-(J304-Pin_1)*%
X128240000Y-72320000D03*
%TD*%
D17*
%TO.P,D7,1,K*%
%TO.N,Net-(D7-K)*%
X115040000Y-108642500D03*
%TO.P,D7,2,A*%
%TO.N,GNDPWR*%
X115040000Y-110842500D03*
%TD*%
D18*
%TO.P,J324,1,Pin_1*%
%TO.N,Net-(J324-Pin_1)*%
X119800000Y-97400000D03*
%TD*%
D15*
%TO.P,R5,1*%
%TO.N,Net-(J314-Pin_1)*%
X116700000Y-110840000D03*
%TO.P,R5,2*%
%TO.N,Net-(Q2-G)*%
X116700000Y-109190000D03*
%TD*%
D17*
%TO.P,D14,1,K*%
%TO.N,Net-(D11-A)*%
X113190000Y-108302500D03*
%TO.P,D14,2,A*%
%TO.N,GNDPWR*%
X113190000Y-110502500D03*
%TD*%
D18*
%TO.P,J325,1,Pin_1*%
%TO.N,Net-(J325-Pin_1)*%
X119600000Y-111800000D03*
%TD*%
D19*
%TO.P,R21,1*%
%TO.N,Net-(J306-Pin_1)*%
X114685000Y-92570000D03*
%TO.P,R21,2*%
%TO.N,Net-(Q3-G)*%
X113035000Y-92570000D03*
%TD*%
%TO.P,R14,1*%
%TO.N,GNDPWR*%
X120025000Y-109800000D03*
%TO.P,R14,2*%
%TO.N,Net-(Q2-G)*%
X118375000Y-109800000D03*
%TD*%
D14*
%TO.P,J210,1,Pin_1*%
%TO.N,Net-(J210-Pin_1)*%
X74278250Y-72187224D03*
%TD*%
D17*
%TO.P,D11,1,K*%
%TO.N,Net-(D10-K)*%
X113110000Y-104942500D03*
%TO.P,D11,2,A*%
%TO.N,Net-(D11-A)*%
X113110000Y-107142500D03*
%TD*%
D16*
%TO.P,D1,1,K*%
%TO.N,Net-(D1-K)*%
X119820000Y-74437500D03*
%TO.P,D1,2,A*%
%TO.N,Net-(D1-A)*%
X119820000Y-72862500D03*
%TD*%
D14*
%TO.P,J209,1,Pin_1*%
%TO.N,M*%
X74278250Y-77245000D03*
%TD*%
D10*
%TO.P,R6,1*%
%TO.N,Net-(Q8-G)*%
X110680000Y-98335000D03*
%TO.P,R6,2*%
%TO.N,Net-(D10-K)*%
X110680000Y-99985000D03*
%TD*%
D20*
%TO.P,D303,1*%
%TO.N,Net-(D12-K)*%
X104400000Y-128862500D03*
%TO.P,D303,2*%
%TO.N,GNDPWR*%
X104400000Y-132862500D03*
%TD*%
D21*
%TO.P,Q1,1,G*%
%TO.N,Net-(Q1-G)*%
X116880000Y-119700000D03*
%TO.P,Q1,2,S*%
%TO.N,GNDPWR*%
X114980000Y-119700000D03*
%TO.P,Q1,3,D*%
%TO.N,Net-(D8-K)*%
X115930000Y-121575000D03*
%TD*%
D22*
%TO.P,R18,1*%
%TO.N,Net-(Q8-G)*%
X118415000Y-108200000D03*
%TO.P,R18,2*%
%TO.N,Net-(D7-K)*%
X120065000Y-108200000D03*
%TD*%
D14*
%TO.P,J314,1,Pin_1*%
%TO.N,Net-(J314-Pin_1)*%
X128230000Y-102820000D03*
%TD*%
%TO.P,J311,1,Pin_1*%
%TO.N,GNDPWR*%
X128260000Y-92650000D03*
%TD*%
D23*
%TO.P,Q8,1,G*%
%TO.N,Net-(Q8-G)*%
X113170000Y-98420000D03*
%TO.P,Q8,2,D*%
%TO.N,Net-(J324-Pin_1)*%
X113170000Y-100720000D03*
%TO.P,Q8,3,S*%
%TO.N,Net-(D10-K)*%
X113170000Y-103020000D03*
D24*
%TO.P,Q8,4*%
%TO.N,N/C*%
X119470000Y-100720000D03*
%TD*%
D14*
%TO.P,J206,1,Pin_1*%
%TO.N,Net-(J206-Pin_1)*%
X74308250Y-92488334D03*
%TD*%
D11*
%TO.P,D6,1,K*%
%TO.N,Net-(D6-K)*%
X112830000Y-91357500D03*
%TO.P,D6,2,A*%
%TO.N,GNDPWR*%
X112830000Y-89157500D03*
%TD*%
D14*
%TO.P,J306,1,Pin_1*%
%TO.N,Net-(J306-Pin_1)*%
X128180000Y-87590000D03*
%TD*%
%TO.P,J307,1,Pin_1*%
%TO.N,GNDPWR*%
X128230000Y-123140000D03*
%TD*%
D25*
%TO.P,D302,1*%
%TO.N,Net-(D11-A)*%
X104120000Y-113990000D03*
%TO.P,D302,2*%
%TO.N,GNDPWR*%
X108120000Y-113990000D03*
%TD*%
D23*
%TO.P,Q6,1,G*%
%TO.N,Net-(Q6-G)*%
X113300000Y-83007500D03*
%TO.P,Q6,2,D*%
%TO.N,Net-(J322-Pin_1)*%
X113300000Y-85307500D03*
%TO.P,Q6,3,S*%
%TO.N,Net-(D10-K)*%
X113300000Y-87607500D03*
D24*
%TO.P,Q6,4*%
%TO.N,N/C*%
X119600000Y-85307500D03*
%TD*%
D22*
%TO.P,R12,1*%
%TO.N,Net-(D4-K)*%
X118375000Y-106400000D03*
%TO.P,R12,2*%
%TO.N,GNDPWR*%
X120025000Y-106400000D03*
%TD*%
D26*
%TO.P,D15,1,K*%
%TO.N,Net-(D10-A)*%
X112350000Y-96140000D03*
%TO.P,D15,2,A*%
%TO.N,GNDPWR*%
X114550000Y-96140000D03*
%TD*%
D14*
%TO.P,J202,1,Pin_1*%
%TO.N,Net-(J202-Pin_1)*%
X74298250Y-112799446D03*
%TD*%
%TO.P,J309,1,Pin_1*%
%TO.N,GNDPWR*%
X128230000Y-77420000D03*
%TD*%
D21*
%TO.P,Q2,1,G*%
%TO.N,Net-(Q2-G)*%
X116900000Y-105240000D03*
%TO.P,Q2,2,S*%
%TO.N,GNDPWR*%
X115000000Y-105240000D03*
%TO.P,Q2,3,D*%
%TO.N,Net-(D7-K)*%
X115950000Y-107115000D03*
%TD*%
D11*
%TO.P,D5,1,K*%
%TO.N,Net-(D5-K)*%
X112800000Y-76017500D03*
%TO.P,D5,2,A*%
%TO.N,GNDPWR*%
X112800000Y-73817500D03*
%TD*%
D15*
%TO.P,R10,1*%
%TO.N,GNDPWR*%
X119780000Y-93860000D03*
%TO.P,R10,2*%
%TO.N,Net-(D2-K)*%
X119780000Y-92210000D03*
%TD*%
D27*
%TO.P,R204,1*%
%TO.N,M*%
X87200000Y-85262500D03*
%TO.P,R204,2*%
%TO.N,Net-(J208-Pin_1)*%
X87200000Y-82337500D03*
%TD*%
D12*
%TO.P,J222,1,1*%
%TO.N,Net-(J205-Pin_1)*%
X92640000Y-97740000D03*
D13*
%TO.P,J222,2,2*%
%TO.N,Net-(J206-Pin_1)*%
X92640000Y-92660000D03*
%TD*%
D14*
%TO.P,J203,1,Pin_1*%
%TO.N,Net-(J203-Pin_1)*%
X74308250Y-107721668D03*
%TD*%
D11*
%TO.P,D12,1,K*%
%TO.N,Net-(D12-K)*%
X113460000Y-125200000D03*
%TO.P,D12,2,A*%
%TO.N,GNDPWR*%
X113460000Y-123000000D03*
%TD*%
D28*
%TO.P,R202,1*%
%TO.N,M*%
X86400000Y-112462500D03*
%TO.P,R202,2*%
%TO.N,Net-(J202-Pin_1)*%
X86400000Y-109537500D03*
%TD*%
D22*
%TO.P,R20,1*%
%TO.N,Net-(Q6-G)*%
X113020000Y-94460000D03*
%TO.P,R20,2*%
%TO.N,Net-(D6-K)*%
X114670000Y-94460000D03*
%TD*%
%TO.P,R4,1*%
%TO.N,Net-(J304-Pin_1)*%
X114135000Y-77680000D03*
%TO.P,R4,2*%
%TO.N,Net-(Q4-G)*%
X115785000Y-77680000D03*
%TD*%
D14*
%TO.P,J315,1,Pin_1*%
%TO.N,GNDPWR*%
X128210000Y-107880000D03*
%TD*%
%TO.P,J208,1,Pin_1*%
%TO.N,Net-(J208-Pin_1)*%
X74298250Y-82342778D03*
%TD*%
D12*
%TO.P,J224,1,1*%
%TO.N,Net-(J201-Pin_1)*%
X92600000Y-118060000D03*
D13*
%TO.P,J224,2,2*%
%TO.N,Net-(J202-Pin_1)*%
X92600000Y-112980000D03*
%TD*%
D12*
%TO.P,J320,1,1*%
%TO.N,Net-(D11-A)*%
X107500000Y-104000000D03*
D13*
%TO.P,J320,2,2*%
%TO.N,GNDPWR*%
X107500000Y-109080000D03*
%TD*%
D25*
%TO.P,D301,1*%
%TO.N,Net-(D10-A)*%
X104160000Y-98860000D03*
%TO.P,D301,2*%
%TO.N,GNDPWR*%
X108160000Y-98860000D03*
%TD*%
D28*
%TO.P,R201,1*%
%TO.N,Net-(J201-Pin_1)*%
X86400000Y-117800000D03*
%TO.P,R201,2*%
%TO.N,M*%
X86400000Y-114875000D03*
%TD*%
D21*
%TO.P,Q3,1,G*%
%TO.N,Net-(Q3-G)*%
X117120000Y-89315000D03*
%TO.P,Q3,2,S*%
%TO.N,GNDPWR*%
X115220000Y-89315000D03*
%TO.P,Q3,3,D*%
%TO.N,Net-(D6-K)*%
X116170000Y-91190000D03*
%TD*%
D29*
%TO.P,J226,1,1*%
%TO.N,Net-(J206-Pin_1)*%
X95660000Y-125970000D03*
%TO.P,J226,2,2*%
%TO.N,Net-(J205-Pin_1)*%
X93160000Y-125970000D03*
%TO.P,J226,3,3*%
%TO.N,Net-(J204-Pin_1)*%
X90660000Y-125970000D03*
%TO.P,J226,4,4*%
%TO.N,Net-(J203-Pin_1)*%
X88160000Y-125970000D03*
%TD*%
D14*
%TO.P,J201,1,Pin_1*%
%TO.N,Net-(J201-Pin_1)*%
X74370000Y-117920000D03*
%TD*%
D19*
%TO.P,R8,1*%
%TO.N,Net-(J302-Pin_1)*%
X115040000Y-126430000D03*
%TO.P,R8,2*%
%TO.N,Net-(Q1-G)*%
X113390000Y-126430000D03*
%TD*%
D22*
%TO.P,R11,1*%
%TO.N,GNDPWR*%
X116690000Y-126380000D03*
%TO.P,R11,2*%
%TO.N,Net-(D3-K)*%
X118340000Y-126380000D03*
%TD*%
D30*
%TO.P,D10,1,K*%
%TO.N,Net-(D10-K)*%
X118160000Y-96160000D03*
%TO.P,D10,2,A*%
%TO.N,Net-(D10-A)*%
X115960000Y-96160000D03*
%TD*%
D12*
%TO.P,J318,1,1*%
%TO.N,Net-(D10-K)*%
X107500000Y-69000000D03*
%TO.P,J318,2,2*%
%TO.N,Net-(D1-A)*%
X107500000Y-74080000D03*
D13*
%TO.P,J318,3,3*%
%TO.N,GNDPWR*%
X107500000Y-79160000D03*
%TD*%
D23*
%TO.P,Q5,1,G*%
%TO.N,Net-(Q5-G)*%
X113300000Y-67840000D03*
%TO.P,Q5,2,D*%
%TO.N,Net-(J323-Pin_1)*%
X113300000Y-70140000D03*
%TO.P,Q5,3,S*%
%TO.N,Net-(D10-K)*%
X113300000Y-72440000D03*
D24*
%TO.P,Q5,4*%
%TO.N,N/C*%
X119600000Y-70140000D03*
%TD*%
D15*
%TO.P,R9,1*%
%TO.N,GNDPWR*%
X117850000Y-81405000D03*
%TO.P,R9,2*%
%TO.N,Net-(D1-K)*%
X117850000Y-79755000D03*
%TD*%
D16*
%TO.P,D4,1,K*%
%TO.N,Net-(D4-K)*%
X119820000Y-104987500D03*
%TO.P,D4,2,A*%
%TO.N,Net-(D11-A)*%
X119820000Y-103412500D03*
%TD*%
D18*
%TO.P,J323,1,Pin_1*%
%TO.N,Net-(J323-Pin_1)*%
X119600000Y-67400000D03*
%TD*%
D26*
%TO.P,D16,1,K*%
%TO.N,Net-(D1-A)*%
X112230000Y-80860000D03*
%TO.P,D16,2,A*%
%TO.N,GNDPWR*%
X114430000Y-80860000D03*
%TD*%
D15*
%TO.P,R19,1*%
%TO.N,Net-(Q10-G)*%
X115260000Y-124935000D03*
%TO.P,R19,2*%
%TO.N,Net-(D8-K)*%
X115260000Y-123285000D03*
%TD*%
D10*
%TO.P,R15,1*%
%TO.N,GNDPWR*%
X118220000Y-92030000D03*
%TO.P,R15,2*%
%TO.N,Net-(Q3-G)*%
X118220000Y-93680000D03*
%TD*%
D25*
%TO.P,D309,1*%
%TO.N,Net-(D1-A)*%
X104360000Y-84070000D03*
%TO.P,D309,2*%
%TO.N,GNDPWR*%
X108360000Y-84070000D03*
%TD*%
D27*
%TO.P,R203,1*%
%TO.N,Net-(J207-Pin_1)*%
X87200000Y-90462500D03*
%TO.P,R203,2*%
%TO.N,M*%
X87200000Y-87537500D03*
%TD*%
D18*
%TO.P,J322,1,Pin_1*%
%TO.N,Net-(J322-Pin_1)*%
X119600000Y-82200000D03*
%TD*%
D21*
%TO.P,Q4,1,G*%
%TO.N,Net-(Q4-G)*%
X116710000Y-74272500D03*
%TO.P,Q4,2,S*%
%TO.N,GNDPWR*%
X114810000Y-74272500D03*
%TO.P,Q4,3,D*%
%TO.N,Net-(D5-K)*%
X115760000Y-76147500D03*
%TD*%
D14*
%TO.P,J204,1,Pin_1*%
%TO.N,Net-(J204-Pin_1)*%
X74298250Y-102653890D03*
%TD*%
%TO.P,J207,1,Pin_1*%
%TO.N,Net-(J207-Pin_1)*%
X74308250Y-87400556D03*
%TD*%
%TO.P,J205,1,Pin_1*%
%TO.N,Net-(J205-Pin_1)*%
X74280000Y-97590000D03*
%TD*%
D12*
%TO.P,J221,1,1*%
%TO.N,Net-(J203-Pin_1)*%
X92640000Y-107900000D03*
D13*
%TO.P,J221,2,2*%
%TO.N,Net-(J204-Pin_1)*%
X92640000Y-102820000D03*
%TD*%
D11*
%TO.P,D8,1,K*%
%TO.N,Net-(D8-K)*%
X113450000Y-121457500D03*
%TO.P,D8,2,A*%
%TO.N,GNDPWR*%
X113450000Y-119257500D03*
%TD*%
D12*
%TO.P,J223,1,1*%
%TO.N,M*%
X92640000Y-77420000D03*
D13*
%TO.P,J223,2,2*%
%TO.N,Net-(J210-Pin_1)*%
X92640000Y-72340000D03*
%TD*%
D23*
%TO.P,Q10,1,G*%
%TO.N,Net-(Q10-G)*%
X113040000Y-112960000D03*
%TO.P,Q10,2,D*%
%TO.N,Net-(J325-Pin_1)*%
X113040000Y-115260000D03*
%TO.P,Q10,3,S*%
%TO.N,Net-(D10-K)*%
X113040000Y-117560000D03*
D24*
%TO.P,Q10,4*%
%TO.N,N/C*%
X119340000Y-115260000D03*
%TD*%
D12*
%TO.P,J225,1,1*%
%TO.N,Net-(J207-Pin_1)*%
X92640000Y-87580000D03*
D13*
%TO.P,J225,2,2*%
%TO.N,Net-(J208-Pin_1)*%
X92640000Y-82500000D03*
%TD*%
D16*
%TO.P,D2,1,K*%
%TO.N,Net-(D2-K)*%
X119820000Y-90710000D03*
%TO.P,D2,2,A*%
%TO.N,Net-(D10-A)*%
X119820000Y-89135000D03*
%TD*%
D10*
%TO.P,R13,1*%
%TO.N,Net-(Q1-G)*%
X117040000Y-123265000D03*
%TO.P,R13,2*%
%TO.N,GNDPWR*%
X117040000Y-124915000D03*
%TD*%
D15*
%TO.P,R1,1*%
%TO.N,Net-(Q5-G)*%
X115700000Y-81025000D03*
%TO.P,R1,2*%
%TO.N,Net-(D10-K)*%
X115700000Y-79375000D03*
%TD*%
D11*
%TO.P,D9,1,K*%
%TO.N,Net-(D10-K)*%
X119590000Y-80600000D03*
%TO.P,D9,2,A*%
%TO.N,Net-(D1-A)*%
X119590000Y-78400000D03*
%TD*%
D12*
%TO.P,J319,1,1*%
%TO.N,Net-(D12-K)*%
X107500000Y-119400000D03*
D13*
%TO.P,J319,2,2*%
%TO.N,GNDPWR*%
X107500000Y-124480000D03*
%TD*%
D15*
%TO.P,R2,1*%
%TO.N,GNDPWR*%
X117260000Y-78270000D03*
%TO.P,R2,2*%
%TO.N,Net-(Q4-G)*%
X117260000Y-76620000D03*
%TD*%
D29*
%TO.P,J321,1,1*%
%TO.N,Net-(D1-A)*%
X116620000Y-130760000D03*
%TO.P,J321,2,2*%
%TO.N,Net-(D10-A)*%
X114120000Y-130760000D03*
%TO.P,J321,3,3*%
%TO.N,Net-(D11-A)*%
X111620000Y-130760000D03*
%TO.P,J321,4,4*%
%TO.N,Net-(D12-K)*%
X109120000Y-130760000D03*
%TD*%
D31*
%TO.N,Net-(J306-Pin_1)*%
X123120000Y-87640000D03*
X116101130Y-92741130D03*
%TO.N,Net-(J302-Pin_1)*%
X124200000Y-118800000D03*
X115712186Y-125914667D03*
X120400000Y-117800000D03*
%TO.N,Net-(J304-Pin_1)*%
X123780000Y-72340000D03*
X114995090Y-78500858D03*
%TO.N,Net-(J201-Pin_1)*%
X79471250Y-117874224D03*
X80868250Y-117874224D03*
X82265250Y-117874224D03*
%TO.N,Net-(J202-Pin_1)*%
X79471250Y-112794224D03*
X80868250Y-112794224D03*
X82392250Y-112794224D03*
%TO.N,Net-(J203-Pin_1)*%
X79471250Y-107714224D03*
X89758150Y-114826224D03*
X81249250Y-107714224D03*
X82773250Y-107714224D03*
%TO.N,Net-(J204-Pin_1)*%
X81249250Y-102634224D03*
X79598250Y-102634224D03*
X82773250Y-102634224D03*
%TO.N,Net-(J205-Pin_1)*%
X95679002Y-100444402D03*
X79852250Y-97554224D03*
X81503250Y-97554224D03*
X98902250Y-105440000D03*
X83027250Y-97554224D03*
%TO.N,Net-(J206-Pin_1)*%
X83281250Y-92474224D03*
X79852250Y-92474224D03*
X81630248Y-92474224D03*
%TO.N,Net-(J207-Pin_1)*%
X83027250Y-87394224D03*
X81376250Y-87394224D03*
X79852250Y-87394224D03*
%TO.N,Net-(J208-Pin_1)*%
X81503250Y-82314224D03*
X79725250Y-82314224D03*
X83281250Y-82314224D03*
%TO.N,M*%
X82773250Y-76980224D03*
X79344250Y-76980224D03*
X89200000Y-84800000D03*
X90000000Y-84800000D03*
X93200000Y-100200000D03*
X80995250Y-76980224D03*
%TO.N,Net-(J314-Pin_1)*%
X123470000Y-102800000D03*
X115800000Y-110000000D03*
%TO.N,GNDPWR*%
X107200000Y-117200000D03*
X106000000Y-90000000D03*
X112800000Y-90200000D03*
X115930000Y-118870000D03*
X115150000Y-112040000D03*
X119883870Y-79683870D03*
X106200000Y-116400000D03*
X119200000Y-95200000D03*
X123880000Y-76700000D03*
X116800000Y-72800000D03*
X117200000Y-102000000D03*
X117800000Y-133200000D03*
X103190000Y-133540000D03*
X107200000Y-86400000D03*
X116600000Y-133200000D03*
X122930000Y-76700000D03*
X123350000Y-93310000D03*
X123470000Y-122610000D03*
X124250000Y-123800000D03*
X123330000Y-107490000D03*
X105600000Y-73400000D03*
X118000000Y-87200000D03*
X117200000Y-101000000D03*
X112800000Y-79000000D03*
X124260000Y-122570000D03*
X123350000Y-108550000D03*
X121680000Y-92100000D03*
X116800000Y-115000000D03*
X121680000Y-93350000D03*
X103180000Y-132500000D03*
X123460000Y-123820000D03*
X114800000Y-106600000D03*
X103180000Y-131480000D03*
X115400000Y-133200000D03*
X114000000Y-133200000D03*
X114803750Y-81996250D03*
X122960000Y-77960000D03*
X114510000Y-97380000D03*
X123350000Y-92100000D03*
X110600000Y-81200000D03*
X107400000Y-71800000D03*
X111600000Y-74200000D03*
X106400000Y-67200000D03*
X123850000Y-77890000D03*
X115600000Y-70000000D03*
X115090672Y-83339328D03*
D32*
X119200000Y-109000000D03*
D31*
X103000000Y-67400000D03*
%TO.N,Net-(D10-A)*%
X116630000Y-96160000D03*
X103200000Y-100320000D03*
X118745000Y-90511688D03*
X111080000Y-95440000D03*
X113070000Y-96160000D03*
%TO.N,Net-(D5-K)*%
X115069232Y-76789711D03*
X119088933Y-76621067D03*
%TO.N,Net-(D6-K)*%
X112035000Y-92000000D03*
X115730000Y-94449130D03*
%TO.N,Net-(Q1-G)*%
X117110000Y-121510000D03*
X112200000Y-125600000D03*
%TO.N,Net-(Q2-G)*%
X116700000Y-108160000D03*
X116000000Y-104240000D03*
%TO.N,Net-(Q5-G)*%
X118581260Y-75286740D03*
X115400000Y-68000000D03*
X114637500Y-79962500D03*
%TO.N,Net-(Q6-G)*%
X113101927Y-93645000D03*
X116200000Y-83200000D03*
%TO.N,Net-(Q8-G)*%
X114604315Y-98375545D03*
D32*
X117588304Y-108015362D03*
D31*
%TO.N,Net-(Q10-G)*%
X114610000Y-113390000D03*
X114200000Y-124000000D03*
%TO.N,Net-(D11-A)*%
X103130000Y-115490000D03*
X113110000Y-107600000D03*
%TO.N,Net-(D10-K)*%
X117340000Y-118260000D03*
X108840000Y-101060000D03*
X111800000Y-72790000D03*
D33*
X120200000Y-80800000D03*
X115950000Y-79890000D03*
D31*
X109800000Y-115600000D03*
X114639701Y-99618671D03*
X114600000Y-86600000D03*
D33*
X117800000Y-84366750D03*
D31*
X111800000Y-118000000D03*
X109487159Y-100508920D03*
X111150000Y-104200000D03*
X115614000Y-116656000D03*
X111580000Y-87750000D03*
X111121811Y-72277590D03*
X111800000Y-119000000D03*
X111930000Y-88730000D03*
X111870000Y-84370000D03*
X111760000Y-103560000D03*
X110960000Y-88370000D03*
%TO.N,Net-(D1-K)*%
X118858422Y-74325915D03*
D34*
X118205033Y-78906000D03*
D31*
%TO.N,Net-(D1-A)*%
X116400000Y-71400000D03*
X110800000Y-80000000D03*
X103270000Y-85720000D03*
%TO.N,Net-(D12-K)*%
X118600000Y-118000000D03*
X112200000Y-124200000D03*
%TO.N,Net-(J323-Pin_1)*%
X110260000Y-70140000D03*
X109400000Y-71000000D03*
%TO.N,Net-(J322-Pin_1)*%
X109800000Y-87200000D03*
X109200000Y-87800000D03*
%TO.N,Net-(J324-Pin_1)*%
X111400000Y-101800000D03*
X110800000Y-102400000D03*
%TO.N,Net-(J325-Pin_1)*%
X109400000Y-117600000D03*
X109600000Y-118800000D03*
%TD*%
D35*
%TO.N,Net-(J306-Pin_1)*%
X116100000Y-92740000D02*
X114855000Y-92740000D01*
X123120000Y-87640000D02*
X123180000Y-87580000D01*
X114855000Y-92740000D02*
X114685000Y-92570000D01*
D36*
X123180000Y-87580000D02*
X128180000Y-87580000D01*
D35*
X116101130Y-92741130D02*
X116100000Y-92740000D01*
%TO.N,Net-(J302-Pin_1)*%
X124200000Y-118800000D02*
X123200000Y-117800000D01*
X123200000Y-117800000D02*
X120400000Y-117800000D01*
X115712186Y-125914667D02*
X115196853Y-126430000D01*
X115196853Y-126430000D02*
X115040000Y-126430000D01*
X124950000Y-118050000D02*
X128210000Y-118050000D01*
X124200000Y-118800000D02*
X124950000Y-118050000D01*
%TO.N,Net-(J304-Pin_1)*%
X123780000Y-72340000D02*
X128220000Y-72340000D01*
D37*
X128150000Y-72410000D02*
X128240000Y-72320000D01*
D35*
X114995090Y-78500858D02*
X114725858Y-78500858D01*
X128170000Y-72390000D02*
X128240000Y-72320000D01*
X114725858Y-78500858D02*
X114135000Y-77910000D01*
X128220000Y-72340000D02*
X128240000Y-72320000D01*
D38*
%TO.N,Net-(J201-Pin_1)*%
X92298250Y-117874224D02*
X84800000Y-117874224D01*
X84800000Y-117874224D02*
X74292163Y-117874224D01*
X74292163Y-117874224D02*
X74290616Y-117875771D01*
X92425250Y-117747224D02*
X92298250Y-117874224D01*
%TO.N,Net-(J202-Pin_1)*%
X82900250Y-112794224D02*
X74282641Y-112794224D01*
D36*
X86400000Y-109537500D02*
X86400000Y-109600000D01*
X86400000Y-109600000D02*
X83205776Y-112794224D01*
D38*
X74282641Y-112794224D02*
X74273772Y-112803093D01*
D36*
X83205776Y-112794224D02*
X82900250Y-112794224D01*
D38*
%TO.N,Net-(J203-Pin_1)*%
X92425250Y-107587224D02*
X92298250Y-107714224D01*
X74287595Y-107731527D02*
X74295588Y-107739520D01*
X74304898Y-107714224D02*
X74287595Y-107731527D01*
X74295588Y-107739520D02*
X79090250Y-107739520D01*
D39*
X88107250Y-107714224D02*
X89600000Y-109206974D01*
X89600000Y-114668074D02*
X89758150Y-114826224D01*
D38*
X92298250Y-107714224D02*
X88107250Y-107714224D01*
X88107250Y-107714224D02*
X74304898Y-107714224D01*
D39*
X89600000Y-109206974D02*
X89600000Y-114668074D01*
D38*
%TO.N,Net-(J204-Pin_1)*%
X92425250Y-102507224D02*
X92298250Y-102634224D01*
X74288698Y-102634224D02*
X74270525Y-102652397D01*
X82773250Y-102634224D02*
X74317916Y-102634224D01*
X74317916Y-102634224D02*
X74298250Y-102653890D01*
%TO.N,Net-(J205-Pin_1)*%
X95679002Y-99869002D02*
X95679002Y-100444402D01*
X74208250Y-97576109D02*
X93386109Y-97576109D01*
X97390000Y-128090000D02*
X98902250Y-126577750D01*
X94490000Y-128090000D02*
X97390000Y-128090000D01*
X93160000Y-125970000D02*
X93160000Y-126760000D01*
X93160000Y-126760000D02*
X94490000Y-128090000D01*
X93386109Y-97576109D02*
X95679002Y-99869002D01*
X98902250Y-126577750D02*
X98902250Y-105440000D01*
%TO.N,Net-(J206-Pin_1)*%
X74259168Y-92494687D02*
X79090250Y-92494687D01*
X92425250Y-92347224D02*
X92298250Y-92474224D01*
D39*
X95660000Y-122140000D02*
X97324258Y-120475742D01*
D38*
X92298250Y-92474224D02*
X74279353Y-92474224D01*
D39*
X97324258Y-97246232D02*
X92425250Y-92347224D01*
D38*
X74259029Y-92494548D02*
X74259168Y-92494687D01*
D39*
X97324258Y-120475742D02*
X97324258Y-97246232D01*
D38*
X74279353Y-92474224D02*
X74259029Y-92494548D01*
D39*
X95660000Y-125970000D02*
X95660000Y-122140000D01*
D38*
%TO.N,Net-(J207-Pin_1)*%
X82423627Y-87398787D02*
X74272933Y-87398787D01*
X85624840Y-90600000D02*
X82423627Y-87398787D01*
X92425250Y-87267224D02*
X89092474Y-90600000D01*
X89092474Y-90600000D02*
X85624840Y-90600000D01*
%TO.N,Net-(J208-Pin_1)*%
X92425250Y-82187224D02*
X92454224Y-82216198D01*
X92454224Y-82216198D02*
X92454224Y-82314224D01*
X74322732Y-82314224D02*
X74290929Y-82346027D01*
X92454224Y-82314224D02*
X74322732Y-82314224D01*
D36*
%TO.N,M*%
X86400000Y-113125000D02*
X86400000Y-114875000D01*
D38*
X93261224Y-100221224D02*
X95110000Y-102070000D01*
D36*
X88062500Y-87537500D02*
X87200000Y-87537500D01*
X88737500Y-85262500D02*
X89200000Y-84800000D01*
X89200000Y-86400000D02*
X88062500Y-87537500D01*
D38*
X74595318Y-76970000D02*
X74313791Y-77251527D01*
D37*
X79088577Y-77251527D02*
X74313791Y-77251527D01*
D36*
X95110000Y-113963000D02*
X95110000Y-109175474D01*
X87200000Y-85262500D02*
X88737500Y-85262500D01*
D37*
X79105880Y-77234224D02*
X79088577Y-77251527D01*
D36*
X92956277Y-116116723D02*
X95110000Y-113963000D01*
X87641723Y-116116723D02*
X92956277Y-116116723D01*
X86400000Y-114875000D02*
X87641723Y-116116723D01*
D38*
X92288026Y-76970000D02*
X74595318Y-76970000D01*
D36*
X89200000Y-84800000D02*
X89200000Y-86400000D01*
D38*
X92425250Y-77107224D02*
X92288026Y-76970000D01*
D36*
X90000000Y-84800000D02*
X89200000Y-84800000D01*
D38*
X95110000Y-102070000D02*
X95110000Y-109175474D01*
%TO.N,Net-(J210-Pin_1)*%
X74268986Y-72175201D02*
X92500273Y-72175201D01*
D35*
%TO.N,Net-(J314-Pin_1)*%
X123470000Y-102800000D02*
X123490000Y-102820000D01*
X123490000Y-102820000D02*
X128230000Y-102820000D01*
D40*
X116640000Y-110840000D02*
X116700000Y-110840000D01*
X115800000Y-110000000D02*
X116640000Y-110840000D01*
D41*
%TO.N,GNDPWR*%
X123948510Y-123140000D02*
X123460000Y-123628510D01*
D36*
X123647990Y-77420000D02*
X122930000Y-76702010D01*
X123230000Y-107390000D02*
X123330000Y-107490000D01*
D40*
X115040000Y-111930000D02*
X115040000Y-110842500D01*
D35*
X120338000Y-124262000D02*
X120800000Y-123800000D01*
D36*
X127710000Y-92100000D02*
X128260000Y-92650000D01*
D35*
X119433836Y-79683870D02*
X117850000Y-81267706D01*
D41*
X123720000Y-107880000D02*
X123330000Y-107490000D01*
D35*
X118290000Y-92224562D02*
X119780000Y-93714562D01*
D36*
X122260000Y-92680000D02*
X121680000Y-92100000D01*
X128260000Y-92680000D02*
X122339010Y-92680000D01*
X128260000Y-92680000D02*
X123980000Y-92680000D01*
D35*
X121115000Y-107490000D02*
X123330000Y-107490000D01*
D41*
X107500000Y-79160000D02*
X107500000Y-83210000D01*
D36*
X124260000Y-122570000D02*
X127660000Y-122570000D01*
D40*
X120547634Y-93718142D02*
X120926766Y-93339010D01*
D36*
X128230000Y-77420000D02*
X124320000Y-77420000D01*
D35*
X119883870Y-79683870D02*
X119433836Y-79683870D01*
D36*
X121680000Y-92100000D02*
X123350000Y-92100000D01*
X127660000Y-122570000D02*
X128220000Y-123130000D01*
D41*
X128230000Y-123140000D02*
X127741490Y-123628510D01*
D35*
X118290000Y-91980000D02*
X118290000Y-92224562D01*
D40*
X123310000Y-93350000D02*
X123350000Y-93310000D01*
D36*
X124320000Y-77420000D02*
X123850000Y-77890000D01*
D41*
X127741490Y-123628510D02*
X124250000Y-123628510D01*
D42*
X122339010Y-92680000D02*
X121680000Y-93339010D01*
D41*
X128230000Y-123140000D02*
X123997490Y-123140000D01*
D36*
X123980000Y-92680000D02*
X123350000Y-93310000D01*
X123350000Y-92100000D02*
X127710000Y-92100000D01*
D35*
X116921000Y-80476000D02*
X117850000Y-81405000D01*
X117850000Y-81267706D02*
X117850000Y-81405000D01*
X117040000Y-126030000D02*
X116690000Y-126380000D01*
D41*
X123858510Y-107880000D02*
X123350000Y-108388510D01*
X128210000Y-107880000D02*
X123720000Y-107880000D01*
D35*
X127550000Y-123800000D02*
X128220000Y-123130000D01*
D36*
X124597990Y-77420000D02*
X123880000Y-76702010D01*
D35*
X114803750Y-81996250D02*
X115090672Y-82283172D01*
X120025000Y-106400000D02*
X121115000Y-107490000D01*
D40*
X119780000Y-93860000D02*
X120434508Y-93860000D01*
D36*
X123500000Y-77420000D02*
X122960000Y-77960000D01*
D41*
X123818510Y-107920000D02*
X123350000Y-108388510D01*
D35*
X116921000Y-78609000D02*
X116921000Y-80476000D01*
X119200000Y-109000000D02*
X120000000Y-109800000D01*
D36*
X123350000Y-92100000D02*
X123350000Y-93310000D01*
D41*
X123997490Y-123140000D02*
X123470000Y-122612510D01*
D35*
X120338000Y-126062000D02*
X120338000Y-124262000D01*
X117260000Y-78270000D02*
X116921000Y-78609000D01*
X115090672Y-82283172D02*
X115090672Y-83339328D01*
D40*
X115150000Y-112040000D02*
X115040000Y-111930000D01*
D36*
X128230000Y-77420000D02*
X124597990Y-77420000D01*
D35*
X115000000Y-106400000D02*
X114800000Y-106600000D01*
D41*
X128210000Y-107880000D02*
X123858510Y-107880000D01*
D35*
X120000000Y-109800000D02*
X120025000Y-109800000D01*
X119780000Y-93714562D02*
X119780000Y-93860000D01*
X115000000Y-105240000D02*
X115000000Y-106400000D01*
X114803750Y-81996250D02*
X114472500Y-81665000D01*
X117040000Y-124915000D02*
X117675000Y-124915000D01*
D36*
X128260000Y-92680000D02*
X122260000Y-92680000D01*
D35*
X123780000Y-77960000D02*
X123850000Y-77890000D01*
X124250000Y-123800000D02*
X127550000Y-123800000D01*
X117040000Y-124915000D02*
X117040000Y-126030000D01*
X122960000Y-77960000D02*
X123780000Y-77960000D01*
D36*
X128200000Y-77420000D02*
X124320000Y-77420000D01*
D41*
X107500000Y-83210000D02*
X108360000Y-84070000D01*
D36*
X128200000Y-77420000D02*
X123500000Y-77420000D01*
D40*
X120926766Y-93339010D02*
X121680000Y-93339010D01*
D41*
X128230000Y-123140000D02*
X123948510Y-123140000D01*
D36*
X128230000Y-77420000D02*
X123647990Y-77420000D01*
D40*
X127600000Y-93310000D02*
X128260000Y-92650000D01*
D35*
X120800000Y-123800000D02*
X124250000Y-123800000D01*
D40*
X120434508Y-93860000D02*
X120547634Y-93718142D01*
D35*
X123320000Y-108580000D02*
X123350000Y-108550000D01*
D40*
X123350000Y-93310000D02*
X127600000Y-93310000D01*
X121680000Y-93350000D02*
X123310000Y-93350000D01*
D41*
X128230000Y-107920000D02*
X123818510Y-107920000D01*
X107500000Y-79160000D02*
X107530000Y-79190000D01*
D35*
X118400000Y-128000000D02*
X120338000Y-126062000D01*
D36*
X121680000Y-92100000D02*
X121680000Y-93339010D01*
D35*
X114472500Y-81665000D02*
X114472500Y-80900000D01*
D36*
%TO.N,Net-(D10-A)*%
X107500000Y-90500000D02*
X107500000Y-89000000D01*
X103440000Y-98140000D02*
X103440000Y-94560000D01*
D35*
X118745000Y-90511688D02*
X118891000Y-90365688D01*
D40*
X104160000Y-99360000D02*
X104160000Y-98860000D01*
D36*
X104160000Y-98860000D02*
X103440000Y-98140000D01*
D35*
X115960000Y-96160000D02*
X116630000Y-96160000D01*
X111080000Y-95440000D02*
X111800000Y-96160000D01*
D41*
X107500000Y-89000000D02*
X107500000Y-88790000D01*
D40*
X103200000Y-100320000D02*
X104160000Y-99360000D01*
D35*
X111800000Y-96160000D02*
X113070000Y-96160000D01*
D36*
X103440000Y-94560000D02*
X107500000Y-90500000D01*
D35*
X118891000Y-90365688D02*
X118891000Y-90024000D01*
X118891000Y-90024000D02*
X119780000Y-89135000D01*
%TO.N,Net-(D5-K)*%
X115069232Y-76789711D02*
X115481443Y-76377500D01*
X119660000Y-77192134D02*
X119660000Y-77310000D01*
X119088933Y-76621067D02*
X119660000Y-77192134D01*
X114297021Y-76017500D02*
X112800000Y-76017500D01*
X115069232Y-76789711D02*
X114297021Y-76017500D01*
X115481443Y-76377500D02*
X115770000Y-76377500D01*
%TO.N,Net-(D6-K)*%
X115709130Y-94470000D02*
X114850000Y-94470000D01*
X116002500Y-91357500D02*
X116170000Y-91190000D01*
X112332500Y-91357500D02*
X116002500Y-91357500D01*
X112035000Y-91655000D02*
X112332500Y-91357500D01*
X112035000Y-92000000D02*
X112035000Y-91655000D01*
X115730000Y-94449130D02*
X115709130Y-94470000D01*
D43*
%TO.N,Net-(D7-K)*%
X116100500Y-107265500D02*
X115950000Y-107115000D01*
X120065000Y-108200000D02*
X119130500Y-107265500D01*
D35*
X115950000Y-107115000D02*
X115950000Y-107732500D01*
X115950000Y-107732500D02*
X115040000Y-108642500D01*
D43*
X119130500Y-107265500D02*
X116100500Y-107265500D01*
D35*
%TO.N,Net-(D8-K)*%
X114092500Y-122100000D02*
X113450000Y-121457500D01*
X115260000Y-123285000D02*
X115930000Y-122615000D01*
X115405000Y-122100000D02*
X114092500Y-122100000D01*
X115930000Y-122615000D02*
X115930000Y-121575000D01*
X115930000Y-121575000D02*
X115405000Y-122100000D01*
%TO.N,Net-(Q1-G)*%
X117070000Y-123235000D02*
X117040000Y-123265000D01*
X117070000Y-121550000D02*
X117070000Y-123235000D01*
X117110000Y-121510000D02*
X117070000Y-121550000D01*
X117070000Y-119890000D02*
X117070000Y-121470000D01*
X117070000Y-121470000D02*
X117110000Y-121510000D01*
X112200000Y-125600000D02*
X113030000Y-126430000D01*
X113030000Y-126430000D02*
X113390000Y-126430000D01*
X116880000Y-119700000D02*
X117070000Y-119890000D01*
%TO.N,Net-(D2-K)*%
X119780000Y-90710000D02*
X119780000Y-92210000D01*
%TO.N,Net-(D3-K)*%
X119630000Y-124262294D02*
X118340000Y-125552294D01*
X119690000Y-120455000D02*
X119630000Y-120515000D01*
X119630000Y-120515000D02*
X119630000Y-124262294D01*
X118340000Y-125552294D02*
X118340000Y-126380000D01*
%TO.N,Net-(D4-K)*%
X119787500Y-104987500D02*
X118375000Y-106400000D01*
X119820000Y-104987500D02*
X119787500Y-104987500D01*
%TO.N,Net-(Q2-G)*%
X116700000Y-108160000D02*
X116696000Y-108164000D01*
X116000000Y-104340000D02*
X116900000Y-105240000D01*
X117493188Y-110000000D02*
X118380000Y-110000000D01*
X116696000Y-108164000D02*
X116696000Y-109186000D01*
X116700000Y-109206812D02*
X117493188Y-110000000D01*
X116000000Y-104240000D02*
X116000000Y-104340000D01*
%TO.N,Net-(Q3-G)*%
X117130000Y-93600000D02*
X117130000Y-89742500D01*
X113035000Y-92570000D02*
X113370000Y-92570000D01*
X114208562Y-93499000D02*
X115651261Y-93499000D01*
X113370000Y-92570000D02*
X113831000Y-93031000D01*
X115651261Y-93499000D02*
X115747391Y-93595130D01*
X118135130Y-93595130D02*
X118220000Y-93680000D01*
X115747391Y-93595130D02*
X118135130Y-93595130D01*
X113831000Y-93031000D02*
X113831000Y-93121438D01*
X113831000Y-93121438D02*
X114208562Y-93499000D01*
D40*
%TO.N,Net-(Q4-G)*%
X116765000Y-76605000D02*
X117399933Y-76605000D01*
X116002946Y-77680000D02*
X116641000Y-77041946D01*
X115785000Y-77680000D02*
X116002946Y-77680000D01*
X116641000Y-77041946D02*
X116641000Y-76729000D01*
D35*
X116720000Y-75100000D02*
X116840000Y-75220000D01*
X116840000Y-76220000D02*
X117230000Y-76610000D01*
X116720000Y-74502500D02*
X116720000Y-75100000D01*
D40*
X116641000Y-76729000D02*
X116765000Y-76605000D01*
D35*
X116840000Y-75220000D02*
X116840000Y-76220000D01*
%TO.N,Net-(Q5-G)*%
X119367472Y-75660000D02*
X119660000Y-75660000D01*
X118581260Y-75286740D02*
X118994212Y-75286740D01*
X118994212Y-75286740D02*
X119367472Y-75660000D01*
X114637500Y-79962500D02*
X115700000Y-81025000D01*
D40*
X113070000Y-67750000D02*
X115150000Y-67750000D01*
D35*
X115725000Y-81025000D02*
X115730000Y-81030000D01*
X115700000Y-81025000D02*
X115725000Y-81025000D01*
D40*
X115150000Y-67750000D02*
X115400000Y-68000000D01*
D35*
%TO.N,Net-(Q6-G)*%
X116200000Y-83437739D02*
X115444411Y-84193328D01*
X112860000Y-82750000D02*
X110880000Y-82750000D01*
X116200000Y-83200000D02*
X116200000Y-83437739D01*
X115444411Y-84193328D02*
X114303328Y-84193328D01*
X113101927Y-93645000D02*
X113101927Y-94371927D01*
X113101927Y-94371927D02*
X113200000Y-94470000D01*
X114303328Y-84193328D02*
X112860000Y-82750000D01*
%TO.N,Net-(Q8-G)*%
X117588304Y-108015362D02*
X117772942Y-108200000D01*
X114604315Y-98375545D02*
X114558770Y-98330000D01*
X114558770Y-98330000D02*
X110685000Y-98330000D01*
X117772942Y-108200000D02*
X118415000Y-108200000D01*
X110685000Y-98330000D02*
X110680000Y-98335000D01*
%TO.N,Net-(Q10-G)*%
X114130000Y-112910000D02*
X113020000Y-112910000D01*
X114200000Y-124000000D02*
X115145000Y-124945000D01*
X115145000Y-124945000D02*
X115325000Y-124945000D01*
X112700000Y-113230000D02*
X110530000Y-113230000D01*
X114610000Y-113390000D02*
X114130000Y-112910000D01*
X113020000Y-112910000D02*
X112700000Y-113230000D01*
D40*
%TO.N,Net-(D11-A)*%
X103130000Y-115490000D02*
X103100000Y-115460000D01*
D35*
X113110000Y-108222500D02*
X113190000Y-108302500D01*
D40*
X103130000Y-114980000D02*
X104120000Y-113990000D01*
D35*
X113800000Y-106452500D02*
X113110000Y-107142500D01*
D36*
X104120000Y-113990000D02*
X104120000Y-107380000D01*
D35*
X113110000Y-107142500D02*
X113110000Y-108222500D01*
X115036079Y-103386000D02*
X113818000Y-104604079D01*
D36*
X104120000Y-107380000D02*
X107500000Y-104000000D01*
D35*
X119820000Y-103412500D02*
X119793500Y-103386000D01*
D40*
X103130000Y-115490000D02*
X103130000Y-114980000D01*
D35*
X113818000Y-104604079D02*
X113818000Y-105235764D01*
X113110000Y-107600000D02*
X113110000Y-107142500D01*
X113818000Y-105235764D02*
X113800000Y-105253764D01*
X113800000Y-105253764D02*
X113800000Y-106452500D01*
X119793500Y-103386000D02*
X115036079Y-103386000D01*
D44*
%TO.N,Net-(D10-K)*%
X108870000Y-101100000D02*
X109311500Y-100658500D01*
D36*
X111150000Y-104170000D02*
X111760000Y-103560000D01*
D35*
X117964000Y-121863739D02*
X117960000Y-121867739D01*
X110880000Y-84400000D02*
X111840000Y-84400000D01*
X115458315Y-98729284D02*
X115458315Y-97741685D01*
X111150000Y-104200000D02*
X112367500Y-104200000D01*
D44*
X110006500Y-100658500D02*
X110680000Y-99985000D01*
D35*
X117960000Y-121867739D02*
X117960000Y-122779562D01*
D41*
X107590000Y-68910000D02*
X107500000Y-69000000D01*
D36*
X110960000Y-88370000D02*
X111722500Y-87607500D01*
D35*
X117960000Y-122779562D02*
X118840000Y-123659562D01*
D36*
X112538454Y-117510000D02*
X113020000Y-117510000D01*
D35*
X112367500Y-104200000D02*
X113110000Y-104942500D01*
X117964000Y-121156261D02*
X117964000Y-121863739D01*
X115950000Y-79890000D02*
X115950000Y-79379000D01*
X117340000Y-118260000D02*
X117960000Y-118880000D01*
D45*
X110520000Y-114880000D02*
X109800000Y-115600000D01*
D35*
X114958054Y-99300318D02*
X114958054Y-99229545D01*
X117960000Y-121152261D02*
X117964000Y-121156261D01*
X118840000Y-123659562D02*
X118840000Y-123980000D01*
D36*
X112965954Y-87580000D02*
X113090000Y-87580000D01*
D38*
X111800000Y-118000000D02*
X112600000Y-118000000D01*
D36*
X111580000Y-87750000D02*
X111830000Y-88000000D01*
X111760000Y-103560000D02*
X112630000Y-103560000D01*
D35*
X114639701Y-99618671D02*
X114958054Y-99300318D01*
X117800000Y-84366750D02*
X115566750Y-86600000D01*
D36*
X112630000Y-103560000D02*
X113170000Y-103020000D01*
D44*
X109311500Y-100658500D02*
X110006500Y-100658500D01*
D35*
X115566750Y-86600000D02*
X114600000Y-86600000D01*
D38*
X111800000Y-119000000D02*
X111800000Y-118000000D01*
D36*
X111830000Y-88000000D02*
X111830000Y-88630000D01*
D35*
X115458315Y-97741685D02*
X116186000Y-97014000D01*
X111840000Y-84400000D02*
X111870000Y-84370000D01*
D37*
X110530000Y-114880000D02*
X110520000Y-114880000D01*
D41*
X113380000Y-72500000D02*
X111344221Y-72500000D01*
D35*
X120200000Y-80800000D02*
X119790000Y-80800000D01*
X117960000Y-118880000D02*
X117960000Y-121152261D01*
D36*
X111830000Y-88630000D02*
X111360000Y-88160000D01*
D41*
X111121811Y-72277590D02*
X111634221Y-72790000D01*
D35*
X117306000Y-97014000D02*
X118160000Y-96160000D01*
X116186000Y-97014000D02*
X117306000Y-97014000D01*
X114958054Y-99229545D02*
X115458315Y-98729284D01*
D36*
X113030000Y-102930000D02*
X112760000Y-103200000D01*
X111150000Y-104200000D02*
X111150000Y-104170000D01*
D41*
X111634221Y-72790000D02*
X111800000Y-72790000D01*
X111510000Y-72500000D02*
X111800000Y-72790000D01*
D35*
X110856624Y-84423376D02*
X110880000Y-84400000D01*
X119790000Y-80800000D02*
X119590000Y-80600000D01*
X115614000Y-116656000D02*
X114710000Y-117560000D01*
D36*
X111722500Y-87607500D02*
X113300000Y-87607500D01*
D41*
X111400000Y-72500000D02*
X111510000Y-72500000D01*
D37*
X112600000Y-118000000D02*
X113040000Y-117560000D01*
D35*
X114710000Y-117560000D02*
X113040000Y-117560000D01*
%TO.N,Net-(D1-K)*%
X119568415Y-74325915D02*
X119680000Y-74437500D01*
X118205033Y-78906000D02*
X117850000Y-79261033D01*
X117850000Y-79261033D02*
X117850000Y-79755000D01*
X118858422Y-74325915D02*
X119568415Y-74325915D01*
%TO.N,Net-(D1-A)*%
X117000000Y-71400000D02*
X118462500Y-72862500D01*
D36*
X107500000Y-74080000D02*
X104360000Y-77220000D01*
D35*
X116400000Y-71400000D02*
X117000000Y-71400000D01*
X110800000Y-80000000D02*
X111430000Y-80000000D01*
X117727260Y-75640479D02*
X118234933Y-76148152D01*
X118662500Y-72862500D02*
X117727260Y-73797740D01*
X111430000Y-80000000D02*
X112272500Y-80842500D01*
X103270000Y-85160000D02*
X104360000Y-84070000D01*
X118234933Y-77290371D02*
X119344562Y-78400000D01*
X118234933Y-76148152D02*
X118234933Y-77290371D01*
X118462500Y-72862500D02*
X118662500Y-72862500D01*
X119344562Y-78400000D02*
X119590000Y-78400000D01*
X103270000Y-85720000D02*
X103270000Y-85160000D01*
X118662500Y-72862500D02*
X119820000Y-72862500D01*
X117727260Y-73797740D02*
X117727260Y-75640479D01*
D36*
X104360000Y-77220000D02*
X104360000Y-84070000D01*
D35*
%TO.N,Net-(D12-K)*%
X104400000Y-128862500D02*
X106297500Y-130760000D01*
X119480000Y-118880000D02*
X119690000Y-118880000D01*
D36*
X104400000Y-122500000D02*
X104400000Y-128862500D01*
X107500000Y-119400000D02*
X104400000Y-122500000D01*
D35*
X118761000Y-121701000D02*
X118840000Y-121780000D01*
X113214562Y-125200000D02*
X113460000Y-125200000D01*
X106297500Y-130760000D02*
X109120000Y-130760000D01*
X118600000Y-118000000D02*
X119480000Y-118880000D01*
X119690000Y-118880000D02*
X118761000Y-119809000D01*
X118761000Y-119809000D02*
X118761000Y-121701000D01*
X112214562Y-124200000D02*
X113214562Y-125200000D01*
X112200000Y-124200000D02*
X112214562Y-124200000D01*
D41*
%TO.N,Net-(J323-Pin_1)*%
X109400000Y-71000000D02*
X110260000Y-70140000D01*
D46*
X114240000Y-69200000D02*
X113300000Y-70140000D01*
X117600000Y-67400000D02*
X115800000Y-69200000D01*
D41*
X110260000Y-70140000D02*
X113300000Y-70140000D01*
D46*
X115800000Y-69200000D02*
X114240000Y-69200000D01*
X119600000Y-67400000D02*
X117600000Y-67400000D01*
%TO.N,Net-(J322-Pin_1)*%
X113300000Y-85307500D02*
X116037592Y-85307500D01*
D41*
X111238000Y-85762000D02*
X112845500Y-85762000D01*
X112845500Y-85762000D02*
X112890585Y-85716915D01*
D46*
X116037592Y-85307500D02*
X119145092Y-82200000D01*
X119145092Y-82200000D02*
X119600000Y-82200000D01*
D41*
X109200000Y-87800000D02*
X111238000Y-85762000D01*
D44*
%TO.N,Net-(J324-Pin_1)*%
X110800000Y-102400000D02*
X110800000Y-102200000D01*
D46*
X119338568Y-97595000D02*
X119533568Y-97400000D01*
D36*
X113170000Y-100720000D02*
X112848602Y-100720000D01*
D46*
X113170000Y-100720000D02*
X114566506Y-100720000D01*
X116605000Y-97595000D02*
X119338568Y-97595000D01*
D35*
X113170000Y-100720000D02*
X112280000Y-100720000D01*
X119533568Y-97400000D02*
X119800000Y-97400000D01*
D44*
X110800000Y-102200000D02*
X112280000Y-100720000D01*
D46*
X116039315Y-99247191D02*
X116039315Y-98160685D01*
X116039315Y-98160685D02*
X116605000Y-97595000D01*
X114566506Y-100720000D02*
X116039315Y-99247191D01*
%TO.N,Net-(J325-Pin_1)*%
X114740000Y-115260000D02*
X118200000Y-111800000D01*
D36*
X109600000Y-118800000D02*
X110000000Y-118400000D01*
D46*
X113040000Y-115260000D02*
X114740000Y-115260000D01*
D35*
X113024000Y-115214000D02*
X113020000Y-115210000D01*
D36*
X113040000Y-115260000D02*
X112340000Y-115260000D01*
X109400000Y-117600000D02*
X109400000Y-118600000D01*
X109400000Y-118600000D02*
X109600000Y-118800000D01*
D35*
X112690000Y-114880000D02*
X113020000Y-115210000D01*
D36*
X110000000Y-118400000D02*
X110000000Y-117600000D01*
X110000000Y-117600000D02*
X109400000Y-117600000D01*
D46*
X118200000Y-111800000D02*
X119600000Y-111800000D01*
D36*
X112340000Y-115260000D02*
X110000000Y-117600000D01*
%TD*%
%TA.AperFunction,Conductor*%
%TO.N,M*%
G36*
X93338065Y-99133904D02*
G01*
X94507183Y-100303022D01*
X94540668Y-100364345D01*
X94543502Y-100390703D01*
X94543502Y-100498493D01*
X94556970Y-100639538D01*
X94558950Y-100660273D01*
X94558951Y-100660277D01*
X94620043Y-100868340D01*
X94620044Y-100868343D01*
X94620045Y-100868344D01*
X94719414Y-101061092D01*
X94853464Y-101231551D01*
X95017351Y-101373560D01*
X95017354Y-101373562D01*
X95017357Y-101373564D01*
X95119000Y-101432247D01*
X95205153Y-101481987D01*
X95410080Y-101552913D01*
X95624727Y-101583775D01*
X95841336Y-101573457D01*
X96052077Y-101522331D01*
X96140248Y-101482064D01*
X96209405Y-101472121D01*
X96272960Y-101501146D01*
X96310735Y-101559924D01*
X96315758Y-101594859D01*
X96315758Y-113728382D01*
X96296073Y-113795421D01*
X96243269Y-113841176D01*
X96179974Y-113851821D01*
X96161798Y-113850085D01*
X96020519Y-113877316D01*
X95955141Y-113899944D01*
X95954533Y-113900150D01*
X95954488Y-113900169D01*
X95826601Y-113966104D01*
X95826595Y-113966108D01*
X95722470Y-114065396D01*
X95722463Y-114065403D01*
X95680374Y-114118928D01*
X95679483Y-114120027D01*
X95679278Y-114120322D01*
X95654094Y-114163944D01*
X95651021Y-114168985D01*
X95609629Y-114233390D01*
X95600161Y-114248717D01*
X95595623Y-114256367D01*
X95586743Y-114271960D01*
X95584526Y-114276021D01*
X95574779Y-114290902D01*
X95574867Y-114290966D01*
X95563999Y-114305847D01*
X95563916Y-114305786D01*
X95552648Y-114319682D01*
X95549495Y-114322988D01*
X95543566Y-114329432D01*
X95537226Y-114336325D01*
X95537210Y-114336342D01*
X95537187Y-114336368D01*
X95534935Y-114338905D01*
X95529888Y-114344261D01*
X95520637Y-114353511D01*
X95516252Y-114357950D01*
X95514275Y-114359976D01*
X95510170Y-114364231D01*
X95471311Y-114404986D01*
X95465525Y-114410670D01*
X95439955Y-114434194D01*
X93387060Y-116487090D01*
X93374530Y-116500074D01*
X93368521Y-116506527D01*
X93356438Y-116519978D01*
X93313490Y-116569546D01*
X93309337Y-116575097D01*
X93304038Y-116579065D01*
X93277849Y-116617030D01*
X93275072Y-116620895D01*
X93266171Y-116632794D01*
X93264789Y-116631760D01*
X93219951Y-116673517D01*
X93151193Y-116685931D01*
X93124170Y-116679921D01*
X92963458Y-116624748D01*
X92782561Y-116594562D01*
X92722263Y-116584500D01*
X92477737Y-116584500D01*
X92307095Y-116612974D01*
X92290363Y-116614562D01*
X92289832Y-116614625D01*
X92268512Y-116619263D01*
X92262569Y-116620404D01*
X92236553Y-116624745D01*
X92236548Y-116624746D01*
X92231688Y-116626415D01*
X92217794Y-116630296D01*
X92077943Y-116660719D01*
X92077927Y-116660724D01*
X91919160Y-116728712D01*
X91870348Y-116738724D01*
X87195725Y-116738724D01*
X87128686Y-116719039D01*
X87082931Y-116666235D01*
X87072041Y-116623570D01*
X87071283Y-116612974D01*
X87061715Y-116479190D01*
X87011433Y-116344381D01*
X86977948Y-116283058D01*
X86891724Y-116167877D01*
X86891719Y-116167872D01*
X86891714Y-116167866D01*
X86873028Y-116149180D01*
X86839543Y-116087857D01*
X86844527Y-116018165D01*
X86886399Y-115962232D01*
X86951863Y-115937815D01*
X86960709Y-115937499D01*
X87074972Y-115937499D01*
X87074986Y-115937498D01*
X87177697Y-115927005D01*
X87344119Y-115871858D01*
X87344124Y-115871856D01*
X87493345Y-115779815D01*
X87617315Y-115655845D01*
X87698211Y-115524693D01*
X87750159Y-115477969D01*
X87819122Y-115466746D01*
X87855261Y-115476995D01*
X87927663Y-115510061D01*
X87994702Y-115529746D01*
X87994706Y-115529747D01*
X88137122Y-115550223D01*
X88137125Y-115550223D01*
X88493170Y-115550223D01*
X88493180Y-115550223D01*
X88531500Y-115548768D01*
X88550244Y-115547343D01*
X88588337Y-115542989D01*
X88726021Y-115501220D01*
X88789314Y-115471628D01*
X88818544Y-115452471D01*
X88885402Y-115432188D01*
X88952615Y-115451271D01*
X88974190Y-115468498D01*
X89030385Y-115524693D01*
X89080068Y-115574376D01*
X89195145Y-115668818D01*
X89195152Y-115668822D01*
X89370345Y-115762464D01*
X89370347Y-115762465D01*
X89560449Y-115820133D01*
X89758150Y-115839604D01*
X89955851Y-115820133D01*
X90145954Y-115762465D01*
X90321153Y-115668819D01*
X90474718Y-115542792D01*
X90488953Y-115525446D01*
X90546697Y-115486111D01*
X90616541Y-115484238D01*
X90636315Y-115491314D01*
X90677364Y-115510061D01*
X90744403Y-115529746D01*
X90744407Y-115529747D01*
X90886823Y-115550223D01*
X90886826Y-115550223D01*
X92460881Y-115550223D01*
X92471027Y-115549678D01*
X92514919Y-115547326D01*
X92514927Y-115547325D01*
X92514929Y-115547325D01*
X92514930Y-115547325D01*
X92521923Y-115546572D01*
X92541277Y-115544492D01*
X92541287Y-115544490D01*
X92541290Y-115544490D01*
X92551768Y-115542792D01*
X92594689Y-115535837D01*
X92729498Y-115485555D01*
X92790821Y-115452070D01*
X92906003Y-115365846D01*
X93247226Y-115024622D01*
X93259734Y-115011660D01*
X93265766Y-115005182D01*
X93277847Y-114991734D01*
X93355634Y-114870694D01*
X93384659Y-114807138D01*
X93384660Y-114807135D01*
X93425195Y-114669083D01*
X93425194Y-114579498D01*
X93444878Y-114512461D01*
X93497681Y-114466705D01*
X93549194Y-114455499D01*
X93622871Y-114455499D01*
X93622872Y-114455499D01*
X93682483Y-114449091D01*
X93817331Y-114398796D01*
X93932546Y-114312546D01*
X94018796Y-114197331D01*
X94069091Y-114062483D01*
X94075500Y-114002873D01*
X94075499Y-112173475D01*
X94095184Y-112106437D01*
X94147987Y-112060682D01*
X94164568Y-112054498D01*
X94175504Y-112051287D01*
X94296543Y-111973499D01*
X94349347Y-111927744D01*
X94443567Y-111819010D01*
X94503338Y-111688133D01*
X94523023Y-111621094D01*
X94523024Y-111621090D01*
X94543500Y-111478674D01*
X94543500Y-109572823D01*
X94538355Y-109500881D01*
X94533332Y-109465946D01*
X94518000Y-109395471D01*
X94491904Y-109306602D01*
X94487445Y-109283462D01*
X94480561Y-109211360D01*
X94480000Y-109199575D01*
X94480000Y-108946706D01*
X94480000Y-108946693D01*
X94479197Y-108918220D01*
X94478410Y-108904270D01*
X94476003Y-108875870D01*
X94458988Y-108810741D01*
X94439635Y-108736664D01*
X94412532Y-108672264D01*
X94412532Y-108672263D01*
X94357363Y-108580465D01*
X94338421Y-108548945D01*
X94338419Y-108548943D01*
X94232566Y-108451498D01*
X94172051Y-108409986D01*
X94166153Y-108407633D01*
X94138209Y-108393841D01*
X94086806Y-108346522D01*
X94069145Y-108278921D01*
X94072883Y-108252209D01*
X94100364Y-108143692D01*
X94120557Y-107900000D01*
X94100364Y-107656308D01*
X94100361Y-107656295D01*
X94073724Y-107551108D01*
X94076348Y-107481288D01*
X94116304Y-107423970D01*
X94126874Y-107416362D01*
X94233043Y-107348131D01*
X94285847Y-107302376D01*
X94380067Y-107193642D01*
X94439838Y-107062765D01*
X94459523Y-106995726D01*
X94459524Y-106995722D01*
X94480000Y-106853306D01*
X94480000Y-104373688D01*
X94477103Y-104319648D01*
X94474269Y-104293290D01*
X94465615Y-104239884D01*
X94465614Y-104239880D01*
X94415339Y-104105084D01*
X94415337Y-104105079D01*
X94389393Y-104057565D01*
X94382907Y-104045686D01*
X94382140Y-104044218D01*
X94381848Y-104043745D01*
X94295623Y-103928563D01*
X94269587Y-103909073D01*
X94180440Y-103842339D01*
X94180067Y-103842135D01*
X94179966Y-103842034D01*
X94176715Y-103839945D01*
X94177169Y-103839237D01*
X94130665Y-103792730D01*
X94115499Y-103733306D01*
X94115499Y-101797129D01*
X94115498Y-101797123D01*
X94109091Y-101737516D01*
X94058797Y-101602671D01*
X94058793Y-101602664D01*
X93972547Y-101487455D01*
X93972544Y-101487452D01*
X93857335Y-101401206D01*
X93857328Y-101401202D01*
X93722482Y-101350908D01*
X93722483Y-101350908D01*
X93662883Y-101344501D01*
X93662881Y-101344500D01*
X93662873Y-101344500D01*
X93662865Y-101344500D01*
X93228300Y-101344500D01*
X93161261Y-101324815D01*
X93115506Y-101272011D01*
X93104616Y-101229346D01*
X93100693Y-101174500D01*
X93094413Y-101086690D01*
X93044131Y-100951881D01*
X93010646Y-100890558D01*
X92924422Y-100775377D01*
X92781584Y-100632539D01*
X92766579Y-100614366D01*
X92712405Y-100534324D01*
X92701108Y-100513634D01*
X92694624Y-100498493D01*
X92663071Y-100424809D01*
X92655893Y-100402354D01*
X92635352Y-100307930D01*
X92632553Y-100284526D01*
X92630251Y-100187898D01*
X92631932Y-100164401D01*
X92647957Y-100069100D01*
X92654055Y-100046346D01*
X92687831Y-99955786D01*
X92698130Y-99934585D01*
X92748429Y-99852062D01*
X92762547Y-99833203D01*
X92845765Y-99741662D01*
X92909653Y-99654109D01*
X92936058Y-99608308D01*
X92979814Y-99509145D01*
X93003496Y-99367227D01*
X93005071Y-99297375D01*
X93002871Y-99279172D01*
X93014369Y-99210257D01*
X93061300Y-99158496D01*
X93085704Y-99147016D01*
X93210124Y-99104302D01*
X93279920Y-99101154D01*
X93338065Y-99133904D01*
G37*
%TD.AperFunction*%
%TA.AperFunction,Conductor*%
G36*
X86593039Y-112232185D02*
G01*
X86638794Y-112284989D01*
X86650000Y-112336500D01*
X86650000Y-113524999D01*
X86842500Y-113524999D01*
X86909539Y-113544684D01*
X86955294Y-113597488D01*
X86966500Y-113648999D01*
X86966500Y-113688500D01*
X86946815Y-113755539D01*
X86894011Y-113801294D01*
X86842500Y-113812500D01*
X86650000Y-113812500D01*
X86650000Y-115001000D01*
X86630315Y-115068039D01*
X86577511Y-115113794D01*
X86526000Y-115125000D01*
X86274000Y-115125000D01*
X86206961Y-115105315D01*
X86161206Y-115052511D01*
X86150000Y-115001000D01*
X86150000Y-113812500D01*
X85957500Y-113812500D01*
X85890461Y-113792815D01*
X85844706Y-113740011D01*
X85833500Y-113688500D01*
X85833500Y-113648999D01*
X85853185Y-113581960D01*
X85905989Y-113536205D01*
X85957500Y-113524999D01*
X86150000Y-113524999D01*
X86150000Y-112336500D01*
X86169685Y-112269461D01*
X86222489Y-112223706D01*
X86274000Y-112212500D01*
X86526000Y-112212500D01*
X86593039Y-112232185D01*
G37*
%TD.AperFunction*%
%TA.AperFunction,Conductor*%
G36*
X89253380Y-84231377D02*
G01*
X89257784Y-84231746D01*
X89257804Y-84231746D01*
X89257806Y-84231747D01*
X89299851Y-84233500D01*
X89299863Y-84233500D01*
X90042256Y-84233500D01*
X90065722Y-84235741D01*
X90075980Y-84237718D01*
X90148701Y-84251733D01*
X90171309Y-84258371D01*
X90249779Y-84289785D01*
X90270724Y-84300583D01*
X90341819Y-84346272D01*
X90360344Y-84360840D01*
X90416160Y-84414061D01*
X90421508Y-84419160D01*
X90436939Y-84436968D01*
X90485971Y-84505824D01*
X90497754Y-84526233D01*
X90532856Y-84603094D01*
X90540567Y-84625372D01*
X90560492Y-84707505D01*
X90563847Y-84730839D01*
X90567868Y-84815250D01*
X90566746Y-84838798D01*
X90554719Y-84922445D01*
X90549161Y-84945352D01*
X90521522Y-85025212D01*
X90511728Y-85046658D01*
X90469473Y-85119844D01*
X90455873Y-85138961D01*
X90455163Y-85139781D01*
X90454974Y-85140000D01*
X90420141Y-85180199D01*
X90400460Y-85202913D01*
X90383398Y-85219181D01*
X90316973Y-85271417D01*
X90297141Y-85284162D01*
X90218513Y-85324697D01*
X90200866Y-85332131D01*
X90184393Y-85337615D01*
X90167798Y-85343806D01*
X90134498Y-85357599D01*
X90134494Y-85357601D01*
X90013462Y-85435384D01*
X90013451Y-85435393D01*
X89960659Y-85481137D01*
X89866433Y-85589878D01*
X89866430Y-85589882D01*
X89806664Y-85720748D01*
X89786976Y-85787796D01*
X89766500Y-85930215D01*
X89766500Y-86357296D01*
X89766820Y-86375278D01*
X89767139Y-86384201D01*
X89768104Y-86402199D01*
X89768432Y-86406787D01*
X89768277Y-86424626D01*
X89768381Y-86424633D01*
X89767285Y-86443028D01*
X89767176Y-86443021D01*
X89765217Y-86460745D01*
X89764341Y-86465291D01*
X89761232Y-86483132D01*
X89759884Y-86491774D01*
X89757419Y-86509686D01*
X89756874Y-86514240D01*
X89753345Y-86531717D01*
X89753449Y-86531744D01*
X89748896Y-86549581D01*
X89748797Y-86549555D01*
X89743510Y-86566603D01*
X89741796Y-86570886D01*
X89735410Y-86587697D01*
X89732417Y-86596020D01*
X89726580Y-86613211D01*
X89725189Y-86617564D01*
X89718415Y-86634064D01*
X89718513Y-86634110D01*
X89710658Y-86650781D01*
X89710564Y-86650736D01*
X89702162Y-86666446D01*
X89699644Y-86670365D01*
X89690177Y-86685690D01*
X89685721Y-86693198D01*
X89676736Y-86708975D01*
X89674526Y-86713023D01*
X89664756Y-86727934D01*
X89664844Y-86727998D01*
X89663768Y-86729470D01*
X89663759Y-86729483D01*
X89655065Y-86741389D01*
X89653977Y-86742879D01*
X89653890Y-86742815D01*
X89642637Y-86756694D01*
X89639459Y-86760026D01*
X89627218Y-86773333D01*
X89624930Y-86775911D01*
X89619889Y-86781261D01*
X89610560Y-86790590D01*
X89606158Y-86795047D01*
X89604191Y-86797064D01*
X89600191Y-86801211D01*
X89561325Y-86841974D01*
X89555537Y-86847660D01*
X89529969Y-86871182D01*
X89228160Y-87172990D01*
X89166837Y-87206474D01*
X89097145Y-87201490D01*
X89041212Y-87159618D01*
X89017121Y-87097907D01*
X89014506Y-87072303D01*
X88959358Y-86905880D01*
X88959356Y-86905875D01*
X88867315Y-86756654D01*
X88743345Y-86632684D01*
X88594124Y-86540643D01*
X88594119Y-86540641D01*
X88524904Y-86517706D01*
X88467459Y-86477934D01*
X88440636Y-86413418D01*
X88452951Y-86344642D01*
X88500494Y-86293442D01*
X88524904Y-86282294D01*
X88594119Y-86259358D01*
X88594124Y-86259356D01*
X88743345Y-86167315D01*
X88867315Y-86043345D01*
X88959356Y-85894124D01*
X88959358Y-85894119D01*
X89014505Y-85727697D01*
X89014506Y-85727690D01*
X89024999Y-85624986D01*
X89025000Y-85624973D01*
X89025000Y-85512500D01*
X87074000Y-85512500D01*
X87006961Y-85492815D01*
X86961206Y-85440011D01*
X86950000Y-85388500D01*
X86950000Y-85136500D01*
X86969685Y-85069461D01*
X87022489Y-85023706D01*
X87074000Y-85012500D01*
X89024999Y-85012500D01*
X89024999Y-84900028D01*
X89024998Y-84900013D01*
X89014505Y-84797302D01*
X88959358Y-84630880D01*
X88959356Y-84630875D01*
X88867191Y-84481453D01*
X88848751Y-84414061D01*
X88869673Y-84347397D01*
X88908208Y-84310465D01*
X88910437Y-84309107D01*
X88926135Y-84301016D01*
X88937753Y-84296042D01*
X88937760Y-84296038D01*
X88937776Y-84296032D01*
X88951674Y-84289783D01*
X88954239Y-84288630D01*
X88962237Y-84284861D01*
X88978371Y-84276905D01*
X88989078Y-84271384D01*
X89002568Y-84265418D01*
X89008554Y-84263186D01*
X89025522Y-84258205D01*
X89037866Y-84255520D01*
X89055443Y-84251366D01*
X89064018Y-84249177D01*
X89081406Y-84244406D01*
X89092927Y-84241022D01*
X89107288Y-84237718D01*
X89107315Y-84237713D01*
X89113600Y-84236656D01*
X89131215Y-84234975D01*
X89143032Y-84234694D01*
X89143848Y-84234675D01*
X89145650Y-84234599D01*
X89161880Y-84233923D01*
X89165396Y-84233713D01*
X89171299Y-84233503D01*
X89183465Y-84233359D01*
X89183493Y-84233358D01*
X89183520Y-84233358D01*
X89189420Y-84233218D01*
X89199699Y-84232850D01*
X89201484Y-84232787D01*
X89209275Y-84232415D01*
X89237148Y-84231087D01*
X89253380Y-84231377D01*
G37*
%TD.AperFunction*%
%TA.AperFunction,Conductor*%
G36*
X82641745Y-75995084D02*
G01*
X82696925Y-76037943D01*
X82700668Y-76043437D01*
X82732544Y-76093037D01*
X82732553Y-76093048D01*
X82778297Y-76145840D01*
X82778300Y-76145843D01*
X82778304Y-76145847D01*
X82887038Y-76240067D01*
X83017915Y-76299838D01*
X83084954Y-76319523D01*
X83084958Y-76319524D01*
X83227374Y-76340000D01*
X83227377Y-76340000D01*
X91354572Y-76340000D01*
X91421611Y-76359685D01*
X91467366Y-76412489D01*
X91477310Y-76481647D01*
X91458380Y-76531822D01*
X91338330Y-76715570D01*
X91240138Y-76939426D01*
X91180130Y-77176394D01*
X91159945Y-77419994D01*
X91159945Y-77419995D01*
X91163737Y-77465761D01*
X91149655Y-77534197D01*
X91100809Y-77584156D01*
X91040160Y-77600000D01*
X78520500Y-77600000D01*
X78453461Y-77580315D01*
X78407706Y-77527511D01*
X78396500Y-77476000D01*
X78396500Y-76590621D01*
X78393758Y-76544589D01*
X78350221Y-76344456D01*
X78350219Y-76344448D01*
X78272652Y-76163313D01*
X78264357Y-76093937D01*
X78294886Y-76031090D01*
X78354546Y-75994725D01*
X78386640Y-75990500D01*
X82563916Y-75990500D01*
X82563918Y-75990500D01*
X82572155Y-75988861D01*
X82641745Y-75995084D01*
G37*
%TD.AperFunction*%
%TD*%
%TA.AperFunction,Conductor*%
%TO.N,GNDPWR*%
G36*
X118018834Y-85317452D02*
G01*
X118074767Y-85359324D01*
X118099184Y-85424788D01*
X118099500Y-85433634D01*
X118099500Y-86765528D01*
X118099501Y-86765534D01*
X118110113Y-86884915D01*
X118166089Y-87080545D01*
X118166090Y-87080548D01*
X118166091Y-87080549D01*
X118260302Y-87260907D01*
X118260304Y-87260909D01*
X118388890Y-87418609D01*
X118461728Y-87478000D01*
X118546593Y-87547198D01*
X118726951Y-87641409D01*
X118922582Y-87697386D01*
X119041963Y-87708000D01*
X120158036Y-87707999D01*
X120277418Y-87697386D01*
X120473049Y-87641409D01*
X120653407Y-87547198D01*
X120811109Y-87418609D01*
X120939698Y-87260907D01*
X121033909Y-87080549D01*
X121089886Y-86884918D01*
X121100500Y-86765537D01*
X121100499Y-86377085D01*
X121120183Y-86310048D01*
X121172987Y-86264293D01*
X121242146Y-86254349D01*
X121265177Y-86260668D01*
X121265259Y-86260400D01*
X121271081Y-86262166D01*
X121271086Y-86262168D01*
X121271090Y-86262168D01*
X121271091Y-86262169D01*
X121416079Y-86291010D01*
X121416082Y-86291010D01*
X121489901Y-86291010D01*
X122902434Y-86291010D01*
X122969473Y-86310695D01*
X123015228Y-86363499D01*
X123025172Y-86432657D01*
X122996147Y-86496213D01*
X122937369Y-86533986D01*
X122916253Y-86540187D01*
X122779768Y-86580262D01*
X122597796Y-86674074D01*
X122436870Y-86800627D01*
X122363835Y-86884916D01*
X122312960Y-86943630D01*
X122302800Y-86955355D01*
X122200442Y-87132644D01*
X122200436Y-87132657D01*
X122133479Y-87326115D01*
X122104344Y-87528757D01*
X122104343Y-87528759D01*
X122114084Y-87733252D01*
X122136022Y-87823683D01*
X122157135Y-87910713D01*
X122162352Y-87932215D01*
X122162353Y-87932219D01*
X122247392Y-88118428D01*
X122247399Y-88118440D01*
X122366150Y-88285203D01*
X122366153Y-88285206D01*
X122408881Y-88325947D01*
X122514319Y-88426482D01*
X122686547Y-88537166D01*
X122820751Y-88590893D01*
X122875671Y-88634083D01*
X122898524Y-88700110D01*
X122882051Y-88768010D01*
X122831484Y-88816226D01*
X122774664Y-88830010D01*
X121541372Y-88830010D01*
X121541338Y-88830000D01*
X121490000Y-88830000D01*
X121416082Y-88830000D01*
X121416080Y-88830000D01*
X121271091Y-88858840D01*
X121271085Y-88858842D01*
X121134506Y-88915414D01*
X121011579Y-88997553D01*
X121011578Y-88997554D01*
X121007181Y-89001952D01*
X120945858Y-89035437D01*
X120876166Y-89030453D01*
X120820233Y-88988581D01*
X120795816Y-88923117D01*
X120795500Y-88914271D01*
X120795500Y-88868331D01*
X120795499Y-88868318D01*
X120791687Y-88831009D01*
X120785436Y-88769815D01*
X120732549Y-88610213D01*
X120732545Y-88610207D01*
X120732544Y-88610204D01*
X120644283Y-88467112D01*
X120644280Y-88467108D01*
X120525391Y-88348219D01*
X120525387Y-88348216D01*
X120382295Y-88259955D01*
X120382289Y-88259952D01*
X120382287Y-88259951D01*
X120222685Y-88207064D01*
X120222683Y-88207063D01*
X120124181Y-88197000D01*
X120124174Y-88197000D01*
X119515826Y-88197000D01*
X119515818Y-88197000D01*
X119417316Y-88207063D01*
X119417315Y-88207064D01*
X119338219Y-88233273D01*
X119257715Y-88259950D01*
X119257704Y-88259955D01*
X119114612Y-88348216D01*
X119114608Y-88348219D01*
X118995719Y-88467108D01*
X118995716Y-88467112D01*
X118907455Y-88610204D01*
X118907450Y-88610215D01*
X118890357Y-88661798D01*
X118854564Y-88769815D01*
X118854564Y-88769816D01*
X118854563Y-88769816D01*
X118844500Y-88868318D01*
X118844500Y-88952113D01*
X118824815Y-89019152D01*
X118808181Y-89039794D01*
X118402742Y-89445232D01*
X118389113Y-89457011D01*
X118369707Y-89471459D01*
X118337674Y-89509633D01*
X118330387Y-89517586D01*
X118326420Y-89521554D01*
X118326418Y-89521556D01*
X118307089Y-89546001D01*
X118304815Y-89548793D01*
X118256334Y-89606571D01*
X118252366Y-89612605D01*
X118252322Y-89612576D01*
X118248209Y-89619031D01*
X118248254Y-89619059D01*
X118244462Y-89625206D01*
X118212581Y-89693572D01*
X118211012Y-89696812D01*
X118177175Y-89764191D01*
X118174704Y-89770979D01*
X118174655Y-89770961D01*
X118172140Y-89778196D01*
X118172190Y-89778213D01*
X118167845Y-89791324D01*
X118142291Y-89835288D01*
X118136651Y-89841552D01*
X118077165Y-89878201D01*
X118007308Y-89876872D01*
X117949259Y-89837986D01*
X117921449Y-89773889D01*
X117920500Y-89758581D01*
X117920500Y-88661813D01*
X117920499Y-88661798D01*
X117917598Y-88624932D01*
X117917597Y-88624926D01*
X117878216Y-88489378D01*
X117871744Y-88467102D01*
X117788081Y-88325635D01*
X117788079Y-88325633D01*
X117788076Y-88325629D01*
X117671870Y-88209423D01*
X117671862Y-88209417D01*
X117593681Y-88163181D01*
X117530398Y-88125756D01*
X117530397Y-88125755D01*
X117530396Y-88125755D01*
X117530393Y-88125754D01*
X117372573Y-88079902D01*
X117372567Y-88079901D01*
X117335701Y-88077000D01*
X117335694Y-88077000D01*
X116904306Y-88077000D01*
X116904298Y-88077000D01*
X116867432Y-88079901D01*
X116867426Y-88079902D01*
X116709606Y-88125754D01*
X116709603Y-88125755D01*
X116568137Y-88209417D01*
X116568129Y-88209423D01*
X116451923Y-88325629D01*
X116451917Y-88325637D01*
X116368255Y-88467103D01*
X116368254Y-88467106D01*
X116322402Y-88624926D01*
X116322401Y-88624932D01*
X116319500Y-88661798D01*
X116319500Y-89828000D01*
X116299815Y-89895039D01*
X116247011Y-89940794D01*
X116195500Y-89952000D01*
X116144000Y-89952000D01*
X116076961Y-89932315D01*
X116031206Y-89879511D01*
X116020000Y-89828000D01*
X116020000Y-89565000D01*
X114420000Y-89565000D01*
X114420000Y-89968149D01*
X114422899Y-90004989D01*
X114422900Y-90004995D01*
X114468716Y-90162693D01*
X114468717Y-90162696D01*
X114552314Y-90304052D01*
X114552321Y-90304061D01*
X114639579Y-90391319D01*
X114673064Y-90452642D01*
X114668080Y-90522334D01*
X114626208Y-90578267D01*
X114560744Y-90602684D01*
X114551898Y-90603000D01*
X112396500Y-90603000D01*
X112378531Y-90601691D01*
X112354591Y-90598184D01*
X112307830Y-90602276D01*
X112304951Y-90602528D01*
X112294145Y-90603000D01*
X112288551Y-90603000D01*
X112257613Y-90606616D01*
X112254029Y-90606982D01*
X112178887Y-90613556D01*
X112171821Y-90615016D01*
X112171810Y-90614964D01*
X112164331Y-90616622D01*
X112164344Y-90616674D01*
X112157316Y-90618339D01*
X112086462Y-90644128D01*
X112083057Y-90645312D01*
X112011462Y-90669036D01*
X112004921Y-90672087D01*
X112004898Y-90672039D01*
X111998001Y-90675378D01*
X111998025Y-90675425D01*
X111991572Y-90678665D01*
X111928552Y-90720114D01*
X111925511Y-90722051D01*
X111861353Y-90761624D01*
X111855685Y-90766106D01*
X111855652Y-90766064D01*
X111849714Y-90770901D01*
X111849748Y-90770942D01*
X111844212Y-90775587D01*
X111792444Y-90830456D01*
X111789933Y-90833041D01*
X111546742Y-91076232D01*
X111533113Y-91088011D01*
X111513707Y-91102459D01*
X111481674Y-91140633D01*
X111474387Y-91148586D01*
X111470420Y-91152554D01*
X111470418Y-91152556D01*
X111451089Y-91177001D01*
X111448815Y-91179793D01*
X111400334Y-91237571D01*
X111396366Y-91243605D01*
X111396322Y-91243576D01*
X111392209Y-91250031D01*
X111392254Y-91250059D01*
X111388462Y-91256206D01*
X111356581Y-91324572D01*
X111355012Y-91327812D01*
X111321175Y-91395191D01*
X111318704Y-91401979D01*
X111318655Y-91401961D01*
X111316142Y-91409190D01*
X111316192Y-91409207D01*
X111313921Y-91416060D01*
X111307717Y-91446104D01*
X111293666Y-91483026D01*
X111207823Y-91631710D01*
X111207818Y-91631722D01*
X111149327Y-91811740D01*
X111149326Y-91811744D01*
X111129540Y-92000000D01*
X111149326Y-92188256D01*
X111149327Y-92188259D01*
X111207818Y-92368277D01*
X111207821Y-92368284D01*
X111302467Y-92532216D01*
X111406321Y-92647557D01*
X111429129Y-92672888D01*
X111582265Y-92784148D01*
X111582270Y-92784151D01*
X111755192Y-92861142D01*
X111755197Y-92861144D01*
X111940354Y-92900500D01*
X111940355Y-92900500D01*
X112027332Y-92900500D01*
X112094371Y-92920185D01*
X112140126Y-92972989D01*
X112145714Y-92987602D01*
X112191522Y-93134606D01*
X112207182Y-93160510D01*
X112246347Y-93225297D01*
X112264183Y-93292852D01*
X112258161Y-93327765D01*
X112224943Y-93430000D01*
X112216253Y-93456744D01*
X112196467Y-93645000D01*
X112211043Y-93783689D01*
X112211576Y-93788755D01*
X112199006Y-93857485D01*
X112194373Y-93865864D01*
X112178568Y-93892009D01*
X112176522Y-93895394D01*
X112146249Y-93992546D01*
X112125913Y-94057807D01*
X112124006Y-94078796D01*
X112120159Y-94121138D01*
X112119500Y-94128386D01*
X112119500Y-94791613D01*
X112125913Y-94862192D01*
X112125913Y-94862194D01*
X112125914Y-94862196D01*
X112176522Y-95024606D01*
X112258272Y-95159837D01*
X112264530Y-95170188D01*
X112272161Y-95177819D01*
X112305646Y-95239142D01*
X112300662Y-95308834D01*
X112258790Y-95364767D01*
X112193326Y-95389184D01*
X112184485Y-95389500D01*
X112161852Y-95389500D01*
X112161812Y-95389502D01*
X112158270Y-95389781D01*
X112089894Y-95375413D01*
X112060868Y-95353844D01*
X111990046Y-95283021D01*
X111959797Y-95233658D01*
X111954604Y-95217676D01*
X111917288Y-95102827D01*
X111907181Y-95071721D01*
X111907178Y-95071715D01*
X111812533Y-94907784D01*
X111685871Y-94767112D01*
X111676081Y-94759999D01*
X111532734Y-94655851D01*
X111532729Y-94655848D01*
X111359807Y-94578857D01*
X111359802Y-94578855D01*
X111214001Y-94547865D01*
X111174646Y-94539500D01*
X110985354Y-94539500D01*
X110952897Y-94546398D01*
X110800197Y-94578855D01*
X110800192Y-94578857D01*
X110627270Y-94655848D01*
X110627265Y-94655851D01*
X110474129Y-94767111D01*
X110347466Y-94907785D01*
X110252821Y-95071715D01*
X110252818Y-95071722D01*
X110194327Y-95251740D01*
X110194326Y-95251744D01*
X110174540Y-95440000D01*
X110194326Y-95628256D01*
X110194327Y-95628259D01*
X110252818Y-95808277D01*
X110252821Y-95808284D01*
X110347467Y-95972216D01*
X110453500Y-96089977D01*
X110474129Y-96112888D01*
X110627265Y-96224148D01*
X110627270Y-96224151D01*
X110800191Y-96301142D01*
X110800193Y-96301142D01*
X110800197Y-96301144D01*
X110858148Y-96313461D01*
X110919627Y-96346653D01*
X110920046Y-96347070D01*
X111221234Y-96648258D01*
X111233015Y-96661890D01*
X111247461Y-96681294D01*
X111285638Y-96713328D01*
X111293614Y-96720638D01*
X111297554Y-96724579D01*
X111297558Y-96724582D01*
X111297559Y-96724583D01*
X111309194Y-96733783D01*
X111322010Y-96743916D01*
X111324807Y-96746195D01*
X111382572Y-96794667D01*
X111388609Y-96798637D01*
X111388579Y-96798682D01*
X111395038Y-96802796D01*
X111395067Y-96802750D01*
X111401207Y-96806537D01*
X111401209Y-96806539D01*
X111469557Y-96838410D01*
X111472775Y-96839968D01*
X111509529Y-96858426D01*
X111540189Y-96873824D01*
X111540191Y-96873824D01*
X111546979Y-96876295D01*
X111546960Y-96876347D01*
X111554185Y-96878858D01*
X111554203Y-96878807D01*
X111561055Y-96881077D01*
X111561056Y-96881077D01*
X111561060Y-96881079D01*
X111635003Y-96896346D01*
X111638410Y-96897102D01*
X111711812Y-96914500D01*
X111711815Y-96914500D01*
X111718986Y-96915339D01*
X111718979Y-96915392D01*
X111726594Y-96916170D01*
X111726599Y-96916117D01*
X111733789Y-96916746D01*
X111733793Y-96916745D01*
X111733794Y-96916746D01*
X111795827Y-96914940D01*
X111809196Y-96914552D01*
X111812802Y-96914500D01*
X112536169Y-96914500D01*
X112603208Y-96934185D01*
X112609053Y-96938181D01*
X112617026Y-96943974D01*
X112618688Y-96945181D01*
X112661354Y-97000510D01*
X112667335Y-97070123D01*
X112634730Y-97131919D01*
X112573892Y-97166277D01*
X112545806Y-97169500D01*
X112468878Y-97169500D01*
X112468874Y-97169501D01*
X112426113Y-97172399D01*
X112426112Y-97172399D01*
X112241303Y-97218360D01*
X112070707Y-97302967D01*
X112070704Y-97302969D01*
X111922278Y-97422277D01*
X111922277Y-97422278D01*
X111836342Y-97529187D01*
X111778999Y-97569106D01*
X111739695Y-97575500D01*
X111418090Y-97575500D01*
X111353940Y-97557617D01*
X111244606Y-97491522D01*
X111175538Y-97470000D01*
X111082196Y-97440914D01*
X111082194Y-97440913D01*
X111082192Y-97440913D01*
X111032778Y-97436423D01*
X111011616Y-97434500D01*
X110348384Y-97434500D01*
X110329145Y-97436248D01*
X110277807Y-97440913D01*
X110115393Y-97491522D01*
X109969813Y-97579529D01*
X109867682Y-97681660D01*
X109806359Y-97715144D01*
X109736667Y-97710160D01*
X109692320Y-97681659D01*
X109628345Y-97617684D01*
X109479124Y-97525643D01*
X109479119Y-97525641D01*
X109312697Y-97470494D01*
X109312690Y-97470493D01*
X109209986Y-97460000D01*
X108410000Y-97460000D01*
X108410000Y-98986000D01*
X108390315Y-99053039D01*
X108337511Y-99098794D01*
X108286000Y-99110000D01*
X106410001Y-99110000D01*
X106410001Y-99559986D01*
X106420494Y-99662697D01*
X106475641Y-99829119D01*
X106475643Y-99829124D01*
X106567684Y-99978345D01*
X106691654Y-100102315D01*
X106840875Y-100194356D01*
X106840880Y-100194358D01*
X107007302Y-100249505D01*
X107007309Y-100249506D01*
X107110019Y-100259999D01*
X107754425Y-100259999D01*
X107821464Y-100279683D01*
X107867219Y-100332487D01*
X107877163Y-100401646D01*
X107862754Y-100444338D01*
X107768464Y-100613619D01*
X107768464Y-100613620D01*
X107697846Y-100824312D01*
X107667148Y-101044385D01*
X107677410Y-101266362D01*
X107728282Y-101482655D01*
X107728284Y-101482661D01*
X107728285Y-101482664D01*
X107818039Y-101685938D01*
X107853429Y-101737601D01*
X107943616Y-101869258D01*
X107943621Y-101869264D01*
X108100735Y-102026378D01*
X108100741Y-102026383D01*
X108284062Y-102151961D01*
X108487336Y-102241715D01*
X108487342Y-102241716D01*
X108487344Y-102241717D01*
X108549381Y-102256308D01*
X108703637Y-102292589D01*
X108703636Y-102292589D01*
X108703641Y-102292590D01*
X108925611Y-102302852D01*
X109145688Y-102272153D01*
X109356376Y-102201537D01*
X109416660Y-102167958D01*
X109484805Y-102152533D01*
X109550473Y-102176398D01*
X109592813Y-102231978D01*
X109601000Y-102276287D01*
X109601000Y-102455433D01*
X109616365Y-102621259D01*
X109616366Y-102621261D01*
X109677174Y-102834979D01*
X109677180Y-102834994D01*
X109776222Y-103033896D01*
X109910133Y-103211224D01*
X110074344Y-103360921D01*
X110074346Y-103360923D01*
X110195763Y-103436101D01*
X110242399Y-103488129D01*
X110253503Y-103557110D01*
X110239318Y-103600956D01*
X110229601Y-103618751D01*
X110225086Y-103626361D01*
X110192832Y-103676549D01*
X110181264Y-103705444D01*
X110174982Y-103718776D01*
X110160074Y-103746079D01*
X110160066Y-103746097D01*
X110141908Y-103802900D01*
X110138915Y-103811226D01*
X110116745Y-103866604D01*
X110110855Y-103897165D01*
X110107210Y-103911446D01*
X110097734Y-103941093D01*
X110097733Y-103941096D01*
X110090652Y-104000320D01*
X110089288Y-104009064D01*
X110078000Y-104067634D01*
X110078000Y-104098756D01*
X110077123Y-104113476D01*
X110073429Y-104144368D01*
X110073429Y-104144374D01*
X110077684Y-104203861D01*
X110078000Y-104212707D01*
X110078000Y-104251067D01*
X110092583Y-104403789D01*
X110092584Y-104403796D01*
X110092585Y-104403800D01*
X110150263Y-104600234D01*
X110177389Y-104652851D01*
X110244074Y-104782203D01*
X110346845Y-104912888D01*
X110370628Y-104943130D01*
X110525351Y-105077197D01*
X110702650Y-105179561D01*
X110896117Y-105246521D01*
X111098758Y-105275655D01*
X111098759Y-105275656D01*
X111098759Y-105275655D01*
X111098760Y-105275656D01*
X111303255Y-105265915D01*
X111502212Y-105217649D01*
X111509782Y-105214192D01*
X111688428Y-105132607D01*
X111688431Y-105132605D01*
X111688438Y-105132602D01*
X111855204Y-105013849D01*
X111875149Y-104992930D01*
X111935658Y-104957996D01*
X111964893Y-104954500D01*
X112003614Y-104954500D01*
X112070653Y-104974185D01*
X112091295Y-104990819D01*
X112380512Y-105280036D01*
X112401887Y-105311485D01*
X112402411Y-105311176D01*
X112486827Y-105453916D01*
X112486834Y-105453925D01*
X112598574Y-105565665D01*
X112598583Y-105565672D01*
X112646998Y-105594304D01*
X112734610Y-105646118D01*
X112886373Y-105690209D01*
X112921837Y-105693000D01*
X112921854Y-105692999D01*
X112924265Y-105693095D01*
X112924261Y-105693190D01*
X112924264Y-105693191D01*
X112924258Y-105693261D01*
X112924236Y-105693818D01*
X112988490Y-105712652D01*
X113034270Y-105765434D01*
X113045500Y-105816999D01*
X113045500Y-106088613D01*
X113025815Y-106155652D01*
X113009181Y-106176294D01*
X112772461Y-106413013D01*
X112741014Y-106434387D01*
X112741324Y-106434911D01*
X112598583Y-106519327D01*
X112598574Y-106519334D01*
X112486834Y-106631074D01*
X112486827Y-106631083D01*
X112406382Y-106767109D01*
X112406380Y-106767114D01*
X112362292Y-106918866D01*
X112362290Y-106918879D01*
X112359500Y-106954329D01*
X112359500Y-107022942D01*
X112356159Y-107051528D01*
X112355500Y-107054312D01*
X112355500Y-107054314D01*
X112355499Y-107054319D01*
X112354661Y-107061488D01*
X112354607Y-107061481D01*
X112353830Y-107069096D01*
X112353883Y-107069101D01*
X112352624Y-107083490D01*
X112350548Y-107083308D01*
X112336597Y-107138572D01*
X112292637Y-107214715D01*
X112282820Y-107231718D01*
X112282818Y-107231722D01*
X112226597Y-107404754D01*
X112224326Y-107411744D01*
X112204540Y-107600000D01*
X112224326Y-107788256D01*
X112224327Y-107788259D01*
X112282818Y-107968277D01*
X112282821Y-107968284D01*
X112338887Y-108065392D01*
X112355500Y-108127392D01*
X112355500Y-108158500D01*
X112354191Y-108176469D01*
X112350684Y-108200408D01*
X112355028Y-108250045D01*
X112355500Y-108260854D01*
X112355500Y-108266446D01*
X112359116Y-108297385D01*
X112359482Y-108300970D01*
X112366056Y-108376110D01*
X112367516Y-108383177D01*
X112367464Y-108383187D01*
X112369123Y-108390667D01*
X112369174Y-108390655D01*
X112370840Y-108397685D01*
X112396621Y-108468520D01*
X112397804Y-108471923D01*
X112421533Y-108543529D01*
X112424586Y-108550075D01*
X112424536Y-108550098D01*
X112427874Y-108556994D01*
X112427923Y-108556970D01*
X112431162Y-108563420D01*
X112431164Y-108563424D01*
X112460238Y-108607628D01*
X112475714Y-108641172D01*
X112486380Y-108677886D01*
X112486382Y-108677890D01*
X112566827Y-108813916D01*
X112566834Y-108813925D01*
X112678574Y-108925665D01*
X112678583Y-108925672D01*
X112702564Y-108939854D01*
X112814610Y-109006118D01*
X112966373Y-109050209D01*
X113001837Y-109053000D01*
X113080872Y-109052999D01*
X113105948Y-109055561D01*
X113110824Y-109056567D01*
X113123794Y-109059246D01*
X113300096Y-109054116D01*
X113300100Y-109054114D01*
X113302325Y-109054050D01*
X113316753Y-109052999D01*
X113378150Y-109052999D01*
X113378162Y-109052999D01*
X113413627Y-109050209D01*
X113565390Y-109006118D01*
X113701420Y-108925670D01*
X113813170Y-108813920D01*
X113893618Y-108677890D01*
X113937709Y-108526127D01*
X113940500Y-108490663D01*
X113940499Y-108393802D01*
X113941809Y-108375829D01*
X113949315Y-108324591D01*
X113940971Y-108229222D01*
X113940499Y-108218414D01*
X113940499Y-108114349D01*
X113940498Y-108114324D01*
X113937709Y-108078875D01*
X113937709Y-108078873D01*
X113930717Y-108054807D01*
X113930915Y-107984941D01*
X113936521Y-107969760D01*
X113937170Y-107968298D01*
X113937179Y-107968284D01*
X113995674Y-107788256D01*
X114015460Y-107600000D01*
X113995674Y-107411744D01*
X113995671Y-107411736D01*
X113994322Y-107405386D01*
X113997291Y-107404754D01*
X113995515Y-107348172D01*
X114027847Y-107291675D01*
X114288264Y-107031258D01*
X114301883Y-107019488D01*
X114321294Y-107005039D01*
X114353334Y-106966854D01*
X114360623Y-106958899D01*
X114364583Y-106954941D01*
X114383934Y-106930466D01*
X114386175Y-106927715D01*
X114434667Y-106869927D01*
X114434668Y-106869924D01*
X114438637Y-106863890D01*
X114438684Y-106863921D01*
X114442790Y-106857476D01*
X114442743Y-106857447D01*
X114446534Y-106851299D01*
X114446534Y-106851297D01*
X114446539Y-106851292D01*
X114478436Y-106782886D01*
X114479976Y-106779706D01*
X114513824Y-106712311D01*
X114513826Y-106712298D01*
X114516293Y-106705524D01*
X114516346Y-106705543D01*
X114518858Y-106698315D01*
X114518807Y-106698298D01*
X114521080Y-106691438D01*
X114536333Y-106617565D01*
X114537114Y-106614041D01*
X114537833Y-106611010D01*
X114551524Y-106553243D01*
X114586139Y-106492552D01*
X114648072Y-106460208D01*
X114706776Y-106462766D01*
X114747505Y-106474599D01*
X114747511Y-106474600D01*
X114749998Y-106474795D01*
X114750000Y-106474795D01*
X114750000Y-105114000D01*
X114769685Y-105046961D01*
X114822489Y-105001206D01*
X114874000Y-104990000D01*
X115126000Y-104990000D01*
X115193039Y-105009685D01*
X115238794Y-105062489D01*
X115250000Y-105114000D01*
X115250000Y-106145684D01*
X115232733Y-106208804D01*
X115198254Y-106267105D01*
X115198254Y-106267106D01*
X115152404Y-106424923D01*
X115152401Y-106424932D01*
X115149500Y-106461798D01*
X115149500Y-107414613D01*
X115129815Y-107481652D01*
X115113181Y-107502294D01*
X114702461Y-107913013D01*
X114671014Y-107934387D01*
X114671324Y-107934911D01*
X114528583Y-108019327D01*
X114528574Y-108019334D01*
X114416834Y-108131074D01*
X114416827Y-108131083D01*
X114336382Y-108267109D01*
X114336380Y-108267114D01*
X114292292Y-108418866D01*
X114292290Y-108418879D01*
X114289500Y-108454329D01*
X114289500Y-108533376D01*
X114286938Y-108558451D01*
X114283254Y-108576292D01*
X114288448Y-108754804D01*
X114289500Y-108769248D01*
X114289500Y-108830650D01*
X114289501Y-108830676D01*
X114292291Y-108866127D01*
X114336380Y-109017885D01*
X114336382Y-109017890D01*
X114416827Y-109153916D01*
X114416834Y-109153925D01*
X114528574Y-109265665D01*
X114528578Y-109265668D01*
X114528580Y-109265670D01*
X114664610Y-109346118D01*
X114816373Y-109390209D01*
X114851837Y-109393000D01*
X114895867Y-109392999D01*
X114962906Y-109412682D01*
X115008662Y-109465485D01*
X115018607Y-109534643D01*
X115003257Y-109578997D01*
X114972822Y-109631713D01*
X114972818Y-109631722D01*
X114930976Y-109760500D01*
X114914326Y-109811744D01*
X114907181Y-109879726D01*
X114895378Y-109992021D01*
X114868793Y-110056636D01*
X114811495Y-110096620D01*
X114806652Y-110098135D01*
X114664814Y-110139342D01*
X114664811Y-110139344D01*
X114528891Y-110219726D01*
X114528883Y-110219732D01*
X114417232Y-110331383D01*
X114417226Y-110331391D01*
X114336845Y-110467308D01*
X114336843Y-110467314D01*
X114300474Y-110592499D01*
X114300474Y-110592500D01*
X115066539Y-110592500D01*
X115133578Y-110612185D01*
X115158689Y-110633528D01*
X115194129Y-110672888D01*
X115194133Y-110672891D01*
X115238884Y-110705404D01*
X115281550Y-110760733D01*
X115290000Y-110805723D01*
X115290000Y-111582025D01*
X115415185Y-111545656D01*
X115415191Y-111545654D01*
X115551108Y-111465273D01*
X115551112Y-111465270D01*
X115633908Y-111382474D01*
X115695231Y-111348989D01*
X115764923Y-111353973D01*
X115820857Y-111395844D01*
X115827706Y-111406004D01*
X115869528Y-111475185D01*
X115869531Y-111475189D01*
X115989811Y-111595469D01*
X115989813Y-111595470D01*
X115989815Y-111595472D01*
X116135394Y-111683478D01*
X116297804Y-111734086D01*
X116368384Y-111740500D01*
X116368387Y-111740500D01*
X117031612Y-111740500D01*
X117031616Y-111740500D01*
X117065042Y-111737462D01*
X117133587Y-111750998D01*
X117183933Y-111799444D01*
X117200095Y-111867419D01*
X117176942Y-111933341D01*
X117163945Y-111948634D01*
X115718986Y-113393593D01*
X115657663Y-113427078D01*
X115587971Y-113422094D01*
X115532038Y-113380222D01*
X115507984Y-113318873D01*
X115495674Y-113201744D01*
X115437179Y-113021716D01*
X115342533Y-112857784D01*
X115215871Y-112717112D01*
X115215870Y-112717111D01*
X115062734Y-112605851D01*
X115062729Y-112605848D01*
X114889807Y-112528857D01*
X114889805Y-112528856D01*
X114831850Y-112516537D01*
X114770369Y-112483343D01*
X114769952Y-112482928D01*
X114708766Y-112421742D01*
X114696984Y-112408109D01*
X114687253Y-112395038D01*
X114682539Y-112388706D01*
X114682537Y-112388704D01*
X114682538Y-112388704D01*
X114644367Y-112356676D01*
X114636384Y-112349360D01*
X114632444Y-112345419D01*
X114607987Y-112326081D01*
X114605191Y-112323803D01*
X114547427Y-112275333D01*
X114541394Y-112271365D01*
X114541422Y-112271321D01*
X114534966Y-112267207D01*
X114534938Y-112267253D01*
X114528793Y-112263463D01*
X114528791Y-112263461D01*
X114508327Y-112253918D01*
X114455889Y-112207747D01*
X114449657Y-112196655D01*
X114407030Y-112110704D01*
X114287722Y-111962278D01*
X114253582Y-111934835D01*
X114139295Y-111842969D01*
X114139292Y-111842967D01*
X113968697Y-111758360D01*
X113783892Y-111712400D01*
X113762506Y-111710950D01*
X113741123Y-111709500D01*
X113741120Y-111709500D01*
X112338877Y-111709500D01*
X112338874Y-111709501D01*
X112296113Y-111712399D01*
X112296112Y-111712399D01*
X112111303Y-111758360D01*
X111940707Y-111842967D01*
X111940704Y-111842969D01*
X111792278Y-111962277D01*
X111792277Y-111962278D01*
X111672969Y-112110704D01*
X111672967Y-112110707D01*
X111588360Y-112281303D01*
X111588359Y-112281306D01*
X111588359Y-112281307D01*
X111563459Y-112381427D01*
X111528179Y-112441733D01*
X111465893Y-112473392D01*
X111443126Y-112475500D01*
X111276360Y-112475500D01*
X111212211Y-112457617D01*
X111094606Y-112386522D01*
X110932196Y-112335914D01*
X110932194Y-112335913D01*
X110932192Y-112335913D01*
X110882778Y-112331423D01*
X110861616Y-112329500D01*
X110198384Y-112329500D01*
X110179145Y-112331248D01*
X110127807Y-112335913D01*
X109965393Y-112386522D01*
X109819811Y-112474530D01*
X109699531Y-112594810D01*
X109699528Y-112594814D01*
X109666743Y-112649047D01*
X109615215Y-112696234D01*
X109546356Y-112708072D01*
X109495531Y-112690435D01*
X109439128Y-112655645D01*
X109439119Y-112655641D01*
X109272697Y-112600494D01*
X109272690Y-112600493D01*
X109169986Y-112590000D01*
X108370000Y-112590000D01*
X108370000Y-115389999D01*
X108734455Y-115389999D01*
X108801494Y-115409684D01*
X108847249Y-115462488D01*
X108858097Y-115523416D01*
X108850431Y-115624063D01*
X108850431Y-115624064D01*
X108874711Y-115814710D01*
X108874713Y-115814718D01*
X108936875Y-115996578D01*
X108936877Y-115996582D01*
X109034376Y-116162209D01*
X109163216Y-116304816D01*
X109163219Y-116304819D01*
X109201954Y-116333262D01*
X109244339Y-116388808D01*
X109249965Y-116458450D01*
X109217046Y-116520080D01*
X109163495Y-116552187D01*
X109125323Y-116563395D01*
X109119625Y-116564922D01*
X109047796Y-116582348D01*
X109047785Y-116582352D01*
X109032473Y-116589344D01*
X109015916Y-116595519D01*
X108999775Y-116600259D01*
X108999759Y-116600266D01*
X108934096Y-116634116D01*
X108928793Y-116636692D01*
X108861567Y-116667395D01*
X108861563Y-116667397D01*
X108847850Y-116677161D01*
X108832757Y-116686360D01*
X108817801Y-116694071D01*
X108817799Y-116694072D01*
X108759720Y-116739745D01*
X108754999Y-116743279D01*
X108694796Y-116786150D01*
X108694789Y-116786156D01*
X108683177Y-116798334D01*
X108670100Y-116810222D01*
X108656871Y-116820626D01*
X108656861Y-116820636D01*
X108608473Y-116876479D01*
X108604504Y-116880845D01*
X108553525Y-116934309D01*
X108553515Y-116934322D01*
X108544415Y-116948482D01*
X108533821Y-116962634D01*
X108522802Y-116975351D01*
X108485860Y-117039335D01*
X108482790Y-117044371D01*
X108442836Y-117106541D01*
X108436576Y-117122176D01*
X108428855Y-117138070D01*
X108420439Y-117152648D01*
X108420439Y-117152649D01*
X108396265Y-117222490D01*
X108394204Y-117228014D01*
X108366746Y-117296602D01*
X108363560Y-117313131D01*
X108358985Y-117330204D01*
X108353480Y-117346112D01*
X108342962Y-117419264D01*
X108341983Y-117425083D01*
X108328000Y-117497635D01*
X108328000Y-117514461D01*
X108326738Y-117532109D01*
X108324344Y-117548758D01*
X108324343Y-117548759D01*
X108327860Y-117622571D01*
X108328000Y-117628471D01*
X108328000Y-117962283D01*
X108308315Y-118029322D01*
X108255511Y-118075077D01*
X108186353Y-118085021D01*
X108144983Y-118071338D01*
X108094740Y-118044148D01*
X108094729Y-118044143D01*
X107863458Y-117964748D01*
X107682561Y-117934562D01*
X107622263Y-117924500D01*
X107377737Y-117924500D01*
X107329498Y-117932549D01*
X107136541Y-117964748D01*
X106905270Y-118044143D01*
X106905265Y-118044145D01*
X106690212Y-118160526D01*
X106690208Y-118160529D01*
X106497252Y-118310713D01*
X106497242Y-118310722D01*
X106331632Y-118490621D01*
X106197888Y-118695333D01*
X106099663Y-118919265D01*
X106039636Y-119156304D01*
X106039634Y-119156316D01*
X106026401Y-119316014D01*
X106001248Y-119381199D01*
X105990506Y-119393455D01*
X103712591Y-121671370D01*
X103696857Y-121684682D01*
X103694800Y-121686146D01*
X103694793Y-121686153D01*
X103633956Y-121749956D01*
X103631900Y-121752062D01*
X103605876Y-121778088D01*
X103600564Y-121784521D01*
X103594700Y-121791127D01*
X103553517Y-121834320D01*
X103553511Y-121834327D01*
X103536690Y-121860502D01*
X103527997Y-121872408D01*
X103508188Y-121896400D01*
X103508185Y-121896404D01*
X103479600Y-121948752D01*
X103475086Y-121956361D01*
X103442832Y-122006549D01*
X103431264Y-122035444D01*
X103424982Y-122048776D01*
X103410074Y-122076079D01*
X103410066Y-122076097D01*
X103391908Y-122132900D01*
X103388915Y-122141226D01*
X103366745Y-122196604D01*
X103360855Y-122227165D01*
X103357210Y-122241446D01*
X103347734Y-122271093D01*
X103347733Y-122271096D01*
X103340652Y-122330320D01*
X103339288Y-122339064D01*
X103328000Y-122397634D01*
X103328000Y-122428756D01*
X103327123Y-122443476D01*
X103323429Y-122474368D01*
X103323429Y-122474374D01*
X103327684Y-122533861D01*
X103328000Y-122542707D01*
X103328000Y-127172864D01*
X103308315Y-127239903D01*
X103286137Y-127264367D01*
X103286451Y-127264681D01*
X103157289Y-127393842D01*
X103065187Y-127543163D01*
X103065185Y-127543168D01*
X103049137Y-127591598D01*
X103010001Y-127709703D01*
X103010001Y-127709704D01*
X103010000Y-127709704D01*
X102999500Y-127812483D01*
X102999500Y-129912501D01*
X102999501Y-129912518D01*
X103010000Y-130015296D01*
X103010001Y-130015299D01*
X103048909Y-130132713D01*
X103065186Y-130181834D01*
X103157288Y-130331156D01*
X103281344Y-130455212D01*
X103430666Y-130547314D01*
X103597203Y-130602499D01*
X103699991Y-130613000D01*
X105032113Y-130612999D01*
X105099152Y-130632684D01*
X105119794Y-130649318D01*
X105417175Y-130946699D01*
X105450660Y-131008022D01*
X105445676Y-131077714D01*
X105403804Y-131133647D01*
X105338340Y-131158064D01*
X105290491Y-131152086D01*
X105202700Y-131122995D01*
X105202690Y-131122993D01*
X105099986Y-131112500D01*
X104650000Y-131112500D01*
X104650000Y-132612500D01*
X105799999Y-132612500D01*
X105799999Y-131812528D01*
X105799998Y-131812513D01*
X105789506Y-131709804D01*
X105741111Y-131563761D01*
X105738709Y-131493932D01*
X105774440Y-131433890D01*
X105836961Y-131402697D01*
X105906420Y-131410257D01*
X105911204Y-131412365D01*
X105967084Y-131438422D01*
X105970275Y-131439968D01*
X106037687Y-131473823D01*
X106037689Y-131473824D01*
X106037691Y-131473824D01*
X106044479Y-131476295D01*
X106044460Y-131476347D01*
X106051688Y-131478859D01*
X106051706Y-131478808D01*
X106058555Y-131481077D01*
X106058556Y-131481077D01*
X106058560Y-131481079D01*
X106132472Y-131496339D01*
X106135919Y-131497104D01*
X106209312Y-131514500D01*
X106209313Y-131514500D01*
X106209317Y-131514501D01*
X106216485Y-131515339D01*
X106216478Y-131515392D01*
X106224094Y-131516170D01*
X106224099Y-131516117D01*
X106231288Y-131516746D01*
X106231292Y-131516745D01*
X106231293Y-131516746D01*
X106306679Y-131514551D01*
X106310286Y-131514500D01*
X108058032Y-131514500D01*
X108125071Y-131534185D01*
X108154844Y-131562798D01*
X108155462Y-131562280D01*
X108158934Y-131566418D01*
X108158940Y-131566424D01*
X108158941Y-131566425D01*
X108313575Y-131721059D01*
X108492713Y-131846493D01*
X108690910Y-131938914D01*
X108902146Y-131995514D01*
X109076429Y-132010762D01*
X109119999Y-132014574D01*
X109120000Y-132014574D01*
X109120001Y-132014574D01*
X109156309Y-132011397D01*
X109337854Y-131995514D01*
X109549090Y-131938914D01*
X109747287Y-131846493D01*
X109926425Y-131721059D01*
X110081059Y-131566425D01*
X110206493Y-131387287D01*
X110257618Y-131277648D01*
X110303790Y-131225209D01*
X110370984Y-131206057D01*
X110437865Y-131226273D01*
X110482381Y-131277648D01*
X110533507Y-131387287D01*
X110658941Y-131566425D01*
X110813575Y-131721059D01*
X110992713Y-131846493D01*
X111190910Y-131938914D01*
X111402146Y-131995514D01*
X111576429Y-132010762D01*
X111619999Y-132014574D01*
X111620000Y-132014574D01*
X111620001Y-132014574D01*
X111656309Y-132011397D01*
X111837854Y-131995514D01*
X112049090Y-131938914D01*
X112247287Y-131846493D01*
X112426425Y-131721059D01*
X112581059Y-131566425D01*
X112706493Y-131387287D01*
X112757618Y-131277648D01*
X112803790Y-131225209D01*
X112870984Y-131206057D01*
X112937865Y-131226273D01*
X112982381Y-131277648D01*
X113033507Y-131387287D01*
X113158941Y-131566425D01*
X113313575Y-131721059D01*
X113492713Y-131846493D01*
X113690910Y-131938914D01*
X113902146Y-131995514D01*
X114076429Y-132010762D01*
X114119999Y-132014574D01*
X114120000Y-132014574D01*
X114120001Y-132014574D01*
X114156309Y-132011397D01*
X114337854Y-131995514D01*
X114549090Y-131938914D01*
X114747287Y-131846493D01*
X114926425Y-131721059D01*
X115081059Y-131566425D01*
X115206493Y-131387287D01*
X115257618Y-131277648D01*
X115303790Y-131225209D01*
X115370984Y-131206057D01*
X115437865Y-131226273D01*
X115482381Y-131277648D01*
X115533507Y-131387287D01*
X115658941Y-131566425D01*
X115813575Y-131721059D01*
X115992713Y-131846493D01*
X116190910Y-131938914D01*
X116402146Y-131995514D01*
X116576429Y-132010762D01*
X116619999Y-132014574D01*
X116620000Y-132014574D01*
X116620001Y-132014574D01*
X116656309Y-132011397D01*
X116837854Y-131995514D01*
X117049090Y-131938914D01*
X117247287Y-131846493D01*
X117426425Y-131721059D01*
X117581059Y-131566425D01*
X117706493Y-131387287D01*
X117798914Y-131189090D01*
X117855514Y-130977854D01*
X117874574Y-130760000D01*
X117855514Y-130542146D01*
X117798914Y-130330910D01*
X117706493Y-130132713D01*
X117581059Y-129953575D01*
X117426425Y-129798941D01*
X117265013Y-129685919D01*
X117247286Y-129673506D01*
X117117772Y-129613113D01*
X117049090Y-129581086D01*
X117049086Y-129581085D01*
X117049082Y-129581083D01*
X116837859Y-129524487D01*
X116837849Y-129524485D01*
X116620001Y-129505426D01*
X116619999Y-129505426D01*
X116402150Y-129524485D01*
X116402140Y-129524487D01*
X116190917Y-129581083D01*
X116190908Y-129581087D01*
X115992713Y-129673506D01*
X115901353Y-129737478D01*
X115813575Y-129798941D01*
X115813573Y-129798942D01*
X115813570Y-129798945D01*
X115658945Y-129953570D01*
X115658942Y-129953573D01*
X115658941Y-129953575D01*
X115648014Y-129969181D01*
X115533506Y-130132713D01*
X115482382Y-130242351D01*
X115436210Y-130294790D01*
X115369016Y-130313942D01*
X115302135Y-130293726D01*
X115257618Y-130242351D01*
X115229398Y-130181834D01*
X115206493Y-130132713D01*
X115081059Y-129953575D01*
X114926425Y-129798941D01*
X114765013Y-129685919D01*
X114747286Y-129673506D01*
X114617772Y-129613113D01*
X114549090Y-129581086D01*
X114549086Y-129581085D01*
X114549082Y-129581083D01*
X114337859Y-129524487D01*
X114337849Y-129524485D01*
X114120001Y-129505426D01*
X114119999Y-129505426D01*
X113902150Y-129524485D01*
X113902140Y-129524487D01*
X113690917Y-129581083D01*
X113690908Y-129581087D01*
X113492713Y-129673506D01*
X113401353Y-129737478D01*
X113313575Y-129798941D01*
X113313573Y-129798942D01*
X113313570Y-129798945D01*
X113158945Y-129953570D01*
X113158942Y-129953573D01*
X113158941Y-129953575D01*
X113148014Y-129969181D01*
X113033506Y-130132713D01*
X112982382Y-130242351D01*
X112936210Y-130294790D01*
X112869016Y-130313942D01*
X112802135Y-130293726D01*
X112757618Y-130242351D01*
X112729398Y-130181834D01*
X112706493Y-130132713D01*
X112581059Y-129953575D01*
X112426425Y-129798941D01*
X112265013Y-129685919D01*
X112247286Y-129673506D01*
X112117772Y-129613113D01*
X112049090Y-129581086D01*
X112049086Y-129581085D01*
X112049082Y-129581083D01*
X111837859Y-129524487D01*
X111837849Y-129524485D01*
X111620001Y-129505426D01*
X111619999Y-129505426D01*
X111402150Y-129524485D01*
X111402140Y-129524487D01*
X111190917Y-129581083D01*
X111190908Y-129581087D01*
X110992713Y-129673506D01*
X110901353Y-129737478D01*
X110813575Y-129798941D01*
X110813573Y-129798942D01*
X110813570Y-129798945D01*
X110658945Y-129953570D01*
X110658942Y-129953573D01*
X110658941Y-129953575D01*
X110648014Y-129969181D01*
X110533506Y-130132713D01*
X110482382Y-130242351D01*
X110436210Y-130294790D01*
X110369016Y-130313942D01*
X110302135Y-130293726D01*
X110257618Y-130242351D01*
X110229398Y-130181834D01*
X110206493Y-130132713D01*
X110081059Y-129953575D01*
X109926425Y-129798941D01*
X109765013Y-129685919D01*
X109747286Y-129673506D01*
X109617772Y-129613113D01*
X109549090Y-129581086D01*
X109549086Y-129581085D01*
X109549082Y-129581083D01*
X109337859Y-129524487D01*
X109337849Y-129524485D01*
X109120001Y-129505426D01*
X109119999Y-129505426D01*
X108902150Y-129524485D01*
X108902140Y-129524487D01*
X108690917Y-129581083D01*
X108690908Y-129581087D01*
X108492713Y-129673506D01*
X108313574Y-129798942D01*
X108158934Y-129953581D01*
X108155462Y-129957720D01*
X108154374Y-129956807D01*
X108105026Y-129996250D01*
X108058032Y-130005500D01*
X106661386Y-130005500D01*
X106594347Y-129985815D01*
X106573705Y-129969181D01*
X105836818Y-129232294D01*
X105803333Y-129170971D01*
X105802153Y-129160000D01*
X117664750Y-129160000D01*
X117673599Y-129227217D01*
X117683670Y-129303708D01*
X117683671Y-129303712D01*
X117739137Y-129437622D01*
X117739138Y-129437624D01*
X117739139Y-129437625D01*
X117827379Y-129552621D01*
X117860741Y-129578221D01*
X117942371Y-129640859D01*
X117942373Y-129640860D01*
X117942375Y-129640861D01*
X117960116Y-129648209D01*
X117963857Y-129649950D01*
X117964095Y-129650035D01*
X117970053Y-129652325D01*
X118076291Y-129696330D01*
X118095425Y-129698849D01*
X118104458Y-129700380D01*
X118107563Y-129701024D01*
X118107573Y-129701028D01*
X118111436Y-129701292D01*
X118112863Y-129701390D01*
X118120565Y-129702158D01*
X118220000Y-129715250D01*
X118240374Y-129712567D01*
X118249274Y-129712291D01*
X118249246Y-129711876D01*
X118257708Y-129711297D01*
X118257708Y-129711296D01*
X118257710Y-129711297D01*
X118266520Y-129709466D01*
X118275530Y-129707939D01*
X118363709Y-129696330D01*
X118387129Y-129686629D01*
X118397071Y-129683568D01*
X118397055Y-129683521D01*
X118405042Y-129680681D01*
X118405050Y-129680680D01*
X118414544Y-129675760D01*
X118424109Y-129671311D01*
X118497625Y-129640861D01*
X118521639Y-129622433D01*
X118536301Y-129613113D01*
X118538657Y-129611449D01*
X118538665Y-129611446D01*
X118546755Y-129603890D01*
X118555874Y-129596164D01*
X118612621Y-129552621D01*
X118634122Y-129524599D01*
X118647864Y-129509460D01*
X118648647Y-129508730D01*
X118654131Y-129499711D01*
X118661682Y-129488682D01*
X118700861Y-129437625D01*
X118716377Y-129400163D01*
X118724989Y-129383189D01*
X118726838Y-129380151D01*
X118729378Y-129371084D01*
X118734210Y-129357111D01*
X118756330Y-129303709D01*
X118762334Y-129258097D01*
X118765869Y-129240846D01*
X118767439Y-129235244D01*
X118767965Y-129219762D01*
X118768950Y-129207845D01*
X118775250Y-129160000D01*
X118768951Y-129112159D01*
X118767965Y-129100215D01*
X118767439Y-129084756D01*
X118765866Y-129079143D01*
X118762334Y-129061896D01*
X118756330Y-129016291D01*
X118734214Y-128962898D01*
X118729375Y-128948903D01*
X118726839Y-128939852D01*
X118726838Y-128939851D01*
X118726838Y-128939849D01*
X118724988Y-128936806D01*
X118716378Y-128919835D01*
X118700863Y-128882379D01*
X118700863Y-128882378D01*
X118686945Y-128864240D01*
X118661691Y-128831329D01*
X118654126Y-128820280D01*
X118648646Y-128811269D01*
X118647860Y-128810535D01*
X118634125Y-128795404D01*
X118612621Y-128767379D01*
X118555886Y-128723844D01*
X118546743Y-128716098D01*
X118544546Y-128714046D01*
X118538665Y-128708554D01*
X118538662Y-128708552D01*
X118536309Y-128706891D01*
X118521631Y-128697559D01*
X118497625Y-128679139D01*
X118497622Y-128679137D01*
X118424116Y-128648690D01*
X118414527Y-128644230D01*
X118405047Y-128639318D01*
X118397060Y-128636480D01*
X118397076Y-128636434D01*
X118387127Y-128633369D01*
X118363710Y-128623670D01*
X118275541Y-128612061D01*
X118266507Y-128610530D01*
X118257714Y-128608703D01*
X118249261Y-128608125D01*
X118249289Y-128607713D01*
X118240385Y-128607433D01*
X118222923Y-128605134D01*
X118220000Y-128604750D01*
X118219999Y-128604750D01*
X118219998Y-128604750D01*
X118120588Y-128617837D01*
X118112879Y-128618608D01*
X118107575Y-128618971D01*
X118104437Y-128619623D01*
X118095420Y-128621150D01*
X118076298Y-128623668D01*
X118076288Y-128623670D01*
X117970005Y-128667692D01*
X117964135Y-128669951D01*
X117963884Y-128670040D01*
X117960164Y-128671769D01*
X117942378Y-128679137D01*
X117942375Y-128679138D01*
X117942375Y-128679139D01*
X117884111Y-128723847D01*
X117827379Y-128767379D01*
X117739137Y-128882377D01*
X117683671Y-129016287D01*
X117683671Y-129016288D01*
X117683670Y-129016291D01*
X117664750Y-129160000D01*
X105802153Y-129160000D01*
X105800499Y-129144613D01*
X105800499Y-127812498D01*
X105800498Y-127812481D01*
X105789999Y-127709703D01*
X105789998Y-127709700D01*
X105734814Y-127543166D01*
X105642712Y-127393844D01*
X105518656Y-127269788D01*
X105513549Y-127264681D01*
X105514532Y-127263697D01*
X105478710Y-127213101D01*
X105472000Y-127172864D01*
X105472000Y-125502844D01*
X106025000Y-125502844D01*
X106031401Y-125562372D01*
X106031403Y-125562379D01*
X106081645Y-125697086D01*
X106081649Y-125697093D01*
X106167809Y-125812187D01*
X106167812Y-125812190D01*
X106282906Y-125898350D01*
X106282913Y-125898354D01*
X106417620Y-125948596D01*
X106417627Y-125948598D01*
X106477155Y-125954999D01*
X106477172Y-125955000D01*
X107250000Y-125955000D01*
X107250000Y-125084310D01*
X107258817Y-125089158D01*
X107417886Y-125130000D01*
X107540894Y-125130000D01*
X107662933Y-125114583D01*
X107750000Y-125080110D01*
X107750000Y-125955000D01*
X108522828Y-125955000D01*
X108522844Y-125954999D01*
X108582372Y-125948598D01*
X108582379Y-125948596D01*
X108717086Y-125898354D01*
X108717093Y-125898350D01*
X108832187Y-125812190D01*
X108832190Y-125812187D01*
X108918350Y-125697093D01*
X108918354Y-125697086D01*
X108968596Y-125562379D01*
X108968598Y-125562372D01*
X108974999Y-125502844D01*
X108975000Y-125502827D01*
X108975000Y-124730000D01*
X108100728Y-124730000D01*
X108123100Y-124682457D01*
X108153873Y-124521138D01*
X108143561Y-124357234D01*
X108102220Y-124230000D01*
X108975000Y-124230000D01*
X108975000Y-123457172D01*
X108974999Y-123457155D01*
X108968598Y-123397627D01*
X108968596Y-123397620D01*
X108918354Y-123262913D01*
X108918350Y-123262906D01*
X108832190Y-123147812D01*
X108832187Y-123147809D01*
X108717093Y-123061649D01*
X108717086Y-123061645D01*
X108582379Y-123011403D01*
X108582372Y-123011401D01*
X108522844Y-123005000D01*
X107750000Y-123005000D01*
X107750000Y-123875689D01*
X107741183Y-123870842D01*
X107582114Y-123830000D01*
X107459106Y-123830000D01*
X107337067Y-123845417D01*
X107250000Y-123879889D01*
X107250000Y-123005000D01*
X106477155Y-123005000D01*
X106417627Y-123011401D01*
X106417620Y-123011403D01*
X106282913Y-123061645D01*
X106282906Y-123061649D01*
X106167812Y-123147809D01*
X106167809Y-123147812D01*
X106081649Y-123262906D01*
X106081645Y-123262913D01*
X106031403Y-123397620D01*
X106031401Y-123397627D01*
X106025000Y-123457155D01*
X106025000Y-124230000D01*
X106899272Y-124230000D01*
X106876900Y-124277543D01*
X106846127Y-124438862D01*
X106856439Y-124602766D01*
X106897780Y-124730000D01*
X106025000Y-124730000D01*
X106025000Y-125502844D01*
X105472000Y-125502844D01*
X105472000Y-122995399D01*
X105491685Y-122928360D01*
X105508319Y-122907718D01*
X107504218Y-120911819D01*
X107565541Y-120878334D01*
X107591899Y-120875500D01*
X107622262Y-120875500D01*
X107622263Y-120875500D01*
X107863455Y-120835252D01*
X107866150Y-120834327D01*
X107951058Y-120805178D01*
X108094733Y-120755855D01*
X108309788Y-120639473D01*
X108502754Y-120489281D01*
X108668368Y-120309377D01*
X108802111Y-120104667D01*
X108900336Y-119880736D01*
X108914312Y-119825544D01*
X108949851Y-119765389D01*
X109012271Y-119733996D01*
X109081754Y-119741334D01*
X109099053Y-119750101D01*
X109117050Y-119761070D01*
X109129463Y-119768637D01*
X109129470Y-119768640D01*
X109145228Y-119774517D01*
X109161321Y-119781866D01*
X109176088Y-119789929D01*
X109246494Y-119812435D01*
X109252042Y-119814356D01*
X109321280Y-119840181D01*
X109321282Y-119840181D01*
X109321284Y-119840182D01*
X109337875Y-119842971D01*
X109355067Y-119847142D01*
X109371093Y-119852266D01*
X109425735Y-119858799D01*
X109444459Y-119861038D01*
X109450295Y-119861876D01*
X109523176Y-119874133D01*
X109539994Y-119873732D01*
X109557663Y-119874573D01*
X109574373Y-119876572D01*
X109648106Y-119871297D01*
X109653939Y-119871019D01*
X109727846Y-119869261D01*
X109744297Y-119865681D01*
X109761791Y-119863166D01*
X109778579Y-119861966D01*
X109849972Y-119842836D01*
X109855649Y-119841458D01*
X109927895Y-119825743D01*
X109943367Y-119819117D01*
X109960084Y-119813332D01*
X109963469Y-119812425D01*
X109976330Y-119808979D01*
X110042797Y-119776690D01*
X110048164Y-119774240D01*
X110092669Y-119755181D01*
X110116092Y-119745151D01*
X110130009Y-119735730D01*
X110145334Y-119726881D01*
X110160480Y-119719525D01*
X110219665Y-119675218D01*
X110224422Y-119671831D01*
X110285636Y-119630401D01*
X110297539Y-119618497D01*
X110310901Y-119606919D01*
X110324372Y-119596836D01*
X110374104Y-119542127D01*
X110378137Y-119537898D01*
X110536943Y-119379092D01*
X110598264Y-119345609D01*
X110667956Y-119350593D01*
X110723889Y-119392465D01*
X110739734Y-119420675D01*
X110741038Y-119423931D01*
X110741042Y-119423938D01*
X110741043Y-119423942D01*
X110840412Y-119616690D01*
X110965220Y-119775397D01*
X110974464Y-119787151D01*
X111007328Y-119815628D01*
X111138349Y-119929158D01*
X111138352Y-119929160D01*
X111138355Y-119929162D01*
X111192905Y-119960656D01*
X111326151Y-120037585D01*
X111531078Y-120108511D01*
X111745725Y-120139373D01*
X111962334Y-120129055D01*
X112173075Y-120077929D01*
X112370332Y-119987845D01*
X112546977Y-119862057D01*
X112642061Y-119762334D01*
X112702568Y-119727401D01*
X112772358Y-119730725D01*
X112820091Y-119764714D01*
X112821711Y-119763095D01*
X112938883Y-119880267D01*
X112938891Y-119880273D01*
X113074808Y-119960654D01*
X113074814Y-119960656D01*
X113199999Y-119997025D01*
X113200000Y-119997025D01*
X113200000Y-119131500D01*
X113219685Y-119064461D01*
X113272489Y-119018706D01*
X113324000Y-119007500D01*
X113576000Y-119007500D01*
X113643039Y-119027185D01*
X113688794Y-119079989D01*
X113700000Y-119131500D01*
X113700000Y-119997025D01*
X113825185Y-119960656D01*
X113825191Y-119960654D01*
X113961108Y-119880273D01*
X113961116Y-119880267D01*
X113968319Y-119873065D01*
X114029642Y-119839580D01*
X114099334Y-119844564D01*
X114155267Y-119886436D01*
X114179684Y-119951900D01*
X114180000Y-119960746D01*
X114180000Y-120353149D01*
X114182899Y-120389989D01*
X114182900Y-120389995D01*
X114228716Y-120547693D01*
X114228717Y-120547696D01*
X114312314Y-120689052D01*
X114312321Y-120689061D01*
X114428438Y-120805178D01*
X114428447Y-120805185D01*
X114569801Y-120888781D01*
X114727514Y-120934600D01*
X114727511Y-120934600D01*
X114729998Y-120934795D01*
X114730000Y-120934795D01*
X114730000Y-119574000D01*
X114749685Y-119506961D01*
X114802489Y-119461206D01*
X114854000Y-119450000D01*
X115780000Y-119450000D01*
X115780000Y-119046865D01*
X115779999Y-119046850D01*
X115777100Y-119010010D01*
X115777099Y-119010004D01*
X115731283Y-118852306D01*
X115731282Y-118852303D01*
X115647685Y-118710947D01*
X115647678Y-118710938D01*
X115531561Y-118594821D01*
X115531552Y-118594814D01*
X115390196Y-118511217D01*
X115390193Y-118511216D01*
X115232495Y-118465400D01*
X115232489Y-118465399D01*
X115195649Y-118462500D01*
X115125049Y-118462500D01*
X115058010Y-118442815D01*
X115012255Y-118390011D01*
X115002311Y-118320853D01*
X115031336Y-118257297D01*
X115056908Y-118234901D01*
X115090468Y-118212827D01*
X115113967Y-118197370D01*
X115116942Y-118195476D01*
X115181154Y-118155870D01*
X115181162Y-118155861D01*
X115186823Y-118151387D01*
X115186857Y-118151430D01*
X115192782Y-118146604D01*
X115192747Y-118146562D01*
X115198276Y-118141920D01*
X115198285Y-118141915D01*
X115250071Y-118087023D01*
X115252516Y-118084506D01*
X115773954Y-117563068D01*
X115835275Y-117529585D01*
X115835493Y-117529537D01*
X115893803Y-117517144D01*
X115893807Y-117517142D01*
X115893808Y-117517142D01*
X116009432Y-117465662D01*
X116066730Y-117440151D01*
X116219871Y-117328888D01*
X116346533Y-117188216D01*
X116441179Y-117024284D01*
X116499674Y-116844256D01*
X116519460Y-116656000D01*
X116499674Y-116467744D01*
X116441179Y-116287716D01*
X116346533Y-116123784D01*
X116219871Y-115983112D01*
X116184871Y-115957683D01*
X116066734Y-115871851D01*
X116066729Y-115871848D01*
X115893807Y-115794857D01*
X115893802Y-115794855D01*
X115728702Y-115759763D01*
X115708646Y-115755500D01*
X115519354Y-115755500D01*
X115436801Y-115773046D01*
X115367136Y-115767730D01*
X115311403Y-115725592D01*
X115287298Y-115660012D01*
X115302475Y-115591811D01*
X115323338Y-115564079D01*
X118423600Y-112463819D01*
X118484923Y-112430334D01*
X118511281Y-112427500D01*
X118601750Y-112427500D01*
X118668789Y-112447185D01*
X118700704Y-112476773D01*
X118712175Y-112491963D01*
X118764680Y-112561491D01*
X118764683Y-112561494D01*
X118855479Y-112644266D01*
X118891761Y-112703977D01*
X118890000Y-112773825D01*
X118850757Y-112831632D01*
X118786490Y-112859047D01*
X118782921Y-112859416D01*
X118781964Y-112859500D01*
X118781964Y-112859501D01*
X118772638Y-112860330D01*
X118662584Y-112870113D01*
X118466954Y-112926089D01*
X118402137Y-112959947D01*
X118286593Y-113020302D01*
X118286591Y-113020303D01*
X118286590Y-113020304D01*
X118128890Y-113148890D01*
X118013847Y-113289981D01*
X118000302Y-113306593D01*
X117961399Y-113381069D01*
X117906089Y-113486954D01*
X117850114Y-113682583D01*
X117850113Y-113682586D01*
X117845009Y-113740000D01*
X117840212Y-113793961D01*
X117839500Y-113801966D01*
X117839500Y-116718028D01*
X117839501Y-116718034D01*
X117850113Y-116837415D01*
X117892818Y-116986664D01*
X117906091Y-117033049D01*
X117931212Y-117081141D01*
X117995736Y-117204666D01*
X118009327Y-117273201D01*
X117983708Y-117338204D01*
X117977978Y-117345049D01*
X117953633Y-117372087D01*
X117901178Y-117430344D01*
X117841693Y-117466991D01*
X117771836Y-117465662D01*
X117758593Y-117460650D01*
X117619807Y-117398857D01*
X117619802Y-117398855D01*
X117474001Y-117367865D01*
X117434646Y-117359500D01*
X117245354Y-117359500D01*
X117212897Y-117366398D01*
X117060197Y-117398855D01*
X117060192Y-117398857D01*
X116887270Y-117475848D01*
X116887265Y-117475851D01*
X116734129Y-117587111D01*
X116607466Y-117727785D01*
X116512821Y-117891715D01*
X116512818Y-117891722D01*
X116458142Y-118060000D01*
X116454326Y-118071744D01*
X116434540Y-118260000D01*
X116453083Y-118436435D01*
X116440514Y-118505162D01*
X116392884Y-118556126D01*
X116328138Y-118594416D01*
X116328129Y-118594423D01*
X116211923Y-118710629D01*
X116211917Y-118710637D01*
X116128255Y-118852103D01*
X116128254Y-118852106D01*
X116082402Y-119009926D01*
X116082401Y-119009932D01*
X116079500Y-119046798D01*
X116079500Y-120213000D01*
X116059815Y-120280039D01*
X116007011Y-120325794D01*
X115955500Y-120337000D01*
X115904000Y-120337000D01*
X115836961Y-120317315D01*
X115791206Y-120264511D01*
X115780000Y-120213000D01*
X115780000Y-119950000D01*
X115230000Y-119950000D01*
X115230000Y-120605684D01*
X115212733Y-120668804D01*
X115178254Y-120727105D01*
X115178254Y-120727106D01*
X115132402Y-120884926D01*
X115132401Y-120884932D01*
X115129500Y-120921798D01*
X115129500Y-121221500D01*
X115109815Y-121288539D01*
X115057011Y-121334294D01*
X115005500Y-121345500D01*
X114456386Y-121345500D01*
X114389347Y-121325815D01*
X114368705Y-121309181D01*
X114179486Y-121119962D01*
X114158114Y-121088514D01*
X114157589Y-121088825D01*
X114073172Y-120946083D01*
X114073165Y-120946074D01*
X113961425Y-120834334D01*
X113961416Y-120834327D01*
X113825390Y-120753882D01*
X113825385Y-120753880D01*
X113673633Y-120709792D01*
X113673620Y-120709790D01*
X113638170Y-120707000D01*
X113638163Y-120707000D01*
X113559124Y-120707000D01*
X113534048Y-120704438D01*
X113516207Y-120700754D01*
X113516206Y-120700754D01*
X113507061Y-120701020D01*
X113337686Y-120705948D01*
X113323252Y-120707000D01*
X113261849Y-120707000D01*
X113261823Y-120707001D01*
X113226372Y-120709791D01*
X113074614Y-120753880D01*
X113074609Y-120753882D01*
X112938583Y-120834327D01*
X112938574Y-120834334D01*
X112826834Y-120946074D01*
X112826827Y-120946083D01*
X112746382Y-121082109D01*
X112746380Y-121082114D01*
X112702292Y-121233866D01*
X112702290Y-121233879D01*
X112699500Y-121269329D01*
X112699500Y-121366191D01*
X112698191Y-121384161D01*
X112690684Y-121435409D01*
X112699028Y-121530775D01*
X112699500Y-121541581D01*
X112699500Y-121645650D01*
X112699501Y-121645676D01*
X112702291Y-121681127D01*
X112746380Y-121832885D01*
X112746382Y-121832890D01*
X112826827Y-121968916D01*
X112826834Y-121968925D01*
X112938574Y-122080665D01*
X112938583Y-122080672D01*
X113013986Y-122125265D01*
X113061669Y-122176334D01*
X113074173Y-122245076D01*
X113047528Y-122309665D01*
X113013987Y-122338729D01*
X112948889Y-122377228D01*
X112948883Y-122377232D01*
X112837232Y-122488883D01*
X112837226Y-122488891D01*
X112756845Y-122624808D01*
X112756843Y-122624814D01*
X112720474Y-122749999D01*
X112720474Y-122750000D01*
X113586000Y-122750000D01*
X113653039Y-122769685D01*
X113698794Y-122822489D01*
X113710000Y-122874000D01*
X113710000Y-123126000D01*
X113690315Y-123193039D01*
X113637511Y-123238794D01*
X113586000Y-123250000D01*
X112720475Y-123250000D01*
X112711227Y-123262315D01*
X112711153Y-123288472D01*
X112673210Y-123347142D01*
X112609572Y-123375985D01*
X112541841Y-123366477D01*
X112479802Y-123338855D01*
X112334001Y-123307865D01*
X112294646Y-123299500D01*
X112105354Y-123299500D01*
X112072897Y-123306398D01*
X111920197Y-123338855D01*
X111920192Y-123338857D01*
X111747270Y-123415848D01*
X111747265Y-123415851D01*
X111594129Y-123527111D01*
X111467466Y-123667785D01*
X111372821Y-123831715D01*
X111372818Y-123831722D01*
X111317273Y-124002673D01*
X111314326Y-124011744D01*
X111294540Y-124200000D01*
X111314326Y-124388256D01*
X111314327Y-124388259D01*
X111372818Y-124568277D01*
X111372821Y-124568284D01*
X111467464Y-124732212D01*
X111467465Y-124732214D01*
X111467467Y-124732216D01*
X111500296Y-124768676D01*
X111543832Y-124817028D01*
X111574061Y-124880020D01*
X111565435Y-124949355D01*
X111543832Y-124982972D01*
X111467464Y-125067787D01*
X111372821Y-125231715D01*
X111372818Y-125231722D01*
X111314327Y-125411740D01*
X111314326Y-125411744D01*
X111294540Y-125600000D01*
X111314326Y-125788256D01*
X111314327Y-125788259D01*
X111372818Y-125968277D01*
X111372821Y-125968284D01*
X111467467Y-126132216D01*
X111561106Y-126236212D01*
X111594129Y-126272888D01*
X111747265Y-126384148D01*
X111747270Y-126384151D01*
X111920191Y-126461142D01*
X111920193Y-126461142D01*
X111920197Y-126461144D01*
X111978148Y-126473461D01*
X112039627Y-126506653D01*
X112040046Y-126507070D01*
X112451234Y-126918258D01*
X112463015Y-126931890D01*
X112477461Y-126951294D01*
X112515638Y-126983328D01*
X112523614Y-126990638D01*
X112527561Y-126994585D01*
X112546258Y-127009369D01*
X112575465Y-127042485D01*
X112634528Y-127140185D01*
X112634531Y-127140189D01*
X112754811Y-127260469D01*
X112754813Y-127260470D01*
X112754815Y-127260472D01*
X112900394Y-127348478D01*
X113062804Y-127399086D01*
X113133384Y-127405500D01*
X113133387Y-127405500D01*
X113646613Y-127405500D01*
X113646616Y-127405500D01*
X113717196Y-127399086D01*
X113879606Y-127348478D01*
X114025185Y-127260472D01*
X114075586Y-127210071D01*
X114127319Y-127158339D01*
X114188642Y-127124854D01*
X114258334Y-127129838D01*
X114302681Y-127158339D01*
X114404811Y-127260469D01*
X114404813Y-127260470D01*
X114404815Y-127260472D01*
X114550394Y-127348478D01*
X114712804Y-127399086D01*
X114783384Y-127405500D01*
X114783387Y-127405500D01*
X115296613Y-127405500D01*
X115296616Y-127405500D01*
X115367196Y-127399086D01*
X115529606Y-127348478D01*
X115675185Y-127260472D01*
X115795472Y-127140185D01*
X115795473Y-127140182D01*
X115800775Y-127134881D01*
X115802627Y-127136733D01*
X115849339Y-127103334D01*
X115919122Y-127099874D01*
X115977804Y-127132754D01*
X116055122Y-127210072D01*
X116200604Y-127298019D01*
X116200603Y-127298019D01*
X116362894Y-127348590D01*
X116362893Y-127348590D01*
X116433408Y-127354998D01*
X116433426Y-127354999D01*
X116439999Y-127354998D01*
X116440000Y-127354998D01*
X116440000Y-126488281D01*
X116456612Y-126426282D01*
X116539365Y-126282951D01*
X116561222Y-126215681D01*
X116600659Y-126158007D01*
X116665018Y-126130808D01*
X116679153Y-126130000D01*
X116816000Y-126130000D01*
X116883039Y-126149685D01*
X116928794Y-126202489D01*
X116940000Y-126254000D01*
X116940000Y-127354999D01*
X116946581Y-127354999D01*
X117017102Y-127348591D01*
X117017107Y-127348590D01*
X117179396Y-127298018D01*
X117324877Y-127210072D01*
X117324878Y-127210071D01*
X117426963Y-127107985D01*
X117488286Y-127074499D01*
X117557977Y-127079483D01*
X117602326Y-127107984D01*
X117704811Y-127210469D01*
X117704813Y-127210470D01*
X117704815Y-127210472D01*
X117850394Y-127298478D01*
X118012804Y-127349086D01*
X118083384Y-127355500D01*
X118083387Y-127355500D01*
X118596613Y-127355500D01*
X118596616Y-127355500D01*
X118667196Y-127349086D01*
X118829606Y-127298478D01*
X118975185Y-127210472D01*
X119095472Y-127090185D01*
X119183478Y-126944606D01*
X119234086Y-126782196D01*
X119240500Y-126711616D01*
X119240500Y-126048384D01*
X119234086Y-125977804D01*
X119196379Y-125856798D01*
X119195230Y-125786942D01*
X119227083Y-125732233D01*
X120118264Y-124841052D01*
X120131883Y-124829282D01*
X120151294Y-124814833D01*
X120183334Y-124776648D01*
X120190623Y-124768693D01*
X120194583Y-124764735D01*
X120213961Y-124740224D01*
X120216157Y-124737530D01*
X120264667Y-124679721D01*
X120264670Y-124679714D01*
X120268637Y-124673685D01*
X120268683Y-124673715D01*
X120272795Y-124667260D01*
X120272747Y-124667231D01*
X120276532Y-124661093D01*
X120276538Y-124661086D01*
X120308414Y-124592726D01*
X120309956Y-124589540D01*
X120343824Y-124522105D01*
X120343826Y-124522094D01*
X120346294Y-124515317D01*
X120346346Y-124515336D01*
X120348859Y-124508109D01*
X120348806Y-124508092D01*
X120351076Y-124501238D01*
X120351079Y-124501234D01*
X120366332Y-124427360D01*
X120367096Y-124423907D01*
X120384500Y-124350482D01*
X120384500Y-124350480D01*
X120384501Y-124350476D01*
X120385339Y-124343309D01*
X120385391Y-124343315D01*
X120386169Y-124335700D01*
X120386116Y-124335696D01*
X120386745Y-124328505D01*
X120384552Y-124253133D01*
X120384500Y-124249527D01*
X120384500Y-121304034D01*
X120404185Y-121236995D01*
X120420819Y-121216353D01*
X120462744Y-121174428D01*
X120514281Y-121122891D01*
X120514284Y-121122885D01*
X120518762Y-121117224D01*
X120521052Y-121119034D01*
X120563085Y-121081179D01*
X120632040Y-121069913D01*
X120696140Y-121097714D01*
X120735034Y-121155758D01*
X120738365Y-121168773D01*
X120768332Y-121319419D01*
X120768335Y-121319429D01*
X120824906Y-121455998D01*
X120824908Y-121456002D01*
X120824910Y-121456006D01*
X120824913Y-121456010D01*
X120824915Y-121456014D01*
X120878476Y-121536171D01*
X120907045Y-121578926D01*
X121011581Y-121683462D01*
X121134503Y-121765594D01*
X121134509Y-121765596D01*
X121134510Y-121765597D01*
X121200566Y-121792958D01*
X121271086Y-121822168D01*
X121271090Y-121822168D01*
X121271091Y-121822169D01*
X121416079Y-121851010D01*
X121416082Y-121851010D01*
X121489901Y-121851010D01*
X124140472Y-121851010D01*
X124207511Y-121870695D01*
X124253266Y-121923499D01*
X124263210Y-121992657D01*
X124243163Y-122044512D01*
X124238661Y-122051163D01*
X124238655Y-122051173D01*
X124158030Y-122239449D01*
X124158028Y-122239456D01*
X124114491Y-122439589D01*
X124111750Y-122485621D01*
X124111750Y-123794378D01*
X124114491Y-123840410D01*
X124158028Y-124040543D01*
X124158031Y-124040551D01*
X124233675Y-124217197D01*
X124241970Y-124286573D01*
X124211441Y-124349420D01*
X124151780Y-124385785D01*
X124119687Y-124390010D01*
X121541372Y-124390010D01*
X121541338Y-124390000D01*
X121490000Y-124390000D01*
X121416082Y-124390000D01*
X121416080Y-124390000D01*
X121271091Y-124418840D01*
X121271085Y-124418842D01*
X121134506Y-124475414D01*
X121011582Y-124557551D01*
X120907040Y-124662094D01*
X120824918Y-124785002D01*
X120824911Y-124785014D01*
X120768341Y-124921588D01*
X120768340Y-124921592D01*
X120768339Y-124921595D01*
X120739499Y-125066592D01*
X120739499Y-125066593D01*
X120739500Y-125140510D01*
X120739500Y-133634413D01*
X120738902Y-133646572D01*
X120736107Y-133674939D01*
X120735925Y-133676665D01*
X120723862Y-133783717D01*
X120719302Y-133805830D01*
X120704160Y-133855743D01*
X120702541Y-133860701D01*
X120676294Y-133935707D01*
X120668611Y-133953204D01*
X120641609Y-134003721D01*
X120637244Y-134011241D01*
X120597592Y-134074345D01*
X120588452Y-134087038D01*
X120551122Y-134132524D01*
X120542950Y-134141539D01*
X120491033Y-134193456D01*
X120482016Y-134201629D01*
X120436531Y-134238957D01*
X120423837Y-134248098D01*
X120360718Y-134287757D01*
X120353203Y-134292120D01*
X120302706Y-134319112D01*
X120285205Y-134326796D01*
X120210178Y-134353049D01*
X120205216Y-134354669D01*
X120155308Y-134369807D01*
X120133207Y-134374364D01*
X120026729Y-134386368D01*
X120024998Y-134386551D01*
X119995964Y-134389412D01*
X119983804Y-134390010D01*
X105827998Y-134390010D01*
X105760959Y-134370325D01*
X105715204Y-134317521D01*
X105705260Y-134248363D01*
X105722459Y-134200914D01*
X105734354Y-134181628D01*
X105734358Y-134181619D01*
X105789505Y-134015197D01*
X105789506Y-134015190D01*
X105799999Y-133912486D01*
X105800000Y-133912473D01*
X105800000Y-133112500D01*
X103000001Y-133112500D01*
X103000001Y-133912486D01*
X103010494Y-134015197D01*
X103065641Y-134181619D01*
X103065644Y-134181626D01*
X103075982Y-134198385D01*
X103094423Y-134265777D01*
X103073501Y-134332441D01*
X103019860Y-134377211D01*
X102958291Y-134386886D01*
X102955590Y-134386620D01*
X102953860Y-134386437D01*
X102846788Y-134374373D01*
X102824677Y-134369814D01*
X102774782Y-134354679D01*
X102769822Y-134353060D01*
X102694792Y-134326806D01*
X102677293Y-134319122D01*
X102626785Y-134292125D01*
X102619265Y-134287760D01*
X102556154Y-134248104D01*
X102543464Y-134238966D01*
X102497973Y-134201634D01*
X102488955Y-134193460D01*
X102437041Y-134141546D01*
X102428870Y-134132531D01*
X102391538Y-134087043D01*
X102382397Y-134074350D01*
X102342748Y-134011250D01*
X102338383Y-134003731D01*
X102311377Y-133953207D01*
X102303694Y-133935709D01*
X102277447Y-133860702D01*
X102275832Y-133855755D01*
X102260690Y-133805840D01*
X102256129Y-133783723D01*
X102243990Y-133675943D01*
X102243833Y-133674449D01*
X102241097Y-133646666D01*
X102240500Y-133634515D01*
X102240500Y-132612500D01*
X103000000Y-132612500D01*
X104150000Y-132612500D01*
X104150000Y-131112500D01*
X103700028Y-131112500D01*
X103700012Y-131112501D01*
X103597302Y-131122994D01*
X103430880Y-131178141D01*
X103430875Y-131178143D01*
X103281654Y-131270184D01*
X103157684Y-131394154D01*
X103065643Y-131543375D01*
X103065641Y-131543380D01*
X103010494Y-131709802D01*
X103010493Y-131709809D01*
X103000000Y-131812513D01*
X103000000Y-132612500D01*
X102240500Y-132612500D01*
X102240500Y-129114795D01*
X102240011Y-129112177D01*
X102206429Y-128932530D01*
X102139448Y-128759631D01*
X102059024Y-128629743D01*
X102040469Y-128562383D01*
X102061278Y-128495684D01*
X102114843Y-128450822D01*
X102146803Y-128441728D01*
X102192457Y-128435165D01*
X102323373Y-128375377D01*
X102432143Y-128281128D01*
X102509953Y-128160053D01*
X102550500Y-128021961D01*
X102550500Y-127878039D01*
X102509953Y-127739947D01*
X102447031Y-127642039D01*
X102427347Y-127575000D01*
X102447032Y-127507961D01*
X102447032Y-127507960D01*
X102460986Y-127486247D01*
X102509953Y-127410053D01*
X102550500Y-127271961D01*
X102550500Y-127128039D01*
X102536243Y-127079483D01*
X102509954Y-126989949D01*
X102509953Y-126989948D01*
X102509953Y-126989947D01*
X102447031Y-126892039D01*
X102427347Y-126825000D01*
X102447032Y-126757961D01*
X102447032Y-126757960D01*
X102450333Y-126752824D01*
X102509953Y-126660053D01*
X102550500Y-126521961D01*
X102550500Y-126378039D01*
X102522578Y-126282945D01*
X102509954Y-126239949D01*
X102509953Y-126239947D01*
X102432143Y-126118872D01*
X102323373Y-126024623D01*
X102220862Y-125977807D01*
X102192455Y-125964834D01*
X102192457Y-125964834D01*
X102155337Y-125959498D01*
X102091782Y-125930473D01*
X102054007Y-125871695D01*
X102054007Y-125801826D01*
X102067555Y-125771484D01*
X102139448Y-125655375D01*
X102206429Y-125482476D01*
X102240500Y-125300213D01*
X102240500Y-125207503D01*
X102240500Y-125207003D01*
X102240500Y-116170917D01*
X102260185Y-116103878D01*
X102312989Y-116058123D01*
X102382147Y-116048179D01*
X102445703Y-116077204D01*
X102456648Y-116087943D01*
X102488920Y-116123785D01*
X102524129Y-116162888D01*
X102677265Y-116274148D01*
X102677270Y-116274151D01*
X102850192Y-116351142D01*
X102850197Y-116351144D01*
X103035354Y-116390500D01*
X103035355Y-116390500D01*
X103224644Y-116390500D01*
X103224646Y-116390500D01*
X103409803Y-116351144D01*
X103582730Y-116274151D01*
X103735871Y-116162888D01*
X103862533Y-116022216D01*
X103957179Y-115858284D01*
X104015674Y-115678256D01*
X104034247Y-115501536D01*
X104060832Y-115436923D01*
X104118129Y-115396938D01*
X104157568Y-115390499D01*
X105170002Y-115390499D01*
X105170008Y-115390499D01*
X105272797Y-115379999D01*
X105439334Y-115324814D01*
X105588656Y-115232712D01*
X105712712Y-115108656D01*
X105804814Y-114959334D01*
X105859999Y-114792797D01*
X105870500Y-114690009D01*
X105870500Y-114240000D01*
X106370001Y-114240000D01*
X106370001Y-114689986D01*
X106380494Y-114792697D01*
X106435641Y-114959119D01*
X106435643Y-114959124D01*
X106527684Y-115108345D01*
X106651654Y-115232315D01*
X106800875Y-115324356D01*
X106800880Y-115324358D01*
X106967302Y-115379505D01*
X106967309Y-115379506D01*
X107070019Y-115389999D01*
X107869999Y-115389999D01*
X107870000Y-115389998D01*
X107870000Y-114240000D01*
X106370001Y-114240000D01*
X105870500Y-114240000D01*
X105870499Y-113740000D01*
X106370000Y-113740000D01*
X107870000Y-113740000D01*
X107870000Y-112590000D01*
X107070028Y-112590000D01*
X107070012Y-112590001D01*
X106967302Y-112600494D01*
X106800880Y-112655641D01*
X106800875Y-112655643D01*
X106651654Y-112747684D01*
X106527684Y-112871654D01*
X106435643Y-113020875D01*
X106435641Y-113020880D01*
X106380494Y-113187302D01*
X106380493Y-113187309D01*
X106370000Y-113290013D01*
X106370000Y-113740000D01*
X105870499Y-113740000D01*
X105870499Y-113289992D01*
X105859999Y-113187203D01*
X105804814Y-113020666D01*
X105712712Y-112871344D01*
X105588656Y-112747288D01*
X105470996Y-112674715D01*
X105439336Y-112655187D01*
X105439335Y-112655186D01*
X105439334Y-112655186D01*
X105276995Y-112601392D01*
X105219551Y-112561619D01*
X105192728Y-112497103D01*
X105192000Y-112483686D01*
X105192000Y-110752500D01*
X112450474Y-110752500D01*
X112486843Y-110877685D01*
X112486845Y-110877691D01*
X112567226Y-111013608D01*
X112567232Y-111013616D01*
X112678883Y-111125267D01*
X112678891Y-111125273D01*
X112814808Y-111205654D01*
X112814814Y-111205656D01*
X112939999Y-111242025D01*
X112940000Y-111242025D01*
X112940000Y-110752500D01*
X113440000Y-110752500D01*
X113440000Y-111242025D01*
X113565185Y-111205656D01*
X113565191Y-111205654D01*
X113701108Y-111125273D01*
X113701116Y-111125267D01*
X113733883Y-111092500D01*
X114300474Y-111092500D01*
X114336843Y-111217685D01*
X114336845Y-111217691D01*
X114417226Y-111353608D01*
X114417232Y-111353616D01*
X114528883Y-111465267D01*
X114528891Y-111465273D01*
X114664808Y-111545654D01*
X114664814Y-111545656D01*
X114789999Y-111582025D01*
X114790000Y-111582025D01*
X114790000Y-111092500D01*
X114300474Y-111092500D01*
X113733883Y-111092500D01*
X113812767Y-111013616D01*
X113812773Y-111013608D01*
X113893154Y-110877691D01*
X113893156Y-110877685D01*
X113929525Y-110752500D01*
X113440000Y-110752500D01*
X112940000Y-110752500D01*
X112450474Y-110752500D01*
X105192000Y-110752500D01*
X105192000Y-110102844D01*
X106025000Y-110102844D01*
X106031401Y-110162372D01*
X106031403Y-110162379D01*
X106081645Y-110297086D01*
X106081649Y-110297093D01*
X106167809Y-110412187D01*
X106167812Y-110412190D01*
X106282906Y-110498350D01*
X106282913Y-110498354D01*
X106417620Y-110548596D01*
X106417627Y-110548598D01*
X106477155Y-110554999D01*
X106477172Y-110555000D01*
X107250000Y-110555000D01*
X107250000Y-109684310D01*
X107258817Y-109689158D01*
X107417886Y-109730000D01*
X107540894Y-109730000D01*
X107662933Y-109714583D01*
X107750000Y-109680110D01*
X107750000Y-110555000D01*
X108522828Y-110555000D01*
X108522844Y-110554999D01*
X108582372Y-110548598D01*
X108582379Y-110548596D01*
X108717086Y-110498354D01*
X108717093Y-110498350D01*
X108832187Y-110412190D01*
X108832190Y-110412187D01*
X108918350Y-110297093D01*
X108918354Y-110297086D01*
X108934983Y-110252500D01*
X112450474Y-110252500D01*
X112940000Y-110252500D01*
X112940000Y-109762972D01*
X113440000Y-109762972D01*
X113440000Y-110252500D01*
X113929526Y-110252500D01*
X113929525Y-110252499D01*
X113893156Y-110127314D01*
X113893154Y-110127308D01*
X113812773Y-109991391D01*
X113812767Y-109991383D01*
X113701116Y-109879732D01*
X113701108Y-109879726D01*
X113565188Y-109799344D01*
X113565187Y-109799343D01*
X113440000Y-109762972D01*
X112940000Y-109762972D01*
X112814812Y-109799343D01*
X112814811Y-109799344D01*
X112678891Y-109879726D01*
X112678883Y-109879732D01*
X112567232Y-109991383D01*
X112567226Y-109991391D01*
X112486845Y-110127308D01*
X112486843Y-110127314D01*
X112450474Y-110252499D01*
X112450474Y-110252500D01*
X108934983Y-110252500D01*
X108968596Y-110162379D01*
X108968598Y-110162372D01*
X108974999Y-110102844D01*
X108975000Y-110102827D01*
X108975000Y-109330000D01*
X108100728Y-109330000D01*
X108123100Y-109282457D01*
X108153873Y-109121138D01*
X108143561Y-108957234D01*
X108102220Y-108830000D01*
X108975000Y-108830000D01*
X108975000Y-108057172D01*
X108974999Y-108057155D01*
X108968598Y-107997627D01*
X108968596Y-107997620D01*
X108918354Y-107862913D01*
X108918350Y-107862906D01*
X108832190Y-107747812D01*
X108832187Y-107747809D01*
X108717093Y-107661649D01*
X108717086Y-107661645D01*
X108582379Y-107611403D01*
X108582372Y-107611401D01*
X108522844Y-107605000D01*
X107750000Y-107605000D01*
X107750000Y-108475689D01*
X107741183Y-108470842D01*
X107582114Y-108430000D01*
X107459106Y-108430000D01*
X107337067Y-108445417D01*
X107250000Y-108479889D01*
X107250000Y-107605000D01*
X106477155Y-107605000D01*
X106417627Y-107611401D01*
X106417620Y-107611403D01*
X106282913Y-107661645D01*
X106282906Y-107661649D01*
X106167812Y-107747809D01*
X106167809Y-107747812D01*
X106081649Y-107862906D01*
X106081645Y-107862913D01*
X106031403Y-107997620D01*
X106031401Y-107997627D01*
X106025000Y-108057155D01*
X106025000Y-108830000D01*
X106899272Y-108830000D01*
X106876900Y-108877543D01*
X106846127Y-109038862D01*
X106856439Y-109202766D01*
X106897780Y-109330000D01*
X106025000Y-109330000D01*
X106025000Y-110102844D01*
X105192000Y-110102844D01*
X105192000Y-107875399D01*
X105211685Y-107808360D01*
X105228319Y-107787718D01*
X107504218Y-105511819D01*
X107565541Y-105478334D01*
X107591899Y-105475500D01*
X107622262Y-105475500D01*
X107622263Y-105475500D01*
X107863455Y-105435252D01*
X108094733Y-105355855D01*
X108309788Y-105239473D01*
X108502754Y-105089281D01*
X108668368Y-104909377D01*
X108802111Y-104704667D01*
X108900336Y-104480736D01*
X108960364Y-104243692D01*
X108960873Y-104237551D01*
X108980557Y-104000005D01*
X108980557Y-103999994D01*
X108960365Y-103756316D01*
X108960363Y-103756304D01*
X108936265Y-103661144D01*
X108900336Y-103519264D01*
X108802111Y-103295333D01*
X108704434Y-103145826D01*
X108668367Y-103090621D01*
X108502757Y-102910722D01*
X108502747Y-102910713D01*
X108309791Y-102760529D01*
X108309787Y-102760526D01*
X108094734Y-102644145D01*
X108094729Y-102644143D01*
X107863458Y-102564748D01*
X107682561Y-102534562D01*
X107622263Y-102524500D01*
X107377737Y-102524500D01*
X107329498Y-102532549D01*
X107136541Y-102564748D01*
X106905270Y-102644143D01*
X106905265Y-102644145D01*
X106690212Y-102760526D01*
X106690208Y-102760529D01*
X106497252Y-102910713D01*
X106497242Y-102910722D01*
X106331632Y-103090621D01*
X106197888Y-103295333D01*
X106099663Y-103519265D01*
X106039636Y-103756304D01*
X106039634Y-103756316D01*
X106026401Y-103916014D01*
X106001248Y-103981199D01*
X105990506Y-103993455D01*
X103432595Y-106551367D01*
X103416854Y-106564684D01*
X103414800Y-106566146D01*
X103414796Y-106566149D01*
X103353958Y-106629955D01*
X103351899Y-106632063D01*
X103325881Y-106658082D01*
X103320564Y-106664521D01*
X103314700Y-106671127D01*
X103273517Y-106714320D01*
X103273511Y-106714327D01*
X103256690Y-106740502D01*
X103247997Y-106752408D01*
X103228188Y-106776400D01*
X103228185Y-106776404D01*
X103199600Y-106828752D01*
X103195086Y-106836361D01*
X103162832Y-106886549D01*
X103151264Y-106915444D01*
X103144982Y-106928776D01*
X103130074Y-106956079D01*
X103130066Y-106956097D01*
X103111908Y-107012900D01*
X103108915Y-107021226D01*
X103086745Y-107076604D01*
X103080855Y-107107165D01*
X103077210Y-107121446D01*
X103067734Y-107151093D01*
X103067733Y-107151096D01*
X103060652Y-107210320D01*
X103059288Y-107219064D01*
X103048000Y-107277634D01*
X103048000Y-107308756D01*
X103047123Y-107323476D01*
X103043429Y-107354368D01*
X103043429Y-107354373D01*
X103047532Y-107411743D01*
X103047684Y-107413861D01*
X103048000Y-107422707D01*
X103048000Y-112483687D01*
X103028315Y-112550726D01*
X102975511Y-112596481D01*
X102963013Y-112601389D01*
X102859930Y-112635547D01*
X102800668Y-112655185D01*
X102800659Y-112655190D01*
X102711798Y-112709999D01*
X102644405Y-112728439D01*
X102577742Y-112707516D01*
X102532973Y-112653874D01*
X102524312Y-112584543D01*
X102527725Y-112569525D01*
X102530047Y-112561619D01*
X102550500Y-112491961D01*
X102550500Y-112348039D01*
X102527688Y-112270348D01*
X102509954Y-112209949D01*
X102509953Y-112209947D01*
X102432143Y-112088872D01*
X102323373Y-111994623D01*
X102323371Y-111994622D01*
X102192456Y-111934834D01*
X102161021Y-111930315D01*
X102097466Y-111901289D01*
X102059692Y-111842511D01*
X102059692Y-111772641D01*
X102073238Y-111742307D01*
X102139448Y-111635375D01*
X102206429Y-111462476D01*
X102240500Y-111280213D01*
X102240500Y-111187503D01*
X102240500Y-111187003D01*
X102240500Y-101167404D01*
X102240500Y-101074793D01*
X102206429Y-100892530D01*
X102206427Y-100892526D01*
X102206426Y-100892518D01*
X102204859Y-100887009D01*
X102206498Y-100886542D01*
X102201296Y-100824798D01*
X102234003Y-100763056D01*
X102294897Y-100728798D01*
X102364646Y-100732900D01*
X102421105Y-100774061D01*
X102430173Y-100787621D01*
X102467467Y-100852216D01*
X102534642Y-100926821D01*
X102594129Y-100992888D01*
X102747265Y-101104148D01*
X102747270Y-101104151D01*
X102920192Y-101181142D01*
X102920197Y-101181144D01*
X103105354Y-101220500D01*
X103105355Y-101220500D01*
X103294644Y-101220500D01*
X103294646Y-101220500D01*
X103479803Y-101181144D01*
X103652730Y-101104151D01*
X103805871Y-100992888D01*
X103932533Y-100852216D01*
X103949122Y-100823481D01*
X103968826Y-100797801D01*
X104469810Y-100296818D01*
X104531133Y-100263333D01*
X104557491Y-100260499D01*
X105210002Y-100260499D01*
X105210008Y-100260499D01*
X105312797Y-100249999D01*
X105479334Y-100194814D01*
X105628656Y-100102712D01*
X105752712Y-99978656D01*
X105844814Y-99829334D01*
X105899999Y-99662797D01*
X105910500Y-99560009D01*
X105910499Y-98610000D01*
X106410000Y-98610000D01*
X107910000Y-98610000D01*
X107910000Y-97460000D01*
X107110028Y-97460000D01*
X107110012Y-97460001D01*
X107007302Y-97470494D01*
X106840880Y-97525641D01*
X106840875Y-97525643D01*
X106691654Y-97617684D01*
X106567684Y-97741654D01*
X106475643Y-97890875D01*
X106475641Y-97890880D01*
X106420494Y-98057302D01*
X106420493Y-98057309D01*
X106410000Y-98160013D01*
X106410000Y-98610000D01*
X105910499Y-98610000D01*
X105910499Y-98159992D01*
X105910371Y-98158743D01*
X105899999Y-98057203D01*
X105899998Y-98057200D01*
X105883630Y-98007804D01*
X105844814Y-97890666D01*
X105752712Y-97741344D01*
X105628656Y-97617288D01*
X105479334Y-97525186D01*
X105312797Y-97470001D01*
X105312795Y-97470000D01*
X105210016Y-97459500D01*
X105210009Y-97459500D01*
X104636000Y-97459500D01*
X104568961Y-97439815D01*
X104523206Y-97387011D01*
X104512000Y-97335500D01*
X104512000Y-95055398D01*
X104531685Y-94988359D01*
X104548314Y-94967722D01*
X105813320Y-93702716D01*
X105874642Y-93669232D01*
X105944334Y-93674216D01*
X106000267Y-93716088D01*
X106024684Y-93781552D01*
X106025000Y-93790398D01*
X106025000Y-93830000D01*
X106899272Y-93830000D01*
X106876900Y-93877543D01*
X106846127Y-94038862D01*
X106856439Y-94202766D01*
X106897780Y-94330000D01*
X106025000Y-94330000D01*
X106025000Y-95102844D01*
X106031401Y-95162372D01*
X106031403Y-95162379D01*
X106081645Y-95297086D01*
X106081649Y-95297093D01*
X106167809Y-95412187D01*
X106167812Y-95412190D01*
X106282906Y-95498350D01*
X106282913Y-95498354D01*
X106417620Y-95548596D01*
X106417627Y-95548598D01*
X106477155Y-95554999D01*
X106477172Y-95555000D01*
X107250000Y-95555000D01*
X107250000Y-94684310D01*
X107258817Y-94689158D01*
X107417886Y-94730000D01*
X107540894Y-94730000D01*
X107662933Y-94714583D01*
X107750000Y-94680110D01*
X107750000Y-95555000D01*
X108522828Y-95555000D01*
X108522844Y-95554999D01*
X108582372Y-95548598D01*
X108582379Y-95548596D01*
X108717086Y-95498354D01*
X108717093Y-95498350D01*
X108832187Y-95412190D01*
X108832190Y-95412187D01*
X108918350Y-95297093D01*
X108918354Y-95297086D01*
X108968596Y-95162379D01*
X108968598Y-95162372D01*
X108974999Y-95102844D01*
X108975000Y-95102827D01*
X108975000Y-94330000D01*
X108100728Y-94330000D01*
X108123100Y-94282457D01*
X108153873Y-94121138D01*
X108143561Y-93957234D01*
X108102220Y-93830000D01*
X108975000Y-93830000D01*
X108975000Y-93057172D01*
X108974999Y-93057155D01*
X108968598Y-92997627D01*
X108968596Y-92997620D01*
X108918354Y-92862913D01*
X108918350Y-92862906D01*
X108832190Y-92747812D01*
X108832187Y-92747809D01*
X108717093Y-92661649D01*
X108717086Y-92661645D01*
X108582379Y-92611403D01*
X108582372Y-92611401D01*
X108522844Y-92605000D01*
X107750000Y-92605000D01*
X107750000Y-93475689D01*
X107741183Y-93470842D01*
X107582114Y-93430000D01*
X107459106Y-93430000D01*
X107337067Y-93445417D01*
X107250000Y-93479889D01*
X107250000Y-92605000D01*
X107210398Y-92605000D01*
X107143359Y-92585315D01*
X107097604Y-92532511D01*
X107087660Y-92463353D01*
X107116685Y-92399797D01*
X107122717Y-92393319D01*
X107633232Y-91882804D01*
X108187409Y-91328626D01*
X108203167Y-91315299D01*
X108205204Y-91313849D01*
X108266027Y-91250059D01*
X108268043Y-91247992D01*
X108294125Y-91221912D01*
X108299440Y-91215473D01*
X108305305Y-91208864D01*
X108346482Y-91165681D01*
X108363308Y-91139496D01*
X108372002Y-91127590D01*
X108391814Y-91103597D01*
X108420419Y-91051207D01*
X108424890Y-91043673D01*
X108457166Y-90993453D01*
X108468730Y-90964565D01*
X108475017Y-90951221D01*
X108489929Y-90923913D01*
X108508092Y-90867088D01*
X108511085Y-90858765D01*
X108533255Y-90803391D01*
X108539146Y-90772821D01*
X108542788Y-90758553D01*
X108552266Y-90728907D01*
X108559345Y-90669686D01*
X108560706Y-90660952D01*
X108572000Y-90602364D01*
X108572000Y-90571242D01*
X108572877Y-90556521D01*
X108575234Y-90536806D01*
X108576571Y-90525627D01*
X108572316Y-90466137D01*
X108572000Y-90457291D01*
X108572000Y-90062445D01*
X108591685Y-89995406D01*
X108604771Y-89978462D01*
X108668367Y-89909378D01*
X108689604Y-89876872D01*
X108802111Y-89704667D01*
X108900336Y-89480736D01*
X108960364Y-89243692D01*
X108966252Y-89172618D01*
X108991405Y-89107436D01*
X109047807Y-89066197D01*
X109103713Y-89059640D01*
X109129455Y-89062540D01*
X109171557Y-89067284D01*
X109171558Y-89067283D01*
X109171560Y-89067284D01*
X109205859Y-89064971D01*
X109398297Y-89051996D01*
X109618663Y-88996469D01*
X109825572Y-88902486D01*
X109857258Y-88880533D01*
X109923569Y-88858538D01*
X109991251Y-88875884D01*
X110037331Y-88925478D01*
X110037401Y-88925436D01*
X110037607Y-88925774D01*
X110038810Y-88927069D01*
X110039405Y-88928277D01*
X110040473Y-88930476D01*
X110040476Y-88930480D01*
X110163164Y-89094372D01*
X110314652Y-89232083D01*
X110314654Y-89232084D01*
X110314655Y-89232085D01*
X110385629Y-89275346D01*
X110489465Y-89338638D01*
X110681284Y-89410182D01*
X110681287Y-89410182D01*
X110681289Y-89410183D01*
X110726888Y-89417851D01*
X110883176Y-89444133D01*
X111077981Y-89439495D01*
X111145467Y-89457579D01*
X111162131Y-89469747D01*
X111205350Y-89507196D01*
X111205351Y-89507197D01*
X111207518Y-89508448D01*
X111224474Y-89520220D01*
X111226403Y-89521813D01*
X111303757Y-89564052D01*
X111306331Y-89565498D01*
X111382638Y-89609555D01*
X111382648Y-89609560D01*
X111382650Y-89609561D01*
X111385018Y-89610380D01*
X111403896Y-89618733D01*
X111406082Y-89619927D01*
X111406089Y-89619930D01*
X111422604Y-89625209D01*
X111490039Y-89646765D01*
X111492787Y-89647680D01*
X111576117Y-89676521D01*
X111577299Y-89676691D01*
X111578598Y-89676878D01*
X111598703Y-89681502D01*
X111601093Y-89682266D01*
X111688595Y-89692727D01*
X111691478Y-89693106D01*
X111778760Y-89705656D01*
X111781254Y-89705537D01*
X111801879Y-89706272D01*
X111804373Y-89706571D01*
X111892304Y-89700281D01*
X111895138Y-89700112D01*
X111983255Y-89695915D01*
X111985701Y-89695321D01*
X112006087Y-89692143D01*
X112008578Y-89691965D01*
X112008581Y-89691964D01*
X112008583Y-89691964D01*
X112066215Y-89676521D01*
X112093688Y-89669159D01*
X112096479Y-89668447D01*
X112117802Y-89663274D01*
X112187591Y-89666599D01*
X112234714Y-89696098D01*
X112318883Y-89780267D01*
X112318891Y-89780273D01*
X112454808Y-89860654D01*
X112454814Y-89860656D01*
X112579999Y-89897025D01*
X112580000Y-89897025D01*
X112580000Y-89446580D01*
X112591475Y-89407500D01*
X113080000Y-89407500D01*
X113080000Y-89897025D01*
X113205185Y-89860656D01*
X113205191Y-89860654D01*
X113341108Y-89780273D01*
X113341116Y-89780267D01*
X113452767Y-89668616D01*
X113452773Y-89668608D01*
X113533154Y-89532691D01*
X113533156Y-89532685D01*
X113569525Y-89407500D01*
X113080000Y-89407500D01*
X112591475Y-89407500D01*
X112599685Y-89379541D01*
X112612214Y-89363205D01*
X112613698Y-89361572D01*
X112615566Y-89359566D01*
X112676482Y-89295681D01*
X112677831Y-89293581D01*
X112690404Y-89277194D01*
X112692083Y-89275348D01*
X112737989Y-89200034D01*
X112739444Y-89197707D01*
X112787166Y-89123453D01*
X112788095Y-89121130D01*
X112797336Y-89102670D01*
X112798638Y-89100535D01*
X112829468Y-89017871D01*
X112830462Y-89015301D01*
X112842429Y-88985409D01*
X112885622Y-88930490D01*
X112951649Y-88907640D01*
X112957545Y-88907500D01*
X113569554Y-88907500D01*
X113625485Y-88865755D01*
X113668652Y-88857999D01*
X114001123Y-88857999D01*
X114001123Y-88857998D01*
X114043889Y-88855100D01*
X114228693Y-88809141D01*
X114240904Y-88803085D01*
X114309709Y-88790932D01*
X114374161Y-88817908D01*
X114413798Y-88875446D01*
X114420000Y-88914172D01*
X114420000Y-89065000D01*
X114970000Y-89065000D01*
X114970000Y-88080203D01*
X115470000Y-88080203D01*
X115470000Y-89065000D01*
X116020000Y-89065000D01*
X116020000Y-88661865D01*
X116019999Y-88661850D01*
X116017100Y-88625010D01*
X116017099Y-88625004D01*
X115971283Y-88467306D01*
X115971282Y-88467303D01*
X115887685Y-88325947D01*
X115887678Y-88325938D01*
X115771561Y-88209821D01*
X115771552Y-88209814D01*
X115630196Y-88126217D01*
X115630193Y-88126216D01*
X115472494Y-88080400D01*
X115472497Y-88080400D01*
X115470000Y-88080203D01*
X114970000Y-88080203D01*
X114967503Y-88080400D01*
X114959085Y-88082846D01*
X114889216Y-88082641D01*
X114830549Y-88044695D01*
X114801710Y-87981054D01*
X114800499Y-87963778D01*
X114800499Y-87576978D01*
X114820184Y-87509940D01*
X114872988Y-87464185D01*
X114874063Y-87463700D01*
X114975337Y-87418609D01*
X115052730Y-87384151D01*
X115060944Y-87378182D01*
X115126750Y-87354702D01*
X115133831Y-87354500D01*
X115502750Y-87354500D01*
X115520719Y-87355809D01*
X115526100Y-87356596D01*
X115544656Y-87359315D01*
X115594298Y-87354971D01*
X115605105Y-87354500D01*
X115610684Y-87354500D01*
X115610691Y-87354500D01*
X115641653Y-87350880D01*
X115645184Y-87350519D01*
X115720362Y-87343943D01*
X115720365Y-87343941D01*
X115727443Y-87342481D01*
X115727454Y-87342535D01*
X115734913Y-87340881D01*
X115734901Y-87340827D01*
X115741928Y-87339161D01*
X115741929Y-87339160D01*
X115741934Y-87339160D01*
X115812845Y-87313350D01*
X115816144Y-87312203D01*
X115887786Y-87288464D01*
X115887788Y-87288462D01*
X115887790Y-87288462D01*
X115894331Y-87285412D01*
X115894354Y-87285462D01*
X115901248Y-87282125D01*
X115901223Y-87282075D01*
X115907670Y-87278837D01*
X115907674Y-87278836D01*
X115970717Y-87237370D01*
X115973692Y-87235476D01*
X116037904Y-87195870D01*
X116037912Y-87195861D01*
X116043573Y-87191387D01*
X116043607Y-87191430D01*
X116049532Y-87186604D01*
X116049497Y-87186562D01*
X116055026Y-87181920D01*
X116055035Y-87181915D01*
X116106821Y-87127023D01*
X116109266Y-87124506D01*
X117887821Y-85345951D01*
X117949142Y-85312468D01*
X118018834Y-85317452D01*
G37*
%TD.AperFunction*%
%TA.AperFunction,Conductor*%
G36*
X121117888Y-106514493D02*
G01*
X121125128Y-106519330D01*
X121134503Y-106525594D01*
X121134509Y-106525596D01*
X121134510Y-106525597D01*
X121262771Y-106578724D01*
X121271086Y-106582168D01*
X121271090Y-106582168D01*
X121271091Y-106582169D01*
X121416079Y-106611010D01*
X121416082Y-106611010D01*
X121489901Y-106611010D01*
X124108041Y-106611010D01*
X124175080Y-106630695D01*
X124220835Y-106683499D01*
X124230779Y-106752657D01*
X124219920Y-106785284D01*
X124220983Y-106785739D01*
X124138030Y-106979449D01*
X124138028Y-106979456D01*
X124094491Y-107179589D01*
X124091750Y-107225621D01*
X124091750Y-108534378D01*
X124094491Y-108580410D01*
X124138028Y-108780543D01*
X124138030Y-108780550D01*
X124220983Y-108974261D01*
X124219262Y-108974997D01*
X124232282Y-109034862D01*
X124207862Y-109100325D01*
X124151926Y-109142194D01*
X124108598Y-109150010D01*
X121541372Y-109150010D01*
X121541338Y-109150000D01*
X121490000Y-109150000D01*
X121416082Y-109150000D01*
X121416080Y-109150000D01*
X121271091Y-109178840D01*
X121271085Y-109178842D01*
X121134506Y-109235414D01*
X121129530Y-109238739D01*
X121051394Y-109290948D01*
X120984719Y-109311826D01*
X120917339Y-109293342D01*
X120870648Y-109241363D01*
X120869430Y-109238739D01*
X120868017Y-109235601D01*
X120777758Y-109086294D01*
X120759922Y-109018739D01*
X120781440Y-108952266D01*
X120796190Y-108934466D01*
X120820472Y-108910185D01*
X120908478Y-108764606D01*
X120959086Y-108602196D01*
X120965500Y-108531616D01*
X120965500Y-107868384D01*
X120959086Y-107797804D01*
X120908478Y-107635394D01*
X120820472Y-107489815D01*
X120820470Y-107489813D01*
X120820469Y-107489811D01*
X120697984Y-107367326D01*
X120664499Y-107306003D01*
X120669483Y-107236311D01*
X120697985Y-107191963D01*
X120780071Y-107109877D01*
X120780072Y-107109877D01*
X120868019Y-106964395D01*
X120918590Y-106802106D01*
X120924999Y-106731572D01*
X120924999Y-106617597D01*
X120944683Y-106550557D01*
X120997487Y-106504802D01*
X121066645Y-106494858D01*
X121117888Y-106514493D01*
G37*
%TD.AperFunction*%
%TA.AperFunction,Conductor*%
G36*
X118471962Y-98242185D02*
G01*
X118517717Y-98294989D01*
X118527661Y-98364147D01*
X118498636Y-98427703D01*
X118462335Y-98456408D01*
X118416595Y-98480300D01*
X118416593Y-98480302D01*
X118258890Y-98608890D01*
X118130304Y-98766590D01*
X118130302Y-98766593D01*
X118108019Y-98809252D01*
X118036089Y-98946954D01*
X117993484Y-99095855D01*
X117986124Y-99121580D01*
X117980114Y-99142583D01*
X117980113Y-99142586D01*
X117969500Y-99261966D01*
X117969500Y-102178028D01*
X117969501Y-102178034D01*
X117980113Y-102297415D01*
X118030465Y-102473389D01*
X118029982Y-102543257D01*
X117991802Y-102601772D01*
X117928047Y-102630357D01*
X117911249Y-102631500D01*
X115100079Y-102631500D01*
X115082110Y-102630191D01*
X115058170Y-102626684D01*
X115011409Y-102630776D01*
X115008530Y-102631028D01*
X114997724Y-102631500D01*
X114992130Y-102631500D01*
X114961192Y-102635116D01*
X114957608Y-102635482D01*
X114882466Y-102642056D01*
X114875400Y-102643516D01*
X114875389Y-102643464D01*
X114867911Y-102645122D01*
X114867924Y-102645174D01*
X114860895Y-102646839D01*
X114835208Y-102656188D01*
X114765479Y-102660616D01*
X114704425Y-102626643D01*
X114671430Y-102565054D01*
X114669087Y-102548048D01*
X114667600Y-102526114D01*
X114667600Y-102526112D01*
X114667199Y-102524500D01*
X114621641Y-102341307D01*
X114581887Y-102261150D01*
X114537032Y-102170707D01*
X114537030Y-102170704D01*
X114417722Y-102022278D01*
X114417721Y-102022277D01*
X114348514Y-101966647D01*
X114308595Y-101909304D01*
X114306015Y-101839482D01*
X114341594Y-101779349D01*
X114348514Y-101773353D01*
X114392991Y-101737601D01*
X114417722Y-101717722D01*
X114537030Y-101569296D01*
X114540034Y-101563240D01*
X114620220Y-101401558D01*
X114667641Y-101350245D01*
X114715774Y-101333629D01*
X114723799Y-101332616D01*
X114764561Y-101316476D01*
X114775598Y-101312698D01*
X114817697Y-101300468D01*
X114835021Y-101290221D01*
X114852489Y-101281663D01*
X114871209Y-101274253D01*
X114906683Y-101248478D01*
X114916421Y-101242081D01*
X114954162Y-101219763D01*
X114968403Y-101205520D01*
X114983184Y-101192897D01*
X114999473Y-101181063D01*
X115027410Y-101147290D01*
X115035262Y-101138661D01*
X116424358Y-99749565D01*
X116436640Y-99739728D01*
X116436459Y-99739509D01*
X116442472Y-99734533D01*
X116442477Y-99734531D01*
X116488699Y-99685307D01*
X116491348Y-99682575D01*
X116510938Y-99662987D01*
X116513411Y-99659797D01*
X116520997Y-99650913D01*
X116551008Y-99618958D01*
X116560704Y-99601319D01*
X116571388Y-99585052D01*
X116583723Y-99569153D01*
X116601132Y-99528919D01*
X116606270Y-99518434D01*
X116610497Y-99510747D01*
X116623911Y-99486348D01*
X116627384Y-99480031D01*
X116627384Y-99480029D01*
X116627387Y-99480025D01*
X116632393Y-99460525D01*
X116638697Y-99442115D01*
X116646685Y-99423656D01*
X116646688Y-99423650D01*
X116650882Y-99397168D01*
X116653545Y-99380357D01*
X116655911Y-99368928D01*
X116666815Y-99326463D01*
X116666815Y-99306326D01*
X116668342Y-99286926D01*
X116668492Y-99285980D01*
X116671489Y-99267058D01*
X116667365Y-99223429D01*
X116666815Y-99211760D01*
X116666815Y-98471966D01*
X116686500Y-98404927D01*
X116703134Y-98384285D01*
X116828600Y-98258819D01*
X116889923Y-98225334D01*
X116916281Y-98222500D01*
X118404923Y-98222500D01*
X118471962Y-98242185D01*
G37*
%TD.AperFunction*%
%TA.AperFunction,Conductor*%
G36*
X114743039Y-95909685D02*
G01*
X114788794Y-95962489D01*
X114800000Y-96014000D01*
X114800000Y-96879525D01*
X114925185Y-96843156D01*
X114925192Y-96843153D01*
X114972705Y-96815054D01*
X115040428Y-96797870D01*
X115106691Y-96820029D01*
X115150455Y-96874495D01*
X115157825Y-96943974D01*
X115126462Y-97006409D01*
X115123508Y-97009466D01*
X114970057Y-97162917D01*
X114956428Y-97174696D01*
X114937022Y-97189144D01*
X114904989Y-97227318D01*
X114897702Y-97235271D01*
X114893735Y-97239239D01*
X114893733Y-97239241D01*
X114874404Y-97263686D01*
X114872130Y-97266478D01*
X114823649Y-97324256D01*
X114819681Y-97330290D01*
X114819637Y-97330261D01*
X114815524Y-97336716D01*
X114815569Y-97336744D01*
X114811776Y-97342893D01*
X114783536Y-97403452D01*
X114737363Y-97455890D01*
X114671155Y-97475045D01*
X114519558Y-97475045D01*
X114452519Y-97455360D01*
X114422912Y-97428734D01*
X114417725Y-97422282D01*
X114417719Y-97422275D01*
X114269295Y-97302969D01*
X114269292Y-97302967D01*
X114098697Y-97218360D01*
X113913892Y-97172400D01*
X113888229Y-97170660D01*
X113871123Y-97169500D01*
X113871121Y-97169500D01*
X113594196Y-97169500D01*
X113527157Y-97149815D01*
X113481402Y-97097011D01*
X113471458Y-97027853D01*
X113500483Y-96964297D01*
X113521311Y-96945182D01*
X113560450Y-96916746D01*
X113675871Y-96832888D01*
X113793655Y-96702075D01*
X113853139Y-96665428D01*
X113922996Y-96666758D01*
X113973484Y-96697368D01*
X114038883Y-96762767D01*
X114038891Y-96762773D01*
X114174808Y-96843154D01*
X114174814Y-96843156D01*
X114299999Y-96879525D01*
X114300000Y-96879525D01*
X114300000Y-96014000D01*
X114319685Y-95946961D01*
X114372489Y-95901206D01*
X114424000Y-95890000D01*
X114676000Y-95890000D01*
X114743039Y-95909685D01*
G37*
%TD.AperFunction*%
%TA.AperFunction,Conductor*%
G36*
X120919622Y-91120550D02*
G01*
X120951943Y-91143824D01*
X121011581Y-91203462D01*
X121134503Y-91285594D01*
X121134509Y-91285596D01*
X121134510Y-91285597D01*
X121215247Y-91319039D01*
X121271086Y-91342168D01*
X121271090Y-91342168D01*
X121271091Y-91342169D01*
X121416079Y-91371010D01*
X121416082Y-91371010D01*
X121489901Y-91371010D01*
X124163704Y-91371010D01*
X124230743Y-91390695D01*
X124276498Y-91443499D01*
X124286442Y-91512657D01*
X124270005Y-91555174D01*
X124271489Y-91555985D01*
X124268655Y-91561173D01*
X124188030Y-91749449D01*
X124188028Y-91749456D01*
X124144491Y-91949589D01*
X124141750Y-91995621D01*
X124141750Y-93304378D01*
X124144491Y-93350410D01*
X124188028Y-93550543D01*
X124188030Y-93550550D01*
X124267958Y-93737197D01*
X124276253Y-93806573D01*
X124245724Y-93869420D01*
X124186064Y-93905785D01*
X124153970Y-93910010D01*
X121541372Y-93910010D01*
X121541338Y-93910000D01*
X121490000Y-93910000D01*
X121416082Y-93910000D01*
X121416080Y-93910000D01*
X121271091Y-93938840D01*
X121271085Y-93938842D01*
X121134506Y-93995414D01*
X121011581Y-94077551D01*
X120954747Y-94134386D01*
X120893423Y-94167870D01*
X120823731Y-94162885D01*
X120779385Y-94134385D01*
X120755000Y-94110000D01*
X120030000Y-94110000D01*
X120030000Y-94759999D01*
X120111581Y-94759999D01*
X120182102Y-94753591D01*
X120182107Y-94753590D01*
X120344396Y-94703018D01*
X120489877Y-94615072D01*
X120489878Y-94615071D01*
X120527819Y-94577131D01*
X120589142Y-94543646D01*
X120658834Y-94548630D01*
X120714767Y-94590502D01*
X120739184Y-94655966D01*
X120739500Y-94664812D01*
X120739500Y-96452648D01*
X120719815Y-96519687D01*
X120667011Y-96565442D01*
X120597853Y-96575386D01*
X120534297Y-96546361D01*
X120531962Y-96544286D01*
X120531151Y-96543547D01*
X120481171Y-96497984D01*
X120303828Y-96388177D01*
X120303827Y-96388176D01*
X120130677Y-96321098D01*
X120109327Y-96312827D01*
X119904293Y-96274500D01*
X119695707Y-96274500D01*
X119490673Y-96312827D01*
X119490670Y-96312827D01*
X119490670Y-96312828D01*
X119296172Y-96388176D01*
X119296171Y-96388177D01*
X119118826Y-96497985D01*
X119118822Y-96497989D01*
X119111943Y-96504259D01*
X119049137Y-96534871D01*
X118979750Y-96526667D01*
X118925814Y-96482253D01*
X118904452Y-96415729D01*
X118907802Y-96390079D01*
X118906571Y-96389854D01*
X118907705Y-96383638D01*
X118907709Y-96383627D01*
X118910500Y-96348163D01*
X118910499Y-96269122D01*
X118913061Y-96244046D01*
X118914845Y-96235406D01*
X118916745Y-96226207D01*
X118911615Y-96049904D01*
X118911613Y-96049896D01*
X118911548Y-96047663D01*
X118910499Y-96033253D01*
X118910499Y-95971849D01*
X118910498Y-95971824D01*
X118910221Y-95968310D01*
X118907709Y-95936373D01*
X118863618Y-95784610D01*
X118793807Y-95666566D01*
X118783172Y-95648583D01*
X118783165Y-95648574D01*
X118671425Y-95536834D01*
X118671416Y-95536827D01*
X118535390Y-95456382D01*
X118535385Y-95456380D01*
X118383633Y-95412292D01*
X118383620Y-95412290D01*
X118348170Y-95409500D01*
X118348163Y-95409500D01*
X118251302Y-95409500D01*
X118233333Y-95408191D01*
X118182087Y-95400685D01*
X118086726Y-95409028D01*
X118075921Y-95409500D01*
X117971849Y-95409500D01*
X117971823Y-95409501D01*
X117936372Y-95412291D01*
X117784614Y-95456380D01*
X117784609Y-95456382D01*
X117648583Y-95536827D01*
X117648578Y-95536831D01*
X117547290Y-95638119D01*
X117485967Y-95671603D01*
X117416275Y-95666619D01*
X117368682Y-95630990D01*
X117366881Y-95632613D01*
X117263518Y-95517817D01*
X117235871Y-95487112D01*
X117231230Y-95483740D01*
X117082734Y-95375851D01*
X117082729Y-95375848D01*
X116909807Y-95298857D01*
X116909802Y-95298855D01*
X116764001Y-95267865D01*
X116724646Y-95259500D01*
X116535354Y-95259500D01*
X116508857Y-95265131D01*
X116439191Y-95259814D01*
X116383458Y-95217676D01*
X116359354Y-95152096D01*
X116374532Y-95083895D01*
X116390926Y-95060872D01*
X116462533Y-94981346D01*
X116557179Y-94817414D01*
X116615674Y-94637386D01*
X116634247Y-94460666D01*
X116660832Y-94396054D01*
X116718129Y-94356069D01*
X116757568Y-94349630D01*
X117020839Y-94349630D01*
X117028049Y-94349840D01*
X117174169Y-94358351D01*
X117212943Y-94351513D01*
X117234475Y-94349630D01*
X117372611Y-94349630D01*
X117439650Y-94369315D01*
X117460293Y-94385950D01*
X117509810Y-94435468D01*
X117509811Y-94435469D01*
X117509813Y-94435470D01*
X117509815Y-94435472D01*
X117655394Y-94523478D01*
X117817804Y-94574086D01*
X117888384Y-94580500D01*
X117888387Y-94580500D01*
X118551613Y-94580500D01*
X118551616Y-94580500D01*
X118622196Y-94574086D01*
X118784606Y-94523478D01*
X118790360Y-94520000D01*
X118816242Y-94504353D01*
X118822327Y-94500674D01*
X118889880Y-94482837D01*
X118956354Y-94504353D01*
X118974159Y-94519109D01*
X119070122Y-94615072D01*
X119215604Y-94703019D01*
X119215603Y-94703019D01*
X119377894Y-94753590D01*
X119377892Y-94753590D01*
X119448418Y-94759999D01*
X119529999Y-94759998D01*
X119530000Y-94759998D01*
X119530000Y-93734000D01*
X119549685Y-93666961D01*
X119602489Y-93621206D01*
X119654000Y-93610000D01*
X120754999Y-93610000D01*
X120754999Y-93603417D01*
X120748591Y-93532897D01*
X120748590Y-93532892D01*
X120698018Y-93370603D01*
X120610072Y-93225122D01*
X120507984Y-93123034D01*
X120474499Y-93061711D01*
X120479483Y-92992019D01*
X120507983Y-92947673D01*
X120610472Y-92845185D01*
X120698478Y-92699606D01*
X120749086Y-92537196D01*
X120755500Y-92466616D01*
X120755500Y-91953384D01*
X120749086Y-91882804D01*
X120698478Y-91720394D01*
X120610472Y-91574815D01*
X120610470Y-91574813D01*
X120610469Y-91574811D01*
X120606563Y-91569825D01*
X120580717Y-91504912D01*
X120594068Y-91436329D01*
X120616491Y-91405680D01*
X120644281Y-91377891D01*
X120732549Y-91234787D01*
X120746560Y-91192504D01*
X120786330Y-91135060D01*
X120850846Y-91108236D01*
X120919622Y-91120550D01*
G37*
%TD.AperFunction*%
%TA.AperFunction,Conductor*%
G36*
X112129487Y-66570695D02*
G01*
X112175242Y-66623499D01*
X112185186Y-66692657D01*
X112156161Y-66756213D01*
X112140137Y-66771654D01*
X112125230Y-66783638D01*
X112052278Y-66842277D01*
X112052277Y-66842278D01*
X111932969Y-66990704D01*
X111932967Y-66990707D01*
X111848360Y-67161302D01*
X111802400Y-67346107D01*
X111799500Y-67388879D01*
X111799500Y-68291122D01*
X111799501Y-68291125D01*
X111802399Y-68333886D01*
X111802399Y-68333887D01*
X111825693Y-68427552D01*
X111846797Y-68512414D01*
X111848360Y-68518696D01*
X111935957Y-68695320D01*
X111934091Y-68696245D01*
X111950842Y-68753792D01*
X111930999Y-68820785D01*
X111878088Y-68866415D01*
X111826842Y-68877500D01*
X110337864Y-68877500D01*
X110323980Y-68876720D01*
X110288446Y-68872716D01*
X110288439Y-68872715D01*
X110221657Y-68877219D01*
X110213315Y-68877500D01*
X110203293Y-68877500D01*
X110162306Y-68881188D01*
X110159539Y-68881406D01*
X110061711Y-68888002D01*
X110061697Y-68888005D01*
X110057318Y-68889108D01*
X110038165Y-68892362D01*
X110033664Y-68892767D01*
X110033658Y-68892768D01*
X109939090Y-68918866D01*
X109936403Y-68919575D01*
X109841336Y-68943530D01*
X109837223Y-68945399D01*
X109818943Y-68952026D01*
X109814598Y-68953225D01*
X109814590Y-68953228D01*
X109726241Y-68995775D01*
X109723722Y-68996954D01*
X109634425Y-69037514D01*
X109634420Y-69037517D01*
X109630707Y-69040090D01*
X109613925Y-69049863D01*
X109609851Y-69051825D01*
X109609841Y-69051831D01*
X109530470Y-69109497D01*
X109528244Y-69111076D01*
X109486941Y-69139691D01*
X109447623Y-69166931D01*
X109444423Y-69170131D01*
X109429651Y-69182746D01*
X109426006Y-69185394D01*
X109425994Y-69185404D01*
X109358219Y-69256291D01*
X109356274Y-69258279D01*
X109139599Y-69474954D01*
X109078276Y-69508439D01*
X109008584Y-69503455D01*
X108952651Y-69461583D01*
X108928234Y-69396119D01*
X108931713Y-69356832D01*
X108960361Y-69243704D01*
X108960363Y-69243695D01*
X108960364Y-69243692D01*
X108960365Y-69243683D01*
X108980557Y-69000005D01*
X108980557Y-68999994D01*
X108960365Y-68756316D01*
X108960363Y-68756304D01*
X108918255Y-68590023D01*
X108900336Y-68519264D01*
X108802111Y-68295333D01*
X108668368Y-68090623D01*
X108668367Y-68090621D01*
X108502757Y-67910722D01*
X108502747Y-67910713D01*
X108309791Y-67760529D01*
X108309787Y-67760526D01*
X108094734Y-67644145D01*
X108094729Y-67644143D01*
X107863458Y-67564748D01*
X107682561Y-67534562D01*
X107622263Y-67524500D01*
X107377737Y-67524500D01*
X107329498Y-67532549D01*
X107136541Y-67564748D01*
X106905270Y-67644143D01*
X106905265Y-67644145D01*
X106690212Y-67760526D01*
X106690208Y-67760529D01*
X106497252Y-67910713D01*
X106497242Y-67910722D01*
X106331632Y-68090621D01*
X106197888Y-68295333D01*
X106099663Y-68519265D01*
X106039636Y-68756304D01*
X106039634Y-68756316D01*
X106019443Y-68999994D01*
X106019443Y-69000005D01*
X106039634Y-69243683D01*
X106039636Y-69243695D01*
X106099663Y-69480734D01*
X106197888Y-69704666D01*
X106331632Y-69909378D01*
X106497242Y-70089277D01*
X106497252Y-70089286D01*
X106690208Y-70239470D01*
X106690212Y-70239473D01*
X106779948Y-70288036D01*
X106905267Y-70355855D01*
X106922420Y-70361743D01*
X107136541Y-70435251D01*
X107136543Y-70435251D01*
X107136545Y-70435252D01*
X107377737Y-70475500D01*
X107377738Y-70475500D01*
X107622262Y-70475500D01*
X107622263Y-70475500D01*
X107863455Y-70435252D01*
X108072493Y-70363489D01*
X108142290Y-70360340D01*
X108202711Y-70395426D01*
X108234572Y-70457609D01*
X108229796Y-70521725D01*
X108170818Y-70690275D01*
X108135268Y-70914724D01*
X108135268Y-70914736D01*
X108140367Y-71141925D01*
X108185951Y-71364560D01*
X108185953Y-71364568D01*
X108270557Y-71575481D01*
X108391465Y-71767904D01*
X108544782Y-71935639D01*
X108544785Y-71935642D01*
X108725040Y-72072888D01*
X108725597Y-72073312D01*
X108893094Y-72158655D01*
X108928080Y-72176481D01*
X109145732Y-72241840D01*
X109371557Y-72267284D01*
X109371559Y-72267283D01*
X109371561Y-72267284D01*
X109415098Y-72264348D01*
X109598297Y-72251996D01*
X109706410Y-72224754D01*
X109776227Y-72227461D01*
X109833497Y-72267484D01*
X109860037Y-72332117D01*
X109860427Y-72336653D01*
X109860552Y-72338501D01*
X109869815Y-72475887D01*
X109875215Y-72497316D01*
X109925342Y-72696255D01*
X110019323Y-72903158D01*
X110019326Y-72903164D01*
X110148742Y-73089966D01*
X110396437Y-73337661D01*
X110405702Y-73348028D01*
X110427477Y-73375333D01*
X110428004Y-73375993D01*
X110472498Y-73414866D01*
X110478414Y-73420034D01*
X110484512Y-73425735D01*
X110686432Y-73627656D01*
X110695696Y-73638022D01*
X110717998Y-73665986D01*
X110718007Y-73665996D01*
X110736816Y-73682429D01*
X110768423Y-73710043D01*
X110774505Y-73715729D01*
X110781584Y-73722807D01*
X110781590Y-73722813D01*
X110813184Y-73749190D01*
X110815263Y-73750965D01*
X110836603Y-73769609D01*
X110887983Y-73814499D01*
X110889143Y-73815512D01*
X110893016Y-73817825D01*
X110908879Y-73829081D01*
X110912341Y-73831972D01*
X110993763Y-73878172D01*
X110997630Y-73880366D01*
X110999997Y-73881744D01*
X111084229Y-73932071D01*
X111084231Y-73932072D01*
X111088444Y-73933653D01*
X111106073Y-73941900D01*
X111109993Y-73944124D01*
X111202611Y-73976532D01*
X111205124Y-73977443D01*
X111296992Y-74011922D01*
X111301427Y-74012726D01*
X111320252Y-74017696D01*
X111324495Y-74019181D01*
X111421472Y-74034540D01*
X111424020Y-74034973D01*
X111501358Y-74049009D01*
X111520593Y-74052500D01*
X111520594Y-74052500D01*
X111525101Y-74052500D01*
X111544487Y-74054025D01*
X111548950Y-74054732D01*
X111647021Y-74052531D01*
X111649803Y-74052500D01*
X111690880Y-74052500D01*
X111710266Y-74054025D01*
X111714729Y-74054732D01*
X111812800Y-74052531D01*
X111815582Y-74052500D01*
X111856694Y-74052500D01*
X111856699Y-74052500D01*
X111866675Y-74051601D01*
X111874986Y-74051134D01*
X111941926Y-74049633D01*
X111941936Y-74049630D01*
X111947465Y-74049009D01*
X111947756Y-74051595D01*
X112006424Y-74056475D01*
X112061869Y-74098990D01*
X112080825Y-74137552D01*
X112096842Y-74192685D01*
X112096844Y-74192688D01*
X112177226Y-74328608D01*
X112177232Y-74328616D01*
X112288883Y-74440267D01*
X112288891Y-74440273D01*
X112424808Y-74520654D01*
X112424814Y-74520656D01*
X112549999Y-74557025D01*
X112550000Y-74557025D01*
X112550000Y-74067500D01*
X113050000Y-74067500D01*
X113050000Y-74557025D01*
X113175185Y-74520656D01*
X113175191Y-74520654D01*
X113311108Y-74440273D01*
X113311116Y-74440267D01*
X113422767Y-74328616D01*
X113422773Y-74328608D01*
X113503154Y-74192691D01*
X113503156Y-74192685D01*
X113539525Y-74067500D01*
X113050000Y-74067500D01*
X112550000Y-74067500D01*
X112550000Y-73886500D01*
X112569685Y-73819461D01*
X112622489Y-73773706D01*
X112674000Y-73762500D01*
X113436693Y-73762500D01*
X113436699Y-73762500D01*
X113606339Y-73747232D01*
X113795713Y-73694968D01*
X113828702Y-73690499D01*
X113886000Y-73690499D01*
X113953039Y-73710184D01*
X113998794Y-73762988D01*
X114010000Y-73814499D01*
X114010000Y-74022500D01*
X115610000Y-74022500D01*
X115610000Y-73619365D01*
X115609999Y-73619350D01*
X115607100Y-73582510D01*
X115607099Y-73582504D01*
X115561283Y-73424806D01*
X115561282Y-73424803D01*
X115477685Y-73283447D01*
X115477678Y-73283438D01*
X115361561Y-73167321D01*
X115361552Y-73167314D01*
X115220196Y-73083717D01*
X115220193Y-73083716D01*
X115062495Y-73037900D01*
X115062489Y-73037899D01*
X115025649Y-73035000D01*
X114923437Y-73035000D01*
X114856398Y-73015315D01*
X114810643Y-72962511D01*
X114799721Y-72902611D01*
X114799729Y-72902481D01*
X114800500Y-72891123D01*
X114800499Y-71988878D01*
X114797600Y-71946111D01*
X114751641Y-71761307D01*
X114704925Y-71667112D01*
X114667032Y-71590707D01*
X114667030Y-71590704D01*
X114547722Y-71442278D01*
X114547721Y-71442277D01*
X114478514Y-71386647D01*
X114438595Y-71329304D01*
X114436015Y-71259482D01*
X114471594Y-71199349D01*
X114478514Y-71193353D01*
X114492686Y-71181961D01*
X114547722Y-71137722D01*
X114667030Y-70989296D01*
X114751641Y-70818693D01*
X114797600Y-70633889D01*
X114800500Y-70591123D01*
X114800499Y-69951499D01*
X114820183Y-69884461D01*
X114872987Y-69838706D01*
X114924499Y-69827500D01*
X115717033Y-69827500D01*
X115732681Y-69829227D01*
X115732708Y-69828946D01*
X115740475Y-69829680D01*
X115740476Y-69829679D01*
X115740477Y-69829680D01*
X115807919Y-69827561D01*
X115811813Y-69827500D01*
X115839472Y-69827500D01*
X115839476Y-69827500D01*
X115843474Y-69826994D01*
X115855114Y-69826077D01*
X115898943Y-69824701D01*
X115918272Y-69819084D01*
X115937328Y-69815137D01*
X115957293Y-69812616D01*
X115998055Y-69796476D01*
X116009092Y-69792698D01*
X116051191Y-69780468D01*
X116068515Y-69770221D01*
X116085983Y-69761663D01*
X116104703Y-69754253D01*
X116140177Y-69728478D01*
X116149915Y-69722081D01*
X116187656Y-69699763D01*
X116201897Y-69685520D01*
X116216678Y-69672897D01*
X116232967Y-69661063D01*
X116260904Y-69627290D01*
X116268756Y-69618661D01*
X117823600Y-68063819D01*
X117884923Y-68030334D01*
X117911281Y-68027500D01*
X118138735Y-68027500D01*
X118205774Y-68047185D01*
X118251529Y-68099989D01*
X118261473Y-68169147D01*
X118248644Y-68208911D01*
X118166090Y-68366952D01*
X118110114Y-68562583D01*
X118110113Y-68562586D01*
X118099500Y-68681966D01*
X118099500Y-71133114D01*
X118079815Y-71200153D01*
X118027011Y-71245908D01*
X117957853Y-71255852D01*
X117894297Y-71226827D01*
X117887819Y-71220795D01*
X117578766Y-70911742D01*
X117566984Y-70898109D01*
X117563604Y-70893569D01*
X117552539Y-70878706D01*
X117552537Y-70878704D01*
X117552538Y-70878704D01*
X117514367Y-70846676D01*
X117506384Y-70839360D01*
X117502444Y-70835419D01*
X117477987Y-70816081D01*
X117475191Y-70813803D01*
X117417427Y-70765333D01*
X117411394Y-70761365D01*
X117411422Y-70761321D01*
X117404961Y-70757204D01*
X117404934Y-70757250D01*
X117398790Y-70753460D01*
X117330442Y-70721589D01*
X117327196Y-70720017D01*
X117259815Y-70686177D01*
X117253031Y-70683708D01*
X117253049Y-70683658D01*
X117245807Y-70681141D01*
X117245791Y-70681191D01*
X117238938Y-70678920D01*
X117165088Y-70663671D01*
X117161567Y-70662891D01*
X117088181Y-70645498D01*
X117081014Y-70644661D01*
X117081020Y-70644607D01*
X117073405Y-70643829D01*
X117073401Y-70643883D01*
X117066210Y-70643253D01*
X116990804Y-70645448D01*
X116987198Y-70645500D01*
X116933831Y-70645500D01*
X116866792Y-70625815D01*
X116860944Y-70621817D01*
X116852730Y-70615849D01*
X116852729Y-70615848D01*
X116679807Y-70538857D01*
X116679802Y-70538855D01*
X116534001Y-70507865D01*
X116494646Y-70499500D01*
X116305354Y-70499500D01*
X116272897Y-70506398D01*
X116120197Y-70538855D01*
X116120192Y-70538857D01*
X115947270Y-70615848D01*
X115947265Y-70615851D01*
X115794129Y-70727111D01*
X115667466Y-70867785D01*
X115572821Y-71031715D01*
X115572818Y-71031722D01*
X115518353Y-71199349D01*
X115514326Y-71211744D01*
X115494540Y-71400000D01*
X115514326Y-71588256D01*
X115514327Y-71588259D01*
X115572818Y-71768277D01*
X115572821Y-71768284D01*
X115667467Y-71932216D01*
X115767649Y-72043479D01*
X115794129Y-72072888D01*
X115947265Y-72184148D01*
X115947270Y-72184151D01*
X116120192Y-72261142D01*
X116120197Y-72261144D01*
X116305354Y-72300500D01*
X116305355Y-72300500D01*
X116494644Y-72300500D01*
X116494646Y-72300500D01*
X116679803Y-72261144D01*
X116681038Y-72260593D01*
X116681819Y-72260489D01*
X116685987Y-72259135D01*
X116686234Y-72259896D01*
X116750286Y-72251303D01*
X116813565Y-72280926D01*
X116819164Y-72286188D01*
X117407795Y-72874819D01*
X117441280Y-72936142D01*
X117436296Y-73005834D01*
X117407796Y-73050179D01*
X117374722Y-73083254D01*
X117348221Y-73109755D01*
X117286897Y-73143239D01*
X117217205Y-73138254D01*
X117197420Y-73128806D01*
X117128291Y-73087924D01*
X117120398Y-73083256D01*
X117120396Y-73083255D01*
X117120394Y-73083254D01*
X116962573Y-73037402D01*
X116962567Y-73037401D01*
X116925701Y-73034500D01*
X116925694Y-73034500D01*
X116494306Y-73034500D01*
X116494298Y-73034500D01*
X116457432Y-73037401D01*
X116457426Y-73037402D01*
X116299606Y-73083254D01*
X116299603Y-73083255D01*
X116158137Y-73166917D01*
X116158129Y-73166923D01*
X116041923Y-73283129D01*
X116041917Y-73283137D01*
X115958255Y-73424603D01*
X115958254Y-73424606D01*
X115912402Y-73582426D01*
X115912401Y-73582432D01*
X115909500Y-73619298D01*
X115909500Y-74785500D01*
X115889815Y-74852539D01*
X115837011Y-74898294D01*
X115785500Y-74909500D01*
X115734000Y-74909500D01*
X115666961Y-74889815D01*
X115621206Y-74837011D01*
X115610000Y-74785500D01*
X115610000Y-74522500D01*
X114010000Y-74522500D01*
X114010000Y-74925649D01*
X114012899Y-74962487D01*
X114054130Y-75104405D01*
X114053930Y-75174275D01*
X114015988Y-75232945D01*
X113952349Y-75261788D01*
X113935053Y-75263000D01*
X112756053Y-75263000D01*
X112728999Y-75266162D01*
X112714607Y-75267000D01*
X112611849Y-75267000D01*
X112611823Y-75267001D01*
X112576372Y-75269791D01*
X112424614Y-75313880D01*
X112424609Y-75313882D01*
X112288583Y-75394327D01*
X112288574Y-75394334D01*
X112176834Y-75506074D01*
X112176827Y-75506083D01*
X112096382Y-75642109D01*
X112096380Y-75642114D01*
X112052292Y-75793866D01*
X112052290Y-75793879D01*
X112049500Y-75829329D01*
X112049500Y-75923271D01*
X112049290Y-75930481D01*
X112041649Y-76061667D01*
X112041649Y-76061669D01*
X112047616Y-76095512D01*
X112049500Y-76117042D01*
X112049500Y-76205650D01*
X112049501Y-76205676D01*
X112052291Y-76241127D01*
X112096380Y-76392885D01*
X112096382Y-76392890D01*
X112176827Y-76528916D01*
X112176834Y-76528925D01*
X112288574Y-76640665D01*
X112288578Y-76640668D01*
X112288580Y-76640670D01*
X112424610Y-76721118D01*
X112576373Y-76765209D01*
X112611837Y-76768000D01*
X112680435Y-76767999D01*
X112709037Y-76771343D01*
X112711804Y-76771999D01*
X112711811Y-76771999D01*
X112711812Y-76772000D01*
X113279835Y-76772000D01*
X113346874Y-76791685D01*
X113392629Y-76844489D01*
X113402573Y-76913647D01*
X113381751Y-76962394D01*
X113383409Y-76963396D01*
X113379529Y-76969813D01*
X113379528Y-76969815D01*
X113371676Y-76982804D01*
X113291522Y-77115393D01*
X113240913Y-77277807D01*
X113234500Y-77348386D01*
X113234500Y-78011613D01*
X113240913Y-78082192D01*
X113240913Y-78082194D01*
X113240914Y-78082196D01*
X113291522Y-78244606D01*
X113338299Y-78321985D01*
X113379530Y-78390188D01*
X113499811Y-78510469D01*
X113499813Y-78510470D01*
X113499815Y-78510472D01*
X113645394Y-78598478D01*
X113777549Y-78639658D01*
X113828338Y-78670362D01*
X114147092Y-78989116D01*
X114158873Y-79002748D01*
X114159883Y-79004105D01*
X114177632Y-79027945D01*
X114175089Y-79029837D01*
X114200354Y-79079513D01*
X114193329Y-79149028D01*
X114151353Y-79202627D01*
X114031627Y-79289613D01*
X113904966Y-79430285D01*
X113810321Y-79594215D01*
X113810318Y-79594222D01*
X113751827Y-79774240D01*
X113751826Y-79774244D01*
X113732040Y-79962500D01*
X113751826Y-80150756D01*
X113751827Y-80150759D01*
X113795719Y-80285845D01*
X113797714Y-80355686D01*
X113784521Y-80387283D01*
X113726844Y-80484810D01*
X113726843Y-80484814D01*
X113690474Y-80609999D01*
X113690474Y-80610000D01*
X113956395Y-80610000D01*
X114023434Y-80629685D01*
X114029280Y-80633682D01*
X114184765Y-80746648D01*
X114184770Y-80746651D01*
X114357691Y-80823642D01*
X114357693Y-80823642D01*
X114357697Y-80823644D01*
X114415648Y-80835961D01*
X114477127Y-80869153D01*
X114477546Y-80869570D01*
X114643681Y-81035705D01*
X114677166Y-81097028D01*
X114680000Y-81123386D01*
X114680000Y-81599524D01*
X114718574Y-81588318D01*
X114788444Y-81588517D01*
X114847114Y-81626458D01*
X114859286Y-81643243D01*
X114869528Y-81660185D01*
X114869531Y-81660189D01*
X114989811Y-81780469D01*
X114989813Y-81780470D01*
X114989815Y-81780472D01*
X115135394Y-81868478D01*
X115297804Y-81919086D01*
X115368384Y-81925500D01*
X115368387Y-81925500D01*
X116031613Y-81925500D01*
X116031616Y-81925500D01*
X116102196Y-81919086D01*
X116264606Y-81868478D01*
X116410185Y-81780472D01*
X116530472Y-81660185D01*
X116533606Y-81655000D01*
X116875001Y-81655000D01*
X116875001Y-81661582D01*
X116881408Y-81732102D01*
X116881409Y-81732107D01*
X116931981Y-81894396D01*
X117019927Y-82039877D01*
X117140122Y-82160072D01*
X117285604Y-82248019D01*
X117285603Y-82248019D01*
X117447894Y-82298590D01*
X117447892Y-82298590D01*
X117518418Y-82304999D01*
X117599999Y-82304998D01*
X117600000Y-82304998D01*
X117600000Y-81655000D01*
X116875001Y-81655000D01*
X116533606Y-81655000D01*
X116618478Y-81514606D01*
X116669086Y-81352196D01*
X116675500Y-81281616D01*
X116675500Y-81254862D01*
X116695185Y-81187823D01*
X116747989Y-81142068D01*
X116817147Y-81132124D01*
X116867239Y-81155000D01*
X117976000Y-81155000D01*
X118043039Y-81174685D01*
X118088794Y-81227489D01*
X118100000Y-81279000D01*
X118100000Y-82306309D01*
X118080315Y-82373348D01*
X118063681Y-82393990D01*
X117303763Y-83153907D01*
X117242440Y-83187392D01*
X117172748Y-83182408D01*
X117116815Y-83140536D01*
X117092762Y-83079190D01*
X117085674Y-83011744D01*
X117027179Y-82831716D01*
X116932533Y-82667784D01*
X116805871Y-82527112D01*
X116805870Y-82527111D01*
X116652734Y-82415851D01*
X116652729Y-82415848D01*
X116479807Y-82338857D01*
X116479802Y-82338855D01*
X116320512Y-82304998D01*
X116294646Y-82299500D01*
X116105354Y-82299500D01*
X116079488Y-82304998D01*
X115920197Y-82338855D01*
X115920192Y-82338857D01*
X115747270Y-82415848D01*
X115747265Y-82415851D01*
X115594129Y-82527111D01*
X115467466Y-82667785D01*
X115372821Y-82831715D01*
X115372818Y-82831722D01*
X115319047Y-82997214D01*
X115314326Y-83011744D01*
X115294540Y-83200000D01*
X115294540Y-83200002D01*
X115294540Y-83200005D01*
X115295602Y-83210114D01*
X115283030Y-83278843D01*
X115259963Y-83310750D01*
X115168207Y-83402508D01*
X115106884Y-83435994D01*
X115080525Y-83438828D01*
X114924500Y-83438828D01*
X114857461Y-83419143D01*
X114811706Y-83366339D01*
X114800500Y-83314828D01*
X114800499Y-82556377D01*
X114800498Y-82556376D01*
X114797600Y-82513611D01*
X114751641Y-82328807D01*
X114736655Y-82298590D01*
X114667032Y-82158207D01*
X114667030Y-82158204D01*
X114547722Y-82009778D01*
X114547721Y-82009777D01*
X114399295Y-81890469D01*
X114399292Y-81890467D01*
X114228694Y-81805859D01*
X114225525Y-81804695D01*
X114223861Y-81803462D01*
X114222671Y-81802872D01*
X114222776Y-81802658D01*
X114169385Y-81763101D01*
X114144645Y-81697758D01*
X114159160Y-81629412D01*
X114180000Y-81605206D01*
X114180000Y-81110000D01*
X113690474Y-81110000D01*
X113726843Y-81235185D01*
X113726845Y-81235191D01*
X113807226Y-81371108D01*
X113807232Y-81371116D01*
X113918883Y-81482767D01*
X113918891Y-81482773D01*
X113992437Y-81526268D01*
X114040120Y-81577337D01*
X114052624Y-81646078D01*
X114025979Y-81710668D01*
X113968644Y-81750598D01*
X113929316Y-81757000D01*
X112731664Y-81757000D01*
X112664625Y-81737315D01*
X112618870Y-81684511D01*
X112608926Y-81615353D01*
X112637951Y-81551797D01*
X112668536Y-81526273D01*
X112741420Y-81483170D01*
X112853170Y-81371420D01*
X112933618Y-81235390D01*
X112946513Y-81191000D01*
X112950340Y-81179842D01*
X113006252Y-81039108D01*
X113031815Y-80864594D01*
X113031814Y-80864590D01*
X113031815Y-80864588D01*
X113016443Y-80688889D01*
X113012005Y-80675495D01*
X112960964Y-80521464D01*
X112868370Y-80371346D01*
X112868367Y-80371343D01*
X112866681Y-80369210D01*
X112857216Y-80355421D01*
X112853172Y-80348584D01*
X112853170Y-80348580D01*
X112853166Y-80348576D01*
X112853163Y-80348572D01*
X112741425Y-80236834D01*
X112741422Y-80236832D01*
X112741420Y-80236830D01*
X112736382Y-80233850D01*
X112711825Y-80214801D01*
X112008766Y-79511742D01*
X111996984Y-79498109D01*
X111990135Y-79488909D01*
X111982539Y-79478706D01*
X111982537Y-79478704D01*
X111982538Y-79478704D01*
X111944367Y-79446676D01*
X111936384Y-79439360D01*
X111932444Y-79435419D01*
X111907987Y-79416081D01*
X111905191Y-79413803D01*
X111847427Y-79365333D01*
X111841394Y-79361365D01*
X111841422Y-79361321D01*
X111834961Y-79357204D01*
X111834934Y-79357250D01*
X111828790Y-79353460D01*
X111760442Y-79321589D01*
X111757196Y-79320017D01*
X111689815Y-79286177D01*
X111683031Y-79283708D01*
X111683049Y-79283658D01*
X111675807Y-79281141D01*
X111675791Y-79281191D01*
X111668938Y-79278920D01*
X111595088Y-79263671D01*
X111591567Y-79262891D01*
X111518181Y-79245498D01*
X111511014Y-79244661D01*
X111511020Y-79244607D01*
X111503405Y-79243829D01*
X111503401Y-79243883D01*
X111496210Y-79243253D01*
X111420804Y-79245448D01*
X111417198Y-79245500D01*
X111333831Y-79245500D01*
X111266792Y-79225815D01*
X111260944Y-79221817D01*
X111252730Y-79215849D01*
X111252729Y-79215848D01*
X111079807Y-79138857D01*
X111079802Y-79138855D01*
X110934001Y-79107865D01*
X110894646Y-79099500D01*
X110705354Y-79099500D01*
X110672897Y-79106398D01*
X110520197Y-79138855D01*
X110520192Y-79138857D01*
X110347270Y-79215848D01*
X110347265Y-79215851D01*
X110194129Y-79327111D01*
X110067466Y-79467785D01*
X109972821Y-79631715D01*
X109972818Y-79631722D01*
X109914327Y-79811740D01*
X109914326Y-79811744D01*
X109894540Y-80000000D01*
X109914326Y-80188256D01*
X109914327Y-80188259D01*
X109972818Y-80368277D01*
X109972821Y-80368284D01*
X110067467Y-80532216D01*
X110160364Y-80635388D01*
X110194129Y-80672888D01*
X110347265Y-80784148D01*
X110347270Y-80784151D01*
X110520192Y-80861142D01*
X110520197Y-80861144D01*
X110705354Y-80900500D01*
X110705355Y-80900500D01*
X110894644Y-80900500D01*
X110894646Y-80900500D01*
X111079803Y-80861144D01*
X111101803Y-80851349D01*
X111171053Y-80842062D01*
X111234330Y-80871689D01*
X111239922Y-80876946D01*
X111474392Y-81111416D01*
X111505786Y-81164499D01*
X111526382Y-81235390D01*
X111537898Y-81254862D01*
X111606827Y-81371416D01*
X111606834Y-81371425D01*
X111718574Y-81483165D01*
X111718578Y-81483168D01*
X111718580Y-81483170D01*
X111854610Y-81563618D01*
X111978200Y-81599524D01*
X111997757Y-81605206D01*
X112006373Y-81607709D01*
X112041837Y-81610500D01*
X112236106Y-81610499D01*
X112303145Y-81630183D01*
X112348900Y-81682987D01*
X112358844Y-81752145D01*
X112329819Y-81815701D01*
X112291201Y-81845587D01*
X112200704Y-81890469D01*
X112104070Y-81968147D01*
X112039486Y-81994806D01*
X112026383Y-81995500D01*
X111626360Y-81995500D01*
X111562211Y-81977617D01*
X111444606Y-81906522D01*
X111282196Y-81855914D01*
X111282194Y-81855913D01*
X111282192Y-81855913D01*
X111232778Y-81851423D01*
X111211616Y-81849500D01*
X110548384Y-81849500D01*
X110529145Y-81851248D01*
X110477807Y-81855913D01*
X110315393Y-81906522D01*
X110169811Y-81994530D01*
X110049530Y-82114811D01*
X109961522Y-82260393D01*
X109910913Y-82422807D01*
X109904500Y-82493386D01*
X109904500Y-82652481D01*
X109884815Y-82719520D01*
X109832011Y-82765275D01*
X109762853Y-82775219D01*
X109715405Y-82758021D01*
X109679126Y-82735644D01*
X109679119Y-82735641D01*
X109512697Y-82680494D01*
X109512690Y-82680493D01*
X109409986Y-82670000D01*
X108610000Y-82670000D01*
X108610000Y-85469999D01*
X109409972Y-85469999D01*
X109409984Y-85469998D01*
X109435878Y-85467353D01*
X109504571Y-85480122D01*
X109555456Y-85528003D01*
X109572377Y-85595792D01*
X109549962Y-85661969D01*
X109536162Y-85678392D01*
X108267184Y-86947370D01*
X108158025Y-87078123D01*
X108054298Y-87260929D01*
X108045876Y-87275772D01*
X108007953Y-87384151D01*
X107974754Y-87479029D01*
X107934032Y-87535805D01*
X107869079Y-87561552D01*
X107837303Y-87560383D01*
X107622263Y-87524500D01*
X107464323Y-87524500D01*
X107458760Y-87524375D01*
X107454508Y-87524184D01*
X107443131Y-87523673D01*
X107443130Y-87523673D01*
X107443129Y-87523673D01*
X107443128Y-87523673D01*
X107437568Y-87523923D01*
X107437566Y-87523900D01*
X107428664Y-87524500D01*
X107377737Y-87524500D01*
X107329498Y-87532549D01*
X107136541Y-87564748D01*
X106905270Y-87644143D01*
X106905265Y-87644145D01*
X106690212Y-87760526D01*
X106690208Y-87760529D01*
X106497252Y-87910713D01*
X106497242Y-87910722D01*
X106331632Y-88090621D01*
X106197888Y-88295333D01*
X106099663Y-88519265D01*
X106039636Y-88756304D01*
X106039634Y-88756316D01*
X106019443Y-88999994D01*
X106019443Y-89000005D01*
X106039634Y-89243683D01*
X106039636Y-89243695D01*
X106099663Y-89480734D01*
X106197888Y-89704666D01*
X106331629Y-89909374D01*
X106331632Y-89909377D01*
X106367504Y-89948344D01*
X106398426Y-90010996D01*
X106390566Y-90080422D01*
X106363955Y-90120007D01*
X102752595Y-93731367D01*
X102736854Y-93744684D01*
X102734800Y-93746146D01*
X102734796Y-93746149D01*
X102673958Y-93809955D01*
X102671899Y-93812063D01*
X102645881Y-93838082D01*
X102640564Y-93844521D01*
X102634700Y-93851127D01*
X102593517Y-93894320D01*
X102593511Y-93894327D01*
X102576690Y-93920502D01*
X102567997Y-93932408D01*
X102548188Y-93956400D01*
X102548185Y-93956404D01*
X102519600Y-94008752D01*
X102515086Y-94016361D01*
X102482832Y-94066550D01*
X102479617Y-94074582D01*
X102436426Y-94129502D01*
X102370399Y-94152354D01*
X102302499Y-94135880D01*
X102254284Y-94085313D01*
X102240500Y-94028494D01*
X102240500Y-87047292D01*
X102239044Y-87039503D01*
X102206429Y-86865027D01*
X102139448Y-86692128D01*
X102063290Y-86569129D01*
X102044735Y-86501770D01*
X102065543Y-86435071D01*
X102119109Y-86390209D01*
X102151070Y-86381115D01*
X102192457Y-86375165D01*
X102323373Y-86315377D01*
X102323375Y-86315374D01*
X102323377Y-86315374D01*
X102367461Y-86277175D01*
X102383637Y-86263157D01*
X102447192Y-86234132D01*
X102516351Y-86244075D01*
X102556988Y-86273897D01*
X102643310Y-86369766D01*
X102664129Y-86392888D01*
X102817265Y-86504148D01*
X102817270Y-86504151D01*
X102990192Y-86581142D01*
X102990197Y-86581144D01*
X103175354Y-86620500D01*
X103175355Y-86620500D01*
X103364644Y-86620500D01*
X103364646Y-86620500D01*
X103549803Y-86581144D01*
X103722730Y-86504151D01*
X103875871Y-86392888D01*
X104002533Y-86252216D01*
X104097179Y-86088284D01*
X104155674Y-85908256D01*
X104175460Y-85720000D01*
X104163631Y-85607457D01*
X104176200Y-85538731D01*
X104223932Y-85487707D01*
X104286952Y-85470499D01*
X105410002Y-85470499D01*
X105410008Y-85470499D01*
X105512797Y-85459999D01*
X105679334Y-85404814D01*
X105828656Y-85312712D01*
X105952712Y-85188656D01*
X106044814Y-85039334D01*
X106099999Y-84872797D01*
X106110500Y-84770009D01*
X106110500Y-84320000D01*
X106610001Y-84320000D01*
X106610001Y-84769986D01*
X106620494Y-84872697D01*
X106675641Y-85039119D01*
X106675643Y-85039124D01*
X106767684Y-85188345D01*
X106891654Y-85312315D01*
X107040875Y-85404356D01*
X107040880Y-85404358D01*
X107207302Y-85459505D01*
X107207309Y-85459506D01*
X107310019Y-85469999D01*
X108109999Y-85469999D01*
X108110000Y-85469998D01*
X108110000Y-84320000D01*
X106610001Y-84320000D01*
X106110500Y-84320000D01*
X106110499Y-83820000D01*
X106610000Y-83820000D01*
X108110000Y-83820000D01*
X108110000Y-82670000D01*
X107310028Y-82670000D01*
X107310012Y-82670001D01*
X107207302Y-82680494D01*
X107040880Y-82735641D01*
X107040875Y-82735643D01*
X106891654Y-82827684D01*
X106767684Y-82951654D01*
X106675643Y-83100875D01*
X106675641Y-83100880D01*
X106620494Y-83267302D01*
X106620493Y-83267309D01*
X106610000Y-83370013D01*
X106610000Y-83820000D01*
X106110499Y-83820000D01*
X106110499Y-83369992D01*
X106099999Y-83267203D01*
X106044814Y-83100666D01*
X105952712Y-82951344D01*
X105828656Y-82827288D01*
X105679334Y-82735186D01*
X105516995Y-82681392D01*
X105459551Y-82641619D01*
X105432728Y-82577103D01*
X105432000Y-82563686D01*
X105432000Y-80182844D01*
X106025000Y-80182844D01*
X106031401Y-80242372D01*
X106031403Y-80242379D01*
X106081645Y-80377086D01*
X106081649Y-80377093D01*
X106167809Y-80492187D01*
X106167812Y-80492190D01*
X106282906Y-80578350D01*
X106282913Y-80578354D01*
X106417620Y-80628596D01*
X106417627Y-80628598D01*
X106477155Y-80634999D01*
X106477172Y-80635000D01*
X107250000Y-80635000D01*
X107250000Y-79764310D01*
X107258817Y-79769158D01*
X107417886Y-79810000D01*
X107540894Y-79810000D01*
X107662933Y-79794583D01*
X107750000Y-79760110D01*
X107750000Y-80635000D01*
X108522828Y-80635000D01*
X108522844Y-80634999D01*
X108582372Y-80628598D01*
X108582379Y-80628596D01*
X108717086Y-80578354D01*
X108717093Y-80578350D01*
X108832187Y-80492190D01*
X108832190Y-80492187D01*
X108918350Y-80377093D01*
X108918354Y-80377086D01*
X108968596Y-80242379D01*
X108968598Y-80242372D01*
X108974999Y-80182844D01*
X108975000Y-80182827D01*
X108975000Y-79410000D01*
X108100728Y-79410000D01*
X108123100Y-79362457D01*
X108153873Y-79201138D01*
X108143561Y-79037234D01*
X108102220Y-78910000D01*
X108975000Y-78910000D01*
X108975000Y-78137172D01*
X108974999Y-78137155D01*
X108968598Y-78077627D01*
X108968596Y-78077620D01*
X108918354Y-77942913D01*
X108918350Y-77942906D01*
X108832190Y-77827812D01*
X108832187Y-77827809D01*
X108717093Y-77741649D01*
X108717086Y-77741645D01*
X108582379Y-77691403D01*
X108582372Y-77691401D01*
X108522844Y-77685000D01*
X107750000Y-77685000D01*
X107750000Y-78555689D01*
X107741183Y-78550842D01*
X107582114Y-78510000D01*
X107459106Y-78510000D01*
X107337067Y-78525417D01*
X107250000Y-78559889D01*
X107250000Y-77685000D01*
X106477155Y-77685000D01*
X106417627Y-77691401D01*
X106417620Y-77691403D01*
X106282913Y-77741645D01*
X106282906Y-77741649D01*
X106167812Y-77827809D01*
X106167809Y-77827812D01*
X106081649Y-77942906D01*
X106081645Y-77942913D01*
X106031403Y-78077620D01*
X106031401Y-78077627D01*
X106025000Y-78137155D01*
X106025000Y-78910000D01*
X106899272Y-78910000D01*
X106876900Y-78957543D01*
X106846127Y-79118862D01*
X106856439Y-79282766D01*
X106897780Y-79410000D01*
X106025000Y-79410000D01*
X106025000Y-80182844D01*
X105432000Y-80182844D01*
X105432000Y-77715399D01*
X105451685Y-77648360D01*
X105468319Y-77627718D01*
X107504218Y-75591819D01*
X107565541Y-75558334D01*
X107591899Y-75555500D01*
X107622262Y-75555500D01*
X107622263Y-75555500D01*
X107863455Y-75515252D01*
X108094733Y-75435855D01*
X108309788Y-75319473D01*
X108502754Y-75169281D01*
X108668368Y-74989377D01*
X108802111Y-74784667D01*
X108900336Y-74560736D01*
X108960364Y-74323692D01*
X108970572Y-74200500D01*
X108980557Y-74080005D01*
X108980557Y-74079994D01*
X108960365Y-73836316D01*
X108960363Y-73836304D01*
X108944511Y-73773706D01*
X108900336Y-73599264D01*
X108802111Y-73375333D01*
X108772746Y-73330386D01*
X108668367Y-73170621D01*
X108502757Y-72990722D01*
X108502747Y-72990713D01*
X108309791Y-72840529D01*
X108309787Y-72840526D01*
X108094734Y-72724145D01*
X108094729Y-72724143D01*
X107863458Y-72644748D01*
X107682561Y-72614562D01*
X107622263Y-72604500D01*
X107377737Y-72604500D01*
X107329498Y-72612549D01*
X107136541Y-72644748D01*
X106905270Y-72724143D01*
X106905265Y-72724145D01*
X106690212Y-72840526D01*
X106690208Y-72840529D01*
X106497252Y-72990713D01*
X106497242Y-72990722D01*
X106331632Y-73170621D01*
X106197888Y-73375333D01*
X106099663Y-73599265D01*
X106039636Y-73836304D01*
X106039634Y-73836316D01*
X106026401Y-73996014D01*
X106001248Y-74061199D01*
X105990506Y-74073455D01*
X103672591Y-76391370D01*
X103656857Y-76404682D01*
X103654800Y-76406146D01*
X103654793Y-76406153D01*
X103593956Y-76469956D01*
X103591900Y-76472062D01*
X103565876Y-76498088D01*
X103560564Y-76504521D01*
X103554700Y-76511127D01*
X103513517Y-76554320D01*
X103513511Y-76554327D01*
X103496690Y-76580502D01*
X103487997Y-76592408D01*
X103468188Y-76616400D01*
X103468185Y-76616404D01*
X103439600Y-76668752D01*
X103435086Y-76676361D01*
X103402832Y-76726549D01*
X103391264Y-76755444D01*
X103384982Y-76768776D01*
X103370074Y-76796079D01*
X103370066Y-76796097D01*
X103351908Y-76852900D01*
X103348915Y-76861226D01*
X103326745Y-76916604D01*
X103320855Y-76947165D01*
X103317210Y-76961446D01*
X103307734Y-76991093D01*
X103307733Y-76991096D01*
X103300652Y-77050320D01*
X103299288Y-77059064D01*
X103288000Y-77117634D01*
X103288000Y-77148756D01*
X103287123Y-77163476D01*
X103283429Y-77194368D01*
X103283429Y-77194374D01*
X103287684Y-77253861D01*
X103288000Y-77262707D01*
X103288000Y-82563687D01*
X103268315Y-82630726D01*
X103215511Y-82676481D01*
X103203013Y-82681389D01*
X103099930Y-82715547D01*
X103040668Y-82735185D01*
X103040663Y-82735187D01*
X102891342Y-82827289D01*
X102767289Y-82951342D01*
X102675187Y-83100663D01*
X102675185Y-83100668D01*
X102662152Y-83140000D01*
X102620001Y-83267203D01*
X102620001Y-83267204D01*
X102620000Y-83267204D01*
X102609500Y-83369983D01*
X102609500Y-83941031D01*
X102589815Y-84008070D01*
X102537011Y-84053825D01*
X102467853Y-84063769D01*
X102404298Y-84034744D01*
X102323373Y-83964623D01*
X102273788Y-83941978D01*
X102192456Y-83904834D01*
X102151070Y-83898884D01*
X102087514Y-83869858D01*
X102049741Y-83811080D01*
X102049741Y-83741210D01*
X102063288Y-83710873D01*
X102139448Y-83587872D01*
X102206429Y-83414973D01*
X102240500Y-83232710D01*
X102240500Y-83140000D01*
X102240500Y-83139500D01*
X102240500Y-73119901D01*
X102240500Y-73027290D01*
X102206429Y-72845027D01*
X102139448Y-72672128D01*
X102097574Y-72604500D01*
X102056788Y-72538627D01*
X102038233Y-72471267D01*
X102059041Y-72404567D01*
X102112606Y-72359706D01*
X102144567Y-72350612D01*
X102182457Y-72345165D01*
X102313373Y-72285377D01*
X102422143Y-72191128D01*
X102499953Y-72070053D01*
X102540500Y-71931961D01*
X102540500Y-71788039D01*
X102519764Y-71717418D01*
X102499954Y-71649949D01*
X102499953Y-71649948D01*
X102499953Y-71649947D01*
X102437031Y-71552039D01*
X102417347Y-71485000D01*
X102437032Y-71417961D01*
X102437032Y-71417960D01*
X102499953Y-71320053D01*
X102540500Y-71181961D01*
X102540500Y-71038039D01*
X102519704Y-70967212D01*
X102499954Y-70899949D01*
X102499953Y-70899948D01*
X102499953Y-70899947D01*
X102437031Y-70802039D01*
X102417347Y-70735000D01*
X102437032Y-70667961D01*
X102437032Y-70667960D01*
X102499953Y-70570053D01*
X102540500Y-70431961D01*
X102540500Y-70288039D01*
X102525884Y-70238262D01*
X102499954Y-70149949D01*
X102479467Y-70118070D01*
X102422143Y-70028872D01*
X102313373Y-69934623D01*
X102258093Y-69909377D01*
X102182456Y-69874834D01*
X102155938Y-69871022D01*
X102092383Y-69841996D01*
X102054609Y-69783218D01*
X102054609Y-69713348D01*
X102068156Y-69683011D01*
X102139448Y-69567872D01*
X102206429Y-69394973D01*
X102240500Y-69212710D01*
X102240500Y-69120000D01*
X102240500Y-69119500D01*
X102240500Y-67306596D01*
X102241095Y-67294466D01*
X102243913Y-67265848D01*
X102244049Y-67264565D01*
X102256134Y-67157295D01*
X102260691Y-67135196D01*
X102275847Y-67085229D01*
X102277441Y-67080348D01*
X102303704Y-67005289D01*
X102311375Y-66987818D01*
X102338394Y-66937268D01*
X102342726Y-66929804D01*
X102382413Y-66866641D01*
X102391524Y-66853990D01*
X102428894Y-66808454D01*
X102437019Y-66799490D01*
X102488968Y-66747539D01*
X102497961Y-66739388D01*
X102543476Y-66702035D01*
X102556146Y-66692911D01*
X102619296Y-66653231D01*
X102626751Y-66648903D01*
X102677307Y-66621880D01*
X102694774Y-66614211D01*
X102769859Y-66587936D01*
X102774682Y-66586362D01*
X102824690Y-66571192D01*
X102846782Y-66566637D01*
X102954573Y-66554499D01*
X102956091Y-66554339D01*
X102983829Y-66551607D01*
X102995981Y-66551010D01*
X112062448Y-66551010D01*
X112129487Y-66570695D01*
G37*
%TD.AperFunction*%
%TA.AperFunction,Conductor*%
G36*
X116828373Y-80069334D02*
G01*
X116883554Y-80112192D01*
X116901367Y-80147835D01*
X116931522Y-80244606D01*
X117019304Y-80389815D01*
X117019530Y-80390188D01*
X117122015Y-80492673D01*
X117155500Y-80553996D01*
X117150516Y-80623688D01*
X117122015Y-80668035D01*
X117019928Y-80770121D01*
X117019927Y-80770122D01*
X116931981Y-80915603D01*
X116917885Y-80960839D01*
X116879147Y-81018986D01*
X116815122Y-81046960D01*
X116746137Y-81035878D01*
X116694094Y-80989259D01*
X116675500Y-80923948D01*
X116675500Y-80768386D01*
X116669086Y-80697807D01*
X116669086Y-80697804D01*
X116618478Y-80535394D01*
X116570103Y-80455373D01*
X116552268Y-80387821D01*
X116573785Y-80321347D01*
X116581229Y-80311523D01*
X116584667Y-80307427D01*
X116624202Y-80228704D01*
X116630009Y-80218400D01*
X116630456Y-80217690D01*
X116630459Y-80217679D01*
X116630462Y-80217676D01*
X116632199Y-80214070D01*
X116635707Y-80205796D01*
X116663824Y-80149812D01*
X116666293Y-80143029D01*
X116669210Y-80144090D01*
X116696873Y-80095504D01*
X116758781Y-80063113D01*
X116828373Y-80069334D01*
G37*
%TD.AperFunction*%
%TA.AperFunction,Conductor*%
G36*
X120840703Y-75767592D02*
G01*
X120862601Y-75792413D01*
X120907045Y-75858926D01*
X121011581Y-75963462D01*
X121134503Y-76045594D01*
X121134509Y-76045596D01*
X121134510Y-76045597D01*
X121179289Y-76064145D01*
X121271086Y-76102168D01*
X121271090Y-76102168D01*
X121271091Y-76102169D01*
X121416079Y-76131010D01*
X121416082Y-76131010D01*
X121489901Y-76131010D01*
X124140472Y-76131010D01*
X124207511Y-76150695D01*
X124253266Y-76203499D01*
X124263210Y-76272657D01*
X124243163Y-76324512D01*
X124238661Y-76331163D01*
X124238655Y-76331173D01*
X124158030Y-76519449D01*
X124158028Y-76519456D01*
X124114491Y-76719589D01*
X124111750Y-76765621D01*
X124111750Y-78074378D01*
X124114491Y-78120410D01*
X124158028Y-78320543D01*
X124158031Y-78320551D01*
X124233675Y-78497197D01*
X124241970Y-78566573D01*
X124211441Y-78629420D01*
X124151780Y-78665785D01*
X124119687Y-78670010D01*
X121541372Y-78670010D01*
X121541338Y-78670000D01*
X121490000Y-78670000D01*
X121416082Y-78670000D01*
X121416080Y-78670000D01*
X121271091Y-78698840D01*
X121271085Y-78698842D01*
X121134506Y-78755414D01*
X121011582Y-78837551D01*
X120907040Y-78942094D01*
X120824918Y-79065002D01*
X120824911Y-79065014D01*
X120768341Y-79201588D01*
X120768340Y-79201592D01*
X120768339Y-79201595D01*
X120750832Y-79289613D01*
X120739499Y-79346593D01*
X120739500Y-79420510D01*
X120739500Y-80025606D01*
X120719815Y-80092645D01*
X120667011Y-80138400D01*
X120597853Y-80148344D01*
X120559849Y-80136416D01*
X120538706Y-80125797D01*
X120528407Y-80119994D01*
X120527690Y-80119544D01*
X120527687Y-80119542D01*
X120524087Y-80117809D01*
X120515809Y-80114298D01*
X120459810Y-80086175D01*
X120380907Y-80067474D01*
X120368569Y-80063865D01*
X120368066Y-80063689D01*
X120368062Y-80063688D01*
X120368059Y-80063687D01*
X120368055Y-80063686D01*
X120366398Y-80063308D01*
X120354813Y-80061290D01*
X120314403Y-80051713D01*
X120288188Y-80045500D01*
X120288187Y-80045500D01*
X120221452Y-80045500D01*
X120154413Y-80025815D01*
X120133770Y-80009180D01*
X120101425Y-79976834D01*
X120101416Y-79976827D01*
X119965390Y-79896382D01*
X119965385Y-79896380D01*
X119813633Y-79852292D01*
X119813620Y-79852290D01*
X119778170Y-79849500D01*
X119778163Y-79849500D01*
X119699124Y-79849500D01*
X119674048Y-79846938D01*
X119656207Y-79843254D01*
X119656206Y-79843254D01*
X119647061Y-79843520D01*
X119477686Y-79848448D01*
X119463252Y-79849500D01*
X119401849Y-79849500D01*
X119401823Y-79849501D01*
X119366372Y-79852291D01*
X119214614Y-79896380D01*
X119214609Y-79896382D01*
X119078583Y-79976827D01*
X119078574Y-79976834D01*
X119037181Y-80018228D01*
X118975858Y-80051713D01*
X118906166Y-80046729D01*
X118850233Y-80004857D01*
X118825816Y-79939393D01*
X118825500Y-79930547D01*
X118825500Y-79535552D01*
X118845185Y-79468513D01*
X118857351Y-79452579D01*
X118862666Y-79446676D01*
X118896892Y-79408665D01*
X118986283Y-79253835D01*
X118999909Y-79211897D01*
X119039344Y-79154225D01*
X119103702Y-79127025D01*
X119142909Y-79128778D01*
X119148793Y-79129992D01*
X119179526Y-79136338D01*
X119182917Y-79137089D01*
X119256374Y-79154500D01*
X119256380Y-79154500D01*
X119263547Y-79155338D01*
X119263540Y-79155391D01*
X119271157Y-79156169D01*
X119271162Y-79156116D01*
X119278351Y-79156745D01*
X119278354Y-79156744D01*
X119278355Y-79156745D01*
X119337629Y-79155020D01*
X119353723Y-79154552D01*
X119357329Y-79154500D01*
X119633935Y-79154500D01*
X119633941Y-79154500D01*
X119656355Y-79151879D01*
X119660992Y-79151338D01*
X119675389Y-79150499D01*
X119778150Y-79150499D01*
X119778162Y-79150499D01*
X119813627Y-79147709D01*
X119965390Y-79103618D01*
X120101420Y-79023170D01*
X120213170Y-78911420D01*
X120293618Y-78775390D01*
X120337709Y-78623627D01*
X120340500Y-78588163D01*
X120340499Y-78494227D01*
X120340709Y-78487017D01*
X120342837Y-78450480D01*
X120348351Y-78355831D01*
X120342383Y-78321985D01*
X120340499Y-78300453D01*
X120340499Y-78211849D01*
X120340498Y-78211824D01*
X120337709Y-78176375D01*
X120337283Y-78174043D01*
X120337421Y-78172723D01*
X120337212Y-78170056D01*
X120337706Y-78170017D01*
X120344597Y-78104557D01*
X120371578Y-78064078D01*
X120490472Y-77945185D01*
X120578478Y-77799606D01*
X120629086Y-77637196D01*
X120635500Y-77566616D01*
X120635500Y-77053384D01*
X120629086Y-76982804D01*
X120578478Y-76820394D01*
X120490472Y-76674815D01*
X120490470Y-76674813D01*
X120490469Y-76674811D01*
X120388339Y-76572681D01*
X120354854Y-76511358D01*
X120359838Y-76441666D01*
X120388339Y-76397319D01*
X120490468Y-76295189D01*
X120490469Y-76295188D01*
X120490472Y-76295185D01*
X120578478Y-76149606D01*
X120629086Y-75987196D01*
X120635500Y-75916616D01*
X120635500Y-75861305D01*
X120655185Y-75794266D01*
X120707989Y-75748511D01*
X120777147Y-75738567D01*
X120840703Y-75767592D01*
G37*
%TD.AperFunction*%
%TD*%
M02*
