%TF.GenerationSoftware,KiCad,Pcbnew,7.0.11*%
%TF.CreationDate,2025-09-12T17:02:42-04:00*%
%TF.ProjectId,14.1.7 - PMOS - PLC Connector Combined,31342e31-2e37-4202-9d20-504d4f53202d,rev?*%
%TF.SameCoordinates,Original*%
%TF.FileFunction,Legend,Top*%
%TF.FilePolarity,Positive*%
%FSLAX46Y46*%
G04 Gerber Fmt 4.6, Leading zero omitted, Abs format (unit mm)*
G04 Created by KiCad (PCBNEW 7.0.11) date 2025-09-12 17:02:42*
%MOMM*%
%LPD*%
G01*
G04 APERTURE LIST*
G04 Aperture macros list*
%AMRoundRect*
0 Rectangle with rounded corners*
0 $1 Rounding radius*
0 $2 $3 $4 $5 $6 $7 $8 $9 X,Y pos of 4 corners*
0 Add a 4 corners polygon primitive as box body*
4,1,4,$2,$3,$4,$5,$6,$7,$8,$9,$2,$3,0*
0 Add four circle primitives for the rounded corners*
1,1,$1+$1,$2,$3*
1,1,$1+$1,$4,$5*
1,1,$1+$1,$6,$7*
1,1,$1+$1,$8,$9*
0 Add four rect primitives between the rounded corners*
20,1,$1+$1,$2,$3,$4,$5,0*
20,1,$1+$1,$4,$5,$6,$7,0*
20,1,$1+$1,$6,$7,$8,$9,0*
20,1,$1+$1,$8,$9,$2,$3,0*%
G04 Aperture macros list end*
%ADD10C,0.457200*%
%ADD11C,0.254000*%
%ADD12C,0.177800*%
%ADD13C,0.250000*%
%ADD14C,0.150000*%
%ADD15C,0.120000*%
%ADD16C,0.100000*%
%ADD17C,0.200000*%
%ADD18C,0.152400*%
%ADD19C,0.508000*%
%ADD20RoundRect,0.200000X-0.275000X0.200000X-0.275000X-0.200000X0.275000X-0.200000X0.275000X0.200000X0*%
%ADD21RoundRect,0.125000X0.125000X-0.125000X0.125000X0.125000X-0.125000X0.125000X-0.125000X-0.125000X0*%
%ADD22C,1.950000*%
%ADD23R,1.950000X1.950000*%
%ADD24RoundRect,0.572500X-3.045750X-0.572500X3.045750X-0.572500X3.045750X0.572500X-3.045750X0.572500X0*%
%ADD25C,0.500000*%
%ADD26RoundRect,0.200000X0.275000X-0.200000X0.275000X0.200000X-0.275000X0.200000X-0.275000X-0.200000X0*%
%ADD27RoundRect,0.218750X0.256250X-0.218750X0.256250X0.218750X-0.256250X0.218750X-0.256250X-0.218750X0*%
%ADD28RoundRect,0.125000X-0.125000X0.125000X-0.125000X-0.125000X0.125000X-0.125000X0.125000X0.125000X0*%
%ADD29C,1.250000*%
%ADD30RoundRect,0.200000X0.200000X0.275000X-0.200000X0.275000X-0.200000X-0.275000X0.200000X-0.275000X0*%
%ADD31RoundRect,0.250000X-0.650000X1.000000X-0.650000X-1.000000X0.650000X-1.000000X0.650000X1.000000X0*%
%ADD32RoundRect,0.150000X-0.150000X0.587500X-0.150000X-0.587500X0.150000X-0.587500X0.150000X0.587500X0*%
%ADD33RoundRect,0.200000X-0.200000X-0.275000X0.200000X-0.275000X0.200000X0.275000X-0.200000X0.275000X0*%
%ADD34RoundRect,0.375000X-0.625000X-0.375000X0.625000X-0.375000X0.625000X0.375000X-0.625000X0.375000X0*%
%ADD35RoundRect,0.500000X-0.500000X-1.400000X0.500000X-1.400000X0.500000X1.400000X-0.500000X1.400000X0*%
%ADD36RoundRect,0.250000X-1.000000X-0.650000X1.000000X-0.650000X1.000000X0.650000X-1.000000X0.650000X0*%
%ADD37RoundRect,0.125000X-0.125000X-0.125000X0.125000X-0.125000X0.125000X0.125000X-0.125000X0.125000X0*%
%ADD38RoundRect,0.250000X1.075000X-0.312500X1.075000X0.312500X-1.075000X0.312500X-1.075000X-0.312500X0*%
%ADD39RoundRect,0.250000X0.625000X-0.312500X0.625000X0.312500X-0.625000X0.312500X-0.625000X-0.312500X0*%
%ADD40C,1.498600*%
%ADD41RoundRect,0.125000X0.125000X0.125000X-0.125000X0.125000X-0.125000X-0.125000X0.125000X-0.125000X0*%
G04 APERTURE END LIST*
D10*
X80596614Y-102491571D02*
X80596614Y-103362428D01*
X80596614Y-103362428D02*
X81467471Y-103449514D01*
X81467471Y-103449514D02*
X81380386Y-103362428D01*
X81380386Y-103362428D02*
X81293300Y-103188257D01*
X81293300Y-103188257D02*
X81293300Y-102752828D01*
X81293300Y-102752828D02*
X81380386Y-102578657D01*
X81380386Y-102578657D02*
X81467471Y-102491571D01*
X81467471Y-102491571D02*
X81641643Y-102404485D01*
X81641643Y-102404485D02*
X82077071Y-102404485D01*
X82077071Y-102404485D02*
X82251243Y-102491571D01*
X82251243Y-102491571D02*
X82338329Y-102578657D01*
X82338329Y-102578657D02*
X82425414Y-102752828D01*
X82425414Y-102752828D02*
X82425414Y-103188257D01*
X82425414Y-103188257D02*
X82338329Y-103362428D01*
X82338329Y-103362428D02*
X82251243Y-103449514D01*
X81380386Y-118087171D02*
X81293300Y-118261342D01*
X81293300Y-118261342D02*
X81206214Y-118348428D01*
X81206214Y-118348428D02*
X81032043Y-118435514D01*
X81032043Y-118435514D02*
X80944957Y-118435514D01*
X80944957Y-118435514D02*
X80770786Y-118348428D01*
X80770786Y-118348428D02*
X80683700Y-118261342D01*
X80683700Y-118261342D02*
X80596614Y-118087171D01*
X80596614Y-118087171D02*
X80596614Y-117738828D01*
X80596614Y-117738828D02*
X80683700Y-117564657D01*
X80683700Y-117564657D02*
X80770786Y-117477571D01*
X80770786Y-117477571D02*
X80944957Y-117390485D01*
X80944957Y-117390485D02*
X81032043Y-117390485D01*
X81032043Y-117390485D02*
X81206214Y-117477571D01*
X81206214Y-117477571D02*
X81293300Y-117564657D01*
X81293300Y-117564657D02*
X81380386Y-117738828D01*
X81380386Y-117738828D02*
X81380386Y-118087171D01*
X81380386Y-118087171D02*
X81467471Y-118261342D01*
X81467471Y-118261342D02*
X81554557Y-118348428D01*
X81554557Y-118348428D02*
X81728729Y-118435514D01*
X81728729Y-118435514D02*
X82077071Y-118435514D01*
X82077071Y-118435514D02*
X82251243Y-118348428D01*
X82251243Y-118348428D02*
X82338329Y-118261342D01*
X82338329Y-118261342D02*
X82425414Y-118087171D01*
X82425414Y-118087171D02*
X82425414Y-117738828D01*
X82425414Y-117738828D02*
X82338329Y-117564657D01*
X82338329Y-117564657D02*
X82251243Y-117477571D01*
X82251243Y-117477571D02*
X82077071Y-117390485D01*
X82077071Y-117390485D02*
X81728729Y-117390485D01*
X81728729Y-117390485D02*
X81554557Y-117477571D01*
X81554557Y-117477571D02*
X81467471Y-117564657D01*
X81467471Y-117564657D02*
X81380386Y-117738828D01*
D11*
X121797547Y-122789009D02*
X122813547Y-122789009D01*
X122813547Y-122789009D02*
X122087832Y-123127676D01*
X122087832Y-123127676D02*
X122813547Y-123466343D01*
X122813547Y-123466343D02*
X121797547Y-123466343D01*
D10*
X98143036Y-87916738D02*
X98055950Y-87829652D01*
X98055950Y-87829652D02*
X97968864Y-87655481D01*
X97968864Y-87655481D02*
X97968864Y-87220052D01*
X97968864Y-87220052D02*
X98055950Y-87045881D01*
X98055950Y-87045881D02*
X98143036Y-86958795D01*
X98143036Y-86958795D02*
X98317207Y-86871709D01*
X98317207Y-86871709D02*
X98491379Y-86871709D01*
X98491379Y-86871709D02*
X98752636Y-86958795D01*
X98752636Y-86958795D02*
X99797664Y-88003823D01*
X99797664Y-88003823D02*
X99797664Y-86871709D01*
X82752414Y-71433942D02*
X82752414Y-72304799D01*
X82752414Y-72304799D02*
X80923614Y-72304799D01*
X81460214Y-97244657D02*
X82679414Y-97244657D01*
X80763529Y-97680085D02*
X82069814Y-98115514D01*
X82069814Y-98115514D02*
X82069814Y-96983399D01*
D11*
X122606545Y-118456343D02*
X122654926Y-118359581D01*
X122654926Y-118359581D02*
X122751688Y-118262819D01*
X122751688Y-118262819D02*
X122896830Y-118117676D01*
X122896830Y-118117676D02*
X122945211Y-118020914D01*
X122945211Y-118020914D02*
X122945211Y-117924152D01*
X122703307Y-117972533D02*
X122751688Y-117875771D01*
X122751688Y-117875771D02*
X122848449Y-117779009D01*
X122848449Y-117779009D02*
X123041973Y-117730628D01*
X123041973Y-117730628D02*
X123380640Y-117730628D01*
X123380640Y-117730628D02*
X123574164Y-117779009D01*
X123574164Y-117779009D02*
X123670926Y-117875771D01*
X123670926Y-117875771D02*
X123719307Y-117972533D01*
X123719307Y-117972533D02*
X123719307Y-118166057D01*
X123719307Y-118166057D02*
X123670926Y-118262819D01*
X123670926Y-118262819D02*
X123574164Y-118359581D01*
X123574164Y-118359581D02*
X123380640Y-118407962D01*
X123380640Y-118407962D02*
X123041973Y-118407962D01*
X123041973Y-118407962D02*
X122848449Y-118359581D01*
X122848449Y-118359581D02*
X122751688Y-118262819D01*
X122751688Y-118262819D02*
X122703307Y-118166057D01*
X122703307Y-118166057D02*
X122703307Y-117972533D01*
X121744880Y-118214438D02*
X121067547Y-118214438D01*
X122131928Y-117972533D02*
X121406213Y-117730628D01*
X121406213Y-117730628D02*
X121406213Y-118359581D01*
D10*
X97968864Y-113657823D02*
X97968864Y-112438623D01*
X97968864Y-112438623D02*
X99797664Y-113222395D01*
X82552414Y-78009599D02*
X80723614Y-78009599D01*
X80723614Y-78009599D02*
X82029900Y-77399999D01*
X82029900Y-77399999D02*
X80723614Y-76790399D01*
X80723614Y-76790399D02*
X82552414Y-76790399D01*
X80723614Y-93122599D02*
X80723614Y-91990485D01*
X80723614Y-91990485D02*
X81420300Y-92600085D01*
X81420300Y-92600085D02*
X81420300Y-92338828D01*
X81420300Y-92338828D02*
X81507386Y-92164657D01*
X81507386Y-92164657D02*
X81594471Y-92077571D01*
X81594471Y-92077571D02*
X81768643Y-91990485D01*
X81768643Y-91990485D02*
X82204071Y-91990485D01*
X82204071Y-91990485D02*
X82378243Y-92077571D01*
X82378243Y-92077571D02*
X82465329Y-92164657D01*
X82465329Y-92164657D02*
X82552414Y-92338828D01*
X82552414Y-92338828D02*
X82552414Y-92861342D01*
X82552414Y-92861342D02*
X82465329Y-93035514D01*
X82465329Y-93035514D02*
X82378243Y-93122599D01*
D11*
X121797547Y-92339009D02*
X122813547Y-92339009D01*
X122813547Y-92339009D02*
X122087832Y-92677676D01*
X122087832Y-92677676D02*
X122813547Y-93016343D01*
X122813547Y-93016343D02*
X121797547Y-93016343D01*
D12*
X94319818Y-77725290D02*
X94827818Y-77725290D01*
X94827818Y-77725290D02*
X94929418Y-77759157D01*
X94929418Y-77759157D02*
X94997152Y-77826890D01*
X94997152Y-77826890D02*
X95031018Y-77928490D01*
X95031018Y-77928490D02*
X95031018Y-77996224D01*
X95031018Y-77047957D02*
X95031018Y-77386623D01*
X95031018Y-77386623D02*
X94319818Y-77386623D01*
X94963285Y-76404490D02*
X94997152Y-76438357D01*
X94997152Y-76438357D02*
X95031018Y-76539957D01*
X95031018Y-76539957D02*
X95031018Y-76607690D01*
X95031018Y-76607690D02*
X94997152Y-76709290D01*
X94997152Y-76709290D02*
X94929418Y-76777024D01*
X94929418Y-76777024D02*
X94861685Y-76810890D01*
X94861685Y-76810890D02*
X94726218Y-76844757D01*
X94726218Y-76844757D02*
X94624618Y-76844757D01*
X94624618Y-76844757D02*
X94489152Y-76810890D01*
X94489152Y-76810890D02*
X94421418Y-76777024D01*
X94421418Y-76777024D02*
X94353685Y-76709290D01*
X94353685Y-76709290D02*
X94319818Y-76607690D01*
X94319818Y-76607690D02*
X94319818Y-76539957D01*
X94319818Y-76539957D02*
X94353685Y-76438357D01*
X94353685Y-76438357D02*
X94387552Y-76404490D01*
X94319818Y-75896490D02*
X94827818Y-75896490D01*
X94827818Y-75896490D02*
X94929418Y-75930357D01*
X94929418Y-75930357D02*
X94997152Y-75998090D01*
X94997152Y-75998090D02*
X95031018Y-76099690D01*
X95031018Y-76099690D02*
X95031018Y-76167424D01*
X95031018Y-75219157D02*
X95031018Y-75557823D01*
X95031018Y-75557823D02*
X94319818Y-75557823D01*
X94963285Y-74575690D02*
X94997152Y-74609557D01*
X94997152Y-74609557D02*
X95031018Y-74711157D01*
X95031018Y-74711157D02*
X95031018Y-74778890D01*
X95031018Y-74778890D02*
X94997152Y-74880490D01*
X94997152Y-74880490D02*
X94929418Y-74948224D01*
X94929418Y-74948224D02*
X94861685Y-74982090D01*
X94861685Y-74982090D02*
X94726218Y-75015957D01*
X94726218Y-75015957D02*
X94624618Y-75015957D01*
X94624618Y-75015957D02*
X94489152Y-74982090D01*
X94489152Y-74982090D02*
X94421418Y-74948224D01*
X94421418Y-74948224D02*
X94353685Y-74880490D01*
X94353685Y-74880490D02*
X94319818Y-74778890D01*
X94319818Y-74778890D02*
X94319818Y-74711157D01*
X94319818Y-74711157D02*
X94353685Y-74609557D01*
X94353685Y-74609557D02*
X94387552Y-74575690D01*
X94319818Y-74067690D02*
X94827818Y-74067690D01*
X94827818Y-74067690D02*
X94929418Y-74101557D01*
X94929418Y-74101557D02*
X94997152Y-74169290D01*
X94997152Y-74169290D02*
X95031018Y-74270890D01*
X95031018Y-74270890D02*
X95031018Y-74338624D01*
X95031018Y-73390357D02*
X95031018Y-73729023D01*
X95031018Y-73729023D02*
X94319818Y-73729023D01*
X94963285Y-72746890D02*
X94997152Y-72780757D01*
X94997152Y-72780757D02*
X95031018Y-72882357D01*
X95031018Y-72882357D02*
X95031018Y-72950090D01*
X95031018Y-72950090D02*
X94997152Y-73051690D01*
X94997152Y-73051690D02*
X94929418Y-73119424D01*
X94929418Y-73119424D02*
X94861685Y-73153290D01*
X94861685Y-73153290D02*
X94726218Y-73187157D01*
X94726218Y-73187157D02*
X94624618Y-73187157D01*
X94624618Y-73187157D02*
X94489152Y-73153290D01*
X94489152Y-73153290D02*
X94421418Y-73119424D01*
X94421418Y-73119424D02*
X94353685Y-73051690D01*
X94353685Y-73051690D02*
X94319818Y-72950090D01*
X94319818Y-72950090D02*
X94319818Y-72882357D01*
X94319818Y-72882357D02*
X94353685Y-72780757D01*
X94353685Y-72780757D02*
X94387552Y-72746890D01*
X94319818Y-72238890D02*
X94827818Y-72238890D01*
X94827818Y-72238890D02*
X94929418Y-72272757D01*
X94929418Y-72272757D02*
X94997152Y-72340490D01*
X94997152Y-72340490D02*
X95031018Y-72442090D01*
X95031018Y-72442090D02*
X95031018Y-72509824D01*
X95031018Y-71561557D02*
X95031018Y-71900223D01*
X95031018Y-71900223D02*
X94319818Y-71900223D01*
X94963285Y-70918090D02*
X94997152Y-70951957D01*
X94997152Y-70951957D02*
X95031018Y-71053557D01*
X95031018Y-71053557D02*
X95031018Y-71121290D01*
X95031018Y-71121290D02*
X94997152Y-71222890D01*
X94997152Y-71222890D02*
X94929418Y-71290624D01*
X94929418Y-71290624D02*
X94861685Y-71324490D01*
X94861685Y-71324490D02*
X94726218Y-71358357D01*
X94726218Y-71358357D02*
X94624618Y-71358357D01*
X94624618Y-71358357D02*
X94489152Y-71324490D01*
X94489152Y-71324490D02*
X94421418Y-71290624D01*
X94421418Y-71290624D02*
X94353685Y-71222890D01*
X94353685Y-71222890D02*
X94319818Y-71121290D01*
X94319818Y-71121290D02*
X94319818Y-71053557D01*
X94319818Y-71053557D02*
X94353685Y-70951957D01*
X94353685Y-70951957D02*
X94387552Y-70918090D01*
D11*
X121797547Y-77109009D02*
X122813547Y-77109009D01*
X122813547Y-77109009D02*
X122087832Y-77447676D01*
X122087832Y-77447676D02*
X122813547Y-77786343D01*
X122813547Y-77786343D02*
X121797547Y-77786343D01*
X122746545Y-88036343D02*
X122794926Y-87939581D01*
X122794926Y-87939581D02*
X122891688Y-87842819D01*
X122891688Y-87842819D02*
X123036830Y-87697676D01*
X123036830Y-87697676D02*
X123085211Y-87600914D01*
X123085211Y-87600914D02*
X123085211Y-87504152D01*
X122843307Y-87552533D02*
X122891688Y-87455771D01*
X122891688Y-87455771D02*
X122988449Y-87359009D01*
X122988449Y-87359009D02*
X123181973Y-87310628D01*
X123181973Y-87310628D02*
X123520640Y-87310628D01*
X123520640Y-87310628D02*
X123714164Y-87359009D01*
X123714164Y-87359009D02*
X123810926Y-87455771D01*
X123810926Y-87455771D02*
X123859307Y-87552533D01*
X123859307Y-87552533D02*
X123859307Y-87746057D01*
X123859307Y-87746057D02*
X123810926Y-87842819D01*
X123810926Y-87842819D02*
X123714164Y-87939581D01*
X123714164Y-87939581D02*
X123520640Y-87987962D01*
X123520640Y-87987962D02*
X123181973Y-87987962D01*
X123181973Y-87987962D02*
X122988449Y-87939581D01*
X122988449Y-87939581D02*
X122891688Y-87842819D01*
X122891688Y-87842819D02*
X122843307Y-87746057D01*
X122843307Y-87746057D02*
X122843307Y-87552533D01*
X122126785Y-87310628D02*
X122175166Y-87359009D01*
X122175166Y-87359009D02*
X122223547Y-87455771D01*
X122223547Y-87455771D02*
X122223547Y-87697676D01*
X122223547Y-87697676D02*
X122175166Y-87794438D01*
X122175166Y-87794438D02*
X122126785Y-87842819D01*
X122126785Y-87842819D02*
X122030023Y-87891200D01*
X122030023Y-87891200D02*
X121933261Y-87891200D01*
X121933261Y-87891200D02*
X121788118Y-87842819D01*
X121788118Y-87842819D02*
X121207547Y-87262247D01*
X121207547Y-87262247D02*
X121207547Y-87891200D01*
D10*
X80469614Y-107658657D02*
X80469614Y-108006999D01*
X80469614Y-108006999D02*
X80556700Y-108181171D01*
X80556700Y-108181171D02*
X80643786Y-108268257D01*
X80643786Y-108268257D02*
X80905043Y-108442428D01*
X80905043Y-108442428D02*
X81253386Y-108529514D01*
X81253386Y-108529514D02*
X81950071Y-108529514D01*
X81950071Y-108529514D02*
X82124243Y-108442428D01*
X82124243Y-108442428D02*
X82211329Y-108355342D01*
X82211329Y-108355342D02*
X82298414Y-108181171D01*
X82298414Y-108181171D02*
X82298414Y-107832828D01*
X82298414Y-107832828D02*
X82211329Y-107658657D01*
X82211329Y-107658657D02*
X82124243Y-107571571D01*
X82124243Y-107571571D02*
X81950071Y-107484485D01*
X81950071Y-107484485D02*
X81514643Y-107484485D01*
X81514643Y-107484485D02*
X81340471Y-107571571D01*
X81340471Y-107571571D02*
X81253386Y-107658657D01*
X81253386Y-107658657D02*
X81166300Y-107832828D01*
X81166300Y-107832828D02*
X81166300Y-108181171D01*
X81166300Y-108181171D02*
X81253386Y-108355342D01*
X81253386Y-108355342D02*
X81340471Y-108442428D01*
X81340471Y-108442428D02*
X81514643Y-108529514D01*
D11*
X122776545Y-103156343D02*
X122824926Y-103059581D01*
X122824926Y-103059581D02*
X122921688Y-102962819D01*
X122921688Y-102962819D02*
X123066830Y-102817676D01*
X123066830Y-102817676D02*
X123115211Y-102720914D01*
X123115211Y-102720914D02*
X123115211Y-102624152D01*
X122873307Y-102672533D02*
X122921688Y-102575771D01*
X122921688Y-102575771D02*
X123018449Y-102479009D01*
X123018449Y-102479009D02*
X123211973Y-102430628D01*
X123211973Y-102430628D02*
X123550640Y-102430628D01*
X123550640Y-102430628D02*
X123744164Y-102479009D01*
X123744164Y-102479009D02*
X123840926Y-102575771D01*
X123840926Y-102575771D02*
X123889307Y-102672533D01*
X123889307Y-102672533D02*
X123889307Y-102866057D01*
X123889307Y-102866057D02*
X123840926Y-102962819D01*
X123840926Y-102962819D02*
X123744164Y-103059581D01*
X123744164Y-103059581D02*
X123550640Y-103107962D01*
X123550640Y-103107962D02*
X123211973Y-103107962D01*
X123211973Y-103107962D02*
X123018449Y-103059581D01*
X123018449Y-103059581D02*
X122921688Y-102962819D01*
X122921688Y-102962819D02*
X122873307Y-102866057D01*
X122873307Y-102866057D02*
X122873307Y-102672533D01*
X122253547Y-102382247D02*
X122253547Y-103011200D01*
X122253547Y-103011200D02*
X121866499Y-102672533D01*
X121866499Y-102672533D02*
X121866499Y-102817676D01*
X121866499Y-102817676D02*
X121818118Y-102914438D01*
X121818118Y-102914438D02*
X121769737Y-102962819D01*
X121769737Y-102962819D02*
X121672975Y-103011200D01*
X121672975Y-103011200D02*
X121431070Y-103011200D01*
X121431070Y-103011200D02*
X121334308Y-102962819D01*
X121334308Y-102962819D02*
X121285928Y-102914438D01*
X121285928Y-102914438D02*
X121237547Y-102817676D01*
X121237547Y-102817676D02*
X121237547Y-102527390D01*
X121237547Y-102527390D02*
X121285928Y-102430628D01*
X121285928Y-102430628D02*
X121334308Y-102382247D01*
X122436545Y-72656343D02*
X122484926Y-72559581D01*
X122484926Y-72559581D02*
X122581688Y-72462819D01*
X122581688Y-72462819D02*
X122726830Y-72317676D01*
X122726830Y-72317676D02*
X122775211Y-72220914D01*
X122775211Y-72220914D02*
X122775211Y-72124152D01*
X122533307Y-72172533D02*
X122581688Y-72075771D01*
X122581688Y-72075771D02*
X122678449Y-71979009D01*
X122678449Y-71979009D02*
X122871973Y-71930628D01*
X122871973Y-71930628D02*
X123210640Y-71930628D01*
X123210640Y-71930628D02*
X123404164Y-71979009D01*
X123404164Y-71979009D02*
X123500926Y-72075771D01*
X123500926Y-72075771D02*
X123549307Y-72172533D01*
X123549307Y-72172533D02*
X123549307Y-72366057D01*
X123549307Y-72366057D02*
X123500926Y-72462819D01*
X123500926Y-72462819D02*
X123404164Y-72559581D01*
X123404164Y-72559581D02*
X123210640Y-72607962D01*
X123210640Y-72607962D02*
X122871973Y-72607962D01*
X122871973Y-72607962D02*
X122678449Y-72559581D01*
X122678449Y-72559581D02*
X122581688Y-72462819D01*
X122581688Y-72462819D02*
X122533307Y-72366057D01*
X122533307Y-72366057D02*
X122533307Y-72172533D01*
X120897547Y-72511200D02*
X120897547Y-71930628D01*
X120897547Y-72220914D02*
X121913547Y-72220914D01*
X121913547Y-72220914D02*
X121768404Y-72124152D01*
X121768404Y-72124152D02*
X121671642Y-72027390D01*
X121671642Y-72027390D02*
X121623261Y-71930628D01*
D10*
X80770786Y-87828514D02*
X80683700Y-87741428D01*
X80683700Y-87741428D02*
X80596614Y-87567257D01*
X80596614Y-87567257D02*
X80596614Y-87131828D01*
X80596614Y-87131828D02*
X80683700Y-86957657D01*
X80683700Y-86957657D02*
X80770786Y-86870571D01*
X80770786Y-86870571D02*
X80944957Y-86783485D01*
X80944957Y-86783485D02*
X81119129Y-86783485D01*
X81119129Y-86783485D02*
X81380386Y-86870571D01*
X81380386Y-86870571D02*
X82425414Y-87915599D01*
X82425414Y-87915599D02*
X82425414Y-86783485D01*
D12*
X105471431Y-103294933D02*
X104963431Y-103294933D01*
X104963431Y-103294933D02*
X104861831Y-103261066D01*
X104861831Y-103261066D02*
X104794098Y-103193333D01*
X104794098Y-103193333D02*
X104760231Y-103091733D01*
X104760231Y-103091733D02*
X104760231Y-103024000D01*
X104760231Y-103972267D02*
X104760231Y-103633600D01*
X104760231Y-103633600D02*
X105471431Y-103633600D01*
X104827964Y-104615733D02*
X104794098Y-104581866D01*
X104794098Y-104581866D02*
X104760231Y-104480266D01*
X104760231Y-104480266D02*
X104760231Y-104412533D01*
X104760231Y-104412533D02*
X104794098Y-104310933D01*
X104794098Y-104310933D02*
X104861831Y-104243200D01*
X104861831Y-104243200D02*
X104929564Y-104209333D01*
X104929564Y-104209333D02*
X105065031Y-104175466D01*
X105065031Y-104175466D02*
X105166631Y-104175466D01*
X105166631Y-104175466D02*
X105302098Y-104209333D01*
X105302098Y-104209333D02*
X105369831Y-104243200D01*
X105369831Y-104243200D02*
X105437564Y-104310933D01*
X105437564Y-104310933D02*
X105471431Y-104412533D01*
X105471431Y-104412533D02*
X105471431Y-104480266D01*
X105471431Y-104480266D02*
X105437564Y-104581866D01*
X105437564Y-104581866D02*
X105403698Y-104615733D01*
X105471431Y-105123733D02*
X104963431Y-105123733D01*
X104963431Y-105123733D02*
X104861831Y-105089866D01*
X104861831Y-105089866D02*
X104794098Y-105022133D01*
X104794098Y-105022133D02*
X104760231Y-104920533D01*
X104760231Y-104920533D02*
X104760231Y-104852800D01*
X104760231Y-105801067D02*
X104760231Y-105462400D01*
X104760231Y-105462400D02*
X105471431Y-105462400D01*
X104827964Y-106444533D02*
X104794098Y-106410666D01*
X104794098Y-106410666D02*
X104760231Y-106309066D01*
X104760231Y-106309066D02*
X104760231Y-106241333D01*
X104760231Y-106241333D02*
X104794098Y-106139733D01*
X104794098Y-106139733D02*
X104861831Y-106072000D01*
X104861831Y-106072000D02*
X104929564Y-106038133D01*
X104929564Y-106038133D02*
X105065031Y-106004266D01*
X105065031Y-106004266D02*
X105166631Y-106004266D01*
X105166631Y-106004266D02*
X105302098Y-106038133D01*
X105302098Y-106038133D02*
X105369831Y-106072000D01*
X105369831Y-106072000D02*
X105437564Y-106139733D01*
X105437564Y-106139733D02*
X105471431Y-106241333D01*
X105471431Y-106241333D02*
X105471431Y-106309066D01*
X105471431Y-106309066D02*
X105437564Y-106410666D01*
X105437564Y-106410666D02*
X105403698Y-106444533D01*
X105471431Y-106952533D02*
X104963431Y-106952533D01*
X104963431Y-106952533D02*
X104861831Y-106918666D01*
X104861831Y-106918666D02*
X104794098Y-106850933D01*
X104794098Y-106850933D02*
X104760231Y-106749333D01*
X104760231Y-106749333D02*
X104760231Y-106681600D01*
X104760231Y-107629867D02*
X104760231Y-107291200D01*
X104760231Y-107291200D02*
X105471431Y-107291200D01*
X104827964Y-108273333D02*
X104794098Y-108239466D01*
X104794098Y-108239466D02*
X104760231Y-108137866D01*
X104760231Y-108137866D02*
X104760231Y-108070133D01*
X104760231Y-108070133D02*
X104794098Y-107968533D01*
X104794098Y-107968533D02*
X104861831Y-107900800D01*
X104861831Y-107900800D02*
X104929564Y-107866933D01*
X104929564Y-107866933D02*
X105065031Y-107833066D01*
X105065031Y-107833066D02*
X105166631Y-107833066D01*
X105166631Y-107833066D02*
X105302098Y-107866933D01*
X105302098Y-107866933D02*
X105369831Y-107900800D01*
X105369831Y-107900800D02*
X105437564Y-107968533D01*
X105437564Y-107968533D02*
X105471431Y-108070133D01*
X105471431Y-108070133D02*
X105471431Y-108137866D01*
X105471431Y-108137866D02*
X105437564Y-108239466D01*
X105437564Y-108239466D02*
X105403698Y-108273333D01*
X105471431Y-108781333D02*
X104963431Y-108781333D01*
X104963431Y-108781333D02*
X104861831Y-108747466D01*
X104861831Y-108747466D02*
X104794098Y-108679733D01*
X104794098Y-108679733D02*
X104760231Y-108578133D01*
X104760231Y-108578133D02*
X104760231Y-108510400D01*
X104760231Y-109458667D02*
X104760231Y-109120000D01*
X104760231Y-109120000D02*
X105471431Y-109120000D01*
X104827964Y-110102133D02*
X104794098Y-110068266D01*
X104794098Y-110068266D02*
X104760231Y-109966666D01*
X104760231Y-109966666D02*
X104760231Y-109898933D01*
X104760231Y-109898933D02*
X104794098Y-109797333D01*
X104794098Y-109797333D02*
X104861831Y-109729600D01*
X104861831Y-109729600D02*
X104929564Y-109695733D01*
X104929564Y-109695733D02*
X105065031Y-109661866D01*
X105065031Y-109661866D02*
X105166631Y-109661866D01*
X105166631Y-109661866D02*
X105302098Y-109695733D01*
X105302098Y-109695733D02*
X105369831Y-109729600D01*
X105369831Y-109729600D02*
X105437564Y-109797333D01*
X105437564Y-109797333D02*
X105471431Y-109898933D01*
X105471431Y-109898933D02*
X105471431Y-109966666D01*
X105471431Y-109966666D02*
X105437564Y-110068266D01*
X105437564Y-110068266D02*
X105403698Y-110102133D01*
D10*
X97968864Y-93337823D02*
X97968864Y-92205709D01*
X97968864Y-92205709D02*
X98665550Y-92815309D01*
X98665550Y-92815309D02*
X98665550Y-92554052D01*
X98665550Y-92554052D02*
X98752636Y-92379881D01*
X98752636Y-92379881D02*
X98839721Y-92292795D01*
X98839721Y-92292795D02*
X99013893Y-92205709D01*
X99013893Y-92205709D02*
X99449321Y-92205709D01*
X99449321Y-92205709D02*
X99623493Y-92292795D01*
X99623493Y-92292795D02*
X99710579Y-92379881D01*
X99710579Y-92379881D02*
X99797664Y-92554052D01*
X99797664Y-92554052D02*
X99797664Y-93076566D01*
X99797664Y-93076566D02*
X99710579Y-93250738D01*
X99710579Y-93250738D02*
X99623493Y-93337823D01*
X97968864Y-102579795D02*
X97968864Y-103450652D01*
X97968864Y-103450652D02*
X98839721Y-103537738D01*
X98839721Y-103537738D02*
X98752636Y-103450652D01*
X98752636Y-103450652D02*
X98665550Y-103276481D01*
X98665550Y-103276481D02*
X98665550Y-102841052D01*
X98665550Y-102841052D02*
X98752636Y-102666881D01*
X98752636Y-102666881D02*
X98839721Y-102579795D01*
X98839721Y-102579795D02*
X99013893Y-102492709D01*
X99013893Y-102492709D02*
X99449321Y-102492709D01*
X99449321Y-102492709D02*
X99623493Y-102579795D01*
X99623493Y-102579795D02*
X99710579Y-102666881D01*
X99710579Y-102666881D02*
X99797664Y-102841052D01*
X99797664Y-102841052D02*
X99797664Y-103276481D01*
X99797664Y-103276481D02*
X99710579Y-103450652D01*
X99710579Y-103450652D02*
X99623493Y-103537738D01*
D11*
X121797547Y-107589009D02*
X122813547Y-107589009D01*
X122813547Y-107589009D02*
X122087832Y-107927676D01*
X122087832Y-107927676D02*
X122813547Y-108266343D01*
X122813547Y-108266343D02*
X121797547Y-108266343D01*
D10*
X97968864Y-107873881D02*
X97968864Y-108222223D01*
X97968864Y-108222223D02*
X98055950Y-108396395D01*
X98055950Y-108396395D02*
X98143036Y-108483481D01*
X98143036Y-108483481D02*
X98404293Y-108657652D01*
X98404293Y-108657652D02*
X98752636Y-108744738D01*
X98752636Y-108744738D02*
X99449321Y-108744738D01*
X99449321Y-108744738D02*
X99623493Y-108657652D01*
X99623493Y-108657652D02*
X99710579Y-108570566D01*
X99710579Y-108570566D02*
X99797664Y-108396395D01*
X99797664Y-108396395D02*
X99797664Y-108048052D01*
X99797664Y-108048052D02*
X99710579Y-107873881D01*
X99710579Y-107873881D02*
X99623493Y-107786795D01*
X99623493Y-107786795D02*
X99449321Y-107699709D01*
X99449321Y-107699709D02*
X99013893Y-107699709D01*
X99013893Y-107699709D02*
X98839721Y-107786795D01*
X98839721Y-107786795D02*
X98752636Y-107873881D01*
X98752636Y-107873881D02*
X98665550Y-108048052D01*
X98665550Y-108048052D02*
X98665550Y-108396395D01*
X98665550Y-108396395D02*
X98752636Y-108570566D01*
X98752636Y-108570566D02*
X98839721Y-108657652D01*
X98839721Y-108657652D02*
X99013893Y-108744738D01*
X84655729Y-72696685D02*
X84655729Y-71303314D01*
X85352414Y-71999999D02*
X83959043Y-71999999D01*
X98324464Y-97713881D02*
X99543664Y-97713881D01*
X97627779Y-98149309D02*
X98934064Y-98584738D01*
X98934064Y-98584738D02*
X98934064Y-97452623D01*
X98625636Y-118048395D02*
X98538550Y-118222566D01*
X98538550Y-118222566D02*
X98451464Y-118309652D01*
X98451464Y-118309652D02*
X98277293Y-118396738D01*
X98277293Y-118396738D02*
X98190207Y-118396738D01*
X98190207Y-118396738D02*
X98016036Y-118309652D01*
X98016036Y-118309652D02*
X97928950Y-118222566D01*
X97928950Y-118222566D02*
X97841864Y-118048395D01*
X97841864Y-118048395D02*
X97841864Y-117700052D01*
X97841864Y-117700052D02*
X97928950Y-117525881D01*
X97928950Y-117525881D02*
X98016036Y-117438795D01*
X98016036Y-117438795D02*
X98190207Y-117351709D01*
X98190207Y-117351709D02*
X98277293Y-117351709D01*
X98277293Y-117351709D02*
X98451464Y-117438795D01*
X98451464Y-117438795D02*
X98538550Y-117525881D01*
X98538550Y-117525881D02*
X98625636Y-117700052D01*
X98625636Y-117700052D02*
X98625636Y-118048395D01*
X98625636Y-118048395D02*
X98712721Y-118222566D01*
X98712721Y-118222566D02*
X98799807Y-118309652D01*
X98799807Y-118309652D02*
X98973979Y-118396738D01*
X98973979Y-118396738D02*
X99322321Y-118396738D01*
X99322321Y-118396738D02*
X99496493Y-118309652D01*
X99496493Y-118309652D02*
X99583579Y-118222566D01*
X99583579Y-118222566D02*
X99670664Y-118048395D01*
X99670664Y-118048395D02*
X99670664Y-117700052D01*
X99670664Y-117700052D02*
X99583579Y-117525881D01*
X99583579Y-117525881D02*
X99496493Y-117438795D01*
X99496493Y-117438795D02*
X99322321Y-117351709D01*
X99322321Y-117351709D02*
X98973979Y-117351709D01*
X98973979Y-117351709D02*
X98799807Y-117438795D01*
X98799807Y-117438795D02*
X98712721Y-117525881D01*
X98712721Y-117525881D02*
X98625636Y-117700052D01*
X80596614Y-113696599D02*
X80596614Y-112477399D01*
X80596614Y-112477399D02*
X82425414Y-113261171D01*
X99797664Y-77994611D02*
X97968864Y-77994611D01*
X97968864Y-77994611D02*
X99275150Y-77385011D01*
X99275150Y-77385011D02*
X97968864Y-76775411D01*
X97968864Y-76775411D02*
X99797664Y-76775411D01*
X99797664Y-82172709D02*
X99797664Y-83217738D01*
X99797664Y-82695223D02*
X97968864Y-82695223D01*
X97968864Y-82695223D02*
X98230121Y-82869395D01*
X98230121Y-82869395D02*
X98404293Y-83043566D01*
X98404293Y-83043566D02*
X98491379Y-83217738D01*
X82552414Y-81830485D02*
X82552414Y-82875514D01*
X82552414Y-82352999D02*
X80723614Y-82352999D01*
X80723614Y-82352999D02*
X80984871Y-82527171D01*
X80984871Y-82527171D02*
X81159043Y-82701342D01*
X81159043Y-82701342D02*
X81246129Y-82875514D01*
D13*
G36*
X102450000Y-69358900D02*
G01*
X102450000Y-68478893D01*
X103434787Y-68478893D01*
X103434787Y-68811919D01*
X102637578Y-68811919D01*
X102637578Y-69358900D01*
X102450000Y-69358900D01*
G37*
G36*
X102778262Y-70631650D02*
G01*
X102778262Y-70234877D01*
X102512526Y-70234877D01*
X102512526Y-70026782D01*
X102778262Y-70026782D01*
X102778262Y-69627812D01*
X102918946Y-69627812D01*
X102918946Y-70026782D01*
X103184682Y-70026782D01*
X103184682Y-70234877D01*
X102918946Y-70234877D01*
X102918946Y-70631650D01*
X102778262Y-70631650D01*
G37*
G36*
X102944124Y-73259046D02*
G01*
X102958384Y-73259641D01*
X102972473Y-73260632D01*
X102986391Y-73262019D01*
X103000138Y-73263803D01*
X103013713Y-73265984D01*
X103027117Y-73268560D01*
X103040350Y-73271533D01*
X103053411Y-73274903D01*
X103066301Y-73278669D01*
X103079020Y-73282831D01*
X103091568Y-73287390D01*
X103103945Y-73292345D01*
X103116150Y-73297697D01*
X103128184Y-73303445D01*
X103140047Y-73309590D01*
X103151738Y-73316130D01*
X103163258Y-73323068D01*
X103174607Y-73330401D01*
X103185785Y-73338132D01*
X103196791Y-73346258D01*
X103207627Y-73354781D01*
X103218290Y-73363701D01*
X103228783Y-73373016D01*
X103239104Y-73382729D01*
X103249255Y-73392837D01*
X103259234Y-73403342D01*
X103269041Y-73414244D01*
X103278678Y-73425542D01*
X103288143Y-73437236D01*
X103297437Y-73449327D01*
X103306559Y-73461814D01*
X103315410Y-73474561D01*
X103323980Y-73487571D01*
X103332268Y-73500842D01*
X103340276Y-73514376D01*
X103348003Y-73528171D01*
X103355449Y-73542228D01*
X103362614Y-73556547D01*
X103369497Y-73571128D01*
X103376100Y-73585971D01*
X103382422Y-73601075D01*
X103388463Y-73616442D01*
X103394223Y-73632070D01*
X103399702Y-73647961D01*
X103404900Y-73664113D01*
X103409817Y-73680527D01*
X103414453Y-73697203D01*
X103418809Y-73714141D01*
X103422883Y-73731341D01*
X103426676Y-73748802D01*
X103430188Y-73766526D01*
X103433419Y-73784511D01*
X103436369Y-73802759D01*
X103439039Y-73821268D01*
X103441427Y-73840039D01*
X103443534Y-73859072D01*
X103445361Y-73878367D01*
X103446906Y-73897924D01*
X103448170Y-73917743D01*
X103449154Y-73937823D01*
X103449856Y-73958166D01*
X103450278Y-73978770D01*
X103450418Y-73999637D01*
X103450284Y-74019302D01*
X103449880Y-74038729D01*
X103449207Y-74057919D01*
X103448266Y-74076871D01*
X103447055Y-74095585D01*
X103445575Y-74114062D01*
X103443827Y-74132302D01*
X103441809Y-74150304D01*
X103439522Y-74168068D01*
X103436966Y-74185595D01*
X103434141Y-74202884D01*
X103431047Y-74219936D01*
X103427684Y-74236750D01*
X103424051Y-74253327D01*
X103420150Y-74269666D01*
X103415980Y-74285767D01*
X103411541Y-74301631D01*
X103406832Y-74317257D01*
X103401855Y-74332646D01*
X103396608Y-74347797D01*
X103391093Y-74362711D01*
X103385308Y-74377387D01*
X103379255Y-74391825D01*
X103372932Y-74406026D01*
X103366340Y-74419990D01*
X103359480Y-74433715D01*
X103352350Y-74447204D01*
X103344951Y-74460454D01*
X103337283Y-74473467D01*
X103329346Y-74486243D01*
X103321140Y-74498781D01*
X103312665Y-74511081D01*
X103304015Y-74523118D01*
X103295190Y-74534772D01*
X103286193Y-74546044D01*
X103277021Y-74556934D01*
X103267676Y-74567442D01*
X103258157Y-74577568D01*
X103248465Y-74587311D01*
X103238599Y-74596673D01*
X103228559Y-74605653D01*
X103218346Y-74614250D01*
X103207959Y-74622465D01*
X103197398Y-74630298D01*
X103186664Y-74637749D01*
X103175756Y-74644818D01*
X103164674Y-74651505D01*
X103153419Y-74657810D01*
X103141990Y-74663733D01*
X103130388Y-74669273D01*
X103118611Y-74674432D01*
X103106662Y-74679208D01*
X103094538Y-74683602D01*
X103082241Y-74687614D01*
X103069770Y-74691244D01*
X103057126Y-74694492D01*
X103044308Y-74697358D01*
X103031317Y-74699842D01*
X103018151Y-74701943D01*
X103004812Y-74703663D01*
X102991300Y-74705000D01*
X102977614Y-74705955D01*
X102963754Y-74706529D01*
X102949720Y-74706720D01*
X102935366Y-74706521D01*
X102921185Y-74705927D01*
X102907177Y-74704936D01*
X102893342Y-74703548D01*
X102879681Y-74701764D01*
X102866192Y-74699584D01*
X102852877Y-74697007D01*
X102839735Y-74694034D01*
X102826766Y-74690665D01*
X102813970Y-74686899D01*
X102801347Y-74682736D01*
X102788898Y-74678178D01*
X102776622Y-74673222D01*
X102764518Y-74667871D01*
X102752588Y-74662123D01*
X102740832Y-74655978D01*
X102729248Y-74649437D01*
X102717838Y-74642500D01*
X102706600Y-74635166D01*
X102695536Y-74627436D01*
X102684645Y-74619310D01*
X102673927Y-74610787D01*
X102663383Y-74601867D01*
X102653011Y-74592551D01*
X102642813Y-74582839D01*
X102632788Y-74572731D01*
X102622936Y-74562225D01*
X102613257Y-74551324D01*
X102603751Y-74540026D01*
X102594419Y-74528332D01*
X102585259Y-74516241D01*
X102576273Y-74503754D01*
X102569221Y-74493381D01*
X102566992Y-74490198D01*
X102560009Y-74479705D01*
X102558443Y-74477009D01*
X102324947Y-74850701D01*
X102324947Y-74385052D01*
X102451465Y-74189413D01*
X102448410Y-74171104D01*
X102445655Y-74152448D01*
X102443200Y-74133443D01*
X102441046Y-74114091D01*
X102439193Y-74094391D01*
X102437640Y-74074343D01*
X102436388Y-74053948D01*
X102435437Y-74033205D01*
X102434785Y-74012114D01*
X102434435Y-73990675D01*
X102434395Y-73982051D01*
X102621946Y-73982051D01*
X102622271Y-74003296D01*
X102623244Y-74023983D01*
X102624866Y-74044111D01*
X102627137Y-74063682D01*
X102630056Y-74082694D01*
X102633624Y-74101148D01*
X102637841Y-74119044D01*
X102642707Y-74136382D01*
X102648222Y-74153162D01*
X102654385Y-74169383D01*
X102661197Y-74185047D01*
X102668658Y-74200152D01*
X102676768Y-74214700D01*
X102685526Y-74228689D01*
X102694933Y-74242120D01*
X102704989Y-74254993D01*
X102715798Y-74267237D01*
X102727097Y-74278692D01*
X102738886Y-74289356D01*
X102751166Y-74299231D01*
X102763936Y-74308316D01*
X102777197Y-74316610D01*
X102790948Y-74324115D01*
X102805190Y-74330830D01*
X102819922Y-74336755D01*
X102835144Y-74341890D01*
X102850856Y-74346234D01*
X102867059Y-74349789D01*
X102883753Y-74352554D01*
X102900937Y-74354529D01*
X102918611Y-74355714D01*
X102936775Y-74356109D01*
X102955718Y-74355727D01*
X102974137Y-74354581D01*
X102992034Y-74352670D01*
X103009407Y-74349995D01*
X103026258Y-74346556D01*
X103042586Y-74342353D01*
X103058391Y-74337386D01*
X103073674Y-74331654D01*
X103088433Y-74325158D01*
X103102670Y-74317898D01*
X103116384Y-74309874D01*
X103129575Y-74301086D01*
X103142243Y-74291533D01*
X103154388Y-74281216D01*
X103166011Y-74270135D01*
X103177110Y-74258290D01*
X103187492Y-74245866D01*
X103197203Y-74232868D01*
X103206245Y-74219293D01*
X103214617Y-74205144D01*
X103222319Y-74190419D01*
X103229352Y-74175119D01*
X103235714Y-74159244D01*
X103241407Y-74142793D01*
X103246431Y-74125768D01*
X103250784Y-74108166D01*
X103254468Y-74089990D01*
X103257482Y-74071238D01*
X103259826Y-74051911D01*
X103261500Y-74032008D01*
X103262505Y-74011531D01*
X103262840Y-73990478D01*
X103262493Y-73968954D01*
X103261454Y-73947979D01*
X103259723Y-73927554D01*
X103257298Y-73907679D01*
X103254181Y-73888353D01*
X103250372Y-73869577D01*
X103245870Y-73851351D01*
X103240675Y-73833674D01*
X103234787Y-73816546D01*
X103228207Y-73799968D01*
X103220934Y-73783940D01*
X103212968Y-73768461D01*
X103204310Y-73753531D01*
X103194959Y-73739152D01*
X103184916Y-73725321D01*
X103174180Y-73712041D01*
X103162964Y-73699574D01*
X103151301Y-73687912D01*
X103139189Y-73677054D01*
X103126629Y-73667001D01*
X103113620Y-73657751D01*
X103100163Y-73649307D01*
X103086257Y-73641666D01*
X103071903Y-73634829D01*
X103057100Y-73628797D01*
X103041850Y-73623569D01*
X103026150Y-73619146D01*
X103010003Y-73615527D01*
X102993406Y-73612712D01*
X102976362Y-73610701D01*
X102958869Y-73609494D01*
X102940928Y-73609092D01*
X102922757Y-73609494D01*
X102905066Y-73610701D01*
X102887853Y-73612712D01*
X102871120Y-73615527D01*
X102854865Y-73619146D01*
X102839090Y-73623569D01*
X102823793Y-73628797D01*
X102808975Y-73634829D01*
X102794637Y-73641666D01*
X102780777Y-73649307D01*
X102767396Y-73657751D01*
X102754494Y-73667001D01*
X102742071Y-73677054D01*
X102730127Y-73687912D01*
X102718662Y-73699574D01*
X102707676Y-73712041D01*
X102697294Y-73725160D01*
X102687583Y-73738780D01*
X102678541Y-73752900D01*
X102670169Y-73767522D01*
X102662467Y-73782645D01*
X102655434Y-73798268D01*
X102649072Y-73814392D01*
X102643379Y-73831017D01*
X102638356Y-73848144D01*
X102634002Y-73865771D01*
X102630318Y-73883898D01*
X102627305Y-73902527D01*
X102624960Y-73921657D01*
X102623286Y-73941287D01*
X102622281Y-73961419D01*
X102621946Y-73982051D01*
X102434395Y-73982051D01*
X102434368Y-73976189D01*
X102434502Y-73956452D01*
X102434903Y-73936945D01*
X102435572Y-73917669D01*
X102436509Y-73898623D01*
X102437713Y-73879808D01*
X102439185Y-73861222D01*
X102440925Y-73842868D01*
X102442932Y-73824743D01*
X102445206Y-73806850D01*
X102447749Y-73789186D01*
X102450559Y-73771753D01*
X102453636Y-73754550D01*
X102456982Y-73737578D01*
X102460594Y-73720836D01*
X102464475Y-73704325D01*
X102468623Y-73688044D01*
X102473039Y-73671993D01*
X102477722Y-73656173D01*
X102482673Y-73640583D01*
X102487891Y-73625224D01*
X102493378Y-73610095D01*
X102499131Y-73595196D01*
X102505153Y-73580528D01*
X102511442Y-73566090D01*
X102517998Y-73551883D01*
X102524823Y-73537906D01*
X102531915Y-73524159D01*
X102539274Y-73510643D01*
X102546901Y-73497358D01*
X102554796Y-73484302D01*
X102562958Y-73471477D01*
X102571388Y-73458883D01*
X102580123Y-73446576D01*
X102589017Y-73434660D01*
X102598069Y-73423135D01*
X102607280Y-73412000D01*
X102616651Y-73401256D01*
X102626180Y-73390902D01*
X102635868Y-73380940D01*
X102645714Y-73371368D01*
X102655720Y-73362186D01*
X102665884Y-73353396D01*
X102676208Y-73344996D01*
X102686690Y-73336987D01*
X102697331Y-73329368D01*
X102708131Y-73322140D01*
X102719090Y-73315303D01*
X102730207Y-73308857D01*
X102741484Y-73302801D01*
X102752919Y-73297136D01*
X102764513Y-73291862D01*
X102776266Y-73286978D01*
X102788178Y-73282485D01*
X102800249Y-73278383D01*
X102812478Y-73274671D01*
X102824866Y-73271350D01*
X102837414Y-73268420D01*
X102850120Y-73265881D01*
X102862985Y-73263732D01*
X102876009Y-73261974D01*
X102889191Y-73260606D01*
X102902533Y-73259629D01*
X102916033Y-73259043D01*
X102929692Y-73258848D01*
X102944124Y-73259046D01*
G37*
G36*
X103450418Y-75631423D02*
G01*
X102450000Y-75631423D01*
X102450000Y-75306824D01*
X103207397Y-75306824D01*
X103200628Y-75294650D01*
X103193999Y-75281529D01*
X103187511Y-75267462D01*
X103182062Y-75254651D01*
X103177599Y-75243443D01*
X103172473Y-75229537D01*
X103167535Y-75215296D01*
X103162787Y-75200720D01*
X103158227Y-75185810D01*
X103153857Y-75170564D01*
X103152442Y-75165408D01*
X103148349Y-75149905D01*
X103144496Y-75134169D01*
X103140884Y-75118203D01*
X103137513Y-75102004D01*
X103134381Y-75085573D01*
X103133391Y-75080045D01*
X103130615Y-75063460D01*
X103128147Y-75046952D01*
X103125989Y-75030521D01*
X103124140Y-75014168D01*
X103122600Y-74997892D01*
X103122156Y-74992484D01*
X103309734Y-74992484D01*
X103312717Y-75008272D01*
X103315802Y-75023945D01*
X103318991Y-75039504D01*
X103322282Y-75054949D01*
X103325677Y-75070279D01*
X103329175Y-75085495D01*
X103332775Y-75100596D01*
X103336479Y-75115582D01*
X103340286Y-75130454D01*
X103344195Y-75145212D01*
X103348208Y-75159855D01*
X103352324Y-75174384D01*
X103356543Y-75188798D01*
X103360865Y-75203097D01*
X103365290Y-75217283D01*
X103369818Y-75231353D01*
X103374455Y-75245328D01*
X103379145Y-75259134D01*
X103383889Y-75272771D01*
X103388686Y-75286239D01*
X103393536Y-75299539D01*
X103398440Y-75312669D01*
X103403398Y-75325631D01*
X103408408Y-75338423D01*
X103413473Y-75351047D01*
X103421169Y-75369666D01*
X103428986Y-75387905D01*
X103436923Y-75405765D01*
X103444980Y-75423244D01*
X103450418Y-75434685D01*
X103450418Y-75631423D01*
G37*
G36*
X102450000Y-80149794D02*
G01*
X102450000Y-79821165D01*
X103039113Y-79821165D01*
X103051129Y-79821212D01*
X103063301Y-79821354D01*
X103075629Y-79821590D01*
X103088114Y-79821921D01*
X103100756Y-79822346D01*
X103113554Y-79822865D01*
X103126508Y-79823479D01*
X103139619Y-79824187D01*
X103152887Y-79824990D01*
X103166310Y-79825888D01*
X103179891Y-79826879D01*
X103193627Y-79827966D01*
X103207521Y-79829146D01*
X103221570Y-79830421D01*
X103235776Y-79831791D01*
X103250139Y-79833255D01*
X103250139Y-79824829D01*
X103239010Y-79821643D01*
X103228276Y-79818497D01*
X103217936Y-79815392D01*
X103207992Y-79812326D01*
X103193816Y-79807803D01*
X103180529Y-79803370D01*
X103168130Y-79799028D01*
X103156621Y-79794775D01*
X103146000Y-79790613D01*
X103136268Y-79786541D01*
X103124674Y-79781251D01*
X103119469Y-79778667D01*
X102450000Y-79432452D01*
X102450000Y-79160610D01*
X103112630Y-78808168D01*
X103123071Y-78803168D01*
X103134370Y-78798562D01*
X103144561Y-78794755D01*
X103156226Y-78790646D01*
X103169362Y-78786233D01*
X103178938Y-78783123D01*
X103189169Y-78779879D01*
X103200054Y-78776500D01*
X103211594Y-78772987D01*
X103223788Y-78769339D01*
X103236636Y-78765556D01*
X103250139Y-78761639D01*
X103250139Y-78752480D01*
X103232082Y-78754122D01*
X103214304Y-78755657D01*
X103196804Y-78757087D01*
X103179583Y-78758411D01*
X103162641Y-78759629D01*
X103145977Y-78760741D01*
X103129592Y-78761747D01*
X103113485Y-78762647D01*
X103097657Y-78763441D01*
X103082108Y-78764130D01*
X103066837Y-78764712D01*
X103051844Y-78765189D01*
X103037131Y-78765559D01*
X103022696Y-78765824D01*
X103008539Y-78765983D01*
X102994661Y-78766036D01*
X102450000Y-78766036D01*
X102450000Y-78465983D01*
X103434787Y-78465983D01*
X103434787Y-78953614D01*
X102851046Y-79255498D01*
X102837899Y-79262060D01*
X102824742Y-79268280D01*
X102811578Y-79274158D01*
X102798404Y-79279696D01*
X102785222Y-79284892D01*
X102772032Y-79289746D01*
X102758833Y-79294260D01*
X102745625Y-79298432D01*
X102732409Y-79302262D01*
X102719184Y-79305752D01*
X102710362Y-79307889D01*
X102710362Y-79314117D01*
X102720477Y-79317609D01*
X102730428Y-79321123D01*
X102740215Y-79324661D01*
X102749838Y-79328222D01*
X102763965Y-79333606D01*
X102777722Y-79339041D01*
X102791110Y-79344528D01*
X102804129Y-79350066D01*
X102816778Y-79355656D01*
X102829059Y-79361298D01*
X102840970Y-79366991D01*
X102852512Y-79372735D01*
X103434787Y-79674619D01*
X103434787Y-80149794D01*
X102450000Y-80149794D01*
G37*
G36*
X102944124Y-87907755D02*
G01*
X102958384Y-87908350D01*
X102972473Y-87909341D01*
X102986391Y-87910728D01*
X103000138Y-87912512D01*
X103013713Y-87914693D01*
X103027117Y-87917269D01*
X103040350Y-87920242D01*
X103053411Y-87923612D01*
X103066301Y-87927378D01*
X103079020Y-87931540D01*
X103091568Y-87936099D01*
X103103945Y-87941054D01*
X103116150Y-87946406D01*
X103128184Y-87952154D01*
X103140047Y-87958299D01*
X103151738Y-87964839D01*
X103163258Y-87971777D01*
X103174607Y-87979110D01*
X103185785Y-87986841D01*
X103196791Y-87994967D01*
X103207627Y-88003490D01*
X103218290Y-88012410D01*
X103228783Y-88021725D01*
X103239104Y-88031438D01*
X103249255Y-88041546D01*
X103259234Y-88052051D01*
X103269041Y-88062953D01*
X103278678Y-88074251D01*
X103288143Y-88085945D01*
X103297437Y-88098036D01*
X103306559Y-88110523D01*
X103315410Y-88123270D01*
X103323980Y-88136280D01*
X103332268Y-88149551D01*
X103340276Y-88163085D01*
X103348003Y-88176880D01*
X103355449Y-88190937D01*
X103362614Y-88205256D01*
X103369497Y-88219837D01*
X103376100Y-88234680D01*
X103382422Y-88249784D01*
X103388463Y-88265151D01*
X103394223Y-88280779D01*
X103399702Y-88296670D01*
X103404900Y-88312822D01*
X103409817Y-88329236D01*
X103414453Y-88345912D01*
X103418809Y-88362850D01*
X103422883Y-88380050D01*
X103426676Y-88397511D01*
X103430188Y-88415235D01*
X103433419Y-88433220D01*
X103436369Y-88451468D01*
X103439039Y-88469977D01*
X103441427Y-88488748D01*
X103443534Y-88507781D01*
X103445361Y-88527076D01*
X103446906Y-88546633D01*
X103448170Y-88566452D01*
X103449154Y-88586532D01*
X103449856Y-88606875D01*
X103450278Y-88627479D01*
X103450418Y-88648346D01*
X103450284Y-88668011D01*
X103449880Y-88687438D01*
X103449207Y-88706628D01*
X103448266Y-88725580D01*
X103447055Y-88744294D01*
X103445575Y-88762771D01*
X103443827Y-88781011D01*
X103441809Y-88799013D01*
X103439522Y-88816777D01*
X103436966Y-88834304D01*
X103434141Y-88851593D01*
X103431047Y-88868645D01*
X103427684Y-88885459D01*
X103424051Y-88902036D01*
X103420150Y-88918375D01*
X103415980Y-88934476D01*
X103411541Y-88950340D01*
X103406832Y-88965966D01*
X103401855Y-88981355D01*
X103396608Y-88996506D01*
X103391093Y-89011420D01*
X103385308Y-89026096D01*
X103379255Y-89040534D01*
X103372932Y-89054735D01*
X103366340Y-89068699D01*
X103359480Y-89082424D01*
X103352350Y-89095913D01*
X103344951Y-89109163D01*
X103337283Y-89122176D01*
X103329346Y-89134952D01*
X103321140Y-89147490D01*
X103312665Y-89159790D01*
X103304015Y-89171827D01*
X103295190Y-89183481D01*
X103286193Y-89194753D01*
X103277021Y-89205643D01*
X103267676Y-89216151D01*
X103258157Y-89226277D01*
X103248465Y-89236020D01*
X103238599Y-89245382D01*
X103228559Y-89254362D01*
X103218346Y-89262959D01*
X103207959Y-89271174D01*
X103197398Y-89279007D01*
X103186664Y-89286458D01*
X103175756Y-89293527D01*
X103164674Y-89300214D01*
X103153419Y-89306519D01*
X103141990Y-89312442D01*
X103130388Y-89317982D01*
X103118611Y-89323141D01*
X103106662Y-89327917D01*
X103094538Y-89332311D01*
X103082241Y-89336323D01*
X103069770Y-89339953D01*
X103057126Y-89343201D01*
X103044308Y-89346067D01*
X103031317Y-89348551D01*
X103018151Y-89350652D01*
X103004812Y-89352372D01*
X102991300Y-89353709D01*
X102977614Y-89354664D01*
X102963754Y-89355238D01*
X102949720Y-89355429D01*
X102935366Y-89355230D01*
X102921185Y-89354636D01*
X102907177Y-89353645D01*
X102893342Y-89352257D01*
X102879681Y-89350473D01*
X102866192Y-89348293D01*
X102852877Y-89345716D01*
X102839735Y-89342743D01*
X102826766Y-89339374D01*
X102813970Y-89335608D01*
X102801347Y-89331445D01*
X102788898Y-89326887D01*
X102776622Y-89321931D01*
X102764518Y-89316580D01*
X102752588Y-89310832D01*
X102740832Y-89304687D01*
X102729248Y-89298146D01*
X102717838Y-89291209D01*
X102706600Y-89283875D01*
X102695536Y-89276145D01*
X102684645Y-89268019D01*
X102673927Y-89259496D01*
X102663383Y-89250576D01*
X102653011Y-89241260D01*
X102642813Y-89231548D01*
X102632788Y-89221440D01*
X102622936Y-89210934D01*
X102613257Y-89200033D01*
X102603751Y-89188735D01*
X102594419Y-89177041D01*
X102585259Y-89164950D01*
X102576273Y-89152463D01*
X102569221Y-89142090D01*
X102566992Y-89138907D01*
X102560009Y-89128414D01*
X102558443Y-89125718D01*
X102324947Y-89499410D01*
X102324947Y-89033761D01*
X102451465Y-88838122D01*
X102448410Y-88819813D01*
X102445655Y-88801157D01*
X102443200Y-88782152D01*
X102441046Y-88762800D01*
X102439193Y-88743100D01*
X102437640Y-88723052D01*
X102436388Y-88702657D01*
X102435437Y-88681914D01*
X102434785Y-88660823D01*
X102434435Y-88639384D01*
X102434395Y-88630760D01*
X102621946Y-88630760D01*
X102622271Y-88652005D01*
X102623244Y-88672692D01*
X102624866Y-88692820D01*
X102627137Y-88712391D01*
X102630056Y-88731403D01*
X102633624Y-88749857D01*
X102637841Y-88767753D01*
X102642707Y-88785091D01*
X102648222Y-88801871D01*
X102654385Y-88818092D01*
X102661197Y-88833756D01*
X102668658Y-88848861D01*
X102676768Y-88863409D01*
X102685526Y-88877398D01*
X102694933Y-88890829D01*
X102704989Y-88903702D01*
X102715798Y-88915946D01*
X102727097Y-88927401D01*
X102738886Y-88938065D01*
X102751166Y-88947940D01*
X102763936Y-88957025D01*
X102777197Y-88965319D01*
X102790948Y-88972824D01*
X102805190Y-88979539D01*
X102819922Y-88985464D01*
X102835144Y-88990599D01*
X102850856Y-88994943D01*
X102867059Y-88998498D01*
X102883753Y-89001263D01*
X102900937Y-89003238D01*
X102918611Y-89004423D01*
X102936775Y-89004818D01*
X102955718Y-89004436D01*
X102974137Y-89003290D01*
X102992034Y-89001379D01*
X103009407Y-88998704D01*
X103026258Y-88995265D01*
X103042586Y-88991062D01*
X103058391Y-88986095D01*
X103073674Y-88980363D01*
X103088433Y-88973867D01*
X103102670Y-88966607D01*
X103116384Y-88958583D01*
X103129575Y-88949795D01*
X103142243Y-88940242D01*
X103154388Y-88929925D01*
X103166011Y-88918844D01*
X103177110Y-88906999D01*
X103187492Y-88894575D01*
X103197203Y-88881577D01*
X103206245Y-88868002D01*
X103214617Y-88853853D01*
X103222319Y-88839128D01*
X103229352Y-88823828D01*
X103235714Y-88807953D01*
X103241407Y-88791502D01*
X103246431Y-88774477D01*
X103250784Y-88756875D01*
X103254468Y-88738699D01*
X103257482Y-88719947D01*
X103259826Y-88700620D01*
X103261500Y-88680717D01*
X103262505Y-88660240D01*
X103262840Y-88639187D01*
X103262493Y-88617663D01*
X103261454Y-88596688D01*
X103259723Y-88576263D01*
X103257298Y-88556388D01*
X103254181Y-88537062D01*
X103250372Y-88518286D01*
X103245870Y-88500060D01*
X103240675Y-88482383D01*
X103234787Y-88465255D01*
X103228207Y-88448677D01*
X103220934Y-88432649D01*
X103212968Y-88417170D01*
X103204310Y-88402240D01*
X103194959Y-88387861D01*
X103184916Y-88374030D01*
X103174180Y-88360750D01*
X103162964Y-88348283D01*
X103151301Y-88336621D01*
X103139189Y-88325763D01*
X103126629Y-88315710D01*
X103113620Y-88306461D01*
X103100163Y-88298016D01*
X103086257Y-88290375D01*
X103071903Y-88283538D01*
X103057100Y-88277506D01*
X103041850Y-88272278D01*
X103026150Y-88267855D01*
X103010003Y-88264236D01*
X102993406Y-88261421D01*
X102976362Y-88259410D01*
X102958869Y-88258203D01*
X102940928Y-88257801D01*
X102922757Y-88258203D01*
X102905066Y-88259410D01*
X102887853Y-88261421D01*
X102871120Y-88264236D01*
X102854865Y-88267855D01*
X102839090Y-88272278D01*
X102823793Y-88277506D01*
X102808975Y-88283538D01*
X102794637Y-88290375D01*
X102780777Y-88298016D01*
X102767396Y-88306461D01*
X102754494Y-88315710D01*
X102742071Y-88325763D01*
X102730127Y-88336621D01*
X102718662Y-88348283D01*
X102707676Y-88360750D01*
X102697294Y-88373869D01*
X102687583Y-88387489D01*
X102678541Y-88401609D01*
X102670169Y-88416231D01*
X102662467Y-88431354D01*
X102655434Y-88446977D01*
X102649072Y-88463101D01*
X102643379Y-88479726D01*
X102638356Y-88496853D01*
X102634002Y-88514480D01*
X102630318Y-88532607D01*
X102627305Y-88551236D01*
X102624960Y-88570366D01*
X102623286Y-88589996D01*
X102622281Y-88610128D01*
X102621946Y-88630760D01*
X102434395Y-88630760D01*
X102434368Y-88624898D01*
X102434502Y-88605161D01*
X102434903Y-88585654D01*
X102435572Y-88566378D01*
X102436509Y-88547332D01*
X102437713Y-88528517D01*
X102439185Y-88509931D01*
X102440925Y-88491577D01*
X102442932Y-88473452D01*
X102445206Y-88455559D01*
X102447749Y-88437895D01*
X102450559Y-88420462D01*
X102453636Y-88403259D01*
X102456982Y-88386287D01*
X102460594Y-88369545D01*
X102464475Y-88353034D01*
X102468623Y-88336753D01*
X102473039Y-88320702D01*
X102477722Y-88304882D01*
X102482673Y-88289292D01*
X102487891Y-88273933D01*
X102493378Y-88258804D01*
X102499131Y-88243905D01*
X102505153Y-88229237D01*
X102511442Y-88214799D01*
X102517998Y-88200592D01*
X102524823Y-88186615D01*
X102531915Y-88172868D01*
X102539274Y-88159352D01*
X102546901Y-88146067D01*
X102554796Y-88133011D01*
X102562958Y-88120186D01*
X102571388Y-88107592D01*
X102580123Y-88095285D01*
X102589017Y-88083369D01*
X102598069Y-88071844D01*
X102607280Y-88060709D01*
X102616651Y-88049965D01*
X102626180Y-88039611D01*
X102635868Y-88029649D01*
X102645714Y-88020077D01*
X102655720Y-88010895D01*
X102665884Y-88002105D01*
X102676208Y-87993705D01*
X102686690Y-87985696D01*
X102697331Y-87978077D01*
X102708131Y-87970849D01*
X102719090Y-87964012D01*
X102730207Y-87957566D01*
X102741484Y-87951510D01*
X102752919Y-87945845D01*
X102764513Y-87940571D01*
X102776266Y-87935687D01*
X102788178Y-87931194D01*
X102800249Y-87927092D01*
X102812478Y-87923380D01*
X102824866Y-87920059D01*
X102837414Y-87917129D01*
X102850120Y-87914590D01*
X102862985Y-87912441D01*
X102876009Y-87910683D01*
X102889191Y-87909315D01*
X102902533Y-87908338D01*
X102916033Y-87907752D01*
X102929692Y-87907557D01*
X102944124Y-87907755D01*
G37*
G36*
X102637578Y-89865041D02*
G01*
X102637578Y-90491524D01*
X102450000Y-90491524D01*
X102450000Y-89508203D01*
X102531821Y-89508203D01*
X102545564Y-89508537D01*
X102559041Y-89509542D01*
X102572251Y-89511216D01*
X102585196Y-89513561D01*
X102597874Y-89516575D01*
X102610286Y-89520258D01*
X102622432Y-89524612D01*
X102634311Y-89529635D01*
X102645925Y-89535328D01*
X102657272Y-89541691D01*
X102664689Y-89546304D01*
X102675618Y-89553619D01*
X102686333Y-89561275D01*
X102696833Y-89569273D01*
X102707119Y-89577611D01*
X102717189Y-89586291D01*
X102727045Y-89595313D01*
X102736687Y-89604676D01*
X102746113Y-89614380D01*
X102755325Y-89624425D01*
X102764323Y-89634811D01*
X102770202Y-89641926D01*
X102778898Y-89652872D01*
X102787401Y-89664006D01*
X102795711Y-89675327D01*
X102803827Y-89686834D01*
X102811751Y-89698528D01*
X102819481Y-89710408D01*
X102827018Y-89722476D01*
X102834361Y-89734730D01*
X102841512Y-89747171D01*
X102848469Y-89759799D01*
X102853000Y-89768321D01*
X102859714Y-89781171D01*
X102866298Y-89793892D01*
X102872754Y-89806485D01*
X102879081Y-89818948D01*
X102885279Y-89831283D01*
X102891348Y-89843489D01*
X102897289Y-89855566D01*
X102903101Y-89867514D01*
X102910649Y-89883245D01*
X102917969Y-89898747D01*
X102923715Y-89910829D01*
X102931304Y-89926489D01*
X102938809Y-89941633D01*
X102946230Y-89956261D01*
X102953566Y-89970375D01*
X102960819Y-89983973D01*
X102967988Y-89997057D01*
X102975073Y-90009625D01*
X102976831Y-90012686D01*
X102983907Y-90024713D01*
X102990967Y-90036248D01*
X102998012Y-90047290D01*
X103005041Y-90057841D01*
X103013807Y-90070336D01*
X103022549Y-90082062D01*
X103031266Y-90093019D01*
X103033007Y-90095118D01*
X103041720Y-90105231D01*
X103050457Y-90114503D01*
X103059218Y-90122934D01*
X103068003Y-90130524D01*
X103076811Y-90137273D01*
X103087413Y-90144263D01*
X103089183Y-90145310D01*
X103100028Y-90150913D01*
X103111131Y-90155356D01*
X103122491Y-90158641D01*
X103134108Y-90160766D01*
X103143987Y-90161652D01*
X103150000Y-90161796D01*
X103161634Y-90161326D01*
X103172723Y-90159916D01*
X103183266Y-90157565D01*
X103193265Y-90154275D01*
X103202718Y-90150043D01*
X103214474Y-90142939D01*
X103225261Y-90134164D01*
X103235078Y-90123717D01*
X103243926Y-90111598D01*
X103245987Y-90108307D01*
X103253600Y-90094048D01*
X103260199Y-90078014D01*
X103264481Y-90064823D01*
X103268193Y-90050635D01*
X103271334Y-90035448D01*
X103273903Y-90019264D01*
X103275902Y-90002081D01*
X103277329Y-89983899D01*
X103278186Y-89964720D01*
X103278471Y-89944542D01*
X103278044Y-89920749D01*
X103276762Y-89897087D01*
X103274624Y-89873556D01*
X103271632Y-89850158D01*
X103267786Y-89826891D01*
X103263084Y-89803755D01*
X103257527Y-89780752D01*
X103251116Y-89757880D01*
X103243850Y-89735139D01*
X103235729Y-89712531D01*
X103226753Y-89690054D01*
X103216922Y-89667708D01*
X103206236Y-89645495D01*
X103194696Y-89623413D01*
X103182301Y-89601462D01*
X103175782Y-89590537D01*
X103169050Y-89579644D01*
X103365177Y-89579644D01*
X103375500Y-89603925D01*
X103385156Y-89628593D01*
X103394146Y-89653648D01*
X103402470Y-89679089D01*
X103410129Y-89704916D01*
X103417121Y-89731130D01*
X103423447Y-89757730D01*
X103429108Y-89784716D01*
X103434103Y-89812089D01*
X103438431Y-89839848D01*
X103442094Y-89867994D01*
X103445091Y-89896526D01*
X103447421Y-89925444D01*
X103448337Y-89940048D01*
X103449086Y-89954749D01*
X103449669Y-89969546D01*
X103450085Y-89984440D01*
X103450335Y-89999431D01*
X103450418Y-90014518D01*
X103450246Y-90035335D01*
X103449731Y-90055747D01*
X103448873Y-90075753D01*
X103447670Y-90095353D01*
X103446125Y-90114547D01*
X103444236Y-90133336D01*
X103442003Y-90151719D01*
X103439427Y-90169696D01*
X103436508Y-90187268D01*
X103433245Y-90204434D01*
X103430879Y-90215652D01*
X103427067Y-90232106D01*
X103422959Y-90248084D01*
X103418555Y-90263585D01*
X103413854Y-90278609D01*
X103408858Y-90293157D01*
X103403565Y-90307229D01*
X103397975Y-90320824D01*
X103392090Y-90333942D01*
X103385908Y-90346584D01*
X103379430Y-90358749D01*
X103374947Y-90366594D01*
X103367988Y-90377942D01*
X103360759Y-90388769D01*
X103353259Y-90399074D01*
X103345489Y-90408858D01*
X103337448Y-90418119D01*
X103329137Y-90426860D01*
X103320556Y-90435078D01*
X103311704Y-90442775D01*
X103302581Y-90449950D01*
X103293188Y-90456604D01*
X103286775Y-90460750D01*
X103276962Y-90466577D01*
X103266937Y-90471831D01*
X103256703Y-90476512D01*
X103246258Y-90480619D01*
X103235603Y-90484154D01*
X103224737Y-90487115D01*
X103213661Y-90489503D01*
X103202374Y-90491318D01*
X103190877Y-90492560D01*
X103179170Y-90493229D01*
X103171249Y-90493356D01*
X103158607Y-90493079D01*
X103146236Y-90492248D01*
X103134135Y-90490864D01*
X103122305Y-90488925D01*
X103110745Y-90486433D01*
X103099456Y-90483387D01*
X103088437Y-90479787D01*
X103077688Y-90475633D01*
X103067210Y-90470926D01*
X103057003Y-90465664D01*
X103050348Y-90461849D01*
X103040540Y-90455826D01*
X103030900Y-90449437D01*
X103021426Y-90442680D01*
X103012121Y-90435556D01*
X103002982Y-90428066D01*
X102994011Y-90420208D01*
X102985208Y-90411983D01*
X102976572Y-90403391D01*
X102968103Y-90394432D01*
X102959802Y-90385105D01*
X102954361Y-90378684D01*
X102946317Y-90368788D01*
X102938398Y-90358608D01*
X102930604Y-90348146D01*
X102922934Y-90337399D01*
X102915388Y-90326370D01*
X102907967Y-90315057D01*
X102900671Y-90303461D01*
X102893499Y-90291581D01*
X102886451Y-90279418D01*
X102879528Y-90266972D01*
X102874982Y-90258517D01*
X102868269Y-90245698D01*
X102861595Y-90232795D01*
X102854960Y-90219809D01*
X102848363Y-90206739D01*
X102841805Y-90193585D01*
X102835286Y-90180348D01*
X102828805Y-90167027D01*
X102822363Y-90153622D01*
X102815959Y-90140133D01*
X102809595Y-90126561D01*
X102805373Y-90117466D01*
X102799820Y-90105159D01*
X102794275Y-90092966D01*
X102788738Y-90080887D01*
X102781827Y-90065950D01*
X102774927Y-90051192D01*
X102768040Y-90036612D01*
X102761165Y-90022212D01*
X102754313Y-90008160D01*
X102747498Y-89994627D01*
X102740718Y-89981613D01*
X102733974Y-89969117D01*
X102727265Y-89957141D01*
X102720593Y-89945683D01*
X102717934Y-89941245D01*
X102709991Y-89928571D01*
X102702100Y-89916928D01*
X102694260Y-89906315D01*
X102686472Y-89896732D01*
X102677451Y-89886854D01*
X102676168Y-89885558D01*
X102667393Y-89877564D01*
X102657593Y-89870832D01*
X102648037Y-89866664D01*
X102637578Y-89865041D01*
G37*
G36*
X102450000Y-95377358D02*
G01*
X102450000Y-95048729D01*
X103039113Y-95048729D01*
X103051129Y-95048777D01*
X103063301Y-95048918D01*
X103075629Y-95049154D01*
X103088114Y-95049485D01*
X103100756Y-95049910D01*
X103113554Y-95050430D01*
X103126508Y-95051044D01*
X103139619Y-95051752D01*
X103152887Y-95052555D01*
X103166310Y-95053452D01*
X103179891Y-95054444D01*
X103193627Y-95055530D01*
X103207521Y-95056711D01*
X103221570Y-95057986D01*
X103235776Y-95059355D01*
X103250139Y-95060819D01*
X103250139Y-95052393D01*
X103239010Y-95049207D01*
X103228276Y-95046062D01*
X103217936Y-95042956D01*
X103207992Y-95039891D01*
X103193816Y-95035368D01*
X103180529Y-95030935D01*
X103168130Y-95026592D01*
X103156621Y-95022340D01*
X103146000Y-95018177D01*
X103136268Y-95014105D01*
X103124674Y-95008816D01*
X103119469Y-95006231D01*
X102450000Y-94660017D01*
X102450000Y-94388175D01*
X103112630Y-94035732D01*
X103123071Y-94030732D01*
X103134370Y-94026127D01*
X103144561Y-94022320D01*
X103156226Y-94018210D01*
X103169362Y-94013798D01*
X103178938Y-94010688D01*
X103189169Y-94007443D01*
X103200054Y-94004065D01*
X103211594Y-94000551D01*
X103223788Y-93996903D01*
X103236636Y-93993121D01*
X103250139Y-93989204D01*
X103250139Y-93980045D01*
X103232082Y-93981686D01*
X103214304Y-93983222D01*
X103196804Y-93984652D01*
X103179583Y-93985975D01*
X103162641Y-93987193D01*
X103145977Y-93988305D01*
X103129592Y-93989311D01*
X103113485Y-93990211D01*
X103097657Y-93991006D01*
X103082108Y-93991694D01*
X103066837Y-93992277D01*
X103051844Y-93992753D01*
X103037131Y-93993124D01*
X103022696Y-93993389D01*
X103008539Y-93993547D01*
X102994661Y-93993600D01*
X102450000Y-93993600D01*
X102450000Y-93693548D01*
X103434787Y-93693548D01*
X103434787Y-94181179D01*
X102851046Y-94483063D01*
X102837899Y-94489624D01*
X102824742Y-94495844D01*
X102811578Y-94501723D01*
X102798404Y-94507260D01*
X102785222Y-94512456D01*
X102772032Y-94517311D01*
X102758833Y-94521824D01*
X102745625Y-94525996D01*
X102732409Y-94529827D01*
X102719184Y-94533316D01*
X102710362Y-94535453D01*
X102710362Y-94541681D01*
X102720477Y-94545173D01*
X102730428Y-94548688D01*
X102740215Y-94552226D01*
X102749838Y-94555786D01*
X102763965Y-94561170D01*
X102777722Y-94566606D01*
X102791110Y-94572092D01*
X102804129Y-94577631D01*
X102816778Y-94583221D01*
X102829059Y-94588862D01*
X102840970Y-94594555D01*
X102852512Y-94600300D01*
X103434787Y-94902184D01*
X103434787Y-95377358D01*
X102450000Y-95377358D01*
G37*
G36*
X102944124Y-102556464D02*
G01*
X102958384Y-102557059D01*
X102972473Y-102558050D01*
X102986391Y-102559437D01*
X103000138Y-102561221D01*
X103013713Y-102563402D01*
X103027117Y-102565978D01*
X103040350Y-102568951D01*
X103053411Y-102572321D01*
X103066301Y-102576087D01*
X103079020Y-102580249D01*
X103091568Y-102584808D01*
X103103945Y-102589763D01*
X103116150Y-102595115D01*
X103128184Y-102600863D01*
X103140047Y-102607008D01*
X103151738Y-102613548D01*
X103163258Y-102620486D01*
X103174607Y-102627819D01*
X103185785Y-102635550D01*
X103196791Y-102643676D01*
X103207627Y-102652199D01*
X103218290Y-102661119D01*
X103228783Y-102670434D01*
X103239104Y-102680147D01*
X103249255Y-102690255D01*
X103259234Y-102700760D01*
X103269041Y-102711662D01*
X103278678Y-102722960D01*
X103288143Y-102734654D01*
X103297437Y-102746745D01*
X103306559Y-102759232D01*
X103315410Y-102771979D01*
X103323980Y-102784989D01*
X103332268Y-102798260D01*
X103340276Y-102811794D01*
X103348003Y-102825589D01*
X103355449Y-102839646D01*
X103362614Y-102853965D01*
X103369497Y-102868546D01*
X103376100Y-102883389D01*
X103382422Y-102898493D01*
X103388463Y-102913860D01*
X103394223Y-102929488D01*
X103399702Y-102945379D01*
X103404900Y-102961531D01*
X103409817Y-102977945D01*
X103414453Y-102994621D01*
X103418809Y-103011559D01*
X103422883Y-103028759D01*
X103426676Y-103046220D01*
X103430188Y-103063944D01*
X103433419Y-103081929D01*
X103436369Y-103100177D01*
X103439039Y-103118686D01*
X103441427Y-103137457D01*
X103443534Y-103156490D01*
X103445361Y-103175785D01*
X103446906Y-103195342D01*
X103448170Y-103215161D01*
X103449154Y-103235241D01*
X103449856Y-103255584D01*
X103450278Y-103276188D01*
X103450418Y-103297055D01*
X103450284Y-103316720D01*
X103449880Y-103336147D01*
X103449207Y-103355337D01*
X103448266Y-103374289D01*
X103447055Y-103393003D01*
X103445575Y-103411480D01*
X103443827Y-103429720D01*
X103441809Y-103447722D01*
X103439522Y-103465486D01*
X103436966Y-103483013D01*
X103434141Y-103500302D01*
X103431047Y-103517354D01*
X103427684Y-103534168D01*
X103424051Y-103550745D01*
X103420150Y-103567084D01*
X103415980Y-103583185D01*
X103411541Y-103599049D01*
X103406832Y-103614675D01*
X103401855Y-103630064D01*
X103396608Y-103645215D01*
X103391093Y-103660129D01*
X103385308Y-103674805D01*
X103379255Y-103689243D01*
X103372932Y-103703444D01*
X103366340Y-103717408D01*
X103359480Y-103731133D01*
X103352350Y-103744622D01*
X103344951Y-103757872D01*
X103337283Y-103770885D01*
X103329346Y-103783661D01*
X103321140Y-103796199D01*
X103312665Y-103808499D01*
X103304015Y-103820536D01*
X103295190Y-103832190D01*
X103286193Y-103843462D01*
X103277021Y-103854352D01*
X103267676Y-103864860D01*
X103258157Y-103874986D01*
X103248465Y-103884729D01*
X103238599Y-103894091D01*
X103228559Y-103903071D01*
X103218346Y-103911668D01*
X103207959Y-103919883D01*
X103197398Y-103927716D01*
X103186664Y-103935167D01*
X103175756Y-103942236D01*
X103164674Y-103948923D01*
X103153419Y-103955228D01*
X103141990Y-103961151D01*
X103130388Y-103966691D01*
X103118611Y-103971850D01*
X103106662Y-103976626D01*
X103094538Y-103981020D01*
X103082241Y-103985032D01*
X103069770Y-103988662D01*
X103057126Y-103991910D01*
X103044308Y-103994776D01*
X103031317Y-103997260D01*
X103018151Y-103999361D01*
X103004812Y-104001081D01*
X102991300Y-104002418D01*
X102977614Y-104003373D01*
X102963754Y-104003947D01*
X102949720Y-104004138D01*
X102935366Y-104003939D01*
X102921185Y-104003345D01*
X102907177Y-104002354D01*
X102893342Y-104000966D01*
X102879681Y-103999182D01*
X102866192Y-103997002D01*
X102852877Y-103994425D01*
X102839735Y-103991452D01*
X102826766Y-103988083D01*
X102813970Y-103984317D01*
X102801347Y-103980154D01*
X102788898Y-103975596D01*
X102776622Y-103970640D01*
X102764518Y-103965289D01*
X102752588Y-103959541D01*
X102740832Y-103953396D01*
X102729248Y-103946855D01*
X102717838Y-103939918D01*
X102706600Y-103932584D01*
X102695536Y-103924854D01*
X102684645Y-103916728D01*
X102673927Y-103908205D01*
X102663383Y-103899285D01*
X102653011Y-103889969D01*
X102642813Y-103880257D01*
X102632788Y-103870149D01*
X102622936Y-103859643D01*
X102613257Y-103848742D01*
X102603751Y-103837444D01*
X102594419Y-103825750D01*
X102585259Y-103813659D01*
X102576273Y-103801172D01*
X102569221Y-103790799D01*
X102566992Y-103787616D01*
X102560009Y-103777123D01*
X102558443Y-103774427D01*
X102324947Y-104148119D01*
X102324947Y-103682470D01*
X102451465Y-103486831D01*
X102448410Y-103468522D01*
X102445655Y-103449866D01*
X102443200Y-103430861D01*
X102441046Y-103411509D01*
X102439193Y-103391809D01*
X102437640Y-103371761D01*
X102436388Y-103351366D01*
X102435437Y-103330623D01*
X102434785Y-103309532D01*
X102434435Y-103288093D01*
X102434395Y-103279469D01*
X102621946Y-103279469D01*
X102622271Y-103300714D01*
X102623244Y-103321401D01*
X102624866Y-103341529D01*
X102627137Y-103361100D01*
X102630056Y-103380112D01*
X102633624Y-103398566D01*
X102637841Y-103416462D01*
X102642707Y-103433800D01*
X102648222Y-103450580D01*
X102654385Y-103466801D01*
X102661197Y-103482465D01*
X102668658Y-103497570D01*
X102676768Y-103512118D01*
X102685526Y-103526107D01*
X102694933Y-103539538D01*
X102704989Y-103552411D01*
X102715798Y-103564655D01*
X102727097Y-103576110D01*
X102738886Y-103586774D01*
X102751166Y-103596649D01*
X102763936Y-103605734D01*
X102777197Y-103614028D01*
X102790948Y-103621533D01*
X102805190Y-103628248D01*
X102819922Y-103634173D01*
X102835144Y-103639308D01*
X102850856Y-103643652D01*
X102867059Y-103647207D01*
X102883753Y-103649972D01*
X102900937Y-103651947D01*
X102918611Y-103653132D01*
X102936775Y-103653527D01*
X102955718Y-103653145D01*
X102974137Y-103651999D01*
X102992034Y-103650088D01*
X103009407Y-103647413D01*
X103026258Y-103643974D01*
X103042586Y-103639771D01*
X103058391Y-103634804D01*
X103073674Y-103629072D01*
X103088433Y-103622576D01*
X103102670Y-103615316D01*
X103116384Y-103607292D01*
X103129575Y-103598504D01*
X103142243Y-103588951D01*
X103154388Y-103578634D01*
X103166011Y-103567553D01*
X103177110Y-103555708D01*
X103187492Y-103543284D01*
X103197203Y-103530286D01*
X103206245Y-103516711D01*
X103214617Y-103502562D01*
X103222319Y-103487837D01*
X103229352Y-103472537D01*
X103235714Y-103456662D01*
X103241407Y-103440211D01*
X103246431Y-103423186D01*
X103250784Y-103405584D01*
X103254468Y-103387408D01*
X103257482Y-103368656D01*
X103259826Y-103349329D01*
X103261500Y-103329426D01*
X103262505Y-103308949D01*
X103262840Y-103287896D01*
X103262493Y-103266372D01*
X103261454Y-103245397D01*
X103259723Y-103224972D01*
X103257298Y-103205097D01*
X103254181Y-103185771D01*
X103250372Y-103166995D01*
X103245870Y-103148769D01*
X103240675Y-103131092D01*
X103234787Y-103113964D01*
X103228207Y-103097386D01*
X103220934Y-103081358D01*
X103212968Y-103065879D01*
X103204310Y-103050949D01*
X103194959Y-103036570D01*
X103184916Y-103022739D01*
X103174180Y-103009459D01*
X103162964Y-102996992D01*
X103151301Y-102985330D01*
X103139189Y-102974472D01*
X103126629Y-102964419D01*
X103113620Y-102955170D01*
X103100163Y-102946725D01*
X103086257Y-102939084D01*
X103071903Y-102932247D01*
X103057100Y-102926215D01*
X103041850Y-102920987D01*
X103026150Y-102916564D01*
X103010003Y-102912945D01*
X102993406Y-102910130D01*
X102976362Y-102908119D01*
X102958869Y-102906912D01*
X102940928Y-102906510D01*
X102922757Y-102906912D01*
X102905066Y-102908119D01*
X102887853Y-102910130D01*
X102871120Y-102912945D01*
X102854865Y-102916564D01*
X102839090Y-102920987D01*
X102823793Y-102926215D01*
X102808975Y-102932247D01*
X102794637Y-102939084D01*
X102780777Y-102946725D01*
X102767396Y-102955170D01*
X102754494Y-102964419D01*
X102742071Y-102974472D01*
X102730127Y-102985330D01*
X102718662Y-102996992D01*
X102707676Y-103009459D01*
X102697294Y-103022578D01*
X102687583Y-103036198D01*
X102678541Y-103050318D01*
X102670169Y-103064940D01*
X102662467Y-103080063D01*
X102655434Y-103095686D01*
X102649072Y-103111810D01*
X102643379Y-103128435D01*
X102638356Y-103145562D01*
X102634002Y-103163189D01*
X102630318Y-103181316D01*
X102627305Y-103199945D01*
X102624960Y-103219075D01*
X102623286Y-103238705D01*
X102622281Y-103258837D01*
X102621946Y-103279469D01*
X102434395Y-103279469D01*
X102434368Y-103273607D01*
X102434502Y-103253870D01*
X102434903Y-103234363D01*
X102435572Y-103215087D01*
X102436509Y-103196041D01*
X102437713Y-103177226D01*
X102439185Y-103158640D01*
X102440925Y-103140286D01*
X102442932Y-103122161D01*
X102445206Y-103104268D01*
X102447749Y-103086604D01*
X102450559Y-103069171D01*
X102453636Y-103051968D01*
X102456982Y-103034996D01*
X102460594Y-103018254D01*
X102464475Y-103001743D01*
X102468623Y-102985462D01*
X102473039Y-102969411D01*
X102477722Y-102953591D01*
X102482673Y-102938001D01*
X102487891Y-102922642D01*
X102493378Y-102907513D01*
X102499131Y-102892614D01*
X102505153Y-102877946D01*
X102511442Y-102863508D01*
X102517998Y-102849301D01*
X102524823Y-102835324D01*
X102531915Y-102821577D01*
X102539274Y-102808061D01*
X102546901Y-102794776D01*
X102554796Y-102781720D01*
X102562958Y-102768895D01*
X102571388Y-102756301D01*
X102580123Y-102743994D01*
X102589017Y-102732078D01*
X102598069Y-102720553D01*
X102607280Y-102709418D01*
X102616651Y-102698674D01*
X102626180Y-102688320D01*
X102635868Y-102678358D01*
X102645714Y-102668786D01*
X102655720Y-102659604D01*
X102665884Y-102650814D01*
X102676208Y-102642414D01*
X102686690Y-102634405D01*
X102697331Y-102626786D01*
X102708131Y-102619558D01*
X102719090Y-102612721D01*
X102730207Y-102606275D01*
X102741484Y-102600219D01*
X102752919Y-102594554D01*
X102764513Y-102589280D01*
X102776266Y-102584396D01*
X102788178Y-102579903D01*
X102800249Y-102575801D01*
X102812478Y-102572089D01*
X102824866Y-102568768D01*
X102837414Y-102565838D01*
X102850120Y-102563299D01*
X102862985Y-102561150D01*
X102876009Y-102559392D01*
X102889191Y-102558024D01*
X102902533Y-102557047D01*
X102916033Y-102556461D01*
X102929692Y-102556266D01*
X102944124Y-102556464D01*
G37*
G36*
X102482972Y-104192083D02*
G01*
X102668841Y-104192083D01*
X102661270Y-104210823D01*
X102654187Y-104229950D01*
X102647592Y-104249463D01*
X102641486Y-104269363D01*
X102635868Y-104289648D01*
X102630739Y-104310321D01*
X102626099Y-104331380D01*
X102621946Y-104352825D01*
X102618283Y-104374656D01*
X102615108Y-104396874D01*
X102612421Y-104419479D01*
X102610223Y-104442470D01*
X102608513Y-104465847D01*
X102607292Y-104489610D01*
X102606559Y-104513760D01*
X102606315Y-104538297D01*
X102606450Y-104553653D01*
X102606857Y-104568579D01*
X102607975Y-104590164D01*
X102609702Y-104610783D01*
X102612039Y-104630435D01*
X102614986Y-104649122D01*
X102618542Y-104666843D01*
X102622708Y-104683597D01*
X102627483Y-104699386D01*
X102632869Y-104714209D01*
X102638864Y-104728066D01*
X102640997Y-104732470D01*
X102647787Y-104744910D01*
X102655057Y-104756126D01*
X102662808Y-104766119D01*
X102671039Y-104774888D01*
X102679752Y-104782433D01*
X102688945Y-104788755D01*
X102698620Y-104793854D01*
X102708775Y-104797728D01*
X102719411Y-104800380D01*
X102730528Y-104801807D01*
X102738206Y-104802079D01*
X102749991Y-104801322D01*
X102761256Y-104799052D01*
X102772001Y-104795269D01*
X102782227Y-104789972D01*
X102791934Y-104783162D01*
X102801121Y-104774838D01*
X102809788Y-104765001D01*
X102817936Y-104753650D01*
X102825565Y-104740786D01*
X102832674Y-104726409D01*
X102837124Y-104715983D01*
X102843366Y-104699277D01*
X102848994Y-104681444D01*
X102854008Y-104662483D01*
X102858408Y-104642396D01*
X102862194Y-104621181D01*
X102864377Y-104606412D01*
X102866287Y-104591142D01*
X102867924Y-104575371D01*
X102869288Y-104559100D01*
X102870380Y-104542327D01*
X102871198Y-104525054D01*
X102871744Y-104507279D01*
X102872017Y-104489004D01*
X102872051Y-104479678D01*
X102872051Y-104342658D01*
X103043998Y-104342658D01*
X103043998Y-104469420D01*
X103044116Y-104487159D01*
X103044470Y-104504335D01*
X103045061Y-104520948D01*
X103045887Y-104536997D01*
X103046950Y-104552484D01*
X103048249Y-104567407D01*
X103051554Y-104595564D01*
X103055805Y-104621469D01*
X103061000Y-104645121D01*
X103067139Y-104666520D01*
X103074223Y-104685667D01*
X103082252Y-104702561D01*
X103091225Y-104717203D01*
X103101142Y-104729592D01*
X103112004Y-104739728D01*
X103123811Y-104747612D01*
X103136562Y-104753244D01*
X103150258Y-104756623D01*
X103164898Y-104757749D01*
X103178651Y-104756883D01*
X103191517Y-104754286D01*
X103203495Y-104749957D01*
X103214586Y-104743896D01*
X103224790Y-104736103D01*
X103234107Y-104726579D01*
X103242536Y-104715324D01*
X103250078Y-104702336D01*
X103256733Y-104687617D01*
X103262500Y-104671167D01*
X103267380Y-104652985D01*
X103271373Y-104633071D01*
X103274478Y-104611425D01*
X103276697Y-104588048D01*
X103278028Y-104562939D01*
X103278471Y-104536099D01*
X103278227Y-104517584D01*
X103277494Y-104499136D01*
X103276273Y-104480753D01*
X103274563Y-104462436D01*
X103272365Y-104444186D01*
X103269678Y-104426000D01*
X103266503Y-104407881D01*
X103262840Y-104389828D01*
X103258688Y-104371840D01*
X103254047Y-104353918D01*
X103248918Y-104336062D01*
X103243300Y-104318272D01*
X103237194Y-104300548D01*
X103230600Y-104282889D01*
X103223517Y-104265297D01*
X103215945Y-104247770D01*
X103397173Y-104247770D01*
X103403621Y-104267433D01*
X103409653Y-104287498D01*
X103415268Y-104307962D01*
X103420468Y-104328828D01*
X103425252Y-104350094D01*
X103429619Y-104371761D01*
X103433571Y-104393829D01*
X103437107Y-104416297D01*
X103440227Y-104439167D01*
X103442931Y-104462436D01*
X103445219Y-104486107D01*
X103447090Y-104510178D01*
X103448546Y-104534650D01*
X103449586Y-104559523D01*
X103450210Y-104584796D01*
X103450418Y-104610471D01*
X103450155Y-104638424D01*
X103449365Y-104665591D01*
X103448048Y-104691971D01*
X103446205Y-104717563D01*
X103443835Y-104742369D01*
X103440939Y-104766387D01*
X103437515Y-104789618D01*
X103433565Y-104812062D01*
X103429089Y-104833719D01*
X103424086Y-104854589D01*
X103418556Y-104874672D01*
X103412500Y-104893968D01*
X103405916Y-104912476D01*
X103398807Y-104930198D01*
X103391170Y-104947132D01*
X103383007Y-104963279D01*
X103374453Y-104978585D01*
X103365582Y-104992903D01*
X103356394Y-105006234D01*
X103346890Y-105018577D01*
X103337069Y-105029933D01*
X103326931Y-105040302D01*
X103316476Y-105049683D01*
X103305704Y-105058076D01*
X103294616Y-105065482D01*
X103283211Y-105071901D01*
X103271489Y-105077332D01*
X103259451Y-105081775D01*
X103247096Y-105085231D01*
X103234424Y-105087700D01*
X103221435Y-105089181D01*
X103208129Y-105089675D01*
X103196331Y-105089388D01*
X103184812Y-105088527D01*
X103173571Y-105087093D01*
X103162609Y-105085084D01*
X103151925Y-105082502D01*
X103141520Y-105079345D01*
X103131393Y-105075615D01*
X103121545Y-105071311D01*
X103111976Y-105066433D01*
X103102685Y-105060981D01*
X103093673Y-105054956D01*
X103084939Y-105048356D01*
X103068308Y-105033435D01*
X103052791Y-105016219D01*
X103038388Y-104996707D01*
X103031605Y-104986091D01*
X103025100Y-104974900D01*
X103018874Y-104963136D01*
X103012926Y-104950797D01*
X103007257Y-104937885D01*
X103001866Y-104924399D01*
X102996754Y-104910339D01*
X102991921Y-104895705D01*
X102987366Y-104880497D01*
X102983090Y-104864716D01*
X102979092Y-104848360D01*
X102975373Y-104831431D01*
X102971933Y-104813928D01*
X102968771Y-104795851D01*
X102965352Y-104795851D01*
X102963509Y-104815192D01*
X102961276Y-104834016D01*
X102958654Y-104852321D01*
X102955643Y-104870108D01*
X102952243Y-104887378D01*
X102948453Y-104904129D01*
X102944275Y-104920362D01*
X102939706Y-104936077D01*
X102934749Y-104951274D01*
X102929402Y-104965953D01*
X102923667Y-104980113D01*
X102917541Y-104993756D01*
X102911027Y-105006881D01*
X102904123Y-105019488D01*
X102896830Y-105031576D01*
X102889148Y-105043147D01*
X102881159Y-105054149D01*
X102872944Y-105064442D01*
X102864504Y-105074024D01*
X102855840Y-105082897D01*
X102846949Y-105091060D01*
X102837834Y-105098514D01*
X102828494Y-105105257D01*
X102818928Y-105111290D01*
X102809138Y-105116614D01*
X102799122Y-105121228D01*
X102788881Y-105125132D01*
X102778415Y-105128326D01*
X102767723Y-105130811D01*
X102756807Y-105132585D01*
X102745665Y-105133650D01*
X102734298Y-105134005D01*
X102717213Y-105133413D01*
X102700577Y-105131635D01*
X102684392Y-105128673D01*
X102668658Y-105124525D01*
X102653374Y-105119193D01*
X102638540Y-105112676D01*
X102624156Y-105104974D01*
X102610223Y-105096086D01*
X102596740Y-105086014D01*
X102583707Y-105074757D01*
X102571125Y-105062315D01*
X102558993Y-105048688D01*
X102547311Y-105033876D01*
X102536080Y-105017879D01*
X102525299Y-105000697D01*
X102514968Y-104982330D01*
X102505208Y-104962964D01*
X102496077Y-104942694D01*
X102487577Y-104921520D01*
X102479706Y-104899440D01*
X102472464Y-104876457D01*
X102465852Y-104852569D01*
X102459870Y-104827776D01*
X102454518Y-104802079D01*
X102449795Y-104775478D01*
X102445702Y-104747972D01*
X102442239Y-104719561D01*
X102440744Y-104705017D01*
X102439405Y-104690246D01*
X102438225Y-104675250D01*
X102437202Y-104660027D01*
X102436336Y-104644578D01*
X102435627Y-104628903D01*
X102435076Y-104613002D01*
X102434683Y-104596875D01*
X102434447Y-104580522D01*
X102434368Y-104563942D01*
X102434558Y-104535699D01*
X102435127Y-104508123D01*
X102436077Y-104481214D01*
X102437406Y-104454972D01*
X102439114Y-104429396D01*
X102441203Y-104404488D01*
X102443671Y-104380246D01*
X102446519Y-104356672D01*
X102449747Y-104333764D01*
X102453354Y-104311523D01*
X102457341Y-104289949D01*
X102461708Y-104269042D01*
X102466454Y-104248802D01*
X102471581Y-104229228D01*
X102477087Y-104210322D01*
X102482972Y-104192083D01*
G37*
G36*
X102450000Y-110604923D02*
G01*
X102450000Y-110276294D01*
X103039113Y-110276294D01*
X103051129Y-110276341D01*
X103063301Y-110276483D01*
X103075629Y-110276719D01*
X103088114Y-110277050D01*
X103100756Y-110277475D01*
X103113554Y-110277994D01*
X103126508Y-110278608D01*
X103139619Y-110279316D01*
X103152887Y-110280119D01*
X103166310Y-110281017D01*
X103179891Y-110282008D01*
X103193627Y-110283095D01*
X103207521Y-110284275D01*
X103221570Y-110285550D01*
X103235776Y-110286920D01*
X103250139Y-110288384D01*
X103250139Y-110279958D01*
X103239010Y-110276772D01*
X103228276Y-110273626D01*
X103217936Y-110270521D01*
X103207992Y-110267455D01*
X103193816Y-110262932D01*
X103180529Y-110258500D01*
X103168130Y-110254157D01*
X103156621Y-110249904D01*
X103146000Y-110245742D01*
X103136268Y-110241670D01*
X103124674Y-110236380D01*
X103119469Y-110233796D01*
X102450000Y-109887581D01*
X102450000Y-109615739D01*
X103112630Y-109263297D01*
X103123071Y-109258297D01*
X103134370Y-109253692D01*
X103144561Y-109249884D01*
X103156226Y-109245775D01*
X103169362Y-109241362D01*
X103178938Y-109238252D01*
X103189169Y-109235008D01*
X103200054Y-109231629D01*
X103211594Y-109228116D01*
X103223788Y-109224468D01*
X103236636Y-109220685D01*
X103250139Y-109216769D01*
X103250139Y-109207609D01*
X103232082Y-109209251D01*
X103214304Y-109210786D01*
X103196804Y-109212216D01*
X103179583Y-109213540D01*
X103162641Y-109214758D01*
X103145977Y-109215870D01*
X103129592Y-109216876D01*
X103113485Y-109217776D01*
X103097657Y-109218570D01*
X103082108Y-109219259D01*
X103066837Y-109219841D01*
X103051844Y-109220318D01*
X103037131Y-109220688D01*
X103022696Y-109220953D01*
X103008539Y-109221112D01*
X102994661Y-109221165D01*
X102450000Y-109221165D01*
X102450000Y-108921113D01*
X103434787Y-108921113D01*
X103434787Y-109408743D01*
X102851046Y-109710628D01*
X102837899Y-109717189D01*
X102824742Y-109723409D01*
X102811578Y-109729287D01*
X102798404Y-109734825D01*
X102785222Y-109740021D01*
X102772032Y-109744875D01*
X102758833Y-109749389D01*
X102745625Y-109753561D01*
X102732409Y-109757392D01*
X102719184Y-109760881D01*
X102710362Y-109763018D01*
X102710362Y-109769246D01*
X102720477Y-109772738D01*
X102730428Y-109776253D01*
X102740215Y-109779790D01*
X102749838Y-109783351D01*
X102763965Y-109788735D01*
X102777722Y-109794170D01*
X102791110Y-109799657D01*
X102804129Y-109805195D01*
X102816778Y-109810785D01*
X102829059Y-109816427D01*
X102840970Y-109822120D01*
X102852512Y-109827864D01*
X103434787Y-110129748D01*
X103434787Y-110604923D01*
X102450000Y-110604923D01*
G37*
G36*
X102944124Y-117784029D02*
G01*
X102958384Y-117784623D01*
X102972473Y-117785615D01*
X102986391Y-117787002D01*
X103000138Y-117788786D01*
X103013713Y-117790966D01*
X103027117Y-117793543D01*
X103040350Y-117796516D01*
X103053411Y-117799886D01*
X103066301Y-117803652D01*
X103079020Y-117807814D01*
X103091568Y-117812373D01*
X103103945Y-117817328D01*
X103116150Y-117822680D01*
X103128184Y-117828428D01*
X103140047Y-117834572D01*
X103151738Y-117841113D01*
X103163258Y-117848050D01*
X103174607Y-117855384D01*
X103185785Y-117863114D01*
X103196791Y-117871241D01*
X103207627Y-117879764D01*
X103218290Y-117888683D01*
X103228783Y-117897999D01*
X103239104Y-117907711D01*
X103249255Y-117917820D01*
X103259234Y-117928325D01*
X103269041Y-117939226D01*
X103278678Y-117950524D01*
X103288143Y-117962219D01*
X103297437Y-117974309D01*
X103306559Y-117986796D01*
X103315410Y-117999544D01*
X103323980Y-118012554D01*
X103332268Y-118025825D01*
X103340276Y-118039358D01*
X103348003Y-118053153D01*
X103355449Y-118067211D01*
X103362614Y-118081530D01*
X103369497Y-118096110D01*
X103376100Y-118110953D01*
X103382422Y-118126058D01*
X103388463Y-118141424D01*
X103394223Y-118157053D01*
X103399702Y-118172943D01*
X103404900Y-118189095D01*
X103409817Y-118205509D01*
X103414453Y-118222185D01*
X103418809Y-118239123D01*
X103422883Y-118256323D01*
X103426676Y-118273785D01*
X103430188Y-118291508D01*
X103433419Y-118309494D01*
X103436369Y-118327741D01*
X103439039Y-118346251D01*
X103441427Y-118365022D01*
X103443534Y-118384055D01*
X103445361Y-118403350D01*
X103446906Y-118422907D01*
X103448170Y-118442725D01*
X103449154Y-118462806D01*
X103449856Y-118483148D01*
X103450278Y-118503753D01*
X103450418Y-118524619D01*
X103450284Y-118544284D01*
X103449880Y-118563711D01*
X103449207Y-118582901D01*
X103448266Y-118601853D01*
X103447055Y-118620568D01*
X103445575Y-118639045D01*
X103443827Y-118657285D01*
X103441809Y-118675286D01*
X103439522Y-118693051D01*
X103436966Y-118710578D01*
X103434141Y-118727867D01*
X103431047Y-118744919D01*
X103427684Y-118761733D01*
X103424051Y-118778309D01*
X103420150Y-118794648D01*
X103415980Y-118810750D01*
X103411541Y-118826614D01*
X103406832Y-118842240D01*
X103401855Y-118857629D01*
X103396608Y-118872780D01*
X103391093Y-118887693D01*
X103385308Y-118902369D01*
X103379255Y-118916808D01*
X103372932Y-118931009D01*
X103366340Y-118944972D01*
X103359480Y-118958698D01*
X103352350Y-118972186D01*
X103344951Y-118985437D01*
X103337283Y-118998450D01*
X103329346Y-119011225D01*
X103321140Y-119023763D01*
X103312665Y-119036064D01*
X103304015Y-119048100D01*
X103295190Y-119059754D01*
X103286193Y-119071026D01*
X103277021Y-119081916D01*
X103267676Y-119092424D01*
X103258157Y-119102550D01*
X103248465Y-119112294D01*
X103238599Y-119121656D01*
X103228559Y-119130635D01*
X103218346Y-119139232D01*
X103207959Y-119147448D01*
X103197398Y-119155281D01*
X103186664Y-119162732D01*
X103175756Y-119169801D01*
X103164674Y-119176488D01*
X103153419Y-119182793D01*
X103141990Y-119188715D01*
X103130388Y-119194256D01*
X103118611Y-119199414D01*
X103106662Y-119204191D01*
X103094538Y-119208585D01*
X103082241Y-119212597D01*
X103069770Y-119216227D01*
X103057126Y-119219475D01*
X103044308Y-119222341D01*
X103031317Y-119224824D01*
X103018151Y-119226926D01*
X103004812Y-119228645D01*
X102991300Y-119229983D01*
X102977614Y-119230938D01*
X102963754Y-119231511D01*
X102949720Y-119231702D01*
X102935366Y-119231504D01*
X102921185Y-119230909D01*
X102907177Y-119229918D01*
X102893342Y-119228531D01*
X102879681Y-119226747D01*
X102866192Y-119224567D01*
X102852877Y-119221990D01*
X102839735Y-119219017D01*
X102826766Y-119215647D01*
X102813970Y-119211881D01*
X102801347Y-119207719D01*
X102788898Y-119203160D01*
X102776622Y-119198205D01*
X102764518Y-119192853D01*
X102752588Y-119187105D01*
X102740832Y-119180961D01*
X102729248Y-119174420D01*
X102717838Y-119167483D01*
X102706600Y-119160149D01*
X102695536Y-119152419D01*
X102684645Y-119144292D01*
X102673927Y-119135769D01*
X102663383Y-119126850D01*
X102653011Y-119117534D01*
X102642813Y-119107822D01*
X102632788Y-119097713D01*
X102622936Y-119087208D01*
X102613257Y-119076307D01*
X102603751Y-119065009D01*
X102594419Y-119053314D01*
X102585259Y-119041224D01*
X102576273Y-119028736D01*
X102569221Y-119018364D01*
X102566992Y-119015181D01*
X102560009Y-119004688D01*
X102558443Y-119001992D01*
X102324947Y-119375683D01*
X102324947Y-118910034D01*
X102451465Y-118714396D01*
X102448410Y-118696087D01*
X102445655Y-118677430D01*
X102443200Y-118658426D01*
X102441046Y-118639074D01*
X102439193Y-118619374D01*
X102437640Y-118599326D01*
X102436388Y-118578931D01*
X102435437Y-118558187D01*
X102434785Y-118537096D01*
X102434435Y-118515658D01*
X102434395Y-118507034D01*
X102621946Y-118507034D01*
X102622271Y-118528279D01*
X102623244Y-118548965D01*
X102624866Y-118569094D01*
X102627137Y-118588664D01*
X102630056Y-118607677D01*
X102633624Y-118626131D01*
X102637841Y-118644027D01*
X102642707Y-118661365D01*
X102648222Y-118678144D01*
X102654385Y-118694366D01*
X102661197Y-118710030D01*
X102668658Y-118725135D01*
X102676768Y-118739682D01*
X102685526Y-118753671D01*
X102694933Y-118767102D01*
X102704989Y-118779975D01*
X102715798Y-118792220D01*
X102727097Y-118803674D01*
X102738886Y-118814339D01*
X102751166Y-118824214D01*
X102763936Y-118833298D01*
X102777197Y-118841593D01*
X102790948Y-118849098D01*
X102805190Y-118855812D01*
X102819922Y-118861737D01*
X102835144Y-118866872D01*
X102850856Y-118871217D01*
X102867059Y-118874772D01*
X102883753Y-118877537D01*
X102900937Y-118879512D01*
X102918611Y-118880697D01*
X102936775Y-118881092D01*
X102955718Y-118880710D01*
X102974137Y-118879563D01*
X102992034Y-118877653D01*
X103009407Y-118874978D01*
X103026258Y-118871539D01*
X103042586Y-118867336D01*
X103058391Y-118862368D01*
X103073674Y-118856637D01*
X103088433Y-118850141D01*
X103102670Y-118842881D01*
X103116384Y-118834857D01*
X103129575Y-118826068D01*
X103142243Y-118816516D01*
X103154388Y-118806199D01*
X103166011Y-118795118D01*
X103177110Y-118783272D01*
X103187492Y-118770849D01*
X103197203Y-118757850D01*
X103206245Y-118744276D01*
X103214617Y-118730127D01*
X103222319Y-118715402D01*
X103229352Y-118700102D01*
X103235714Y-118684227D01*
X103241407Y-118667776D01*
X103246431Y-118650750D01*
X103250784Y-118633149D01*
X103254468Y-118614972D01*
X103257482Y-118596220D01*
X103259826Y-118576893D01*
X103261500Y-118556991D01*
X103262505Y-118536513D01*
X103262840Y-118515460D01*
X103262493Y-118493936D01*
X103261454Y-118472962D01*
X103259723Y-118452537D01*
X103257298Y-118432662D01*
X103254181Y-118413336D01*
X103250372Y-118394560D01*
X103245870Y-118376333D01*
X103240675Y-118358656D01*
X103234787Y-118341529D01*
X103228207Y-118324951D01*
X103220934Y-118308922D01*
X103212968Y-118293443D01*
X103204310Y-118278514D01*
X103194959Y-118264134D01*
X103184916Y-118250304D01*
X103174180Y-118237023D01*
X103162964Y-118224557D01*
X103151301Y-118212895D01*
X103139189Y-118202037D01*
X103126629Y-118191983D01*
X103113620Y-118182734D01*
X103100163Y-118174289D01*
X103086257Y-118166648D01*
X103071903Y-118159812D01*
X103057100Y-118153780D01*
X103041850Y-118148552D01*
X103026150Y-118144128D01*
X103010003Y-118140509D01*
X102993406Y-118137694D01*
X102976362Y-118135683D01*
X102958869Y-118134477D01*
X102940928Y-118134075D01*
X102922757Y-118134477D01*
X102905066Y-118135683D01*
X102887853Y-118137694D01*
X102871120Y-118140509D01*
X102854865Y-118144128D01*
X102839090Y-118148552D01*
X102823793Y-118153780D01*
X102808975Y-118159812D01*
X102794637Y-118166648D01*
X102780777Y-118174289D01*
X102767396Y-118182734D01*
X102754494Y-118191983D01*
X102742071Y-118202037D01*
X102730127Y-118212895D01*
X102718662Y-118224557D01*
X102707676Y-118237023D01*
X102697294Y-118250142D01*
X102687583Y-118263762D01*
X102678541Y-118277883D01*
X102670169Y-118292505D01*
X102662467Y-118307627D01*
X102655434Y-118323250D01*
X102649072Y-118339375D01*
X102643379Y-118356000D01*
X102638356Y-118373126D01*
X102634002Y-118390753D01*
X102630318Y-118408881D01*
X102627305Y-118427510D01*
X102624960Y-118446639D01*
X102623286Y-118466270D01*
X102622281Y-118486401D01*
X102621946Y-118507034D01*
X102434395Y-118507034D01*
X102434368Y-118501172D01*
X102434502Y-118481435D01*
X102434903Y-118461928D01*
X102435572Y-118442652D01*
X102436509Y-118423606D01*
X102437713Y-118404790D01*
X102439185Y-118386205D01*
X102440925Y-118367850D01*
X102442932Y-118349726D01*
X102445206Y-118331832D01*
X102447749Y-118314169D01*
X102450559Y-118296736D01*
X102453636Y-118279533D01*
X102456982Y-118262561D01*
X102460594Y-118245819D01*
X102464475Y-118229307D01*
X102468623Y-118213026D01*
X102473039Y-118196976D01*
X102477722Y-118181156D01*
X102482673Y-118165566D01*
X102487891Y-118150206D01*
X102493378Y-118135077D01*
X102499131Y-118120179D01*
X102505153Y-118105511D01*
X102511442Y-118091073D01*
X102517998Y-118076866D01*
X102524823Y-118062889D01*
X102531915Y-118049142D01*
X102539274Y-118035626D01*
X102546901Y-118022340D01*
X102554796Y-118009285D01*
X102562958Y-117996460D01*
X102571388Y-117983866D01*
X102580123Y-117971559D01*
X102589017Y-117959643D01*
X102598069Y-117948117D01*
X102607280Y-117936982D01*
X102616651Y-117926238D01*
X102626180Y-117915885D01*
X102635868Y-117905922D01*
X102645714Y-117896350D01*
X102655720Y-117887169D01*
X102665884Y-117878378D01*
X102676208Y-117869978D01*
X102686690Y-117861969D01*
X102697331Y-117854351D01*
X102708131Y-117847123D01*
X102719090Y-117840286D01*
X102730207Y-117833839D01*
X102741484Y-117827784D01*
X102752919Y-117822119D01*
X102764513Y-117816844D01*
X102776266Y-117811961D01*
X102788178Y-117807468D01*
X102800249Y-117803365D01*
X102812478Y-117799654D01*
X102824866Y-117796333D01*
X102837414Y-117793403D01*
X102850120Y-117790863D01*
X102862985Y-117788714D01*
X102876009Y-117786956D01*
X102889191Y-117785589D01*
X102902533Y-117784612D01*
X102916033Y-117784026D01*
X102929692Y-117783831D01*
X102944124Y-117784029D01*
G37*
G36*
X102825174Y-119350108D02*
G01*
X102833346Y-119360851D01*
X102841614Y-119371643D01*
X102849978Y-119382484D01*
X102858437Y-119393373D01*
X102866991Y-119404311D01*
X102875640Y-119415298D01*
X102884385Y-119426333D01*
X102893226Y-119437417D01*
X102902162Y-119448550D01*
X102911193Y-119459731D01*
X102920320Y-119470961D01*
X102929542Y-119482240D01*
X102938859Y-119493567D01*
X102948272Y-119504943D01*
X102957780Y-119516367D01*
X102967354Y-119527836D01*
X102976961Y-119539254D01*
X102986603Y-119550619D01*
X102996279Y-119561934D01*
X103005990Y-119573197D01*
X103015735Y-119584408D01*
X103025514Y-119595568D01*
X103035327Y-119606676D01*
X103045175Y-119617733D01*
X103055058Y-119628738D01*
X103064974Y-119639692D01*
X103074925Y-119650594D01*
X103084911Y-119661445D01*
X103094930Y-119672244D01*
X103104984Y-119682991D01*
X103115073Y-119693688D01*
X103125212Y-119704312D01*
X103135356Y-119714845D01*
X103145507Y-119725286D01*
X103155663Y-119735636D01*
X103165825Y-119745894D01*
X103175992Y-119756061D01*
X103186166Y-119766136D01*
X103196345Y-119776120D01*
X103206529Y-119786011D01*
X103216720Y-119795812D01*
X103226916Y-119805520D01*
X103237118Y-119815137D01*
X103247326Y-119824663D01*
X103257539Y-119834097D01*
X103267758Y-119843439D01*
X103277983Y-119852690D01*
X103288212Y-119861809D01*
X103298385Y-119870756D01*
X103308500Y-119879532D01*
X103318558Y-119888135D01*
X103328558Y-119896568D01*
X103338502Y-119904828D01*
X103348388Y-119912917D01*
X103358217Y-119920833D01*
X103367988Y-119928579D01*
X103377703Y-119936152D01*
X103387360Y-119943554D01*
X103396960Y-119950784D01*
X103406502Y-119957842D01*
X103415988Y-119964728D01*
X103425416Y-119971443D01*
X103434787Y-119977986D01*
X103434787Y-120280237D01*
X102809525Y-120280237D01*
X102809525Y-120457191D01*
X102653210Y-120457191D01*
X102653210Y-120280237D01*
X102450000Y-120280237D01*
X102450000Y-119983482D01*
X102653210Y-119983482D01*
X102653210Y-119631039D01*
X102809525Y-119631039D01*
X102809525Y-119983482D01*
X103158548Y-119983482D01*
X103147233Y-119974403D01*
X103135879Y-119965118D01*
X103124488Y-119955627D01*
X103115919Y-119948373D01*
X103107329Y-119941003D01*
X103098717Y-119933518D01*
X103090084Y-119925917D01*
X103081429Y-119918199D01*
X103072753Y-119910366D01*
X103066957Y-119905080D01*
X103058269Y-119897141D01*
X103049606Y-119889126D01*
X103040969Y-119881033D01*
X103032358Y-119872863D01*
X103023773Y-119864615D01*
X103015214Y-119856290D01*
X103006680Y-119847888D01*
X102998172Y-119839409D01*
X102989690Y-119830852D01*
X102981233Y-119822218D01*
X102975610Y-119816420D01*
X102967207Y-119807751D01*
X102958852Y-119799057D01*
X102950543Y-119790338D01*
X102942282Y-119781592D01*
X102934069Y-119772821D01*
X102925902Y-119764024D01*
X102917783Y-119755201D01*
X102909710Y-119746352D01*
X102901685Y-119737478D01*
X102893708Y-119728578D01*
X102888415Y-119722630D01*
X102880584Y-119713795D01*
X102870282Y-119702094D01*
X102860140Y-119690485D01*
X102850158Y-119678967D01*
X102840337Y-119667541D01*
X102830676Y-119656207D01*
X102821175Y-119644964D01*
X102811835Y-119633813D01*
X102809525Y-119631039D01*
X102653210Y-119631039D01*
X102653210Y-119339413D01*
X102817096Y-119339413D01*
X102825174Y-119350108D01*
G37*
G36*
X102450000Y-125253632D02*
G01*
X102450000Y-124925003D01*
X103039113Y-124925003D01*
X103051129Y-124925050D01*
X103063301Y-124925192D01*
X103075629Y-124925428D01*
X103088114Y-124925759D01*
X103100756Y-124926184D01*
X103113554Y-124926703D01*
X103126508Y-124927317D01*
X103139619Y-124928025D01*
X103152887Y-124928828D01*
X103166310Y-124929726D01*
X103179891Y-124930717D01*
X103193627Y-124931804D01*
X103207521Y-124932984D01*
X103221570Y-124934259D01*
X103235776Y-124935629D01*
X103250139Y-124937093D01*
X103250139Y-124928667D01*
X103239010Y-124925481D01*
X103228276Y-124922335D01*
X103217936Y-124919230D01*
X103207992Y-124916164D01*
X103193816Y-124911641D01*
X103180529Y-124907209D01*
X103168130Y-124902866D01*
X103156621Y-124898613D01*
X103146000Y-124894451D01*
X103136268Y-124890379D01*
X103124674Y-124885089D01*
X103119469Y-124882505D01*
X102450000Y-124536290D01*
X102450000Y-124264448D01*
X103112630Y-123912006D01*
X103123071Y-123907006D01*
X103134370Y-123902401D01*
X103144561Y-123898593D01*
X103156226Y-123894484D01*
X103169362Y-123890071D01*
X103178938Y-123886961D01*
X103189169Y-123883717D01*
X103200054Y-123880338D01*
X103211594Y-123876825D01*
X103223788Y-123873177D01*
X103236636Y-123869394D01*
X103250139Y-123865478D01*
X103250139Y-123856318D01*
X103232082Y-123857960D01*
X103214304Y-123859495D01*
X103196804Y-123860925D01*
X103179583Y-123862249D01*
X103162641Y-123863467D01*
X103145977Y-123864579D01*
X103129592Y-123865585D01*
X103113485Y-123866485D01*
X103097657Y-123867279D01*
X103082108Y-123867968D01*
X103066837Y-123868550D01*
X103051844Y-123869027D01*
X103037131Y-123869397D01*
X103022696Y-123869662D01*
X103008539Y-123869821D01*
X102994661Y-123869874D01*
X102450000Y-123869874D01*
X102450000Y-123569822D01*
X103434787Y-123569822D01*
X103434787Y-124057452D01*
X102851046Y-124359337D01*
X102837899Y-124365898D01*
X102824742Y-124372118D01*
X102811578Y-124377996D01*
X102798404Y-124383534D01*
X102785222Y-124388730D01*
X102772032Y-124393584D01*
X102758833Y-124398098D01*
X102745625Y-124402270D01*
X102732409Y-124406101D01*
X102719184Y-124409590D01*
X102710362Y-124411727D01*
X102710362Y-124417955D01*
X102720477Y-124421447D01*
X102730428Y-124424962D01*
X102740215Y-124428499D01*
X102749838Y-124432060D01*
X102763965Y-124437444D01*
X102777722Y-124442879D01*
X102791110Y-124448366D01*
X102804129Y-124453904D01*
X102816778Y-124459494D01*
X102829059Y-124465136D01*
X102840970Y-124470829D01*
X102852512Y-124476573D01*
X103434787Y-124778457D01*
X103434787Y-125253632D01*
X102450000Y-125253632D01*
G37*
D10*
X99797664Y-71704281D02*
X99797664Y-72575138D01*
X99797664Y-72575138D02*
X97968864Y-72575138D01*
X99100979Y-71094681D02*
X99100979Y-69701310D01*
X99797664Y-70397995D02*
X98404293Y-70397995D01*
D11*
X89584318Y-96717856D02*
X90491461Y-96717856D01*
X90491461Y-96717856D02*
X90672889Y-96778333D01*
X90672889Y-96778333D02*
X90793842Y-96899285D01*
X90793842Y-96899285D02*
X90854318Y-97080714D01*
X90854318Y-97080714D02*
X90854318Y-97201666D01*
X89705270Y-96173571D02*
X89644794Y-96113095D01*
X89644794Y-96113095D02*
X89584318Y-95992142D01*
X89584318Y-95992142D02*
X89584318Y-95689761D01*
X89584318Y-95689761D02*
X89644794Y-95568809D01*
X89644794Y-95568809D02*
X89705270Y-95508333D01*
X89705270Y-95508333D02*
X89826222Y-95447856D01*
X89826222Y-95447856D02*
X89947175Y-95447856D01*
X89947175Y-95447856D02*
X90128603Y-95508333D01*
X90128603Y-95508333D02*
X90854318Y-96234047D01*
X90854318Y-96234047D02*
X90854318Y-95447856D01*
X89705270Y-94964047D02*
X89644794Y-94903571D01*
X89644794Y-94903571D02*
X89584318Y-94782618D01*
X89584318Y-94782618D02*
X89584318Y-94480237D01*
X89584318Y-94480237D02*
X89644794Y-94359285D01*
X89644794Y-94359285D02*
X89705270Y-94298809D01*
X89705270Y-94298809D02*
X89826222Y-94238332D01*
X89826222Y-94238332D02*
X89947175Y-94238332D01*
X89947175Y-94238332D02*
X90128603Y-94298809D01*
X90128603Y-94298809D02*
X90854318Y-95024523D01*
X90854318Y-95024523D02*
X90854318Y-94238332D01*
X89705270Y-93754523D02*
X89644794Y-93694047D01*
X89644794Y-93694047D02*
X89584318Y-93573094D01*
X89584318Y-93573094D02*
X89584318Y-93270713D01*
X89584318Y-93270713D02*
X89644794Y-93149761D01*
X89644794Y-93149761D02*
X89705270Y-93089285D01*
X89705270Y-93089285D02*
X89826222Y-93028808D01*
X89826222Y-93028808D02*
X89947175Y-93028808D01*
X89947175Y-93028808D02*
X90128603Y-93089285D01*
X90128603Y-93089285D02*
X90854318Y-93814999D01*
X90854318Y-93814999D02*
X90854318Y-93028808D01*
X89304318Y-119432856D02*
X90211461Y-119432856D01*
X90211461Y-119432856D02*
X90392889Y-119493333D01*
X90392889Y-119493333D02*
X90513842Y-119614285D01*
X90513842Y-119614285D02*
X90574318Y-119795714D01*
X90574318Y-119795714D02*
X90574318Y-119916666D01*
X89425270Y-118888571D02*
X89364794Y-118828095D01*
X89364794Y-118828095D02*
X89304318Y-118707142D01*
X89304318Y-118707142D02*
X89304318Y-118404761D01*
X89304318Y-118404761D02*
X89364794Y-118283809D01*
X89364794Y-118283809D02*
X89425270Y-118223333D01*
X89425270Y-118223333D02*
X89546222Y-118162856D01*
X89546222Y-118162856D02*
X89667175Y-118162856D01*
X89667175Y-118162856D02*
X89848603Y-118223333D01*
X89848603Y-118223333D02*
X90574318Y-118949047D01*
X90574318Y-118949047D02*
X90574318Y-118162856D01*
X89425270Y-117679047D02*
X89364794Y-117618571D01*
X89364794Y-117618571D02*
X89304318Y-117497618D01*
X89304318Y-117497618D02*
X89304318Y-117195237D01*
X89304318Y-117195237D02*
X89364794Y-117074285D01*
X89364794Y-117074285D02*
X89425270Y-117013809D01*
X89425270Y-117013809D02*
X89546222Y-116953332D01*
X89546222Y-116953332D02*
X89667175Y-116953332D01*
X89667175Y-116953332D02*
X89848603Y-117013809D01*
X89848603Y-117013809D02*
X90574318Y-117739523D01*
X90574318Y-117739523D02*
X90574318Y-116953332D01*
X89727651Y-115864761D02*
X90574318Y-115864761D01*
X89243842Y-116167142D02*
X90150984Y-116469523D01*
X90150984Y-116469523D02*
X90150984Y-115683332D01*
D14*
X86434285Y-127524819D02*
X86434285Y-128239104D01*
X86434285Y-128239104D02*
X86386666Y-128381961D01*
X86386666Y-128381961D02*
X86291428Y-128477200D01*
X86291428Y-128477200D02*
X86148571Y-128524819D01*
X86148571Y-128524819D02*
X86053333Y-128524819D01*
X86862857Y-127620057D02*
X86910476Y-127572438D01*
X86910476Y-127572438D02*
X87005714Y-127524819D01*
X87005714Y-127524819D02*
X87243809Y-127524819D01*
X87243809Y-127524819D02*
X87339047Y-127572438D01*
X87339047Y-127572438D02*
X87386666Y-127620057D01*
X87386666Y-127620057D02*
X87434285Y-127715295D01*
X87434285Y-127715295D02*
X87434285Y-127810533D01*
X87434285Y-127810533D02*
X87386666Y-127953390D01*
X87386666Y-127953390D02*
X86815238Y-128524819D01*
X86815238Y-128524819D02*
X87434285Y-128524819D01*
X87815238Y-127620057D02*
X87862857Y-127572438D01*
X87862857Y-127572438D02*
X87958095Y-127524819D01*
X87958095Y-127524819D02*
X88196190Y-127524819D01*
X88196190Y-127524819D02*
X88291428Y-127572438D01*
X88291428Y-127572438D02*
X88339047Y-127620057D01*
X88339047Y-127620057D02*
X88386666Y-127715295D01*
X88386666Y-127715295D02*
X88386666Y-127810533D01*
X88386666Y-127810533D02*
X88339047Y-127953390D01*
X88339047Y-127953390D02*
X87767619Y-128524819D01*
X87767619Y-128524819D02*
X88386666Y-128524819D01*
X89243809Y-127524819D02*
X89053333Y-127524819D01*
X89053333Y-127524819D02*
X88958095Y-127572438D01*
X88958095Y-127572438D02*
X88910476Y-127620057D01*
X88910476Y-127620057D02*
X88815238Y-127762914D01*
X88815238Y-127762914D02*
X88767619Y-127953390D01*
X88767619Y-127953390D02*
X88767619Y-128334342D01*
X88767619Y-128334342D02*
X88815238Y-128429580D01*
X88815238Y-128429580D02*
X88862857Y-128477200D01*
X88862857Y-128477200D02*
X88958095Y-128524819D01*
X88958095Y-128524819D02*
X89148571Y-128524819D01*
X89148571Y-128524819D02*
X89243809Y-128477200D01*
X89243809Y-128477200D02*
X89291428Y-128429580D01*
X89291428Y-128429580D02*
X89339047Y-128334342D01*
X89339047Y-128334342D02*
X89339047Y-128096247D01*
X89339047Y-128096247D02*
X89291428Y-128001009D01*
X89291428Y-128001009D02*
X89243809Y-127953390D01*
X89243809Y-127953390D02*
X89148571Y-127905771D01*
X89148571Y-127905771D02*
X88958095Y-127905771D01*
X88958095Y-127905771D02*
X88862857Y-127953390D01*
X88862857Y-127953390D02*
X88815238Y-128001009D01*
X88815238Y-128001009D02*
X88767619Y-128096247D01*
D11*
X89514318Y-106892856D02*
X90421461Y-106892856D01*
X90421461Y-106892856D02*
X90602889Y-106953333D01*
X90602889Y-106953333D02*
X90723842Y-107074285D01*
X90723842Y-107074285D02*
X90784318Y-107255714D01*
X90784318Y-107255714D02*
X90784318Y-107376666D01*
X89635270Y-106348571D02*
X89574794Y-106288095D01*
X89574794Y-106288095D02*
X89514318Y-106167142D01*
X89514318Y-106167142D02*
X89514318Y-105864761D01*
X89514318Y-105864761D02*
X89574794Y-105743809D01*
X89574794Y-105743809D02*
X89635270Y-105683333D01*
X89635270Y-105683333D02*
X89756222Y-105622856D01*
X89756222Y-105622856D02*
X89877175Y-105622856D01*
X89877175Y-105622856D02*
X90058603Y-105683333D01*
X90058603Y-105683333D02*
X90784318Y-106409047D01*
X90784318Y-106409047D02*
X90784318Y-105622856D01*
X89635270Y-105139047D02*
X89574794Y-105078571D01*
X89574794Y-105078571D02*
X89514318Y-104957618D01*
X89514318Y-104957618D02*
X89514318Y-104655237D01*
X89514318Y-104655237D02*
X89574794Y-104534285D01*
X89574794Y-104534285D02*
X89635270Y-104473809D01*
X89635270Y-104473809D02*
X89756222Y-104413332D01*
X89756222Y-104413332D02*
X89877175Y-104413332D01*
X89877175Y-104413332D02*
X90058603Y-104473809D01*
X90058603Y-104473809D02*
X90784318Y-105199523D01*
X90784318Y-105199523D02*
X90784318Y-104413332D01*
X90784318Y-103203808D02*
X90784318Y-103929523D01*
X90784318Y-103566666D02*
X89514318Y-103566666D01*
X89514318Y-103566666D02*
X89695746Y-103687618D01*
X89695746Y-103687618D02*
X89816699Y-103808570D01*
X89816699Y-103808570D02*
X89877175Y-103929523D01*
X89504318Y-77632856D02*
X90411461Y-77632856D01*
X90411461Y-77632856D02*
X90592889Y-77693333D01*
X90592889Y-77693333D02*
X90713842Y-77814285D01*
X90713842Y-77814285D02*
X90774318Y-77995714D01*
X90774318Y-77995714D02*
X90774318Y-78116666D01*
X89625270Y-77088571D02*
X89564794Y-77028095D01*
X89564794Y-77028095D02*
X89504318Y-76907142D01*
X89504318Y-76907142D02*
X89504318Y-76604761D01*
X89504318Y-76604761D02*
X89564794Y-76483809D01*
X89564794Y-76483809D02*
X89625270Y-76423333D01*
X89625270Y-76423333D02*
X89746222Y-76362856D01*
X89746222Y-76362856D02*
X89867175Y-76362856D01*
X89867175Y-76362856D02*
X90048603Y-76423333D01*
X90048603Y-76423333D02*
X90774318Y-77149047D01*
X90774318Y-77149047D02*
X90774318Y-76362856D01*
X89625270Y-75879047D02*
X89564794Y-75818571D01*
X89564794Y-75818571D02*
X89504318Y-75697618D01*
X89504318Y-75697618D02*
X89504318Y-75395237D01*
X89504318Y-75395237D02*
X89564794Y-75274285D01*
X89564794Y-75274285D02*
X89625270Y-75213809D01*
X89625270Y-75213809D02*
X89746222Y-75153332D01*
X89746222Y-75153332D02*
X89867175Y-75153332D01*
X89867175Y-75153332D02*
X90048603Y-75213809D01*
X90048603Y-75213809D02*
X90774318Y-75939523D01*
X90774318Y-75939523D02*
X90774318Y-75153332D01*
X89504318Y-74729999D02*
X89504318Y-73943808D01*
X89504318Y-73943808D02*
X89988127Y-74367142D01*
X89988127Y-74367142D02*
X89988127Y-74185713D01*
X89988127Y-74185713D02*
X90048603Y-74064761D01*
X90048603Y-74064761D02*
X90109080Y-74004285D01*
X90109080Y-74004285D02*
X90230032Y-73943808D01*
X90230032Y-73943808D02*
X90532413Y-73943808D01*
X90532413Y-73943808D02*
X90653365Y-74004285D01*
X90653365Y-74004285D02*
X90713842Y-74064761D01*
X90713842Y-74064761D02*
X90774318Y-74185713D01*
X90774318Y-74185713D02*
X90774318Y-74548570D01*
X90774318Y-74548570D02*
X90713842Y-74669523D01*
X90713842Y-74669523D02*
X90653365Y-74729999D01*
X89614318Y-86872856D02*
X90521461Y-86872856D01*
X90521461Y-86872856D02*
X90702889Y-86933333D01*
X90702889Y-86933333D02*
X90823842Y-87054285D01*
X90823842Y-87054285D02*
X90884318Y-87235714D01*
X90884318Y-87235714D02*
X90884318Y-87356666D01*
X89735270Y-86328571D02*
X89674794Y-86268095D01*
X89674794Y-86268095D02*
X89614318Y-86147142D01*
X89614318Y-86147142D02*
X89614318Y-85844761D01*
X89614318Y-85844761D02*
X89674794Y-85723809D01*
X89674794Y-85723809D02*
X89735270Y-85663333D01*
X89735270Y-85663333D02*
X89856222Y-85602856D01*
X89856222Y-85602856D02*
X89977175Y-85602856D01*
X89977175Y-85602856D02*
X90158603Y-85663333D01*
X90158603Y-85663333D02*
X90884318Y-86389047D01*
X90884318Y-86389047D02*
X90884318Y-85602856D01*
X89735270Y-85119047D02*
X89674794Y-85058571D01*
X89674794Y-85058571D02*
X89614318Y-84937618D01*
X89614318Y-84937618D02*
X89614318Y-84635237D01*
X89614318Y-84635237D02*
X89674794Y-84514285D01*
X89674794Y-84514285D02*
X89735270Y-84453809D01*
X89735270Y-84453809D02*
X89856222Y-84393332D01*
X89856222Y-84393332D02*
X89977175Y-84393332D01*
X89977175Y-84393332D02*
X90158603Y-84453809D01*
X90158603Y-84453809D02*
X90884318Y-85179523D01*
X90884318Y-85179523D02*
X90884318Y-84393332D01*
X89614318Y-83244285D02*
X89614318Y-83849047D01*
X89614318Y-83849047D02*
X90219080Y-83909523D01*
X90219080Y-83909523D02*
X90158603Y-83849047D01*
X90158603Y-83849047D02*
X90098127Y-83728094D01*
X90098127Y-83728094D02*
X90098127Y-83425713D01*
X90098127Y-83425713D02*
X90158603Y-83304761D01*
X90158603Y-83304761D02*
X90219080Y-83244285D01*
X90219080Y-83244285D02*
X90340032Y-83183808D01*
X90340032Y-83183808D02*
X90642413Y-83183808D01*
X90642413Y-83183808D02*
X90763365Y-83244285D01*
X90763365Y-83244285D02*
X90823842Y-83304761D01*
X90823842Y-83304761D02*
X90884318Y-83425713D01*
X90884318Y-83425713D02*
X90884318Y-83728094D01*
X90884318Y-83728094D02*
X90823842Y-83849047D01*
X90823842Y-83849047D02*
X90763365Y-83909523D01*
D14*
X108204285Y-132374819D02*
X108204285Y-133089104D01*
X108204285Y-133089104D02*
X108156666Y-133231961D01*
X108156666Y-133231961D02*
X108061428Y-133327200D01*
X108061428Y-133327200D02*
X107918571Y-133374819D01*
X107918571Y-133374819D02*
X107823333Y-133374819D01*
X108585238Y-132374819D02*
X109204285Y-132374819D01*
X109204285Y-132374819D02*
X108870952Y-132755771D01*
X108870952Y-132755771D02*
X109013809Y-132755771D01*
X109013809Y-132755771D02*
X109109047Y-132803390D01*
X109109047Y-132803390D02*
X109156666Y-132851009D01*
X109156666Y-132851009D02*
X109204285Y-132946247D01*
X109204285Y-132946247D02*
X109204285Y-133184342D01*
X109204285Y-133184342D02*
X109156666Y-133279580D01*
X109156666Y-133279580D02*
X109109047Y-133327200D01*
X109109047Y-133327200D02*
X109013809Y-133374819D01*
X109013809Y-133374819D02*
X108728095Y-133374819D01*
X108728095Y-133374819D02*
X108632857Y-133327200D01*
X108632857Y-133327200D02*
X108585238Y-133279580D01*
X109585238Y-132470057D02*
X109632857Y-132422438D01*
X109632857Y-132422438D02*
X109728095Y-132374819D01*
X109728095Y-132374819D02*
X109966190Y-132374819D01*
X109966190Y-132374819D02*
X110061428Y-132422438D01*
X110061428Y-132422438D02*
X110109047Y-132470057D01*
X110109047Y-132470057D02*
X110156666Y-132565295D01*
X110156666Y-132565295D02*
X110156666Y-132660533D01*
X110156666Y-132660533D02*
X110109047Y-132803390D01*
X110109047Y-132803390D02*
X109537619Y-133374819D01*
X109537619Y-133374819D02*
X110156666Y-133374819D01*
X111109047Y-133374819D02*
X110537619Y-133374819D01*
X110823333Y-133374819D02*
X110823333Y-132374819D01*
X110823333Y-132374819D02*
X110728095Y-132517676D01*
X110728095Y-132517676D02*
X110632857Y-132612914D01*
X110632857Y-132612914D02*
X110537619Y-132660533D01*
D15*
%TO.C,R3*%
X111402500Y-83337742D02*
X111402500Y-83812258D01*
X110357500Y-83337742D02*
X110357500Y-83812258D01*
%TO.C,R7*%
X111052500Y-113817742D02*
X111052500Y-114292258D01*
X110007500Y-113817742D02*
X110007500Y-114292258D01*
%TO.C,D13*%
X117990000Y-124490000D02*
X119690000Y-124490000D01*
X117990000Y-124490000D02*
X117990000Y-121830000D01*
X119690000Y-124490000D02*
X119690000Y-121830000D01*
D16*
%TO.C,J317*%
X103425000Y-96620000D02*
X103425000Y-86460000D01*
X111575000Y-96620000D02*
X103425000Y-96620000D01*
X103425000Y-86460000D02*
X111575000Y-86460000D01*
X111575000Y-86460000D02*
X111575000Y-96620000D01*
D17*
X107550000Y-97430000D02*
G75*
G03*
X107450000Y-97430000I-50000J0D01*
G01*
X107450000Y-97430000D02*
G75*
G03*
X107550000Y-97430000I50000J0D01*
G01*
D16*
%TO.C,mouse-bite-2mm-slot*%
X102300000Y-87140000D02*
G75*
G03*
X100300000Y-87140000I-1000000J0D01*
G01*
X100300000Y-83140000D02*
G75*
G03*
X102300000Y-83140000I1000000J0D01*
G01*
D15*
%TO.C,R17*%
X119137500Y-76722258D02*
X119137500Y-76247742D01*
X120182500Y-76722258D02*
X120182500Y-76247742D01*
D16*
%TO.C,mouse-bite-2mm-slot*%
X102300000Y-129200000D02*
G75*
G03*
X100300000Y-129200000I-1000000J0D01*
G01*
X100300000Y-125200000D02*
G75*
G03*
X102300000Y-125200000I1000000J0D01*
G01*
D15*
%TO.C,D3*%
X118955000Y-121152500D02*
X120425000Y-121152500D01*
X120425000Y-121152500D02*
X120425000Y-118867500D01*
X118955000Y-118867500D02*
X118955000Y-121152500D01*
%TO.C,D7*%
X115890000Y-108132500D02*
X114190000Y-108132500D01*
X115890000Y-108132500D02*
X115890000Y-110792500D01*
X114190000Y-108132500D02*
X114190000Y-110792500D01*
%TO.C,J324*%
X119100000Y-96700000D02*
X119100000Y-98100000D01*
X119100000Y-98100000D02*
X120500000Y-98100000D01*
X120500000Y-96700000D02*
X119100000Y-96700000D01*
X120500000Y-98100000D02*
X120500000Y-96700000D01*
%TO.C,R5*%
X116177500Y-110252258D02*
X116177500Y-109777742D01*
X117222500Y-110252258D02*
X117222500Y-109777742D01*
%TO.C,D14*%
X114040000Y-107792500D02*
X112340000Y-107792500D01*
X114040000Y-107792500D02*
X114040000Y-110452500D01*
X112340000Y-107792500D02*
X112340000Y-110452500D01*
%TO.C,J325*%
X118900000Y-111100000D02*
X118900000Y-112500000D01*
X118900000Y-112500000D02*
X120300000Y-112500000D01*
X120300000Y-111100000D02*
X118900000Y-111100000D01*
X120300000Y-112500000D02*
X120300000Y-111100000D01*
%TO.C,R21*%
X114097258Y-93092500D02*
X113622742Y-93092500D01*
X114097258Y-92047500D02*
X113622742Y-92047500D01*
%TO.C,R14*%
X119437258Y-110322500D02*
X118962742Y-110322500D01*
X119437258Y-109277500D02*
X118962742Y-109277500D01*
%TO.C,D11*%
X113960000Y-104432500D02*
X112260000Y-104432500D01*
X113960000Y-104432500D02*
X113960000Y-107092500D01*
X112260000Y-104432500D02*
X112260000Y-107092500D01*
%TO.C,D1*%
X119085000Y-75135000D02*
X120555000Y-75135000D01*
X120555000Y-75135000D02*
X120555000Y-72850000D01*
X119085000Y-72850000D02*
X119085000Y-75135000D01*
%TO.C,R6*%
X111202500Y-98922742D02*
X111202500Y-99397258D01*
X110157500Y-98922742D02*
X110157500Y-99397258D01*
%TO.C,D303*%
X106050000Y-127352500D02*
X102750000Y-127352500D01*
X106050000Y-127352500D02*
X106050000Y-132862500D01*
X102750000Y-127352500D02*
X102750000Y-132862500D01*
%TO.C,Q1*%
X117490000Y-120637500D02*
X117490000Y-119987500D01*
X117490000Y-120637500D02*
X117490000Y-121287500D01*
X114370000Y-120637500D02*
X114370000Y-119987500D01*
X114370000Y-120637500D02*
X114370000Y-121287500D01*
X117770000Y-119715000D02*
X117440000Y-119475000D01*
X117770000Y-119235000D01*
X117770000Y-119715000D01*
G36*
X117770000Y-119715000D02*
G01*
X117440000Y-119475000D01*
X117770000Y-119235000D01*
X117770000Y-119715000D01*
G37*
%TO.C,R18*%
X119002742Y-107677500D02*
X119477258Y-107677500D01*
X119002742Y-108722500D02*
X119477258Y-108722500D01*
%TO.C,Q8*%
X114470000Y-97310000D02*
X118230000Y-97310000D01*
X114470000Y-104130000D02*
X118230000Y-104130000D01*
X118230000Y-97310000D02*
X118230000Y-98570000D01*
X118230000Y-104130000D02*
X118230000Y-102870000D01*
X113190000Y-97410000D02*
X112950000Y-97080000D01*
X113430000Y-97080000D01*
X113190000Y-97410000D01*
G36*
X113190000Y-97410000D02*
G01*
X112950000Y-97080000D01*
X113430000Y-97080000D01*
X113190000Y-97410000D01*
G37*
%TO.C,D6*%
X111980000Y-91867500D02*
X113680000Y-91867500D01*
X111980000Y-91867500D02*
X111980000Y-89207500D01*
X113680000Y-91867500D02*
X113680000Y-89207500D01*
%TO.C,D302*%
X102610000Y-112340000D02*
X102610000Y-115640000D01*
X102610000Y-112340000D02*
X108120000Y-112340000D01*
X102610000Y-115640000D02*
X108120000Y-115640000D01*
%TO.C,Q6*%
X114600000Y-81897500D02*
X118360000Y-81897500D01*
X114600000Y-88717500D02*
X118360000Y-88717500D01*
X118360000Y-81897500D02*
X118360000Y-83157500D01*
X118360000Y-88717500D02*
X118360000Y-87457500D01*
X113320000Y-81997500D02*
X113080000Y-81667500D01*
X113560000Y-81667500D01*
X113320000Y-81997500D01*
G36*
X113320000Y-81997500D02*
G01*
X113080000Y-81667500D01*
X113560000Y-81667500D01*
X113320000Y-81997500D01*
G37*
%TO.C,R12*%
X118962742Y-105877500D02*
X119437258Y-105877500D01*
X118962742Y-106922500D02*
X119437258Y-106922500D01*
%TO.C,D15*%
X111840000Y-95290000D02*
X111840000Y-96990000D01*
X111840000Y-95290000D02*
X114500000Y-95290000D01*
X111840000Y-96990000D02*
X114500000Y-96990000D01*
%TO.C,Q2*%
X117510000Y-106177500D02*
X117510000Y-105527500D01*
X117510000Y-106177500D02*
X117510000Y-106827500D01*
X114390000Y-106177500D02*
X114390000Y-105527500D01*
X114390000Y-106177500D02*
X114390000Y-106827500D01*
X117790000Y-105255000D02*
X117460000Y-105015000D01*
X117790000Y-104775000D01*
X117790000Y-105255000D01*
G36*
X117790000Y-105255000D02*
G01*
X117460000Y-105015000D01*
X117790000Y-104775000D01*
X117790000Y-105255000D01*
G37*
%TO.C,D5*%
X111950000Y-76527500D02*
X113650000Y-76527500D01*
X111950000Y-76527500D02*
X111950000Y-73867500D01*
X113650000Y-76527500D02*
X113650000Y-73867500D01*
%TO.C,R10*%
X119257500Y-93272258D02*
X119257500Y-92797742D01*
X120302500Y-93272258D02*
X120302500Y-92797742D01*
%TO.C,R204*%
X85845000Y-84523737D02*
X85845000Y-83076263D01*
X88555000Y-84523737D02*
X88555000Y-83076263D01*
D16*
%TO.C,J222*%
X96715000Y-90120000D02*
X96715000Y-100280000D01*
X88565000Y-90120000D02*
X96715000Y-90120000D01*
X96715000Y-100280000D02*
X88565000Y-100280000D01*
X88565000Y-100280000D02*
X88565000Y-90120000D01*
D17*
X92690000Y-89310000D02*
G75*
G03*
X92590000Y-89310000I-50000J0D01*
G01*
X92590000Y-89310000D02*
G75*
G03*
X92690000Y-89310000I50000J0D01*
G01*
D15*
%TO.C,D12*%
X112610000Y-125710000D02*
X114310000Y-125710000D01*
X112610000Y-125710000D02*
X112610000Y-123050000D01*
X114310000Y-125710000D02*
X114310000Y-123050000D01*
%TO.C,R202*%
X85490000Y-111727064D02*
X85490000Y-110272936D01*
X87310000Y-111727064D02*
X87310000Y-110272936D01*
%TO.C,R20*%
X113607742Y-93937500D02*
X114082258Y-93937500D01*
X113607742Y-94982500D02*
X114082258Y-94982500D01*
%TO.C,R4*%
X114722742Y-77157500D02*
X115197258Y-77157500D01*
X114722742Y-78202500D02*
X115197258Y-78202500D01*
D16*
%TO.C,J224*%
X96675000Y-110440000D02*
X96675000Y-120600000D01*
X88525000Y-110440000D02*
X96675000Y-110440000D01*
X96675000Y-120600000D02*
X88525000Y-120600000D01*
X88525000Y-120600000D02*
X88525000Y-110440000D01*
D17*
X92650000Y-109630000D02*
G75*
G03*
X92550000Y-109630000I-50000J0D01*
G01*
X92550000Y-109630000D02*
G75*
G03*
X92650000Y-109630000I50000J0D01*
G01*
D16*
%TO.C,J320*%
X103425000Y-111620000D02*
X103425000Y-101460000D01*
X111575000Y-111620000D02*
X103425000Y-111620000D01*
X103425000Y-101460000D02*
X111575000Y-101460000D01*
X111575000Y-101460000D02*
X111575000Y-111620000D01*
D17*
X107550000Y-112430000D02*
G75*
G03*
X107450000Y-112430000I-50000J0D01*
G01*
X107450000Y-112430000D02*
G75*
G03*
X107550000Y-112430000I50000J0D01*
G01*
D15*
%TO.C,D301*%
X102650000Y-97210000D02*
X102650000Y-100510000D01*
X102650000Y-97210000D02*
X108160000Y-97210000D01*
X102650000Y-100510000D02*
X108160000Y-100510000D01*
%TO.C,R201*%
X85490000Y-117064564D02*
X85490000Y-115610436D01*
X87310000Y-117064564D02*
X87310000Y-115610436D01*
%TO.C,Q3*%
X117730000Y-90252500D02*
X117730000Y-89602500D01*
X117730000Y-90252500D02*
X117730000Y-90902500D01*
X114610000Y-90252500D02*
X114610000Y-89602500D01*
X114610000Y-90252500D02*
X114610000Y-90902500D01*
X118010000Y-89330000D02*
X117680000Y-89090000D01*
X118010000Y-88850000D01*
X118010000Y-89330000D01*
G36*
X118010000Y-89330000D02*
G01*
X117680000Y-89090000D01*
X118010000Y-88850000D01*
X118010000Y-89330000D01*
G37*
D18*
%TO.C,J226*%
X85534600Y-122642999D02*
X85534600Y-129297799D01*
X85534600Y-129297799D02*
X98285400Y-129297799D01*
X98285400Y-122642999D02*
X85534600Y-122642999D01*
X98285400Y-129297799D02*
X98285400Y-122642999D01*
D16*
X98200000Y-125970000D02*
G75*
G03*
X98200000Y-125970000I0J0D01*
G01*
X98200000Y-125970000D02*
G75*
G03*
X98200000Y-125970000I0J0D01*
G01*
D19*
X99621000Y-126060000D02*
G75*
G03*
X98859000Y-126060000I-381000J0D01*
G01*
X98859000Y-126060000D02*
G75*
G03*
X99621000Y-126060000I381000J0D01*
G01*
D15*
%TO.C,R8*%
X114452258Y-126952500D02*
X113977742Y-126952500D01*
X114452258Y-125907500D02*
X113977742Y-125907500D01*
%TO.C,R11*%
X117277742Y-125857500D02*
X117752258Y-125857500D01*
X117277742Y-126902500D02*
X117752258Y-126902500D01*
%TO.C,D10*%
X118670000Y-97010000D02*
X118670000Y-95310000D01*
X118670000Y-97010000D02*
X116010000Y-97010000D01*
X118670000Y-95310000D02*
X116010000Y-95310000D01*
D16*
%TO.C,J318*%
X103425000Y-81700000D02*
X103425000Y-66460000D01*
X111575000Y-81700000D02*
X103425000Y-81700000D01*
X103425000Y-66460000D02*
X111575000Y-66460000D01*
X111575000Y-66460000D02*
X111575000Y-81700000D01*
D17*
X107550000Y-82510000D02*
G75*
G03*
X107450000Y-82510000I-50000J0D01*
G01*
X107450000Y-82510000D02*
G75*
G03*
X107550000Y-82510000I50000J0D01*
G01*
D15*
%TO.C,Q5*%
X114600000Y-66730000D02*
X118360000Y-66730000D01*
X114600000Y-73550000D02*
X118360000Y-73550000D01*
X118360000Y-66730000D02*
X118360000Y-67990000D01*
X118360000Y-73550000D02*
X118360000Y-72290000D01*
X113320000Y-66830000D02*
X113080000Y-66500000D01*
X113560000Y-66500000D01*
X113320000Y-66830000D01*
G36*
X113320000Y-66830000D02*
G01*
X113080000Y-66500000D01*
X113560000Y-66500000D01*
X113320000Y-66830000D01*
G37*
%TO.C,R9*%
X117327500Y-80817258D02*
X117327500Y-80342742D01*
X118372500Y-80817258D02*
X118372500Y-80342742D01*
%TO.C,D4*%
X119085000Y-105685000D02*
X120555000Y-105685000D01*
X120555000Y-105685000D02*
X120555000Y-103400000D01*
X119085000Y-103400000D02*
X119085000Y-105685000D01*
%TO.C,J323*%
X118900000Y-66700000D02*
X118900000Y-68100000D01*
X118900000Y-68100000D02*
X120300000Y-68100000D01*
X120300000Y-66700000D02*
X118900000Y-66700000D01*
X120300000Y-68100000D02*
X120300000Y-66700000D01*
%TO.C,D16*%
X111720000Y-80010000D02*
X111720000Y-81710000D01*
X111720000Y-80010000D02*
X114380000Y-80010000D01*
X111720000Y-81710000D02*
X114380000Y-81710000D01*
%TO.C,R19*%
X114737500Y-124347258D02*
X114737500Y-123872742D01*
X115782500Y-124347258D02*
X115782500Y-123872742D01*
%TO.C,R15*%
X118742500Y-92617742D02*
X118742500Y-93092258D01*
X117697500Y-92617742D02*
X117697500Y-93092258D01*
D16*
%TO.C,mouse-bite-2mm-slot*%
X102300000Y-101160000D02*
G75*
G03*
X100300000Y-101160000I-1000000J0D01*
G01*
X100300000Y-97160000D02*
G75*
G03*
X102300000Y-97160000I1000000J0D01*
G01*
D15*
%TO.C,D309*%
X102850000Y-82420000D02*
X102850000Y-85720000D01*
X102850000Y-82420000D02*
X108360000Y-82420000D01*
X102850000Y-85720000D02*
X108360000Y-85720000D01*
D16*
%TO.C,mouse-bite-2mm-slot*%
X102300000Y-115170000D02*
G75*
G03*
X100300000Y-115170000I-1000000J0D01*
G01*
X100300000Y-111170000D02*
G75*
G03*
X102300000Y-111170000I1000000J0D01*
G01*
D15*
%TO.C,R203*%
X85845000Y-89723737D02*
X85845000Y-88276263D01*
X88555000Y-89723737D02*
X88555000Y-88276263D01*
%TO.C,J322*%
X118900000Y-81500000D02*
X118900000Y-82900000D01*
X118900000Y-82900000D02*
X120300000Y-82900000D01*
X120300000Y-81500000D02*
X118900000Y-81500000D01*
X120300000Y-82900000D02*
X120300000Y-81500000D01*
%TO.C,Q4*%
X117320000Y-75210000D02*
X117320000Y-74560000D01*
X117320000Y-75210000D02*
X117320000Y-75860000D01*
X114200000Y-75210000D02*
X114200000Y-74560000D01*
X114200000Y-75210000D02*
X114200000Y-75860000D01*
X117600000Y-74287500D02*
X117270000Y-74047500D01*
X117600000Y-73807500D01*
X117600000Y-74287500D01*
G36*
X117600000Y-74287500D02*
G01*
X117270000Y-74047500D01*
X117600000Y-73807500D01*
X117600000Y-74287500D01*
G37*
D16*
%TO.C,J221*%
X96715000Y-100280000D02*
X96715000Y-110440000D01*
X88565000Y-100280000D02*
X96715000Y-100280000D01*
X96715000Y-110440000D02*
X88565000Y-110440000D01*
X88565000Y-110440000D02*
X88565000Y-100280000D01*
D17*
X92690000Y-99470000D02*
G75*
G03*
X92590000Y-99470000I-50000J0D01*
G01*
X92590000Y-99470000D02*
G75*
G03*
X92690000Y-99470000I50000J0D01*
G01*
D15*
%TO.C,D8*%
X112600000Y-121967500D02*
X114300000Y-121967500D01*
X112600000Y-121967500D02*
X112600000Y-119307500D01*
X114300000Y-121967500D02*
X114300000Y-119307500D01*
D16*
%TO.C,J223*%
X96715000Y-69800000D02*
X96715000Y-79960000D01*
X88565000Y-69800000D02*
X96715000Y-69800000D01*
X96715000Y-79960000D02*
X88565000Y-79960000D01*
X88565000Y-79960000D02*
X88565000Y-69800000D01*
D17*
X92690000Y-68990000D02*
G75*
G03*
X92590000Y-68990000I-50000J0D01*
G01*
X92590000Y-68990000D02*
G75*
G03*
X92690000Y-68990000I50000J0D01*
G01*
D15*
%TO.C,Q10*%
X114340000Y-111850000D02*
X118100000Y-111850000D01*
X114340000Y-118670000D02*
X118100000Y-118670000D01*
X118100000Y-111850000D02*
X118100000Y-113110000D01*
X118100000Y-118670000D02*
X118100000Y-117410000D01*
X113060000Y-111950000D02*
X112820000Y-111620000D01*
X113300000Y-111620000D01*
X113060000Y-111950000D01*
G36*
X113060000Y-111950000D02*
G01*
X112820000Y-111620000D01*
X113300000Y-111620000D01*
X113060000Y-111950000D01*
G37*
D16*
%TO.C,J225*%
X96715000Y-79960000D02*
X96715000Y-90120000D01*
X88565000Y-79960000D02*
X96715000Y-79960000D01*
X96715000Y-90120000D02*
X88565000Y-90120000D01*
X88565000Y-90120000D02*
X88565000Y-79960000D01*
D17*
X92690000Y-79150000D02*
G75*
G03*
X92590000Y-79150000I-50000J0D01*
G01*
X92590000Y-79150000D02*
G75*
G03*
X92690000Y-79150000I50000J0D01*
G01*
D15*
%TO.C,D2*%
X119085000Y-91407500D02*
X120555000Y-91407500D01*
X120555000Y-91407500D02*
X120555000Y-89122500D01*
X119085000Y-89122500D02*
X119085000Y-91407500D01*
%TO.C,R13*%
X117562500Y-123852742D02*
X117562500Y-124327258D01*
X116517500Y-123852742D02*
X116517500Y-124327258D01*
D16*
%TO.C,mouse-bite-2mm-slot*%
X102290000Y-73110000D02*
G75*
G03*
X100290000Y-73110000I-1000000J0D01*
G01*
X100290000Y-69110000D02*
G75*
G03*
X102290000Y-69110000I1000000J0D01*
G01*
D15*
%TO.C,R1*%
X115177500Y-80437258D02*
X115177500Y-79962742D01*
X116222500Y-80437258D02*
X116222500Y-79962742D01*
%TO.C,D9*%
X118740000Y-81110000D02*
X120440000Y-81110000D01*
X118740000Y-81110000D02*
X118740000Y-78450000D01*
X120440000Y-81110000D02*
X120440000Y-78450000D01*
D16*
%TO.C,J319*%
X103425000Y-127020000D02*
X103425000Y-116860000D01*
X111575000Y-127020000D02*
X103425000Y-127020000D01*
X103425000Y-116860000D02*
X111575000Y-116860000D01*
X111575000Y-116860000D02*
X111575000Y-127020000D01*
D17*
X107550000Y-127830000D02*
G75*
G03*
X107450000Y-127830000I-50000J0D01*
G01*
X107450000Y-127830000D02*
G75*
G03*
X107550000Y-127830000I50000J0D01*
G01*
D15*
%TO.C,R2*%
X116737500Y-77682258D02*
X116737500Y-77207742D01*
X117782500Y-77682258D02*
X117782500Y-77207742D01*
D18*
%TO.C,J321*%
X106494600Y-127432999D02*
X106494600Y-134087799D01*
X106494600Y-134087799D02*
X119245400Y-134087799D01*
X119245400Y-127432999D02*
X106494600Y-127432999D01*
X119245400Y-134087799D02*
X119245400Y-127432999D01*
D16*
X119160000Y-130760000D02*
G75*
G03*
X119160000Y-130760000I0J0D01*
G01*
X119160000Y-130760000D02*
G75*
G03*
X119160000Y-130760000I0J0D01*
G01*
D19*
X120581000Y-130850000D02*
G75*
G03*
X119819000Y-130850000I-381000J0D01*
G01*
X119819000Y-130850000D02*
G75*
G03*
X120581000Y-130850000I381000J0D01*
G01*
%TD*%
%LPC*%
D20*
%TO.C,R3*%
X110880000Y-82750000D03*
X110880000Y-84400000D03*
%TD*%
%TO.C,R7*%
X110530000Y-113230000D03*
X110530000Y-114880000D03*
%TD*%
D21*
%TO.C,D13*%
X118840000Y-123980000D03*
X118840000Y-121780000D03*
%TD*%
D22*
%TO.C,J317*%
X107500000Y-89000000D03*
D23*
X107500000Y-94080000D03*
%TD*%
D24*
%TO.C,J302*%
X128210000Y-118050000D03*
%TD*%
D25*
%TO.C,mouse-bite-2mm-slot*%
X100550000Y-85890000D03*
X102050000Y-85890000D03*
X100550000Y-85140000D03*
X102050000Y-85140000D03*
X100550000Y-84390000D03*
X102050000Y-84390000D03*
%TD*%
D26*
%TO.C,R17*%
X119660000Y-77310000D03*
X119660000Y-75660000D03*
%TD*%
D25*
%TO.C,mouse-bite-2mm-slot*%
X100550000Y-127950000D03*
X102050000Y-127950000D03*
X100550000Y-127200000D03*
X102050000Y-127200000D03*
X100550000Y-126450000D03*
X102050000Y-126450000D03*
%TD*%
D27*
%TO.C,D3*%
X119690000Y-120455000D03*
X119690000Y-118880000D03*
%TD*%
D24*
%TO.C,J310*%
X128240000Y-72320000D03*
%TD*%
D28*
%TO.C,D7*%
X115040000Y-108642500D03*
X115040000Y-110842500D03*
%TD*%
D29*
%TO.C,J324*%
X119800000Y-97400000D03*
%TD*%
D26*
%TO.C,R5*%
X116700000Y-110840000D03*
X116700000Y-109190000D03*
%TD*%
D28*
%TO.C,D14*%
X113190000Y-108302500D03*
X113190000Y-110502500D03*
%TD*%
D29*
%TO.C,J325*%
X119600000Y-111800000D03*
%TD*%
D30*
%TO.C,R21*%
X114685000Y-92570000D03*
X113035000Y-92570000D03*
%TD*%
%TO.C,R14*%
X120025000Y-109800000D03*
X118375000Y-109800000D03*
%TD*%
D24*
%TO.C,J210*%
X74278250Y-72187224D03*
%TD*%
D28*
%TO.C,D11*%
X113110000Y-104942500D03*
X113110000Y-107142500D03*
%TD*%
D27*
%TO.C,D1*%
X119820000Y-74437500D03*
X119820000Y-72862500D03*
%TD*%
D24*
%TO.C,J209*%
X74278250Y-77245000D03*
%TD*%
D20*
%TO.C,R6*%
X110680000Y-98335000D03*
X110680000Y-99985000D03*
%TD*%
D31*
%TO.C,D303*%
X104400000Y-128862500D03*
X104400000Y-132862500D03*
%TD*%
D32*
%TO.C,Q1*%
X116880000Y-119700000D03*
X114980000Y-119700000D03*
X115930000Y-121575000D03*
%TD*%
D33*
%TO.C,R18*%
X118415000Y-108200000D03*
X120065000Y-108200000D03*
%TD*%
D24*
%TO.C,J314*%
X128230000Y-102820000D03*
%TD*%
%TO.C,J311*%
X128260000Y-92650000D03*
%TD*%
D34*
%TO.C,Q8*%
X113170000Y-98420000D03*
X113170000Y-100720000D03*
X113170000Y-103020000D03*
D35*
X119470000Y-100720000D03*
%TD*%
D24*
%TO.C,J206*%
X74308250Y-92488334D03*
%TD*%
D21*
%TO.C,D6*%
X112830000Y-91357500D03*
X112830000Y-89157500D03*
%TD*%
D24*
%TO.C,J306*%
X128180000Y-87590000D03*
%TD*%
%TO.C,J307*%
X128230000Y-123140000D03*
%TD*%
D36*
%TO.C,D302*%
X104120000Y-113990000D03*
X108120000Y-113990000D03*
%TD*%
D34*
%TO.C,Q6*%
X113300000Y-83007500D03*
X113300000Y-85307500D03*
X113300000Y-87607500D03*
D35*
X119600000Y-85307500D03*
%TD*%
D33*
%TO.C,R12*%
X118375000Y-106400000D03*
X120025000Y-106400000D03*
%TD*%
D37*
%TO.C,D15*%
X112350000Y-96140000D03*
X114550000Y-96140000D03*
%TD*%
D24*
%TO.C,J202*%
X74298250Y-112799446D03*
%TD*%
%TO.C,J309*%
X128230000Y-77420000D03*
%TD*%
D32*
%TO.C,Q2*%
X116900000Y-105240000D03*
X115000000Y-105240000D03*
X115950000Y-107115000D03*
%TD*%
D21*
%TO.C,D5*%
X112800000Y-76017500D03*
X112800000Y-73817500D03*
%TD*%
D26*
%TO.C,R10*%
X119780000Y-93860000D03*
X119780000Y-92210000D03*
%TD*%
D38*
%TO.C,R204*%
X87200000Y-85262500D03*
X87200000Y-82337500D03*
%TD*%
D22*
%TO.C,J222*%
X92640000Y-97740000D03*
D23*
X92640000Y-92660000D03*
%TD*%
D24*
%TO.C,J203*%
X74308250Y-107721668D03*
%TD*%
D21*
%TO.C,D12*%
X113460000Y-125200000D03*
X113460000Y-123000000D03*
%TD*%
D39*
%TO.C,R202*%
X86400000Y-112462500D03*
X86400000Y-109537500D03*
%TD*%
D33*
%TO.C,R20*%
X113020000Y-94460000D03*
X114670000Y-94460000D03*
%TD*%
%TO.C,R4*%
X114135000Y-77680000D03*
X115785000Y-77680000D03*
%TD*%
D24*
%TO.C,J315*%
X128210000Y-107880000D03*
%TD*%
%TO.C,J208*%
X74298250Y-82342778D03*
%TD*%
D22*
%TO.C,J224*%
X92600000Y-118060000D03*
D23*
X92600000Y-112980000D03*
%TD*%
D22*
%TO.C,J320*%
X107500000Y-104000000D03*
D23*
X107500000Y-109080000D03*
%TD*%
D36*
%TO.C,D301*%
X104160000Y-98860000D03*
X108160000Y-98860000D03*
%TD*%
D39*
%TO.C,R201*%
X86400000Y-117800000D03*
X86400000Y-114875000D03*
%TD*%
D32*
%TO.C,Q3*%
X117120000Y-89315000D03*
X115220000Y-89315000D03*
X116170000Y-91190000D03*
%TD*%
D40*
%TO.C,J226*%
X95660000Y-125970000D03*
X93160000Y-125970000D03*
X90660000Y-125970000D03*
X88160000Y-125970000D03*
%TD*%
D24*
%TO.C,J201*%
X74370000Y-117920000D03*
%TD*%
D30*
%TO.C,R8*%
X115040000Y-126430000D03*
X113390000Y-126430000D03*
%TD*%
D33*
%TO.C,R11*%
X116690000Y-126380000D03*
X118340000Y-126380000D03*
%TD*%
D41*
%TO.C,D10*%
X118160000Y-96160000D03*
X115960000Y-96160000D03*
%TD*%
D22*
%TO.C,J318*%
X107500000Y-69000000D03*
X107500000Y-74080000D03*
D23*
X107500000Y-79160000D03*
%TD*%
D34*
%TO.C,Q5*%
X113300000Y-67840000D03*
X113300000Y-70140000D03*
X113300000Y-72440000D03*
D35*
X119600000Y-70140000D03*
%TD*%
D26*
%TO.C,R9*%
X117850000Y-81405000D03*
X117850000Y-79755000D03*
%TD*%
D27*
%TO.C,D4*%
X119820000Y-104987500D03*
X119820000Y-103412500D03*
%TD*%
D29*
%TO.C,J323*%
X119600000Y-67400000D03*
%TD*%
D37*
%TO.C,D16*%
X112230000Y-80860000D03*
X114430000Y-80860000D03*
%TD*%
D26*
%TO.C,R19*%
X115260000Y-124935000D03*
X115260000Y-123285000D03*
%TD*%
D20*
%TO.C,R15*%
X118220000Y-92030000D03*
X118220000Y-93680000D03*
%TD*%
D25*
%TO.C,mouse-bite-2mm-slot*%
X100550000Y-99910000D03*
X102050000Y-99910000D03*
X100550000Y-99160000D03*
X102050000Y-99160000D03*
X100550000Y-98410000D03*
X102050000Y-98410000D03*
%TD*%
D36*
%TO.C,D309*%
X104360000Y-84070000D03*
X108360000Y-84070000D03*
%TD*%
D25*
%TO.C,mouse-bite-2mm-slot*%
X100550000Y-113920000D03*
X102050000Y-113920000D03*
X100550000Y-113170000D03*
X102050000Y-113170000D03*
X100550000Y-112420000D03*
X102050000Y-112420000D03*
%TD*%
D38*
%TO.C,R203*%
X87200000Y-90462500D03*
X87200000Y-87537500D03*
%TD*%
D29*
%TO.C,J322*%
X119600000Y-82200000D03*
%TD*%
D32*
%TO.C,Q4*%
X116710000Y-74272500D03*
X114810000Y-74272500D03*
X115760000Y-76147500D03*
%TD*%
D24*
%TO.C,J204*%
X74298250Y-102653890D03*
%TD*%
%TO.C,J207*%
X74308250Y-87400556D03*
%TD*%
%TO.C,J205*%
X74280000Y-97590000D03*
%TD*%
D22*
%TO.C,J221*%
X92640000Y-107900000D03*
D23*
X92640000Y-102820000D03*
%TD*%
D21*
%TO.C,D8*%
X113450000Y-121457500D03*
X113450000Y-119257500D03*
%TD*%
D22*
%TO.C,J223*%
X92640000Y-77420000D03*
D23*
X92640000Y-72340000D03*
%TD*%
D34*
%TO.C,Q10*%
X113040000Y-112960000D03*
X113040000Y-115260000D03*
X113040000Y-117560000D03*
D35*
X119340000Y-115260000D03*
%TD*%
D22*
%TO.C,J225*%
X92640000Y-87580000D03*
D23*
X92640000Y-82500000D03*
%TD*%
D27*
%TO.C,D2*%
X119820000Y-90710000D03*
X119820000Y-89135000D03*
%TD*%
D20*
%TO.C,R13*%
X117040000Y-123265000D03*
X117040000Y-124915000D03*
%TD*%
D25*
%TO.C,mouse-bite-2mm-slot*%
X100540000Y-71860000D03*
X102040000Y-71860000D03*
X100540000Y-71110000D03*
X102040000Y-71110000D03*
X100540000Y-70360000D03*
X102040000Y-70360000D03*
%TD*%
D26*
%TO.C,R1*%
X115700000Y-81025000D03*
X115700000Y-79375000D03*
%TD*%
D21*
%TO.C,D9*%
X119590000Y-80600000D03*
X119590000Y-78400000D03*
%TD*%
D22*
%TO.C,J319*%
X107500000Y-119400000D03*
D23*
X107500000Y-124480000D03*
%TD*%
D26*
%TO.C,R2*%
X117260000Y-78270000D03*
X117260000Y-76620000D03*
%TD*%
D40*
%TO.C,J321*%
X116620000Y-130760000D03*
X114120000Y-130760000D03*
X111620000Y-130760000D03*
X109120000Y-130760000D03*
%TD*%
%LPD*%
M02*
