<?xml version="1.0" standalone="no"?>
<!DOCTYPE svg PUBLIC "-//W3C//DTD SVG 20010904//EN"
 "http://www.w3.org/TR/2001/REC-SVG-20010904/DTD/svg10.dtd">
<svg version="1.0" xmlns="http://www.w3.org/2000/svg"
 width="62.000000pt" height="63.000000pt" viewBox="0 0 62.000000 63.000000"
 preserveAspectRatio="xMidYMid meet">

<g transform="translate(0.000000,63.000000) scale(0.100000,-0.100000)"
fill="#000000" stroke="none">
<path d="M259 601 c-22 -23 -29 -39 -29 -69 0 -43 27 -87 60 -97 18 -6 20 -16
20 -100 l0 -94 -122 -3 -122 -3 -35 -107 c-26 -81 -32 -111 -24 -119 22 -22
39 0 68 90 l29 91 38 0 37 0 -31 -85 c-22 -62 -28 -89 -20 -97 21 -21 39 2 71
91 l33 91 35 0 c24 0 34 -4 30 -13 -33 -87 -50 -158 -40 -168 22 -22 39 0 68
90 l29 91 39 0 c27 0 38 -4 34 -12 -33 -88 -50 -159 -40 -169 22 -22 39 0 68
90 l29 91 39 0 c27 0 38 -4 34 -12 -33 -88 -50 -159 -40 -169 7 -7 18 -9 25
-7 16 7 82 204 74 224 -4 11 -31 14 -136 14 l-130 0 0 94 c0 85 2 95 20 101
33 10 60 54 60 97 0 56 -43 98 -100 98 -33 0 -48 -6 -71 -29z m136 -6 c19 -18
25 -35 25 -65 0 -30 -6 -47 -25 -65 -13 -14 -29 -25 -34 -25 -5 0 -11 24 -13
53 -2 38 -7 52 -18 52 -11 0 -16 -14 -18 -52 -2 -29 -8 -53 -13 -53 -5 0 -21
11 -34 25 -19 18 -25 35 -25 65 0 56 34 90 90 90 30 0 47 -6 65 -25z"/>
</g>
</svg>
