M48
; DRILL file {KiCad 7.0.11} date Tue Nov  5 15:48:01 2024
; FORMAT={-:-/ absolute / inch / decimal}
; #@! TF.CreationDate,2024-11-05T15:48:01-05:00
; #@! TF.GenerationSoftware,Kicad,Pcbnew,7.0.11
; #@! TF.FileFunction,Plated,1,2,PTH
FMAT,2
INCH
; #@! TA.AperFunction,Plated,PTH,ViaDrill
T1C0.0157
; #@! TA.AperFunction,Plated,PTH,ComponentDrill
T2C0.0315
; #@! TA.AperFunction,Plated,PTH,ComponentDrill
T3C0.0390
; #@! TA.AperFunction,Plated,PTH,ComponentDrill
T4C0.0512
%
G90
G05
T1
X3.1238Y-3.0307
X3.1288Y-4.2407
X3.1288Y-4.4407
X3.1288Y-4.6407
X3.1338Y-4.0407
X3.1388Y-3.2407
X3.1438Y-3.4407
X3.1438Y-3.6407
X3.1438Y-3.8407
X3.1838Y-4.4407
X3.1838Y-4.6407
X3.1888Y-3.0307
X3.1988Y-4.0407
X3.1988Y-4.2407
X3.2038Y-3.4407
X3.2088Y-3.2407
X3.2088Y-3.8407
X3.2138Y-3.6407
X3.2388Y-4.6407
X3.2438Y-4.4407
X3.2588Y-3.0307
X3.2588Y-4.0407
X3.2588Y-4.2407
X3.2688Y-3.4407
X3.2688Y-3.8407
X3.2788Y-3.2407
X3.2788Y-3.6407
X3.5338Y-4.5207
X3.5438Y-4.3407
X3.5838Y-4.3407
X3.5938Y-3.9457
X3.6388Y-3.9457
X3.7669Y-3.9545
X3.8938Y-4.1512
X4.0602Y-4.5469
X4.0622Y-5.1764
X4.0622Y-5.2165
X4.0626Y-5.2575
X4.063Y-3.9496
X4.0657Y-3.3748
X4.2717Y-3.3795
X4.276Y-3.9823
X4.3071Y-3.4484
X4.3108Y-4.557
X4.3181Y-3.6417
X4.3209Y-2.8484
X4.3315Y-3.0551
X4.3375Y-3.3733
X4.3398Y-4.2705
X4.3413Y-4.8366
X4.3437Y-4.6815
X4.3441Y-4.089
X4.3606Y-4.3886
X4.3657Y-2.8484
X4.3673Y-3.1913
X4.3677Y-3.5327
X4.3744Y-4.6461
X4.376Y-4.0606
X4.3783Y-3.5906
X4.3953Y-3.2382
X4.3999Y-3.4956
X4.5356Y-3.607
X4.5378Y-3.0661
X4.5382Y-3.0071
X4.5433Y-3.9201
X4.5449Y-4.4717
X4.5488Y-3.7465
X4.5492Y-2.7142
X4.5551Y-3.2756
X4.5571Y-3.1815
X4.5669Y-4.1039
X4.572Y-4.9728
X4.5858Y-4.428
X4.6094Y-3.8035
X4.6181Y-4.3768
X4.6193Y-4.3256
X4.6268Y-3.1992
X4.6275Y-4.2839
X4.6352Y-5.018
X4.6391Y-3.0315
X4.6557Y-2.9568
X4.663Y-3.6094
X4.665Y-3.1101
X4.6703Y-2.9202
X4.6965Y-3.2413
X4.7906Y-3.626
X4.7906Y-3.6752
X4.8004Y-4.2748
X4.8012Y-4.228
X4.8063Y-4.6539
X4.8398Y-3.0197
X4.8409Y-3.0693
X4.8472Y-3.4504
X4.8555Y-4.2319
X4.8563Y-3.626
X4.8563Y-3.6736
X4.8563Y-4.2736
X4.8606Y-4.8748
X4.861Y-4.8272
X4.8646Y-4.0476
X4.876Y-3.0665
X4.8772Y-3.0197
X4.887Y-2.85
X4.8917Y-4.874
X4.8921Y-4.8256
T2
X3.3417Y-4.343
X3.3417Y-4.543
X3.3432Y-3.3465
X3.3432Y-3.5465
X3.3432Y-3.9487
X3.3432Y-4.1487
X3.3468Y-2.9442
X3.3468Y-3.1442
T3
X3.4709Y-4.9594
X3.5693Y-4.9594
X3.6677Y-4.9594
X3.7661Y-4.9594
X4.2961Y-5.148
X4.3945Y-5.148
X4.4929Y-5.148
X4.5913Y-5.148
T4
X3.6472Y-2.848
X3.6472Y-3.048
X3.6472Y-3.248
X3.6472Y-3.448
X3.6472Y-3.648
X3.6472Y-3.848
X3.6472Y-4.048
X3.6472Y-4.248
X3.6472Y-4.448
X3.6472Y-4.648
X4.2323Y-2.7165
X4.2323Y-2.9165
X4.2323Y-3.1165
X4.2323Y-3.5039
X4.2323Y-3.7039
X4.2323Y-4.0945
X4.2323Y-4.2945
X4.2323Y-4.7008
X4.2323Y-4.9008
M30
